{
 "cells": [
  {
   "cell_type": "markdown",
   "metadata": {},
   "source": [
    "Referenced https://github.com/kstar/markov-music for pre-processing steps and MIDI conversion functions."
   ]
  },
  {
   "cell_type": "code",
   "execution_count": 1,
   "metadata": {
    "scrolled": false
   },
   "outputs": [
    {
     "name": "stdout",
     "output_type": "stream",
     "text": [
      "Collecting git+https://github.com/vishnubob/python-midi@feature/python3\n",
      "  Cloning https://github.com/vishnubob/python-midi (to revision feature/python3) to /private/var/folders/60/9hjj_5fj7_q5kgnc6ppg7_wc0000gn/T/pip-req-build-kbqfhfzl\n",
      "  Running command git clone -q https://github.com/vishnubob/python-midi /private/var/folders/60/9hjj_5fj7_q5kgnc6ppg7_wc0000gn/T/pip-req-build-kbqfhfzl\n",
      "  Running command git checkout -b feature/python3 --track origin/feature/python3\n",
      "  Switched to a new branch 'feature/python3'\n",
      "  Branch 'feature/python3' set up to track remote branch 'feature/python3' from 'origin'.\n",
      "Requirement already satisfied (use --upgrade to upgrade): midi==0.2.3 from git+https://github.com/vishnubob/python-midi@feature/python3 in /Users/lanzhang/opt/anaconda3/lib/python3.8/site-packages\n",
      "Building wheels for collected packages: midi\n",
      "  Building wheel for midi (setup.py) ... \u001b[?25ldone\n",
      "\u001b[?25h  Created wheel for midi: filename=midi-0.2.3-py3-none-any.whl size=9666 sha256=183aec33a5374f0eb23e6ec2df146e0885a01238193769585839f4f647e22e61\n",
      "  Stored in directory: /private/var/folders/60/9hjj_5fj7_q5kgnc6ppg7_wc0000gn/T/pip-ephem-wheel-cache-4_ht31j3/wheels/1a/c5/f7/414f20cd34d786c2af030164220e2dae9a9760d90d4e58a5a4\n",
      "Successfully built midi\n",
      "fatal: destination path 'python-midi' already exists and is not an empty directory.\n",
      "Collecting git+https://github.com/louisabraham/python3-midi\n",
      "  Cloning https://github.com/louisabraham/python3-midi to /private/var/folders/60/9hjj_5fj7_q5kgnc6ppg7_wc0000gn/T/pip-req-build-s59en28u\n",
      "  Running command git clone -q https://github.com/louisabraham/python3-midi /private/var/folders/60/9hjj_5fj7_q5kgnc6ppg7_wc0000gn/T/pip-req-build-s59en28u\n",
      "Building wheels for collected packages: midi\n",
      "  Building wheel for midi (setup.py) ... \u001b[?25ldone\n",
      "\u001b[?25h  Created wheel for midi: filename=midi-0.2.3-py3-none-any.whl size=9718 sha256=66a5429f4fa2547b87c5de26eb7c035ec48dbacc373a02d477856c2f6fcfdc24\n",
      "  Stored in directory: /private/var/folders/60/9hjj_5fj7_q5kgnc6ppg7_wc0000gn/T/pip-ephem-wheel-cache-zml3t8ab/wheels/ab/f7/23/b2dc39f11a646c28396d954b99759f34b83f9008f492a91f01\n",
      "Successfully built midi\n",
      "Installing collected packages: midi\n",
      "  Attempting uninstall: midi\n",
      "    Found existing installation: midi 0.2.3\n",
      "    Uninstalling midi-0.2.3:\n",
      "      Successfully uninstalled midi-0.2.3\n",
      "Successfully installed midi-0.2.3\n"
     ]
    }
   ],
   "source": [
    "# Update midi package\n",
    "!pip install git+https://github.com/vishnubob/python-midi@feature/python3\n",
    "!git clone -b feature/python3 https://github.com/vishnubob/python-midi.git\n",
    "!pip install --upgrade git+https://github.com/louisabraham/python3-midi"
   ]
  },
  {
   "cell_type": "code",
   "execution_count": 2,
   "metadata": {
    "scrolled": false
   },
   "outputs": [],
   "source": [
    "# !python python-midi/setup.py install"
   ]
  },
  {
   "cell_type": "markdown",
   "metadata": {},
   "source": [
    "# Preprocessing"
   ]
  },
  {
   "cell_type": "code",
   "execution_count": 3,
   "metadata": {},
   "outputs": [],
   "source": [
    "import mido # https://github.com/mido/mido\n",
    "import midi # https://github.com/vishnubob/python-midi\n",
    "import random\n",
    "import numpy as np\n",
    "import scipy as sp\n",
    "from scipy.sparse import lil_matrix\n",
    "from collections import defaultdict, Counter\n",
    "from sys import getsizeof\n",
    "import itertools\n",
    "import statistics as stats"
   ]
  },
  {
   "cell_type": "code",
   "execution_count": 4,
   "metadata": {},
   "outputs": [
    {
     "name": "stdout",
     "output_type": "stream",
     "text": [
      "midi.Pattern(format=1, resolution=384, tracks=\\\r\n",
      "[midi.Track(\\\r\n",
      "  [midi.TrackNameEvent(tick=0, text='untitled', data=[117, 110, 116, 105, 116, 108, 101, 100]),\r\n",
      "   midi.SmpteOffsetEvent(tick=0, data=[96, 0, 3, 0, 0]),\r\n",
      "   midi.TimeSignatureEvent(tick=0, data=[2, 2, 24, 8]),\r\n",
      "   midi.KeySignatureEvent(tick=0, data=[0, 0]),\r\n",
      "   midi.SetTempoEvent(tick=0, data=[9, 216, 41]),\r\n",
      "   midi.EndOfTrackEvent(tick=0, data=[])]),\r\n",
      " midi.Track(\\\r\n",
      "  [midi.PortEvent(tick=0, data=[0]),\r\n",
      "   midi.TrackNameEvent(tick=0, text='Solo Violin', data=[83, 111, 108, 111, 32, 86, 105, 111, 108, 105, 110]),\r\n",
      "   midi.ProgramChangeEvent(tick=0, channel=0, data=[40]),\r\n",
      "   midi.ControlChangeEvent(tick=0, channel=0, data=[7, 115]),\r\n",
      "   midi.ControlChangeEvent(tick=0, channel=0, data=[10, 64]),\r\n",
      "   midi.NoteOnEvent(tick=576, channel=0, data=[76, 100]),\r\n",
      "   midi.NoteOnEvent(tick=192, channel=0, data=[76, 0]),\r\n",
      "   midi.NoteOnEvent(tick=0, channel=0, data=[81, 100]),\r\n",
      "   midi.NoteOnEvent(tick=384, channel=0, data=[81, 0]),\r\n",
      "   midi.NoteOnEvent(tick=192, channel=0, data=[76, 100]),\r\n",
      "   midi.NoteOnEvent(tick=192, channel=0, data=[76, 0]),\r\n",
      "   midi.NoteOnEvent(tick=0, channel=0, data=[77, 100]),\r\n",
      "   midi.NoteOnEvent(tick=384, channel=0, data=[77, 0]),\r\n",
      "   midi.NoteOnEvent(tick=192, channel=0, data=[74, 100]),\r\n",
      "   midi.NoteOnEvent(tick=192, channel=0, data=[74, 0]),\r\n",
      "   midi.NoteOnEvent(tick=0, channel=0, data=[76, 100]),\r\n",
      "   midi.NoteOnEvent(tick=96, channel=0, data=[76, 0]),\r\n",
      "   midi.NoteOnEvent(tick=0, channel=0, data=[74, 100]),\r\n",
      "   midi.NoteOnEvent(tick=96, channel=0, data=[74, 0]),\r\n",
      "   midi.NoteOnEvent(tick=0, channel=0, data=[72, 100]),\r\n",
      "   midi.NoteOnEvent(tick=96, channel=0, data=[72, 0]),\r\n",
      "   midi.NoteOnEvent(tick=0, channel=0, data=[76, 100]),\r\n",
      "   midi.NoteOnEvent(tick=96, channel=0, data=[76, 0]),\r\n",
      "   midi.NoteOnEvent(tick=0, channel=0, data=[74, 100]),\r\n",
      "   midi.NoteOnEvent(tick=96, channel=0, data=[74, 0]),\r\n",
      "   midi.NoteOnEvent(tick=0, channel=0, data=[72, 100]),\r\n",
      "   midi.NoteOnEvent(tick=96, channel=0, data=[72, 0]),\r\n",
      "   midi.NoteOnEvent(tick=0, channel=0, data=[71, 100]),\r\n",
      "   midi.NoteOnEvent(tick=96, channel=0, data=[71, 0]),\r\n",
      "   midi.NoteOnEvent(tick=0, channel=0, data=[74, 100]),\r\n",
      "   midi.NoteOnEvent(tick=96, channel=0, data=[74, 0]),\r\n",
      "   midi.NoteOnEvent(tick=0, channel=0, data=[72, 100]),\r\n",
      "   midi.NoteOnEvent(tick=192, channel=0, data=[72, 0]),\r\n",
      "   midi.NoteOnEvent(tick=0, channel=0, data=[69, 100]),\r\n",
      "   midi.NoteOnEvent(tick=192, channel=0, data=[69, 0]),\r\n",
      "   midi.NoteOnEvent(tick=96, channel=0, data=[69, 100]),\r\n",
      "   midi.NoteOnEvent(tick=96, channel=0, data=[69, 0]),\r\n",
      "   midi.NoteOnEvent(tick=0, channel=0, data=[68, 100]),\r\n",
      "   midi.NoteOnEvent(tick=96, channel=0, data=[68, 0]),\r\n",
      "   midi.NoteOnEvent(tick=0, channel=0, data=[69, 100]),\r\n",
      "   midi.NoteOnEvent(tick=96, channel=0, data=[69, 0]),\r\n",
      "   midi.NoteOnEvent(tick=0, channel=0, data=[71, 100]),\r\n",
      "   midi.NoteOnEvent(tick=96, channel=0, data=[71, 0]),\r\n",
      "   midi.NoteOnEvent(tick=0, channel=0, data=[69, 100]),\r\n",
      "   midi.NoteOnEvent(tick=96, channel=0, data=[69, 0]),\r\n",
      "   midi.NoteOnEvent(tick=0, channel=0, data=[68, 100]),\r\n",
      "   midi.NoteOnEvent(tick=96, channel=0, data=[68, 0]),\r\n",
      "   midi.NoteOnEvent(tick=0, channel=0, data=[69, 100]),\r\n",
      "   midi.NoteOnEvent(tick=96, channel=0, data=[69, 0]),\r\n",
      "   midi.NoteOnEvent(tick=0, channel=0, data=[72, 100]),\r\n",
      "   midi.NoteOnEvent(tick=96, channel=0, data=[72, 0]),\r\n",
      "   midi.NoteOnEvent(tick=0, channel=0, data=[69, 100]),\r\n",
      "   midi.NoteOnEvent(tick=96, channel=0, data=[69, 0]),\r\n",
      "   midi.NoteOnEvent(tick=0, channel=0, data=[68, 100]),\r\n",
      "   midi.NoteOnEvent(tick=96, channel=0, data=[68, 0]),\r\n",
      "   midi.NoteOnEvent(tick=0, channel=0, data=[69, 100]),\r\n",
      "   midi.NoteOnEvent(tick=96, channel=0, data=[69, 0]),\r\n",
      "   midi.NoteOnEvent(tick=0, channel=0, data=[74, 100]),\r\n",
      "   midi.NoteOnEvent(tick=96, channel=0, data=[74, 0]),\r\n",
      "   midi.NoteOnEvent(tick=0, channel=0, data=[69, 100]),\r\n",
      "   midi.NoteOnEvent(tick=96, channel=0, data=[69, 0]),\r\n",
      "   midi.NoteOnEvent(tick=0, channel=0, data=[68, 100]),\r\n",
      "   midi.NoteOnEvent(tick=96, channel=0, data=[68, 0]),\r\n",
      "   midi.NoteOnEvent(tick=0, channel=0, data=[69, 100]),\r\n",
      "   midi.NoteOnEvent(tick=96, channel=0, data=[69, 0]),\r\n",
      "   midi.NoteOnEvent(tick=0, channel=0, data=[76, 100]),\r\n",
      "   midi.NoteOnEvent(tick=96, channel=0, data=[76, 0]),\r\n",
      "   midi.NoteOnEvent(tick=0, channel=0, data=[69, 100]),\r\n",
      "   midi.NoteOnEvent(tick=96, channel=0, data=[69, 0]),\r\n",
      "   midi.NoteOnEvent(tick=0, channel=0, data=[68, 100]),\r\n",
      "   midi.NoteOnEvent(tick=96, channel=0, data=[68, 0]),\r\n",
      "   midi.NoteOnEvent(tick=0, channel=0, data=[69, 100]),\r\n",
      "   midi.NoteOnEvent(tick=96, channel=0, data=[69, 0]),\r\n",
      "   midi.NoteOnEvent(tick=0, channel=0, data=[77, 100]),\r\n",
      "   midi.NoteOnEvent(tick=96, channel=0, data=[77, 0]),\r\n",
      "   midi.NoteOnEvent(tick=0, channel=0, data=[79, 100]),\r\n",
      "   midi.NoteOnEvent(tick=96, channel=0, data=[79, 0]),\r\n",
      "   midi.NoteOnEvent(tick=0, channel=0, data=[77, 100]),\r\n",
      "   midi.NoteOnEvent(tick=96, channel=0, data=[77, 0]),\r\n",
      "   midi.NoteOnEvent(tick=0, channel=0, data=[76, 100]),\r\n",
      "   midi.NoteOnEvent(tick=96, channel=0, data=[76, 0]),\r\n",
      "   midi.NoteOnEvent(tick=0, channel=0, data=[74, 100]),\r\n",
      "   midi.NoteOnEvent(tick=96, channel=0, data=[74, 0]),\r\n",
      "   midi.NoteOnEvent(tick=0, channel=0, data=[72, 100]),\r\n",
      "   midi.NoteOnEvent(tick=96, channel=0, data=[72, 0]),\r\n",
      "   midi.NoteOnEvent(tick=0, channel=0, data=[71, 100]),\r\n",
      "   midi.NoteOnEvent(tick=96, channel=0, data=[71, 0]),\r\n",
      "   midi.NoteOnEvent(tick=0, channel=0, data=[69, 100]),\r\n",
      "   midi.NoteOnEvent(tick=96, channel=0, data=[69, 0]),\r\n",
      "   midi.NoteOnEvent(tick=0, channel=0, data=[68, 100]),\r\n",
      "   midi.NoteOnEvent(tick=192, channel=0, data=[68, 0]),\r\n",
      "   midi.NoteOnEvent(tick=0, channel=0, data=[64, 100]),\r\n",
      "   midi.NoteOnEvent(tick=192, channel=0, data=[64, 0]),\r\n",
      "   midi.NoteOnEvent(tick=0, channel=0, data=[83, 100]),\r\n",
      "   midi.NoteOnEvent(tick=576, channel=0, data=[83, 0]),\r\n",
      "   midi.NoteOnEvent(tick=0, channel=0, data=[81, 100]),\r\n",
      "   midi.NoteOnEvent(tick=96, channel=0, data=[81, 0]),\r\n",
      "   midi.NoteOnEvent(tick=0, channel=0, data=[80, 100]),\r\n",
      "   midi.NoteOnEvent(tick=96, channel=0, data=[80, 0]),\r\n",
      "   midi.NoteOnEvent(tick=0, channel=0, data=[81, 100]),\r\n",
      "   midi.NoteOnEvent(tick=192, channel=0, data=[81, 0]),\r\n",
      "   midi.NoteOnEvent(tick=0, channel=0, data=[84, 100]),\r\n",
      "   midi.NoteOnEvent(tick=384, channel=0, data=[84, 0]),\r\n",
      "   midi.NoteOnEvent(tick=0, channel=0, data=[78, 100]),\r\n",
      "   midi.NoteOnEvent(tick=192, channel=0, data=[78, 0]),\r\n",
      "   midi.NoteOnEvent(tick=0, channel=0, data=[81, 100]),\r\n",
      "   midi.NoteOnEvent(tick=576, channel=0, data=[81, 0]),\r\n",
      "   midi.NoteOnEvent(tick=0, channel=0, data=[79, 100]),\r\n",
      "   midi.NoteOnEvent(tick=96, channel=0, data=[79, 0]),\r\n",
      "   midi.NoteOnEvent(tick=0, channel=0, data=[78, 100]),\r\n",
      "   midi.NoteOnEvent(tick=96, channel=0, data=[78, 0]),\r\n",
      "   midi.NoteOnEvent(tick=0, channel=0, data=[79, 100]),\r\n",
      "   midi.NoteOnEvent(tick=192, channel=0, data=[79, 0]),\r\n",
      "   midi.NoteOnEvent(tick=0, channel=0, data=[83, 100]),\r\n",
      "   midi.NoteOnEvent(tick=288, channel=0, data=[83, 0]),\r\n",
      "   midi.NoteOnEvent(tick=0, channel=0, data=[81, 100]),\r\n",
      "   midi.NoteOnEvent(tick=96, channel=0, data=[81, 0]),\r\n",
      "   midi.NoteOnEvent(tick=0, channel=0, data=[79, 100]),\r\n",
      "   midi.NoteOnEvent(tick=96, channel=0, data=[79, 0]),\r\n",
      "   midi.NoteOnEvent(tick=0, channel=0, data=[78, 100]),\r\n",
      "   midi.NoteOnEvent(tick=96, channel=0, data=[78, 0]),\r\n",
      "   midi.NoteOnEvent(tick=0, channel=0, data=[76, 100]),\r\n",
      "   midi.NoteOnEvent(tick=576, channel=0, data=[76, 0]),\r\n",
      "   midi.NoteOnEvent(tick=0, channel=0, data=[78, 100]),\r\n",
      "   midi.NoteOnEvent(tick=96, channel=0, data=[78, 0]),\r\n",
      "   midi.NoteOnEvent(tick=0, channel=0, data=[79, 100]),\r\n",
      "   midi.NoteOnEvent(tick=96, channel=0, data=[79, 0]),\r\n",
      "   midi.NoteOnEvent(tick=0, channel=0, data=[81, 100]),\r\n",
      "   midi.NoteOnEvent(tick=192, channel=0, data=[81, 0]),\r\n",
      "   midi.NoteOnEvent(tick=0, channel=0, data=[72, 100]),\r\n",
      "   midi.NoteOnEvent(tick=192, channel=0, data=[72, 0]),\r\n",
      "   midi.NoteOnEvent(tick=0, channel=0, data=[71, 100]),\r\n",
      "   midi.NoteOnEvent(tick=192, channel=0, data=[71, 0]),\r\n",
      "   midi.NoteOnEvent(tick=0, channel=0, data=[81, 100]),\r\n",
      "   midi.NoteOnEvent(tick=192, channel=0, data=[81, 0]),\r\n",
      "   midi.NoteOnEvent(tick=0, channel=0, data=[79, 100]),\r\n",
      "   midi.NoteOnEvent(tick=192, channel=0, data=[79, 0]),\r\n",
      "   midi.NoteOnEvent(tick=0, channel=0, data=[71, 100]),\r\n",
      "   midi.NoteOnEvent(tick=192, channel=0, data=[71, 0]),\r\n",
      "   midi.NoteOnEvent(tick=0, channel=0, data=[69, 100]),\r\n",
      "   midi.NoteOnEvent(tick=96, channel=0, data=[69, 0]),\r\n",
      "   midi.NoteOnEvent(tick=0, channel=0, data=[71, 100]),\r\n",
      "   midi.NoteOnEvent(tick=96, channel=0, data=[71, 0]),\r\n",
      "   midi.NoteOnEvent(tick=0, channel=0, data=[72, 100]),\r\n",
      "   midi.NoteOnEvent(tick=96, channel=0, data=[72, 0]),\r\n",
      "   midi.NoteOnEvent(tick=0, channel=0, data=[71, 100]),\r\n",
      "   midi.NoteOnEvent(tick=96, channel=0, data=[71, 0]),\r\n",
      "   midi.NoteOnEvent(tick=0, channel=0, data=[69, 100]),\r\n",
      "   midi.NoteOnEvent(tick=96, channel=0, data=[69, 0]),\r\n",
      "   midi.NoteOnEvent(tick=0, channel=0, data=[67, 100]),\r\n",
      "   midi.NoteOnEvent(tick=96, channel=0, data=[67, 0]),\r\n",
      "   midi.NoteOnEvent(tick=0, channel=0, data=[66, 100]),\r\n",
      "   midi.NoteOnEvent(tick=96, channel=0, data=[66, 0]),\r\n",
      "   midi.NoteOnEvent(tick=0, channel=0, data=[64, 100]),\r\n",
      "   midi.NoteOnEvent(tick=96, channel=0, data=[64, 0]),\r\n",
      "   midi.NoteOnEvent(tick=0, channel=0, data=[63, 100]),\r\n",
      "   midi.NoteOnEvent(tick=192, channel=0, data=[63, 0]),\r\n",
      "   midi.NoteOnEvent(tick=0, channel=0, data=[72, 100]),\r\n",
      "   midi.NoteOnEvent(tick=192, channel=0, data=[72, 0]),\r\n",
      "   midi.NoteOnEvent(tick=0, channel=0, data=[71, 100]),\r\n",
      "   midi.NoteOnEvent(tick=192, channel=0, data=[71, 0]),\r\n",
      "   midi.NoteOnEvent(tick=0, channel=0, data=[76, 100]),\r\n",
      "   midi.NoteOnEvent(tick=192, channel=0, data=[76, 0]),\r\n",
      "   midi.NoteOnEvent(tick=0, channel=0, data=[79, 100]),\r\n",
      "   midi.NoteOnEvent(tick=384, channel=0, data=[79, 0]),\r\n",
      "   midi.NoteOnEvent(tick=0, channel=0, data=[78, 100]),\r\n",
      "   midi.NoteOnEvent(tick=48, channel=0, data=[78, 0]),\r\n",
      "   midi.NoteOnEvent(tick=0, channel=0, data=[79, 100]),\r\n",
      "   midi.NoteOnEvent(tick=48, channel=0, data=[79, 0]),\r\n",
      "   midi.NoteOnEvent(tick=0, channel=0, data=[78, 100]),\r\n",
      "   midi.NoteOnEvent(tick=48, channel=0, data=[78, 0]),\r\n",
      "   midi.NoteOnEvent(tick=0, channel=0, data=[79, 100]),\r\n",
      "   midi.NoteOnEvent(tick=48, channel=0, data=[79, 0]),\r\n",
      "   midi.NoteOnEvent(tick=0, channel=0, data=[78, 100]),\r\n",
      "   midi.NoteOnEvent(tick=48, channel=0, data=[78, 0]),\r\n",
      "   midi.NoteOnEvent(tick=0, channel=0, data=[79, 100]),\r\n",
      "   midi.NoteOnEvent(tick=48, channel=0, data=[79, 0]),\r\n",
      "   midi.NoteOnEvent(tick=0, channel=0, data=[78, 100]),\r\n",
      "   midi.NoteOnEvent(tick=48, channel=0, data=[78, 0]),\r\n",
      "   midi.NoteOnEvent(tick=0, channel=0, data=[79, 100]),\r\n",
      "   midi.NoteOnEvent(tick=48, channel=0, data=[79, 0]),\r\n",
      "   midi.NoteOnEvent(tick=0, channel=0, data=[78, 100]),\r\n",
      "   midi.NoteOnEvent(tick=96, channel=0, data=[78, 0]),\r\n",
      "   midi.NoteOnEvent(tick=0, channel=0, data=[79, 100]),\r\n",
      "   midi.NoteOnEvent(tick=96, channel=0, data=[79, 0]),\r\n",
      "   midi.NoteOnEvent(tick=0, channel=0, data=[81, 100]),\r\n",
      "   midi.NoteOnEvent(tick=96, channel=0, data=[81, 0]),\r\n",
      "   midi.NoteOnEvent(tick=0, channel=0, data=[78, 100]),\r\n",
      "   midi.NoteOnEvent(tick=96, channel=0, data=[78, 0]),\r\n",
      "   midi.NoteOnEvent(tick=0, channel=0, data=[75, 100]),\r\n",
      "   midi.NoteOnEvent(tick=96, channel=0, data=[75, 0]),\r\n",
      "   midi.NoteOnEvent(tick=0, channel=0, data=[76, 100]),\r\n",
      "   midi.NoteOnEvent(tick=96, channel=0, data=[76, 0]),\r\n",
      "   midi.NoteOnEvent(tick=0, channel=0, data=[78, 100]),\r\n",
      "   midi.NoteOnEvent(tick=96, channel=0, data=[78, 0]),\r\n",
      "   midi.NoteOnEvent(tick=0, channel=0, data=[75, 100]),\r\n",
      "   midi.NoteOnEvent(tick=96, channel=0, data=[75, 0]),\r\n",
      "   midi.NoteOnEvent(tick=0, channel=0, data=[83, 100]),\r\n",
      "   midi.NoteOnEvent(tick=192, channel=0, data=[83, 0]),\r\n",
      "   midi.NoteOnEvent(tick=0, channel=0, data=[76, 100]),\r\n",
      "   midi.NoteOnEvent(tick=192, channel=0, data=[76, 0]),\r\n",
      "   midi.NoteOnEvent(tick=0, channel=0, data=[78, 100]),\r\n",
      "   midi.NoteOnEvent(tick=192, channel=0, data=[78, 0]),\r\n",
      "   midi.NoteOnEvent(tick=0, channel=0, data=[75, 100]),\r\n",
      "   midi.NoteOnEvent(tick=192, channel=0, data=[75, 0]),\r\n",
      "   midi.NoteOnEvent(tick=0, channel=0, data=[76, 100]),\r\n",
      "   midi.NoteOnEvent(tick=96, channel=0, data=[76, 0]),\r\n",
      "   midi.NoteOnEvent(tick=0, channel=0, data=[74, 100]),\r\n",
      "   midi.NoteOnEvent(tick=96, channel=0, data=[74, 0]),\r\n",
      "   midi.NoteOnEvent(tick=0, channel=0, data=[72, 100]),\r\n",
      "   midi.NoteOnEvent(tick=96, channel=0, data=[72, 0]),\r\n",
      "   midi.NoteOnEvent(tick=0, channel=0, data=[71, 100]),\r\n",
      "   midi.NoteOnEvent(tick=96, channel=0, data=[71, 0]),\r\n",
      "   midi.NoteOnEvent(tick=0, channel=0, data=[69, 100]),\r\n",
      "   midi.NoteOnEvent(tick=192, channel=0, data=[69, 0]),\r\n",
      "   midi.NoteOnEvent(tick=0, channel=0, data=[69, 100]),\r\n",
      "   midi.NoteOnEvent(tick=192, channel=0, data=[69, 0]),\r\n",
      "   midi.NoteOnEvent(tick=0, channel=0, data=[69, 100]),\r\n",
      "   midi.NoteOnEvent(tick=96, channel=0, data=[69, 0]),\r\n",
      "   midi.NoteOnEvent(tick=0, channel=0, data=[71, 100]),\r\n",
      "   midi.NoteOnEvent(tick=96, channel=0, data=[71, 0]),\r\n",
      "   midi.NoteOnEvent(tick=0, channel=0, data=[72, 100]),\r\n",
      "   midi.NoteOnEvent(tick=288, channel=0, data=[72, 0]),\r\n",
      "   midi.NoteOnEvent(tick=0, channel=0, data=[71, 100]),\r\n",
      "   midi.NoteOnEvent(tick=96, channel=0, data=[71, 0]),\r\n",
      "   midi.NoteOnEvent(tick=0, channel=0, data=[69, 100]),\r\n",
      "   midi.NoteOnEvent(tick=96, channel=0, data=[69, 0]),\r\n",
      "   midi.NoteOnEvent(tick=0, channel=0, data=[67, 100]),\r\n",
      "   midi.NoteOnEvent(tick=96, channel=0, data=[67, 0]),\r\n",
      "   midi.NoteOnEvent(tick=0, channel=0, data=[66, 100]),\r\n",
      "   midi.NoteOnEvent(tick=96, channel=0, data=[66, 0]),\r\n",
      "   midi.NoteOnEvent(tick=0, channel=0, data=[67, 100]),\r\n",
      "   midi.NoteOnEvent(tick=96, channel=0, data=[67, 0]),\r\n",
      "   midi.NoteOnEvent(tick=0, channel=0, data=[69, 100]),\r\n",
      "   midi.NoteOnEvent(tick=288, channel=0, data=[69, 0]),\r\n",
      "   midi.NoteOnEvent(tick=0, channel=0, data=[67, 100]),\r\n",
      "   midi.NoteOnEvent(tick=96, channel=0, data=[67, 0]),\r\n",
      "   midi.NoteOnEvent(tick=0, channel=0, data=[66, 100]),\r\n",
      "   midi.NoteOnEvent(tick=96, channel=0, data=[66, 0]),\r\n",
      "   midi.NoteOnEvent(tick=0, channel=0, data=[64, 100]),\r\n",
      "   midi.NoteOnEvent(tick=96, channel=0, data=[64, 0]),\r\n",
      "   midi.NoteOnEvent(tick=0, channel=0, data=[63, 100]),\r\n",
      "   midi.NoteOnEvent(tick=192, channel=0, data=[63, 0]),\r\n",
      "   midi.NoteOnEvent(tick=0, channel=0, data=[71, 100]),\r\n",
      "   midi.NoteOnEvent(tick=192, channel=0, data=[71, 0]),\r\n",
      "   midi.NoteOnEvent(tick=0, channel=0, data=[67, 100]),\r\n",
      "   midi.NoteOnEvent(tick=48, channel=0, data=[67, 0]),\r\n",
      "   midi.NoteOnEvent(tick=0, channel=0, data=[69, 100]),\r\n",
      "   midi.NoteOnEvent(tick=48, channel=0, data=[69, 0]),\r\n",
      "   midi.NoteOnEvent(tick=0, channel=0, data=[67, 100]),\r\n",
      "   midi.NoteOnEvent(tick=48, channel=0, data=[67, 0]),\r\n",
      "   midi.NoteOnEvent(tick=0, channel=0, data=[69, 100]),\r\n",
      "   midi.NoteOnEvent(tick=48, channel=0, data=[69, 0]),\r\n",
      "   midi.NoteOnEvent(tick=0, channel=0, data=[66, 100]),\r\n",
      "   midi.NoteOnEvent(tick=96, channel=0, data=[66, 0]),\r\n",
      "   midi.NoteOnEvent(tick=0, channel=0, data=[64, 100]),\r\n",
      "   midi.NoteOnEvent(tick=96, channel=0, data=[64, 0]),\r\n",
      "   midi.NoteOnEvent(tick=0, channel=0, data=[64, 100]),\r\n",
      "   midi.NoteOnEvent(tick=384, channel=0, data=[64, 0]),\r\n",
      "   midi.NoteOnEvent(tick=96, channel=0, data=[76, 100]),\r\n",
      "   midi.NoteOnEvent(tick=96, channel=0, data=[76, 0]),\r\n",
      "   midi.NoteOnEvent(tick=0, channel=0, data=[75, 100]),\r\n",
      "   midi.NoteOnEvent(tick=96, channel=0, data=[75, 0]),\r\n",
      "   midi.NoteOnEvent(tick=0, channel=0, data=[76, 100]),\r\n",
      "   midi.NoteOnEvent(tick=96, channel=0, data=[76, 0]),\r\n",
      "   midi.NoteOnEvent(tick=0, channel=0, data=[81, 100]),\r\n",
      "   midi.NoteOnEvent(tick=96, channel=0, data=[81, 0]),\r\n",
      "   midi.NoteOnEvent(tick=0, channel=0, data=[80, 100]),\r\n",
      "   midi.NoteOnEvent(tick=96, channel=0, data=[80, 0]),\r\n",
      "   midi.NoteOnEvent(tick=0, channel=0, data=[81, 100]),\r\n",
      "   midi.NoteOnEvent(tick=288, channel=0, data=[81, 0]),\r\n",
      "   midi.NoteOnEvent(tick=0, channel=0, data=[76, 100]),\r\n",
      "   midi.NoteOnEvent(tick=96, channel=0, data=[76, 0]),\r\n",
      "   midi.NoteOnEvent(tick=0, channel=0, data=[75, 100]),\r\n",
      "   midi.NoteOnEvent(tick=96, channel=0, data=[75, 0]),\r\n",
      "   midi.NoteOnEvent(tick=0, channel=0, data=[76, 100]),\r\n",
      "   midi.NoteOnEvent(tick=96, channel=0, data=[76, 0]),\r\n",
      "   midi.NoteOnEvent(tick=0, channel=0, data=[84, 100]),\r\n",
      "   midi.NoteOnEvent(tick=192, channel=0, data=[84, 0]),\r\n",
      "   midi.NoteOnEvent(tick=0, channel=0, data=[83, 100]),\r\n",
      "   midi.NoteOnEvent(tick=288, channel=0, data=[83, 0]),\r\n",
      "   midi.NoteOnEvent(tick=0, channel=0, data=[76, 100]),\r\n",
      "   midi.NoteOnEvent(tick=96, channel=0, data=[76, 0]),\r\n",
      "   midi.NoteOnEvent(tick=0, channel=0, data=[74, 100]),\r\n",
      "   midi.NoteOnEvent(tick=96, channel=0, data=[74, 0]),\r\n",
      "   midi.NoteOnEvent(tick=0, channel=0, data=[76, 100]),\r\n",
      "   midi.NoteOnEvent(tick=96, channel=0, data=[76, 0]),\r\n",
      "   midi.NoteOnEvent(tick=0, channel=0, data=[83, 100]),\r\n",
      "   midi.NoteOnEvent(tick=96, channel=0, data=[83, 0]),\r\n",
      "   midi.NoteOnEvent(tick=0, channel=0, data=[81, 100]),\r\n",
      "   midi.NoteOnEvent(tick=96, channel=0, data=[81, 0]),\r\n",
      "   midi.NoteOnEvent(tick=0, channel=0, data=[83, 100]),\r\n",
      "   midi.NoteOnEvent(tick=288, channel=0, data=[83, 0]),\r\n",
      "   midi.NoteOnEvent(tick=0, channel=0, data=[76, 100]),\r\n",
      "   midi.NoteOnEvent(tick=96, channel=0, data=[76, 0]),\r\n",
      "   midi.NoteOnEvent(tick=0, channel=0, data=[74, 100]),\r\n",
      "   midi.NoteOnEvent(tick=96, channel=0, data=[74, 0]),\r\n",
      "   midi.NoteOnEvent(tick=0, channel=0, data=[76, 100]),\r\n",
      "   midi.NoteOnEvent(tick=96, channel=0, data=[76, 0]),\r\n",
      "   midi.NoteOnEvent(tick=0, channel=0, data=[86, 100]),\r\n",
      "   midi.NoteOnEvent(tick=192, channel=0, data=[86, 0]),\r\n",
      "   midi.NoteOnEvent(tick=0, channel=0, data=[84, 100]),\r\n",
      "   midi.NoteOnEvent(tick=288, channel=0, data=[84, 0]),\r\n",
      "   midi.NoteOnEvent(tick=0, channel=0, data=[76, 100]),\r\n",
      "   midi.NoteOnEvent(tick=96, channel=0, data=[76, 0]),\r\n",
      "   midi.NoteOnEvent(tick=0, channel=0, data=[74, 100]),\r\n",
      "   midi.NoteOnEvent(tick=96, channel=0, data=[74, 0]),\r\n",
      "   midi.NoteOnEvent(tick=0, channel=0, data=[76, 100]),\r\n",
      "   midi.NoteOnEvent(tick=96, channel=0, data=[76, 0]),\r\n",
      "   midi.NoteOnEvent(tick=0, channel=0, data=[84, 100]),\r\n",
      "   midi.NoteOnEvent(tick=96, channel=0, data=[84, 0]),\r\n",
      "   midi.NoteOnEvent(tick=0, channel=0, data=[83, 100]),\r\n",
      "   midi.NoteOnEvent(tick=96, channel=0, data=[83, 0]),\r\n",
      "   midi.NoteOnEvent(tick=0, channel=0, data=[81, 100]),\r\n",
      "   midi.NoteOnEvent(tick=96, channel=0, data=[81, 0]),\r\n",
      "   midi.NoteOnEvent(tick=0, channel=0, data=[79, 100]),\r\n",
      "   midi.NoteOnEvent(tick=96, channel=0, data=[79, 0]),\r\n",
      "   midi.NoteOnEvent(tick=0, channel=0, data=[77, 100]),\r\n",
      "   midi.NoteOnEvent(tick=96, channel=0, data=[77, 0]),\r\n",
      "   midi.NoteOnEvent(tick=0, channel=0, data=[74, 100]),\r\n",
      "   midi.NoteOnEvent(tick=96, channel=0, data=[74, 0]),\r\n",
      "   midi.NoteOnEvent(tick=0, channel=0, data=[72, 100]),\r\n",
      "   midi.NoteOnEvent(tick=96, channel=0, data=[72, 0]),\r\n",
      "   midi.NoteOnEvent(tick=0, channel=0, data=[74, 100]),\r\n",
      "   midi.NoteOnEvent(tick=96, channel=0, data=[74, 0]),\r\n",
      "   midi.NoteOnEvent(tick=0, channel=0, data=[83, 100]),\r\n",
      "   midi.NoteOnEvent(tick=96, channel=0, data=[83, 0]),\r\n",
      "   midi.NoteOnEvent(tick=0, channel=0, data=[81, 100]),\r\n",
      "   midi.NoteOnEvent(tick=96, channel=0, data=[81, 0]),\r\n",
      "   midi.NoteOnEvent(tick=0, channel=0, data=[79, 100]),\r\n",
      "   midi.NoteOnEvent(tick=96, channel=0, data=[79, 0]),\r\n",
      "   midi.NoteOnEvent(tick=0, channel=0, data=[77, 100]),\r\n",
      "   midi.NoteOnEvent(tick=96, channel=0, data=[77, 0]),\r\n",
      "   midi.NoteOnEvent(tick=0, channel=0, data=[76, 100]),\r\n",
      "   midi.NoteOnEvent(tick=96, channel=0, data=[76, 0]),\r\n",
      "   midi.NoteOnEvent(tick=0, channel=0, data=[72, 100]),\r\n",
      "   midi.NoteOnEvent(tick=96, channel=0, data=[72, 0]),\r\n",
      "   midi.NoteOnEvent(tick=0, channel=0, data=[71, 100]),\r\n",
      "   midi.NoteOnEvent(tick=96, channel=0, data=[71, 0]),\r\n",
      "   midi.NoteOnEvent(tick=0, channel=0, data=[72, 100]),\r\n",
      "   midi.NoteOnEvent(tick=96, channel=0, data=[72, 0]),\r\n",
      "   midi.NoteOnEvent(tick=0, channel=0, data=[81, 100]),\r\n",
      "   midi.NoteOnEvent(tick=96, channel=0, data=[81, 0]),\r\n",
      "   midi.NoteOnEvent(tick=0, channel=0, data=[79, 100]),\r\n",
      "   midi.NoteOnEvent(tick=96, channel=0, data=[79, 0]),\r\n",
      "   midi.NoteOnEvent(tick=0, channel=0, data=[77, 100]),\r\n",
      "   midi.NoteOnEvent(tick=96, channel=0, data=[77, 0]),\r\n",
      "   midi.NoteOnEvent(tick=0, channel=0, data=[76, 100]),\r\n",
      "   midi.NoteOnEvent(tick=96, channel=0, data=[76, 0]),\r\n",
      "   midi.NoteOnEvent(tick=0, channel=0, data=[74, 100]),\r\n",
      "   midi.NoteOnEvent(tick=96, channel=0, data=[74, 0]),\r\n",
      "   midi.NoteOnEvent(tick=0, channel=0, data=[71, 100]),\r\n",
      "   midi.NoteOnEvent(tick=96, channel=0, data=[71, 0]),\r\n",
      "   midi.NoteOnEvent(tick=0, channel=0, data=[69, 100]),\r\n",
      "   midi.NoteOnEvent(tick=96, channel=0, data=[69, 0]),\r\n",
      "   midi.NoteOnEvent(tick=0, channel=0, data=[71, 100]),\r\n",
      "   midi.NoteOnEvent(tick=96, channel=0, data=[71, 0]),\r\n",
      "   midi.NoteOnEvent(tick=0, channel=0, data=[80, 100]),\r\n",
      "   midi.NoteOnEvent(tick=96, channel=0, data=[80, 0]),\r\n",
      "   midi.NoteOnEvent(tick=0, channel=0, data=[81, 100]),\r\n",
      "   midi.NoteOnEvent(tick=96, channel=0, data=[81, 0]),\r\n",
      "   midi.NoteOnEvent(tick=0, channel=0, data=[80, 100]),\r\n",
      "   midi.NoteOnEvent(tick=96, channel=0, data=[80, 0]),\r\n",
      "   midi.NoteOnEvent(tick=0, channel=0, data=[78, 100]),\r\n",
      "   midi.NoteOnEvent(tick=96, channel=0, data=[78, 0]),\r\n",
      "   midi.NoteOnEvent(tick=0, channel=0, data=[76, 100]),\r\n",
      "   midi.NoteOnEvent(tick=96, channel=0, data=[76, 0]),\r\n",
      "   midi.NoteOnEvent(tick=0, channel=0, data=[74, 100]),\r\n",
      "   midi.NoteOnEvent(tick=96, channel=0, data=[74, 0]),\r\n",
      "   midi.NoteOnEvent(tick=0, channel=0, data=[72, 100]),\r\n",
      "   midi.NoteOnEvent(tick=96, channel=0, data=[72, 0]),\r\n",
      "   midi.NoteOnEvent(tick=0, channel=0, data=[71, 100]),\r\n",
      "   midi.NoteOnEvent(tick=96, channel=0, data=[71, 0]),\r\n",
      "   midi.NoteOnEvent(tick=0, channel=0, data=[72, 100]),\r\n",
      "   midi.NoteOnEvent(tick=96, channel=0, data=[72, 0]),\r\n",
      "   midi.NoteOnEvent(tick=0, channel=0, data=[74, 100]),\r\n",
      "   midi.NoteOnEvent(tick=96, channel=0, data=[74, 0]),\r\n",
      "   midi.NoteOnEvent(tick=0, channel=0, data=[72, 100]),\r\n",
      "   midi.NoteOnEvent(tick=96, channel=0, data=[72, 0]),\r\n",
      "   midi.NoteOnEvent(tick=0, channel=0, data=[71, 100]),\r\n",
      "   midi.NoteOnEvent(tick=96, channel=0, data=[71, 0]),\r\n",
      "   midi.NoteOnEvent(tick=0, channel=0, data=[69, 100]),\r\n",
      "   midi.NoteOnEvent(tick=96, channel=0, data=[69, 0]),\r\n",
      "   midi.NoteOnEvent(tick=0, channel=0, data=[81, 100]),\r\n",
      "   midi.NoteOnEvent(tick=96, channel=0, data=[81, 0]),\r\n",
      "   midi.NoteOnEvent(tick=0, channel=0, data=[76, 100]),\r\n",
      "   midi.NoteOnEvent(tick=96, channel=0, data=[76, 0]),\r\n",
      "   midi.NoteOnEvent(tick=0, channel=0, data=[79, 100]),\r\n",
      "   midi.NoteOnEvent(tick=96, channel=0, data=[79, 0]),\r\n",
      "   midi.NoteOnEvent(tick=0, channel=0, data=[77, 100]),\r\n",
      "   midi.NoteOnEvent(tick=96, channel=0, data=[77, 0]),\r\n",
      "   midi.NoteOnEvent(tick=0, channel=0, data=[79, 100]),\r\n",
      "   midi.NoteOnEvent(tick=96, channel=0, data=[79, 0]),\r\n",
      "   midi.NoteOnEvent(tick=0, channel=0, data=[77, 100]),\r\n",
      "   midi.NoteOnEvent(tick=96, channel=0, data=[77, 0]),\r\n",
      "   midi.NoteOnEvent(tick=0, channel=0, data=[76, 100]),\r\n",
      "   midi.NoteOnEvent(tick=96, channel=0, data=[76, 0]),\r\n",
      "   midi.NoteOnEvent(tick=0, channel=0, data=[74, 100]),\r\n",
      "   midi.NoteOnEvent(tick=96, channel=0, data=[74, 0]),\r\n",
      "   midi.NoteOnEvent(tick=0, channel=0, data=[72, 100]),\r\n",
      "   midi.NoteOnEvent(tick=96, channel=0, data=[72, 0]),\r\n",
      "   midi.NoteOnEvent(tick=0, channel=0, data=[71, 100]),\r\n",
      "   midi.NoteOnEvent(tick=96, channel=0, data=[71, 0]),\r\n",
      "   midi.NoteOnEvent(tick=0, channel=0, data=[69, 100]),\r\n",
      "   midi.NoteOnEvent(tick=96, channel=0, data=[69, 0]),\r\n",
      "   midi.NoteOnEvent(tick=0, channel=0, data=[71, 100]),\r\n",
      "   midi.NoteOnEvent(tick=96, channel=0, data=[71, 0]),\r\n",
      "   midi.NoteOnEvent(tick=0, channel=0, data=[72, 100]),\r\n",
      "   midi.NoteOnEvent(tick=96, channel=0, data=[72, 0]),\r\n",
      "   midi.NoteOnEvent(tick=0, channel=0, data=[71, 100]),\r\n",
      "   midi.NoteOnEvent(tick=96, channel=0, data=[71, 0]),\r\n",
      "   midi.NoteOnEvent(tick=0, channel=0, data=[69, 100]),\r\n",
      "   midi.NoteOnEvent(tick=96, channel=0, data=[69, 0]),\r\n",
      "   midi.NoteOnEvent(tick=0, channel=0, data=[67, 100]),\r\n",
      "   midi.NoteOnEvent(tick=96, channel=0, data=[67, 0]),\r\n",
      "   midi.NoteOnEvent(tick=0, channel=0, data=[79, 100]),\r\n",
      "   midi.NoteOnEvent(tick=96, channel=0, data=[79, 0]),\r\n",
      "   midi.NoteOnEvent(tick=0, channel=0, data=[74, 100]),\r\n",
      "   midi.NoteOnEvent(tick=96, channel=0, data=[74, 0]),\r\n",
      "   midi.NoteOnEvent(tick=0, channel=0, data=[77, 100]),\r\n",
      "   midi.NoteOnEvent(tick=96, channel=0, data=[77, 0]),\r\n",
      "   midi.NoteOnEvent(tick=0, channel=0, data=[76, 100]),\r\n",
      "   midi.NoteOnEvent(tick=96, channel=0, data=[76, 0]),\r\n",
      "   midi.NoteOnEvent(tick=0, channel=0, data=[77, 100]),\r\n",
      "   midi.NoteOnEvent(tick=96, channel=0, data=[77, 0]),\r\n",
      "   midi.NoteOnEvent(tick=0, channel=0, data=[76, 100]),\r\n",
      "   midi.NoteOnEvent(tick=96, channel=0, data=[76, 0]),\r\n",
      "   midi.NoteOnEvent(tick=0, channel=0, data=[74, 100]),\r\n",
      "   midi.NoteOnEvent(tick=96, channel=0, data=[74, 0]),\r\n",
      "   midi.NoteOnEvent(tick=0, channel=0, data=[72, 100]),\r\n",
      "   midi.NoteOnEvent(tick=96, channel=0, data=[72, 0]),\r\n",
      "   midi.NoteOnEvent(tick=0, channel=0, data=[71, 100]),\r\n",
      "   midi.NoteOnEvent(tick=96, channel=0, data=[71, 0]),\r\n",
      "   midi.NoteOnEvent(tick=0, channel=0, data=[69, 100]),\r\n",
      "   midi.NoteOnEvent(tick=96, channel=0, data=[69, 0]),\r\n",
      "   midi.NoteOnEvent(tick=0, channel=0, data=[67, 100]),\r\n",
      "   midi.NoteOnEvent(tick=96, channel=0, data=[67, 0]),\r\n",
      "   midi.NoteOnEvent(tick=0, channel=0, data=[69, 100]),\r\n",
      "   midi.NoteOnEvent(tick=96, channel=0, data=[69, 0]),\r\n",
      "   midi.NoteOnEvent(tick=0, channel=0, data=[70, 100]),\r\n",
      "   midi.NoteOnEvent(tick=96, channel=0, data=[70, 0]),\r\n",
      "   midi.NoteOnEvent(tick=0, channel=0, data=[69, 100]),\r\n",
      "   midi.NoteOnEvent(tick=96, channel=0, data=[69, 0]),\r\n",
      "   midi.NoteOnEvent(tick=0, channel=0, data=[67, 100]),\r\n",
      "   midi.NoteOnEvent(tick=96, channel=0, data=[67, 0]),\r\n",
      "   midi.NoteOnEvent(tick=0, channel=0, data=[65, 100]),\r\n",
      "   midi.NoteOnEvent(tick=96, channel=0, data=[65, 0]),\r\n",
      "   midi.NoteOnEvent(tick=0, channel=0, data=[77, 100]),\r\n",
      "   midi.NoteOnEvent(tick=96, channel=0, data=[77, 0]),\r\n",
      "   midi.NoteOnEvent(tick=0, channel=0, data=[72, 100]),\r\n",
      "   midi.NoteOnEvent(tick=96, channel=0, data=[72, 0]),\r\n",
      "   midi.NoteOnEvent(tick=0, channel=0, data=[76, 100]),\r\n",
      "   midi.NoteOnEvent(tick=96, channel=0, data=[76, 0]),\r\n",
      "   midi.NoteOnEvent(tick=0, channel=0, data=[74, 100]),\r\n",
      "   midi.NoteOnEvent(tick=96, channel=0, data=[74, 0]),\r\n",
      "   midi.NoteOnEvent(tick=0, channel=0, data=[76, 100]),\r\n",
      "   midi.NoteOnEvent(tick=96, channel=0, data=[76, 0]),\r\n",
      "   midi.NoteOnEvent(tick=0, channel=0, data=[74, 100]),\r\n",
      "   midi.NoteOnEvent(tick=96, channel=0, data=[74, 0]),\r\n",
      "   midi.NoteOnEvent(tick=0, channel=0, data=[72, 100]),\r\n",
      "   midi.NoteOnEvent(tick=96, channel=0, data=[72, 0]),\r\n",
      "   midi.NoteOnEvent(tick=0, channel=0, data=[71, 100]),\r\n",
      "   midi.NoteOnEvent(tick=96, channel=0, data=[71, 0]),\r\n",
      "   midi.NoteOnEvent(tick=0, channel=0, data=[69, 100]),\r\n",
      "   midi.NoteOnEvent(tick=96, channel=0, data=[69, 0]),\r\n",
      "   midi.NoteOnEvent(tick=0, channel=0, data=[68, 100]),\r\n",
      "   midi.NoteOnEvent(tick=96, channel=0, data=[68, 0]),\r\n",
      "   midi.NoteOnEvent(tick=0, channel=0, data=[66, 100]),\r\n",
      "   midi.NoteOnEvent(tick=96, channel=0, data=[66, 0]),\r\n",
      "   midi.NoteOnEvent(tick=0, channel=0, data=[68, 100]),\r\n",
      "   midi.NoteOnEvent(tick=96, channel=0, data=[68, 0]),\r\n",
      "   midi.NoteOnEvent(tick=0, channel=0, data=[69, 100]),\r\n",
      "   midi.NoteOnEvent(tick=96, channel=0, data=[69, 0]),\r\n",
      "   midi.NoteOnEvent(tick=0, channel=0, data=[68, 100]),\r\n",
      "   midi.NoteOnEvent(tick=96, channel=0, data=[68, 0]),\r\n",
      "   midi.NoteOnEvent(tick=0, channel=0, data=[66, 100]),\r\n",
      "   midi.NoteOnEvent(tick=96, channel=0, data=[66, 0]),\r\n",
      "   midi.NoteOnEvent(tick=0, channel=0, data=[64, 100]),\r\n",
      "   midi.NoteOnEvent(tick=96, channel=0, data=[64, 0]),\r\n",
      "   midi.NoteOnEvent(tick=0, channel=0, data=[76, 100]),\r\n",
      "   midi.NoteOnEvent(tick=96, channel=0, data=[76, 0]),\r\n",
      "   midi.NoteOnEvent(tick=0, channel=0, data=[71, 100]),\r\n",
      "   midi.NoteOnEvent(tick=96, channel=0, data=[71, 0]),\r\n",
      "   midi.NoteOnEvent(tick=0, channel=0, data=[74, 100]),\r\n",
      "   midi.NoteOnEvent(tick=96, channel=0, data=[74, 0]),\r\n",
      "   midi.NoteOnEvent(tick=0, channel=0, data=[72, 100]),\r\n",
      "   midi.NoteOnEvent(tick=96, channel=0, data=[72, 0]),\r\n",
      "   midi.NoteOnEvent(tick=0, channel=0, data=[74, 100]),\r\n",
      "   midi.NoteOnEvent(tick=96, channel=0, data=[74, 0]),\r\n",
      "   midi.NoteOnEvent(tick=0, channel=0, data=[72, 100]),\r\n",
      "   midi.NoteOnEvent(tick=96, channel=0, data=[72, 0]),\r\n",
      "   midi.NoteOnEvent(tick=0, channel=0, data=[71, 100]),\r\n",
      "   midi.NoteOnEvent(tick=96, channel=0, data=[71, 0]),\r\n",
      "   midi.NoteOnEvent(tick=0, channel=0, data=[69, 100]),\r\n",
      "   midi.NoteOnEvent(tick=96, channel=0, data=[69, 0]),\r\n",
      "   midi.NoteOnEvent(tick=0, channel=0, data=[81, 100]),\r\n",
      "   midi.NoteOnEvent(tick=96, channel=0, data=[81, 0]),\r\n",
      "   midi.NoteOnEvent(tick=0, channel=0, data=[76, 100]),\r\n",
      "   midi.NoteOnEvent(tick=96, channel=0, data=[76, 0]),\r\n",
      "   midi.NoteOnEvent(tick=0, channel=0, data=[79, 100]),\r\n",
      "   midi.NoteOnEvent(tick=96, channel=0, data=[79, 0]),\r\n",
      "   midi.NoteOnEvent(tick=0, channel=0, data=[77, 100]),\r\n",
      "   midi.NoteOnEvent(tick=96, channel=0, data=[77, 0]),\r\n",
      "   midi.NoteOnEvent(tick=0, channel=0, data=[79, 100]),\r\n",
      "   midi.NoteOnEvent(tick=96, channel=0, data=[79, 0]),\r\n",
      "   midi.NoteOnEvent(tick=0, channel=0, data=[77, 100]),\r\n",
      "   midi.NoteOnEvent(tick=96, channel=0, data=[77, 0]),\r\n",
      "   midi.NoteOnEvent(tick=0, channel=0, data=[76, 100]),\r\n",
      "   midi.NoteOnEvent(tick=96, channel=0, data=[76, 0]),\r\n",
      "   midi.NoteOnEvent(tick=0, channel=0, data=[74, 100]),\r\n",
      "   midi.NoteOnEvent(tick=96, channel=0, data=[74, 0]),\r\n",
      "   midi.NoteOnEvent(tick=0, channel=0, data=[77, 100]),\r\n",
      "   midi.NoteOnEvent(tick=96, channel=0, data=[77, 0]),\r\n",
      "   midi.NoteOnEvent(tick=0, channel=0, data=[71, 100]),\r\n",
      "   midi.NoteOnEvent(tick=96, channel=0, data=[71, 0]),\r\n",
      "   midi.NoteOnEvent(tick=0, channel=0, data=[74, 100]),\r\n",
      "   midi.NoteOnEvent(tick=96, channel=0, data=[74, 0]),\r\n",
      "   midi.NoteOnEvent(tick=0, channel=0, data=[76, 100]),\r\n",
      "   midi.NoteOnEvent(tick=96, channel=0, data=[76, 0]),\r\n",
      "   midi.NoteOnEvent(tick=0, channel=0, data=[74, 100]),\r\n",
      "   midi.NoteOnEvent(tick=96, channel=0, data=[74, 0]),\r\n",
      "   midi.NoteOnEvent(tick=0, channel=0, data=[72, 100]),\r\n",
      "   midi.NoteOnEvent(tick=96, channel=0, data=[72, 0]),\r\n",
      "   midi.NoteOnEvent(tick=0, channel=0, data=[76, 100]),\r\n",
      "   midi.NoteOnEvent(tick=96, channel=0, data=[76, 0]),\r\n",
      "   midi.NoteOnEvent(tick=0, channel=0, data=[74, 100]),\r\n",
      "   midi.NoteOnEvent(tick=96, channel=0, data=[74, 0]),\r\n",
      "   midi.NoteOnEvent(tick=0, channel=0, data=[72, 100]),\r\n",
      "   midi.NoteOnEvent(tick=96, channel=0, data=[72, 0]),\r\n",
      "   midi.NoteOnEvent(tick=0, channel=0, data=[71, 100]),\r\n",
      "   midi.NoteOnEvent(tick=96, channel=0, data=[71, 0]),\r\n",
      "   midi.NoteOnEvent(tick=0, channel=0, data=[74, 100]),\r\n",
      "   midi.NoteOnEvent(tick=96, channel=0, data=[74, 0]),\r\n",
      "   midi.NoteOnEvent(tick=0, channel=0, data=[72, 100]),\r\n",
      "   midi.NoteOnEvent(tick=192, channel=0, data=[72, 0]),\r\n",
      "   midi.NoteOnEvent(tick=0, channel=0, data=[69, 100]),\r\n",
      "   midi.NoteOnEvent(tick=192, channel=0, data=[69, 0]),\r\n",
      "   midi.NoteOnEvent(tick=96, channel=0, data=[64, 100]),\r\n",
      "   midi.NoteOnEvent(tick=96, channel=0, data=[64, 0]),\r\n",
      "   midi.NoteOnEvent(tick=0, channel=0, data=[69, 100]),\r\n",
      "   midi.NoteOnEvent(tick=96, channel=0, data=[69, 0]),\r\n",
      "   midi.NoteOnEvent(tick=0, channel=0, data=[72, 100]),\r\n",
      "   midi.NoteOnEvent(tick=96, channel=0, data=[72, 0]),\r\n",
      "   midi.NoteOnEvent(tick=0, channel=0, data=[77, 100]),\r\n",
      "   midi.NoteOnEvent(tick=48, channel=0, data=[77, 0]),\r\n",
      "   midi.NoteOnEvent(tick=0, channel=0, data=[79, 100]),\r\n",
      "   midi.NoteOnEvent(tick=48, channel=0, data=[79, 0]),\r\n",
      "   midi.NoteOnEvent(tick=0, channel=0, data=[81, 100]),\r\n",
      "   midi.NoteOnEvent(tick=192, channel=0, data=[81, 0]),\r\n",
      "   midi.NoteOnEvent(tick=0, channel=0, data=[77, 100]),\r\n",
      "   midi.NoteOnEvent(tick=96, channel=0, data=[77, 0]),\r\n",
      "   midi.NoteOnEvent(tick=0, channel=0, data=[75, 100]),\r\n",
      "   midi.NoteOnEvent(tick=48, channel=0, data=[75, 0]),\r\n",
      "   midi.NoteOnEvent(tick=0, channel=0, data=[76, 100]),\r\n",
      "   midi.NoteOnEvent(tick=48, channel=0, data=[76, 0]),\r\n",
      "   midi.NoteOnEvent(tick=0, channel=0, data=[78, 100]),\r\n",
      "   midi.NoteOnEvent(tick=192, channel=0, data=[78, 0]),\r\n",
      "   midi.NoteOnEvent(tick=0, channel=0, data=[75, 100]),\r\n",
      "   midi.NoteOnEvent(tick=96, channel=0, data=[75, 0]),\r\n",
      "   midi.NoteOnEvent(tick=0, channel=0, data=[76, 100]),\r\n",
      "   midi.NoteOnEvent(tick=96, channel=0, data=[76, 0]),\r\n",
      "   midi.NoteOnEvent(tick=0, channel=0, data=[71, 100]),\r\n",
      "   midi.NoteOnEvent(tick=96, channel=0, data=[71, 0]),\r\n",
      "   midi.NoteOnEvent(tick=0, channel=0, data=[67, 100]),\r\n",
      "   midi.NoteOnEvent(tick=96, channel=0, data=[67, 0]),\r\n",
      "   midi.NoteOnEvent(tick=0, channel=0, data=[64, 100]),\r\n",
      "   midi.NoteOnEvent(tick=96, channel=0, data=[64, 0]),\r\n",
      "   midi.NoteOnEvent(tick=0, channel=0, data=[63, 100]),\r\n",
      "   midi.NoteOnEvent(tick=96, channel=0, data=[63, 0]),\r\n",
      "   midi.NoteOnEvent(tick=0, channel=0, data=[64, 100]),\r\n",
      "   midi.NoteOnEvent(tick=96, channel=0, data=[64, 0]),\r\n",
      "   midi.NoteOnEvent(tick=0, channel=0, data=[67, 100]),\r\n",
      "   midi.NoteOnEvent(tick=96, channel=0, data=[67, 0]),\r\n",
      "   midi.NoteOnEvent(tick=0, channel=0, data=[71, 100]),\r\n",
      "   midi.NoteOnEvent(tick=96, channel=0, data=[71, 0]),\r\n",
      "   midi.NoteOnEvent(tick=0, channel=0, data=[76, 100]),\r\n",
      "   midi.NoteOnEvent(tick=48, channel=0, data=[76, 0]),\r\n",
      "   midi.NoteOnEvent(tick=0, channel=0, data=[77, 100]),\r\n",
      "   midi.NoteOnEvent(tick=48, channel=0, data=[77, 0]),\r\n",
      "   midi.NoteOnEvent(tick=0, channel=0, data=[79, 100]),\r\n",
      "   midi.NoteOnEvent(tick=192, channel=0, data=[79, 0]),\r\n",
      "   midi.NoteOnEvent(tick=0, channel=0, data=[76, 100]),\r\n",
      "   midi.NoteOnEvent(tick=96, channel=0, data=[76, 0]),\r\n",
      "   midi.NoteOnEvent(tick=0, channel=0, data=[73, 100]),\r\n",
      "   midi.NoteOnEvent(tick=48, channel=0, data=[73, 0]),\r\n",
      "   midi.NoteOnEvent(tick=0, channel=0, data=[74, 100]),\r\n",
      "   midi.NoteOnEvent(tick=48, channel=0, data=[74, 0]),\r\n",
      "   midi.NoteOnEvent(tick=0, channel=0, data=[76, 100]),\r\n",
      "   midi.NoteOnEvent(tick=192, channel=0, data=[76, 0]),\r\n",
      "   midi.NoteOnEvent(tick=0, channel=0, data=[73, 100]),\r\n",
      "   midi.NoteOnEvent(tick=96, channel=0, data=[73, 0]),\r\n",
      "   midi.NoteOnEvent(tick=0, channel=0, data=[74, 100]),\r\n",
      "   midi.NoteOnEvent(tick=96, channel=0, data=[74, 0]),\r\n",
      "   midi.NoteOnEvent(tick=0, channel=0, data=[69, 100]),\r\n",
      "   midi.NoteOnEvent(tick=96, channel=0, data=[69, 0]),\r\n",
      "   midi.NoteOnEvent(tick=0, channel=0, data=[65, 100]),\r\n",
      "   midi.NoteOnEvent(tick=96, channel=0, data=[65, 0]),\r\n",
      "   midi.NoteOnEvent(tick=0, channel=0, data=[62, 100]),\r\n",
      "   midi.NoteOnEvent(tick=96, channel=0, data=[62, 0]),\r\n",
      "   midi.NoteOnEvent(tick=0, channel=0, data=[61, 100]),\r\n",
      "   midi.NoteOnEvent(tick=96, channel=0, data=[61, 0]),\r\n",
      "   midi.NoteOnEvent(tick=0, channel=0, data=[62, 100]),\r\n",
      "   midi.NoteOnEvent(tick=96, channel=0, data=[62, 0]),\r\n",
      "   midi.NoteOnEvent(tick=0, channel=0, data=[65, 100]),\r\n",
      "   midi.NoteOnEvent(tick=96, channel=0, data=[65, 0]),\r\n",
      "   midi.NoteOnEvent(tick=0, channel=0, data=[69, 100]),\r\n",
      "   midi.NoteOnEvent(tick=96, channel=0, data=[69, 0]),\r\n",
      "   midi.NoteOnEvent(tick=0, channel=0, data=[74, 100]),\r\n",
      "   midi.NoteOnEvent(tick=48, channel=0, data=[74, 0]),\r\n",
      "   midi.NoteOnEvent(tick=0, channel=0, data=[76, 100]),\r\n",
      "   midi.NoteOnEvent(tick=48, channel=0, data=[76, 0]),\r\n",
      "   midi.NoteOnEvent(tick=0, channel=0, data=[77, 100]),\r\n",
      "   midi.NoteOnEvent(tick=192, channel=0, data=[77, 0]),\r\n",
      "   midi.NoteOnEvent(tick=0, channel=0, data=[74, 100]),\r\n",
      "   midi.NoteOnEvent(tick=96, channel=0, data=[74, 0]),\r\n",
      "   midi.NoteOnEvent(tick=0, channel=0, data=[71, 100]),\r\n",
      "   midi.NoteOnEvent(tick=48, channel=0, data=[71, 0]),\r\n",
      "   midi.NoteOnEvent(tick=0, channel=0, data=[72, 100]),\r\n",
      "   midi.NoteOnEvent(tick=48, channel=0, data=[72, 0]),\r\n",
      "   midi.NoteOnEvent(tick=0, channel=0, data=[74, 100]),\r\n",
      "   midi.NoteOnEvent(tick=192, channel=0, data=[74, 0]),\r\n",
      "   midi.NoteOnEvent(tick=0, channel=0, data=[71, 100]),\r\n",
      "   midi.NoteOnEvent(tick=96, channel=0, data=[71, 0]),\r\n",
      "   midi.NoteOnEvent(tick=0, channel=0, data=[72, 100]),\r\n",
      "   midi.NoteOnEvent(tick=96, channel=0, data=[72, 0]),\r\n",
      "   midi.NoteOnEvent(tick=0, channel=0, data=[67, 100]),\r\n",
      "   midi.NoteOnEvent(tick=96, channel=0, data=[67, 0]),\r\n",
      "   midi.NoteOnEvent(tick=0, channel=0, data=[69, 100]),\r\n",
      "   midi.NoteOnEvent(tick=96, channel=0, data=[69, 0]),\r\n",
      "   midi.NoteOnEvent(tick=0, channel=0, data=[71, 100]),\r\n",
      "   midi.NoteOnEvent(tick=96, channel=0, data=[71, 0]),\r\n",
      "   midi.NoteOnEvent(tick=0, channel=0, data=[72, 100]),\r\n",
      "   midi.NoteOnEvent(tick=96, channel=0, data=[72, 0]),\r\n",
      "   midi.NoteOnEvent(tick=0, channel=0, data=[67, 100]),\r\n",
      "   midi.NoteOnEvent(tick=96, channel=0, data=[67, 0]),\r\n",
      "   midi.NoteOnEvent(tick=0, channel=0, data=[74, 100]),\r\n",
      "   midi.NoteOnEvent(tick=96, channel=0, data=[74, 0]),\r\n",
      "   midi.NoteOnEvent(tick=0, channel=0, data=[67, 100]),\r\n",
      "   midi.NoteOnEvent(tick=96, channel=0, data=[67, 0]),\r\n",
      "   midi.NoteOnEvent(tick=0, channel=0, data=[76, 100]),\r\n",
      "   midi.NoteOnEvent(tick=96, channel=0, data=[76, 0]),\r\n",
      "   midi.NoteOnEvent(tick=0, channel=0, data=[71, 100]),\r\n",
      "   midi.NoteOnEvent(tick=96, channel=0, data=[71, 0]),\r\n",
      "   midi.NoteOnEvent(tick=0, channel=0, data=[72, 100]),\r\n",
      "   midi.NoteOnEvent(tick=96, channel=0, data=[72, 0]),\r\n",
      "   midi.NoteOnEvent(tick=0, channel=0, data=[74, 100]),\r\n",
      "   midi.NoteOnEvent(tick=96, channel=0, data=[74, 0]),\r\n",
      "   midi.NoteOnEvent(tick=0, channel=0, data=[76, 100]),\r\n",
      "   midi.NoteOnEvent(tick=96, channel=0, data=[76, 0]),\r\n",
      "   midi.NoteOnEvent(tick=0, channel=0, data=[72, 100]),\r\n",
      "   midi.NoteOnEvent(tick=96, channel=0, data=[72, 0]),\r\n",
      "   midi.NoteOnEvent(tick=0, channel=0, data=[78, 100]),\r\n",
      "   midi.NoteOnEvent(tick=96, channel=0, data=[78, 0]),\r\n",
      "   midi.NoteOnEvent(tick=0, channel=0, data=[72, 100]),\r\n",
      "   midi.NoteOnEvent(tick=96, channel=0, data=[72, 0]),\r\n",
      "   midi.NoteOnEvent(tick=0, channel=0, data=[79, 100]),\r\n",
      "   midi.NoteOnEvent(tick=96, channel=0, data=[79, 0]),\r\n",
      "   midi.NoteOnEvent(tick=0, channel=0, data=[67, 100]),\r\n",
      "   midi.NoteOnEvent(tick=96, channel=0, data=[67, 0]),\r\n",
      "   midi.NoteOnEvent(tick=0, channel=0, data=[71, 100]),\r\n",
      "   midi.NoteOnEvent(tick=96, channel=0, data=[71, 0]),\r\n",
      "   midi.NoteOnEvent(tick=0, channel=0, data=[74, 100]),\r\n",
      "   midi.NoteOnEvent(tick=96, channel=0, data=[74, 0]),\r\n",
      "   midi.NoteOnEvent(tick=0, channel=0, data=[79, 100]),\r\n",
      "   midi.NoteOnEvent(tick=480, channel=0, data=[79, 0]),\r\n",
      "   midi.NoteOnEvent(tick=0, channel=0, data=[72, 100]),\r\n",
      "   midi.NoteOnEvent(tick=96, channel=0, data=[72, 0]),\r\n",
      "   midi.NoteOnEvent(tick=0, channel=0, data=[76, 100]),\r\n",
      "   midi.NoteOnEvent(tick=96, channel=0, data=[76, 0]),\r\n",
      "   midi.NoteOnEvent(tick=0, channel=0, data=[79, 100]),\r\n",
      "   midi.NoteOnEvent(tick=96, channel=0, data=[79, 0]),\r\n",
      "   midi.NoteOnEvent(tick=0, channel=0, data=[84, 100]),\r\n",
      "   midi.NoteOnEvent(tick=480, channel=0, data=[84, 0]),\r\n",
      "   midi.NoteOnEvent(tick=0, channel=0, data=[72, 100]),\r\n",
      "   midi.NoteOnEvent(tick=96, channel=0, data=[72, 0]),\r\n",
      "   midi.NoteOnEvent(tick=0, channel=0, data=[76, 100]),\r\n",
      "   midi.NoteOnEvent(tick=96, channel=0, data=[76, 0]),\r\n",
      "   midi.NoteOnEvent(tick=0, channel=0, data=[79, 100]),\r\n",
      "   midi.NoteOnEvent(tick=96, channel=0, data=[79, 0]),\r\n",
      "   midi.NoteOnEvent(tick=0, channel=0, data=[84, 100]),\r\n",
      "   midi.NoteOnEvent(tick=576, channel=0, data=[84, 0]),\r\n",
      "   midi.NoteOnEvent(tick=0, channel=0, data=[72, 100]),\r\n",
      "   midi.NoteOnEvent(tick=192, channel=0, data=[72, 0]),\r\n",
      "   midi.NoteOnEvent(tick=0, channel=0, data=[74, 100]),\r\n",
      "   midi.NoteOnEvent(tick=192, channel=0, data=[74, 0]),\r\n",
      "   midi.NoteOnEvent(tick=0, channel=0, data=[83, 100]),\r\n",
      "   midi.NoteOnEvent(tick=192, channel=0, data=[83, 0]),\r\n",
      "   midi.NoteOnEvent(tick=0, channel=0, data=[84, 100]),\r\n",
      "   midi.NoteOnEvent(tick=96, channel=0, data=[84, 0]),\r\n",
      "   midi.NoteOnEvent(tick=0, channel=0, data=[79, 100]),\r\n",
      "   midi.NoteOnEvent(tick=96, channel=0, data=[79, 0]),\r\n",
      "   midi.NoteOnEvent(tick=0, channel=0, data=[76, 100]),\r\n",
      "   midi.NoteOnEvent(tick=96, channel=0, data=[76, 0]),\r\n",
      "   midi.NoteOnEvent(tick=0, channel=0, data=[72, 100]),\r\n",
      "   midi.NoteOnEvent(tick=96, channel=0, data=[72, 0]),\r\n",
      "   midi.NoteOnEvent(tick=0, channel=0, data=[60, 100]),\r\n",
      "   midi.NoteOnEvent(tick=96, channel=0, data=[60, 0]),\r\n",
      "   midi.NoteOnEvent(tick=0, channel=0, data=[72, 100]),\r\n",
      "   midi.NoteOnEvent(tick=96, channel=0, data=[72, 0]),\r\n",
      "   midi.NoteOnEvent(tick=0, channel=0, data=[71, 100]),\r\n",
      "   midi.NoteOnEvent(tick=96, channel=0, data=[71, 0]),\r\n",
      "   midi.NoteOnEvent(tick=0, channel=0, data=[72, 100]),\r\n",
      "   midi.NoteOnEvent(tick=96, channel=0, data=[72, 0]),\r\n",
      "   midi.NoteOnEvent(tick=0, channel=0, data=[74, 100]),\r\n",
      "   midi.NoteOnEvent(tick=96, channel=0, data=[74, 0]),\r\n",
      "   midi.NoteOnEvent(tick=0, channel=0, data=[72, 100]),\r\n",
      "   midi.NoteOnEvent(tick=96, channel=0, data=[72, 0]),\r\n",
      "   midi.NoteOnEvent(tick=0, channel=0, data=[71, 100]),\r\n",
      "   midi.NoteOnEvent(tick=96, channel=0, data=[71, 0]),\r\n",
      "   midi.NoteOnEvent(tick=0, channel=0, data=[72, 100]),\r\n",
      "   midi.NoteOnEvent(tick=96, channel=0, data=[72, 0]),\r\n",
      "   midi.NoteOnEvent(tick=0, channel=0, data=[76, 100]),\r\n",
      "   midi.NoteOnEvent(tick=96, channel=0, data=[76, 0]),\r\n",
      "   midi.NoteOnEvent(tick=0, channel=0, data=[72, 100]),\r\n",
      "   midi.NoteOnEvent(tick=96, channel=0, data=[72, 0]),\r\n",
      "   midi.NoteOnEvent(tick=0, channel=0, data=[71, 100]),\r\n",
      "   midi.NoteOnEvent(tick=96, channel=0, data=[71, 0]),\r\n",
      "   midi.NoteOnEvent(tick=0, channel=0, data=[72, 100]),\r\n",
      "   midi.NoteOnEvent(tick=96, channel=0, data=[72, 0]),\r\n",
      "   midi.NoteOnEvent(tick=0, channel=0, data=[77, 100]),\r\n",
      "   midi.NoteOnEvent(tick=96, channel=0, data=[77, 0]),\r\n",
      "   midi.NoteOnEvent(tick=0, channel=0, data=[72, 100]),\r\n",
      "   midi.NoteOnEvent(tick=96, channel=0, data=[72, 0]),\r\n",
      "   midi.NoteOnEvent(tick=0, channel=0, data=[71, 100]),\r\n",
      "   midi.NoteOnEvent(tick=96, channel=0, data=[71, 0]),\r\n",
      "   midi.NoteOnEvent(tick=0, channel=0, data=[72, 100]),\r\n",
      "   midi.NoteOnEvent(tick=96, channel=0, data=[72, 0]),\r\n",
      "   midi.NoteOnEvent(tick=0, channel=0, data=[79, 100]),\r\n",
      "   midi.NoteOnEvent(tick=96, channel=0, data=[79, 0]),\r\n",
      "   midi.NoteOnEvent(tick=0, channel=0, data=[72, 100]),\r\n",
      "   midi.NoteOnEvent(tick=96, channel=0, data=[72, 0]),\r\n",
      "   midi.NoteOnEvent(tick=0, channel=0, data=[71, 100]),\r\n",
      "   midi.NoteOnEvent(tick=96, channel=0, data=[71, 0]),\r\n",
      "   midi.NoteOnEvent(tick=0, channel=0, data=[72, 100]),\r\n",
      "   midi.NoteOnEvent(tick=96, channel=0, data=[72, 0]),\r\n",
      "   midi.NoteOnEvent(tick=0, channel=0, data=[81, 100]),\r\n",
      "   midi.NoteOnEvent(tick=96, channel=0, data=[81, 0]),\r\n",
      "   midi.NoteOnEvent(tick=0, channel=0, data=[82, 100]),\r\n",
      "   midi.NoteOnEvent(tick=96, channel=0, data=[82, 0]),\r\n",
      "   midi.NoteOnEvent(tick=0, channel=0, data=[81, 100]),\r\n",
      "   midi.NoteOnEvent(tick=96, channel=0, data=[81, 0]),\r\n",
      "   midi.NoteOnEvent(tick=0, channel=0, data=[79, 100]),\r\n",
      "   midi.NoteOnEvent(tick=96, channel=0, data=[79, 0]),\r\n",
      "   midi.NoteOnEvent(tick=0, channel=0, data=[77, 100]),\r\n",
      "   midi.NoteOnEvent(tick=96, channel=0, data=[77, 0]),\r\n",
      "   midi.NoteOnEvent(tick=0, channel=0, data=[76, 100]),\r\n",
      "   midi.NoteOnEvent(tick=96, channel=0, data=[76, 0]),\r\n",
      "   midi.NoteOnEvent(tick=0, channel=0, data=[74, 100]),\r\n",
      "   midi.NoteOnEvent(tick=96, channel=0, data=[74, 0]),\r\n",
      "   midi.NoteOnEvent(tick=0, channel=0, data=[72, 100]),\r\n",
      "   midi.NoteOnEvent(tick=96, channel=0, data=[72, 0]),\r\n",
      "   midi.NoteOnEvent(tick=0, channel=0, data=[71, 100]),\r\n",
      "   midi.NoteOnEvent(tick=192, channel=0, data=[71, 0]),\r\n",
      "   midi.NoteOnEvent(tick=0, channel=0, data=[67, 100]),\r\n",
      "   midi.NoteOnEvent(tick=192, channel=0, data=[67, 0]),\r\n",
      "   midi.NoteOnEvent(tick=0, channel=0, data=[83, 100]),\r\n",
      "   midi.NoteOnEvent(tick=576, channel=0, data=[83, 0]),\r\n",
      "   midi.NoteOnEvent(tick=0, channel=0, data=[81, 100]),\r\n",
      "   midi.NoteOnEvent(tick=96, channel=0, data=[81, 0]),\r\n",
      "   midi.NoteOnEvent(tick=0, channel=0, data=[80, 100]),\r\n",
      "   midi.NoteOnEvent(tick=96, channel=0, data=[80, 0]),\r\n",
      "   midi.NoteOnEvent(tick=0, channel=0, data=[81, 100]),\r\n",
      "   midi.NoteOnEvent(tick=192, channel=0, data=[81, 0]),\r\n",
      "   midi.NoteOnEvent(tick=0, channel=0, data=[84, 100]),\r\n",
      "   midi.NoteOnEvent(tick=384, channel=0, data=[84, 0]),\r\n",
      "   midi.NoteOnEvent(tick=0, channel=0, data=[78, 100]),\r\n",
      "   midi.NoteOnEvent(tick=96, channel=0, data=[78, 0]),\r\n",
      "   midi.NoteOnEvent(tick=0, channel=0, data=[79, 100]),\r\n",
      "   midi.NoteOnEvent(tick=96, channel=0, data=[79, 0]),\r\n",
      "   midi.NoteOnEvent(tick=0, channel=0, data=[81, 100]),\r\n",
      "   midi.NoteOnEvent(tick=96, channel=0, data=[81, 0]),\r\n",
      "   midi.NoteOnEvent(tick=0, channel=0, data=[78, 100]),\r\n",
      "   midi.NoteOnEvent(tick=96, channel=0, data=[78, 0]),\r\n",
      "   midi.NoteOnEvent(tick=0, channel=0, data=[79, 100]),\r\n",
      "   midi.NoteOnEvent(tick=96, channel=0, data=[79, 0]),\r\n",
      "   midi.NoteOnEvent(tick=0, channel=0, data=[76, 100]),\r\n",
      "   midi.NoteOnEvent(tick=96, channel=0, data=[76, 0]),\r\n",
      "   midi.NoteOnEvent(tick=0, channel=0, data=[78, 100]),\r\n",
      "   midi.NoteOnEvent(tick=96, channel=0, data=[78, 0]),\r\n",
      "   midi.NoteOnEvent(tick=0, channel=0, data=[74, 100]),\r\n",
      "   midi.NoteOnEvent(tick=96, channel=0, data=[74, 0]),\r\n",
      "   midi.NoteOnEvent(tick=0, channel=0, data=[73, 100]),\r\n",
      "   midi.NoteOnEvent(tick=96, channel=0, data=[73, 0]),\r\n",
      "   midi.NoteOnEvent(tick=0, channel=0, data=[74, 100]),\r\n",
      "   midi.NoteOnEvent(tick=96, channel=0, data=[74, 0]),\r\n",
      "   midi.NoteOnEvent(tick=0, channel=0, data=[78, 100]),\r\n",
      "   midi.NoteOnEvent(tick=96, channel=0, data=[78, 0]),\r\n",
      "   midi.NoteOnEvent(tick=0, channel=0, data=[74, 100]),\r\n",
      "   midi.NoteOnEvent(tick=96, channel=0, data=[74, 0]),\r\n",
      "   midi.NoteOnEvent(tick=0, channel=0, data=[81, 100]),\r\n",
      "   midi.NoteOnEvent(tick=96, channel=0, data=[81, 0]),\r\n",
      "   midi.NoteOnEvent(tick=0, channel=0, data=[78, 100]),\r\n",
      "   midi.NoteOnEvent(tick=96, channel=0, data=[78, 0]),\r\n",
      "   midi.NoteOnEvent(tick=0, channel=0, data=[86, 100]),\r\n",
      "   midi.NoteOnEvent(tick=192, channel=0, data=[86, 0]),\r\n",
      "   midi.NoteOnEvent(tick=0, channel=0, data=[74, 100]),\r\n",
      "   midi.NoteOnEvent(tick=192, channel=0, data=[74, 0]),\r\n",
      "   midi.NoteOnEvent(tick=0, channel=0, data=[81, 100]),\r\n",
      "   midi.NoteOnEvent(tick=576, channel=0, data=[81, 0]),\r\n",
      "   midi.NoteOnEvent(tick=0, channel=0, data=[79, 100]),\r\n",
      "   midi.NoteOnEvent(tick=96, channel=0, data=[79, 0]),\r\n",
      "   midi.NoteOnEvent(tick=0, channel=0, data=[78, 100]),\r\n",
      "   midi.NoteOnEvent(tick=96, channel=0, data=[78, 0]),\r\n",
      "   midi.NoteOnEvent(tick=0, channel=0, data=[79, 100]),\r\n",
      "   midi.NoteOnEvent(tick=192, channel=0, data=[79, 0]),\r\n",
      "   midi.NoteOnEvent(tick=0, channel=0, data=[83, 100]),\r\n",
      "   midi.NoteOnEvent(tick=384, channel=0, data=[83, 0]),\r\n",
      "   midi.NoteOnEvent(tick=0, channel=0, data=[76, 100]),\r\n",
      "   midi.NoteOnEvent(tick=96, channel=0, data=[76, 0]),\r\n",
      "   midi.NoteOnEvent(tick=0, channel=0, data=[78, 100]),\r\n",
      "   midi.NoteOnEvent(tick=96, channel=0, data=[78, 0]),\r\n",
      "   midi.NoteOnEvent(tick=0, channel=0, data=[79, 100]),\r\n",
      "   midi.NoteOnEvent(tick=96, channel=0, data=[79, 0]),\r\n",
      "   midi.NoteOnEvent(tick=0, channel=0, data=[76, 100]),\r\n",
      "   midi.NoteOnEvent(tick=96, channel=0, data=[76, 0]),\r\n",
      "   midi.NoteOnEvent(tick=0, channel=0, data=[78, 100]),\r\n",
      "   midi.NoteOnEvent(tick=96, channel=0, data=[78, 0]),\r\n",
      "   midi.NoteOnEvent(tick=0, channel=0, data=[75, 100]),\r\n",
      "   midi.NoteOnEvent(tick=96, channel=0, data=[75, 0]),\r\n",
      "   midi.NoteOnEvent(tick=0, channel=0, data=[76, 100]),\r\n",
      "   midi.NoteOnEvent(tick=96, channel=0, data=[76, 0]),\r\n",
      "   midi.NoteOnEvent(tick=0, channel=0, data=[72, 100]),\r\n",
      "   midi.NoteOnEvent(tick=96, channel=0, data=[72, 0]),\r\n",
      "   midi.NoteOnEvent(tick=0, channel=0, data=[71, 100]),\r\n",
      "   midi.NoteOnEvent(tick=96, channel=0, data=[71, 0]),\r\n",
      "   midi.NoteOnEvent(tick=0, channel=0, data=[72, 100]),\r\n",
      "   midi.NoteOnEvent(tick=96, channel=0, data=[72, 0]),\r\n",
      "   midi.NoteOnEvent(tick=0, channel=0, data=[76, 100]),\r\n",
      "   midi.NoteOnEvent(tick=96, channel=0, data=[76, 0]),\r\n",
      "   midi.NoteOnEvent(tick=0, channel=0, data=[72, 100]),\r\n",
      "   midi.NoteOnEvent(tick=96, channel=0, data=[72, 0]),\r\n",
      "   midi.NoteOnEvent(tick=0, channel=0, data=[79, 100]),\r\n",
      "   midi.NoteOnEvent(tick=96, channel=0, data=[79, 0]),\r\n",
      "   midi.NoteOnEvent(tick=0, channel=0, data=[76, 100]),\r\n",
      "   midi.NoteOnEvent(tick=96, channel=0, data=[76, 0]),\r\n",
      "   midi.NoteOnEvent(tick=0, channel=0, data=[84, 100]),\r\n",
      "   midi.NoteOnEvent(tick=192, channel=0, data=[84, 0]),\r\n",
      "   midi.NoteOnEvent(tick=0, channel=0, data=[72, 100]),\r\n",
      "   midi.NoteOnEvent(tick=192, channel=0, data=[72, 0]),\r\n",
      "   midi.NoteOnEvent(tick=0, channel=0, data=[79, 100]),\r\n",
      "   midi.NoteOnEvent(tick=576, channel=0, data=[79, 0]),\r\n",
      "   midi.NoteOnEvent(tick=0, channel=0, data=[78, 100]),\r\n",
      "   midi.NoteOnEvent(tick=96, channel=0, data=[78, 0]),\r\n",
      "   midi.NoteOnEvent(tick=0, channel=0, data=[79, 100]),\r\n",
      "   midi.NoteOnEvent(tick=96, channel=0, data=[79, 0]),\r\n",
      "   midi.NoteOnEvent(tick=0, channel=0, data=[81, 100]),\r\n",
      "   midi.NoteOnEvent(tick=192, channel=0, data=[81, 0]),\r\n",
      "   midi.NoteOnEvent(tick=0, channel=0, data=[72, 100]),\r\n",
      "   midi.NoteOnEvent(tick=192, channel=0, data=[72, 0]),\r\n",
      "   midi.NoteOnEvent(tick=0, channel=0, data=[71, 100]),\r\n",
      "   midi.NoteOnEvent(tick=192, channel=0, data=[71, 0]),\r\n",
      "   midi.NoteOnEvent(tick=0, channel=0, data=[81, 100]),\r\n",
      "   midi.NoteOnEvent(tick=192, channel=0, data=[81, 0]),\r\n",
      "   midi.NoteOnEvent(tick=0, channel=0, data=[79, 100]),\r\n",
      "   midi.NoteOnEvent(tick=192, channel=0, data=[79, 0]),\r\n",
      "   midi.NoteOnEvent(tick=0, channel=0, data=[71, 100]),\r\n",
      "   midi.NoteOnEvent(tick=192, channel=0, data=[71, 0]),\r\n",
      "   midi.NoteOnEvent(tick=0, channel=0, data=[69, 100]),\r\n",
      "   midi.NoteOnEvent(tick=96, channel=0, data=[69, 0]),\r\n",
      "   midi.NoteOnEvent(tick=0, channel=0, data=[71, 100]),\r\n",
      "   midi.NoteOnEvent(tick=96, channel=0, data=[71, 0]),\r\n",
      "   midi.NoteOnEvent(tick=0, channel=0, data=[72, 100]),\r\n",
      "   midi.NoteOnEvent(tick=96, channel=0, data=[72, 0]),\r\n",
      "   midi.NoteOnEvent(tick=0, channel=0, data=[71, 100]),\r\n",
      "   midi.NoteOnEvent(tick=96, channel=0, data=[71, 0]),\r\n",
      "   midi.NoteOnEvent(tick=0, channel=0, data=[69, 100]),\r\n",
      "   midi.NoteOnEvent(tick=96, channel=0, data=[69, 0]),\r\n",
      "   midi.NoteOnEvent(tick=0, channel=0, data=[67, 100]),\r\n",
      "   midi.NoteOnEvent(tick=96, channel=0, data=[67, 0]),\r\n",
      "   midi.NoteOnEvent(tick=0, channel=0, data=[66, 100]),\r\n",
      "   midi.NoteOnEvent(tick=96, channel=0, data=[66, 0]),\r\n",
      "   midi.NoteOnEvent(tick=0, channel=0, data=[64, 100]),\r\n",
      "   midi.NoteOnEvent(tick=96, channel=0, data=[64, 0]),\r\n",
      "   midi.NoteOnEvent(tick=0, channel=0, data=[63, 100]),\r\n",
      "   midi.NoteOnEvent(tick=192, channel=0, data=[63, 0]),\r\n",
      "   midi.NoteOnEvent(tick=0, channel=0, data=[72, 100]),\r\n",
      "   midi.NoteOnEvent(tick=192, channel=0, data=[72, 0]),\r\n",
      "   midi.NoteOnEvent(tick=0, channel=0, data=[71, 100]),\r\n",
      "   midi.NoteOnEvent(tick=192, channel=0, data=[71, 0]),\r\n",
      "   midi.NoteOnEvent(tick=0, channel=0, data=[76, 100]),\r\n",
      "   midi.NoteOnEvent(tick=192, channel=0, data=[76, 0]),\r\n",
      "   midi.NoteOnEvent(tick=0, channel=0, data=[79, 100]),\r\n",
      "   midi.NoteOnEvent(tick=384, channel=0, data=[79, 0]),\r\n",
      "   midi.NoteOnEvent(tick=0, channel=0, data=[78, 100]),\r\n",
      "   midi.NoteOnEvent(tick=48, channel=0, data=[78, 0]),\r\n",
      "   midi.NoteOnEvent(tick=0, channel=0, data=[79, 100]),\r\n",
      "   midi.NoteOnEvent(tick=48, channel=0, data=[79, 0]),\r\n",
      "   midi.NoteOnEvent(tick=0, channel=0, data=[78, 100]),\r\n",
      "   midi.NoteOnEvent(tick=48, channel=0, data=[78, 0]),\r\n",
      "   midi.NoteOnEvent(tick=0, channel=0, data=[79, 100]),\r\n",
      "   midi.NoteOnEvent(tick=48, channel=0, data=[79, 0]),\r\n",
      "   midi.NoteOnEvent(tick=0, channel=0, data=[78, 100]),\r\n",
      "   midi.NoteOnEvent(tick=48, channel=0, data=[78, 0]),\r\n",
      "   midi.NoteOnEvent(tick=0, channel=0, data=[79, 100]),\r\n",
      "   midi.NoteOnEvent(tick=48, channel=0, data=[79, 0]),\r\n",
      "   midi.NoteOnEvent(tick=0, channel=0, data=[78, 100]),\r\n",
      "   midi.NoteOnEvent(tick=48, channel=0, data=[78, 0]),\r\n",
      "   midi.NoteOnEvent(tick=0, channel=0, data=[79, 100]),\r\n",
      "   midi.NoteOnEvent(tick=48, channel=0, data=[79, 0]),\r\n",
      "   midi.NoteOnEvent(tick=0, channel=0, data=[78, 100]),\r\n",
      "   midi.NoteOnEvent(tick=96, channel=0, data=[78, 0]),\r\n",
      "   midi.NoteOnEvent(tick=0, channel=0, data=[79, 100]),\r\n",
      "   midi.NoteOnEvent(tick=96, channel=0, data=[79, 0]),\r\n",
      "   midi.NoteOnEvent(tick=0, channel=0, data=[81, 100]),\r\n",
      "   midi.NoteOnEvent(tick=96, channel=0, data=[81, 0]),\r\n",
      "   midi.NoteOnEvent(tick=0, channel=0, data=[79, 100]),\r\n",
      "   midi.NoteOnEvent(tick=96, channel=0, data=[79, 0]),\r\n",
      "   midi.NoteOnEvent(tick=0, channel=0, data=[78, 100]),\r\n",
      "   midi.NoteOnEvent(tick=96, channel=0, data=[78, 0]),\r\n",
      "   midi.NoteOnEvent(tick=0, channel=0, data=[81, 100]),\r\n",
      "   midi.NoteOnEvent(tick=96, channel=0, data=[81, 0]),\r\n",
      "   midi.NoteOnEvent(tick=0, channel=0, data=[76, 100]),\r\n",
      "   midi.NoteOnEvent(tick=96, channel=0, data=[76, 0]),\r\n",
      "   midi.NoteOnEvent(tick=0, channel=0, data=[81, 100]),\r\n",
      "   midi.NoteOnEvent(tick=96, channel=0, data=[81, 0]),\r\n",
      "   midi.NoteOnEvent(tick=0, channel=0, data=[75, 100]),\r\n",
      "   midi.NoteOnEvent(tick=96, channel=0, data=[75, 0]),\r\n",
      "   midi.NoteOnEvent(tick=0, channel=0, data=[76, 100]),\r\n",
      "   midi.NoteOnEvent(tick=96, channel=0, data=[76, 0]),\r\n",
      "   midi.NoteOnEvent(tick=0, channel=0, data=[78, 100]),\r\n",
      "   midi.NoteOnEvent(tick=96, channel=0, data=[78, 0]),\r\n",
      "   midi.NoteOnEvent(tick=0, channel=0, data=[76, 100]),\r\n",
      "   midi.NoteOnEvent(tick=96, channel=0, data=[76, 0]),\r\n",
      "   midi.NoteOnEvent(tick=0, channel=0, data=[75, 100]),\r\n",
      "   midi.NoteOnEvent(tick=96, channel=0, data=[75, 0]),\r\n",
      "   midi.NoteOnEvent(tick=0, channel=0, data=[78, 100]),\r\n",
      "   midi.NoteOnEvent(tick=96, channel=0, data=[78, 0]),\r\n",
      "   midi.NoteOnEvent(tick=0, channel=0, data=[72, 100]),\r\n",
      "   midi.NoteOnEvent(tick=96, channel=0, data=[72, 0]),\r\n",
      "   midi.NoteOnEvent(tick=0, channel=0, data=[78, 100]),\r\n",
      "   midi.NoteOnEvent(tick=96, channel=0, data=[78, 0]),\r\n",
      "   midi.NoteOnEvent(tick=0, channel=0, data=[69, 100]),\r\n",
      "   midi.NoteOnEvent(tick=96, channel=0, data=[69, 0]),\r\n",
      "   midi.NoteOnEvent(tick=0, channel=0, data=[71, 100]),\r\n",
      "   midi.NoteOnEvent(tick=96, channel=0, data=[71, 0]),\r\n",
      "   midi.NoteOnEvent(tick=0, channel=0, data=[72, 100]),\r\n",
      "   midi.NoteOnEvent(tick=96, channel=0, data=[72, 0]),\r\n",
      "   midi.NoteOnEvent(tick=0, channel=0, data=[71, 100]),\r\n",
      "   midi.NoteOnEvent(tick=96, channel=0, data=[71, 0]),\r\n",
      "   midi.NoteOnEvent(tick=0, channel=0, data=[69, 100]),\r\n",
      "   midi.NoteOnEvent(tick=96, channel=0, data=[69, 0]),\r\n",
      "   midi.NoteOnEvent(tick=0, channel=0, data=[72, 100]),\r\n",
      "   midi.NoteOnEvent(tick=96, channel=0, data=[72, 0]),\r\n",
      "   midi.NoteOnEvent(tick=0, channel=0, data=[67, 100]),\r\n",
      "   midi.NoteOnEvent(tick=96, channel=0, data=[67, 0]),\r\n",
      "   midi.NoteOnEvent(tick=0, channel=0, data=[72, 100]),\r\n",
      "   midi.NoteOnEvent(tick=96, channel=0, data=[72, 0]),\r\n",
      "   midi.NoteOnEvent(tick=0, channel=0, data=[66, 100]),\r\n",
      "   midi.NoteOnEvent(tick=96, channel=0, data=[66, 0]),\r\n",
      "   midi.NoteOnEvent(tick=0, channel=0, data=[67, 100]),\r\n",
      "   midi.NoteOnEvent(tick=96, channel=0, data=[67, 0]),\r\n",
      "   midi.NoteOnEvent(tick=0, channel=0, data=[69, 100]),\r\n",
      "   midi.NoteOnEvent(tick=96, channel=0, data=[69, 0]),\r\n",
      "   midi.NoteOnEvent(tick=0, channel=0, data=[67, 100]),\r\n",
      "   midi.NoteOnEvent(tick=96, channel=0, data=[67, 0]),\r\n",
      "   midi.NoteOnEvent(tick=0, channel=0, data=[66, 100]),\r\n",
      "   midi.NoteOnEvent(tick=96, channel=0, data=[66, 0]),\r\n",
      "   midi.NoteOnEvent(tick=0, channel=0, data=[69, 100]),\r\n",
      "   midi.NoteOnEvent(tick=96, channel=0, data=[69, 0]),\r\n",
      "   midi.NoteOnEvent(tick=0, channel=0, data=[64, 100]),\r\n",
      "   midi.NoteOnEvent(tick=96, channel=0, data=[64, 0]),\r\n",
      "   midi.NoteOnEvent(tick=0, channel=0, data=[69, 100]),\r\n",
      "   midi.NoteOnEvent(tick=96, channel=0, data=[69, 0]),\r\n",
      "   midi.NoteOnEvent(tick=0, channel=0, data=[63, 100]),\r\n",
      "   midi.NoteOnEvent(tick=96, channel=0, data=[63, 0]),\r\n",
      "   midi.NoteOnEvent(tick=0, channel=0, data=[69, 100]),\r\n",
      "   midi.NoteOnEvent(tick=96, channel=0, data=[69, 0]),\r\n",
      "   midi.NoteOnEvent(tick=0, channel=0, data=[59, 100]),\r\n",
      "   midi.NoteOnEvent(tick=96, channel=0, data=[59, 0]),\r\n",
      "   midi.NoteOnEvent(tick=0, channel=0, data=[61, 100]),\r\n",
      "   midi.NoteOnEvent(tick=96, channel=0, data=[61, 0]),\r\n",
      "   midi.NoteOnEvent(tick=0, channel=0, data=[63, 100]),\r\n",
      "   midi.NoteOnEvent(tick=96, channel=0, data=[63, 0]),\r\n",
      "   midi.NoteOnEvent(tick=0, channel=0, data=[64, 100]),\r\n",
      "   midi.NoteOnEvent(tick=96, channel=0, data=[64, 0]),\r\n",
      "   midi.NoteOnEvent(tick=0, channel=0, data=[66, 100]),\r\n",
      "   midi.NoteOnEvent(tick=96, channel=0, data=[66, 0]),\r\n",
      "   midi.NoteOnEvent(tick=0, channel=0, data=[67, 100]),\r\n",
      "   midi.NoteOnEvent(tick=96, channel=0, data=[67, 0]),\r\n",
      "   midi.NoteOnEvent(tick=0, channel=0, data=[69, 100]),\r\n",
      "   midi.NoteOnEvent(tick=96, channel=0, data=[69, 0]),\r\n",
      "   midi.NoteOnEvent(tick=0, channel=0, data=[71, 100]),\r\n",
      "   midi.NoteOnEvent(tick=96, channel=0, data=[71, 0]),\r\n",
      "   midi.NoteOnEvent(tick=0, channel=0, data=[73, 100]),\r\n",
      "   midi.NoteOnEvent(tick=96, channel=0, data=[73, 0]),\r\n",
      "   midi.NoteOnEvent(tick=0, channel=0, data=[75, 100]),\r\n",
      "   midi.NoteOnEvent(tick=96, channel=0, data=[75, 0]),\r\n",
      "   midi.NoteOnEvent(tick=0, channel=0, data=[76, 100]),\r\n",
      "   midi.NoteOnEvent(tick=96, channel=0, data=[76, 0]),\r\n",
      "   midi.NoteOnEvent(tick=0, channel=0, data=[78, 100]),\r\n",
      "   midi.NoteOnEvent(tick=96, channel=0, data=[78, 0]),\r\n",
      "   midi.NoteOnEvent(tick=0, channel=0, data=[79, 100]),\r\n",
      "   midi.NoteOnEvent(tick=96, channel=0, data=[79, 0]),\r\n",
      "   midi.NoteOnEvent(tick=0, channel=0, data=[81, 100]),\r\n",
      "   midi.NoteOnEvent(tick=96, channel=0, data=[81, 0]),\r\n",
      "   midi.NoteOnEvent(tick=0, channel=0, data=[83, 100]),\r\n",
      "   midi.NoteOnEvent(tick=192, channel=0, data=[83, 0]),\r\n",
      "   midi.NoteOnEvent(tick=0, channel=0, data=[76, 100]),\r\n",
      "   midi.NoteOnEvent(tick=192, channel=0, data=[76, 0]),\r\n",
      "   midi.NoteOnEvent(tick=0, channel=0, data=[78, 100]),\r\n",
      "   midi.NoteOnEvent(tick=192, channel=0, data=[78, 0]),\r\n",
      "   midi.NoteOnEvent(tick=0, channel=0, data=[75, 100]),\r\n",
      "   midi.NoteOnEvent(tick=192, channel=0, data=[75, 0]),\r\n",
      "   midi.NoteOnEvent(tick=0, channel=0, data=[76, 100]),\r\n",
      "   midi.NoteOnEvent(tick=96, channel=0, data=[76, 0]),\r\n",
      "   midi.NoteOnEvent(tick=0, channel=0, data=[74, 100]),\r\n",
      "   midi.NoteOnEvent(tick=96, channel=0, data=[74, 0]),\r\n",
      "   midi.NoteOnEvent(tick=0, channel=0, data=[72, 100]),\r\n",
      "   midi.NoteOnEvent(tick=96, channel=0, data=[72, 0]),\r\n",
      "   midi.NoteOnEvent(tick=0, channel=0, data=[71, 100]),\r\n",
      "   midi.NoteOnEvent(tick=96, channel=0, data=[71, 0]),\r\n",
      "   midi.NoteOnEvent(tick=0, channel=0, data=[69, 100]),\r\n",
      "   midi.NoteOnEvent(tick=192, channel=0, data=[69, 0]),\r\n",
      "   midi.NoteOnEvent(tick=0, channel=0, data=[69, 100]),\r\n",
      "   midi.NoteOnEvent(tick=192, channel=0, data=[69, 0]),\r\n",
      "   midi.NoteOnEvent(tick=0, channel=0, data=[69, 100]),\r\n",
      "   midi.NoteOnEvent(tick=96, channel=0, data=[69, 0]),\r\n",
      "   midi.NoteOnEvent(tick=0, channel=0, data=[71, 100]),\r\n",
      "   midi.NoteOnEvent(tick=96, channel=0, data=[71, 0]),\r\n",
      "   midi.NoteOnEvent(tick=0, channel=0, data=[72, 100]),\r\n",
      "   midi.NoteOnEvent(tick=288, channel=0, data=[72, 0]),\r\n",
      "   midi.NoteOnEvent(tick=0, channel=0, data=[71, 100]),\r\n",
      "   midi.NoteOnEvent(tick=96, channel=0, data=[71, 0]),\r\n",
      "   midi.NoteOnEvent(tick=0, channel=0, data=[69, 100]),\r\n",
      "   midi.NoteOnEvent(tick=96, channel=0, data=[69, 0]),\r\n",
      "   midi.NoteOnEvent(tick=0, channel=0, data=[67, 100]),\r\n",
      "   midi.NoteOnEvent(tick=96, channel=0, data=[67, 0]),\r\n",
      "   midi.NoteOnEvent(tick=0, channel=0, data=[66, 100]),\r\n",
      "   midi.NoteOnEvent(tick=96, channel=0, data=[66, 0]),\r\n",
      "   midi.NoteOnEvent(tick=0, channel=0, data=[67, 100]),\r\n",
      "   midi.NoteOnEvent(tick=96, channel=0, data=[67, 0]),\r\n",
      "   midi.NoteOnEvent(tick=0, channel=0, data=[69, 100]),\r\n",
      "   midi.NoteOnEvent(tick=288, channel=0, data=[69, 0]),\r\n",
      "   midi.NoteOnEvent(tick=0, channel=0, data=[67, 100]),\r\n",
      "   midi.NoteOnEvent(tick=96, channel=0, data=[67, 0]),\r\n",
      "   midi.NoteOnEvent(tick=0, channel=0, data=[66, 100]),\r\n",
      "   midi.NoteOnEvent(tick=96, channel=0, data=[66, 0]),\r\n",
      "   midi.NoteOnEvent(tick=0, channel=0, data=[64, 100]),\r\n",
      "   midi.NoteOnEvent(tick=96, channel=0, data=[64, 0]),\r\n",
      "   midi.NoteOnEvent(tick=0, channel=0, data=[63, 100]),\r\n",
      "   midi.NoteOnEvent(tick=192, channel=0, data=[63, 0]),\r\n",
      "   midi.NoteOnEvent(tick=0, channel=0, data=[71, 100]),\r\n",
      "   midi.NoteOnEvent(tick=192, channel=0, data=[71, 0]),\r\n",
      "   midi.NoteOnEvent(tick=0, channel=0, data=[67, 100]),\r\n",
      "   midi.NoteOnEvent(tick=48, channel=0, data=[67, 0]),\r\n",
      "   midi.NoteOnEvent(tick=0, channel=0, data=[69, 100]),\r\n",
      "   midi.NoteOnEvent(tick=48, channel=0, data=[69, 0]),\r\n",
      "   midi.NoteOnEvent(tick=0, channel=0, data=[67, 100]),\r\n",
      "   midi.NoteOnEvent(tick=48, channel=0, data=[67, 0]),\r\n",
      "   midi.NoteOnEvent(tick=0, channel=0, data=[69, 100]),\r\n",
      "   midi.NoteOnEvent(tick=48, channel=0, data=[69, 0]),\r\n",
      "   midi.NoteOnEvent(tick=0, channel=0, data=[66, 100]),\r\n",
      "   midi.NoteOnEvent(tick=96, channel=0, data=[66, 0]),\r\n",
      "   midi.NoteOnEvent(tick=0, channel=0, data=[64, 100]),\r\n",
      "   midi.NoteOnEvent(tick=96, channel=0, data=[64, 0]),\r\n",
      "   midi.NoteOnEvent(tick=0, channel=0, data=[64, 100]),\r\n",
      "   midi.NoteOnEvent(tick=384, channel=0, data=[64, 0]),\r\n",
      "   midi.NoteOnEvent(tick=96, channel=0, data=[71, 100]),\r\n",
      "   midi.NoteOnEvent(tick=96, channel=0, data=[71, 0]),\r\n",
      "   midi.NoteOnEvent(tick=0, channel=0, data=[69, 100]),\r\n",
      "   midi.NoteOnEvent(tick=96, channel=0, data=[69, 0]),\r\n",
      "   midi.NoteOnEvent(tick=0, channel=0, data=[71, 100]),\r\n",
      "   midi.NoteOnEvent(tick=96, channel=0, data=[71, 0]),\r\n",
      "   midi.NoteOnEvent(tick=0, channel=0, data=[76, 100]),\r\n",
      "   midi.NoteOnEvent(tick=96, channel=0, data=[76, 0]),\r\n",
      "   midi.NoteOnEvent(tick=0, channel=0, data=[75, 100]),\r\n",
      "   midi.NoteOnEvent(tick=96, channel=0, data=[75, 0]),\r\n",
      "   midi.NoteOnEvent(tick=0, channel=0, data=[76, 100]),\r\n",
      "   midi.NoteOnEvent(tick=288, channel=0, data=[76, 0]),\r\n",
      "   midi.NoteOnEvent(tick=0, channel=0, data=[71, 100]),\r\n",
      "   midi.NoteOnEvent(tick=96, channel=0, data=[71, 0]),\r\n",
      "   midi.NoteOnEvent(tick=0, channel=0, data=[69, 100]),\r\n",
      "   midi.NoteOnEvent(tick=96, channel=0, data=[69, 0]),\r\n",
      "   midi.NoteOnEvent(tick=0, channel=0, data=[71, 100]),\r\n",
      "   midi.NoteOnEvent(tick=96, channel=0, data=[71, 0]),\r\n",
      "   midi.NoteOnEvent(tick=0, channel=0, data=[79, 100]),\r\n",
      "   midi.NoteOnEvent(tick=192, channel=0, data=[79, 0]),\r\n",
      "   midi.NoteOnEvent(tick=0, channel=0, data=[78, 100]),\r\n",
      "   midi.NoteOnEvent(tick=288, channel=0, data=[78, 0]),\r\n",
      "   midi.NoteOnEvent(tick=0, channel=0, data=[71, 100]),\r\n",
      "   midi.NoteOnEvent(tick=96, channel=0, data=[71, 0]),\r\n",
      "   midi.NoteOnEvent(tick=0, channel=0, data=[69, 100]),\r\n",
      "   midi.NoteOnEvent(tick=96, channel=0, data=[69, 0]),\r\n",
      "   midi.NoteOnEvent(tick=0, channel=0, data=[71, 100]),\r\n",
      "   midi.NoteOnEvent(tick=96, channel=0, data=[71, 0]),\r\n",
      "   midi.NoteOnEvent(tick=0, channel=0, data=[78, 100]),\r\n",
      "   midi.NoteOnEvent(tick=96, channel=0, data=[78, 0]),\r\n",
      "   midi.NoteOnEvent(tick=0, channel=0, data=[76, 100]),\r\n",
      "   midi.NoteOnEvent(tick=96, channel=0, data=[76, 0]),\r\n",
      "   midi.NoteOnEvent(tick=0, channel=0, data=[78, 100]),\r\n",
      "   midi.NoteOnEvent(tick=288, channel=0, data=[78, 0]),\r\n",
      "   midi.NoteOnEvent(tick=0, channel=0, data=[71, 100]),\r\n",
      "   midi.NoteOnEvent(tick=96, channel=0, data=[71, 0]),\r\n",
      "   midi.NoteOnEvent(tick=0, channel=0, data=[69, 100]),\r\n",
      "   midi.NoteOnEvent(tick=96, channel=0, data=[69, 0]),\r\n",
      "   midi.NoteOnEvent(tick=0, channel=0, data=[71, 100]),\r\n",
      "   midi.NoteOnEvent(tick=96, channel=0, data=[71, 0]),\r\n",
      "   midi.NoteOnEvent(tick=0, channel=0, data=[81, 100]),\r\n",
      "   midi.NoteOnEvent(tick=192, channel=0, data=[81, 0]),\r\n",
      "   midi.NoteOnEvent(tick=0, channel=0, data=[79, 100]),\r\n",
      "   midi.NoteOnEvent(tick=288, channel=0, data=[79, 0]),\r\n",
      "   midi.NoteOnEvent(tick=0, channel=0, data=[76, 100]),\r\n",
      "   midi.NoteOnEvent(tick=96, channel=0, data=[76, 0]),\r\n",
      "   midi.NoteOnEvent(tick=0, channel=0, data=[75, 100]),\r\n",
      "   midi.NoteOnEvent(tick=96, channel=0, data=[75, 0]),\r\n",
      "   midi.NoteOnEvent(tick=0, channel=0, data=[76, 100]),\r\n",
      "   midi.NoteOnEvent(tick=96, channel=0, data=[76, 0]),\r\n",
      "   midi.NoteOnEvent(tick=0, channel=0, data=[78, 100]),\r\n",
      "   midi.NoteOnEvent(tick=96, channel=0, data=[78, 0]),\r\n",
      "   midi.NoteOnEvent(tick=0, channel=0, data=[76, 100]),\r\n",
      "   midi.NoteOnEvent(tick=96, channel=0, data=[76, 0]),\r\n",
      "   midi.NoteOnEvent(tick=0, channel=0, data=[75, 100]),\r\n",
      "   midi.NoteOnEvent(tick=96, channel=0, data=[75, 0]),\r\n",
      "   midi.NoteOnEvent(tick=0, channel=0, data=[76, 100]),\r\n",
      "   midi.NoteOnEvent(tick=96, channel=0, data=[76, 0]),\r\n",
      "   midi.NoteOnEvent(tick=0, channel=0, data=[80, 100]),\r\n",
      "   midi.NoteOnEvent(tick=96, channel=0, data=[80, 0]),\r\n",
      "   midi.NoteOnEvent(tick=0, channel=0, data=[76, 100]),\r\n",
      "   midi.NoteOnEvent(tick=96, channel=0, data=[76, 0]),\r\n",
      "   midi.NoteOnEvent(tick=0, channel=0, data=[75, 100]),\r\n",
      "   midi.NoteOnEvent(tick=96, channel=0, data=[75, 0]),\r\n",
      "   midi.NoteOnEvent(tick=0, channel=0, data=[76, 100]),\r\n",
      "   midi.NoteOnEvent(tick=96, channel=0, data=[76, 0]),\r\n",
      "   midi.NoteOnEvent(tick=0, channel=0, data=[81, 100]),\r\n",
      "   midi.NoteOnEvent(tick=96, channel=0, data=[81, 0]),\r\n",
      "   midi.NoteOnEvent(tick=0, channel=0, data=[76, 100]),\r\n",
      "   midi.NoteOnEvent(tick=96, channel=0, data=[76, 0]),\r\n",
      "   midi.NoteOnEvent(tick=0, channel=0, data=[75, 100]),\r\n",
      "   midi.NoteOnEvent(tick=96, channel=0, data=[75, 0]),\r\n",
      "   midi.NoteOnEvent(tick=0, channel=0, data=[76, 100]),\r\n",
      "   midi.NoteOnEvent(tick=96, channel=0, data=[76, 0]),\r\n",
      "   midi.NoteOnEvent(tick=0, channel=0, data=[83, 100]),\r\n",
      "   midi.NoteOnEvent(tick=96, channel=0, data=[83, 0]),\r\n",
      "   midi.NoteOnEvent(tick=0, channel=0, data=[76, 100]),\r\n",
      "   midi.NoteOnEvent(tick=96, channel=0, data=[76, 0]),\r\n",
      "   midi.NoteOnEvent(tick=0, channel=0, data=[75, 100]),\r\n",
      "   midi.NoteOnEvent(tick=96, channel=0, data=[75, 0]),\r\n",
      "   midi.NoteOnEvent(tick=0, channel=0, data=[76, 100]),\r\n",
      "   midi.NoteOnEvent(tick=96, channel=0, data=[76, 0]),\r\n",
      "   midi.NoteOnEvent(tick=0, channel=0, data=[84, 100]),\r\n",
      "   midi.NoteOnEvent(tick=96, channel=0, data=[84, 0]),\r\n",
      "   midi.NoteOnEvent(tick=0, channel=0, data=[69, 100]),\r\n",
      "   midi.NoteOnEvent(tick=96, channel=0, data=[69, 0]),\r\n",
      "   midi.NoteOnEvent(tick=0, channel=0, data=[68, 100]),\r\n",
      "   midi.NoteOnEvent(tick=96, channel=0, data=[68, 0]),\r\n",
      "   midi.NoteOnEvent(tick=0, channel=0, data=[69, 100]),\r\n",
      "   midi.NoteOnEvent(tick=96, channel=0, data=[69, 0]),\r\n",
      "   midi.NoteOnEvent(tick=0, channel=0, data=[73, 100]),\r\n",
      "   midi.NoteOnEvent(tick=96, channel=0, data=[73, 0]),\r\n",
      "   midi.NoteOnEvent(tick=0, channel=0, data=[69, 100]),\r\n",
      "   midi.NoteOnEvent(tick=96, channel=0, data=[69, 0]),\r\n",
      "   midi.NoteOnEvent(tick=0, channel=0, data=[68, 100]),\r\n",
      "   midi.NoteOnEvent(tick=96, channel=0, data=[68, 0]),\r\n",
      "   midi.NoteOnEvent(tick=0, channel=0, data=[69, 100]),\r\n",
      "   midi.NoteOnEvent(tick=96, channel=0, data=[69, 0]),\r\n",
      "   midi.NoteOnEvent(tick=0, channel=0, data=[74, 100]),\r\n",
      "   midi.NoteOnEvent(tick=96, channel=0, data=[74, 0]),\r\n",
      "   midi.NoteOnEvent(tick=0, channel=0, data=[69, 100]),\r\n",
      "   midi.NoteOnEvent(tick=96, channel=0, data=[69, 0]),\r\n",
      "   midi.NoteOnEvent(tick=0, channel=0, data=[68, 100]),\r\n",
      "   midi.NoteOnEvent(tick=96, channel=0, data=[68, 0]),\r\n",
      "   midi.NoteOnEvent(tick=0, channel=0, data=[69, 100]),\r\n",
      "   midi.NoteOnEvent(tick=96, channel=0, data=[69, 0]),\r\n",
      "   midi.NoteOnEvent(tick=0, channel=0, data=[76, 100]),\r\n",
      "   midi.NoteOnEvent(tick=96, channel=0, data=[76, 0]),\r\n",
      "   midi.NoteOnEvent(tick=0, channel=0, data=[69, 100]),\r\n",
      "   midi.NoteOnEvent(tick=96, channel=0, data=[69, 0]),\r\n",
      "   midi.NoteOnEvent(tick=0, channel=0, data=[68, 100]),\r\n",
      "   midi.NoteOnEvent(tick=96, channel=0, data=[68, 0]),\r\n",
      "   midi.NoteOnEvent(tick=0, channel=0, data=[69, 100]),\r\n",
      "   midi.NoteOnEvent(tick=96, channel=0, data=[69, 0]),\r\n",
      "   midi.NoteOnEvent(tick=0, channel=0, data=[77, 100]),\r\n",
      "   midi.NoteOnEvent(tick=96, channel=0, data=[77, 0]),\r\n",
      "   midi.NoteOnEvent(tick=0, channel=0, data=[62, 100]),\r\n",
      "   midi.NoteOnEvent(tick=96, channel=0, data=[62, 0]),\r\n",
      "   midi.NoteOnEvent(tick=0, channel=0, data=[61, 100]),\r\n",
      "   midi.NoteOnEvent(tick=96, channel=0, data=[61, 0]),\r\n",
      "   midi.NoteOnEvent(tick=0, channel=0, data=[62, 100]),\r\n",
      "   midi.NoteOnEvent(tick=96, channel=0, data=[62, 0]),\r\n",
      "   midi.NoteOnEvent(tick=0, channel=0, data=[66, 100]),\r\n",
      "   midi.NoteOnEvent(tick=96, channel=0, data=[66, 0]),\r\n",
      "   midi.NoteOnEvent(tick=0, channel=0, data=[62, 100]),\r\n",
      "   midi.NoteOnEvent(tick=96, channel=0, data=[62, 0]),\r\n",
      "   midi.NoteOnEvent(tick=0, channel=0, data=[61, 100]),\r\n",
      "   midi.NoteOnEvent(tick=96, channel=0, data=[61, 0]),\r\n",
      "   midi.NoteOnEvent(tick=0, channel=0, data=[62, 100]),\r\n",
      "   midi.NoteOnEvent(tick=96, channel=0, data=[62, 0]),\r\n",
      "   midi.NoteOnEvent(tick=0, channel=0, data=[67, 100]),\r\n",
      "   midi.NoteOnEvent(tick=96, channel=0, data=[67, 0]),\r\n",
      "   midi.NoteOnEvent(tick=0, channel=0, data=[62, 100]),\r\n",
      "   midi.NoteOnEvent(tick=96, channel=0, data=[62, 0]),\r\n",
      "   midi.NoteOnEvent(tick=0, channel=0, data=[61, 100]),\r\n",
      "   midi.NoteOnEvent(tick=96, channel=0, data=[61, 0]),\r\n",
      "   midi.NoteOnEvent(tick=0, channel=0, data=[62, 100]),\r\n",
      "   midi.NoteOnEvent(tick=96, channel=0, data=[62, 0]),\r\n",
      "   midi.NoteOnEvent(tick=0, channel=0, data=[69, 100]),\r\n",
      "   midi.NoteOnEvent(tick=96, channel=0, data=[69, 0]),\r\n",
      "   midi.NoteOnEvent(tick=0, channel=0, data=[62, 100]),\r\n",
      "   midi.NoteOnEvent(tick=96, channel=0, data=[62, 0]),\r\n",
      "   midi.NoteOnEvent(tick=0, channel=0, data=[61, 100]),\r\n",
      "   midi.NoteOnEvent(tick=96, channel=0, data=[61, 0]),\r\n",
      "   midi.NoteOnEvent(tick=0, channel=0, data=[62, 100]),\r\n",
      "   midi.NoteOnEvent(tick=96, channel=0, data=[62, 0]),\r\n",
      "   midi.NoteOnEvent(tick=0, channel=0, data=[71, 100]),\r\n",
      "   midi.NoteOnEvent(tick=96, channel=0, data=[71, 0]),\r\n",
      "   midi.NoteOnEvent(tick=0, channel=0, data=[67, 100]),\r\n",
      "   midi.NoteOnEvent(tick=96, channel=0, data=[67, 0]),\r\n",
      "   midi.NoteOnEvent(tick=0, channel=0, data=[66, 100]),\r\n",
      "   midi.NoteOnEvent(tick=96, channel=0, data=[66, 0]),\r\n",
      "   midi.NoteOnEvent(tick=0, channel=0, data=[67, 100]),\r\n",
      "   midi.NoteOnEvent(tick=96, channel=0, data=[67, 0]),\r\n",
      "   midi.NoteOnEvent(tick=0, channel=0, data=[71, 100]),\r\n",
      "   midi.NoteOnEvent(tick=96, channel=0, data=[71, 0]),\r\n",
      "   midi.NoteOnEvent(tick=0, channel=0, data=[67, 100]),\r\n",
      "   midi.NoteOnEvent(tick=96, channel=0, data=[67, 0]),\r\n",
      "   midi.NoteOnEvent(tick=0, channel=0, data=[66, 100]),\r\n",
      "   midi.NoteOnEvent(tick=96, channel=0, data=[66, 0]),\r\n",
      "   midi.NoteOnEvent(tick=0, channel=0, data=[67, 100]),\r\n",
      "   midi.NoteOnEvent(tick=96, channel=0, data=[67, 0]),\r\n",
      "   midi.NoteOnEvent(tick=0, channel=0, data=[72, 100]),\r\n",
      "   midi.NoteOnEvent(tick=96, channel=0, data=[72, 0]),\r\n",
      "   midi.NoteOnEvent(tick=0, channel=0, data=[67, 100]),\r\n",
      "   midi.NoteOnEvent(tick=96, channel=0, data=[67, 0]),\r\n",
      "   midi.NoteOnEvent(tick=0, channel=0, data=[66, 100]),\r\n",
      "   midi.NoteOnEvent(tick=96, channel=0, data=[66, 0]),\r\n",
      "   midi.NoteOnEvent(tick=0, channel=0, data=[67, 100]),\r\n",
      "   midi.NoteOnEvent(tick=96, channel=0, data=[67, 0]),\r\n",
      "   midi.NoteOnEvent(tick=0, channel=0, data=[74, 100]),\r\n",
      "   midi.NoteOnEvent(tick=96, channel=0, data=[74, 0]),\r\n",
      "   midi.NoteOnEvent(tick=0, channel=0, data=[67, 100]),\r\n",
      "   midi.NoteOnEvent(tick=96, channel=0, data=[67, 0]),\r\n",
      "   midi.NoteOnEvent(tick=0, channel=0, data=[66, 100]),\r\n",
      "   midi.NoteOnEvent(tick=96, channel=0, data=[66, 0]),\r\n",
      "   midi.NoteOnEvent(tick=0, channel=0, data=[67, 100]),\r\n",
      "   midi.NoteOnEvent(tick=96, channel=0, data=[67, 0]),\r\n",
      "   midi.NoteOnEvent(tick=0, channel=0, data=[76, 100]),\r",
      "\r\n",
      "   midi.NoteOnEvent(tick=96, channel=0, data=[76, 0]),\r\n",
      "   midi.NoteOnEvent(tick=0, channel=0, data=[72, 100]),\r\n",
      "   midi.NoteOnEvent(tick=96, channel=0, data=[72, 0]),\r\n",
      "   midi.NoteOnEvent(tick=0, channel=0, data=[71, 100]),\r\n",
      "   midi.NoteOnEvent(tick=96, channel=0, data=[71, 0]),\r\n",
      "   midi.NoteOnEvent(tick=0, channel=0, data=[72, 100]),\r\n",
      "   midi.NoteOnEvent(tick=96, channel=0, data=[72, 0]),\r\n",
      "   midi.NoteOnEvent(tick=0, channel=0, data=[76, 100]),\r\n",
      "   midi.NoteOnEvent(tick=96, channel=0, data=[76, 0]),\r\n",
      "   midi.NoteOnEvent(tick=0, channel=0, data=[72, 100]),\r\n",
      "   midi.NoteOnEvent(tick=96, channel=0, data=[72, 0]),\r\n",
      "   midi.NoteOnEvent(tick=0, channel=0, data=[71, 100]),\r\n",
      "   midi.NoteOnEvent(tick=96, channel=0, data=[71, 0]),\r\n",
      "   midi.NoteOnEvent(tick=0, channel=0, data=[72, 100]),\r\n",
      "   midi.NoteOnEvent(tick=96, channel=0, data=[72, 0]),\r\n",
      "   midi.NoteOnEvent(tick=0, channel=0, data=[77, 100]),\r\n",
      "   midi.NoteOnEvent(tick=96, channel=0, data=[77, 0]),\r\n",
      "   midi.NoteOnEvent(tick=0, channel=0, data=[72, 100]),\r\n",
      "   midi.NoteOnEvent(tick=96, channel=0, data=[72, 0]),\r\n",
      "   midi.NoteOnEvent(tick=0, channel=0, data=[71, 100]),\r\n",
      "   midi.NoteOnEvent(tick=96, channel=0, data=[71, 0]),\r\n",
      "   midi.NoteOnEvent(tick=0, channel=0, data=[72, 100]),\r\n",
      "   midi.NoteOnEvent(tick=96, channel=0, data=[72, 0]),\r\n",
      "   midi.NoteOnEvent(tick=0, channel=0, data=[79, 100]),\r\n",
      "   midi.NoteOnEvent(tick=96, channel=0, data=[79, 0]),\r\n",
      "   midi.NoteOnEvent(tick=0, channel=0, data=[72, 100]),\r\n",
      "   midi.NoteOnEvent(tick=96, channel=0, data=[72, 0]),\r\n",
      "   midi.NoteOnEvent(tick=0, channel=0, data=[71, 100]),\r\n",
      "   midi.NoteOnEvent(tick=96, channel=0, data=[71, 0]),\r\n",
      "   midi.NoteOnEvent(tick=0, channel=0, data=[72, 100]),\r\n",
      "   midi.NoteOnEvent(tick=96, channel=0, data=[72, 0]),\r\n",
      "   midi.NoteOnEvent(tick=0, channel=0, data=[81, 100]),\r\n",
      "   midi.NoteOnEvent(tick=96, channel=0, data=[81, 0]),\r\n",
      "   midi.NoteOnEvent(tick=0, channel=0, data=[82, 100]),\r\n",
      "   midi.NoteOnEvent(tick=96, channel=0, data=[82, 0]),\r\n",
      "   midi.NoteOnEvent(tick=0, channel=0, data=[81, 100]),\r\n",
      "   midi.NoteOnEvent(tick=96, channel=0, data=[81, 0]),\r\n",
      "   midi.NoteOnEvent(tick=0, channel=0, data=[79, 100]),\r\n",
      "   midi.NoteOnEvent(tick=96, channel=0, data=[79, 0]),\r\n",
      "   midi.NoteOnEvent(tick=0, channel=0, data=[77, 100]),\r\n",
      "   midi.NoteOnEvent(tick=96, channel=0, data=[77, 0]),\r\n",
      "   midi.NoteOnEvent(tick=0, channel=0, data=[76, 100]),\r\n",
      "   midi.NoteOnEvent(tick=96, channel=0, data=[76, 0]),\r\n",
      "   midi.NoteOnEvent(tick=0, channel=0, data=[74, 100]),\r\n",
      "   midi.NoteOnEvent(tick=96, channel=0, data=[74, 0]),\r\n",
      "   midi.NoteOnEvent(tick=0, channel=0, data=[72, 100]),\r\n",
      "   midi.NoteOnEvent(tick=96, channel=0, data=[72, 0]),\r\n",
      "   midi.NoteOnEvent(tick=0, channel=0, data=[70, 100]),\r\n",
      "   midi.NoteOnEvent(tick=96, channel=0, data=[70, 0]),\r\n",
      "   midi.NoteOnEvent(tick=0, channel=0, data=[69, 100]),\r\n",
      "   midi.NoteOnEvent(tick=96, channel=0, data=[69, 0]),\r\n",
      "   midi.NoteOnEvent(tick=0, channel=0, data=[70, 100]),\r\n",
      "   midi.NoteOnEvent(tick=96, channel=0, data=[70, 0]),\r\n",
      "   midi.NoteOnEvent(tick=0, channel=0, data=[81, 100]),\r\n",
      "   midi.NoteOnEvent(tick=96, channel=0, data=[81, 0]),\r\n",
      "   midi.NoteOnEvent(tick=0, channel=0, data=[79, 100]),\r\n",
      "   midi.NoteOnEvent(tick=96, channel=0, data=[79, 0]),\r\n",
      "   midi.NoteOnEvent(tick=0, channel=0, data=[77, 100]),\r\n",
      "   midi.NoteOnEvent(tick=96, channel=0, data=[77, 0]),\r\n",
      "   midi.NoteOnEvent(tick=0, channel=0, data=[76, 100]),\r\n",
      "   midi.NoteOnEvent(tick=96, channel=0, data=[76, 0]),\r\n",
      "   midi.NoteOnEvent(tick=0, channel=0, data=[74, 100]),\r\n",
      "   midi.NoteOnEvent(tick=96, channel=0, data=[74, 0]),\r\n",
      "   midi.NoteOnEvent(tick=0, channel=0, data=[73, 100]),\r\n",
      "   midi.NoteOnEvent(tick=96, channel=0, data=[73, 0]),\r\n",
      "   midi.NoteOnEvent(tick=0, channel=0, data=[74, 100]),\r\n",
      "   midi.NoteOnEvent(tick=96, channel=0, data=[74, 0]),\r\n",
      "   midi.NoteOnEvent(tick=0, channel=0, data=[73, 100]),\r\n",
      "   midi.NoteOnEvent(tick=96, channel=0, data=[73, 0]),\r\n",
      "   midi.NoteOnEvent(tick=0, channel=0, data=[71, 100]),\r\n",
      "   midi.NoteOnEvent(tick=96, channel=0, data=[71, 0]),\r\n",
      "   midi.NoteOnEvent(tick=0, channel=0, data=[69, 100]),\r\n",
      "   midi.NoteOnEvent(tick=96, channel=0, data=[69, 0]),\r\n",
      "   midi.NoteOnEvent(tick=0, channel=0, data=[67, 100]),\r\n",
      "   midi.NoteOnEvent(tick=96, channel=0, data=[67, 0]),\r\n",
      "   midi.NoteOnEvent(tick=0, channel=0, data=[65, 100]),\r\n",
      "   midi.NoteOnEvent(tick=96, channel=0, data=[65, 0]),\r\n",
      "   midi.NoteOnEvent(tick=0, channel=0, data=[64, 100]),\r\n",
      "   midi.NoteOnEvent(tick=96, channel=0, data=[64, 0]),\r\n",
      "   midi.NoteOnEvent(tick=0, channel=0, data=[65, 100]),\r\n",
      "   midi.NoteOnEvent(tick=96, channel=0, data=[65, 0]),\r\n",
      "   midi.NoteOnEvent(tick=0, channel=0, data=[69, 100]),\r\n",
      "   midi.NoteOnEvent(tick=96, channel=0, data=[69, 0]),\r\n",
      "   midi.NoteOnEvent(tick=0, channel=0, data=[74, 100]),\r\n",
      "   midi.NoteOnEvent(tick=96, channel=0, data=[74, 0]),\r\n",
      "   midi.NoteOnEvent(tick=0, channel=0, data=[77, 100]),\r\n",
      "   midi.NoteOnEvent(tick=96, channel=0, data=[77, 0]),\r\n",
      "   midi.NoteOnEvent(tick=0, channel=0, data=[81, 100]),\r\n",
      "   midi.NoteOnEvent(tick=480, channel=0, data=[81, 0]),\r\n",
      "   midi.NoteOnEvent(tick=0, channel=0, data=[79, 100]),\r\n",
      "   midi.NoteOnEvent(tick=96, channel=0, data=[79, 0]),\r\n",
      "   midi.NoteOnEvent(tick=0, channel=0, data=[77, 100]),\r\n",
      "   midi.NoteOnEvent(tick=96, channel=0, data=[77, 0]),\r\n",
      "   midi.NoteOnEvent(tick=0, channel=0, data=[81, 100]),\r\n",
      "   midi.NoteOnEvent(tick=96, channel=0, data=[81, 0]),\r\n",
      "   midi.NoteOnEvent(tick=0, channel=0, data=[79, 100]),\r\n",
      "   midi.NoteOnEvent(tick=96, channel=0, data=[79, 0]),\r\n",
      "   midi.NoteOnEvent(tick=0, channel=0, data=[77, 100]),\r\n",
      "   midi.NoteOnEvent(tick=96, channel=0, data=[77, 0]),\r\n",
      "   midi.NoteOnEvent(tick=0, channel=0, data=[76, 100]),\r\n",
      "   midi.NoteOnEvent(tick=96, channel=0, data=[76, 0]),\r\n",
      "   midi.NoteOnEvent(tick=0, channel=0, data=[79, 100]),\r\n",
      "   midi.NoteOnEvent(tick=96, channel=0, data=[79, 0]),\r\n",
      "   midi.NoteOnEvent(tick=0, channel=0, data=[77, 100]),\r\n",
      "   midi.NoteOnEvent(tick=96, channel=0, data=[77, 0]),\r\n",
      "   midi.NoteOnEvent(tick=0, channel=0, data=[76, 100]),\r\n",
      "   midi.NoteOnEvent(tick=96, channel=0, data=[76, 0]),\r\n",
      "   midi.NoteOnEvent(tick=0, channel=0, data=[74, 100]),\r\n",
      "   midi.NoteOnEvent(tick=96, channel=0, data=[74, 0]),\r\n",
      "   midi.NoteOnEvent(tick=0, channel=0, data=[77, 100]),\r\n",
      "   midi.NoteOnEvent(tick=96, channel=0, data=[77, 0]),\r\n",
      "   midi.NoteOnEvent(tick=0, channel=0, data=[76, 100]),\r\n",
      "   midi.NoteOnEvent(tick=96, channel=0, data=[76, 0]),\r\n",
      "   midi.NoteOnEvent(tick=0, channel=0, data=[74, 100]),\r\n",
      "   midi.NoteOnEvent(tick=96, channel=0, data=[74, 0]),\r\n",
      "   midi.NoteOnEvent(tick=0, channel=0, data=[73, 100]),\r\n",
      "   midi.NoteOnEvent(tick=96, channel=0, data=[73, 0]),\r\n",
      "   midi.NoteOnEvent(tick=0, channel=0, data=[76, 100]),\r\n",
      "   midi.NoteOnEvent(tick=96, channel=0, data=[76, 0]),\r\n",
      "   midi.NoteOnEvent(tick=0, channel=0, data=[74, 100]),\r\n",
      "   midi.NoteOnEvent(tick=384, channel=0, data=[74, 0]),\r\n",
      "   midi.NoteOnEvent(tick=96, channel=0, data=[74, 100]),\r\n",
      "   midi.NoteOnEvent(tick=96, channel=0, data=[74, 0]),\r\n",
      "   midi.NoteOnEvent(tick=0, channel=0, data=[73, 100]),\r\n",
      "   midi.NoteOnEvent(tick=96, channel=0, data=[73, 0]),\r\n",
      "   midi.NoteOnEvent(tick=0, channel=0, data=[74, 100]),\r\n",
      "   midi.NoteOnEvent(tick=96, channel=0, data=[74, 0]),\r\n",
      "   midi.NoteOnEvent(tick=0, channel=0, data=[76, 100]),\r\n",
      "   midi.NoteOnEvent(tick=96, channel=0, data=[76, 0]),\r\n",
      "   midi.NoteOnEvent(tick=0, channel=0, data=[74, 100]),\r\n",
      "   midi.NoteOnEvent(tick=96, channel=0, data=[74, 0]),\r\n",
      "   midi.NoteOnEvent(tick=0, channel=0, data=[73, 100]),\r\n",
      "   midi.NoteOnEvent(tick=96, channel=0, data=[73, 0]),\r\n",
      "   midi.NoteOnEvent(tick=0, channel=0, data=[74, 100]),\r\n",
      "   midi.NoteOnEvent(tick=96, channel=0, data=[74, 0]),\r\n",
      "   midi.NoteOnEvent(tick=0, channel=0, data=[77, 100]),\r\n",
      "   midi.NoteOnEvent(tick=96, channel=0, data=[77, 0]),\r\n",
      "   midi.NoteOnEvent(tick=0, channel=0, data=[74, 100]),\r\n",
      "   midi.NoteOnEvent(tick=96, channel=0, data=[74, 0]),\r\n",
      "   midi.NoteOnEvent(tick=0, channel=0, data=[73, 100]),\r\n",
      "   midi.NoteOnEvent(tick=96, channel=0, data=[73, 0]),\r\n",
      "   midi.NoteOnEvent(tick=0, channel=0, data=[74, 100]),\r\n",
      "   midi.NoteOnEvent(tick=96, channel=0, data=[74, 0]),\r\n",
      "   midi.NoteOnEvent(tick=0, channel=0, data=[79, 100]),\r\n",
      "   midi.NoteOnEvent(tick=96, channel=0, data=[79, 0]),\r\n",
      "   midi.NoteOnEvent(tick=0, channel=0, data=[74, 100]),\r\n",
      "   midi.NoteOnEvent(tick=96, channel=0, data=[74, 0]),\r\n",
      "   midi.NoteOnEvent(tick=0, channel=0, data=[73, 100]),\r\n",
      "   midi.NoteOnEvent(tick=96, channel=0, data=[73, 0]),\r\n",
      "   midi.NoteOnEvent(tick=0, channel=0, data=[74, 100]),\r\n",
      "   midi.NoteOnEvent(tick=96, channel=0, data=[74, 0]),\r\n",
      "   midi.NoteOnEvent(tick=0, channel=0, data=[81, 100]),\r\n",
      "   midi.NoteOnEvent(tick=96, channel=0, data=[81, 0]),\r\n",
      "   midi.NoteOnEvent(tick=0, channel=0, data=[74, 100]),\r\n",
      "   midi.NoteOnEvent(tick=96, channel=0, data=[74, 0]),\r\n",
      "   midi.NoteOnEvent(tick=0, channel=0, data=[73, 100]),\r\n",
      "   midi.NoteOnEvent(tick=96, channel=0, data=[73, 0]),\r\n",
      "   midi.NoteOnEvent(tick=0, channel=0, data=[74, 100]),\r\n",
      "   midi.NoteOnEvent(tick=96, channel=0, data=[74, 0]),\r\n",
      "   midi.NoteOnEvent(tick=0, channel=0, data=[82, 100]),\r\n",
      "   midi.NoteOnEvent(tick=864, channel=0, data=[82, 0]),\r\n",
      "   midi.NoteOnEvent(tick=0, channel=0, data=[72, 100]),\r\n",
      "   midi.NoteOnEvent(tick=96, channel=0, data=[72, 0]),\r\n",
      "   midi.NoteOnEvent(tick=0, channel=0, data=[71, 100]),\r\n",
      "   midi.NoteOnEvent(tick=96, channel=0, data=[71, 0]),\r\n",
      "   midi.NoteOnEvent(tick=0, channel=0, data=[72, 100]),\r\n",
      "   midi.NoteOnEvent(tick=96, channel=0, data=[72, 0]),\r\n",
      "   midi.NoteOnEvent(tick=0, channel=0, data=[76, 100]),\r\n",
      "   midi.NoteOnEvent(tick=96, channel=0, data=[76, 0]),\r\n",
      "   midi.NoteOnEvent(tick=0, channel=0, data=[72, 100]),\r\n",
      "   midi.NoteOnEvent(tick=96, channel=0, data=[72, 0]),\r\n",
      "   midi.NoteOnEvent(tick=0, channel=0, data=[71, 100]),\r\n",
      "   midi.NoteOnEvent(tick=96, channel=0, data=[71, 0]),\r\n",
      "   midi.NoteOnEvent(tick=0, channel=0, data=[72, 100]),\r\n",
      "   midi.NoteOnEvent(tick=96, channel=0, data=[72, 0]),\r\n",
      "   midi.NoteOnEvent(tick=0, channel=0, data=[77, 100]),\r\n",
      "   midi.NoteOnEvent(tick=96, channel=0, data=[77, 0]),\r\n",
      "   midi.NoteOnEvent(tick=0, channel=0, data=[72, 100]),\r\n",
      "   midi.NoteOnEvent(tick=96, channel=0, data=[72, 0]),\r\n",
      "   midi.NoteOnEvent(tick=0, channel=0, data=[71, 100]),\r\n",
      "   midi.NoteOnEvent(tick=96, channel=0, data=[71, 0]),\r\n",
      "   midi.NoteOnEvent(tick=0, channel=0, data=[72, 100]),\r\n",
      "   midi.NoteOnEvent(tick=96, channel=0, data=[72, 0]),\r\n",
      "   midi.NoteOnEvent(tick=0, channel=0, data=[79, 100]),\r\n",
      "   midi.NoteOnEvent(tick=96, channel=0, data=[79, 0]),\r\n",
      "   midi.NoteOnEvent(tick=0, channel=0, data=[72, 100]),\r\n",
      "   midi.NoteOnEvent(tick=96, channel=0, data=[72, 0]),\r\n",
      "   midi.NoteOnEvent(tick=0, channel=0, data=[71, 100]),\r\n",
      "   midi.NoteOnEvent(tick=96, channel=0, data=[71, 0]),\r\n",
      "   midi.NoteOnEvent(tick=0, channel=0, data=[72, 100]),\r\n",
      "   midi.NoteOnEvent(tick=96, channel=0, data=[72, 0]),\r\n",
      "   midi.NoteOnEvent(tick=0, channel=0, data=[81, 100]),\r\n",
      "   midi.NoteOnEvent(tick=864, channel=0, data=[81, 0]),\r\n",
      "   midi.NoteOnEvent(tick=0, channel=0, data=[74, 100]),\r\n",
      "   midi.NoteOnEvent(tick=96, channel=0, data=[74, 0]),\r\n",
      "   midi.NoteOnEvent(tick=0, channel=0, data=[76, 100]),\r\n",
      "   midi.NoteOnEvent(tick=96, channel=0, data=[76, 0]),\r\n",
      "   midi.NoteOnEvent(tick=0, channel=0, data=[78, 100]),\r\n",
      "   midi.NoteOnEvent(tick=96, channel=0, data=[78, 0]),\r\n",
      "   midi.NoteOnEvent(tick=0, channel=0, data=[79, 100]),\r\n",
      "   midi.NoteOnEvent(tick=96, channel=0, data=[79, 0]),\r\n",
      "   midi.NoteOnEvent(tick=0, channel=0, data=[81, 100]),\r\n",
      "   midi.NoteOnEvent(tick=96, channel=0, data=[81, 0]),\r\n",
      "   midi.NoteOnEvent(tick=0, channel=0, data=[82, 100]),\r\n",
      "   midi.NoteOnEvent(tick=96, channel=0, data=[82, 0]),\r\n",
      "   midi.NoteOnEvent(tick=0, channel=0, data=[84, 100]),\r\n",
      "   midi.NoteOnEvent(tick=96, channel=0, data=[84, 0]),\r\n",
      "   midi.NoteOnEvent(tick=0, channel=0, data=[86, 100]),\r\n",
      "   midi.NoteOnEvent(tick=96, channel=0, data=[86, 0]),\r\n",
      "   midi.NoteOnEvent(tick=0, channel=0, data=[84, 100]),\r\n",
      "   midi.NoteOnEvent(tick=96, channel=0, data=[84, 0]),\r\n",
      "   midi.NoteOnEvent(tick=0, channel=0, data=[82, 100]),\r\n",
      "   midi.NoteOnEvent(tick=96, channel=0, data=[82, 0]),\r\n",
      "   midi.NoteOnEvent(tick=0, channel=0, data=[81, 100]),\r\n",
      "   midi.NoteOnEvent(tick=96, channel=0, data=[81, 0]),\r\n",
      "   midi.NoteOnEvent(tick=0, channel=0, data=[79, 100]),\r\n",
      "   midi.NoteOnEvent(tick=96, channel=0, data=[79, 0]),\r\n",
      "   midi.NoteOnEvent(tick=0, channel=0, data=[78, 100]),\r\n",
      "   midi.NoteOnEvent(tick=96, channel=0, data=[78, 0]),\r\n",
      "   midi.NoteOnEvent(tick=0, channel=0, data=[76, 100]),\r\n",
      "   midi.NoteOnEvent(tick=96, channel=0, data=[76, 0]),\r\n",
      "   midi.NoteOnEvent(tick=0, channel=0, data=[74, 100]),\r\n",
      "   midi.NoteOnEvent(tick=96, channel=0, data=[74, 0]),\r\n",
      "   midi.NoteOnEvent(tick=0, channel=0, data=[79, 100]),\r\n",
      "   midi.NoteOnEvent(tick=864, channel=0, data=[79, 0]),\r\n",
      "   midi.NoteOnEvent(tick=0, channel=0, data=[76, 100]),\r\n",
      "   midi.NoteOnEvent(tick=96, channel=0, data=[76, 0]),\r\n",
      "   midi.NoteOnEvent(tick=0, channel=0, data=[77, 100]),\r\n",
      "   midi.NoteOnEvent(tick=96, channel=0, data=[77, 0]),\r\n",
      "   midi.NoteOnEvent(tick=0, channel=0, data=[79, 100]),\r\n",
      "   midi.NoteOnEvent(tick=96, channel=0, data=[79, 0]),\r\n",
      "   midi.NoteOnEvent(tick=0, channel=0, data=[81, 100]),\r\n",
      "   midi.NoteOnEvent(tick=96, channel=0, data=[81, 0]),\r\n",
      "   midi.NoteOnEvent(tick=0, channel=0, data=[83, 100]),\r\n",
      "   midi.NoteOnEvent(tick=96, channel=0, data=[83, 0]),\r\n",
      "   midi.NoteOnEvent(tick=0, channel=0, data=[85, 100]),\r\n",
      "   midi.NoteOnEvent(tick=96, channel=0, data=[85, 0]),\r\n",
      "   midi.NoteOnEvent(tick=0, channel=0, data=[86, 100]),\r\n",
      "   midi.NoteOnEvent(tick=96, channel=0, data=[86, 0]),\r\n",
      "   midi.NoteOnEvent(tick=0, channel=0, data=[88, 100]),\r\n",
      "   midi.NoteOnEvent(tick=96, channel=0, data=[88, 0]),\r\n",
      "   midi.NoteOnEvent(tick=0, channel=0, data=[86, 100]),\r\n",
      "   midi.NoteOnEvent(tick=96, channel=0, data=[86, 0]),\r\n",
      "   midi.NoteOnEvent(tick=0, channel=0, data=[85, 100]),\r\n",
      "   midi.NoteOnEvent(tick=96, channel=0, data=[85, 0]),\r\n",
      "   midi.NoteOnEvent(tick=0, channel=0, data=[83, 100]),\r\n",
      "   midi.NoteOnEvent(tick=96, channel=0, data=[83, 0]),\r\n",
      "   midi.NoteOnEvent(tick=0, channel=0, data=[81, 100]),\r\n",
      "   midi.NoteOnEvent(tick=96, channel=0, data=[81, 0]),\r\n",
      "   midi.NoteOnEvent(tick=0, channel=0, data=[79, 100]),\r\n",
      "   midi.NoteOnEvent(tick=96, channel=0, data=[79, 0]),\r\n",
      "   midi.NoteOnEvent(tick=0, channel=0, data=[77, 100]),\r\n",
      "   midi.NoteOnEvent(tick=96, channel=0, data=[77, 0]),\r\n",
      "   midi.NoteOnEvent(tick=0, channel=0, data=[76, 100]),\r\n",
      "   midi.NoteOnEvent(tick=96, channel=0, data=[76, 0]),\r\n",
      "   midi.NoteOnEvent(tick=0, channel=0, data=[77, 100]),\r\n",
      "   midi.NoteOnEvent(tick=96, channel=0, data=[77, 0]),\r\n",
      "   midi.NoteOnEvent(tick=0, channel=0, data=[86, 100]),\r\n",
      "   midi.NoteOnEvent(tick=96, channel=0, data=[86, 0]),\r\n",
      "   midi.NoteOnEvent(tick=0, channel=0, data=[77, 100]),\r\n",
      "   midi.NoteOnEvent(tick=96, channel=0, data=[77, 0]),\r\n",
      "   midi.NoteOnEvent(tick=0, channel=0, data=[76, 100]),\r\n",
      "   midi.NoteOnEvent(tick=96, channel=0, data=[76, 0]),\r\n",
      "   midi.NoteOnEvent(tick=0, channel=0, data=[77, 100]),\r\n",
      "   midi.NoteOnEvent(tick=96, channel=0, data=[77, 0]),\r\n",
      "   midi.NoteOnEvent(tick=0, channel=0, data=[81, 100]),\r\n",
      "   midi.NoteOnEvent(tick=96, channel=0, data=[81, 0]),\r\n",
      "   midi.NoteOnEvent(tick=0, channel=0, data=[86, 100]),\r\n",
      "   midi.NoteOnEvent(tick=96, channel=0, data=[86, 0]),\r\n",
      "   midi.NoteOnEvent(tick=0, channel=0, data=[84, 100]),\r\n",
      "   midi.NoteOnEvent(tick=96, channel=0, data=[84, 0]),\r\n",
      "   midi.NoteOnEvent(tick=0, channel=0, data=[83, 100]),\r\n",
      "   midi.NoteOnEvent(tick=96, channel=0, data=[83, 0]),\r\n",
      "   midi.NoteOnEvent(tick=0, channel=0, data=[77, 100]),\r\n",
      "   midi.NoteOnEvent(tick=96, channel=0, data=[77, 0]),\r\n",
      "   midi.NoteOnEvent(tick=0, channel=0, data=[84, 100]),\r\n",
      "   midi.NoteOnEvent(tick=96, channel=0, data=[84, 0]),\r\n",
      "   midi.NoteOnEvent(tick=0, channel=0, data=[77, 100]),\r\n",
      "   midi.NoteOnEvent(tick=96, channel=0, data=[77, 0]),\r\n",
      "   midi.NoteOnEvent(tick=0, channel=0, data=[86, 100]),\r\n",
      "   midi.NoteOnEvent(tick=96, channel=0, data=[86, 0]),\r\n",
      "   midi.NoteOnEvent(tick=0, channel=0, data=[77, 100]),\r\n",
      "   midi.NoteOnEvent(tick=96, channel=0, data=[77, 0]),\r\n",
      "   midi.NoteOnEvent(tick=0, channel=0, data=[83, 100]),\r\n",
      "   midi.NoteOnEvent(tick=96, channel=0, data=[83, 0]),\r\n",
      "   midi.NoteOnEvent(tick=0, channel=0, data=[77, 100]),\r\n",
      "   midi.NoteOnEvent(tick=96, channel=0, data=[77, 0]),\r\n",
      "   midi.NoteOnEvent(tick=0, channel=0, data=[76, 100]),\r\n",
      "   midi.NoteOnEvent(tick=96, channel=0, data=[76, 0]),\r\n",
      "   midi.NoteOnEvent(tick=0, channel=0, data=[84, 100]),\r\n",
      "   midi.NoteOnEvent(tick=96, channel=0, data=[84, 0]),\r\n",
      "   midi.NoteOnEvent(tick=0, channel=0, data=[76, 100]),\r\n",
      "   midi.NoteOnEvent(tick=96, channel=0, data=[76, 0]),\r\n",
      "   midi.NoteOnEvent(tick=0, channel=0, data=[74, 100]),\r\n",
      "   midi.NoteOnEvent(tick=96, channel=0, data=[74, 0]),\r\n",
      "   midi.NoteOnEvent(tick=0, channel=0, data=[76, 100]),\r\n",
      "   midi.NoteOnEvent(tick=96, channel=0, data=[76, 0]),\r\n",
      "   midi.NoteOnEvent(tick=0, channel=0, data=[79, 100]),\r\n",
      "   midi.NoteOnEvent(tick=96, channel=0, data=[79, 0]),\r\n",
      "   midi.NoteOnEvent(tick=0, channel=0, data=[84, 100]),\r\n",
      "   midi.NoteOnEvent(tick=96, channel=0, data=[84, 0]),\r\n",
      "   midi.NoteOnEvent(tick=0, channel=0, data=[83, 100]),\r\n",
      "   midi.NoteOnEvent(tick=96, channel=0, data=[83, 0]),\r\n",
      "   midi.NoteOnEvent(tick=0, channel=0, data=[81, 100]),\r\n",
      "   midi.NoteOnEvent(tick=96, channel=0, data=[81, 0]),\r\n",
      "   midi.NoteOnEvent(tick=0, channel=0, data=[76, 100]),\r\n",
      "   midi.NoteOnEvent(tick=96, channel=0, data=[76, 0]),\r\n",
      "   midi.NoteOnEvent(tick=0, channel=0, data=[83, 100]),\r\n",
      "   midi.NoteOnEvent(tick=96, channel=0, data=[83, 0]),\r\n",
      "   midi.NoteOnEvent(tick=0, channel=0, data=[76, 100]),\r\n",
      "   midi.NoteOnEvent(tick=96, channel=0, data=[76, 0]),\r\n",
      "   midi.NoteOnEvent(tick=0, channel=0, data=[84, 100]),\r\n",
      "   midi.NoteOnEvent(tick=96, channel=0, data=[84, 0]),\r\n",
      "   midi.NoteOnEvent(tick=0, channel=0, data=[76, 100]),\r\n",
      "   midi.NoteOnEvent(tick=96, channel=0, data=[76, 0]),\r\n",
      "   midi.NoteOnEvent(tick=0, channel=0, data=[81, 100]),\r\n",
      "   midi.NoteOnEvent(tick=96, channel=0, data=[81, 0]),\r\n",
      "   midi.NoteOnEvent(tick=0, channel=0, data=[76, 100]),\r\n",
      "   midi.NoteOnEvent(tick=96, channel=0, data=[76, 0]),\r\n",
      "   midi.NoteOnEvent(tick=0, channel=0, data=[74, 100]),\r\n",
      "   midi.NoteOnEvent(tick=96, channel=0, data=[74, 0]),\r\n",
      "   midi.NoteOnEvent(tick=0, channel=0, data=[83, 100]),\r\n",
      "   midi.NoteOnEvent(tick=96, channel=0, data=[83, 0]),\r\n",
      "   midi.NoteOnEvent(tick=0, channel=0, data=[74, 100]),\r\n",
      "   midi.NoteOnEvent(tick=96, channel=0, data=[74, 0]),\r\n",
      "   midi.NoteOnEvent(tick=0, channel=0, data=[72, 100]),\r\n",
      "   midi.NoteOnEvent(tick=96, channel=0, data=[72, 0]),\r\n",
      "   midi.NoteOnEvent(tick=0, channel=0, data=[74, 100]),\r\n",
      "   midi.NoteOnEvent(tick=96, channel=0, data=[74, 0]),\r\n",
      "   midi.NoteOnEvent(tick=0, channel=0, data=[77, 100]),\r\n",
      "   midi.NoteOnEvent(tick=96, channel=0, data=[77, 0]),\r\n",
      "   midi.NoteOnEvent(tick=0, channel=0, data=[83, 100]),\r\n",
      "   midi.NoteOnEvent(tick=96, channel=0, data=[83, 0]),\r\n",
      "   midi.NoteOnEvent(tick=0, channel=0, data=[81, 100]),\r\n",
      "   midi.NoteOnEvent(tick=96, channel=0, data=[81, 0]),\r\n",
      "   midi.NoteOnEvent(tick=0, channel=0, data=[80, 100]),\r\n",
      "   midi.NoteOnEvent(tick=96, channel=0, data=[80, 0]),\r\n",
      "   midi.NoteOnEvent(tick=0, channel=0, data=[74, 100]),\r\n",
      "   midi.NoteOnEvent(tick=96, channel=0, data=[74, 0]),\r\n",
      "   midi.NoteOnEvent(tick=0, channel=0, data=[81, 100]),\r\n",
      "   midi.NoteOnEvent(tick=96, channel=0, data=[81, 0]),\r\n",
      "   midi.NoteOnEvent(tick=0, channel=0, data=[74, 100]),\r\n",
      "   midi.NoteOnEvent(tick=96, channel=0, data=[74, 0]),\r\n",
      "   midi.NoteOnEvent(tick=0, channel=0, data=[83, 100]),\r\n",
      "   midi.NoteOnEvent(tick=96, channel=0, data=[83, 0]),\r\n",
      "   midi.NoteOnEvent(tick=0, channel=0, data=[74, 100]),\r\n",
      "   midi.NoteOnEvent(tick=96, channel=0, data=[74, 0]),\r\n",
      "   midi.NoteOnEvent(tick=0, channel=0, data=[80, 100]),\r\n",
      "   midi.NoteOnEvent(tick=96, channel=0, data=[80, 0]),\r\n",
      "   midi.NoteOnEvent(tick=0, channel=0, data=[74, 100]),\r\n",
      "   midi.NoteOnEvent(tick=96, channel=0, data=[74, 0]),\r\n",
      "   midi.NoteOnEvent(tick=0, channel=0, data=[72, 100]),\r\n",
      "   midi.NoteOnEvent(tick=96, channel=0, data=[72, 0]),\r\n",
      "   midi.NoteOnEvent(tick=0, channel=0, data=[81, 100]),\r\n",
      "   midi.NoteOnEvent(tick=96, channel=0, data=[81, 0]),\r\n",
      "   midi.NoteOnEvent(tick=0, channel=0, data=[72, 100]),\r\n",
      "   midi.NoteOnEvent(tick=96, channel=0, data=[72, 0]),\r\n",
      "   midi.NoteOnEvent(tick=0, channel=0, data=[71, 100]),\r\n",
      "   midi.NoteOnEvent(tick=96, channel=0, data=[71, 0]),\r\n",
      "   midi.NoteOnEvent(tick=0, channel=0, data=[72, 100]),\r\n",
      "   midi.NoteOnEvent(tick=96, channel=0, data=[72, 0]),\r\n",
      "   midi.NoteOnEvent(tick=0, channel=0, data=[76, 100]),\r\n",
      "   midi.NoteOnEvent(tick=96, channel=0, data=[76, 0]),\r\n",
      "   midi.NoteOnEvent(tick=0, channel=0, data=[81, 100]),\r\n",
      "   midi.NoteOnEvent(tick=96, channel=0, data=[81, 0]),\r\n",
      "   midi.NoteOnEvent(tick=0, channel=0, data=[76, 100]),\r\n",
      "   midi.NoteOnEvent(tick=96, channel=0, data=[76, 0]),\r\n",
      "   midi.NoteOnEvent(tick=0, channel=0, data=[77, 100]),\r\n",
      "   midi.NoteOnEvent(tick=96, channel=0, data=[77, 0]),\r\n",
      "   midi.NoteOnEvent(tick=0, channel=0, data=[81, 100]),\r\n",
      "   midi.NoteOnEvent(tick=96, channel=0, data=[81, 0]),\r\n",
      "   midi.NoteOnEvent(tick=0, channel=0, data=[74, 100]),\r\n",
      "   midi.NoteOnEvent(tick=96, channel=0, data=[74, 0]),\r\n",
      "   midi.NoteOnEvent(tick=0, channel=0, data=[72, 100]),\r\n",
      "   midi.NoteOnEvent(tick=96, channel=0, data=[72, 0]),\r\n",
      "   midi.NoteOnEvent(tick=0, channel=0, data=[74, 100]),\r\n",
      "   midi.NoteOnEvent(tick=96, channel=0, data=[74, 0]),\r\n",
      "   midi.NoteOnEvent(tick=0, channel=0, data=[77, 100]),\r\n",
      "   midi.NoteOnEvent(tick=96, channel=0, data=[77, 0]),\r\n",
      "   midi.NoteOnEvent(tick=0, channel=0, data=[81, 100]),\r\n",
      "   midi.NoteOnEvent(tick=96, channel=0, data=[81, 0]),\r\n",
      "   midi.NoteOnEvent(tick=0, channel=0, data=[71, 100]),\r\n",
      "   midi.NoteOnEvent(tick=96, channel=0, data=[71, 0]),\r\n",
      "   midi.NoteOnEvent(tick=0, channel=0, data=[72, 100]),\r\n",
      "   midi.NoteOnEvent(tick=192, channel=0, data=[72, 0]),\r\n",
      "   midi.NoteOnEvent(tick=0, channel=0, data=[81, 100]),\r\n",
      "   midi.NoteOnEvent(tick=192, channel=0, data=[81, 0]),\r\n",
      "   midi.NoteOnEvent(tick=0, channel=0, data=[71, 100]),\r\n",
      "   midi.NoteOnEvent(tick=192, channel=0, data=[71, 0]),\r\n",
      "   midi.NoteOnEvent(tick=0, channel=0, data=[80, 100]),\r\n",
      "   midi.NoteOnEvent(tick=192, channel=0, data=[80, 0]),\r\n",
      "   midi.NoteOnEvent(tick=0, channel=0, data=[81, 100]),\r\n",
      "   midi.NoteOnEvent(tick=384, channel=0, data=[81, 0]),\r\n",
      "   midi.NoteOnEvent(tick=96, channel=0, data=[57, 100]),\r\n",
      "   midi.NoteOnEvent(tick=96, channel=0, data=[57, 0]),\r\n",
      "   midi.NoteOnEvent(tick=0, channel=0, data=[56, 100]),\r\n",
      "   midi.NoteOnEvent(tick=96, channel=0, data=[56, 0]),\r\n",
      "   midi.NoteOnEvent(tick=0, channel=0, data=[57, 100]),\r\n",
      "   midi.NoteOnEvent(tick=96, channel=0, data=[57, 0]),\r\n",
      "   midi.NoteOnEvent(tick=0, channel=0, data=[60, 100]),\r\n",
      "   midi.NoteOnEvent(tick=96, channel=0, data=[60, 0]),\r\n",
      "   midi.NoteOnEvent(tick=0, channel=0, data=[57, 100]),\r\n",
      "   midi.NoteOnEvent(tick=96, channel=0, data=[57, 0]),\r\n",
      "   midi.NoteOnEvent(tick=0, channel=0, data=[56, 100]),\r\n",
      "   midi.NoteOnEvent(tick=96, channel=0, data=[56, 0]),\r\n",
      "   midi.NoteOnEvent(tick=0, channel=0, data=[57, 100]),\r\n",
      "   midi.NoteOnEvent(tick=96, channel=0, data=[57, 0]),\r\n",
      "   midi.NoteOnEvent(tick=0, channel=0, data=[61, 100]),\r\n",
      "   midi.NoteOnEvent(tick=96, channel=0, data=[61, 0]),\r\n",
      "   midi.NoteOnEvent(tick=0, channel=0, data=[57, 100]),\r\n",
      "   midi.NoteOnEvent(tick=96, channel=0, data=[57, 0]),\r\n",
      "   midi.NoteOnEvent(tick=0, channel=0, data=[56, 100]),\r\n",
      "   midi.NoteOnEvent(tick=96, channel=0, data=[56, 0]),\r\n",
      "   midi.NoteOnEvent(tick=0, channel=0, data=[57, 100]),\r\n",
      "   midi.NoteOnEvent(tick=96, channel=0, data=[57, 0]),\r\n",
      "   midi.NoteOnEvent(tick=0, channel=0, data=[62, 100]),\r\n",
      "   midi.NoteOnEvent(tick=96, channel=0, data=[62, 0]),\r\n",
      "   midi.NoteOnEvent(tick=0, channel=0, data=[57, 100]),\r\n",
      "   midi.NoteOnEvent(tick=96, channel=0, data=[57, 0]),\r\n",
      "   midi.NoteOnEvent(tick=0, channel=0, data=[56, 100]),\r\n",
      "   midi.NoteOnEvent(tick=96, channel=0, data=[56, 0]),\r\n",
      "   midi.NoteOnEvent(tick=0, channel=0, data=[57, 100]),\r\n",
      "   midi.NoteOnEvent(tick=96, channel=0, data=[57, 0]),\r\n",
      "   midi.NoteOnEvent(tick=0, channel=0, data=[64, 100]),\r\n",
      "   midi.NoteOnEvent(tick=96, channel=0, data=[64, 0]),\r\n",
      "   midi.NoteOnEvent(tick=0, channel=0, data=[57, 100]),\r\n",
      "   midi.NoteOnEvent(tick=96, channel=0, data=[57, 0]),\r\n",
      "   midi.NoteOnEvent(tick=0, channel=0, data=[56, 100]),\r\n",
      "   midi.NoteOnEvent(tick=96, channel=0, data=[56, 0]),\r\n",
      "   midi.NoteOnEvent(tick=0, channel=0, data=[57, 100]),\r\n",
      "   midi.NoteOnEvent(tick=96, channel=0, data=[57, 0]),\r\n",
      "   midi.NoteOnEvent(tick=0, channel=0, data=[65, 100]),\r\n",
      "   midi.NoteOnEvent(tick=96, channel=0, data=[65, 0]),\r\n",
      "   midi.NoteOnEvent(tick=0, channel=0, data=[62, 100]),\r\n",
      "   midi.NoteOnEvent(tick=96, channel=0, data=[62, 0]),\r\n",
      "   midi.NoteOnEvent(tick=0, channel=0, data=[61, 100]),\r\n",
      "   midi.NoteOnEvent(tick=96, channel=0, data=[61, 0]),\r\n",
      "   midi.NoteOnEvent(tick=0, channel=0, data=[62, 100]),\r\n",
      "   midi.NoteOnEvent(tick=96, channel=0, data=[62, 0]),\r\n",
      "   midi.NoteOnEvent(tick=0, channel=0, data=[66, 100]),\r\n",
      "   midi.NoteOnEvent(tick=96, channel=0, data=[66, 0]),\r\n",
      "   midi.NoteOnEvent(tick=0, channel=0, data=[62, 100]),\r\n",
      "   midi.NoteOnEvent(tick=96, channel=0, data=[62, 0]),\r\n",
      "   midi.NoteOnEvent(tick=0, channel=0, data=[61, 100]),\r\n",
      "   midi.NoteOnEvent(tick=96, channel=0, data=[61, 0]),\r\n",
      "   midi.NoteOnEvent(tick=0, channel=0, data=[62, 100]),\r\n",
      "   midi.NoteOnEvent(tick=96, channel=0, data=[62, 0]),\r\n",
      "   midi.NoteOnEvent(tick=0, channel=0, data=[67, 100]),\r\n",
      "   midi.NoteOnEvent(tick=96, channel=0, data=[67, 0]),\r\n",
      "   midi.NoteOnEvent(tick=0, channel=0, data=[62, 100]),\r\n",
      "   midi.NoteOnEvent(tick=96, channel=0, data=[62, 0]),\r\n",
      "   midi.NoteOnEvent(tick=0, channel=0, data=[61, 100]),\r\n",
      "   midi.NoteOnEvent(tick=96, channel=0, data=[61, 0]),\r\n",
      "   midi.NoteOnEvent(tick=0, channel=0, data=[62, 100]),\r\n",
      "   midi.NoteOnEvent(tick=96, channel=0, data=[62, 0]),\r\n",
      "   midi.NoteOnEvent(tick=0, channel=0, data=[69, 100]),\r\n",
      "   midi.NoteOnEvent(tick=96, channel=0, data=[69, 0]),\r\n",
      "   midi.NoteOnEvent(tick=0, channel=0, data=[62, 100]),\r\n",
      "   midi.NoteOnEvent(tick=96, channel=0, data=[62, 0]),\r\n",
      "   midi.NoteOnEvent(tick=0, channel=0, data=[61, 100]),\r\n",
      "   midi.NoteOnEvent(tick=96, channel=0, data=[61, 0]),\r\n",
      "   midi.NoteOnEvent(tick=0, channel=0, data=[62, 100]),\r\n",
      "   midi.NoteOnEvent(tick=96, channel=0, data=[62, 0]),\r\n",
      "   midi.NoteOnEvent(tick=0, channel=0, data=[70, 100]),\r\n",
      "   midi.NoteOnEvent(tick=96, channel=0, data=[70, 0]),\r\n",
      "   midi.NoteOnEvent(tick=0, channel=0, data=[67, 100]),\r\n",
      "   midi.NoteOnEvent(tick=96, channel=0, data=[67, 0]),\r\n",
      "   midi.NoteOnEvent(tick=0, channel=0, data=[66, 100]),\r\n",
      "   midi.NoteOnEvent(tick=96, channel=0, data=[66, 0]),\r\n",
      "   midi.NoteOnEvent(tick=0, channel=0, data=[67, 100]),\r\n",
      "   midi.NoteOnEvent(tick=96, channel=0, data=[67, 0]),\r\n",
      "   midi.NoteOnEvent(tick=0, channel=0, data=[71, 100]),\r\n",
      "   midi.NoteOnEvent(tick=96, channel=0, data=[71, 0]),\r\n",
      "   midi.NoteOnEvent(tick=0, channel=0, data=[67, 100]),\r\n",
      "   midi.NoteOnEvent(tick=96, channel=0, data=[67, 0]),\r\n",
      "   midi.NoteOnEvent(tick=0, channel=0, data=[66, 100]),\r\n",
      "   midi.NoteOnEvent(tick=96, channel=0, data=[66, 0]),\r\n",
      "   midi.NoteOnEvent(tick=0, channel=0, data=[67, 100]),\r\n",
      "   midi.NoteOnEvent(tick=96, channel=0, data=[67, 0]),\r\n",
      "   midi.NoteOnEvent(tick=0, channel=0, data=[72, 100]),\r\n",
      "   midi.NoteOnEvent(tick=96, channel=0, data=[72, 0]),\r\n",
      "   midi.NoteOnEvent(tick=0, channel=0, data=[67, 100]),\r\n",
      "   midi.NoteOnEvent(tick=96, channel=0, data=[67, 0]),\r\n",
      "   midi.NoteOnEvent(tick=0, channel=0, data=[66, 100]),\r\n",
      "   midi.NoteOnEvent(tick=96, channel=0, data=[66, 0]),\r\n",
      "   midi.NoteOnEvent(tick=0, channel=0, data=[67, 100]),\r\n",
      "   midi.NoteOnEvent(tick=96, channel=0, data=[67, 0]),\r\n",
      "   midi.NoteOnEvent(tick=0, channel=0, data=[74, 100]),\r\n",
      "   midi.NoteOnEvent(tick=96, channel=0, data=[74, 0]),\r\n",
      "   midi.NoteOnEvent(tick=0, channel=0, data=[67, 100]),\r\n",
      "   midi.NoteOnEvent(tick=96, channel=0, data=[67, 0]),\r\n",
      "   midi.NoteOnEvent(tick=0, channel=0, data=[66, 100]),\r\n",
      "   midi.NoteOnEvent(tick=96, channel=0, data=[66, 0]),\r\n",
      "   midi.NoteOnEvent(tick=0, channel=0, data=[67, 100]),\r\n",
      "   midi.NoteOnEvent(tick=96, channel=0, data=[67, 0]),\r\n",
      "   midi.NoteOnEvent(tick=0, channel=0, data=[75, 100]),\r\n"
     ]
    },
    {
     "name": "stdout",
     "output_type": "stream",
     "text": [
      "   midi.NoteOnEvent(tick=96, channel=0, data=[75, 0]),\r\n",
      "   midi.NoteOnEvent(tick=0, channel=0, data=[72, 100]),\r\n",
      "   midi.NoteOnEvent(tick=96, channel=0, data=[72, 0]),\r\n",
      "   midi.NoteOnEvent(tick=0, channel=0, data=[71, 100]),\r\n",
      "   midi.NoteOnEvent(tick=96, channel=0, data=[71, 0]),\r\n",
      "   midi.NoteOnEvent(tick=0, channel=0, data=[72, 100]),\r\n",
      "   midi.NoteOnEvent(tick=96, channel=0, data=[72, 0]),\r\n",
      "   midi.NoteOnEvent(tick=0, channel=0, data=[76, 100]),\r\n",
      "   midi.NoteOnEvent(tick=96, channel=0, data=[76, 0]),\r\n",
      "   midi.NoteOnEvent(tick=0, channel=0, data=[72, 100]),\r\n",
      "   midi.NoteOnEvent(tick=96, channel=0, data=[72, 0]),\r\n",
      "   midi.NoteOnEvent(tick=0, channel=0, data=[71, 100]),\r\n",
      "   midi.NoteOnEvent(tick=96, channel=0, data=[71, 0]),\r\n",
      "   midi.NoteOnEvent(tick=0, channel=0, data=[72, 100]),\r\n",
      "   midi.NoteOnEvent(tick=96, channel=0, data=[72, 0]),\r\n",
      "   midi.NoteOnEvent(tick=0, channel=0, data=[77, 100]),\r\n",
      "   midi.NoteOnEvent(tick=96, channel=0, data=[77, 0]),\r\n",
      "   midi.NoteOnEvent(tick=0, channel=0, data=[72, 100]),\r\n",
      "   midi.NoteOnEvent(tick=96, channel=0, data=[72, 0]),\r\n",
      "   midi.NoteOnEvent(tick=0, channel=0, data=[71, 100]),\r\n",
      "   midi.NoteOnEvent(tick=96, channel=0, data=[71, 0]),\r\n",
      "   midi.NoteOnEvent(tick=0, channel=0, data=[72, 100]),\r\n",
      "   midi.NoteOnEvent(tick=96, channel=0, data=[72, 0]),\r\n",
      "   midi.NoteOnEvent(tick=0, channel=0, data=[79, 100]),\r\n",
      "   midi.NoteOnEvent(tick=96, channel=0, data=[79, 0]),\r\n",
      "   midi.NoteOnEvent(tick=0, channel=0, data=[72, 100]),\r\n",
      "   midi.NoteOnEvent(tick=96, channel=0, data=[72, 0]),\r\n",
      "   midi.NoteOnEvent(tick=0, channel=0, data=[71, 100]),\r\n",
      "   midi.NoteOnEvent(tick=96, channel=0, data=[71, 0]),\r\n",
      "   midi.NoteOnEvent(tick=0, channel=0, data=[72, 100]),\r\n",
      "   midi.NoteOnEvent(tick=96, channel=0, data=[72, 0]),\r\n",
      "   midi.NoteOnEvent(tick=0, channel=0, data=[80, 100]),\r\n",
      "   midi.NoteOnEvent(tick=48, channel=0, data=[80, 0]),\r\n",
      "   midi.NoteOnEvent(tick=0, channel=0, data=[82, 100]),\r\n",
      "   midi.NoteOnEvent(tick=48, channel=0, data=[82, 0]),\r\n",
      "   midi.NoteOnEvent(tick=0, channel=0, data=[84, 100]),\r\n",
      "   midi.NoteOnEvent(tick=192, channel=0, data=[84, 0]),\r\n",
      "   midi.NoteOnEvent(tick=0, channel=0, data=[80, 100]),\r\n",
      "   midi.NoteOnEvent(tick=96, channel=0, data=[80, 0]),\r\n",
      "   midi.NoteOnEvent(tick=0, channel=0, data=[78, 100]),\r\n",
      "   midi.NoteOnEvent(tick=48, channel=0, data=[78, 0]),\r\n",
      "   midi.NoteOnEvent(tick=0, channel=0, data=[79, 100]),\r\n",
      "   midi.NoteOnEvent(tick=48, channel=0, data=[79, 0]),\r\n",
      "   midi.NoteOnEvent(tick=0, channel=0, data=[81, 100]),\r\n",
      "   midi.NoteOnEvent(tick=192, channel=0, data=[81, 0]),\r\n",
      "   midi.NoteOnEvent(tick=0, channel=0, data=[78, 100]),\r\n",
      "   midi.NoteOnEvent(tick=96, channel=0, data=[78, 0]),\r\n",
      "   midi.NoteOnEvent(tick=0, channel=0, data=[79, 100]),\r\n",
      "   midi.NoteOnEvent(tick=96, channel=0, data=[79, 0]),\r\n",
      "   midi.NoteOnEvent(tick=0, channel=0, data=[74, 100]),\r\n",
      "   midi.NoteOnEvent(tick=96, channel=0, data=[74, 0]),\r\n",
      "   midi.NoteOnEvent(tick=0, channel=0, data=[70, 100]),\r\n",
      "   midi.NoteOnEvent(tick=96, channel=0, data=[70, 0]),\r\n",
      "   midi.NoteOnEvent(tick=0, channel=0, data=[67, 100]),\r\n",
      "   midi.NoteOnEvent(tick=96, channel=0, data=[67, 0]),\r\n",
      "   midi.NoteOnEvent(tick=0, channel=0, data=[66, 100]),\r\n",
      "   midi.NoteOnEvent(tick=96, channel=0, data=[66, 0]),\r\n",
      "   midi.NoteOnEvent(tick=0, channel=0, data=[67, 100]),\r\n",
      "   midi.NoteOnEvent(tick=96, channel=0, data=[67, 0]),\r\n",
      "   midi.NoteOnEvent(tick=0, channel=0, data=[70, 100]),\r\n",
      "   midi.NoteOnEvent(tick=96, channel=0, data=[70, 0]),\r\n",
      "   midi.NoteOnEvent(tick=0, channel=0, data=[74, 100]),\r\n",
      "   midi.NoteOnEvent(tick=96, channel=0, data=[74, 0]),\r\n",
      "   midi.NoteOnEvent(tick=0, channel=0, data=[75, 100]),\r\n",
      "   midi.NoteOnEvent(tick=48, channel=0, data=[75, 0]),\r\n",
      "   midi.NoteOnEvent(tick=0, channel=0, data=[77, 100]),\r\n",
      "   midi.NoteOnEvent(tick=48, channel=0, data=[77, 0]),\r\n",
      "   midi.NoteOnEvent(tick=0, channel=0, data=[79, 100]),\r\n",
      "   midi.NoteOnEvent(tick=192, channel=0, data=[79, 0]),\r\n",
      "   midi.NoteOnEvent(tick=0, channel=0, data=[75, 100]),\r\n",
      "   midi.NoteOnEvent(tick=96, channel=0, data=[75, 0]),\r\n",
      "   midi.NoteOnEvent(tick=0, channel=0, data=[73, 100]),\r\n",
      "   midi.NoteOnEvent(tick=48, channel=0, data=[73, 0]),\r\n",
      "   midi.NoteOnEvent(tick=0, channel=0, data=[74, 100]),\r\n",
      "   midi.NoteOnEvent(tick=48, channel=0, data=[74, 0]),\r\n",
      "   midi.NoteOnEvent(tick=0, channel=0, data=[76, 100]),\r\n",
      "   midi.NoteOnEvent(tick=192, channel=0, data=[76, 0]),\r\n",
      "   midi.NoteOnEvent(tick=0, channel=0, data=[73, 100]),\r\n",
      "   midi.NoteOnEvent(tick=96, channel=0, data=[73, 0]),\r\n",
      "   midi.NoteOnEvent(tick=0, channel=0, data=[74, 100]),\r\n",
      "   midi.NoteOnEvent(tick=96, channel=0, data=[74, 0]),\r\n",
      "   midi.NoteOnEvent(tick=0, channel=0, data=[69, 100]),\r\n",
      "   midi.NoteOnEvent(tick=96, channel=0, data=[69, 0]),\r\n",
      "   midi.NoteOnEvent(tick=0, channel=0, data=[65, 100]),\r\n",
      "   midi.NoteOnEvent(tick=96, channel=0, data=[65, 0]),\r\n",
      "   midi.NoteOnEvent(tick=0, channel=0, data=[62, 100]),\r\n",
      "   midi.NoteOnEvent(tick=96, channel=0, data=[62, 0]),\r\n",
      "   midi.NoteOnEvent(tick=0, channel=0, data=[61, 100]),\r\n",
      "   midi.NoteOnEvent(tick=96, channel=0, data=[61, 0]),\r\n",
      "   midi.NoteOnEvent(tick=0, channel=0, data=[62, 100]),\r\n",
      "   midi.NoteOnEvent(tick=96, channel=0, data=[62, 0]),\r\n",
      "   midi.NoteOnEvent(tick=0, channel=0, data=[65, 100]),\r\n",
      "   midi.NoteOnEvent(tick=96, channel=0, data=[65, 0]),\r\n",
      "   midi.NoteOnEvent(tick=0, channel=0, data=[69, 100]),\r\n",
      "   midi.NoteOnEvent(tick=96, channel=0, data=[69, 0]),\r\n",
      "   midi.NoteOnEvent(tick=0, channel=0, data=[70, 100]),\r\n",
      "   midi.NoteOnEvent(tick=48, channel=0, data=[70, 0]),\r\n",
      "   midi.NoteOnEvent(tick=0, channel=0, data=[72, 100]),\r\n",
      "   midi.NoteOnEvent(tick=48, channel=0, data=[72, 0]),\r\n",
      "   midi.NoteOnEvent(tick=0, channel=0, data=[74, 100]),\r\n",
      "   midi.NoteOnEvent(tick=192, channel=0, data=[74, 0]),\r\n",
      "   midi.NoteOnEvent(tick=0, channel=0, data=[70, 100]),\r\n",
      "   midi.NoteOnEvent(tick=96, channel=0, data=[70, 0]),\r\n",
      "   midi.NoteOnEvent(tick=0, channel=0, data=[68, 100]),\r\n",
      "   midi.NoteOnEvent(tick=48, channel=0, data=[68, 0]),\r\n",
      "   midi.NoteOnEvent(tick=0, channel=0, data=[69, 100]),\r\n",
      "   midi.NoteOnEvent(tick=48, channel=0, data=[69, 0]),\r\n",
      "   midi.NoteOnEvent(tick=0, channel=0, data=[71, 100]),\r",
      "\r\n",
      "   midi.NoteOnEvent(tick=192, channel=0, data=[71, 0]),\r\n",
      "   midi.NoteOnEvent(tick=0, channel=0, data=[68, 100]),\r\n",
      "   midi.NoteOnEvent(tick=96, channel=0, data=[68, 0]),\r\n",
      "   midi.NoteOnEvent(tick=0, channel=0, data=[69, 100]),\r\n",
      "   midi.NoteOnEvent(tick=96, channel=0, data=[69, 0]),\r\n",
      "   midi.NoteOnEvent(tick=0, channel=0, data=[64, 100]),\r\n",
      "   midi.NoteOnEvent(tick=96, channel=0, data=[64, 0]),\r\n",
      "   midi.NoteOnEvent(tick=0, channel=0, data=[66, 100]),\r\n",
      "   midi.NoteOnEvent(tick=96, channel=0, data=[66, 0]),\r\n",
      "   midi.NoteOnEvent(tick=0, channel=0, data=[68, 100]),\r\n",
      "   midi.NoteOnEvent(tick=96, channel=0, data=[68, 0]),\r\n",
      "   midi.NoteOnEvent(tick=0, channel=0, data=[69, 100]),\r\n",
      "   midi.NoteOnEvent(tick=96, channel=0, data=[69, 0]),\r\n",
      "   midi.NoteOnEvent(tick=0, channel=0, data=[64, 100]),\r\n",
      "   midi.NoteOnEvent(tick=96, channel=0, data=[64, 0]),\r\n",
      "   midi.NoteOnEvent(tick=0, channel=0, data=[71, 100]),\r\n",
      "   midi.NoteOnEvent(tick=96, channel=0, data=[71, 0]),\r\n",
      "   midi.NoteOnEvent(tick=0, channel=0, data=[64, 100]),\r\n",
      "   midi.NoteOnEvent(tick=96, channel=0, data=[64, 0]),\r\n",
      "   midi.NoteOnEvent(tick=0, channel=0, data=[72, 100]),\r\n",
      "   midi.NoteOnEvent(tick=96, channel=0, data=[72, 0]),\r\n",
      "   midi.NoteOnEvent(tick=0, channel=0, data=[68, 100]),\r\n",
      "   midi.NoteOnEvent(tick=96, channel=0, data=[68, 0]),\r\n",
      "   midi.NoteOnEvent(tick=0, channel=0, data=[69, 100]),\r\n",
      "   midi.NoteOnEvent(tick=96, channel=0, data=[69, 0]),\r\n",
      "   midi.NoteOnEvent(tick=0, channel=0, data=[71, 100]),\r\n",
      "   midi.NoteOnEvent(tick=96, channel=0, data=[71, 0]),\r\n",
      "   midi.NoteOnEvent(tick=0, channel=0, data=[72, 100]),\r\n",
      "   midi.NoteOnEvent(tick=96, channel=0, data=[72, 0]),\r\n",
      "   midi.NoteOnEvent(tick=0, channel=0, data=[69, 100]),\r\n",
      "   midi.NoteOnEvent(tick=96, channel=0, data=[69, 0]),\r\n",
      "   midi.NoteOnEvent(tick=0, channel=0, data=[74, 100]),\r\n",
      "   midi.NoteOnEvent(tick=96, channel=0, data=[74, 0]),\r\n",
      "   midi.NoteOnEvent(tick=0, channel=0, data=[69, 100]),\r\n",
      "   midi.NoteOnEvent(tick=96, channel=0, data=[69, 0]),\r\n",
      "   midi.NoteOnEvent(tick=0, channel=0, data=[68, 100]),\r\n",
      "   midi.NoteOnEvent(tick=96, channel=0, data=[68, 0]),\r\n",
      "   midi.NoteOnEvent(tick=0, channel=0, data=[64, 100]),\r\n",
      "   midi.NoteOnEvent(tick=96, channel=0, data=[64, 0]),\r\n",
      "   midi.NoteOnEvent(tick=0, channel=0, data=[68, 100]),\r\n",
      "   midi.NoteOnEvent(tick=96, channel=0, data=[68, 0]),\r\n",
      "   midi.NoteOnEvent(tick=0, channel=0, data=[71, 100]),\r\n",
      "   midi.NoteOnEvent(tick=96, channel=0, data=[71, 0]),\r\n",
      "   midi.NoteOnEvent(tick=0, channel=0, data=[76, 100]),\r\n",
      "   midi.NoteOnEvent(tick=480, channel=0, data=[76, 0]),\r\n",
      "   midi.NoteOnEvent(tick=0, channel=0, data=[69, 100]),\r\n",
      "   midi.NoteOnEvent(tick=96, channel=0, data=[69, 0]),\r\n",
      "   midi.NoteOnEvent(tick=0, channel=0, data=[72, 100]),\r\n",
      "   midi.NoteOnEvent(tick=96, channel=0, data=[72, 0]),\r\n",
      "   midi.NoteOnEvent(tick=0, channel=0, data=[76, 100]),\r\n",
      "   midi.NoteOnEvent(tick=96, channel=0, data=[76, 0]),\r\n",
      "   midi.NoteOnEvent(tick=0, channel=0, data=[81, 100]),\r\n",
      "   midi.NoteOnEvent(tick=480, channel=0, data=[81, 0]),\r\n",
      "   midi.NoteOnEvent(tick=0, channel=0, data=[69, 100]),\r\n",
      "   midi.NoteOnEvent(tick=96, channel=0, data=[69, 0]),\r\n",
      "   midi.NoteOnEvent(tick=0, channel=0, data=[74, 100]),\r\n",
      "   midi.NoteOnEvent(tick=96, channel=0, data=[74, 0]),\r\n",
      "   midi.NoteOnEvent(tick=0, channel=0, data=[77, 100]),\r\n",
      "   midi.NoteOnEvent(tick=96, channel=0, data=[77, 0]),\r\n",
      "   midi.NoteOnEvent(tick=0, channel=0, data=[81, 100]),\r\n",
      "   midi.NoteOnEvent(tick=576, channel=0, data=[81, 0]),\r\n",
      "   midi.NoteOnEvent(tick=0, channel=0, data=[69, 100]),\r\n",
      "   midi.NoteOnEvent(tick=192, channel=0, data=[69, 0]),\r\n",
      "   midi.NoteOnEvent(tick=0, channel=0, data=[64, 100]),\r\n",
      "   midi.NoteOnEvent(tick=192, channel=0, data=[64, 0]),\r\n",
      "   midi.NoteOnEvent(tick=0, channel=0, data=[68, 100]),\r\n",
      "   midi.NoteOnEvent(tick=192, channel=0, data=[68, 0]),\r\n",
      "   midi.NoteOnEvent(tick=0, channel=0, data=[57, 100]),\r\n",
      "   midi.NoteOnEvent(tick=192, channel=0, data=[57, 0]),\r\n",
      "   midi.NoteOnEvent(tick=0, channel=0, data=[69, 100]),\r\n",
      "   midi.NoteOnEvent(tick=192, channel=0, data=[69, 0]),\r\n",
      "   midi.NoteOnEvent(tick=0, channel=0, data=[76, 100]),\r\n",
      "   midi.NoteOnEvent(tick=576, channel=0, data=[76, 0]),\r\n",
      "   midi.NoteOnEvent(tick=0, channel=0, data=[74, 100]),\r\n",
      "   midi.NoteOnEvent(tick=96, channel=0, data=[74, 0]),\r\n",
      "   midi.NoteOnEvent(tick=0, channel=0, data=[73, 100]),\r\n",
      "   midi.NoteOnEvent(tick=96, channel=0, data=[73, 0]),\r\n",
      "   midi.NoteOnEvent(tick=0, channel=0, data=[74, 100]),\r\n",
      "   midi.NoteOnEvent(tick=192, channel=0, data=[74, 0]),\r\n",
      "   midi.NoteOnEvent(tick=0, channel=0, data=[77, 100]),\r\n",
      "   midi.NoteOnEvent(tick=384, channel=0, data=[77, 0]),\r\n",
      "   midi.NoteOnEvent(tick=0, channel=0, data=[71, 100]),\r\n",
      "   midi.NoteOnEvent(tick=96, channel=0, data=[71, 0]),\r\n",
      "   midi.NoteOnEvent(tick=0, channel=0, data=[72, 100]),\r\n",
      "   midi.NoteOnEvent(tick=96, channel=0, data=[72, 0]),\r\n",
      "   midi.NoteOnEvent(tick=0, channel=0, data=[74, 100]),\r\n",
      "   midi.NoteOnEvent(tick=96, channel=0, data=[74, 0]),\r\n",
      "   midi.NoteOnEvent(tick=0, channel=0, data=[71, 100]),\r\n",
      "   midi.NoteOnEvent(tick=96, channel=0, data=[71, 0]),\r\n",
      "   midi.NoteOnEvent(tick=0, channel=0, data=[72, 100]),\r\n",
      "   midi.NoteOnEvent(tick=96, channel=0, data=[72, 0]),\r\n",
      "   midi.NoteOnEvent(tick=0, channel=0, data=[69, 100]),\r\n",
      "   midi.NoteOnEvent(tick=96, channel=0, data=[69, 0]),\r\n",
      "   midi.NoteOnEvent(tick=0, channel=0, data=[71, 100]),\r\n",
      "   midi.NoteOnEvent(tick=96, channel=0, data=[71, 0]),\r\n",
      "   midi.NoteOnEvent(tick=0, channel=0, data=[67, 100]),\r\n",
      "   midi.NoteOnEvent(tick=96, channel=0, data=[67, 0]),\r\n",
      "   midi.NoteOnEvent(tick=0, channel=0, data=[66, 100]),\r\n",
      "   midi.NoteOnEvent(tick=96, channel=0, data=[66, 0]),\r\n",
      "   midi.NoteOnEvent(tick=0, channel=0, data=[67, 100]),\r\n",
      "   midi.NoteOnEvent(tick=96, channel=0, data=[67, 0]),\r\n",
      "   midi.NoteOnEvent(tick=0, channel=0, data=[71, 100]),\r\n",
      "   midi.NoteOnEvent(tick=96, channel=0, data=[71, 0]),\r\n",
      "   midi.NoteOnEvent(tick=0, channel=0, data=[67, 100]),\r\n",
      "   midi.NoteOnEvent(tick=96, channel=0, data=[67, 0]),\r\n",
      "   midi.NoteOnEvent(tick=0, channel=0, data=[74, 100]),\r\n",
      "   midi.NoteOnEvent(tick=96, channel=0, data=[74, 0]),\r\n",
      "   midi.NoteOnEvent(tick=0, channel=0, data=[71, 100]),\r\n",
      "   midi.NoteOnEvent(tick=96, channel=0, data=[71, 0]),\r\n",
      "   midi.NoteOnEvent(tick=0, channel=0, data=[79, 100]),\r\n",
      "   midi.NoteOnEvent(tick=192, channel=0, data=[79, 0]),\r\n",
      "   midi.NoteOnEvent(tick=0, channel=0, data=[67, 100]),\r\n",
      "   midi.NoteOnEvent(tick=192, channel=0, data=[67, 0]),\r\n",
      "   midi.NoteOnEvent(tick=0, channel=0, data=[74, 100]),\r\n",
      "   midi.NoteOnEvent(tick=576, channel=0, data=[74, 0]),\r\n",
      "   midi.NoteOnEvent(tick=0, channel=0, data=[72, 100]),\r\n",
      "   midi.NoteOnEvent(tick=96, channel=0, data=[72, 0]),\r\n",
      "   midi.NoteOnEvent(tick=0, channel=0, data=[71, 100]),\r\n",
      "   midi.NoteOnEvent(tick=96, channel=0, data=[71, 0]),\r\n",
      "   midi.NoteOnEvent(tick=0, channel=0, data=[72, 100]),\r\n",
      "   midi.NoteOnEvent(tick=192, channel=0, data=[72, 0]),\r\n",
      "   midi.NoteOnEvent(tick=0, channel=0, data=[76, 100]),\r\n",
      "   midi.NoteOnEvent(tick=384, channel=0, data=[76, 0]),\r\n",
      "   midi.NoteOnEvent(tick=0, channel=0, data=[69, 100]),\r",
      "\r\n",
      "   midi.NoteOnEvent(tick=96, channel=0, data=[69, 0]),\r\n",
      "   midi.NoteOnEvent(tick=0, channel=0, data=[71, 100]),\r\n",
      "   midi.NoteOnEvent(tick=96, channel=0, data=[71, 0]),\r\n",
      "   midi.NoteOnEvent(tick=0, channel=0, data=[72, 100]),\r\n",
      "   midi.NoteOnEvent(tick=96, channel=0, data=[72, 0]),\r\n",
      "   midi.NoteOnEvent(tick=0, channel=0, data=[69, 100]),\r\n",
      "   midi.NoteOnEvent(tick=96, channel=0, data=[69, 0]),\r\n",
      "   midi.NoteOnEvent(tick=0, channel=0, data=[71, 100]),\r\n",
      "   midi.NoteOnEvent(tick=96, channel=0, data=[71, 0]),\r\n",
      "   midi.NoteOnEvent(tick=0, channel=0, data=[68, 100]),\r\n",
      "   midi.NoteOnEvent(tick=96, channel=0, data=[68, 0]),\r\n",
      "   midi.NoteOnEvent(tick=0, channel=0, data=[69, 100]),\r\n",
      "   midi.NoteOnEvent(tick=96, channel=0, data=[69, 0]),\r\n",
      "   midi.NoteOnEvent(tick=0, channel=0, data=[65, 100]),\r\n",
      "   midi.NoteOnEvent(tick=96, channel=0, data=[65, 0]),\r\n",
      "   midi.NoteOnEvent(tick=0, channel=0, data=[64, 100]),\r\n",
      "   midi.NoteOnEvent(tick=96, channel=0, data=[64, 0]),\r\n",
      "   midi.NoteOnEvent(tick=0, channel=0, data=[65, 100]),\r\n",
      "   midi.NoteOnEvent(tick=96, channel=0, data=[65, 0]),\r\n",
      "   midi.NoteOnEvent(tick=0, channel=0, data=[69, 100]),\r\n",
      "   midi.NoteOnEvent(tick=96, channel=0, data=[69, 0]),\r\n",
      "   midi.NoteOnEvent(tick=0, channel=0, data=[65, 100]),\r\n",
      "   midi.NoteOnEvent(tick=96, channel=0, data=[65, 0]),\r\n",
      "   midi.NoteOnEvent(tick=0, channel=0, data=[72, 100]),\r\n",
      "   midi.NoteOnEvent(tick=96, channel=0, data=[72, 0]),\r\n",
      "   midi.NoteOnEvent(tick=0, channel=0, data=[65, 100]),\r\n",
      "   midi.NoteOnEvent(tick=96, channel=0, data=[65, 0]),\r\n",
      "   midi.NoteOnEvent(tick=0, channel=0, data=[77, 100]),\r\n",
      "   midi.NoteOnEvent(tick=192, channel=0, data=[77, 0]),\r\n",
      "   midi.NoteOnEvent(tick=0, channel=0, data=[65, 100]),\r\n",
      "   midi.NoteOnEvent(tick=192, channel=0, data=[65, 0]),\r\n",
      "   midi.NoteOnEvent(tick=0, channel=0, data=[72, 100]),\r\n",
      "   midi.NoteOnEvent(tick=576, channel=0, data=[72, 0]),\r\n",
      "   midi.NoteOnEvent(tick=0, channel=0, data=[71, 100]),\r\n",
      "   midi.NoteOnEvent(tick=96, channel=0, data=[71, 0]),\r\n",
      "   midi.NoteOnEvent(tick=0, channel=0, data=[72, 100]),\r\n",
      "   midi.NoteOnEvent(tick=96, channel=0, data=[72, 0]),\r\n",
      "   midi.NoteOnEvent(tick=0, channel=0, data=[74, 100]),\r\n",
      "   midi.NoteOnEvent(tick=192, channel=0, data=[74, 0]),\r\n",
      "   midi.NoteOnEvent(tick=0, channel=0, data=[65, 100]),\r\n",
      "   midi.NoteOnEvent(tick=192, channel=0, data=[65, 0]),\r\n",
      "   midi.NoteOnEvent(tick=0, channel=0, data=[64, 100]),\r\n",
      "   midi.NoteOnEvent(tick=192, channel=0, data=[64, 0]),\r\n",
      "   midi.NoteOnEvent(tick=0, channel=0, data=[74, 100]),\r\n",
      "   midi.NoteOnEvent(tick=192, channel=0, data=[74, 0]),\r\n",
      "   midi.NoteOnEvent(tick=0, channel=0, data=[72, 100]),\r\n",
      "   midi.NoteOnEvent(tick=192, channel=0, data=[72, 0]),\r\n",
      "   midi.NoteOnEvent(tick=0, channel=0, data=[64, 100]),\r\n",
      "   midi.NoteOnEvent(tick=192, channel=0, data=[64, 0]),\r\n",
      "   midi.NoteOnEvent(tick=0, channel=0, data=[62, 100]),\r\n",
      "   midi.NoteOnEvent(tick=96, channel=0, data=[62, 0]),\r\n",
      "   midi.NoteOnEvent(tick=0, channel=0, data=[72, 100]),\r\n",
      "   midi.NoteOnEvent(tick=96, channel=0, data=[72, 0]),\r\n",
      "   midi.NoteOnEvent(tick=0, channel=0, data=[71, 100]),\r\n",
      "   midi.NoteOnEvent(tick=96, channel=0, data=[71, 0]),\r\n",
      "   midi.NoteOnEvent(tick=0, channel=0, data=[69, 100]),\r\n",
      "   midi.NoteOnEvent(tick=96, channel=0, data=[69, 0]),\r\n",
      "   midi.NoteOnEvent(tick=0, channel=0, data=[71, 100]),\r\n",
      "   midi.NoteOnEvent(tick=96, channel=0, data=[71, 0]),\r\n",
      "   midi.NoteOnEvent(tick=0, channel=0, data=[69, 100]),\r\n",
      "   midi.NoteOnEvent(tick=96, channel=0, data=[69, 0]),\r\n",
      "   midi.NoteOnEvent(tick=0, channel=0, data=[68, 100]),\r\n",
      "   midi.NoteOnEvent(tick=96, channel=0, data=[68, 0]),\r\n",
      "   midi.NoteOnEvent(tick=0, channel=0, data=[66, 100]),\r\n",
      "   midi.NoteOnEvent(tick=96, channel=0, data=[66, 0]),\r\n",
      "   midi.NoteOnEvent(tick=0, channel=0, data=[68, 100]),\r\n",
      "   midi.NoteOnEvent(tick=192, channel=0, data=[68, 0]),\r\n",
      "   midi.NoteOnEvent(tick=0, channel=0, data=[77, 100]),\r\n",
      "   midi.NoteOnEvent(tick=192, channel=0, data=[77, 0]),\r\n",
      "   midi.NoteOnEvent(tick=0, channel=0, data=[76, 100]),\r\n",
      "   midi.NoteOnEvent(tick=192, channel=0, data=[76, 0]),\r\n",
      "   midi.NoteOnEvent(tick=0, channel=0, data=[81, 100]),\r\n",
      "   midi.NoteOnEvent(tick=192, channel=0, data=[81, 0]),\r\n",
      "   midi.NoteOnEvent(tick=0, channel=0, data=[84, 100]),\r\n",
      "   midi.NoteOnEvent(tick=384, channel=0, data=[84, 0]),\r\n",
      "   midi.NoteOnEvent(tick=0, channel=0, data=[83, 100]),\r\n",
      "   midi.NoteOnEvent(tick=48, channel=0, data=[83, 0]),\r\n",
      "   midi.NoteOnEvent(tick=0, channel=0, data=[84, 100]),\r\n",
      "   midi.NoteOnEvent(tick=48, channel=0, data=[84, 0]),\r\n",
      "   midi.NoteOnEvent(tick=0, channel=0, data=[83, 100]),\r\n",
      "   midi.NoteOnEvent(tick=48, channel=0, data=[83, 0]),\r\n",
      "   midi.NoteOnEvent(tick=0, channel=0, data=[84, 100]),\r\n",
      "   midi.NoteOnEvent(tick=48, channel=0, data=[84, 0]),\r\n",
      "   midi.NoteOnEvent(tick=0, channel=0, data=[83, 100]),\r\n",
      "   midi.NoteOnEvent(tick=48, channel=0, data=[83, 0]),\r\n",
      "   midi.NoteOnEvent(tick=0, channel=0, data=[84, 100]),\r\n",
      "   midi.NoteOnEvent(tick=48, channel=0, data=[84, 0]),\r\n",
      "   midi.NoteOnEvent(tick=0, channel=0, data=[83, 100]),\r\n",
      "   midi.NoteOnEvent(tick=48, channel=0, data=[83, 0]),\r\n",
      "   midi.NoteOnEvent(tick=0, channel=0, data=[84, 100]),\r\n",
      "   midi.NoteOnEvent(tick=48, channel=0, data=[84, 0]),\r\n",
      "   midi.NoteOnEvent(tick=0, channel=0, data=[83, 100]),\r\n",
      "   midi.NoteOnEvent(tick=96, channel=0, data=[83, 0]),\r\n",
      "   midi.NoteOnEvent(tick=0, channel=0, data=[84, 100]),\r\n",
      "   midi.NoteOnEvent(tick=96, channel=0, data=[84, 0]),\r\n",
      "   midi.NoteOnEvent(tick=0, channel=0, data=[86, 100]),\r\n",
      "   midi.NoteOnEvent(tick=96, channel=0, data=[86, 0]),\r\n",
      "   midi.NoteOnEvent(tick=0, channel=0, data=[84, 100]),\r\n",
      "   midi.NoteOnEvent(tick=96, channel=0, data=[84, 0]),\r\n",
      "   midi.NoteOnEvent(tick=0, channel=0, data=[83, 100]),\r\n",
      "   midi.NoteOnEvent(tick=96, channel=0, data=[83, 0]),\r\n",
      "   midi.NoteOnEvent(tick=0, channel=0, data=[86, 100]),\r\n",
      "   midi.NoteOnEvent(tick=96, channel=0, data=[86, 0]),\r\n",
      "   midi.NoteOnEvent(tick=0, channel=0, data=[81, 100]),\r\n",
      "   midi.NoteOnEvent(tick=96, channel=0, data=[81, 0]),\r\n",
      "   midi.NoteOnEvent(tick=0, channel=0, data=[86, 100]),\r\n",
      "   midi.NoteOnEvent(tick=96, channel=0, data=[86, 0]),\r\n",
      "   midi.NoteOnEvent(tick=0, channel=0, data=[80, 100]),\r\n",
      "   midi.NoteOnEvent(tick=96, channel=0, data=[80, 0]),\r\n",
      "   midi.NoteOnEvent(tick=0, channel=0, data=[81, 100]),\r\n",
      "   midi.NoteOnEvent(tick=96, channel=0, data=[81, 0]),\r\n",
      "   midi.NoteOnEvent(tick=0, channel=0, data=[83, 100]),\r\n",
      "   midi.NoteOnEvent(tick=96, channel=0, data=[83, 0]),\r\n",
      "   midi.NoteOnEvent(tick=0, channel=0, data=[81, 100]),\r\n",
      "   midi.NoteOnEvent(tick=96, channel=0, data=[81, 0]),\r\n",
      "   midi.NoteOnEvent(tick=0, channel=0, data=[80, 100]),\r\n",
      "   midi.NoteOnEvent(tick=96, channel=0, data=[80, 0]),\r\n",
      "   midi.NoteOnEvent(tick=0, channel=0, data=[83, 100]),\r\n",
      "   midi.NoteOnEvent(tick=96, channel=0, data=[83, 0]),\r\n",
      "   midi.NoteOnEvent(tick=0, channel=0, data=[77, 100]),\r\n",
      "   midi.NoteOnEvent(tick=96, channel=0, data=[77, 0]),\r\n",
      "   midi.NoteOnEvent(tick=0, channel=0, data=[83, 100]),\r\n",
      "   midi.NoteOnEvent(tick=96, channel=0, data=[83, 0]),\r\n",
      "   midi.NoteOnEvent(tick=0, channel=0, data=[74, 100]),\r\n",
      "   midi.NoteOnEvent(tick=96, channel=0, data=[74, 0]),\r\n",
      "   midi.NoteOnEvent(tick=0, channel=0, data=[76, 100]),\r\n",
      "   midi.NoteOnEvent(tick=96, channel=0, data=[76, 0]),\r\n",
      "   midi.NoteOnEvent(tick=0, channel=0, data=[77, 100]),\r\n",
      "   midi.NoteOnEvent(tick=96, channel=0, data=[77, 0]),\r\n",
      "   midi.NoteOnEvent(tick=0, channel=0, data=[76, 100]),\r\n",
      "   midi.NoteOnEvent(tick=96, channel=0, data=[76, 0]),\r\n",
      "   midi.NoteOnEvent(tick=0, channel=0, data=[74, 100]),\r\n",
      "   midi.NoteOnEvent(tick=96, channel=0, data=[74, 0]),\r\n",
      "   midi.NoteOnEvent(tick=0, channel=0, data=[77, 100]),\r\n",
      "   midi.NoteOnEvent(tick=96, channel=0, data=[77, 0]),\r\n",
      "   midi.NoteOnEvent(tick=0, channel=0, data=[72, 100]),\r\n",
      "   midi.NoteOnEvent(tick=96, channel=0, data=[72, 0]),\r\n",
      "   midi.NoteOnEvent(tick=0, channel=0, data=[77, 100]),\r\n",
      "   midi.NoteOnEvent(tick=96, channel=0, data=[77, 0]),\r\n",
      "   midi.NoteOnEvent(tick=0, channel=0, data=[71, 100]),\r\n",
      "   midi.NoteOnEvent(tick=96, channel=0, data=[71, 0]),\r\n",
      "   midi.NoteOnEvent(tick=0, channel=0, data=[72, 100]),\r\n",
      "   midi.NoteOnEvent(tick=96, channel=0, data=[72, 0]),\r\n",
      "   midi.NoteOnEvent(tick=0, channel=0, data=[74, 100]),\r\n",
      "   midi.NoteOnEvent(tick=96, channel=0, data=[74, 0]),\r\n",
      "   midi.NoteOnEvent(tick=0, channel=0, data=[72, 100]),\r\n",
      "   midi.NoteOnEvent(tick=96, channel=0, data=[72, 0]),\r\n",
      "   midi.NoteOnEvent(tick=0, channel=0, data=[71, 100]),\r\n",
      "   midi.NoteOnEvent(tick=96, channel=0, data=[71, 0]),\r\n",
      "   midi.NoteOnEvent(tick=0, channel=0, data=[74, 100]),\r\n",
      "   midi.NoteOnEvent(tick=96, channel=0, data=[74, 0]),\r\n",
      "   midi.NoteOnEvent(tick=0, channel=0, data=[69, 100]),\r\n",
      "   midi.NoteOnEvent(tick=96, channel=0, data=[69, 0]),\r\n",
      "   midi.NoteOnEvent(tick=0, channel=0, data=[74, 100]),\r\n",
      "   midi.NoteOnEvent(tick=96, channel=0, data=[74, 0]),\r\n",
      "   midi.NoteOnEvent(tick=0, channel=0, data=[68, 100]),\r\n",
      "   midi.NoteOnEvent(tick=96, channel=0, data=[68, 0]),\r\n",
      "   midi.NoteOnEvent(tick=0, channel=0, data=[74, 100]),\r\n",
      "   midi.NoteOnEvent(tick=96, channel=0, data=[74, 0]),\r\n",
      "   midi.NoteOnEvent(tick=0, channel=0, data=[64, 100]),\r\n",
      "   midi.NoteOnEvent(tick=96, channel=0, data=[64, 0]),\r\n",
      "   midi.NoteOnEvent(tick=0, channel=0, data=[66, 100]),\r\n",
      "   midi.NoteOnEvent(tick=96, channel=0, data=[66, 0]),\r\n",
      "   midi.NoteOnEvent(tick=0, channel=0, data=[68, 100]),\r\n",
      "   midi.NoteOnEvent(tick=96, channel=0, data=[68, 0]),\r\n",
      "   midi.NoteOnEvent(tick=0, channel=0, data=[69, 100]),\r\n",
      "   midi.NoteOnEvent(tick=96, channel=0, data=[69, 0]),\r\n",
      "   midi.NoteOnEvent(tick=0, channel=0, data=[71, 100]),\r\n",
      "   midi.NoteOnEvent(tick=96, channel=0, data=[71, 0]),\r\n",
      "   midi.NoteOnEvent(tick=0, channel=0, data=[72, 100]),\r\n",
      "   midi.NoteOnEvent(tick=96, channel=0, data=[72, 0]),\r\n",
      "   midi.NoteOnEvent(tick=0, channel=0, data=[74, 100]),\r\n",
      "   midi.NoteOnEvent(tick=96, channel=0, data=[74, 0]),\r\n",
      "   midi.NoteOnEvent(tick=0, channel=0, data=[76, 100]),\r\n",
      "   midi.NoteOnEvent(tick=96, channel=0, data=[76, 0]),\r\n",
      "   midi.NoteOnEvent(tick=0, channel=0, data=[78, 100]),\r\n",
      "   midi.NoteOnEvent(tick=96, channel=0, data=[78, 0]),\r\n",
      "   midi.NoteOnEvent(tick=0, channel=0, data=[80, 100]),\r\n",
      "   midi.NoteOnEvent(tick=96, channel=0, data=[80, 0]),\r\n",
      "   midi.NoteOnEvent(tick=0, channel=0, data=[81, 100]),\r\n",
      "   midi.NoteOnEvent(tick=96, channel=0, data=[81, 0]),\r\n",
      "   midi.NoteOnEvent(tick=0, channel=0, data=[83, 100]),\r\n",
      "   midi.NoteOnEvent(tick=96, channel=0, data=[83, 0]),\r\n",
      "   midi.NoteOnEvent(tick=0, channel=0, data=[84, 100]),\r\n",
      "   midi.NoteOnEvent(tick=96, channel=0, data=[84, 0]),\r\n",
      "   midi.NoteOnEvent(tick=0, channel=0, data=[86, 100]),\r\n",
      "   midi.NoteOnEvent(tick=96, channel=0, data=[86, 0]),\r\n",
      "   midi.NoteOnEvent(tick=0, channel=0, data=[88, 100]),\r\n",
      "   midi.NoteOnEvent(tick=192, channel=0, data=[88, 0]),\r\n",
      "   midi.NoteOnEvent(tick=0, channel=0, data=[81, 100]),\r\n",
      "   midi.NoteOnEvent(tick=192, channel=0, data=[81, 0]),\r\n",
      "   midi.NoteOnEvent(tick=0, channel=0, data=[83, 100]),\r\n",
      "   midi.NoteOnEvent(tick=192, channel=0, data=[83, 0]),\r\n",
      "   midi.NoteOnEvent(tick=0, channel=0, data=[80, 100]),\r\n",
      "   midi.NoteOnEvent(tick=192, channel=0, data=[80, 0]),\r\n",
      "   midi.NoteOnEvent(tick=0, channel=0, data=[81, 100]),\r\n",
      "   midi.NoteOnEvent(tick=96, channel=0, data=[81, 0]),\r\n",
      "   midi.NoteOnEvent(tick=0, channel=0, data=[79, 100]),\r\n",
      "   midi.NoteOnEvent(tick=96, channel=0, data=[79, 0]),\r\n",
      "   midi.NoteOnEvent(tick=0, channel=0, data=[77, 100]),\r\n",
      "   midi.NoteOnEvent(tick=96, channel=0, data=[77, 0]),\r\n",
      "   midi.NoteOnEvent(tick=0, channel=0, data=[76, 100]),\r\n",
      "   midi.NoteOnEvent(tick=96, channel=0, data=[76, 0]),\r\n",
      "   midi.NoteOnEvent(tick=0, channel=0, data=[74, 100]),\r\n",
      "   midi.NoteOnEvent(tick=192, channel=0, data=[74, 0]),\r\n",
      "   midi.NoteOnEvent(tick=0, channel=0, data=[74, 100]),\r\n",
      "   midi.NoteOnEvent(tick=192, channel=0, data=[74, 0]),\r\n",
      "   midi.NoteOnEvent(tick=0, channel=0, data=[74, 100]),\r\n",
      "   midi.NoteOnEvent(tick=96, channel=0, data=[74, 0]),\r\n",
      "   midi.NoteOnEvent(tick=0, channel=0, data=[76, 100]),\r\n",
      "   midi.NoteOnEvent(tick=96, channel=0, data=[76, 0]),\r\n",
      "   midi.NoteOnEvent(tick=0, channel=0, data=[77, 100]),\r\n",
      "   midi.NoteOnEvent(tick=288, channel=0, data=[77, 0]),\r\n",
      "   midi.NoteOnEvent(tick=0, channel=0, data=[76, 100]),\r\n",
      "   midi.NoteOnEvent(tick=96, channel=0, data=[76, 0]),\r\n",
      "   midi.NoteOnEvent(tick=0, channel=0, data=[74, 100]),\r\n",
      "   midi.NoteOnEvent(tick=96, channel=0, data=[74, 0]),\r\n",
      "   midi.NoteOnEvent(tick=0, channel=0, data=[72, 100]),\r\n",
      "   midi.NoteOnEvent(tick=96, channel=0, data=[72, 0]),\r\n",
      "   midi.NoteOnEvent(tick=0, channel=0, data=[71, 100]),\r\n",
      "   midi.NoteOnEvent(tick=96, channel=0, data=[71, 0]),\r\n",
      "   midi.NoteOnEvent(tick=0, channel=0, data=[72, 100]),\r\n",
      "   midi.NoteOnEvent(tick=96, channel=0, data=[72, 0]),\r\n",
      "   midi.NoteOnEvent(tick=0, channel=0, data=[74, 100]),\r\n",
      "   midi.NoteOnEvent(tick=288, channel=0, data=[74, 0]),\r\n",
      "   midi.NoteOnEvent(tick=0, channel=0, data=[72, 100]),\r\n",
      "   midi.NoteOnEvent(tick=96, channel=0, data=[72, 0]),\r\n",
      "   midi.NoteOnEvent(tick=0, channel=0, data=[71, 100]),\r\n",
      "   midi.NoteOnEvent(tick=96, channel=0, data=[71, 0]),\r\n",
      "   midi.NoteOnEvent(tick=0, channel=0, data=[69, 100]),\r\n",
      "   midi.NoteOnEvent(tick=96, channel=0, data=[69, 0]),\r\n",
      "   midi.NoteOnEvent(tick=0, channel=0, data=[68, 100]),\r\n",
      "   midi.NoteOnEvent(tick=192, channel=0, data=[68, 0]),\r\n",
      "   midi.NoteOnEvent(tick=0, channel=0, data=[76, 100]),\r\n",
      "   midi.NoteOnEvent(tick=192, channel=0, data=[76, 0]),\r\n",
      "   midi.NoteOnEvent(tick=0, channel=0, data=[72, 100]),\r\n",
      "   midi.NoteOnEvent(tick=48, channel=0, data=[72, 0]),\r\n",
      "   midi.NoteOnEvent(tick=0, channel=0, data=[74, 100]),\r\n",
      "   midi.NoteOnEvent(tick=48, channel=0, data=[74, 0]),\r\n",
      "   midi.NoteOnEvent(tick=0, channel=0, data=[72, 100]),\r\n",
      "   midi.NoteOnEvent(tick=48, channel=0, data=[72, 0]),\r\n",
      "   midi.NoteOnEvent(tick=0, channel=0, data=[74, 100]),\r\n",
      "   midi.NoteOnEvent(tick=48, channel=0, data=[74, 0]),\r\n",
      "   midi.NoteOnEvent(tick=0, channel=0, data=[71, 100]),\r\n",
      "   midi.NoteOnEvent(tick=96, channel=0, data=[71, 0]),\r\n",
      "   midi.NoteOnEvent(tick=0, channel=0, data=[69, 100]),\r\n",
      "   midi.NoteOnEvent(tick=96, channel=0, data=[69, 0]),\r\n",
      "   midi.NoteOnEvent(tick=0, channel=0, data=[69, 100]),\r\n",
      "   midi.NoteOnEvent(tick=576, channel=0, data=[69, 0]),\r\n",
      "   midi.EndOfTrackEvent(tick=0, data=[])]),\r\n",
      " midi.Track(\\\r\n",
      "  [midi.PortEvent(tick=0, data=[0]),\r\n",
      "   midi.TrackNameEvent(tick=0, text='Violin 1', data=[86, 105, 111, 108, 105, 110, 32, 49]),\r\n",
      "   midi.ProgramChangeEvent(tick=0, channel=1, data=[40]),\r\n",
      "   midi.ControlChangeEvent(tick=0, channel=1, data=[7, 110]),\r\n",
      "   midi.ControlChangeEvent(tick=0, channel=1, data=[10, 32]),\r\n",
      "   midi.NoteOnEvent(tick=576, channel=1, data=[76, 100]),\r\n",
      "   midi.NoteOnEvent(tick=192, channel=1, data=[76, 0]),\r\n",
      "   midi.NoteOnEvent(tick=0, channel=1, data=[81, 100]),\r\n",
      "   midi.NoteOnEvent(tick=384, channel=1, data=[81, 0]),\r\n",
      "   midi.NoteOnEvent(tick=192, channel=1, data=[76, 100]),\r\n",
      "   midi.NoteOnEvent(tick=192, channel=1, data=[76, 0]),\r\n",
      "   midi.NoteOnEvent(tick=0, channel=1, data=[77, 100]),\r\n",
      "   midi.NoteOnEvent(tick=384, channel=1, data=[77, 0]),\r\n",
      "   midi.NoteOnEvent(tick=192, channel=1, data=[74, 100]),\r\n",
      "   midi.NoteOnEvent(tick=192, channel=1, data=[74, 0]),\r\n",
      "   midi.NoteOnEvent(tick=0, channel=1, data=[76, 100]),\r\n",
      "   midi.NoteOnEvent(tick=96, channel=1, data=[76, 0]),\r\n",
      "   midi.NoteOnEvent(tick=0, channel=1, data=[74, 100]),\r\n",
      "   midi.NoteOnEvent(tick=96, channel=1, data=[74, 0]),\r\n",
      "   midi.NoteOnEvent(tick=0, channel=1, data=[72, 100]),\r\n",
      "   midi.NoteOnEvent(tick=96, channel=1, data=[72, 0]),\r\n",
      "   midi.NoteOnEvent(tick=0, channel=1, data=[76, 100]),\r\n",
      "   midi.NoteOnEvent(tick=96, channel=1, data=[76, 0]),\r\n",
      "   midi.NoteOnEvent(tick=0, channel=1, data=[74, 100]),\r\n",
      "   midi.NoteOnEvent(tick=96, channel=1, data=[74, 0]),\r\n",
      "   midi.NoteOnEvent(tick=0, channel=1, data=[72, 100]),\r\n",
      "   midi.NoteOnEvent(tick=96, channel=1, data=[72, 0]),\r\n",
      "   midi.NoteOnEvent(tick=0, channel=1, data=[71, 100]),\r\n",
      "   midi.NoteOnEvent(tick=96, channel=1, data=[71, 0]),\r\n",
      "   midi.NoteOnEvent(tick=0, channel=1, data=[74, 100]),\r\n",
      "   midi.NoteOnEvent(tick=96, channel=1, data=[74, 0]),\r\n",
      "   midi.NoteOnEvent(tick=0, channel=1, data=[72, 100]),\r\n",
      "   midi.NoteOnEvent(tick=192, channel=1, data=[72, 0]),\r\n",
      "   midi.NoteOnEvent(tick=0, channel=1, data=[69, 100]),\r\n",
      "   midi.NoteOnEvent(tick=192, channel=1, data=[69, 0]),\r\n",
      "   midi.NoteOnEvent(tick=96, channel=1, data=[69, 100]),\r\n",
      "   midi.NoteOnEvent(tick=96, channel=1, data=[69, 0]),\r\n",
      "   midi.NoteOnEvent(tick=0, channel=1, data=[68, 100]),\r\n",
      "   midi.NoteOnEvent(tick=96, channel=1, data=[68, 0]),\r\n",
      "   midi.NoteOnEvent(tick=0, channel=1, data=[69, 100]),\r\n",
      "   midi.NoteOnEvent(tick=96, channel=1, data=[69, 0]),\r\n",
      "   midi.NoteOnEvent(tick=0, channel=1, data=[71, 100]),\r\n",
      "   midi.NoteOnEvent(tick=96, channel=1, data=[71, 0]),\r\n",
      "   midi.NoteOnEvent(tick=0, channel=1, data=[69, 100]),\r\n",
      "   midi.NoteOnEvent(tick=96, channel=1, data=[69, 0]),\r\n",
      "   midi.NoteOnEvent(tick=0, channel=1, data=[68, 100]),\r\n",
      "   midi.NoteOnEvent(tick=96, channel=1, data=[68, 0]),\r\n",
      "   midi.NoteOnEvent(tick=0, channel=1, data=[69, 100]),\r\n",
      "   midi.NoteOnEvent(tick=96, channel=1, data=[69, 0]),\r\n",
      "   midi.NoteOnEvent(tick=0, channel=1, data=[72, 100]),\r\n",
      "   midi.NoteOnEvent(tick=96, channel=1, data=[72, 0]),\r\n",
      "   midi.NoteOnEvent(tick=0, channel=1, data=[69, 100]),\r\n",
      "   midi.NoteOnEvent(tick=96, channel=1, data=[69, 0]),\r\n",
      "   midi.NoteOnEvent(tick=0, channel=1, data=[68, 100]),\r\n",
      "   midi.NoteOnEvent(tick=96, channel=1, data=[68, 0]),\r\n",
      "   midi.NoteOnEvent(tick=0, channel=1, data=[69, 100]),\r\n",
      "   midi.NoteOnEvent(tick=96, channel=1, data=[69, 0]),\r\n",
      "   midi.NoteOnEvent(tick=0, channel=1, data=[74, 100]),\r\n",
      "   midi.NoteOnEvent(tick=96, channel=1, data=[74, 0]),\r\n",
      "   midi.NoteOnEvent(tick=0, channel=1, data=[69, 100]),\r\n",
      "   midi.NoteOnEvent(tick=96, channel=1, data=[69, 0]),\r\n",
      "   midi.NoteOnEvent(tick=0, channel=1, data=[68, 100]),\r\n",
      "   midi.NoteOnEvent(tick=96, channel=1, data=[68, 0]),\r\n",
      "   midi.NoteOnEvent(tick=0, channel=1, data=[69, 100]),\r\n",
      "   midi.NoteOnEvent(tick=96, channel=1, data=[69, 0]),\r\n",
      "   midi.NoteOnEvent(tick=0, channel=1, data=[76, 100]),\r\n",
      "   midi.NoteOnEvent(tick=96, channel=1, data=[76, 0]),\r\n",
      "   midi.NoteOnEvent(tick=0, channel=1, data=[69, 100]),\r\n",
      "   midi.NoteOnEvent(tick=96, channel=1, data=[69, 0]),\r\n",
      "   midi.NoteOnEvent(tick=0, channel=1, data=[68, 100]),\r\n",
      "   midi.NoteOnEvent(tick=96, channel=1, data=[68, 0]),\r\n",
      "   midi.NoteOnEvent(tick=0, channel=1, data=[69, 100]),\r\n",
      "   midi.NoteOnEvent(tick=96, channel=1, data=[69, 0]),\r\n",
      "   midi.NoteOnEvent(tick=0, channel=1, data=[77, 100]),\r\n",
      "   midi.NoteOnEvent(tick=96, channel=1, data=[77, 0]),\r\n",
      "   midi.NoteOnEvent(tick=0, channel=1, data=[79, 100]),\r\n",
      "   midi.NoteOnEvent(tick=96, channel=1, data=[79, 0]),\r\n",
      "   midi.NoteOnEvent(tick=0, channel=1, data=[77, 100]),\r\n",
      "   midi.NoteOnEvent(tick=96, channel=1, data=[77, 0]),\r\n",
      "   midi.NoteOnEvent(tick=0, channel=1, data=[76, 100]),\r\n",
      "   midi.NoteOnEvent(tick=96, channel=1, data=[76, 0]),\r\n",
      "   midi.NoteOnEvent(tick=0, channel=1, data=[74, 100]),\r\n",
      "   midi.NoteOnEvent(tick=96, channel=1, data=[74, 0]),\r\n",
      "   midi.NoteOnEvent(tick=0, channel=1, data=[72, 100]),\r\n",
      "   midi.NoteOnEvent(tick=96, channel=1, data=[72, 0]),\r\n",
      "   midi.NoteOnEvent(tick=0, channel=1, data=[71, 100]),\r\n",
      "   midi.NoteOnEvent(tick=96, channel=1, data=[71, 0]),\r\n",
      "   midi.NoteOnEvent(tick=0, channel=1, data=[69, 100]),\r\n",
      "   midi.NoteOnEvent(tick=96, channel=1, data=[69, 0]),\r\n",
      "   midi.NoteOnEvent(tick=0, channel=1, data=[68, 100]),\r\n",
      "   midi.NoteOnEvent(tick=192, channel=1, data=[68, 0]),\r\n",
      "   midi.NoteOnEvent(tick=0, channel=1, data=[64, 100]),\r\n",
      "   midi.NoteOnEvent(tick=192, channel=1, data=[64, 0]),\r\n",
      "   midi.NoteOnEvent(tick=0, channel=1, data=[83, 100]),\r\n",
      "   midi.NoteOnEvent(tick=576, channel=1, data=[83, 0]),\r\n",
      "   midi.NoteOnEvent(tick=0, channel=1, data=[81, 100]),\r\n",
      "   midi.NoteOnEvent(tick=96, channel=1, data=[81, 0]),\r\n",
      "   midi.NoteOnEvent(tick=0, channel=1, data=[80, 100]),\r\n",
      "   midi.NoteOnEvent(tick=96, channel=1, data=[80, 0]),\r\n",
      "   midi.NoteOnEvent(tick=0, channel=1, data=[81, 100]),\r\n",
      "   midi.NoteOnEvent(tick=192, channel=1, data=[81, 0]),\r\n",
      "   midi.NoteOnEvent(tick=0, channel=1, data=[84, 100]),\r\n",
      "   midi.NoteOnEvent(tick=384, channel=1, data=[84, 0]),\r\n",
      "   midi.NoteOnEvent(tick=0, channel=1, data=[78, 100]),\r\n",
      "   midi.NoteOnEvent(tick=192, channel=1, data=[78, 0]),\r\n",
      "   midi.NoteOnEvent(tick=0, channel=1, data=[81, 100]),\r\n",
      "   midi.NoteOnEvent(tick=576, channel=1, data=[81, 0]),\r\n",
      "   midi.NoteOnEvent(tick=0, channel=1, data=[79, 100]),\r\n",
      "   midi.NoteOnEvent(tick=96, channel=1, data=[79, 0]),\r\n",
      "   midi.NoteOnEvent(tick=0, channel=1, data=[78, 100]),\r\n",
      "   midi.NoteOnEvent(tick=96, channel=1, data=[78, 0]),\r\n",
      "   midi.NoteOnEvent(tick=0, channel=1, data=[79, 100]),\r\n",
      "   midi.NoteOnEvent(tick=192, channel=1, data=[79, 0]),\r\n",
      "   midi.NoteOnEvent(tick=0, channel=1, data=[83, 100]),\r\n",
      "   midi.NoteOnEvent(tick=288, channel=1, data=[83, 0]),\r\n",
      "   midi.NoteOnEvent(tick=0, channel=1, data=[81, 100]),\r\n",
      "   midi.NoteOnEvent(tick=96, channel=1, data=[81, 0]),\r\n",
      "   midi.NoteOnEvent(tick=0, channel=1, data=[79, 100]),\r\n",
      "   midi.NoteOnEvent(tick=96, channel=1, data=[79, 0]),\r\n",
      "   midi.NoteOnEvent(tick=0, channel=1, data=[78, 100]),\r\n",
      "   midi.NoteOnEvent(tick=96, channel=1, data=[78, 0]),\r\n",
      "   midi.NoteOnEvent(tick=0, channel=1, data=[76, 100]),\r\n",
      "   midi.NoteOnEvent(tick=576, channel=1, data=[76, 0]),\r\n",
      "   midi.NoteOnEvent(tick=0, channel=1, data=[78, 100]),\r\n",
      "   midi.NoteOnEvent(tick=96, channel=1, data=[78, 0]),\r\n",
      "   midi.NoteOnEvent(tick=0, channel=1, data=[79, 100]),\r\n",
      "   midi.NoteOnEvent(tick=96, channel=1, data=[79, 0]),\r\n",
      "   midi.NoteOnEvent(tick=0, channel=1, data=[81, 100]),\r\n",
      "   midi.NoteOnEvent(tick=192, channel=1, data=[81, 0]),\r\n",
      "   midi.NoteOnEvent(tick=0, channel=1, data=[72, 100]),\r\n",
      "   midi.NoteOnEvent(tick=192, channel=1, data=[72, 0]),\r\n",
      "   midi.NoteOnEvent(tick=0, channel=1, data=[71, 100]),\r\n",
      "   midi.NoteOnEvent(tick=192, channel=1, data=[71, 0]),\r\n",
      "   midi.NoteOnEvent(tick=0, channel=1, data=[81, 100]),\r\n",
      "   midi.NoteOnEvent(tick=192, channel=1, data=[81, 0]),\r\n",
      "   midi.NoteOnEvent(tick=0, channel=1, data=[79, 100]),\r\n",
      "   midi.NoteOnEvent(tick=192, channel=1, data=[79, 0]),\r\n",
      "   midi.NoteOnEvent(tick=0, channel=1, data=[71, 100]),\r\n",
      "   midi.NoteOnEvent(tick=192, channel=1, data=[71, 0]),\r\n",
      "   midi.NoteOnEvent(tick=0, channel=1, data=[69, 100]),\r\n",
      "   midi.NoteOnEvent(tick=96, channel=1, data=[69, 0]),\r\n",
      "   midi.NoteOnEvent(tick=0, channel=1, data=[71, 100]),\r\n",
      "   midi.NoteOnEvent(tick=96, channel=1, data=[71, 0]),\r\n",
      "   midi.NoteOnEvent(tick=0, channel=1, data=[72, 100]),\r\n",
      "   midi.NoteOnEvent(tick=96, channel=1, data=[72, 0]),\r\n",
      "   midi.NoteOnEvent(tick=0, channel=1, data=[71, 100]),\r\n",
      "   midi.NoteOnEvent(tick=96, channel=1, data=[71, 0]),\r\n",
      "   midi.NoteOnEvent(tick=0, channel=1, data=[69, 100]),\r\n",
      "   midi.NoteOnEvent(tick=96, channel=1, data=[69, 0]),\r\n",
      "   midi.NoteOnEvent(tick=0, channel=1, data=[67, 100]),\r\n",
      "   midi.NoteOnEvent(tick=96, channel=1, data=[67, 0]),\r\n",
      "   midi.NoteOnEvent(tick=0, channel=1, data=[66, 100]),\r\n",
      "   midi.NoteOnEvent(tick=96, channel=1, data=[66, 0]),\r\n",
      "   midi.NoteOnEvent(tick=0, channel=1, data=[64, 100]),\r\n",
      "   midi.NoteOnEvent(tick=96, channel=1, data=[64, 0]),\r\n",
      "   midi.NoteOnEvent(tick=0, channel=1, data=[63, 100]),\r\n",
      "   midi.NoteOnEvent(tick=192, channel=1, data=[63, 0]),\r\n",
      "   midi.NoteOnEvent(tick=0, channel=1, data=[72, 100]),\r\n",
      "   midi.NoteOnEvent(tick=192, channel=1, data=[72, 0]),\r\n",
      "   midi.NoteOnEvent(tick=0, channel=1, data=[71, 100]),\r\n",
      "   midi.NoteOnEvent(tick=192, channel=1, data=[71, 0]),\r\n",
      "   midi.NoteOnEvent(tick=0, channel=1, data=[76, 100]),\r\n",
      "   midi.NoteOnEvent(tick=192, channel=1, data=[76, 0]),\r\n",
      "   midi.NoteOnEvent(tick=0, channel=1, data=[79, 100]),\r\n",
      "   midi.NoteOnEvent(tick=384, channel=1, data=[79, 0]),\r\n",
      "   midi.NoteOnEvent(tick=0, channel=1, data=[78, 100]),\r\n",
      "   midi.NoteOnEvent(tick=48, channel=1, data=[78, 0]),\r\n",
      "   midi.NoteOnEvent(tick=0, channel=1, data=[79, 100]),\r\n",
      "   midi.NoteOnEvent(tick=48, channel=1, data=[79, 0]),\r\n",
      "   midi.NoteOnEvent(tick=0, channel=1, data=[78, 100]),\r\n",
      "   midi.NoteOnEvent(tick=48, channel=1, data=[78, 0]),\r\n",
      "   midi.NoteOnEvent(tick=0, channel=1, data=[79, 100]),\r\n",
      "   midi.NoteOnEvent(tick=48, channel=1, data=[79, 0]),\r\n",
      "   midi.NoteOnEvent(tick=0, channel=1, data=[78, 100]),\r\n",
      "   midi.NoteOnEvent(tick=48, channel=1, data=[78, 0]),\r\n",
      "   midi.NoteOnEvent(tick=0, channel=1, data=[79, 100]),\r\n",
      "   midi.NoteOnEvent(tick=48, channel=1, data=[79, 0]),\r\n",
      "   midi.NoteOnEvent(tick=0, channel=1, data=[78, 100]),\r\n",
      "   midi.NoteOnEvent(tick=48, channel=1, data=[78, 0]),\r\n",
      "   midi.NoteOnEvent(tick=0, channel=1, data=[79, 100]),\r\n",
      "   midi.NoteOnEvent(tick=48, channel=1, data=[79, 0]),\r\n",
      "   midi.NoteOnEvent(tick=0, channel=1, data=[78, 100]),\r\n",
      "   midi.NoteOnEvent(tick=96, channel=1, data=[78, 0]),\r\n",
      "   midi.NoteOnEvent(tick=0, channel=1, data=[79, 100]),\r\n",
      "   midi.NoteOnEvent(tick=96, channel=1, data=[79, 0]),\r\n",
      "   midi.NoteOnEvent(tick=0, channel=1, data=[81, 100]),\r\n",
      "   midi.NoteOnEvent(tick=96, channel=1, data=[81, 0]),\r\n",
      "   midi.NoteOnEvent(tick=0, channel=1, data=[78, 100]),\r\n",
      "   midi.NoteOnEvent(tick=96, channel=1, data=[78, 0]),\r\n",
      "   midi.NoteOnEvent(tick=0, channel=1, data=[75, 100]),\r\n",
      "   midi.NoteOnEvent(tick=96, channel=1, data=[75, 0]),\r\n",
      "   midi.NoteOnEvent(tick=0, channel=1, data=[76, 100]),\r\n",
      "   midi.NoteOnEvent(tick=96, channel=1, data=[76, 0]),\r\n",
      "   midi.NoteOnEvent(tick=0, channel=1, data=[78, 100]),\r\n",
      "   midi.NoteOnEvent(tick=96, channel=1, data=[78, 0]),\r\n",
      "   midi.NoteOnEvent(tick=0, channel=1, data=[75, 100]),\r\n",
      "   midi.NoteOnEvent(tick=96, channel=1, data=[75, 0]),\r\n",
      "   midi.NoteOnEvent(tick=0, channel=1, data=[83, 100]),\r\n",
      "   midi.NoteOnEvent(tick=192, channel=1, data=[83, 0]),\r\n",
      "   midi.NoteOnEvent(tick=0, channel=1, data=[76, 100]),\r\n",
      "   midi.NoteOnEvent(tick=192, channel=1, data=[76, 0]),\r\n",
      "   midi.NoteOnEvent(tick=0, channel=1, data=[78, 100]),\r\n",
      "   midi.NoteOnEvent(tick=192, channel=1, data=[78, 0]),\r\n",
      "   midi.NoteOnEvent(tick=0, channel=1, data=[75, 100]),\r\n",
      "   midi.NoteOnEvent(tick=192, channel=1, data=[75, 0]),\r\n",
      "   midi.NoteOnEvent(tick=0, channel=1, data=[76, 100]),\r\n",
      "   midi.NoteOnEvent(tick=96, channel=1, data=[76, 0]),\r\n",
      "   midi.NoteOnEvent(tick=0, channel=1, data=[74, 100]),\r\n",
      "   midi.NoteOnEvent(tick=96, channel=1, data=[74, 0]),\r\n",
      "   midi.NoteOnEvent(tick=0, channel=1, data=[72, 100]),\r\n",
      "   midi.NoteOnEvent(tick=96, channel=1, data=[72, 0]),\r\n",
      "   midi.NoteOnEvent(tick=0, channel=1, data=[71, 100]),\r\n",
      "   midi.NoteOnEvent(tick=96, channel=1, data=[71, 0]),\r\n",
      "   midi.NoteOnEvent(tick=0, channel=1, data=[69, 100]),\r\n",
      "   midi.NoteOnEvent(tick=192, channel=1, data=[69, 0]),\r\n",
      "   midi.NoteOnEvent(tick=0, channel=1, data=[69, 100]),\r\n",
      "   midi.NoteOnEvent(tick=192, channel=1, data=[69, 0]),\r\n",
      "   midi.NoteOnEvent(tick=0, channel=1, data=[69, 100]),\r\n",
      "   midi.NoteOnEvent(tick=96, channel=1, data=[69, 0]),\r\n",
      "   midi.NoteOnEvent(tick=0, channel=1, data=[71, 100]),\r\n",
      "   midi.NoteOnEvent(tick=96, channel=1, data=[71, 0]),\r\n",
      "   midi.NoteOnEvent(tick=0, channel=1, data=[72, 100]),\r\n",
      "   midi.NoteOnEvent(tick=288, channel=1, data=[72, 0]),\r\n",
      "   midi.NoteOnEvent(tick=0, channel=1, data=[71, 100]),\r\n",
      "   midi.NoteOnEvent(tick=96, channel=1, data=[71, 0]),\r\n",
      "   midi.NoteOnEvent(tick=0, channel=1, data=[69, 100]),\r\n",
      "   midi.NoteOnEvent(tick=96, channel=1, data=[69, 0]),\r\n",
      "   midi.NoteOnEvent(tick=0, channel=1, data=[67, 100]),\r\n",
      "   midi.NoteOnEvent(tick=96, channel=1, data=[67, 0]),\r\n",
      "   midi.NoteOnEvent(tick=0, channel=1, data=[66, 100]),\r\n",
      "   midi.NoteOnEvent(tick=96, channel=1, data=[66, 0]),\r\n",
      "   midi.NoteOnEvent(tick=0, channel=1, data=[67, 100]),\r\n",
      "   midi.NoteOnEvent(tick=96, channel=1, data=[67, 0]),\r\n",
      "   midi.NoteOnEvent(tick=0, channel=1, data=[69, 100]),\r\n",
      "   midi.NoteOnEvent(tick=288, channel=1, data=[69, 0]),\r\n",
      "   midi.NoteOnEvent(tick=0, channel=1, data=[67, 100]),\r\n",
      "   midi.NoteOnEvent(tick=96, channel=1, data=[67, 0]),\r\n",
      "   midi.NoteOnEvent(tick=0, channel=1, data=[66, 100]),\r\n",
      "   midi.NoteOnEvent(tick=96, channel=1, data=[66, 0]),\r\n",
      "   midi.NoteOnEvent(tick=0, channel=1, data=[64, 100]),\r\n",
      "   midi.NoteOnEvent(tick=96, channel=1, data=[64, 0]),\r\n",
      "   midi.NoteOnEvent(tick=0, channel=1, data=[63, 100]),\r\n",
      "   midi.NoteOnEvent(tick=192, channel=1, data=[63, 0]),\r\n",
      "   midi.NoteOnEvent(tick=0, channel=1, data=[71, 100]),\r\n",
      "   midi.NoteOnEvent(tick=192, channel=1, data=[71, 0]),\r\n",
      "   midi.NoteOnEvent(tick=0, channel=1, data=[67, 100]),\r\n",
      "   midi.NoteOnEvent(tick=48, channel=1, data=[67, 0]),\r\n",
      "   midi.NoteOnEvent(tick=0, channel=1, data=[69, 100]),\r\n",
      "   midi.NoteOnEvent(tick=48, channel=1, data=[69, 0]),\r\n",
      "   midi.NoteOnEvent(tick=0, channel=1, data=[67, 100]),\r\n",
      "   midi.NoteOnEvent(tick=48, channel=1, data=[67, 0]),\r\n",
      "   midi.NoteOnEvent(tick=0, channel=1, data=[69, 100]),\r\n",
      "   midi.NoteOnEvent(tick=48, channel=1, data=[69, 0]),\r\n",
      "   midi.NoteOnEvent(tick=0, channel=1, data=[66, 100]),\r\n",
      "   midi.NoteOnEvent(tick=96, channel=1, data=[66, 0]),\r\n",
      "   midi.NoteOnEvent(tick=0, channel=1, data=[64, 100]),\r\n",
      "   midi.NoteOnEvent(tick=96, channel=1, data=[64, 0]),\r\n",
      "   midi.NoteOnEvent(tick=0, channel=1, data=[64, 100]),\r\n",
      "   midi.NoteOnEvent(tick=384, channel=1, data=[64, 0]),\r\n",
      "   midi.NoteOnEvent(tick=576, channel=1, data=[76, 100]),\r\n",
      "   midi.NoteOnEvent(tick=192, channel=1, data=[76, 0]),\r\n",
      "   midi.NoteOnEvent(tick=0, channel=1, data=[81, 100]),\r\n",
      "   midi.NoteOnEvent(tick=192, channel=1, data=[81, 0]),\r\n",
      "   midi.NoteOnEvent(tick=384, channel=1, data=[80, 100]),\r\n",
      "   midi.NoteOnEvent(tick=96, channel=1, data=[80, 0]),\r\n",
      "   midi.NoteOnEvent(tick=0, channel=1, data=[81, 100]),\r\n",
      "   midi.NoteOnEvent(tick=96, channel=1, data=[81, 0]),\r\n",
      "   midi.NoteOnEvent(tick=0, channel=1, data=[83, 100]),\r\n",
      "   midi.NoteOnEvent(tick=192, channel=1, data=[83, 0]),\r\n",
      "   midi.NoteOnEvent(tick=384, channel=1, data=[76, 100]),\r\n",
      "   midi.NoteOnEvent(tick=192, channel=1, data=[76, 0]),\r\n",
      "   midi.NoteOnEvent(tick=0, channel=1, data=[83, 100]),\r\n",
      "   midi.NoteOnEvent(tick=192, channel=1, data=[83, 0]),\r\n",
      "   midi.NoteOnEvent(tick=384, channel=1, data=[81, 100]),\r\n",
      "   midi.NoteOnEvent(tick=96, channel=1, data=[81, 0]),\r\n",
      "   midi.NoteOnEvent(tick=0, channel=1, data=[83, 100]),\r\n",
      "   midi.NoteOnEvent(tick=96, channel=1, data=[83, 0]),\r\n",
      "   midi.NoteOnEvent(tick=0, channel=1, data=[84, 100]),\r\n",
      "   midi.NoteOnEvent(tick=192, channel=1, data=[84, 0]),\r\n",
      "   midi.NoteOnEvent(tick=3072, channel=1, data=[76, 100]),\r\n",
      "   midi.NoteOnEvent(tick=192, channel=1, data=[76, 0]),\r\n",
      "   midi.NoteOnEvent(tick=0, channel=1, data=[81, 100]),\r\n",
      "   midi.NoteOnEvent(tick=384, channel=1, data=[81, 0]),\r\n",
      "   midi.NoteOnEvent(tick=192, channel=1, data=[76, 100]),\r\n",
      "   midi.NoteOnEvent(tick=192, channel=1, data=[76, 0]),\r\n",
      "   midi.NoteOnEvent(tick=0, channel=1, data=[77, 100]),\r\n",
      "   midi.NoteOnEvent(tick=384, channel=1, data=[77, 0]),\r\n",
      "   midi.NoteOnEvent(tick=192, channel=1, data=[74, 100]),\r\n",
      "   midi.NoteOnEvent(tick=192, channel=1, data=[74, 0]),\r\n",
      "   midi.NoteOnEvent(tick=0, channel=1, data=[79, 100]),\r\n",
      "   midi.NoteOnEvent(tick=384, channel=1, data=[79, 0]),\r\n",
      "   midi.NoteOnEvent(tick=192, channel=1, data=[74, 100]),\r\n",
      "   midi.NoteOnEvent(tick=192, channel=1, data=[74, 0]),\r\n",
      "   midi.NoteOnEvent(tick=0, channel=1, data=[76, 100]),\r\n",
      "   midi.NoteOnEvent(tick=384, channel=1, data=[76, 0]),\r\n",
      "   midi.NoteOnEvent(tick=192, channel=1, data=[72, 100]),\r\n",
      "   midi.NoteOnEvent(tick=192, channel=1, data=[72, 0]),\r\n",
      "   midi.NoteOnEvent(tick=0, channel=1, data=[77, 100]),\r\n",
      "   midi.NoteOnEvent(tick=384, channel=1, data=[77, 0]),\r\n",
      "   midi.NoteOnEvent(tick=192, channel=1, data=[72, 100]),\r\n",
      "   midi.NoteOnEvent(tick=192, channel=1, data=[72, 0]),\r\n",
      "   midi.NoteOnEvent(tick=0, channel=1, data=[74, 100]),\r\n",
      "   midi.NoteOnEvent(tick=384, channel=1, data=[74, 0]),\r\n",
      "   midi.NoteOnEvent(tick=192, channel=1, data=[71, 100]),\r\n",
      "   midi.NoteOnEvent(tick=192, channel=1, data=[71, 0]),\r\n",
      "   midi.NoteOnEvent(tick=0, channel=1, data=[76, 100]),\r\n",
      "   midi.NoteOnEvent(tick=384, channel=1, data=[76, 0]),\r\n",
      "   midi.NoteOnEvent(tick=192, channel=1, data=[76, 100]),\r\n",
      "   midi.NoteOnEvent(tick=192, channel=1, data=[76, 0]),\r\n",
      "   midi.NoteOnEvent(tick=0, channel=1, data=[81, 100]),\r\n",
      "   midi.NoteOnEvent(tick=384, channel=1, data=[81, 0]),\r\n",
      "   midi.NoteOnEvent(tick=192, channel=1, data=[76, 100]),\r\n",
      "   midi.NoteOnEvent(tick=192, channel=1, data=[76, 0]),\r\n",
      "   midi.NoteOnEvent(tick=0, channel=1, data=[77, 100]),\r\n",
      "   midi.NoteOnEvent(tick=384, channel=1, data=[77, 0]),\r\n",
      "   midi.NoteOnEvent(tick=192, channel=1, data=[74, 100]),\r\n",
      "   midi.NoteOnEvent(tick=192, channel=1, data=[74, 0]),\r\n",
      "   midi.NoteOnEvent(tick=0, channel=1, data=[76, 100]),\r\n",
      "   midi.NoteOnEvent(tick=96, channel=1, data=[76, 0]),\r\n",
      "   midi.NoteOnEvent(tick=0, channel=1, data=[74, 100]),\r\n",
      "   midi.NoteOnEvent(tick=96, channel=1, data=[74, 0]),\r\n",
      "   midi.NoteOnEvent(tick=0, channel=1, data=[72, 100]),\r\n",
      "   midi.NoteOnEvent(tick=96, channel=1, data=[72, 0]),\r\n",
      "   midi.NoteOnEvent(tick=0, channel=1, data=[76, 100]),\r\n",
      "   midi.NoteOnEvent(tick=96, channel=1, data=[76, 0]),\r\n",
      "   midi.NoteOnEvent(tick=0, channel=1, data=[74, 100]),\r\n",
      "   midi.NoteOnEvent(tick=96, channel=1, data=[74, 0]),\r\n",
      "   midi.NoteOnEvent(tick=0, channel=1, data=[72, 100]),\r\n",
      "   midi.NoteOnEvent(tick=96, channel=1, data=[72, 0]),\r\n",
      "   midi.NoteOnEvent(tick=0, channel=1, data=[71, 100]),\r\n",
      "   midi.NoteOnEvent(tick=96, channel=1, data=[71, 0]),\r\n",
      "   midi.NoteOnEvent(tick=0, channel=1, data=[74, 100]),\r\n",
      "   midi.NoteOnEvent(tick=96, channel=1, data=[74, 0]),\r\n",
      "   midi.NoteOnEvent(tick=0, channel=1, data=[72, 100]),\r\n",
      "   midi.NoteOnEvent(tick=192, channel=1, data=[72, 0]),\r\n",
      "   midi.NoteOnEvent(tick=0, channel=1, data=[69, 100]),\r\n",
      "   midi.NoteOnEvent(tick=192, channel=1, data=[69, 0]),\r\n",
      "   midi.NoteOnEvent(tick=192, channel=1, data=[72, 100]),\r\n",
      "   midi.NoteOnEvent(tick=192, channel=1, data=[72, 0]),\r\n",
      "   midi.NoteOnEvent(tick=0, channel=1, data=[72, 100]),\r\n",
      "   midi.NoteOnEvent(tick=192, channel=1, data=[72, 0]),\r\n",
      "   midi.NoteOnEvent(tick=0, channel=1, data=[72, 100]),\r\n",
      "   midi.NoteOnEvent(tick=192, channel=1, data=[72, 0]),\r\n",
      "   midi.NoteOnEvent(tick=0, channel=1, data=[71, 100]),\r\n",
      "   midi.NoteOnEvent(tick=192, channel=1, data=[71, 0]),\r\n",
      "   midi.NoteOnEvent(tick=0, channel=1, data=[71, 100]),\r\n",
      "   midi.NoteOnEvent(tick=192, channel=1, data=[71, 0]),\r\n",
      "   midi.NoteOnEvent(tick=0, channel=1, data=[71, 100]),\r\n",
      "   midi.NoteOnEvent(tick=192, channel=1, data=[71, 0]),\r\n",
      "   midi.NoteOnEvent(tick=0, channel=1, data=[71, 100]),\r\n",
      "   midi.NoteOnEvent(tick=192, channel=1, data=[71, 0]),\r\n",
      "   midi.NoteOnEvent(tick=0, channel=1, data=[71, 100]),\r\n",
      "   midi.NoteOnEvent(tick=192, channel=1, data=[71, 0]),\r\n",
      "   midi.NoteOnEvent(tick=0, channel=1, data=[71, 100]),\r\n",
      "   midi.NoteOnEvent(tick=192, channel=1, data=[71, 0]),\r\n",
      "   midi.NoteOnEvent(tick=0, channel=1, data=[70, 100]),\r\n",
      "   midi.NoteOnEvent(tick=192, channel=1, data=[70, 0]),\r\n",
      "   midi.NoteOnEvent(tick=0, channel=1, data=[70, 100]),\r\n",
      "   midi.NoteOnEvent(tick=192, channel=1, data=[70, 0]),\r\n",
      "   midi.NoteOnEvent(tick=0, channel=1, data=[69, 100]),\r\n",
      "   midi.NoteOnEvent(tick=192, channel=1, data=[69, 0]),\r\n",
      "   midi.NoteOnEvent(tick=0, channel=1, data=[69, 100]),\r\n",
      "   midi.NoteOnEvent(tick=192, channel=1, data=[69, 0]),\r\n",
      "   midi.NoteOnEvent(tick=0, channel=1, data=[69, 100]),\r\n",
      "   midi.NoteOnEvent(tick=192, channel=1, data=[69, 0]),\r\n",
      "   midi.NoteOnEvent(tick=0, channel=1, data=[69, 100]),\r\n",
      "   midi.NoteOnEvent(tick=192, channel=1, data=[69, 0]),\r\n",
      "   midi.NoteOnEvent(tick=0, channel=1, data=[69, 100]),\r\n",
      "   midi.NoteOnEvent(tick=192, channel=1, data=[69, 0]),\r\n",
      "   midi.NoteOnEvent(tick=0, channel=1, data=[69, 100]),\r\n",
      "   midi.NoteOnEvent(tick=192, channel=1, data=[69, 0]),\r\n",
      "   midi.NoteOnEvent(tick=0, channel=1, data=[68, 100]),\r\n",
      "   midi.NoteOnEvent(tick=192, channel=1, data=[68, 0]),\r\n",
      "   midi.NoteOnEvent(tick=0, channel=1, data=[68, 100]),\r\n",
      "   midi.NoteOnEvent(tick=192, channel=1, data=[68, 0]),\r\n",
      "   midi.NoteOnEvent(tick=0, channel=1, data=[67, 100]),\r\n",
      "   midi.NoteOnEvent(tick=192, channel=1, data=[67, 0]),\r\n",
      "   midi.NoteOnEvent(tick=0, channel=1, data=[67, 100]),\r\n",
      "   midi.NoteOnEvent(tick=192, channel=1, data=[67, 0]),\r\n",
      "   midi.NoteOnEvent(tick=0, channel=1, data=[67, 100]),\r\n",
      "   midi.NoteOnEvent(tick=192, channel=1, data=[67, 0]),\r\n",
      "   midi.NoteOnEvent(tick=1920, channel=1, data=[79, 100]),\r\n",
      "   midi.NoteOnEvent(tick=192, channel=1, data=[79, 0]),\r\n",
      "   midi.NoteOnEvent(tick=0, channel=1, data=[84, 100]),\r\n",
      "   midi.NoteOnEvent(tick=384, channel=1, data=[84, 0]),\r\n",
      "   midi.NoteOnEvent(tick=192, channel=1, data=[79, 100]),\r\n",
      "   midi.NoteOnEvent(tick=192, channel=1, data=[79, 0]),\r\n",
      "   midi.NoteOnEvent(tick=0, channel=1, data=[81, 100]),\r\n",
      "   midi.NoteOnEvent(tick=384, channel=1, data=[81, 0]),\r\n",
      "   midi.NoteOnEvent(tick=192, channel=1, data=[77, 100]),\r\n",
      "   midi.NoteOnEvent(tick=192, channel=1, data=[77, 0]),\r\n",
      "   midi.NoteOnEvent(tick=0, channel=1, data=[79, 100]),\r\n",
      "   midi.NoteOnEvent(tick=96, channel=1, data=[79, 0]),\r\n",
      "   midi.NoteOnEvent(tick=0, channel=1, data=[77, 100]),\r\n",
      "   midi.NoteOnEvent(tick=96, channel=1, data=[77, 0]),\r\n",
      "   midi.NoteOnEvent(tick=0, channel=1, data=[76, 100]),\r\n",
      "   midi.NoteOnEvent(tick=96, channel=1, data=[76, 0]),\r\n",
      "   midi.NoteOnEvent(tick=0, channel=1, data=[79, 100]),\r\n",
      "   midi.NoteOnEvent(tick=96, channel=1, data=[79, 0]),\r\n",
      "   midi.NoteOnEvent(tick=0, channel=1, data=[77, 100]),\r\n",
      "   midi.NoteOnEvent(tick=96, channel=1, data=[77, 0]),\r\n",
      "   midi.NoteOnEvent(tick=0, channel=1, data=[76, 100]),\r\n",
      "   midi.NoteOnEvent(tick=96, channel=1, data=[76, 0]),\r\n",
      "   midi.NoteOnEvent(tick=0, channel=1, data=[74, 100]),\r\n",
      "   midi.NoteOnEvent(tick=96, channel=1, data=[74, 0]),\r\n",
      "   midi.NoteOnEvent(tick=0, channel=1, data=[77, 100]),\r\n",
      "   midi.NoteOnEvent(tick=96, channel=1, data=[77, 0]),\r\n",
      "   midi.NoteOnEvent(tick=0, channel=1, data=[76, 100]),\r\n",
      "   midi.NoteOnEvent(tick=192, channel=1, data=[76, 0]),\r\n",
      "   midi.NoteOnEvent(tick=0, channel=1, data=[72, 100]),\r\n",
      "   midi.NoteOnEvent(tick=192, channel=1, data=[72, 0]),\r\n",
      "   midi.NoteOnEvent(tick=96, channel=1, data=[72, 100]),\r\n",
      "   midi.NoteOnEvent(tick=96, channel=1, data=[72, 0]),\r\n",
      "   midi.NoteOnEvent(tick=0, channel=1, data=[71, 100]),\r\n",
      "   midi.NoteOnEvent(tick=96, channel=1, data=[71, 0]),\r\n",
      "   midi.NoteOnEvent(tick=0, channel=1, data=[72, 100]),\r\n",
      "   midi.NoteOnEvent(tick=96, channel=1, data=[72, 0]),\r\n",
      "   midi.NoteOnEvent(tick=0, channel=1, data=[74, 100]),\r\n",
      "   midi.NoteOnEvent(tick=96, channel=1, data=[74, 0]),\r\n",
      "   midi.NoteOnEvent(tick=0, channel=1, data=[72, 100]),\r\n",
      "   midi.NoteOnEvent(tick=96, channel=1, data=[72, 0]),\r\n",
      "   midi.NoteOnEvent(tick=0, channel=1, data=[71, 100]),\r\n",
      "   midi.NoteOnEvent(tick=96, channel=1, data=[71, 0]),\r\n",
      "   midi.NoteOnEvent(tick=0, channel=1, data=[72, 100]),\r\n",
      "   midi.NoteOnEvent(tick=96, channel=1, data=[72, 0]),\r\n",
      "   midi.NoteOnEvent(tick=0, channel=1, data=[76, 100]),\r\n",
      "   midi.NoteOnEvent(tick=96, channel=1, data=[76, 0]),\r\n",
      "   midi.NoteOnEvent(tick=0, channel=1, data=[72, 100]),\r\n",
      "   midi.NoteOnEvent(tick=96, channel=1, data=[72, 0]),\r\n",
      "   midi.NoteOnEvent(tick=0, channel=1, data=[71, 100]),\r\n",
      "   midi.NoteOnEvent(tick=96, channel=1, data=[71, 0]),\r\n",
      "   midi.NoteOnEvent(tick=0, channel=1, data=[72, 100]),\r\n",
      "   midi.NoteOnEvent(tick=96, channel=1, data=[72, 0]),\r\n",
      "   midi.NoteOnEvent(tick=0, channel=1, data=[77, 100]),\r\n",
      "   midi.NoteOnEvent(tick=96, channel=1, data=[77, 0]),\r\n",
      "   midi.NoteOnEvent(tick=0, channel=1, data=[72, 100]),\r\n",
      "   midi.NoteOnEvent(tick=96, channel=1, data=[72, 0]),\r\n",
      "   midi.NoteOnEvent(tick=0, channel=1, data=[71, 100]),\r\n",
      "   midi.NoteOnEvent(tick=96, channel=1, data=[71, 0]),\r\n",
      "   midi.NoteOnEvent(tick=0, channel=1, data=[72, 100]),\r\n",
      "   midi.NoteOnEvent(tick=96, channel=1, data=[72, 0]),\r\n",
      "   midi.NoteOnEvent(tick=0, channel=1, data=[79, 100]),\r\n",
      "   midi.NoteOnEvent(tick=96, channel=1, data=[79, 0]),\r\n",
      "   midi.NoteOnEvent(tick=0, channel=1, data=[72, 100]),\r\n",
      "   midi.NoteOnEvent(tick=96, channel=1, data=[72, 0]),\r\n",
      "   midi.NoteOnEvent(tick=0, channel=1, data=[71, 100]),\r\n",
      "   midi.NoteOnEvent(tick=96, channel=1, data=[71, 0]),\r\n",
      "   midi.NoteOnEvent(tick=0, channel=1, data=[72, 100]),\r\n",
      "   midi.NoteOnEvent(tick=96, channel=1, data=[72, 0]),\r\n",
      "   midi.NoteOnEvent(tick=0, channel=1, data=[81, 100]),\r\n",
      "   midi.NoteOnEvent(tick=96, channel=1, data=[81, 0]),\r\n",
      "   midi.NoteOnEvent(tick=0, channel=1, data=[82, 100]),\r\n",
      "   midi.NoteOnEvent(tick=96, channel=1, data=[82, 0]),\r\n",
      "   midi.NoteOnEvent(tick=0, channel=1, data=[81, 100]),\r\n",
      "   midi.NoteOnEvent(tick=96, channel=1, data=[81, 0]),\r\n",
      "   midi.NoteOnEvent(tick=0, channel=1, data=[79, 100]),\r\n",
      "   midi.NoteOnEvent(tick=96, channel=1, data=[79, 0]),\r\n",
      "   midi.NoteOnEvent(tick=0, channel=1, data=[77, 100]),\r\n",
      "   midi.NoteOnEvent(tick=96, channel=1, data=[77, 0]),\r\n",
      "   midi.NoteOnEvent(tick=0, channel=1, data=[76, 100]),\r\n",
      "   midi.NoteOnEvent(tick=96, channel=1, data=[76, 0]),\r\n",
      "   midi.NoteOnEvent(tick=0, channel=1, data=[74, 100]),\r\n",
      "   midi.NoteOnEvent(tick=96, channel=1, data=[74, 0]),\r\n",
      "   midi.NoteOnEvent(tick=0, channel=1, data=[72, 100]),\r\n",
      "   midi.NoteOnEvent(tick=96, channel=1, data=[72, 0]),\r\n",
      "   midi.NoteOnEvent(tick=0, channel=1, data=[71, 100]),\r\n",
      "   midi.NoteOnEvent(tick=192, channel=1, data=[71, 0]),\r\n",
      "   midi.NoteOnEvent(tick=0, channel=1, data=[67, 100]),\r\n",
      "   midi.NoteOnEvent(tick=192, channel=1, data=[67, 0]),\r\n",
      "   midi.NoteOnEvent(tick=0, channel=1, data=[83, 100]),\r\n",
      "   midi.NoteOnEvent(tick=576, channel=1, data=[83, 0]),\r\n",
      "   midi.NoteOnEvent(tick=0, channel=1, data=[81, 100]),\r\n",
      "   midi.NoteOnEvent(tick=96, channel=1, data=[81, 0]),\r\n",
      "   midi.NoteOnEvent(tick=0, channel=1, data=[80, 100]),\r\n",
      "   midi.NoteOnEvent(tick=96, channel=1, data=[80, 0]),\r\n",
      "   midi.NoteOnEvent(tick=0, channel=1, data=[81, 100]),\r\n",
      "   midi.NoteOnEvent(tick=192, channel=1, data=[81, 0]),\r\n",
      "   midi.NoteOnEvent(tick=0, channel=1, data=[84, 100]),\r\n",
      "   midi.NoteOnEvent(tick=384, channel=1, data=[84, 0]),\r\n",
      "   midi.NoteOnEvent(tick=0, channel=1, data=[78, 100]),\r\n",
      "   midi.NoteOnEvent(tick=192, channel=1, data=[78, 0]),\r\n",
      "   midi.NoteOnEvent(tick=1344, channel=1, data=[74, 100]),\r\n",
      "   midi.NoteOnEvent(tick=192, channel=1, data=[74, 0]),\r\n",
      "   midi.NoteOnEvent(tick=0, channel=1, data=[81, 100]),\r\n",
      "   midi.NoteOnEvent(tick=576, channel=1, data=[81, 0]),\r\n",
      "   midi.NoteOnEvent(tick=0, channel=1, data=[79, 100]),\r\n",
      "   midi.NoteOnEvent(tick=96, channel=1, data=[79, 0]),\r\n",
      "   midi.NoteOnEvent(tick=0, channel=1, data=[78, 100]),\r\n",
      "   midi.NoteOnEvent(tick=96, channel=1, data=[78, 0]),\r\n",
      "   midi.NoteOnEvent(tick=0, channel=1, data=[79, 100]),\r\n",
      "   midi.NoteOnEvent(tick=192, channel=1, data=[79, 0]),\r\n",
      "   midi.NoteOnEvent(tick=0, channel=1, data=[83, 100]),\r\n",
      "   midi.NoteOnEvent(tick=384, channel=1, data=[83, 0]),\r\n",
      "   midi.NoteOnEvent(tick=0, channel=1, data=[76, 100]),\r\n",
      "   midi.NoteOnEvent(tick=192, channel=1, data=[76, 0]),\r\n",
      "   midi.NoteOnEvent(tick=1344, channel=1, data=[76, 100]),\r\n",
      "   midi.NoteOnEvent(tick=96, channel=1, data=[76, 0]),\r\n",
      "   midi.NoteOnEvent(tick=0, channel=1, data=[75, 100]),\r\n",
      "   midi.NoteOnEvent(tick=96, channel=1, data=[75, 0]),\r\n",
      "   midi.NoteOnEvent(tick=0, channel=1, data=[76, 100]),\r\n",
      "   midi.NoteOnEvent(tick=576, channel=1, data=[76, 0]),\r\n",
      "   midi.NoteOnEvent(tick=0, channel=1, data=[78, 100]),\r\n",
      "   midi.NoteOnEvent(tick=96, channel=1, data=[78, 0]),\r\n",
      "   midi.NoteOnEvent(tick=0, channel=1, data=[79, 100]),\r\n",
      "   midi.NoteOnEvent(tick=96, channel=1, data=[79, 0]),\r\n",
      "   midi.NoteOnEvent(tick=0, channel=1, data=[81, 100]),\r\n",
      "   midi.NoteOnEvent(tick=192, channel=1, data=[81, 0]),\r\n",
      "   midi.NoteOnEvent(tick=0, channel=1, data=[72, 100]),\r\n",
      "   midi.NoteOnEvent(tick=192, channel=1, data=[72, 0]),\r\n",
      "   midi.NoteOnEvent(tick=0, channel=1, data=[71, 100]),\r\n",
      "   midi.NoteOnEvent(tick=192, channel=1, data=[71, 0]),\r\n",
      "   midi.NoteOnEvent(tick=0, channel=1, data=[81, 100]),\r\n",
      "   midi.NoteOnEvent(tick=192, channel=1, data=[81, 0]),\r\n",
      "   midi.NoteOnEvent(tick=0, channel=1, data=[79, 100]),\r\n",
      "   midi.NoteOnEvent(tick=192, channel=1, data=[79, 0]),\r\n",
      "   midi.NoteOnEvent(tick=0, channel=1, data=[71, 100]),\r\n",
      "   midi.NoteOnEvent(tick=192, channel=1, data=[71, 0]),\r\n",
      "   midi.NoteOnEvent(tick=0, channel=1, data=[69, 100]),\r\n",
      "   midi.NoteOnEvent(tick=96, channel=1, data=[69, 0]),\r\n",
      "   midi.NoteOnEvent(tick=0, channel=1, data=[71, 100]),\r\n",
      "   midi.NoteOnEvent(tick=96, channel=1, data=[71, 0]),\r\n",
      "   midi.NoteOnEvent(tick=0, channel=1, data=[72, 100]),\r\n",
      "   midi.NoteOnEvent(tick=96, channel=1, data=[72, 0]),\r\n",
      "   midi.NoteOnEvent(tick=0, channel=1, data=[71, 100]),\r\n",
      "   midi.NoteOnEvent(tick=96, channel=1, data=[71, 0]),\r\n",
      "   midi.NoteOnEvent(tick=0, channel=1, data=[69, 100]),\r\n",
      "   midi.NoteOnEvent(tick=96, channel=1, data=[69, 0]),\r\n",
      "   midi.NoteOnEvent(tick=0, channel=1, data=[67, 100]),\r\n",
      "   midi.NoteOnEvent(tick=96, channel=1, data=[67, 0]),\r\n",
      "   midi.NoteOnEvent(tick=0, channel=1, data=[66, 100]),\r\n",
      "   midi.NoteOnEvent(tick=96, channel=1, data=[66, 0]),\r\n",
      "   midi.NoteOnEvent(tick=0, channel=1, data=[64, 100]),\r\n",
      "   midi.NoteOnEvent(tick=96, channel=1, data=[64, 0]),\r\n",
      "   midi.NoteOnEvent(tick=0, channel=1, data=[63, 100]),\r\n",
      "   midi.NoteOnEvent(tick=192, channel=1, data=[63, 0]),\r\n",
      "   midi.NoteOnEvent(tick=0, channel=1, data=[72, 100]),\r\n",
      "   midi.NoteOnEvent(tick=192, channel=1, data=[72, 0]),\r\n",
      "   midi.NoteOnEvent(tick=0, channel=1, data=[71, 100]),\r\n",
      "   midi.NoteOnEvent(tick=192, channel=1, data=[71, 0]),\r\n",
      "   midi.NoteOnEvent(tick=0, channel=1, data=[76, 100]),\r\n",
      "   midi.NoteOnEvent(tick=192, channel=1, data=[76, 0]),\r\n",
      "   midi.NoteOnEvent(tick=0, channel=1, data=[79, 100]),\r\n",
      "   midi.NoteOnEvent(tick=384, channel=1, data=[79, 0]),\r\n",
      "   midi.NoteOnEvent(tick=0, channel=1, data=[78, 100]),\r\n",
      "   midi.NoteOnEvent(tick=48, channel=1, data=[78, 0]),\r\n",
      "   midi.NoteOnEvent(tick=0, channel=1, data=[79, 100]),\r\n",
      "   midi.NoteOnEvent(tick=48, channel=1, data=[79, 0]),\r\n",
      "   midi.NoteOnEvent(tick=0, channel=1, data=[78, 100]),\r\n",
      "   midi.NoteOnEvent(tick=48, channel=1, data=[78, 0]),\r\n",
      "   midi.NoteOnEvent(tick=0, channel=1, data=[79, 100]),\r\n",
      "   midi.NoteOnEvent(tick=48, channel=1, data=[79, 0]),\r\n",
      "   midi.NoteOnEvent(tick=0, channel=1, data=[78, 100]),\r\n",
      "   midi.NoteOnEvent(tick=48, channel=1, data=[78, 0]),\r\n",
      "   midi.NoteOnEvent(tick=0, channel=1, data=[79, 100]),\r\n",
      "   midi.NoteOnEvent(tick=48, channel=1, data=[79, 0]),\r\n",
      "   midi.NoteOnEvent(tick=0, channel=1, data=[78, 100]),\r\n",
      "   midi.NoteOnEvent(tick=48, channel=1, data=[78, 0]),\r\n",
      "   midi.NoteOnEvent(tick=0, channel=1, data=[79, 100]),\r\n",
      "   midi.NoteOnEvent(tick=48, channel=1, data=[79, 0]),\r\n",
      "   midi.NoteOnEvent(tick=0, channel=1, data=[78, 100]),\r\n",
      "   midi.NoteOnEvent(tick=384, channel=1, data=[78, 0]),\r\n",
      "   midi.NoteOnEvent(tick=384, channel=1, data=[81, 100]),\r\n",
      "   midi.NoteOnEvent(tick=384, channel=1, data=[81, 0]),\r\n",
      "   midi.NoteOnEvent(tick=384, channel=1, data=[84, 100]),\r\n",
      "   midi.NoteOnEvent(tick=384, channel=1, data=[84, 0]),\r\n",
      "   midi.NoteOnEvent(tick=384, channel=1, data=[69, 100]),\r\n",
      "   midi.NoteOnEvent(tick=384, channel=1, data=[69, 0]),\r\n",
      "   midi.NoteOnEvent(tick=384, channel=1, data=[69, 100]),\r\n",
      "   midi.NoteOnEvent(tick=768, channel=1, data=[69, 0]),\r\n",
      "   midi.NoteOnEvent(tick=96, channel=1, data=[71, 100]),\r\n",
      "   midi.NoteOnEvent(tick=96, channel=1, data=[71, 0]),\r\n",
      "   midi.NoteOnEvent(tick=0, channel=1, data=[73, 100]),\r\n",
      "   midi.NoteOnEvent(tick=96, channel=1, data=[73, 0]),\r\n",
      "   midi.NoteOnEvent(tick=0, channel=1, data=[75, 100]),\r\n",
      "   midi.NoteOnEvent(tick=96, channel=1, data=[75, 0]),\r\n",
      "   midi.NoteOnEvent(tick=0, channel=1, data=[76, 100]),\r\n",
      "   midi.NoteOnEvent(tick=96, channel=1, data=[76, 0]),\r\n",
      "   midi.NoteOnEvent(tick=0, channel=1, data=[78, 100]),\r\n",
      "   midi.NoteOnEvent(tick=96, channel=1, data=[78, 0]),\r\n",
      "   midi.NoteOnEvent(tick=0, channel=1, data=[79, 100]),\r\n",
      "   midi.NoteOnEvent(tick=96, channel=1, data=[79, 0]),\r\n",
      "   midi.NoteOnEvent(tick=0, channel=1, data=[81, 100]),\r\n",
      "   midi.NoteOnEvent(tick=96, channel=1, data=[81, 0]),\r\n",
      "   midi.NoteOnEvent(tick=0, channel=1, data=[83, 100]),\r\n",
      "   midi.NoteOnEvent(tick=192, channel=1, data=[83, 0]),\r\n",
      "   midi.NoteOnEvent(tick=0, channel=1, data=[76, 100]),\r\n",
      "   midi.NoteOnEvent(tick=192, channel=1, data=[76, 0]),\r\n",
      "   midi.NoteOnEvent(tick=0, channel=1, data=[78, 100]),\r\n",
      "   midi.NoteOnEvent(tick=192, channel=1, data=[78, 0]),\r\n",
      "   midi.NoteOnEvent(tick=0, channel=1, data=[75, 100]),\r\n",
      "   midi.NoteOnEvent(tick=192, channel=1, data=[75, 0]),\r\n",
      "   midi.NoteOnEvent(tick=0, channel=1, data=[76, 100]),\r\n",
      "   midi.NoteOnEvent(tick=96, channel=1, data=[76, 0]),\r\n",
      "   midi.NoteOnEvent(tick=0, channel=1, data=[74, 100]),\r\n",
      "   midi.NoteOnEvent(tick=96, channel=1, data=[74, 0]),\r\n",
      "   midi.NoteOnEvent(tick=0, channel=1, data=[72, 100]),\r\n",
      "   midi.NoteOnEvent(tick=96, channel=1, data=[72, 0]),\r\n",
      "   midi.NoteOnEvent(tick=0, channel=1, data=[71, 100]),\r\n",
      "   midi.NoteOnEvent(tick=96, channel=1, data=[71, 0]),\r\n",
      "   midi.NoteOnEvent(tick=0, channel=1, data=[69, 100]),\r\n",
      "   midi.NoteOnEvent(tick=192, channel=1, data=[69, 0]),\r\n",
      "   midi.NoteOnEvent(tick=0, channel=1, data=[69, 100]),\r\n",
      "   midi.NoteOnEvent(tick=192, channel=1, data=[69, 0]),\r\n",
      "   midi.NoteOnEvent(tick=0, channel=1, data=[69, 100]),\r\n",
      "   midi.NoteOnEvent(tick=96, channel=1, data=[69, 0]),\r\n",
      "   midi.NoteOnEvent(tick=0, channel=1, data=[71, 100]),\r\n",
      "   midi.NoteOnEvent(tick=96, channel=1, data=[71, 0]),\r\n",
      "   midi.NoteOnEvent(tick=0, channel=1, data=[72, 100]),\r\n",
      "   midi.NoteOnEvent(tick=288, channel=1, data=[72, 0]),\r\n",
      "   midi.NoteOnEvent(tick=0, channel=1, data=[71, 100]),\r\n",
      "   midi.NoteOnEvent(tick=96, channel=1, data=[71, 0]),\r\n",
      "   midi.NoteOnEvent(tick=0, channel=1, data=[69, 100]),\r\n",
      "   midi.NoteOnEvent(tick=96, channel=1, data=[69, 0]),\r\n",
      "   midi.NoteOnEvent(tick=0, channel=1, data=[67, 100]),\r\n",
      "   midi.NoteOnEvent(tick=96, channel=1, data=[67, 0]),\r\n",
      "   midi.NoteOnEvent(tick=0, channel=1, data=[66, 100]),\r\n",
      "   midi.NoteOnEvent(tick=96, channel=1, data=[66, 0]),\r\n",
      "   midi.NoteOnEvent(tick=0, channel=1, data=[67, 100]),\r\n",
      "   midi.NoteOnEvent(tick=96, channel=1, data=[67, 0]),\r\n",
      "   midi.NoteOnEvent(tick=0, channel=1, data=[69, 100]),\r\n",
      "   midi.NoteOnEvent(tick=288, channel=1, data=[69, 0]),\r\n",
      "   midi.NoteOnEvent(tick=0, channel=1, data=[67, 100]),\r\n",
      "   midi.NoteOnEvent(tick=96, channel=1, data=[67, 0]),\r\n",
      "   midi.NoteOnEvent(tick=0, channel=1, data=[66, 100]),\r\n",
      "   midi.NoteOnEvent(tick=96, channel=1, data=[66, 0]),\r\n",
      "   midi.NoteOnEvent(tick=0, channel=1, data=[64, 100]),\r\n",
      "   midi.NoteOnEvent(tick=96, channel=1, data=[64, 0]),\r\n",
      "   midi.NoteOnEvent(tick=0, channel=1, data=[63, 100]),\r\n",
      "   midi.NoteOnEvent(tick=192, channel=1, data=[63, 0]),\r\n",
      "   midi.NoteOnEvent(tick=0, channel=1, data=[71, 100]),\r\n",
      "   midi.NoteOnEvent(tick=192, channel=1, data=[71, 0]),\r\n",
      "   midi.NoteOnEvent(tick=0, channel=1, data=[67, 100]),\r\n",
      "   midi.NoteOnEvent(tick=192, channel=1, data=[67, 0]),\r\n",
      "   midi.NoteOnEvent(tick=0, channel=1, data=[66, 100]),\r\n",
      "   midi.NoteOnEvent(tick=96, channel=1, data=[66, 0]),\r\n",
      "   midi.NoteOnEvent(tick=0, channel=1, data=[64, 100]),\r\n",
      "   midi.NoteOnEvent(tick=96, channel=1, data=[64, 0]),\r\n",
      "   midi.NoteOnEvent(tick=0, channel=1, data=[64, 100]),\r\n",
      "   midi.NoteOnEvent(tick=384, channel=1, data=[64, 0]),\r\n",
      "   midi.NoteOnEvent(tick=576, channel=1, data=[71, 100]),\r\n",
      "   midi.NoteOnEvent(tick=192, channel=1, data=[71, 0]),\r\n",
      "   midi.NoteOnEvent(tick=0, channel=1, data=[76, 100]),\r\n",
      "   midi.NoteOnEvent(tick=192, channel=1, data=[76, 0]),\r\n",
      "   midi.NoteOnEvent(tick=384, channel=1, data=[75, 100]),\r\n",
      "   midi.NoteOnEvent(tick=96, channel=1, data=[75, 0]),\r\n",
      "   midi.NoteOnEvent(tick=0, channel=1, data=[76, 100]),\r\n",
      "   midi.NoteOnEvent(tick=96, channel=1, data=[76, 0]),\r\n",
      "   midi.NoteOnEvent(tick=0, channel=1, data=[78, 100]),\r\n",
      "   midi.NoteOnEvent(tick=192, channel=1, data=[78, 0]),\r\n",
      "   midi.NoteOnEvent(tick=384, channel=1, data=[71, 100]),\r\n",
      "   midi.NoteOnEvent(tick=192, channel=1, data=[71, 0]),\r\n",
      "   midi.NoteOnEvent(tick=0, channel=1, data=[78, 100]),\r\n",
      "   midi.NoteOnEvent(tick=192, channel=1, data=[78, 0]),\r\n",
      "   midi.NoteOnEvent(tick=384, channel=1, data=[76, 100]),\r\n",
      "   midi.NoteOnEvent(tick=96, channel=1, data=[76, 0]),\r\n",
      "   midi.NoteOnEvent(tick=0, channel=1, data=[78, 100]),\r\n",
      "   midi.NoteOnEvent(tick=96, channel=1, data=[78, 0]),\r\n",
      "   midi.NoteOnEvent(tick=0, channel=1, data=[79, 100]),\r\n",
      "   midi.NoteOnEvent(tick=192, channel=1, data=[79, 0]),\r\n",
      "   midi.NoteOnEvent(tick=0, channel=1, data=[76, 100]),\r\n",
      "   midi.NoteOnEvent(tick=192, channel=1, data=[76, 0]),\r\n",
      "   midi.NoteOnEvent(tick=0, channel=1, data=[78, 100]),\r\n",
      "   midi.NoteOnEvent(tick=384, channel=1, data=[78, 0]),\r\n",
      "   midi.NoteOnEvent(tick=0, channel=1, data=[80, 100]),\r\n",
      "   midi.NoteOnEvent(tick=384, channel=1, data=[80, 0]),\r\n",
      "   midi.NoteOnEvent(tick=0, channel=1, data=[81, 100]),\r\n",
      "   midi.NoteOnEvent(tick=384, channel=1, data=[81, 0]),\r\n",
      "   midi.NoteOnEvent(tick=0, channel=1, data=[83, 100]),\r\n",
      "   midi.NoteOnEvent(tick=384, channel=1, data=[83, 0]),\r\n",
      "   midi.NoteOnEvent(tick=0, channel=1, data=[84, 100]),\r\n",
      "   midi.NoteOnEvent(tick=192, channel=1, data=[84, 0]),\r\n",
      "   midi.NoteOnEvent(tick=0, channel=1, data=[76, 100]),\r\n",
      "   midi.NoteOnEvent(tick=192, channel=1, data=[76, 0]),\r\n",
      "   midi.NoteOnEvent(tick=0, channel=1, data=[73, 100]),\r\n",
      "   midi.NoteOnEvent(tick=384, channel=1, data=[73, 0]),\r\n",
      "   midi.NoteOnEvent(tick=0, channel=1, data=[74, 100]),\r\n",
      "   midi.NoteOnEvent(tick=384, channel=1, data=[74, 0]),\r\n",
      "   midi.NoteOnEvent(tick=0, channel=1, data=[76, 100]),\r\n",
      "   midi.NoteOnEvent(tick=384, channel=1, data=[76, 0]),\r\n",
      "   midi.NoteOnEvent(tick=0, channel=1, data=[77, 100]),\r\n",
      "   midi.NoteOnEvent(tick=192, channel=1, data=[77, 0]),\r\n",
      "   midi.NoteOnEvent(tick=0, channel=1, data=[69, 100]),\r\n",
      "   midi.NoteOnEvent(tick=192, channel=1, data=[69, 0]),\r\n",
      "   midi.NoteOnEvent(tick=0, channel=1, data=[66, 100]),\r\n",
      "   midi.NoteOnEvent(tick=384, channel=1, data=[66, 0]),\r\n",
      "   midi.NoteOnEvent(tick=0, channel=1, data=[67, 100]),\r\n",
      "   midi.NoteOnEvent(tick=384, channel=1, data=[67, 0]),\r\n",
      "   midi.NoteOnEvent(tick=0, channel=1, data=[69, 100]),\r\n",
      "   midi.NoteOnEvent(tick=384, channel=1, data=[69, 0]),\r\n",
      "   midi.NoteOnEvent(tick=0, channel=1, data=[71, 100]),\r\n",
      "   midi.NoteOnEvent(tick=384, channel=1, data=[71, 0]),\r\n",
      "   midi.NoteOnEvent(tick=0, channel=1, data=[71, 100]),\r\n",
      "   midi.NoteOnEvent(tick=384, channel=1, data=[71, 0]),\r\n",
      "   midi.NoteOnEvent(tick=0, channel=1, data=[72, 100]),\r\n",
      "   midi.NoteOnEvent(tick=384, channel=1, data=[72, 0]),\r\n",
      "   midi.NoteOnEvent(tick=0, channel=1, data=[74, 100]),\r\n",
      "   midi.NoteOnEvent(tick=384, channel=1, data=[74, 0]),\r\n",
      "   midi.NoteOnEvent(tick=0, channel=1, data=[76, 100]),\r\n",
      "   midi.NoteOnEvent(tick=384, channel=1, data=[76, 0]),\r\n",
      "   midi.NoteOnEvent(tick=0, channel=1, data=[76, 100]),\r\n",
      "   midi.NoteOnEvent(tick=384, channel=1, data=[76, 0]),\r\n",
      "   midi.NoteOnEvent(tick=0, channel=1, data=[77, 100]),\r\n",
      "   midi.NoteOnEvent(tick=384, channel=1, data=[77, 0]),\r\n",
      "   midi.NoteOnEvent(tick=0, channel=1, data=[79, 100]),\r\n",
      "   midi.NoteOnEvent(tick=384, channel=1, data=[79, 0]),\r\n",
      "   midi.NoteOnEvent(tick=0, channel=1, data=[81, 100]),\r\n",
      "   midi.NoteOnEvent(tick=384, channel=1, data=[81, 0]),\r\n",
      "   midi.NoteOnEvent(tick=1728, channel=1, data=[69, 100]),\r\n",
      "   midi.NoteOnEvent(tick=192, channel=1, data=[69, 0]),\r\n",
      "   midi.NoteOnEvent(tick=0, channel=1, data=[74, 100]),\r\n",
      "   midi.NoteOnEvent(tick=384, channel=1, data=[74, 0]),\r\n",
      "   midi.NoteOnEvent(tick=192, channel=1, data=[69, 100]),\r\n",
      "   midi.NoteOnEvent(tick=192, channel=1, data=[69, 0]),\r\n",
      "   midi.NoteOnEvent(tick=0, channel=1, data=[70, 100]),\r\n",
      "   midi.NoteOnEvent(tick=384, channel=1, data=[70, 0]),\r\n",
      "   midi.NoteOnEvent(tick=192, channel=1, data=[67, 100]),\r\n",
      "   midi.NoteOnEvent(tick=192, channel=1, data=[67, 0]),\r\n",
      "   midi.NoteOnEvent(tick=0, channel=1, data=[69, 100]),\r\n",
      "   midi.NoteOnEvent(tick=96, channel=1, data=[69, 0]),\r\n",
      "   midi.NoteOnEvent(tick=0, channel=1, data=[67, 100]),\r\n",
      "   midi.NoteOnEvent(tick=96, channel=1, data=[67, 0]),\r\n",
      "   midi.NoteOnEvent(tick=0, channel=1, data=[65, 100]),\r\n",
      "   midi.NoteOnEvent(tick=96, channel=1, data=[65, 0]),\r\n",
      "   midi.NoteOnEvent(tick=0, channel=1, data=[69, 100]),\r\n",
      "   midi.NoteOnEvent(tick=96, channel=1, data=[69, 0]),\r\n",
      "   midi.NoteOnEvent(tick=0, channel=1, data=[67, 100]),\r\n",
      "   midi.NoteOnEvent(tick=96, channel=1, data=[67, 0]),\r\n",
      "   midi.NoteOnEvent(tick=0, channel=1, data=[65, 100]),\r\n",
      "   midi.NoteOnEvent(tick=96, channel=1, data=[65, 0]),\r\n",
      "   midi.NoteOnEvent(tick=0, channel=1, data=[64, 100]),\r\n",
      "   midi.NoteOnEvent(tick=96, channel=1, data=[64, 0]),\r\n",
      "   midi.NoteOnEvent(tick=0, channel=1, data=[67, 100]),\r\n",
      "   midi.NoteOnEvent(tick=96, channel=1, data=[67, 0]),\r\n",
      "   midi.NoteOnEvent(tick=0, channel=1, data=[65, 100]),\r\n",
      "   midi.NoteOnEvent(tick=192, channel=1, data=[65, 0]),\r\n",
      "   midi.NoteOnEvent(tick=0, channel=1, data=[62, 100]),\r\n",
      "   midi.NoteOnEvent(tick=192, channel=1, data=[62, 0]),\r\n",
      "   midi.NoteOnEvent(tick=0, channel=1, data=[72, 100]),\r\n",
      "   midi.NoteOnEvent(tick=2112, channel=1, data=[72, 0]),\r",
      "\r\n",
      "   midi.NoteOnEvent(tick=0, channel=1, data=[69, 100]),\r\n",
      "   midi.NoteOnEvent(tick=192, channel=1, data=[69, 0]),\r\n",
      "   midi.NoteOnEvent(tick=0, channel=1, data=[65, 100]),\r\n",
      "   midi.NoteOnEvent(tick=192, channel=1, data=[65, 0]),\r\n",
      "   midi.NoteOnEvent(tick=0, channel=1, data=[70, 100]),\r\n",
      "   midi.NoteOnEvent(tick=192, channel=1, data=[70, 0]),\r\n",
      "   midi.NoteOnEvent(tick=0, channel=1, data=[72, 100]),\r\n",
      "   midi.NoteOnEvent(tick=1728, channel=1, data=[72, 0]),\r\n",
      "   midi.NoteOnEvent(tick=0, channel=1, data=[72, 100]),\r\n",
      "   midi.NoteOnEvent(tick=192, channel=1, data=[72, 0]),\r\n",
      "   midi.NoteOnEvent(tick=0, channel=1, data=[69, 100]),\r\n",
      "   midi.NoteOnEvent(tick=192, channel=1, data=[69, 0]),\r\n",
      "   midi.NoteOnEvent(tick=0, channel=1, data=[65, 100]),\r\n",
      "   midi.NoteOnEvent(tick=192, channel=1, data=[65, 0]),\r\n",
      "   midi.NoteOnEvent(tick=0, channel=1, data=[70, 100]),\r\n",
      "   midi.NoteOnEvent(tick=192, channel=1, data=[70, 0]),\r\n",
      "   midi.NoteOnEvent(tick=0, channel=1, data=[74, 100]),\r\n",
      "   midi.NoteOnEvent(tick=192, channel=1, data=[74, 0]),\r\n",
      "   midi.NoteOnEvent(tick=0, channel=1, data=[74, 100]),\r\n",
      "   midi.NoteOnEvent(tick=192, channel=1, data=[74, 0]),\r\n",
      "   midi.NoteOnEvent(tick=0, channel=1, data=[74, 100]),\r\n",
      "   midi.NoteOnEvent(tick=192, channel=1, data=[74, 0]),\r\n",
      "   midi.NoteOnEvent(tick=0, channel=1, data=[74, 100]),\r\n",
      "   midi.NoteOnEvent(tick=192, channel=1, data=[74, 0]),\r\n",
      "   midi.NoteOnEvent(tick=0, channel=1, data=[74, 100]),\r\n",
      "   midi.NoteOnEvent(tick=192, channel=1, data=[74, 0]),\r\n",
      "   midi.NoteOnEvent(tick=0, channel=1, data=[74, 100]),\r\n",
      "   midi.NoteOnEvent(tick=192, channel=1, data=[74, 0]),\r\n",
      "   midi.NoteOnEvent(tick=0, channel=1, data=[74, 100]),\r\n",
      "   midi.NoteOnEvent(tick=192, channel=1, data=[74, 0]),\r\n",
      "   midi.NoteOnEvent(tick=0, channel=1, data=[74, 100]),\r\n",
      "   midi.NoteOnEvent(tick=192, channel=1, data=[74, 0]),\r\n",
      "   midi.NoteOnEvent(tick=0, channel=1, data=[79, 100]),\r\n",
      "   midi.NoteOnEvent(tick=96, channel=1, data=[79, 0]),\r\n",
      "   midi.NoteOnEvent(tick=0, channel=1, data=[81, 100]),\r\n",
      "   midi.NoteOnEvent(tick=96, channel=1, data=[81, 0]),\r\n",
      "   midi.NoteOnEvent(tick=0, channel=1, data=[79, 100]),\r\n",
      "   midi.NoteOnEvent(tick=96, channel=1, data=[79, 0]),\r\n",
      "   midi.NoteOnEvent(tick=0, channel=1, data=[77, 100]),\r\n",
      "   midi.NoteOnEvent(tick=96, channel=1, data=[77, 0]),\r\n",
      "   midi.NoteOnEvent(tick=0, channel=1, data=[76, 100]),\r\n",
      "   midi.NoteOnEvent(tick=96, channel=1, data=[76, 0]),\r\n",
      "   midi.NoteOnEvent(tick=0, channel=1, data=[74, 100]),\r\n",
      "   midi.NoteOnEvent(tick=96, channel=1, data=[74, 0]),\r\n",
      "   midi.NoteOnEvent(tick=0, channel=1, data=[73, 100]),\r\n",
      "   midi.NoteOnEvent(tick=192, channel=1, data=[73, 0]),\r\n",
      "   midi.NoteOnEvent(tick=0, channel=1, data=[73, 100]),\r\n",
      "   midi.NoteOnEvent(tick=192, channel=1, data=[73, 0]),\r\n",
      "   midi.NoteOnEvent(tick=0, channel=1, data=[73, 100]),\r\n",
      "   midi.NoteOnEvent(tick=192, channel=1, data=[73, 0]),\r\n",
      "   midi.NoteOnEvent(tick=0, channel=1, data=[73, 100]),\r\n",
      "   midi.NoteOnEvent(tick=192, channel=1, data=[73, 0]),\r\n",
      "   midi.NoteOnEvent(tick=0, channel=1, data=[73, 100]),\r\n",
      "   midi.NoteOnEvent(tick=192, channel=1, data=[73, 0]),\r\n",
      "   midi.NoteOnEvent(tick=0, channel=1, data=[73, 100]),\r\n",
      "   midi.NoteOnEvent(tick=192, channel=1, data=[73, 0]),\r\n",
      "   midi.NoteOnEvent(tick=0, channel=1, data=[73, 100]),\r\n",
      "   midi.NoteOnEvent(tick=192, channel=1, data=[73, 0]),\r\n",
      "   midi.NoteOnEvent(tick=0, channel=1, data=[73, 100]),\r\n",
      "   midi.NoteOnEvent(tick=192, channel=1, data=[73, 0]),\r\n",
      "   midi.NoteOnEvent(tick=0, channel=1, data=[74, 100]),\r\n",
      "   midi.NoteOnEvent(tick=192, channel=1, data=[74, 0]),\r\n",
      "   midi.NoteOnEvent(tick=0, channel=1, data=[69, 100]),\r\n",
      "   midi.NoteOnEvent(tick=192, channel=1, data=[69, 0]),\r\n",
      "   midi.NoteOnEvent(tick=0, channel=1, data=[77, 100]),\r\n",
      "   midi.NoteOnEvent(tick=576, channel=1, data=[77, 0]),\r\n",
      "   midi.NoteOnEvent(tick=0, channel=1, data=[79, 100]),\r\n",
      "   midi.NoteOnEvent(tick=96, channel=1, data=[79, 0]),\r\n",
      "   midi.NoteOnEvent(tick=0, channel=1, data=[81, 100]),\r\n",
      "   midi.NoteOnEvent(tick=96, channel=1, data=[81, 0]),\r\n",
      "   midi.NoteOnEvent(tick=0, channel=1, data=[79, 100]),\r\n",
      "   midi.NoteOnEvent(tick=192, channel=1, data=[79, 0]),\r\n",
      "   midi.NoteOnEvent(tick=0, channel=1, data=[77, 100]),\r\n",
      "   midi.NoteOnEvent(tick=192, channel=1, data=[77, 0]),\r\n",
      "   midi.NoteOnEvent(tick=0, channel=1, data=[76, 100]),\r\n",
      "   midi.NoteOnEvent(tick=192, channel=1, data=[76, 0]),\r\n",
      "   midi.NoteOnEvent(tick=0, channel=1, data=[67, 100]),\r\n",
      "   midi.NoteOnEvent(tick=192, channel=1, data=[67, 0]),\r\n",
      "   midi.NoteOnEvent(tick=0, channel=1, data=[76, 100]),\r\n",
      "   midi.NoteOnEvent(tick=576, channel=1, data=[76, 0]),\r\n",
      "   midi.NoteOnEvent(tick=0, channel=1, data=[77, 100]),\r\n",
      "   midi.NoteOnEvent(tick=96, channel=1, data=[77, 0]),\r\n",
      "   midi.NoteOnEvent(tick=0, channel=1, data=[79, 100]),\r\n",
      "   midi.NoteOnEvent(tick=96, channel=1, data=[79, 0]),\r\n",
      "   midi.NoteOnEvent(tick=0, channel=1, data=[77, 100]),\r\n",
      "   midi.NoteOnEvent(tick=192, channel=1, data=[77, 0]),\r\n",
      "   midi.NoteOnEvent(tick=0, channel=1, data=[76, 100]),\r\n",
      "   midi.NoteOnEvent(tick=192, channel=1, data=[76, 0]),\r\n",
      "   midi.NoteOnEvent(tick=0, channel=1, data=[74, 100]),\r\n",
      "   midi.NoteOnEvent(tick=192, channel=1, data=[74, 0]),\r\n",
      "   midi.NoteOnEvent(tick=0, channel=1, data=[68, 100]),\r\n",
      "   midi.NoteOnEvent(tick=192, channel=1, data=[68, 0]),\r\n",
      "   midi.NoteOnEvent(tick=0, channel=1, data=[74, 100]),\r\n",
      "   midi.NoteOnEvent(tick=576, channel=1, data=[74, 0]),\r\n",
      "   midi.NoteOnEvent(tick=0, channel=1, data=[72, 100]),\r\n",
      "   midi.NoteOnEvent(tick=192, channel=1, data=[72, 0]),\r\n",
      "   midi.NoteOnEvent(tick=0, channel=1, data=[71, 100]),\r\n",
      "   midi.NoteOnEvent(tick=192, channel=1, data=[71, 0]),\r\n",
      "   midi.NoteOnEvent(tick=0, channel=1, data=[69, 100]),\r\n",
      "   midi.NoteOnEvent(tick=0, channel=1, data=[76, 100]),\r\n",
      "   midi.NoteOnEvent(tick=192, channel=1, data=[76, 0]),\r\n",
      "   midi.NoteOnEvent(tick=0, channel=1, data=[69, 0]),\r\n",
      "   midi.NoteOnEvent(tick=0, channel=1, data=[81, 100]),\r\n",
      "   midi.NoteOnEvent(tick=384, channel=1, data=[81, 0]),\r\n",
      "   midi.NoteOnEvent(tick=192, channel=1, data=[76, 100]),\r\n",
      "   midi.NoteOnEvent(tick=192, channel=1, data=[76, 0]),\r\n",
      "   midi.NoteOnEvent(tick=0, channel=1, data=[77, 100]),\r\n",
      "   midi.NoteOnEvent(tick=384, channel=1, data=[77, 0]),\r\n",
      "   midi.NoteOnEvent(tick=192, channel=1, data=[74, 100]),\r\n",
      "   midi.NoteOnEvent(tick=192, channel=1, data=[74, 0]),\r\n",
      "   midi.NoteOnEvent(tick=0, channel=1, data=[76, 100]),\r\n",
      "   midi.NoteOnEvent(tick=96, channel=1, data=[76, 0]),\r\n",
      "   midi.NoteOnEvent(tick=0, channel=1, data=[74, 100]),\r\n",
      "   midi.NoteOnEvent(tick=96, channel=1, data=[74, 0]),\r\n",
      "   midi.NoteOnEvent(tick=0, channel=1, data=[72, 100]),\r\n",
      "   midi.NoteOnEvent(tick=96, channel=1, data=[72, 0]),\r\n",
      "   midi.NoteOnEvent(tick=0, channel=1, data=[76, 100]),\r\n",
      "   midi.NoteOnEvent(tick=96, channel=1, data=[76, 0]),\r\n",
      "   midi.NoteOnEvent(tick=0, channel=1, data=[74, 100]),\r\n",
      "   midi.NoteOnEvent(tick=96, channel=1, data=[74, 0]),\r\n",
      "   midi.NoteOnEvent(tick=0, channel=1, data=[72, 100]),\r\n",
      "   midi.NoteOnEvent(tick=96, channel=1, data=[72, 0]),\r\n",
      "   midi.NoteOnEvent(tick=0, channel=1, data=[71, 100]),\r\n",
      "   midi.NoteOnEvent(tick=96, channel=1, data=[71, 0]),\r\n",
      "   midi.NoteOnEvent(tick=0, channel=1, data=[74, 100]),\r\n",
      "   midi.NoteOnEvent(tick=96, channel=1, data=[74, 0]),\r\n",
      "   midi.NoteOnEvent(tick=0, channel=1, data=[72, 100]),\r\n",
      "   midi.NoteOnEvent(tick=192, channel=1, data=[72, 0]),\r\n",
      "   midi.NoteOnEvent(tick=0, channel=1, data=[69, 100]),\r\n",
      "   midi.NoteOnEvent(tick=192, channel=1, data=[69, 0]),\r\n",
      "   midi.NoteOnEvent(tick=960, channel=1, data=[76, 100]),\r\n",
      "   midi.NoteOnEvent(tick=192, channel=1, data=[76, 0]),\r\n",
      "   midi.NoteOnEvent(tick=0, channel=1, data=[69, 100]),\r\n",
      "   midi.NoteOnEvent(tick=192, channel=1, data=[69, 0]),\r\n",
      "   midi.NoteOnEvent(tick=0, channel=1, data=[74, 100]),\r\n",
      "   midi.NoteOnEvent(tick=192, channel=1, data=[74, 0]),\r\n",
      "   midi.NoteOnEvent(tick=0, channel=1, data=[67, 100]),\r\n",
      "   midi.NoteOnEvent(tick=192, channel=1, data=[67, 0]),\r\n",
      "   midi.NoteOnEvent(tick=0, channel=1, data=[73, 100]),\r\n",
      "   midi.NoteOnEvent(tick=192, channel=1, data=[73, 0]),\r\n",
      "   midi.NoteOnEvent(tick=0, channel=1, data=[74, 100]),\r\n",
      "   midi.NoteOnEvent(tick=96, channel=1, data=[74, 0]),\r\n",
      "   midi.NoteOnEvent(tick=0, channel=1, data=[65, 100]),\r\n",
      "   midi.NoteOnEvent(tick=96, channel=1, data=[65, 0]),\r\n",
      "   midi.NoteOnEvent(tick=0, channel=1, data=[64, 100]),\r\n",
      "   midi.NoteOnEvent(tick=96, channel=1, data=[64, 0]),\r\n",
      "   midi.NoteOnEvent(tick=0, channel=1, data=[65, 100]),\r\n",
      "   midi.NoteOnEvent(tick=96, channel=1, data=[65, 0]),\r\n",
      "   midi.NoteOnEvent(tick=0, channel=1, data=[62, 100]),\r\n",
      "   midi.NoteOnEvent(tick=576, channel=1, data=[62, 0]),\r\n",
      "   midi.NoteOnEvent(tick=0, channel=1, data=[67, 100]),\r\n",
      "   midi.NoteOnEvent(tick=192, channel=1, data=[67, 0]),\r\n",
      "   midi.NoteOnEvent(tick=0, channel=1, data=[60, 100]),\r\n",
      "   midi.NoteOnEvent(tick=192, channel=1, data=[60, 0]),\r\n",
      "   midi.NoteOnEvent(tick=0, channel=1, data=[66, 100]),\r\n",
      "   midi.NoteOnEvent(tick=192, channel=1, data=[66, 0]),\r\n",
      "   midi.NoteOnEvent(tick=0, channel=1, data=[67, 100]),\r\n",
      "   midi.NoteOnEvent(tick=96, channel=1, data=[67, 0]),\r\n",
      "   midi.NoteOnEvent(tick=0, channel=1, data=[58, 100]),\r\n",
      "   midi.NoteOnEvent(tick=96, channel=1, data=[58, 0]),\r\n",
      "   midi.NoteOnEvent(tick=0, channel=1, data=[57, 100]),\r\n",
      "   midi.NoteOnEvent(tick=96, channel=1, data=[57, 0]),\r\n",
      "   midi.NoteOnEvent(tick=0, channel=1, data=[58, 100]),\r\n",
      "   midi.NoteOnEvent(tick=96, channel=1, data=[58, 0]),\r\n",
      "   midi.NoteOnEvent(tick=0, channel=1, data=[55, 100]),\r\n",
      "   midi.NoteOnEvent(tick=576, channel=1, data=[55, 0]),\r\n",
      "   midi.NoteOnEvent(tick=0, channel=1, data=[72, 100]),\r\n",
      "   midi.NoteOnEvent(tick=192, channel=1, data=[72, 0]),\r\n",
      "   midi.NoteOnEvent(tick=0, channel=1, data=[65, 100]),\r\n",
      "   midi.NoteOnEvent(tick=192, channel=1, data=[65, 0]),\r\n",
      "   midi.NoteOnEvent(tick=0, channel=1, data=[71, 100]),\r\n",
      "   midi.NoteOnEvent(tick=192, channel=1, data=[71, 0]),\r\n",
      "   midi.NoteOnEvent(tick=0, channel=1, data=[72, 100]),\r\n",
      "   midi.NoteOnEvent(tick=384, channel=1, data=[72, 0]),\r\n",
      "   midi.NoteOnEvent(tick=0, channel=1, data=[79, 100]),\r\n",
      "   midi.NoteOnEvent(tick=384, channel=1, data=[79, 0]),\r\n",
      "   midi.NoteOnEvent(tick=0, channel=1, data=[77, 100]),\r\n",
      "   midi.NoteOnEvent(tick=384, channel=1, data=[77, 0]),\r\n",
      "   midi.NoteOnEvent(tick=0, channel=1, data=[76, 100]),\r\n",
      "   midi.NoteOnEvent(tick=384, channel=1, data=[76, 0]),\r\n",
      "   midi.NoteOnEvent(tick=0, channel=1, data=[77, 100]),\r\n",
      "   midi.NoteOnEvent(tick=192, channel=1, data=[77, 0]),\r\n",
      "   midi.NoteOnEvent(tick=0, channel=1, data=[77, 100]),\r\n",
      "   midi.NoteOnEvent(tick=192, channel=1, data=[77, 0]),\r\n",
      "   midi.NoteOnEvent(tick=0, channel=1, data=[75, 100]),\r\n",
      "   midi.NoteOnEvent(tick=192, channel=1, data=[75, 0]),\r\n",
      "   midi.NoteOnEvent(tick=0, channel=1, data=[75, 100]),\r\n",
      "   midi.NoteOnEvent(tick=192, channel=1, data=[75, 0]),\r\n",
      "   midi.NoteOnEvent(tick=0, channel=1, data=[74, 100]),\r\n",
      "   midi.NoteOnEvent(tick=384, channel=1, data=[74, 0]),\r\n",
      "   midi.NoteOnEvent(tick=384, channel=1, data=[70, 100]),\r\n",
      "   midi.NoteOnEvent(tick=192, channel=1, data=[70, 0]),\r\n",
      "   midi.NoteOnEvent(tick=0, channel=1, data=[70, 100]),\r\n",
      "   midi.NoteOnEvent(tick=192, channel=1, data=[70, 0]),\r\n",
      "   midi.NoteOnEvent(tick=0, channel=1, data=[69, 100]),\r\n",
      "   midi.NoteOnEvent(tick=192, channel=1, data=[69, 0]),\r\n",
      "   midi.NoteOnEvent(tick=0, channel=1, data=[69, 100]),\r\n",
      "   midi.NoteOnEvent(tick=192, channel=1, data=[69, 0]),\r\n",
      "   midi.NoteOnEvent(tick=0, channel=1, data=[69, 100]),\r\n",
      "   midi.NoteOnEvent(tick=384, channel=1, data=[69, 0]),\r\n",
      "   midi.NoteOnEvent(tick=384, channel=1, data=[65, 100]),\r\n",
      "   midi.NoteOnEvent(tick=192, channel=1, data=[65, 0]),\r\n",
      "   midi.NoteOnEvent(tick=0, channel=1, data=[65, 100]),\r\n",
      "   midi.NoteOnEvent(tick=192, channel=1, data=[65, 0]),\r\n",
      "   midi.NoteOnEvent(tick=0, channel=1, data=[64, 100]),\r\n",
      "   midi.NoteOnEvent(tick=192, channel=1, data=[64, 0]),\r\n",
      "   midi.NoteOnEvent(tick=0, channel=1, data=[64, 100]),\r\n",
      "   midi.NoteOnEvent(tick=192, channel=1, data=[64, 0]),\r\n",
      "   midi.NoteOnEvent(tick=0, channel=1, data=[64, 100]),\r\n",
      "   midi.NoteOnEvent(tick=384, channel=1, data=[64, 0]),\r\n",
      "   midi.NoteOnEvent(tick=1728, channel=1, data=[76, 100]),\r\n",
      "   midi.NoteOnEvent(tick=192, channel=1, data=[76, 0]),\r\n",
      "   midi.NoteOnEvent(tick=0, channel=1, data=[81, 100]),\r\n",
      "   midi.NoteOnEvent(tick=384, channel=1, data=[81, 0]),\r\n",
      "   midi.NoteOnEvent(tick=192, channel=1, data=[76, 100]),\r\n",
      "   midi.NoteOnEvent(tick=192, channel=1, data=[76, 0]),\r\n",
      "   midi.NoteOnEvent(tick=0, channel=1, data=[77, 100]),\r\n",
      "   midi.NoteOnEvent(tick=384, channel=1, data=[77, 0]),\r\n",
      "   midi.NoteOnEvent(tick=192, channel=1, data=[74, 100]),\r\n",
      "   midi.NoteOnEvent(tick=192, channel=1, data=[74, 0]),\r\n",
      "   midi.NoteOnEvent(tick=0, channel=1, data=[76, 100]),\r\n",
      "   midi.NoteOnEvent(tick=96, channel=1, data=[76, 0]),\r\n",
      "   midi.NoteOnEvent(tick=0, channel=1, data=[74, 100]),\r\n",
      "   midi.NoteOnEvent(tick=96, channel=1, data=[74, 0]),\r\n",
      "   midi.NoteOnEvent(tick=0, channel=1, data=[72, 100]),\r\n",
      "   midi.NoteOnEvent(tick=96, channel=1, data=[72, 0]),\r\n",
      "   midi.NoteOnEvent(tick=0, channel=1, data=[76, 100]),\r\n",
      "   midi.NoteOnEvent(tick=96, channel=1, data=[76, 0]),\r\n",
      "   midi.NoteOnEvent(tick=0, channel=1, data=[74, 100]),\r\n",
      "   midi.NoteOnEvent(tick=96, channel=1, data=[74, 0]),\r\n",
      "   midi.NoteOnEvent(tick=0, channel=1, data=[72, 100]),\r\n",
      "   midi.NoteOnEvent(tick=96, channel=1, data=[72, 0]),\r\n",
      "   midi.NoteOnEvent(tick=0, channel=1, data=[71, 100]),\r\n",
      "   midi.NoteOnEvent(tick=96, channel=1, data=[71, 0]),\r\n",
      "   midi.NoteOnEvent(tick=0, channel=1, data=[74, 100]),\r\n",
      "   midi.NoteOnEvent(tick=96, channel=1, data=[74, 0]),\r\n",
      "   midi.NoteOnEvent(tick=0, channel=1, data=[72, 100]),\r\n",
      "   midi.NoteOnEvent(tick=192, channel=1, data=[72, 0]),\r\n",
      "   midi.NoteOnEvent(tick=0, channel=1, data=[69, 100]),\r\n",
      "   midi.NoteOnEvent(tick=192, channel=1, data=[69, 0]),\r\n",
      "   midi.NoteOnEvent(tick=0, channel=1, data=[76, 100]),\r\n",
      "   midi.NoteOnEvent(tick=576, channel=1, data=[76, 0]),\r\n",
      "   midi.NoteOnEvent(tick=0, channel=1, data=[74, 100]),\r\n",
      "   midi.NoteOnEvent(tick=96, channel=1, data=[74, 0]),\r\n",
      "   midi.NoteOnEvent(tick=0, channel=1, data=[73, 100]),\r\n",
      "   midi.NoteOnEvent(tick=96, channel=1, data=[73, 0]),\r\n",
      "   midi.NoteOnEvent(tick=0, channel=1, data=[74, 100]),\r\n",
      "   midi.NoteOnEvent(tick=192, channel=1, data=[74, 0]),\r\n",
      "   midi.NoteOnEvent(tick=0, channel=1, data=[77, 100]),\r\n",
      "   midi.NoteOnEvent(tick=384, channel=1, data=[77, 0]),\r\n",
      "   midi.NoteOnEvent(tick=0, channel=1, data=[71, 100]),\r\n",
      "   midi.NoteOnEvent(tick=192, channel=1, data=[71, 0]),\r\n",
      "   midi.NoteOnEvent(tick=1344, channel=1, data=[67, 100]),\r\n",
      "   midi.NoteOnEvent(tick=192, channel=1, data=[67, 0]),\r\n",
      "   midi.NoteOnEvent(tick=0, channel=1, data=[74, 100]),\r\n",
      "   midi.NoteOnEvent(tick=576, channel=1, data=[74, 0]),\r\n",
      "   midi.NoteOnEvent(tick=0, channel=1, data=[72, 100]),\r\n",
      "   midi.NoteOnEvent(tick=96, channel=1, data=[72, 0]),\r\n",
      "   midi.NoteOnEvent(tick=0, channel=1, data=[71, 100]),\r\n",
      "   midi.NoteOnEvent(tick=96, channel=1, data=[71, 0]),\r\n",
      "   midi.NoteOnEvent(tick=0, channel=1, data=[72, 100]),\r\n",
      "   midi.NoteOnEvent(tick=192, channel=1, data=[72, 0]),\r\n",
      "   midi.NoteOnEvent(tick=0, channel=1, data=[76, 100]),\r\n",
      "   midi.NoteOnEvent(tick=384, channel=1, data=[76, 0]),\r\n",
      "   midi.NoteOnEvent(tick=0, channel=1, data=[69, 100]),\r\n",
      "   midi.NoteOnEvent(tick=192, channel=1, data=[69, 0]),\r\n",
      "   midi.NoteOnEvent(tick=1344, channel=1, data=[65, 100]),\r\n",
      "   midi.NoteOnEvent(tick=192, channel=1, data=[65, 0]),\r\n",
      "   midi.NoteOnEvent(tick=0, channel=1, data=[72, 100]),\r\n",
      "   midi.NoteOnEvent(tick=576, channel=1, data=[72, 0]),\r\n",
      "   midi.NoteOnEvent(tick=0, channel=1, data=[71, 100]),\r\n",
      "   midi.NoteOnEvent(tick=96, channel=1, data=[71, 0]),\r\n",
      "   midi.NoteOnEvent(tick=0, channel=1, data=[72, 100]),\r\n",
      "   midi.NoteOnEvent(tick=96, channel=1, data=[72, 0]),\r\n",
      "   midi.NoteOnEvent(tick=0, channel=1, data=[74, 100]),\r\n",
      "   midi.NoteOnEvent(tick=192, channel=1, data=[74, 0]),\r\n",
      "   midi.NoteOnEvent(tick=0, channel=1, data=[65, 100]),\r\n",
      "   midi.NoteOnEvent(tick=192, channel=1, data=[65, 0]),\r\n",
      "   midi.NoteOnEvent(tick=0, channel=1, data=[64, 100]),\r\n",
      "   midi.NoteOnEvent(tick=192, channel=1, data=[64, 0]),\r\n",
      "   midi.NoteOnEvent(tick=0, channel=1, data=[74, 100]),\r\n",
      "   midi.NoteOnEvent(tick=192, channel=1, data=[74, 0]),\r\n",
      "   midi.NoteOnEvent(tick=0, channel=1, data=[72, 100]),\r\n",
      "   midi.NoteOnEvent(tick=192, channel=1, data=[72, 0]),\r\n",
      "   midi.NoteOnEvent(tick=0, channel=1, data=[64, 100]),\r\n",
      "   midi.NoteOnEvent(tick=192, channel=1, data=[64, 0]),\r\n",
      "   midi.NoteOnEvent(tick=0, channel=1, data=[62, 100]),\r\n",
      "   midi.NoteOnEvent(tick=96, channel=1, data=[62, 0]),\r\n",
      "   midi.NoteOnEvent(tick=0, channel=1, data=[72, 100]),\r\n",
      "   midi.NoteOnEvent(tick=96, channel=1, data=[72, 0]),\r\n",
      "   midi.NoteOnEvent(tick=0, channel=1, data=[71, 100]),\r\n",
      "   midi.NoteOnEvent(tick=96, channel=1, data=[71, 0]),\r\n",
      "   midi.NoteOnEvent(tick=0, channel=1, data=[69, 100]),\r\n",
      "   midi.NoteOnEvent(tick=96, channel=1, data=[69, 0]),\r\n",
      "   midi.NoteOnEvent(tick=0, channel=1, data=[71, 100]),\r\n",
      "   midi.NoteOnEvent(tick=96, channel=1, data=[71, 0]),\r\n",
      "   midi.NoteOnEvent(tick=0, channel=1, data=[69, 100]),\r\n",
      "   midi.NoteOnEvent(tick=96, channel=1, data=[69, 0]),\r\n",
      "   midi.NoteOnEvent(tick=0, channel=1, data=[68, 100]),\r\n",
      "   midi.NoteOnEvent(tick=96, channel=1, data=[68, 0]),\r\n",
      "   midi.NoteOnEvent(tick=0, channel=1, data=[66, 100]),\r\n",
      "   midi.NoteOnEvent(tick=96, channel=1, data=[66, 0]),\r\n",
      "   midi.NoteOnEvent(tick=0, channel=1, data=[68, 100]),\r\n",
      "   midi.NoteOnEvent(tick=192, channel=1, data=[68, 0]),\r\n",
      "   midi.NoteOnEvent(tick=0, channel=1, data=[77, 100]),\r\n",
      "   midi.NoteOnEvent(tick=192, channel=1, data=[77, 0]),\r\n",
      "   midi.NoteOnEvent(tick=0, channel=1, data=[76, 100]),\r\n",
      "   midi.NoteOnEvent(tick=192, channel=1, data=[76, 0]),\r\n",
      "   midi.NoteOnEvent(tick=0, channel=1, data=[81, 100]),\r\n",
      "   midi.NoteOnEvent(tick=192, channel=1, data=[81, 0]),\r\n",
      "   midi.NoteOnEvent(tick=0, channel=1, data=[84, 100]),\r\n",
      "   midi.NoteOnEvent(tick=384, channel=1, data=[84, 0]),\r\n",
      "   midi.NoteOnEvent(tick=0, channel=1, data=[83, 100]),\r\n",
      "   midi.NoteOnEvent(tick=48, channel=1, data=[83, 0]),\r\n",
      "   midi.NoteOnEvent(tick=0, channel=1, data=[84, 100]),\r\n",
      "   midi.NoteOnEvent(tick=48, channel=1, data=[84, 0]),\r\n",
      "   midi.NoteOnEvent(tick=0, channel=1, data=[83, 100]),\r\n",
      "   midi.NoteOnEvent(tick=48, channel=1, data=[83, 0]),\r\n",
      "   midi.NoteOnEvent(tick=0, channel=1, data=[84, 100]),\r\n",
      "   midi.NoteOnEvent(tick=48, channel=1, data=[84, 0]),\r\n",
      "   midi.NoteOnEvent(tick=0, channel=1, data=[83, 100]),\r\n",
      "   midi.NoteOnEvent(tick=48, channel=1, data=[83, 0]),\r\n",
      "   midi.NoteOnEvent(tick=0, channel=1, data=[84, 100]),\r\n",
      "   midi.NoteOnEvent(tick=48, channel=1, data=[84, 0]),\r\n",
      "   midi.NoteOnEvent(tick=0, channel=1, data=[83, 100]),\r\n",
      "   midi.NoteOnEvent(tick=48, channel=1, data=[83, 0]),\r\n",
      "   midi.NoteOnEvent(tick=0, channel=1, data=[84, 100]),\r\n",
      "   midi.NoteOnEvent(tick=48, channel=1, data=[84, 0]),\r\n",
      "   midi.NoteOnEvent(tick=0, channel=1, data=[83, 100]),\r\n",
      "   midi.NoteOnEvent(tick=384, channel=1, data=[83, 0]),\r\n",
      "   midi.NoteOnEvent(tick=384, channel=1, data=[74, 100]),\r\n",
      "   midi.NoteOnEvent(tick=384, channel=1, data=[74, 0]),\r\n",
      "   midi.NoteOnEvent(tick=384, channel=1, data=[77, 100]),\r\n",
      "   midi.NoteOnEvent(tick=384, channel=1, data=[77, 0]),\r\n",
      "   midi.NoteOnEvent(tick=384, channel=1, data=[74, 100]),\r\n",
      "   midi.NoteOnEvent(tick=384, channel=1, data=[74, 0]),\r\n",
      "   midi.NoteOnEvent(tick=384, channel=1, data=[74, 100]),\r\n",
      "   midi.NoteOnEvent(tick=768, channel=1, data=[74, 0]),\r\n",
      "   midi.NoteOnEvent(tick=96, channel=1, data=[76, 100]),\r\n",
      "   midi.NoteOnEvent(tick=96, channel=1, data=[76, 0]),\r\n",
      "   midi.NoteOnEvent(tick=0, channel=1, data=[78, 100]),\r\n",
      "   midi.NoteOnEvent(tick=96, channel=1, data=[78, 0]),\r\n",
      "   midi.NoteOnEvent(tick=0, channel=1, data=[80, 100]),\r\n",
      "   midi.NoteOnEvent(tick=96, channel=1, data=[80, 0]),\r\n",
      "   midi.NoteOnEvent(tick=0, channel=1, data=[81, 100]),\r\n",
      "   midi.NoteOnEvent(tick=96, channel=1, data=[81, 0]),\r\n",
      "   midi.NoteOnEvent(tick=0, channel=1, data=[80, 100]),\r\n",
      "   midi.NoteOnEvent(tick=96, channel=1, data=[80, 0]),\r\n",
      "   midi.NoteOnEvent(tick=0, channel=1, data=[81, 100]),\r\n",
      "   midi.NoteOnEvent(tick=96, channel=1, data=[81, 0]),\r\n",
      "   midi.NoteOnEvent(tick=0, channel=1, data=[83, 100]),\r\n",
      "   midi.NoteOnEvent(tick=96, channel=1, data=[83, 0]),\r\n",
      "   midi.NoteOnEvent(tick=0, channel=1, data=[76, 100]),\r\n",
      "   midi.NoteOnEvent(tick=192, channel=1, data=[76, 0]),\r\n",
      "   midi.NoteOnEvent(tick=0, channel=1, data=[81, 100]),\r\n",
      "   midi.NoteOnEvent(tick=192, channel=1, data=[81, 0]),\r\n",
      "   midi.NoteOnEvent(tick=0, channel=1, data=[83, 100]),\r\n",
      "   midi.NoteOnEvent(tick=192, channel=1, data=[83, 0]),\r\n",
      "   midi.NoteOnEvent(tick=0, channel=1, data=[80, 100]),\r\n",
      "   midi.NoteOnEvent(tick=192, channel=1, data=[80, 0]),\r\n",
      "   midi.NoteOnEvent(tick=0, channel=1, data=[81, 100]),\r\n",
      "   midi.NoteOnEvent(tick=96, channel=1, data=[81, 0]),\r\n",
      "   midi.NoteOnEvent(tick=0, channel=1, data=[79, 100]),\r\n",
      "   midi.NoteOnEvent(tick=96, channel=1, data=[79, 0]),\r\n",
      "   midi.NoteOnEvent(tick=0, channel=1, data=[77, 100]),\r\n",
      "   midi.NoteOnEvent(tick=96, channel=1, data=[77, 0]),\r\n",
      "   midi.NoteOnEvent(tick=0, channel=1, data=[76, 100]),\r\n",
      "   midi.NoteOnEvent(tick=96, channel=1, data=[76, 0]),\r\n",
      "   midi.NoteOnEvent(tick=0, channel=1, data=[74, 100]),\r\n",
      "   midi.NoteOnEvent(tick=192, channel=1, data=[74, 0]),\r\n",
      "   midi.NoteOnEvent(tick=0, channel=1, data=[74, 100]),\r\n",
      "   midi.NoteOnEvent(tick=192, channel=1, data=[74, 0]),\r\n",
      "   midi.NoteOnEvent(tick=0, channel=1, data=[74, 100]),\r\n",
      "   midi.NoteOnEvent(tick=96, channel=1, data=[74, 0]),\r\n",
      "   midi.NoteOnEvent(tick=0, channel=1, data=[76, 100]),\r\n",
      "   midi.NoteOnEvent(tick=96, channel=1, data=[76, 0]),\r\n",
      "   midi.NoteOnEvent(tick=0, channel=1, data=[77, 100]),\r\n",
      "   midi.NoteOnEvent(tick=288, channel=1, data=[77, 0]),\r\n",
      "   midi.NoteOnEvent(tick=0, channel=1, data=[76, 100]),\r\n",
      "   midi.NoteOnEvent(tick=96, channel=1, data=[76, 0]),\r\n",
      "   midi.NoteOnEvent(tick=0, channel=1, data=[74, 100]),\r\n",
      "   midi.NoteOnEvent(tick=96, channel=1, data=[74, 0]),\r\n",
      "   midi.NoteOnEvent(tick=0, channel=1, data=[72, 100]),\r\n",
      "   midi.NoteOnEvent(tick=96, channel=1, data=[72, 0]),\r\n",
      "   midi.NoteOnEvent(tick=0, channel=1, data=[71, 100]),\r\n",
      "   midi.NoteOnEvent(tick=96, channel=1, data=[71, 0]),\r\n",
      "   midi.NoteOnEvent(tick=0, channel=1, data=[72, 100]),\r\n",
      "   midi.NoteOnEvent(tick=96, channel=1, data=[72, 0]),\r\n",
      "   midi.NoteOnEvent(tick=0, channel=1, data=[74, 100]),\r\n",
      "   midi.NoteOnEvent(tick=288, channel=1, data=[74, 0]),\r\n",
      "   midi.NoteOnEvent(tick=0, channel=1, data=[72, 100]),\r\n",
      "   midi.NoteOnEvent(tick=96, channel=1, data=[72, 0]),\r\n",
      "   midi.NoteOnEvent(tick=0, channel=1, data=[71, 100]),\r\n",
      "   midi.NoteOnEvent(tick=96, channel=1, data=[71, 0]),\r\n",
      "   midi.NoteOnEvent(tick=0, channel=1, data=[69, 100]),\r\n",
      "   midi.NoteOnEvent(tick=96, channel=1, data=[69, 0]),\r\n",
      "   midi.NoteOnEvent(tick=0, channel=1, data=[68, 100]),\r\n",
      "   midi.NoteOnEvent(tick=192, channel=1, data=[68, 0]),\r\n",
      "   midi.NoteOnEvent(tick=0, channel=1, data=[76, 100]),\r\n",
      "   midi.NoteOnEvent(tick=192, channel=1, data=[76, 0]),\r\n",
      "   midi.NoteOnEvent(tick=0, channel=1, data=[72, 100]),\r\n",
      "   midi.NoteOnEvent(tick=48, channel=1, data=[72, 0]),\r\n",
      "   midi.NoteOnEvent(tick=0, channel=1, data=[74, 100]),\r\n",
      "   midi.NoteOnEvent(tick=48, channel=1, data=[74, 0]),\r\n",
      "   midi.NoteOnEvent(tick=0, channel=1, data=[72, 100]),\r\n",
      "   midi.NoteOnEvent(tick=48, channel=1, data=[72, 0]),\r\n",
      "   midi.NoteOnEvent(tick=0, channel=1, data=[74, 100]),\r\n",
      "   midi.NoteOnEvent(tick=48, channel=1, data=[74, 0]),\r\n",
      "   midi.NoteOnEvent(tick=0, channel=1, data=[71, 100]),\r\n",
      "   midi.NoteOnEvent(tick=96, channel=1, data=[71, 0]),\r\n",
      "   midi.NoteOnEvent(tick=0, channel=1, data=[69, 100]),\r\n",
      "   midi.NoteOnEvent(tick=96, channel=1, data=[69, 0]),\r\n",
      "   midi.NoteOnEvent(tick=0, channel=1, data=[69, 100]),\r\n",
      "   midi.NoteOnEvent(tick=576, channel=1, data=[69, 0]),\r\n",
      "   midi.EndOfTrackEvent(tick=0, data=[])]),\r\n",
      " midi.Track(\\\r\n",
      "  [midi.PortEvent(tick=0, data=[0]),\r\n",
      "   midi.TrackNameEvent(tick=0, text='Violin 2', data=[86, 105, 111, 108, 105, 110, 32, 50]),\r\n",
      "   midi.ProgramChangeEvent(tick=0, channel=2, data=[40]),\r\n",
      "   midi.ControlChangeEvent(tick=0, channel=2, data=[7, 110]),\r\n",
      "   midi.ControlChangeEvent(tick=0, channel=2, data=[10, 96]),\r\n",
      "   midi.NoteOnEvent(tick=576, channel=2, data=[72, 100]),\r\n",
      "   midi.NoteOnEvent(tick=192, channel=2, data=[72, 0]),\r\n",
      "   midi.NoteOnEvent(tick=0, channel=2, data=[76, 100]),\r\n",
      "   midi.NoteOnEvent(tick=384, channel=2, data=[76, 0]),\r\n",
      "   midi.NoteOnEvent(tick=192, channel=2, data=[72, 100]),\r\n",
      "   midi.NoteOnEvent(tick=192, channel=2, data=[72, 0]),\r\n",
      "   midi.NoteOnEvent(tick=0, channel=2, data=[74, 100]),\r\n",
      "   midi.NoteOnEvent(tick=384, channel=2, data=[74, 0]),\r\n",
      "   midi.NoteOnEvent(tick=192, channel=2, data=[71, 100]),\r\n",
      "   midi.NoteOnEvent(tick=192, channel=2, data=[71, 0]),\r\n",
      "   midi.NoteOnEvent(tick=0, channel=2, data=[72, 100]),\r\n",
      "   midi.NoteOnEvent(tick=96, channel=2, data=[72, 0]),\r\n",
      "   midi.NoteOnEvent(tick=0, channel=2, data=[71, 100]),\r\n",
      "   midi.NoteOnEvent(tick=96, channel=2, data=[71, 0]),\r\n",
      "   midi.NoteOnEvent(tick=0, channel=2, data=[69, 100]),\r\n",
      "   midi.NoteOnEvent(tick=96, channel=2, data=[69, 0]),\r\n",
      "   midi.NoteOnEvent(tick=0, channel=2, data=[72, 100]),\r\n",
      "   midi.NoteOnEvent(tick=96, channel=2, data=[72, 0]),\r\n",
      "   midi.NoteOnEvent(tick=0, channel=2, data=[71, 100]),\r\n",
      "   midi.NoteOnEvent(tick=96, channel=2, data=[71, 0]),\r\n",
      "   midi.NoteOnEvent(tick=0, channel=2, data=[69, 100]),\r\n",
      "   midi.NoteOnEvent(tick=96, channel=2, data=[69, 0]),\r\n",
      "   midi.NoteOnEvent(tick=0, channel=2, data=[68, 100]),\r\n",
      "   midi.NoteOnEvent(tick=96, channel=2, data=[68, 0]),\r\n",
      "   midi.NoteOnEvent(tick=0, channel=2, data=[71, 100]),\r\n",
      "   midi.NoteOnEvent(tick=96, channel=2, data=[71, 0]),\r\n",
      "   midi.NoteOnEvent(tick=0, channel=2, data=[69, 100]),\r\n",
      "   midi.NoteOnEvent(tick=192, channel=2, data=[69, 0]),\r\n",
      "   midi.NoteOnEvent(tick=0, channel=2, data=[64, 100]),\r\n",
      "   midi.NoteOnEvent(tick=192, channel=2, data=[64, 0]),\r\n",
      "   midi.NoteOnEvent(tick=192, channel=2, data=[64, 100]),\r\n",
      "   midi.NoteOnEvent(tick=192, channel=2, data=[64, 0]),\r\n",
      "   midi.NoteOnEvent(tick=0, channel=2, data=[64, 100]),\r\n",
      "   midi.NoteOnEvent(tick=192, channel=2, data=[64, 0]),\r\n",
      "   midi.NoteOnEvent(tick=192, channel=2, data=[64, 100]),\r\n",
      "   midi.NoteOnEvent(tick=192, channel=2, data=[64, 0]),\r\n",
      "   midi.NoteOnEvent(tick=192, channel=2, data=[68, 100]),\r\n",
      "   midi.NoteOnEvent(tick=192, channel=2, data=[68, 0]),\r\n",
      "   midi.NoteOnEvent(tick=192, channel=2, data=[69, 100]),\r\n",
      "   midi.NoteOnEvent(tick=192, channel=2, data=[69, 0]),\r\n",
      "   midi.NoteOnEvent(tick=192, channel=2, data=[69, 100]),\r\n",
      "   midi.NoteOnEvent(tick=192, channel=2, data=[69, 0]),\r\n",
      "   midi.NoteOnEvent(tick=0, channel=2, data=[74, 100]),\r\n",
      "   midi.NoteOnEvent(tick=192, channel=2, data=[74, 0]),\r\n",
      "   midi.NoteOnEvent(tick=0, channel=2, data=[68, 100]),\r\n",
      "   midi.NoteOnEvent(tick=192, channel=2, data=[68, 0]),\r\n",
      "   midi.NoteOnEvent(tick=0, channel=2, data=[74, 100]),\r\n",
      "   midi.NoteOnEvent(tick=288, channel=2, data=[74, 0]),\r\n",
      "   midi.NoteOnEvent(tick=0, channel=2, data=[76, 100]),\r\n",
      "   midi.NoteOnEvent(tick=96, channel=2, data=[76, 0]),\r\n",
      "   midi.NoteOnEvent(tick=0, channel=2, data=[74, 100]),\r\n",
      "   midi.NoteOnEvent(tick=96, channel=2, data=[74, 0]),\r\n",
      "   midi.NoteOnEvent(tick=0, channel=2, data=[72, 100]),\r\n",
      "   midi.NoteOnEvent(tick=96, channel=2, data=[72, 0]),\r\n",
      "   midi.NoteOnEvent(tick=0, channel=2, data=[71, 100]),\r\n",
      "   midi.NoteOnEvent(tick=96, channel=2, data=[71, 0]),\r\n",
      "   midi.NoteOnEvent(tick=0, channel=2, data=[69, 100]),\r\n",
      "   midi.NoteOnEvent(tick=96, channel=2, data=[69, 0]),\r\n",
      "   midi.NoteOnEvent(tick=0, channel=2, data=[68, 100]),\r\n",
      "   midi.NoteOnEvent(tick=96, channel=2, data=[68, 0]),\r\n",
      "   midi.NoteOnEvent(tick=0, channel=2, data=[66, 100]),\r\n",
      "   midi.NoteOnEvent(tick=96, channel=2, data=[66, 0]),\r\n",
      "   midi.NoteOnEvent(tick=0, channel=2, data=[64, 100]),\r\n",
      "   midi.NoteOnEvent(tick=96, channel=2, data=[64, 0]),\r\n",
      "   midi.NoteOnEvent(tick=0, channel=2, data=[74, 100]),\r\n",
      "   midi.NoteOnEvent(tick=96, channel=2, data=[74, 0]),\r\n",
      "   midi.NoteOnEvent(tick=0, channel=2, data=[72, 100]),\r\n",
      "   midi.NoteOnEvent(tick=96, channel=2, data=[72, 0]),\r\n",
      "   midi.NoteOnEvent(tick=0, channel=2, data=[71, 100]),\r\n",
      "   midi.NoteOnEvent(tick=96, channel=2, data=[71, 0]),\r\n",
      "   midi.NoteOnEvent(tick=0, channel=2, data=[69, 100]),\r\n",
      "   midi.NoteOnEvent(tick=96, channel=2, data=[69, 0]),\r\n",
      "   midi.NoteOnEvent(tick=0, channel=2, data=[67, 100]),\r\n",
      "   midi.NoteOnEvent(tick=96, channel=2, data=[67, 0]),\r\n",
      "   midi.NoteOnEvent(tick=0, channel=2, data=[66, 100]),\r\n",
      "   midi.NoteOnEvent(tick=96, channel=2, data=[66, 0]),\r\n",
      "   midi.NoteOnEvent(tick=0, channel=2, data=[64, 100]),\r\n",
      "   midi.NoteOnEvent(tick=96, channel=2, data=[64, 0]),\r\n",
      "   midi.NoteOnEvent(tick=0, channel=2, data=[66, 100]),\r\n",
      "   midi.NoteOnEvent(tick=96, channel=2, data=[66, 0]),\r\n",
      "   midi.NoteOnEvent(tick=0, channel=2, data=[74, 100]),\r\n",
      "   midi.NoteOnEvent(tick=96, channel=2, data=[74, 0]),\r\n",
      "   midi.NoteOnEvent(tick=0, channel=2, data=[72, 100]),\r\n",
      "   midi.NoteOnEvent(tick=96, channel=2, data=[72, 0]),\r\n",
      "   midi.NoteOnEvent(tick=0, channel=2, data=[71, 100]),\r\n",
      "   midi.NoteOnEvent(tick=96, channel=2, data=[71, 0]),\r\n",
      "   midi.NoteOnEvent(tick=0, channel=2, data=[69, 100]),\r\n",
      "   midi.NoteOnEvent(tick=96, channel=2, data=[69, 0]),\r\n",
      "   midi.NoteOnEvent(tick=0, channel=2, data=[67, 100]),\r\n",
      "   midi.NoteOnEvent(tick=96, channel=2, data=[67, 0]),\r\n",
      "   midi.NoteOnEvent(tick=0, channel=2, data=[66, 100]),\r\n",
      "   midi.NoteOnEvent(tick=96, channel=2, data=[66, 0]),\r\n",
      "   midi.NoteOnEvent(tick=0, channel=2, data=[64, 100]),\r\n",
      "   midi.NoteOnEvent(tick=96, channel=2, data=[64, 0]),\r\n",
      "   midi.NoteOnEvent(tick=0, channel=2, data=[62, 100]),\r\n",
      "   midi.NoteOnEvent(tick=96, channel=2, data=[62, 0]),\r\n",
      "   midi.NoteOnEvent(tick=0, channel=2, data=[72, 100]),\r\n",
      "   midi.NoteOnEvent(tick=96, channel=2, data=[72, 0]),\r\n",
      "   midi.NoteOnEvent(tick=0, channel=2, data=[71, 100]),\r\n",
      "   midi.NoteOnEvent(tick=96, channel=2, data=[71, 0]),\r\n",
      "   midi.NoteOnEvent(tick=0, channel=2, data=[69, 100]),\r\n",
      "   midi.NoteOnEvent(tick=96, channel=2, data=[69, 0]),\r\n",
      "   midi.NoteOnEvent(tick=0, channel=2, data=[67, 100]),\r\n",
      "   midi.NoteOnEvent(tick=96, channel=2, data=[67, 0]),\r\n",
      "   midi.NoteOnEvent(tick=0, channel=2, data=[66, 100]),\r\n",
      "   midi.NoteOnEvent(tick=96, channel=2, data=[66, 0]),\r\n",
      "   midi.NoteOnEvent(tick=0, channel=2, data=[64, 100]),\r\n",
      "   midi.NoteOnEvent(tick=96, channel=2, data=[64, 0]),\r\n",
      "   midi.NoteOnEvent(tick=0, channel=2, data=[63, 100]),\r\n",
      "   midi.NoteOnEvent(tick=96, channel=2, data=[63, 0]),\r\n",
      "   midi.NoteOnEvent(tick=0, channel=2, data=[64, 100]),\r\n",
      "   midi.NoteOnEvent(tick=96, channel=2, data=[64, 0]),\r\n",
      "   midi.NoteOnEvent(tick=0, channel=2, data=[72, 100]),\r\n",
      "   midi.NoteOnEvent(tick=96, channel=2, data=[72, 0]),\r\n",
      "   midi.NoteOnEvent(tick=0, channel=2, data=[71, 100]),\r\n",
      "   midi.NoteOnEvent(tick=96, channel=2, data=[71, 0]),\r\n",
      "   midi.NoteOnEvent(tick=0, channel=2, data=[69, 100]),\r\n",
      "   midi.NoteOnEvent(tick=96, channel=2, data=[69, 0]),\r\n",
      "   midi.NoteOnEvent(tick=0, channel=2, data=[67, 100]),\r\n",
      "   midi.NoteOnEvent(tick=96, channel=2, data=[67, 0]),\r\n",
      "   midi.NoteOnEvent(tick=0, channel=2, data=[66, 100]),\r\n",
      "   midi.NoteOnEvent(tick=96, channel=2, data=[66, 0]),\r\n",
      "   midi.NoteOnEvent(tick=0, channel=2, data=[64, 100]),\r\n",
      "   midi.NoteOnEvent(tick=96, channel=2, data=[64, 0]),\r\n",
      "   midi.NoteOnEvent(tick=0, channel=2, data=[62, 100]),\r\n",
      "   midi.NoteOnEvent(tick=96, channel=2, data=[62, 0]),\r\n",
      "   midi.NoteOnEvent(tick=0, channel=2, data=[60, 100]),\r\n",
      "   midi.NoteOnEvent(tick=192, channel=2, data=[60, 0]),\r\n",
      "   midi.NoteOnEvent(tick=0, channel=2, data=[72, 100]),\r\n",
      "   midi.NoteOnEvent(tick=288, channel=2, data=[72, 0]),\r\n",
      "   midi.NoteOnEvent(tick=0, channel=2, data=[71, 100]),\r\n",
      "   midi.NoteOnEvent(tick=96, channel=2, data=[71, 0]),\r\n",
      "   midi.NoteOnEvent(tick=0, channel=2, data=[69, 100]),\r\n",
      "   midi.NoteOnEvent(tick=96, channel=2, data=[69, 0]),\r\n",
      "   midi.NoteOnEvent(tick=0, channel=2, data=[67, 100]),\r\n",
      "   midi.NoteOnEvent(tick=96, channel=2, data=[67, 0]),\r\n",
      "   midi.NoteOnEvent(tick=0, channel=2, data=[66, 100]),\r\n",
      "   midi.NoteOnEvent(tick=192, channel=2, data=[66, 0]),\r\n",
      "   midi.NoteOnEvent(tick=0, channel=2, data=[78, 100]),\r\n",
      "   midi.NoteOnEvent(tick=192, channel=2, data=[78, 0]),\r\n",
      "   midi.NoteOnEvent(tick=0, channel=2, data=[76, 100]),\r\n",
      "   midi.NoteOnEvent(tick=192, channel=2, data=[76, 0]),\r\n",
      "   midi.NoteOnEvent(tick=0, channel=2, data=[64, 100]),\r\n",
      "   midi.NoteOnEvent(tick=384, channel=2, data=[64, 0]),\r\n",
      "   midi.NoteOnEvent(tick=0, channel=2, data=[63, 100]),\r\n",
      "   midi.NoteOnEvent(tick=192, channel=2, data=[63, 0]),\r\n",
      "   midi.NoteOnEvent(tick=0, channel=2, data=[64, 100]),\r\n",
      "   midi.NoteOnEvent(tick=192, channel=2, data=[64, 0]),\r\n",
      "   midi.NoteOnEvent(tick=0, channel=2, data=[72, 100]),\r\n",
      "   midi.NoteOnEvent(tick=384, channel=2, data=[72, 0]),\r\n",
      "   midi.NoteOnEvent(tick=0, channel=2, data=[66, 100]),\r\n",
      "   midi.NoteOnEvent(tick=192, channel=2, data=[66, 0]),\r\n",
      "   midi.NoteOnEvent(tick=0, channel=2, data=[67, 100]),\r\n",
      "   midi.NoteOnEvent(tick=192, channel=2, data=[67, 0]),\r\n",
      "   midi.NoteOnEvent(tick=0, channel=2, data=[76, 100]),\r\n",
      "   midi.NoteOnEvent(tick=192, channel=2, data=[76, 0]),\r\n",
      "   midi.NoteOnEvent(tick=0, channel=2, data=[76, 100]),\r\n",
      "   midi.NoteOnEvent(tick=384, channel=2, data=[76, 0]),\r\n",
      "   midi.NoteOnEvent(tick=0, channel=2, data=[75, 100]),\r\n",
      "   midi.NoteOnEvent(tick=48, channel=2, data=[75, 0]),\r\n",
      "   midi.NoteOnEvent(tick=0, channel=2, data=[76, 100]),\r\n",
      "   midi.NoteOnEvent(tick=48, channel=2, data=[76, 0]),\r\n",
      "   midi.NoteOnEvent(tick=0, channel=2, data=[75, 100]),\r\n",
      "   midi.NoteOnEvent(tick=48, channel=2, data=[75, 0]),\r\n",
      "   midi.NoteOnEvent(tick=0, channel=2, data=[76, 100]),\r\n",
      "   midi.NoteOnEvent(tick=48, channel=2, data=[76, 0]),\r\n",
      "   midi.NoteOnEvent(tick=0, channel=2, data=[75, 100]),\r\n",
      "   midi.NoteOnEvent(tick=48, channel=2, data=[75, 0]),\r\n",
      "   midi.NoteOnEvent(tick=0, channel=2, data=[76, 100]),\r\n",
      "   midi.NoteOnEvent(tick=48, channel=2, data=[76, 0]),\r\n",
      "   midi.NoteOnEvent(tick=0, channel=2, data=[75, 100]),\r\n",
      "   midi.NoteOnEvent(tick=48, channel=2, data=[75, 0]),\r\n",
      "   midi.NoteOnEvent(tick=0, channel=2, data=[76, 100]),\r\n",
      "   midi.NoteOnEvent(tick=48, channel=2, data=[76, 0]),\r\n",
      "   midi.NoteOnEvent(tick=0, channel=2, data=[75, 100]),\r\n",
      "   midi.NoteOnEvent(tick=384, channel=2, data=[75, 0]),\r\n",
      "   midi.NoteOnEvent(tick=192, channel=2, data=[75, 100]),\r\n",
      "   midi.NoteOnEvent(tick=192, channel=2, data=[75, 0]),\r\n",
      "   midi.NoteOnEvent(tick=0, channel=2, data=[76, 100]),\r\n",
      "   midi.NoteOnEvent(tick=192, channel=2, data=[76, 0]),\r\n",
      "   midi.NoteOnEvent(tick=0, channel=2, data=[67, 100]),\r\n",
      "   midi.NoteOnEvent(tick=192, channel=2, data=[67, 0]),\r\n",
      "   midi.NoteOnEvent(tick=0, channel=2, data=[69, 100]),\r\n",
      "   midi.NoteOnEvent(tick=192, channel=2, data=[69, 0]),\r\n",
      "   midi.NoteOnEvent(tick=0, channel=2, data=[66, 100]),\r\n",
      "   midi.NoteOnEvent(tick=192, channel=2, data=[66, 0]),\r\n",
      "   midi.NoteOnEvent(tick=0, channel=2, data=[64, 100]),\r\n",
      "   midi.NoteOnEvent(tick=192, channel=2, data=[64, 0]),\r\n",
      "   midi.NoteOnEvent(tick=0, channel=2, data=[76, 100]),\r\n",
      "   midi.NoteOnEvent(tick=96, channel=2, data=[76, 0]),\r\n",
      "   midi.NoteOnEvent(tick=0, channel=2, data=[74, 100]),\r\n",
      "   midi.NoteOnEvent(tick=96, channel=2, data=[74, 0]),\r\n",
      "   midi.NoteOnEvent(tick=0, channel=2, data=[72, 100]),\r\n",
      "   midi.NoteOnEvent(tick=96, channel=2, data=[72, 0]),\r\n",
      "   midi.NoteOnEvent(tick=0, channel=2, data=[71, 100]),\r\n",
      "   midi.NoteOnEvent(tick=96, channel=2, data=[71, 0]),\r\n",
      "   midi.NoteOnEvent(tick=0, channel=2, data=[69, 100]),\r\n",
      "   midi.NoteOnEvent(tick=96, channel=2, data=[69, 0]),\r\n",
      "   midi.NoteOnEvent(tick=0, channel=2, data=[67, 100]),\r\n",
      "   midi.NoteOnEvent(tick=96, channel=2, data=[67, 0]),\r\n",
      "   midi.NoteOnEvent(tick=0, channel=2, data=[66, 100]),\r\n",
      "   midi.NoteOnEvent(tick=96, channel=2, data=[66, 0]),\r\n",
      "   midi.NoteOnEvent(tick=0, channel=2, data=[64, 100]),\r\n",
      "   midi.NoteOnEvent(tick=96, channel=2, data=[64, 0]),\r\n",
      "   midi.NoteOnEvent(tick=0, channel=2, data=[63, 100]),\r\n",
      "   midi.NoteOnEvent(tick=96, channel=2, data=[63, 0]),\r\n",
      "   midi.NoteOnEvent(tick=0, channel=2, data=[64, 100]),\r\n",
      "   midi.NoteOnEvent(tick=96, channel=2, data=[64, 0]),\r\n",
      "   midi.NoteOnEvent(tick=0, channel=2, data=[66, 100]),\r\n",
      "   midi.NoteOnEvent(tick=96, channel=2, data=[66, 0]),\r\n",
      "   midi.NoteOnEvent(tick=0, channel=2, data=[67, 100]),\r\n",
      "   midi.NoteOnEvent(tick=96, channel=2, data=[67, 0]),\r\n",
      "   midi.NoteOnEvent(tick=0, channel=2, data=[69, 100]),\r\n",
      "   midi.NoteOnEvent(tick=96, channel=2, data=[69, 0]),\r\n",
      "   midi.NoteOnEvent(tick=0, channel=2, data=[71, 100]),\r\n",
      "   midi.NoteOnEvent(tick=96, channel=2, data=[71, 0]),\r\n",
      "   midi.NoteOnEvent(tick=0, channel=2, data=[72, 100]),\r\n",
      "   midi.NoteOnEvent(tick=96, channel=2, data=[72, 0]),\r\n",
      "   midi.NoteOnEvent(tick=0, channel=2, data=[71, 100]),\r\n",
      "   midi.NoteOnEvent(tick=96, channel=2, data=[71, 0]),\r\n",
      "   midi.NoteOnEvent(tick=0, channel=2, data=[69, 100]),\r\n",
      "   midi.NoteOnEvent(tick=96, channel=2, data=[69, 0]),\r\n",
      "   midi.NoteOnEvent(tick=0, channel=2, data=[67, 100]),\r\n",
      "   midi.NoteOnEvent(tick=96, channel=2, data=[67, 0]),\r\n",
      "   midi.NoteOnEvent(tick=0, channel=2, data=[66, 100]),\r\n",
      "   midi.NoteOnEvent(tick=96, channel=2, data=[66, 0]),\r\n",
      "   midi.NoteOnEvent(tick=0, channel=2, data=[64, 100]),\r\n",
      "   midi.NoteOnEvent(tick=96, channel=2, data=[64, 0]),\r\n",
      "   midi.NoteOnEvent(tick=0, channel=2, data=[63, 100]),\r\n",
      "   midi.NoteOnEvent(tick=96, channel=2, data=[63, 0]),\r\n",
      "   midi.NoteOnEvent(tick=0, channel=2, data=[64, 100]),\r\n",
      "   midi.NoteOnEvent(tick=96, channel=2, data=[64, 0]),\r\n",
      "   midi.NoteOnEvent(tick=0, channel=2, data=[69, 100]),\r\n",
      "   midi.NoteOnEvent(tick=96, channel=2, data=[69, 0]),\r\n",
      "   midi.NoteOnEvent(tick=0, channel=2, data=[66, 100]),\r\n",
      "   midi.NoteOnEvent(tick=96, channel=2, data=[66, 0]),\r\n",
      "   midi.NoteOnEvent(tick=0, channel=2, data=[67, 100]),\r\n",
      "   midi.NoteOnEvent(tick=96, channel=2, data=[67, 0]),\r\n",
      "   midi.NoteOnEvent(tick=0, channel=2, data=[64, 100]),\r\n",
      "   midi.NoteOnEvent(tick=96, channel=2, data=[64, 0]),\r\n",
      "   midi.NoteOnEvent(tick=0, channel=2, data=[59, 100]),\r\n",
      "   midi.NoteOnEvent(tick=192, channel=2, data=[59, 0]),\r\n",
      "   midi.NoteOnEvent(tick=0, channel=2, data=[63, 100]),\r\n",
      "   midi.NoteOnEvent(tick=192, channel=2, data=[63, 0]),\r\n",
      "   midi.NoteOnEvent(tick=0, channel=2, data=[64, 100]),\r\n",
      "   midi.NoteOnEvent(tick=384, channel=2, data=[64, 0]),\r\n",
      "   midi.NoteOnEvent(tick=576, channel=2, data=[72, 100]),\r\n",
      "   midi.NoteOnEvent(tick=192, channel=2, data=[72, 0]),\r\n",
      "   midi.NoteOnEvent(tick=0, channel=2, data=[76, 100]),\r\n",
      "   midi.NoteOnEvent(tick=192, channel=2, data=[76, 0]),\r\n",
      "   midi.NoteOnEvent(tick=384, channel=2, data=[76, 100]),\r\n",
      "   midi.NoteOnEvent(tick=96, channel=2, data=[76, 0]),\r\n",
      "   midi.NoteOnEvent(tick=0, channel=2, data=[78, 100]),\r\n",
      "   midi.NoteOnEvent(tick=96, channel=2, data=[78, 0]),\r\n",
      "   midi.NoteOnEvent(tick=0, channel=2, data=[80, 100]),\r\n",
      "   midi.NoteOnEvent(tick=192, channel=2, data=[80, 0]),\r\n",
      "   midi.NoteOnEvent(tick=384, channel=2, data=[68, 100]),\r\n",
      "   midi.NoteOnEvent(tick=192, channel=2, data=[68, 0]),\r\n",
      "   midi.NoteOnEvent(tick=0, channel=2, data=[74, 100]),\r\n",
      "   midi.NoteOnEvent(tick=192, channel=2, data=[74, 0]),\r\n",
      "   midi.NoteOnEvent(tick=384, channel=2, data=[76, 100]),\r\n",
      "   midi.NoteOnEvent(tick=192, channel=2, data=[76, 0]),\r\n",
      "   midi.NoteOnEvent(tick=0, channel=2, data=[81, 100]),\r\n",
      "   midi.NoteOnEvent(tick=192, channel=2, data=[81, 0]),\r\n",
      "   midi.NoteOnEvent(tick=3456, channel=2, data=[76, 100]),\r\n",
      "   midi.NoteOnEvent(tick=192, channel=2, data=[76, 0]),\r\n",
      "   midi.NoteOnEvent(tick=0, channel=2, data=[81, 100]),\r\n",
      "   midi.NoteOnEvent(tick=384, channel=2, data=[81, 0]),\r\n",
      "   midi.NoteOnEvent(tick=192, channel=2, data=[74, 100]),\r\n",
      "   midi.NoteOnEvent(tick=96, channel=2, data=[74, 0]),\r\n",
      "   midi.NoteOnEvent(tick=0, channel=2, data=[76, 100]),\r\n",
      "   midi.NoteOnEvent(tick=96, channel=2, data=[76, 0]),\r\n",
      "   midi.NoteOnEvent(tick=0, channel=2, data=[77, 100]),\r\n",
      "   midi.NoteOnEvent(tick=384, channel=2, data=[77, 0]),\r\n",
      "   midi.NoteOnEvent(tick=192, channel=2, data=[74, 100]),\r\n",
      "   midi.NoteOnEvent(tick=192, channel=2, data=[74, 0]),\r\n",
      "   midi.NoteOnEvent(tick=0, channel=2, data=[79, 100]),\r\n",
      "   midi.NoteOnEvent(tick=384, channel=2, data=[79, 0]),\r\n",
      "   midi.NoteOnEvent(tick=192, channel=2, data=[72, 100]),\r\n",
      "   midi.NoteOnEvent(tick=96, channel=2, data=[72, 0]),\r\n",
      "   midi.NoteOnEvent(tick=0, channel=2, data=[74, 100]),\r\n",
      "   midi.NoteOnEvent(tick=96, channel=2, data=[74, 0]),\r\n",
      "   midi.NoteOnEvent(tick=0, channel=2, data=[76, 100]),\r\n",
      "   midi.NoteOnEvent(tick=384, channel=2, data=[76, 0]),\r\n",
      "   midi.NoteOnEvent(tick=192, channel=2, data=[72, 100]),\r\n",
      "   midi.NoteOnEvent(tick=192, channel=2, data=[72, 0]),\r\n",
      "   midi.NoteOnEvent(tick=0, channel=2, data=[77, 100]),\r\n",
      "   midi.NoteOnEvent(tick=384, channel=2, data=[77, 0]),\r\n",
      "   midi.NoteOnEvent(tick=192, channel=2, data=[71, 100]),\r\n",
      "   midi.NoteOnEvent(tick=96, channel=2, data=[71, 0]),\r\n",
      "   midi.NoteOnEvent(tick=0, channel=2, data=[72, 100]),\r\n",
      "   midi.NoteOnEvent(tick=96, channel=2, data=[72, 0]),\r\n",
      "   midi.NoteOnEvent(tick=0, channel=2, data=[74, 100]),\r\n",
      "   midi.NoteOnEvent(tick=384, channel=2, data=[74, 0]),\r\n",
      "   midi.NoteOnEvent(tick=192, channel=2, data=[71, 100]),\r\n",
      "   midi.NoteOnEvent(tick=192, channel=2, data=[71, 0]),\r\n",
      "   midi.NoteOnEvent(tick=0, channel=2, data=[76, 100]),\r\n",
      "   midi.NoteOnEvent(tick=384, channel=2, data=[76, 0]),\r\n",
      "   midi.NoteOnEvent(tick=192, channel=2, data=[76, 100]),\r\n",
      "   midi.NoteOnEvent(tick=192, channel=2, data=[76, 0]),\r\n",
      "   midi.NoteOnEvent(tick=0, channel=2, data=[81, 100]),\r\n",
      "   midi.NoteOnEvent(tick=384, channel=2, data=[81, 0]),\r\n",
      "   midi.NoteOnEvent(tick=192, channel=2, data=[74, 100]),\r\n",
      "   midi.NoteOnEvent(tick=96, channel=2, data=[74, 0]),\r\n",
      "   midi.NoteOnEvent(tick=0, channel=2, data=[76, 100]),\r\n",
      "   midi.NoteOnEvent(tick=96, channel=2, data=[76, 0]),\r\n",
      "   midi.NoteOnEvent(tick=0, channel=2, data=[77, 100]),\r\n",
      "   midi.NoteOnEvent(tick=192, channel=2, data=[77, 0]),\r\n",
      "   midi.NoteOnEvent(tick=0, channel=2, data=[68, 100]),\r\n",
      "   midi.NoteOnEvent(tick=192, channel=2, data=[68, 0]),\r\n",
      "   midi.NoteOnEvent(tick=0, channel=2, data=[72, 100]),\r\n",
      "   midi.NoteOnEvent(tick=96, channel=2, data=[72, 0]),\r\n",
      "   midi.NoteOnEvent(tick=0, channel=2, data=[71, 100]),\r\n",
      "   midi.NoteOnEvent(tick=96, channel=2, data=[71, 0]),\r\n",
      "   midi.NoteOnEvent(tick=0, channel=2, data=[69, 100]),\r\n",
      "   midi.NoteOnEvent(tick=96, channel=2, data=[69, 0]),\r\n",
      "   midi.NoteOnEvent(tick=0, channel=2, data=[72, 100]),\r\n",
      "   midi.NoteOnEvent(tick=96, channel=2, data=[72, 0]),\r\n",
      "   midi.NoteOnEvent(tick=0, channel=2, data=[71, 100]),\r\n",
      "   midi.NoteOnEvent(tick=96, channel=2, data=[71, 0]),\r\n",
      "   midi.NoteOnEvent(tick=0, channel=2, data=[69, 100]),\r\n",
      "   midi.NoteOnEvent(tick=96, channel=2, data=[69, 0]),\r\n",
      "   midi.NoteOnEvent(tick=0, channel=2, data=[68, 100]),\r\n",
      "   midi.NoteOnEvent(tick=96, channel=2, data=[68, 0]),\r\n",
      "   midi.NoteOnEvent(tick=0, channel=2, data=[71, 100]),\r\n",
      "   midi.NoteOnEvent(tick=96, channel=2, data=[71, 0]),\r\n",
      "   midi.NoteOnEvent(tick=0, channel=2, data=[69, 100]),\r\n",
      "   midi.NoteOnEvent(tick=192, channel=2, data=[69, 0]),\r\n",
      "   midi.NoteOnEvent(tick=0, channel=2, data=[64, 100]),\r\n",
      "   midi.NoteOnEvent(tick=192, channel=2, data=[64, 0]),\r\n",
      "   midi.NoteOnEvent(tick=192, channel=2, data=[69, 100]),\r\n",
      "   midi.NoteOnEvent(tick=192, channel=2, data=[69, 0]),\r\n",
      "   midi.NoteOnEvent(tick=0, channel=2, data=[69, 100]),\r\n",
      "   midi.NoteOnEvent(tick=192, channel=2, data=[69, 0]),\r\n",
      "   midi.NoteOnEvent(tick=0, channel=2, data=[69, 100]),\r\n",
      "   midi.NoteOnEvent(tick=192, channel=2, data=[69, 0]),\r\n",
      "   midi.NoteOnEvent(tick=0, channel=2, data=[69, 100]),\r\n",
      "   midi.NoteOnEvent(tick=192, channel=2, data=[69, 0]),\r\n",
      "   midi.NoteOnEvent(tick=0, channel=2, data=[69, 100]),\r\n",
      "   midi.NoteOnEvent(tick=192, channel=2, data=[69, 0]),\r\n",
      "   midi.NoteOnEvent(tick=0, channel=2, data=[67, 100]),\r\n",
      "   midi.NoteOnEvent(tick=192, channel=2, data=[67, 0]),\r\n",
      "   midi.NoteOnEvent(tick=0, channel=2, data=[67, 100]),\r\n",
      "   midi.NoteOnEvent(tick=192, channel=2, data=[67, 0]),\r\n",
      "   midi.NoteOnEvent(tick=0, channel=2, data=[67, 100]),\r\n",
      "   midi.NoteOnEvent(tick=192, channel=2, data=[67, 0]),\r\n",
      "   midi.NoteOnEvent(tick=0, channel=2, data=[67, 100]),\r\n",
      "   midi.NoteOnEvent(tick=192, channel=2, data=[67, 0]),\r\n",
      "   midi.NoteOnEvent(tick=0, channel=2, data=[67, 100]),\r\n",
      "   midi.NoteOnEvent(tick=192, channel=2, data=[67, 0]),\r\n",
      "   midi.NoteOnEvent(tick=0, channel=2, data=[67, 100]),\r\n",
      "   midi.NoteOnEvent(tick=192, channel=2, data=[67, 0]),\r\n",
      "   midi.NoteOnEvent(tick=0, channel=2, data=[67, 100]),\r\n",
      "   midi.NoteOnEvent(tick=192, channel=2, data=[67, 0]),\r\n",
      "   midi.NoteOnEvent(tick=0, channel=2, data=[67, 100]),\r\n",
      "   midi.NoteOnEvent(tick=192, channel=2, data=[67, 0]),\r\n",
      "   midi.NoteOnEvent(tick=0, channel=2, data=[65, 100]),\r\n",
      "   midi.NoteOnEvent(tick=192, channel=2, data=[65, 0]),\r\n",
      "   midi.NoteOnEvent(tick=0, channel=2, data=[65, 100]),\r\n",
      "   midi.NoteOnEvent(tick=192, channel=2, data=[65, 0]),\r\n",
      "   midi.NoteOnEvent(tick=0, channel=2, data=[65, 100]),\r\n",
      "   midi.NoteOnEvent(tick=192, channel=2, data=[65, 0]),\r\n",
      "   midi.NoteOnEvent(tick=0, channel=2, data=[65, 100]),\r\n",
      "   midi.NoteOnEvent(tick=192, channel=2, data=[65, 0]),\r\n",
      "   midi.NoteOnEvent(tick=0, channel=2, data=[65, 100]),\r\n",
      "   midi.NoteOnEvent(tick=192, channel=2, data=[65, 0]),\r\n",
      "   midi.NoteOnEvent(tick=0, channel=2, data=[65, 100]),\r\n",
      "   midi.NoteOnEvent(tick=192, channel=2, data=[65, 0]),\r\n",
      "   midi.NoteOnEvent(tick=0, channel=2, data=[65, 100]),\r\n",
      "   midi.NoteOnEvent(tick=192, channel=2, data=[65, 0]),\r\n",
      "   midi.NoteOnEvent(tick=0, channel=2, data=[65, 100]),\r\n",
      "   midi.NoteOnEvent(tick=192, channel=2, data=[65, 0]),\r\n",
      "   midi.NoteOnEvent(tick=0, channel=2, data=[64, 100]),\r\n",
      "   midi.NoteOnEvent(tick=192, channel=2, data=[64, 0]),\r\n",
      "   midi.NoteOnEvent(tick=1920, channel=2, data=[74, 100]),\r\n",
      "   midi.NoteOnEvent(tick=192, channel=2, data=[74, 0]),\r\n",
      "   midi.NoteOnEvent(tick=0, channel=2, data=[79, 100]),\r\n",
      "   midi.NoteOnEvent(tick=384, channel=2, data=[79, 0]),\r\n",
      "   midi.NoteOnEvent(tick=192, channel=2, data=[76, 100]),\r\n",
      "   midi.NoteOnEvent(tick=192, channel=2, data=[76, 0]),\r\n",
      "   midi.NoteOnEvent(tick=0, channel=2, data=[77, 100]),\r\n",
      "   midi.NoteOnEvent(tick=384, channel=2, data=[77, 0]),\r\n",
      "   midi.NoteOnEvent(tick=192, channel=2, data=[77, 100]),\r\n",
      "   midi.NoteOnEvent(tick=192, channel=2, data=[77, 0]),\r\n",
      "   midi.NoteOnEvent(tick=0, channel=2, data=[76, 100]),\r\n",
      "   midi.NoteOnEvent(tick=96, channel=2, data=[76, 0]),\r\n",
      "   midi.NoteOnEvent(tick=0, channel=2, data=[77, 100]),\r\n",
      "   midi.NoteOnEvent(tick=96, channel=2, data=[77, 0]),\r\n",
      "   midi.NoteOnEvent(tick=0, channel=2, data=[79, 100]),\r\n",
      "   midi.NoteOnEvent(tick=96, channel=2, data=[79, 0]),\r\n",
      "   midi.NoteOnEvent(tick=0, channel=2, data=[76, 100]),\r\n",
      "   midi.NoteOnEvent(tick=96, channel=2, data=[76, 0]),\r\n",
      "   midi.NoteOnEvent(tick=0, channel=2, data=[74, 100]),\r\n",
      "   midi.NoteOnEvent(tick=96, channel=2, data=[74, 0]),\r\n",
      "   midi.NoteOnEvent(tick=0, channel=2, data=[76, 100]),\r\n",
      "   midi.NoteOnEvent(tick=96, channel=2, data=[76, 0]),\r\n",
      "   midi.NoteOnEvent(tick=0, channel=2, data=[77, 100]),\r\n",
      "   midi.NoteOnEvent(tick=96, channel=2, data=[77, 0]),\r\n",
      "   midi.NoteOnEvent(tick=0, channel=2, data=[74, 100]),\r\n",
      "   midi.NoteOnEvent(tick=96, channel=2, data=[74, 0]),\r\n",
      "   midi.NoteOnEvent(tick=0, channel=2, data=[72, 100]),\r\n",
      "   midi.NoteOnEvent(tick=192, channel=2, data=[72, 0]),\r\n",
      "   midi.NoteOnEvent(tick=0, channel=2, data=[67, 100]),\r\n",
      "   midi.NoteOnEvent(tick=192, channel=2, data=[67, 0]),\r\n",
      "   midi.NoteOnEvent(tick=192, channel=2, data=[67, 100]),\r\n",
      "   midi.NoteOnEvent(tick=192, channel=2, data=[67, 0]),\r\n",
      "   midi.NoteOnEvent(tick=0, channel=2, data=[67, 100]),\r\n",
      "   midi.NoteOnEvent(tick=192, channel=2, data=[67, 0]),\r\n",
      "   midi.NoteOnEvent(tick=192, channel=2, data=[67, 100]),\r\n",
      "   midi.NoteOnEvent(tick=192, channel=2, data=[67, 0]),\r\n",
      "   midi.NoteOnEvent(tick=192, channel=2, data=[71, 100]),\r\n",
      "   midi.NoteOnEvent(tick=192, channel=2, data=[71, 0]),\r\n",
      "   midi.NoteOnEvent(tick=192, channel=2, data=[72, 100]),\r\n",
      "   midi.NoteOnEvent(tick=192, channel=2, data=[72, 0]),\r\n",
      "   midi.NoteOnEvent(tick=192, channel=2, data=[72, 100]),\r\n",
      "   midi.NoteOnEvent(tick=192, channel=2, data=[72, 0]),\r\n",
      "   midi.NoteOnEvent(tick=0, channel=2, data=[71, 100]),\r\n",
      "   midi.NoteOnEvent(tick=192, channel=2, data=[71, 0]),\r\n",
      "   midi.NoteOnEvent(tick=0, channel=2, data=[72, 100]),\r\n",
      "   midi.NoteOnEvent(tick=192, channel=2, data=[72, 0]),\r\n",
      "   midi.NoteOnEvent(tick=0, channel=2, data=[69, 100]),\r\n",
      "   midi.NoteOnEvent(tick=192, channel=2, data=[69, 0]),\r\n",
      "   midi.NoteOnEvent(tick=0, channel=2, data=[71, 100]),\r\n",
      "   midi.NoteOnEvent(tick=96, channel=2, data=[71, 0]),\r\n",
      "   midi.NoteOnEvent(tick=0, channel=2, data=[72, 100]),\r\n",
      "   midi.NoteOnEvent(tick=96, channel=2, data=[72, 0]),\r\n",
      "   midi.NoteOnEvent(tick=0, channel=2, data=[74, 100]),\r\n",
      "   midi.NoteOnEvent(tick=96, channel=2, data=[74, 0]),\r\n",
      "   midi.NoteOnEvent(tick=0, channel=2, data=[72, 100]),\r\n",
      "   midi.NoteOnEvent(tick=96, channel=2, data=[72, 0]),\r\n",
      "   midi.NoteOnEvent(tick=0, channel=2, data=[71, 100]),\r\n",
      "   midi.NoteOnEvent(tick=96, channel=2, data=[71, 0]),\r\n",
      "   midi.NoteOnEvent(tick=0, channel=2, data=[69, 100]),\r\n",
      "   midi.NoteOnEvent(tick=96, channel=2, data=[69, 0]),\r\n",
      "   midi.NoteOnEvent(tick=0, channel=2, data=[67, 100]),\r\n",
      "   midi.NoteOnEvent(tick=96, channel=2, data=[67, 0]),\r\n",
      "   midi.NoteOnEvent(tick=0, channel=2, data=[65, 100]),\r\n",
      "   midi.NoteOnEvent(tick=96, channel=2, data=[65, 0]),\r\n",
      "   midi.NoteOnEvent(tick=0, channel=2, data=[64, 100]),\r\n",
      "   midi.NoteOnEvent(tick=96, channel=2, data=[64, 0]),\r\n",
      "   midi.NoteOnEvent(tick=0, channel=2, data=[74, 100]),\r\n",
      "   midi.NoteOnEvent(tick=96, channel=2, data=[74, 0]),\r\n",
      "   midi.NoteOnEvent(tick=0, channel=2, data=[72, 100]),\r\n",
      "   midi.NoteOnEvent(tick=96, channel=2, data=[72, 0]),\r\n",
      "   midi.NoteOnEvent(tick=0, channel=2, data=[71, 100]),\r\n",
      "   midi.NoteOnEvent(tick=96, channel=2, data=[71, 0]),\r\n",
      "   midi.NoteOnEvent(tick=0, channel=2, data=[69, 100]),\r\n",
      "   midi.NoteOnEvent(tick=96, channel=2, data=[69, 0]),\r\n",
      "   midi.NoteOnEvent(tick=0, channel=2, data=[67, 100]),\r\n",
      "   midi.NoteOnEvent(tick=96, channel=2, data=[67, 0]),\r\n",
      "   midi.NoteOnEvent(tick=0, channel=2, data=[66, 100]),\r\n",
      "   midi.NoteOnEvent(tick=96, channel=2, data=[66, 0]),\r\n",
      "   midi.NoteOnEvent(tick=0, channel=2, data=[64, 100]),\r\n",
      "   midi.NoteOnEvent(tick=96, channel=2, data=[64, 0]),\r\n",
      "   midi.NoteOnEvent(tick=0, channel=2, data=[66, 100]),\r\n",
      "   midi.NoteOnEvent(tick=192, channel=2, data=[66, 0]),\r\n",
      "   midi.NoteOnEvent(tick=0, channel=2, data=[74, 100]),\r\n",
      "   midi.NoteOnEvent(tick=192, channel=2, data=[74, 0]),\r\n",
      "   midi.NoteOnEvent(tick=1344, channel=2, data=[69, 100]),\r\n",
      "   midi.NoteOnEvent(tick=96, channel=2, data=[69, 0]),\r\n",
      "   midi.NoteOnEvent(tick=0, channel=2, data=[67, 100]),\r\n",
      "   midi.NoteOnEvent(tick=96, channel=2, data=[67, 0]),\r\n",
      "   midi.NoteOnEvent(tick=0, channel=2, data=[66, 100]),\r\n",
      "   midi.NoteOnEvent(tick=96, channel=2, data=[66, 0]),\r\n",
      "   midi.NoteOnEvent(tick=0, channel=2, data=[64, 100]),\r\n",
      "   midi.NoteOnEvent(tick=96, channel=2, data=[64, 0]),\r\n",
      "   midi.NoteOnEvent(tick=0, channel=2, data=[62, 100]),\r\n",
      "   midi.NoteOnEvent(tick=96, channel=2, data=[62, 0]),\r\n",
      "   midi.NoteOnEvent(tick=0, channel=2, data=[60, 100]),\r\n",
      "   midi.NoteOnEvent(tick=96, channel=2, data=[60, 0]),\r\n",
      "   midi.NoteOnEvent(tick=0, channel=2, data=[62, 100]),\r\n",
      "   midi.NoteOnEvent(tick=96, channel=2, data=[62, 0]),\r\n",
      "   midi.NoteOnEvent(tick=0, channel=2, data=[72, 100]),\r\n",
      "   midi.NoteOnEvent(tick=96, channel=2, data=[72, 0]),\r\n",
      "   midi.NoteOnEvent(tick=0, channel=2, data=[71, 100]),\r\n",
      "   midi.NoteOnEvent(tick=96, channel=2, data=[71, 0]),\r\n",
      "   midi.NoteOnEvent(tick=0, channel=2, data=[69, 100]),\r\n",
      "   midi.NoteOnEvent(tick=96, channel=2, data=[69, 0]),\r\n",
      "   midi.NoteOnEvent(tick=0, channel=2, data=[67, 100]),\r\n",
      "   midi.NoteOnEvent(tick=96, channel=2, data=[67, 0]),\r\n",
      "   midi.NoteOnEvent(tick=0, channel=2, data=[66, 100]),\r\n",
      "   midi.NoteOnEvent(tick=96, channel=2, data=[66, 0]),\r\n",
      "   midi.NoteOnEvent(tick=0, channel=2, data=[64, 100]),\r\n",
      "   midi.NoteOnEvent(tick=96, channel=2, data=[64, 0]),\r\n",
      "   midi.NoteOnEvent(tick=0, channel=2, data=[63, 100]),\r\n",
      "   midi.NoteOnEvent(tick=96, channel=2, data=[63, 0]),\r\n",
      "   midi.NoteOnEvent(tick=0, channel=2, data=[64, 100]),\r\n",
      "   midi.NoteOnEvent(tick=192, channel=2, data=[64, 0]),\r\n",
      "   midi.NoteOnEvent(tick=0, channel=2, data=[69, 100]),\r\n",
      "   midi.NoteOnEvent(tick=192, channel=2, data=[69, 0]),\r\n",
      "   midi.NoteOnEvent(tick=1344, channel=2, data=[67, 100]),\r\n",
      "   midi.NoteOnEvent(tick=384, channel=2, data=[67, 0]),\r\n",
      "   midi.NoteOnEvent(tick=0, channel=2, data=[69, 100]),\r\n",
      "   midi.NoteOnEvent(tick=96, channel=2, data=[69, 0]),\r\n",
      "   midi.NoteOnEvent(tick=0, channel=2, data=[71, 100]),\r\n",
      "   midi.NoteOnEvent(tick=96, channel=2, data=[71, 0]),\r\n",
      "   midi.NoteOnEvent(tick=0, channel=2, data=[72, 100]),\r\n",
      "   midi.NoteOnEvent(tick=384, channel=2, data=[72, 0]),\r\n",
      "   midi.NoteOnEvent(tick=96, channel=2, data=[71, 100]),\r\n",
      "   midi.NoteOnEvent(tick=96, channel=2, data=[71, 0]),\r\n",
      "   midi.NoteOnEvent(tick=0, channel=2, data=[69, 100]),\r\n",
      "   midi.NoteOnEvent(tick=96, channel=2, data=[69, 0]),\r\n",
      "   midi.NoteOnEvent(tick=0, channel=2, data=[67, 100]),\r\n",
      "   midi.NoteOnEvent(tick=96, channel=2, data=[67, 0]),\r\n",
      "   midi.NoteOnEvent(tick=0, channel=2, data=[66, 100]),\r\n",
      "   midi.NoteOnEvent(tick=192, channel=2, data=[66, 0]),\r\n",
      "   midi.NoteOnEvent(tick=0, channel=2, data=[78, 100]),\r\n",
      "   midi.NoteOnEvent(tick=192, channel=2, data=[78, 0]),\r\n",
      "   midi.NoteOnEvent(tick=0, channel=2, data=[76, 100]),\r\n",
      "   midi.NoteOnEvent(tick=192, channel=2, data=[76, 0]),\r\n",
      "   midi.NoteOnEvent(tick=0, channel=2, data=[64, 100]),\r\n",
      "   midi.NoteOnEvent(tick=384, channel=2, data=[64, 0]),\r\n",
      "   midi.NoteOnEvent(tick=0, channel=2, data=[63, 100]),\r\n",
      "   midi.NoteOnEvent(tick=192, channel=2, data=[63, 0]),\r\n",
      "   midi.NoteOnEvent(tick=0, channel=2, data=[64, 100]),\r\n",
      "   midi.NoteOnEvent(tick=192, channel=2, data=[64, 0]),\r\n",
      "   midi.NoteOnEvent(tick=0, channel=2, data=[72, 100]),\r\n",
      "   midi.NoteOnEvent(tick=384, channel=2, data=[72, 0]),\r\n",
      "   midi.NoteOnEvent(tick=0, channel=2, data=[66, 100]),\r\n",
      "   midi.NoteOnEvent(tick=192, channel=2, data=[66, 0]),\r\n",
      "   midi.NoteOnEvent(tick=0, channel=2, data=[67, 100]),\r\n",
      "   midi.NoteOnEvent(tick=192, channel=2, data=[67, 0]),\r\n",
      "   midi.NoteOnEvent(tick=0, channel=2, data=[76, 100]),\r\n",
      "   midi.NoteOnEvent(tick=192, channel=2, data=[76, 0]),\r\n",
      "   midi.NoteOnEvent(tick=0, channel=2, data=[76, 100]),\r\n",
      "   midi.NoteOnEvent(tick=384, channel=2, data=[76, 0]),\r\n",
      "   midi.NoteOnEvent(tick=0, channel=2, data=[75, 100]),\r\n",
      "   midi.NoteOnEvent(tick=48, channel=2, data=[75, 0]),\r\n",
      "   midi.NoteOnEvent(tick=0, channel=2, data=[76, 100]),\r\n",
      "   midi.NoteOnEvent(tick=48, channel=2, data=[76, 0]),\r\n",
      "   midi.NoteOnEvent(tick=0, channel=2, data=[75, 100]),\r\n",
      "   midi.NoteOnEvent(tick=48, channel=2, data=[75, 0]),\r\n",
      "   midi.NoteOnEvent(tick=0, channel=2, data=[76, 100]),\r\n",
      "   midi.NoteOnEvent(tick=48, channel=2, data=[76, 0]),\r\n",
      "   midi.NoteOnEvent(tick=0, channel=2, data=[75, 100]),\r\n",
      "   midi.NoteOnEvent(tick=48, channel=2, data=[75, 0]),\r\n",
      "   midi.NoteOnEvent(tick=0, channel=2, data=[76, 100]),\r\n",
      "   midi.NoteOnEvent(tick=48, channel=2, data=[76, 0]),\r\n",
      "   midi.NoteOnEvent(tick=0, channel=2, data=[75, 100]),\r\n",
      "   midi.NoteOnEvent(tick=48, channel=2, data=[75, 0]),\r\n",
      "   midi.NoteOnEvent(tick=0, channel=2, data=[76, 100]),\r\n",
      "   midi.NoteOnEvent(tick=48, channel=2, data=[76, 0]),\r\n",
      "   midi.NoteOnEvent(tick=0, channel=2, data=[75, 100]),\r\n",
      "   midi.NoteOnEvent(tick=384, channel=2, data=[75, 0]),\r\n",
      "   midi.NoteOnEvent(tick=384, channel=2, data=[78, 100]),\r\n",
      "   midi.NoteOnEvent(tick=384, channel=2, data=[78, 0]),\r\n",
      "   midi.NoteOnEvent(tick=384, channel=2, data=[79, 100]),\r\n",
      "   midi.NoteOnEvent(tick=384, channel=2, data=[79, 0]),\r\n",
      "   midi.NoteOnEvent(tick=384, channel=2, data=[66, 100]),\r\n",
      "   midi.NoteOnEvent(tick=384, channel=2, data=[66, 0]),\r\n",
      "   midi.NoteOnEvent(tick=384, channel=2, data=[66, 100]),\r\n",
      "   midi.NoteOnEvent(tick=768, channel=2, data=[66, 0]),\r\n",
      "   midi.NoteOnEvent(tick=96, channel=2, data=[67, 100]),\r\n",
      "   midi.NoteOnEvent(tick=96, channel=2, data=[67, 0]),\r\n",
      "   midi.NoteOnEvent(tick=0, channel=2, data=[69, 100]),\r\n",
      "   midi.NoteOnEvent(tick=96, channel=2, data=[69, 0]),\r\n",
      "   midi.NoteOnEvent(tick=0, channel=2, data=[71, 100]),\r\n",
      "   midi.NoteOnEvent(tick=96, channel=2, data=[71, 0]),\r\n",
      "   midi.NoteOnEvent(tick=0, channel=2, data=[73, 100]),\r\n",
      "   midi.NoteOnEvent(tick=96, channel=2, data=[73, 0]),\r\n",
      "   midi.NoteOnEvent(tick=0, channel=2, data=[75, 100]),\r\n",
      "   midi.NoteOnEvent(tick=96, channel=2, data=[75, 0]),\r\n",
      "   midi.NoteOnEvent(tick=0, channel=2, data=[76, 100]),\r\n",
      "   midi.NoteOnEvent(tick=96, channel=2, data=[76, 0]),\r\n",
      "   midi.NoteOnEvent(tick=0, channel=2, data=[78, 100]),\r\n",
      "   midi.NoteOnEvent(tick=96, channel=2, data=[78, 0]),\r\n",
      "   midi.NoteOnEvent(tick=0, channel=2, data=[79, 100]),\r\n",
      "   midi.NoteOnEvent(tick=192, channel=2, data=[79, 0]),\r\n",
      "   midi.NoteOnEvent(tick=0, channel=2, data=[67, 100]),\r\n",
      "   midi.NoteOnEvent(tick=192, channel=2, data=[67, 0]),\r\n",
      "   midi.NoteOnEvent(tick=0, channel=2, data=[69, 100]),\r\n",
      "   midi.NoteOnEvent(tick=192, channel=2, data=[69, 0]),\r\n",
      "   midi.NoteOnEvent(tick=0, channel=2, data=[66, 100]),\r\n",
      "   midi.NoteOnEvent(tick=192, channel=2, data=[66, 0]),\r\n",
      "   midi.NoteOnEvent(tick=0, channel=2, data=[64, 100]),\r\n",
      "   midi.NoteOnEvent(tick=192, channel=2, data=[64, 0]),\r\n",
      "   midi.NoteOnEvent(tick=0, channel=2, data=[76, 100]),\r\n",
      "   midi.NoteOnEvent(tick=96, channel=2, data=[76, 0]),\r\n",
      "   midi.NoteOnEvent(tick=0, channel=2, data=[74, 100]),\r\n",
      "   midi.NoteOnEvent(tick=96, channel=2, data=[74, 0]),\r\n",
      "   midi.NoteOnEvent(tick=0, channel=2, data=[72, 100]),\r\n",
      "   midi.NoteOnEvent(tick=96, channel=2, data=[72, 0]),\r\n",
      "   midi.NoteOnEvent(tick=0, channel=2, data=[71, 100]),\r\n",
      "   midi.NoteOnEvent(tick=96, channel=2, data=[71, 0]),\r\n",
      "   midi.NoteOnEvent(tick=0, channel=2, data=[69, 100]),\r\n",
      "   midi.NoteOnEvent(tick=96, channel=2, data=[69, 0]),\r\n",
      "   midi.NoteOnEvent(tick=0, channel=2, data=[67, 100]),\r\n",
      "   midi.NoteOnEvent(tick=96, channel=2, data=[67, 0]),\r\n",
      "   midi.NoteOnEvent(tick=0, channel=2, data=[66, 100]),\r\n",
      "   midi.NoteOnEvent(tick=96, channel=2, data=[66, 0]),\r\n",
      "   midi.NoteOnEvent(tick=0, channel=2, data=[64, 100]),\r\n",
      "   midi.NoteOnEvent(tick=96, channel=2, data=[64, 0]),\r\n",
      "   midi.NoteOnEvent(tick=0, channel=2, data=[63, 100]),\r\n",
      "   midi.NoteOnEvent(tick=96, channel=2, data=[63, 0]),\r\n",
      "   midi.NoteOnEvent(tick=0, channel=2, data=[64, 100]),\r\n",
      "   midi.NoteOnEvent(tick=96, channel=2, data=[64, 0]),\r\n",
      "   midi.NoteOnEvent(tick=0, channel=2, data=[66, 100]),\r\n",
      "   midi.NoteOnEvent(tick=96, channel=2, data=[66, 0]),\r\n",
      "   midi.NoteOnEvent(tick=0, channel=2, data=[67, 100]),\r\n",
      "   midi.NoteOnEvent(tick=96, channel=2, data=[67, 0]),\r\n",
      "   midi.NoteOnEvent(tick=0, channel=2, data=[69, 100]),\r\n",
      "   midi.NoteOnEvent(tick=96, channel=2, data=[69, 0]),\r\n",
      "   midi.NoteOnEvent(tick=0, channel=2, data=[71, 100]),\r\n",
      "   midi.NoteOnEvent(tick=96, channel=2, data=[71, 0]),\r\n",
      "   midi.NoteOnEvent(tick=0, channel=2, data=[72, 100]),\r\n",
      "   midi.NoteOnEvent(tick=96, channel=2, data=[72, 0]),\r\n",
      "   midi.NoteOnEvent(tick=0, channel=2, data=[71, 100]),\r\n",
      "   midi.NoteOnEvent(tick=96, channel=2, data=[71, 0]),\r\n",
      "   midi.NoteOnEvent(tick=0, channel=2, data=[69, 100]),\r\n",
      "   midi.NoteOnEvent(tick=96, channel=2, data=[69, 0]),\r\n",
      "   midi.NoteOnEvent(tick=0, channel=2, data=[67, 100]),\r\n",
      "   midi.NoteOnEvent(tick=96, channel=2, data=[67, 0]),\r\n",
      "   midi.NoteOnEvent(tick=0, channel=2, data=[66, 100]),\r\n",
      "   midi.NoteOnEvent(tick=96, channel=2, data=[66, 0]),\r\n",
      "   midi.NoteOnEvent(tick=0, channel=2, data=[64, 100]),\r\n",
      "   midi.NoteOnEvent(tick=96, channel=2, data=[64, 0]),\r\n",
      "   midi.NoteOnEvent(tick=0, channel=2, data=[63, 100]),\r\n",
      "   midi.NoteOnEvent(tick=96, channel=2, data=[63, 0]),\r\n",
      "   midi.NoteOnEvent(tick=0, channel=2, data=[64, 100]),\r\n",
      "   midi.NoteOnEvent(tick=96, channel=2, data=[64, 0]),\r\n",
      "   midi.NoteOnEvent(tick=0, channel=2, data=[69, 100]),\r\n",
      "   midi.NoteOnEvent(tick=192, channel=2, data=[69, 0]),\r\n",
      "   midi.NoteOnEvent(tick=0, channel=2, data=[64, 100]),\r\n",
      "   midi.NoteOnEvent(tick=192, channel=2, data=[64, 0]),\r\n",
      "   midi.NoteOnEvent(tick=0, channel=2, data=[64, 100]),\r\n",
      "   midi.NoteOnEvent(tick=192, channel=2, data=[64, 0]),\r\n",
      "   midi.NoteOnEvent(tick=0, channel=2, data=[63, 100]),\r\n",
      "   midi.NoteOnEvent(tick=192, channel=2, data=[63, 0]),\r\n",
      "   midi.NoteOnEvent(tick=0, channel=2, data=[59, 100]),\r\n",
      "   midi.NoteOnEvent(tick=384, channel=2, data=[59, 0]),\r\n",
      "   midi.NoteOnEvent(tick=576, channel=2, data=[67, 100]),\r\n",
      "   midi.NoteOnEvent(tick=192, channel=2, data=[67, 0]),\r\n",
      "   midi.NoteOnEvent(tick=0, channel=2, data=[71, 100]),\r\n",
      "   midi.NoteOnEvent(tick=192, channel=2, data=[71, 0]),\r\n",
      "   midi.NoteOnEvent(tick=384, channel=2, data=[71, 100]),\r\n",
      "   midi.NoteOnEvent(tick=96, channel=2, data=[71, 0]),\r\n",
      "   midi.NoteOnEvent(tick=0, channel=2, data=[73, 100]),\r\n",
      "   midi.NoteOnEvent(tick=96, channel=2, data=[73, 0]),\r\n",
      "   midi.NoteOnEvent(tick=0, channel=2, data=[75, 100]),\r\n",
      "   midi.NoteOnEvent(tick=192, channel=2, data=[75, 0]),\r\n",
      "   midi.NoteOnEvent(tick=384, channel=2, data=[63, 100]),\r\n",
      "   midi.NoteOnEvent(tick=192, channel=2, data=[63, 0]),\r\n",
      "   midi.NoteOnEvent(tick=0, channel=2, data=[69, 100]),\r\n",
      "   midi.NoteOnEvent(tick=192, channel=2, data=[69, 0]),\r\n",
      "   midi.NoteOnEvent(tick=384, channel=2, data=[71, 100]),\r\n",
      "   midi.NoteOnEvent(tick=192, channel=2, data=[71, 0]),\r\n",
      "   midi.NoteOnEvent(tick=0, channel=2, data=[76, 100]),\r\n",
      "   midi.NoteOnEvent(tick=192, channel=2, data=[76, 0]),\r\n",
      "   midi.NoteOnEvent(tick=0, channel=2, data=[67, 100]),\r\n",
      "   midi.NoteOnEvent(tick=192, channel=2, data=[67, 0]),\r\n",
      "   midi.NoteOnEvent(tick=0, channel=2, data=[69, 100]),\r\n",
      "   midi.NoteOnEvent(tick=384, channel=2, data=[69, 0]),\r\n",
      "   midi.NoteOnEvent(tick=0, channel=2, data=[71, 100]),\r\n",
      "   midi.NoteOnEvent(tick=384, channel=2, data=[71, 0]),\r\n",
      "   midi.NoteOnEvent(tick=0, channel=2, data=[72, 100]),\r\n",
      "   midi.NoteOnEvent(tick=384, channel=2, data=[72, 0]),\r\n",
      "   midi.NoteOnEvent(tick=0, channel=2, data=[68, 100]),\r\n",
      "   midi.NoteOnEvent(tick=384, channel=2, data=[68, 0]),\r\n",
      "   midi.NoteOnEvent(tick=0, channel=2, data=[69, 100]),\r\n",
      "   midi.NoteOnEvent(tick=384, channel=2, data=[69, 0]),\r\n",
      "   midi.NoteOnEvent(tick=0, channel=2, data=[67, 100]),\r\n",
      "   midi.NoteOnEvent(tick=384, channel=2, data=[67, 0]),\r\n",
      "   midi.NoteOnEvent(tick=0, channel=2, data=[65, 100]),\r\n",
      "   midi.NoteOnEvent(tick=384, channel=2, data=[65, 0]),\r\n",
      "   midi.NoteOnEvent(tick=0, channel=2, data=[64, 100]),\r\n",
      "   midi.NoteOnEvent(tick=384, channel=2, data=[64, 0]),\r\n",
      "   midi.NoteOnEvent(tick=0, channel=2, data=[62, 100]),\r\n",
      "   midi.NoteOnEvent(tick=384, channel=2, data=[62, 0]),\r\n",
      "   midi.NoteOnEvent(tick=0, channel=2, data=[57, 100]),\r\n",
      "   midi.NoteOnEvent(tick=384, channel=2, data=[57, 0]),\r\n",
      "   midi.NoteOnEvent(tick=0, channel=2, data=[62, 100]),\r\n",
      "   midi.NoteOnEvent(tick=384, channel=2, data=[62, 0]),\r\n",
      "   midi.NoteOnEvent(tick=0, channel=2, data=[66, 100]),\r\n",
      "   midi.NoteOnEvent(tick=384, channel=2, data=[66, 0]),\r\n",
      "   midi.NoteOnEvent(tick=0, channel=2, data=[67, 100]),\r\n",
      "   midi.NoteOnEvent(tick=384, channel=2, data=[67, 0]),\r\n",
      "   midi.NoteOnEvent(tick=0, channel=2, data=[65, 100]),\r\n",
      "   midi.NoteOnEvent(tick=384, channel=2, data=[65, 0]),\r\n",
      "   midi.NoteOnEvent(tick=0, channel=2, data=[64, 100]),\r\n",
      "   midi.NoteOnEvent(tick=384, channel=2, data=[64, 0]),\r\n",
      "   midi.NoteOnEvent(tick=0, channel=2, data=[62, 100]),\r\n",
      "   midi.NoteOnEvent(tick=384, channel=2, data=[62, 0]),\r\n",
      "   midi.NoteOnEvent(tick=0, channel=2, data=[60, 100]),\r\n",
      "   midi.NoteOnEvent(tick=384, channel=2, data=[60, 0]),\r\n",
      "   midi.NoteOnEvent(tick=0, channel=2, data=[67, 100]),\r\n",
      "   midi.NoteOnEvent(tick=384, channel=2, data=[67, 0]),\r\n",
      "   midi.NoteOnEvent(tick=0, channel=2, data=[72, 100]),\r\n",
      "   midi.NoteOnEvent(tick=384, channel=2, data=[72, 0]),\r\n",
      "   midi.NoteOnEvent(tick=0, channel=2, data=[76, 100]),\r\n",
      "   midi.NoteOnEvent(tick=384, channel=2, data=[76, 0]),\r\n",
      "   midi.NoteOnEvent(tick=0, channel=2, data=[77, 100]),\r\n",
      "   midi.NoteOnEvent(tick=384, channel=2, data=[77, 0]),\r\n",
      "   midi.NoteOnEvent(tick=2112, channel=2, data=[69, 100]),\r\n",
      "   midi.NoteOnEvent(tick=192, channel=2, data=[69, 0]),\r\n",
      "   midi.NoteOnEvent(tick=0, channel=2, data=[74, 100]),\r\n",
      "   midi.NoteOnEvent(tick=384, channel=2, data=[74, 0]),\r\n",
      "   midi.NoteOnEvent(tick=192, channel=2, data=[74, 100]),\r\n",
      "   midi.NoteOnEvent(tick=192, channel=2, data=[74, 0]),\r\n",
      "   midi.NoteOnEvent(tick=0, channel=2, data=[82, 100]),\r\n",
      "   midi.NoteOnEvent(tick=192, channel=2, data=[82, 0]),\r\n",
      "   midi.NoteOnEvent(tick=0, channel=2, data=[73, 100]),\r\n",
      "   midi.NoteOnEvent(tick=192, channel=2, data=[73, 0]),\r\n",
      "   midi.NoteOnEvent(tick=0, channel=2, data=[74, 100]),\r\n",
      "   midi.NoteOnEvent(tick=192, channel=2, data=[74, 0]),\r\n",
      "   midi.NoteOnEvent(tick=0, channel=2, data=[69, 100]),\r\n",
      "   midi.NoteOnEvent(tick=192, channel=2, data=[69, 0]),\r\n",
      "   midi.NoteOnEvent(tick=0, channel=2, data=[69, 100]),\r\n",
      "   midi.NoteOnEvent(tick=192, channel=2, data=[69, 0]),\r\n",
      "   midi.NoteOnEvent(tick=0, channel=2, data=[69, 100]),\r\n",
      "   midi.NoteOnEvent(tick=192, channel=2, data=[69, 0]),\r\n",
      "   midi.NoteOnEvent(tick=0, channel=2, data=[69, 100]),\r\n",
      "   midi.NoteOnEvent(tick=384, channel=2, data=[69, 0]),\r\n",
      "   midi.NoteOnEvent(tick=192, channel=2, data=[65, 100]),\r\n",
      "   midi.NoteOnEvent(tick=192, channel=2, data=[65, 0]),\r\n",
      "   midi.NoteOnEvent(tick=0, channel=2, data=[67, 100]),\r\n",
      "   midi.NoteOnEvent(tick=192, channel=2, data=[67, 0]),\r\n",
      "   midi.NoteOnEvent(tick=0, channel=2, data=[67, 100]),\r\n",
      "   midi.NoteOnEvent(tick=192, channel=2, data=[67, 0]),\r\n",
      "   midi.NoteOnEvent(tick=0, channel=2, data=[69, 100]),\r\n",
      "   midi.NoteOnEvent(tick=192, channel=2, data=[69, 0]),\r\n",
      "   midi.NoteOnEvent(tick=0, channel=2, data=[69, 100]),\r\n",
      "   midi.NoteOnEvent(tick=192, channel=2, data=[69, 0]),\r\n",
      "   midi.NoteOnEvent(tick=0, channel=2, data=[70, 100]),\r\n",
      "   midi.NoteOnEvent(tick=192, channel=2, data=[70, 0]),\r\n",
      "   midi.NoteOnEvent(tick=0, channel=2, data=[70, 100]),\r\n",
      "   midi.NoteOnEvent(tick=192, channel=2, data=[70, 0]),\r\n",
      "   midi.NoteOnEvent(tick=0, channel=2, data=[66, 100]),\r\n",
      "   midi.NoteOnEvent(tick=192, channel=2, data=[66, 0]),\r\n",
      "   midi.NoteOnEvent(tick=0, channel=2, data=[66, 100]),\r\n",
      "   midi.NoteOnEvent(tick=192, channel=2, data=[66, 0]),\r\n",
      "   midi.NoteOnEvent(tick=0, channel=2, data=[67, 100]),\r\n",
      "   midi.NoteOnEvent(tick=192, channel=2, data=[67, 0]),\r\n",
      "   midi.NoteOnEvent(tick=0, channel=2, data=[70, 100]),\r\n",
      "   midi.NoteOnEvent(tick=192, channel=2, data=[70, 0]),\r\n",
      "   midi.NoteOnEvent(tick=0, channel=2, data=[74, 100]),\r\n",
      "   midi.NoteOnEvent(tick=192, channel=2, data=[74, 0]),\r\n",
      "   midi.NoteOnEvent(tick=0, channel=2, data=[79, 100]),\r\n",
      "   midi.NoteOnEvent(tick=192, channel=2, data=[79, 0]),\r\n",
      "   midi.NoteOnEvent(tick=0, channel=2, data=[76, 100]),\r\n",
      "   midi.NoteOnEvent(tick=192, channel=2, data=[76, 0]),\r\n",
      "   midi.NoteOnEvent(tick=0, channel=2, data=[72, 100]),\r\n",
      "   midi.NoteOnEvent(tick=192, channel=2, data=[72, 0]),\r\n",
      "   midi.NoteOnEvent(tick=0, channel=2, data=[67, 100]),\r\n",
      "   midi.NoteOnEvent(tick=192, channel=2, data=[67, 0]),\r\n",
      "   midi.NoteOnEvent(tick=0, channel=2, data=[67, 100]),\r\n",
      "   midi.NoteOnEvent(tick=192, channel=2, data=[67, 0]),\r\n",
      "   midi.NoteOnEvent(tick=0, channel=2, data=[69, 100]),\r\n",
      "   midi.NoteOnEvent(tick=192, channel=2, data=[69, 0]),\r\n",
      "   midi.NoteOnEvent(tick=0, channel=2, data=[69, 100]),\r\n",
      "   midi.NoteOnEvent(tick=192, channel=2, data=[69, 0]),\r\n",
      "   midi.NoteOnEvent(tick=0, channel=2, data=[64, 100]),\r\n",
      "   midi.NoteOnEvent(tick=192, channel=2, data=[64, 0]),\r\n",
      "   midi.NoteOnEvent(tick=0, channel=2, data=[64, 100]),\r\n",
      "   midi.NoteOnEvent(tick=192, channel=2, data=[64, 0]),\r\n",
      "   midi.NoteOnEvent(tick=0, channel=2, data=[65, 100]),\r\n",
      "   midi.NoteOnEvent(tick=192, channel=2, data=[65, 0]),\r\n",
      "   midi.NoteOnEvent(tick=0, channel=2, data=[69, 100]),\r\n",
      "   midi.NoteOnEvent(tick=192, channel=2, data=[69, 0]),\r\n",
      "   midi.NoteOnEvent(tick=0, channel=2, data=[72, 100]),\r\n",
      "   midi.NoteOnEvent(tick=192, channel=2, data=[72, 0]),\r\n",
      "   midi.NoteOnEvent(tick=0, channel=2, data=[77, 100]),\r\n",
      "   midi.NoteOnEvent(tick=192, channel=2, data=[77, 0]),\r\n",
      "   midi.NoteOnEvent(tick=0, channel=2, data=[74, 100]),\r\n",
      "   midi.NoteOnEvent(tick=192, channel=2, data=[74, 0]),\r\n",
      "   midi.NoteOnEvent(tick=0, channel=2, data=[70, 100]),\r\n",
      "   midi.NoteOnEvent(tick=192, channel=2, data=[70, 0]),\r\n",
      "   midi.NoteOnEvent(tick=0, channel=2, data=[70, 100]),\r\n",
      "   midi.NoteOnEvent(tick=192, channel=2, data=[70, 0]),\r\n",
      "   midi.NoteOnEvent(tick=0, channel=2, data=[70, 100]),\r\n",
      "   midi.NoteOnEvent(tick=192, channel=2, data=[70, 0]),\r\n",
      "   midi.NoteOnEvent(tick=0, channel=2, data=[70, 100]),\r\n",
      "   midi.NoteOnEvent(tick=192, channel=2, data=[70, 0]),\r\n",
      "   midi.NoteOnEvent(tick=0, channel=2, data=[70, 100]),\r\n",
      "   midi.NoteOnEvent(tick=192, channel=2, data=[70, 0]),\r\n",
      "   midi.NoteOnEvent(tick=0, channel=2, data=[70, 100]),\r\n",
      "   midi.NoteOnEvent(tick=192, channel=2, data=[70, 0]),\r\n",
      "   midi.NoteOnEvent(tick=0, channel=2, data=[70, 100]),\r\n",
      "   midi.NoteOnEvent(tick=192, channel=2, data=[70, 0]),\r\n",
      "   midi.NoteOnEvent(tick=0, channel=2, data=[70, 100]),\r\n",
      "   midi.NoteOnEvent(tick=192, channel=2, data=[70, 0]),\r\n",
      "   midi.NoteOnEvent(tick=0, channel=2, data=[70, 100]),\r\n",
      "   midi.NoteOnEvent(tick=192, channel=2, data=[70, 0]),\r\n",
      "   midi.NoteOnEvent(tick=0, channel=2, data=[64, 100]),\r\n",
      "   midi.NoteOnEvent(tick=192, channel=2, data=[64, 0]),\r\n",
      "   midi.NoteOnEvent(tick=0, channel=2, data=[67, 100]),\r\n",
      "   midi.NoteOnEvent(tick=192, channel=2, data=[67, 0]),\r\n",
      "   midi.NoteOnEvent(tick=0, channel=2, data=[69, 100]),\r\n",
      "   midi.NoteOnEvent(tick=192, channel=2, data=[69, 0]),\r\n",
      "   midi.NoteOnEvent(tick=0, channel=2, data=[69, 100]),\r\n",
      "   midi.NoteOnEvent(tick=192, channel=2, data=[69, 0]),\r\n",
      "   midi.NoteOnEvent(tick=0, channel=2, data=[69, 100]),\r\n",
      "   midi.NoteOnEvent(tick=192, channel=2, data=[69, 0]),\r\n",
      "   midi.NoteOnEvent(tick=0, channel=2, data=[69, 100]),\r\n",
      "   midi.NoteOnEvent(tick=192, channel=2, data=[69, 0]),\r\n",
      "   midi.NoteOnEvent(tick=0, channel=2, data=[69, 100]),\r\n",
      "   midi.NoteOnEvent(tick=192, channel=2, data=[69, 0]),\r\n",
      "   midi.NoteOnEvent(tick=0, channel=2, data=[69, 100]),\r\n",
      "   midi.NoteOnEvent(tick=192, channel=2, data=[69, 0]),\r\n",
      "   midi.NoteOnEvent(tick=0, channel=2, data=[69, 100]),\r\n",
      "   midi.NoteOnEvent(tick=192, channel=2, data=[69, 0]),\r\n",
      "   midi.NoteOnEvent(tick=0, channel=2, data=[69, 100]),\r\n",
      "   midi.NoteOnEvent(tick=192, channel=2, data=[69, 0]),\r\n",
      "   midi.NoteOnEvent(tick=0, channel=2, data=[69, 100]),\r\n",
      "   midi.NoteOnEvent(tick=384, channel=2, data=[69, 0]),\r\n",
      "   midi.NoteOnEvent(tick=192, channel=2, data=[74, 100]),\r\n",
      "   midi.NoteOnEvent(tick=192, channel=2, data=[74, 0]),\r\n",
      "   midi.NoteOnEvent(tick=0, channel=2, data=[74, 100]),\r\n",
      "   midi.NoteOnEvent(tick=384, channel=2, data=[74, 0]),\r\n",
      "   midi.NoteOnEvent(tick=960, channel=2, data=[72, 100]),\r\n",
      "   midi.NoteOnEvent(tick=192, channel=2, data=[72, 0]),\r\n",
      "   midi.NoteOnEvent(tick=0, channel=2, data=[72, 100]),\r\n",
      "   midi.NoteOnEvent(tick=384, channel=2, data=[72, 0]),\r\n",
      "   midi.NoteOnEvent(tick=960, channel=2, data=[71, 100]),\r\n",
      "   midi.NoteOnEvent(tick=192, channel=2, data=[71, 0]),\r\n",
      "   midi.NoteOnEvent(tick=0, channel=2, data=[71, 100]),\r\n",
      "   midi.NoteOnEvent(tick=192, channel=2, data=[71, 0]),\r\n",
      "   midi.NoteOnEvent(tick=0, channel=2, data=[69, 100]),\r\n",
      "   midi.NoteOnEvent(tick=192, channel=2, data=[69, 0]),\r\n",
      "   midi.NoteOnEvent(tick=0, channel=2, data=[68, 100]),\r\n",
      "   midi.NoteOnEvent(tick=192, channel=2, data=[68, 0]),\r\n",
      "   midi.NoteOnEvent(tick=0, channel=2, data=[71, 100]),\r\n",
      "   midi.NoteOnEvent(tick=192, channel=2, data=[71, 0]),\r\n",
      "   midi.NoteOnEvent(tick=0, channel=2, data=[76, 100]),\r\n",
      "   midi.NoteOnEvent(tick=384, channel=2, data=[76, 0]),\r\n",
      "   midi.NoteOnEvent(tick=192, channel=2, data=[72, 100]),\r\n",
      "   midi.NoteOnEvent(tick=192, channel=2, data=[72, 0]),\r\n",
      "   midi.NoteOnEvent(tick=0, channel=2, data=[74, 100]),\r\n",
      "   midi.NoteOnEvent(tick=384, channel=2, data=[74, 0]),\r\n",
      "   midi.NoteOnEvent(tick=192, channel=2, data=[71, 100]),\r\n",
      "   midi.NoteOnEvent(tick=192, channel=2, data=[71, 0]),\r\n",
      "   midi.NoteOnEvent(tick=0, channel=2, data=[72, 100]),\r\n",
      "   midi.NoteOnEvent(tick=96, channel=2, data=[72, 0]),\r\n",
      "   midi.NoteOnEvent(tick=0, channel=2, data=[74, 100]),\r\n",
      "   midi.NoteOnEvent(tick=96, channel=2, data=[74, 0]),\r\n",
      "   midi.NoteOnEvent(tick=0, channel=2, data=[76, 100]),\r\n",
      "   midi.NoteOnEvent(tick=96, channel=2, data=[76, 0]),\r\n",
      "   midi.NoteOnEvent(tick=0, channel=2, data=[72, 100]),\r\n",
      "   midi.NoteOnEvent(tick=96, channel=2, data=[72, 0]),\r\n",
      "   midi.NoteOnEvent(tick=0, channel=2, data=[71, 100]),\r\n",
      "   midi.NoteOnEvent(tick=96, channel=2, data=[71, 0]),\r\n",
      "   midi.NoteOnEvent(tick=0, channel=2, data=[72, 100]),\r\n",
      "   midi.NoteOnEvent(tick=96, channel=2, data=[72, 0]),\r\n",
      "   midi.NoteOnEvent(tick=0, channel=2, data=[74, 100]),\r\n",
      "   midi.NoteOnEvent(tick=96, channel=2, data=[74, 0]),\r\n",
      "   midi.NoteOnEvent(tick=0, channel=2, data=[71, 100]),\r\n",
      "   midi.NoteOnEvent(tick=96, channel=2, data=[71, 0]),\r\n",
      "   midi.NoteOnEvent(tick=0, channel=2, data=[69, 100]),\r\n",
      "   midi.NoteOnEvent(tick=192, channel=2, data=[69, 0]),\r\n",
      "   midi.NoteOnEvent(tick=0, channel=2, data=[64, 100]),\r\n",
      "   midi.NoteOnEvent(tick=192, channel=2, data=[64, 0]),\r\n",
      "   midi.NoteOnEvent(tick=576, channel=2, data=[57, 100]),\r\n",
      "   midi.NoteOnEvent(tick=192, channel=2, data=[57, 0]),\r\n",
      "   midi.NoteOnEvent(tick=0, channel=2, data=[57, 100]),\r\n",
      "   midi.NoteOnEvent(tick=192, channel=2, data=[57, 0]),\r\n",
      "   midi.NoteOnEvent(tick=0, channel=2, data=[57, 100]),\r\n",
      "   midi.NoteOnEvent(tick=192, channel=2, data=[57, 0]),\r\n",
      "   midi.NoteOnEvent(tick=0, channel=2, data=[57, 100]),\r\n",
      "   midi.NoteOnEvent(tick=192, channel=2, data=[57, 0]),\r\n",
      "   midi.NoteOnEvent(tick=0, channel=2, data=[57, 100]),\r\n",
      "   midi.NoteOnEvent(tick=192, channel=2, data=[57, 0]),\r\n",
      "   midi.NoteOnEvent(tick=0, channel=2, data=[57, 100]),\r\n",
      "   midi.NoteOnEvent(tick=192, channel=2, data=[57, 0]),\r\n",
      "   midi.NoteOnEvent(tick=0, channel=2, data=[57, 100]),\r\n",
      "   midi.NoteOnEvent(tick=192, channel=2, data=[57, 0]),\r\n",
      "   midi.NoteOnEvent(tick=0, channel=2, data=[57, 100]),\r\n",
      "   midi.NoteOnEvent(tick=192, channel=2, data=[57, 0]),\r\n",
      "   midi.NoteOnEvent(tick=0, channel=2, data=[57, 100]),\r\n",
      "   midi.NoteOnEvent(tick=192, channel=2, data=[57, 0]),\r\n",
      "   midi.NoteOnEvent(tick=0, channel=2, data=[57, 100]),\r\n",
      "   midi.NoteOnEvent(tick=192, channel=2, data=[57, 0]),\r\n",
      "   midi.NoteOnEvent(tick=0, channel=2, data=[57, 100]),\r\n",
      "   midi.NoteOnEvent(tick=192, channel=2, data=[57, 0]),\r\n",
      "   midi.NoteOnEvent(tick=0, channel=2, data=[62, 100]),\r\n",
      "   midi.NoteOnEvent(tick=192, channel=2, data=[62, 0]),\r\n",
      "   midi.NoteOnEvent(tick=0, channel=2, data=[62, 100]),\r\n",
      "   midi.NoteOnEvent(tick=192, channel=2, data=[62, 0]),\r\n",
      "   midi.NoteOnEvent(tick=0, channel=2, data=[62, 100]),\r\n",
      "   midi.NoteOnEvent(tick=192, channel=2, data=[62, 0]),\r\n",
      "   midi.NoteOnEvent(tick=0, channel=2, data=[62, 100]),\r\n",
      "   midi.NoteOnEvent(tick=192, channel=2, data=[62, 0]),\r\n",
      "   midi.NoteOnEvent(tick=0, channel=2, data=[62, 100]),\r\n",
      "   midi.NoteOnEvent(tick=192, channel=2, data=[62, 0]),\r\n",
      "   midi.NoteOnEvent(tick=0, channel=2, data=[62, 100]),\r\n",
      "   midi.NoteOnEvent(tick=192, channel=2, data=[62, 0]),\r\n",
      "   midi.NoteOnEvent(tick=0, channel=2, data=[62, 100]),\r\n",
      "   midi.NoteOnEvent(tick=192, channel=2, data=[62, 0]),\r\n",
      "   midi.NoteOnEvent(tick=0, channel=2, data=[62, 100]),\r\n",
      "   midi.NoteOnEvent(tick=192, channel=2, data=[62, 0]),\r\n",
      "   midi.NoteOnEvent(tick=0, channel=2, data=[67, 100]),\r\n",
      "   midi.NoteOnEvent(tick=192, channel=2, data=[67, 0]),\r\n",
      "   midi.NoteOnEvent(tick=0, channel=2, data=[67, 100]),\r\n",
      "   midi.NoteOnEvent(tick=192, channel=2, data=[67, 0]),\r\n",
      "   midi.NoteOnEvent(tick=0, channel=2, data=[67, 100]),\r\n",
      "   midi.NoteOnEvent(tick=192, channel=2, data=[67, 0]),\r\n",
      "   midi.NoteOnEvent(tick=0, channel=2, data=[67, 100]),\r\n",
      "   midi.NoteOnEvent(tick=192, channel=2, data=[67, 0]),\r\n",
      "   midi.NoteOnEvent(tick=0, channel=2, data=[67, 100]),\r\n",
      "   midi.NoteOnEvent(tick=384, channel=2, data=[67, 0]),\r\n",
      "   midi.NoteOnEvent(tick=0, channel=2, data=[73, 100]),\r\n",
      "   midi.NoteOnEvent(tick=384, channel=2, data=[73, 0]),\r\n",
      "   midi.NoteOnEvent(tick=0, channel=2, data=[72, 100]),\r\n",
      "   midi.NoteOnEvent(tick=384, channel=2, data=[72, 0]),\r\n",
      "   midi.NoteOnEvent(tick=0, channel=2, data=[70, 100]),\r\n",
      "   midi.NoteOnEvent(tick=384, channel=2, data=[70, 0]),\r\n",
      "   midi.NoteOnEvent(tick=0, channel=2, data=[68, 100]),\r\n",
      "   midi.NoteOnEvent(tick=192, channel=2, data=[68, 0]),\r\n",
      "   midi.NoteOnEvent(tick=0, channel=2, data=[68, 100]),\r\n",
      "   midi.NoteOnEvent(tick=192, channel=2, data=[68, 0]),\r\n",
      "   midi.NoteOnEvent(tick=0, channel=2, data=[60, 100]),\r\n",
      "   midi.NoteOnEvent(tick=192, channel=2, data=[60, 0]),\r\n",
      "   midi.NoteOnEvent(tick=0, channel=2, data=[60, 100]),\r\n",
      "   midi.NoteOnEvent(tick=192, channel=2, data=[60, 0]),\r\n",
      "   midi.NoteOnEvent(tick=0, channel=2, data=[67, 100]),\r\n",
      "   midi.NoteOnEvent(tick=384, channel=2, data=[67, 0]),\r\n",
      "   midi.NoteOnEvent(tick=384, channel=2, data=[67, 100]),\r\n",
      "   midi.NoteOnEvent(tick=192, channel=2, data=[67, 0]),\r\n",
      "   midi.NoteOnEvent(tick=0, channel=2, data=[67, 100]),\r\n",
      "   midi.NoteOnEvent(tick=192, channel=2, data=[67, 0]),\r\n",
      "   midi.NoteOnEvent(tick=0, channel=2, data=[64, 100]),\r\n",
      "   midi.NoteOnEvent(tick=192, channel=2, data=[64, 0]),\r\n",
      "   midi.NoteOnEvent(tick=0, channel=2, data=[64, 100]),\r\n",
      "   midi.NoteOnEvent(tick=192, channel=2, data=[64, 0]),\r\n",
      "   midi.NoteOnEvent(tick=0, channel=2, data=[62, 100]),\r\n",
      "   midi.NoteOnEvent(tick=384, channel=2, data=[62, 0]),\r\n",
      "   midi.NoteOnEvent(tick=384, channel=2, data=[62, 100]),\r\n",
      "   midi.NoteOnEvent(tick=192, channel=2, data=[62, 0]),\r\n",
      "   midi.NoteOnEvent(tick=0, channel=2, data=[62, 100]),\r\n",
      "   midi.NoteOnEvent(tick=192, channel=2, data=[62, 0]),\r\n",
      "   midi.NoteOnEvent(tick=0, channel=2, data=[59, 100]),\r\n",
      "   midi.NoteOnEvent(tick=192, channel=2, data=[59, 0]),\r\n",
      "   midi.NoteOnEvent(tick=0, channel=2, data=[59, 100]),\r\n",
      "   midi.NoteOnEvent(tick=192, channel=2, data=[59, 0]),\r\n",
      "   midi.NoteOnEvent(tick=0, channel=2, data=[57, 100]),\r\n",
      "   midi.NoteOnEvent(tick=384, channel=2, data=[57, 0]),\r\n",
      "   midi.NoteOnEvent(tick=1728, channel=2, data=[71, 100]),\r\n",
      "   midi.NoteOnEvent(tick=192, channel=2, data=[71, 0]),\r\n",
      "   midi.NoteOnEvent(tick=0, channel=2, data=[76, 100]),\r\n",
      "   midi.NoteOnEvent(tick=384, channel=2, data=[76, 0]),\r\n",
      "   midi.NoteOnEvent(tick=192, channel=2, data=[72, 100]),\r\n",
      "   midi.NoteOnEvent(tick=192, channel=2, data=[72, 0]),\r\n",
      "   midi.NoteOnEvent(tick=0, channel=2, data=[74, 100]),\r\n",
      "   midi.NoteOnEvent(tick=384, channel=2, data=[74, 0]),\r\n",
      "   midi.NoteOnEvent(tick=192, channel=2, data=[71, 100]),\r\n",
      "   midi.NoteOnEvent(tick=192, channel=2, data=[71, 0]),\r\n",
      "   midi.NoteOnEvent(tick=0, channel=2, data=[72, 100]),\r\n",
      "   midi.NoteOnEvent(tick=96, channel=2, data=[72, 0]),\r\n",
      "   midi.NoteOnEvent(tick=0, channel=2, data=[74, 100]),\r\n",
      "   midi.NoteOnEvent(tick=96, channel=2, data=[74, 0]),\r\n",
      "   midi.NoteOnEvent(tick=0, channel=2, data=[76, 100]),\r\n",
      "   midi.NoteOnEvent(tick=96, channel=2, data=[76, 0]),\r\n",
      "   midi.NoteOnEvent(tick=0, channel=2, data=[72, 100]),\r\n",
      "   midi.NoteOnEvent(tick=96, channel=2, data=[72, 0]),\r\n",
      "   midi.NoteOnEvent(tick=0, channel=2, data=[71, 100]),\r\n",
      "   midi.NoteOnEvent(tick=96, channel=2, data=[71, 0]),\r\n",
      "   midi.NoteOnEvent(tick=0, channel=2, data=[72, 100]),\r\n",
      "   midi.NoteOnEvent(tick=96, channel=2, data=[72, 0]),\r\n",
      "   midi.NoteOnEvent(tick=0, channel=2, data=[74, 100]),\r\n",
      "   midi.NoteOnEvent(tick=96, channel=2, data=[74, 0]),\r\n",
      "   midi.NoteOnEvent(tick=0, channel=2, data=[71, 100]),\r\n",
      "   midi.NoteOnEvent(tick=96, channel=2, data=[71, 0]),\r\n",
      "   midi.NoteOnEvent(tick=0, channel=2, data=[69, 100]),\r\n",
      "   midi.NoteOnEvent(tick=192, channel=2, data=[69, 0]),\r\n",
      "   midi.NoteOnEvent(tick=0, channel=2, data=[76, 100]),\r\n",
      "   midi.NoteOnEvent(tick=96, channel=2, data=[76, 0]),\r\n",
      "   midi.NoteOnEvent(tick=0, channel=2, data=[74, 100]),\r\n",
      "   midi.NoteOnEvent(tick=96, channel=2, data=[74, 0]),\r\n",
      "   midi.NoteOnEvent(tick=0, channel=2, data=[72, 100]),\r\n",
      "   midi.NoteOnEvent(tick=96, channel=2, data=[72, 0]),\r\n",
      "   midi.NoteOnEvent(tick=0, channel=2, data=[71, 100]),\r",
      "\r\n",
      "   midi.NoteOnEvent(tick=96, channel=2, data=[71, 0]),\r\n",
      "   midi.NoteOnEvent(tick=0, channel=2, data=[69, 100]),\r\n",
      "   midi.NoteOnEvent(tick=96, channel=2, data=[69, 0]),\r\n",
      "   midi.NoteOnEvent(tick=0, channel=2, data=[67, 100]),\r\n",
      "   midi.NoteOnEvent(tick=96, channel=2, data=[67, 0]),\r\n",
      "   midi.NoteOnEvent(tick=0, channel=2, data=[69, 100]),\r\n",
      "   midi.NoteOnEvent(tick=96, channel=2, data=[69, 0]),\r\n",
      "   midi.NoteOnEvent(tick=0, channel=2, data=[79, 100]),\r\n",
      "   midi.NoteOnEvent(tick=96, channel=2, data=[79, 0]),\r\n",
      "   midi.NoteOnEvent(tick=0, channel=2, data=[77, 100]),\r\n",
      "   midi.NoteOnEvent(tick=96, channel=2, data=[77, 0]),\r\n",
      "   midi.NoteOnEvent(tick=0, channel=2, data=[76, 100]),\r\n",
      "   midi.NoteOnEvent(tick=96, channel=2, data=[76, 0]),\r\n",
      "   midi.NoteOnEvent(tick=0, channel=2, data=[74, 100]),\r\n",
      "   midi.NoteOnEvent(tick=96, channel=2, data=[74, 0]),\r\n",
      "   midi.NoteOnEvent(tick=0, channel=2, data=[72, 100]),\r\n",
      "   midi.NoteOnEvent(tick=96, channel=2, data=[72, 0]),\r\n",
      "   midi.NoteOnEvent(tick=0, channel=2, data=[71, 100]),\r\n",
      "   midi.NoteOnEvent(tick=96, channel=2, data=[71, 0]),\r\n",
      "   midi.NoteOnEvent(tick=0, channel=2, data=[69, 100]),\r\n",
      "   midi.NoteOnEvent(tick=96, channel=2, data=[69, 0]),\r\n",
      "   midi.NoteOnEvent(tick=0, channel=2, data=[71, 100]),\r\n",
      "   midi.NoteOnEvent(tick=192, channel=2, data=[71, 0]),\r\n",
      "   midi.NoteOnEvent(tick=0, channel=2, data=[79, 100]),\r\n",
      "   midi.NoteOnEvent(tick=192, channel=2, data=[79, 0]),\r\n",
      "   midi.NoteOnEvent(tick=1344, channel=2, data=[74, 100]),\r\n",
      "   midi.NoteOnEvent(tick=96, channel=2, data=[74, 0]),\r\n",
      "   midi.NoteOnEvent(tick=0, channel=2, data=[72, 100]),\r\n",
      "   midi.NoteOnEvent(tick=96, channel=2, data=[72, 0]),\r\n",
      "   midi.NoteOnEvent(tick=0, channel=2, data=[71, 100]),\r\n",
      "   midi.NoteOnEvent(tick=96, channel=2, data=[71, 0]),\r\n",
      "   midi.NoteOnEvent(tick=0, channel=2, data=[69, 100]),\r\n",
      "   midi.NoteOnEvent(tick=96, channel=2, data=[69, 0]),\r\n",
      "   midi.NoteOnEvent(tick=0, channel=2, data=[67, 100]),\r\n",
      "   midi.NoteOnEvent(tick=96, channel=2, data=[67, 0]),\r\n",
      "   midi.NoteOnEvent(tick=0, channel=2, data=[65, 100]),\r\n",
      "   midi.NoteOnEvent(tick=96, channel=2, data=[65, 0]),\r\n",
      "   midi.NoteOnEvent(tick=0, channel=2, data=[67, 100]),\r\n",
      "   midi.NoteOnEvent(tick=96, channel=2, data=[67, 0]),\r\n",
      "   midi.NoteOnEvent(tick=0, channel=2, data=[77, 100]),\r\n",
      "   midi.NoteOnEvent(tick=96, channel=2, data=[77, 0]),\r\n",
      "   midi.NoteOnEvent(tick=0, channel=2, data=[76, 100]),\r\n",
      "   midi.NoteOnEvent(tick=96, channel=2, data=[76, 0]),\r\n",
      "   midi.NoteOnEvent(tick=0, channel=2, data=[74, 100]),\r\n",
      "   midi.NoteOnEvent(tick=96, channel=2, data=[74, 0]),\r\n",
      "   midi.NoteOnEvent(tick=0, channel=2, data=[72, 100]),\r\n",
      "   midi.NoteOnEvent(tick=96, channel=2, data=[72, 0]),\r\n",
      "   midi.NoteOnEvent(tick=0, channel=2, data=[71, 100]),\r\n",
      "   midi.NoteOnEvent(tick=96, channel=2, data=[71, 0]),\r\n",
      "   midi.NoteOnEvent(tick=0, channel=2, data=[69, 100]),\r\n",
      "   midi.NoteOnEvent(tick=96, channel=2, data=[69, 0]),\r\n",
      "   midi.NoteOnEvent(tick=0, channel=2, data=[68, 100]),\r\n",
      "   midi.NoteOnEvent(tick=96, channel=2, data=[68, 0]),\r\n",
      "   midi.NoteOnEvent(tick=0, channel=2, data=[69, 100]),\r\n",
      "   midi.NoteOnEvent(tick=192, channel=2, data=[69, 0]),\r\n",
      "   midi.NoteOnEvent(tick=0, channel=2, data=[77, 100]),\r\n",
      "   midi.NoteOnEvent(tick=192, channel=2, data=[77, 0]),\r\n",
      "   midi.NoteOnEvent(tick=1344, channel=2, data=[72, 100]),\r\n",
      "   midi.NoteOnEvent(tick=96, channel=2, data=[72, 0]),\r\n",
      "   midi.NoteOnEvent(tick=0, channel=2, data=[71, 100]),\r\n",
      "   midi.NoteOnEvent(tick=96, channel=2, data=[71, 0]),\r\n",
      "   midi.NoteOnEvent(tick=0, channel=2, data=[69, 100]),\r\n",
      "   midi.NoteOnEvent(tick=96, channel=2, data=[69, 0]),\r\n",
      "   midi.NoteOnEvent(tick=0, channel=2, data=[67, 100]),\r\n",
      "   midi.NoteOnEvent(tick=96, channel=2, data=[67, 0]),\r\n",
      "   midi.NoteOnEvent(tick=0, channel=2, data=[65, 100]),\r\n",
      "   midi.NoteOnEvent(tick=96, channel=2, data=[65, 0]),\r\n",
      "   midi.NoteOnEvent(tick=0, channel=2, data=[64, 100]),\r\n",
      "   midi.NoteOnEvent(tick=96, channel=2, data=[64, 0]),\r\n",
      "   midi.NoteOnEvent(tick=0, channel=2, data=[65, 100]),\r\n",
      "   midi.NoteOnEvent(tick=384, channel=2, data=[65, 0]),\r\n",
      "   midi.NoteOnEvent(tick=96, channel=2, data=[64, 100]),\r\n",
      "   midi.NoteOnEvent(tick=96, channel=2, data=[64, 0]),\r\n",
      "   midi.NoteOnEvent(tick=0, channel=2, data=[62, 100]),\r\n",
      "   midi.NoteOnEvent(tick=96, channel=2, data=[62, 0]),\r\n",
      "   midi.NoteOnEvent(tick=0, channel=2, data=[60, 100]),\r\n",
      "   midi.NoteOnEvent(tick=96, channel=2, data=[60, 0]),\r\n",
      "   midi.NoteOnEvent(tick=0, channel=2, data=[59, 100]),\r\n",
      "   midi.NoteOnEvent(tick=192, channel=2, data=[59, 0]),\r\n",
      "   midi.NoteOnEvent(tick=0, channel=2, data=[71, 100]),\r\n",
      "   midi.NoteOnEvent(tick=192, channel=2, data=[71, 0]),\r\n",
      "   midi.NoteOnEvent(tick=0, channel=2, data=[69, 100]),\r\n",
      "   midi.NoteOnEvent(tick=192, channel=2, data=[69, 0]),\r\n",
      "   midi.NoteOnEvent(tick=0, channel=2, data=[57, 100]),\r\n",
      "   midi.NoteOnEvent(tick=384, channel=2, data=[57, 0]),\r\n",
      "   midi.NoteOnEvent(tick=0, channel=2, data=[64, 100]),\r\n",
      "   midi.NoteOnEvent(tick=192, channel=2, data=[64, 0]),\r\n",
      "   midi.NoteOnEvent(tick=0, channel=2, data=[62, 100]),\r\n",
      "   midi.NoteOnEvent(tick=192, channel=2, data=[62, 0]),\r\n",
      "   midi.NoteOnEvent(tick=0, channel=2, data=[74, 100]),\r\n",
      "   midi.NoteOnEvent(tick=384, channel=2, data=[74, 0]),\r\n",
      "   midi.NoteOnEvent(tick=0, channel=2, data=[71, 100]),\r\n",
      "   midi.NoteOnEvent(tick=192, channel=2, data=[71, 0]),\r\n",
      "   midi.NoteOnEvent(tick=0, channel=2, data=[72, 100]),\r\n",
      "   midi.NoteOnEvent(tick=192, channel=2, data=[72, 0]),\r\n",
      "   midi.NoteOnEvent(tick=0, channel=2, data=[76, 100]),\r\n",
      "   midi.NoteOnEvent(tick=192, channel=2, data=[76, 0]),\r\n",
      "   midi.NoteOnEvent(tick=0, channel=2, data=[76, 100]),\r\n",
      "   midi.NoteOnEvent(tick=384, channel=2, data=[76, 0]),\r\n",
      "   midi.NoteOnEvent(tick=0, channel=2, data=[76, 100]),\r\n",
      "   midi.NoteOnEvent(tick=768, channel=2, data=[76, 0]),\r\n",
      "   midi.NoteOnEvent(tick=384, channel=2, data=[71, 100]),\r\n",
      "   midi.NoteOnEvent(tick=384, channel=2, data=[71, 0]),\r\n",
      "   midi.NoteOnEvent(tick=384, channel=2, data=[74, 100]),\r\n",
      "   midi.NoteOnEvent(tick=384, channel=2, data=[74, 0]),\r\n",
      "   midi.NoteOnEvent(tick=384, channel=2, data=[71, 100]),\r\n",
      "   midi.NoteOnEvent(tick=384, channel=2, data=[71, 0]),\r\n",
      "   midi.NoteOnEvent(tick=384, channel=2, data=[71, 100]),\r\n",
      "   midi.NoteOnEvent(tick=768, channel=2, data=[71, 0]),\r\n",
      "   midi.NoteOnEvent(tick=96, channel=2, data=[72, 100]),\r\n",
      "   midi.NoteOnEvent(tick=96, channel=2, data=[72, 0]),\r\n",
      "   midi.NoteOnEvent(tick=0, channel=2, data=[74, 100]),\r\n",
      "   midi.NoteOnEvent(tick=96, channel=2, data=[74, 0]),\r\n",
      "   midi.NoteOnEvent(tick=0, channel=2, data=[76, 100]),\r\n",
      "   midi.NoteOnEvent(tick=96, channel=2, data=[76, 0]),\r\n",
      "   midi.NoteOnEvent(tick=0, channel=2, data=[78, 100]),\r\n",
      "   midi.NoteOnEvent(tick=96, channel=2, data=[78, 0]),\r\n",
      "   midi.NoteOnEvent(tick=0, channel=2, data=[80, 100]),\r\n",
      "   midi.NoteOnEvent(tick=96, channel=2, data=[80, 0]),\r\n",
      "   midi.NoteOnEvent(tick=0, channel=2, data=[81, 100]),\r\n",
      "   midi.NoteOnEvent(tick=96, channel=2, data=[81, 0]),\r\n",
      "   midi.NoteOnEvent(tick=0, channel=2, data=[83, 100]),\r\n",
      "   midi.NoteOnEvent(tick=96, channel=2, data=[83, 0]),\r\n",
      "   midi.NoteOnEvent(tick=0, channel=2, data=[76, 100]),\r\n",
      "   midi.NoteOnEvent(tick=192, channel=2, data=[76, 0]),\r\n",
      "   midi.NoteOnEvent(tick=0, channel=2, data=[72, 100]),\r\n",
      "   midi.NoteOnEvent(tick=192, channel=2, data=[72, 0]),\r\n",
      "   midi.NoteOnEvent(tick=0, channel=2, data=[74, 100]),\r\n",
      "   midi.NoteOnEvent(tick=192, channel=2, data=[74, 0]),\r\n",
      "   midi.NoteOnEvent(tick=0, channel=2, data=[71, 100]),\r\n",
      "   midi.NoteOnEvent(tick=192, channel=2, data=[71, 0]),\r\n",
      "   midi.NoteOnEvent(tick=0, channel=2, data=[69, 100]),\r\n",
      "   midi.NoteOnEvent(tick=192, channel=2, data=[69, 0]),\r\n",
      "   midi.NoteOnEvent(tick=0, channel=2, data=[81, 100]),\r\n",
      "   midi.NoteOnEvent(tick=96, channel=2, data=[81, 0]),\r\n",
      "   midi.NoteOnEvent(tick=0, channel=2, data=[79, 100]),\r\n",
      "   midi.NoteOnEvent(tick=96, channel=2, data=[79, 0]),\r\n",
      "   midi.NoteOnEvent(tick=0, channel=2, data=[77, 100]),\r\n",
      "   midi.NoteOnEvent(tick=96, channel=2, data=[77, 0]),\r\n",
      "   midi.NoteOnEvent(tick=0, channel=2, data=[76, 100]),\r\n",
      "   midi.NoteOnEvent(tick=96, channel=2, data=[76, 0]),\r\n",
      "   midi.NoteOnEvent(tick=0, channel=2, data=[74, 100]),\r\n",
      "   midi.NoteOnEvent(tick=96, channel=2, data=[74, 0]),\r\n",
      "   midi.NoteOnEvent(tick=0, channel=2, data=[72, 100]),\r\n",
      "   midi.NoteOnEvent(tick=96, channel=2, data=[72, 0]),\r\n",
      "   midi.NoteOnEvent(tick=0, channel=2, data=[71, 100]),\r\n",
      "   midi.NoteOnEvent(tick=96, channel=2, data=[71, 0]),\r\n",
      "   midi.NoteOnEvent(tick=0, channel=2, data=[69, 100]),\r\n",
      "   midi.NoteOnEvent(tick=96, channel=2, data=[69, 0]),\r\n",
      "   midi.NoteOnEvent(tick=0, channel=2, data=[68, 100]),\r\n",
      "   midi.NoteOnEvent(tick=96, channel=2, data=[68, 0]),\r\n",
      "   midi.NoteOnEvent(tick=0, channel=2, data=[69, 100]),\r\n",
      "   midi.NoteOnEvent(tick=96, channel=2, data=[69, 0]),\r\n",
      "   midi.NoteOnEvent(tick=0, channel=2, data=[71, 100]),\r\n",
      "   midi.NoteOnEvent(tick=96, channel=2, data=[71, 0]),\r\n",
      "   midi.NoteOnEvent(tick=0, channel=2, data=[72, 100]),\r\n",
      "   midi.NoteOnEvent(tick=96, channel=2, data=[72, 0]),\r\n",
      "   midi.NoteOnEvent(tick=0, channel=2, data=[74, 100]),\r\n",
      "   midi.NoteOnEvent(tick=96, channel=2, data=[74, 0]),\r\n",
      "   midi.NoteOnEvent(tick=0, channel=2, data=[76, 100]),\r\n",
      "   midi.NoteOnEvent(tick=96, channel=2, data=[76, 0]),\r\n",
      "   midi.NoteOnEvent(tick=0, channel=2, data=[77, 100]),\r\n",
      "   midi.NoteOnEvent(tick=96, channel=2, data=[77, 0]),\r\n",
      "   midi.NoteOnEvent(tick=0, channel=2, data=[76, 100]),\r\n",
      "   midi.NoteOnEvent(tick=96, channel=2, data=[76, 0]),\r\n",
      "   midi.NoteOnEvent(tick=0, channel=2, data=[74, 100]),\r\n",
      "   midi.NoteOnEvent(tick=96, channel=2, data=[74, 0]),\r\n",
      "   midi.NoteOnEvent(tick=0, channel=2, data=[72, 100]),\r\n",
      "   midi.NoteOnEvent(tick=96, channel=2, data=[72, 0]),\r\n",
      "   midi.NoteOnEvent(tick=0, channel=2, data=[71, 100]),\r\n",
      "   midi.NoteOnEvent(tick=96, channel=2, data=[71, 0]),\r\n",
      "   midi.NoteOnEvent(tick=0, channel=2, data=[69, 100]),\r\n",
      "   midi.NoteOnEvent(tick=96, channel=2, data=[69, 0]),\r\n",
      "   midi.NoteOnEvent(tick=0, channel=2, data=[68, 100]),\r\n",
      "   midi.NoteOnEvent(tick=96, channel=2, data=[68, 0]),\r\n",
      "   midi.NoteOnEvent(tick=0, channel=2, data=[69, 100]),\r\n",
      "   midi.NoteOnEvent(tick=96, channel=2, data=[69, 0]),\r\n",
      "   midi.NoteOnEvent(tick=0, channel=2, data=[74, 100]),\r\n",
      "   midi.NoteOnEvent(tick=192, channel=2, data=[74, 0]),\r\n",
      "   midi.NoteOnEvent(tick=0, channel=2, data=[69, 100]),\r\n",
      "   midi.NoteOnEvent(tick=192, channel=2, data=[69, 0]),\r\n",
      "   midi.NoteOnEvent(tick=0, channel=2, data=[69, 100]),\r\n",
      "   midi.NoteOnEvent(tick=192, channel=2, data=[69, 0]),\r\n",
      "   midi.NoteOnEvent(tick=0, channel=2, data=[68, 100]),\r\n",
      "   midi.NoteOnEvent(tick=192, channel=2, data=[68, 0]),\r\n",
      "   midi.NoteOnEvent(tick=0, channel=2, data=[69, 100]),\r\n",
      "   midi.NoteOnEvent(tick=576, channel=2, data=[69, 0]),\r\n",
      "   midi.EndOfTrackEvent(tick=0, data=[])]),\r\n",
      " midi.Track(\\\r\n",
      "  [midi.PortEvent(tick=0, data=[0]),\r\n",
      "   midi.TrackNameEvent(tick=0, text='Viola', data=[86, 105, 111, 108, 97]),\r\n",
      "   midi.ProgramChangeEvent(tick=0, channel=3, data=[41]),\r\n",
      "   midi.ControlChangeEvent(tick=0, channel=3, data=[7, 105]),\r\n",
      "   midi.ControlChangeEvent(tick=0, channel=3, data=[10, 44]),\r\n",
      "   midi.NoteOnEvent(tick=576, channel=3, data=[69, 100]),\r\n",
      "   midi.NoteOnEvent(tick=192, channel=3, data=[69, 0]),\r\n",
      "   midi.NoteOnEvent(tick=0, channel=3, data=[72, 100]),\r\n",
      "   midi.NoteOnEvent(tick=384, channel=3, data=[72, 0]),\r\n",
      "   midi.NoteOnEvent(tick=192, channel=3, data=[69, 100]),\r\n",
      "   midi.NoteOnEvent(tick=192, channel=3, data=[69, 0]),\r\n",
      "   midi.NoteOnEvent(tick=0, channel=3, data=[62, 100]),\r\n",
      "   midi.NoteOnEvent(tick=384, channel=3, data=[62, 0]),\r\n",
      "   midi.NoteOnEvent(tick=192, channel=3, data=[62, 100]),\r\n",
      "   midi.NoteOnEvent(tick=192, channel=3, data=[62, 0]),\r\n",
      "   midi.NoteOnEvent(tick=0, channel=3, data=[57, 100]),\r\n",
      "   midi.NoteOnEvent(tick=192, channel=3, data=[57, 0]),\r\n",
      "   midi.NoteOnEvent(tick=0, channel=3, data=[64, 100]),\r\n",
      "   midi.NoteOnEvent(tick=192, channel=3, data=[64, 0]),\r\n",
      "   midi.NoteOnEvent(tick=0, channel=3, data=[56, 100]),\r\n",
      "   midi.NoteOnEvent(tick=192, channel=3, data=[56, 0]),\r\n",
      "   midi.NoteOnEvent(tick=0, channel=3, data=[64, 100]),\r\n",
      "   midi.NoteOnEvent(tick=192, channel=3, data=[64, 0]),\r\n",
      "   midi.NoteOnEvent(tick=0, channel=3, data=[64, 100]),\r\n",
      "   midi.NoteOnEvent(tick=192, channel=3, data=[64, 0]),\r\n",
      "   midi.NoteOnEvent(tick=0, channel=3, data=[60, 100]),\r\n",
      "   midi.NoteOnEvent(tick=192, channel=3, data=[60, 0]),\r\n",
      "   midi.NoteOnEvent(tick=192, channel=3, data=[60, 100]),\r\n",
      "   midi.NoteOnEvent(tick=192, channel=3, data=[60, 0]),\r\n",
      "   midi.NoteOnEvent(tick=0, channel=3, data=[59, 100]),\r\n",
      "   midi.NoteOnEvent(tick=192, channel=3, data=[59, 0]),\r\n",
      "   midi.NoteOnEvent(tick=192, channel=3, data=[57, 100]),\r\n",
      "   midi.NoteOnEvent(tick=192, channel=3, data=[57, 0]),\r\n",
      "   midi.NoteOnEvent(tick=192, channel=3, data=[62, 100]),\r\n",
      "   midi.NoteOnEvent(tick=192, channel=3, data=[62, 0]),\r\n",
      "   midi.NoteOnEvent(tick=192, channel=3, data=[60, 100]),\r\n",
      "   midi.NoteOnEvent(tick=192, channel=3, data=[60, 0]),\r\n",
      "   midi.NoteOnEvent(tick=192, channel=3, data=[57, 100]),\r\n",
      "   midi.NoteOnEvent(tick=192, channel=3, data=[57, 0]),\r\n",
      "   midi.NoteOnEvent(tick=0, channel=3, data=[59, 100]),\r\n",
      "   midi.NoteOnEvent(tick=288, channel=3, data=[59, 0]),\r\n",
      "   midi.NoteOnEvent(tick=0, channel=3, data=[57, 100]),\r\n",
      "   midi.NoteOnEvent(tick=96, channel=3, data=[57, 0]),\r\n",
      "   midi.NoteOnEvent(tick=0, channel=3, data=[56, 100]),\r\n",
      "   midi.NoteOnEvent(tick=96, channel=3, data=[56, 0]),\r\n",
      "   midi.NoteOnEvent(tick=0, channel=3, data=[57, 100]),\r\n",
      "   midi.NoteOnEvent(tick=96, channel=3, data=[57, 0]),\r\n",
      "   midi.NoteOnEvent(tick=0, channel=3, data=[59, 100]),\r\n",
      "   midi.NoteOnEvent(tick=192, channel=3, data=[59, 0]),\r\n",
      "   midi.NoteOnEvent(tick=0, channel=3, data=[71, 100]),\r\n",
      "   midi.NoteOnEvent(tick=192, channel=3, data=[71, 0]),\r\n",
      "   midi.NoteOnEvent(tick=0, channel=3, data=[68, 100]),\r\n",
      "   midi.NoteOnEvent(tick=192, channel=3, data=[68, 0]),\r\n",
      "   midi.NoteOnEvent(tick=0, channel=3, data=[64, 100]),\r\n",
      "   midi.NoteOnEvent(tick=384, channel=3, data=[64, 0]),\r\n",
      "   midi.NoteOnEvent(tick=0, channel=3, data=[69, 100]),\r\n",
      "   midi.NoteOnEvent(tick=96, channel=3, data=[69, 0]),\r\n",
      "   midi.NoteOnEvent(tick=0, channel=3, data=[71, 100]),\r\n",
      "   midi.NoteOnEvent(tick=96, channel=3, data=[71, 0]),\r\n",
      "   midi.NoteOnEvent(tick=0, channel=3, data=[72, 100]),\r\n",
      "   midi.NoteOnEvent(tick=192, channel=3, data=[72, 0]),\r\n",
      "   midi.NoteOnEvent(tick=0, channel=3, data=[60, 100]),\r\n",
      "   midi.NoteOnEvent(tick=192, channel=3, data=[60, 0]),\r\n",
      "   midi.NoteOnEvent(tick=0, channel=3, data=[57, 100]),\r\n",
      "   midi.NoteOnEvent(tick=192, channel=3, data=[57, 0]),\r\n",
      "   midi.NoteOnEvent(tick=0, channel=3, data=[69, 100]),\r\n",
      "   midi.NoteOnEvent(tick=192, channel=3, data=[69, 0]),\r\n",
      "   midi.NoteOnEvent(tick=0, channel=3, data=[66, 100]),\r\n",
      "   midi.NoteOnEvent(tick=192, channel=3, data=[66, 0]),\r\n",
      "   midi.NoteOnEvent(tick=0, channel=3, data=[62, 100]),\r\n",
      "   midi.NoteOnEvent(tick=384, channel=3, data=[62, 0]),\r\n",
      "   midi.NoteOnEvent(tick=0, channel=3, data=[67, 100]),\r\n",
      "   midi.NoteOnEvent(tick=96, channel=3, data=[67, 0]),\r\n",
      "   midi.NoteOnEvent(tick=0, channel=3, data=[69, 100]),\r\n",
      "   midi.NoteOnEvent(tick=96, channel=3, data=[69, 0]),\r\n",
      "   midi.NoteOnEvent(tick=0, channel=3, data=[71, 100]),\r\n",
      "   midi.NoteOnEvent(tick=192, channel=3, data=[71, 0]),\r\n",
      "   midi.NoteOnEvent(tick=0, channel=3, data=[59, 100]),\r\n",
      "   midi.NoteOnEvent(tick=192, channel=3, data=[59, 0]),\r\n",
      "   midi.NoteOnEvent(tick=0, channel=3, data=[55, 100]),\r\n",
      "   midi.NoteOnEvent(tick=192, channel=3, data=[55, 0]),\r\n",
      "   midi.NoteOnEvent(tick=0, channel=3, data=[64, 100]),\r\n",
      "   midi.NoteOnEvent(tick=192, channel=3, data=[64, 0]),\r\n",
      "   midi.NoteOnEvent(tick=0, channel=3, data=[67, 100]),\r\n",
      "   midi.NoteOnEvent(tick=192, channel=3, data=[67, 0]),\r\n",
      "   midi.NoteOnEvent(tick=0, channel=3, data=[72, 100]),\r\n",
      "   midi.NoteOnEvent(tick=192, channel=3, data=[72, 0]),\r\n",
      "   midi.NoteOnEvent(tick=0, channel=3, data=[66, 100]),\r\n",
      "   midi.NoteOnEvent(tick=192, channel=3, data=[66, 0]),\r\n",
      "   midi.NoteOnEvent(tick=0, channel=3, data=[69, 100]),\r\n",
      "   midi.NoteOnEvent(tick=192, channel=3, data=[69, 0]),\r\n",
      "   midi.NoteOnEvent(tick=0, channel=3, data=[63, 100]),\r\n",
      "   midi.NoteOnEvent(tick=192, channel=3, data=[63, 0]),\r\n",
      "   midi.NoteOnEvent(tick=0, channel=3, data=[66, 100]),\r\n",
      "   midi.NoteOnEvent(tick=384, channel=3, data=[66, 0]),\r\n",
      "   midi.NoteOnEvent(tick=0, channel=3, data=[59, 100]),\r\n",
      "   midi.NoteOnEvent(tick=192, channel=3, data=[59, 0]),\r\n",
      "   midi.NoteOnEvent(tick=0, channel=3, data=[71, 100]),\r\n",
      "   midi.NoteOnEvent(tick=192, channel=3, data=[71, 0]),\r\n",
      "   midi.NoteOnEvent(tick=0, channel=3, data=[67, 100]),\r\n",
      "   midi.NoteOnEvent(tick=192, channel=3, data=[67, 0]),\r\n",
      "   midi.NoteOnEvent(tick=0, channel=3, data=[64, 100]),\r\n",
      "   midi.NoteOnEvent(tick=192, channel=3, data=[64, 0]),\r\n",
      "   midi.NoteOnEvent(tick=0, channel=3, data=[67, 100]),\r\n",
      "   midi.NoteOnEvent(tick=192, channel=3, data=[67, 0]),\r\n",
      "   midi.NoteOnEvent(tick=0, channel=3, data=[69, 100]),\r\n",
      "   midi.NoteOnEvent(tick=96, channel=3, data=[69, 0]),\r\n",
      "   midi.NoteOnEvent(tick=0, channel=3, data=[71, 100]),\r\n",
      "   midi.NoteOnEvent(tick=96, channel=3, data=[71, 0]),\r\n",
      "   midi.NoteOnEvent(tick=0, channel=3, data=[69, 100]),\r\n",
      "   midi.NoteOnEvent(tick=96, channel=3, data=[69, 0]),\r\n",
      "   midi.NoteOnEvent(tick=0, channel=3, data=[67, 100]),\r\n",
      "   midi.NoteOnEvent(tick=96, channel=3, data=[67, 0]),\r\n",
      "   midi.NoteOnEvent(tick=0, channel=3, data=[66, 100]),\r\n",
      "   midi.NoteOnEvent(tick=192, channel=3, data=[66, 0]),\r\n",
      "   midi.NoteOnEvent(tick=0, channel=3, data=[69, 100]),\r\n",
      "   midi.NoteOnEvent(tick=192, channel=3, data=[69, 0]),\r\n",
      "   midi.NoteOnEvent(tick=0, channel=3, data=[67, 100]),\r\n",
      "   midi.NoteOnEvent(tick=192, channel=3, data=[67, 0]),\r\n",
      "   midi.NoteOnEvent(tick=0, channel=3, data=[71, 100]),\r\n",
      "   midi.NoteOnEvent(tick=192, channel=3, data=[71, 0]),\r\n",
      "   midi.NoteOnEvent(tick=0, channel=3, data=[71, 100]),\r\n",
      "   midi.NoteOnEvent(tick=384, channel=3, data=[71, 0]),\r\n",
      "   midi.NoteOnEvent(tick=0, channel=3, data=[71, 100]),\r\n",
      "   midi.NoteOnEvent(tick=384, channel=3, data=[71, 0]),\r\n",
      "   midi.NoteOnEvent(tick=0, channel=3, data=[72, 100]),\r\n",
      "   midi.NoteOnEvent(tick=384, channel=3, data=[72, 0]),\r\n",
      "   midi.NoteOnEvent(tick=192, channel=3, data=[71, 100]),\r\n",
      "   midi.NoteOnEvent(tick=192, channel=3, data=[71, 0]),\r\n",
      "   midi.NoteOnEvent(tick=0, channel=3, data=[59, 100]),\r\n",
      "   midi.NoteOnEvent(tick=192, channel=3, data=[59, 0]),\r\n",
      "   midi.NoteOnEvent(tick=0, channel=3, data=[60, 100]),\r\n",
      "   midi.NoteOnEvent(tick=192, channel=3, data=[60, 0]),\r\n",
      "   midi.NoteOnEvent(tick=0, channel=3, data=[60, 100]),\r\n",
      "   midi.NoteOnEvent(tick=192, channel=3, data=[60, 0]),\r\n",
      "   midi.NoteOnEvent(tick=0, channel=3, data=[59, 100]),\r\n",
      "   midi.NoteOnEvent(tick=192, channel=3, data=[59, 0]),\r\n",
      "   midi.NoteOnEvent(tick=0, channel=3, data=[59, 100]),\r\n",
      "   midi.NoteOnEvent(tick=192, channel=3, data=[59, 0]),\r\n",
      "   midi.NoteOnEvent(tick=0, channel=3, data=[57, 100]),\r\n",
      "   midi.NoteOnEvent(tick=192, channel=3, data=[57, 0]),\r\n",
      "   midi.NoteOnEvent(tick=192, channel=3, data=[64, 100]),\r\n",
      "   midi.NoteOnEvent(tick=192, channel=3, data=[64, 0]),\r\n",
      "   midi.NoteOnEvent(tick=0, channel=3, data=[66, 100]),\r\n",
      "   midi.NoteOnEvent(tick=192, channel=3, data=[66, 0]),\r\n",
      "   midi.NoteOnEvent(tick=0, channel=3, data=[69, 100]),\r\n",
      "   midi.NoteOnEvent(tick=192, channel=3, data=[69, 0]),\r\n",
      "   midi.NoteOnEvent(tick=192, channel=3, data=[66, 100]),\r\n",
      "   midi.NoteOnEvent(tick=192, channel=3, data=[66, 0]),\r\n",
      "   midi.NoteOnEvent(tick=0, channel=3, data=[63, 100]),\r\n",
      "   midi.NoteOnEvent(tick=192, channel=3, data=[63, 0]),\r\n",
      "   midi.NoteOnEvent(tick=0, channel=3, data=[66, 100]),\r\n",
      "   midi.NoteOnEvent(tick=192, channel=3, data=[66, 0]),\r\n",
      "   midi.NoteOnEvent(tick=192, channel=3, data=[57, 100]),\r\n",
      "   midi.NoteOnEvent(tick=384, channel=3, data=[57, 0]),\r\n",
      "   midi.NoteOnEvent(tick=0, channel=3, data=[64, 100]),\r\n",
      "   midi.NoteOnEvent(tick=192, channel=3, data=[64, 0]),\r\n",
      "   midi.NoteOnEvent(tick=0, channel=3, data=[64, 100]),\r\n",
      "   midi.NoteOnEvent(tick=192, channel=3, data=[64, 0]),\r\n",
      "   midi.NoteOnEvent(tick=0, channel=3, data=[59, 100]),\r\n",
      "   midi.NoteOnEvent(tick=192, channel=3, data=[59, 0]),\r\n",
      "   midi.NoteOnEvent(tick=0, channel=3, data=[56, 100]),\r\n",
      "   midi.NoteOnEvent(tick=384, channel=3, data=[56, 0]),\r\n",
      "   midi.NoteOnEvent(tick=576, channel=3, data=[69, 100]),\r\n",
      "   midi.NoteOnEvent(tick=192, channel=3, data=[69, 0]),\r\n",
      "   midi.NoteOnEvent(tick=0, channel=3, data=[72, 100]),\r\n",
      "   midi.NoteOnEvent(tick=192, channel=3, data=[72, 0]),\r\n",
      "   midi.NoteOnEvent(tick=384, channel=3, data=[71, 100]),\r\n",
      "   midi.NoteOnEvent(tick=96, channel=3, data=[71, 0]),\r\n",
      "   midi.NoteOnEvent(tick=0, channel=3, data=[72, 100]),\r\n",
      "   midi.NoteOnEvent(tick=96, channel=3, data=[72, 0]),\r\n",
      "   midi.NoteOnEvent(tick=0, channel=3, data=[74, 100]),\r\n",
      "   midi.NoteOnEvent(tick=192, channel=3, data=[74, 0]),\r\n",
      "   midi.NoteOnEvent(tick=384, channel=3, data=[71, 100]),\r\n",
      "   midi.NoteOnEvent(tick=192, channel=3, data=[71, 0]),\r\n",
      "   midi.NoteOnEvent(tick=0, channel=3, data=[68, 100]),\r\n",
      "   midi.NoteOnEvent(tick=192, channel=3, data=[68, 0]),\r\n",
      "   midi.NoteOnEvent(tick=384, channel=3, data=[72, 100]),\r\n",
      "   midi.NoteOnEvent(tick=96, channel=3, data=[72, 0]),\r\n",
      "   midi.NoteOnEvent(tick=0, channel=3, data=[74, 100]),\r\n",
      "   midi.NoteOnEvent(tick=96, channel=3, data=[74, 0]),\r\n",
      "   midi.NoteOnEvent(tick=0, channel=3, data=[76, 100]),\r\n",
      "   midi.NoteOnEvent(tick=192, channel=3, data=[76, 0]),\r\n",
      "   midi.NoteOnEvent(tick=3072, channel=3, data=[68, 100]),\r\n",
      "   midi.NoteOnEvent(tick=192, channel=3, data=[68, 0]),\r\n",
      "   midi.NoteOnEvent(tick=0, channel=3, data=[64, 100]),\r\n",
      "   midi.NoteOnEvent(tick=384, channel=3, data=[64, 0]),\r\n",
      "   midi.NoteOnEvent(tick=192, channel=3, data=[69, 100]),\r\n",
      "   midi.NoteOnEvent(tick=192, channel=3, data=[69, 0]),\r\n",
      "   midi.NoteOnEvent(tick=0, channel=3, data=[62, 100]),\r\n",
      "   midi.NoteOnEvent(tick=384, channel=3, data=[62, 0]),\r\n",
      "   midi.NoteOnEvent(tick=192, channel=3, data=[65, 100]),\r\n",
      "   midi.NoteOnEvent(tick=192, channel=3, data=[65, 0]),\r\n",
      "   midi.NoteOnEvent(tick=0, channel=3, data=[62, 100]),\r\n",
      "   midi.NoteOnEvent(tick=384, channel=3, data=[62, 0]),\r\n",
      "   midi.NoteOnEvent(tick=192, channel=3, data=[67, 100]),\r\n",
      "   midi.NoteOnEvent(tick=192, channel=3, data=[67, 0]),\r\n",
      "   midi.NoteOnEvent(tick=0, channel=3, data=[60, 100]),\r\n",
      "   midi.NoteOnEvent(tick=384, channel=3, data=[60, 0]),\r\n",
      "   midi.NoteOnEvent(tick=192, channel=3, data=[64, 100]),\r\n",
      "   midi.NoteOnEvent(tick=192, channel=3, data=[64, 0]),\r\n",
      "   midi.NoteOnEvent(tick=0, channel=3, data=[60, 100]),\r\n",
      "   midi.NoteOnEvent(tick=384, channel=3, data=[60, 0]),\r\n",
      "   midi.NoteOnEvent(tick=192, channel=3, data=[65, 100]),\r\n",
      "   midi.NoteOnEvent(tick=192, channel=3, data=[65, 0]),\r\n",
      "   midi.NoteOnEvent(tick=0, channel=3, data=[59, 100]),\r\n",
      "   midi.NoteOnEvent(tick=384, channel=3, data=[59, 0]),\r\n",
      "   midi.NoteOnEvent(tick=192, channel=3, data=[62, 100]),\r\n",
      "   midi.NoteOnEvent(tick=192, channel=3, data=[62, 0]),\r\n",
      "   midi.NoteOnEvent(tick=0, channel=3, data=[59, 100]),\r\n",
      "   midi.NoteOnEvent(tick=384, channel=3, data=[59, 0]),\r\n",
      "   midi.NoteOnEvent(tick=192, channel=3, data=[68, 100]),\r\n",
      "   midi.NoteOnEvent(tick=192, channel=3, data=[68, 0]),\r\n",
      "   midi.NoteOnEvent(tick=0, channel=3, data=[64, 100]),\r\n",
      "   midi.NoteOnEvent(tick=384, channel=3, data=[64, 0]),\r\n",
      "   midi.NoteOnEvent(tick=192, channel=3, data=[72, 100]),\r\n",
      "   midi.NoteOnEvent(tick=192, channel=3, data=[72, 0]),\r\n",
      "   midi.NoteOnEvent(tick=0, channel=3, data=[74, 100]),\r\n",
      "   midi.NoteOnEvent(tick=384, channel=3, data=[74, 0]),\r\n",
      "   midi.NoteOnEvent(tick=192, channel=3, data=[71, 100]),\r\n",
      "   midi.NoteOnEvent(tick=192, channel=3, data=[71, 0]),\r\n",
      "   midi.NoteOnEvent(tick=0, channel=3, data=[64, 100]),\r\n",
      "   midi.NoteOnEvent(tick=192, channel=3, data=[64, 0]),\r\n",
      "   midi.NoteOnEvent(tick=0, channel=3, data=[64, 100]),\r\n",
      "   midi.NoteOnEvent(tick=192, channel=3, data=[64, 0]),\r\n",
      "   midi.NoteOnEvent(tick=0, channel=3, data=[64, 100]),\r\n",
      "   midi.NoteOnEvent(tick=192, channel=3, data=[64, 0]),\r\n",
      "   midi.NoteOnEvent(tick=0, channel=3, data=[64, 100]),\r\n",
      "   midi.NoteOnEvent(tick=192, channel=3, data=[64, 0]),\r\n",
      "   midi.NoteOnEvent(tick=0, channel=3, data=[64, 100]),\r\n",
      "   midi.NoteOnEvent(tick=192, channel=3, data=[64, 0]),\r\n",
      "   midi.NoteOnEvent(tick=0, channel=3, data=[60, 100]),\r\n",
      "   midi.NoteOnEvent(tick=192, channel=3, data=[60, 0]),\r\n",
      "   midi.NoteOnEvent(tick=192, channel=3, data=[64, 100]),\r\n",
      "   midi.NoteOnEvent(tick=192, channel=3, data=[64, 0]),\r\n",
      "   midi.NoteOnEvent(tick=0, channel=3, data=[69, 100]),\r\n",
      "   midi.NoteOnEvent(tick=192, channel=3, data=[69, 0]),\r\n",
      "   midi.NoteOnEvent(tick=0, channel=3, data=[69, 100]),\r\n",
      "   midi.NoteOnEvent(tick=192, channel=3, data=[69, 0]),\r\n",
      "   midi.NoteOnEvent(tick=0, channel=3, data=[69, 100]),\r\n",
      "   midi.NoteOnEvent(tick=192, channel=3, data=[69, 0]),\r\n",
      "   midi.NoteOnEvent(tick=0, channel=3, data=[69, 100]),\r\n",
      "   midi.NoteOnEvent(tick=192, channel=3, data=[69, 0]),\r\n",
      "   midi.NoteOnEvent(tick=0, channel=3, data=[67, 100]),\r\n",
      "   midi.NoteOnEvent(tick=192, channel=3, data=[67, 0]),\r\n",
      "   midi.NoteOnEvent(tick=0, channel=3, data=[67, 100]),\r\n",
      "   midi.NoteOnEvent(tick=192, channel=3, data=[67, 0]),\r\n",
      "   midi.NoteOnEvent(tick=0, channel=3, data=[67, 100]),\r\n",
      "   midi.NoteOnEvent(tick=192, channel=3, data=[67, 0]),\r\n",
      "   midi.NoteOnEvent(tick=0, channel=3, data=[67, 100]),\r\n",
      "   midi.NoteOnEvent(tick=192, channel=3, data=[67, 0]),\r\n",
      "   midi.NoteOnEvent(tick=0, channel=3, data=[67, 100]),\r\n",
      "   midi.NoteOnEvent(tick=192, channel=3, data=[67, 0]),\r\n",
      "   midi.NoteOnEvent(tick=0, channel=3, data=[67, 100]),\r\n",
      "   midi.NoteOnEvent(tick=192, channel=3, data=[67, 0]),\r\n",
      "   midi.NoteOnEvent(tick=0, channel=3, data=[67, 100]),\r\n",
      "   midi.NoteOnEvent(tick=192, channel=3, data=[67, 0]),\r\n",
      "   midi.NoteOnEvent(tick=0, channel=3, data=[67, 100]),\r\n",
      "   midi.NoteOnEvent(tick=192, channel=3, data=[67, 0]),\r\n",
      "   midi.NoteOnEvent(tick=0, channel=3, data=[65, 100]),\r\n",
      "   midi.NoteOnEvent(tick=192, channel=3, data=[65, 0]),\r\n",
      "   midi.NoteOnEvent(tick=0, channel=3, data=[65, 100]),\r\n",
      "   midi.NoteOnEvent(tick=192, channel=3, data=[65, 0]),\r\n",
      "   midi.NoteOnEvent(tick=0, channel=3, data=[65, 100]),\r\n",
      "   midi.NoteOnEvent(tick=192, channel=3, data=[65, 0]),\r\n",
      "   midi.NoteOnEvent(tick=0, channel=3, data=[65, 100]),\r\n",
      "   midi.NoteOnEvent(tick=192, channel=3, data=[65, 0]),\r\n",
      "   midi.NoteOnEvent(tick=0, channel=3, data=[65, 100]),\r\n",
      "   midi.NoteOnEvent(tick=192, channel=3, data=[65, 0]),\r\n",
      "   midi.NoteOnEvent(tick=0, channel=3, data=[65, 100]),\r\n",
      "   midi.NoteOnEvent(tick=192, channel=3, data=[65, 0]),\r\n",
      "   midi.NoteOnEvent(tick=0, channel=3, data=[65, 100]),\r\n",
      "   midi.NoteOnEvent(tick=192, channel=3, data=[65, 0]),\r\n",
      "   midi.NoteOnEvent(tick=0, channel=3, data=[65, 100]),\r\n",
      "   midi.NoteOnEvent(tick=192, channel=3, data=[65, 0]),\r\n",
      "   midi.NoteOnEvent(tick=0, channel=3, data=[64, 100]),\r\n",
      "   midi.NoteOnEvent(tick=192, channel=3, data=[64, 0]),\r\n",
      "   midi.NoteOnEvent(tick=1920, channel=3, data=[71, 100]),\r\n",
      "   midi.NoteOnEvent(tick=192, channel=3, data=[71, 0]),\r\n",
      "   midi.NoteOnEvent(tick=0, channel=3, data=[72, 100]),\r\n",
      "   midi.NoteOnEvent(tick=384, channel=3, data=[72, 0]),\r\n",
      "   midi.NoteOnEvent(tick=192, channel=3, data=[72, 100]),\r\n",
      "   midi.NoteOnEvent(tick=192, channel=3, data=[72, 0]),\r\n",
      "   midi.NoteOnEvent(tick=0, channel=3, data=[72, 100]),\r\n",
      "   midi.NoteOnEvent(tick=384, channel=3, data=[72, 0]),\r\n",
      "   midi.NoteOnEvent(tick=192, channel=3, data=[74, 100]),\r\n",
      "   midi.NoteOnEvent(tick=192, channel=3, data=[74, 0]),\r\n",
      "   midi.NoteOnEvent(tick=0, channel=3, data=[67, 100]),\r\n",
      "   midi.NoteOnEvent(tick=192, channel=3, data=[67, 0]),\r\n",
      "   midi.NoteOnEvent(tick=0, channel=3, data=[67, 100]),\r\n",
      "   midi.NoteOnEvent(tick=192, channel=3, data=[67, 0]),\r\n",
      "   midi.NoteOnEvent(tick=0, channel=3, data=[67, 100]),\r\n",
      "   midi.NoteOnEvent(tick=192, channel=3, data=[67, 0]),\r\n",
      "   midi.NoteOnEvent(tick=0, channel=3, data=[67, 100]),\r\n",
      "   midi.NoteOnEvent(tick=192, channel=3, data=[67, 0]),\r\n",
      "   midi.NoteOnEvent(tick=0, channel=3, data=[67, 100]),\r\n",
      "   midi.NoteOnEvent(tick=192, channel=3, data=[67, 0]),\r\n",
      "   midi.NoteOnEvent(tick=0, channel=3, data=[64, 100]),\r\n",
      "   midi.NoteOnEvent(tick=192, channel=3, data=[64, 0]),\r\n",
      "   midi.NoteOnEvent(tick=192, channel=3, data=[64, 100]),\r\n",
      "   midi.NoteOnEvent(tick=192, channel=3, data=[64, 0]),\r\n",
      "   midi.NoteOnEvent(tick=0, channel=3, data=[62, 100]),\r\n",
      "   midi.NoteOnEvent(tick=192, channel=3, data=[62, 0]),\r\n",
      "   midi.NoteOnEvent(tick=192, channel=3, data=[60, 100]),\r\n",
      "   midi.NoteOnEvent(tick=192, channel=3, data=[60, 0]),\r\n",
      "   midi.NoteOnEvent(tick=192, channel=3, data=[65, 100]),\r\n",
      "   midi.NoteOnEvent(tick=192, channel=3, data=[65, 0]),\r",
      "\r\n",
      "   midi.NoteOnEvent(tick=192, channel=3, data=[64, 100]),\r\n",
      "   midi.NoteOnEvent(tick=192, channel=3, data=[64, 0]),\r\n",
      "   midi.NoteOnEvent(tick=192, channel=3, data=[60, 100]),\r\n",
      "   midi.NoteOnEvent(tick=192, channel=3, data=[60, 0]),\r\n",
      "   midi.NoteOnEvent(tick=0, channel=3, data=[67, 100]),\r\n",
      "   midi.NoteOnEvent(tick=192, channel=3, data=[67, 0]),\r\n",
      "   midi.NoteOnEvent(tick=0, channel=3, data=[60, 100]),\r\n",
      "   midi.NoteOnEvent(tick=192, channel=3, data=[60, 0]),\r\n",
      "   midi.NoteOnEvent(tick=0, channel=3, data=[65, 100]),\r\n",
      "   midi.NoteOnEvent(tick=192, channel=3, data=[65, 0]),\r\n",
      "   midi.NoteOnEvent(tick=0, channel=3, data=[62, 100]),\r\n",
      "   midi.NoteOnEvent(tick=192, channel=3, data=[62, 0]),\r\n",
      "   midi.NoteOnEvent(tick=0, channel=3, data=[59, 100]),\r\n",
      "   midi.NoteOnEvent(tick=192, channel=3, data=[59, 0]),\r\n",
      "   midi.NoteOnEvent(tick=0, channel=3, data=[62, 100]),\r\n",
      "   midi.NoteOnEvent(tick=192, channel=3, data=[62, 0]),\r\n",
      "   midi.NoteOnEvent(tick=0, channel=3, data=[67, 100]),\r\n",
      "   midi.NoteOnEvent(tick=384, channel=3, data=[67, 0]),\r\n",
      "   midi.NoteOnEvent(tick=0, channel=3, data=[69, 100]),\r\n",
      "   midi.NoteOnEvent(tick=96, channel=3, data=[69, 0]),\r\n",
      "   midi.NoteOnEvent(tick=0, channel=3, data=[71, 100]),\r\n",
      "   midi.NoteOnEvent(tick=96, channel=3, data=[71, 0]),\r\n",
      "   midi.NoteOnEvent(tick=0, channel=3, data=[72, 100]),\r\n",
      "   midi.NoteOnEvent(tick=192, channel=3, data=[72, 0]),\r\n",
      "   midi.NoteOnEvent(tick=0, channel=3, data=[60, 100]),\r\n",
      "   midi.NoteOnEvent(tick=192, channel=3, data=[60, 0]),\r\n",
      "   midi.NoteOnEvent(tick=0, channel=3, data=[57, 100]),\r\n",
      "   midi.NoteOnEvent(tick=192, channel=3, data=[57, 0]),\r\n",
      "   midi.NoteOnEvent(tick=0, channel=3, data=[69, 100]),\r\n",
      "   midi.NoteOnEvent(tick=192, channel=3, data=[69, 0]),\r\n",
      "   midi.NoteOnEvent(tick=1344, channel=3, data=[57, 100]),\r\n",
      "   midi.NoteOnEvent(tick=192, channel=3, data=[57, 0]),\r\n",
      "   midi.NoteOnEvent(tick=0, channel=3, data=[62, 100]),\r\n",
      "   midi.NoteOnEvent(tick=192, channel=3, data=[62, 0]),\r\n",
      "   midi.NoteOnEvent(tick=0, channel=3, data=[66, 100]),\r\n",
      "   midi.NoteOnEvent(tick=384, channel=3, data=[66, 0]),\r\n",
      "   midi.NoteOnEvent(tick=0, channel=3, data=[67, 100]),\r\n",
      "   midi.NoteOnEvent(tick=96, channel=3, data=[67, 0]),\r\n",
      "   midi.NoteOnEvent(tick=0, channel=3, data=[69, 100]),\r\n",
      "   midi.NoteOnEvent(tick=96, channel=3, data=[69, 0]),\r\n",
      "   midi.NoteOnEvent(tick=0, channel=3, data=[71, 100]),\r\n",
      "   midi.NoteOnEvent(tick=192, channel=3, data=[71, 0]),\r\n",
      "   midi.NoteOnEvent(tick=0, channel=3, data=[59, 100]),\r\n",
      "   midi.NoteOnEvent(tick=192, channel=3, data=[59, 0]),\r\n",
      "   midi.NoteOnEvent(tick=0, channel=3, data=[55, 100]),\r\n",
      "   midi.NoteOnEvent(tick=192, channel=3, data=[55, 0]),\r\n",
      "   midi.NoteOnEvent(tick=0, channel=3, data=[67, 100]),\r\n",
      "   midi.NoteOnEvent(tick=192, channel=3, data=[67, 0]),\r\n",
      "   midi.NoteOnEvent(tick=1344, channel=3, data=[64, 100]),\r\n",
      "   midi.NoteOnEvent(tick=384, channel=3, data=[64, 0]),\r\n",
      "   midi.NoteOnEvent(tick=0, channel=3, data=[66, 100]),\r\n",
      "   midi.NoteOnEvent(tick=96, channel=3, data=[66, 0]),\r\n",
      "   midi.NoteOnEvent(tick=0, channel=3, data=[67, 100]),\r\n",
      "   midi.NoteOnEvent(tick=96, channel=3, data=[67, 0]),\r\n",
      "   midi.NoteOnEvent(tick=0, channel=3, data=[69, 100]),\r\n",
      "   midi.NoteOnEvent(tick=192, channel=3, data=[69, 0]),\r\n",
      "   midi.NoteOnEvent(tick=0, channel=3, data=[72, 100]),\r\n",
      "   midi.NoteOnEvent(tick=192, channel=3, data=[72, 0]),\r\n",
      "   midi.NoteOnEvent(tick=0, channel=3, data=[63, 100]),\r\n",
      "   midi.NoteOnEvent(tick=192, channel=3, data=[63, 0]),\r\n",
      "   midi.NoteOnEvent(tick=0, channel=3, data=[66, 100]),\r\n",
      "   midi.NoteOnEvent(tick=384, channel=3, data=[66, 0]),\r\n",
      "   midi.NoteOnEvent(tick=0, channel=3, data=[59, 100]),\r\n",
      "   midi.NoteOnEvent(tick=192, channel=3, data=[59, 0]),\r\n",
      "   midi.NoteOnEvent(tick=0, channel=3, data=[69, 100]),\r\n",
      "   midi.NoteOnEvent(tick=192, channel=3, data=[69, 0]),\r\n",
      "   midi.NoteOnEvent(tick=0, channel=3, data=[67, 100]),\r\n",
      "   midi.NoteOnEvent(tick=192, channel=3, data=[67, 0]),\r\n",
      "   midi.NoteOnEvent(tick=0, channel=3, data=[64, 100]),\r\n",
      "   midi.NoteOnEvent(tick=192, channel=3, data=[64, 0]),\r\n",
      "   midi.NoteOnEvent(tick=0, channel=3, data=[67, 100]),\r\n",
      "   midi.NoteOnEvent(tick=192, channel=3, data=[67, 0]),\r\n",
      "   midi.NoteOnEvent(tick=0, channel=3, data=[69, 100]),\r\n",
      "   midi.NoteOnEvent(tick=96, channel=3, data=[69, 0]),\r\n",
      "   midi.NoteOnEvent(tick=0, channel=3, data=[71, 100]),\r\n",
      "   midi.NoteOnEvent(tick=96, channel=3, data=[71, 0]),\r\n",
      "   midi.NoteOnEvent(tick=0, channel=3, data=[69, 100]),\r\n",
      "   midi.NoteOnEvent(tick=96, channel=3, data=[69, 0]),\r\n",
      "   midi.NoteOnEvent(tick=0, channel=3, data=[67, 100]),\r\n",
      "   midi.NoteOnEvent(tick=96, channel=3, data=[67, 0]),\r\n",
      "   midi.NoteOnEvent(tick=0, channel=3, data=[66, 100]),\r\n",
      "   midi.NoteOnEvent(tick=192, channel=3, data=[66, 0]),\r\n",
      "   midi.NoteOnEvent(tick=0, channel=3, data=[69, 100]),\r\n",
      "   midi.NoteOnEvent(tick=192, channel=3, data=[69, 0]),\r\n",
      "   midi.NoteOnEvent(tick=0, channel=3, data=[67, 100]),\r\n",
      "   midi.NoteOnEvent(tick=192, channel=3, data=[67, 0]),\r\n",
      "   midi.NoteOnEvent(tick=0, channel=3, data=[72, 100]),\r\n",
      "   midi.NoteOnEvent(tick=192, channel=3, data=[72, 0]),\r\n",
      "   midi.NoteOnEvent(tick=0, channel=3, data=[71, 100]),\r\n",
      "   midi.NoteOnEvent(tick=384, channel=3, data=[71, 0]),\r\n",
      "   midi.NoteOnEvent(tick=0, channel=3, data=[71, 100]),\r\n",
      "   midi.NoteOnEvent(tick=768, channel=3, data=[71, 0]),\r\n",
      "   midi.NoteOnEvent(tick=384, channel=3, data=[72, 100]),\r\n",
      "   midi.NoteOnEvent(tick=384, channel=3, data=[72, 0]),\r\n",
      "   midi.NoteOnEvent(tick=384, channel=3, data=[66, 100]),\r\n",
      "   midi.NoteOnEvent(tick=384, channel=3, data=[66, 0]),\r\n",
      "   midi.NoteOnEvent(tick=384, channel=3, data=[72, 100]),\r\n",
      "   midi.NoteOnEvent(tick=384, channel=3, data=[72, 0]),\r\n",
      "   midi.NoteOnEvent(tick=384, channel=3, data=[63, 100]),\r\n",
      "   midi.NoteOnEvent(tick=768, channel=3, data=[63, 0]),\r\n",
      "   midi.NoteOnEvent(tick=192, channel=3, data=[64, 100]),\r\n",
      "   midi.NoteOnEvent(tick=384, channel=3, data=[64, 0]),\r\n",
      "   midi.NoteOnEvent(tick=0, channel=3, data=[72, 100]),\r\n",
      "   midi.NoteOnEvent(tick=192, channel=3, data=[72, 0]),\r\n",
      "   midi.NoteOnEvent(tick=0, channel=3, data=[71, 100]),\r\n",
      "   midi.NoteOnEvent(tick=192, channel=3, data=[71, 0]),\r\n",
      "   midi.NoteOnEvent(tick=0, channel=3, data=[72, 100]),\r\n",
      "   midi.NoteOnEvent(tick=192, channel=3, data=[72, 0]),\r\n",
      "   midi.NoteOnEvent(tick=0, channel=3, data=[72, 100]),\r\n",
      "   midi.NoteOnEvent(tick=192, channel=3, data=[72, 0]),\r\n",
      "   midi.NoteOnEvent(tick=0, channel=3, data=[71, 100]),\r\n",
      "   midi.NoteOnEvent(tick=192, channel=3, data=[71, 0]),\r\n",
      "   midi.NoteOnEvent(tick=0, channel=3, data=[71, 100]),\r\n",
      "   midi.NoteOnEvent(tick=192, channel=3, data=[71, 0]),\r\n",
      "   midi.NoteOnEvent(tick=0, channel=3, data=[69, 100]),\r\n",
      "   midi.NoteOnEvent(tick=192, channel=3, data=[69, 0]),\r\n",
      "   midi.NoteOnEvent(tick=192, channel=3, data=[64, 100]),\r\n",
      "   midi.NoteOnEvent(tick=192, channel=3, data=[64, 0]),\r\n",
      "   midi.NoteOnEvent(tick=0, channel=3, data=[66, 100]),\r\n",
      "   midi.NoteOnEvent(tick=192, channel=3, data=[66, 0]),\r\n",
      "   midi.NoteOnEvent(tick=0, channel=3, data=[69, 100]),\r\n",
      "   midi.NoteOnEvent(tick=192, channel=3, data=[69, 0]),\r\n",
      "   midi.NoteOnEvent(tick=192, channel=3, data=[66, 100]),\r\n",
      "   midi.NoteOnEvent(tick=192, channel=3, data=[66, 0]),\r\n",
      "   midi.NoteOnEvent(tick=0, channel=3, data=[63, 100]),\r\n",
      "   midi.NoteOnEvent(tick=192, channel=3, data=[63, 0]),\r\n",
      "   midi.NoteOnEvent(tick=0, channel=3, data=[66, 100]),\r\n",
      "   midi.NoteOnEvent(tick=192, channel=3, data=[66, 0]),\r\n",
      "   midi.NoteOnEvent(tick=192, channel=3, data=[69, 100]),\r\n",
      "   midi.NoteOnEvent(tick=192, channel=3, data=[69, 0]),\r\n",
      "   midi.NoteOnEvent(tick=0, channel=3, data=[57, 100]),\r\n",
      "   midi.NoteOnEvent(tick=192, channel=3, data=[57, 0]),\r\n",
      "   midi.NoteOnEvent(tick=0, channel=3, data=[59, 100]),\r\n",
      "   midi.NoteOnEvent(tick=192, channel=3, data=[59, 0]),\r\n",
      "   midi.NoteOnEvent(tick=0, channel=3, data=[59, 100]),\r\n",
      "   midi.NoteOnEvent(tick=192, channel=3, data=[59, 0]),\r\n",
      "   midi.NoteOnEvent(tick=0, channel=3, data=[59, 100]),\r\n",
      "   midi.NoteOnEvent(tick=192, channel=3, data=[59, 0]),\r\n",
      "   midi.NoteOnEvent(tick=0, channel=3, data=[55, 100]),\r\n",
      "   midi.NoteOnEvent(tick=384, channel=3, data=[55, 0]),\r\n",
      "   midi.NoteOnEvent(tick=576, channel=3, data=[64, 100]),\r\n",
      "   midi.NoteOnEvent(tick=192, channel=3, data=[64, 0]),\r\n",
      "   midi.NoteOnEvent(tick=0, channel=3, data=[67, 100]),\r\n",
      "   midi.NoteOnEvent(tick=192, channel=3, data=[67, 0]),\r\n",
      "   midi.NoteOnEvent(tick=384, channel=3, data=[66, 100]),\r\n",
      "   midi.NoteOnEvent(tick=96, channel=3, data=[66, 0]),\r\n",
      "   midi.NoteOnEvent(tick=0, channel=3, data=[67, 100]),\r\n",
      "   midi.NoteOnEvent(tick=96, channel=3, data=[67, 0]),\r\n",
      "   midi.NoteOnEvent(tick=0, channel=3, data=[69, 100]),\r\n",
      "   midi.NoteOnEvent(tick=192, channel=3, data=[69, 0]),\r\n",
      "   midi.NoteOnEvent(tick=384, channel=3, data=[66, 100]),\r\n",
      "   midi.NoteOnEvent(tick=192, channel=3, data=[66, 0]),\r\n",
      "   midi.NoteOnEvent(tick=0, channel=3, data=[63, 100]),\r\n",
      "   midi.NoteOnEvent(tick=192, channel=3, data=[63, 0]),\r\n",
      "   midi.NoteOnEvent(tick=384, channel=3, data=[67, 100]),\r\n",
      "   midi.NoteOnEvent(tick=96, channel=3, data=[67, 0]),\r\n",
      "   midi.NoteOnEvent(tick=0, channel=3, data=[69, 100]),\r\n",
      "   midi.NoteOnEvent(tick=96, channel=3, data=[69, 0]),\r\n",
      "   midi.NoteOnEvent(tick=0, channel=3, data=[71, 100]),\r\n",
      "   midi.NoteOnEvent(tick=192, channel=3, data=[71, 0]),\r\n",
      "   midi.NoteOnEvent(tick=0, channel=3, data=[64, 100]),\r\n",
      "   midi.NoteOnEvent(tick=192, channel=3, data=[64, 0]),\r\n",
      "   midi.NoteOnEvent(tick=0, channel=3, data=[64, 100]),\r\n",
      "   midi.NoteOnEvent(tick=384, channel=3, data=[64, 0]),\r\n",
      "   midi.NoteOnEvent(tick=0, channel=3, data=[62, 100]),\r\n",
      "   midi.NoteOnEvent(tick=384, channel=3, data=[62, 0]),\r\n",
      "   midi.NoteOnEvent(tick=0, channel=3, data=[60, 100]),\r\n",
      "   midi.NoteOnEvent(tick=384, channel=3, data=[60, 0]),\r\n",
      "   midi.NoteOnEvent(tick=0, channel=3, data=[59, 100]),\r\n",
      "   midi.NoteOnEvent(tick=384, channel=3, data=[59, 0]),\r\n",
      "   midi.NoteOnEvent(tick=0, channel=3, data=[57, 100]),\r\n",
      "   midi.NoteOnEvent(tick=384, channel=3, data=[57, 0]),\r\n",
      "   midi.NoteOnEvent(tick=0, channel=3, data=[57, 100]),\r\n",
      "   midi.NoteOnEvent(tick=384, channel=3, data=[57, 0]),\r\n",
      "   midi.NoteOnEvent(tick=0, channel=3, data=[59, 100]),\r\n",
      "   midi.NoteOnEvent(tick=384, channel=3, data=[59, 0]),\r\n",
      "   midi.NoteOnEvent(tick=0, channel=3, data=[61, 100]),\r\n",
      "   midi.NoteOnEvent(tick=384, channel=3, data=[61, 0]),\r\n",
      "   midi.NoteOnEvent(tick=0, channel=3, data=[62, 100]),\r\n",
      "   midi.NoteOnEvent(tick=384, channel=3, data=[62, 0]),\r\n",
      "   midi.NoteOnEvent(tick=0, channel=3, data=[60, 100]),\r\n",
      "   midi.NoteOnEvent(tick=384, channel=3, data=[60, 0]),\r\n",
      "   midi.NoteOnEvent(tick=0, channel=3, data=[59, 100]),\r\n",
      "   midi.NoteOnEvent(tick=384, channel=3, data=[59, 0]),\r\n",
      "   midi.NoteOnEvent(tick=0, channel=3, data=[57, 100]),\r\n",
      "   midi.NoteOnEvent(tick=384, channel=3, data=[57, 0]),\r\n",
      "   midi.NoteOnEvent(tick=0, channel=3, data=[55, 100]),\r\n",
      "   midi.NoteOnEvent(tick=384, channel=3, data=[55, 0]),\r\n",
      "   midi.NoteOnEvent(tick=0, channel=3, data=[55, 100]),\r\n",
      "   midi.NoteOnEvent(tick=384, channel=3, data=[55, 0]),\r\n",
      "   midi.NoteOnEvent(tick=0, channel=3, data=[57, 100]),\r\n",
      "   midi.NoteOnEvent(tick=384, channel=3, data=[57, 0]),\r\n",
      "   midi.NoteOnEvent(tick=0, channel=3, data=[59, 100]),\r\n",
      "   midi.NoteOnEvent(tick=384, channel=3, data=[59, 0]),\r\n",
      "   midi.NoteOnEvent(tick=0, channel=3, data=[60, 100]),\r\n",
      "   midi.NoteOnEvent(tick=1152, channel=3, data=[60, 0]),\r\n",
      "   midi.NoteOnEvent(tick=0, channel=3, data=[58, 100]),\r\n",
      "   midi.NoteOnEvent(tick=384, channel=3, data=[58, 0]),\r\n",
      "   midi.NoteOnEvent(tick=0, channel=3, data=[60, 100]),\r\n",
      "   midi.NoteOnEvent(tick=384, channel=3, data=[60, 0]),\r\n",
      "   midi.NoteOnEvent(tick=2112, channel=3, data=[65, 100]),\r\n",
      "   midi.NoteOnEvent(tick=192, channel=3, data=[65, 0]),\r\n",
      "   midi.NoteOnEvent(tick=0, channel=3, data=[62, 100]),\r\n",
      "   midi.NoteOnEvent(tick=384, channel=3, data=[62, 0]),\r\n",
      "   midi.NoteOnEvent(tick=192, channel=3, data=[62, 100]),\r\n",
      "   midi.NoteOnEvent(tick=192, channel=3, data=[62, 0]),\r\n",
      "   midi.NoteOnEvent(tick=0, channel=3, data=[64, 100]),\r\n",
      "   midi.NoteOnEvent(tick=192, channel=3, data=[64, 0]),\r\n",
      "   midi.NoteOnEvent(tick=0, channel=3, data=[70, 100]),\r\n",
      "   midi.NoteOnEvent(tick=192, channel=3, data=[70, 0]),\r\n",
      "   midi.NoteOnEvent(tick=0, channel=3, data=[69, 100]),\r\n",
      "   midi.NoteOnEvent(tick=192, channel=3, data=[69, 0]),\r\n",
      "   midi.NoteOnEvent(tick=0, channel=3, data=[62, 100]),\r\n",
      "   midi.NoteOnEvent(tick=192, channel=3, data=[62, 0]),\r\n",
      "   midi.NoteOnEvent(tick=0, channel=3, data=[64, 100]),\r\n",
      "   midi.NoteOnEvent(tick=192, channel=3, data=[64, 0]),\r\n",
      "   midi.NoteOnEvent(tick=0, channel=3, data=[64, 100]),\r\n",
      "   midi.NoteOnEvent(tick=192, channel=3, data=[64, 0]),\r\n",
      "   midi.NoteOnEvent(tick=0, channel=3, data=[65, 100]),\r\n",
      "   midi.NoteOnEvent(tick=384, channel=3, data=[65, 0]),\r\n",
      "   midi.NoteOnEvent(tick=192, channel=3, data=[65, 100]),\r\n",
      "   midi.NoteOnEvent(tick=192, channel=3, data=[65, 0]),\r\n",
      "   midi.NoteOnEvent(tick=0, channel=3, data=[67, 100]),\r\n",
      "   midi.NoteOnEvent(tick=192, channel=3, data=[67, 0]),\r\n",
      "   midi.NoteOnEvent(tick=0, channel=3, data=[67, 100]),\r\n",
      "   midi.NoteOnEvent(tick=192, channel=3, data=[67, 0]),\r\n",
      "   midi.NoteOnEvent(tick=0, channel=3, data=[69, 100]),\r\n",
      "   midi.NoteOnEvent(tick=192, channel=3, data=[69, 0]),\r\n",
      "   midi.NoteOnEvent(tick=0, channel=3, data=[69, 100]),\r\n",
      "   midi.NoteOnEvent(tick=192, channel=3, data=[69, 0]),\r\n",
      "   midi.NoteOnEvent(tick=0, channel=3, data=[70, 100]),\r\n",
      "   midi.NoteOnEvent(tick=192, channel=3, data=[70, 0]),\r\n",
      "   midi.NoteOnEvent(tick=0, channel=3, data=[70, 100]),\r\n",
      "   midi.NoteOnEvent(tick=192, channel=3, data=[70, 0]),\r\n",
      "   midi.NoteOnEvent(tick=0, channel=3, data=[66, 100]),\r\n",
      "   midi.NoteOnEvent(tick=192, channel=3, data=[66, 0]),\r\n",
      "   midi.NoteOnEvent(tick=0, channel=3, data=[66, 100]),\r\n",
      "   midi.NoteOnEvent(tick=192, channel=3, data=[66, 0]),\r\n",
      "   midi.NoteOnEvent(tick=0, channel=3, data=[67, 100]),\r\n",
      "   midi.NoteOnEvent(tick=192, channel=3, data=[67, 0]),\r\n",
      "   midi.NoteOnEvent(tick=0, channel=3, data=[62, 100]),\r\n",
      "   midi.NoteOnEvent(tick=192, channel=3, data=[62, 0]),\r\n",
      "   midi.NoteOnEvent(tick=0, channel=3, data=[67, 100]),\r\n",
      "   midi.NoteOnEvent(tick=192, channel=3, data=[67, 0]),\r\n",
      "   midi.NoteOnEvent(tick=0, channel=3, data=[70, 100]),\r\n",
      "   midi.NoteOnEvent(tick=192, channel=3, data=[70, 0]),\r\n",
      "   midi.NoteOnEvent(tick=0, channel=3, data=[72, 100]),\r\n",
      "   midi.NoteOnEvent(tick=192, channel=3, data=[72, 0]),\r\n",
      "   midi.NoteOnEvent(tick=0, channel=3, data=[67, 100]),\r\n",
      "   midi.NoteOnEvent(tick=192, channel=3, data=[67, 0]),\r\n",
      "   midi.NoteOnEvent(tick=0, channel=3, data=[67, 100]),\r\n",
      "   midi.NoteOnEvent(tick=192, channel=3, data=[67, 0]),\r\n",
      "   midi.NoteOnEvent(tick=0, channel=3, data=[67, 100]),\r\n",
      "   midi.NoteOnEvent(tick=192, channel=3, data=[67, 0]),\r\n",
      "   midi.NoteOnEvent(tick=0, channel=3, data=[69, 100]),\r\n",
      "   midi.NoteOnEvent(tick=192, channel=3, data=[69, 0]),\r\n",
      "   midi.NoteOnEvent(tick=0, channel=3, data=[69, 100]),\r\n",
      "   midi.NoteOnEvent(tick=192, channel=3, data=[69, 0]),\r\n",
      "   midi.NoteOnEvent(tick=0, channel=3, data=[64, 100]),\r\n",
      "   midi.NoteOnEvent(tick=192, channel=3, data=[64, 0]),\r\n",
      "   midi.NoteOnEvent(tick=0, channel=3, data=[64, 100]),\r\n",
      "   midi.NoteOnEvent(tick=192, channel=3, data=[64, 0]),\r\n",
      "   midi.NoteOnEvent(tick=0, channel=3, data=[65, 100]),\r\n",
      "   midi.NoteOnEvent(tick=192, channel=3, data=[65, 0]),\r\n",
      "   midi.NoteOnEvent(tick=0, channel=3, data=[60, 100]),\r\n",
      "   midi.NoteOnEvent(tick=192, channel=3, data=[60, 0]),\r\n",
      "   midi.NoteOnEvent(tick=0, channel=3, data=[65, 100]),\r\n",
      "   midi.NoteOnEvent(tick=192, channel=3, data=[65, 0]),\r\n",
      "   midi.NoteOnEvent(tick=0, channel=3, data=[69, 100]),\r\n",
      "   midi.NoteOnEvent(tick=192, channel=3, data=[69, 0]),\r\n",
      "   midi.NoteOnEvent(tick=0, channel=3, data=[70, 100]),\r\n",
      "   midi.NoteOnEvent(tick=192, channel=3, data=[70, 0]),\r\n",
      "   midi.NoteOnEvent(tick=0, channel=3, data=[70, 100]),\r\n",
      "   midi.NoteOnEvent(tick=192, channel=3, data=[70, 0]),\r\n",
      "   midi.NoteOnEvent(tick=0, channel=3, data=[70, 100]),\r\n",
      "   midi.NoteOnEvent(tick=192, channel=3, data=[70, 0]),\r\n",
      "   midi.NoteOnEvent(tick=0, channel=3, data=[70, 100]),\r\n",
      "   midi.NoteOnEvent(tick=192, channel=3, data=[70, 0]),\r\n",
      "   midi.NoteOnEvent(tick=0, channel=3, data=[70, 100]),\r\n",
      "   midi.NoteOnEvent(tick=192, channel=3, data=[70, 0]),\r\n",
      "   midi.NoteOnEvent(tick=0, channel=3, data=[70, 100]),\r\n",
      "   midi.NoteOnEvent(tick=192, channel=3, data=[70, 0]),\r\n",
      "   midi.NoteOnEvent(tick=0, channel=3, data=[70, 100]),\r\n",
      "   midi.NoteOnEvent(tick=192, channel=3, data=[70, 0]),\r\n",
      "   midi.NoteOnEvent(tick=0, channel=3, data=[70, 100]),\r\n",
      "   midi.NoteOnEvent(tick=192, channel=3, data=[70, 0]),\r\n",
      "   midi.NoteOnEvent(tick=0, channel=3, data=[70, 100]),\r\n",
      "   midi.NoteOnEvent(tick=192, channel=3, data=[70, 0]),\r\n",
      "   midi.NoteOnEvent(tick=0, channel=3, data=[67, 100]),\r\n",
      "   midi.NoteOnEvent(tick=192, channel=3, data=[67, 0]),\r\n",
      "   midi.NoteOnEvent(tick=0, channel=3, data=[70, 100]),\r\n",
      "   midi.NoteOnEvent(tick=192, channel=3, data=[70, 0]),\r\n",
      "   midi.NoteOnEvent(tick=0, channel=3, data=[64, 100]),\r\n",
      "   midi.NoteOnEvent(tick=192, channel=3, data=[64, 0]),\r\n",
      "   midi.NoteOnEvent(tick=0, channel=3, data=[64, 100]),\r\n",
      "   midi.NoteOnEvent(tick=192, channel=3, data=[64, 0]),\r\n",
      "   midi.NoteOnEvent(tick=0, channel=3, data=[69, 100]),\r\n",
      "   midi.NoteOnEvent(tick=192, channel=3, data=[69, 0]),\r\n",
      "   midi.NoteOnEvent(tick=0, channel=3, data=[69, 100]),\r\n",
      "   midi.NoteOnEvent(tick=192, channel=3, data=[69, 0]),\r\n",
      "   midi.NoteOnEvent(tick=0, channel=3, data=[69, 100]),\r\n",
      "   midi.NoteOnEvent(tick=192, channel=3, data=[69, 0]),\r\n",
      "   midi.NoteOnEvent(tick=0, channel=3, data=[69, 100]),\r\n",
      "   midi.NoteOnEvent(tick=192, channel=3, data=[69, 0]),\r\n",
      "   midi.NoteOnEvent(tick=0, channel=3, data=[69, 100]),\r\n",
      "   midi.NoteOnEvent(tick=192, channel=3, data=[69, 0]),\r\n",
      "   midi.NoteOnEvent(tick=0, channel=3, data=[69, 100]),\r\n",
      "   midi.NoteOnEvent(tick=192, channel=3, data=[69, 0]),\r\n",
      "   midi.NoteOnEvent(tick=0, channel=3, data=[69, 100]),\r\n",
      "   midi.NoteOnEvent(tick=192, channel=3, data=[69, 0]),\r\n",
      "   midi.NoteOnEvent(tick=0, channel=3, data=[62, 100]),\r\n",
      "   midi.NoteOnEvent(tick=384, channel=3, data=[62, 0]),\r\n",
      "   midi.NoteOnEvent(tick=192, channel=3, data=[69, 100]),\r\n",
      "   midi.NoteOnEvent(tick=192, channel=3, data=[69, 0]),\r\n",
      "   midi.NoteOnEvent(tick=0, channel=3, data=[67, 100]),\r\n",
      "   midi.NoteOnEvent(tick=384, channel=3, data=[67, 0]),\r\n",
      "   midi.NoteOnEvent(tick=960, channel=3, data=[67, 100]),\r\n",
      "   midi.NoteOnEvent(tick=192, channel=3, data=[67, 0]),\r\n",
      "   midi.NoteOnEvent(tick=0, channel=3, data=[65, 100]),\r\n",
      "   midi.NoteOnEvent(tick=384, channel=3, data=[65, 0]),\r\n",
      "   midi.NoteOnEvent(tick=960, channel=3, data=[65, 100]),\r\n",
      "   midi.NoteOnEvent(tick=192, channel=3, data=[65, 0]),\r\n",
      "   midi.NoteOnEvent(tick=0, channel=3, data=[64, 100]),\r\n",
      "   midi.NoteOnEvent(tick=192, channel=3, data=[64, 0]),\r\n",
      "   midi.NoteOnEvent(tick=0, channel=3, data=[66, 100]),\r\n",
      "   midi.NoteOnEvent(tick=192, channel=3, data=[66, 0]),\r\n",
      "   midi.NoteOnEvent(tick=0, channel=3, data=[68, 100]),\r\n",
      "   midi.NoteOnEvent(tick=192, channel=3, data=[68, 0]),\r\n",
      "   midi.NoteOnEvent(tick=0, channel=3, data=[64, 100]),\r\n",
      "   midi.NoteOnEvent(tick=192, channel=3, data=[64, 0]),\r\n",
      "   midi.NoteOnEvent(tick=0, channel=3, data=[72, 100]),\r\n",
      "   midi.NoteOnEvent(tick=384, channel=3, data=[72, 0]),\r\n",
      "   midi.NoteOnEvent(tick=192, channel=3, data=[69, 100]),\r\n",
      "   midi.NoteOnEvent(tick=192, channel=3, data=[69, 0]),\r\n",
      "   midi.NoteOnEvent(tick=0, channel=3, data=[62, 100]),\r\n",
      "   midi.NoteOnEvent(tick=384, channel=3, data=[62, 0]),\r\n",
      "   midi.NoteOnEvent(tick=192, channel=3, data=[62, 100]),\r\n",
      "   midi.NoteOnEvent(tick=192, channel=3, data=[62, 0]),\r\n",
      "   midi.NoteOnEvent(tick=0, channel=3, data=[57, 100]),\r\n",
      "   midi.NoteOnEvent(tick=192, channel=3, data=[57, 0]),\r\n",
      "   midi.NoteOnEvent(tick=0, channel=3, data=[64, 100]),\r\n",
      "   midi.NoteOnEvent(tick=192, channel=3, data=[64, 0]),\r\n",
      "   midi.NoteOnEvent(tick=0, channel=3, data=[56, 100]),\r\n",
      "   midi.NoteOnEvent(tick=192, channel=3, data=[56, 0]),\r\n",
      "   midi.NoteOnEvent(tick=0, channel=3, data=[64, 100]),\r\n",
      "   midi.NoteOnEvent(tick=192, channel=3, data=[64, 0]),\r\n",
      "   midi.NoteOnEvent(tick=0, channel=3, data=[64, 100]),\r\n",
      "   midi.NoteOnEvent(tick=192, channel=3, data=[64, 0]),\r\n",
      "   midi.NoteOnEvent(tick=0, channel=3, data=[60, 100]),\r\n",
      "   midi.NoteOnEvent(tick=192, channel=3, data=[60, 0]),\r\n",
      "   midi.NoteOnEvent(tick=576, channel=3, data=[57, 100]),\r\n",
      "   midi.NoteOnEvent(tick=192, channel=3, data=[57, 0]),\r\n",
      "   midi.NoteOnEvent(tick=0, channel=3, data=[57, 100]),\r\n",
      "   midi.NoteOnEvent(tick=192, channel=3, data=[57, 0]),\r\n",
      "   midi.NoteOnEvent(tick=0, channel=3, data=[57, 100]),\r\n",
      "   midi.NoteOnEvent(tick=192, channel=3, data=[57, 0]),\r\n",
      "   midi.NoteOnEvent(tick=0, channel=3, data=[57, 100]),\r\n",
      "   midi.NoteOnEvent(tick=192, channel=3, data=[57, 0]),\r\n",
      "   midi.NoteOnEvent(tick=0, channel=3, data=[57, 100]),\r\n",
      "   midi.NoteOnEvent(tick=192, channel=3, data=[57, 0]),\r\n",
      "   midi.NoteOnEvent(tick=0, channel=3, data=[57, 100]),\r\n",
      "   midi.NoteOnEvent(tick=192, channel=3, data=[57, 0]),\r\n",
      "   midi.NoteOnEvent(tick=0, channel=3, data=[57, 100]),\r\n",
      "   midi.NoteOnEvent(tick=192, channel=3, data=[57, 0]),\r\n",
      "   midi.NoteOnEvent(tick=0, channel=3, data=[57, 100]),\r\n",
      "   midi.NoteOnEvent(tick=192, channel=3, data=[57, 0]),\r\n",
      "   midi.NoteOnEvent(tick=0, channel=3, data=[57, 100]),\r\n",
      "   midi.NoteOnEvent(tick=192, channel=3, data=[57, 0]),\r\n",
      "   midi.NoteOnEvent(tick=0, channel=3, data=[57, 100]),\r\n",
      "   midi.NoteOnEvent(tick=192, channel=3, data=[57, 0]),\r\n",
      "   midi.NoteOnEvent(tick=0, channel=3, data=[57, 100]),\r\n",
      "   midi.NoteOnEvent(tick=192, channel=3, data=[57, 0]),\r\n",
      "   midi.NoteOnEvent(tick=0, channel=3, data=[62, 100]),\r\n",
      "   midi.NoteOnEvent(tick=192, channel=3, data=[62, 0]),\r\n",
      "   midi.NoteOnEvent(tick=0, channel=3, data=[62, 100]),\r\n",
      "   midi.NoteOnEvent(tick=192, channel=3, data=[62, 0]),\r\n",
      "   midi.NoteOnEvent(tick=0, channel=3, data=[62, 100]),\r\n",
      "   midi.NoteOnEvent(tick=192, channel=3, data=[62, 0]),\r\n",
      "   midi.NoteOnEvent(tick=0, channel=3, data=[62, 100]),\r\n",
      "   midi.NoteOnEvent(tick=192, channel=3, data=[62, 0]),\r\n",
      "   midi.NoteOnEvent(tick=0, channel=3, data=[62, 100]),\r\n",
      "   midi.NoteOnEvent(tick=192, channel=3, data=[62, 0]),\r\n",
      "   midi.NoteOnEvent(tick=0, channel=3, data=[62, 100]),\r\n",
      "   midi.NoteOnEvent(tick=192, channel=3, data=[62, 0]),\r\n",
      "   midi.NoteOnEvent(tick=0, channel=3, data=[62, 100]),\r\n",
      "   midi.NoteOnEvent(tick=192, channel=3, data=[62, 0]),\r\n",
      "   midi.NoteOnEvent(tick=0, channel=3, data=[62, 100]),\r\n",
      "   midi.NoteOnEvent(tick=192, channel=3, data=[62, 0]),\r\n",
      "   midi.NoteOnEvent(tick=0, channel=3, data=[67, 100]),\r\n",
      "   midi.NoteOnEvent(tick=192, channel=3, data=[67, 0]),\r\n",
      "   midi.NoteOnEvent(tick=0, channel=3, data=[67, 100]),\r\n",
      "   midi.NoteOnEvent(tick=192, channel=3, data=[67, 0]),\r\n",
      "   midi.NoteOnEvent(tick=0, channel=3, data=[67, 100]),\r\n",
      "   midi.NoteOnEvent(tick=192, channel=3, data=[67, 0]),\r\n",
      "   midi.NoteOnEvent(tick=0, channel=3, data=[67, 100]),\r\n",
      "   midi.NoteOnEvent(tick=192, channel=3, data=[67, 0]),\r\n",
      "   midi.NoteOnEvent(tick=0, channel=3, data=[67, 100]),\r\n",
      "   midi.NoteOnEvent(tick=384, channel=3, data=[67, 0]),\r\n",
      "   midi.NoteOnEvent(tick=0, channel=3, data=[70, 100]),\r\n",
      "   midi.NoteOnEvent(tick=384, channel=3, data=[70, 0]),\r\n",
      "   midi.NoteOnEvent(tick=0, channel=3, data=[68, 100]),\r\n",
      "   midi.NoteOnEvent(tick=384, channel=3, data=[68, 0]),\r\n",
      "   midi.NoteOnEvent(tick=0, channel=3, data=[67, 100]),\r\n",
      "   midi.NoteOnEvent(tick=384, channel=3, data=[67, 0]),\r\n",
      "   midi.NoteOnEvent(tick=0, channel=3, data=[65, 100]),\r\n",
      "   midi.NoteOnEvent(tick=192, channel=3, data=[65, 0]),\r\n",
      "   midi.NoteOnEvent(tick=0, channel=3, data=[65, 100]),\r\n",
      "   midi.NoteOnEvent(tick=192, channel=3, data=[65, 0]),\r\n",
      "   midi.NoteOnEvent(tick=0, channel=3, data=[69, 100]),\r\n",
      "   midi.NoteOnEvent(tick=192, channel=3, data=[69, 0]),\r\n",
      "   midi.NoteOnEvent(tick=0, channel=3, data=[69, 100]),\r\n",
      "   midi.NoteOnEvent(tick=192, channel=3, data=[69, 0]),\r\n",
      "   midi.NoteOnEvent(tick=0, channel=3, data=[70, 100]),\r\n",
      "   midi.NoteOnEvent(tick=384, channel=3, data=[70, 0]),\r\n",
      "   midi.NoteOnEvent(tick=384, channel=3, data=[67, 100]),\r\n",
      "   midi.NoteOnEvent(tick=192, channel=3, data=[67, 0]),\r\n",
      "   midi.NoteOnEvent(tick=0, channel=3, data=[67, 100]),\r\n",
      "   midi.NoteOnEvent(tick=192, channel=3, data=[67, 0]),\r\n",
      "   midi.NoteOnEvent(tick=0, channel=3, data=[69, 100]),\r\n",
      "   midi.NoteOnEvent(tick=192, channel=3, data=[69, 0]),\r\n",
      "   midi.NoteOnEvent(tick=0, channel=3, data=[69, 100]),\r\n",
      "   midi.NoteOnEvent(tick=192, channel=3, data=[69, 0]),\r\n",
      "   midi.NoteOnEvent(tick=0, channel=3, data=[57, 100]),\r\n",
      "   midi.NoteOnEvent(tick=384, channel=3, data=[57, 0]),\r\n",
      "   midi.NoteOnEvent(tick=384, channel=3, data=[62, 100]),\r\n",
      "   midi.NoteOnEvent(tick=192, channel=3, data=[62, 0]),\r\n",
      "   midi.NoteOnEvent(tick=0, channel=3, data=[62, 100]),\r\n",
      "   midi.NoteOnEvent(tick=192, channel=3, data=[62, 0]),\r\n",
      "   midi.NoteOnEvent(tick=0, channel=3, data=[64, 100]),\r\n",
      "   midi.NoteOnEvent(tick=192, channel=3, data=[64, 0]),\r\n",
      "   midi.NoteOnEvent(tick=0, channel=3, data=[64, 100]),\r\n",
      "   midi.NoteOnEvent(tick=192, channel=3, data=[64, 0]),\r\n",
      "   midi.NoteOnEvent(tick=0, channel=3, data=[52, 100]),\r\n",
      "   midi.NoteOnEvent(tick=384, channel=3, data=[52, 0]),\r\n",
      "   midi.NoteOnEvent(tick=1728, channel=3, data=[68, 100]),\r\n",
      "   midi.NoteOnEvent(tick=192, channel=3, data=[68, 0]),\r\n",
      "   midi.NoteOnEvent(tick=0, channel=3, data=[69, 100]),\r\n",
      "   midi.NoteOnEvent(tick=384, channel=3, data=[69, 0]),\r\n",
      "   midi.NoteOnEvent(tick=192, channel=3, data=[69, 100]),\r\n",
      "   midi.NoteOnEvent(tick=192, channel=3, data=[69, 0]),\r\n",
      "   midi.NoteOnEvent(tick=0, channel=3, data=[69, 100]),\r\n",
      "   midi.NoteOnEvent(tick=384, channel=3, data=[69, 0]),\r\n",
      "   midi.NoteOnEvent(tick=192, channel=3, data=[71, 100]),\r\n",
      "   midi.NoteOnEvent(tick=192, channel=3, data=[71, 0]),\r\n",
      "   midi.NoteOnEvent(tick=0, channel=3, data=[64, 100]),\r\n",
      "   midi.NoteOnEvent(tick=192, channel=3, data=[64, 0]),\r\n",
      "   midi.NoteOnEvent(tick=0, channel=3, data=[64, 100]),\r\n",
      "   midi.NoteOnEvent(tick=192, channel=3, data=[64, 0]),\r\n",
      "   midi.NoteOnEvent(tick=0, channel=3, data=[64, 100]),\r\n",
      "   midi.NoteOnEvent(tick=192, channel=3, data=[64, 0]),\r\n",
      "   midi.NoteOnEvent(tick=0, channel=3, data=[64, 100]),\r\n",
      "   midi.NoteOnEvent(tick=192, channel=3, data=[64, 0]),\r\n",
      "   midi.NoteOnEvent(tick=0, channel=3, data=[64, 100]),\r\n",
      "   midi.NoteOnEvent(tick=192, channel=3, data=[64, 0]),\r\n",
      "   midi.NoteOnEvent(tick=0, channel=3, data=[64, 100]),\r\n",
      "   midi.NoteOnEvent(tick=192, channel=3, data=[64, 0]),\r\n",
      "   midi.NoteOnEvent(tick=0, channel=3, data=[69, 100]),\r\n",
      "   midi.NoteOnEvent(tick=192, channel=3, data=[69, 0]),\r\n",
      "   midi.NoteOnEvent(tick=0, channel=3, data=[72, 100]),\r\n",
      "   midi.NoteOnEvent(tick=384, channel=3, data=[72, 0]),\r\n",
      "   midi.NoteOnEvent(tick=0, channel=3, data=[62, 100]),\r\n",
      "   midi.NoteOnEvent(tick=96, channel=3, data=[62, 0]),\r\n",
      "   midi.NoteOnEvent(tick=0, channel=3, data=[64, 100]),\r\n",
      "   midi.NoteOnEvent(tick=96, channel=3, data=[64, 0]),\r\n",
      "   midi.NoteOnEvent(tick=0, channel=3, data=[65, 100]),\r\n",
      "   midi.NoteOnEvent(tick=192, channel=3, data=[65, 0]),\r\n",
      "   midi.NoteOnEvent(tick=0, channel=3, data=[65, 100]),\r\n",
      "   midi.NoteOnEvent(tick=192, channel=3, data=[65, 0]),\r\n",
      "   midi.NoteOnEvent(tick=0, channel=3, data=[62, 100]),\r\n",
      "   midi.NoteOnEvent(tick=192, channel=3, data=[62, 0]),\r\n",
      "   midi.NoteOnEvent(tick=0, channel=3, data=[74, 100]),\r\n",
      "   midi.NoteOnEvent(tick=192, channel=3, data=[74, 0]),\r\n",
      "   midi.NoteOnEvent(tick=1344, channel=3, data=[62, 100]),\r\n",
      "   midi.NoteOnEvent(tick=192, channel=3, data=[62, 0]),\r\n",
      "   midi.NoteOnEvent(tick=0, channel=3, data=[67, 100]),\r\n",
      "   midi.NoteOnEvent(tick=192, channel=3, data=[67, 0]),\r\n",
      "   midi.NoteOnEvent(tick=0, channel=3, data=[71, 100]),\r\n",
      "   midi.NoteOnEvent(tick=384, channel=3, data=[71, 0]),\r\n",
      "   midi.NoteOnEvent(tick=0, channel=3, data=[60, 100]),\r\n",
      "   midi.NoteOnEvent(tick=96, channel=3, data=[60, 0]),\r\n",
      "   midi.NoteOnEvent(tick=0, channel=3, data=[62, 100]),\r\n",
      "   midi.NoteOnEvent(tick=96, channel=3, data=[62, 0]),\r\n",
      "   midi.NoteOnEvent(tick=0, channel=3, data=[64, 100]),\r\n",
      "   midi.NoteOnEvent(tick=192, channel=3, data=[64, 0]),\r\n",
      "   midi.NoteOnEvent(tick=0, channel=3, data=[64, 100]),\r\n",
      "   midi.NoteOnEvent(tick=192, channel=3, data=[64, 0]),\r\n",
      "   midi.NoteOnEvent(tick=0, channel=3, data=[60, 100]),\r\n",
      "   midi.NoteOnEvent(tick=192, channel=3, data=[60, 0]),\r\n",
      "   midi.NoteOnEvent(tick=0, channel=3, data=[72, 100]),\r\n",
      "   midi.NoteOnEvent(tick=192, channel=3, data=[72, 0]),\r\n",
      "   midi.NoteOnEvent(tick=1344, channel=3, data=[60, 100]),\r\n",
      "   midi.NoteOnEvent(tick=192, channel=3, data=[60, 0]),\r\n",
      "   midi.NoteOnEvent(tick=0, channel=3, data=[65, 100]),\r\n",
      "   midi.NoteOnEvent(tick=192, channel=3, data=[65, 0]),\r\n",
      "   midi.NoteOnEvent(tick=0, channel=3, data=[69, 100]),\r\n",
      "   midi.NoteOnEvent(tick=384, channel=3, data=[69, 0]),\r\n",
      "   midi.NoteOnEvent(tick=0, channel=3, data=[68, 100]),\r\n",
      "   midi.NoteOnEvent(tick=96, channel=3, data=[68, 0]),\r\n",
      "   midi.NoteOnEvent(tick=0, channel=3, data=[69, 100]),\r\n",
      "   midi.NoteOnEvent(tick=96, channel=3, data=[69, 0]),\r\n",
      "   midi.NoteOnEvent(tick=0, channel=3, data=[71, 100]),\r\n",
      "   midi.NoteOnEvent(tick=192, channel=3, data=[71, 0]),\r\n",
      "   midi.NoteOnEvent(tick=0, channel=3, data=[59, 100]),\r\n",
      "   midi.NoteOnEvent(tick=384, channel=3, data=[59, 0]),\r\n",
      "   midi.NoteOnEvent(tick=0, channel=3, data=[52, 100]),\r\n",
      "   midi.NoteOnEvent(tick=192, channel=3, data=[52, 0]),\r\n",
      "   midi.NoteOnEvent(tick=0, channel=3, data=[64, 100]),\r\n",
      "   midi.NoteOnEvent(tick=192, channel=3, data=[64, 0]),\r\n",
      "   midi.NoteOnEvent(tick=0, channel=3, data=[60, 100]),\r\n",
      "   midi.NoteOnEvent(tick=192, channel=3, data=[60, 0]),\r\n",
      "   midi.NoteOnEvent(tick=0, channel=3, data=[57, 100]),\r\n",
      "   midi.NoteOnEvent(tick=192, channel=3, data=[57, 0]),\r\n",
      "   midi.NoteOnEvent(tick=0, channel=3, data=[60, 100]),\r\n",
      "   midi.NoteOnEvent(tick=192, channel=3, data=[60, 0]),\r\n",
      "   midi.NoteOnEvent(tick=0, channel=3, data=[65, 100]),\r\n",
      "   midi.NoteOnEvent(tick=192, channel=3, data=[65, 0]),\r\n",
      "   midi.NoteOnEvent(tick=0, channel=3, data=[62, 100]),\r\n",
      "   midi.NoteOnEvent(tick=192, channel=3, data=[62, 0]),\r\n",
      "   midi.NoteOnEvent(tick=0, channel=3, data=[59, 100]),\r\n",
      "   midi.NoteOnEvent(tick=192, channel=3, data=[59, 0]),\r\n",
      "   midi.NoteOnEvent(tick=0, channel=3, data=[74, 100]),\r\n",
      "   midi.NoteOnEvent(tick=192, channel=3, data=[74, 0]),\r\n",
      "   midi.NoteOnEvent(tick=0, channel=3, data=[72, 100]),\r\n",
      "   midi.NoteOnEvent(tick=192, channel=3, data=[72, 0]),\r\n",
      "   midi.NoteOnEvent(tick=0, channel=3, data=[69, 100]),\r\n",
      "   midi.NoteOnEvent(tick=192, channel=3, data=[69, 0]),\r\n",
      "   midi.NoteOnEvent(tick=0, channel=3, data=[69, 100]),\r\n",
      "   midi.NoteOnEvent(tick=384, channel=3, data=[69, 0]),\r\n",
      "   midi.NoteOnEvent(tick=0, channel=3, data=[68, 100]),\r\n",
      "   midi.NoteOnEvent(tick=768, channel=3, data=[68, 0]),\r\n",
      "   midi.NoteOnEvent(tick=384, channel=3, data=[65, 100]),\r\n",
      "   midi.NoteOnEvent(tick=384, channel=3, data=[65, 0]),\r\n",
      "   midi.NoteOnEvent(tick=384, channel=3, data=[59, 100]),\r\n",
      "   midi.NoteOnEvent(tick=384, channel=3, data=[59, 0]),\r\n",
      "   midi.NoteOnEvent(tick=384, channel=3, data=[67, 100]),\r\n",
      "   midi.NoteOnEvent(tick=384, channel=3, data=[67, 0]),\r\n",
      "   midi.NoteOnEvent(tick=384, channel=3, data=[68, 100]),\r\n",
      "   midi.NoteOnEvent(tick=960, channel=3, data=[68, 0]),\r\n",
      "   midi.NoteOnEvent(tick=0, channel=3, data=[69, 100]),\r\n",
      "   midi.NoteOnEvent(tick=384, channel=3, data=[69, 0]),\r\n",
      "   midi.NoteOnEvent(tick=0, channel=3, data=[59, 100]),\r\n",
      "   midi.NoteOnEvent(tick=192, channel=3, data=[59, 0]),\r\n",
      "   midi.NoteOnEvent(tick=0, channel=3, data=[57, 100]),\r\n",
      "   midi.NoteOnEvent(tick=192, channel=3, data=[57, 0]),\r\n",
      "   midi.NoteOnEvent(tick=0, channel=3, data=[60, 100]),\r\n",
      "   midi.NoteOnEvent(tick=192, channel=3, data=[60, 0]),\r\n",
      "   midi.NoteOnEvent(tick=0, channel=3, data=[65, 100]),\r\n",
      "   midi.NoteOnEvent(tick=192, channel=3, data=[65, 0]),\r\n",
      "   midi.NoteOnEvent(tick=0, channel=3, data=[64, 100]),\r\n",
      "   midi.NoteOnEvent(tick=192, channel=3, data=[64, 0]),\r\n",
      "   midi.NoteOnEvent(tick=0, channel=3, data=[64, 100]),\r\n",
      "   midi.NoteOnEvent(tick=192, channel=3, data=[64, 0]),\r\n",
      "   midi.NoteOnEvent(tick=0, channel=3, data=[62, 100]),\r\n",
      "   midi.NoteOnEvent(tick=192, channel=3, data=[62, 0]),\r\n",
      "   midi.NoteOnEvent(tick=192, channel=3, data=[57, 100]),\r\n",
      "   midi.NoteOnEvent(tick=192, channel=3, data=[57, 0]),\r\n",
      "   midi.NoteOnEvent(tick=0, channel=3, data=[59, 100]),\r\n",
      "   midi.NoteOnEvent(tick=192, channel=3, data=[59, 0]),\r\n",
      "   midi.NoteOnEvent(tick=0, channel=3, data=[62, 100]),\r\n",
      "   midi.NoteOnEvent(tick=192, channel=3, data=[62, 0]),\r\n",
      "   midi.NoteOnEvent(tick=192, channel=3, data=[71, 100]),\r\n",
      "   midi.NoteOnEvent(tick=192, channel=3, data=[71, 0]),\r\n",
      "   midi.NoteOnEvent(tick=0, channel=3, data=[68, 100]),\r\n",
      "   midi.NoteOnEvent(tick=192, channel=3, data=[68, 0]),\r\n",
      "   midi.NoteOnEvent(tick=0, channel=3, data=[71, 100]),\r\n",
      "   midi.NoteOnEvent(tick=192, channel=3, data=[71, 0]),\r\n",
      "   midi.NoteOnEvent(tick=192, channel=3, data=[74, 100]),\r\n",
      "   midi.NoteOnEvent(tick=192, channel=3, data=[74, 0]),\r\n",
      "   midi.NoteOnEvent(tick=0, channel=3, data=[62, 100]),\r\n",
      "   midi.NoteOnEvent(tick=192, channel=3, data=[62, 0]),\r\n",
      "   midi.NoteOnEvent(tick=0, channel=3, data=[64, 100]),\r\n",
      "   midi.NoteOnEvent(tick=192, channel=3, data=[64, 0]),\r\n",
      "   midi.NoteOnEvent(tick=0, channel=3, data=[64, 100]),\r\n",
      "   midi.NoteOnEvent(tick=192, channel=3, data=[64, 0]),\r\n",
      "   midi.NoteOnEvent(tick=0, channel=3, data=[64, 100]),\r\n",
      "   midi.NoteOnEvent(tick=192, channel=3, data=[64, 0]),\r\n",
      "   midi.NoteOnEvent(tick=0, channel=3, data=[60, 100]),\r\n",
      "   midi.NoteOnEvent(tick=576, channel=3, data=[60, 0]),\r\n",
      "   midi.EndOfTrackEvent(tick=0, data=[])]),\r\n",
      " midi.Track(\\\r\n",
      "  [midi.PortEvent(tick=0, data=[0]),\r\n",
      "   midi.TrackNameEvent(tick=0, text='Cello', data=[67, 101, 108, 108, 111]),\r\n",
      "   midi.ProgramChangeEvent(tick=0, channel=4, data=[42]),\r\n",
      "   midi.ControlChangeEvent(tick=0, channel=4, data=[7, 100]),\r\n",
      "   midi.ControlChangeEvent(tick=0, channel=4, data=[10, 84]),\r\n",
      "   midi.NoteOnEvent(tick=960, channel=4, data=[45, 100]),\r\n",
      "   midi.NoteOnEvent(tick=192, channel=4, data=[45, 0]),\r\n",
      "   midi.NoteOnEvent(tick=0, channel=4, data=[57, 100]),\r\n",
      "   midi.NoteOnEvent(tick=384, channel=4, data=[57, 0]),\r\n",
      "   midi.NoteOnEvent(tick=192, channel=4, data=[45, 100]),\r\n",
      "   midi.NoteOnEvent(tick=192, channel=4, data=[45, 0]),\r\n",
      "   midi.NoteOnEvent(tick=0, channel=4, data=[57, 100]),\r\n",
      "   midi.NoteOnEvent(tick=384, channel=4, data=[57, 0]),\r\n",
      "   midi.NoteOnEvent(tick=192, channel=4, data=[45, 100]),\r\n",
      "   midi.NoteOnEvent(tick=192, channel=4, data=[45, 0]),\r\n",
      "   midi.NoteOnEvent(tick=0, channel=4, data=[52, 100]),\r\n",
      "   midi.NoteOnEvent(tick=192, channel=4, data=[52, 0]),\r\n",
      "   midi.NoteOnEvent(tick=0, channel=4, data=[40, 100]),\r\n",
      "   midi.NoteOnEvent(tick=192, channel=4, data=[40, 0]),\r\n",
      "   midi.NoteOnEvent(tick=0, channel=4, data=[45, 100]),\r\n",
      "   midi.NoteOnEvent(tick=192, channel=4, data=[45, 0]),\r\n",
      "   midi.NoteOnEvent(tick=0, channel=4, data=[57, 100]),\r\n",
      "   midi.NoteOnEvent(tick=96, channel=4, data=[57, 0]),\r\n",
      "   midi.NoteOnEvent(tick=0, channel=4, data=[59, 100]),\r\n",
      "   midi.NoteOnEvent(tick=96, channel=4, data=[59, 0]),\r\n",
      "   midi.NoteOnEvent(tick=0, channel=4, data=[60, 100]),\r\n",
      "   midi.NoteOnEvent(tick=192, channel=4, data=[60, 0]),\r\n",
      "   midi.NoteOnEvent(tick=0, channel=4, data=[57, 100]),\r\n",
      "   midi.NoteOnEvent(tick=192, channel=4, data=[57, 0]),\r\n",
      "   midi.NoteOnEvent(tick=0, channel=4, data=[56, 100]),\r\n",
      "   midi.NoteOnEvent(tick=192, channel=4, data=[56, 0]),\r\n",
      "   midi.NoteOnEvent(tick=0, channel=4, data=[52, 100]),\r\n",
      "   midi.NoteOnEvent(tick=192, channel=4, data=[52, 0]),\r\n",
      "   midi.NoteOnEvent(tick=0, channel=4, data=[57, 100]),\r\n",
      "   midi.NoteOnEvent(tick=192, channel=4, data=[57, 0]),\r\n",
      "   midi.NoteOnEvent(tick=0, channel=4, data=[52, 100]),\r\n",
      "   midi.NoteOnEvent(tick=192, channel=4, data=[52, 0]),\r\n",
      "   midi.NoteOnEvent(tick=0, channel=4, data=[59, 100]),\r\n",
      "   midi.NoteOnEvent(tick=192, channel=4, data=[59, 0]),\r\n",
      "   midi.NoteOnEvent(tick=0, channel=4, data=[52, 100]),\r\n",
      "   midi.NoteOnEvent(tick=192, channel=4, data=[52, 0]),\r\n",
      "   midi.NoteOnEvent(tick=0, channel=4, data=[60, 100]),\r\n",
      "   midi.NoteOnEvent(tick=192, channel=4, data=[60, 0]),\r\n",
      "   midi.NoteOnEvent(tick=0, channel=4, data=[52, 100]),\r\n",
      "   midi.NoteOnEvent(tick=192, channel=4, data=[52, 0]),\r\n",
      "   midi.NoteOnEvent(tick=0, channel=4, data=[62, 100]),\r\n",
      "   midi.NoteOnEvent(tick=192, channel=4, data=[62, 0]),\r\n",
      "   midi.NoteOnEvent(tick=0, channel=4, data=[50, 100]),\r\n",
      "   midi.NoteOnEvent(tick=192, channel=4, data=[50, 0]),\r\n",
      "   midi.NoteOnEvent(tick=0, channel=4, data=[52, 100]),\r\n",
      "   midi.NoteOnEvent(tick=192, channel=4, data=[52, 0]),\r\n",
      "   midi.NoteOnEvent(tick=0, channel=4, data=[53, 100]),\r\n",
      "   midi.NoteOnEvent(tick=192, channel=4, data=[53, 0]),\r\n",
      "   midi.NoteOnEvent(tick=0, channel=4, data=[52, 100]),\r\n",
      "   midi.NoteOnEvent(tick=192, channel=4, data=[52, 0]),\r\n",
      "   midi.NoteOnEvent(tick=0, channel=4, data=[40, 100]),\r\n",
      "   midi.NoteOnEvent(tick=192, channel=4, data=[40, 0]),\r\n",
      "   midi.NoteOnEvent(tick=192, channel=4, data=[64, 100]),\r\n",
      "   midi.NoteOnEvent(tick=96, channel=4, data=[64, 0]),\r\n",
      "   midi.NoteOnEvent(tick=0, channel=4, data=[62, 100]),\r\n",
      "   midi.NoteOnEvent(tick=96, channel=4, data=[62, 0]),\r\n",
      "   midi.NoteOnEvent(tick=0, channel=4, data=[60, 100]),\r\n",
      "   midi.NoteOnEvent(tick=192, channel=4, data=[60, 0]),\r\n",
      "   midi.NoteOnEvent(tick=0, channel=4, data=[64, 100]),\r\n",
      "   midi.NoteOnEvent(tick=192, channel=4, data=[64, 0]),\r\n",
      "   midi.NoteOnEvent(tick=0, channel=4, data=[60, 100]),\r\n",
      "   midi.NoteOnEvent(tick=192, channel=4, data=[60, 0]),\r\n",
      "   midi.NoteOnEvent(tick=0, channel=4, data=[57, 100]),\r\n",
      "   midi.NoteOnEvent(tick=192, channel=4, data=[57, 0]),\r\n",
      "   midi.NoteOnEvent(tick=0, channel=4, data=[62, 100]),\r\n",
      "   midi.NoteOnEvent(tick=192, channel=4, data=[62, 0]),\r\n",
      "   midi.NoteOnEvent(tick=0, channel=4, data=[50, 100]),\r\n",
      "   midi.NoteOnEvent(tick=192, channel=4, data=[50, 0]),\r\n",
      "   midi.NoteOnEvent(tick=192, channel=4, data=[62, 100]),\r\n",
      "   midi.NoteOnEvent(tick=96, channel=4, data=[62, 0]),\r\n",
      "   midi.NoteOnEvent(tick=0, channel=4, data=[60, 100]),\r\n",
      "   midi.NoteOnEvent(tick=96, channel=4, data=[60, 0]),\r\n",
      "   midi.NoteOnEvent(tick=0, channel=4, data=[59, 100]),\r\n",
      "   midi.NoteOnEvent(tick=192, channel=4, data=[59, 0]),\r\n",
      "   midi.NoteOnEvent(tick=0, channel=4, data=[62, 100]),\r\n",
      "   midi.NoteOnEvent(tick=192, channel=4, data=[62, 0]),\r\n",
      "   midi.NoteOnEvent(tick=0, channel=4, data=[59, 100]),\r\n",
      "   midi.NoteOnEvent(tick=192, channel=4, data=[59, 0]),\r\n",
      "   midi.NoteOnEvent(tick=0, channel=4, data=[55, 100]),\r\n",
      "   midi.NoteOnEvent(tick=192, channel=4, data=[55, 0]),\r\n",
      "   midi.NoteOnEvent(tick=0, channel=4, data=[60, 100]),\r\n",
      "   midi.NoteOnEvent(tick=192, channel=4, data=[60, 0]),\r\n",
      "   midi.NoteOnEvent(tick=0, channel=4, data=[48, 100]),\r\n",
      "   midi.NoteOnEvent(tick=192, channel=4, data=[48, 0]),\r\n",
      "   midi.NoteOnEvent(tick=192, channel=4, data=[60, 100]),\r\n",
      "   midi.NoteOnEvent(tick=96, channel=4, data=[60, 0]),\r\n",
      "   midi.NoteOnEvent(tick=0, channel=4, data=[59, 100]),\r\n",
      "   midi.NoteOnEvent(tick=96, channel=4, data=[59, 0]),\r\n",
      "   midi.NoteOnEvent(tick=0, channel=4, data=[57, 100]),\r\n",
      "   midi.NoteOnEvent(tick=96, channel=4, data=[57, 0]),\r\n",
      "   midi.NoteOnEvent(tick=0, channel=4, data=[59, 100]),\r\n",
      "   midi.NoteOnEvent(tick=96, channel=4, data=[59, 0]),\r\n",
      "   midi.NoteOnEvent(tick=0, channel=4, data=[57, 100]),\r\n",
      "   midi.NoteOnEvent(tick=96, channel=4, data=[57, 0]),\r\n",
      "   midi.NoteOnEvent(tick=0, channel=4, data=[55, 100]),\r\n",
      "   midi.NoteOnEvent(tick=96, channel=4, data=[55, 0]),\r\n",
      "   midi.NoteOnEvent(tick=0, channel=4, data=[54, 100]),\r\n",
      "   midi.NoteOnEvent(tick=96, channel=4, data=[54, 0]),\r\n",
      "   midi.NoteOnEvent(tick=0, channel=4, data=[55, 100]),\r\n",
      "   midi.NoteOnEvent(tick=96, channel=4, data=[55, 0]),\r\n",
      "   midi.NoteOnEvent(tick=0, channel=4, data=[54, 100]),\r\n",
      "   midi.NoteOnEvent(tick=96, channel=4, data=[54, 0]),\r\n",
      "   midi.NoteOnEvent(tick=0, channel=4, data=[52, 100]),\r\n",
      "   midi.NoteOnEvent(tick=96, channel=4, data=[52, 0]),\r\n",
      "   midi.NoteOnEvent(tick=0, channel=4, data=[51, 100]),\r\n",
      "   midi.NoteOnEvent(tick=96, channel=4, data=[51, 0]),\r\n",
      "   midi.NoteOnEvent(tick=0, channel=4, data=[47, 100]),\r\n",
      "   midi.NoteOnEvent(tick=96, channel=4, data=[47, 0]),\r\n",
      "   midi.NoteOnEvent(tick=0, channel=4, data=[49, 100]),\r\n",
      "   midi.NoteOnEvent(tick=96, channel=4, data=[49, 0]),\r\n",
      "   midi.NoteOnEvent(tick=0, channel=4, data=[51, 100]),\r\n",
      "   midi.NoteOnEvent(tick=96, channel=4, data=[51, 0]),\r\n",
      "   midi.NoteOnEvent(tick=0, channel=4, data=[52, 100]),\r\n",
      "   midi.NoteOnEvent(tick=96, channel=4, data=[52, 0]),\r\n",
      "   midi.NoteOnEvent(tick=0, channel=4, data=[54, 100]),\r\n",
      "   midi.NoteOnEvent(tick=96, channel=4, data=[54, 0]),\r\n",
      "   midi.NoteOnEvent(tick=0, channel=4, data=[55, 100]),\r\n",
      "   midi.NoteOnEvent(tick=96, channel=4, data=[55, 0]),\r\n",
      "   midi.NoteOnEvent(tick=0, channel=4, data=[52, 100]),\r\n",
      "   midi.NoteOnEvent(tick=96, channel=4, data=[52, 0]),\r\n",
      "   midi.NoteOnEvent(tick=0, channel=4, data=[48, 100]),\r\n",
      "   midi.NoteOnEvent(tick=192, channel=4, data=[48, 0]),\r\n",
      "   midi.NoteOnEvent(tick=0, channel=4, data=[47, 100]),\r\n",
      "   midi.NoteOnEvent(tick=192, channel=4, data=[47, 0]),\r\n",
      "   midi.NoteOnEvent(tick=0, channel=4, data=[48, 100]),\r\n",
      "   midi.NoteOnEvent(tick=192, channel=4, data=[48, 0]),\r\n",
      "   midi.NoteOnEvent(tick=0, channel=4, data=[45, 100]),\r\n",
      "   midi.NoteOnEvent(tick=192, channel=4, data=[45, 0]),\r\n",
      "   midi.NoteOnEvent(tick=0, channel=4, data=[47, 100]),\r\n",
      "   midi.NoteOnEvent(tick=288, channel=4, data=[47, 0]),\r\n",
      "   midi.NoteOnEvent(tick=0, channel=4, data=[49, 100]),\r\n",
      "   midi.NoteOnEvent(tick=48, channel=4, data=[49, 0]),\r\n",
      "   midi.NoteOnEvent(tick=0, channel=4, data=[51, 100]),\r\n",
      "   midi.NoteOnEvent(tick=48, channel=4, data=[51, 0]),\r\n",
      "   midi.NoteOnEvent(tick=0, channel=4, data=[52, 100]),\r\n",
      "   midi.NoteOnEvent(tick=96, channel=4, data=[52, 0]),\r\n",
      "   midi.NoteOnEvent(tick=0, channel=4, data=[54, 100]),\r\n",
      "   midi.NoteOnEvent(tick=96, channel=4, data=[54, 0]),\r\n",
      "   midi.NoteOnEvent(tick=0, channel=4, data=[55, 100]),\r\n",
      "   midi.NoteOnEvent(tick=96, channel=4, data=[55, 0]),\r\n",
      "   midi.NoteOnEvent(tick=0, channel=4, data=[57, 100]),\r\n",
      "   midi.NoteOnEvent(tick=96, channel=4, data=[57, 0]),\r\n",
      "   midi.NoteOnEvent(tick=0, channel=4, data=[59, 100]),\r\n",
      "   midi.NoteOnEvent(tick=192, channel=4, data=[59, 0]),\r\n",
      "   midi.NoteOnEvent(tick=0, channel=4, data=[57, 100]),\r\n",
      "   midi.NoteOnEvent(tick=192, channel=4, data=[57, 0]),\r\n",
      "   midi.NoteOnEvent(tick=0, channel=4, data=[59, 100]),\r\n",
      "   midi.NoteOnEvent(tick=192, channel=4, data=[59, 0]),\r\n",
      "   midi.NoteOnEvent(tick=0, channel=4, data=[47, 100]),\r\n",
      "   midi.NoteOnEvent(tick=192, channel=4, data=[47, 0]),\r\n",
      "   midi.NoteOnEvent(tick=0, channel=4, data=[57, 100]),\r\n",
      "   midi.NoteOnEvent(tick=192, channel=4, data=[57, 0]),\r\n",
      "   midi.NoteOnEvent(tick=0, channel=4, data=[55, 100]),\r\n",
      "   midi.NoteOnEvent(tick=192, channel=4, data=[55, 0]),\r\n",
      "   midi.NoteOnEvent(tick=0, channel=4, data=[57, 100]),\r\n",
      "   midi.NoteOnEvent(tick=192, channel=4, data=[57, 0]),\r\n",
      "   midi.NoteOnEvent(tick=0, channel=4, data=[45, 100]),\r\n",
      "   midi.NoteOnEvent(tick=192, channel=4, data=[45, 0]),\r\n",
      "   midi.NoteOnEvent(tick=0, channel=4, data=[43, 100]),\r\n",
      "   midi.NoteOnEvent(tick=192, channel=4, data=[43, 0]),\r\n",
      "   midi.NoteOnEvent(tick=0, channel=4, data=[48, 100]),\r\n",
      "   midi.NoteOnEvent(tick=192, channel=4, data=[48, 0]),\r\n",
      "   midi.NoteOnEvent(tick=0, channel=4, data=[45, 100]),\r\n",
      "   midi.NoteOnEvent(tick=192, channel=4, data=[45, 0]),\r\n",
      "   midi.NoteOnEvent(tick=0, channel=4, data=[47, 100]),\r\n",
      "   midi.NoteOnEvent(tick=192, channel=4, data=[47, 0]),\r\n",
      "   midi.NoteOnEvent(tick=0, channel=4, data=[40, 100]),\r\n",
      "   midi.NoteOnEvent(tick=384, channel=4, data=[40, 0]),\r\n",
      "   midi.NoteOnEvent(tick=192, channel=4, data=[60, 100]),\r\n",
      "   midi.NoteOnEvent(tick=192, channel=4, data=[60, 0]),\r\n",
      "   midi.NoteOnEvent(tick=0, channel=4, data=[51, 100]),\r\n",
      "   midi.NoteOnEvent(tick=192, channel=4, data=[51, 0]),\r\n",
      "   midi.NoteOnEvent(tick=0, channel=4, data=[51, 100]),\r\n",
      "   midi.NoteOnEvent(tick=192, channel=4, data=[51, 0]),\r\n",
      "   midi.NoteOnEvent(tick=0, channel=4, data=[51, 100]),\r\n",
      "   midi.NoteOnEvent(tick=192, channel=4, data=[51, 0]),\r\n",
      "   midi.NoteOnEvent(tick=0, channel=4, data=[54, 100]),\r\n",
      "   midi.NoteOnEvent(tick=192, channel=4, data=[54, 0]),\r\n",
      "   midi.NoteOnEvent(tick=0, channel=4, data=[45, 100]),\r\n",
      "   midi.NoteOnEvent(tick=192, channel=4, data=[45, 0]),\r\n",
      "   midi.NoteOnEvent(tick=0, channel=4, data=[45, 100]),\r\n",
      "   midi.NoteOnEvent(tick=192, channel=4, data=[45, 0]),\r\n",
      "   midi.NoteOnEvent(tick=0, channel=4, data=[45, 100]),\r\n",
      "   midi.NoteOnEvent(tick=192, channel=4, data=[45, 0]),\r\n",
      "   midi.NoteOnEvent(tick=0, channel=4, data=[48, 100]),\r\n",
      "   midi.NoteOnEvent(tick=192, channel=4, data=[48, 0]),\r\n",
      "   midi.NoteOnEvent(tick=0, channel=4, data=[42, 100]),\r\n",
      "   midi.NoteOnEvent(tick=192, channel=4, data=[42, 0]),\r\n",
      "   midi.NoteOnEvent(tick=0, channel=4, data=[40, 100]),\r\n",
      "   midi.NoteOnEvent(tick=192, channel=4, data=[40, 0]),\r\n",
      "   midi.NoteOnEvent(tick=0, channel=4, data=[47, 100]),\r\n",
      "   midi.NoteOnEvent(tick=192, channel=4, data=[47, 0]),\r\n",
      "   midi.NoteOnEvent(tick=0, channel=4, data=[47, 100]),\r\n",
      "   midi.NoteOnEvent(tick=192, channel=4, data=[47, 0]),\r\n",
      "   midi.NoteOnEvent(tick=0, channel=4, data=[40, 100]),\r\n",
      "   midi.NoteOnEvent(tick=192, channel=4, data=[40, 0]),\r\n",
      "   midi.NoteOnEvent(tick=0, channel=4, data=[52, 100]),\r\n",
      "   midi.NoteOnEvent(tick=96, channel=4, data=[52, 0]),\r\n",
      "   midi.NoteOnEvent(tick=0, channel=4, data=[50, 100]),\r\n",
      "   midi.NoteOnEvent(tick=96, channel=4, data=[50, 0]),\r\n",
      "   midi.NoteOnEvent(tick=0, channel=4, data=[48, 100]),\r\n",
      "   midi.NoteOnEvent(tick=192, channel=4, data=[48, 0]),\r\n",
      "   midi.NoteOnEvent(tick=0, channel=4, data=[47, 100]),\r\n",
      "   midi.NoteOnEvent(tick=192, channel=4, data=[47, 0]),\r\n",
      "   midi.NoteOnEvent(tick=0, channel=4, data=[45, 100]),\r\n",
      "   midi.NoteOnEvent(tick=384, channel=4, data=[45, 0]),\r\n",
      "   midi.NoteOnEvent(tick=192, channel=4, data=[57, 100]),\r\n",
      "   midi.NoteOnEvent(tick=192, channel=4, data=[57, 0]),\r\n",
      "   midi.NoteOnEvent(tick=0, channel=4, data=[64, 100]),\r\n",
      "   midi.NoteOnEvent(tick=384, channel=4, data=[64, 0]),\r\n",
      "   midi.NoteOnEvent(tick=192, channel=4, data=[52, 100]),\r\n",
      "   midi.NoteOnEvent(tick=192, channel=4, data=[52, 0]),\r\n",
      "   midi.NoteOnEvent(tick=0, channel=4, data=[44, 100]),\r\n",
      "   midi.NoteOnEvent(tick=384, channel=4, data=[44, 0]),\r\n",
      "   midi.NoteOnEvent(tick=192, channel=4, data=[52, 100]),\r\n",
      "   midi.NoteOnEvent(tick=192, channel=4, data=[52, 0]),\r\n",
      "   midi.NoteOnEvent(tick=0, channel=4, data=[57, 100]),\r\n",
      "   midi.NoteOnEvent(tick=384, channel=4, data=[57, 0]),\r\n",
      "   midi.NoteOnEvent(tick=192, channel=4, data=[57, 100]),\r\n",
      "   midi.NoteOnEvent(tick=192, channel=4, data=[57, 0]),\r\n",
      "   midi.NoteOnEvent(tick=0, channel=4, data=[45, 100]),\r\n",
      "   midi.NoteOnEvent(tick=192, channel=4, data=[45, 0]),\r\n",
      "   midi.NoteOnEvent(tick=0, channel=4, data=[48, 100]),\r\n",
      "   midi.NoteOnEvent(tick=192, channel=4, data=[48, 0]),\r\n",
      "   midi.NoteOnEvent(tick=0, channel=4, data=[50, 100]),\r\n",
      "   midi.NoteOnEvent(tick=192, channel=4, data=[50, 0]),\r\n",
      "   midi.NoteOnEvent(tick=0, channel=4, data=[53, 100]),\r\n",
      "   midi.NoteOnEvent(tick=192, channel=4, data=[53, 0]),\r\n",
      "   midi.NoteOnEvent(tick=0, channel=4, data=[43, 100]),\r\n",
      "   midi.NoteOnEvent(tick=192, channel=4, data=[43, 0]),\r\n",
      "   midi.NoteOnEvent(tick=0, channel=4, data=[47, 100]),\r\n",
      "   midi.NoteOnEvent(tick=192, channel=4, data=[47, 0]),\r\n",
      "   midi.NoteOnEvent(tick=0, channel=4, data=[48, 100]),\r\n",
      "   midi.NoteOnEvent(tick=192, channel=4, data=[48, 0]),\r\n",
      "   midi.NoteOnEvent(tick=0, channel=4, data=[52, 100]),\r\n",
      "   midi.NoteOnEvent(tick=192, channel=4, data=[52, 0]),\r\n",
      "   midi.NoteOnEvent(tick=0, channel=4, data=[53, 100]),\r\n",
      "   midi.NoteOnEvent(tick=192, channel=4, data=[53, 0]),\r\n",
      "   midi.NoteOnEvent(tick=0, channel=4, data=[57, 100]),\r\n",
      "   midi.NoteOnEvent(tick=192, channel=4, data=[57, 0]),\r\n",
      "   midi.NoteOnEvent(tick=0, channel=4, data=[47, 100]),\r\n",
      "   midi.NoteOnEvent(tick=192, channel=4, data=[47, 0]),\r\n",
      "   midi.NoteOnEvent(tick=0, channel=4, data=[50, 100]),\r\n",
      "   midi.NoteOnEvent(tick=192, channel=4, data=[50, 0]),\r\n",
      "   midi.NoteOnEvent(tick=0, channel=4, data=[40, 100]),\r\n",
      "   midi.NoteOnEvent(tick=192, channel=4, data=[40, 0]),\r\n",
      "   midi.NoteOnEvent(tick=0, channel=4, data=[52, 100]),\r\n",
      "   midi.NoteOnEvent(tick=192, channel=4, data=[52, 0]),\r\n",
      "   midi.NoteOnEvent(tick=0, channel=4, data=[56, 100]),\r\n",
      "   midi.NoteOnEvent(tick=192, channel=4, data=[56, 0]),\r\n",
      "   midi.NoteOnEvent(tick=0, channel=4, data=[52, 100]),\r\n",
      "   midi.NoteOnEvent(tick=192, channel=4, data=[52, 0]),\r\n",
      "   midi.NoteOnEvent(tick=192, channel=4, data=[57, 100]),\r\n",
      "   midi.NoteOnEvent(tick=192, channel=4, data=[57, 0]),\r\n",
      "   midi.NoteOnEvent(tick=0, channel=4, data=[60, 100]),\r\n",
      "   midi.NoteOnEvent(tick=192, channel=4, data=[60, 0]),\r\n",
      "   midi.NoteOnEvent(tick=0, channel=4, data=[57, 100]),\r\n",
      "   midi.NoteOnEvent(tick=192, channel=4, data=[57, 0]),\r\n",
      "   midi.NoteOnEvent(tick=192, channel=4, data=[57, 100]),\r\n",
      "   midi.NoteOnEvent(tick=192, channel=4, data=[57, 0]),\r\n",
      "   midi.NoteOnEvent(tick=0, channel=4, data=[53, 100]),\r\n",
      "   midi.NoteOnEvent(tick=192, channel=4, data=[53, 0]),\r\n",
      "   midi.NoteOnEvent(tick=0, channel=4, data=[50, 100]),\r\n",
      "   midi.NoteOnEvent(tick=192, channel=4, data=[50, 0]),\r\n",
      "   midi.NoteOnEvent(tick=192, channel=4, data=[55, 100]),\r\n",
      "   midi.NoteOnEvent(tick=192, channel=4, data=[55, 0]),\r\n",
      "   midi.NoteOnEvent(tick=0, channel=4, data=[59, 100]),\r\n",
      "   midi.NoteOnEvent(tick=192, channel=4, data=[59, 0]),\r\n",
      "   midi.NoteOnEvent(tick=0, channel=4, data=[55, 100]),\r\n",
      "   midi.NoteOnEvent(tick=192, channel=4, data=[55, 0]),\r\n",
      "   midi.NoteOnEvent(tick=192, channel=4, data=[55, 100]),\r\n",
      "   midi.NoteOnEvent(tick=192, channel=4, data=[55, 0]),\r\n",
      "   midi.NoteOnEvent(tick=0, channel=4, data=[52, 100]),\r\n",
      "   midi.NoteOnEvent(tick=192, channel=4, data=[52, 0]),\r\n",
      "   midi.NoteOnEvent(tick=0, channel=4, data=[48, 100]),\r\n",
      "   midi.NoteOnEvent(tick=192, channel=4, data=[48, 0]),\r\n",
      "   midi.NoteOnEvent(tick=192, channel=4, data=[53, 100]),\r\n",
      "   midi.NoteOnEvent(tick=192, channel=4, data=[53, 0]),\r\n",
      "   midi.NoteOnEvent(tick=0, channel=4, data=[57, 100]),\r\n",
      "   midi.NoteOnEvent(tick=192, channel=4, data=[57, 0]),\r\n",
      "   midi.NoteOnEvent(tick=0, channel=4, data=[53, 100]),\r\n",
      "   midi.NoteOnEvent(tick=192, channel=4, data=[53, 0]),\r\n",
      "   midi.NoteOnEvent(tick=192, channel=4, data=[53, 100]),\r\n",
      "   midi.NoteOnEvent(tick=192, channel=4, data=[53, 0]),\r\n",
      "   midi.NoteOnEvent(tick=0, channel=4, data=[50, 100]),\r\n",
      "   midi.NoteOnEvent(tick=192, channel=4, data=[50, 0]),\r\n",
      "   midi.NoteOnEvent(tick=0, channel=4, data=[47, 100]),\r\n",
      "   midi.NoteOnEvent(tick=192, channel=4, data=[47, 0]),\r\n",
      "   midi.NoteOnEvent(tick=192, channel=4, data=[52, 100]),\r\n",
      "   midi.NoteOnEvent(tick=192, channel=4, data=[52, 0]),\r\n",
      "   midi.NoteOnEvent(tick=0, channel=4, data=[56, 100]),\r\n",
      "   midi.NoteOnEvent(tick=192, channel=4, data=[56, 0]),\r\n",
      "   midi.NoteOnEvent(tick=0, channel=4, data=[52, 100]),\r\n",
      "   midi.NoteOnEvent(tick=192, channel=4, data=[52, 0]),\r\n",
      "   midi.NoteOnEvent(tick=192, channel=4, data=[52, 100]),\r\n",
      "   midi.NoteOnEvent(tick=192, channel=4, data=[52, 0]),\r\n",
      "   midi.NoteOnEvent(tick=0, channel=4, data=[48, 100]),\r\n",
      "   midi.NoteOnEvent(tick=192, channel=4, data=[48, 0]),\r\n",
      "   midi.NoteOnEvent(tick=0, channel=4, data=[45, 100]),\r\n",
      "   midi.NoteOnEvent(tick=192, channel=4, data=[45, 0]),\r\n",
      "   midi.NoteOnEvent(tick=0, channel=4, data=[57, 100]),\r\n",
      "   midi.NoteOnEvent(tick=384, channel=4, data=[57, 0]),\r\n",
      "   midi.NoteOnEvent(tick=192, channel=4, data=[45, 100]),\r\n",
      "   midi.NoteOnEvent(tick=192, channel=4, data=[45, 0]),\r\n",
      "   midi.NoteOnEvent(tick=0, channel=4, data=[57, 100]),\r\n",
      "   midi.NoteOnEvent(tick=192, channel=4, data=[57, 0]),\r\n",
      "   midi.NoteOnEvent(tick=0, channel=4, data=[45, 100]),\r\n",
      "   midi.NoteOnEvent(tick=192, channel=4, data=[45, 0]),\r\n",
      "   midi.NoteOnEvent(tick=0, channel=4, data=[52, 100]),\r\n",
      "   midi.NoteOnEvent(tick=192, channel=4, data=[52, 0]),\r\n",
      "   midi.NoteOnEvent(tick=0, channel=4, data=[40, 100]),\r\n",
      "   midi.NoteOnEvent(tick=192, channel=4, data=[40, 0]),\r\n",
      "   midi.NoteOnEvent(tick=0, channel=4, data=[45, 100]),\r\n",
      "   midi.NoteOnEvent(tick=192, channel=4, data=[45, 0]),\r\n",
      "   midi.NoteOnEvent(tick=0, channel=4, data=[57, 100]),\r\n",
      "   midi.NoteOnEvent(tick=96, channel=4, data=[57, 0]),\r\n",
      "   midi.NoteOnEvent(tick=0, channel=4, data=[59, 100]),\r\n",
      "   midi.NoteOnEvent(tick=96, channel=4, data=[59, 0]),\r\n",
      "   midi.NoteOnEvent(tick=0, channel=4, data=[60, 100]),\r\n",
      "   midi.NoteOnEvent(tick=192, channel=4, data=[60, 0]),\r\n",
      "   midi.NoteOnEvent(tick=0, channel=4, data=[57, 100]),\r\n",
      "   midi.NoteOnEvent(tick=192, channel=4, data=[57, 0]),\r\n",
      "   midi.NoteOnEvent(tick=0, channel=4, data=[45, 100]),\r\n",
      "   midi.NoteOnEvent(tick=192, channel=4, data=[45, 0]),\r\n",
      "   midi.NoteOnEvent(tick=768, channel=4, data=[55, 100]),\r\n",
      "   midi.NoteOnEvent(tick=96, channel=4, data=[55, 0]),\r\n",
      "   midi.NoteOnEvent(tick=0, channel=4, data=[57, 100]),\r\n",
      "   midi.NoteOnEvent(tick=96, channel=4, data=[57, 0]),\r\n",
      "   midi.NoteOnEvent(tick=0, channel=4, data=[59, 100]),\r\n",
      "   midi.NoteOnEvent(tick=192, channel=4, data=[59, 0]),\r\n",
      "   midi.NoteOnEvent(tick=0, channel=4, data=[55, 100]),\r\n",
      "   midi.NoteOnEvent(tick=192, channel=4, data=[55, 0]),\r\n",
      "   midi.NoteOnEvent(tick=0, channel=4, data=[43, 100]),\r\n",
      "   midi.NoteOnEvent(tick=192, channel=4, data=[43, 0]),\r\n",
      "   midi.NoteOnEvent(tick=768, channel=4, data=[53, 100]),\r\n",
      "   midi.NoteOnEvent(tick=96, channel=4, data=[53, 0]),\r\n",
      "   midi.NoteOnEvent(tick=0, channel=4, data=[55, 100]),\r\n",
      "   midi.NoteOnEvent(tick=96, channel=4, data=[55, 0]),\r\n",
      "   midi.NoteOnEvent(tick=0, channel=4, data=[57, 100]),\r\n",
      "   midi.NoteOnEvent(tick=192, channel=4, data=[57, 0]),\r\n",
      "   midi.NoteOnEvent(tick=0, channel=4, data=[53, 100]),\r\n",
      "   midi.NoteOnEvent(tick=192, channel=4, data=[53, 0]),\r\n",
      "   midi.NoteOnEvent(tick=0, channel=4, data=[41, 100]),\r\n",
      "   midi.NoteOnEvent(tick=192, channel=4, data=[41, 0]),\r\n",
      "   midi.NoteOnEvent(tick=768, channel=4, data=[53, 100]),\r\n",
      "   midi.NoteOnEvent(tick=192, channel=4, data=[53, 0]),\r\n",
      "   midi.NoteOnEvent(tick=0, channel=4, data=[52, 100]),\r\n",
      "   midi.NoteOnEvent(tick=192, channel=4, data=[52, 0]),\r\n",
      "   midi.NoteOnEvent(tick=0, channel=4, data=[50, 100]),\r\n",
      "   midi.NoteOnEvent(tick=192, channel=4, data=[50, 0]),\r\n",
      "   midi.NoteOnEvent(tick=0, channel=4, data=[48, 100]),\r\n",
      "   midi.NoteOnEvent(tick=192, channel=4, data=[48, 0]),\r\n",
      "   midi.NoteOnEvent(tick=0, channel=4, data=[60, 100]),\r\n",
      "   midi.NoteOnEvent(tick=192, channel=4, data=[60, 0]),\r\n",
      "   midi.NoteOnEvent(tick=0, channel=4, data=[59, 100]),\r\n",
      "   midi.NoteOnEvent(tick=192, channel=4, data=[59, 0]),\r\n",
      "   midi.NoteOnEvent(tick=0, channel=4, data=[57, 100]),\r\n",
      "   midi.NoteOnEvent(tick=192, channel=4, data=[57, 0]),\r\n",
      "   midi.NoteOnEvent(tick=0, channel=4, data=[55, 100]),\r\n",
      "   midi.NoteOnEvent(tick=192, channel=4, data=[55, 0]),\r\n",
      "   midi.NoteOnEvent(tick=0, channel=4, data=[57, 100]),\r\n",
      "   midi.NoteOnEvent(tick=192, channel=4, data=[57, 0]),\r\n",
      "   midi.NoteOnEvent(tick=0, channel=4, data=[55, 100]),\r\n",
      "   midi.NoteOnEvent(tick=192, channel=4, data=[55, 0]),\r\n",
      "   midi.NoteOnEvent(tick=0, channel=4, data=[53, 100]),\r\n",
      "   midi.NoteOnEvent(tick=192, channel=4, data=[53, 0]),\r\n",
      "   midi.NoteOnEvent(tick=0, channel=4, data=[52, 100]),\r\n",
      "   midi.NoteOnEvent(tick=192, channel=4, data=[52, 0]),\r\n",
      "   midi.NoteOnEvent(tick=0, channel=4, data=[55, 100]),\r\n",
      "   midi.NoteOnEvent(tick=192, channel=4, data=[55, 0]),\r\n",
      "   midi.NoteOnEvent(tick=0, channel=4, data=[52, 100]),\r\n",
      "   midi.NoteOnEvent(tick=192, channel=4, data=[52, 0]),\r\n",
      "   midi.NoteOnEvent(tick=0, channel=4, data=[48, 100]),\r\n",
      "   midi.NoteOnEvent(tick=192, channel=4, data=[48, 0]),\r\n",
      "   midi.NoteOnEvent(tick=0, channel=4, data=[53, 100]),\r\n",
      "   midi.NoteOnEvent(tick=192, channel=4, data=[53, 0]),\r\n",
      "   midi.NoteOnEvent(tick=0, channel=4, data=[57, 100]),\r\n",
      "   midi.NoteOnEvent(tick=192, channel=4, data=[57, 0]),\r\n",
      "   midi.NoteOnEvent(tick=0, channel=4, data=[53, 100]),\r\n",
      "   midi.NoteOnEvent(tick=192, channel=4, data=[53, 0]),\r\n",
      "   midi.NoteOnEvent(tick=0, channel=4, data=[50, 100]),\r\n",
      "   midi.NoteOnEvent(tick=192, channel=4, data=[50, 0]),\r\n",
      "   midi.NoteOnEvent(tick=0, channel=4, data=[52, 100]),\r\n",
      "   midi.NoteOnEvent(tick=192, channel=4, data=[52, 0]),\r\n",
      "   midi.NoteOnEvent(tick=0, channel=4, data=[48, 100]),\r\n",
      "   midi.NoteOnEvent(tick=192, channel=4, data=[48, 0]),\r\n",
      "   midi.NoteOnEvent(tick=0, channel=4, data=[55, 100]),\r\n",
      "   midi.NoteOnEvent(tick=192, channel=4, data=[55, 0]),\r\n",
      "   midi.NoteOnEvent(tick=0, channel=4, data=[43, 100]),\r\n",
      "   midi.NoteOnEvent(tick=192, channel=4, data=[43, 0]),\r\n",
      "   midi.NoteOnEvent(tick=0, channel=4, data=[36, 100]),\r\n",
      "   midi.NoteOnEvent(tick=192, channel=4, data=[36, 0]),\r\n",
      "   midi.NoteOnEvent(tick=0, channel=4, data=[48, 100]),\r\n",
      "   midi.NoteOnEvent(tick=96, channel=4, data=[48, 0]),\r\n",
      "   midi.NoteOnEvent(tick=0, channel=4, data=[50, 100]),\r\n",
      "   midi.NoteOnEvent(tick=96, channel=4, data=[50, 0]),\r\n",
      "   midi.NoteOnEvent(tick=0, channel=4, data=[52, 100]),\r\n",
      "   midi.NoteOnEvent(tick=192, channel=4, data=[52, 0]),\r\n",
      "   midi.NoteOnEvent(tick=0, channel=4, data=[48, 100]),\r\n",
      "   midi.NoteOnEvent(tick=192, channel=4, data=[48, 0]),\r\n",
      "   midi.NoteOnEvent(tick=0, channel=4, data=[47, 100]),\r\n",
      "   midi.NoteOnEvent(tick=192, channel=4, data=[47, 0]),\r\n",
      "   midi.NoteOnEvent(tick=0, channel=4, data=[55, 100]),\r\n",
      "   midi.NoteOnEvent(tick=192, channel=4, data=[55, 0]),\r\n",
      "   midi.NoteOnEvent(tick=0, channel=4, data=[48, 100]),\r\n",
      "   midi.NoteOnEvent(tick=192, channel=4, data=[48, 0]),\r\n",
      "   midi.NoteOnEvent(tick=0, channel=4, data=[55, 100]),\r\n",
      "   midi.NoteOnEvent(tick=192, channel=4, data=[55, 0]),\r\n",
      "   midi.NoteOnEvent(tick=0, channel=4, data=[50, 100]),\r\n",
      "   midi.NoteOnEvent(tick=192, channel=4, data=[50, 0]),\r\n",
      "   midi.NoteOnEvent(tick=0, channel=4, data=[55, 100]),\r\n",
      "   midi.NoteOnEvent(tick=192, channel=4, data=[55, 0]),\r\n",
      "   midi.NoteOnEvent(tick=0, channel=4, data=[52, 100]),\r\n",
      "   midi.NoteOnEvent(tick=192, channel=4, data=[52, 0]),\r\n",
      "   midi.NoteOnEvent(tick=0, channel=4, data=[55, 100]),\r\n",
      "   midi.NoteOnEvent(tick=192, channel=4, data=[55, 0]),\r\n",
      "   midi.NoteOnEvent(tick=0, channel=4, data=[53, 100]),\r\n",
      "   midi.NoteOnEvent(tick=192, channel=4, data=[53, 0]),\r\n",
      "   midi.NoteOnEvent(tick=0, channel=4, data=[55, 100]),\r\n",
      "   midi.NoteOnEvent(tick=192, channel=4, data=[55, 0]),\r\n",
      "   midi.NoteOnEvent(tick=0, channel=4, data=[57, 100]),\r\n",
      "   midi.NoteOnEvent(tick=192, channel=4, data=[57, 0]),\r\n",
      "   midi.NoteOnEvent(tick=0, channel=4, data=[53, 100]),\r\n",
      "   midi.NoteOnEvent(tick=192, channel=4, data=[53, 0]),\r\n",
      "   midi.NoteOnEvent(tick=0, channel=4, data=[55, 100]),\r\n",
      "   midi.NoteOnEvent(tick=96, channel=4, data=[55, 0]),\r\n",
      "   midi.NoteOnEvent(tick=0, channel=4, data=[57, 100]),\r\n",
      "   midi.NoteOnEvent(tick=96, channel=4, data=[57, 0]),\r\n",
      "   midi.NoteOnEvent(tick=0, channel=4, data=[59, 100]),\r\n",
      "   midi.NoteOnEvent(tick=96, channel=4, data=[59, 0]),\r\n",
      "   midi.NoteOnEvent(tick=0, channel=4, data=[57, 100]),\r\n",
      "   midi.NoteOnEvent(tick=96, channel=4, data=[57, 0]),\r\n",
      "   midi.NoteOnEvent(tick=0, channel=4, data=[55, 100]),\r\n",
      "   midi.NoteOnEvent(tick=96, channel=4, data=[55, 0]),\r\n",
      "   midi.NoteOnEvent(tick=0, channel=4, data=[53, 100]),\r\n",
      "   midi.NoteOnEvent(tick=96, channel=4, data=[53, 0]),\r\n",
      "   midi.NoteOnEvent(tick=0, channel=4, data=[52, 100]),\r\n",
      "   midi.NoteOnEvent(tick=96, channel=4, data=[52, 0]),\r\n",
      "   midi.NoteOnEvent(tick=0, channel=4, data=[50, 100]),\r\n",
      "   midi.NoteOnEvent(tick=96, channel=4, data=[50, 0]),\r\n",
      "   midi.NoteOnEvent(tick=0, channel=4, data=[48, 100]),\r\n",
      "   midi.NoteOnEvent(tick=192, channel=4, data=[48, 0]),\r\n",
      "   midi.NoteOnEvent(tick=0, channel=4, data=[52, 100]),\r\n",
      "   midi.NoteOnEvent(tick=192, channel=4, data=[52, 0]),\r\n",
      "   midi.NoteOnEvent(tick=0, channel=4, data=[48, 100]),\r\n",
      "   midi.NoteOnEvent(tick=192, channel=4, data=[48, 0]),\r\n",
      "   midi.NoteOnEvent(tick=0, channel=4, data=[45, 100]),\r\n",
      "   midi.NoteOnEvent(tick=192, channel=4, data=[45, 0]),\r\n",
      "   midi.NoteOnEvent(tick=0, channel=4, data=[50, 100]),\r\n",
      "   midi.NoteOnEvent(tick=192, channel=4, data=[50, 0]),\r\n",
      "   midi.NoteOnEvent(tick=0, channel=4, data=[38, 100]),\r\n",
      "   midi.NoteOnEvent(tick=192, channel=4, data=[38, 0]),\r\n",
      "   midi.NoteOnEvent(tick=1344, channel=4, data=[54, 100]),\r\n",
      "   midi.NoteOnEvent(tick=96, channel=4, data=[54, 0]),\r\n",
      "   midi.NoteOnEvent(tick=0, channel=4, data=[52, 100]),\r\n",
      "   midi.NoteOnEvent(tick=96, channel=4, data=[52, 0]),\r\n",
      "   midi.NoteOnEvent(tick=0, channel=4, data=[50, 100]),\r\n",
      "   midi.NoteOnEvent(tick=96, channel=4, data=[50, 0]),\r\n",
      "   midi.NoteOnEvent(tick=0, channel=4, data=[48, 100]),\r\n",
      "   midi.NoteOnEvent(tick=96, channel=4, data=[48, 0]),\r\n",
      "   midi.NoteOnEvent(tick=0, channel=4, data=[47, 100]),\r\n",
      "   midi.NoteOnEvent(tick=96, channel=4, data=[47, 0]),\r\n",
      "   midi.NoteOnEvent(tick=0, channel=4, data=[45, 100]),\r\n",
      "   midi.NoteOnEvent(tick=96, channel=4, data=[45, 0]),\r\n",
      "   midi.NoteOnEvent(tick=0, channel=4, data=[47, 100]),\r\n",
      "   midi.NoteOnEvent(tick=192, channel=4, data=[47, 0]),\r\n",
      "   midi.NoteOnEvent(tick=0, channel=4, data=[50, 100]),\r\n",
      "   midi.NoteOnEvent(tick=192, channel=4, data=[50, 0]),\r\n",
      "   midi.NoteOnEvent(tick=0, channel=4, data=[47, 100]),\r\n",
      "   midi.NoteOnEvent(tick=192, channel=4, data=[47, 0]),\r\n",
      "   midi.NoteOnEvent(tick=0, channel=4, data=[43, 100]),\r\n",
      "   midi.NoteOnEvent(tick=192, channel=4, data=[43, 0]),\r\n",
      "   midi.NoteOnEvent(tick=0, channel=4, data=[48, 100]),\r\n",
      "   midi.NoteOnEvent(tick=192, channel=4, data=[48, 0]),\r\n",
      "   midi.NoteOnEvent(tick=0, channel=4, data=[36, 100]),\r\n",
      "   midi.NoteOnEvent(tick=192, channel=4, data=[36, 0]),\r\n",
      "   midi.NoteOnEvent(tick=1344, channel=4, data=[60, 100]),\r\n",
      "   midi.NoteOnEvent(tick=96, channel=4, data=[60, 0]),\r\n",
      "   midi.NoteOnEvent(tick=0, channel=4, data=[59, 100]),\r\n",
      "   midi.NoteOnEvent(tick=96, channel=4, data=[59, 0]),\r\n",
      "   midi.NoteOnEvent(tick=0, channel=4, data=[60, 100]),\r\n",
      "   midi.NoteOnEvent(tick=96, channel=4, data=[60, 0]),\r\n",
      "   midi.NoteOnEvent(tick=0, channel=4, data=[62, 100]),\r\n",
      "   midi.NoteOnEvent(tick=96, channel=4, data=[62, 0]),\r\n",
      "   midi.NoteOnEvent(tick=0, channel=4, data=[60, 100]),\r\n",
      "   midi.NoteOnEvent(tick=96, channel=4, data=[60, 0]),\r\n",
      "   midi.NoteOnEvent(tick=0, channel=4, data=[59, 100]),\r\n",
      "   midi.NoteOnEvent(tick=96, channel=4, data=[59, 0]),\r\n",
      "   midi.NoteOnEvent(tick=0, channel=4, data=[57, 100]),\r\n",
      "   midi.NoteOnEvent(tick=96, channel=4, data=[57, 0]),\r\n",
      "   midi.NoteOnEvent(tick=0, channel=4, data=[59, 100]),\r\n",
      "   midi.NoteOnEvent(tick=96, channel=4, data=[59, 0]),\r\n",
      "   midi.NoteOnEvent(tick=0, channel=4, data=[57, 100]),\r\n",
      "   midi.NoteOnEvent(tick=96, channel=4, data=[57, 0]),\r\n",
      "   midi.NoteOnEvent(tick=0, channel=4, data=[55, 100]),\r\n",
      "   midi.NoteOnEvent(tick=96, channel=4, data=[55, 0]),\r\n",
      "   midi.NoteOnEvent(tick=0, channel=4, data=[54, 100]),\r\n",
      "   midi.NoteOnEvent(tick=96, channel=4, data=[54, 0]),\r\n",
      "   midi.NoteOnEvent(tick=0, channel=4, data=[55, 100]),\r\n",
      "   midi.NoteOnEvent(tick=96, channel=4, data=[55, 0]),\r\n",
      "   midi.NoteOnEvent(tick=0, channel=4, data=[54, 100]),\r\n",
      "   midi.NoteOnEvent(tick=96, channel=4, data=[54, 0]),\r\n",
      "   midi.NoteOnEvent(tick=0, channel=4, data=[52, 100]),\r\n",
      "   midi.NoteOnEvent(tick=96, channel=4, data=[52, 0]),\r\n",
      "   midi.NoteOnEvent(tick=0, channel=4, data=[51, 100]),\r\n",
      "   midi.NoteOnEvent(tick=96, channel=4, data=[51, 0]),\r\n",
      "   midi.NoteOnEvent(tick=0, channel=4, data=[47, 100]),\r\n",
      "   midi.NoteOnEvent(tick=96, channel=4, data=[47, 0]),\r\n",
      "   midi.NoteOnEvent(tick=0, channel=4, data=[49, 100]),\r\n",
      "   midi.NoteOnEvent(tick=96, channel=4, data=[49, 0]),\r\n",
      "   midi.NoteOnEvent(tick=0, channel=4, data=[51, 100]),\r\n",
      "   midi.NoteOnEvent(tick=96, channel=4, data=[51, 0]),\r\n",
      "   midi.NoteOnEvent(tick=0, channel=4, data=[52, 100]),\r\n",
      "   midi.NoteOnEvent(tick=96, channel=4, data=[52, 0]),\r\n",
      "   midi.NoteOnEvent(tick=0, channel=4, data=[54, 100]),\r\n",
      "   midi.NoteOnEvent(tick=96, channel=4, data=[54, 0]),\r\n",
      "   midi.NoteOnEvent(tick=0, channel=4, data=[55, 100]),\r\n",
      "   midi.NoteOnEvent(tick=96, channel=4, data=[55, 0]),\r\n",
      "   midi.NoteOnEvent(tick=0, channel=4, data=[52, 100]),\r\n",
      "   midi.NoteOnEvent(tick=96, channel=4, data=[52, 0]),\r\n",
      "   midi.NoteOnEvent(tick=0, channel=4, data=[48, 100]),\r\n",
      "   midi.NoteOnEvent(tick=192, channel=4, data=[48, 0]),\r\n",
      "   midi.NoteOnEvent(tick=0, channel=4, data=[47, 100]),\r\n",
      "   midi.NoteOnEvent(tick=192, channel=4, data=[47, 0]),\r\n",
      "   midi.NoteOnEvent(tick=0, channel=4, data=[48, 100]),\r\n",
      "   midi.NoteOnEvent(tick=192, channel=4, data=[48, 0]),\r\n",
      "   midi.NoteOnEvent(tick=0, channel=4, data=[45, 100]),\r\n",
      "   midi.NoteOnEvent(tick=192, channel=4, data=[45, 0]),\r\n",
      "   midi.NoteOnEvent(tick=0, channel=4, data=[47, 100]),\r\n",
      "   midi.NoteOnEvent(tick=288, channel=4, data=[47, 0]),\r\n",
      "   midi.NoteOnEvent(tick=0, channel=4, data=[49, 100]),\r\n",
      "   midi.NoteOnEvent(tick=48, channel=4, data=[49, 0]),\r\n",
      "   midi.NoteOnEvent(tick=0, channel=4, data=[51, 100]),\r\n",
      "   midi.NoteOnEvent(tick=48, channel=4, data=[51, 0]),\r\n",
      "   midi.NoteOnEvent(tick=0, channel=4, data=[52, 100]),\r\n",
      "   midi.NoteOnEvent(tick=96, channel=4, data=[52, 0]),\r\n",
      "   midi.NoteOnEvent(tick=0, channel=4, data=[54, 100]),\r\n",
      "   midi.NoteOnEvent(tick=96, channel=4, data=[54, 0]),\r\n",
      "   midi.NoteOnEvent(tick=0, channel=4, data=[55, 100]),\r\n",
      "   midi.NoteOnEvent(tick=96, channel=4, data=[55, 0]),\r\n",
      "   midi.NoteOnEvent(tick=0, channel=4, data=[57, 100]),\r\n",
      "   midi.NoteOnEvent(tick=96, channel=4, data=[57, 0]),\r\n",
      "   midi.NoteOnEvent(tick=0, channel=4, data=[59, 100]),\r\n",
      "   midi.NoteOnEvent(tick=192, channel=4, data=[59, 0]),\r\n",
      "   midi.NoteOnEvent(tick=0, channel=4, data=[57, 100]),\r\n",
      "   midi.NoteOnEvent(tick=192, channel=4, data=[57, 0]),\r\n",
      "   midi.NoteOnEvent(tick=0, channel=4, data=[59, 100]),\r\n",
      "   midi.NoteOnEvent(tick=192, channel=4, data=[59, 0]),\r\n",
      "   midi.NoteOnEvent(tick=0, channel=4, data=[47, 100]),\r\n",
      "   midi.NoteOnEvent(tick=192, channel=4, data=[47, 0]),\r\n",
      "   midi.NoteOnEvent(tick=0, channel=4, data=[57, 100]),\r\n",
      "   midi.NoteOnEvent(tick=192, channel=4, data=[57, 0]),\r\n",
      "   midi.NoteOnEvent(tick=0, channel=4, data=[59, 100]),\r\n",
      "   midi.NoteOnEvent(tick=192, channel=4, data=[59, 0]),\r\n",
      "   midi.NoteOnEvent(tick=0, channel=4, data=[57, 100]),\r\n",
      "   midi.NoteOnEvent(tick=192, channel=4, data=[57, 0]),\r\n",
      "   midi.NoteOnEvent(tick=0, channel=4, data=[55, 100]),\r\n",
      "   midi.NoteOnEvent(tick=192, channel=4, data=[55, 0]),\r\n",
      "   midi.NoteOnEvent(tick=0, channel=4, data=[54, 100]),\r\n",
      "   midi.NoteOnEvent(tick=192, channel=4, data=[54, 0]),\r\n",
      "   midi.NoteOnEvent(tick=0, channel=4, data=[55, 100]),\r\n",
      "   midi.NoteOnEvent(tick=192, channel=4, data=[55, 0]),\r\n",
      "   midi.NoteOnEvent(tick=0, channel=4, data=[54, 100]),\r\n",
      "   midi.NoteOnEvent(tick=192, channel=4, data=[54, 0]),\r\n",
      "   midi.NoteOnEvent(tick=0, channel=4, data=[52, 100]),\r\n",
      "   midi.NoteOnEvent(tick=192, channel=4, data=[52, 0]),\r\n",
      "   midi.NoteOnEvent(tick=0, channel=4, data=[51, 100]),\r\n",
      "   midi.NoteOnEvent(tick=192, channel=4, data=[51, 0]),\r\n",
      "   midi.NoteOnEvent(tick=0, channel=4, data=[52, 100]),\r\n",
      "   midi.NoteOnEvent(tick=192, channel=4, data=[52, 0]),\r\n",
      "   midi.NoteOnEvent(tick=0, channel=4, data=[54, 100]),\r\n",
      "   midi.NoteOnEvent(tick=192, channel=4, data=[54, 0]),\r\n",
      "   midi.NoteOnEvent(tick=0, channel=4, data=[55, 100]),\r\n",
      "   midi.NoteOnEvent(tick=192, channel=4, data=[55, 0]),\r\n",
      "   midi.NoteOnEvent(tick=0, channel=4, data=[57, 100]),\r\n",
      "   midi.NoteOnEvent(tick=192, channel=4, data=[57, 0]),\r\n",
      "   midi.NoteOnEvent(tick=0, channel=4, data=[59, 100]),\r\n",
      "   midi.NoteOnEvent(tick=192, channel=4, data=[59, 0]),\r\n",
      "   midi.NoteOnEvent(tick=0, channel=4, data=[60, 100]),\r\n",
      "   midi.NoteOnEvent(tick=192, channel=4, data=[60, 0]),\r\n",
      "   midi.NoteOnEvent(tick=0, channel=4, data=[54, 100]),\r\n",
      "   midi.NoteOnEvent(tick=192, channel=4, data=[54, 0]),\r\n",
      "   midi.NoteOnEvent(tick=0, channel=4, data=[59, 100]),\r\n",
      "   midi.NoteOnEvent(tick=192, channel=4, data=[59, 0]),\r\n",
      "   midi.NoteOnEvent(tick=0, channel=4, data=[57, 100]),\r\n",
      "   midi.NoteOnEvent(tick=96, channel=4, data=[57, 0]),\r\n",
      "   midi.NoteOnEvent(tick=0, channel=4, data=[55, 100]),\r\n",
      "   midi.NoteOnEvent(tick=96, channel=4, data=[55, 0]),\r\n",
      "   midi.NoteOnEvent(tick=0, channel=4, data=[54, 100]),\r\n",
      "   midi.NoteOnEvent(tick=192, channel=4, data=[54, 0]),\r\n",
      "   midi.NoteOnEvent(tick=0, channel=4, data=[52, 100]),\r\n",
      "   midi.NoteOnEvent(tick=192, channel=4, data=[52, 0]),\r\n",
      "   midi.NoteOnEvent(tick=0, channel=4, data=[51, 100]),\r\n",
      "   midi.NoteOnEvent(tick=192, channel=4, data=[51, 0]),\r\n",
      "   midi.NoteOnEvent(tick=0, channel=4, data=[49, 100]),\r\n",
      "   midi.NoteOnEvent(tick=192, channel=4, data=[49, 0]),\r\n",
      "   midi.NoteOnEvent(tick=0, channel=4, data=[47, 100]),\r\n",
      "   midi.NoteOnEvent(tick=192, channel=4, data=[47, 0]),\r\n",
      "   midi.NoteOnEvent(tick=0, channel=4, data=[45, 100]),\r\n",
      "   midi.NoteOnEvent(tick=192, channel=4, data=[45, 0]),\r\n",
      "   midi.NoteOnEvent(tick=0, channel=4, data=[43, 100]),\r\n",
      "   midi.NoteOnEvent(tick=192, channel=4, data=[43, 0]),\r\n",
      "   midi.NoteOnEvent(tick=0, channel=4, data=[48, 100]),\r\n",
      "   midi.NoteOnEvent(tick=192, channel=4, data=[48, 0]),\r\n",
      "   midi.NoteOnEvent(tick=0, channel=4, data=[45, 100]),\r\n",
      "   midi.NoteOnEvent(tick=192, channel=4, data=[45, 0]),\r\n",
      "   midi.NoteOnEvent(tick=0, channel=4, data=[47, 100]),\r\n",
      "   midi.NoteOnEvent(tick=192, channel=4, data=[47, 0]),\r\n",
      "   midi.NoteOnEvent(tick=0, channel=4, data=[36, 100]),\r\n",
      "   midi.NoteOnEvent(tick=384, channel=4, data=[36, 0]),\r\n",
      "   midi.NoteOnEvent(tick=192, channel=4, data=[60, 100]),\r\n",
      "   midi.NoteOnEvent(tick=192, channel=4, data=[60, 0]),\r\n",
      "   midi.NoteOnEvent(tick=0, channel=4, data=[51, 100]),\r\n",
      "   midi.NoteOnEvent(tick=192, channel=4, data=[51, 0]),\r\n",
      "   midi.NoteOnEvent(tick=0, channel=4, data=[51, 100]),\r\n",
      "   midi.NoteOnEvent(tick=192, channel=4, data=[51, 0]),\r\n",
      "   midi.NoteOnEvent(tick=0, channel=4, data=[51, 100]),\r\n",
      "   midi.NoteOnEvent(tick=192, channel=4, data=[51, 0]),\r\n",
      "   midi.NoteOnEvent(tick=0, channel=4, data=[54, 100]),\r\n",
      "   midi.NoteOnEvent(tick=192, channel=4, data=[54, 0]),\r\n",
      "   midi.NoteOnEvent(tick=0, channel=4, data=[45, 100]),\r\n",
      "   midi.NoteOnEvent(tick=192, channel=4, data=[45, 0]),\r\n",
      "   midi.NoteOnEvent(tick=0, channel=4, data=[45, 100]),\r\n",
      "   midi.NoteOnEvent(tick=192, channel=4, data=[45, 0]),\r\n",
      "   midi.NoteOnEvent(tick=0, channel=4, data=[45, 100]),\r\n",
      "   midi.NoteOnEvent(tick=192, channel=4, data=[45, 0]),\r\n",
      "   midi.NoteOnEvent(tick=0, channel=4, data=[48, 100]),\r\n",
      "   midi.NoteOnEvent(tick=192, channel=4, data=[48, 0]),\r\n",
      "   midi.NoteOnEvent(tick=0, channel=4, data=[42, 100]),\r\n",
      "   midi.NoteOnEvent(tick=192, channel=4, data=[42, 0]),\r\n",
      "   midi.NoteOnEvent(tick=0, channel=4, data=[43, 100]),\r\n",
      "   midi.NoteOnEvent(tick=96, channel=4, data=[43, 0]),\r\n",
      "   midi.NoteOnEvent(tick=0, channel=4, data=[45, 100]),\r\n",
      "   midi.NoteOnEvent(tick=96, channel=4, data=[45, 0]),\r\n",
      "   midi.NoteOnEvent(tick=0, channel=4, data=[47, 100]),\r\n",
      "   midi.NoteOnEvent(tick=192, channel=4, data=[47, 0]),\r\n",
      "   midi.NoteOnEvent(tick=0, channel=4, data=[47, 100]),\r\n",
      "   midi.NoteOnEvent(tick=192, channel=4, data=[47, 0]),\r\n",
      "   midi.NoteOnEvent(tick=0, channel=4, data=[40, 100]),\r\n",
      "   midi.NoteOnEvent(tick=192, channel=4, data=[40, 0]),\r\n",
      "   midi.NoteOnEvent(tick=0, channel=4, data=[52, 100]),\r\n",
      "   midi.NoteOnEvent(tick=96, channel=4, data=[52, 0]),\r\n",
      "   midi.NoteOnEvent(tick=0, channel=4, data=[51, 100]),\r\n",
      "   midi.NoteOnEvent(tick=96, channel=4, data=[51, 0]),\r\n",
      "   midi.NoteOnEvent(tick=0, channel=4, data=[52, 100]),\r\n",
      "   midi.NoteOnEvent(tick=192, channel=4, data=[52, 0]),\r\n",
      "   midi.NoteOnEvent(tick=0, channel=4, data=[54, 100]),\r\n",
      "   midi.NoteOnEvent(tick=192, channel=4, data=[54, 0]),\r\n",
      "   midi.NoteOnEvent(tick=0, channel=4, data=[55, 100]),\r\n",
      "   midi.NoteOnEvent(tick=384, channel=4, data=[55, 0]),\r\n",
      "   midi.NoteOnEvent(tick=192, channel=4, data=[52, 100]),\r\n",
      "   midi.NoteOnEvent(tick=192, channel=4, data=[52, 0]),\r\n",
      "   midi.NoteOnEvent(tick=0, channel=4, data=[59, 100]),\r\n",
      "   midi.NoteOnEvent(tick=384, channel=4, data=[59, 0]),\r\n",
      "   midi.NoteOnEvent(tick=192, channel=4, data=[47, 100]),\r\n",
      "   midi.NoteOnEvent(tick=192, channel=4, data=[47, 0]),\r\n",
      "   midi.NoteOnEvent(tick=0, channel=4, data=[39, 100]),\r\n",
      "   midi.NoteOnEvent(tick=384, channel=4, data=[39, 0]),\r\n",
      "   midi.NoteOnEvent(tick=192, channel=4, data=[47, 100]),\r\n",
      "   midi.NoteOnEvent(tick=192, channel=4, data=[47, 0]),\r\n",
      "   midi.NoteOnEvent(tick=0, channel=4, data=[52, 100]),\r\n",
      "   midi.NoteOnEvent(tick=384, channel=4, data=[52, 0]),\r\n",
      "   midi.NoteOnEvent(tick=1344, channel=4, data=[52, 100]),\r\n",
      "   midi.NoteOnEvent(tick=192, channel=4, data=[52, 0]),\r\n",
      "   midi.NoteOnEvent(tick=0, channel=4, data=[40, 100]),\r\n",
      "   midi.NoteOnEvent(tick=192, channel=4, data=[40, 0]),\r\n",
      "   midi.NoteOnEvent(tick=0, channel=4, data=[52, 100]),\r\n",
      "   midi.NoteOnEvent(tick=192, channel=4, data=[52, 0]),\r\n",
      "   midi.NoteOnEvent(tick=0, channel=4, data=[45, 100]),\r\n",
      "   midi.NoteOnEvent(tick=384, channel=4, data=[45, 0]),\r\n",
      "   midi.NoteOnEvent(tick=576, channel=4, data=[57, 100]),\r\n",
      "   midi.NoteOnEvent(tick=192, channel=4, data=[57, 0]),\r\n",
      "   midi.NoteOnEvent(tick=0, channel=4, data=[45, 100]),\r\n",
      "   midi.NoteOnEvent(tick=192, channel=4, data=[45, 0]),\r\n",
      "   midi.NoteOnEvent(tick=0, channel=4, data=[57, 100]),\r\n",
      "   midi.NoteOnEvent(tick=192, channel=4, data=[57, 0]),\r\n",
      "   midi.NoteOnEvent(tick=0, channel=4, data=[50, 100]),\r\n",
      "   midi.NoteOnEvent(tick=384, channel=4, data=[50, 0]),\r\n",
      "   midi.NoteOnEvent(tick=576, channel=4, data=[50, 100]),\r\n",
      "   midi.NoteOnEvent(tick=192, channel=4, data=[50, 0]),\r\n",
      "   midi.NoteOnEvent(tick=0, channel=4, data=[38, 100]),\r\n",
      "   midi.NoteOnEvent(tick=192, channel=4, data=[38, 0]),\r\n",
      "   midi.NoteOnEvent(tick=0, channel=4, data=[50, 100]),\r\n",
      "   midi.NoteOnEvent(tick=192, channel=4, data=[50, 0]),\r\n",
      "   midi.NoteOnEvent(tick=0, channel=4, data=[43, 100]),\r\n",
      "   midi.NoteOnEvent(tick=384, channel=4, data=[43, 0]),\r\n",
      "   midi.NoteOnEvent(tick=576, channel=4, data=[55, 100]),\r\n",
      "   midi.NoteOnEvent(tick=192, channel=4, data=[55, 0]),\r\n",
      "   midi.NoteOnEvent(tick=0, channel=4, data=[43, 100]),\r\n",
      "   midi.NoteOnEvent(tick=192, channel=4, data=[43, 0]),\r\n",
      "   midi.NoteOnEvent(tick=0, channel=4, data=[55, 100]),\r\n",
      "   midi.NoteOnEvent(tick=192, channel=4, data=[55, 0]),\r\n",
      "   midi.NoteOnEvent(tick=0, channel=4, data=[48, 100]),\r\n",
      "   midi.NoteOnEvent(tick=384, channel=4, data=[48, 0]),\r\n",
      "   midi.NoteOnEvent(tick=0, channel=4, data=[58, 100]),\r\n",
      "   midi.NoteOnEvent(tick=384, channel=4, data=[58, 0]),\r\n",
      "   midi.NoteOnEvent(tick=0, channel=4, data=[57, 100]),\r\n",
      "   midi.NoteOnEvent(tick=384, channel=4, data=[57, 0]),\r\n",
      "   midi.NoteOnEvent(tick=0, channel=4, data=[55, 100]),\r\n",
      "   midi.NoteOnEvent(tick=384, channel=4, data=[55, 0]),\r\n",
      "   midi.NoteOnEvent(tick=0, channel=4, data=[53, 100]),\r\n",
      "   midi.NoteOnEvent(tick=192, channel=4, data=[53, 0]),\r\n",
      "   midi.NoteOnEvent(tick=0, channel=4, data=[52, 100]),\r\n",
      "   midi.NoteOnEvent(tick=192, channel=4, data=[52, 0]),\r\n",
      "   midi.NoteOnEvent(tick=0, channel=4, data=[50, 100]),\r\n",
      "   midi.NoteOnEvent(tick=192, channel=4, data=[50, 0]),\r\n",
      "   midi.NoteOnEvent(tick=0, channel=4, data=[53, 100]),\r\n",
      "   midi.NoteOnEvent(tick=192, channel=4, data=[53, 0]),\r\n",
      "   midi.NoteOnEvent(tick=0, channel=4, data=[55, 100]),\r\n",
      "   midi.NoteOnEvent(tick=192, channel=4, data=[55, 0]),\r\n",
      "   midi.NoteOnEvent(tick=0, channel=4, data=[53, 100]),\r\n",
      "   midi.NoteOnEvent(tick=192, channel=4, data=[53, 0]),\r\n",
      "   midi.NoteOnEvent(tick=0, channel=4, data=[52, 100]),\r\n",
      "   midi.NoteOnEvent(tick=192, channel=4, data=[52, 0]),\r\n",
      "   midi.NoteOnEvent(tick=0, channel=4, data=[55, 100]),\r\n",
      "   midi.NoteOnEvent(tick=192, channel=4, data=[55, 0]),\r\n",
      "   midi.NoteOnEvent(tick=0, channel=4, data=[57, 100]),\r\n",
      "   midi.NoteOnEvent(tick=192, channel=4, data=[57, 0]),\r\n",
      "   midi.NoteOnEvent(tick=0, channel=4, data=[59, 100]),\r\n",
      "   midi.NoteOnEvent(tick=192, channel=4, data=[59, 0]),\r\n",
      "   midi.NoteOnEvent(tick=0, channel=4, data=[61, 100]),\r\n",
      "   midi.NoteOnEvent(tick=192, channel=4, data=[61, 0]),\r\n",
      "   midi.NoteOnEvent(tick=0, channel=4, data=[57, 100]),\r\n",
      "   midi.NoteOnEvent(tick=192, channel=4, data=[57, 0]),\r\n",
      "   midi.NoteOnEvent(tick=0, channel=4, data=[53, 100]),\r\n",
      "   midi.NoteOnEvent(tick=192, channel=4, data=[53, 0]),\r\n",
      "   midi.NoteOnEvent(tick=0, channel=4, data=[57, 100]),\r\n",
      "   midi.NoteOnEvent(tick=192, channel=4, data=[57, 0]),\r\n",
      "   midi.NoteOnEvent(tick=0, channel=4, data=[53, 100]),\r\n",
      "   midi.NoteOnEvent(tick=192, channel=4, data=[53, 0]),\r\n",
      "   midi.NoteOnEvent(tick=0, channel=4, data=[50, 100]),\r\n",
      "   midi.NoteOnEvent(tick=192, channel=4, data=[50, 0]),\r\n",
      "   midi.NoteOnEvent(tick=0, channel=4, data=[55, 100]),\r\n",
      "   midi.NoteOnEvent(tick=192, channel=4, data=[55, 0]),\r\n",
      "   midi.NoteOnEvent(tick=0, channel=4, data=[58, 100]),\r\n",
      "   midi.NoteOnEvent(tick=192, channel=4, data=[58, 0]),\r\n",
      "   midi.NoteOnEvent(tick=0, channel=4, data=[55, 100]),\r\n",
      "   midi.NoteOnEvent(tick=192, channel=4, data=[55, 0]),\r\n",
      "   midi.NoteOnEvent(tick=0, channel=4, data=[50, 100]),\r\n",
      "   midi.NoteOnEvent(tick=192, channel=4, data=[50, 0]),\r\n",
      "   midi.NoteOnEvent(tick=0, channel=4, data=[62, 100]),\r\n",
      "   midi.NoteOnEvent(tick=192, channel=4, data=[62, 0]),\r\n",
      "   midi.NoteOnEvent(tick=0, channel=4, data=[50, 100]),\r\n",
      "   midi.NoteOnEvent(tick=192, channel=4, data=[50, 0]),\r\n",
      "   midi.NoteOnEvent(tick=0, channel=4, data=[57, 100]),\r\n",
      "   midi.NoteOnEvent(tick=192, channel=4, data=[57, 0]),\r\n",
      "   midi.NoteOnEvent(tick=0, channel=4, data=[45, 100]),\r\n",
      "   midi.NoteOnEvent(tick=192, channel=4, data=[45, 0]),\r\n",
      "   midi.NoteOnEvent(tick=0, channel=4, data=[50, 100]),\r\n",
      "   midi.NoteOnEvent(tick=192, channel=4, data=[50, 0]),\r\n",
      "   midi.NoteOnEvent(tick=0, channel=4, data=[38, 100]),\r\n",
      "   midi.NoteOnEvent(tick=192, channel=4, data=[38, 0]),\r\n",
      "   midi.NoteOnEvent(tick=2112, channel=4, data=[55, 100]),\r\n",
      "   midi.NoteOnEvent(tick=96, channel=4, data=[55, 0]),\r\n",
      "   midi.NoteOnEvent(tick=0, channel=4, data=[57, 100]),\r\n",
      "   midi.NoteOnEvent(tick=96, channel=4, data=[57, 0]),\r\n",
      "   midi.NoteOnEvent(tick=0, channel=4, data=[55, 100]),\r\n",
      "   midi.NoteOnEvent(tick=96, channel=4, data=[55, 0]),\r\n",
      "   midi.NoteOnEvent(tick=0, channel=4, data=[53, 100]),\r\n",
      "   midi.NoteOnEvent(tick=96, channel=4, data=[53, 0]),\r\n",
      "   midi.NoteOnEvent(tick=0, channel=4, data=[52, 100]),\r\n",
      "   midi.NoteOnEvent(tick=96, channel=4, data=[52, 0]),\r\n",
      "   midi.NoteOnEvent(tick=0, channel=4, data=[50, 100]),\r\n",
      "   midi.NoteOnEvent(tick=96, channel=4, data=[50, 0]),\r\n",
      "   midi.NoteOnEvent(tick=0, channel=4, data=[48, 100]),\r\n",
      "   midi.NoteOnEvent(tick=192, channel=4, data=[48, 0]),\r\n",
      "   midi.NoteOnEvent(tick=0, channel=4, data=[60, 100]),\r\n",
      "   midi.NoteOnEvent(tick=192, channel=4, data=[60, 0]),\r\n",
      "   midi.NoteOnEvent(tick=1344, channel=4, data=[53, 100]),\r\n",
      "   midi.NoteOnEvent(tick=96, channel=4, data=[53, 0]),\r\n",
      "   midi.NoteOnEvent(tick=0, channel=4, data=[55, 100]),\r\n",
      "   midi.NoteOnEvent(tick=96, channel=4, data=[55, 0]),\r\n",
      "   midi.NoteOnEvent(tick=0, channel=4, data=[53, 100]),\r\n",
      "   midi.NoteOnEvent(tick=96, channel=4, data=[53, 0]),\r\n",
      "   midi.NoteOnEvent(tick=0, channel=4, data=[52, 100]),\r\n",
      "   midi.NoteOnEvent(tick=96, channel=4, data=[52, 0]),\r\n",
      "   midi.NoteOnEvent(tick=0, channel=4, data=[50, 100]),\r\n",
      "   midi.NoteOnEvent(tick=96, channel=4, data=[50, 0]),\r\n",
      "   midi.NoteOnEvent(tick=0, channel=4, data=[48, 100]),\r\n",
      "   midi.NoteOnEvent(tick=96, channel=4, data=[48, 0]),\r\n",
      "   midi.NoteOnEvent(tick=0, channel=4, data=[46, 100]),\r\n",
      "   midi.NoteOnEvent(tick=192, channel=4, data=[46, 0]),\r\n",
      "   midi.NoteOnEvent(tick=0, channel=4, data=[58, 100]),\r\n",
      "   midi.NoteOnEvent(tick=192, channel=4, data=[58, 0]),\r\n",
      "   midi.NoteOnEvent(tick=1344, channel=4, data=[52, 100]),\r\n",
      "   midi.NoteOnEvent(tick=96, channel=4, data=[52, 0]),\r\n",
      "   midi.NoteOnEvent(tick=0, channel=4, data=[53, 100]),\r\n",
      "   midi.NoteOnEvent(tick=96, channel=4, data=[53, 0]),\r\n",
      "   midi.NoteOnEvent(tick=0, channel=4, data=[52, 100]),\r\n",
      "   midi.NoteOnEvent(tick=96, channel=4, data=[52, 0]),\r\n",
      "   midi.NoteOnEvent(tick=0, channel=4, data=[50, 100]),\r\n",
      "   midi.NoteOnEvent(tick=96, channel=4, data=[50, 0]),\r\n",
      "   midi.NoteOnEvent(tick=0, channel=4, data=[49, 100]),\r\n",
      "   midi.NoteOnEvent(tick=96, channel=4, data=[49, 0]),\r\n",
      "   midi.NoteOnEvent(tick=0, channel=4, data=[47, 100]),\r\n",
      "   midi.NoteOnEvent(tick=96, channel=4, data=[47, 0]),\r\n",
      "   midi.NoteOnEvent(tick=0, channel=4, data=[45, 100]),\r\n",
      "   midi.NoteOnEvent(tick=192, channel=4, data=[45, 0]),\r\n",
      "   midi.NoteOnEvent(tick=0, channel=4, data=[57, 100]),\r\n",
      "   midi.NoteOnEvent(tick=192, channel=4, data=[57, 0]),\r\n",
      "   midi.NoteOnEvent(tick=1344, channel=4, data=[50, 100]),\r\n",
      "   midi.NoteOnEvent(tick=192, channel=4, data=[50, 0]),\r\n",
      "   midi.NoteOnEvent(tick=0, channel=4, data=[62, 100]),\r\n",
      "   midi.NoteOnEvent(tick=192, channel=4, data=[62, 0]),\r\n",
      "   midi.NoteOnEvent(tick=0, channel=4, data=[53, 100]),\r\n",
      "   midi.NoteOnEvent(tick=192, channel=4, data=[53, 0]),\r\n",
      "   midi.NoteOnEvent(tick=0, channel=4, data=[55, 100]),\r\n",
      "   midi.NoteOnEvent(tick=192, channel=4, data=[55, 0]),\r\n",
      "   midi.NoteOnEvent(tick=0, channel=4, data=[57, 100]),\r\n",
      "   midi.NoteOnEvent(tick=192, channel=4, data=[57, 0]),\r\n",
      "   midi.NoteOnEvent(tick=0, channel=4, data=[59, 100]),\r\n",
      "   midi.NoteOnEvent(tick=192, channel=4, data=[59, 0]),\r\n",
      "   midi.NoteOnEvent(tick=0, channel=4, data=[55, 100]),\r\n",
      "   midi.NoteOnEvent(tick=192, channel=4, data=[55, 0]),\r\n",
      "   midi.NoteOnEvent(tick=0, channel=4, data=[60, 100]),\r\n",
      "   midi.NoteOnEvent(tick=192, channel=4, data=[60, 0]),\r\n",
      "   midi.NoteOnEvent(tick=0, channel=4, data=[48, 100]),\r\n",
      "   midi.NoteOnEvent(tick=192, channel=4, data=[48, 0]),\r\n",
      "   midi.NoteOnEvent(tick=0, channel=4, data=[60, 100]),\r\n",
      "   midi.NoteOnEvent(tick=192, channel=4, data=[60, 0]),\r\n",
      "   midi.NoteOnEvent(tick=0, channel=4, data=[52, 100]),\r\n",
      "   midi.NoteOnEvent(tick=192, channel=4, data=[52, 0]),\r\n",
      "   midi.NoteOnEvent(tick=0, channel=4, data=[53, 100]),\r\n",
      "   midi.NoteOnEvent(tick=192, channel=4, data=[53, 0]),\r\n",
      "   midi.NoteOnEvent(tick=0, channel=4, data=[55, 100]),\r\n",
      "   midi.NoteOnEvent(tick=192, channel=4, data=[55, 0]),\r\n",
      "   midi.NoteOnEvent(tick=0, channel=4, data=[57, 100]),\r\n",
      "   midi.NoteOnEvent(tick=192, channel=4, data=[57, 0]),\r\n",
      "   midi.NoteOnEvent(tick=0, channel=4, data=[53, 100]),\r\n",
      "   midi.NoteOnEvent(tick=192, channel=4, data=[53, 0]),\r\n",
      "   midi.NoteOnEvent(tick=0, channel=4, data=[59, 100]),\r\n",
      "   midi.NoteOnEvent(tick=192, channel=4, data=[59, 0]),\r\n",
      "   midi.NoteOnEvent(tick=0, channel=4, data=[47, 100]),\r\n",
      "   midi.NoteOnEvent(tick=192, channel=4, data=[47, 0]),\r\n",
      "   midi.NoteOnEvent(tick=0, channel=4, data=[59, 100]),\r\n",
      "   midi.NoteOnEvent(tick=192, channel=4, data=[59, 0]),\r\n",
      "   midi.NoteOnEvent(tick=0, channel=4, data=[56, 100]),\r\n",
      "   midi.NoteOnEvent(tick=192, channel=4, data=[56, 0]),\r\n",
      "   midi.NoteOnEvent(tick=0, channel=4, data=[52, 100]),\r\n",
      "   midi.NoteOnEvent(tick=192, channel=4, data=[52, 0]),\r\n",
      "   midi.NoteOnEvent(tick=0, channel=4, data=[40, 100]),\r\n",
      "   midi.NoteOnEvent(tick=192, channel=4, data=[40, 0]),\r\n",
      "   midi.NoteOnEvent(tick=576, channel=4, data=[45, 100]),\r\n",
      "   midi.NoteOnEvent(tick=192, channel=4, data=[45, 0]),\r\n",
      "   midi.NoteOnEvent(tick=0, channel=4, data=[57, 100]),\r\n",
      "   midi.NoteOnEvent(tick=384, channel=4, data=[57, 0]),\r\n",
      "   midi.NoteOnEvent(tick=192, channel=4, data=[45, 100]),\r\n",
      "   midi.NoteOnEvent(tick=192, channel=4, data=[45, 0]),\r\n",
      "   midi.NoteOnEvent(tick=0, channel=4, data=[57, 100]),\r\n",
      "   midi.NoteOnEvent(tick=384, channel=4, data=[57, 0]),\r\n",
      "   midi.NoteOnEvent(tick=192, channel=4, data=[45, 100]),\r\n",
      "   midi.NoteOnEvent(tick=192, channel=4, data=[45, 0]),\r\n",
      "   midi.NoteOnEvent(tick=0, channel=4, data=[52, 100]),\r\n",
      "   midi.NoteOnEvent(tick=192, channel=4, data=[52, 0]),\r\n",
      "   midi.NoteOnEvent(tick=0, channel=4, data=[40, 100]),\r\n",
      "   midi.NoteOnEvent(tick=192, channel=4, data=[40, 0]),\r\n",
      "   midi.NoteOnEvent(tick=0, channel=4, data=[57, 100]),\r\n",
      "   midi.NoteOnEvent(tick=192, channel=4, data=[57, 0]),\r\n",
      "   midi.NoteOnEvent(tick=0, channel=4, data=[45, 100]),\r\n",
      "   midi.NoteOnEvent(tick=192, channel=4, data=[45, 0]),\r\n",
      "   midi.NoteOnEvent(tick=0, channel=4, data=[48, 100]),\r\n",
      "   midi.NoteOnEvent(tick=192, channel=4, data=[48, 0]),\r\n",
      "   midi.NoteOnEvent(tick=0, channel=4, data=[52, 100]),\r\n",
      "   midi.NoteOnEvent(tick=192, channel=4, data=[52, 0]),\r\n",
      "   midi.NoteOnEvent(tick=0, channel=4, data=[57, 100]),\r\n",
      "   midi.NoteOnEvent(tick=384, channel=4, data=[57, 0]),\r\n",
      "   midi.NoteOnEvent(tick=0, channel=4, data=[55, 100]),\r\n",
      "   midi.NoteOnEvent(tick=384, channel=4, data=[55, 0]),\r\n",
      "   midi.NoteOnEvent(tick=0, channel=4, data=[53, 100]),\r\n",
      "   midi.NoteOnEvent(tick=384, channel=4, data=[53, 0]),\r\n",
      "   midi.NoteOnEvent(tick=0, channel=4, data=[52, 100]),\r\n",
      "   midi.NoteOnEvent(tick=384, channel=4, data=[52, 0]),\r\n",
      "   midi.NoteOnEvent(tick=0, channel=4, data=[50, 100]),\r\n",
      "   midi.NoteOnEvent(tick=384, channel=4, data=[50, 0]),\r\n",
      "   midi.NoteOnEvent(tick=0, channel=4, data=[48, 100]),\r\n",
      "   midi.NoteOnEvent(tick=384, channel=4, data=[48, 0]),\r\n",
      "   midi.NoteOnEvent(tick=0, channel=4, data=[46, 100]),\r\n",
      "   midi.NoteOnEvent(tick=384, channel=4, data=[46, 0]),\r\n",
      "   midi.NoteOnEvent(tick=0, channel=4, data=[45, 100]),\r\n",
      "   midi.NoteOnEvent(tick=384, channel=4, data=[45, 0]),\r\n",
      "   midi.NoteOnEvent(tick=0, channel=4, data=[43, 100]),\r\n",
      "   midi.NoteOnEvent(tick=384, channel=4, data=[43, 0]),\r\n",
      "   midi.NoteOnEvent(tick=0, channel=4, data=[41, 100]),\r\n",
      "   midi.NoteOnEvent(tick=384, channel=4, data=[41, 0]),\r\n",
      "   midi.NoteOnEvent(tick=0, channel=4, data=[39, 100]),\r\n",
      "   midi.NoteOnEvent(tick=384, channel=4, data=[39, 0]),\r\n",
      "   midi.NoteOnEvent(tick=0, channel=4, data=[38, 100]),\r\n",
      "   midi.NoteOnEvent(tick=384, channel=4, data=[38, 0]),\r\n",
      "   midi.NoteOnEvent(tick=0, channel=4, data=[36, 100]),\r\n",
      "   midi.NoteOnEvent(tick=192, channel=4, data=[36, 0]),\r\n",
      "   midi.NoteOnEvent(tick=0, channel=4, data=[36, 100]),\r\n",
      "   midi.NoteOnEvent(tick=192, channel=4, data=[36, 0]),\r\n",
      "   midi.NoteOnEvent(tick=0, channel=4, data=[36, 100]),\r\n",
      "   midi.NoteOnEvent(tick=192, channel=4, data=[36, 0]),\r\n",
      "   midi.NoteOnEvent(tick=0, channel=4, data=[36, 100]),\r\n",
      "   midi.NoteOnEvent(tick=192, channel=4, data=[36, 0]),\r\n",
      "   midi.NoteOnEvent(tick=0, channel=4, data=[36, 100]),\r\n",
      "   midi.NoteOnEvent(tick=192, channel=4, data=[36, 0]),\r\n",
      "   midi.NoteOnEvent(tick=0, channel=4, data=[36, 100]),\r\n",
      "   midi.NoteOnEvent(tick=192, channel=4, data=[36, 0]),\r\n",
      "   midi.NoteOnEvent(tick=0, channel=4, data=[36, 100]),\r\n",
      "   midi.NoteOnEvent(tick=192, channel=4, data=[36, 0]),\r\n",
      "   midi.NoteOnEvent(tick=0, channel=4, data=[36, 100]),\r\n",
      "   midi.NoteOnEvent(tick=192, channel=4, data=[36, 0]),\r\n",
      "   midi.NoteOnEvent(tick=0, channel=4, data=[36, 100]),\r\n",
      "   midi.NoteOnEvent(tick=192, channel=4, data=[36, 0]),\r\n",
      "   midi.NoteOnEvent(tick=0, channel=4, data=[36, 100]),\r\n",
      "   midi.NoteOnEvent(tick=192, channel=4, data=[36, 0]),\r\n",
      "   midi.NoteOnEvent(tick=0, channel=4, data=[48, 100]),\r\n",
      "   midi.NoteOnEvent(tick=192, channel=4, data=[48, 0]),\r\n",
      "   midi.NoteOnEvent(tick=0, channel=4, data=[48, 100]),\r\n",
      "   midi.NoteOnEvent(tick=192, channel=4, data=[48, 0]),\r\n",
      "   midi.NoteOnEvent(tick=0, channel=4, data=[46, 100]),\r\n",
      "   midi.NoteOnEvent(tick=192, channel=4, data=[46, 0]),\r\n",
      "   midi.NoteOnEvent(tick=0, channel=4, data=[62, 100]),\r\n",
      "   midi.NoteOnEvent(tick=192, channel=4, data=[62, 0]),\r\n",
      "   midi.NoteOnEvent(tick=0, channel=4, data=[58, 100]),\r\n",
      "   midi.NoteOnEvent(tick=192, channel=4, data=[58, 0]),\r\n",
      "   midi.NoteOnEvent(tick=0, channel=4, data=[55, 100]),\r\n",
      "   midi.NoteOnEvent(tick=192, channel=4, data=[55, 0]),\r\n",
      "   midi.NoteOnEvent(tick=0, channel=4, data=[43, 100]),\r\n",
      "   midi.NoteOnEvent(tick=192, channel=4, data=[43, 0]),\r\n",
      "   midi.NoteOnEvent(tick=0, channel=4, data=[43, 100]),\r\n",
      "   midi.NoteOnEvent(tick=192, channel=4, data=[43, 0]),\r\n",
      "   midi.NoteOnEvent(tick=0, channel=4, data=[43, 100]),\r\n",
      "   midi.NoteOnEvent(tick=192, channel=4, data=[43, 0]),\r\n",
      "   midi.NoteOnEvent(tick=0, channel=4, data=[43, 100]),\r\n",
      "   midi.NoteOnEvent(tick=192, channel=4, data=[43, 0]),\r\n",
      "   midi.NoteOnEvent(tick=0, channel=4, data=[41, 100]),\r\n",
      "   midi.NoteOnEvent(tick=192, channel=4, data=[41, 0]),\r\n",
      "   midi.NoteOnEvent(tick=0, channel=4, data=[57, 100]),\r\n",
      "   midi.NoteOnEvent(tick=192, channel=4, data=[57, 0]),\r\n",
      "   midi.NoteOnEvent(tick=0, channel=4, data=[53, 100]),\r\n",
      "   midi.NoteOnEvent(tick=192, channel=4, data=[53, 0]),\r\n",
      "   midi.NoteOnEvent(tick=0, channel=4, data=[50, 100]),\r\n",
      "   midi.NoteOnEvent(tick=192, channel=4, data=[50, 0]),\r\n",
      "   midi.NoteOnEvent(tick=0, channel=4, data=[38, 100]),\r\n",
      "   midi.NoteOnEvent(tick=192, channel=4, data=[38, 0]),\r\n",
      "   midi.NoteOnEvent(tick=0, channel=4, data=[38, 100]),\r\n",
      "   midi.NoteOnEvent(tick=192, channel=4, data=[38, 0]),\r\n",
      "   midi.NoteOnEvent(tick=0, channel=4, data=[38, 100]),\r\n",
      "   midi.NoteOnEvent(tick=192, channel=4, data=[38, 0]),\r\n",
      "   midi.NoteOnEvent(tick=0, channel=4, data=[38, 100]),\r\n",
      "   midi.NoteOnEvent(tick=192, channel=4, data=[38, 0]),\r\n",
      "   midi.NoteOnEvent(tick=0, channel=4, data=[36, 100]),\r\n",
      "   midi.NoteOnEvent(tick=192, channel=4, data=[36, 0]),\r\n",
      "   midi.NoteOnEvent(tick=0, channel=4, data=[50, 100]),\r\n",
      "   midi.NoteOnEvent(tick=192, channel=4, data=[50, 0]),\r\n",
      "   midi.NoteOnEvent(tick=0, channel=4, data=[48, 100]),\r\n",
      "   midi.NoteOnEvent(tick=192, channel=4, data=[48, 0]),\r\n",
      "   midi.NoteOnEvent(tick=0, channel=4, data=[47, 100]),\r\n",
      "   midi.NoteOnEvent(tick=192, channel=4, data=[47, 0]),\r\n",
      "   midi.NoteOnEvent(tick=0, channel=4, data=[45, 100]),\r\n",
      "   midi.NoteOnEvent(tick=192, channel=4, data=[45, 0]),\r\n",
      "   midi.NoteOnEvent(tick=0, channel=4, data=[57, 100]),\r\n",
      "   midi.NoteOnEvent(tick=192, channel=4, data=[57, 0]),\r\n",
      "   midi.NoteOnEvent(tick=0, channel=4, data=[55, 100]),\r\n",
      "   midi.NoteOnEvent(tick=192, channel=4, data=[55, 0]),\r\n",
      "   midi.NoteOnEvent(tick=0, channel=4, data=[53, 100]),\r\n",
      "   midi.NoteOnEvent(tick=192, channel=4, data=[53, 0]),\r\n",
      "   midi.NoteOnEvent(tick=0, channel=4, data=[52, 100]),\r\n",
      "   midi.NoteOnEvent(tick=192, channel=4, data=[52, 0]),\r\n",
      "   midi.NoteOnEvent(tick=0, channel=4, data=[53, 100]),\r\n",
      "   midi.NoteOnEvent(tick=192, channel=4, data=[53, 0]),\r\n",
      "   midi.NoteOnEvent(tick=0, channel=4, data=[52, 100]),\r\n",
      "   midi.NoteOnEvent(tick=192, channel=4, data=[52, 0]),\r\n",
      "   midi.NoteOnEvent(tick=0, channel=4, data=[50, 100]),\r\n",
      "   midi.NoteOnEvent(tick=192, channel=4, data=[50, 0]),\r\n",
      "   midi.NoteOnEvent(tick=0, channel=4, data=[48, 100]),\r\n",
      "   midi.NoteOnEvent(tick=192, channel=4, data=[48, 0]),\r\n",
      "   midi.NoteOnEvent(tick=0, channel=4, data=[52, 100]),\r\n",
      "   midi.NoteOnEvent(tick=192, channel=4, data=[52, 0]),\r\n",
      "   midi.NoteOnEvent(tick=0, channel=4, data=[48, 100]),\r\n",
      "   midi.NoteOnEvent(tick=192, channel=4, data=[48, 0]),\r\n",
      "   midi.NoteOnEvent(tick=0, channel=4, data=[45, 100]),\r\n",
      "   midi.NoteOnEvent(tick=192, channel=4, data=[45, 0]),\r\n",
      "   midi.NoteOnEvent(tick=0, channel=4, data=[50, 100]),\r\n",
      "   midi.NoteOnEvent(tick=192, channel=4, data=[50, 0]),\r\n",
      "   midi.NoteOnEvent(tick=0, channel=4, data=[53, 100]),\r\n",
      "   midi.NoteOnEvent(tick=192, channel=4, data=[53, 0]),\r\n",
      "   midi.NoteOnEvent(tick=0, channel=4, data=[50, 100]),\r\n",
      "   midi.NoteOnEvent(tick=192, channel=4, data=[50, 0]),\r\n",
      "   midi.NoteOnEvent(tick=0, channel=4, data=[47, 100]),\r\n",
      "   midi.NoteOnEvent(tick=192, channel=4, data=[47, 0]),\r\n",
      "   midi.NoteOnEvent(tick=0, channel=4, data=[48, 100]),\r\n",
      "   midi.NoteOnEvent(tick=192, channel=4, data=[48, 0]),\r\n",
      "   midi.NoteOnEvent(tick=0, channel=4, data=[45, 100]),\r\n",
      "   midi.NoteOnEvent(tick=192, channel=4, data=[45, 0]),\r\n",
      "   midi.NoteOnEvent(tick=0, channel=4, data=[52, 100]),\r\n",
      "   midi.NoteOnEvent(tick=192, channel=4, data=[52, 0]),\r\n",
      "   midi.NoteOnEvent(tick=0, channel=4, data=[40, 100]),\r\n",
      "   midi.NoteOnEvent(tick=192, channel=4, data=[40, 0]),\r\n",
      "   midi.NoteOnEvent(tick=0, channel=4, data=[45, 100]),\r\n",
      "   midi.NoteOnEvent(tick=192, channel=4, data=[45, 0]),\r\n",
      "   midi.NoteOnEvent(tick=0, channel=4, data=[60, 100]),\r\n",
      "   midi.NoteOnEvent(tick=96, channel=4, data=[60, 0]),\r\n",
      "   midi.NoteOnEvent(tick=0, channel=4, data=[59, 100]),\r\n",
      "   midi.NoteOnEvent(tick=96, channel=4, data=[59, 0]),\r\n",
      "   midi.NoteOnEvent(tick=0, channel=4, data=[57, 100]),\r\n",
      "   midi.NoteOnEvent(tick=96, channel=4, data=[57, 0]),\r\n",
      "   midi.NoteOnEvent(tick=0, channel=4, data=[55, 100]),\r\n",
      "   midi.NoteOnEvent(tick=96, channel=4, data=[55, 0]),\r\n",
      "   midi.NoteOnEvent(tick=0, channel=4, data=[53, 100]),\r\n",
      "   midi.NoteOnEvent(tick=96, channel=4, data=[53, 0]),\r\n",
      "   midi.NoteOnEvent(tick=0, channel=4, data=[52, 100]),\r\n",
      "   midi.NoteOnEvent(tick=96, channel=4, data=[52, 0]),\r\n",
      "   midi.NoteOnEvent(tick=0, channel=4, data=[53, 100]),\r\n",
      "   midi.NoteOnEvent(tick=192, channel=4, data=[53, 0]),\r\n",
      "   midi.NoteOnEvent(tick=0, channel=4, data=[57, 100]),\r\n",
      "   midi.NoteOnEvent(tick=192, channel=4, data=[57, 0]),\r\n",
      "   midi.NoteOnEvent(tick=0, channel=4, data=[53, 100]),\r\n",
      "   midi.NoteOnEvent(tick=192, channel=4, data=[53, 0]),\r\n",
      "   midi.NoteOnEvent(tick=0, channel=4, data=[50, 100]),\r\n",
      "   midi.NoteOnEvent(tick=192, channel=4, data=[50, 0]),\r\n",
      "   midi.NoteOnEvent(tick=0, channel=4, data=[55, 100]),\r\n",
      "   midi.NoteOnEvent(tick=192, channel=4, data=[55, 0]),\r\n",
      "   midi.NoteOnEvent(tick=0, channel=4, data=[43, 100]),\r\n",
      "   midi.NoteOnEvent(tick=192, channel=4, data=[43, 0]),\r\n",
      "   midi.NoteOnEvent(tick=1344, channel=4, data=[59, 100]),\r\n",
      "   midi.NoteOnEvent(tick=96, channel=4, data=[59, 0]),\r\n",
      "   midi.NoteOnEvent(tick=0, channel=4, data=[57, 100]),\r\n",
      "   midi.NoteOnEvent(tick=96, channel=4, data=[57, 0]),\r\n",
      "   midi.NoteOnEvent(tick=0, channel=4, data=[55, 100]),\r\n",
      "   midi.NoteOnEvent(tick=96, channel=4, data=[55, 0]),\r\n",
      "   midi.NoteOnEvent(tick=0, channel=4, data=[53, 100]),\r\n",
      "   midi.NoteOnEvent(tick=96, channel=4, data=[53, 0]),\r\n",
      "   midi.NoteOnEvent(tick=0, channel=4, data=[52, 100]),\r\n",
      "   midi.NoteOnEvent(tick=96, channel=4, data=[52, 0]),\r\n",
      "   midi.NoteOnEvent(tick=0, channel=4, data=[50, 100]),\r\n",
      "   midi.NoteOnEvent(tick=96, channel=4, data=[50, 0]),\r\n",
      "   midi.NoteOnEvent(tick=0, channel=4, data=[52, 100]),\r\n",
      "   midi.NoteOnEvent(tick=192, channel=4, data=[52, 0]),\r\n",
      "   midi.NoteOnEvent(tick=0, channel=4, data=[55, 100]),\r\n",
      "   midi.NoteOnEvent(tick=192, channel=4, data=[55, 0]),\r\n",
      "   midi.NoteOnEvent(tick=0, channel=4, data=[52, 100]),\r\n",
      "   midi.NoteOnEvent(tick=192, channel=4, data=[52, 0]),\r\n",
      "   midi.NoteOnEvent(tick=0, channel=4, data=[48, 100]),\r\n",
      "   midi.NoteOnEvent(tick=192, channel=4, data=[48, 0]),\r\n",
      "   midi.NoteOnEvent(tick=0, channel=4, data=[53, 100]),\r\n",
      "   midi.NoteOnEvent(tick=192, channel=4, data=[53, 0]),\r\n",
      "   midi.NoteOnEvent(tick=0, channel=4, data=[41, 100]),\r\n",
      "   midi.NoteOnEvent(tick=192, channel=4, data=[41, 0]),\r\n",
      "   midi.NoteOnEvent(tick=1344, channel=4, data=[57, 100]),\r\n",
      "   midi.NoteOnEvent(tick=96, channel=4, data=[57, 0]),\r\n",
      "   midi.NoteOnEvent(tick=0, channel=4, data=[55, 100]),\r\n",
      "   midi.NoteOnEvent(tick=96, channel=4, data=[55, 0]),\r\n",
      "   midi.NoteOnEvent(tick=0, channel=4, data=[53, 100]),\r\n",
      "   midi.NoteOnEvent(tick=96, channel=4, data=[53, 0]),\r\n",
      "   midi.NoteOnEvent(tick=0, channel=4, data=[52, 100]),\r\n",
      "   midi.NoteOnEvent(tick=96, channel=4, data=[52, 0]),\r\n",
      "   midi.NoteOnEvent(tick=0, channel=4, data=[50, 100]),\r\n",
      "   midi.NoteOnEvent(tick=96, channel=4, data=[50, 0]),\r\n",
      "   midi.NoteOnEvent(tick=0, channel=4, data=[48, 100]),\r\n",
      "   midi.NoteOnEvent(tick=96, channel=4, data=[48, 0]),\r\n",
      "   midi.NoteOnEvent(tick=0, channel=4, data=[50, 100]),\r\n",
      "   midi.NoteOnEvent(tick=96, channel=4, data=[50, 0]),\r\n",
      "   midi.NoteOnEvent(tick=0, channel=4, data=[52, 100]),\r\n",
      "   midi.NoteOnEvent(tick=96, channel=4, data=[52, 0]),\r\n",
      "   midi.NoteOnEvent(tick=0, channel=4, data=[50, 100]),\r\n",
      "   midi.NoteOnEvent(tick=96, channel=4, data=[50, 0]),\r\n",
      "   midi.NoteOnEvent(tick=0, channel=4, data=[48, 100]),\r\n",
      "   midi.NoteOnEvent(tick=96, channel=4, data=[48, 0]),\r\n",
      "   midi.NoteOnEvent(tick=0, channel=4, data=[47, 100]),\r\n",
      "   midi.NoteOnEvent(tick=96, channel=4, data=[47, 0]),\r\n",
      "   midi.NoteOnEvent(tick=0, channel=4, data=[48, 100]),\r\n",
      "   midi.NoteOnEvent(tick=96, channel=4, data=[48, 0]),\r\n",
      "   midi.NoteOnEvent(tick=0, channel=4, data=[47, 100]),\r\n",
      "   midi.NoteOnEvent(tick=96, channel=4, data=[47, 0]),\r\n",
      "   midi.NoteOnEvent(tick=0, channel=4, data=[45, 100]),\r\n",
      "   midi.NoteOnEvent(tick=96, channel=4, data=[45, 0]),\r\n",
      "   midi.NoteOnEvent(tick=0, channel=4, data=[44, 100]),\r\n",
      "   midi.NoteOnEvent(tick=96, channel=4, data=[44, 0]),\r\n",
      "   midi.NoteOnEvent(tick=0, channel=4, data=[40, 100]),\r\n",
      "   midi.NoteOnEvent(tick=96, channel=4, data=[40, 0]),\r\n",
      "   midi.NoteOnEvent(tick=0, channel=4, data=[42, 100]),\r\n",
      "   midi.NoteOnEvent(tick=96, channel=4, data=[42, 0]),\r\n",
      "   midi.NoteOnEvent(tick=0, channel=4, data=[44, 100]),\r",
      "\r\n",
      "   midi.NoteOnEvent(tick=96, channel=4, data=[44, 0]),\r\n",
      "   midi.NoteOnEvent(tick=0, channel=4, data=[45, 100]),\r\n",
      "   midi.NoteOnEvent(tick=96, channel=4, data=[45, 0]),\r\n",
      "   midi.NoteOnEvent(tick=0, channel=4, data=[47, 100]),\r\n",
      "   midi.NoteOnEvent(tick=96, channel=4, data=[47, 0]),\r\n",
      "   midi.NoteOnEvent(tick=0, channel=4, data=[48, 100]),\r\n",
      "   midi.NoteOnEvent(tick=96, channel=4, data=[48, 0]),\r\n",
      "   midi.NoteOnEvent(tick=0, channel=4, data=[45, 100]),\r\n",
      "   midi.NoteOnEvent(tick=96, channel=4, data=[45, 0]),\r\n",
      "   midi.NoteOnEvent(tick=0, channel=4, data=[41, 100]),\r\n",
      "   midi.NoteOnEvent(tick=192, channel=4, data=[41, 0]),\r\n",
      "   midi.NoteOnEvent(tick=0, channel=4, data=[48, 100]),\r\n",
      "   midi.NoteOnEvent(tick=192, channel=4, data=[48, 0]),\r\n",
      "   midi.NoteOnEvent(tick=0, channel=4, data=[50, 100]),\r\n",
      "   midi.NoteOnEvent(tick=192, channel=4, data=[50, 0]),\r\n",
      "   midi.NoteOnEvent(tick=0, channel=4, data=[47, 100]),\r\n",
      "   midi.NoteOnEvent(tick=192, channel=4, data=[47, 0]),\r\n",
      "   midi.NoteOnEvent(tick=0, channel=4, data=[52, 100]),\r\n",
      "   midi.NoteOnEvent(tick=288, channel=4, data=[52, 0]),\r\n",
      "   midi.NoteOnEvent(tick=0, channel=4, data=[54, 100]),\r\n",
      "   midi.NoteOnEvent(tick=48, channel=4, data=[54, 0]),\r\n",
      "   midi.NoteOnEvent(tick=0, channel=4, data=[56, 100]),\r\n",
      "   midi.NoteOnEvent(tick=48, channel=4, data=[56, 0]),\r\n",
      "   midi.NoteOnEvent(tick=0, channel=4, data=[57, 100]),\r\n",
      "   midi.NoteOnEvent(tick=96, channel=4, data=[57, 0]),\r\n",
      "   midi.NoteOnEvent(tick=0, channel=4, data=[59, 100]),\r\n",
      "   midi.NoteOnEvent(tick=96, channel=4, data=[59, 0]),\r\n",
      "   midi.NoteOnEvent(tick=0, channel=4, data=[60, 100]),\r\n",
      "   midi.NoteOnEvent(tick=96, channel=4, data=[60, 0]),\r\n",
      "   midi.NoteOnEvent(tick=0, channel=4, data=[62, 100]),\r\n",
      "   midi.NoteOnEvent(tick=96, channel=4, data=[62, 0]),\r\n",
      "   midi.NoteOnEvent(tick=0, channel=4, data=[64, 100]),\r\n",
      "   midi.NoteOnEvent(tick=192, channel=4, data=[64, 0]),\r\n",
      "   midi.NoteOnEvent(tick=0, channel=4, data=[62, 100]),\r\n",
      "   midi.NoteOnEvent(tick=192, channel=4, data=[62, 0]),\r\n",
      "   midi.NoteOnEvent(tick=0, channel=4, data=[64, 100]),\r\n",
      "   midi.NoteOnEvent(tick=192, channel=4, data=[64, 0]),\r\n",
      "   midi.NoteOnEvent(tick=0, channel=4, data=[52, 100]),\r\n",
      "   midi.NoteOnEvent(tick=192, channel=4, data=[52, 0]),\r\n",
      "   midi.NoteOnEvent(tick=0, channel=4, data=[62, 100]),\r\n",
      "   midi.NoteOnEvent(tick=192, channel=4, data=[62, 0]),\r\n",
      "   midi.NoteOnEvent(tick=0, channel=4, data=[64, 100]),\r\n",
      "   midi.NoteOnEvent(tick=192, channel=4, data=[64, 0]),\r\n",
      "   midi.NoteOnEvent(tick=0, channel=4, data=[62, 100]),\r\n",
      "   midi.NoteOnEvent(tick=192, channel=4, data=[62, 0]),\r\n",
      "   midi.NoteOnEvent(tick=0, channel=4, data=[60, 100]),\r\n",
      "   midi.NoteOnEvent(tick=192, channel=4, data=[60, 0]),\r\n",
      "   midi.NoteOnEvent(tick=0, channel=4, data=[59, 100]),\r\n",
      "   midi.NoteOnEvent(tick=192, channel=4, data=[59, 0]),\r\n",
      "   midi.NoteOnEvent(tick=0, channel=4, data=[60, 100]),\r\n",
      "   midi.NoteOnEvent(tick=192, channel=4, data=[60, 0]),\r\n",
      "   midi.NoteOnEvent(tick=0, channel=4, data=[59, 100]),\r\n",
      "   midi.NoteOnEvent(tick=192, channel=4, data=[59, 0]),\r\n",
      "   midi.NoteOnEvent(tick=0, channel=4, data=[57, 100]),\r\n",
      "   midi.NoteOnEvent(tick=192, channel=4, data=[57, 0]),\r\n",
      "   midi.NoteOnEvent(tick=0, channel=4, data=[56, 100]),\r\n",
      "   midi.NoteOnEvent(tick=192, channel=4, data=[56, 0]),\r\n",
      "   midi.NoteOnEvent(tick=0, channel=4, data=[57, 100]),\r\n",
      "   midi.NoteOnEvent(tick=192, channel=4, data=[57, 0]),\r\n",
      "   midi.NoteOnEvent(tick=0, channel=4, data=[59, 100]),\r\n",
      "   midi.NoteOnEvent(tick=192, channel=4, data=[59, 0]),\r\n",
      "   midi.NoteOnEvent(tick=0, channel=4, data=[60, 100]),\r\n",
      "   midi.NoteOnEvent(tick=192, channel=4, data=[60, 0]),\r\n",
      "   midi.NoteOnEvent(tick=0, channel=4, data=[50, 100]),\r\n",
      "   midi.NoteOnEvent(tick=192, channel=4, data=[50, 0]),\r\n",
      "   midi.NoteOnEvent(tick=0, channel=4, data=[52, 100]),\r\n",
      "   midi.NoteOnEvent(tick=192, channel=4, data=[52, 0]),\r\n",
      "   midi.NoteOnEvent(tick=0, channel=4, data=[53, 100]),\r\n",
      "   midi.NoteOnEvent(tick=192, channel=4, data=[53, 0]),\r\n",
      "   midi.NoteOnEvent(tick=0, channel=4, data=[47, 100]),\r\n",
      "   midi.NoteOnEvent(tick=192, channel=4, data=[47, 0]),\r\n",
      "   midi.NoteOnEvent(tick=0, channel=4, data=[52, 100]),\r\n",
      "   midi.NoteOnEvent(tick=192, channel=4, data=[52, 0]),\r\n",
      "   midi.NoteOnEvent(tick=0, channel=4, data=[50, 100]),\r\n",
      "   midi.NoteOnEvent(tick=96, channel=4, data=[50, 0]),\r\n",
      "   midi.NoteOnEvent(tick=0, channel=4, data=[48, 100]),\r\n",
      "   midi.NoteOnEvent(tick=96, channel=4, data=[48, 0]),\r\n",
      "   midi.NoteOnEvent(tick=0, channel=4, data=[47, 100]),\r\n",
      "   midi.NoteOnEvent(tick=192, channel=4, data=[47, 0]),\r\n",
      "   midi.NoteOnEvent(tick=0, channel=4, data=[45, 100]),\r\n",
      "   midi.NoteOnEvent(tick=192, channel=4, data=[45, 0]),\r\n",
      "   midi.NoteOnEvent(tick=0, channel=4, data=[44, 100]),\r\n",
      "   midi.NoteOnEvent(tick=192, channel=4, data=[44, 0]),\r\n",
      "   midi.NoteOnEvent(tick=0, channel=4, data=[42, 100]),\r\n",
      "   midi.NoteOnEvent(tick=192, channel=4, data=[42, 0]),\r\n",
      "   midi.NoteOnEvent(tick=0, channel=4, data=[40, 100]),\r\n",
      "   midi.NoteOnEvent(tick=192, channel=4, data=[40, 0]),\r\n",
      "   midi.NoteOnEvent(tick=0, channel=4, data=[38, 100]),\r\n",
      "   midi.NoteOnEvent(tick=192, channel=4, data=[38, 0]),\r\n",
      "   midi.NoteOnEvent(tick=0, channel=4, data=[36, 100]),\r\n",
      "   midi.NoteOnEvent(tick=192, channel=4, data=[36, 0]),\r\n",
      "   midi.NoteOnEvent(tick=0, channel=4, data=[53, 100]),\r\n",
      "   midi.NoteOnEvent(tick=192, channel=4, data=[53, 0]),\r\n",
      "   midi.NoteOnEvent(tick=0, channel=4, data=[50, 100]),\r\n",
      "   midi.NoteOnEvent(tick=192, channel=4, data=[50, 0]),\r\n",
      "   midi.NoteOnEvent(tick=0, channel=4, data=[52, 100]),\r\n",
      "   midi.NoteOnEvent(tick=192, channel=4, data=[52, 0]),\r\n",
      "   midi.NoteOnEvent(tick=0, channel=4, data=[41, 100]),\r\n",
      "   midi.NoteOnEvent(tick=384, channel=4, data=[41, 0]),\r\n",
      "   midi.NoteOnEvent(tick=192, channel=4, data=[53, 100]),\r\n",
      "   midi.NoteOnEvent(tick=192, channel=4, data=[53, 0]),\r\n",
      "   midi.NoteOnEvent(tick=0, channel=4, data=[44, 100]),\r\n",
      "   midi.NoteOnEvent(tick=192, channel=4, data=[44, 0]),\r\n",
      "   midi.NoteOnEvent(tick=0, channel=4, data=[44, 100]),\r\n",
      "   midi.NoteOnEvent(tick=192, channel=4, data=[44, 0]),\r\n",
      "   midi.NoteOnEvent(tick=0, channel=4, data=[44, 100]),\r\n",
      "   midi.NoteOnEvent(tick=192, channel=4, data=[44, 0]),\r\n",
      "   midi.NoteOnEvent(tick=0, channel=4, data=[59, 100]),\r\n",
      "   midi.NoteOnEvent(tick=192, channel=4, data=[59, 0]),\r\n",
      "   midi.NoteOnEvent(tick=0, channel=4, data=[50, 100]),\r\n",
      "   midi.NoteOnEvent(tick=192, channel=4, data=[50, 0]),\r\n",
      "   midi.NoteOnEvent(tick=0, channel=4, data=[50, 100]),\r\n",
      "   midi.NoteOnEvent(tick=192, channel=4, data=[50, 0]),\r\n",
      "   midi.NoteOnEvent(tick=0, channel=4, data=[50, 100]),\r\n",
      "   midi.NoteOnEvent(tick=192, channel=4, data=[50, 0]),\r\n",
      "   midi.NoteOnEvent(tick=0, channel=4, data=[53, 100]),\r\n",
      "   midi.NoteOnEvent(tick=192, channel=4, data=[53, 0]),\r\n",
      "   midi.NoteOnEvent(tick=0, channel=4, data=[47, 100]),\r\n",
      "   midi.NoteOnEvent(tick=192, channel=4, data=[47, 0]),\r\n",
      "   midi.NoteOnEvent(tick=0, channel=4, data=[48, 100]),\r\n",
      "   midi.NoteOnEvent(tick=96, channel=4, data=[48, 0]),\r\n",
      "   midi.NoteOnEvent(tick=0, channel=4, data=[50, 100]),\r\n",
      "   midi.NoteOnEvent(tick=96, channel=4, data=[50, 0]),\r\n",
      "   midi.NoteOnEvent(tick=0, channel=4, data=[52, 100]),\r\n",
      "   midi.NoteOnEvent(tick=192, channel=4, data=[52, 0]),\r\n",
      "   midi.NoteOnEvent(tick=0, channel=4, data=[40, 100]),\r\n",
      "   midi.NoteOnEvent(tick=192, channel=4, data=[40, 0]),\r\n",
      "   midi.NoteOnEvent(tick=0, channel=4, data=[45, 100]),\r\n",
      "   midi.NoteOnEvent(tick=576, channel=4, data=[45, 0]),\r\n",
      "   midi.EndOfTrackEvent(tick=0, data=[])]),\r\n",
      " midi.Track(\\\r\n",
      "  [midi.PortEvent(tick=0, data=[0]),\r\n",
      "   midi.TrackNameEvent(tick=0, text='Violone', data=[86, 105, 111, 108, 111, 110, 101]),\r\n",
      "   midi.ProgramChangeEvent(tick=0, channel=5, data=[43]),\r\n",
      "   midi.ControlChangeEvent(tick=0, channel=5, data=[7, 100]),\r\n",
      "   midi.ControlChangeEvent(tick=0, channel=5, data=[10, 64]),\r\n",
      "   midi.NoteOnEvent(tick=960, channel=5, data=[33, 100]),\r\n",
      "   midi.NoteOnEvent(tick=192, channel=5, data=[33, 0]),\r\n",
      "   midi.NoteOnEvent(tick=0, channel=5, data=[45, 100]),\r\n",
      "   midi.NoteOnEvent(tick=384, channel=5, data=[45, 0]),\r\n",
      "   midi.NoteOnEvent(tick=192, channel=5, data=[33, 100]),\r\n",
      "   midi.NoteOnEvent(tick=192, channel=5, data=[33, 0]),\r\n",
      "   midi.NoteOnEvent(tick=0, channel=5, data=[45, 100]),\r\n",
      "   midi.NoteOnEvent(tick=384, channel=5, data=[45, 0]),\r\n",
      "   midi.NoteOnEvent(tick=192, channel=5, data=[33, 100]),\r\n",
      "   midi.NoteOnEvent(tick=192, channel=5, data=[33, 0]),\r\n",
      "   midi.NoteOnEvent(tick=0, channel=5, data=[40, 100]),\r\n",
      "   midi.NoteOnEvent(tick=192, channel=5, data=[40, 0]),\r\n",
      "   midi.NoteOnEvent(tick=0, channel=5, data=[28, 100]),\r\n",
      "   midi.NoteOnEvent(tick=192, channel=5, data=[28, 0]),\r\n",
      "   midi.NoteOnEvent(tick=0, channel=5, data=[33, 100]),\r\n",
      "   midi.NoteOnEvent(tick=192, channel=5, data=[33, 0]),\r\n",
      "   midi.NoteOnEvent(tick=0, channel=5, data=[45, 100]),\r\n",
      "   midi.NoteOnEvent(tick=96, channel=5, data=[45, 0]),\r\n",
      "   midi.NoteOnEvent(tick=0, channel=5, data=[47, 100]),\r\n",
      "   midi.NoteOnEvent(tick=96, channel=5, data=[47, 0]),\r\n",
      "   midi.NoteOnEvent(tick=0, channel=5, data=[48, 100]),\r\n",
      "   midi.NoteOnEvent(tick=192, channel=5, data=[48, 0]),\r\n",
      "   midi.NoteOnEvent(tick=0, channel=5, data=[45, 100]),\r\n",
      "   midi.NoteOnEvent(tick=192, channel=5, data=[45, 0]),\r\n",
      "   midi.NoteOnEvent(tick=0, channel=5, data=[44, 100]),\r\n",
      "   midi.NoteOnEvent(tick=192, channel=5, data=[44, 0]),\r\n",
      "   midi.NoteOnEvent(tick=0, channel=5, data=[40, 100]),\r\n",
      "   midi.NoteOnEvent(tick=192, channel=5, data=[40, 0]),\r\n",
      "   midi.NoteOnEvent(tick=0, channel=5, data=[45, 100]),\r\n",
      "   midi.NoteOnEvent(tick=192, channel=5, data=[45, 0]),\r\n",
      "   midi.NoteOnEvent(tick=0, channel=5, data=[40, 100]),\r\n",
      "   midi.NoteOnEvent(tick=192, channel=5, data=[40, 0]),\r\n",
      "   midi.NoteOnEvent(tick=0, channel=5, data=[47, 100]),\r\n",
      "   midi.NoteOnEvent(tick=192, channel=5, data=[47, 0]),\r\n",
      "   midi.NoteOnEvent(tick=0, channel=5, data=[40, 100]),\r\n",
      "   midi.NoteOnEvent(tick=192, channel=5, data=[40, 0]),\r\n",
      "   midi.NoteOnEvent(tick=0, channel=5, data=[48, 100]),\r\n",
      "   midi.NoteOnEvent(tick=192, channel=5, data=[48, 0]),\r\n",
      "   midi.NoteOnEvent(tick=0, channel=5, data=[40, 100]),\r\n",
      "   midi.NoteOnEvent(tick=192, channel=5, data=[40, 0]),\r\n",
      "   midi.NoteOnEvent(tick=0, channel=5, data=[50, 100]),\r\n",
      "   midi.NoteOnEvent(tick=192, channel=5, data=[50, 0]),\r\n",
      "   midi.NoteOnEvent(tick=0, channel=5, data=[38, 100]),\r\n",
      "   midi.NoteOnEvent(tick=192, channel=5, data=[38, 0]),\r\n",
      "   midi.NoteOnEvent(tick=0, channel=5, data=[40, 100]),\r\n",
      "   midi.NoteOnEvent(tick=192, channel=5, data=[40, 0]),\r\n",
      "   midi.NoteOnEvent(tick=0, channel=5, data=[41, 100]),\r\n",
      "   midi.NoteOnEvent(tick=192, channel=5, data=[41, 0]),\r\n",
      "   midi.NoteOnEvent(tick=0, channel=5, data=[40, 100]),\r\n",
      "   midi.NoteOnEvent(tick=192, channel=5, data=[40, 0]),\r\n",
      "   midi.NoteOnEvent(tick=0, channel=5, data=[28, 100]),\r\n",
      "   midi.NoteOnEvent(tick=192, channel=5, data=[28, 0]),\r\n",
      "   midi.NoteOnEvent(tick=192, channel=5, data=[52, 100]),\r\n",
      "   midi.NoteOnEvent(tick=96, channel=5, data=[52, 0]),\r\n",
      "   midi.NoteOnEvent(tick=0, channel=5, data=[50, 100]),\r\n",
      "   midi.NoteOnEvent(tick=96, channel=5, data=[50, 0]),\r\n",
      "   midi.NoteOnEvent(tick=0, channel=5, data=[48, 100]),\r\n",
      "   midi.NoteOnEvent(tick=192, channel=5, data=[48, 0]),\r",
      "\r\n",
      "   midi.NoteOnEvent(tick=0, channel=5, data=[52, 100]),\r\n",
      "   midi.NoteOnEvent(tick=192, channel=5, data=[52, 0]),\r\n",
      "   midi.NoteOnEvent(tick=0, channel=5, data=[48, 100]),\r\n",
      "   midi.NoteOnEvent(tick=192, channel=5, data=[48, 0]),\r\n",
      "   midi.NoteOnEvent(tick=0, channel=5, data=[45, 100]),\r\n",
      "   midi.NoteOnEvent(tick=192, channel=5, data=[45, 0]),\r\n",
      "   midi.NoteOnEvent(tick=0, channel=5, data=[50, 100]),\r\n",
      "   midi.NoteOnEvent(tick=192, channel=5, data=[50, 0]),\r\n",
      "   midi.NoteOnEvent(tick=0, channel=5, data=[38, 100]),\r\n",
      "   midi.NoteOnEvent(tick=192, channel=5, data=[38, 0]),\r\n",
      "   midi.NoteOnEvent(tick=192, channel=5, data=[50, 100]),\r\n",
      "   midi.NoteOnEvent(tick=96, channel=5, data=[50, 0]),\r\n",
      "   midi.NoteOnEvent(tick=0, channel=5, data=[48, 100]),\r\n",
      "   midi.NoteOnEvent(tick=96, channel=5, data=[48, 0]),\r\n",
      "   midi.NoteOnEvent(tick=0, channel=5, data=[47, 100]),\r\n",
      "   midi.NoteOnEvent(tick=192, channel=5, data=[47, 0]),\r\n",
      "   midi.NoteOnEvent(tick=0, channel=5, data=[50, 100]),\r\n",
      "   midi.NoteOnEvent(tick=192, channel=5, data=[50, 0]),\r\n",
      "   midi.NoteOnEvent(tick=0, channel=5, data=[47, 100]),\r\n",
      "   midi.NoteOnEvent(tick=192, channel=5, data=[47, 0]),\r\n",
      "   midi.NoteOnEvent(tick=0, channel=5, data=[43, 100]),\r\n",
      "   midi.NoteOnEvent(tick=192, channel=5, data=[43, 0]),\r\n",
      "   midi.NoteOnEvent(tick=0, channel=5, data=[48, 100]),\r\n",
      "   midi.NoteOnEvent(tick=192, channel=5, data=[48, 0]),\r\n",
      "   midi.NoteOnEvent(tick=0, channel=5, data=[36, 100]),\r\n",
      "   midi.NoteOnEvent(tick=192, channel=5, data=[36, 0]),\r\n",
      "   midi.NoteOnEvent(tick=192, channel=5, data=[48, 100]),\r\n",
      "   midi.NoteOnEvent(tick=96, channel=5, data=[48, 0]),\r\n",
      "   midi.NoteOnEvent(tick=0, channel=5, data=[47, 100]),\r\n",
      "   midi.NoteOnEvent(tick=96, channel=5, data=[47, 0]),\r\n",
      "   midi.NoteOnEvent(tick=0, channel=5, data=[45, 100]),\r\n",
      "   midi.NoteOnEvent(tick=96, channel=5, data=[45, 0]),\r\n",
      "   midi.NoteOnEvent(tick=0, channel=5, data=[47, 100]),\r\n",
      "   midi.NoteOnEvent(tick=96, channel=5, data=[47, 0]),\r\n",
      "   midi.NoteOnEvent(tick=0, channel=5, data=[45, 100]),\r\n",
      "   midi.NoteOnEvent(tick=96, channel=5, data=[45, 0]),\r\n",
      "   midi.NoteOnEvent(tick=0, channel=5, data=[43, 100]),\r\n",
      "   midi.NoteOnEvent(tick=96, channel=5, data=[43, 0]),\r\n",
      "   midi.NoteOnEvent(tick=0, channel=5, data=[42, 100]),\r\n",
      "   midi.NoteOnEvent(tick=96, channel=5, data=[42, 0]),\r\n",
      "   midi.NoteOnEvent(tick=0, channel=5, data=[43, 100]),\r\n",
      "   midi.NoteOnEvent(tick=96, channel=5, data=[43, 0]),\r\n",
      "   midi.NoteOnEvent(tick=0, channel=5, data=[42, 100]),\r\n",
      "   midi.NoteOnEvent(tick=96, channel=5, data=[42, 0]),\r\n",
      "   midi.NoteOnEvent(tick=0, channel=5, data=[40, 100]),\r\n",
      "   midi.NoteOnEvent(tick=96, channel=5, data=[40, 0]),\r\n",
      "   midi.NoteOnEvent(tick=0, channel=5, data=[39, 100]),\r\n",
      "   midi.NoteOnEvent(tick=96, channel=5, data=[39, 0]),\r\n",
      "   midi.NoteOnEvent(tick=0, channel=5, data=[35, 100]),\r\n",
      "   midi.NoteOnEvent(tick=96, channel=5, data=[35, 0]),\r\n",
      "   midi.NoteOnEvent(tick=0, channel=5, data=[37, 100]),\r\n",
      "   midi.NoteOnEvent(tick=96, channel=5, data=[37, 0]),\r\n",
      "   midi.NoteOnEvent(tick=0, channel=5, data=[39, 100]),\r\n",
      "   midi.NoteOnEvent(tick=96, channel=5, data=[39, 0]),\r\n",
      "   midi.NoteOnEvent(tick=0, channel=5, data=[40, 100]),\r\n",
      "   midi.NoteOnEvent(tick=96, channel=5, data=[40, 0]),\r\n",
      "   midi.NoteOnEvent(tick=0, channel=5, data=[42, 100]),\r\n",
      "   midi.NoteOnEvent(tick=96, channel=5, data=[42, 0]),\r\n",
      "   midi.NoteOnEvent(tick=0, channel=5, data=[43, 100]),\r\n",
      "   midi.NoteOnEvent(tick=96, channel=5, data=[43, 0]),\r\n",
      "   midi.NoteOnEvent(tick=0, channel=5, data=[40, 100]),\r\n",
      "   midi.NoteOnEvent(tick=96, channel=5, data=[40, 0]),\r\n",
      "   midi.NoteOnEvent(tick=0, channel=5, data=[36, 100]),\r\n",
      "   midi.NoteOnEvent(tick=192, channel=5, data=[36, 0]),\r\n",
      "   midi.NoteOnEvent(tick=0, channel=5, data=[35, 100]),\r\n",
      "   midi.NoteOnEvent(tick=192, channel=5, data=[35, 0]),\r\n",
      "   midi.NoteOnEvent(tick=0, channel=5, data=[36, 100]),\r\n",
      "   midi.NoteOnEvent(tick=192, channel=5, data=[36, 0]),\r\n",
      "   midi.NoteOnEvent(tick=0, channel=5, data=[33, 100]),\r\n",
      "   midi.NoteOnEvent(tick=192, channel=5, data=[33, 0]),\r\n",
      "   midi.NoteOnEvent(tick=0, channel=5, data=[35, 100]),\r\n",
      "   midi.NoteOnEvent(tick=288, channel=5, data=[35, 0]),\r\n",
      "   midi.NoteOnEvent(tick=0, channel=5, data=[37, 100]),\r\n",
      "   midi.NoteOnEvent(tick=48, channel=5, data=[37, 0]),\r\n",
      "   midi.NoteOnEvent(tick=0, channel=5, data=[39, 100]),\r\n",
      "   midi.NoteOnEvent(tick=48, channel=5, data=[39, 0]),\r\n",
      "   midi.NoteOnEvent(tick=0, channel=5, data=[40, 100]),\r\n",
      "   midi.NoteOnEvent(tick=96, channel=5, data=[40, 0]),\r\n",
      "   midi.NoteOnEvent(tick=0, channel=5, data=[42, 100]),\r\n",
      "   midi.NoteOnEvent(tick=96, channel=5, data=[42, 0]),\r\n",
      "   midi.NoteOnEvent(tick=0, channel=5, data=[43, 100]),\r\n",
      "   midi.NoteOnEvent(tick=96, channel=5, data=[43, 0]),\r\n",
      "   midi.NoteOnEvent(tick=0, channel=5, data=[45, 100]),\r\n",
      "   midi.NoteOnEvent(tick=96, channel=5, data=[45, 0]),\r\n",
      "   midi.NoteOnEvent(tick=0, channel=5, data=[47, 100]),\r\n",
      "   midi.NoteOnEvent(tick=192, channel=5, data=[47, 0]),\r\n",
      "   midi.NoteOnEvent(tick=0, channel=5, data=[45, 100]),\r\n",
      "   midi.NoteOnEvent(tick=192, channel=5, data=[45, 0]),\r\n",
      "   midi.NoteOnEvent(tick=0, channel=5, data=[47, 100]),\r\n",
      "   midi.NoteOnEvent(tick=192, channel=5, data=[47, 0]),\r\n",
      "   midi.NoteOnEvent(tick=0, channel=5, data=[35, 100]),\r\n",
      "   midi.NoteOnEvent(tick=192, channel=5, data=[35, 0]),\r\n",
      "   midi.NoteOnEvent(tick=0, channel=5, data=[45, 100]),\r\n",
      "   midi.NoteOnEvent(tick=192, channel=5, data=[45, 0]),\r\n",
      "   midi.NoteOnEvent(tick=0, channel=5, data=[43, 100]),\r\n",
      "   midi.NoteOnEvent(tick=192, channel=5, data=[43, 0]),\r\n",
      "   midi.NoteOnEvent(tick=0, channel=5, data=[45, 100]),\r\n",
      "   midi.NoteOnEvent(tick=192, channel=5, data=[45, 0]),\r\n",
      "   midi.NoteOnEvent(tick=0, channel=5, data=[33, 100]),\r\n",
      "   midi.NoteOnEvent(tick=192, channel=5, data=[33, 0]),\r\n",
      "   midi.NoteOnEvent(tick=0, channel=5, data=[31, 100]),\r\n",
      "   midi.NoteOnEvent(tick=192, channel=5, data=[31, 0]),\r\n",
      "   midi.NoteOnEvent(tick=0, channel=5, data=[36, 100]),\r\n",
      "   midi.NoteOnEvent(tick=192, channel=5, data=[36, 0]),\r\n",
      "   midi.NoteOnEvent(tick=0, channel=5, data=[33, 100]),\r\n",
      "   midi.NoteOnEvent(tick=192, channel=5, data=[33, 0]),\r\n",
      "   midi.NoteOnEvent(tick=0, channel=5, data=[35, 100]),\r\n",
      "   midi.NoteOnEvent(tick=192, channel=5, data=[35, 0]),\r\n",
      "   midi.NoteOnEvent(tick=0, channel=5, data=[28, 100]),\r\n",
      "   midi.NoteOnEvent(tick=384, channel=5, data=[28, 0]),\r\n",
      "   midi.NoteOnEvent(tick=192, channel=5, data=[48, 100]),\r\n",
      "   midi.NoteOnEvent(tick=192, channel=5, data=[48, 0]),\r\n",
      "   midi.NoteOnEvent(tick=0, channel=5, data=[39, 100]),\r\n",
      "   midi.NoteOnEvent(tick=192, channel=5, data=[39, 0]),\r\n",
      "   midi.NoteOnEvent(tick=0, channel=5, data=[39, 100]),\r\n",
      "   midi.NoteOnEvent(tick=192, channel=5, data=[39, 0]),\r\n",
      "   midi.NoteOnEvent(tick=0, channel=5, data=[39, 100]),\r\n",
      "   midi.NoteOnEvent(tick=192, channel=5, data=[39, 0]),\r\n",
      "   midi.NoteOnEvent(tick=0, channel=5, data=[42, 100]),\r\n",
      "   midi.NoteOnEvent(tick=192, channel=5, data=[42, 0]),\r\n",
      "   midi.NoteOnEvent(tick=0, channel=5, data=[33, 100]),\r\n",
      "   midi.NoteOnEvent(tick=192, channel=5, data=[33, 0]),\r\n",
      "   midi.NoteOnEvent(tick=0, channel=5, data=[33, 100]),\r\n",
      "   midi.NoteOnEvent(tick=192, channel=5, data=[33, 0]),\r\n",
      "   midi.NoteOnEvent(tick=0, channel=5, data=[33, 100]),\r\n",
      "   midi.NoteOnEvent(tick=192, channel=5, data=[33, 0]),\r\n",
      "   midi.NoteOnEvent(tick=0, channel=5, data=[36, 100]),\r\n",
      "   midi.NoteOnEvent(tick=192, channel=5, data=[36, 0]),\r\n",
      "   midi.NoteOnEvent(tick=0, channel=5, data=[30, 100]),\r\n",
      "   midi.NoteOnEvent(tick=192, channel=5, data=[30, 0]),\r\n",
      "   midi.NoteOnEvent(tick=0, channel=5, data=[28, 100]),\r\n",
      "   midi.NoteOnEvent(tick=192, channel=5, data=[28, 0]),\r\n",
      "   midi.NoteOnEvent(tick=0, channel=5, data=[35, 100]),\r\n",
      "   midi.NoteOnEvent(tick=192, channel=5, data=[35, 0]),\r\n",
      "   midi.NoteOnEvent(tick=0, channel=5, data=[35, 100]),\r\n",
      "   midi.NoteOnEvent(tick=192, channel=5, data=[35, 0]),\r\n",
      "   midi.NoteOnEvent(tick=0, channel=5, data=[28, 100]),\r\n",
      "   midi.NoteOnEvent(tick=192, channel=5, data=[28, 0]),\r\n",
      "   midi.NoteOnEvent(tick=0, channel=5, data=[40, 100]),\r\n",
      "   midi.NoteOnEvent(tick=96, channel=5, data=[40, 0]),\r\n",
      "   midi.NoteOnEvent(tick=0, channel=5, data=[38, 100]),\r\n",
      "   midi.NoteOnEvent(tick=96, channel=5, data=[38, 0]),\r\n",
      "   midi.NoteOnEvent(tick=0, channel=5, data=[36, 100]),\r\n",
      "   midi.NoteOnEvent(tick=192, channel=5, data=[36, 0]),\r\n",
      "   midi.NoteOnEvent(tick=0, channel=5, data=[35, 100]),\r\n",
      "   midi.NoteOnEvent(tick=192, channel=5, data=[35, 0]),\r\n",
      "   midi.NoteOnEvent(tick=0, channel=5, data=[33, 100]),\r\n",
      "   midi.NoteOnEvent(tick=384, channel=5, data=[33, 0]),\r\n",
      "   midi.NoteOnEvent(tick=192, channel=5, data=[45, 100]),\r\n",
      "   midi.NoteOnEvent(tick=192, channel=5, data=[45, 0]),\r\n",
      "   midi.NoteOnEvent(tick=0, channel=5, data=[52, 100]),\r\n",
      "   midi.NoteOnEvent(tick=384, channel=5, data=[52, 0]),\r\n",
      "   midi.NoteOnEvent(tick=192, channel=5, data=[40, 100]),\r\n",
      "   midi.NoteOnEvent(tick=192, channel=5, data=[40, 0]),\r\n",
      "   midi.NoteOnEvent(tick=0, channel=5, data=[32, 100]),\r\n",
      "   midi.NoteOnEvent(tick=384, channel=5, data=[32, 0]),\r\n",
      "   midi.NoteOnEvent(tick=192, channel=5, data=[40, 100]),\r\n",
      "   midi.NoteOnEvent(tick=192, channel=5, data=[40, 0]),\r\n",
      "   midi.NoteOnEvent(tick=0, channel=5, data=[45, 100]),\r\n",
      "   midi.NoteOnEvent(tick=384, channel=5, data=[45, 0]),\r\n",
      "   midi.NoteOnEvent(tick=192, channel=5, data=[45, 100]),\r\n",
      "   midi.NoteOnEvent(tick=192, channel=5, data=[45, 0]),\r\n",
      "   midi.NoteOnEvent(tick=0, channel=5, data=[33, 100]),\r\n",
      "   midi.NoteOnEvent(tick=192, channel=5, data=[33, 0]),\r\n",
      "   midi.NoteOnEvent(tick=0, channel=5, data=[36, 100]),\r\n",
      "   midi.NoteOnEvent(tick=192, channel=5, data=[36, 0]),\r\n",
      "   midi.NoteOnEvent(tick=0, channel=5, data=[38, 100]),\r\n",
      "   midi.NoteOnEvent(tick=192, channel=5, data=[38, 0]),\r\n",
      "   midi.NoteOnEvent(tick=0, channel=5, data=[41, 100]),\r\n",
      "   midi.NoteOnEvent(tick=192, channel=5, data=[41, 0]),\r\n",
      "   midi.NoteOnEvent(tick=0, channel=5, data=[31, 100]),\r\n",
      "   midi.NoteOnEvent(tick=192, channel=5, data=[31, 0]),\r\n",
      "   midi.NoteOnEvent(tick=0, channel=5, data=[35, 100]),\r\n",
      "   midi.NoteOnEvent(tick=192, channel=5, data=[35, 0]),\r\n",
      "   midi.NoteOnEvent(tick=0, channel=5, data=[36, 100]),\r\n",
      "   midi.NoteOnEvent(tick=192, channel=5, data=[36, 0]),\r\n",
      "   midi.NoteOnEvent(tick=0, channel=5, data=[40, 100]),\r\n",
      "   midi.NoteOnEvent(tick=192, channel=5, data=[40, 0]),\r\n",
      "   midi.NoteOnEvent(tick=0, channel=5, data=[41, 100]),\r\n",
      "   midi.NoteOnEvent(tick=192, channel=5, data=[41, 0]),\r\n",
      "   midi.NoteOnEvent(tick=0, channel=5, data=[45, 100]),\r\n",
      "   midi.NoteOnEvent(tick=192, channel=5, data=[45, 0]),\r\n",
      "   midi.NoteOnEvent(tick=0, channel=5, data=[35, 100]),\r\n",
      "   midi.NoteOnEvent(tick=192, channel=5, data=[35, 0]),\r\n",
      "   midi.NoteOnEvent(tick=0, channel=5, data=[38, 100]),\r\n",
      "   midi.NoteOnEvent(tick=192, channel=5, data=[38, 0]),\r\n",
      "   midi.NoteOnEvent(tick=0, channel=5, data=[28, 100]),\r\n",
      "   midi.NoteOnEvent(tick=192, channel=5, data=[28, 0]),\r\n",
      "   midi.NoteOnEvent(tick=0, channel=5, data=[40, 100]),\r\n",
      "   midi.NoteOnEvent(tick=192, channel=5, data=[40, 0]),\r\n",
      "   midi.NoteOnEvent(tick=0, channel=5, data=[44, 100]),\r\n",
      "   midi.NoteOnEvent(tick=192, channel=5, data=[44, 0]),\r\n",
      "   midi.NoteOnEvent(tick=0, channel=5, data=[40, 100]),\r\n",
      "   midi.NoteOnEvent(tick=192, channel=5, data=[40, 0]),\r\n",
      "   midi.NoteOnEvent(tick=192, channel=5, data=[45, 100]),\r\n",
      "   midi.NoteOnEvent(tick=192, channel=5, data=[45, 0]),\r\n",
      "   midi.NoteOnEvent(tick=0, channel=5, data=[48, 100]),\r\n",
      "   midi.NoteOnEvent(tick=192, channel=5, data=[48, 0]),\r\n",
      "   midi.NoteOnEvent(tick=0, channel=5, data=[45, 100]),\r\n",
      "   midi.NoteOnEvent(tick=192, channel=5, data=[45, 0]),\r\n",
      "   midi.NoteOnEvent(tick=192, channel=5, data=[45, 100]),\r\n",
      "   midi.NoteOnEvent(tick=192, channel=5, data=[45, 0]),\r\n",
      "   midi.NoteOnEvent(tick=0, channel=5, data=[41, 100]),\r\n",
      "   midi.NoteOnEvent(tick=192, channel=5, data=[41, 0]),\r\n",
      "   midi.NoteOnEvent(tick=0, channel=5, data=[38, 100]),\r\n",
      "   midi.NoteOnEvent(tick=192, channel=5, data=[38, 0]),\r\n",
      "   midi.NoteOnEvent(tick=192, channel=5, data=[43, 100]),\r\n",
      "   midi.NoteOnEvent(tick=192, channel=5, data=[43, 0]),\r\n",
      "   midi.NoteOnEvent(tick=0, channel=5, data=[47, 100]),\r\n",
      "   midi.NoteOnEvent(tick=192, channel=5, data=[47, 0]),\r\n",
      "   midi.NoteOnEvent(tick=0, channel=5, data=[43, 100]),\r\n",
      "   midi.NoteOnEvent(tick=192, channel=5, data=[43, 0]),\r\n",
      "   midi.NoteOnEvent(tick=192, channel=5, data=[43, 100]),\r\n",
      "   midi.NoteOnEvent(tick=192, channel=5, data=[43, 0]),\r\n",
      "   midi.NoteOnEvent(tick=0, channel=5, data=[40, 100]),\r\n",
      "   midi.NoteOnEvent(tick=192, channel=5, data=[40, 0]),\r\n",
      "   midi.NoteOnEvent(tick=0, channel=5, data=[36, 100]),\r\n",
      "   midi.NoteOnEvent(tick=192, channel=5, data=[36, 0]),\r\n",
      "   midi.NoteOnEvent(tick=192, channel=5, data=[41, 100]),\r\n",
      "   midi.NoteOnEvent(tick=192, channel=5, data=[41, 0]),\r\n",
      "   midi.NoteOnEvent(tick=0, channel=5, data=[45, 100]),\r\n",
      "   midi.NoteOnEvent(tick=192, channel=5, data=[45, 0]),\r\n",
      "   midi.NoteOnEvent(tick=0, channel=5, data=[41, 100]),\r\n",
      "   midi.NoteOnEvent(tick=192, channel=5, data=[41, 0]),\r\n",
      "   midi.NoteOnEvent(tick=192, channel=5, data=[41, 100]),\r\n",
      "   midi.NoteOnEvent(tick=192, channel=5, data=[41, 0]),\r\n",
      "   midi.NoteOnEvent(tick=0, channel=5, data=[38, 100]),\r\n",
      "   midi.NoteOnEvent(tick=192, channel=5, data=[38, 0]),\r\n",
      "   midi.NoteOnEvent(tick=0, channel=5, data=[35, 100]),\r\n",
      "   midi.NoteOnEvent(tick=192, channel=5, data=[35, 0]),\r\n",
      "   midi.NoteOnEvent(tick=192, channel=5, data=[40, 100]),\r\n",
      "   midi.NoteOnEvent(tick=192, channel=5, data=[40, 0]),\r\n",
      "   midi.NoteOnEvent(tick=0, channel=5, data=[44, 100]),\r\n",
      "   midi.NoteOnEvent(tick=192, channel=5, data=[44, 0]),\r\n",
      "   midi.NoteOnEvent(tick=0, channel=5, data=[40, 100]),\r\n",
      "   midi.NoteOnEvent(tick=192, channel=5, data=[40, 0]),\r\n",
      "   midi.NoteOnEvent(tick=192, channel=5, data=[40, 100]),\r\n",
      "   midi.NoteOnEvent(tick=192, channel=5, data=[40, 0]),\r\n",
      "   midi.NoteOnEvent(tick=0, channel=5, data=[36, 100]),\r\n",
      "   midi.NoteOnEvent(tick=192, channel=5, data=[36, 0]),\r\n",
      "   midi.NoteOnEvent(tick=0, channel=5, data=[33, 100]),\r\n",
      "   midi.NoteOnEvent(tick=192, channel=5, data=[33, 0]),\r\n",
      "   midi.NoteOnEvent(tick=0, channel=5, data=[45, 100]),\r\n",
      "   midi.NoteOnEvent(tick=384, channel=5, data=[45, 0]),\r\n",
      "   midi.NoteOnEvent(tick=192, channel=5, data=[33, 100]),\r\n",
      "   midi.NoteOnEvent(tick=192, channel=5, data=[33, 0]),\r\n",
      "   midi.NoteOnEvent(tick=0, channel=5, data=[45, 100]),\r\n",
      "   midi.NoteOnEvent(tick=192, channel=5, data=[45, 0]),\r\n",
      "   midi.NoteOnEvent(tick=0, channel=5, data=[33, 100]),\r\n",
      "   midi.NoteOnEvent(tick=192, channel=5, data=[33, 0]),\r\n",
      "   midi.NoteOnEvent(tick=0, channel=5, data=[40, 100]),\r\n",
      "   midi.NoteOnEvent(tick=192, channel=5, data=[40, 0]),\r\n",
      "   midi.NoteOnEvent(tick=0, channel=5, data=[28, 100]),\r\n",
      "   midi.NoteOnEvent(tick=192, channel=5, data=[28, 0]),\r\n",
      "   midi.NoteOnEvent(tick=0, channel=5, data=[33, 100]),\r\n",
      "   midi.NoteOnEvent(tick=192, channel=5, data=[33, 0]),\r\n",
      "   midi.NoteOnEvent(tick=0, channel=5, data=[45, 100]),\r\n",
      "   midi.NoteOnEvent(tick=96, channel=5, data=[45, 0]),\r\n",
      "   midi.NoteOnEvent(tick=0, channel=5, data=[47, 100]),\r\n",
      "   midi.NoteOnEvent(tick=96, channel=5, data=[47, 0]),\r\n",
      "   midi.NoteOnEvent(tick=0, channel=5, data=[48, 100]),\r\n",
      "   midi.NoteOnEvent(tick=192, channel=5, data=[48, 0]),\r\n",
      "   midi.NoteOnEvent(tick=0, channel=5, data=[45, 100]),\r\n"
     ]
    },
    {
     "name": "stdout",
     "output_type": "stream",
     "text": [
      "   midi.NoteOnEvent(tick=192, channel=5, data=[45, 0]),\r\n",
      "   midi.NoteOnEvent(tick=0, channel=5, data=[33, 100]),\r\n",
      "   midi.NoteOnEvent(tick=192, channel=5, data=[33, 0]),\r\n",
      "   midi.NoteOnEvent(tick=768, channel=5, data=[43, 100]),\r\n",
      "   midi.NoteOnEvent(tick=96, channel=5, data=[43, 0]),\r\n",
      "   midi.NoteOnEvent(tick=0, channel=5, data=[45, 100]),\r\n",
      "   midi.NoteOnEvent(tick=96, channel=5, data=[45, 0]),\r\n",
      "   midi.NoteOnEvent(tick=0, channel=5, data=[47, 100]),\r\n",
      "   midi.NoteOnEvent(tick=192, channel=5, data=[47, 0]),\r\n",
      "   midi.NoteOnEvent(tick=0, channel=5, data=[43, 100]),\r\n",
      "   midi.NoteOnEvent(tick=192, channel=5, data=[43, 0]),\r\n",
      "   midi.NoteOnEvent(tick=0, channel=5, data=[31, 100]),\r\n",
      "   midi.NoteOnEvent(tick=192, channel=5, data=[31, 0]),\r\n",
      "   midi.NoteOnEvent(tick=768, channel=5, data=[41, 100]),\r\n",
      "   midi.NoteOnEvent(tick=96, channel=5, data=[41, 0]),\r\n",
      "   midi.NoteOnEvent(tick=0, channel=5, data=[43, 100]),\r\n",
      "   midi.NoteOnEvent(tick=96, channel=5, data=[43, 0]),\r\n",
      "   midi.NoteOnEvent(tick=0, channel=5, data=[45, 100]),\r\n",
      "   midi.NoteOnEvent(tick=192, channel=5, data=[45, 0]),\r\n",
      "   midi.NoteOnEvent(tick=0, channel=5, data=[41, 100]),\r\n",
      "   midi.NoteOnEvent(tick=192, channel=5, data=[41, 0]),\r\n",
      "   midi.NoteOnEvent(tick=0, channel=5, data=[29, 100]),\r\n",
      "   midi.NoteOnEvent(tick=192, channel=5, data=[29, 0]),\r\n",
      "   midi.NoteOnEvent(tick=768, channel=5, data=[41, 100]),\r\n",
      "   midi.NoteOnEvent(tick=192, channel=5, data=[41, 0]),\r\n",
      "   midi.NoteOnEvent(tick=0, channel=5, data=[40, 100]),\r\n",
      "   midi.NoteOnEvent(tick=192, channel=5, data=[40, 0]),\r\n",
      "   midi.NoteOnEvent(tick=0, channel=5, data=[38, 100]),\r\n",
      "   midi.NoteOnEvent(tick=192, channel=5, data=[38, 0]),\r\n",
      "   midi.NoteOnEvent(tick=0, channel=5, data=[36, 100]),\r\n",
      "   midi.NoteOnEvent(tick=192, channel=5, data=[36, 0]),\r\n",
      "   midi.NoteOnEvent(tick=0, channel=5, data=[48, 100]),\r\n",
      "   midi.NoteOnEvent(tick=192, channel=5, data=[48, 0]),\r\n",
      "   midi.NoteOnEvent(tick=0, channel=5, data=[47, 100]),\r\n",
      "   midi.NoteOnEvent(tick=192, channel=5, data=[47, 0]),\r\n",
      "   midi.NoteOnEvent(tick=0, channel=5, data=[45, 100]),\r\n",
      "   midi.NoteOnEvent(tick=192, channel=5, data=[45, 0]),\r\n",
      "   midi.NoteOnEvent(tick=0, channel=5, data=[43, 100]),\r\n",
      "   midi.NoteOnEvent(tick=192, channel=5, data=[43, 0]),\r\n",
      "   midi.NoteOnEvent(tick=0, channel=5, data=[45, 100]),\r\n",
      "   midi.NoteOnEvent(tick=192, channel=5, data=[45, 0]),\r\n",
      "   midi.NoteOnEvent(tick=0, channel=5, data=[43, 100]),\r\n",
      "   midi.NoteOnEvent(tick=192, channel=5, data=[43, 0]),\r\n",
      "   midi.NoteOnEvent(tick=0, channel=5, data=[41, 100]),\r\n",
      "   midi.NoteOnEvent(tick=192, channel=5, data=[41, 0]),\r\n",
      "   midi.NoteOnEvent(tick=0, channel=5, data=[40, 100]),\r\n",
      "   midi.NoteOnEvent(tick=192, channel=5, data=[40, 0]),\r\n",
      "   midi.NoteOnEvent(tick=0, channel=5, data=[43, 100]),\r\n",
      "   midi.NoteOnEvent(tick=192, channel=5, data=[43, 0]),\r\n",
      "   midi.NoteOnEvent(tick=0, channel=5, data=[40, 100]),\r\n",
      "   midi.NoteOnEvent(tick=192, channel=5, data=[40, 0]),\r\n",
      "   midi.NoteOnEvent(tick=0, channel=5, data=[36, 100]),\r\n",
      "   midi.NoteOnEvent(tick=192, channel=5, data=[36, 0]),\r\n",
      "   midi.NoteOnEvent(tick=0, channel=5, data=[41, 100]),\r\n",
      "   midi.NoteOnEvent(tick=192, channel=5, data=[41, 0]),\r\n",
      "   midi.NoteOnEvent(tick=0, channel=5, data=[45, 100]),\r\n",
      "   midi.NoteOnEvent(tick=192, channel=5, data=[45, 0]),\r\n",
      "   midi.NoteOnEvent(tick=0, channel=5, data=[41, 100]),\r\n",
      "   midi.NoteOnEvent(tick=192, channel=5, data=[41, 0]),\r\n",
      "   midi.NoteOnEvent(tick=0, channel=5, data=[38, 100]),\r\n",
      "   midi.NoteOnEvent(tick=192, channel=5, data=[38, 0]),\r\n",
      "   midi.NoteOnEvent(tick=0, channel=5, data=[40, 100]),\r\n",
      "   midi.NoteOnEvent(tick=192, channel=5, data=[40, 0]),\r\n",
      "   midi.NoteOnEvent(tick=0, channel=5, data=[36, 100]),\r\n",
      "   midi.NoteOnEvent(tick=192, channel=5, data=[36, 0]),\r\n",
      "   midi.NoteOnEvent(tick=0, channel=5, data=[43, 100]),\r\n",
      "   midi.NoteOnEvent(tick=192, channel=5, data=[43, 0]),\r\n",
      "   midi.NoteOnEvent(tick=0, channel=5, data=[31, 100]),\r\n",
      "   midi.NoteOnEvent(tick=192, channel=5, data=[31, 0]),\r\n",
      "   midi.NoteOnEvent(tick=0, channel=5, data=[24, 100]),\r\n",
      "   midi.NoteOnEvent(tick=192, channel=5, data=[24, 0]),\r\n",
      "   midi.NoteOnEvent(tick=0, channel=5, data=[36, 100]),\r\n",
      "   midi.NoteOnEvent(tick=96, channel=5, data=[36, 0]),\r\n",
      "   midi.NoteOnEvent(tick=0, channel=5, data=[38, 100]),\r\n",
      "   midi.NoteOnEvent(tick=96, channel=5, data=[38, 0]),\r\n",
      "   midi.NoteOnEvent(tick=0, channel=5, data=[40, 100]),\r\n",
      "   midi.NoteOnEvent(tick=192, channel=5, data=[40, 0]),\r\n",
      "   midi.NoteOnEvent(tick=0, channel=5, data=[36, 100]),\r\n",
      "   midi.NoteOnEvent(tick=192, channel=5, data=[36, 0]),\r\n",
      "   midi.NoteOnEvent(tick=0, channel=5, data=[35, 100]),\r\n",
      "   midi.NoteOnEvent(tick=192, channel=5, data=[35, 0]),\r\n",
      "   midi.NoteOnEvent(tick=0, channel=5, data=[43, 100]),\r\n",
      "   midi.NoteOnEvent(tick=192, channel=5, data=[43, 0]),\r\n",
      "   midi.NoteOnEvent(tick=0, channel=5, data=[36, 100]),\r\n",
      "   midi.NoteOnEvent(tick=192, channel=5, data=[36, 0]),\r\n",
      "   midi.NoteOnEvent(tick=0, channel=5, data=[43, 100]),\r\n",
      "   midi.NoteOnEvent(tick=192, channel=5, data=[43, 0]),\r\n",
      "   midi.NoteOnEvent(tick=0, channel=5, data=[38, 100]),\r\n",
      "   midi.NoteOnEvent(tick=192, channel=5, data=[38, 0]),\r\n",
      "   midi.NoteOnEvent(tick=0, channel=5, data=[43, 100]),\r\n",
      "   midi.NoteOnEvent(tick=192, channel=5, data=[43, 0]),\r\n",
      "   midi.NoteOnEvent(tick=0, channel=5, data=[40, 100]),\r\n",
      "   midi.NoteOnEvent(tick=192, channel=5, data=[40, 0]),\r\n",
      "   midi.NoteOnEvent(tick=0, channel=5, data=[43, 100]),\r\n",
      "   midi.NoteOnEvent(tick=192, channel=5, data=[43, 0]),\r\n",
      "   midi.NoteOnEvent(tick=0, channel=5, data=[41, 100]),\r\n",
      "   midi.NoteOnEvent(tick=192, channel=5, data=[41, 0]),\r\n",
      "   midi.NoteOnEvent(tick=0, channel=5, data=[43, 100]),\r\n",
      "   midi.NoteOnEvent(tick=192, channel=5, data=[43, 0]),\r\n",
      "   midi.NoteOnEvent(tick=0, channel=5, data=[45, 100]),\r\n",
      "   midi.NoteOnEvent(tick=192, channel=5, data=[45, 0]),\r\n",
      "   midi.NoteOnEvent(tick=0, channel=5, data=[41, 100]),\r\n",
      "   midi.NoteOnEvent(tick=192, channel=5, data=[41, 0]),\r\n",
      "   midi.NoteOnEvent(tick=0, channel=5, data=[43, 100]),\r\n",
      "   midi.NoteOnEvent(tick=96, channel=5, data=[43, 0]),\r\n",
      "   midi.NoteOnEvent(tick=0, channel=5, data=[45, 100]),\r\n",
      "   midi.NoteOnEvent(tick=96, channel=5, data=[45, 0]),\r\n",
      "   midi.NoteOnEvent(tick=0, channel=5, data=[47, 100]),\r\n",
      "   midi.NoteOnEvent(tick=96, channel=5, data=[47, 0]),\r\n",
      "   midi.NoteOnEvent(tick=0, channel=5, data=[45, 100]),\r\n",
      "   midi.NoteOnEvent(tick=96, channel=5, data=[45, 0]),\r\n",
      "   midi.NoteOnEvent(tick=0, channel=5, data=[43, 100]),\r\n",
      "   midi.NoteOnEvent(tick=96, channel=5, data=[43, 0]),\r\n",
      "   midi.NoteOnEvent(tick=0, channel=5, data=[41, 100]),\r\n",
      "   midi.NoteOnEvent(tick=96, channel=5, data=[41, 0]),\r\n",
      "   midi.NoteOnEvent(tick=0, channel=5, data=[40, 100]),\r\n",
      "   midi.NoteOnEvent(tick=96, channel=5, data=[40, 0]),\r\n",
      "   midi.NoteOnEvent(tick=0, channel=5, data=[38, 100]),\r\n",
      "   midi.NoteOnEvent(tick=96, channel=5, data=[38, 0]),\r\n",
      "   midi.NoteOnEvent(tick=0, channel=5, data=[36, 100]),\r\n",
      "   midi.NoteOnEvent(tick=192, channel=5, data=[36, 0]),\r\n",
      "   midi.NoteOnEvent(tick=0, channel=5, data=[40, 100]),\r\n",
      "   midi.NoteOnEvent(tick=192, channel=5, data=[40, 0]),\r\n",
      "   midi.NoteOnEvent(tick=0, channel=5, data=[36, 100]),\r\n",
      "   midi.NoteOnEvent(tick=192, channel=5, data=[36, 0]),\r\n",
      "   midi.NoteOnEvent(tick=0, channel=5, data=[33, 100]),\r\n",
      "   midi.NoteOnEvent(tick=192, channel=5, data=[33, 0]),\r\n",
      "   midi.NoteOnEvent(tick=0, channel=5, data=[38, 100]),\r\n",
      "   midi.NoteOnEvent(tick=192, channel=5, data=[38, 0]),\r\n",
      "   midi.NoteOnEvent(tick=0, channel=5, data=[26, 100]),\r\n",
      "   midi.NoteOnEvent(tick=192, channel=5, data=[26, 0]),\r\n",
      "   midi.NoteOnEvent(tick=1344, channel=5, data=[42, 100]),\r\n",
      "   midi.NoteOnEvent(tick=96, channel=5, data=[42, 0]),\r\n",
      "   midi.NoteOnEvent(tick=0, channel=5, data=[40, 100]),\r\n",
      "   midi.NoteOnEvent(tick=96, channel=5, data=[40, 0]),\r\n",
      "   midi.NoteOnEvent(tick=0, channel=5, data=[38, 100]),\r\n",
      "   midi.NoteOnEvent(tick=96, channel=5, data=[38, 0]),\r\n",
      "   midi.NoteOnEvent(tick=0, channel=5, data=[36, 100]),\r\n",
      "   midi.NoteOnEvent(tick=96, channel=5, data=[36, 0]),\r\n",
      "   midi.NoteOnEvent(tick=0, channel=5, data=[35, 100]),\r\n",
      "   midi.NoteOnEvent(tick=96, channel=5, data=[35, 0]),\r\n",
      "   midi.NoteOnEvent(tick=0, channel=5, data=[33, 100]),\r\n",
      "   midi.NoteOnEvent(tick=96, channel=5, data=[33, 0]),\r\n",
      "   midi.NoteOnEvent(tick=0, channel=5, data=[35, 100]),\r\n",
      "   midi.NoteOnEvent(tick=192, channel=5, data=[35, 0]),\r\n",
      "   midi.NoteOnEvent(tick=0, channel=5, data=[38, 100]),\r\n",
      "   midi.NoteOnEvent(tick=192, channel=5, data=[38, 0]),\r\n",
      "   midi.NoteOnEvent(tick=0, channel=5, data=[35, 100]),\r\n",
      "   midi.NoteOnEvent(tick=192, channel=5, data=[35, 0]),\r\n",
      "   midi.NoteOnEvent(tick=0, channel=5, data=[31, 100]),\r\n",
      "   midi.NoteOnEvent(tick=192, channel=5, data=[31, 0]),\r\n",
      "   midi.NoteOnEvent(tick=0, channel=5, data=[36, 100]),\r\n",
      "   midi.NoteOnEvent(tick=192, channel=5, data=[36, 0]),\r\n",
      "   midi.NoteOnEvent(tick=0, channel=5, data=[24, 100]),\r\n",
      "   midi.NoteOnEvent(tick=192, channel=5, data=[24, 0]),\r\n",
      "   midi.NoteOnEvent(tick=1344, channel=5, data=[48, 100]),\r\n",
      "   midi.NoteOnEvent(tick=96, channel=5, data=[48, 0]),\r\n",
      "   midi.NoteOnEvent(tick=0, channel=5, data=[47, 100]),\r\n",
      "   midi.NoteOnEvent(tick=96, channel=5, data=[47, 0]),\r\n",
      "   midi.NoteOnEvent(tick=0, channel=5, data=[48, 100]),\r\n",
      "   midi.NoteOnEvent(tick=96, channel=5, data=[48, 0]),\r\n",
      "   midi.NoteOnEvent(tick=0, channel=5, data=[50, 100]),\r\n",
      "   midi.NoteOnEvent(tick=96, channel=5, data=[50, 0]),\r\n",
      "   midi.NoteOnEvent(tick=0, channel=5, data=[48, 100]),\r\n",
      "   midi.NoteOnEvent(tick=96, channel=5, data=[48, 0]),\r\n",
      "   midi.NoteOnEvent(tick=0, channel=5, data=[47, 100]),\r\n",
      "   midi.NoteOnEvent(tick=96, channel=5, data=[47, 0]),\r\n",
      "   midi.NoteOnEvent(tick=0, channel=5, data=[45, 100]),\r\n",
      "   midi.NoteOnEvent(tick=96, channel=5, data=[45, 0]),\r\n",
      "   midi.NoteOnEvent(tick=0, channel=5, data=[47, 100]),\r\n",
      "   midi.NoteOnEvent(tick=96, channel=5, data=[47, 0]),\r\n",
      "   midi.NoteOnEvent(tick=0, channel=5, data=[45, 100]),\r\n",
      "   midi.NoteOnEvent(tick=96, channel=5, data=[45, 0]),\r\n",
      "   midi.NoteOnEvent(tick=0, channel=5, data=[43, 100]),\r\n",
      "   midi.NoteOnEvent(tick=96, channel=5, data=[43, 0]),\r\n",
      "   midi.NoteOnEvent(tick=0, channel=5, data=[42, 100]),\r\n",
      "   midi.NoteOnEvent(tick=96, channel=5, data=[42, 0]),\r\n",
      "   midi.NoteOnEvent(tick=0, channel=5, data=[43, 100]),\r\n",
      "   midi.NoteOnEvent(tick=96, channel=5, data=[43, 0]),\r\n",
      "   midi.NoteOnEvent(tick=0, channel=5, data=[42, 100]),\r\n",
      "   midi.NoteOnEvent(tick=96, channel=5, data=[42, 0]),\r\n",
      "   midi.NoteOnEvent(tick=0, channel=5, data=[40, 100]),\r\n",
      "   midi.NoteOnEvent(tick=96, channel=5, data=[40, 0]),\r\n",
      "   midi.NoteOnEvent(tick=0, channel=5, data=[39, 100]),\r\n",
      "   midi.NoteOnEvent(tick=96, channel=5, data=[39, 0]),\r\n",
      "   midi.NoteOnEvent(tick=0, channel=5, data=[35, 100]),\r\n",
      "   midi.NoteOnEvent(tick=96, channel=5, data=[35, 0]),\r\n",
      "   midi.NoteOnEvent(tick=0, channel=5, data=[37, 100]),\r\n",
      "   midi.NoteOnEvent(tick=96, channel=5, data=[37, 0]),\r\n",
      "   midi.NoteOnEvent(tick=0, channel=5, data=[39, 100]),\r\n",
      "   midi.NoteOnEvent(tick=96, channel=5, data=[39, 0]),\r\n",
      "   midi.NoteOnEvent(tick=0, channel=5, data=[40, 100]),\r\n",
      "   midi.NoteOnEvent(tick=96, channel=5, data=[40, 0]),\r\n",
      "   midi.NoteOnEvent(tick=0, channel=5, data=[42, 100]),\r\n",
      "   midi.NoteOnEvent(tick=96, channel=5, data=[42, 0]),\r\n",
      "   midi.NoteOnEvent(tick=0, channel=5, data=[43, 100]),\r\n",
      "   midi.NoteOnEvent(tick=96, channel=5, data=[43, 0]),\r\n",
      "   midi.NoteOnEvent(tick=0, channel=5, data=[40, 100]),\r\n",
      "   midi.NoteOnEvent(tick=96, channel=5, data=[40, 0]),\r\n",
      "   midi.NoteOnEvent(tick=0, channel=5, data=[36, 100]),\r\n",
      "   midi.NoteOnEvent(tick=192, channel=5, data=[36, 0]),\r\n",
      "   midi.NoteOnEvent(tick=0, channel=5, data=[35, 100]),\r\n",
      "   midi.NoteOnEvent(tick=192, channel=5, data=[35, 0]),\r\n",
      "   midi.NoteOnEvent(tick=0, channel=5, data=[36, 100]),\r\n",
      "   midi.NoteOnEvent(tick=192, channel=5, data=[36, 0]),\r\n",
      "   midi.NoteOnEvent(tick=0, channel=5, data=[33, 100]),\r\n",
      "   midi.NoteOnEvent(tick=192, channel=5, data=[33, 0]),\r\n",
      "   midi.NoteOnEvent(tick=0, channel=5, data=[35, 100]),\r\n",
      "   midi.NoteOnEvent(tick=288, channel=5, data=[35, 0]),\r\n",
      "   midi.NoteOnEvent(tick=0, channel=5, data=[37, 100]),\r\n",
      "   midi.NoteOnEvent(tick=48, channel=5, data=[37, 0]),\r\n",
      "   midi.NoteOnEvent(tick=0, channel=5, data=[39, 100]),\r\n",
      "   midi.NoteOnEvent(tick=48, channel=5, data=[39, 0]),\r\n",
      "   midi.NoteOnEvent(tick=0, channel=5, data=[40, 100]),\r\n",
      "   midi.NoteOnEvent(tick=96, channel=5, data=[40, 0]),\r\n",
      "   midi.NoteOnEvent(tick=0, channel=5, data=[42, 100]),\r\n",
      "   midi.NoteOnEvent(tick=96, channel=5, data=[42, 0]),\r\n",
      "   midi.NoteOnEvent(tick=0, channel=5, data=[43, 100]),\r\n",
      "   midi.NoteOnEvent(tick=96, channel=5, data=[43, 0]),\r\n",
      "   midi.NoteOnEvent(tick=0, channel=5, data=[45, 100]),\r\n",
      "   midi.NoteOnEvent(tick=96, channel=5, data=[45, 0]),\r\n",
      "   midi.NoteOnEvent(tick=0, channel=5, data=[47, 100]),\r\n",
      "   midi.NoteOnEvent(tick=192, channel=5, data=[47, 0]),\r\n",
      "   midi.NoteOnEvent(tick=0, channel=5, data=[45, 100]),\r\n",
      "   midi.NoteOnEvent(tick=192, channel=5, data=[45, 0]),\r\n",
      "   midi.NoteOnEvent(tick=0, channel=5, data=[47, 100]),\r\n",
      "   midi.NoteOnEvent(tick=192, channel=5, data=[47, 0]),\r\n",
      "   midi.NoteOnEvent(tick=0, channel=5, data=[35, 100]),\r\n",
      "   midi.NoteOnEvent(tick=192, channel=5, data=[35, 0]),\r\n",
      "   midi.NoteOnEvent(tick=0, channel=5, data=[45, 100]),\r\n",
      "   midi.NoteOnEvent(tick=192, channel=5, data=[45, 0]),\r\n",
      "   midi.NoteOnEvent(tick=0, channel=5, data=[47, 100]),\r\n",
      "   midi.NoteOnEvent(tick=192, channel=5, data=[47, 0]),\r\n",
      "   midi.NoteOnEvent(tick=0, channel=5, data=[45, 100]),\r\n",
      "   midi.NoteOnEvent(tick=192, channel=5, data=[45, 0]),\r\n",
      "   midi.NoteOnEvent(tick=0, channel=5, data=[43, 100]),\r\n",
      "   midi.NoteOnEvent(tick=192, channel=5, data=[43, 0]),\r\n",
      "   midi.NoteOnEvent(tick=0, channel=5, data=[42, 100]),\r\n",
      "   midi.NoteOnEvent(tick=192, channel=5, data=[42, 0]),\r\n",
      "   midi.NoteOnEvent(tick=0, channel=5, data=[43, 100]),\r\n",
      "   midi.NoteOnEvent(tick=192, channel=5, data=[43, 0]),\r\n",
      "   midi.NoteOnEvent(tick=0, channel=5, data=[42, 100]),\r\n",
      "   midi.NoteOnEvent(tick=192, channel=5, data=[42, 0]),\r\n",
      "   midi.NoteOnEvent(tick=0, channel=5, data=[40, 100]),\r\n",
      "   midi.NoteOnEvent(tick=192, channel=5, data=[40, 0]),\r\n",
      "   midi.NoteOnEvent(tick=0, channel=5, data=[39, 100]),\r\n",
      "   midi.NoteOnEvent(tick=192, channel=5, data=[39, 0]),\r\n",
      "   midi.NoteOnEvent(tick=0, channel=5, data=[40, 100]),\r\n",
      "   midi.NoteOnEvent(tick=192, channel=5, data=[40, 0]),\r\n",
      "   midi.NoteOnEvent(tick=0, channel=5, data=[42, 100]),\r\n",
      "   midi.NoteOnEvent(tick=192, channel=5, data=[42, 0]),\r\n",
      "   midi.NoteOnEvent(tick=0, channel=5, data=[43, 100]),\r\n",
      "   midi.NoteOnEvent(tick=192, channel=5, data=[43, 0]),\r\n",
      "   midi.NoteOnEvent(tick=0, channel=5, data=[45, 100]),\r\n",
      "   midi.NoteOnEvent(tick=192, channel=5, data=[45, 0]),\r\n",
      "   midi.NoteOnEvent(tick=0, channel=5, data=[47, 100]),\r\n",
      "   midi.NoteOnEvent(tick=192, channel=5, data=[47, 0]),\r\n",
      "   midi.NoteOnEvent(tick=0, channel=5, data=[48, 100]),\r\n",
      "   midi.NoteOnEvent(tick=192, channel=5, data=[48, 0]),\r\n",
      "   midi.NoteOnEvent(tick=0, channel=5, data=[42, 100]),\r\n",
      "   midi.NoteOnEvent(tick=192, channel=5, data=[42, 0]),\r\n",
      "   midi.NoteOnEvent(tick=0, channel=5, data=[47, 100]),\r\n",
      "   midi.NoteOnEvent(tick=192, channel=5, data=[47, 0]),\r\n",
      "   midi.NoteOnEvent(tick=0, channel=5, data=[45, 100]),\r\n",
      "   midi.NoteOnEvent(tick=96, channel=5, data=[45, 0]),\r\n",
      "   midi.NoteOnEvent(tick=0, channel=5, data=[43, 100]),\r\n",
      "   midi.NoteOnEvent(tick=96, channel=5, data=[43, 0]),\r\n",
      "   midi.NoteOnEvent(tick=0, channel=5, data=[42, 100]),\r\n",
      "   midi.NoteOnEvent(tick=192, channel=5, data=[42, 0]),\r\n",
      "   midi.NoteOnEvent(tick=0, channel=5, data=[40, 100]),\r\n",
      "   midi.NoteOnEvent(tick=192, channel=5, data=[40, 0]),\r\n",
      "   midi.NoteOnEvent(tick=0, channel=5, data=[39, 100]),\r\n",
      "   midi.NoteOnEvent(tick=192, channel=5, data=[39, 0]),\r\n",
      "   midi.NoteOnEvent(tick=0, channel=5, data=[37, 100]),\r\n",
      "   midi.NoteOnEvent(tick=192, channel=5, data=[37, 0]),\r\n",
      "   midi.NoteOnEvent(tick=0, channel=5, data=[35, 100]),\r\n",
      "   midi.NoteOnEvent(tick=192, channel=5, data=[35, 0]),\r\n",
      "   midi.NoteOnEvent(tick=0, channel=5, data=[33, 100]),\r\n",
      "   midi.NoteOnEvent(tick=192, channel=5, data=[33, 0]),\r\n",
      "   midi.NoteOnEvent(tick=0, channel=5, data=[31, 100]),\r\n",
      "   midi.NoteOnEvent(tick=192, channel=5, data=[31, 0]),\r\n",
      "   midi.NoteOnEvent(tick=0, channel=5, data=[36, 100]),\r\n",
      "   midi.NoteOnEvent(tick=192, channel=5, data=[36, 0]),\r\n",
      "   midi.NoteOnEvent(tick=0, channel=5, data=[33, 100]),\r\n",
      "   midi.NoteOnEvent(tick=192, channel=5, data=[33, 0]),\r\n",
      "   midi.NoteOnEvent(tick=0, channel=5, data=[35, 100]),\r\n",
      "   midi.NoteOnEvent(tick=192, channel=5, data=[35, 0]),\r\n",
      "   midi.NoteOnEvent(tick=0, channel=5, data=[24, 100]),\r\n",
      "   midi.NoteOnEvent(tick=384, channel=5, data=[24, 0]),\r\n",
      "   midi.NoteOnEvent(tick=192, channel=5, data=[48, 100]),\r\n",
      "   midi.NoteOnEvent(tick=192, channel=5, data=[48, 0]),\r\n",
      "   midi.NoteOnEvent(tick=0, channel=5, data=[39, 100]),\r\n",
      "   midi.NoteOnEvent(tick=192, channel=5, data=[39, 0]),\r\n",
      "   midi.NoteOnEvent(tick=0, channel=5, data=[39, 100]),\r\n",
      "   midi.NoteOnEvent(tick=192, channel=5, data=[39, 0]),\r\n",
      "   midi.NoteOnEvent(tick=0, channel=5, data=[39, 100]),\r\n",
      "   midi.NoteOnEvent(tick=192, channel=5, data=[39, 0]),\r\n",
      "   midi.NoteOnEvent(tick=0, channel=5, data=[42, 100]),\r\n",
      "   midi.NoteOnEvent(tick=192, channel=5, data=[42, 0]),\r\n",
      "   midi.NoteOnEvent(tick=0, channel=5, data=[33, 100]),\r\n",
      "   midi.NoteOnEvent(tick=192, channel=5, data=[33, 0]),\r\n",
      "   midi.NoteOnEvent(tick=0, channel=5, data=[33, 100]),\r\n",
      "   midi.NoteOnEvent(tick=192, channel=5, data=[33, 0]),\r\n",
      "   midi.NoteOnEvent(tick=0, channel=5, data=[33, 100]),\r\n",
      "   midi.NoteOnEvent(tick=192, channel=5, data=[33, 0]),\r\n",
      "   midi.NoteOnEvent(tick=0, channel=5, data=[36, 100]),\r\n",
      "   midi.NoteOnEvent(tick=192, channel=5, data=[36, 0]),\r\n",
      "   midi.NoteOnEvent(tick=0, channel=5, data=[30, 100]),\r\n",
      "   midi.NoteOnEvent(tick=192, channel=5, data=[30, 0]),\r\n",
      "   midi.NoteOnEvent(tick=0, channel=5, data=[31, 100]),\r\n",
      "   midi.NoteOnEvent(tick=96, channel=5, data=[31, 0]),\r\n",
      "   midi.NoteOnEvent(tick=0, channel=5, data=[33, 100]),\r\n",
      "   midi.NoteOnEvent(tick=96, channel=5, data=[33, 0]),\r\n",
      "   midi.NoteOnEvent(tick=0, channel=5, data=[35, 100]),\r\n",
      "   midi.NoteOnEvent(tick=192, channel=5, data=[35, 0]),\r\n",
      "   midi.NoteOnEvent(tick=0, channel=5, data=[35, 100]),\r\n",
      "   midi.NoteOnEvent(tick=192, channel=5, data=[35, 0]),\r\n",
      "   midi.NoteOnEvent(tick=0, channel=5, data=[28, 100]),\r\n",
      "   midi.NoteOnEvent(tick=192, channel=5, data=[28, 0]),\r\n",
      "   midi.NoteOnEvent(tick=0, channel=5, data=[40, 100]),\r\n",
      "   midi.NoteOnEvent(tick=96, channel=5, data=[40, 0]),\r\n",
      "   midi.NoteOnEvent(tick=0, channel=5, data=[39, 100]),\r\n",
      "   midi.NoteOnEvent(tick=96, channel=5, data=[39, 0]),\r\n",
      "   midi.NoteOnEvent(tick=0, channel=5, data=[40, 100]),\r\n",
      "   midi.NoteOnEvent(tick=192, channel=5, data=[40, 0]),\r\n",
      "   midi.NoteOnEvent(tick=0, channel=5, data=[42, 100]),\r\n",
      "   midi.NoteOnEvent(tick=192, channel=5, data=[42, 0]),\r\n",
      "   midi.NoteOnEvent(tick=0, channel=5, data=[43, 100]),\r\n",
      "   midi.NoteOnEvent(tick=384, channel=5, data=[43, 0]),\r\n",
      "   midi.NoteOnEvent(tick=192, channel=5, data=[40, 100]),\r\n",
      "   midi.NoteOnEvent(tick=192, channel=5, data=[40, 0]),\r\n",
      "   midi.NoteOnEvent(tick=0, channel=5, data=[47, 100]),\r\n",
      "   midi.NoteOnEvent(tick=384, channel=5, data=[47, 0]),\r\n",
      "   midi.NoteOnEvent(tick=192, channel=5, data=[35, 100]),\r\n",
      "   midi.NoteOnEvent(tick=192, channel=5, data=[35, 0]),\r\n",
      "   midi.NoteOnEvent(tick=0, channel=5, data=[27, 100]),\r\n",
      "   midi.NoteOnEvent(tick=384, channel=5, data=[27, 0]),\r\n",
      "   midi.NoteOnEvent(tick=192, channel=5, data=[35, 100]),\r\n",
      "   midi.NoteOnEvent(tick=192, channel=5, data=[35, 0]),\r\n",
      "   midi.NoteOnEvent(tick=0, channel=5, data=[40, 100]),\r\n",
      "   midi.NoteOnEvent(tick=384, channel=5, data=[40, 0]),\r\n",
      "   midi.NoteOnEvent(tick=1344, channel=5, data=[40, 100]),\r\n",
      "   midi.NoteOnEvent(tick=192, channel=5, data=[40, 0]),\r\n",
      "   midi.NoteOnEvent(tick=0, channel=5, data=[28, 100]),\r\n",
      "   midi.NoteOnEvent(tick=192, channel=5, data=[28, 0]),\r\n",
      "   midi.NoteOnEvent(tick=0, channel=5, data=[40, 100]),\r\n",
      "   midi.NoteOnEvent(tick=192, channel=5, data=[40, 0]),\r\n",
      "   midi.NoteOnEvent(tick=0, channel=5, data=[33, 100]),\r\n",
      "   midi.NoteOnEvent(tick=384, channel=5, data=[33, 0]),\r\n",
      "   midi.NoteOnEvent(tick=576, channel=5, data=[45, 100]),\r\n",
      "   midi.NoteOnEvent(tick=192, channel=5, data=[45, 0]),\r\n",
      "   midi.NoteOnEvent(tick=0, channel=5, data=[33, 100]),\r\n",
      "   midi.NoteOnEvent(tick=192, channel=5, data=[33, 0]),\r\n",
      "   midi.NoteOnEvent(tick=0, channel=5, data=[45, 100]),\r\n",
      "   midi.NoteOnEvent(tick=192, channel=5, data=[45, 0]),\r\n",
      "   midi.NoteOnEvent(tick=0, channel=5, data=[38, 100]),\r\n",
      "   midi.NoteOnEvent(tick=384, channel=5, data=[38, 0]),\r\n",
      "   midi.NoteOnEvent(tick=576, channel=5, data=[38, 100]),\r\n",
      "   midi.NoteOnEvent(tick=192, channel=5, data=[38, 0]),\r\n",
      "   midi.NoteOnEvent(tick=0, channel=5, data=[26, 100]),\r\n",
      "   midi.NoteOnEvent(tick=192, channel=5, data=[26, 0]),\r\n",
      "   midi.NoteOnEvent(tick=0, channel=5, data=[38, 100]),\r\n",
      "   midi.NoteOnEvent(tick=192, channel=5, data=[38, 0]),\r\n",
      "   midi.NoteOnEvent(tick=0, channel=5, data=[31, 100]),\r\n",
      "   midi.NoteOnEvent(tick=384, channel=5, data=[31, 0]),\r\n",
      "   midi.NoteOnEvent(tick=576, channel=5, data=[43, 100]),\r\n",
      "   midi.NoteOnEvent(tick=192, channel=5, data=[43, 0]),\r\n",
      "   midi.NoteOnEvent(tick=0, channel=5, data=[31, 100]),\r\n",
      "   midi.NoteOnEvent(tick=192, channel=5, data=[31, 0]),\r\n",
      "   midi.NoteOnEvent(tick=0, channel=5, data=[43, 100]),\r\n",
      "   midi.NoteOnEvent(tick=192, channel=5, data=[43, 0]),\r\n",
      "   midi.NoteOnEvent(tick=0, channel=5, data=[36, 100]),\r\n",
      "   midi.NoteOnEvent(tick=384, channel=5, data=[36, 0]),\r\n",
      "   midi.NoteOnEvent(tick=0, channel=5, data=[46, 100]),\r\n",
      "   midi.NoteOnEvent(tick=384, channel=5, data=[46, 0]),\r\n",
      "   midi.NoteOnEvent(tick=0, channel=5, data=[45, 100]),\r\n",
      "   midi.NoteOnEvent(tick=384, channel=5, data=[45, 0]),\r\n",
      "   midi.NoteOnEvent(tick=0, channel=5, data=[43, 100]),\r\n",
      "   midi.NoteOnEvent(tick=384, channel=5, data=[43, 0]),\r\n",
      "   midi.NoteOnEvent(tick=0, channel=5, data=[41, 100]),\r\n",
      "   midi.NoteOnEvent(tick=192, channel=5, data=[41, 0]),\r\n",
      "   midi.NoteOnEvent(tick=0, channel=5, data=[40, 100]),\r\n",
      "   midi.NoteOnEvent(tick=192, channel=5, data=[40, 0]),\r\n",
      "   midi.NoteOnEvent(tick=0, channel=5, data=[38, 100]),\r\n",
      "   midi.NoteOnEvent(tick=192, channel=5, data=[38, 0]),\r\n",
      "   midi.NoteOnEvent(tick=0, channel=5, data=[41, 100]),\r\n",
      "   midi.NoteOnEvent(tick=192, channel=5, data=[41, 0]),\r\n",
      "   midi.NoteOnEvent(tick=0, channel=5, data=[43, 100]),\r\n",
      "   midi.NoteOnEvent(tick=192, channel=5, data=[43, 0]),\r\n",
      "   midi.NoteOnEvent(tick=0, channel=5, data=[41, 100]),\r\n",
      "   midi.NoteOnEvent(tick=192, channel=5, data=[41, 0]),\r\n",
      "   midi.NoteOnEvent(tick=0, channel=5, data=[40, 100]),\r\n",
      "   midi.NoteOnEvent(tick=192, channel=5, data=[40, 0]),\r\n",
      "   midi.NoteOnEvent(tick=0, channel=5, data=[43, 100]),\r\n",
      "   midi.NoteOnEvent(tick=192, channel=5, data=[43, 0]),\r\n",
      "   midi.NoteOnEvent(tick=0, channel=5, data=[45, 100]),\r\n",
      "   midi.NoteOnEvent(tick=192, channel=5, data=[45, 0]),\r\n",
      "   midi.NoteOnEvent(tick=0, channel=5, data=[47, 100]),\r\n",
      "   midi.NoteOnEvent(tick=192, channel=5, data=[47, 0]),\r\n",
      "   midi.NoteOnEvent(tick=0, channel=5, data=[49, 100]),\r\n",
      "   midi.NoteOnEvent(tick=192, channel=5, data=[49, 0]),\r\n",
      "   midi.NoteOnEvent(tick=0, channel=5, data=[45, 100]),\r\n",
      "   midi.NoteOnEvent(tick=192, channel=5, data=[45, 0]),\r\n",
      "   midi.NoteOnEvent(tick=0, channel=5, data=[41, 100]),\r\n",
      "   midi.NoteOnEvent(tick=192, channel=5, data=[41, 0]),\r\n",
      "   midi.NoteOnEvent(tick=0, channel=5, data=[45, 100]),\r\n",
      "   midi.NoteOnEvent(tick=192, channel=5, data=[45, 0]),\r\n",
      "   midi.NoteOnEvent(tick=0, channel=5, data=[41, 100]),\r\n",
      "   midi.NoteOnEvent(tick=192, channel=5, data=[41, 0]),\r\n",
      "   midi.NoteOnEvent(tick=0, channel=5, data=[38, 100]),\r\n",
      "   midi.NoteOnEvent(tick=192, channel=5, data=[38, 0]),\r\n",
      "   midi.NoteOnEvent(tick=0, channel=5, data=[43, 100]),\r\n",
      "   midi.NoteOnEvent(tick=192, channel=5, data=[43, 0]),\r\n",
      "   midi.NoteOnEvent(tick=0, channel=5, data=[46, 100]),\r\n",
      "   midi.NoteOnEvent(tick=192, channel=5, data=[46, 0]),\r\n",
      "   midi.NoteOnEvent(tick=0, channel=5, data=[43, 100]),\r\n",
      "   midi.NoteOnEvent(tick=192, channel=5, data=[43, 0]),\r\n",
      "   midi.NoteOnEvent(tick=0, channel=5, data=[38, 100]),\r\n",
      "   midi.NoteOnEvent(tick=192, channel=5, data=[38, 0]),\r\n",
      "   midi.NoteOnEvent(tick=0, channel=5, data=[50, 100]),\r\n",
      "   midi.NoteOnEvent(tick=192, channel=5, data=[50, 0]),\r\n",
      "   midi.NoteOnEvent(tick=0, channel=5, data=[38, 100]),\r\n",
      "   midi.NoteOnEvent(tick=192, channel=5, data=[38, 0]),\r\n",
      "   midi.NoteOnEvent(tick=0, channel=5, data=[45, 100]),\r\n",
      "   midi.NoteOnEvent(tick=192, channel=5, data=[45, 0]),\r\n",
      "   midi.NoteOnEvent(tick=0, channel=5, data=[33, 100]),\r\n",
      "   midi.NoteOnEvent(tick=192, channel=5, data=[33, 0]),\r\n",
      "   midi.NoteOnEvent(tick=0, channel=5, data=[38, 100]),\r\n",
      "   midi.NoteOnEvent(tick=192, channel=5, data=[38, 0]),\r\n",
      "   midi.NoteOnEvent(tick=0, channel=5, data=[26, 100]),\r\n",
      "   midi.NoteOnEvent(tick=192, channel=5, data=[26, 0]),\r\n",
      "   midi.NoteOnEvent(tick=2112, channel=5, data=[43, 100]),\r\n",
      "   midi.NoteOnEvent(tick=96, channel=5, data=[43, 0]),\r\n",
      "   midi.NoteOnEvent(tick=0, channel=5, data=[45, 100]),\r\n",
      "   midi.NoteOnEvent(tick=96, channel=5, data=[45, 0]),\r\n",
      "   midi.NoteOnEvent(tick=0, channel=5, data=[43, 100]),\r\n",
      "   midi.NoteOnEvent(tick=96, channel=5, data=[43, 0]),\r\n",
      "   midi.NoteOnEvent(tick=0, channel=5, data=[41, 100]),\r\n",
      "   midi.NoteOnEvent(tick=96, channel=5, data=[41, 0]),\r\n",
      "   midi.NoteOnEvent(tick=0, channel=5, data=[40, 100]),\r\n",
      "   midi.NoteOnEvent(tick=96, channel=5, data=[40, 0]),\r\n",
      "   midi.NoteOnEvent(tick=0, channel=5, data=[38, 100]),\r\n",
      "   midi.NoteOnEvent(tick=96, channel=5, data=[38, 0]),\r\n",
      "   midi.NoteOnEvent(tick=0, channel=5, data=[36, 100]),\r\n",
      "   midi.NoteOnEvent(tick=192, channel=5, data=[36, 0]),\r\n",
      "   midi.NoteOnEvent(tick=0, channel=5, data=[48, 100]),\r\n",
      "   midi.NoteOnEvent(tick=192, channel=5, data=[48, 0]),\r\n",
      "   midi.NoteOnEvent(tick=1344, channel=5, data=[41, 100]),\r\n",
      "   midi.NoteOnEvent(tick=96, channel=5, data=[41, 0]),\r\n",
      "   midi.NoteOnEvent(tick=0, channel=5, data=[43, 100]),\r\n",
      "   midi.NoteOnEvent(tick=96, channel=5, data=[43, 0]),\r\n",
      "   midi.NoteOnEvent(tick=0, channel=5, data=[41, 100]),\r\n",
      "   midi.NoteOnEvent(tick=96, channel=5, data=[41, 0]),\r\n",
      "   midi.NoteOnEvent(tick=0, channel=5, data=[40, 100]),\r\n",
      "   midi.NoteOnEvent(tick=96, channel=5, data=[40, 0]),\r\n",
      "   midi.NoteOnEvent(tick=0, channel=5, data=[38, 100]),\r\n",
      "   midi.NoteOnEvent(tick=96, channel=5, data=[38, 0]),\r\n",
      "   midi.NoteOnEvent(tick=0, channel=5, data=[36, 100]),\r\n",
      "   midi.NoteOnEvent(tick=96, channel=5, data=[36, 0]),\r\n",
      "   midi.NoteOnEvent(tick=0, channel=5, data=[34, 100]),\r\n",
      "   midi.NoteOnEvent(tick=192, channel=5, data=[34, 0]),\r\n",
      "   midi.NoteOnEvent(tick=0, channel=5, data=[46, 100]),\r\n",
      "   midi.NoteOnEvent(tick=192, channel=5, data=[46, 0]),\r\n",
      "   midi.NoteOnEvent(tick=1344, channel=5, data=[40, 100]),\r\n",
      "   midi.NoteOnEvent(tick=96, channel=5, data=[40, 0]),\r\n",
      "   midi.NoteOnEvent(tick=0, channel=5, data=[41, 100]),\r\n",
      "   midi.NoteOnEvent(tick=96, channel=5, data=[41, 0]),\r\n",
      "   midi.NoteOnEvent(tick=0, channel=5, data=[40, 100]),\r\n",
      "   midi.NoteOnEvent(tick=96, channel=5, data=[40, 0]),\r\n",
      "   midi.NoteOnEvent(tick=0, channel=5, data=[38, 100]),\r\n",
      "   midi.NoteOnEvent(tick=96, channel=5, data=[38, 0]),\r\n",
      "   midi.NoteOnEvent(tick=0, channel=5, data=[37, 100]),\r\n",
      "   midi.NoteOnEvent(tick=96, channel=5, data=[37, 0]),\r\n",
      "   midi.NoteOnEvent(tick=0, channel=5, data=[35, 100]),\r\n",
      "   midi.NoteOnEvent(tick=96, channel=5, data=[35, 0]),\r\n",
      "   midi.NoteOnEvent(tick=0, channel=5, data=[33, 100]),\r\n",
      "   midi.NoteOnEvent(tick=192, channel=5, data=[33, 0]),\r\n",
      "   midi.NoteOnEvent(tick=0, channel=5, data=[45, 100]),\r\n",
      "   midi.NoteOnEvent(tick=192, channel=5, data=[45, 0]),\r\n",
      "   midi.NoteOnEvent(tick=1344, channel=5, data=[38, 100]),\r\n",
      "   midi.NoteOnEvent(tick=192, channel=5, data=[38, 0]),\r\n",
      "   midi.NoteOnEvent(tick=0, channel=5, data=[50, 100]),\r\n",
      "   midi.NoteOnEvent(tick=192, channel=5, data=[50, 0]),\r\n",
      "   midi.NoteOnEvent(tick=0, channel=5, data=[41, 100]),\r\n",
      "   midi.NoteOnEvent(tick=192, channel=5, data=[41, 0]),\r\n",
      "   midi.NoteOnEvent(tick=0, channel=5, data=[43, 100]),\r\n",
      "   midi.NoteOnEvent(tick=192, channel=5, data=[43, 0]),\r\n",
      "   midi.NoteOnEvent(tick=0, channel=5, data=[45, 100]),\r\n",
      "   midi.NoteOnEvent(tick=192, channel=5, data=[45, 0]),\r\n",
      "   midi.NoteOnEvent(tick=0, channel=5, data=[47, 100]),\r\n",
      "   midi.NoteOnEvent(tick=192, channel=5, data=[47, 0]),\r\n",
      "   midi.NoteOnEvent(tick=0, channel=5, data=[43, 100]),\r\n",
      "   midi.NoteOnEvent(tick=192, channel=5, data=[43, 0]),\r\n",
      "   midi.NoteOnEvent(tick=0, channel=5, data=[48, 100]),\r\n",
      "   midi.NoteOnEvent(tick=192, channel=5, data=[48, 0]),\r\n",
      "   midi.NoteOnEvent(tick=0, channel=5, data=[36, 100]),\r\n",
      "   midi.NoteOnEvent(tick=192, channel=5, data=[36, 0]),\r\n",
      "   midi.NoteOnEvent(tick=0, channel=5, data=[48, 100]),\r\n",
      "   midi.NoteOnEvent(tick=192, channel=5, data=[48, 0]),\r\n",
      "   midi.NoteOnEvent(tick=0, channel=5, data=[40, 100]),\r\n",
      "   midi.NoteOnEvent(tick=192, channel=5, data=[40, 0]),\r\n",
      "   midi.NoteOnEvent(tick=0, channel=5, data=[41, 100]),\r\n",
      "   midi.NoteOnEvent(tick=192, channel=5, data=[41, 0]),\r\n",
      "   midi.NoteOnEvent(tick=0, channel=5, data=[43, 100]),\r\n",
      "   midi.NoteOnEvent(tick=192, channel=5, data=[43, 0]),\r\n",
      "   midi.NoteOnEvent(tick=0, channel=5, data=[45, 100]),\r\n",
      "   midi.NoteOnEvent(tick=192, channel=5, data=[45, 0]),\r\n",
      "   midi.NoteOnEvent(tick=0, channel=5, data=[41, 100]),\r\n",
      "   midi.NoteOnEvent(tick=192, channel=5, data=[41, 0]),\r\n",
      "   midi.NoteOnEvent(tick=0, channel=5, data=[47, 100]),\r\n",
      "   midi.NoteOnEvent(tick=192, channel=5, data=[47, 0]),\r\n",
      "   midi.NoteOnEvent(tick=0, channel=5, data=[35, 100]),\r\n",
      "   midi.NoteOnEvent(tick=192, channel=5, data=[35, 0]),\r\n",
      "   midi.NoteOnEvent(tick=0, channel=5, data=[47, 100]),\r\n",
      "   midi.NoteOnEvent(tick=192, channel=5, data=[47, 0]),\r\n",
      "   midi.NoteOnEvent(tick=0, channel=5, data=[44, 100]),\r\n",
      "   midi.NoteOnEvent(tick=192, channel=5, data=[44, 0]),\r\n",
      "   midi.NoteOnEvent(tick=0, channel=5, data=[40, 100]),\r\n",
      "   midi.NoteOnEvent(tick=192, channel=5, data=[40, 0]),\r\n",
      "   midi.NoteOnEvent(tick=0, channel=5, data=[28, 100]),\r\n",
      "   midi.NoteOnEvent(tick=192, channel=5, data=[28, 0]),\r\n",
      "   midi.NoteOnEvent(tick=576, channel=5, data=[33, 100]),\r\n",
      "   midi.NoteOnEvent(tick=192, channel=5, data=[33, 0]),\r\n",
      "   midi.NoteOnEvent(tick=0, channel=5, data=[45, 100]),\r\n",
      "   midi.NoteOnEvent(tick=384, channel=5, data=[45, 0]),\r\n",
      "   midi.NoteOnEvent(tick=192, channel=5, data=[33, 100]),\r\n",
      "   midi.NoteOnEvent(tick=192, channel=5, data=[33, 0]),\r\n",
      "   midi.NoteOnEvent(tick=0, channel=5, data=[45, 100]),\r\n",
      "   midi.NoteOnEvent(tick=384, channel=5, data=[45, 0]),\r\n",
      "   midi.NoteOnEvent(tick=192, channel=5, data=[33, 100]),\r\n",
      "   midi.NoteOnEvent(tick=192, channel=5, data=[33, 0]),\r\n",
      "   midi.NoteOnEvent(tick=0, channel=5, data=[40, 100]),\r\n",
      "   midi.NoteOnEvent(tick=192, channel=5, data=[40, 0]),\r\n",
      "   midi.NoteOnEvent(tick=0, channel=5, data=[28, 100]),\r\n",
      "   midi.NoteOnEvent(tick=192, channel=5, data=[28, 0]),\r\n",
      "   midi.NoteOnEvent(tick=0, channel=5, data=[45, 100]),\r\n",
      "   midi.NoteOnEvent(tick=192, channel=5, data=[45, 0]),\r\n",
      "   midi.NoteOnEvent(tick=0, channel=5, data=[33, 100]),\r\n",
      "   midi.NoteOnEvent(tick=192, channel=5, data=[33, 0]),\r\n",
      "   midi.NoteOnEvent(tick=0, channel=5, data=[36, 100]),\r\n",
      "   midi.NoteOnEvent(tick=192, channel=5, data=[36, 0]),\r\n",
      "   midi.NoteOnEvent(tick=0, channel=5, data=[40, 100]),\r\n",
      "   midi.NoteOnEvent(tick=192, channel=5, data=[40, 0]),\r\n",
      "   midi.NoteOnEvent(tick=0, channel=5, data=[45, 100]),\r\n",
      "   midi.NoteOnEvent(tick=384, channel=5, data=[45, 0]),\r\n",
      "   midi.NoteOnEvent(tick=0, channel=5, data=[43, 100]),\r\n",
      "   midi.NoteOnEvent(tick=384, channel=5, data=[43, 0]),\r\n",
      "   midi.NoteOnEvent(tick=0, channel=5, data=[41, 100]),\r\n",
      "   midi.NoteOnEvent(tick=384, channel=5, data=[41, 0]),\r\n",
      "   midi.NoteOnEvent(tick=0, channel=5, data=[40, 100]),\r\n",
      "   midi.NoteOnEvent(tick=384, channel=5, data=[40, 0]),\r\n",
      "   midi.NoteOnEvent(tick=0, channel=5, data=[38, 100]),\r\n",
      "   midi.NoteOnEvent(tick=384, channel=5, data=[38, 0]),\r\n",
      "   midi.NoteOnEvent(tick=0, channel=5, data=[36, 100]),\r\n",
      "   midi.NoteOnEvent(tick=384, channel=5, data=[36, 0]),\r\n",
      "   midi.NoteOnEvent(tick=0, channel=5, data=[34, 100]),\r\n",
      "   midi.NoteOnEvent(tick=384, channel=5, data=[34, 0]),\r\n",
      "   midi.NoteOnEvent(tick=0, channel=5, data=[33, 100]),\r\n",
      "   midi.NoteOnEvent(tick=384, channel=5, data=[33, 0]),\r\n",
      "   midi.NoteOnEvent(tick=0, channel=5, data=[31, 100]),\r\n",
      "   midi.NoteOnEvent(tick=384, channel=5, data=[31, 0]),\r\n",
      "   midi.NoteOnEvent(tick=0, channel=5, data=[29, 100]),\r\n",
      "   midi.NoteOnEvent(tick=384, channel=5, data=[29, 0]),\r\n",
      "   midi.NoteOnEvent(tick=0, channel=5, data=[27, 100]),\r\n",
      "   midi.NoteOnEvent(tick=384, channel=5, data=[27, 0]),\r\n",
      "   midi.NoteOnEvent(tick=0, channel=5, data=[26, 100]),\r\n",
      "   midi.NoteOnEvent(tick=384, channel=5, data=[26, 0]),\r\n",
      "   midi.NoteOnEvent(tick=0, channel=5, data=[24, 100]),\r\n",
      "   midi.NoteOnEvent(tick=192, channel=5, data=[24, 0]),\r\n",
      "   midi.NoteOnEvent(tick=0, channel=5, data=[24, 100]),\r\n",
      "   midi.NoteOnEvent(tick=192, channel=5, data=[24, 0]),\r\n",
      "   midi.NoteOnEvent(tick=0, channel=5, data=[24, 100]),\r\n",
      "   midi.NoteOnEvent(tick=192, channel=5, data=[24, 0]),\r\n",
      "   midi.NoteOnEvent(tick=0, channel=5, data=[24, 100]),\r\n",
      "   midi.NoteOnEvent(tick=192, channel=5, data=[24, 0]),\r\n",
      "   midi.NoteOnEvent(tick=0, channel=5, data=[24, 100]),\r\n",
      "   midi.NoteOnEvent(tick=192, channel=5, data=[24, 0]),\r\n",
      "   midi.NoteOnEvent(tick=0, channel=5, data=[24, 100]),\r\n",
      "   midi.NoteOnEvent(tick=192, channel=5, data=[24, 0]),\r\n",
      "   midi.NoteOnEvent(tick=0, channel=5, data=[24, 100]),\r\n",
      "   midi.NoteOnEvent(tick=192, channel=5, data=[24, 0]),\r\n",
      "   midi.NoteOnEvent(tick=0, channel=5, data=[24, 100]),\r\n",
      "   midi.NoteOnEvent(tick=192, channel=5, data=[24, 0]),\r\n",
      "   midi.NoteOnEvent(tick=0, channel=5, data=[24, 100]),\r\n",
      "   midi.NoteOnEvent(tick=192, channel=5, data=[24, 0]),\r\n",
      "   midi.NoteOnEvent(tick=0, channel=5, data=[24, 100]),\r\n",
      "   midi.NoteOnEvent(tick=192, channel=5, data=[24, 0]),\r\n",
      "   midi.NoteOnEvent(tick=0, channel=5, data=[36, 100]),\r\n",
      "   midi.NoteOnEvent(tick=192, channel=5, data=[36, 0]),\r\n",
      "   midi.NoteOnEvent(tick=0, channel=5, data=[36, 100]),\r\n",
      "   midi.NoteOnEvent(tick=192, channel=5, data=[36, 0]),\r\n",
      "   midi.NoteOnEvent(tick=0, channel=5, data=[34, 100]),\r\n",
      "   midi.NoteOnEvent(tick=192, channel=5, data=[34, 0]),\r\n",
      "   midi.NoteOnEvent(tick=0, channel=5, data=[50, 100]),\r\n",
      "   midi.NoteOnEvent(tick=192, channel=5, data=[50, 0]),\r\n",
      "   midi.NoteOnEvent(tick=0, channel=5, data=[46, 100]),\r\n",
      "   midi.NoteOnEvent(tick=192, channel=5, data=[46, 0]),\r\n",
      "   midi.NoteOnEvent(tick=0, channel=5, data=[43, 100]),\r\n",
      "   midi.NoteOnEvent(tick=192, channel=5, data=[43, 0]),\r\n",
      "   midi.NoteOnEvent(tick=0, channel=5, data=[31, 100]),\r\n",
      "   midi.NoteOnEvent(tick=192, channel=5, data=[31, 0]),\r\n",
      "   midi.NoteOnEvent(tick=0, channel=5, data=[31, 100]),\r\n",
      "   midi.NoteOnEvent(tick=192, channel=5, data=[31, 0]),\r\n",
      "   midi.NoteOnEvent(tick=0, channel=5, data=[31, 100]),\r\n",
      "   midi.NoteOnEvent(tick=192, channel=5, data=[31, 0]),\r\n",
      "   midi.NoteOnEvent(tick=0, channel=5, data=[31, 100]),\r\n",
      "   midi.NoteOnEvent(tick=192, channel=5, data=[31, 0]),\r\n",
      "   midi.NoteOnEvent(tick=0, channel=5, data=[29, 100]),\r\n",
      "   midi.NoteOnEvent(tick=192, channel=5, data=[29, 0]),\r\n",
      "   midi.NoteOnEvent(tick=0, channel=5, data=[45, 100]),\r\n",
      "   midi.NoteOnEvent(tick=192, channel=5, data=[45, 0]),\r\n",
      "   midi.NoteOnEvent(tick=0, channel=5, data=[41, 100]),\r\n",
      "   midi.NoteOnEvent(tick=192, channel=5, data=[41, 0]),\r\n",
      "   midi.NoteOnEvent(tick=0, channel=5, data=[38, 100]),\r\n",
      "   midi.NoteOnEvent(tick=192, channel=5, data=[38, 0]),\r\n",
      "   midi.NoteOnEvent(tick=0, channel=5, data=[26, 100]),\r\n",
      "   midi.NoteOnEvent(tick=192, channel=5, data=[26, 0]),\r\n",
      "   midi.NoteOnEvent(tick=0, channel=5, data=[26, 100]),\r\n",
      "   midi.NoteOnEvent(tick=192, channel=5, data=[26, 0]),\r\n",
      "   midi.NoteOnEvent(tick=0, channel=5, data=[26, 100]),\r\n",
      "   midi.NoteOnEvent(tick=192, channel=5, data=[26, 0]),\r\n",
      "   midi.NoteOnEvent(tick=0, channel=5, data=[26, 100]),\r\n",
      "   midi.NoteOnEvent(tick=192, channel=5, data=[26, 0]),\r\n",
      "   midi.NoteOnEvent(tick=0, channel=5, data=[24, 100]),\r\n",
      "   midi.NoteOnEvent(tick=192, channel=5, data=[24, 0]),\r\n",
      "   midi.NoteOnEvent(tick=0, channel=5, data=[38, 100]),\r\n",
      "   midi.NoteOnEvent(tick=192, channel=5, data=[38, 0]),\r\n",
      "   midi.NoteOnEvent(tick=0, channel=5, data=[36, 100]),\r\n",
      "   midi.NoteOnEvent(tick=192, channel=5, data=[36, 0]),\r\n",
      "   midi.NoteOnEvent(tick=0, channel=5, data=[35, 100]),\r\n",
      "   midi.NoteOnEvent(tick=192, channel=5, data=[35, 0]),\r\n",
      "   midi.NoteOnEvent(tick=0, channel=5, data=[33, 100]),\r\n",
      "   midi.NoteOnEvent(tick=192, channel=5, data=[33, 0]),\r\n",
      "   midi.NoteOnEvent(tick=0, channel=5, data=[45, 100]),\r\n",
      "   midi.NoteOnEvent(tick=192, channel=5, data=[45, 0]),\r\n",
      "   midi.NoteOnEvent(tick=0, channel=5, data=[43, 100]),\r\n",
      "   midi.NoteOnEvent(tick=192, channel=5, data=[43, 0]),\r\n",
      "   midi.NoteOnEvent(tick=0, channel=5, data=[41, 100]),\r\n",
      "   midi.NoteOnEvent(tick=192, channel=5, data=[41, 0]),\r\n",
      "   midi.NoteOnEvent(tick=0, channel=5, data=[40, 100]),\r\n",
      "   midi.NoteOnEvent(tick=192, channel=5, data=[40, 0]),\r\n",
      "   midi.NoteOnEvent(tick=0, channel=5, data=[41, 100]),\r\n",
      "   midi.NoteOnEvent(tick=192, channel=5, data=[41, 0]),\r\n",
      "   midi.NoteOnEvent(tick=0, channel=5, data=[40, 100]),\r\n",
      "   midi.NoteOnEvent(tick=192, channel=5, data=[40, 0]),\r\n",
      "   midi.NoteOnEvent(tick=0, channel=5, data=[38, 100]),\r\n",
      "   midi.NoteOnEvent(tick=192, channel=5, data=[38, 0]),\r\n",
      "   midi.NoteOnEvent(tick=0, channel=5, data=[36, 100]),\r\n",
      "   midi.NoteOnEvent(tick=192, channel=5, data=[36, 0]),\r\n",
      "   midi.NoteOnEvent(tick=0, channel=5, data=[40, 100]),\r\n",
      "   midi.NoteOnEvent(tick=192, channel=5, data=[40, 0]),\r\n",
      "   midi.NoteOnEvent(tick=0, channel=5, data=[36, 100]),\r\n",
      "   midi.NoteOnEvent(tick=192, channel=5, data=[36, 0]),\r\n",
      "   midi.NoteOnEvent(tick=0, channel=5, data=[33, 100]),\r\n",
      "   midi.NoteOnEvent(tick=192, channel=5, data=[33, 0]),\r\n",
      "   midi.NoteOnEvent(tick=0, channel=5, data=[38, 100]),\r\n",
      "   midi.NoteOnEvent(tick=192, channel=5, data=[38, 0]),\r\n",
      "   midi.NoteOnEvent(tick=0, channel=5, data=[41, 100]),\r\n",
      "   midi.NoteOnEvent(tick=192, channel=5, data=[41, 0]),\r\n",
      "   midi.NoteOnEvent(tick=0, channel=5, data=[38, 100]),\r\n",
      "   midi.NoteOnEvent(tick=192, channel=5, data=[38, 0]),\r\n",
      "   midi.NoteOnEvent(tick=0, channel=5, data=[35, 100]),\r\n",
      "   midi.NoteOnEvent(tick=192, channel=5, data=[35, 0]),\r\n",
      "   midi.NoteOnEvent(tick=0, channel=5, data=[36, 100]),\r\n",
      "   midi.NoteOnEvent(tick=192, channel=5, data=[36, 0]),\r\n",
      "   midi.NoteOnEvent(tick=0, channel=5, data=[33, 100]),\r\n",
      "   midi.NoteOnEvent(tick=192, channel=5, data=[33, 0]),\r\n",
      "   midi.NoteOnEvent(tick=0, channel=5, data=[40, 100]),\r\n",
      "   midi.NoteOnEvent(tick=192, channel=5, data=[40, 0]),\r\n",
      "   midi.NoteOnEvent(tick=0, channel=5, data=[28, 100]),\r\n",
      "   midi.NoteOnEvent(tick=192, channel=5, data=[28, 0]),\r\n",
      "   midi.NoteOnEvent(tick=0, channel=5, data=[33, 100]),\r\n",
      "   midi.NoteOnEvent(tick=192, channel=5, data=[33, 0]),\r\n",
      "   midi.NoteOnEvent(tick=0, channel=5, data=[48, 100]),\r\n",
      "   midi.NoteOnEvent(tick=96, channel=5, data=[48, 0]),\r\n",
      "   midi.NoteOnEvent(tick=0, channel=5, data=[47, 100]),\r\n",
      "   midi.NoteOnEvent(tick=96, channel=5, data=[47, 0]),\r\n",
      "   midi.NoteOnEvent(tick=0, channel=5, data=[45, 100]),\r\n",
      "   midi.NoteOnEvent(tick=96, channel=5, data=[45, 0]),\r\n",
      "   midi.NoteOnEvent(tick=0, channel=5, data=[43, 100]),\r\n",
      "   midi.NoteOnEvent(tick=96, channel=5, data=[43, 0]),\r\n",
      "   midi.NoteOnEvent(tick=0, channel=5, data=[41, 100]),\r\n",
      "   midi.NoteOnEvent(tick=96, channel=5, data=[41, 0]),\r\n",
      "   midi.NoteOnEvent(tick=0, channel=5, data=[40, 100]),\r\n",
      "   midi.NoteOnEvent(tick=96, channel=5, data=[40, 0]),\r\n",
      "   midi.NoteOnEvent(tick=0, channel=5, data=[41, 100]),\r\n",
      "   midi.NoteOnEvent(tick=192, channel=5, data=[41, 0]),\r\n",
      "   midi.NoteOnEvent(tick=0, channel=5, data=[45, 100]),\r\n",
      "   midi.NoteOnEvent(tick=192, channel=5, data=[45, 0]),\r\n",
      "   midi.NoteOnEvent(tick=0, channel=5, data=[41, 100]),\r\n",
      "   midi.NoteOnEvent(tick=192, channel=5, data=[41, 0]),\r\n",
      "   midi.NoteOnEvent(tick=0, channel=5, data=[38, 100]),\r\n",
      "   midi.NoteOnEvent(tick=192, channel=5, data=[38, 0]),\r\n",
      "   midi.NoteOnEvent(tick=0, channel=5, data=[43, 100]),\r\n",
      "   midi.NoteOnEvent(tick=192, channel=5, data=[43, 0]),\r\n",
      "   midi.NoteOnEvent(tick=0, channel=5, data=[31, 100]),\r\n",
      "   midi.NoteOnEvent(tick=192, channel=5, data=[31, 0]),\r\n",
      "   midi.NoteOnEvent(tick=1344, channel=5, data=[47, 100]),\r\n",
      "   midi.NoteOnEvent(tick=96, channel=5, data=[47, 0]),\r\n",
      "   midi.NoteOnEvent(tick=0, channel=5, data=[45, 100]),\r\n",
      "   midi.NoteOnEvent(tick=96, channel=5, data=[45, 0]),\r\n",
      "   midi.NoteOnEvent(tick=0, channel=5, data=[43, 100]),\r\n",
      "   midi.NoteOnEvent(tick=96, channel=5, data=[43, 0]),\r\n",
      "   midi.NoteOnEvent(tick=0, channel=5, data=[41, 100]),\r\n",
      "   midi.NoteOnEvent(tick=96, channel=5, data=[41, 0]),\r\n",
      "   midi.NoteOnEvent(tick=0, channel=5, data=[40, 100]),\r\n",
      "   midi.NoteOnEvent(tick=96, channel=5, data=[40, 0]),\r\n",
      "   midi.NoteOnEvent(tick=0, channel=5, data=[38, 100]),\r\n",
      "   midi.NoteOnEvent(tick=96, channel=5, data=[38, 0]),\r\n",
      "   midi.NoteOnEvent(tick=0, channel=5, data=[40, 100]),\r\n",
      "   midi.NoteOnEvent(tick=192, channel=5, data=[40, 0]),\r\n",
      "   midi.NoteOnEvent(tick=0, channel=5, data=[43, 100]),\r\n",
      "   midi.NoteOnEvent(tick=192, channel=5, data=[43, 0]),\r\n",
      "   midi.NoteOnEvent(tick=0, channel=5, data=[40, 100]),\r\n",
      "   midi.NoteOnEvent(tick=192, channel=5, data=[40, 0]),\r\n",
      "   midi.NoteOnEvent(tick=0, channel=5, data=[36, 100]),\r\n",
      "   midi.NoteOnEvent(tick=192, channel=5, data=[36, 0]),\r\n",
      "   midi.NoteOnEvent(tick=0, channel=5, data=[41, 100]),\r\n",
      "   midi.NoteOnEvent(tick=192, channel=5, data=[41, 0]),\r\n",
      "   midi.NoteOnEvent(tick=0, channel=5, data=[29, 100]),\r\n",
      "   midi.NoteOnEvent(tick=192, channel=5, data=[29, 0]),\r\n",
      "   midi.NoteOnEvent(tick=1344, channel=5, data=[45, 100]),\r\n",
      "   midi.NoteOnEvent(tick=96, channel=5, data=[45, 0]),\r\n",
      "   midi.NoteOnEvent(tick=0, channel=5, data=[43, 100]),\r\n",
      "   midi.NoteOnEvent(tick=96, channel=5, data=[43, 0]),\r\n",
      "   midi.NoteOnEvent(tick=0, channel=5, data=[41, 100]),\r\n",
      "   midi.NoteOnEvent(tick=96, channel=5, data=[41, 0]),\r\n",
      "   midi.NoteOnEvent(tick=0, channel=5, data=[40, 100]),\r\n",
      "   midi.NoteOnEvent(tick=96, channel=5, data=[40, 0]),\r\n",
      "   midi.NoteOnEvent(tick=0, channel=5, data=[38, 100]),\r\n",
      "   midi.NoteOnEvent(tick=96, channel=5, data=[38, 0]),\r\n",
      "   midi.NoteOnEvent(tick=0, channel=5, data=[36, 100]),\r\n",
      "   midi.NoteOnEvent(tick=96, channel=5, data=[36, 0]),\r\n",
      "   midi.NoteOnEvent(tick=0, channel=5, data=[38, 100]),\r\n",
      "   midi.NoteOnEvent(tick=96, channel=5, data=[38, 0]),\r\n",
      "   midi.NoteOnEvent(tick=0, channel=5, data=[40, 100]),\r\n",
      "   midi.NoteOnEvent(tick=96, channel=5, data=[40, 0]),\r\n",
      "   midi.NoteOnEvent(tick=0, channel=5, data=[38, 100]),\r\n",
      "   midi.NoteOnEvent(tick=96, channel=5, data=[38, 0]),\r\n",
      "   midi.NoteOnEvent(tick=0, channel=5, data=[36, 100]),\r\n",
      "   midi.NoteOnEvent(tick=96, channel=5, data=[36, 0]),\r\n",
      "   midi.NoteOnEvent(tick=0, channel=5, data=[35, 100]),\r\n",
      "   midi.NoteOnEvent(tick=96, channel=5, data=[35, 0]),\r\n",
      "   midi.NoteOnEvent(tick=0, channel=5, data=[36, 100]),\r\n",
      "   midi.NoteOnEvent(tick=96, channel=5, data=[36, 0]),\r\n",
      "   midi.NoteOnEvent(tick=0, channel=5, data=[35, 100]),\r\n",
      "   midi.NoteOnEvent(tick=96, channel=5, data=[35, 0]),\r\n",
      "   midi.NoteOnEvent(tick=0, channel=5, data=[33, 100]),\r\n",
      "   midi.NoteOnEvent(tick=96, channel=5, data=[33, 0]),\r\n",
      "   midi.NoteOnEvent(tick=0, channel=5, data=[32, 100]),\r\n",
      "   midi.NoteOnEvent(tick=96, channel=5, data=[32, 0]),\r\n",
      "   midi.NoteOnEvent(tick=0, channel=5, data=[28, 100]),\r\n",
      "   midi.NoteOnEvent(tick=96, channel=5, data=[28, 0]),\r\n",
      "   midi.NoteOnEvent(tick=0, channel=5, data=[30, 100]),\r\n",
      "   midi.NoteOnEvent(tick=96, channel=5, data=[30, 0]),\r\n",
      "   midi.NoteOnEvent(tick=0, channel=5, data=[32, 100]),\r\n",
      "   midi.NoteOnEvent(tick=96, channel=5, data=[32, 0]),\r\n",
      "   midi.NoteOnEvent(tick=0, channel=5, data=[33, 100]),\r\n",
      "   midi.NoteOnEvent(tick=96, channel=5, data=[33, 0]),\r\n",
      "   midi.NoteOnEvent(tick=0, channel=5, data=[35, 100]),\r\n",
      "   midi.NoteOnEvent(tick=96, channel=5, data=[35, 0]),\r\n",
      "   midi.NoteOnEvent(tick=0, channel=5, data=[36, 100]),\r\n",
      "   midi.NoteOnEvent(tick=96, channel=5, data=[36, 0]),\r\n",
      "   midi.NoteOnEvent(tick=0, channel=5, data=[33, 100]),\r\n",
      "   midi.NoteOnEvent(tick=96, channel=5, data=[33, 0]),\r\n",
      "   midi.NoteOnEvent(tick=0, channel=5, data=[29, 100]),\r\n",
      "   midi.NoteOnEvent(tick=192, channel=5, data=[29, 0]),\r\n",
      "   midi.NoteOnEvent(tick=0, channel=5, data=[36, 100]),\r\n",
      "   midi.NoteOnEvent(tick=192, channel=5, data=[36, 0]),\r\n",
      "   midi.NoteOnEvent(tick=0, channel=5, data=[38, 100]),\r\n",
      "   midi.NoteOnEvent(tick=192, channel=5, data=[38, 0]),\r\n",
      "   midi.NoteOnEvent(tick=0, channel=5, data=[35, 100]),\r\n",
      "   midi.NoteOnEvent(tick=192, channel=5, data=[35, 0]),\r\n",
      "   midi.NoteOnEvent(tick=0, channel=5, data=[40, 100]),\r\n",
      "   midi.NoteOnEvent(tick=288, channel=5, data=[40, 0]),\r\n",
      "   midi.NoteOnEvent(tick=0, channel=5, data=[42, 100]),\r\n",
      "   midi.NoteOnEvent(tick=48, channel=5, data=[42, 0]),\r\n",
      "   midi.NoteOnEvent(tick=0, channel=5, data=[44, 100]),\r\n",
      "   midi.NoteOnEvent(tick=48, channel=5, data=[44, 0]),\r\n",
      "   midi.NoteOnEvent(tick=0, channel=5, data=[45, 100]),\r\n",
      "   midi.NoteOnEvent(tick=96, channel=5, data=[45, 0]),\r\n",
      "   midi.NoteOnEvent(tick=0, channel=5, data=[47, 100]),\r\n",
      "   midi.NoteOnEvent(tick=96, channel=5, data=[47, 0]),\r\n",
      "   midi.NoteOnEvent(tick=0, channel=5, data=[48, 100]),\r\n",
      "   midi.NoteOnEvent(tick=96, channel=5, data=[48, 0]),\r\n",
      "   midi.NoteOnEvent(tick=0, channel=5, data=[50, 100]),\r\n",
      "   midi.NoteOnEvent(tick=96, channel=5, data=[50, 0]),\r\n",
      "   midi.NoteOnEvent(tick=0, channel=5, data=[52, 100]),\r\n",
      "   midi.NoteOnEvent(tick=192, channel=5, data=[52, 0]),\r\n",
      "   midi.NoteOnEvent(tick=0, channel=5, data=[50, 100]),\r\n",
      "   midi.NoteOnEvent(tick=192, channel=5, data=[50, 0]),\r\n",
      "   midi.NoteOnEvent(tick=0, channel=5, data=[52, 100]),\r\n",
      "   midi.NoteOnEvent(tick=192, channel=5, data=[52, 0]),\r\n",
      "   midi.NoteOnEvent(tick=0, channel=5, data=[40, 100]),\r\n",
      "   midi.NoteOnEvent(tick=192, channel=5, data=[40, 0]),\r\n",
      "   midi.NoteOnEvent(tick=0, channel=5, data=[50, 100]),\r\n",
      "   midi.NoteOnEvent(tick=192, channel=5, data=[50, 0]),\r\n",
      "   midi.NoteOnEvent(tick=0, channel=5, data=[52, 100]),\r\n",
      "   midi.NoteOnEvent(tick=192, channel=5, data=[52, 0]),\r\n",
      "   midi.NoteOnEvent(tick=0, channel=5, data=[50, 100]),\r\n",
      "   midi.NoteOnEvent(tick=192, channel=5, data=[50, 0]),\r\n",
      "   midi.NoteOnEvent(tick=0, channel=5, data=[48, 100]),\r\n",
      "   midi.NoteOnEvent(tick=192, channel=5, data=[48, 0]),\r\n",
      "   midi.NoteOnEvent(tick=0, channel=5, data=[47, 100]),\r\n",
      "   midi.NoteOnEvent(tick=192, channel=5, data=[47, 0]),\r\n",
      "   midi.NoteOnEvent(tick=0, channel=5, data=[48, 100]),\r\n",
      "   midi.NoteOnEvent(tick=192, channel=5, data=[48, 0]),\r\n",
      "   midi.NoteOnEvent(tick=0, channel=5, data=[47, 100]),\r\n",
      "   midi.NoteOnEvent(tick=192, channel=5, data=[47, 0]),\r\n",
      "   midi.NoteOnEvent(tick=0, channel=5, data=[45, 100]),\r\n",
      "   midi.NoteOnEvent(tick=192, channel=5, data=[45, 0]),\r\n",
      "   midi.NoteOnEvent(tick=0, channel=5, data=[44, 100]),\r\n",
      "   midi.NoteOnEvent(tick=192, channel=5, data=[44, 0]),\r\n",
      "   midi.NoteOnEvent(tick=0, channel=5, data=[45, 100]),\r\n",
      "   midi.NoteOnEvent(tick=192, channel=5, data=[45, 0]),\r\n",
      "   midi.NoteOnEvent(tick=0, channel=5, data=[47, 100]),\r\n",
      "   midi.NoteOnEvent(tick=192, channel=5, data=[47, 0]),\r\n",
      "   midi.NoteOnEvent(tick=0, channel=5, data=[48, 100]),\r\n",
      "   midi.NoteOnEvent(tick=192, channel=5, data=[48, 0]),\r\n",
      "   midi.NoteOnEvent(tick=0, channel=5, data=[38, 100]),\r\n",
      "   midi.NoteOnEvent(tick=192, channel=5, data=[38, 0]),\r\n",
      "   midi.NoteOnEvent(tick=0, channel=5, data=[40, 100]),\r\n",
      "   midi.NoteOnEvent(tick=192, channel=5, data=[40, 0]),\r\n",
      "   midi.NoteOnEvent(tick=0, channel=5, data=[41, 100]),\r\n",
      "   midi.NoteOnEvent(tick=192, channel=5, data=[41, 0]),\r\n",
      "   midi.NoteOnEvent(tick=0, channel=5, data=[35, 100]),\r\n",
      "   midi.NoteOnEvent(tick=192, channel=5, data=[35, 0]),\r\n",
      "   midi.NoteOnEvent(tick=0, channel=5, data=[40, 100]),\r\n",
      "   midi.NoteOnEvent(tick=192, channel=5, data=[40, 0]),\r\n",
      "   midi.NoteOnEvent(tick=0, channel=5, data=[38, 100]),\r\n",
      "   midi.NoteOnEvent(tick=96, channel=5, data=[38, 0]),\r\n",
      "   midi.NoteOnEvent(tick=0, channel=5, data=[36, 100]),\r\n",
      "   midi.NoteOnEvent(tick=96, channel=5, data=[36, 0]),\r\n",
      "   midi.NoteOnEvent(tick=0, channel=5, data=[35, 100]),\r\n",
      "   midi.NoteOnEvent(tick=192, channel=5, data=[35, 0]),\r\n",
      "   midi.NoteOnEvent(tick=0, channel=5, data=[33, 100]),\r\n",
      "   midi.NoteOnEvent(tick=192, channel=5, data=[33, 0]),\r\n",
      "   midi.NoteOnEvent(tick=0, channel=5, data=[32, 100]),\r\n",
      "   midi.NoteOnEvent(tick=192, channel=5, data=[32, 0]),\r\n",
      "   midi.NoteOnEvent(tick=0, channel=5, data=[30, 100]),\r\n",
      "   midi.NoteOnEvent(tick=192, channel=5, data=[30, 0]),\r\n",
      "   midi.NoteOnEvent(tick=0, channel=5, data=[28, 100]),\r\n",
      "   midi.NoteOnEvent(tick=192, channel=5, data=[28, 0]),\r\n",
      "   midi.NoteOnEvent(tick=0, channel=5, data=[26, 100]),\r\n",
      "   midi.NoteOnEvent(tick=192, channel=5, data=[26, 0]),\r\n",
      "   midi.NoteOnEvent(tick=0, channel=5, data=[24, 100]),\r\n",
      "   midi.NoteOnEvent(tick=192, channel=5, data=[24, 0]),\r\n",
      "   midi.NoteOnEvent(tick=0, channel=5, data=[41, 100]),\r\n",
      "   midi.NoteOnEvent(tick=192, channel=5, data=[41, 0]),\r\n",
      "   midi.NoteOnEvent(tick=0, channel=5, data=[38, 100]),\r\n",
      "   midi.NoteOnEvent(tick=192, channel=5, data=[38, 0]),\r\n",
      "   midi.NoteOnEvent(tick=0, channel=5, data=[40, 100]),\r\n",
      "   midi.NoteOnEvent(tick=192, channel=5, data=[40, 0]),\r\n",
      "   midi.NoteOnEvent(tick=0, channel=5, data=[29, 100]),\r\n",
      "   midi.NoteOnEvent(tick=384, channel=5, data=[29, 0]),\r\n",
      "   midi.NoteOnEvent(tick=192, channel=5, data=[41, 100]),\r\n",
      "   midi.NoteOnEvent(tick=192, channel=5, data=[41, 0]),\r\n",
      "   midi.NoteOnEvent(tick=0, channel=5, data=[32, 100]),\r\n",
      "   midi.NoteOnEvent(tick=192, channel=5, data=[32, 0]),\r\n",
      "   midi.NoteOnEvent(tick=0, channel=5, data=[32, 100]),\r\n",
      "   midi.NoteOnEvent(tick=192, channel=5, data=[32, 0]),\r\n",
      "   midi.NoteOnEvent(tick=0, channel=5, data=[32, 100]),\r\n",
      "   midi.NoteOnEvent(tick=192, channel=5, data=[32, 0]),\r\n",
      "   midi.NoteOnEvent(tick=0, channel=5, data=[47, 100]),\r\n",
      "   midi.NoteOnEvent(tick=192, channel=5, data=[47, 0]),\r\n",
      "   midi.NoteOnEvent(tick=0, channel=5, data=[38, 100]),\r\n",
      "   midi.NoteOnEvent(tick=192, channel=5, data=[38, 0]),\r\n",
      "   midi.NoteOnEvent(tick=0, channel=5, data=[38, 100]),\r\n",
      "   midi.NoteOnEvent(tick=192, channel=5, data=[38, 0]),\r\n",
      "   midi.NoteOnEvent(tick=0, channel=5, data=[38, 100]),\r\n",
      "   midi.NoteOnEvent(tick=192, channel=5, data=[38, 0]),\r\n",
      "   midi.NoteOnEvent(tick=0, channel=5, data=[41, 100]),\r\n",
      "   midi.NoteOnEvent(tick=192, channel=5, data=[41, 0]),\r\n",
      "   midi.NoteOnEvent(tick=0, channel=5, data=[35, 100]),\r\n",
      "   midi.NoteOnEvent(tick=192, channel=5, data=[35, 0]),\r\n",
      "   midi.NoteOnEvent(tick=0, channel=5, data=[36, 100]),\r\n",
      "   midi.NoteOnEvent(tick=96, channel=5, data=[36, 0]),\r\n",
      "   midi.NoteOnEvent(tick=0, channel=5, data=[38, 100]),\r\n",
      "   midi.NoteOnEvent(tick=96, channel=5, data=[38, 0]),\r\n",
      "   midi.NoteOnEvent(tick=0, channel=5, data=[40, 100]),\r\n",
      "   midi.NoteOnEvent(tick=192, channel=5, data=[40, 0]),\r\n",
      "   midi.NoteOnEvent(tick=0, channel=5, data=[28, 100]),\r\n",
      "   midi.NoteOnEvent(tick=192, channel=5, data=[28, 0]),\r\n",
      "   midi.NoteOnEvent(tick=0, channel=5, data=[33, 100]),\r\n",
      "   midi.NoteOnEvent(tick=576, channel=5, data=[33, 0]),\r\n",
      "   midi.EndOfTrackEvent(tick=0, data=[])]),\r\n",
      " midi.Track(\\\r\n",
      "  [midi.PortEvent(tick=0, data=[0]),\r\n",
      "   midi.TrackNameEvent(tick=0, text='Harpsichord', data=[72, 97, 114, 112, 115, 105, 99, 104, 111, 114, 100]),\r\n",
      "   midi.ProgramChangeEvent(tick=0, channel=6, data=[6]),\r\n",
      "   midi.ControlChangeEvent(tick=0, channel=6, data=[7, 90]),\r\n",
      "   midi.ControlChangeEvent(tick=0, channel=6, data=[10, 64]),\r\n",
      "   midi.NoteOnEvent(tick=960, channel=6, data=[45, 100]),\r\n",
      "   midi.NoteOnEvent(tick=192, channel=6, data=[45, 0]),\r\n",
      "   midi.NoteOnEvent(tick=0, channel=6, data=[57, 100]),\r\n",
      "   midi.NoteOnEvent(tick=384, channel=6, data=[57, 0]),\r\n",
      "   midi.NoteOnEvent(tick=192, channel=6, data=[45, 100]),\r\n",
      "   midi.NoteOnEvent(tick=192, channel=6, data=[45, 0]),\r\n",
      "   midi.NoteOnEvent(tick=0, channel=6, data=[57, 100]),\r\n",
      "   midi.NoteOnEvent(tick=384, channel=6, data=[57, 0]),\r\n",
      "   midi.NoteOnEvent(tick=192, channel=6, data=[45, 100]),\r\n",
      "   midi.NoteOnEvent(tick=192, channel=6, data=[45, 0]),\r\n",
      "   midi.NoteOnEvent(tick=0, channel=6, data=[52, 100]),\r\n",
      "   midi.NoteOnEvent(tick=192, channel=6, data=[52, 0]),\r\n",
      "   midi.NoteOnEvent(tick=0, channel=6, data=[40, 100]),\r\n",
      "   midi.NoteOnEvent(tick=192, channel=6, data=[40, 0]),\r\n",
      "   midi.NoteOnEvent(tick=0, channel=6, data=[45, 100]),\r\n",
      "   midi.NoteOnEvent(tick=192, channel=6, data=[45, 0]),\r\n",
      "   midi.NoteOnEvent(tick=0, channel=6, data=[57, 100]),\r\n",
      "   midi.NoteOnEvent(tick=96, channel=6, data=[57, 0]),\r\n",
      "   midi.NoteOnEvent(tick=0, channel=6, data=[59, 100]),\r\n",
      "   midi.NoteOnEvent(tick=96, channel=6, data=[59, 0]),\r\n",
      "   midi.NoteOnEvent(tick=0, channel=6, data=[60, 100]),\r\n",
      "   midi.NoteOnEvent(tick=192, channel=6, data=[60, 0]),\r\n",
      "   midi.NoteOnEvent(tick=0, channel=6, data=[57, 100]),\r\n",
      "   midi.NoteOnEvent(tick=192, channel=6, data=[57, 0]),\r\n",
      "   midi.NoteOnEvent(tick=0, channel=6, data=[56, 100]),\r\n",
      "   midi.NoteOnEvent(tick=192, channel=6, data=[56, 0]),\r\n",
      "   midi.NoteOnEvent(tick=0, channel=6, data=[52, 100]),\r\n",
      "   midi.NoteOnEvent(tick=192, channel=6, data=[52, 0]),\r\n",
      "   midi.NoteOnEvent(tick=0, channel=6, data=[57, 100]),\r\n",
      "   midi.NoteOnEvent(tick=192, channel=6, data=[57, 0]),\r\n",
      "   midi.NoteOnEvent(tick=0, channel=6, data=[52, 100]),\r\n",
      "   midi.NoteOnEvent(tick=192, channel=6, data=[52, 0]),\r\n",
      "   midi.NoteOnEvent(tick=0, channel=6, data=[59, 100]),\r\n",
      "   midi.NoteOnEvent(tick=192, channel=6, data=[59, 0]),\r\n",
      "   midi.NoteOnEvent(tick=0, channel=6, data=[52, 100]),\r\n",
      "   midi.NoteOnEvent(tick=192, channel=6, data=[52, 0]),\r\n",
      "   midi.NoteOnEvent(tick=0, channel=6, data=[60, 100]),\r\n",
      "   midi.NoteOnEvent(tick=192, channel=6, data=[60, 0]),\r\n",
      "   midi.NoteOnEvent(tick=0, channel=6, data=[52, 100]),\r\n",
      "   midi.NoteOnEvent(tick=192, channel=6, data=[52, 0]),\r\n",
      "   midi.NoteOnEvent(tick=0, channel=6, data=[62, 100]),\r\n",
      "   midi.NoteOnEvent(tick=192, channel=6, data=[62, 0]),\r\n",
      "   midi.NoteOnEvent(tick=0, channel=6, data=[50, 100]),\r\n",
      "   midi.NoteOnEvent(tick=192, channel=6, data=[50, 0]),\r\n",
      "   midi.NoteOnEvent(tick=0, channel=6, data=[52, 100]),\r\n",
      "   midi.NoteOnEvent(tick=192, channel=6, data=[52, 0]),\r\n",
      "   midi.NoteOnEvent(tick=0, channel=6, data=[53, 100]),\r\n",
      "   midi.NoteOnEvent(tick=192, channel=6, data=[53, 0]),\r\n",
      "   midi.NoteOnEvent(tick=0, channel=6, data=[52, 100]),\r\n",
      "   midi.NoteOnEvent(tick=192, channel=6, data=[52, 0]),\r\n",
      "   midi.NoteOnEvent(tick=0, channel=6, data=[40, 100]),\r\n",
      "   midi.NoteOnEvent(tick=192, channel=6, data=[40, 0]),\r\n",
      "   midi.NoteOnEvent(tick=192, channel=6, data=[64, 100]),\r\n",
      "   midi.NoteOnEvent(tick=96, channel=6, data=[64, 0]),\r\n",
      "   midi.NoteOnEvent(tick=0, channel=6, data=[62, 100]),\r\n",
      "   midi.NoteOnEvent(tick=96, channel=6, data=[62, 0]),\r\n",
      "   midi.NoteOnEvent(tick=0, channel=6, data=[60, 100]),\r\n",
      "   midi.NoteOnEvent(tick=192, channel=6, data=[60, 0]),\r\n",
      "   midi.NoteOnEvent(tick=0, channel=6, data=[64, 100]),\r\n",
      "   midi.NoteOnEvent(tick=192, channel=6, data=[64, 0]),\r\n",
      "   midi.NoteOnEvent(tick=0, channel=6, data=[60, 100]),\r\n",
      "   midi.NoteOnEvent(tick=192, channel=6, data=[60, 0]),\r\n",
      "   midi.NoteOnEvent(tick=0, channel=6, data=[57, 100]),\r\n",
      "   midi.NoteOnEvent(tick=192, channel=6, data=[57, 0]),\r\n",
      "   midi.NoteOnEvent(tick=0, channel=6, data=[62, 100]),\r\n",
      "   midi.NoteOnEvent(tick=192, channel=6, data=[62, 0]),\r\n",
      "   midi.NoteOnEvent(tick=0, channel=6, data=[50, 100]),\r\n",
      "   midi.NoteOnEvent(tick=192, channel=6, data=[50, 0]),\r\n",
      "   midi.NoteOnEvent(tick=192, channel=6, data=[62, 100]),\r\n",
      "   midi.NoteOnEvent(tick=96, channel=6, data=[62, 0]),\r\n",
      "   midi.NoteOnEvent(tick=0, channel=6, data=[60, 100]),\r\n",
      "   midi.NoteOnEvent(tick=96, channel=6, data=[60, 0]),\r\n",
      "   midi.NoteOnEvent(tick=0, channel=6, data=[59, 100]),\r\n",
      "   midi.NoteOnEvent(tick=192, channel=6, data=[59, 0]),\r\n",
      "   midi.NoteOnEvent(tick=0, channel=6, data=[62, 100]),\r\n",
      "   midi.NoteOnEvent(tick=192, channel=6, data=[62, 0]),\r\n",
      "   midi.NoteOnEvent(tick=0, channel=6, data=[59, 100]),\r\n",
      "   midi.NoteOnEvent(tick=192, channel=6, data=[59, 0]),\r\n",
      "   midi.NoteOnEvent(tick=0, channel=6, data=[55, 100]),\r\n",
      "   midi.NoteOnEvent(tick=192, channel=6, data=[55, 0]),\r\n",
      "   midi.NoteOnEvent(tick=0, channel=6, data=[60, 100]),\r\n",
      "   midi.NoteOnEvent(tick=192, channel=6, data=[60, 0]),\r\n",
      "   midi.NoteOnEvent(tick=0, channel=6, data=[48, 100]),\r\n",
      "   midi.NoteOnEvent(tick=192, channel=6, data=[48, 0]),\r\n",
      "   midi.NoteOnEvent(tick=192, channel=6, data=[60, 100]),\r\n",
      "   midi.NoteOnEvent(tick=96, channel=6, data=[60, 0]),\r\n",
      "   midi.NoteOnEvent(tick=0, channel=6, data=[59, 100]),\r\n",
      "   midi.NoteOnEvent(tick=96, channel=6, data=[59, 0]),\r\n",
      "   midi.NoteOnEvent(tick=0, channel=6, data=[57, 100]),\r\n",
      "   midi.NoteOnEvent(tick=96, channel=6, data=[57, 0]),\r\n",
      "   midi.NoteOnEvent(tick=0, channel=6, data=[59, 100]),\r\n",
      "   midi.NoteOnEvent(tick=96, channel=6, data=[59, 0]),\r\n",
      "   midi.NoteOnEvent(tick=0, channel=6, data=[57, 100]),\r\n",
      "   midi.NoteOnEvent(tick=96, channel=6, data=[57, 0]),\r\n",
      "   midi.NoteOnEvent(tick=0, channel=6, data=[55, 100]),\r\n",
      "   midi.NoteOnEvent(tick=96, channel=6, data=[55, 0]),\r\n",
      "   midi.NoteOnEvent(tick=0, channel=6, data=[54, 100]),\r\n",
      "   midi.NoteOnEvent(tick=96, channel=6, data=[54, 0]),\r\n",
      "   midi.NoteOnEvent(tick=0, channel=6, data=[55, 100]),\r\n",
      "   midi.NoteOnEvent(tick=96, channel=6, data=[55, 0]),\r\n",
      "   midi.NoteOnEvent(tick=0, channel=6, data=[54, 100]),\r\n",
      "   midi.NoteOnEvent(tick=96, channel=6, data=[54, 0]),\r\n",
      "   midi.NoteOnEvent(tick=0, channel=6, data=[52, 100]),\r\n",
      "   midi.NoteOnEvent(tick=96, channel=6, data=[52, 0]),\r\n",
      "   midi.NoteOnEvent(tick=0, channel=6, data=[51, 100]),\r\n",
      "   midi.NoteOnEvent(tick=96, channel=6, data=[51, 0]),\r\n",
      "   midi.NoteOnEvent(tick=0, channel=6, data=[47, 100]),\r\n",
      "   midi.NoteOnEvent(tick=96, channel=6, data=[47, 0]),\r\n",
      "   midi.NoteOnEvent(tick=0, channel=6, data=[49, 100]),\r\n",
      "   midi.NoteOnEvent(tick=96, channel=6, data=[49, 0]),\r\n",
      "   midi.NoteOnEvent(tick=0, channel=6, data=[51, 100]),\r\n",
      "   midi.NoteOnEvent(tick=96, channel=6, data=[51, 0]),\r\n",
      "   midi.NoteOnEvent(tick=0, channel=6, data=[52, 100]),\r\n",
      "   midi.NoteOnEvent(tick=96, channel=6, data=[52, 0]),\r\n",
      "   midi.NoteOnEvent(tick=0, channel=6, data=[54, 100]),\r\n",
      "   midi.NoteOnEvent(tick=96, channel=6, data=[54, 0]),\r\n",
      "   midi.NoteOnEvent(tick=0, channel=6, data=[55, 100]),\r\n",
      "   midi.NoteOnEvent(tick=96, channel=6, data=[55, 0]),\r\n",
      "   midi.NoteOnEvent(tick=0, channel=6, data=[52, 100]),\r\n",
      "   midi.NoteOnEvent(tick=96, channel=6, data=[52, 0]),\r\n",
      "   midi.NoteOnEvent(tick=0, channel=6, data=[48, 100]),\r\n",
      "   midi.NoteOnEvent(tick=192, channel=6, data=[48, 0]),\r\n",
      "   midi.NoteOnEvent(tick=0, channel=6, data=[47, 100]),\r\n",
      "   midi.NoteOnEvent(tick=192, channel=6, data=[47, 0]),\r\n",
      "   midi.NoteOnEvent(tick=0, channel=6, data=[48, 100]),\r\n",
      "   midi.NoteOnEvent(tick=192, channel=6, data=[48, 0]),\r\n",
      "   midi.NoteOnEvent(tick=0, channel=6, data=[45, 100]),\r\n",
      "   midi.NoteOnEvent(tick=192, channel=6, data=[45, 0]),\r\n",
      "   midi.NoteOnEvent(tick=0, channel=6, data=[47, 100]),\r\n",
      "   midi.NoteOnEvent(tick=288, channel=6, data=[47, 0]),\r\n",
      "   midi.NoteOnEvent(tick=0, channel=6, data=[49, 100]),\r\n",
      "   midi.NoteOnEvent(tick=48, channel=6, data=[49, 0]),\r\n",
      "   midi.NoteOnEvent(tick=0, channel=6, data=[51, 100]),\r\n",
      "   midi.NoteOnEvent(tick=48, channel=6, data=[51, 0]),\r\n",
      "   midi.NoteOnEvent(tick=0, channel=6, data=[52, 100]),\r\n",
      "   midi.NoteOnEvent(tick=96, channel=6, data=[52, 0]),\r\n",
      "   midi.NoteOnEvent(tick=0, channel=6, data=[54, 100]),\r\n",
      "   midi.NoteOnEvent(tick=96, channel=6, data=[54, 0]),\r\n",
      "   midi.NoteOnEvent(tick=0, channel=6, data=[55, 100]),\r\n",
      "   midi.NoteOnEvent(tick=96, channel=6, data=[55, 0]),\r\n",
      "   midi.NoteOnEvent(tick=0, channel=6, data=[57, 100]),\r\n",
      "   midi.NoteOnEvent(tick=96, channel=6, data=[57, 0]),\r\n",
      "   midi.NoteOnEvent(tick=0, channel=6, data=[59, 100]),\r\n",
      "   midi.NoteOnEvent(tick=192, channel=6, data=[59, 0]),\r\n",
      "   midi.NoteOnEvent(tick=0, channel=6, data=[57, 100]),\r\n",
      "   midi.NoteOnEvent(tick=192, channel=6, data=[57, 0]),\r\n",
      "   midi.NoteOnEvent(tick=0, channel=6, data=[59, 100]),\r\n",
      "   midi.NoteOnEvent(tick=192, channel=6, data=[59, 0]),\r\n",
      "   midi.NoteOnEvent(tick=0, channel=6, data=[47, 100]),\r\n",
      "   midi.NoteOnEvent(tick=192, channel=6, data=[47, 0]),\r\n",
      "   midi.NoteOnEvent(tick=0, channel=6, data=[57, 100]),\r\n",
      "   midi.NoteOnEvent(tick=192, channel=6, data=[57, 0]),\r\n",
      "   midi.NoteOnEvent(tick=0, channel=6, data=[55, 100]),\r\n",
      "   midi.NoteOnEvent(tick=192, channel=6, data=[55, 0]),\r\n",
      "   midi.NoteOnEvent(tick=0, channel=6, data=[57, 100]),\r\n",
      "   midi.NoteOnEvent(tick=192, channel=6, data=[57, 0]),\r\n",
      "   midi.NoteOnEvent(tick=0, channel=6, data=[45, 100]),\r\n",
      "   midi.NoteOnEvent(tick=192, channel=6, data=[45, 0]),\r\n",
      "   midi.NoteOnEvent(tick=0, channel=6, data=[43, 100]),\r\n",
      "   midi.NoteOnEvent(tick=192, channel=6, data=[43, 0]),\r\n",
      "   midi.NoteOnEvent(tick=0, channel=6, data=[48, 100]),\r\n",
      "   midi.NoteOnEvent(tick=192, channel=6, data=[48, 0]),\r\n",
      "   midi.NoteOnEvent(tick=0, channel=6, data=[45, 100]),\r\n",
      "   midi.NoteOnEvent(tick=192, channel=6, data=[45, 0]),\r\n",
      "   midi.NoteOnEvent(tick=0, channel=6, data=[47, 100]),\r\n",
      "   midi.NoteOnEvent(tick=192, channel=6, data=[47, 0]),\r\n",
      "   midi.NoteOnEvent(tick=0, channel=6, data=[40, 100]),\r\n",
      "   midi.NoteOnEvent(tick=384, channel=6, data=[40, 0]),\r\n",
      "   midi.NoteOnEvent(tick=192, channel=6, data=[60, 100]),\r\n",
      "   midi.NoteOnEvent(tick=192, channel=6, data=[60, 0]),\r\n",
      "   midi.NoteOnEvent(tick=0, channel=6, data=[51, 100]),\r\n",
      "   midi.NoteOnEvent(tick=192, channel=6, data=[51, 0]),\r\n",
      "   midi.NoteOnEvent(tick=0, channel=6, data=[51, 100]),\r\n",
      "   midi.NoteOnEvent(tick=192, channel=6, data=[51, 0]),\r\n",
      "   midi.NoteOnEvent(tick=0, channel=6, data=[51, 100]),\r\n",
      "   midi.NoteOnEvent(tick=192, channel=6, data=[51, 0]),\r\n",
      "   midi.NoteOnEvent(tick=0, channel=6, data=[54, 100]),\r\n",
      "   midi.NoteOnEvent(tick=192, channel=6, data=[54, 0]),\r\n",
      "   midi.NoteOnEvent(tick=0, channel=6, data=[45, 100]),\r\n",
      "   midi.NoteOnEvent(tick=192, channel=6, data=[45, 0]),\r\n",
      "   midi.NoteOnEvent(tick=0, channel=6, data=[45, 100]),\r\n",
      "   midi.NoteOnEvent(tick=192, channel=6, data=[45, 0]),\r\n",
      "   midi.NoteOnEvent(tick=0, channel=6, data=[45, 100]),\r\n",
      "   midi.NoteOnEvent(tick=192, channel=6, data=[45, 0]),\r\n",
      "   midi.NoteOnEvent(tick=0, channel=6, data=[48, 100]),\r\n",
      "   midi.NoteOnEvent(tick=192, channel=6, data=[48, 0]),\r\n",
      "   midi.NoteOnEvent(tick=0, channel=6, data=[42, 100]),\r\n",
      "   midi.NoteOnEvent(tick=192, channel=6, data=[42, 0]),\r\n",
      "   midi.NoteOnEvent(tick=0, channel=6, data=[40, 100]),\r\n",
      "   midi.NoteOnEvent(tick=192, channel=6, data=[40, 0]),\r\n",
      "   midi.NoteOnEvent(tick=0, channel=6, data=[47, 100]),\r\n",
      "   midi.NoteOnEvent(tick=192, channel=6, data=[47, 0]),\r\n",
      "   midi.NoteOnEvent(tick=0, channel=6, data=[47, 100]),\r\n",
      "   midi.NoteOnEvent(tick=192, channel=6, data=[47, 0]),\r\n",
      "   midi.NoteOnEvent(tick=0, channel=6, data=[40, 100]),\r\n",
      "   midi.NoteOnEvent(tick=192, channel=6, data=[40, 0]),\r\n",
      "   midi.NoteOnEvent(tick=0, channel=6, data=[52, 100]),\r\n",
      "   midi.NoteOnEvent(tick=96, channel=6, data=[52, 0]),\r\n",
      "   midi.NoteOnEvent(tick=0, channel=6, data=[50, 100]),\r\n",
      "   midi.NoteOnEvent(tick=96, channel=6, data=[50, 0]),\r\n",
      "   midi.NoteOnEvent(tick=0, channel=6, data=[48, 100]),\r\n",
      "   midi.NoteOnEvent(tick=192, channel=6, data=[48, 0]),\r\n",
      "   midi.NoteOnEvent(tick=0, channel=6, data=[47, 100]),\r\n",
      "   midi.NoteOnEvent(tick=192, channel=6, data=[47, 0]),\r\n",
      "   midi.NoteOnEvent(tick=0, channel=6, data=[45, 100]),\r\n",
      "   midi.NoteOnEvent(tick=384, channel=6, data=[45, 0]),\r\n",
      "   midi.NoteOnEvent(tick=192, channel=6, data=[57, 100]),\r\n",
      "   midi.NoteOnEvent(tick=192, channel=6, data=[57, 0]),\r\n",
      "   midi.NoteOnEvent(tick=0, channel=6, data=[64, 100]),\r\n",
      "   midi.NoteOnEvent(tick=384, channel=6, data=[64, 0]),\r\n",
      "   midi.NoteOnEvent(tick=192, channel=6, data=[52, 100]),\r\n",
      "   midi.NoteOnEvent(tick=192, channel=6, data=[52, 0]),\r\n",
      "   midi.NoteOnEvent(tick=0, channel=6, data=[44, 100]),\r\n",
      "   midi.NoteOnEvent(tick=384, channel=6, data=[44, 0]),\r\n",
      "   midi.NoteOnEvent(tick=192, channel=6, data=[52, 100]),\r\n",
      "   midi.NoteOnEvent(tick=192, channel=6, data=[52, 0]),\r\n",
      "   midi.NoteOnEvent(tick=0, channel=6, data=[57, 100]),\r\n",
      "   midi.NoteOnEvent(tick=384, channel=6, data=[57, 0]),\r\n",
      "   midi.NoteOnEvent(tick=192, channel=6, data=[57, 100]),\r\n",
      "   midi.NoteOnEvent(tick=192, channel=6, data=[57, 0]),\r\n",
      "   midi.NoteOnEvent(tick=0, channel=6, data=[45, 100]),\r\n",
      "   midi.NoteOnEvent(tick=192, channel=6, data=[45, 0]),\r\n",
      "   midi.NoteOnEvent(tick=0, channel=6, data=[48, 100]),\r\n",
      "   midi.NoteOnEvent(tick=192, channel=6, data=[48, 0]),\r\n",
      "   midi.NoteOnEvent(tick=0, channel=6, data=[50, 100]),\r\n",
      "   midi.NoteOnEvent(tick=192, channel=6, data=[50, 0]),\r\n",
      "   midi.NoteOnEvent(tick=0, channel=6, data=[53, 100]),\r\n",
      "   midi.NoteOnEvent(tick=192, channel=6, data=[53, 0]),\r\n",
      "   midi.NoteOnEvent(tick=0, channel=6, data=[43, 100]),\r\n",
      "   midi.NoteOnEvent(tick=192, channel=6, data=[43, 0]),\r\n",
      "   midi.NoteOnEvent(tick=0, channel=6, data=[47, 100]),\r\n",
      "   midi.NoteOnEvent(tick=192, channel=6, data=[47, 0]),\r\n",
      "   midi.NoteOnEvent(tick=0, channel=6, data=[48, 100]),\r\n",
      "   midi.NoteOnEvent(tick=192, channel=6, data=[48, 0]),\r\n",
      "   midi.NoteOnEvent(tick=0, channel=6, data=[52, 100]),\r\n",
      "   midi.NoteOnEvent(tick=192, channel=6, data=[52, 0]),\r\n",
      "   midi.NoteOnEvent(tick=0, channel=6, data=[53, 100]),\r\n",
      "   midi.NoteOnEvent(tick=192, channel=6, data=[53, 0]),\r\n",
      "   midi.NoteOnEvent(tick=0, channel=6, data=[57, 100]),\r\n",
      "   midi.NoteOnEvent(tick=192, channel=6, data=[57, 0]),\r\n",
      "   midi.NoteOnEvent(tick=0, channel=6, data=[47, 100]),\r\n",
      "   midi.NoteOnEvent(tick=192, channel=6, data=[47, 0]),\r\n",
      "   midi.NoteOnEvent(tick=0, channel=6, data=[50, 100]),\r\n",
      "   midi.NoteOnEvent(tick=192, channel=6, data=[50, 0]),\r\n",
      "   midi.NoteOnEvent(tick=0, channel=6, data=[40, 100]),\r\n",
      "   midi.NoteOnEvent(tick=192, channel=6, data=[40, 0]),\r\n",
      "   midi.NoteOnEvent(tick=0, channel=6, data=[52, 100]),\r\n",
      "   midi.NoteOnEvent(tick=192, channel=6, data=[52, 0]),\r\n",
      "   midi.NoteOnEvent(tick=0, channel=6, data=[56, 100]),\r\n",
      "   midi.NoteOnEvent(tick=192, channel=6, data=[56, 0]),\r\n",
      "   midi.NoteOnEvent(tick=0, channel=6, data=[52, 100]),\r\n",
      "   midi.NoteOnEvent(tick=192, channel=6, data=[52, 0]),\r\n",
      "   midi.NoteOnEvent(tick=192, channel=6, data=[57, 100]),\r\n",
      "   midi.NoteOnEvent(tick=192, channel=6, data=[57, 0]),\r\n",
      "   midi.NoteOnEvent(tick=0, channel=6, data=[60, 100]),\r\n",
      "   midi.NoteOnEvent(tick=192, channel=6, data=[60, 0]),\r\n",
      "   midi.NoteOnEvent(tick=0, channel=6, data=[57, 100]),\r\n",
      "   midi.NoteOnEvent(tick=192, channel=6, data=[57, 0]),\r\n",
      "   midi.NoteOnEvent(tick=192, channel=6, data=[57, 100]),\r\n",
      "   midi.NoteOnEvent(tick=192, channel=6, data=[57, 0]),\r\n",
      "   midi.NoteOnEvent(tick=0, channel=6, data=[53, 100]),\r\n",
      "   midi.NoteOnEvent(tick=192, channel=6, data=[53, 0]),\r\n",
      "   midi.NoteOnEvent(tick=0, channel=6, data=[50, 100]),\r\n",
      "   midi.NoteOnEvent(tick=192, channel=6, data=[50, 0]),\r\n",
      "   midi.NoteOnEvent(tick=192, channel=6, data=[55, 100]),\r\n",
      "   midi.NoteOnEvent(tick=192, channel=6, data=[55, 0]),\r\n",
      "   midi.NoteOnEvent(tick=0, channel=6, data=[59, 100]),\r\n",
      "   midi.NoteOnEvent(tick=192, channel=6, data=[59, 0]),\r\n",
      "   midi.NoteOnEvent(tick=0, channel=6, data=[55, 100]),\r\n",
      "   midi.NoteOnEvent(tick=192, channel=6, data=[55, 0]),\r\n",
      "   midi.NoteOnEvent(tick=192, channel=6, data=[55, 100]),\r\n",
      "   midi.NoteOnEvent(tick=192, channel=6, data=[55, 0]),\r\n",
      "   midi.NoteOnEvent(tick=0, channel=6, data=[52, 100]),\r\n",
      "   midi.NoteOnEvent(tick=192, channel=6, data=[52, 0]),\r\n",
      "   midi.NoteOnEvent(tick=0, channel=6, data=[48, 100]),\r\n",
      "   midi.NoteOnEvent(tick=192, channel=6, data=[48, 0]),\r\n",
      "   midi.NoteOnEvent(tick=192, channel=6, data=[53, 100]),\r\n",
      "   midi.NoteOnEvent(tick=192, channel=6, data=[53, 0]),\r\n",
      "   midi.NoteOnEvent(tick=0, channel=6, data=[57, 100]),\r\n",
      "   midi.NoteOnEvent(tick=192, channel=6, data=[57, 0]),\r\n",
      "   midi.NoteOnEvent(tick=0, channel=6, data=[53, 100]),\r\n",
      "   midi.NoteOnEvent(tick=192, channel=6, data=[53, 0]),\r\n",
      "   midi.NoteOnEvent(tick=192, channel=6, data=[53, 100]),\r\n",
      "   midi.NoteOnEvent(tick=192, channel=6, data=[53, 0]),\r\n",
      "   midi.NoteOnEvent(tick=0, channel=6, data=[50, 100]),\r\n",
      "   midi.NoteOnEvent(tick=192, channel=6, data=[50, 0]),\r\n",
      "   midi.NoteOnEvent(tick=0, channel=6, data=[47, 100]),\r\n",
      "   midi.NoteOnEvent(tick=192, channel=6, data=[47, 0]),\r\n",
      "   midi.NoteOnEvent(tick=192, channel=6, data=[52, 100]),\r\n",
      "   midi.NoteOnEvent(tick=192, channel=6, data=[52, 0]),\r\n",
      "   midi.NoteOnEvent(tick=0, channel=6, data=[56, 100]),\r\n",
      "   midi.NoteOnEvent(tick=192, channel=6, data=[56, 0]),\r\n",
      "   midi.NoteOnEvent(tick=0, channel=6, data=[52, 100]),\r\n",
      "   midi.NoteOnEvent(tick=192, channel=6, data=[52, 0]),\r\n",
      "   midi.NoteOnEvent(tick=192, channel=6, data=[52, 100]),\r\n",
      "   midi.NoteOnEvent(tick=192, channel=6, data=[52, 0]),\r\n",
      "   midi.NoteOnEvent(tick=0, channel=6, data=[48, 100]),\r\n",
      "   midi.NoteOnEvent(tick=192, channel=6, data=[48, 0]),\r\n",
      "   midi.NoteOnEvent(tick=0, channel=6, data=[45, 100]),\r\n",
      "   midi.NoteOnEvent(tick=192, channel=6, data=[45, 0]),\r\n",
      "   midi.NoteOnEvent(tick=0, channel=6, data=[57, 100]),\r\n",
      "   midi.NoteOnEvent(tick=384, channel=6, data=[57, 0]),\r\n",
      "   midi.NoteOnEvent(tick=192, channel=6, data=[45, 100]),\r\n",
      "   midi.NoteOnEvent(tick=192, channel=6, data=[45, 0]),\r\n",
      "   midi.NoteOnEvent(tick=0, channel=6, data=[57, 100]),\r\n",
      "   midi.NoteOnEvent(tick=192, channel=6, data=[57, 0]),\r\n",
      "   midi.NoteOnEvent(tick=0, channel=6, data=[45, 100]),\r\n",
      "   midi.NoteOnEvent(tick=192, channel=6, data=[45, 0]),\r\n",
      "   midi.NoteOnEvent(tick=0, channel=6, data=[52, 100]),\r\n",
      "   midi.NoteOnEvent(tick=192, channel=6, data=[52, 0]),\r\n",
      "   midi.NoteOnEvent(tick=0, channel=6, data=[40, 100]),\r\n",
      "   midi.NoteOnEvent(tick=192, channel=6, data=[40, 0]),\r\n",
      "   midi.NoteOnEvent(tick=0, channel=6, data=[45, 100]),\r\n",
      "   midi.NoteOnEvent(tick=192, channel=6, data=[45, 0]),\r\n",
      "   midi.NoteOnEvent(tick=0, channel=6, data=[57, 100]),\r\n",
      "   midi.NoteOnEvent(tick=96, channel=6, data=[57, 0]),\r\n",
      "   midi.NoteOnEvent(tick=0, channel=6, data=[59, 100]),\r\n",
      "   midi.NoteOnEvent(tick=96, channel=6, data=[59, 0]),\r\n",
      "   midi.NoteOnEvent(tick=0, channel=6, data=[60, 100]),\r\n",
      "   midi.NoteOnEvent(tick=192, channel=6, data=[60, 0]),\r\n",
      "   midi.NoteOnEvent(tick=0, channel=6, data=[57, 100]),\r\n",
      "   midi.NoteOnEvent(tick=192, channel=6, data=[57, 0]),\r\n",
      "   midi.NoteOnEvent(tick=0, channel=6, data=[45, 100]),\r\n",
      "   midi.NoteOnEvent(tick=192, channel=6, data=[45, 0]),\r\n",
      "   midi.NoteOnEvent(tick=768, channel=6, data=[55, 100]),\r\n",
      "   midi.NoteOnEvent(tick=96, channel=6, data=[55, 0]),\r\n",
      "   midi.NoteOnEvent(tick=0, channel=6, data=[57, 100]),\r\n",
      "   midi.NoteOnEvent(tick=96, channel=6, data=[57, 0]),\r\n",
      "   midi.NoteOnEvent(tick=0, channel=6, data=[59, 100]),\r\n",
      "   midi.NoteOnEvent(tick=192, channel=6, data=[59, 0]),\r\n",
      "   midi.NoteOnEvent(tick=0, channel=6, data=[55, 100]),\r\n",
      "   midi.NoteOnEvent(tick=192, channel=6, data=[55, 0]),\r\n",
      "   midi.NoteOnEvent(tick=0, channel=6, data=[43, 100]),\r\n",
      "   midi.NoteOnEvent(tick=192, channel=6, data=[43, 0]),\r\n",
      "   midi.NoteOnEvent(tick=768, channel=6, data=[53, 100]),\r\n",
      "   midi.NoteOnEvent(tick=96, channel=6, data=[53, 0]),\r\n",
      "   midi.NoteOnEvent(tick=0, channel=6, data=[55, 100]),\r\n",
      "   midi.NoteOnEvent(tick=96, channel=6, data=[55, 0]),\r\n",
      "   midi.NoteOnEvent(tick=0, channel=6, data=[57, 100]),\r\n",
      "   midi.NoteOnEvent(tick=192, channel=6, data=[57, 0]),\r\n",
      "   midi.NoteOnEvent(tick=0, channel=6, data=[53, 100]),\r\n",
      "   midi.NoteOnEvent(tick=192, channel=6, data=[53, 0]),\r\n",
      "   midi.NoteOnEvent(tick=0, channel=6, data=[41, 100]),\r\n",
      "   midi.NoteOnEvent(tick=192, channel=6, data=[41, 0]),\r\n",
      "   midi.NoteOnEvent(tick=768, channel=6, data=[53, 100]),\r\n",
      "   midi.NoteOnEvent(tick=192, channel=6, data=[53, 0]),\r\n",
      "   midi.NoteOnEvent(tick=0, channel=6, data=[52, 100]),\r\n",
      "   midi.NoteOnEvent(tick=192, channel=6, data=[52, 0]),\r\n",
      "   midi.NoteOnEvent(tick=0, channel=6, data=[50, 100]),\r\n",
      "   midi.NoteOnEvent(tick=192, channel=6, data=[50, 0]),\r\n",
      "   midi.NoteOnEvent(tick=0, channel=6, data=[48, 100]),\r\n",
      "   midi.NoteOnEvent(tick=192, channel=6, data=[48, 0]),\r\n",
      "   midi.NoteOnEvent(tick=0, channel=6, data=[60, 100]),\r\n",
      "   midi.NoteOnEvent(tick=192, channel=6, data=[60, 0]),\r\n",
      "   midi.NoteOnEvent(tick=0, channel=6, data=[59, 100]),\r\n",
      "   midi.NoteOnEvent(tick=192, channel=6, data=[59, 0]),\r\n",
      "   midi.NoteOnEvent(tick=0, channel=6, data=[57, 100]),\r\n",
      "   midi.NoteOnEvent(tick=192, channel=6, data=[57, 0]),\r\n",
      "   midi.NoteOnEvent(tick=0, channel=6, data=[55, 100]),\r\n",
      "   midi.NoteOnEvent(tick=192, channel=6, data=[55, 0]),\r\n",
      "   midi.NoteOnEvent(tick=0, channel=6, data=[57, 100]),\r\n",
      "   midi.NoteOnEvent(tick=192, channel=6, data=[57, 0]),\r\n",
      "   midi.NoteOnEvent(tick=0, channel=6, data=[55, 100]),\r\n",
      "   midi.NoteOnEvent(tick=192, channel=6, data=[55, 0]),\r\n",
      "   midi.NoteOnEvent(tick=0, channel=6, data=[53, 100]),\r\n",
      "   midi.NoteOnEvent(tick=192, channel=6, data=[53, 0]),\r\n",
      "   midi.NoteOnEvent(tick=0, channel=6, data=[52, 100]),\r\n",
      "   midi.NoteOnEvent(tick=192, channel=6, data=[52, 0]),\r\n",
      "   midi.NoteOnEvent(tick=0, channel=6, data=[55, 100]),\r\n",
      "   midi.NoteOnEvent(tick=192, channel=6, data=[55, 0]),\r\n",
      "   midi.NoteOnEvent(tick=0, channel=6, data=[52, 100]),\r\n",
      "   midi.NoteOnEvent(tick=192, channel=6, data=[52, 0]),\r\n",
      "   midi.NoteOnEvent(tick=0, channel=6, data=[48, 100]),\r\n",
      "   midi.NoteOnEvent(tick=192, channel=6, data=[48, 0]),\r\n",
      "   midi.NoteOnEvent(tick=0, channel=6, data=[53, 100]),\r\n",
      "   midi.NoteOnEvent(tick=192, channel=6, data=[53, 0]),\r\n",
      "   midi.NoteOnEvent(tick=0, channel=6, data=[57, 100]),\r\n",
      "   midi.NoteOnEvent(tick=192, channel=6, data=[57, 0]),\r\n",
      "   midi.NoteOnEvent(tick=0, channel=6, data=[53, 100]),\r\n",
      "   midi.NoteOnEvent(tick=192, channel=6, data=[53, 0]),\r\n",
      "   midi.NoteOnEvent(tick=0, channel=6, data=[50, 100]),\r\n",
      "   midi.NoteOnEvent(tick=192, channel=6, data=[50, 0]),\r\n",
      "   midi.NoteOnEvent(tick=0, channel=6, data=[52, 100]),\r\n",
      "   midi.NoteOnEvent(tick=192, channel=6, data=[52, 0]),\r\n",
      "   midi.NoteOnEvent(tick=0, channel=6, data=[48, 100]),\r\n",
      "   midi.NoteOnEvent(tick=192, channel=6, data=[48, 0]),\r\n",
      "   midi.NoteOnEvent(tick=0, channel=6, data=[55, 100]),\r\n",
      "   midi.NoteOnEvent(tick=192, channel=6, data=[55, 0]),\r\n",
      "   midi.NoteOnEvent(tick=0, channel=6, data=[43, 100]),\r\n",
      "   midi.NoteOnEvent(tick=192, channel=6, data=[43, 0]),\r\n",
      "   midi.NoteOnEvent(tick=0, channel=6, data=[36, 100]),\r\n",
      "   midi.NoteOnEvent(tick=192, channel=6, data=[36, 0]),\r\n",
      "   midi.NoteOnEvent(tick=0, channel=6, data=[48, 100]),\r\n",
      "   midi.NoteOnEvent(tick=96, channel=6, data=[48, 0]),\r\n",
      "   midi.NoteOnEvent(tick=0, channel=6, data=[50, 100]),\r\n",
      "   midi.NoteOnEvent(tick=96, channel=6, data=[50, 0]),\r\n",
      "   midi.NoteOnEvent(tick=0, channel=6, data=[52, 100]),\r\n",
      "   midi.NoteOnEvent(tick=192, channel=6, data=[52, 0]),\r\n",
      "   midi.NoteOnEvent(tick=0, channel=6, data=[48, 100]),\r\n",
      "   midi.NoteOnEvent(tick=192, channel=6, data=[48, 0]),\r\n",
      "   midi.NoteOnEvent(tick=0, channel=6, data=[47, 100]),\r\n",
      "   midi.NoteOnEvent(tick=192, channel=6, data=[47, 0]),\r\n",
      "   midi.NoteOnEvent(tick=0, channel=6, data=[55, 100]),\r\n",
      "   midi.NoteOnEvent(tick=192, channel=6, data=[55, 0]),\r\n",
      "   midi.NoteOnEvent(tick=0, channel=6, data=[48, 100]),\r\n",
      "   midi.NoteOnEvent(tick=192, channel=6, data=[48, 0]),\r\n",
      "   midi.NoteOnEvent(tick=0, channel=6, data=[55, 100]),\r\n",
      "   midi.NoteOnEvent(tick=192, channel=6, data=[55, 0]),\r\n",
      "   midi.NoteOnEvent(tick=0, channel=6, data=[50, 100]),\r\n",
      "   midi.NoteOnEvent(tick=192, channel=6, data=[50, 0]),\r\n",
      "   midi.NoteOnEvent(tick=0, channel=6, data=[55, 100]),\r\n",
      "   midi.NoteOnEvent(tick=192, channel=6, data=[55, 0]),\r\n",
      "   midi.NoteOnEvent(tick=0, channel=6, data=[52, 100]),\r\n",
      "   midi.NoteOnEvent(tick=192, channel=6, data=[52, 0]),\r\n",
      "   midi.NoteOnEvent(tick=0, channel=6, data=[55, 100]),\r\n",
      "   midi.NoteOnEvent(tick=192, channel=6, data=[55, 0]),\r\n",
      "   midi.NoteOnEvent(tick=0, channel=6, data=[53, 100]),\r\n",
      "   midi.NoteOnEvent(tick=192, channel=6, data=[53, 0]),\r\n",
      "   midi.NoteOnEvent(tick=0, channel=6, data=[55, 100]),\r\n",
      "   midi.NoteOnEvent(tick=192, channel=6, data=[55, 0]),\r\n",
      "   midi.NoteOnEvent(tick=0, channel=6, data=[57, 100]),\r\n",
      "   midi.NoteOnEvent(tick=192, channel=6, data=[57, 0]),\r\n",
      "   midi.NoteOnEvent(tick=0, channel=6, data=[53, 100]),\r\n",
      "   midi.NoteOnEvent(tick=192, channel=6, data=[53, 0]),\r\n",
      "   midi.NoteOnEvent(tick=0, channel=6, data=[55, 100]),\r\n",
      "   midi.NoteOnEvent(tick=96, channel=6, data=[55, 0]),\r\n",
      "   midi.NoteOnEvent(tick=0, channel=6, data=[57, 100]),\r\n",
      "   midi.NoteOnEvent(tick=96, channel=6, data=[57, 0]),\r\n",
      "   midi.NoteOnEvent(tick=0, channel=6, data=[59, 100]),\r\n",
      "   midi.NoteOnEvent(tick=96, channel=6, data=[59, 0]),\r\n",
      "   midi.NoteOnEvent(tick=0, channel=6, data=[57, 100]),\r\n",
      "   midi.NoteOnEvent(tick=96, channel=6, data=[57, 0]),\r\n",
      "   midi.NoteOnEvent(tick=0, channel=6, data=[55, 100]),\r\n",
      "   midi.NoteOnEvent(tick=96, channel=6, data=[55, 0]),\r\n",
      "   midi.NoteOnEvent(tick=0, channel=6, data=[53, 100]),\r\n",
      "   midi.NoteOnEvent(tick=96, channel=6, data=[53, 0]),\r\n",
      "   midi.NoteOnEvent(tick=0, channel=6, data=[52, 100]),\r\n",
      "   midi.NoteOnEvent(tick=96, channel=6, data=[52, 0]),\r\n",
      "   midi.NoteOnEvent(tick=0, channel=6, data=[50, 100]),\r\n",
      "   midi.NoteOnEvent(tick=96, channel=6, data=[50, 0]),\r\n",
      "   midi.NoteOnEvent(tick=0, channel=6, data=[48, 100]),\r\n",
      "   midi.NoteOnEvent(tick=192, channel=6, data=[48, 0]),\r\n",
      "   midi.NoteOnEvent(tick=0, channel=6, data=[52, 100]),\r\n",
      "   midi.NoteOnEvent(tick=192, channel=6, data=[52, 0]),\r\n",
      "   midi.NoteOnEvent(tick=0, channel=6, data=[48, 100]),\r\n",
      "   midi.NoteOnEvent(tick=192, channel=6, data=[48, 0]),\r\n",
      "   midi.NoteOnEvent(tick=0, channel=6, data=[45, 100]),\r\n",
      "   midi.NoteOnEvent(tick=192, channel=6, data=[45, 0]),\r\n",
      "   midi.NoteOnEvent(tick=0, channel=6, data=[50, 100]),\r\n",
      "   midi.NoteOnEvent(tick=192, channel=6, data=[50, 0]),\r\n",
      "   midi.NoteOnEvent(tick=0, channel=6, data=[38, 100]),\r\n",
      "   midi.NoteOnEvent(tick=192, channel=6, data=[38, 0]),\r\n",
      "   midi.NoteOnEvent(tick=1344, channel=6, data=[54, 100]),\r\n",
      "   midi.NoteOnEvent(tick=96, channel=6, data=[54, 0]),\r\n",
      "   midi.NoteOnEvent(tick=0, channel=6, data=[52, 100]),\r\n",
      "   midi.NoteOnEvent(tick=96, channel=6, data=[52, 0]),\r\n",
      "   midi.NoteOnEvent(tick=0, channel=6, data=[50, 100]),\r\n",
      "   midi.NoteOnEvent(tick=96, channel=6, data=[50, 0]),\r\n",
      "   midi.NoteOnEvent(tick=0, channel=6, data=[48, 100]),\r\n",
      "   midi.NoteOnEvent(tick=96, channel=6, data=[48, 0]),\r\n",
      "   midi.NoteOnEvent(tick=0, channel=6, data=[47, 100]),\r\n",
      "   midi.NoteOnEvent(tick=96, channel=6, data=[47, 0]),\r\n",
      "   midi.NoteOnEvent(tick=0, channel=6, data=[45, 100]),\r\n",
      "   midi.NoteOnEvent(tick=96, channel=6, data=[45, 0]),\r\n",
      "   midi.NoteOnEvent(tick=0, channel=6, data=[47, 100]),\r\n",
      "   midi.NoteOnEvent(tick=192, channel=6, data=[47, 0]),\r\n",
      "   midi.NoteOnEvent(tick=0, channel=6, data=[50, 100]),\r\n",
      "   midi.NoteOnEvent(tick=192, channel=6, data=[50, 0]),\r\n",
      "   midi.NoteOnEvent(tick=0, channel=6, data=[47, 100]),\r\n",
      "   midi.NoteOnEvent(tick=192, channel=6, data=[47, 0]),\r\n",
      "   midi.NoteOnEvent(tick=0, channel=6, data=[43, 100]),\r\n",
      "   midi.NoteOnEvent(tick=192, channel=6, data=[43, 0]),\r\n",
      "   midi.NoteOnEvent(tick=0, channel=6, data=[48, 100]),\r\n",
      "   midi.NoteOnEvent(tick=192, channel=6, data=[48, 0]),\r\n",
      "   midi.NoteOnEvent(tick=0, channel=6, data=[36, 100]),\r\n",
      "   midi.NoteOnEvent(tick=192, channel=6, data=[36, 0]),\r\n",
      "   midi.NoteOnEvent(tick=1344, channel=6, data=[60, 100]),\r\n",
      "   midi.NoteOnEvent(tick=96, channel=6, data=[60, 0]),\r\n",
      "   midi.NoteOnEvent(tick=0, channel=6, data=[59, 100]),\r\n",
      "   midi.NoteOnEvent(tick=96, channel=6, data=[59, 0]),\r\n",
      "   midi.NoteOnEvent(tick=0, channel=6, data=[60, 100]),\r\n",
      "   midi.NoteOnEvent(tick=96, channel=6, data=[60, 0]),\r\n",
      "   midi.NoteOnEvent(tick=0, channel=6, data=[62, 100]),\r\n",
      "   midi.NoteOnEvent(tick=96, channel=6, data=[62, 0]),\r\n",
      "   midi.NoteOnEvent(tick=0, channel=6, data=[60, 100]),\r\n",
      "   midi.NoteOnEvent(tick=96, channel=6, data=[60, 0]),\r\n",
      "   midi.NoteOnEvent(tick=0, channel=6, data=[59, 100]),\r\n",
      "   midi.NoteOnEvent(tick=96, channel=6, data=[59, 0]),\r\n",
      "   midi.NoteOnEvent(tick=0, channel=6, data=[57, 100]),\r\n",
      "   midi.NoteOnEvent(tick=96, channel=6, data=[57, 0]),\r\n",
      "   midi.NoteOnEvent(tick=0, channel=6, data=[59, 100]),\r\n",
      "   midi.NoteOnEvent(tick=96, channel=6, data=[59, 0]),\r\n",
      "   midi.NoteOnEvent(tick=0, channel=6, data=[57, 100]),\r\n",
      "   midi.NoteOnEvent(tick=96, channel=6, data=[57, 0]),\r\n",
      "   midi.NoteOnEvent(tick=0, channel=6, data=[55, 100]),\r\n",
      "   midi.NoteOnEvent(tick=96, channel=6, data=[55, 0]),\r\n",
      "   midi.NoteOnEvent(tick=0, channel=6, data=[54, 100]),\r\n",
      "   midi.NoteOnEvent(tick=96, channel=6, data=[54, 0]),\r\n",
      "   midi.NoteOnEvent(tick=0, channel=6, data=[55, 100]),\r\n",
      "   midi.NoteOnEvent(tick=96, channel=6, data=[55, 0]),\r\n",
      "   midi.NoteOnEvent(tick=0, channel=6, data=[54, 100]),\r\n",
      "   midi.NoteOnEvent(tick=96, channel=6, data=[54, 0]),\r\n",
      "   midi.NoteOnEvent(tick=0, channel=6, data=[52, 100]),\r\n",
      "   midi.NoteOnEvent(tick=96, channel=6, data=[52, 0]),\r\n",
      "   midi.NoteOnEvent(tick=0, channel=6, data=[51, 100]),\r\n",
      "   midi.NoteOnEvent(tick=96, channel=6, data=[51, 0]),\r\n",
      "   midi.NoteOnEvent(tick=0, channel=6, data=[47, 100]),\r\n",
      "   midi.NoteOnEvent(tick=96, channel=6, data=[47, 0]),\r\n",
      "   midi.NoteOnEvent(tick=0, channel=6, data=[49, 100]),\r\n",
      "   midi.NoteOnEvent(tick=96, channel=6, data=[49, 0]),\r\n",
      "   midi.NoteOnEvent(tick=0, channel=6, data=[51, 100]),\r\n",
      "   midi.NoteOnEvent(tick=96, channel=6, data=[51, 0]),\r\n",
      "   midi.NoteOnEvent(tick=0, channel=6, data=[52, 100]),\r\n",
      "   midi.NoteOnEvent(tick=96, channel=6, data=[52, 0]),\r\n",
      "   midi.NoteOnEvent(tick=0, channel=6, data=[54, 100]),\r\n",
      "   midi.NoteOnEvent(tick=96, channel=6, data=[54, 0]),\r\n",
      "   midi.NoteOnEvent(tick=0, channel=6, data=[55, 100]),\r\n",
      "   midi.NoteOnEvent(tick=96, channel=6, data=[55, 0]),\r\n",
      "   midi.NoteOnEvent(tick=0, channel=6, data=[52, 100]),\r\n",
      "   midi.NoteOnEvent(tick=96, channel=6, data=[52, 0]),\r\n",
      "   midi.NoteOnEvent(tick=0, channel=6, data=[48, 100]),\r\n",
      "   midi.NoteOnEvent(tick=192, channel=6, data=[48, 0]),\r\n",
      "   midi.NoteOnEvent(tick=0, channel=6, data=[47, 100]),\r\n",
      "   midi.NoteOnEvent(tick=192, channel=6, data=[47, 0]),\r\n",
      "   midi.NoteOnEvent(tick=0, channel=6, data=[48, 100]),\r\n",
      "   midi.NoteOnEvent(tick=192, channel=6, data=[48, 0]),\r\n",
      "   midi.NoteOnEvent(tick=0, channel=6, data=[45, 100]),\r\n",
      "   midi.NoteOnEvent(tick=192, channel=6, data=[45, 0]),\r\n",
      "   midi.NoteOnEvent(tick=0, channel=6, data=[47, 100]),\r\n",
      "   midi.NoteOnEvent(tick=288, channel=6, data=[47, 0]),\r\n",
      "   midi.NoteOnEvent(tick=0, channel=6, data=[49, 100]),\r\n",
      "   midi.NoteOnEvent(tick=48, channel=6, data=[49, 0]),\r\n",
      "   midi.NoteOnEvent(tick=0, channel=6, data=[51, 100]),\r\n",
      "   midi.NoteOnEvent(tick=48, channel=6, data=[51, 0]),\r\n",
      "   midi.NoteOnEvent(tick=0, channel=6, data=[52, 100]),\r\n",
      "   midi.NoteOnEvent(tick=96, channel=6, data=[52, 0]),\r\n",
      "   midi.NoteOnEvent(tick=0, channel=6, data=[54, 100]),\r\n",
      "   midi.NoteOnEvent(tick=96, channel=6, data=[54, 0]),\r\n",
      "   midi.NoteOnEvent(tick=0, channel=6, data=[55, 100]),\r\n",
      "   midi.NoteOnEvent(tick=96, channel=6, data=[55, 0]),\r\n",
      "   midi.NoteOnEvent(tick=0, channel=6, data=[57, 100]),\r\n",
      "   midi.NoteOnEvent(tick=96, channel=6, data=[57, 0]),\r\n",
      "   midi.NoteOnEvent(tick=0, channel=6, data=[59, 100]),\r\n",
      "   midi.NoteOnEvent(tick=192, channel=6, data=[59, 0]),\r\n",
      "   midi.NoteOnEvent(tick=0, channel=6, data=[57, 100]),\r\n",
      "   midi.NoteOnEvent(tick=192, channel=6, data=[57, 0]),\r\n",
      "   midi.NoteOnEvent(tick=0, channel=6, data=[59, 100]),\r\n",
      "   midi.NoteOnEvent(tick=192, channel=6, data=[59, 0]),\r\n",
      "   midi.NoteOnEvent(tick=0, channel=6, data=[47, 100]),\r\n",
      "   midi.NoteOnEvent(tick=192, channel=6, data=[47, 0]),\r\n",
      "   midi.NoteOnEvent(tick=0, channel=6, data=[57, 100]),\r\n",
      "   midi.NoteOnEvent(tick=192, channel=6, data=[57, 0]),\r\n",
      "   midi.NoteOnEvent(tick=0, channel=6, data=[59, 100]),\r\n",
      "   midi.NoteOnEvent(tick=192, channel=6, data=[59, 0]),\r\n",
      "   midi.NoteOnEvent(tick=0, channel=6, data=[57, 100]),\r\n",
      "   midi.NoteOnEvent(tick=192, channel=6, data=[57, 0]),\r\n",
      "   midi.NoteOnEvent(tick=0, channel=6, data=[55, 100]),\r\n",
      "   midi.NoteOnEvent(tick=192, channel=6, data=[55, 0]),\r\n",
      "   midi.NoteOnEvent(tick=0, channel=6, data=[54, 100]),\r\n",
      "   midi.NoteOnEvent(tick=192, channel=6, data=[54, 0]),\r\n",
      "   midi.NoteOnEvent(tick=0, channel=6, data=[55, 100]),\r\n",
      "   midi.NoteOnEvent(tick=192, channel=6, data=[55, 0]),\r\n",
      "   midi.NoteOnEvent(tick=0, channel=6, data=[54, 100]),\r\n",
      "   midi.NoteOnEvent(tick=192, channel=6, data=[54, 0]),\r\n",
      "   midi.NoteOnEvent(tick=0, channel=6, data=[52, 100]),\r\n",
      "   midi.NoteOnEvent(tick=192, channel=6, data=[52, 0]),\r\n",
      "   midi.NoteOnEvent(tick=0, channel=6, data=[51, 100]),\r\n",
      "   midi.NoteOnEvent(tick=192, channel=6, data=[51, 0]),\r\n",
      "   midi.NoteOnEvent(tick=0, channel=6, data=[52, 100]),\r\n",
      "   midi.NoteOnEvent(tick=192, channel=6, data=[52, 0]),\r\n",
      "   midi.NoteOnEvent(tick=0, channel=6, data=[54, 100]),\r\n",
      "   midi.NoteOnEvent(tick=192, channel=6, data=[54, 0]),\r\n",
      "   midi.NoteOnEvent(tick=0, channel=6, data=[55, 100]),\r\n",
      "   midi.NoteOnEvent(tick=192, channel=6, data=[55, 0]),\r\n",
      "   midi.NoteOnEvent(tick=0, channel=6, data=[57, 100]),\r\n",
      "   midi.NoteOnEvent(tick=192, channel=6, data=[57, 0]),\r\n",
      "   midi.NoteOnEvent(tick=0, channel=6, data=[59, 100]),\r\n",
      "   midi.NoteOnEvent(tick=192, channel=6, data=[59, 0]),\r\n",
      "   midi.NoteOnEvent(tick=0, channel=6, data=[60, 100]),\r\n",
      "   midi.NoteOnEvent(tick=192, channel=6, data=[60, 0]),\r\n",
      "   midi.NoteOnEvent(tick=0, channel=6, data=[54, 100]),\r\n",
      "   midi.NoteOnEvent(tick=192, channel=6, data=[54, 0]),\r\n",
      "   midi.NoteOnEvent(tick=0, channel=6, data=[59, 100]),\r\n",
      "   midi.NoteOnEvent(tick=192, channel=6, data=[59, 0]),\r\n",
      "   midi.NoteOnEvent(tick=0, channel=6, data=[57, 100]),\r\n",
      "   midi.NoteOnEvent(tick=96, channel=6, data=[57, 0]),\r\n",
      "   midi.NoteOnEvent(tick=0, channel=6, data=[55, 100]),\r\n",
      "   midi.NoteOnEvent(tick=96, channel=6, data=[55, 0]),\r\n",
      "   midi.NoteOnEvent(tick=0, channel=6, data=[54, 100]),\r\n",
      "   midi.NoteOnEvent(tick=192, channel=6, data=[54, 0]),\r\n",
      "   midi.NoteOnEvent(tick=0, channel=6, data=[52, 100]),\r\n",
      "   midi.NoteOnEvent(tick=192, channel=6, data=[52, 0]),\r\n",
      "   midi.NoteOnEvent(tick=0, channel=6, data=[51, 100]),\r\n",
      "   midi.NoteOnEvent(tick=192, channel=6, data=[51, 0]),\r\n",
      "   midi.NoteOnEvent(tick=0, channel=6, data=[49, 100]),\r\n",
      "   midi.NoteOnEvent(tick=192, channel=6, data=[49, 0]),\r\n",
      "   midi.NoteOnEvent(tick=0, channel=6, data=[47, 100]),\r\n",
      "   midi.NoteOnEvent(tick=192, channel=6, data=[47, 0]),\r\n",
      "   midi.NoteOnEvent(tick=0, channel=6, data=[45, 100]),\r\n",
      "   midi.NoteOnEvent(tick=192, channel=6, data=[45, 0]),\r\n",
      "   midi.NoteOnEvent(tick=0, channel=6, data=[43, 100]),\r\n",
      "   midi.NoteOnEvent(tick=192, channel=6, data=[43, 0]),\r\n",
      "   midi.NoteOnEvent(tick=0, channel=6, data=[48, 100]),\r\n",
      "   midi.NoteOnEvent(tick=192, channel=6, data=[48, 0]),\r\n",
      "   midi.NoteOnEvent(tick=0, channel=6, data=[45, 100]),\r\n",
      "   midi.NoteOnEvent(tick=192, channel=6, data=[45, 0]),\r\n",
      "   midi.NoteOnEvent(tick=0, channel=6, data=[47, 100]),\r\n",
      "   midi.NoteOnEvent(tick=192, channel=6, data=[47, 0]),\r\n",
      "   midi.NoteOnEvent(tick=0, channel=6, data=[36, 100]),\r\n",
      "   midi.NoteOnEvent(tick=384, channel=6, data=[36, 0]),\r\n",
      "   midi.NoteOnEvent(tick=192, channel=6, data=[60, 100]),\r\n",
      "   midi.NoteOnEvent(tick=192, channel=6, data=[60, 0]),\r\n",
      "   midi.NoteOnEvent(tick=0, channel=6, data=[51, 100]),\r\n",
      "   midi.NoteOnEvent(tick=192, channel=6, data=[51, 0]),\r\n",
      "   midi.NoteOnEvent(tick=0, channel=6, data=[51, 100]),\r\n",
      "   midi.NoteOnEvent(tick=192, channel=6, data=[51, 0]),\r\n",
      "   midi.NoteOnEvent(tick=0, channel=6, data=[51, 100]),\r\n",
      "   midi.NoteOnEvent(tick=192, channel=6, data=[51, 0]),\r\n",
      "   midi.NoteOnEvent(tick=0, channel=6, data=[54, 100]),\r\n",
      "   midi.NoteOnEvent(tick=192, channel=6, data=[54, 0]),\r\n",
      "   midi.NoteOnEvent(tick=0, channel=6, data=[45, 100]),\r\n",
      "   midi.NoteOnEvent(tick=192, channel=6, data=[45, 0]),\r\n",
      "   midi.NoteOnEvent(tick=0, channel=6, data=[45, 100]),\r\n",
      "   midi.NoteOnEvent(tick=192, channel=6, data=[45, 0]),\r\n",
      "   midi.NoteOnEvent(tick=0, channel=6, data=[45, 100]),\r\n",
      "   midi.NoteOnEvent(tick=192, channel=6, data=[45, 0]),\r\n",
      "   midi.NoteOnEvent(tick=0, channel=6, data=[48, 100]),\r\n",
      "   midi.NoteOnEvent(tick=192, channel=6, data=[48, 0]),\r\n",
      "   midi.NoteOnEvent(tick=0, channel=6, data=[42, 100]),\r\n",
      "   midi.NoteOnEvent(tick=192, channel=6, data=[42, 0]),\r\n",
      "   midi.NoteOnEvent(tick=0, channel=6, data=[43, 100]),\r\n",
      "   midi.NoteOnEvent(tick=96, channel=6, data=[43, 0]),\r\n",
      "   midi.NoteOnEvent(tick=0, channel=6, data=[45, 100]),\r\n",
      "   midi.NoteOnEvent(tick=96, channel=6, data=[45, 0]),\r\n",
      "   midi.NoteOnEvent(tick=0, channel=6, data=[47, 100]),\r\n",
      "   midi.NoteOnEvent(tick=192, channel=6, data=[47, 0]),\r\n",
      "   midi.NoteOnEvent(tick=0, channel=6, data=[47, 100]),\r\n",
      "   midi.NoteOnEvent(tick=192, channel=6, data=[47, 0]),\r\n",
      "   midi.NoteOnEvent(tick=0, channel=6, data=[40, 100]),\r\n",
      "   midi.NoteOnEvent(tick=192, channel=6, data=[40, 0]),\r\n",
      "   midi.NoteOnEvent(tick=0, channel=6, data=[52, 100]),\r\n",
      "   midi.NoteOnEvent(tick=96, channel=6, data=[52, 0]),\r\n",
      "   midi.NoteOnEvent(tick=0, channel=6, data=[51, 100]),\r\n",
      "   midi.NoteOnEvent(tick=96, channel=6, data=[51, 0]),\r\n",
      "   midi.NoteOnEvent(tick=0, channel=6, data=[52, 100]),\r\n",
      "   midi.NoteOnEvent(tick=192, channel=6, data=[52, 0]),\r\n",
      "   midi.NoteOnEvent(tick=0, channel=6, data=[54, 100]),\r\n",
      "   midi.NoteOnEvent(tick=192, channel=6, data=[54, 0]),\r\n",
      "   midi.NoteOnEvent(tick=0, channel=6, data=[55, 100]),\r\n",
      "   midi.NoteOnEvent(tick=384, channel=6, data=[55, 0]),\r\n",
      "   midi.NoteOnEvent(tick=192, channel=6, data=[52, 100]),\r\n",
      "   midi.NoteOnEvent(tick=192, channel=6, data=[52, 0]),\r\n",
      "   midi.NoteOnEvent(tick=0, channel=6, data=[59, 100]),\r\n",
      "   midi.NoteOnEvent(tick=384, channel=6, data=[59, 0]),\r\n",
      "   midi.NoteOnEvent(tick=192, channel=6, data=[47, 100]),\r\n",
      "   midi.NoteOnEvent(tick=192, channel=6, data=[47, 0]),\r\n",
      "   midi.NoteOnEvent(tick=0, channel=6, data=[39, 100]),\r\n",
      "   midi.NoteOnEvent(tick=384, channel=6, data=[39, 0]),\r\n",
      "   midi.NoteOnEvent(tick=192, channel=6, data=[47, 100]),\r\n",
      "   midi.NoteOnEvent(tick=192, channel=6, data=[47, 0]),\r\n",
      "   midi.NoteOnEvent(tick=0, channel=6, data=[52, 100]),\r\n",
      "   midi.NoteOnEvent(tick=384, channel=6, data=[52, 0]),\r\n",
      "   midi.NoteOnEvent(tick=1344, channel=6, data=[52, 100]),\r\n",
      "   midi.NoteOnEvent(tick=192, channel=6, data=[52, 0]),\r\n",
      "   midi.NoteOnEvent(tick=0, channel=6, data=[40, 100]),\r\n",
      "   midi.NoteOnEvent(tick=192, channel=6, data=[40, 0]),\r\n",
      "   midi.NoteOnEvent(tick=0, channel=6, data=[52, 100]),\r\n",
      "   midi.NoteOnEvent(tick=192, channel=6, data=[52, 0]),\r\n",
      "   midi.NoteOnEvent(tick=0, channel=6, data=[45, 100]),\r\n",
      "   midi.NoteOnEvent(tick=384, channel=6, data=[45, 0]),\r\n",
      "   midi.NoteOnEvent(tick=576, channel=6, data=[57, 100]),\r\n",
      "   midi.NoteOnEvent(tick=192, channel=6, data=[57, 0]),\r\n",
      "   midi.NoteOnEvent(tick=0, channel=6, data=[45, 100]),\r\n",
      "   midi.NoteOnEvent(tick=192, channel=6, data=[45, 0]),\r\n",
      "   midi.NoteOnEvent(tick=0, channel=6, data=[57, 100]),\r\n",
      "   midi.NoteOnEvent(tick=192, channel=6, data=[57, 0]),\r\n",
      "   midi.NoteOnEvent(tick=0, channel=6, data=[50, 100]),\r\n",
      "   midi.NoteOnEvent(tick=384, channel=6, data=[50, 0]),\r\n",
      "   midi.NoteOnEvent(tick=576, channel=6, data=[50, 100]),\r\n",
      "   midi.NoteOnEvent(tick=192, channel=6, data=[50, 0]),\r\n",
      "   midi.NoteOnEvent(tick=0, channel=6, data=[38, 100]),\r\n",
      "   midi.NoteOnEvent(tick=192, channel=6, data=[38, 0]),\r\n",
      "   midi.NoteOnEvent(tick=0, channel=6, data=[50, 100]),\r\n",
      "   midi.NoteOnEvent(tick=192, channel=6, data=[50, 0]),\r\n",
      "   midi.NoteOnEvent(tick=0, channel=6, data=[43, 100]),\r\n",
      "   midi.NoteOnEvent(tick=384, channel=6, data=[43, 0]),\r\n",
      "   midi.NoteOnEvent(tick=576, channel=6, data=[55, 100]),\r\n",
      "   midi.NoteOnEvent(tick=192, channel=6, data=[55, 0]),\r\n",
      "   midi.NoteOnEvent(tick=0, channel=6, data=[43, 100]),\r\n",
      "   midi.NoteOnEvent(tick=192, channel=6, data=[43, 0]),\r\n",
      "   midi.NoteOnEvent(tick=0, channel=6, data=[55, 100]),\r\n",
      "   midi.NoteOnEvent(tick=192, channel=6, data=[55, 0]),\r\n",
      "   midi.NoteOnEvent(tick=0, channel=6, data=[48, 100]),\r\n",
      "   midi.NoteOnEvent(tick=384, channel=6, data=[48, 0]),\r\n",
      "   midi.NoteOnEvent(tick=0, channel=6, data=[58, 100]),\r\n",
      "   midi.NoteOnEvent(tick=384, channel=6, data=[58, 0]),\r\n",
      "   midi.NoteOnEvent(tick=0, channel=6, data=[57, 100]),\r\n",
      "   midi.NoteOnEvent(tick=384, channel=6, data=[57, 0]),\r\n",
      "   midi.NoteOnEvent(tick=0, channel=6, data=[55, 100]),\r\n",
      "   midi.NoteOnEvent(tick=384, channel=6, data=[55, 0]),\r\n",
      "   midi.NoteOnEvent(tick=0, channel=6, data=[53, 100]),\r\n",
      "   midi.NoteOnEvent(tick=192, channel=6, data=[53, 0]),\r\n",
      "   midi.NoteOnEvent(tick=0, channel=6, data=[52, 100]),\r\n",
      "   midi.NoteOnEvent(tick=192, channel=6, data=[52, 0]),\r\n",
      "   midi.NoteOnEvent(tick=0, channel=6, data=[50, 100]),\r\n",
      "   midi.NoteOnEvent(tick=192, channel=6, data=[50, 0]),\r\n",
      "   midi.NoteOnEvent(tick=0, channel=6, data=[53, 100]),\r\n",
      "   midi.NoteOnEvent(tick=192, channel=6, data=[53, 0]),\r\n",
      "   midi.NoteOnEvent(tick=0, channel=6, data=[55, 100]),\r\n",
      "   midi.NoteOnEvent(tick=192, channel=6, data=[55, 0]),\r\n",
      "   midi.NoteOnEvent(tick=0, channel=6, data=[53, 100]),\r\n",
      "   midi.NoteOnEvent(tick=192, channel=6, data=[53, 0]),\r\n",
      "   midi.NoteOnEvent(tick=0, channel=6, data=[52, 100]),\r\n",
      "   midi.NoteOnEvent(tick=192, channel=6, data=[52, 0]),\r\n",
      "   midi.NoteOnEvent(tick=0, channel=6, data=[55, 100]),\r\n",
      "   midi.NoteOnEvent(tick=192, channel=6, data=[55, 0]),\r\n",
      "   midi.NoteOnEvent(tick=0, channel=6, data=[57, 100]),\r\n",
      "   midi.NoteOnEvent(tick=192, channel=6, data=[57, 0]),\r\n",
      "   midi.NoteOnEvent(tick=0, channel=6, data=[59, 100]),\r\n",
      "   midi.NoteOnEvent(tick=192, channel=6, data=[59, 0]),\r\n",
      "   midi.NoteOnEvent(tick=0, channel=6, data=[61, 100]),\r\n",
      "   midi.NoteOnEvent(tick=192, channel=6, data=[61, 0]),\r\n",
      "   midi.NoteOnEvent(tick=0, channel=6, data=[57, 100]),\r\n",
      "   midi.NoteOnEvent(tick=192, channel=6, data=[57, 0]),\r\n",
      "   midi.NoteOnEvent(tick=0, channel=6, data=[53, 100]),\r\n",
      "   midi.NoteOnEvent(tick=192, channel=6, data=[53, 0]),\r\n",
      "   midi.NoteOnEvent(tick=0, channel=6, data=[57, 100]),\r\n",
      "   midi.NoteOnEvent(tick=192, channel=6, data=[57, 0]),\r\n",
      "   midi.NoteOnEvent(tick=0, channel=6, data=[53, 100]),\r\n",
      "   midi.NoteOnEvent(tick=192, channel=6, data=[53, 0]),\r\n",
      "   midi.NoteOnEvent(tick=0, channel=6, data=[50, 100]),\r\n",
      "   midi.NoteOnEvent(tick=192, channel=6, data=[50, 0]),\r\n",
      "   midi.NoteOnEvent(tick=0, channel=6, data=[55, 100]),\r\n",
      "   midi.NoteOnEvent(tick=192, channel=6, data=[55, 0]),\r\n",
      "   midi.NoteOnEvent(tick=0, channel=6, data=[58, 100]),\r\n",
      "   midi.NoteOnEvent(tick=192, channel=6, data=[58, 0]),\r\n",
      "   midi.NoteOnEvent(tick=0, channel=6, data=[55, 100]),\r\n",
      "   midi.NoteOnEvent(tick=192, channel=6, data=[55, 0]),\r\n",
      "   midi.NoteOnEvent(tick=0, channel=6, data=[50, 100]),\r\n",
      "   midi.NoteOnEvent(tick=192, channel=6, data=[50, 0]),\r\n",
      "   midi.NoteOnEvent(tick=0, channel=6, data=[62, 100]),\r\n",
      "   midi.NoteOnEvent(tick=192, channel=6, data=[62, 0]),\r\n",
      "   midi.NoteOnEvent(tick=0, channel=6, data=[50, 100]),\r\n",
      "   midi.NoteOnEvent(tick=192, channel=6, data=[50, 0]),\r\n",
      "   midi.NoteOnEvent(tick=0, channel=6, data=[57, 100]),\r\n",
      "   midi.NoteOnEvent(tick=192, channel=6, data=[57, 0]),\r\n",
      "   midi.NoteOnEvent(tick=0, channel=6, data=[45, 100]),\r\n",
      "   midi.NoteOnEvent(tick=192, channel=6, data=[45, 0]),\r\n",
      "   midi.NoteOnEvent(tick=0, channel=6, data=[50, 100]),\r\n",
      "   midi.NoteOnEvent(tick=192, channel=6, data=[50, 0]),\r\n",
      "   midi.NoteOnEvent(tick=0, channel=6, data=[38, 100]),\r\n",
      "   midi.NoteOnEvent(tick=192, channel=6, data=[38, 0]),\r\n",
      "   midi.NoteOnEvent(tick=2112, channel=6, data=[55, 100]),\r\n",
      "   midi.NoteOnEvent(tick=96, channel=6, data=[55, 0]),\r\n",
      "   midi.NoteOnEvent(tick=0, channel=6, data=[57, 100]),\r\n",
      "   midi.NoteOnEvent(tick=96, channel=6, data=[57, 0]),\r\n",
      "   midi.NoteOnEvent(tick=0, channel=6, data=[55, 100]),\r\n",
      "   midi.NoteOnEvent(tick=96, channel=6, data=[55, 0]),\r\n",
      "   midi.NoteOnEvent(tick=0, channel=6, data=[53, 100]),\r\n",
      "   midi.NoteOnEvent(tick=96, channel=6, data=[53, 0]),\r\n",
      "   midi.NoteOnEvent(tick=0, channel=6, data=[52, 100]),\r\n",
      "   midi.NoteOnEvent(tick=96, channel=6, data=[52, 0]),\r\n",
      "   midi.NoteOnEvent(tick=0, channel=6, data=[50, 100]),\r\n",
      "   midi.NoteOnEvent(tick=96, channel=6, data=[50, 0]),\r\n",
      "   midi.NoteOnEvent(tick=0, channel=6, data=[48, 100]),\r\n",
      "   midi.NoteOnEvent(tick=192, channel=6, data=[48, 0]),\r\n",
      "   midi.NoteOnEvent(tick=0, channel=6, data=[60, 100]),\r\n",
      "   midi.NoteOnEvent(tick=192, channel=6, data=[60, 0]),\r\n",
      "   midi.NoteOnEvent(tick=1344, channel=6, data=[53, 100]),\r\n",
      "   midi.NoteOnEvent(tick=96, channel=6, data=[53, 0]),\r\n",
      "   midi.NoteOnEvent(tick=0, channel=6, data=[55, 100]),\r\n",
      "   midi.NoteOnEvent(tick=96, channel=6, data=[55, 0]),\r\n",
      "   midi.NoteOnEvent(tick=0, channel=6, data=[53, 100]),\r\n",
      "   midi.NoteOnEvent(tick=96, channel=6, data=[53, 0]),\r\n",
      "   midi.NoteOnEvent(tick=0, channel=6, data=[52, 100]),\r\n",
      "   midi.NoteOnEvent(tick=96, channel=6, data=[52, 0]),\r\n",
      "   midi.NoteOnEvent(tick=0, channel=6, data=[50, 100]),\r\n",
      "   midi.NoteOnEvent(tick=96, channel=6, data=[50, 0]),\r\n",
      "   midi.NoteOnEvent(tick=0, channel=6, data=[48, 100]),\r\n",
      "   midi.NoteOnEvent(tick=96, channel=6, data=[48, 0]),\r\n",
      "   midi.NoteOnEvent(tick=0, channel=6, data=[46, 100]),\r\n",
      "   midi.NoteOnEvent(tick=192, channel=6, data=[46, 0]),\r\n",
      "   midi.NoteOnEvent(tick=0, channel=6, data=[58, 100]),\r\n",
      "   midi.NoteOnEvent(tick=192, channel=6, data=[58, 0]),\r\n",
      "   midi.NoteOnEvent(tick=1344, channel=6, data=[52, 100]),\r\n",
      "   midi.NoteOnEvent(tick=96, channel=6, data=[52, 0]),\r\n",
      "   midi.NoteOnEvent(tick=0, channel=6, data=[53, 100]),\r\n",
      "   midi.NoteOnEvent(tick=96, channel=6, data=[53, 0]),\r\n",
      "   midi.NoteOnEvent(tick=0, channel=6, data=[52, 100]),\r\n",
      "   midi.NoteOnEvent(tick=96, channel=6, data=[52, 0]),\r\n",
      "   midi.NoteOnEvent(tick=0, channel=6, data=[50, 100]),\r\n",
      "   midi.NoteOnEvent(tick=96, channel=6, data=[50, 0]),\r\n",
      "   midi.NoteOnEvent(tick=0, channel=6, data=[49, 100]),\r\n",
      "   midi.NoteOnEvent(tick=96, channel=6, data=[49, 0]),\r\n",
      "   midi.NoteOnEvent(tick=0, channel=6, data=[47, 100]),\r\n",
      "   midi.NoteOnEvent(tick=96, channel=6, data=[47, 0]),\r\n",
      "   midi.NoteOnEvent(tick=0, channel=6, data=[45, 100]),\r\n",
      "   midi.NoteOnEvent(tick=192, channel=6, data=[45, 0]),\r\n",
      "   midi.NoteOnEvent(tick=0, channel=6, data=[57, 100]),\r\n",
      "   midi.NoteOnEvent(tick=192, channel=6, data=[57, 0]),\r\n",
      "   midi.NoteOnEvent(tick=1344, channel=6, data=[50, 100]),\r\n",
      "   midi.NoteOnEvent(tick=192, channel=6, data=[50, 0]),\r\n",
      "   midi.NoteOnEvent(tick=0, channel=6, data=[62, 100]),\r\n",
      "   midi.NoteOnEvent(tick=192, channel=6, data=[62, 0]),\r\n",
      "   midi.NoteOnEvent(tick=0, channel=6, data=[53, 100]),\r\n",
      "   midi.NoteOnEvent(tick=192, channel=6, data=[53, 0]),\r\n",
      "   midi.NoteOnEvent(tick=0, channel=6, data=[55, 100]),\r\n",
      "   midi.NoteOnEvent(tick=192, channel=6, data=[55, 0]),\r\n",
      "   midi.NoteOnEvent(tick=0, channel=6, data=[57, 100]),\r\n",
      "   midi.NoteOnEvent(tick=192, channel=6, data=[57, 0]),\r\n",
      "   midi.NoteOnEvent(tick=0, channel=6, data=[59, 100]),\r\n",
      "   midi.NoteOnEvent(tick=192, channel=6, data=[59, 0]),\r\n",
      "   midi.NoteOnEvent(tick=0, channel=6, data=[55, 100]),\r\n",
      "   midi.NoteOnEvent(tick=192, channel=6, data=[55, 0]),\r\n",
      "   midi.NoteOnEvent(tick=0, channel=6, data=[60, 100]),\r\n",
      "   midi.NoteOnEvent(tick=192, channel=6, data=[60, 0]),\r\n",
      "   midi.NoteOnEvent(tick=0, channel=6, data=[48, 100]),\r\n",
      "   midi.NoteOnEvent(tick=192, channel=6, data=[48, 0]),\r\n",
      "   midi.NoteOnEvent(tick=0, channel=6, data=[60, 100]),\r\n",
      "   midi.NoteOnEvent(tick=192, channel=6, data=[60, 0]),\r\n",
      "   midi.NoteOnEvent(tick=0, channel=6, data=[52, 100]),\r\n",
      "   midi.NoteOnEvent(tick=192, channel=6, data=[52, 0]),\r\n",
      "   midi.NoteOnEvent(tick=0, channel=6, data=[53, 100]),\r\n",
      "   midi.NoteOnEvent(tick=192, channel=6, data=[53, 0]),\r\n",
      "   midi.NoteOnEvent(tick=0, channel=6, data=[55, 100]),\r\n",
      "   midi.NoteOnEvent(tick=192, channel=6, data=[55, 0]),\r\n",
      "   midi.NoteOnEvent(tick=0, channel=6, data=[57, 100]),\r\n",
      "   midi.NoteOnEvent(tick=192, channel=6, data=[57, 0]),\r\n",
      "   midi.NoteOnEvent(tick=0, channel=6, data=[53, 100]),\r\n",
      "   midi.NoteOnEvent(tick=192, channel=6, data=[53, 0]),\r\n",
      "   midi.NoteOnEvent(tick=0, channel=6, data=[59, 100]),\r\n",
      "   midi.NoteOnEvent(tick=192, channel=6, data=[59, 0]),\r\n",
      "   midi.NoteOnEvent(tick=0, channel=6, data=[47, 100]),\r\n",
      "   midi.NoteOnEvent(tick=192, channel=6, data=[47, 0]),\r\n",
      "   midi.NoteOnEvent(tick=0, channel=6, data=[59, 100]),\r\n",
      "   midi.NoteOnEvent(tick=192, channel=6, data=[59, 0]),\r\n",
      "   midi.NoteOnEvent(tick=0, channel=6, data=[56, 100]),\r\n",
      "   midi.NoteOnEvent(tick=192, channel=6, data=[56, 0]),\r\n",
      "   midi.NoteOnEvent(tick=0, channel=6, data=[52, 100]),\r\n",
      "   midi.NoteOnEvent(tick=192, channel=6, data=[52, 0]),\r\n",
      "   midi.NoteOnEvent(tick=0, channel=6, data=[40, 100]),\r\n",
      "   midi.NoteOnEvent(tick=192, channel=6, data=[40, 0]),\r\n",
      "   midi.NoteOnEvent(tick=576, channel=6, data=[45, 100]),\r\n",
      "   midi.NoteOnEvent(tick=192, channel=6, data=[45, 0]),\r\n",
      "   midi.NoteOnEvent(tick=0, channel=6, data=[57, 100]),\r\n",
      "   midi.NoteOnEvent(tick=384, channel=6, data=[57, 0]),\r\n",
      "   midi.NoteOnEvent(tick=192, channel=6, data=[45, 100]),\r\n",
      "   midi.NoteOnEvent(tick=192, channel=6, data=[45, 0]),\r\n",
      "   midi.NoteOnEvent(tick=0, channel=6, data=[57, 100]),\r\n",
      "   midi.NoteOnEvent(tick=384, channel=6, data=[57, 0]),\r\n",
      "   midi.NoteOnEvent(tick=192, channel=6, data=[45, 100]),\r\n",
      "   midi.NoteOnEvent(tick=192, channel=6, data=[45, 0]),\r\n",
      "   midi.NoteOnEvent(tick=0, channel=6, data=[52, 100]),\r\n",
      "   midi.NoteOnEvent(tick=192, channel=6, data=[52, 0]),\r\n",
      "   midi.NoteOnEvent(tick=0, channel=6, data=[40, 100]),\r\n",
      "   midi.NoteOnEvent(tick=192, channel=6, data=[40, 0]),\r\n",
      "   midi.NoteOnEvent(tick=0, channel=6, data=[57, 100]),\r\n",
      "   midi.NoteOnEvent(tick=192, channel=6, data=[57, 0]),\r\n",
      "   midi.NoteOnEvent(tick=0, channel=6, data=[45, 100]),\r\n",
      "   midi.NoteOnEvent(tick=192, channel=6, data=[45, 0]),\r\n",
      "   midi.NoteOnEvent(tick=0, channel=6, data=[48, 100]),\r\n",
      "   midi.NoteOnEvent(tick=192, channel=6, data=[48, 0]),\r\n",
      "   midi.NoteOnEvent(tick=0, channel=6, data=[52, 100]),\r\n",
      "   midi.NoteOnEvent(tick=192, channel=6, data=[52, 0]),\r\n",
      "   midi.NoteOnEvent(tick=0, channel=6, data=[57, 100]),\r\n",
      "   midi.NoteOnEvent(tick=384, channel=6, data=[57, 0]),\r\n",
      "   midi.NoteOnEvent(tick=0, channel=6, data=[55, 100]),\r\n",
      "   midi.NoteOnEvent(tick=384, channel=6, data=[55, 0]),\r\n",
      "   midi.NoteOnEvent(tick=0, channel=6, data=[53, 100]),\r\n",
      "   midi.NoteOnEvent(tick=384, channel=6, data=[53, 0]),\r\n",
      "   midi.NoteOnEvent(tick=0, channel=6, data=[52, 100]),\r\n",
      "   midi.NoteOnEvent(tick=384, channel=6, data=[52, 0]),\r\n",
      "   midi.NoteOnEvent(tick=0, channel=6, data=[50, 100]),\r\n",
      "   midi.NoteOnEvent(tick=384, channel=6, data=[50, 0]),\r\n",
      "   midi.NoteOnEvent(tick=0, channel=6, data=[48, 100]),\r\n",
      "   midi.NoteOnEvent(tick=384, channel=6, data=[48, 0]),\r\n",
      "   midi.NoteOnEvent(tick=0, channel=6, data=[46, 100]),\r\n",
      "   midi.NoteOnEvent(tick=384, channel=6, data=[46, 0]),\r\n",
      "   midi.NoteOnEvent(tick=0, channel=6, data=[45, 100]),\r\n",
      "   midi.NoteOnEvent(tick=384, channel=6, data=[45, 0]),\r\n",
      "   midi.NoteOnEvent(tick=0, channel=6, data=[43, 100]),\r\n",
      "   midi.NoteOnEvent(tick=384, channel=6, data=[43, 0]),\r\n",
      "   midi.NoteOnEvent(tick=0, channel=6, data=[41, 100]),\r\n",
      "   midi.NoteOnEvent(tick=384, channel=6, data=[41, 0]),\r\n",
      "   midi.NoteOnEvent(tick=0, channel=6, data=[39, 100]),\r\n",
      "   midi.NoteOnEvent(tick=384, channel=6, data=[39, 0]),\r\n",
      "   midi.NoteOnEvent(tick=0, channel=6, data=[38, 100]),\r\n",
      "   midi.NoteOnEvent(tick=384, channel=6, data=[38, 0]),\r\n",
      "   midi.NoteOnEvent(tick=0, channel=6, data=[36, 100]),\r\n",
      "   midi.NoteOnEvent(tick=192, channel=6, data=[36, 0]),\r\n",
      "   midi.NoteOnEvent(tick=0, channel=6, data=[36, 100]),\r\n",
      "   midi.NoteOnEvent(tick=192, channel=6, data=[36, 0]),\r\n",
      "   midi.NoteOnEvent(tick=0, channel=6, data=[36, 100]),\r\n",
      "   midi.NoteOnEvent(tick=192, channel=6, data=[36, 0]),\r\n",
      "   midi.NoteOnEvent(tick=0, channel=6, data=[36, 100]),\r\n",
      "   midi.NoteOnEvent(tick=192, channel=6, data=[36, 0]),\r\n",
      "   midi.NoteOnEvent(tick=0, channel=6, data=[36, 100]),\r\n",
      "   midi.NoteOnEvent(tick=192, channel=6, data=[36, 0]),\r\n",
      "   midi.NoteOnEvent(tick=0, channel=6, data=[36, 100]),\r\n",
      "   midi.NoteOnEvent(tick=192, channel=6, data=[36, 0]),\r\n",
      "   midi.NoteOnEvent(tick=0, channel=6, data=[36, 100]),\r\n",
      "   midi.NoteOnEvent(tick=192, channel=6, data=[36, 0]),\r\n",
      "   midi.NoteOnEvent(tick=0, channel=6, data=[36, 100]),\r\n",
      "   midi.NoteOnEvent(tick=192, channel=6, data=[36, 0]),\r\n",
      "   midi.NoteOnEvent(tick=0, channel=6, data=[36, 100]),\r\n",
      "   midi.NoteOnEvent(tick=192, channel=6, data=[36, 0]),\r\n",
      "   midi.NoteOnEvent(tick=0, channel=6, data=[36, 100]),\r\n",
      "   midi.NoteOnEvent(tick=192, channel=6, data=[36, 0]),\r\n",
      "   midi.NoteOnEvent(tick=0, channel=6, data=[48, 100]),\r\n",
      "   midi.NoteOnEvent(tick=192, channel=6, data=[48, 0]),\r\n",
      "   midi.NoteOnEvent(tick=0, channel=6, data=[48, 100]),\r\n",
      "   midi.NoteOnEvent(tick=192, channel=6, data=[48, 0]),\r\n",
      "   midi.NoteOnEvent(tick=0, channel=6, data=[46, 100]),\r\n",
      "   midi.NoteOnEvent(tick=192, channel=6, data=[46, 0]),\r\n",
      "   midi.NoteOnEvent(tick=0, channel=6, data=[62, 100]),\r\n",
      "   midi.NoteOnEvent(tick=192, channel=6, data=[62, 0]),\r\n",
      "   midi.NoteOnEvent(tick=0, channel=6, data=[58, 100]),\r\n",
      "   midi.NoteOnEvent(tick=192, channel=6, data=[58, 0]),\r\n",
      "   midi.NoteOnEvent(tick=0, channel=6, data=[55, 100]),\r\n",
      "   midi.NoteOnEvent(tick=192, channel=6, data=[55, 0]),\r\n",
      "   midi.NoteOnEvent(tick=0, channel=6, data=[43, 100]),\r\n",
      "   midi.NoteOnEvent(tick=192, channel=6, data=[43, 0]),\r\n",
      "   midi.NoteOnEvent(tick=0, channel=6, data=[43, 100]),\r\n",
      "   midi.NoteOnEvent(tick=192, channel=6, data=[43, 0]),\r\n",
      "   midi.NoteOnEvent(tick=0, channel=6, data=[43, 100]),\r\n",
      "   midi.NoteOnEvent(tick=192, channel=6, data=[43, 0]),\r\n",
      "   midi.NoteOnEvent(tick=0, channel=6, data=[43, 100]),\r\n",
      "   midi.NoteOnEvent(tick=192, channel=6, data=[43, 0]),\r\n",
      "   midi.NoteOnEvent(tick=0, channel=6, data=[41, 100]),\r\n",
      "   midi.NoteOnEvent(tick=192, channel=6, data=[41, 0]),\r\n",
      "   midi.NoteOnEvent(tick=0, channel=6, data=[57, 100]),\r\n",
      "   midi.NoteOnEvent(tick=192, channel=6, data=[57, 0]),\r\n",
      "   midi.NoteOnEvent(tick=0, channel=6, data=[53, 100]),\r\n",
      "   midi.NoteOnEvent(tick=192, channel=6, data=[53, 0]),\r\n",
      "   midi.NoteOnEvent(tick=0, channel=6, data=[50, 100]),\r\n",
      "   midi.NoteOnEvent(tick=192, channel=6, data=[50, 0]),\r\n",
      "   midi.NoteOnEvent(tick=0, channel=6, data=[38, 100]),\r\n",
      "   midi.NoteOnEvent(tick=192, channel=6, data=[38, 0]),\r\n",
      "   midi.NoteOnEvent(tick=0, channel=6, data=[38, 100]),\r\n",
      "   midi.NoteOnEvent(tick=192, channel=6, data=[38, 0]),\r\n",
      "   midi.NoteOnEvent(tick=0, channel=6, data=[38, 100]),\r\n",
      "   midi.NoteOnEvent(tick=192, channel=6, data=[38, 0]),\r\n",
      "   midi.NoteOnEvent(tick=0, channel=6, data=[38, 100]),\r\n",
      "   midi.NoteOnEvent(tick=192, channel=6, data=[38, 0]),\r\n",
      "   midi.NoteOnEvent(tick=0, channel=6, data=[36, 100]),\r\n",
      "   midi.NoteOnEvent(tick=192, channel=6, data=[36, 0]),\r\n",
      "   midi.NoteOnEvent(tick=0, channel=6, data=[50, 100]),\r\n",
      "   midi.NoteOnEvent(tick=192, channel=6, data=[50, 0]),\r\n",
      "   midi.NoteOnEvent(tick=0, channel=6, data=[48, 100]),\r\n",
      "   midi.NoteOnEvent(tick=192, channel=6, data=[48, 0]),\r\n",
      "   midi.NoteOnEvent(tick=0, channel=6, data=[47, 100]),\r\n",
      "   midi.NoteOnEvent(tick=192, channel=6, data=[47, 0]),\r\n",
      "   midi.NoteOnEvent(tick=0, channel=6, data=[45, 100]),\r\n",
      "   midi.NoteOnEvent(tick=192, channel=6, data=[45, 0]),\r\n",
      "   midi.NoteOnEvent(tick=0, channel=6, data=[57, 100]),\r\n",
      "   midi.NoteOnEvent(tick=192, channel=6, data=[57, 0]),\r\n",
      "   midi.NoteOnEvent(tick=0, channel=6, data=[55, 100]),\r\n",
      "   midi.NoteOnEvent(tick=192, channel=6, data=[55, 0]),\r\n",
      "   midi.NoteOnEvent(tick=0, channel=6, data=[53, 100]),\r\n",
      "   midi.NoteOnEvent(tick=192, channel=6, data=[53, 0]),\r\n",
      "   midi.NoteOnEvent(tick=0, channel=6, data=[52, 100]),\r\n",
      "   midi.NoteOnEvent(tick=192, channel=6, data=[52, 0]),\r\n",
      "   midi.NoteOnEvent(tick=0, channel=6, data=[53, 100]),\r\n",
      "   midi.NoteOnEvent(tick=192, channel=6, data=[53, 0]),\r\n",
      "   midi.NoteOnEvent(tick=0, channel=6, data=[52, 100]),\r\n",
      "   midi.NoteOnEvent(tick=192, channel=6, data=[52, 0]),\r\n",
      "   midi.NoteOnEvent(tick=0, channel=6, data=[50, 100]),\r\n",
      "   midi.NoteOnEvent(tick=192, channel=6, data=[50, 0]),\r\n",
      "   midi.NoteOnEvent(tick=0, channel=6, data=[48, 100]),\r\n",
      "   midi.NoteOnEvent(tick=192, channel=6, data=[48, 0]),\r\n",
      "   midi.NoteOnEvent(tick=0, channel=6, data=[52, 100]),\r\n",
      "   midi.NoteOnEvent(tick=192, channel=6, data=[52, 0]),\r\n",
      "   midi.NoteOnEvent(tick=0, channel=6, data=[48, 100]),\r\n",
      "   midi.NoteOnEvent(tick=192, channel=6, data=[48, 0]),\r\n",
      "   midi.NoteOnEvent(tick=0, channel=6, data=[45, 100]),\r\n",
      "   midi.NoteOnEvent(tick=192, channel=6, data=[45, 0]),\r\n",
      "   midi.NoteOnEvent(tick=0, channel=6, data=[50, 100]),\r\n",
      "   midi.NoteOnEvent(tick=192, channel=6, data=[50, 0]),\r\n",
      "   midi.NoteOnEvent(tick=0, channel=6, data=[53, 100]),\r\n",
      "   midi.NoteOnEvent(tick=192, channel=6, data=[53, 0]),\r\n",
      "   midi.NoteOnEvent(tick=0, channel=6, data=[50, 100]),\r\n",
      "   midi.NoteOnEvent(tick=192, channel=6, data=[50, 0]),\r\n",
      "   midi.NoteOnEvent(tick=0, channel=6, data=[47, 100]),\r\n",
      "   midi.NoteOnEvent(tick=192, channel=6, data=[47, 0]),\r\n",
      "   midi.NoteOnEvent(tick=0, channel=6, data=[48, 100]),\r\n",
      "   midi.NoteOnEvent(tick=192, channel=6, data=[48, 0]),\r\n",
      "   midi.NoteOnEvent(tick=0, channel=6, data=[45, 100]),\r\n",
      "   midi.NoteOnEvent(tick=192, channel=6, data=[45, 0]),\r\n",
      "   midi.NoteOnEvent(tick=0, channel=6, data=[52, 100]),\r\n",
      "   midi.NoteOnEvent(tick=192, channel=6, data=[52, 0]),\r\n",
      "   midi.NoteOnEvent(tick=0, channel=6, data=[40, 100]),\r\n",
      "   midi.NoteOnEvent(tick=192, channel=6, data=[40, 0]),\r\n",
      "   midi.NoteOnEvent(tick=0, channel=6, data=[45, 100]),\r\n",
      "   midi.NoteOnEvent(tick=192, channel=6, data=[45, 0]),\r\n",
      "   midi.NoteOnEvent(tick=0, channel=6, data=[60, 100]),\r\n",
      "   midi.NoteOnEvent(tick=96, channel=6, data=[60, 0]),\r\n",
      "   midi.NoteOnEvent(tick=0, channel=6, data=[59, 100]),\r\n",
      "   midi.NoteOnEvent(tick=96, channel=6, data=[59, 0]),\r\n",
      "   midi.NoteOnEvent(tick=0, channel=6, data=[57, 100]),\r\n",
      "   midi.NoteOnEvent(tick=96, channel=6, data=[57, 0]),\r\n",
      "   midi.NoteOnEvent(tick=0, channel=6, data=[55, 100]),\r\n",
      "   midi.NoteOnEvent(tick=96, channel=6, data=[55, 0]),\r\n",
      "   midi.NoteOnEvent(tick=0, channel=6, data=[53, 100]),\r\n",
      "   midi.NoteOnEvent(tick=96, channel=6, data=[53, 0]),\r\n",
      "   midi.NoteOnEvent(tick=0, channel=6, data=[52, 100]),\r\n",
      "   midi.NoteOnEvent(tick=96, channel=6, data=[52, 0]),\r\n",
      "   midi.NoteOnEvent(tick=0, channel=6, data=[53, 100]),\r\n",
      "   midi.NoteOnEvent(tick=192, channel=6, data=[53, 0]),\r\n",
      "   midi.NoteOnEvent(tick=0, channel=6, data=[57, 100]),\r\n",
      "   midi.NoteOnEvent(tick=192, channel=6, data=[57, 0]),\r\n",
      "   midi.NoteOnEvent(tick=0, channel=6, data=[53, 100]),\r\n",
      "   midi.NoteOnEvent(tick=192, channel=6, data=[53, 0]),\r\n",
      "   midi.NoteOnEvent(tick=0, channel=6, data=[50, 100]),\r\n",
      "   midi.NoteOnEvent(tick=192, channel=6, data=[50, 0]),\r\n",
      "   midi.NoteOnEvent(tick=0, channel=6, data=[55, 100]),\r\n",
      "   midi.NoteOnEvent(tick=192, channel=6, data=[55, 0]),\r\n",
      "   midi.NoteOnEvent(tick=0, channel=6, data=[43, 100]),\r\n",
      "   midi.NoteOnEvent(tick=192, channel=6, data=[43, 0]),\r\n",
      "   midi.NoteOnEvent(tick=1344, channel=6, data=[59, 100]),\r\n",
      "   midi.NoteOnEvent(tick=96, channel=6, data=[59, 0]),\r\n",
      "   midi.NoteOnEvent(tick=0, channel=6, data=[57, 100]),\r\n",
      "   midi.NoteOnEvent(tick=96, channel=6, data=[57, 0]),\r\n",
      "   midi.NoteOnEvent(tick=0, channel=6, data=[55, 100]),\r\n",
      "   midi.NoteOnEvent(tick=96, channel=6, data=[55, 0]),\r\n",
      "   midi.NoteOnEvent(tick=0, channel=6, data=[53, 100]),\r\n",
      "   midi.NoteOnEvent(tick=96, channel=6, data=[53, 0]),\r\n",
      "   midi.NoteOnEvent(tick=0, channel=6, data=[52, 100]),\r\n",
      "   midi.NoteOnEvent(tick=96, channel=6, data=[52, 0]),\r\n",
      "   midi.NoteOnEvent(tick=0, channel=6, data=[50, 100]),\r\n",
      "   midi.NoteOnEvent(tick=96, channel=6, data=[50, 0]),\r\n",
      "   midi.NoteOnEvent(tick=0, channel=6, data=[52, 100]),\r\n",
      "   midi.NoteOnEvent(tick=192, channel=6, data=[52, 0]),\r\n",
      "   midi.NoteOnEvent(tick=0, channel=6, data=[55, 100]),\r\n",
      "   midi.NoteOnEvent(tick=192, channel=6, data=[55, 0]),\r\n",
      "   midi.NoteOnEvent(tick=0, channel=6, data=[52, 100]),\r\n",
      "   midi.NoteOnEvent(tick=192, channel=6, data=[52, 0]),\r\n",
      "   midi.NoteOnEvent(tick=0, channel=6, data=[48, 100]),\r\n",
      "   midi.NoteOnEvent(tick=192, channel=6, data=[48, 0]),\r\n",
      "   midi.NoteOnEvent(tick=0, channel=6, data=[53, 100]),\r\n",
      "   midi.NoteOnEvent(tick=192, channel=6, data=[53, 0]),\r\n",
      "   midi.NoteOnEvent(tick=0, channel=6, data=[41, 100]),\r\n",
      "   midi.NoteOnEvent(tick=192, channel=6, data=[41, 0]),\r\n",
      "   midi.NoteOnEvent(tick=1344, channel=6, data=[57, 100]),\r\n",
      "   midi.NoteOnEvent(tick=96, channel=6, data=[57, 0]),\r\n",
      "   midi.NoteOnEvent(tick=0, channel=6, data=[55, 100]),\r\n",
      "   midi.NoteOnEvent(tick=96, channel=6, data=[55, 0]),\r\n",
      "   midi.NoteOnEvent(tick=0, channel=6, data=[53, 100]),\r\n",
      "   midi.NoteOnEvent(tick=96, channel=6, data=[53, 0]),\r\n",
      "   midi.NoteOnEvent(tick=0, channel=6, data=[52, 100]),\r\n",
      "   midi.NoteOnEvent(tick=96, channel=6, data=[52, 0]),\r\n",
      "   midi.NoteOnEvent(tick=0, channel=6, data=[50, 100]),\r\n",
      "   midi.NoteOnEvent(tick=96, channel=6, data=[50, 0]),\r\n",
      "   midi.NoteOnEvent(tick=0, channel=6, data=[48, 100]),\r\n",
      "   midi.NoteOnEvent(tick=96, channel=6, data=[48, 0]),\r\n",
      "   midi.NoteOnEvent(tick=0, channel=6, data=[50, 100]),\r\n",
      "   midi.NoteOnEvent(tick=96, channel=6, data=[50, 0]),\r\n",
      "   midi.NoteOnEvent(tick=0, channel=6, data=[52, 100]),\r\n",
      "   midi.NoteOnEvent(tick=96, channel=6, data=[52, 0]),\r\n",
      "   midi.NoteOnEvent(tick=0, channel=6, data=[50, 100]),\r\n",
      "   midi.NoteOnEvent(tick=96, channel=6, data=[50, 0]),\r\n",
      "   midi.NoteOnEvent(tick=0, channel=6, data=[48, 100]),\r\n",
      "   midi.NoteOnEvent(tick=96, channel=6, data=[48, 0]),\r\n",
      "   midi.NoteOnEvent(tick=0, channel=6, data=[47, 100]),\r\n",
      "   midi.NoteOnEvent(tick=96, channel=6, data=[47, 0]),\r\n",
      "   midi.NoteOnEvent(tick=0, channel=6, data=[48, 100]),\r\n",
      "   midi.NoteOnEvent(tick=96, channel=6, data=[48, 0]),\r\n",
      "   midi.NoteOnEvent(tick=0, channel=6, data=[47, 100]),\r\n",
      "   midi.NoteOnEvent(tick=96, channel=6, data=[47, 0]),\r\n",
      "   midi.NoteOnEvent(tick=0, channel=6, data=[45, 100]),\r\n",
      "   midi.NoteOnEvent(tick=96, channel=6, data=[45, 0]),\r\n",
      "   midi.NoteOnEvent(tick=0, channel=6, data=[44, 100]),\r\n",
      "   midi.NoteOnEvent(tick=96, channel=6, data=[44, 0]),\r\n",
      "   midi.NoteOnEvent(tick=0, channel=6, data=[40, 100]),\r\n",
      "   midi.NoteOnEvent(tick=96, channel=6, data=[40, 0]),\r\n",
      "   midi.NoteOnEvent(tick=0, channel=6, data=[42, 100]),\r\n",
      "   midi.NoteOnEvent(tick=96, channel=6, data=[42, 0]),\r\n",
      "   midi.NoteOnEvent(tick=0, channel=6, data=[44, 100]),\r\n",
      "   midi.NoteOnEvent(tick=96, channel=6, data=[44, 0]),\r\n",
      "   midi.NoteOnEvent(tick=0, channel=6, data=[45, 100]),\r\n",
      "   midi.NoteOnEvent(tick=96, channel=6, data=[45, 0]),\r\n",
      "   midi.NoteOnEvent(tick=0, channel=6, data=[47, 100]),\r\n",
      "   midi.NoteOnEvent(tick=96, channel=6, data=[47, 0]),\r\n",
      "   midi.NoteOnEvent(tick=0, channel=6, data=[48, 100]),\r\n",
      "   midi.NoteOnEvent(tick=96, channel=6, data=[48, 0]),\r\n",
      "   midi.NoteOnEvent(tick=0, channel=6, data=[45, 100]),\r\n",
      "   midi.NoteOnEvent(tick=96, channel=6, data=[45, 0]),\r\n",
      "   midi.NoteOnEvent(tick=0, channel=6, data=[41, 100]),\r\n",
      "   midi.NoteOnEvent(tick=192, channel=6, data=[41, 0]),\r\n",
      "   midi.NoteOnEvent(tick=0, channel=6, data=[48, 100]),\r\n",
      "   midi.NoteOnEvent(tick=192, channel=6, data=[48, 0]),\r\n",
      "   midi.NoteOnEvent(tick=0, channel=6, data=[50, 100]),\r\n",
      "   midi.NoteOnEvent(tick=192, channel=6, data=[50, 0]),\r\n",
      "   midi.NoteOnEvent(tick=0, channel=6, data=[47, 100]),\r\n",
      "   midi.NoteOnEvent(tick=192, channel=6, data=[47, 0]),\r\n",
      "   midi.NoteOnEvent(tick=0, channel=6, data=[52, 100]),\r\n",
      "   midi.NoteOnEvent(tick=288, channel=6, data=[52, 0]),\r\n",
      "   midi.NoteOnEvent(tick=0, channel=6, data=[54, 100]),\r\n",
      "   midi.NoteOnEvent(tick=48, channel=6, data=[54, 0]),\r\n",
      "   midi.NoteOnEvent(tick=0, channel=6, data=[56, 100]),\r\n",
      "   midi.NoteOnEvent(tick=48, channel=6, data=[56, 0]),\r\n",
      "   midi.NoteOnEvent(tick=0, channel=6, data=[57, 100]),\r\n",
      "   midi.NoteOnEvent(tick=96, channel=6, data=[57, 0]),\r\n",
      "   midi.NoteOnEvent(tick=0, channel=6, data=[59, 100]),\r\n",
      "   midi.NoteOnEvent(tick=96, channel=6, data=[59, 0]),\r\n",
      "   midi.NoteOnEvent(tick=0, channel=6, data=[60, 100]),\r\n",
      "   midi.NoteOnEvent(tick=96, channel=6, data=[60, 0]),\r\n",
      "   midi.NoteOnEvent(tick=0, channel=6, data=[62, 100]),\r\n",
      "   midi.NoteOnEvent(tick=96, channel=6, data=[62, 0]),\r\n",
      "   midi.NoteOnEvent(tick=0, channel=6, data=[64, 100]),\r\n",
      "   midi.NoteOnEvent(tick=192, channel=6, data=[64, 0]),\r\n",
      "   midi.NoteOnEvent(tick=0, channel=6, data=[62, 100]),\r\n",
      "   midi.NoteOnEvent(tick=192, channel=6, data=[62, 0]),\r\n",
      "   midi.NoteOnEvent(tick=0, channel=6, data=[64, 100]),\r\n",
      "   midi.NoteOnEvent(tick=192, channel=6, data=[64, 0]),\r\n",
      "   midi.NoteOnEvent(tick=0, channel=6, data=[52, 100]),\r\n",
      "   midi.NoteOnEvent(tick=192, channel=6, data=[52, 0]),\r\n",
      "   midi.NoteOnEvent(tick=0, channel=6, data=[62, 100]),\r\n",
      "   midi.NoteOnEvent(tick=192, channel=6, data=[62, 0]),\r\n",
      "   midi.NoteOnEvent(tick=0, channel=6, data=[64, 100]),\r\n",
      "   midi.NoteOnEvent(tick=192, channel=6, data=[64, 0]),\r\n",
      "   midi.NoteOnEvent(tick=0, channel=6, data=[62, 100]),\r\n",
      "   midi.NoteOnEvent(tick=192, channel=6, data=[62, 0]),\r\n",
      "   midi.NoteOnEvent(tick=0, channel=6, data=[60, 100]),\r\n",
      "   midi.NoteOnEvent(tick=192, channel=6, data=[60, 0]),\r\n",
      "   midi.NoteOnEvent(tick=0, channel=6, data=[59, 100]),\r\n",
      "   midi.NoteOnEvent(tick=192, channel=6, data=[59, 0]),\r\n",
      "   midi.NoteOnEvent(tick=0, channel=6, data=[60, 100]),\r\n",
      "   midi.NoteOnEvent(tick=192, channel=6, data=[60, 0]),\r\n",
      "   midi.NoteOnEvent(tick=0, channel=6, data=[59, 100]),\r\n",
      "   midi.NoteOnEvent(tick=192, channel=6, data=[59, 0]),\r\n",
      "   midi.NoteOnEvent(tick=0, channel=6, data=[57, 100]),\r\n",
      "   midi.NoteOnEvent(tick=192, channel=6, data=[57, 0]),\r\n",
      "   midi.NoteOnEvent(tick=0, channel=6, data=[56, 100]),\r\n",
      "   midi.NoteOnEvent(tick=192, channel=6, data=[56, 0]),\r\n",
      "   midi.NoteOnEvent(tick=0, channel=6, data=[57, 100]),\r\n",
      "   midi.NoteOnEvent(tick=192, channel=6, data=[57, 0]),\r\n",
      "   midi.NoteOnEvent(tick=0, channel=6, data=[59, 100]),\r\n",
      "   midi.NoteOnEvent(tick=192, channel=6, data=[59, 0]),\r\n",
      "   midi.NoteOnEvent(tick=0, channel=6, data=[60, 100]),\r\n",
      "   midi.NoteOnEvent(tick=192, channel=6, data=[60, 0]),\r\n",
      "   midi.NoteOnEvent(tick=0, channel=6, data=[50, 100]),\r\n",
      "   midi.NoteOnEvent(tick=192, channel=6, data=[50, 0]),\r\n",
      "   midi.NoteOnEvent(tick=0, channel=6, data=[52, 100]),\r\n",
      "   midi.NoteOnEvent(tick=192, channel=6, data=[52, 0]),\r\n",
      "   midi.NoteOnEvent(tick=0, channel=6, data=[53, 100]),\r\n",
      "   midi.NoteOnEvent(tick=192, channel=6, data=[53, 0]),\r\n",
      "   midi.NoteOnEvent(tick=0, channel=6, data=[47, 100]),\r\n",
      "   midi.NoteOnEvent(tick=192, channel=6, data=[47, 0]),\r\n",
      "   midi.NoteOnEvent(tick=0, channel=6, data=[52, 100]),\r\n",
      "   midi.NoteOnEvent(tick=192, channel=6, data=[52, 0]),\r\n",
      "   midi.NoteOnEvent(tick=0, channel=6, data=[50, 100]),\r\n",
      "   midi.NoteOnEvent(tick=96, channel=6, data=[50, 0]),\r\n",
      "   midi.NoteOnEvent(tick=0, channel=6, data=[48, 100]),\r\n",
      "   midi.NoteOnEvent(tick=96, channel=6, data=[48, 0]),\r\n",
      "   midi.NoteOnEvent(tick=0, channel=6, data=[47, 100]),\r\n",
      "   midi.NoteOnEvent(tick=192, channel=6, data=[47, 0]),\r\n",
      "   midi.NoteOnEvent(tick=0, channel=6, data=[45, 100]),\r\n",
      "   midi.NoteOnEvent(tick=192, channel=6, data=[45, 0]),\r\n",
      "   midi.NoteOnEvent(tick=0, channel=6, data=[44, 100]),\r\n",
      "   midi.NoteOnEvent(tick=192, channel=6, data=[44, 0]),\r\n",
      "   midi.NoteOnEvent(tick=0, channel=6, data=[42, 100]),\r\n",
      "   midi.NoteOnEvent(tick=192, channel=6, data=[42, 0]),\r\n",
      "   midi.NoteOnEvent(tick=0, channel=6, data=[40, 100]),\r\n",
      "   midi.NoteOnEvent(tick=192, channel=6, data=[40, 0]),\r\n",
      "   midi.NoteOnEvent(tick=0, channel=6, data=[38, 100]),\r\n",
      "   midi.NoteOnEvent(tick=192, channel=6, data=[38, 0]),\r\n",
      "   midi.NoteOnEvent(tick=0, channel=6, data=[36, 100]),\r\n",
      "   midi.NoteOnEvent(tick=192, channel=6, data=[36, 0]),\r\n",
      "   midi.NoteOnEvent(tick=0, channel=6, data=[53, 100]),\r\n",
      "   midi.NoteOnEvent(tick=192, channel=6, data=[53, 0]),\r\n",
      "   midi.NoteOnEvent(tick=0, channel=6, data=[50, 100]),\r\n",
      "   midi.NoteOnEvent(tick=192, channel=6, data=[50, 0]),\r\n",
      "   midi.NoteOnEvent(tick=0, channel=6, data=[52, 100]),\r\n",
      "   midi.NoteOnEvent(tick=192, channel=6, data=[52, 0]),\r\n",
      "   midi.NoteOnEvent(tick=0, channel=6, data=[41, 100]),\r\n",
      "   midi.NoteOnEvent(tick=384, channel=6, data=[41, 0]),\r\n",
      "   midi.NoteOnEvent(tick=192, channel=6, data=[53, 100]),\r\n",
      "   midi.NoteOnEvent(tick=192, channel=6, data=[53, 0]),\r\n",
      "   midi.NoteOnEvent(tick=0, channel=6, data=[44, 100]),\r\n",
      "   midi.NoteOnEvent(tick=192, channel=6, data=[44, 0]),\r\n",
      "   midi.NoteOnEvent(tick=0, channel=6, data=[44, 100]),\r\n",
      "   midi.NoteOnEvent(tick=192, channel=6, data=[44, 0]),\r\n",
      "   midi.NoteOnEvent(tick=0, channel=6, data=[44, 100]),\r\n",
      "   midi.NoteOnEvent(tick=192, channel=6, data=[44, 0]),\r\n",
      "   midi.NoteOnEvent(tick=0, channel=6, data=[59, 100]),\r\n",
      "   midi.NoteOnEvent(tick=192, channel=6, data=[59, 0]),\r\n",
      "   midi.NoteOnEvent(tick=0, channel=6, data=[50, 100]),\r\n",
      "   midi.NoteOnEvent(tick=192, channel=6, data=[50, 0]),\r\n",
      "   midi.NoteOnEvent(tick=0, channel=6, data=[50, 100]),\r\n",
      "   midi.NoteOnEvent(tick=192, channel=6, data=[50, 0]),\r\n",
      "   midi.NoteOnEvent(tick=0, channel=6, data=[50, 100]),\r\n",
      "   midi.NoteOnEvent(tick=192, channel=6, data=[50, 0]),\r\n",
      "   midi.NoteOnEvent(tick=0, channel=6, data=[53, 100]),\r\n",
      "   midi.NoteOnEvent(tick=192, channel=6, data=[53, 0]),\r\n",
      "   midi.NoteOnEvent(tick=0, channel=6, data=[47, 100]),\r\n",
      "   midi.NoteOnEvent(tick=192, channel=6, data=[47, 0]),\r\n",
      "   midi.NoteOnEvent(tick=0, channel=6, data=[48, 100]),\r\n",
      "   midi.NoteOnEvent(tick=96, channel=6, data=[48, 0]),\r\n",
      "   midi.NoteOnEvent(tick=0, channel=6, data=[50, 100]),\r\n",
      "   midi.NoteOnEvent(tick=96, channel=6, data=[50, 0]),\r\n",
      "   midi.NoteOnEvent(tick=0, channel=6, data=[52, 100]),\r\n",
      "   midi.NoteOnEvent(tick=192, channel=6, data=[52, 0]),\r\n",
      "   midi.NoteOnEvent(tick=0, channel=6, data=[40, 100]),\r\n",
      "   midi.NoteOnEvent(tick=192, channel=6, data=[40, 0]),\r\n",
      "   midi.NoteOnEvent(tick=0, channel=6, data=[45, 100]),\r\n",
      "   midi.NoteOnEvent(tick=576, channel=6, data=[45, 0]),\r\n",
      "   midi.EndOfTrackEvent(tick=0, data=[])]),\r\n",
      " midi.Track(\\\r\n",
      "  [midi.PortEvent(tick=0, data=[0]),\r\n",
      "   midi.TrackNameEvent(tick=0, text='------------------------------------------', data=[45, 45, 45, 45, 45, 45, 45, 45, 45, 45, 45, 45, 45, 45, 45, 45, 45, 45, 45, 45, 45, 45, 45, 45, 45, 45, 45, 45, 45, 45, 45, 45, 45, 45, 45, 45, 45, 45, 45, 45, 45, 45]),\r\n",
      "   midi.EndOfTrackEvent(tick=0, data=[])]),\r\n",
      " midi.Track(\\\r\n",
      "  [midi.PortEvent(tick=0, data=[0]),\r\n",
      "   midi.TrackNameEvent(tick=0, text='Johann Sebastian Bach  (1685-1750)', data=[74, 111, 104, 97, 110, 110, 32, 83, 101, 98, 97, 115, 116, 105, 97, 110, 32, 66, 97, 99, 104, 32, 32, 40, 49, 54, 56, 53, 45, 49, 55, 53, 48, 41]),\r\n",
      "   midi.EndOfTrackEvent(tick=0, data=[])]),\r\n",
      " midi.Track(\\\r\n",
      "  [midi.PortEvent(tick=0, data=[0]),\r\n",
      "   midi.TrackNameEvent(tick=0, text='Violin Concerto No. 1 in A minor - BWV 1041', data=[86, 105, 111, 108, 105, 110, 32, 67, 111, 110, 99, 101, 114, 116, 111, 32, 78, 111, 46, 32, 49, 32, 105, 110, 32, 65, 32, 109, 105, 110, 111, 114, 32, 45, 32, 66, 87, 86, 32, 49, 48, 52, 49]),\r\n",
      "   midi.EndOfTrackEvent(tick=0, data=[])]),\r\n",
      " midi.Track(\\\r\n",
      "  [midi.PortEvent(tick=0, data=[0]),\r\n",
      "   midi.TrackNameEvent(tick=0, text='1st Movement: ( Allegro moderato )', data=[49, 115, 116, 32, 77, 111, 118, 101, 109, 101, 110, 116, 58, 32, 40, 32, 65, 108, 108, 101, 103, 114, 111, 32, 109, 111, 100, 101, 114, 97, 116, 111, 32, 41]),\r\n",
      "   midi.EndOfTrackEvent(tick=0, data=[])]),\r\n",
      " midi.Track(\\\r\n",
      "  [midi.PortEvent(tick=0, data=[0]),\r\n",
      "   midi.TrackNameEvent(tick=0, text='------------------------------------------', data=[45, 45, 45, 45, 45, 45, 45, 45, 45, 45, 45, 45, 45, 45, 45, 45, 45, 45, 45, 45, 45, 45, 45, 45, 45, 45, 45, 45, 45, 45, 45, 45, 45, 45, 45, 45, 45, 45, 45, 45, 45, 45]),\r\n",
      "   midi.EndOfTrackEvent(tick=0, data=[])])])\r\n"
     ]
    }
   ],
   "source": [
    "# Look at the file\n",
    "! mididump.py midi/bwv1041a.mid"
   ]
  },
  {
   "cell_type": "code",
   "execution_count": 5,
   "metadata": {},
   "outputs": [],
   "source": [
    "# https://github.com/vishnubob/python-midi\n",
    "bwv = midi.read_midifile('midi/bwv1041a.mid')"
   ]
  },
  {
   "cell_type": "code",
   "execution_count": 6,
   "metadata": {
    "scrolled": true
   },
   "outputs": [
    {
     "name": "stdout",
     "output_type": "stream",
     "text": [
      "midi.TrackNameEvent(tick=0, text='untitled', data=[117, 110, 116, 105, 116, 108, 101, 100])\n",
      "midi.SmpteOffsetEvent(tick=0, data=[96, 0, 3, 0, 0])\n",
      "midi.TimeSignatureEvent(tick=0, data=[2, 2, 24, 8])\n",
      "midi.KeySignatureEvent(tick=0, data=[0, 0])\n",
      "midi.SetTempoEvent(tick=0, data=[9, 216, 41])\n",
      "midi.EndOfTrackEvent(tick=0, data=[])\n",
      "midi.PortEvent(tick=0, data=[0])\n",
      "midi.TrackNameEvent(tick=0, text='Solo Violin', data=[83, 111, 108, 111, 32, 86, 105, 111, 108, 105, 110])\n",
      "midi.ProgramChangeEvent(tick=0, channel=0, data=[40])\n",
      "midi.ControlChangeEvent(tick=0, channel=0, data=[7, 115])\n",
      "midi.ControlChangeEvent(tick=0, channel=0, data=[10, 64])\n",
      "midi.NoteOnEvent(tick=576, channel=0, data=[76, 100])\n",
      "midi.NoteOnEvent(tick=192, channel=0, data=[76, 0])\n",
      "midi.NoteOnEvent(tick=0, channel=0, data=[81, 100])\n",
      "midi.NoteOnEvent(tick=384, channel=0, data=[81, 0])\n",
      "midi.NoteOnEvent(tick=192, channel=0, data=[76, 100])\n",
      "midi.NoteOnEvent(tick=192, channel=0, data=[76, 0])\n",
      "midi.NoteOnEvent(tick=0, channel=0, data=[77, 100])\n",
      "midi.NoteOnEvent(tick=384, channel=0, data=[77, 0])\n",
      "midi.NoteOnEvent(tick=192, channel=0, data=[74, 100])\n",
      "midi.NoteOnEvent(tick=192, channel=0, data=[74, 0])\n",
      "midi.NoteOnEvent(tick=0, channel=0, data=[76, 100])\n",
      "midi.NoteOnEvent(tick=96, channel=0, data=[76, 0])\n",
      "midi.NoteOnEvent(tick=0, channel=0, data=[74, 100])\n",
      "midi.NoteOnEvent(tick=96, channel=0, data=[74, 0])\n",
      "midi.NoteOnEvent(tick=0, channel=0, data=[72, 100])\n",
      "midi.NoteOnEvent(tick=96, channel=0, data=[72, 0])\n",
      "midi.NoteOnEvent(tick=0, channel=0, data=[76, 100])\n",
      "midi.NoteOnEvent(tick=96, channel=0, data=[76, 0])\n",
      "midi.NoteOnEvent(tick=0, channel=0, data=[74, 100])\n",
      "midi.NoteOnEvent(tick=96, channel=0, data=[74, 0])\n",
      "midi.NoteOnEvent(tick=0, channel=0, data=[72, 100])\n",
      "midi.NoteOnEvent(tick=96, channel=0, data=[72, 0])\n",
      "midi.NoteOnEvent(tick=0, channel=0, data=[71, 100])\n",
      "midi.NoteOnEvent(tick=96, channel=0, data=[71, 0])\n",
      "midi.NoteOnEvent(tick=0, channel=0, data=[74, 100])\n",
      "midi.NoteOnEvent(tick=96, channel=0, data=[74, 0])\n",
      "midi.NoteOnEvent(tick=0, channel=0, data=[72, 100])\n",
      "midi.NoteOnEvent(tick=192, channel=0, data=[72, 0])\n",
      "midi.NoteOnEvent(tick=0, channel=0, data=[69, 100])\n",
      "midi.NoteOnEvent(tick=192, channel=0, data=[69, 0])\n",
      "midi.NoteOnEvent(tick=96, channel=0, data=[69, 100])\n",
      "midi.NoteOnEvent(tick=96, channel=0, data=[69, 0])\n",
      "midi.NoteOnEvent(tick=0, channel=0, data=[68, 100])\n",
      "midi.NoteOnEvent(tick=96, channel=0, data=[68, 0])\n",
      "midi.NoteOnEvent(tick=0, channel=0, data=[69, 100])\n",
      "midi.NoteOnEvent(tick=96, channel=0, data=[69, 0])\n",
      "midi.NoteOnEvent(tick=0, channel=0, data=[71, 100])\n",
      "midi.NoteOnEvent(tick=96, channel=0, data=[71, 0])\n",
      "midi.NoteOnEvent(tick=0, channel=0, data=[69, 100])\n",
      "midi.NoteOnEvent(tick=96, channel=0, data=[69, 0])\n",
      "midi.NoteOnEvent(tick=0, channel=0, data=[68, 100])\n",
      "midi.NoteOnEvent(tick=96, channel=0, data=[68, 0])\n",
      "midi.NoteOnEvent(tick=0, channel=0, data=[69, 100])\n",
      "midi.NoteOnEvent(tick=96, channel=0, data=[69, 0])\n",
      "midi.NoteOnEvent(tick=0, channel=0, data=[72, 100])\n",
      "midi.NoteOnEvent(tick=96, channel=0, data=[72, 0])\n",
      "midi.NoteOnEvent(tick=0, channel=0, data=[69, 100])\n",
      "midi.NoteOnEvent(tick=96, channel=0, data=[69, 0])\n",
      "midi.NoteOnEvent(tick=0, channel=0, data=[68, 100])\n",
      "midi.NoteOnEvent(tick=96, channel=0, data=[68, 0])\n",
      "midi.NoteOnEvent(tick=0, channel=0, data=[69, 100])\n",
      "midi.NoteOnEvent(tick=96, channel=0, data=[69, 0])\n",
      "midi.NoteOnEvent(tick=0, channel=0, data=[74, 100])\n",
      "midi.NoteOnEvent(tick=96, channel=0, data=[74, 0])\n",
      "midi.NoteOnEvent(tick=0, channel=0, data=[69, 100])\n",
      "midi.NoteOnEvent(tick=96, channel=0, data=[69, 0])\n",
      "midi.NoteOnEvent(tick=0, channel=0, data=[68, 100])\n",
      "midi.NoteOnEvent(tick=96, channel=0, data=[68, 0])\n",
      "midi.NoteOnEvent(tick=0, channel=0, data=[69, 100])\n",
      "midi.NoteOnEvent(tick=96, channel=0, data=[69, 0])\n",
      "midi.NoteOnEvent(tick=0, channel=0, data=[76, 100])\n",
      "midi.NoteOnEvent(tick=96, channel=0, data=[76, 0])\n",
      "midi.NoteOnEvent(tick=0, channel=0, data=[69, 100])\n",
      "midi.NoteOnEvent(tick=96, channel=0, data=[69, 0])\n",
      "midi.NoteOnEvent(tick=0, channel=0, data=[68, 100])\n",
      "midi.NoteOnEvent(tick=96, channel=0, data=[68, 0])\n",
      "midi.NoteOnEvent(tick=0, channel=0, data=[69, 100])\n",
      "midi.NoteOnEvent(tick=96, channel=0, data=[69, 0])\n",
      "midi.NoteOnEvent(tick=0, channel=0, data=[77, 100])\n",
      "midi.NoteOnEvent(tick=96, channel=0, data=[77, 0])\n",
      "midi.NoteOnEvent(tick=0, channel=0, data=[79, 100])\n",
      "midi.NoteOnEvent(tick=96, channel=0, data=[79, 0])\n",
      "midi.NoteOnEvent(tick=0, channel=0, data=[77, 100])\n",
      "midi.NoteOnEvent(tick=96, channel=0, data=[77, 0])\n",
      "midi.NoteOnEvent(tick=0, channel=0, data=[76, 100])\n",
      "midi.NoteOnEvent(tick=96, channel=0, data=[76, 0])\n",
      "midi.NoteOnEvent(tick=0, channel=0, data=[74, 100])\n",
      "midi.NoteOnEvent(tick=96, channel=0, data=[74, 0])\n",
      "midi.NoteOnEvent(tick=0, channel=0, data=[72, 100])\n",
      "midi.NoteOnEvent(tick=96, channel=0, data=[72, 0])\n",
      "midi.NoteOnEvent(tick=0, channel=0, data=[71, 100])\n",
      "midi.NoteOnEvent(tick=96, channel=0, data=[71, 0])\n",
      "midi.NoteOnEvent(tick=0, channel=0, data=[69, 100])\n",
      "midi.NoteOnEvent(tick=96, channel=0, data=[69, 0])\n",
      "midi.NoteOnEvent(tick=0, channel=0, data=[68, 100])\n",
      "midi.NoteOnEvent(tick=192, channel=0, data=[68, 0])\n",
      "midi.NoteOnEvent(tick=0, channel=0, data=[64, 100])\n",
      "midi.NoteOnEvent(tick=192, channel=0, data=[64, 0])\n",
      "midi.NoteOnEvent(tick=0, channel=0, data=[83, 100])\n",
      "midi.NoteOnEvent(tick=576, channel=0, data=[83, 0])\n",
      "midi.NoteOnEvent(tick=0, channel=0, data=[81, 100])\n",
      "midi.NoteOnEvent(tick=96, channel=0, data=[81, 0])\n",
      "midi.NoteOnEvent(tick=0, channel=0, data=[80, 100])\n",
      "midi.NoteOnEvent(tick=96, channel=0, data=[80, 0])\n",
      "midi.NoteOnEvent(tick=0, channel=0, data=[81, 100])\n",
      "midi.NoteOnEvent(tick=192, channel=0, data=[81, 0])\n",
      "midi.NoteOnEvent(tick=0, channel=0, data=[84, 100])\n",
      "midi.NoteOnEvent(tick=384, channel=0, data=[84, 0])\n",
      "midi.NoteOnEvent(tick=0, channel=0, data=[78, 100])\n",
      "midi.NoteOnEvent(tick=192, channel=0, data=[78, 0])\n",
      "midi.NoteOnEvent(tick=0, channel=0, data=[81, 100])\n",
      "midi.NoteOnEvent(tick=576, channel=0, data=[81, 0])\n",
      "midi.NoteOnEvent(tick=0, channel=0, data=[79, 100])\n",
      "midi.NoteOnEvent(tick=96, channel=0, data=[79, 0])\n",
      "midi.NoteOnEvent(tick=0, channel=0, data=[78, 100])\n",
      "midi.NoteOnEvent(tick=96, channel=0, data=[78, 0])\n",
      "midi.NoteOnEvent(tick=0, channel=0, data=[79, 100])\n",
      "midi.NoteOnEvent(tick=192, channel=0, data=[79, 0])\n",
      "midi.NoteOnEvent(tick=0, channel=0, data=[83, 100])\n",
      "midi.NoteOnEvent(tick=288, channel=0, data=[83, 0])\n",
      "midi.NoteOnEvent(tick=0, channel=0, data=[81, 100])\n",
      "midi.NoteOnEvent(tick=96, channel=0, data=[81, 0])\n",
      "midi.NoteOnEvent(tick=0, channel=0, data=[79, 100])\n",
      "midi.NoteOnEvent(tick=96, channel=0, data=[79, 0])\n",
      "midi.NoteOnEvent(tick=0, channel=0, data=[78, 100])\n",
      "midi.NoteOnEvent(tick=96, channel=0, data=[78, 0])\n",
      "midi.NoteOnEvent(tick=0, channel=0, data=[76, 100])\n",
      "midi.NoteOnEvent(tick=576, channel=0, data=[76, 0])\n",
      "midi.NoteOnEvent(tick=0, channel=0, data=[78, 100])\n",
      "midi.NoteOnEvent(tick=96, channel=0, data=[78, 0])\n",
      "midi.NoteOnEvent(tick=0, channel=0, data=[79, 100])\n",
      "midi.NoteOnEvent(tick=96, channel=0, data=[79, 0])\n",
      "midi.NoteOnEvent(tick=0, channel=0, data=[81, 100])\n",
      "midi.NoteOnEvent(tick=192, channel=0, data=[81, 0])\n",
      "midi.NoteOnEvent(tick=0, channel=0, data=[72, 100])\n",
      "midi.NoteOnEvent(tick=192, channel=0, data=[72, 0])\n",
      "midi.NoteOnEvent(tick=0, channel=0, data=[71, 100])\n",
      "midi.NoteOnEvent(tick=192, channel=0, data=[71, 0])\n",
      "midi.NoteOnEvent(tick=0, channel=0, data=[81, 100])\n",
      "midi.NoteOnEvent(tick=192, channel=0, data=[81, 0])\n",
      "midi.NoteOnEvent(tick=0, channel=0, data=[79, 100])\n",
      "midi.NoteOnEvent(tick=192, channel=0, data=[79, 0])\n",
      "midi.NoteOnEvent(tick=0, channel=0, data=[71, 100])\n",
      "midi.NoteOnEvent(tick=192, channel=0, data=[71, 0])\n",
      "midi.NoteOnEvent(tick=0, channel=0, data=[69, 100])\n",
      "midi.NoteOnEvent(tick=96, channel=0, data=[69, 0])\n",
      "midi.NoteOnEvent(tick=0, channel=0, data=[71, 100])\n",
      "midi.NoteOnEvent(tick=96, channel=0, data=[71, 0])\n",
      "midi.NoteOnEvent(tick=0, channel=0, data=[72, 100])\n",
      "midi.NoteOnEvent(tick=96, channel=0, data=[72, 0])\n",
      "midi.NoteOnEvent(tick=0, channel=0, data=[71, 100])\n",
      "midi.NoteOnEvent(tick=96, channel=0, data=[71, 0])\n",
      "midi.NoteOnEvent(tick=0, channel=0, data=[69, 100])\n",
      "midi.NoteOnEvent(tick=96, channel=0, data=[69, 0])\n",
      "midi.NoteOnEvent(tick=0, channel=0, data=[67, 100])\n",
      "midi.NoteOnEvent(tick=96, channel=0, data=[67, 0])\n",
      "midi.NoteOnEvent(tick=0, channel=0, data=[66, 100])\n",
      "midi.NoteOnEvent(tick=96, channel=0, data=[66, 0])\n",
      "midi.NoteOnEvent(tick=0, channel=0, data=[64, 100])\n",
      "midi.NoteOnEvent(tick=96, channel=0, data=[64, 0])\n",
      "midi.NoteOnEvent(tick=0, channel=0, data=[63, 100])\n",
      "midi.NoteOnEvent(tick=192, channel=0, data=[63, 0])\n",
      "midi.NoteOnEvent(tick=0, channel=0, data=[72, 100])\n",
      "midi.NoteOnEvent(tick=192, channel=0, data=[72, 0])\n",
      "midi.NoteOnEvent(tick=0, channel=0, data=[71, 100])\n",
      "midi.NoteOnEvent(tick=192, channel=0, data=[71, 0])\n",
      "midi.NoteOnEvent(tick=0, channel=0, data=[76, 100])\n",
      "midi.NoteOnEvent(tick=192, channel=0, data=[76, 0])\n",
      "midi.NoteOnEvent(tick=0, channel=0, data=[79, 100])\n",
      "midi.NoteOnEvent(tick=384, channel=0, data=[79, 0])\n",
      "midi.NoteOnEvent(tick=0, channel=0, data=[78, 100])\n",
      "midi.NoteOnEvent(tick=48, channel=0, data=[78, 0])\n",
      "midi.NoteOnEvent(tick=0, channel=0, data=[79, 100])\n",
      "midi.NoteOnEvent(tick=48, channel=0, data=[79, 0])\n",
      "midi.NoteOnEvent(tick=0, channel=0, data=[78, 100])\n",
      "midi.NoteOnEvent(tick=48, channel=0, data=[78, 0])\n",
      "midi.NoteOnEvent(tick=0, channel=0, data=[79, 100])\n",
      "midi.NoteOnEvent(tick=48, channel=0, data=[79, 0])\n",
      "midi.NoteOnEvent(tick=0, channel=0, data=[78, 100])\n",
      "midi.NoteOnEvent(tick=48, channel=0, data=[78, 0])\n",
      "midi.NoteOnEvent(tick=0, channel=0, data=[79, 100])\n",
      "midi.NoteOnEvent(tick=48, channel=0, data=[79, 0])\n",
      "midi.NoteOnEvent(tick=0, channel=0, data=[78, 100])\n",
      "midi.NoteOnEvent(tick=48, channel=0, data=[78, 0])\n",
      "midi.NoteOnEvent(tick=0, channel=0, data=[79, 100])\n",
      "midi.NoteOnEvent(tick=48, channel=0, data=[79, 0])\n",
      "midi.NoteOnEvent(tick=0, channel=0, data=[78, 100])\n",
      "midi.NoteOnEvent(tick=96, channel=0, data=[78, 0])\n",
      "midi.NoteOnEvent(tick=0, channel=0, data=[79, 100])\n",
      "midi.NoteOnEvent(tick=96, channel=0, data=[79, 0])\n",
      "midi.NoteOnEvent(tick=0, channel=0, data=[81, 100])\n",
      "midi.NoteOnEvent(tick=96, channel=0, data=[81, 0])\n",
      "midi.NoteOnEvent(tick=0, channel=0, data=[78, 100])\n",
      "midi.NoteOnEvent(tick=96, channel=0, data=[78, 0])\n",
      "midi.NoteOnEvent(tick=0, channel=0, data=[75, 100])\n",
      "midi.NoteOnEvent(tick=96, channel=0, data=[75, 0])\n",
      "midi.NoteOnEvent(tick=0, channel=0, data=[76, 100])\n",
      "midi.NoteOnEvent(tick=96, channel=0, data=[76, 0])\n",
      "midi.NoteOnEvent(tick=0, channel=0, data=[78, 100])\n",
      "midi.NoteOnEvent(tick=96, channel=0, data=[78, 0])\n",
      "midi.NoteOnEvent(tick=0, channel=0, data=[75, 100])\n",
      "midi.NoteOnEvent(tick=96, channel=0, data=[75, 0])\n",
      "midi.NoteOnEvent(tick=0, channel=0, data=[83, 100])\n",
      "midi.NoteOnEvent(tick=192, channel=0, data=[83, 0])\n",
      "midi.NoteOnEvent(tick=0, channel=0, data=[76, 100])\n",
      "midi.NoteOnEvent(tick=192, channel=0, data=[76, 0])\n",
      "midi.NoteOnEvent(tick=0, channel=0, data=[78, 100])\n",
      "midi.NoteOnEvent(tick=192, channel=0, data=[78, 0])\n",
      "midi.NoteOnEvent(tick=0, channel=0, data=[75, 100])\n",
      "midi.NoteOnEvent(tick=192, channel=0, data=[75, 0])\n",
      "midi.NoteOnEvent(tick=0, channel=0, data=[76, 100])\n",
      "midi.NoteOnEvent(tick=96, channel=0, data=[76, 0])\n",
      "midi.NoteOnEvent(tick=0, channel=0, data=[74, 100])\n",
      "midi.NoteOnEvent(tick=96, channel=0, data=[74, 0])\n",
      "midi.NoteOnEvent(tick=0, channel=0, data=[72, 100])\n",
      "midi.NoteOnEvent(tick=96, channel=0, data=[72, 0])\n",
      "midi.NoteOnEvent(tick=0, channel=0, data=[71, 100])\n",
      "midi.NoteOnEvent(tick=96, channel=0, data=[71, 0])\n",
      "midi.NoteOnEvent(tick=0, channel=0, data=[69, 100])\n",
      "midi.NoteOnEvent(tick=192, channel=0, data=[69, 0])\n",
      "midi.NoteOnEvent(tick=0, channel=0, data=[69, 100])\n",
      "midi.NoteOnEvent(tick=192, channel=0, data=[69, 0])\n",
      "midi.NoteOnEvent(tick=0, channel=0, data=[69, 100])\n",
      "midi.NoteOnEvent(tick=96, channel=0, data=[69, 0])\n",
      "midi.NoteOnEvent(tick=0, channel=0, data=[71, 100])\n",
      "midi.NoteOnEvent(tick=96, channel=0, data=[71, 0])\n",
      "midi.NoteOnEvent(tick=0, channel=0, data=[72, 100])\n",
      "midi.NoteOnEvent(tick=288, channel=0, data=[72, 0])\n",
      "midi.NoteOnEvent(tick=0, channel=0, data=[71, 100])\n",
      "midi.NoteOnEvent(tick=96, channel=0, data=[71, 0])\n",
      "midi.NoteOnEvent(tick=0, channel=0, data=[69, 100])\n",
      "midi.NoteOnEvent(tick=96, channel=0, data=[69, 0])\n",
      "midi.NoteOnEvent(tick=0, channel=0, data=[67, 100])\n",
      "midi.NoteOnEvent(tick=96, channel=0, data=[67, 0])\n",
      "midi.NoteOnEvent(tick=0, channel=0, data=[66, 100])\n",
      "midi.NoteOnEvent(tick=96, channel=0, data=[66, 0])\n",
      "midi.NoteOnEvent(tick=0, channel=0, data=[67, 100])\n",
      "midi.NoteOnEvent(tick=96, channel=0, data=[67, 0])\n",
      "midi.NoteOnEvent(tick=0, channel=0, data=[69, 100])\n",
      "midi.NoteOnEvent(tick=288, channel=0, data=[69, 0])\n",
      "midi.NoteOnEvent(tick=0, channel=0, data=[67, 100])\n",
      "midi.NoteOnEvent(tick=96, channel=0, data=[67, 0])\n",
      "midi.NoteOnEvent(tick=0, channel=0, data=[66, 100])\n",
      "midi.NoteOnEvent(tick=96, channel=0, data=[66, 0])\n",
      "midi.NoteOnEvent(tick=0, channel=0, data=[64, 100])\n",
      "midi.NoteOnEvent(tick=96, channel=0, data=[64, 0])\n",
      "midi.NoteOnEvent(tick=0, channel=0, data=[63, 100])\n",
      "midi.NoteOnEvent(tick=192, channel=0, data=[63, 0])\n",
      "midi.NoteOnEvent(tick=0, channel=0, data=[71, 100])\n",
      "midi.NoteOnEvent(tick=192, channel=0, data=[71, 0])\n",
      "midi.NoteOnEvent(tick=0, channel=0, data=[67, 100])\n",
      "midi.NoteOnEvent(tick=48, channel=0, data=[67, 0])\n",
      "midi.NoteOnEvent(tick=0, channel=0, data=[69, 100])\n",
      "midi.NoteOnEvent(tick=48, channel=0, data=[69, 0])\n",
      "midi.NoteOnEvent(tick=0, channel=0, data=[67, 100])\n",
      "midi.NoteOnEvent(tick=48, channel=0, data=[67, 0])\n",
      "midi.NoteOnEvent(tick=0, channel=0, data=[69, 100])\n",
      "midi.NoteOnEvent(tick=48, channel=0, data=[69, 0])\n",
      "midi.NoteOnEvent(tick=0, channel=0, data=[66, 100])\n",
      "midi.NoteOnEvent(tick=96, channel=0, data=[66, 0])\n",
      "midi.NoteOnEvent(tick=0, channel=0, data=[64, 100])\n",
      "midi.NoteOnEvent(tick=96, channel=0, data=[64, 0])\n",
      "midi.NoteOnEvent(tick=0, channel=0, data=[64, 100])\n",
      "midi.NoteOnEvent(tick=384, channel=0, data=[64, 0])\n",
      "midi.NoteOnEvent(tick=96, channel=0, data=[76, 100])\n",
      "midi.NoteOnEvent(tick=96, channel=0, data=[76, 0])\n",
      "midi.NoteOnEvent(tick=0, channel=0, data=[75, 100])\n",
      "midi.NoteOnEvent(tick=96, channel=0, data=[75, 0])\n",
      "midi.NoteOnEvent(tick=0, channel=0, data=[76, 100])\n",
      "midi.NoteOnEvent(tick=96, channel=0, data=[76, 0])\n",
      "midi.NoteOnEvent(tick=0, channel=0, data=[81, 100])\n",
      "midi.NoteOnEvent(tick=96, channel=0, data=[81, 0])\n",
      "midi.NoteOnEvent(tick=0, channel=0, data=[80, 100])\n",
      "midi.NoteOnEvent(tick=96, channel=0, data=[80, 0])\n",
      "midi.NoteOnEvent(tick=0, channel=0, data=[81, 100])\n",
      "midi.NoteOnEvent(tick=288, channel=0, data=[81, 0])\n",
      "midi.NoteOnEvent(tick=0, channel=0, data=[76, 100])\n",
      "midi.NoteOnEvent(tick=96, channel=0, data=[76, 0])\n",
      "midi.NoteOnEvent(tick=0, channel=0, data=[75, 100])\n",
      "midi.NoteOnEvent(tick=96, channel=0, data=[75, 0])\n",
      "midi.NoteOnEvent(tick=0, channel=0, data=[76, 100])\n",
      "midi.NoteOnEvent(tick=96, channel=0, data=[76, 0])\n",
      "midi.NoteOnEvent(tick=0, channel=0, data=[84, 100])\n",
      "midi.NoteOnEvent(tick=192, channel=0, data=[84, 0])\n",
      "midi.NoteOnEvent(tick=0, channel=0, data=[83, 100])\n",
      "midi.NoteOnEvent(tick=288, channel=0, data=[83, 0])\n",
      "midi.NoteOnEvent(tick=0, channel=0, data=[76, 100])\n",
      "midi.NoteOnEvent(tick=96, channel=0, data=[76, 0])\n",
      "midi.NoteOnEvent(tick=0, channel=0, data=[74, 100])\n",
      "midi.NoteOnEvent(tick=96, channel=0, data=[74, 0])\n",
      "midi.NoteOnEvent(tick=0, channel=0, data=[76, 100])\n",
      "midi.NoteOnEvent(tick=96, channel=0, data=[76, 0])\n",
      "midi.NoteOnEvent(tick=0, channel=0, data=[83, 100])\n",
      "midi.NoteOnEvent(tick=96, channel=0, data=[83, 0])\n",
      "midi.NoteOnEvent(tick=0, channel=0, data=[81, 100])\n",
      "midi.NoteOnEvent(tick=96, channel=0, data=[81, 0])\n",
      "midi.NoteOnEvent(tick=0, channel=0, data=[83, 100])\n",
      "midi.NoteOnEvent(tick=288, channel=0, data=[83, 0])\n",
      "midi.NoteOnEvent(tick=0, channel=0, data=[76, 100])\n",
      "midi.NoteOnEvent(tick=96, channel=0, data=[76, 0])\n",
      "midi.NoteOnEvent(tick=0, channel=0, data=[74, 100])\n",
      "midi.NoteOnEvent(tick=96, channel=0, data=[74, 0])\n",
      "midi.NoteOnEvent(tick=0, channel=0, data=[76, 100])\n",
      "midi.NoteOnEvent(tick=96, channel=0, data=[76, 0])\n",
      "midi.NoteOnEvent(tick=0, channel=0, data=[86, 100])\n",
      "midi.NoteOnEvent(tick=192, channel=0, data=[86, 0])\n",
      "midi.NoteOnEvent(tick=0, channel=0, data=[84, 100])\n",
      "midi.NoteOnEvent(tick=288, channel=0, data=[84, 0])\n",
      "midi.NoteOnEvent(tick=0, channel=0, data=[76, 100])\n",
      "midi.NoteOnEvent(tick=96, channel=0, data=[76, 0])\n",
      "midi.NoteOnEvent(tick=0, channel=0, data=[74, 100])\n",
      "midi.NoteOnEvent(tick=96, channel=0, data=[74, 0])\n",
      "midi.NoteOnEvent(tick=0, channel=0, data=[76, 100])\n",
      "midi.NoteOnEvent(tick=96, channel=0, data=[76, 0])\n",
      "midi.NoteOnEvent(tick=0, channel=0, data=[84, 100])\n",
      "midi.NoteOnEvent(tick=96, channel=0, data=[84, 0])\n",
      "midi.NoteOnEvent(tick=0, channel=0, data=[83, 100])\n",
      "midi.NoteOnEvent(tick=96, channel=0, data=[83, 0])\n",
      "midi.NoteOnEvent(tick=0, channel=0, data=[81, 100])\n",
      "midi.NoteOnEvent(tick=96, channel=0, data=[81, 0])\n",
      "midi.NoteOnEvent(tick=0, channel=0, data=[79, 100])\n",
      "midi.NoteOnEvent(tick=96, channel=0, data=[79, 0])\n",
      "midi.NoteOnEvent(tick=0, channel=0, data=[77, 100])\n",
      "midi.NoteOnEvent(tick=96, channel=0, data=[77, 0])\n",
      "midi.NoteOnEvent(tick=0, channel=0, data=[74, 100])\n",
      "midi.NoteOnEvent(tick=96, channel=0, data=[74, 0])\n",
      "midi.NoteOnEvent(tick=0, channel=0, data=[72, 100])\n",
      "midi.NoteOnEvent(tick=96, channel=0, data=[72, 0])\n",
      "midi.NoteOnEvent(tick=0, channel=0, data=[74, 100])\n",
      "midi.NoteOnEvent(tick=96, channel=0, data=[74, 0])\n",
      "midi.NoteOnEvent(tick=0, channel=0, data=[83, 100])\n",
      "midi.NoteOnEvent(tick=96, channel=0, data=[83, 0])\n",
      "midi.NoteOnEvent(tick=0, channel=0, data=[81, 100])\n",
      "midi.NoteOnEvent(tick=96, channel=0, data=[81, 0])\n",
      "midi.NoteOnEvent(tick=0, channel=0, data=[79, 100])\n",
      "midi.NoteOnEvent(tick=96, channel=0, data=[79, 0])\n",
      "midi.NoteOnEvent(tick=0, channel=0, data=[77, 100])\n",
      "midi.NoteOnEvent(tick=96, channel=0, data=[77, 0])\n",
      "midi.NoteOnEvent(tick=0, channel=0, data=[76, 100])\n",
      "midi.NoteOnEvent(tick=96, channel=0, data=[76, 0])\n",
      "midi.NoteOnEvent(tick=0, channel=0, data=[72, 100])\n",
      "midi.NoteOnEvent(tick=96, channel=0, data=[72, 0])\n",
      "midi.NoteOnEvent(tick=0, channel=0, data=[71, 100])\n",
      "midi.NoteOnEvent(tick=96, channel=0, data=[71, 0])\n",
      "midi.NoteOnEvent(tick=0, channel=0, data=[72, 100])\n",
      "midi.NoteOnEvent(tick=96, channel=0, data=[72, 0])\n",
      "midi.NoteOnEvent(tick=0, channel=0, data=[81, 100])\n",
      "midi.NoteOnEvent(tick=96, channel=0, data=[81, 0])\n",
      "midi.NoteOnEvent(tick=0, channel=0, data=[79, 100])\n",
      "midi.NoteOnEvent(tick=96, channel=0, data=[79, 0])\n",
      "midi.NoteOnEvent(tick=0, channel=0, data=[77, 100])\n",
      "midi.NoteOnEvent(tick=96, channel=0, data=[77, 0])\n",
      "midi.NoteOnEvent(tick=0, channel=0, data=[76, 100])\n",
      "midi.NoteOnEvent(tick=96, channel=0, data=[76, 0])\n",
      "midi.NoteOnEvent(tick=0, channel=0, data=[74, 100])\n",
      "midi.NoteOnEvent(tick=96, channel=0, data=[74, 0])\n",
      "midi.NoteOnEvent(tick=0, channel=0, data=[71, 100])\n",
      "midi.NoteOnEvent(tick=96, channel=0, data=[71, 0])\n",
      "midi.NoteOnEvent(tick=0, channel=0, data=[69, 100])\n",
      "midi.NoteOnEvent(tick=96, channel=0, data=[69, 0])\n",
      "midi.NoteOnEvent(tick=0, channel=0, data=[71, 100])\n",
      "midi.NoteOnEvent(tick=96, channel=0, data=[71, 0])\n",
      "midi.NoteOnEvent(tick=0, channel=0, data=[80, 100])\n",
      "midi.NoteOnEvent(tick=96, channel=0, data=[80, 0])\n",
      "midi.NoteOnEvent(tick=0, channel=0, data=[81, 100])\n",
      "midi.NoteOnEvent(tick=96, channel=0, data=[81, 0])\n",
      "midi.NoteOnEvent(tick=0, channel=0, data=[80, 100])\n",
      "midi.NoteOnEvent(tick=96, channel=0, data=[80, 0])\n",
      "midi.NoteOnEvent(tick=0, channel=0, data=[78, 100])\n",
      "midi.NoteOnEvent(tick=96, channel=0, data=[78, 0])\n",
      "midi.NoteOnEvent(tick=0, channel=0, data=[76, 100])\n",
      "midi.NoteOnEvent(tick=96, channel=0, data=[76, 0])\n",
      "midi.NoteOnEvent(tick=0, channel=0, data=[74, 100])\n",
      "midi.NoteOnEvent(tick=96, channel=0, data=[74, 0])\n",
      "midi.NoteOnEvent(tick=0, channel=0, data=[72, 100])\n",
      "midi.NoteOnEvent(tick=96, channel=0, data=[72, 0])\n",
      "midi.NoteOnEvent(tick=0, channel=0, data=[71, 100])\n",
      "midi.NoteOnEvent(tick=96, channel=0, data=[71, 0])\n",
      "midi.NoteOnEvent(tick=0, channel=0, data=[72, 100])\n",
      "midi.NoteOnEvent(tick=96, channel=0, data=[72, 0])\n",
      "midi.NoteOnEvent(tick=0, channel=0, data=[74, 100])\n",
      "midi.NoteOnEvent(tick=96, channel=0, data=[74, 0])\n",
      "midi.NoteOnEvent(tick=0, channel=0, data=[72, 100])\n",
      "midi.NoteOnEvent(tick=96, channel=0, data=[72, 0])\n",
      "midi.NoteOnEvent(tick=0, channel=0, data=[71, 100])\n",
      "midi.NoteOnEvent(tick=96, channel=0, data=[71, 0])\n",
      "midi.NoteOnEvent(tick=0, channel=0, data=[69, 100])\n",
      "midi.NoteOnEvent(tick=96, channel=0, data=[69, 0])\n",
      "midi.NoteOnEvent(tick=0, channel=0, data=[81, 100])\n",
      "midi.NoteOnEvent(tick=96, channel=0, data=[81, 0])\n",
      "midi.NoteOnEvent(tick=0, channel=0, data=[76, 100])\n",
      "midi.NoteOnEvent(tick=96, channel=0, data=[76, 0])\n",
      "midi.NoteOnEvent(tick=0, channel=0, data=[79, 100])\n",
      "midi.NoteOnEvent(tick=96, channel=0, data=[79, 0])\n",
      "midi.NoteOnEvent(tick=0, channel=0, data=[77, 100])\n",
      "midi.NoteOnEvent(tick=96, channel=0, data=[77, 0])\n",
      "midi.NoteOnEvent(tick=0, channel=0, data=[79, 100])\n",
      "midi.NoteOnEvent(tick=96, channel=0, data=[79, 0])\n",
      "midi.NoteOnEvent(tick=0, channel=0, data=[77, 100])\n",
      "midi.NoteOnEvent(tick=96, channel=0, data=[77, 0])\n",
      "midi.NoteOnEvent(tick=0, channel=0, data=[76, 100])\n",
      "midi.NoteOnEvent(tick=96, channel=0, data=[76, 0])\n",
      "midi.NoteOnEvent(tick=0, channel=0, data=[74, 100])\n",
      "midi.NoteOnEvent(tick=96, channel=0, data=[74, 0])\n",
      "midi.NoteOnEvent(tick=0, channel=0, data=[72, 100])\n",
      "midi.NoteOnEvent(tick=96, channel=0, data=[72, 0])\n",
      "midi.NoteOnEvent(tick=0, channel=0, data=[71, 100])\n",
      "midi.NoteOnEvent(tick=96, channel=0, data=[71, 0])\n",
      "midi.NoteOnEvent(tick=0, channel=0, data=[69, 100])\n",
      "midi.NoteOnEvent(tick=96, channel=0, data=[69, 0])\n",
      "midi.NoteOnEvent(tick=0, channel=0, data=[71, 100])\n",
      "midi.NoteOnEvent(tick=96, channel=0, data=[71, 0])\n",
      "midi.NoteOnEvent(tick=0, channel=0, data=[72, 100])\n",
      "midi.NoteOnEvent(tick=96, channel=0, data=[72, 0])\n",
      "midi.NoteOnEvent(tick=0, channel=0, data=[71, 100])\n",
      "midi.NoteOnEvent(tick=96, channel=0, data=[71, 0])\n",
      "midi.NoteOnEvent(tick=0, channel=0, data=[69, 100])\n",
      "midi.NoteOnEvent(tick=96, channel=0, data=[69, 0])\n",
      "midi.NoteOnEvent(tick=0, channel=0, data=[67, 100])\n",
      "midi.NoteOnEvent(tick=96, channel=0, data=[67, 0])\n",
      "midi.NoteOnEvent(tick=0, channel=0, data=[79, 100])\n",
      "midi.NoteOnEvent(tick=96, channel=0, data=[79, 0])\n",
      "midi.NoteOnEvent(tick=0, channel=0, data=[74, 100])\n",
      "midi.NoteOnEvent(tick=96, channel=0, data=[74, 0])\n",
      "midi.NoteOnEvent(tick=0, channel=0, data=[77, 100])\n",
      "midi.NoteOnEvent(tick=96, channel=0, data=[77, 0])\n",
      "midi.NoteOnEvent(tick=0, channel=0, data=[76, 100])\n",
      "midi.NoteOnEvent(tick=96, channel=0, data=[76, 0])\n",
      "midi.NoteOnEvent(tick=0, channel=0, data=[77, 100])\n",
      "midi.NoteOnEvent(tick=96, channel=0, data=[77, 0])\n",
      "midi.NoteOnEvent(tick=0, channel=0, data=[76, 100])\n",
      "midi.NoteOnEvent(tick=96, channel=0, data=[76, 0])\n",
      "midi.NoteOnEvent(tick=0, channel=0, data=[74, 100])\n",
      "midi.NoteOnEvent(tick=96, channel=0, data=[74, 0])\n",
      "midi.NoteOnEvent(tick=0, channel=0, data=[72, 100])\n",
      "midi.NoteOnEvent(tick=96, channel=0, data=[72, 0])\n",
      "midi.NoteOnEvent(tick=0, channel=0, data=[71, 100])\n",
      "midi.NoteOnEvent(tick=96, channel=0, data=[71, 0])\n",
      "midi.NoteOnEvent(tick=0, channel=0, data=[69, 100])\n",
      "midi.NoteOnEvent(tick=96, channel=0, data=[69, 0])\n",
      "midi.NoteOnEvent(tick=0, channel=0, data=[67, 100])\n",
      "midi.NoteOnEvent(tick=96, channel=0, data=[67, 0])\n",
      "midi.NoteOnEvent(tick=0, channel=0, data=[69, 100])\n",
      "midi.NoteOnEvent(tick=96, channel=0, data=[69, 0])\n",
      "midi.NoteOnEvent(tick=0, channel=0, data=[70, 100])\n",
      "midi.NoteOnEvent(tick=96, channel=0, data=[70, 0])\n",
      "midi.NoteOnEvent(tick=0, channel=0, data=[69, 100])\n",
      "midi.NoteOnEvent(tick=96, channel=0, data=[69, 0])\n",
      "midi.NoteOnEvent(tick=0, channel=0, data=[67, 100])\n",
      "midi.NoteOnEvent(tick=96, channel=0, data=[67, 0])\n",
      "midi.NoteOnEvent(tick=0, channel=0, data=[65, 100])\n",
      "midi.NoteOnEvent(tick=96, channel=0, data=[65, 0])\n",
      "midi.NoteOnEvent(tick=0, channel=0, data=[77, 100])\n",
      "midi.NoteOnEvent(tick=96, channel=0, data=[77, 0])\n",
      "midi.NoteOnEvent(tick=0, channel=0, data=[72, 100])\n",
      "midi.NoteOnEvent(tick=96, channel=0, data=[72, 0])\n",
      "midi.NoteOnEvent(tick=0, channel=0, data=[76, 100])\n",
      "midi.NoteOnEvent(tick=96, channel=0, data=[76, 0])\n",
      "midi.NoteOnEvent(tick=0, channel=0, data=[74, 100])\n",
      "midi.NoteOnEvent(tick=96, channel=0, data=[74, 0])\n",
      "midi.NoteOnEvent(tick=0, channel=0, data=[76, 100])\n",
      "midi.NoteOnEvent(tick=96, channel=0, data=[76, 0])\n",
      "midi.NoteOnEvent(tick=0, channel=0, data=[74, 100])\n",
      "midi.NoteOnEvent(tick=96, channel=0, data=[74, 0])\n",
      "midi.NoteOnEvent(tick=0, channel=0, data=[72, 100])\n",
      "midi.NoteOnEvent(tick=96, channel=0, data=[72, 0])\n",
      "midi.NoteOnEvent(tick=0, channel=0, data=[71, 100])\n",
      "midi.NoteOnEvent(tick=96, channel=0, data=[71, 0])\n",
      "midi.NoteOnEvent(tick=0, channel=0, data=[69, 100])\n",
      "midi.NoteOnEvent(tick=96, channel=0, data=[69, 0])\n",
      "midi.NoteOnEvent(tick=0, channel=0, data=[68, 100])\n",
      "midi.NoteOnEvent(tick=96, channel=0, data=[68, 0])\n",
      "midi.NoteOnEvent(tick=0, channel=0, data=[66, 100])\n",
      "midi.NoteOnEvent(tick=96, channel=0, data=[66, 0])\n",
      "midi.NoteOnEvent(tick=0, channel=0, data=[68, 100])\n",
      "midi.NoteOnEvent(tick=96, channel=0, data=[68, 0])\n",
      "midi.NoteOnEvent(tick=0, channel=0, data=[69, 100])\n",
      "midi.NoteOnEvent(tick=96, channel=0, data=[69, 0])\n",
      "midi.NoteOnEvent(tick=0, channel=0, data=[68, 100])\n",
      "midi.NoteOnEvent(tick=96, channel=0, data=[68, 0])\n",
      "midi.NoteOnEvent(tick=0, channel=0, data=[66, 100])\n",
      "midi.NoteOnEvent(tick=96, channel=0, data=[66, 0])\n",
      "midi.NoteOnEvent(tick=0, channel=0, data=[64, 100])\n",
      "midi.NoteOnEvent(tick=96, channel=0, data=[64, 0])\n",
      "midi.NoteOnEvent(tick=0, channel=0, data=[76, 100])\n",
      "midi.NoteOnEvent(tick=96, channel=0, data=[76, 0])\n",
      "midi.NoteOnEvent(tick=0, channel=0, data=[71, 100])\n",
      "midi.NoteOnEvent(tick=96, channel=0, data=[71, 0])\n",
      "midi.NoteOnEvent(tick=0, channel=0, data=[74, 100])\n",
      "midi.NoteOnEvent(tick=96, channel=0, data=[74, 0])\n",
      "midi.NoteOnEvent(tick=0, channel=0, data=[72, 100])\n",
      "midi.NoteOnEvent(tick=96, channel=0, data=[72, 0])\n",
      "midi.NoteOnEvent(tick=0, channel=0, data=[74, 100])\n",
      "midi.NoteOnEvent(tick=96, channel=0, data=[74, 0])\n",
      "midi.NoteOnEvent(tick=0, channel=0, data=[72, 100])\n",
      "midi.NoteOnEvent(tick=96, channel=0, data=[72, 0])\n",
      "midi.NoteOnEvent(tick=0, channel=0, data=[71, 100])\n",
      "midi.NoteOnEvent(tick=96, channel=0, data=[71, 0])\n",
      "midi.NoteOnEvent(tick=0, channel=0, data=[69, 100])\n",
      "midi.NoteOnEvent(tick=96, channel=0, data=[69, 0])\n",
      "midi.NoteOnEvent(tick=0, channel=0, data=[81, 100])\n",
      "midi.NoteOnEvent(tick=96, channel=0, data=[81, 0])\n",
      "midi.NoteOnEvent(tick=0, channel=0, data=[76, 100])\n",
      "midi.NoteOnEvent(tick=96, channel=0, data=[76, 0])\n",
      "midi.NoteOnEvent(tick=0, channel=0, data=[79, 100])\n",
      "midi.NoteOnEvent(tick=96, channel=0, data=[79, 0])\n",
      "midi.NoteOnEvent(tick=0, channel=0, data=[77, 100])\n",
      "midi.NoteOnEvent(tick=96, channel=0, data=[77, 0])\n",
      "midi.NoteOnEvent(tick=0, channel=0, data=[79, 100])\n",
      "midi.NoteOnEvent(tick=96, channel=0, data=[79, 0])\n",
      "midi.NoteOnEvent(tick=0, channel=0, data=[77, 100])\n",
      "midi.NoteOnEvent(tick=96, channel=0, data=[77, 0])\n",
      "midi.NoteOnEvent(tick=0, channel=0, data=[76, 100])\n",
      "midi.NoteOnEvent(tick=96, channel=0, data=[76, 0])\n",
      "midi.NoteOnEvent(tick=0, channel=0, data=[74, 100])\n",
      "midi.NoteOnEvent(tick=96, channel=0, data=[74, 0])\n",
      "midi.NoteOnEvent(tick=0, channel=0, data=[77, 100])\n",
      "midi.NoteOnEvent(tick=96, channel=0, data=[77, 0])\n",
      "midi.NoteOnEvent(tick=0, channel=0, data=[71, 100])\n",
      "midi.NoteOnEvent(tick=96, channel=0, data=[71, 0])\n",
      "midi.NoteOnEvent(tick=0, channel=0, data=[74, 100])\n",
      "midi.NoteOnEvent(tick=96, channel=0, data=[74, 0])\n",
      "midi.NoteOnEvent(tick=0, channel=0, data=[76, 100])\n",
      "midi.NoteOnEvent(tick=96, channel=0, data=[76, 0])\n",
      "midi.NoteOnEvent(tick=0, channel=0, data=[74, 100])\n",
      "midi.NoteOnEvent(tick=96, channel=0, data=[74, 0])\n",
      "midi.NoteOnEvent(tick=0, channel=0, data=[72, 100])\n",
      "midi.NoteOnEvent(tick=96, channel=0, data=[72, 0])\n",
      "midi.NoteOnEvent(tick=0, channel=0, data=[76, 100])\n",
      "midi.NoteOnEvent(tick=96, channel=0, data=[76, 0])\n",
      "midi.NoteOnEvent(tick=0, channel=0, data=[74, 100])\n",
      "midi.NoteOnEvent(tick=96, channel=0, data=[74, 0])\n",
      "midi.NoteOnEvent(tick=0, channel=0, data=[72, 100])\n",
      "midi.NoteOnEvent(tick=96, channel=0, data=[72, 0])\n",
      "midi.NoteOnEvent(tick=0, channel=0, data=[71, 100])\n",
      "midi.NoteOnEvent(tick=96, channel=0, data=[71, 0])\n",
      "midi.NoteOnEvent(tick=0, channel=0, data=[74, 100])\n",
      "midi.NoteOnEvent(tick=96, channel=0, data=[74, 0])\n",
      "midi.NoteOnEvent(tick=0, channel=0, data=[72, 100])\n",
      "midi.NoteOnEvent(tick=192, channel=0, data=[72, 0])\n",
      "midi.NoteOnEvent(tick=0, channel=0, data=[69, 100])\n",
      "midi.NoteOnEvent(tick=192, channel=0, data=[69, 0])\n",
      "midi.NoteOnEvent(tick=96, channel=0, data=[64, 100])\n",
      "midi.NoteOnEvent(tick=96, channel=0, data=[64, 0])\n",
      "midi.NoteOnEvent(tick=0, channel=0, data=[69, 100])\n",
      "midi.NoteOnEvent(tick=96, channel=0, data=[69, 0])\n",
      "midi.NoteOnEvent(tick=0, channel=0, data=[72, 100])\n",
      "midi.NoteOnEvent(tick=96, channel=0, data=[72, 0])\n",
      "midi.NoteOnEvent(tick=0, channel=0, data=[77, 100])\n",
      "midi.NoteOnEvent(tick=48, channel=0, data=[77, 0])\n",
      "midi.NoteOnEvent(tick=0, channel=0, data=[79, 100])\n",
      "midi.NoteOnEvent(tick=48, channel=0, data=[79, 0])\n",
      "midi.NoteOnEvent(tick=0, channel=0, data=[81, 100])\n",
      "midi.NoteOnEvent(tick=192, channel=0, data=[81, 0])\n",
      "midi.NoteOnEvent(tick=0, channel=0, data=[77, 100])\n",
      "midi.NoteOnEvent(tick=96, channel=0, data=[77, 0])\n",
      "midi.NoteOnEvent(tick=0, channel=0, data=[75, 100])\n",
      "midi.NoteOnEvent(tick=48, channel=0, data=[75, 0])\n",
      "midi.NoteOnEvent(tick=0, channel=0, data=[76, 100])\n",
      "midi.NoteOnEvent(tick=48, channel=0, data=[76, 0])\n",
      "midi.NoteOnEvent(tick=0, channel=0, data=[78, 100])\n",
      "midi.NoteOnEvent(tick=192, channel=0, data=[78, 0])\n",
      "midi.NoteOnEvent(tick=0, channel=0, data=[75, 100])\n",
      "midi.NoteOnEvent(tick=96, channel=0, data=[75, 0])\n",
      "midi.NoteOnEvent(tick=0, channel=0, data=[76, 100])\n",
      "midi.NoteOnEvent(tick=96, channel=0, data=[76, 0])\n",
      "midi.NoteOnEvent(tick=0, channel=0, data=[71, 100])\n",
      "midi.NoteOnEvent(tick=96, channel=0, data=[71, 0])\n",
      "midi.NoteOnEvent(tick=0, channel=0, data=[67, 100])\n",
      "midi.NoteOnEvent(tick=96, channel=0, data=[67, 0])\n",
      "midi.NoteOnEvent(tick=0, channel=0, data=[64, 100])\n",
      "midi.NoteOnEvent(tick=96, channel=0, data=[64, 0])\n",
      "midi.NoteOnEvent(tick=0, channel=0, data=[63, 100])\n",
      "midi.NoteOnEvent(tick=96, channel=0, data=[63, 0])\n",
      "midi.NoteOnEvent(tick=0, channel=0, data=[64, 100])\n",
      "midi.NoteOnEvent(tick=96, channel=0, data=[64, 0])\n",
      "midi.NoteOnEvent(tick=0, channel=0, data=[67, 100])\n",
      "midi.NoteOnEvent(tick=96, channel=0, data=[67, 0])\n",
      "midi.NoteOnEvent(tick=0, channel=0, data=[71, 100])\n",
      "midi.NoteOnEvent(tick=96, channel=0, data=[71, 0])\n",
      "midi.NoteOnEvent(tick=0, channel=0, data=[76, 100])\n",
      "midi.NoteOnEvent(tick=48, channel=0, data=[76, 0])\n",
      "midi.NoteOnEvent(tick=0, channel=0, data=[77, 100])\n",
      "midi.NoteOnEvent(tick=48, channel=0, data=[77, 0])\n",
      "midi.NoteOnEvent(tick=0, channel=0, data=[79, 100])\n",
      "midi.NoteOnEvent(tick=192, channel=0, data=[79, 0])\n",
      "midi.NoteOnEvent(tick=0, channel=0, data=[76, 100])\n",
      "midi.NoteOnEvent(tick=96, channel=0, data=[76, 0])\n",
      "midi.NoteOnEvent(tick=0, channel=0, data=[73, 100])\n",
      "midi.NoteOnEvent(tick=48, channel=0, data=[73, 0])\n",
      "midi.NoteOnEvent(tick=0, channel=0, data=[74, 100])\n",
      "midi.NoteOnEvent(tick=48, channel=0, data=[74, 0])\n",
      "midi.NoteOnEvent(tick=0, channel=0, data=[76, 100])\n",
      "midi.NoteOnEvent(tick=192, channel=0, data=[76, 0])\n",
      "midi.NoteOnEvent(tick=0, channel=0, data=[73, 100])\n",
      "midi.NoteOnEvent(tick=96, channel=0, data=[73, 0])\n",
      "midi.NoteOnEvent(tick=0, channel=0, data=[74, 100])\n",
      "midi.NoteOnEvent(tick=96, channel=0, data=[74, 0])\n",
      "midi.NoteOnEvent(tick=0, channel=0, data=[69, 100])\n",
      "midi.NoteOnEvent(tick=96, channel=0, data=[69, 0])\n",
      "midi.NoteOnEvent(tick=0, channel=0, data=[65, 100])\n",
      "midi.NoteOnEvent(tick=96, channel=0, data=[65, 0])\n",
      "midi.NoteOnEvent(tick=0, channel=0, data=[62, 100])\n",
      "midi.NoteOnEvent(tick=96, channel=0, data=[62, 0])\n",
      "midi.NoteOnEvent(tick=0, channel=0, data=[61, 100])\n",
      "midi.NoteOnEvent(tick=96, channel=0, data=[61, 0])\n",
      "midi.NoteOnEvent(tick=0, channel=0, data=[62, 100])\n",
      "midi.NoteOnEvent(tick=96, channel=0, data=[62, 0])\n",
      "midi.NoteOnEvent(tick=0, channel=0, data=[65, 100])\n",
      "midi.NoteOnEvent(tick=96, channel=0, data=[65, 0])\n",
      "midi.NoteOnEvent(tick=0, channel=0, data=[69, 100])\n",
      "midi.NoteOnEvent(tick=96, channel=0, data=[69, 0])\n",
      "midi.NoteOnEvent(tick=0, channel=0, data=[74, 100])\n",
      "midi.NoteOnEvent(tick=48, channel=0, data=[74, 0])\n",
      "midi.NoteOnEvent(tick=0, channel=0, data=[76, 100])\n",
      "midi.NoteOnEvent(tick=48, channel=0, data=[76, 0])\n",
      "midi.NoteOnEvent(tick=0, channel=0, data=[77, 100])\n",
      "midi.NoteOnEvent(tick=192, channel=0, data=[77, 0])\n",
      "midi.NoteOnEvent(tick=0, channel=0, data=[74, 100])\n",
      "midi.NoteOnEvent(tick=96, channel=0, data=[74, 0])\n",
      "midi.NoteOnEvent(tick=0, channel=0, data=[71, 100])\n",
      "midi.NoteOnEvent(tick=48, channel=0, data=[71, 0])\n",
      "midi.NoteOnEvent(tick=0, channel=0, data=[72, 100])\n",
      "midi.NoteOnEvent(tick=48, channel=0, data=[72, 0])\n",
      "midi.NoteOnEvent(tick=0, channel=0, data=[74, 100])\n",
      "midi.NoteOnEvent(tick=192, channel=0, data=[74, 0])\n",
      "midi.NoteOnEvent(tick=0, channel=0, data=[71, 100])\n",
      "midi.NoteOnEvent(tick=96, channel=0, data=[71, 0])\n",
      "midi.NoteOnEvent(tick=0, channel=0, data=[72, 100])\n",
      "midi.NoteOnEvent(tick=96, channel=0, data=[72, 0])\n",
      "midi.NoteOnEvent(tick=0, channel=0, data=[67, 100])\n",
      "midi.NoteOnEvent(tick=96, channel=0, data=[67, 0])\n",
      "midi.NoteOnEvent(tick=0, channel=0, data=[69, 100])\n",
      "midi.NoteOnEvent(tick=96, channel=0, data=[69, 0])\n",
      "midi.NoteOnEvent(tick=0, channel=0, data=[71, 100])\n",
      "midi.NoteOnEvent(tick=96, channel=0, data=[71, 0])\n",
      "midi.NoteOnEvent(tick=0, channel=0, data=[72, 100])\n",
      "midi.NoteOnEvent(tick=96, channel=0, data=[72, 0])\n",
      "midi.NoteOnEvent(tick=0, channel=0, data=[67, 100])\n",
      "midi.NoteOnEvent(tick=96, channel=0, data=[67, 0])\n",
      "midi.NoteOnEvent(tick=0, channel=0, data=[74, 100])\n",
      "midi.NoteOnEvent(tick=96, channel=0, data=[74, 0])\n",
      "midi.NoteOnEvent(tick=0, channel=0, data=[67, 100])\n",
      "midi.NoteOnEvent(tick=96, channel=0, data=[67, 0])\n",
      "midi.NoteOnEvent(tick=0, channel=0, data=[76, 100])\n",
      "midi.NoteOnEvent(tick=96, channel=0, data=[76, 0])\n",
      "midi.NoteOnEvent(tick=0, channel=0, data=[71, 100])\n",
      "midi.NoteOnEvent(tick=96, channel=0, data=[71, 0])\n",
      "midi.NoteOnEvent(tick=0, channel=0, data=[72, 100])\n",
      "midi.NoteOnEvent(tick=96, channel=0, data=[72, 0])\n",
      "midi.NoteOnEvent(tick=0, channel=0, data=[74, 100])\n",
      "midi.NoteOnEvent(tick=96, channel=0, data=[74, 0])\n",
      "midi.NoteOnEvent(tick=0, channel=0, data=[76, 100])\n",
      "midi.NoteOnEvent(tick=96, channel=0, data=[76, 0])\n",
      "midi.NoteOnEvent(tick=0, channel=0, data=[72, 100])\n",
      "midi.NoteOnEvent(tick=96, channel=0, data=[72, 0])\n",
      "midi.NoteOnEvent(tick=0, channel=0, data=[78, 100])\n",
      "midi.NoteOnEvent(tick=96, channel=0, data=[78, 0])\n",
      "midi.NoteOnEvent(tick=0, channel=0, data=[72, 100])\n",
      "midi.NoteOnEvent(tick=96, channel=0, data=[72, 0])\n",
      "midi.NoteOnEvent(tick=0, channel=0, data=[79, 100])\n",
      "midi.NoteOnEvent(tick=96, channel=0, data=[79, 0])\n",
      "midi.NoteOnEvent(tick=0, channel=0, data=[67, 100])\n",
      "midi.NoteOnEvent(tick=96, channel=0, data=[67, 0])\n",
      "midi.NoteOnEvent(tick=0, channel=0, data=[71, 100])\n",
      "midi.NoteOnEvent(tick=96, channel=0, data=[71, 0])\n",
      "midi.NoteOnEvent(tick=0, channel=0, data=[74, 100])\n",
      "midi.NoteOnEvent(tick=96, channel=0, data=[74, 0])\n",
      "midi.NoteOnEvent(tick=0, channel=0, data=[79, 100])\n",
      "midi.NoteOnEvent(tick=480, channel=0, data=[79, 0])\n",
      "midi.NoteOnEvent(tick=0, channel=0, data=[72, 100])\n",
      "midi.NoteOnEvent(tick=96, channel=0, data=[72, 0])\n",
      "midi.NoteOnEvent(tick=0, channel=0, data=[76, 100])\n",
      "midi.NoteOnEvent(tick=96, channel=0, data=[76, 0])\n",
      "midi.NoteOnEvent(tick=0, channel=0, data=[79, 100])\n",
      "midi.NoteOnEvent(tick=96, channel=0, data=[79, 0])\n",
      "midi.NoteOnEvent(tick=0, channel=0, data=[84, 100])\n",
      "midi.NoteOnEvent(tick=480, channel=0, data=[84, 0])\n",
      "midi.NoteOnEvent(tick=0, channel=0, data=[72, 100])\n",
      "midi.NoteOnEvent(tick=96, channel=0, data=[72, 0])\n",
      "midi.NoteOnEvent(tick=0, channel=0, data=[76, 100])\n",
      "midi.NoteOnEvent(tick=96, channel=0, data=[76, 0])\n",
      "midi.NoteOnEvent(tick=0, channel=0, data=[79, 100])\n",
      "midi.NoteOnEvent(tick=96, channel=0, data=[79, 0])\n",
      "midi.NoteOnEvent(tick=0, channel=0, data=[84, 100])\n",
      "midi.NoteOnEvent(tick=576, channel=0, data=[84, 0])\n",
      "midi.NoteOnEvent(tick=0, channel=0, data=[72, 100])\n",
      "midi.NoteOnEvent(tick=192, channel=0, data=[72, 0])\n",
      "midi.NoteOnEvent(tick=0, channel=0, data=[74, 100])\n",
      "midi.NoteOnEvent(tick=192, channel=0, data=[74, 0])\n",
      "midi.NoteOnEvent(tick=0, channel=0, data=[83, 100])\n",
      "midi.NoteOnEvent(tick=192, channel=0, data=[83, 0])\n",
      "midi.NoteOnEvent(tick=0, channel=0, data=[84, 100])\n",
      "midi.NoteOnEvent(tick=96, channel=0, data=[84, 0])\n",
      "midi.NoteOnEvent(tick=0, channel=0, data=[79, 100])\n",
      "midi.NoteOnEvent(tick=96, channel=0, data=[79, 0])\n",
      "midi.NoteOnEvent(tick=0, channel=0, data=[76, 100])\n",
      "midi.NoteOnEvent(tick=96, channel=0, data=[76, 0])\n",
      "midi.NoteOnEvent(tick=0, channel=0, data=[72, 100])\n",
      "midi.NoteOnEvent(tick=96, channel=0, data=[72, 0])\n",
      "midi.NoteOnEvent(tick=0, channel=0, data=[60, 100])\n",
      "midi.NoteOnEvent(tick=96, channel=0, data=[60, 0])\n",
      "midi.NoteOnEvent(tick=0, channel=0, data=[72, 100])\n",
      "midi.NoteOnEvent(tick=96, channel=0, data=[72, 0])\n",
      "midi.NoteOnEvent(tick=0, channel=0, data=[71, 100])\n",
      "midi.NoteOnEvent(tick=96, channel=0, data=[71, 0])\n",
      "midi.NoteOnEvent(tick=0, channel=0, data=[72, 100])\n",
      "midi.NoteOnEvent(tick=96, channel=0, data=[72, 0])\n",
      "midi.NoteOnEvent(tick=0, channel=0, data=[74, 100])\n",
      "midi.NoteOnEvent(tick=96, channel=0, data=[74, 0])\n",
      "midi.NoteOnEvent(tick=0, channel=0, data=[72, 100])\n",
      "midi.NoteOnEvent(tick=96, channel=0, data=[72, 0])\n",
      "midi.NoteOnEvent(tick=0, channel=0, data=[71, 100])\n",
      "midi.NoteOnEvent(tick=96, channel=0, data=[71, 0])\n",
      "midi.NoteOnEvent(tick=0, channel=0, data=[72, 100])\n",
      "midi.NoteOnEvent(tick=96, channel=0, data=[72, 0])\n",
      "midi.NoteOnEvent(tick=0, channel=0, data=[76, 100])\n",
      "midi.NoteOnEvent(tick=96, channel=0, data=[76, 0])\n",
      "midi.NoteOnEvent(tick=0, channel=0, data=[72, 100])\n",
      "midi.NoteOnEvent(tick=96, channel=0, data=[72, 0])\n",
      "midi.NoteOnEvent(tick=0, channel=0, data=[71, 100])\n",
      "midi.NoteOnEvent(tick=96, channel=0, data=[71, 0])\n",
      "midi.NoteOnEvent(tick=0, channel=0, data=[72, 100])\n",
      "midi.NoteOnEvent(tick=96, channel=0, data=[72, 0])\n",
      "midi.NoteOnEvent(tick=0, channel=0, data=[77, 100])\n",
      "midi.NoteOnEvent(tick=96, channel=0, data=[77, 0])\n",
      "midi.NoteOnEvent(tick=0, channel=0, data=[72, 100])\n",
      "midi.NoteOnEvent(tick=96, channel=0, data=[72, 0])\n",
      "midi.NoteOnEvent(tick=0, channel=0, data=[71, 100])\n",
      "midi.NoteOnEvent(tick=96, channel=0, data=[71, 0])\n",
      "midi.NoteOnEvent(tick=0, channel=0, data=[72, 100])\n",
      "midi.NoteOnEvent(tick=96, channel=0, data=[72, 0])\n",
      "midi.NoteOnEvent(tick=0, channel=0, data=[79, 100])\n",
      "midi.NoteOnEvent(tick=96, channel=0, data=[79, 0])\n",
      "midi.NoteOnEvent(tick=0, channel=0, data=[72, 100])\n",
      "midi.NoteOnEvent(tick=96, channel=0, data=[72, 0])\n",
      "midi.NoteOnEvent(tick=0, channel=0, data=[71, 100])\n",
      "midi.NoteOnEvent(tick=96, channel=0, data=[71, 0])\n",
      "midi.NoteOnEvent(tick=0, channel=0, data=[72, 100])\n",
      "midi.NoteOnEvent(tick=96, channel=0, data=[72, 0])\n",
      "midi.NoteOnEvent(tick=0, channel=0, data=[81, 100])\n",
      "midi.NoteOnEvent(tick=96, channel=0, data=[81, 0])\n",
      "midi.NoteOnEvent(tick=0, channel=0, data=[82, 100])\n",
      "midi.NoteOnEvent(tick=96, channel=0, data=[82, 0])\n",
      "midi.NoteOnEvent(tick=0, channel=0, data=[81, 100])\n",
      "midi.NoteOnEvent(tick=96, channel=0, data=[81, 0])\n",
      "midi.NoteOnEvent(tick=0, channel=0, data=[79, 100])\n",
      "midi.NoteOnEvent(tick=96, channel=0, data=[79, 0])\n",
      "midi.NoteOnEvent(tick=0, channel=0, data=[77, 100])\n",
      "midi.NoteOnEvent(tick=96, channel=0, data=[77, 0])\n",
      "midi.NoteOnEvent(tick=0, channel=0, data=[76, 100])\n",
      "midi.NoteOnEvent(tick=96, channel=0, data=[76, 0])\n",
      "midi.NoteOnEvent(tick=0, channel=0, data=[74, 100])\n",
      "midi.NoteOnEvent(tick=96, channel=0, data=[74, 0])\n",
      "midi.NoteOnEvent(tick=0, channel=0, data=[72, 100])\n",
      "midi.NoteOnEvent(tick=96, channel=0, data=[72, 0])\n",
      "midi.NoteOnEvent(tick=0, channel=0, data=[71, 100])\n",
      "midi.NoteOnEvent(tick=192, channel=0, data=[71, 0])\n",
      "midi.NoteOnEvent(tick=0, channel=0, data=[67, 100])\n",
      "midi.NoteOnEvent(tick=192, channel=0, data=[67, 0])\n",
      "midi.NoteOnEvent(tick=0, channel=0, data=[83, 100])\n",
      "midi.NoteOnEvent(tick=576, channel=0, data=[83, 0])\n",
      "midi.NoteOnEvent(tick=0, channel=0, data=[81, 100])\n",
      "midi.NoteOnEvent(tick=96, channel=0, data=[81, 0])\n",
      "midi.NoteOnEvent(tick=0, channel=0, data=[80, 100])\n",
      "midi.NoteOnEvent(tick=96, channel=0, data=[80, 0])\n",
      "midi.NoteOnEvent(tick=0, channel=0, data=[81, 100])\n",
      "midi.NoteOnEvent(tick=192, channel=0, data=[81, 0])\n",
      "midi.NoteOnEvent(tick=0, channel=0, data=[84, 100])\n",
      "midi.NoteOnEvent(tick=384, channel=0, data=[84, 0])\n",
      "midi.NoteOnEvent(tick=0, channel=0, data=[78, 100])\n",
      "midi.NoteOnEvent(tick=96, channel=0, data=[78, 0])\n",
      "midi.NoteOnEvent(tick=0, channel=0, data=[79, 100])\n",
      "midi.NoteOnEvent(tick=96, channel=0, data=[79, 0])\n",
      "midi.NoteOnEvent(tick=0, channel=0, data=[81, 100])\n",
      "midi.NoteOnEvent(tick=96, channel=0, data=[81, 0])\n",
      "midi.NoteOnEvent(tick=0, channel=0, data=[78, 100])\n",
      "midi.NoteOnEvent(tick=96, channel=0, data=[78, 0])\n",
      "midi.NoteOnEvent(tick=0, channel=0, data=[79, 100])\n",
      "midi.NoteOnEvent(tick=96, channel=0, data=[79, 0])\n",
      "midi.NoteOnEvent(tick=0, channel=0, data=[76, 100])\n",
      "midi.NoteOnEvent(tick=96, channel=0, data=[76, 0])\n",
      "midi.NoteOnEvent(tick=0, channel=0, data=[78, 100])\n",
      "midi.NoteOnEvent(tick=96, channel=0, data=[78, 0])\n",
      "midi.NoteOnEvent(tick=0, channel=0, data=[74, 100])\n",
      "midi.NoteOnEvent(tick=96, channel=0, data=[74, 0])\n",
      "midi.NoteOnEvent(tick=0, channel=0, data=[73, 100])\n",
      "midi.NoteOnEvent(tick=96, channel=0, data=[73, 0])\n",
      "midi.NoteOnEvent(tick=0, channel=0, data=[74, 100])\n",
      "midi.NoteOnEvent(tick=96, channel=0, data=[74, 0])\n",
      "midi.NoteOnEvent(tick=0, channel=0, data=[78, 100])\n",
      "midi.NoteOnEvent(tick=96, channel=0, data=[78, 0])\n",
      "midi.NoteOnEvent(tick=0, channel=0, data=[74, 100])\n",
      "midi.NoteOnEvent(tick=96, channel=0, data=[74, 0])\n",
      "midi.NoteOnEvent(tick=0, channel=0, data=[81, 100])\n",
      "midi.NoteOnEvent(tick=96, channel=0, data=[81, 0])\n",
      "midi.NoteOnEvent(tick=0, channel=0, data=[78, 100])\n",
      "midi.NoteOnEvent(tick=96, channel=0, data=[78, 0])\n",
      "midi.NoteOnEvent(tick=0, channel=0, data=[86, 100])\n",
      "midi.NoteOnEvent(tick=192, channel=0, data=[86, 0])\n",
      "midi.NoteOnEvent(tick=0, channel=0, data=[74, 100])\n",
      "midi.NoteOnEvent(tick=192, channel=0, data=[74, 0])\n",
      "midi.NoteOnEvent(tick=0, channel=0, data=[81, 100])\n",
      "midi.NoteOnEvent(tick=576, channel=0, data=[81, 0])\n",
      "midi.NoteOnEvent(tick=0, channel=0, data=[79, 100])\n",
      "midi.NoteOnEvent(tick=96, channel=0, data=[79, 0])\n",
      "midi.NoteOnEvent(tick=0, channel=0, data=[78, 100])\n",
      "midi.NoteOnEvent(tick=96, channel=0, data=[78, 0])\n",
      "midi.NoteOnEvent(tick=0, channel=0, data=[79, 100])\n",
      "midi.NoteOnEvent(tick=192, channel=0, data=[79, 0])\n",
      "midi.NoteOnEvent(tick=0, channel=0, data=[83, 100])\n",
      "midi.NoteOnEvent(tick=384, channel=0, data=[83, 0])\n",
      "midi.NoteOnEvent(tick=0, channel=0, data=[76, 100])\n",
      "midi.NoteOnEvent(tick=96, channel=0, data=[76, 0])\n",
      "midi.NoteOnEvent(tick=0, channel=0, data=[78, 100])\n",
      "midi.NoteOnEvent(tick=96, channel=0, data=[78, 0])\n",
      "midi.NoteOnEvent(tick=0, channel=0, data=[79, 100])\n",
      "midi.NoteOnEvent(tick=96, channel=0, data=[79, 0])\n",
      "midi.NoteOnEvent(tick=0, channel=0, data=[76, 100])\n",
      "midi.NoteOnEvent(tick=96, channel=0, data=[76, 0])\n",
      "midi.NoteOnEvent(tick=0, channel=0, data=[78, 100])\n",
      "midi.NoteOnEvent(tick=96, channel=0, data=[78, 0])\n",
      "midi.NoteOnEvent(tick=0, channel=0, data=[75, 100])\n",
      "midi.NoteOnEvent(tick=96, channel=0, data=[75, 0])\n",
      "midi.NoteOnEvent(tick=0, channel=0, data=[76, 100])\n",
      "midi.NoteOnEvent(tick=96, channel=0, data=[76, 0])\n",
      "midi.NoteOnEvent(tick=0, channel=0, data=[72, 100])\n",
      "midi.NoteOnEvent(tick=96, channel=0, data=[72, 0])\n",
      "midi.NoteOnEvent(tick=0, channel=0, data=[71, 100])\n",
      "midi.NoteOnEvent(tick=96, channel=0, data=[71, 0])\n",
      "midi.NoteOnEvent(tick=0, channel=0, data=[72, 100])\n",
      "midi.NoteOnEvent(tick=96, channel=0, data=[72, 0])\n",
      "midi.NoteOnEvent(tick=0, channel=0, data=[76, 100])\n",
      "midi.NoteOnEvent(tick=96, channel=0, data=[76, 0])\n",
      "midi.NoteOnEvent(tick=0, channel=0, data=[72, 100])\n",
      "midi.NoteOnEvent(tick=96, channel=0, data=[72, 0])\n",
      "midi.NoteOnEvent(tick=0, channel=0, data=[79, 100])\n",
      "midi.NoteOnEvent(tick=96, channel=0, data=[79, 0])\n",
      "midi.NoteOnEvent(tick=0, channel=0, data=[76, 100])\n",
      "midi.NoteOnEvent(tick=96, channel=0, data=[76, 0])\n",
      "midi.NoteOnEvent(tick=0, channel=0, data=[84, 100])\n",
      "midi.NoteOnEvent(tick=192, channel=0, data=[84, 0])\n",
      "midi.NoteOnEvent(tick=0, channel=0, data=[72, 100])\n",
      "midi.NoteOnEvent(tick=192, channel=0, data=[72, 0])\n",
      "midi.NoteOnEvent(tick=0, channel=0, data=[79, 100])\n",
      "midi.NoteOnEvent(tick=576, channel=0, data=[79, 0])\n",
      "midi.NoteOnEvent(tick=0, channel=0, data=[78, 100])\n",
      "midi.NoteOnEvent(tick=96, channel=0, data=[78, 0])\n",
      "midi.NoteOnEvent(tick=0, channel=0, data=[79, 100])\n",
      "midi.NoteOnEvent(tick=96, channel=0, data=[79, 0])\n",
      "midi.NoteOnEvent(tick=0, channel=0, data=[81, 100])\n",
      "midi.NoteOnEvent(tick=192, channel=0, data=[81, 0])\n",
      "midi.NoteOnEvent(tick=0, channel=0, data=[72, 100])\n",
      "midi.NoteOnEvent(tick=192, channel=0, data=[72, 0])\n",
      "midi.NoteOnEvent(tick=0, channel=0, data=[71, 100])\n",
      "midi.NoteOnEvent(tick=192, channel=0, data=[71, 0])\n",
      "midi.NoteOnEvent(tick=0, channel=0, data=[81, 100])\n",
      "midi.NoteOnEvent(tick=192, channel=0, data=[81, 0])\n",
      "midi.NoteOnEvent(tick=0, channel=0, data=[79, 100])\n",
      "midi.NoteOnEvent(tick=192, channel=0, data=[79, 0])\n",
      "midi.NoteOnEvent(tick=0, channel=0, data=[71, 100])\n",
      "midi.NoteOnEvent(tick=192, channel=0, data=[71, 0])\n",
      "midi.NoteOnEvent(tick=0, channel=0, data=[69, 100])\n",
      "midi.NoteOnEvent(tick=96, channel=0, data=[69, 0])\n",
      "midi.NoteOnEvent(tick=0, channel=0, data=[71, 100])\n",
      "midi.NoteOnEvent(tick=96, channel=0, data=[71, 0])\n",
      "midi.NoteOnEvent(tick=0, channel=0, data=[72, 100])\n",
      "midi.NoteOnEvent(tick=96, channel=0, data=[72, 0])\n",
      "midi.NoteOnEvent(tick=0, channel=0, data=[71, 100])\n",
      "midi.NoteOnEvent(tick=96, channel=0, data=[71, 0])\n",
      "midi.NoteOnEvent(tick=0, channel=0, data=[69, 100])\n",
      "midi.NoteOnEvent(tick=96, channel=0, data=[69, 0])\n",
      "midi.NoteOnEvent(tick=0, channel=0, data=[67, 100])\n",
      "midi.NoteOnEvent(tick=96, channel=0, data=[67, 0])\n",
      "midi.NoteOnEvent(tick=0, channel=0, data=[66, 100])\n",
      "midi.NoteOnEvent(tick=96, channel=0, data=[66, 0])\n",
      "midi.NoteOnEvent(tick=0, channel=0, data=[64, 100])\n",
      "midi.NoteOnEvent(tick=96, channel=0, data=[64, 0])\n",
      "midi.NoteOnEvent(tick=0, channel=0, data=[63, 100])\n",
      "midi.NoteOnEvent(tick=192, channel=0, data=[63, 0])\n",
      "midi.NoteOnEvent(tick=0, channel=0, data=[72, 100])\n",
      "midi.NoteOnEvent(tick=192, channel=0, data=[72, 0])\n",
      "midi.NoteOnEvent(tick=0, channel=0, data=[71, 100])\n",
      "midi.NoteOnEvent(tick=192, channel=0, data=[71, 0])\n",
      "midi.NoteOnEvent(tick=0, channel=0, data=[76, 100])\n",
      "midi.NoteOnEvent(tick=192, channel=0, data=[76, 0])\n",
      "midi.NoteOnEvent(tick=0, channel=0, data=[79, 100])\n",
      "midi.NoteOnEvent(tick=384, channel=0, data=[79, 0])\n",
      "midi.NoteOnEvent(tick=0, channel=0, data=[78, 100])\n",
      "midi.NoteOnEvent(tick=48, channel=0, data=[78, 0])\n",
      "midi.NoteOnEvent(tick=0, channel=0, data=[79, 100])\n",
      "midi.NoteOnEvent(tick=48, channel=0, data=[79, 0])\n",
      "midi.NoteOnEvent(tick=0, channel=0, data=[78, 100])\n",
      "midi.NoteOnEvent(tick=48, channel=0, data=[78, 0])\n",
      "midi.NoteOnEvent(tick=0, channel=0, data=[79, 100])\n",
      "midi.NoteOnEvent(tick=48, channel=0, data=[79, 0])\n",
      "midi.NoteOnEvent(tick=0, channel=0, data=[78, 100])\n",
      "midi.NoteOnEvent(tick=48, channel=0, data=[78, 0])\n",
      "midi.NoteOnEvent(tick=0, channel=0, data=[79, 100])\n",
      "midi.NoteOnEvent(tick=48, channel=0, data=[79, 0])\n",
      "midi.NoteOnEvent(tick=0, channel=0, data=[78, 100])\n",
      "midi.NoteOnEvent(tick=48, channel=0, data=[78, 0])\n",
      "midi.NoteOnEvent(tick=0, channel=0, data=[79, 100])\n",
      "midi.NoteOnEvent(tick=48, channel=0, data=[79, 0])\n",
      "midi.NoteOnEvent(tick=0, channel=0, data=[78, 100])\n",
      "midi.NoteOnEvent(tick=96, channel=0, data=[78, 0])\n",
      "midi.NoteOnEvent(tick=0, channel=0, data=[79, 100])\n",
      "midi.NoteOnEvent(tick=96, channel=0, data=[79, 0])\n",
      "midi.NoteOnEvent(tick=0, channel=0, data=[81, 100])\n",
      "midi.NoteOnEvent(tick=96, channel=0, data=[81, 0])\n",
      "midi.NoteOnEvent(tick=0, channel=0, data=[79, 100])\n",
      "midi.NoteOnEvent(tick=96, channel=0, data=[79, 0])\n",
      "midi.NoteOnEvent(tick=0, channel=0, data=[78, 100])\n",
      "midi.NoteOnEvent(tick=96, channel=0, data=[78, 0])\n",
      "midi.NoteOnEvent(tick=0, channel=0, data=[81, 100])\n",
      "midi.NoteOnEvent(tick=96, channel=0, data=[81, 0])\n",
      "midi.NoteOnEvent(tick=0, channel=0, data=[76, 100])\n",
      "midi.NoteOnEvent(tick=96, channel=0, data=[76, 0])\n",
      "midi.NoteOnEvent(tick=0, channel=0, data=[81, 100])\n",
      "midi.NoteOnEvent(tick=96, channel=0, data=[81, 0])\n",
      "midi.NoteOnEvent(tick=0, channel=0, data=[75, 100])\n",
      "midi.NoteOnEvent(tick=96, channel=0, data=[75, 0])\n",
      "midi.NoteOnEvent(tick=0, channel=0, data=[76, 100])\n",
      "midi.NoteOnEvent(tick=96, channel=0, data=[76, 0])\n",
      "midi.NoteOnEvent(tick=0, channel=0, data=[78, 100])\n",
      "midi.NoteOnEvent(tick=96, channel=0, data=[78, 0])\n",
      "midi.NoteOnEvent(tick=0, channel=0, data=[76, 100])\n",
      "midi.NoteOnEvent(tick=96, channel=0, data=[76, 0])\n",
      "midi.NoteOnEvent(tick=0, channel=0, data=[75, 100])\n",
      "midi.NoteOnEvent(tick=96, channel=0, data=[75, 0])\n",
      "midi.NoteOnEvent(tick=0, channel=0, data=[78, 100])\n",
      "midi.NoteOnEvent(tick=96, channel=0, data=[78, 0])\n",
      "midi.NoteOnEvent(tick=0, channel=0, data=[72, 100])\n",
      "midi.NoteOnEvent(tick=96, channel=0, data=[72, 0])\n",
      "midi.NoteOnEvent(tick=0, channel=0, data=[78, 100])\n",
      "midi.NoteOnEvent(tick=96, channel=0, data=[78, 0])\n",
      "midi.NoteOnEvent(tick=0, channel=0, data=[69, 100])\n",
      "midi.NoteOnEvent(tick=96, channel=0, data=[69, 0])\n",
      "midi.NoteOnEvent(tick=0, channel=0, data=[71, 100])\n",
      "midi.NoteOnEvent(tick=96, channel=0, data=[71, 0])\n",
      "midi.NoteOnEvent(tick=0, channel=0, data=[72, 100])\n",
      "midi.NoteOnEvent(tick=96, channel=0, data=[72, 0])\n",
      "midi.NoteOnEvent(tick=0, channel=0, data=[71, 100])\n",
      "midi.NoteOnEvent(tick=96, channel=0, data=[71, 0])\n",
      "midi.NoteOnEvent(tick=0, channel=0, data=[69, 100])\n",
      "midi.NoteOnEvent(tick=96, channel=0, data=[69, 0])\n",
      "midi.NoteOnEvent(tick=0, channel=0, data=[72, 100])\n",
      "midi.NoteOnEvent(tick=96, channel=0, data=[72, 0])\n",
      "midi.NoteOnEvent(tick=0, channel=0, data=[67, 100])\n",
      "midi.NoteOnEvent(tick=96, channel=0, data=[67, 0])\n",
      "midi.NoteOnEvent(tick=0, channel=0, data=[72, 100])\n",
      "midi.NoteOnEvent(tick=96, channel=0, data=[72, 0])\n",
      "midi.NoteOnEvent(tick=0, channel=0, data=[66, 100])\n",
      "midi.NoteOnEvent(tick=96, channel=0, data=[66, 0])\n",
      "midi.NoteOnEvent(tick=0, channel=0, data=[67, 100])\n",
      "midi.NoteOnEvent(tick=96, channel=0, data=[67, 0])\n",
      "midi.NoteOnEvent(tick=0, channel=0, data=[69, 100])\n",
      "midi.NoteOnEvent(tick=96, channel=0, data=[69, 0])\n",
      "midi.NoteOnEvent(tick=0, channel=0, data=[67, 100])\n",
      "midi.NoteOnEvent(tick=96, channel=0, data=[67, 0])\n",
      "midi.NoteOnEvent(tick=0, channel=0, data=[66, 100])\n",
      "midi.NoteOnEvent(tick=96, channel=0, data=[66, 0])\n",
      "midi.NoteOnEvent(tick=0, channel=0, data=[69, 100])\n",
      "midi.NoteOnEvent(tick=96, channel=0, data=[69, 0])\n"
     ]
    },
    {
     "name": "stdout",
     "output_type": "stream",
     "text": [
      "midi.NoteOnEvent(tick=0, channel=0, data=[64, 100])\n",
      "midi.NoteOnEvent(tick=96, channel=0, data=[64, 0])\n",
      "midi.NoteOnEvent(tick=0, channel=0, data=[69, 100])\n",
      "midi.NoteOnEvent(tick=96, channel=0, data=[69, 0])\n",
      "midi.NoteOnEvent(tick=0, channel=0, data=[63, 100])\n",
      "midi.NoteOnEvent(tick=96, channel=0, data=[63, 0])\n",
      "midi.NoteOnEvent(tick=0, channel=0, data=[69, 100])\n",
      "midi.NoteOnEvent(tick=96, channel=0, data=[69, 0])\n",
      "midi.NoteOnEvent(tick=0, channel=0, data=[59, 100])\n",
      "midi.NoteOnEvent(tick=96, channel=0, data=[59, 0])\n",
      "midi.NoteOnEvent(tick=0, channel=0, data=[61, 100])\n",
      "midi.NoteOnEvent(tick=96, channel=0, data=[61, 0])\n",
      "midi.NoteOnEvent(tick=0, channel=0, data=[63, 100])\n",
      "midi.NoteOnEvent(tick=96, channel=0, data=[63, 0])\n",
      "midi.NoteOnEvent(tick=0, channel=0, data=[64, 100])\n",
      "midi.NoteOnEvent(tick=96, channel=0, data=[64, 0])\n",
      "midi.NoteOnEvent(tick=0, channel=0, data=[66, 100])\n",
      "midi.NoteOnEvent(tick=96, channel=0, data=[66, 0])\n",
      "midi.NoteOnEvent(tick=0, channel=0, data=[67, 100])\n",
      "midi.NoteOnEvent(tick=96, channel=0, data=[67, 0])\n",
      "midi.NoteOnEvent(tick=0, channel=0, data=[69, 100])\n",
      "midi.NoteOnEvent(tick=96, channel=0, data=[69, 0])\n",
      "midi.NoteOnEvent(tick=0, channel=0, data=[71, 100])\n",
      "midi.NoteOnEvent(tick=96, channel=0, data=[71, 0])\n",
      "midi.NoteOnEvent(tick=0, channel=0, data=[73, 100])\n",
      "midi.NoteOnEvent(tick=96, channel=0, data=[73, 0])\n",
      "midi.NoteOnEvent(tick=0, channel=0, data=[75, 100])\n",
      "midi.NoteOnEvent(tick=96, channel=0, data=[75, 0])\n",
      "midi.NoteOnEvent(tick=0, channel=0, data=[76, 100])\n",
      "midi.NoteOnEvent(tick=96, channel=0, data=[76, 0])\n",
      "midi.NoteOnEvent(tick=0, channel=0, data=[78, 100])\n",
      "midi.NoteOnEvent(tick=96, channel=0, data=[78, 0])\n",
      "midi.NoteOnEvent(tick=0, channel=0, data=[79, 100])\n",
      "midi.NoteOnEvent(tick=96, channel=0, data=[79, 0])\n",
      "midi.NoteOnEvent(tick=0, channel=0, data=[81, 100])\n",
      "midi.NoteOnEvent(tick=96, channel=0, data=[81, 0])\n",
      "midi.NoteOnEvent(tick=0, channel=0, data=[83, 100])\n",
      "midi.NoteOnEvent(tick=192, channel=0, data=[83, 0])\n",
      "midi.NoteOnEvent(tick=0, channel=0, data=[76, 100])\n",
      "midi.NoteOnEvent(tick=192, channel=0, data=[76, 0])\n",
      "midi.NoteOnEvent(tick=0, channel=0, data=[78, 100])\n",
      "midi.NoteOnEvent(tick=192, channel=0, data=[78, 0])\n",
      "midi.NoteOnEvent(tick=0, channel=0, data=[75, 100])\n",
      "midi.NoteOnEvent(tick=192, channel=0, data=[75, 0])\n",
      "midi.NoteOnEvent(tick=0, channel=0, data=[76, 100])\n",
      "midi.NoteOnEvent(tick=96, channel=0, data=[76, 0])\n",
      "midi.NoteOnEvent(tick=0, channel=0, data=[74, 100])\n",
      "midi.NoteOnEvent(tick=96, channel=0, data=[74, 0])\n",
      "midi.NoteOnEvent(tick=0, channel=0, data=[72, 100])\n",
      "midi.NoteOnEvent(tick=96, channel=0, data=[72, 0])\n",
      "midi.NoteOnEvent(tick=0, channel=0, data=[71, 100])\n",
      "midi.NoteOnEvent(tick=96, channel=0, data=[71, 0])\n",
      "midi.NoteOnEvent(tick=0, channel=0, data=[69, 100])\n",
      "midi.NoteOnEvent(tick=192, channel=0, data=[69, 0])\n",
      "midi.NoteOnEvent(tick=0, channel=0, data=[69, 100])\n",
      "midi.NoteOnEvent(tick=192, channel=0, data=[69, 0])\n",
      "midi.NoteOnEvent(tick=0, channel=0, data=[69, 100])\n",
      "midi.NoteOnEvent(tick=96, channel=0, data=[69, 0])\n",
      "midi.NoteOnEvent(tick=0, channel=0, data=[71, 100])\n",
      "midi.NoteOnEvent(tick=96, channel=0, data=[71, 0])\n",
      "midi.NoteOnEvent(tick=0, channel=0, data=[72, 100])\n",
      "midi.NoteOnEvent(tick=288, channel=0, data=[72, 0])\n",
      "midi.NoteOnEvent(tick=0, channel=0, data=[71, 100])\n",
      "midi.NoteOnEvent(tick=96, channel=0, data=[71, 0])\n",
      "midi.NoteOnEvent(tick=0, channel=0, data=[69, 100])\n",
      "midi.NoteOnEvent(tick=96, channel=0, data=[69, 0])\n",
      "midi.NoteOnEvent(tick=0, channel=0, data=[67, 100])\n",
      "midi.NoteOnEvent(tick=96, channel=0, data=[67, 0])\n",
      "midi.NoteOnEvent(tick=0, channel=0, data=[66, 100])\n",
      "midi.NoteOnEvent(tick=96, channel=0, data=[66, 0])\n",
      "midi.NoteOnEvent(tick=0, channel=0, data=[67, 100])\n",
      "midi.NoteOnEvent(tick=96, channel=0, data=[67, 0])\n",
      "midi.NoteOnEvent(tick=0, channel=0, data=[69, 100])\n",
      "midi.NoteOnEvent(tick=288, channel=0, data=[69, 0])\n",
      "midi.NoteOnEvent(tick=0, channel=0, data=[67, 100])\n",
      "midi.NoteOnEvent(tick=96, channel=0, data=[67, 0])\n",
      "midi.NoteOnEvent(tick=0, channel=0, data=[66, 100])\n",
      "midi.NoteOnEvent(tick=96, channel=0, data=[66, 0])\n",
      "midi.NoteOnEvent(tick=0, channel=0, data=[64, 100])\n",
      "midi.NoteOnEvent(tick=96, channel=0, data=[64, 0])\n",
      "midi.NoteOnEvent(tick=0, channel=0, data=[63, 100])\n",
      "midi.NoteOnEvent(tick=192, channel=0, data=[63, 0])\n",
      "midi.NoteOnEvent(tick=0, channel=0, data=[71, 100])\n",
      "midi.NoteOnEvent(tick=192, channel=0, data=[71, 0])\n",
      "midi.NoteOnEvent(tick=0, channel=0, data=[67, 100])\n",
      "midi.NoteOnEvent(tick=48, channel=0, data=[67, 0])\n",
      "midi.NoteOnEvent(tick=0, channel=0, data=[69, 100])\n",
      "midi.NoteOnEvent(tick=48, channel=0, data=[69, 0])\n",
      "midi.NoteOnEvent(tick=0, channel=0, data=[67, 100])\n",
      "midi.NoteOnEvent(tick=48, channel=0, data=[67, 0])\n",
      "midi.NoteOnEvent(tick=0, channel=0, data=[69, 100])\n",
      "midi.NoteOnEvent(tick=48, channel=0, data=[69, 0])\n",
      "midi.NoteOnEvent(tick=0, channel=0, data=[66, 100])\n",
      "midi.NoteOnEvent(tick=96, channel=0, data=[66, 0])\n",
      "midi.NoteOnEvent(tick=0, channel=0, data=[64, 100])\n",
      "midi.NoteOnEvent(tick=96, channel=0, data=[64, 0])\n",
      "midi.NoteOnEvent(tick=0, channel=0, data=[64, 100])\n",
      "midi.NoteOnEvent(tick=384, channel=0, data=[64, 0])\n",
      "midi.NoteOnEvent(tick=96, channel=0, data=[71, 100])\n",
      "midi.NoteOnEvent(tick=96, channel=0, data=[71, 0])\n",
      "midi.NoteOnEvent(tick=0, channel=0, data=[69, 100])\n",
      "midi.NoteOnEvent(tick=96, channel=0, data=[69, 0])\n",
      "midi.NoteOnEvent(tick=0, channel=0, data=[71, 100])\n",
      "midi.NoteOnEvent(tick=96, channel=0, data=[71, 0])\n",
      "midi.NoteOnEvent(tick=0, channel=0, data=[76, 100])\n",
      "midi.NoteOnEvent(tick=96, channel=0, data=[76, 0])\n",
      "midi.NoteOnEvent(tick=0, channel=0, data=[75, 100])\n",
      "midi.NoteOnEvent(tick=96, channel=0, data=[75, 0])\n",
      "midi.NoteOnEvent(tick=0, channel=0, data=[76, 100])\n",
      "midi.NoteOnEvent(tick=288, channel=0, data=[76, 0])\n",
      "midi.NoteOnEvent(tick=0, channel=0, data=[71, 100])\n",
      "midi.NoteOnEvent(tick=96, channel=0, data=[71, 0])\n",
      "midi.NoteOnEvent(tick=0, channel=0, data=[69, 100])\n",
      "midi.NoteOnEvent(tick=96, channel=0, data=[69, 0])\n",
      "midi.NoteOnEvent(tick=0, channel=0, data=[71, 100])\n",
      "midi.NoteOnEvent(tick=96, channel=0, data=[71, 0])\n",
      "midi.NoteOnEvent(tick=0, channel=0, data=[79, 100])\n",
      "midi.NoteOnEvent(tick=192, channel=0, data=[79, 0])\n",
      "midi.NoteOnEvent(tick=0, channel=0, data=[78, 100])\n",
      "midi.NoteOnEvent(tick=288, channel=0, data=[78, 0])\n",
      "midi.NoteOnEvent(tick=0, channel=0, data=[71, 100])\n",
      "midi.NoteOnEvent(tick=96, channel=0, data=[71, 0])\n",
      "midi.NoteOnEvent(tick=0, channel=0, data=[69, 100])\n",
      "midi.NoteOnEvent(tick=96, channel=0, data=[69, 0])\n",
      "midi.NoteOnEvent(tick=0, channel=0, data=[71, 100])\n",
      "midi.NoteOnEvent(tick=96, channel=0, data=[71, 0])\n",
      "midi.NoteOnEvent(tick=0, channel=0, data=[78, 100])\n",
      "midi.NoteOnEvent(tick=96, channel=0, data=[78, 0])\n",
      "midi.NoteOnEvent(tick=0, channel=0, data=[76, 100])\n",
      "midi.NoteOnEvent(tick=96, channel=0, data=[76, 0])\n",
      "midi.NoteOnEvent(tick=0, channel=0, data=[78, 100])\n",
      "midi.NoteOnEvent(tick=288, channel=0, data=[78, 0])\n",
      "midi.NoteOnEvent(tick=0, channel=0, data=[71, 100])\n",
      "midi.NoteOnEvent(tick=96, channel=0, data=[71, 0])\n",
      "midi.NoteOnEvent(tick=0, channel=0, data=[69, 100])\n",
      "midi.NoteOnEvent(tick=96, channel=0, data=[69, 0])\n",
      "midi.NoteOnEvent(tick=0, channel=0, data=[71, 100])\n",
      "midi.NoteOnEvent(tick=96, channel=0, data=[71, 0])\n",
      "midi.NoteOnEvent(tick=0, channel=0, data=[81, 100])\n",
      "midi.NoteOnEvent(tick=192, channel=0, data=[81, 0])\n",
      "midi.NoteOnEvent(tick=0, channel=0, data=[79, 100])\n",
      "midi.NoteOnEvent(tick=288, channel=0, data=[79, 0])\n",
      "midi.NoteOnEvent(tick=0, channel=0, data=[76, 100])\n",
      "midi.NoteOnEvent(tick=96, channel=0, data=[76, 0])\n",
      "midi.NoteOnEvent(tick=0, channel=0, data=[75, 100])\n",
      "midi.NoteOnEvent(tick=96, channel=0, data=[75, 0])\n",
      "midi.NoteOnEvent(tick=0, channel=0, data=[76, 100])\n",
      "midi.NoteOnEvent(tick=96, channel=0, data=[76, 0])\n",
      "midi.NoteOnEvent(tick=0, channel=0, data=[78, 100])\n",
      "midi.NoteOnEvent(tick=96, channel=0, data=[78, 0])\n",
      "midi.NoteOnEvent(tick=0, channel=0, data=[76, 100])\n",
      "midi.NoteOnEvent(tick=96, channel=0, data=[76, 0])\n",
      "midi.NoteOnEvent(tick=0, channel=0, data=[75, 100])\n",
      "midi.NoteOnEvent(tick=96, channel=0, data=[75, 0])\n",
      "midi.NoteOnEvent(tick=0, channel=0, data=[76, 100])\n",
      "midi.NoteOnEvent(tick=96, channel=0, data=[76, 0])\n",
      "midi.NoteOnEvent(tick=0, channel=0, data=[80, 100])\n",
      "midi.NoteOnEvent(tick=96, channel=0, data=[80, 0])\n",
      "midi.NoteOnEvent(tick=0, channel=0, data=[76, 100])\n",
      "midi.NoteOnEvent(tick=96, channel=0, data=[76, 0])\n",
      "midi.NoteOnEvent(tick=0, channel=0, data=[75, 100])\n",
      "midi.NoteOnEvent(tick=96, channel=0, data=[75, 0])\n",
      "midi.NoteOnEvent(tick=0, channel=0, data=[76, 100])\n",
      "midi.NoteOnEvent(tick=96, channel=0, data=[76, 0])\n",
      "midi.NoteOnEvent(tick=0, channel=0, data=[81, 100])\n",
      "midi.NoteOnEvent(tick=96, channel=0, data=[81, 0])\n",
      "midi.NoteOnEvent(tick=0, channel=0, data=[76, 100])\n",
      "midi.NoteOnEvent(tick=96, channel=0, data=[76, 0])\n",
      "midi.NoteOnEvent(tick=0, channel=0, data=[75, 100])\n",
      "midi.NoteOnEvent(tick=96, channel=0, data=[75, 0])\n",
      "midi.NoteOnEvent(tick=0, channel=0, data=[76, 100])\n",
      "midi.NoteOnEvent(tick=96, channel=0, data=[76, 0])\n",
      "midi.NoteOnEvent(tick=0, channel=0, data=[83, 100])\n",
      "midi.NoteOnEvent(tick=96, channel=0, data=[83, 0])\n",
      "midi.NoteOnEvent(tick=0, channel=0, data=[76, 100])\n",
      "midi.NoteOnEvent(tick=96, channel=0, data=[76, 0])\n",
      "midi.NoteOnEvent(tick=0, channel=0, data=[75, 100])\n",
      "midi.NoteOnEvent(tick=96, channel=0, data=[75, 0])\n",
      "midi.NoteOnEvent(tick=0, channel=0, data=[76, 100])\n",
      "midi.NoteOnEvent(tick=96, channel=0, data=[76, 0])\n",
      "midi.NoteOnEvent(tick=0, channel=0, data=[84, 100])\n",
      "midi.NoteOnEvent(tick=96, channel=0, data=[84, 0])\n",
      "midi.NoteOnEvent(tick=0, channel=0, data=[69, 100])\n",
      "midi.NoteOnEvent(tick=96, channel=0, data=[69, 0])\n",
      "midi.NoteOnEvent(tick=0, channel=0, data=[68, 100])\n",
      "midi.NoteOnEvent(tick=96, channel=0, data=[68, 0])\n",
      "midi.NoteOnEvent(tick=0, channel=0, data=[69, 100])\n",
      "midi.NoteOnEvent(tick=96, channel=0, data=[69, 0])\n",
      "midi.NoteOnEvent(tick=0, channel=0, data=[73, 100])\n",
      "midi.NoteOnEvent(tick=96, channel=0, data=[73, 0])\n",
      "midi.NoteOnEvent(tick=0, channel=0, data=[69, 100])\n",
      "midi.NoteOnEvent(tick=96, channel=0, data=[69, 0])\n",
      "midi.NoteOnEvent(tick=0, channel=0, data=[68, 100])\n",
      "midi.NoteOnEvent(tick=96, channel=0, data=[68, 0])\n",
      "midi.NoteOnEvent(tick=0, channel=0, data=[69, 100])\n",
      "midi.NoteOnEvent(tick=96, channel=0, data=[69, 0])\n",
      "midi.NoteOnEvent(tick=0, channel=0, data=[74, 100])\n",
      "midi.NoteOnEvent(tick=96, channel=0, data=[74, 0])\n",
      "midi.NoteOnEvent(tick=0, channel=0, data=[69, 100])\n",
      "midi.NoteOnEvent(tick=96, channel=0, data=[69, 0])\n",
      "midi.NoteOnEvent(tick=0, channel=0, data=[68, 100])\n",
      "midi.NoteOnEvent(tick=96, channel=0, data=[68, 0])\n",
      "midi.NoteOnEvent(tick=0, channel=0, data=[69, 100])\n",
      "midi.NoteOnEvent(tick=96, channel=0, data=[69, 0])\n",
      "midi.NoteOnEvent(tick=0, channel=0, data=[76, 100])\n",
      "midi.NoteOnEvent(tick=96, channel=0, data=[76, 0])\n",
      "midi.NoteOnEvent(tick=0, channel=0, data=[69, 100])\n",
      "midi.NoteOnEvent(tick=96, channel=0, data=[69, 0])\n",
      "midi.NoteOnEvent(tick=0, channel=0, data=[68, 100])\n",
      "midi.NoteOnEvent(tick=96, channel=0, data=[68, 0])\n",
      "midi.NoteOnEvent(tick=0, channel=0, data=[69, 100])\n",
      "midi.NoteOnEvent(tick=96, channel=0, data=[69, 0])\n",
      "midi.NoteOnEvent(tick=0, channel=0, data=[77, 100])\n",
      "midi.NoteOnEvent(tick=96, channel=0, data=[77, 0])\n",
      "midi.NoteOnEvent(tick=0, channel=0, data=[62, 100])\n",
      "midi.NoteOnEvent(tick=96, channel=0, data=[62, 0])\n",
      "midi.NoteOnEvent(tick=0, channel=0, data=[61, 100])\n",
      "midi.NoteOnEvent(tick=96, channel=0, data=[61, 0])\n",
      "midi.NoteOnEvent(tick=0, channel=0, data=[62, 100])\n",
      "midi.NoteOnEvent(tick=96, channel=0, data=[62, 0])\n",
      "midi.NoteOnEvent(tick=0, channel=0, data=[66, 100])\n",
      "midi.NoteOnEvent(tick=96, channel=0, data=[66, 0])\n",
      "midi.NoteOnEvent(tick=0, channel=0, data=[62, 100])\n",
      "midi.NoteOnEvent(tick=96, channel=0, data=[62, 0])\n",
      "midi.NoteOnEvent(tick=0, channel=0, data=[61, 100])\n",
      "midi.NoteOnEvent(tick=96, channel=0, data=[61, 0])\n",
      "midi.NoteOnEvent(tick=0, channel=0, data=[62, 100])\n",
      "midi.NoteOnEvent(tick=96, channel=0, data=[62, 0])\n",
      "midi.NoteOnEvent(tick=0, channel=0, data=[67, 100])\n",
      "midi.NoteOnEvent(tick=96, channel=0, data=[67, 0])\n",
      "midi.NoteOnEvent(tick=0, channel=0, data=[62, 100])\n",
      "midi.NoteOnEvent(tick=96, channel=0, data=[62, 0])\n",
      "midi.NoteOnEvent(tick=0, channel=0, data=[61, 100])\n",
      "midi.NoteOnEvent(tick=96, channel=0, data=[61, 0])\n",
      "midi.NoteOnEvent(tick=0, channel=0, data=[62, 100])\n",
      "midi.NoteOnEvent(tick=96, channel=0, data=[62, 0])\n",
      "midi.NoteOnEvent(tick=0, channel=0, data=[69, 100])\n",
      "midi.NoteOnEvent(tick=96, channel=0, data=[69, 0])\n",
      "midi.NoteOnEvent(tick=0, channel=0, data=[62, 100])\n",
      "midi.NoteOnEvent(tick=96, channel=0, data=[62, 0])\n",
      "midi.NoteOnEvent(tick=0, channel=0, data=[61, 100])\n",
      "midi.NoteOnEvent(tick=96, channel=0, data=[61, 0])\n",
      "midi.NoteOnEvent(tick=0, channel=0, data=[62, 100])\n",
      "midi.NoteOnEvent(tick=96, channel=0, data=[62, 0])\n",
      "midi.NoteOnEvent(tick=0, channel=0, data=[71, 100])\n",
      "midi.NoteOnEvent(tick=96, channel=0, data=[71, 0])\n",
      "midi.NoteOnEvent(tick=0, channel=0, data=[67, 100])\n",
      "midi.NoteOnEvent(tick=96, channel=0, data=[67, 0])\n",
      "midi.NoteOnEvent(tick=0, channel=0, data=[66, 100])\n",
      "midi.NoteOnEvent(tick=96, channel=0, data=[66, 0])\n",
      "midi.NoteOnEvent(tick=0, channel=0, data=[67, 100])\n",
      "midi.NoteOnEvent(tick=96, channel=0, data=[67, 0])\n",
      "midi.NoteOnEvent(tick=0, channel=0, data=[71, 100])\n",
      "midi.NoteOnEvent(tick=96, channel=0, data=[71, 0])\n",
      "midi.NoteOnEvent(tick=0, channel=0, data=[67, 100])\n",
      "midi.NoteOnEvent(tick=96, channel=0, data=[67, 0])\n",
      "midi.NoteOnEvent(tick=0, channel=0, data=[66, 100])\n",
      "midi.NoteOnEvent(tick=96, channel=0, data=[66, 0])\n",
      "midi.NoteOnEvent(tick=0, channel=0, data=[67, 100])\n",
      "midi.NoteOnEvent(tick=96, channel=0, data=[67, 0])\n",
      "midi.NoteOnEvent(tick=0, channel=0, data=[72, 100])\n",
      "midi.NoteOnEvent(tick=96, channel=0, data=[72, 0])\n",
      "midi.NoteOnEvent(tick=0, channel=0, data=[67, 100])\n",
      "midi.NoteOnEvent(tick=96, channel=0, data=[67, 0])\n",
      "midi.NoteOnEvent(tick=0, channel=0, data=[66, 100])\n",
      "midi.NoteOnEvent(tick=96, channel=0, data=[66, 0])\n",
      "midi.NoteOnEvent(tick=0, channel=0, data=[67, 100])\n",
      "midi.NoteOnEvent(tick=96, channel=0, data=[67, 0])\n",
      "midi.NoteOnEvent(tick=0, channel=0, data=[74, 100])\n",
      "midi.NoteOnEvent(tick=96, channel=0, data=[74, 0])\n",
      "midi.NoteOnEvent(tick=0, channel=0, data=[67, 100])\n",
      "midi.NoteOnEvent(tick=96, channel=0, data=[67, 0])\n",
      "midi.NoteOnEvent(tick=0, channel=0, data=[66, 100])\n",
      "midi.NoteOnEvent(tick=96, channel=0, data=[66, 0])\n",
      "midi.NoteOnEvent(tick=0, channel=0, data=[67, 100])\n",
      "midi.NoteOnEvent(tick=96, channel=0, data=[67, 0])\n",
      "midi.NoteOnEvent(tick=0, channel=0, data=[76, 100])\n",
      "midi.NoteOnEvent(tick=96, channel=0, data=[76, 0])\n",
      "midi.NoteOnEvent(tick=0, channel=0, data=[72, 100])\n",
      "midi.NoteOnEvent(tick=96, channel=0, data=[72, 0])\n",
      "midi.NoteOnEvent(tick=0, channel=0, data=[71, 100])\n",
      "midi.NoteOnEvent(tick=96, channel=0, data=[71, 0])\n",
      "midi.NoteOnEvent(tick=0, channel=0, data=[72, 100])\n",
      "midi.NoteOnEvent(tick=96, channel=0, data=[72, 0])\n",
      "midi.NoteOnEvent(tick=0, channel=0, data=[76, 100])\n",
      "midi.NoteOnEvent(tick=96, channel=0, data=[76, 0])\n",
      "midi.NoteOnEvent(tick=0, channel=0, data=[72, 100])\n",
      "midi.NoteOnEvent(tick=96, channel=0, data=[72, 0])\n",
      "midi.NoteOnEvent(tick=0, channel=0, data=[71, 100])\n",
      "midi.NoteOnEvent(tick=96, channel=0, data=[71, 0])\n",
      "midi.NoteOnEvent(tick=0, channel=0, data=[72, 100])\n",
      "midi.NoteOnEvent(tick=96, channel=0, data=[72, 0])\n",
      "midi.NoteOnEvent(tick=0, channel=0, data=[77, 100])\n",
      "midi.NoteOnEvent(tick=96, channel=0, data=[77, 0])\n",
      "midi.NoteOnEvent(tick=0, channel=0, data=[72, 100])\n",
      "midi.NoteOnEvent(tick=96, channel=0, data=[72, 0])\n",
      "midi.NoteOnEvent(tick=0, channel=0, data=[71, 100])\n",
      "midi.NoteOnEvent(tick=96, channel=0, data=[71, 0])\n",
      "midi.NoteOnEvent(tick=0, channel=0, data=[72, 100])\n",
      "midi.NoteOnEvent(tick=96, channel=0, data=[72, 0])\n",
      "midi.NoteOnEvent(tick=0, channel=0, data=[79, 100])\n",
      "midi.NoteOnEvent(tick=96, channel=0, data=[79, 0])\n",
      "midi.NoteOnEvent(tick=0, channel=0, data=[72, 100])\n",
      "midi.NoteOnEvent(tick=96, channel=0, data=[72, 0])\n",
      "midi.NoteOnEvent(tick=0, channel=0, data=[71, 100])\n",
      "midi.NoteOnEvent(tick=96, channel=0, data=[71, 0])\n",
      "midi.NoteOnEvent(tick=0, channel=0, data=[72, 100])\n",
      "midi.NoteOnEvent(tick=96, channel=0, data=[72, 0])\n",
      "midi.NoteOnEvent(tick=0, channel=0, data=[81, 100])\n",
      "midi.NoteOnEvent(tick=96, channel=0, data=[81, 0])\n",
      "midi.NoteOnEvent(tick=0, channel=0, data=[82, 100])\n",
      "midi.NoteOnEvent(tick=96, channel=0, data=[82, 0])\n",
      "midi.NoteOnEvent(tick=0, channel=0, data=[81, 100])\n",
      "midi.NoteOnEvent(tick=96, channel=0, data=[81, 0])\n",
      "midi.NoteOnEvent(tick=0, channel=0, data=[79, 100])\n",
      "midi.NoteOnEvent(tick=96, channel=0, data=[79, 0])\n",
      "midi.NoteOnEvent(tick=0, channel=0, data=[77, 100])\n",
      "midi.NoteOnEvent(tick=96, channel=0, data=[77, 0])\n",
      "midi.NoteOnEvent(tick=0, channel=0, data=[76, 100])\n",
      "midi.NoteOnEvent(tick=96, channel=0, data=[76, 0])\n",
      "midi.NoteOnEvent(tick=0, channel=0, data=[74, 100])\n",
      "midi.NoteOnEvent(tick=96, channel=0, data=[74, 0])\n",
      "midi.NoteOnEvent(tick=0, channel=0, data=[72, 100])\n",
      "midi.NoteOnEvent(tick=96, channel=0, data=[72, 0])\n",
      "midi.NoteOnEvent(tick=0, channel=0, data=[70, 100])\n",
      "midi.NoteOnEvent(tick=96, channel=0, data=[70, 0])\n",
      "midi.NoteOnEvent(tick=0, channel=0, data=[69, 100])\n",
      "midi.NoteOnEvent(tick=96, channel=0, data=[69, 0])\n",
      "midi.NoteOnEvent(tick=0, channel=0, data=[70, 100])\n",
      "midi.NoteOnEvent(tick=96, channel=0, data=[70, 0])\n",
      "midi.NoteOnEvent(tick=0, channel=0, data=[81, 100])\n",
      "midi.NoteOnEvent(tick=96, channel=0, data=[81, 0])\n",
      "midi.NoteOnEvent(tick=0, channel=0, data=[79, 100])\n",
      "midi.NoteOnEvent(tick=96, channel=0, data=[79, 0])\n",
      "midi.NoteOnEvent(tick=0, channel=0, data=[77, 100])\n",
      "midi.NoteOnEvent(tick=96, channel=0, data=[77, 0])\n",
      "midi.NoteOnEvent(tick=0, channel=0, data=[76, 100])\n",
      "midi.NoteOnEvent(tick=96, channel=0, data=[76, 0])\n",
      "midi.NoteOnEvent(tick=0, channel=0, data=[74, 100])\n",
      "midi.NoteOnEvent(tick=96, channel=0, data=[74, 0])\n",
      "midi.NoteOnEvent(tick=0, channel=0, data=[73, 100])\n",
      "midi.NoteOnEvent(tick=96, channel=0, data=[73, 0])\n",
      "midi.NoteOnEvent(tick=0, channel=0, data=[74, 100])\n",
      "midi.NoteOnEvent(tick=96, channel=0, data=[74, 0])\n",
      "midi.NoteOnEvent(tick=0, channel=0, data=[73, 100])\n",
      "midi.NoteOnEvent(tick=96, channel=0, data=[73, 0])\n",
      "midi.NoteOnEvent(tick=0, channel=0, data=[71, 100])\n",
      "midi.NoteOnEvent(tick=96, channel=0, data=[71, 0])\n",
      "midi.NoteOnEvent(tick=0, channel=0, data=[69, 100])\n",
      "midi.NoteOnEvent(tick=96, channel=0, data=[69, 0])\n",
      "midi.NoteOnEvent(tick=0, channel=0, data=[67, 100])\n",
      "midi.NoteOnEvent(tick=96, channel=0, data=[67, 0])\n",
      "midi.NoteOnEvent(tick=0, channel=0, data=[65, 100])\n",
      "midi.NoteOnEvent(tick=96, channel=0, data=[65, 0])\n",
      "midi.NoteOnEvent(tick=0, channel=0, data=[64, 100])\n",
      "midi.NoteOnEvent(tick=96, channel=0, data=[64, 0])\n",
      "midi.NoteOnEvent(tick=0, channel=0, data=[65, 100])\n",
      "midi.NoteOnEvent(tick=96, channel=0, data=[65, 0])\n",
      "midi.NoteOnEvent(tick=0, channel=0, data=[69, 100])\n",
      "midi.NoteOnEvent(tick=96, channel=0, data=[69, 0])\n",
      "midi.NoteOnEvent(tick=0, channel=0, data=[74, 100])\n",
      "midi.NoteOnEvent(tick=96, channel=0, data=[74, 0])\n",
      "midi.NoteOnEvent(tick=0, channel=0, data=[77, 100])\n",
      "midi.NoteOnEvent(tick=96, channel=0, data=[77, 0])\n",
      "midi.NoteOnEvent(tick=0, channel=0, data=[81, 100])\n",
      "midi.NoteOnEvent(tick=480, channel=0, data=[81, 0])\n",
      "midi.NoteOnEvent(tick=0, channel=0, data=[79, 100])\n",
      "midi.NoteOnEvent(tick=96, channel=0, data=[79, 0])\n",
      "midi.NoteOnEvent(tick=0, channel=0, data=[77, 100])\n",
      "midi.NoteOnEvent(tick=96, channel=0, data=[77, 0])\n",
      "midi.NoteOnEvent(tick=0, channel=0, data=[81, 100])\n",
      "midi.NoteOnEvent(tick=96, channel=0, data=[81, 0])\n",
      "midi.NoteOnEvent(tick=0, channel=0, data=[79, 100])\n",
      "midi.NoteOnEvent(tick=96, channel=0, data=[79, 0])\n",
      "midi.NoteOnEvent(tick=0, channel=0, data=[77, 100])\n",
      "midi.NoteOnEvent(tick=96, channel=0, data=[77, 0])\n",
      "midi.NoteOnEvent(tick=0, channel=0, data=[76, 100])\n",
      "midi.NoteOnEvent(tick=96, channel=0, data=[76, 0])\n",
      "midi.NoteOnEvent(tick=0, channel=0, data=[79, 100])\n",
      "midi.NoteOnEvent(tick=96, channel=0, data=[79, 0])\n",
      "midi.NoteOnEvent(tick=0, channel=0, data=[77, 100])\n",
      "midi.NoteOnEvent(tick=96, channel=0, data=[77, 0])\n",
      "midi.NoteOnEvent(tick=0, channel=0, data=[76, 100])\n",
      "midi.NoteOnEvent(tick=96, channel=0, data=[76, 0])\n",
      "midi.NoteOnEvent(tick=0, channel=0, data=[74, 100])\n",
      "midi.NoteOnEvent(tick=96, channel=0, data=[74, 0])\n",
      "midi.NoteOnEvent(tick=0, channel=0, data=[77, 100])\n",
      "midi.NoteOnEvent(tick=96, channel=0, data=[77, 0])\n",
      "midi.NoteOnEvent(tick=0, channel=0, data=[76, 100])\n",
      "midi.NoteOnEvent(tick=96, channel=0, data=[76, 0])\n",
      "midi.NoteOnEvent(tick=0, channel=0, data=[74, 100])\n",
      "midi.NoteOnEvent(tick=96, channel=0, data=[74, 0])\n",
      "midi.NoteOnEvent(tick=0, channel=0, data=[73, 100])\n",
      "midi.NoteOnEvent(tick=96, channel=0, data=[73, 0])\n",
      "midi.NoteOnEvent(tick=0, channel=0, data=[76, 100])\n",
      "midi.NoteOnEvent(tick=96, channel=0, data=[76, 0])\n",
      "midi.NoteOnEvent(tick=0, channel=0, data=[74, 100])\n",
      "midi.NoteOnEvent(tick=384, channel=0, data=[74, 0])\n",
      "midi.NoteOnEvent(tick=96, channel=0, data=[74, 100])\n",
      "midi.NoteOnEvent(tick=96, channel=0, data=[74, 0])\n",
      "midi.NoteOnEvent(tick=0, channel=0, data=[73, 100])\n",
      "midi.NoteOnEvent(tick=96, channel=0, data=[73, 0])\n",
      "midi.NoteOnEvent(tick=0, channel=0, data=[74, 100])\n",
      "midi.NoteOnEvent(tick=96, channel=0, data=[74, 0])\n",
      "midi.NoteOnEvent(tick=0, channel=0, data=[76, 100])\n",
      "midi.NoteOnEvent(tick=96, channel=0, data=[76, 0])\n",
      "midi.NoteOnEvent(tick=0, channel=0, data=[74, 100])\n",
      "midi.NoteOnEvent(tick=96, channel=0, data=[74, 0])\n",
      "midi.NoteOnEvent(tick=0, channel=0, data=[73, 100])\n",
      "midi.NoteOnEvent(tick=96, channel=0, data=[73, 0])\n",
      "midi.NoteOnEvent(tick=0, channel=0, data=[74, 100])\n",
      "midi.NoteOnEvent(tick=96, channel=0, data=[74, 0])\n",
      "midi.NoteOnEvent(tick=0, channel=0, data=[77, 100])\n",
      "midi.NoteOnEvent(tick=96, channel=0, data=[77, 0])\n",
      "midi.NoteOnEvent(tick=0, channel=0, data=[74, 100])\n",
      "midi.NoteOnEvent(tick=96, channel=0, data=[74, 0])\n",
      "midi.NoteOnEvent(tick=0, channel=0, data=[73, 100])\n",
      "midi.NoteOnEvent(tick=96, channel=0, data=[73, 0])\n",
      "midi.NoteOnEvent(tick=0, channel=0, data=[74, 100])\n",
      "midi.NoteOnEvent(tick=96, channel=0, data=[74, 0])\n",
      "midi.NoteOnEvent(tick=0, channel=0, data=[79, 100])\n",
      "midi.NoteOnEvent(tick=96, channel=0, data=[79, 0])\n",
      "midi.NoteOnEvent(tick=0, channel=0, data=[74, 100])\n",
      "midi.NoteOnEvent(tick=96, channel=0, data=[74, 0])\n",
      "midi.NoteOnEvent(tick=0, channel=0, data=[73, 100])\n",
      "midi.NoteOnEvent(tick=96, channel=0, data=[73, 0])\n",
      "midi.NoteOnEvent(tick=0, channel=0, data=[74, 100])\n",
      "midi.NoteOnEvent(tick=96, channel=0, data=[74, 0])\n",
      "midi.NoteOnEvent(tick=0, channel=0, data=[81, 100])\n",
      "midi.NoteOnEvent(tick=96, channel=0, data=[81, 0])\n",
      "midi.NoteOnEvent(tick=0, channel=0, data=[74, 100])\n",
      "midi.NoteOnEvent(tick=96, channel=0, data=[74, 0])\n",
      "midi.NoteOnEvent(tick=0, channel=0, data=[73, 100])\n",
      "midi.NoteOnEvent(tick=96, channel=0, data=[73, 0])\n",
      "midi.NoteOnEvent(tick=0, channel=0, data=[74, 100])\n",
      "midi.NoteOnEvent(tick=96, channel=0, data=[74, 0])\n",
      "midi.NoteOnEvent(tick=0, channel=0, data=[82, 100])\n",
      "midi.NoteOnEvent(tick=864, channel=0, data=[82, 0])\n",
      "midi.NoteOnEvent(tick=0, channel=0, data=[72, 100])\n",
      "midi.NoteOnEvent(tick=96, channel=0, data=[72, 0])\n",
      "midi.NoteOnEvent(tick=0, channel=0, data=[71, 100])\n",
      "midi.NoteOnEvent(tick=96, channel=0, data=[71, 0])\n",
      "midi.NoteOnEvent(tick=0, channel=0, data=[72, 100])\n",
      "midi.NoteOnEvent(tick=96, channel=0, data=[72, 0])\n",
      "midi.NoteOnEvent(tick=0, channel=0, data=[76, 100])\n",
      "midi.NoteOnEvent(tick=96, channel=0, data=[76, 0])\n",
      "midi.NoteOnEvent(tick=0, channel=0, data=[72, 100])\n",
      "midi.NoteOnEvent(tick=96, channel=0, data=[72, 0])\n",
      "midi.NoteOnEvent(tick=0, channel=0, data=[71, 100])\n",
      "midi.NoteOnEvent(tick=96, channel=0, data=[71, 0])\n",
      "midi.NoteOnEvent(tick=0, channel=0, data=[72, 100])\n",
      "midi.NoteOnEvent(tick=96, channel=0, data=[72, 0])\n",
      "midi.NoteOnEvent(tick=0, channel=0, data=[77, 100])\n",
      "midi.NoteOnEvent(tick=96, channel=0, data=[77, 0])\n",
      "midi.NoteOnEvent(tick=0, channel=0, data=[72, 100])\n",
      "midi.NoteOnEvent(tick=96, channel=0, data=[72, 0])\n",
      "midi.NoteOnEvent(tick=0, channel=0, data=[71, 100])\n",
      "midi.NoteOnEvent(tick=96, channel=0, data=[71, 0])\n",
      "midi.NoteOnEvent(tick=0, channel=0, data=[72, 100])\n",
      "midi.NoteOnEvent(tick=96, channel=0, data=[72, 0])\n",
      "midi.NoteOnEvent(tick=0, channel=0, data=[79, 100])\n",
      "midi.NoteOnEvent(tick=96, channel=0, data=[79, 0])\n",
      "midi.NoteOnEvent(tick=0, channel=0, data=[72, 100])\n",
      "midi.NoteOnEvent(tick=96, channel=0, data=[72, 0])\n",
      "midi.NoteOnEvent(tick=0, channel=0, data=[71, 100])\n",
      "midi.NoteOnEvent(tick=96, channel=0, data=[71, 0])\n",
      "midi.NoteOnEvent(tick=0, channel=0, data=[72, 100])\n",
      "midi.NoteOnEvent(tick=96, channel=0, data=[72, 0])\n",
      "midi.NoteOnEvent(tick=0, channel=0, data=[81, 100])\n",
      "midi.NoteOnEvent(tick=864, channel=0, data=[81, 0])\n",
      "midi.NoteOnEvent(tick=0, channel=0, data=[74, 100])\n",
      "midi.NoteOnEvent(tick=96, channel=0, data=[74, 0])\n",
      "midi.NoteOnEvent(tick=0, channel=0, data=[76, 100])\n",
      "midi.NoteOnEvent(tick=96, channel=0, data=[76, 0])\n",
      "midi.NoteOnEvent(tick=0, channel=0, data=[78, 100])\n",
      "midi.NoteOnEvent(tick=96, channel=0, data=[78, 0])\n",
      "midi.NoteOnEvent(tick=0, channel=0, data=[79, 100])\n",
      "midi.NoteOnEvent(tick=96, channel=0, data=[79, 0])\n",
      "midi.NoteOnEvent(tick=0, channel=0, data=[81, 100])\n",
      "midi.NoteOnEvent(tick=96, channel=0, data=[81, 0])\n",
      "midi.NoteOnEvent(tick=0, channel=0, data=[82, 100])\n",
      "midi.NoteOnEvent(tick=96, channel=0, data=[82, 0])\n",
      "midi.NoteOnEvent(tick=0, channel=0, data=[84, 100])\n",
      "midi.NoteOnEvent(tick=96, channel=0, data=[84, 0])\n",
      "midi.NoteOnEvent(tick=0, channel=0, data=[86, 100])\n",
      "midi.NoteOnEvent(tick=96, channel=0, data=[86, 0])\n",
      "midi.NoteOnEvent(tick=0, channel=0, data=[84, 100])\n",
      "midi.NoteOnEvent(tick=96, channel=0, data=[84, 0])\n",
      "midi.NoteOnEvent(tick=0, channel=0, data=[82, 100])\n",
      "midi.NoteOnEvent(tick=96, channel=0, data=[82, 0])\n",
      "midi.NoteOnEvent(tick=0, channel=0, data=[81, 100])\n",
      "midi.NoteOnEvent(tick=96, channel=0, data=[81, 0])\n",
      "midi.NoteOnEvent(tick=0, channel=0, data=[79, 100])\n",
      "midi.NoteOnEvent(tick=96, channel=0, data=[79, 0])\n",
      "midi.NoteOnEvent(tick=0, channel=0, data=[78, 100])\n",
      "midi.NoteOnEvent(tick=96, channel=0, data=[78, 0])\n",
      "midi.NoteOnEvent(tick=0, channel=0, data=[76, 100])\n",
      "midi.NoteOnEvent(tick=96, channel=0, data=[76, 0])\n",
      "midi.NoteOnEvent(tick=0, channel=0, data=[74, 100])\n",
      "midi.NoteOnEvent(tick=96, channel=0, data=[74, 0])\n",
      "midi.NoteOnEvent(tick=0, channel=0, data=[79, 100])\n",
      "midi.NoteOnEvent(tick=864, channel=0, data=[79, 0])\n",
      "midi.NoteOnEvent(tick=0, channel=0, data=[76, 100])\n",
      "midi.NoteOnEvent(tick=96, channel=0, data=[76, 0])\n",
      "midi.NoteOnEvent(tick=0, channel=0, data=[77, 100])\n",
      "midi.NoteOnEvent(tick=96, channel=0, data=[77, 0])\n",
      "midi.NoteOnEvent(tick=0, channel=0, data=[79, 100])\n",
      "midi.NoteOnEvent(tick=96, channel=0, data=[79, 0])\n",
      "midi.NoteOnEvent(tick=0, channel=0, data=[81, 100])\n",
      "midi.NoteOnEvent(tick=96, channel=0, data=[81, 0])\n",
      "midi.NoteOnEvent(tick=0, channel=0, data=[83, 100])\n",
      "midi.NoteOnEvent(tick=96, channel=0, data=[83, 0])\n",
      "midi.NoteOnEvent(tick=0, channel=0, data=[85, 100])\n",
      "midi.NoteOnEvent(tick=96, channel=0, data=[85, 0])\n",
      "midi.NoteOnEvent(tick=0, channel=0, data=[86, 100])\n",
      "midi.NoteOnEvent(tick=96, channel=0, data=[86, 0])\n",
      "midi.NoteOnEvent(tick=0, channel=0, data=[88, 100])\n",
      "midi.NoteOnEvent(tick=96, channel=0, data=[88, 0])\n",
      "midi.NoteOnEvent(tick=0, channel=0, data=[86, 100])\n",
      "midi.NoteOnEvent(tick=96, channel=0, data=[86, 0])\n",
      "midi.NoteOnEvent(tick=0, channel=0, data=[85, 100])\n",
      "midi.NoteOnEvent(tick=96, channel=0, data=[85, 0])\n",
      "midi.NoteOnEvent(tick=0, channel=0, data=[83, 100])\n",
      "midi.NoteOnEvent(tick=96, channel=0, data=[83, 0])\n",
      "midi.NoteOnEvent(tick=0, channel=0, data=[81, 100])\n",
      "midi.NoteOnEvent(tick=96, channel=0, data=[81, 0])\n",
      "midi.NoteOnEvent(tick=0, channel=0, data=[79, 100])\n",
      "midi.NoteOnEvent(tick=96, channel=0, data=[79, 0])\n",
      "midi.NoteOnEvent(tick=0, channel=0, data=[77, 100])\n",
      "midi.NoteOnEvent(tick=96, channel=0, data=[77, 0])\n",
      "midi.NoteOnEvent(tick=0, channel=0, data=[76, 100])\n",
      "midi.NoteOnEvent(tick=96, channel=0, data=[76, 0])\n",
      "midi.NoteOnEvent(tick=0, channel=0, data=[77, 100])\n",
      "midi.NoteOnEvent(tick=96, channel=0, data=[77, 0])\n",
      "midi.NoteOnEvent(tick=0, channel=0, data=[86, 100])\n",
      "midi.NoteOnEvent(tick=96, channel=0, data=[86, 0])\n",
      "midi.NoteOnEvent(tick=0, channel=0, data=[77, 100])\n",
      "midi.NoteOnEvent(tick=96, channel=0, data=[77, 0])\n",
      "midi.NoteOnEvent(tick=0, channel=0, data=[76, 100])\n",
      "midi.NoteOnEvent(tick=96, channel=0, data=[76, 0])\n",
      "midi.NoteOnEvent(tick=0, channel=0, data=[77, 100])\n",
      "midi.NoteOnEvent(tick=96, channel=0, data=[77, 0])\n",
      "midi.NoteOnEvent(tick=0, channel=0, data=[81, 100])\n",
      "midi.NoteOnEvent(tick=96, channel=0, data=[81, 0])\n",
      "midi.NoteOnEvent(tick=0, channel=0, data=[86, 100])\n",
      "midi.NoteOnEvent(tick=96, channel=0, data=[86, 0])\n",
      "midi.NoteOnEvent(tick=0, channel=0, data=[84, 100])\n",
      "midi.NoteOnEvent(tick=96, channel=0, data=[84, 0])\n",
      "midi.NoteOnEvent(tick=0, channel=0, data=[83, 100])\n",
      "midi.NoteOnEvent(tick=96, channel=0, data=[83, 0])\n",
      "midi.NoteOnEvent(tick=0, channel=0, data=[77, 100])\n",
      "midi.NoteOnEvent(tick=96, channel=0, data=[77, 0])\n",
      "midi.NoteOnEvent(tick=0, channel=0, data=[84, 100])\n",
      "midi.NoteOnEvent(tick=96, channel=0, data=[84, 0])\n",
      "midi.NoteOnEvent(tick=0, channel=0, data=[77, 100])\n",
      "midi.NoteOnEvent(tick=96, channel=0, data=[77, 0])\n",
      "midi.NoteOnEvent(tick=0, channel=0, data=[86, 100])\n",
      "midi.NoteOnEvent(tick=96, channel=0, data=[86, 0])\n",
      "midi.NoteOnEvent(tick=0, channel=0, data=[77, 100])\n",
      "midi.NoteOnEvent(tick=96, channel=0, data=[77, 0])\n",
      "midi.NoteOnEvent(tick=0, channel=0, data=[83, 100])\n",
      "midi.NoteOnEvent(tick=96, channel=0, data=[83, 0])\n",
      "midi.NoteOnEvent(tick=0, channel=0, data=[77, 100])\n",
      "midi.NoteOnEvent(tick=96, channel=0, data=[77, 0])\n",
      "midi.NoteOnEvent(tick=0, channel=0, data=[76, 100])\n",
      "midi.NoteOnEvent(tick=96, channel=0, data=[76, 0])\n",
      "midi.NoteOnEvent(tick=0, channel=0, data=[84, 100])\n",
      "midi.NoteOnEvent(tick=96, channel=0, data=[84, 0])\n",
      "midi.NoteOnEvent(tick=0, channel=0, data=[76, 100])\n",
      "midi.NoteOnEvent(tick=96, channel=0, data=[76, 0])\n",
      "midi.NoteOnEvent(tick=0, channel=0, data=[74, 100])\n",
      "midi.NoteOnEvent(tick=96, channel=0, data=[74, 0])\n",
      "midi.NoteOnEvent(tick=0, channel=0, data=[76, 100])\n",
      "midi.NoteOnEvent(tick=96, channel=0, data=[76, 0])\n",
      "midi.NoteOnEvent(tick=0, channel=0, data=[79, 100])\n",
      "midi.NoteOnEvent(tick=96, channel=0, data=[79, 0])\n",
      "midi.NoteOnEvent(tick=0, channel=0, data=[84, 100])\n",
      "midi.NoteOnEvent(tick=96, channel=0, data=[84, 0])\n",
      "midi.NoteOnEvent(tick=0, channel=0, data=[83, 100])\n",
      "midi.NoteOnEvent(tick=96, channel=0, data=[83, 0])\n",
      "midi.NoteOnEvent(tick=0, channel=0, data=[81, 100])\n",
      "midi.NoteOnEvent(tick=96, channel=0, data=[81, 0])\n",
      "midi.NoteOnEvent(tick=0, channel=0, data=[76, 100])\n",
      "midi.NoteOnEvent(tick=96, channel=0, data=[76, 0])\n",
      "midi.NoteOnEvent(tick=0, channel=0, data=[83, 100])\n",
      "midi.NoteOnEvent(tick=96, channel=0, data=[83, 0])\n",
      "midi.NoteOnEvent(tick=0, channel=0, data=[76, 100])\n",
      "midi.NoteOnEvent(tick=96, channel=0, data=[76, 0])\n",
      "midi.NoteOnEvent(tick=0, channel=0, data=[84, 100])\n",
      "midi.NoteOnEvent(tick=96, channel=0, data=[84, 0])\n",
      "midi.NoteOnEvent(tick=0, channel=0, data=[76, 100])\n",
      "midi.NoteOnEvent(tick=96, channel=0, data=[76, 0])\n",
      "midi.NoteOnEvent(tick=0, channel=0, data=[81, 100])\n",
      "midi.NoteOnEvent(tick=96, channel=0, data=[81, 0])\n",
      "midi.NoteOnEvent(tick=0, channel=0, data=[76, 100])\n",
      "midi.NoteOnEvent(tick=96, channel=0, data=[76, 0])\n",
      "midi.NoteOnEvent(tick=0, channel=0, data=[74, 100])\n",
      "midi.NoteOnEvent(tick=96, channel=0, data=[74, 0])\n",
      "midi.NoteOnEvent(tick=0, channel=0, data=[83, 100])\n",
      "midi.NoteOnEvent(tick=96, channel=0, data=[83, 0])\n",
      "midi.NoteOnEvent(tick=0, channel=0, data=[74, 100])\n",
      "midi.NoteOnEvent(tick=96, channel=0, data=[74, 0])\n",
      "midi.NoteOnEvent(tick=0, channel=0, data=[72, 100])\n",
      "midi.NoteOnEvent(tick=96, channel=0, data=[72, 0])\n",
      "midi.NoteOnEvent(tick=0, channel=0, data=[74, 100])\n",
      "midi.NoteOnEvent(tick=96, channel=0, data=[74, 0])\n",
      "midi.NoteOnEvent(tick=0, channel=0, data=[77, 100])\n",
      "midi.NoteOnEvent(tick=96, channel=0, data=[77, 0])\n",
      "midi.NoteOnEvent(tick=0, channel=0, data=[83, 100])\n",
      "midi.NoteOnEvent(tick=96, channel=0, data=[83, 0])\n",
      "midi.NoteOnEvent(tick=0, channel=0, data=[81, 100])\n",
      "midi.NoteOnEvent(tick=96, channel=0, data=[81, 0])\n",
      "midi.NoteOnEvent(tick=0, channel=0, data=[80, 100])\n",
      "midi.NoteOnEvent(tick=96, channel=0, data=[80, 0])\n",
      "midi.NoteOnEvent(tick=0, channel=0, data=[74, 100])\n",
      "midi.NoteOnEvent(tick=96, channel=0, data=[74, 0])\n",
      "midi.NoteOnEvent(tick=0, channel=0, data=[81, 100])\n",
      "midi.NoteOnEvent(tick=96, channel=0, data=[81, 0])\n",
      "midi.NoteOnEvent(tick=0, channel=0, data=[74, 100])\n",
      "midi.NoteOnEvent(tick=96, channel=0, data=[74, 0])\n",
      "midi.NoteOnEvent(tick=0, channel=0, data=[83, 100])\n",
      "midi.NoteOnEvent(tick=96, channel=0, data=[83, 0])\n",
      "midi.NoteOnEvent(tick=0, channel=0, data=[74, 100])\n",
      "midi.NoteOnEvent(tick=96, channel=0, data=[74, 0])\n",
      "midi.NoteOnEvent(tick=0, channel=0, data=[80, 100])\n",
      "midi.NoteOnEvent(tick=96, channel=0, data=[80, 0])\n",
      "midi.NoteOnEvent(tick=0, channel=0, data=[74, 100])\n",
      "midi.NoteOnEvent(tick=96, channel=0, data=[74, 0])\n",
      "midi.NoteOnEvent(tick=0, channel=0, data=[72, 100])\n",
      "midi.NoteOnEvent(tick=96, channel=0, data=[72, 0])\n",
      "midi.NoteOnEvent(tick=0, channel=0, data=[81, 100])\n",
      "midi.NoteOnEvent(tick=96, channel=0, data=[81, 0])\n",
      "midi.NoteOnEvent(tick=0, channel=0, data=[72, 100])\n",
      "midi.NoteOnEvent(tick=96, channel=0, data=[72, 0])\n",
      "midi.NoteOnEvent(tick=0, channel=0, data=[71, 100])\n",
      "midi.NoteOnEvent(tick=96, channel=0, data=[71, 0])\n",
      "midi.NoteOnEvent(tick=0, channel=0, data=[72, 100])\n",
      "midi.NoteOnEvent(tick=96, channel=0, data=[72, 0])\n",
      "midi.NoteOnEvent(tick=0, channel=0, data=[76, 100])\n",
      "midi.NoteOnEvent(tick=96, channel=0, data=[76, 0])\n",
      "midi.NoteOnEvent(tick=0, channel=0, data=[81, 100])\n",
      "midi.NoteOnEvent(tick=96, channel=0, data=[81, 0])\n",
      "midi.NoteOnEvent(tick=0, channel=0, data=[76, 100])\n",
      "midi.NoteOnEvent(tick=96, channel=0, data=[76, 0])\n",
      "midi.NoteOnEvent(tick=0, channel=0, data=[77, 100])\n",
      "midi.NoteOnEvent(tick=96, channel=0, data=[77, 0])\n",
      "midi.NoteOnEvent(tick=0, channel=0, data=[81, 100])\n",
      "midi.NoteOnEvent(tick=96, channel=0, data=[81, 0])\n",
      "midi.NoteOnEvent(tick=0, channel=0, data=[74, 100])\n",
      "midi.NoteOnEvent(tick=96, channel=0, data=[74, 0])\n",
      "midi.NoteOnEvent(tick=0, channel=0, data=[72, 100])\n",
      "midi.NoteOnEvent(tick=96, channel=0, data=[72, 0])\n",
      "midi.NoteOnEvent(tick=0, channel=0, data=[74, 100])\n",
      "midi.NoteOnEvent(tick=96, channel=0, data=[74, 0])\n",
      "midi.NoteOnEvent(tick=0, channel=0, data=[77, 100])\n",
      "midi.NoteOnEvent(tick=96, channel=0, data=[77, 0])\n",
      "midi.NoteOnEvent(tick=0, channel=0, data=[81, 100])\n",
      "midi.NoteOnEvent(tick=96, channel=0, data=[81, 0])\n",
      "midi.NoteOnEvent(tick=0, channel=0, data=[71, 100])\n",
      "midi.NoteOnEvent(tick=96, channel=0, data=[71, 0])\n",
      "midi.NoteOnEvent(tick=0, channel=0, data=[72, 100])\n",
      "midi.NoteOnEvent(tick=192, channel=0, data=[72, 0])\n",
      "midi.NoteOnEvent(tick=0, channel=0, data=[81, 100])\n",
      "midi.NoteOnEvent(tick=192, channel=0, data=[81, 0])\n",
      "midi.NoteOnEvent(tick=0, channel=0, data=[71, 100])\n",
      "midi.NoteOnEvent(tick=192, channel=0, data=[71, 0])\n",
      "midi.NoteOnEvent(tick=0, channel=0, data=[80, 100])\n",
      "midi.NoteOnEvent(tick=192, channel=0, data=[80, 0])\n",
      "midi.NoteOnEvent(tick=0, channel=0, data=[81, 100])\n",
      "midi.NoteOnEvent(tick=384, channel=0, data=[81, 0])\n",
      "midi.NoteOnEvent(tick=96, channel=0, data=[57, 100])\n",
      "midi.NoteOnEvent(tick=96, channel=0, data=[57, 0])\n",
      "midi.NoteOnEvent(tick=0, channel=0, data=[56, 100])\n",
      "midi.NoteOnEvent(tick=96, channel=0, data=[56, 0])\n",
      "midi.NoteOnEvent(tick=0, channel=0, data=[57, 100])\n",
      "midi.NoteOnEvent(tick=96, channel=0, data=[57, 0])\n",
      "midi.NoteOnEvent(tick=0, channel=0, data=[60, 100])\n",
      "midi.NoteOnEvent(tick=96, channel=0, data=[60, 0])\n",
      "midi.NoteOnEvent(tick=0, channel=0, data=[57, 100])\n",
      "midi.NoteOnEvent(tick=96, channel=0, data=[57, 0])\n",
      "midi.NoteOnEvent(tick=0, channel=0, data=[56, 100])\n",
      "midi.NoteOnEvent(tick=96, channel=0, data=[56, 0])\n",
      "midi.NoteOnEvent(tick=0, channel=0, data=[57, 100])\n",
      "midi.NoteOnEvent(tick=96, channel=0, data=[57, 0])\n",
      "midi.NoteOnEvent(tick=0, channel=0, data=[61, 100])\n",
      "midi.NoteOnEvent(tick=96, channel=0, data=[61, 0])\n",
      "midi.NoteOnEvent(tick=0, channel=0, data=[57, 100])\n",
      "midi.NoteOnEvent(tick=96, channel=0, data=[57, 0])\n",
      "midi.NoteOnEvent(tick=0, channel=0, data=[56, 100])\n",
      "midi.NoteOnEvent(tick=96, channel=0, data=[56, 0])\n",
      "midi.NoteOnEvent(tick=0, channel=0, data=[57, 100])\n",
      "midi.NoteOnEvent(tick=96, channel=0, data=[57, 0])\n",
      "midi.NoteOnEvent(tick=0, channel=0, data=[62, 100])\n",
      "midi.NoteOnEvent(tick=96, channel=0, data=[62, 0])\n",
      "midi.NoteOnEvent(tick=0, channel=0, data=[57, 100])\n",
      "midi.NoteOnEvent(tick=96, channel=0, data=[57, 0])\n",
      "midi.NoteOnEvent(tick=0, channel=0, data=[56, 100])\n",
      "midi.NoteOnEvent(tick=96, channel=0, data=[56, 0])\n",
      "midi.NoteOnEvent(tick=0, channel=0, data=[57, 100])\n",
      "midi.NoteOnEvent(tick=96, channel=0, data=[57, 0])\n",
      "midi.NoteOnEvent(tick=0, channel=0, data=[64, 100])\n",
      "midi.NoteOnEvent(tick=96, channel=0, data=[64, 0])\n",
      "midi.NoteOnEvent(tick=0, channel=0, data=[57, 100])\n",
      "midi.NoteOnEvent(tick=96, channel=0, data=[57, 0])\n",
      "midi.NoteOnEvent(tick=0, channel=0, data=[56, 100])\n",
      "midi.NoteOnEvent(tick=96, channel=0, data=[56, 0])\n",
      "midi.NoteOnEvent(tick=0, channel=0, data=[57, 100])\n",
      "midi.NoteOnEvent(tick=96, channel=0, data=[57, 0])\n",
      "midi.NoteOnEvent(tick=0, channel=0, data=[65, 100])\n",
      "midi.NoteOnEvent(tick=96, channel=0, data=[65, 0])\n",
      "midi.NoteOnEvent(tick=0, channel=0, data=[62, 100])\n",
      "midi.NoteOnEvent(tick=96, channel=0, data=[62, 0])\n",
      "midi.NoteOnEvent(tick=0, channel=0, data=[61, 100])\n",
      "midi.NoteOnEvent(tick=96, channel=0, data=[61, 0])\n",
      "midi.NoteOnEvent(tick=0, channel=0, data=[62, 100])\n",
      "midi.NoteOnEvent(tick=96, channel=0, data=[62, 0])\n",
      "midi.NoteOnEvent(tick=0, channel=0, data=[66, 100])\n",
      "midi.NoteOnEvent(tick=96, channel=0, data=[66, 0])\n",
      "midi.NoteOnEvent(tick=0, channel=0, data=[62, 100])\n",
      "midi.NoteOnEvent(tick=96, channel=0, data=[62, 0])\n",
      "midi.NoteOnEvent(tick=0, channel=0, data=[61, 100])\n",
      "midi.NoteOnEvent(tick=96, channel=0, data=[61, 0])\n",
      "midi.NoteOnEvent(tick=0, channel=0, data=[62, 100])\n",
      "midi.NoteOnEvent(tick=96, channel=0, data=[62, 0])\n",
      "midi.NoteOnEvent(tick=0, channel=0, data=[67, 100])\n",
      "midi.NoteOnEvent(tick=96, channel=0, data=[67, 0])\n",
      "midi.NoteOnEvent(tick=0, channel=0, data=[62, 100])\n",
      "midi.NoteOnEvent(tick=96, channel=0, data=[62, 0])\n",
      "midi.NoteOnEvent(tick=0, channel=0, data=[61, 100])\n",
      "midi.NoteOnEvent(tick=96, channel=0, data=[61, 0])\n",
      "midi.NoteOnEvent(tick=0, channel=0, data=[62, 100])\n",
      "midi.NoteOnEvent(tick=96, channel=0, data=[62, 0])\n",
      "midi.NoteOnEvent(tick=0, channel=0, data=[69, 100])\n",
      "midi.NoteOnEvent(tick=96, channel=0, data=[69, 0])\n",
      "midi.NoteOnEvent(tick=0, channel=0, data=[62, 100])\n",
      "midi.NoteOnEvent(tick=96, channel=0, data=[62, 0])\n",
      "midi.NoteOnEvent(tick=0, channel=0, data=[61, 100])\n",
      "midi.NoteOnEvent(tick=96, channel=0, data=[61, 0])\n",
      "midi.NoteOnEvent(tick=0, channel=0, data=[62, 100])\n",
      "midi.NoteOnEvent(tick=96, channel=0, data=[62, 0])\n",
      "midi.NoteOnEvent(tick=0, channel=0, data=[70, 100])\n",
      "midi.NoteOnEvent(tick=96, channel=0, data=[70, 0])\n",
      "midi.NoteOnEvent(tick=0, channel=0, data=[67, 100])\n",
      "midi.NoteOnEvent(tick=96, channel=0, data=[67, 0])\n",
      "midi.NoteOnEvent(tick=0, channel=0, data=[66, 100])\n",
      "midi.NoteOnEvent(tick=96, channel=0, data=[66, 0])\n",
      "midi.NoteOnEvent(tick=0, channel=0, data=[67, 100])\n",
      "midi.NoteOnEvent(tick=96, channel=0, data=[67, 0])\n",
      "midi.NoteOnEvent(tick=0, channel=0, data=[71, 100])\n",
      "midi.NoteOnEvent(tick=96, channel=0, data=[71, 0])\n",
      "midi.NoteOnEvent(tick=0, channel=0, data=[67, 100])\n",
      "midi.NoteOnEvent(tick=96, channel=0, data=[67, 0])\n",
      "midi.NoteOnEvent(tick=0, channel=0, data=[66, 100])\n",
      "midi.NoteOnEvent(tick=96, channel=0, data=[66, 0])\n",
      "midi.NoteOnEvent(tick=0, channel=0, data=[67, 100])\n",
      "midi.NoteOnEvent(tick=96, channel=0, data=[67, 0])\n",
      "midi.NoteOnEvent(tick=0, channel=0, data=[72, 100])\n",
      "midi.NoteOnEvent(tick=96, channel=0, data=[72, 0])\n",
      "midi.NoteOnEvent(tick=0, channel=0, data=[67, 100])\n",
      "midi.NoteOnEvent(tick=96, channel=0, data=[67, 0])\n",
      "midi.NoteOnEvent(tick=0, channel=0, data=[66, 100])\n",
      "midi.NoteOnEvent(tick=96, channel=0, data=[66, 0])\n",
      "midi.NoteOnEvent(tick=0, channel=0, data=[67, 100])\n",
      "midi.NoteOnEvent(tick=96, channel=0, data=[67, 0])\n",
      "midi.NoteOnEvent(tick=0, channel=0, data=[74, 100])\n",
      "midi.NoteOnEvent(tick=96, channel=0, data=[74, 0])\n",
      "midi.NoteOnEvent(tick=0, channel=0, data=[67, 100])\n",
      "midi.NoteOnEvent(tick=96, channel=0, data=[67, 0])\n",
      "midi.NoteOnEvent(tick=0, channel=0, data=[66, 100])\n",
      "midi.NoteOnEvent(tick=96, channel=0, data=[66, 0])\n",
      "midi.NoteOnEvent(tick=0, channel=0, data=[67, 100])\n",
      "midi.NoteOnEvent(tick=96, channel=0, data=[67, 0])\n",
      "midi.NoteOnEvent(tick=0, channel=0, data=[75, 100])\n",
      "midi.NoteOnEvent(tick=96, channel=0, data=[75, 0])\n",
      "midi.NoteOnEvent(tick=0, channel=0, data=[72, 100])\n",
      "midi.NoteOnEvent(tick=96, channel=0, data=[72, 0])\n",
      "midi.NoteOnEvent(tick=0, channel=0, data=[71, 100])\n",
      "midi.NoteOnEvent(tick=96, channel=0, data=[71, 0])\n",
      "midi.NoteOnEvent(tick=0, channel=0, data=[72, 100])\n",
      "midi.NoteOnEvent(tick=96, channel=0, data=[72, 0])\n",
      "midi.NoteOnEvent(tick=0, channel=0, data=[76, 100])\n",
      "midi.NoteOnEvent(tick=96, channel=0, data=[76, 0])\n",
      "midi.NoteOnEvent(tick=0, channel=0, data=[72, 100])\n",
      "midi.NoteOnEvent(tick=96, channel=0, data=[72, 0])\n",
      "midi.NoteOnEvent(tick=0, channel=0, data=[71, 100])\n",
      "midi.NoteOnEvent(tick=96, channel=0, data=[71, 0])\n",
      "midi.NoteOnEvent(tick=0, channel=0, data=[72, 100])\n",
      "midi.NoteOnEvent(tick=96, channel=0, data=[72, 0])\n",
      "midi.NoteOnEvent(tick=0, channel=0, data=[77, 100])\n",
      "midi.NoteOnEvent(tick=96, channel=0, data=[77, 0])\n",
      "midi.NoteOnEvent(tick=0, channel=0, data=[72, 100])\n",
      "midi.NoteOnEvent(tick=96, channel=0, data=[72, 0])\n",
      "midi.NoteOnEvent(tick=0, channel=0, data=[71, 100])\n",
      "midi.NoteOnEvent(tick=96, channel=0, data=[71, 0])\n",
      "midi.NoteOnEvent(tick=0, channel=0, data=[72, 100])\n",
      "midi.NoteOnEvent(tick=96, channel=0, data=[72, 0])\n",
      "midi.NoteOnEvent(tick=0, channel=0, data=[79, 100])\n",
      "midi.NoteOnEvent(tick=96, channel=0, data=[79, 0])\n",
      "midi.NoteOnEvent(tick=0, channel=0, data=[72, 100])\n",
      "midi.NoteOnEvent(tick=96, channel=0, data=[72, 0])\n",
      "midi.NoteOnEvent(tick=0, channel=0, data=[71, 100])\n",
      "midi.NoteOnEvent(tick=96, channel=0, data=[71, 0])\n",
      "midi.NoteOnEvent(tick=0, channel=0, data=[72, 100])\n",
      "midi.NoteOnEvent(tick=96, channel=0, data=[72, 0])\n",
      "midi.NoteOnEvent(tick=0, channel=0, data=[80, 100])\n",
      "midi.NoteOnEvent(tick=48, channel=0, data=[80, 0])\n",
      "midi.NoteOnEvent(tick=0, channel=0, data=[82, 100])\n",
      "midi.NoteOnEvent(tick=48, channel=0, data=[82, 0])\n",
      "midi.NoteOnEvent(tick=0, channel=0, data=[84, 100])\n",
      "midi.NoteOnEvent(tick=192, channel=0, data=[84, 0])\n",
      "midi.NoteOnEvent(tick=0, channel=0, data=[80, 100])\n",
      "midi.NoteOnEvent(tick=96, channel=0, data=[80, 0])\n",
      "midi.NoteOnEvent(tick=0, channel=0, data=[78, 100])\n",
      "midi.NoteOnEvent(tick=48, channel=0, data=[78, 0])\n",
      "midi.NoteOnEvent(tick=0, channel=0, data=[79, 100])\n",
      "midi.NoteOnEvent(tick=48, channel=0, data=[79, 0])\n"
     ]
    },
    {
     "name": "stdout",
     "output_type": "stream",
     "text": [
      "midi.NoteOnEvent(tick=0, channel=0, data=[81, 100])\n",
      "midi.NoteOnEvent(tick=192, channel=0, data=[81, 0])\n",
      "midi.NoteOnEvent(tick=0, channel=0, data=[78, 100])\n",
      "midi.NoteOnEvent(tick=96, channel=0, data=[78, 0])\n",
      "midi.NoteOnEvent(tick=0, channel=0, data=[79, 100])\n",
      "midi.NoteOnEvent(tick=96, channel=0, data=[79, 0])\n",
      "midi.NoteOnEvent(tick=0, channel=0, data=[74, 100])\n",
      "midi.NoteOnEvent(tick=96, channel=0, data=[74, 0])\n",
      "midi.NoteOnEvent(tick=0, channel=0, data=[70, 100])\n",
      "midi.NoteOnEvent(tick=96, channel=0, data=[70, 0])\n",
      "midi.NoteOnEvent(tick=0, channel=0, data=[67, 100])\n",
      "midi.NoteOnEvent(tick=96, channel=0, data=[67, 0])\n",
      "midi.NoteOnEvent(tick=0, channel=0, data=[66, 100])\n",
      "midi.NoteOnEvent(tick=96, channel=0, data=[66, 0])\n",
      "midi.NoteOnEvent(tick=0, channel=0, data=[67, 100])\n",
      "midi.NoteOnEvent(tick=96, channel=0, data=[67, 0])\n",
      "midi.NoteOnEvent(tick=0, channel=0, data=[70, 100])\n",
      "midi.NoteOnEvent(tick=96, channel=0, data=[70, 0])\n",
      "midi.NoteOnEvent(tick=0, channel=0, data=[74, 100])\n",
      "midi.NoteOnEvent(tick=96, channel=0, data=[74, 0])\n",
      "midi.NoteOnEvent(tick=0, channel=0, data=[75, 100])\n",
      "midi.NoteOnEvent(tick=48, channel=0, data=[75, 0])\n",
      "midi.NoteOnEvent(tick=0, channel=0, data=[77, 100])\n",
      "midi.NoteOnEvent(tick=48, channel=0, data=[77, 0])\n",
      "midi.NoteOnEvent(tick=0, channel=0, data=[79, 100])\n",
      "midi.NoteOnEvent(tick=192, channel=0, data=[79, 0])\n",
      "midi.NoteOnEvent(tick=0, channel=0, data=[75, 100])\n",
      "midi.NoteOnEvent(tick=96, channel=0, data=[75, 0])\n",
      "midi.NoteOnEvent(tick=0, channel=0, data=[73, 100])\n",
      "midi.NoteOnEvent(tick=48, channel=0, data=[73, 0])\n",
      "midi.NoteOnEvent(tick=0, channel=0, data=[74, 100])\n",
      "midi.NoteOnEvent(tick=48, channel=0, data=[74, 0])\n",
      "midi.NoteOnEvent(tick=0, channel=0, data=[76, 100])\n",
      "midi.NoteOnEvent(tick=192, channel=0, data=[76, 0])\n",
      "midi.NoteOnEvent(tick=0, channel=0, data=[73, 100])\n",
      "midi.NoteOnEvent(tick=96, channel=0, data=[73, 0])\n",
      "midi.NoteOnEvent(tick=0, channel=0, data=[74, 100])\n",
      "midi.NoteOnEvent(tick=96, channel=0, data=[74, 0])\n",
      "midi.NoteOnEvent(tick=0, channel=0, data=[69, 100])\n",
      "midi.NoteOnEvent(tick=96, channel=0, data=[69, 0])\n",
      "midi.NoteOnEvent(tick=0, channel=0, data=[65, 100])\n",
      "midi.NoteOnEvent(tick=96, channel=0, data=[65, 0])\n",
      "midi.NoteOnEvent(tick=0, channel=0, data=[62, 100])\n",
      "midi.NoteOnEvent(tick=96, channel=0, data=[62, 0])\n",
      "midi.NoteOnEvent(tick=0, channel=0, data=[61, 100])\n",
      "midi.NoteOnEvent(tick=96, channel=0, data=[61, 0])\n",
      "midi.NoteOnEvent(tick=0, channel=0, data=[62, 100])\n",
      "midi.NoteOnEvent(tick=96, channel=0, data=[62, 0])\n",
      "midi.NoteOnEvent(tick=0, channel=0, data=[65, 100])\n",
      "midi.NoteOnEvent(tick=96, channel=0, data=[65, 0])\n",
      "midi.NoteOnEvent(tick=0, channel=0, data=[69, 100])\n",
      "midi.NoteOnEvent(tick=96, channel=0, data=[69, 0])\n",
      "midi.NoteOnEvent(tick=0, channel=0, data=[70, 100])\n",
      "midi.NoteOnEvent(tick=48, channel=0, data=[70, 0])\n",
      "midi.NoteOnEvent(tick=0, channel=0, data=[72, 100])\n",
      "midi.NoteOnEvent(tick=48, channel=0, data=[72, 0])\n",
      "midi.NoteOnEvent(tick=0, channel=0, data=[74, 100])\n",
      "midi.NoteOnEvent(tick=192, channel=0, data=[74, 0])\n",
      "midi.NoteOnEvent(tick=0, channel=0, data=[70, 100])\n",
      "midi.NoteOnEvent(tick=96, channel=0, data=[70, 0])\n",
      "midi.NoteOnEvent(tick=0, channel=0, data=[68, 100])\n",
      "midi.NoteOnEvent(tick=48, channel=0, data=[68, 0])\n",
      "midi.NoteOnEvent(tick=0, channel=0, data=[69, 100])\n",
      "midi.NoteOnEvent(tick=48, channel=0, data=[69, 0])\n",
      "midi.NoteOnEvent(tick=0, channel=0, data=[71, 100])\n",
      "midi.NoteOnEvent(tick=192, channel=0, data=[71, 0])\n",
      "midi.NoteOnEvent(tick=0, channel=0, data=[68, 100])\n",
      "midi.NoteOnEvent(tick=96, channel=0, data=[68, 0])\n",
      "midi.NoteOnEvent(tick=0, channel=0, data=[69, 100])\n",
      "midi.NoteOnEvent(tick=96, channel=0, data=[69, 0])\n",
      "midi.NoteOnEvent(tick=0, channel=0, data=[64, 100])\n",
      "midi.NoteOnEvent(tick=96, channel=0, data=[64, 0])\n",
      "midi.NoteOnEvent(tick=0, channel=0, data=[66, 100])\n",
      "midi.NoteOnEvent(tick=96, channel=0, data=[66, 0])\n",
      "midi.NoteOnEvent(tick=0, channel=0, data=[68, 100])\n",
      "midi.NoteOnEvent(tick=96, channel=0, data=[68, 0])\n",
      "midi.NoteOnEvent(tick=0, channel=0, data=[69, 100])\n",
      "midi.NoteOnEvent(tick=96, channel=0, data=[69, 0])\n",
      "midi.NoteOnEvent(tick=0, channel=0, data=[64, 100])\n",
      "midi.NoteOnEvent(tick=96, channel=0, data=[64, 0])\n",
      "midi.NoteOnEvent(tick=0, channel=0, data=[71, 100])\n",
      "midi.NoteOnEvent(tick=96, channel=0, data=[71, 0])\n",
      "midi.NoteOnEvent(tick=0, channel=0, data=[64, 100])\n",
      "midi.NoteOnEvent(tick=96, channel=0, data=[64, 0])\n",
      "midi.NoteOnEvent(tick=0, channel=0, data=[72, 100])\n",
      "midi.NoteOnEvent(tick=96, channel=0, data=[72, 0])\n",
      "midi.NoteOnEvent(tick=0, channel=0, data=[68, 100])\n",
      "midi.NoteOnEvent(tick=96, channel=0, data=[68, 0])\n",
      "midi.NoteOnEvent(tick=0, channel=0, data=[69, 100])\n",
      "midi.NoteOnEvent(tick=96, channel=0, data=[69, 0])\n",
      "midi.NoteOnEvent(tick=0, channel=0, data=[71, 100])\n",
      "midi.NoteOnEvent(tick=96, channel=0, data=[71, 0])\n",
      "midi.NoteOnEvent(tick=0, channel=0, data=[72, 100])\n",
      "midi.NoteOnEvent(tick=96, channel=0, data=[72, 0])\n",
      "midi.NoteOnEvent(tick=0, channel=0, data=[69, 100])\n",
      "midi.NoteOnEvent(tick=96, channel=0, data=[69, 0])\n",
      "midi.NoteOnEvent(tick=0, channel=0, data=[74, 100])\n",
      "midi.NoteOnEvent(tick=96, channel=0, data=[74, 0])\n",
      "midi.NoteOnEvent(tick=0, channel=0, data=[69, 100])\n",
      "midi.NoteOnEvent(tick=96, channel=0, data=[69, 0])\n",
      "midi.NoteOnEvent(tick=0, channel=0, data=[68, 100])\n",
      "midi.NoteOnEvent(tick=96, channel=0, data=[68, 0])\n",
      "midi.NoteOnEvent(tick=0, channel=0, data=[64, 100])\n",
      "midi.NoteOnEvent(tick=96, channel=0, data=[64, 0])\n",
      "midi.NoteOnEvent(tick=0, channel=0, data=[68, 100])\n",
      "midi.NoteOnEvent(tick=96, channel=0, data=[68, 0])\n",
      "midi.NoteOnEvent(tick=0, channel=0, data=[71, 100])\n",
      "midi.NoteOnEvent(tick=96, channel=0, data=[71, 0])\n",
      "midi.NoteOnEvent(tick=0, channel=0, data=[76, 100])\n",
      "midi.NoteOnEvent(tick=480, channel=0, data=[76, 0])\n",
      "midi.NoteOnEvent(tick=0, channel=0, data=[69, 100])\n",
      "midi.NoteOnEvent(tick=96, channel=0, data=[69, 0])\n",
      "midi.NoteOnEvent(tick=0, channel=0, data=[72, 100])\n",
      "midi.NoteOnEvent(tick=96, channel=0, data=[72, 0])\n",
      "midi.NoteOnEvent(tick=0, channel=0, data=[76, 100])\n",
      "midi.NoteOnEvent(tick=96, channel=0, data=[76, 0])\n",
      "midi.NoteOnEvent(tick=0, channel=0, data=[81, 100])\n",
      "midi.NoteOnEvent(tick=480, channel=0, data=[81, 0])\n",
      "midi.NoteOnEvent(tick=0, channel=0, data=[69, 100])\n",
      "midi.NoteOnEvent(tick=96, channel=0, data=[69, 0])\n",
      "midi.NoteOnEvent(tick=0, channel=0, data=[74, 100])\n",
      "midi.NoteOnEvent(tick=96, channel=0, data=[74, 0])\n",
      "midi.NoteOnEvent(tick=0, channel=0, data=[77, 100])\n",
      "midi.NoteOnEvent(tick=96, channel=0, data=[77, 0])\n",
      "midi.NoteOnEvent(tick=0, channel=0, data=[81, 100])\n",
      "midi.NoteOnEvent(tick=576, channel=0, data=[81, 0])\n",
      "midi.NoteOnEvent(tick=0, channel=0, data=[69, 100])\n",
      "midi.NoteOnEvent(tick=192, channel=0, data=[69, 0])\n",
      "midi.NoteOnEvent(tick=0, channel=0, data=[64, 100])\n",
      "midi.NoteOnEvent(tick=192, channel=0, data=[64, 0])\n",
      "midi.NoteOnEvent(tick=0, channel=0, data=[68, 100])\n",
      "midi.NoteOnEvent(tick=192, channel=0, data=[68, 0])\n",
      "midi.NoteOnEvent(tick=0, channel=0, data=[57, 100])\n",
      "midi.NoteOnEvent(tick=192, channel=0, data=[57, 0])\n",
      "midi.NoteOnEvent(tick=0, channel=0, data=[69, 100])\n",
      "midi.NoteOnEvent(tick=192, channel=0, data=[69, 0])\n",
      "midi.NoteOnEvent(tick=0, channel=0, data=[76, 100])\n",
      "midi.NoteOnEvent(tick=576, channel=0, data=[76, 0])\n",
      "midi.NoteOnEvent(tick=0, channel=0, data=[74, 100])\n",
      "midi.NoteOnEvent(tick=96, channel=0, data=[74, 0])\n",
      "midi.NoteOnEvent(tick=0, channel=0, data=[73, 100])\n",
      "midi.NoteOnEvent(tick=96, channel=0, data=[73, 0])\n",
      "midi.NoteOnEvent(tick=0, channel=0, data=[74, 100])\n",
      "midi.NoteOnEvent(tick=192, channel=0, data=[74, 0])\n",
      "midi.NoteOnEvent(tick=0, channel=0, data=[77, 100])\n",
      "midi.NoteOnEvent(tick=384, channel=0, data=[77, 0])\n",
      "midi.NoteOnEvent(tick=0, channel=0, data=[71, 100])\n",
      "midi.NoteOnEvent(tick=96, channel=0, data=[71, 0])\n",
      "midi.NoteOnEvent(tick=0, channel=0, data=[72, 100])\n",
      "midi.NoteOnEvent(tick=96, channel=0, data=[72, 0])\n",
      "midi.NoteOnEvent(tick=0, channel=0, data=[74, 100])\n",
      "midi.NoteOnEvent(tick=96, channel=0, data=[74, 0])\n",
      "midi.NoteOnEvent(tick=0, channel=0, data=[71, 100])\n",
      "midi.NoteOnEvent(tick=96, channel=0, data=[71, 0])\n",
      "midi.NoteOnEvent(tick=0, channel=0, data=[72, 100])\n",
      "midi.NoteOnEvent(tick=96, channel=0, data=[72, 0])\n",
      "midi.NoteOnEvent(tick=0, channel=0, data=[69, 100])\n",
      "midi.NoteOnEvent(tick=96, channel=0, data=[69, 0])\n",
      "midi.NoteOnEvent(tick=0, channel=0, data=[71, 100])\n",
      "midi.NoteOnEvent(tick=96, channel=0, data=[71, 0])\n",
      "midi.NoteOnEvent(tick=0, channel=0, data=[67, 100])\n",
      "midi.NoteOnEvent(tick=96, channel=0, data=[67, 0])\n",
      "midi.NoteOnEvent(tick=0, channel=0, data=[66, 100])\n",
      "midi.NoteOnEvent(tick=96, channel=0, data=[66, 0])\n",
      "midi.NoteOnEvent(tick=0, channel=0, data=[67, 100])\n",
      "midi.NoteOnEvent(tick=96, channel=0, data=[67, 0])\n",
      "midi.NoteOnEvent(tick=0, channel=0, data=[71, 100])\n",
      "midi.NoteOnEvent(tick=96, channel=0, data=[71, 0])\n",
      "midi.NoteOnEvent(tick=0, channel=0, data=[67, 100])\n",
      "midi.NoteOnEvent(tick=96, channel=0, data=[67, 0])\n",
      "midi.NoteOnEvent(tick=0, channel=0, data=[74, 100])\n",
      "midi.NoteOnEvent(tick=96, channel=0, data=[74, 0])\n",
      "midi.NoteOnEvent(tick=0, channel=0, data=[71, 100])\n",
      "midi.NoteOnEvent(tick=96, channel=0, data=[71, 0])\n",
      "midi.NoteOnEvent(tick=0, channel=0, data=[79, 100])\n",
      "midi.NoteOnEvent(tick=192, channel=0, data=[79, 0])\n",
      "midi.NoteOnEvent(tick=0, channel=0, data=[67, 100])\n",
      "midi.NoteOnEvent(tick=192, channel=0, data=[67, 0])\n",
      "midi.NoteOnEvent(tick=0, channel=0, data=[74, 100])\n",
      "midi.NoteOnEvent(tick=576, channel=0, data=[74, 0])\n",
      "midi.NoteOnEvent(tick=0, channel=0, data=[72, 100])\n",
      "midi.NoteOnEvent(tick=96, channel=0, data=[72, 0])\n",
      "midi.NoteOnEvent(tick=0, channel=0, data=[71, 100])\n",
      "midi.NoteOnEvent(tick=96, channel=0, data=[71, 0])\n",
      "midi.NoteOnEvent(tick=0, channel=0, data=[72, 100])\n",
      "midi.NoteOnEvent(tick=192, channel=0, data=[72, 0])\n",
      "midi.NoteOnEvent(tick=0, channel=0, data=[76, 100])\n",
      "midi.NoteOnEvent(tick=384, channel=0, data=[76, 0])\n",
      "midi.NoteOnEvent(tick=0, channel=0, data=[69, 100])\n",
      "midi.NoteOnEvent(tick=96, channel=0, data=[69, 0])\n",
      "midi.NoteOnEvent(tick=0, channel=0, data=[71, 100])\n",
      "midi.NoteOnEvent(tick=96, channel=0, data=[71, 0])\n",
      "midi.NoteOnEvent(tick=0, channel=0, data=[72, 100])\n",
      "midi.NoteOnEvent(tick=96, channel=0, data=[72, 0])\n",
      "midi.NoteOnEvent(tick=0, channel=0, data=[69, 100])\n",
      "midi.NoteOnEvent(tick=96, channel=0, data=[69, 0])\n",
      "midi.NoteOnEvent(tick=0, channel=0, data=[71, 100])\n",
      "midi.NoteOnEvent(tick=96, channel=0, data=[71, 0])\n",
      "midi.NoteOnEvent(tick=0, channel=0, data=[68, 100])\n",
      "midi.NoteOnEvent(tick=96, channel=0, data=[68, 0])\n",
      "midi.NoteOnEvent(tick=0, channel=0, data=[69, 100])\n",
      "midi.NoteOnEvent(tick=96, channel=0, data=[69, 0])\n",
      "midi.NoteOnEvent(tick=0, channel=0, data=[65, 100])\n",
      "midi.NoteOnEvent(tick=96, channel=0, data=[65, 0])\n",
      "midi.NoteOnEvent(tick=0, channel=0, data=[64, 100])\n",
      "midi.NoteOnEvent(tick=96, channel=0, data=[64, 0])\n",
      "midi.NoteOnEvent(tick=0, channel=0, data=[65, 100])\n",
      "midi.NoteOnEvent(tick=96, channel=0, data=[65, 0])\n",
      "midi.NoteOnEvent(tick=0, channel=0, data=[69, 100])\n",
      "midi.NoteOnEvent(tick=96, channel=0, data=[69, 0])\n",
      "midi.NoteOnEvent(tick=0, channel=0, data=[65, 100])\n",
      "midi.NoteOnEvent(tick=96, channel=0, data=[65, 0])\n",
      "midi.NoteOnEvent(tick=0, channel=0, data=[72, 100])\n",
      "midi.NoteOnEvent(tick=96, channel=0, data=[72, 0])\n",
      "midi.NoteOnEvent(tick=0, channel=0, data=[65, 100])\n",
      "midi.NoteOnEvent(tick=96, channel=0, data=[65, 0])\n",
      "midi.NoteOnEvent(tick=0, channel=0, data=[77, 100])\n",
      "midi.NoteOnEvent(tick=192, channel=0, data=[77, 0])\n",
      "midi.NoteOnEvent(tick=0, channel=0, data=[65, 100])\n",
      "midi.NoteOnEvent(tick=192, channel=0, data=[65, 0])\n",
      "midi.NoteOnEvent(tick=0, channel=0, data=[72, 100])\n",
      "midi.NoteOnEvent(tick=576, channel=0, data=[72, 0])\n",
      "midi.NoteOnEvent(tick=0, channel=0, data=[71, 100])\n",
      "midi.NoteOnEvent(tick=96, channel=0, data=[71, 0])\n",
      "midi.NoteOnEvent(tick=0, channel=0, data=[72, 100])\n",
      "midi.NoteOnEvent(tick=96, channel=0, data=[72, 0])\n",
      "midi.NoteOnEvent(tick=0, channel=0, data=[74, 100])\n",
      "midi.NoteOnEvent(tick=192, channel=0, data=[74, 0])\n",
      "midi.NoteOnEvent(tick=0, channel=0, data=[65, 100])\n",
      "midi.NoteOnEvent(tick=192, channel=0, data=[65, 0])\n",
      "midi.NoteOnEvent(tick=0, channel=0, data=[64, 100])\n",
      "midi.NoteOnEvent(tick=192, channel=0, data=[64, 0])\n",
      "midi.NoteOnEvent(tick=0, channel=0, data=[74, 100])\n",
      "midi.NoteOnEvent(tick=192, channel=0, data=[74, 0])\n",
      "midi.NoteOnEvent(tick=0, channel=0, data=[72, 100])\n",
      "midi.NoteOnEvent(tick=192, channel=0, data=[72, 0])\n",
      "midi.NoteOnEvent(tick=0, channel=0, data=[64, 100])\n",
      "midi.NoteOnEvent(tick=192, channel=0, data=[64, 0])\n",
      "midi.NoteOnEvent(tick=0, channel=0, data=[62, 100])\n",
      "midi.NoteOnEvent(tick=96, channel=0, data=[62, 0])\n",
      "midi.NoteOnEvent(tick=0, channel=0, data=[72, 100])\n",
      "midi.NoteOnEvent(tick=96, channel=0, data=[72, 0])\n",
      "midi.NoteOnEvent(tick=0, channel=0, data=[71, 100])\n",
      "midi.NoteOnEvent(tick=96, channel=0, data=[71, 0])\n",
      "midi.NoteOnEvent(tick=0, channel=0, data=[69, 100])\n",
      "midi.NoteOnEvent(tick=96, channel=0, data=[69, 0])\n",
      "midi.NoteOnEvent(tick=0, channel=0, data=[71, 100])\n",
      "midi.NoteOnEvent(tick=96, channel=0, data=[71, 0])\n",
      "midi.NoteOnEvent(tick=0, channel=0, data=[69, 100])\n",
      "midi.NoteOnEvent(tick=96, channel=0, data=[69, 0])\n",
      "midi.NoteOnEvent(tick=0, channel=0, data=[68, 100])\n",
      "midi.NoteOnEvent(tick=96, channel=0, data=[68, 0])\n",
      "midi.NoteOnEvent(tick=0, channel=0, data=[66, 100])\n",
      "midi.NoteOnEvent(tick=96, channel=0, data=[66, 0])\n",
      "midi.NoteOnEvent(tick=0, channel=0, data=[68, 100])\n",
      "midi.NoteOnEvent(tick=192, channel=0, data=[68, 0])\n",
      "midi.NoteOnEvent(tick=0, channel=0, data=[77, 100])\n",
      "midi.NoteOnEvent(tick=192, channel=0, data=[77, 0])\n",
      "midi.NoteOnEvent(tick=0, channel=0, data=[76, 100])\n",
      "midi.NoteOnEvent(tick=192, channel=0, data=[76, 0])\n",
      "midi.NoteOnEvent(tick=0, channel=0, data=[81, 100])\n",
      "midi.NoteOnEvent(tick=192, channel=0, data=[81, 0])\n",
      "midi.NoteOnEvent(tick=0, channel=0, data=[84, 100])\n",
      "midi.NoteOnEvent(tick=384, channel=0, data=[84, 0])\n",
      "midi.NoteOnEvent(tick=0, channel=0, data=[83, 100])\n",
      "midi.NoteOnEvent(tick=48, channel=0, data=[83, 0])\n",
      "midi.NoteOnEvent(tick=0, channel=0, data=[84, 100])\n",
      "midi.NoteOnEvent(tick=48, channel=0, data=[84, 0])\n",
      "midi.NoteOnEvent(tick=0, channel=0, data=[83, 100])\n",
      "midi.NoteOnEvent(tick=48, channel=0, data=[83, 0])\n",
      "midi.NoteOnEvent(tick=0, channel=0, data=[84, 100])\n",
      "midi.NoteOnEvent(tick=48, channel=0, data=[84, 0])\n",
      "midi.NoteOnEvent(tick=0, channel=0, data=[83, 100])\n",
      "midi.NoteOnEvent(tick=48, channel=0, data=[83, 0])\n",
      "midi.NoteOnEvent(tick=0, channel=0, data=[84, 100])\n",
      "midi.NoteOnEvent(tick=48, channel=0, data=[84, 0])\n",
      "midi.NoteOnEvent(tick=0, channel=0, data=[83, 100])\n",
      "midi.NoteOnEvent(tick=48, channel=0, data=[83, 0])\n",
      "midi.NoteOnEvent(tick=0, channel=0, data=[84, 100])\n",
      "midi.NoteOnEvent(tick=48, channel=0, data=[84, 0])\n",
      "midi.NoteOnEvent(tick=0, channel=0, data=[83, 100])\n",
      "midi.NoteOnEvent(tick=96, channel=0, data=[83, 0])\n",
      "midi.NoteOnEvent(tick=0, channel=0, data=[84, 100])\n",
      "midi.NoteOnEvent(tick=96, channel=0, data=[84, 0])\n",
      "midi.NoteOnEvent(tick=0, channel=0, data=[86, 100])\n",
      "midi.NoteOnEvent(tick=96, channel=0, data=[86, 0])\n",
      "midi.NoteOnEvent(tick=0, channel=0, data=[84, 100])\n",
      "midi.NoteOnEvent(tick=96, channel=0, data=[84, 0])\n",
      "midi.NoteOnEvent(tick=0, channel=0, data=[83, 100])\n",
      "midi.NoteOnEvent(tick=96, channel=0, data=[83, 0])\n",
      "midi.NoteOnEvent(tick=0, channel=0, data=[86, 100])\n",
      "midi.NoteOnEvent(tick=96, channel=0, data=[86, 0])\n",
      "midi.NoteOnEvent(tick=0, channel=0, data=[81, 100])\n",
      "midi.NoteOnEvent(tick=96, channel=0, data=[81, 0])\n",
      "midi.NoteOnEvent(tick=0, channel=0, data=[86, 100])\n",
      "midi.NoteOnEvent(tick=96, channel=0, data=[86, 0])\n",
      "midi.NoteOnEvent(tick=0, channel=0, data=[80, 100])\n",
      "midi.NoteOnEvent(tick=96, channel=0, data=[80, 0])\n",
      "midi.NoteOnEvent(tick=0, channel=0, data=[81, 100])\n",
      "midi.NoteOnEvent(tick=96, channel=0, data=[81, 0])\n",
      "midi.NoteOnEvent(tick=0, channel=0, data=[83, 100])\n",
      "midi.NoteOnEvent(tick=96, channel=0, data=[83, 0])\n",
      "midi.NoteOnEvent(tick=0, channel=0, data=[81, 100])\n",
      "midi.NoteOnEvent(tick=96, channel=0, data=[81, 0])\n",
      "midi.NoteOnEvent(tick=0, channel=0, data=[80, 100])\n",
      "midi.NoteOnEvent(tick=96, channel=0, data=[80, 0])\n",
      "midi.NoteOnEvent(tick=0, channel=0, data=[83, 100])\n",
      "midi.NoteOnEvent(tick=96, channel=0, data=[83, 0])\n",
      "midi.NoteOnEvent(tick=0, channel=0, data=[77, 100])\n",
      "midi.NoteOnEvent(tick=96, channel=0, data=[77, 0])\n",
      "midi.NoteOnEvent(tick=0, channel=0, data=[83, 100])\n",
      "midi.NoteOnEvent(tick=96, channel=0, data=[83, 0])\n",
      "midi.NoteOnEvent(tick=0, channel=0, data=[74, 100])\n",
      "midi.NoteOnEvent(tick=96, channel=0, data=[74, 0])\n",
      "midi.NoteOnEvent(tick=0, channel=0, data=[76, 100])\n",
      "midi.NoteOnEvent(tick=96, channel=0, data=[76, 0])\n",
      "midi.NoteOnEvent(tick=0, channel=0, data=[77, 100])\n",
      "midi.NoteOnEvent(tick=96, channel=0, data=[77, 0])\n",
      "midi.NoteOnEvent(tick=0, channel=0, data=[76, 100])\n",
      "midi.NoteOnEvent(tick=96, channel=0, data=[76, 0])\n",
      "midi.NoteOnEvent(tick=0, channel=0, data=[74, 100])\n",
      "midi.NoteOnEvent(tick=96, channel=0, data=[74, 0])\n",
      "midi.NoteOnEvent(tick=0, channel=0, data=[77, 100])\n",
      "midi.NoteOnEvent(tick=96, channel=0, data=[77, 0])\n",
      "midi.NoteOnEvent(tick=0, channel=0, data=[72, 100])\n",
      "midi.NoteOnEvent(tick=96, channel=0, data=[72, 0])\n",
      "midi.NoteOnEvent(tick=0, channel=0, data=[77, 100])\n",
      "midi.NoteOnEvent(tick=96, channel=0, data=[77, 0])\n",
      "midi.NoteOnEvent(tick=0, channel=0, data=[71, 100])\n",
      "midi.NoteOnEvent(tick=96, channel=0, data=[71, 0])\n",
      "midi.NoteOnEvent(tick=0, channel=0, data=[72, 100])\n",
      "midi.NoteOnEvent(tick=96, channel=0, data=[72, 0])\n",
      "midi.NoteOnEvent(tick=0, channel=0, data=[74, 100])\n",
      "midi.NoteOnEvent(tick=96, channel=0, data=[74, 0])\n",
      "midi.NoteOnEvent(tick=0, channel=0, data=[72, 100])\n",
      "midi.NoteOnEvent(tick=96, channel=0, data=[72, 0])\n",
      "midi.NoteOnEvent(tick=0, channel=0, data=[71, 100])\n",
      "midi.NoteOnEvent(tick=96, channel=0, data=[71, 0])\n",
      "midi.NoteOnEvent(tick=0, channel=0, data=[74, 100])\n",
      "midi.NoteOnEvent(tick=96, channel=0, data=[74, 0])\n",
      "midi.NoteOnEvent(tick=0, channel=0, data=[69, 100])\n",
      "midi.NoteOnEvent(tick=96, channel=0, data=[69, 0])\n",
      "midi.NoteOnEvent(tick=0, channel=0, data=[74, 100])\n",
      "midi.NoteOnEvent(tick=96, channel=0, data=[74, 0])\n",
      "midi.NoteOnEvent(tick=0, channel=0, data=[68, 100])\n",
      "midi.NoteOnEvent(tick=96, channel=0, data=[68, 0])\n",
      "midi.NoteOnEvent(tick=0, channel=0, data=[74, 100])\n",
      "midi.NoteOnEvent(tick=96, channel=0, data=[74, 0])\n",
      "midi.NoteOnEvent(tick=0, channel=0, data=[64, 100])\n",
      "midi.NoteOnEvent(tick=96, channel=0, data=[64, 0])\n",
      "midi.NoteOnEvent(tick=0, channel=0, data=[66, 100])\n",
      "midi.NoteOnEvent(tick=96, channel=0, data=[66, 0])\n",
      "midi.NoteOnEvent(tick=0, channel=0, data=[68, 100])\n",
      "midi.NoteOnEvent(tick=96, channel=0, data=[68, 0])\n",
      "midi.NoteOnEvent(tick=0, channel=0, data=[69, 100])\n",
      "midi.NoteOnEvent(tick=96, channel=0, data=[69, 0])\n",
      "midi.NoteOnEvent(tick=0, channel=0, data=[71, 100])\n",
      "midi.NoteOnEvent(tick=96, channel=0, data=[71, 0])\n",
      "midi.NoteOnEvent(tick=0, channel=0, data=[72, 100])\n",
      "midi.NoteOnEvent(tick=96, channel=0, data=[72, 0])\n",
      "midi.NoteOnEvent(tick=0, channel=0, data=[74, 100])\n",
      "midi.NoteOnEvent(tick=96, channel=0, data=[74, 0])\n",
      "midi.NoteOnEvent(tick=0, channel=0, data=[76, 100])\n",
      "midi.NoteOnEvent(tick=96, channel=0, data=[76, 0])\n",
      "midi.NoteOnEvent(tick=0, channel=0, data=[78, 100])\n",
      "midi.NoteOnEvent(tick=96, channel=0, data=[78, 0])\n",
      "midi.NoteOnEvent(tick=0, channel=0, data=[80, 100])\n",
      "midi.NoteOnEvent(tick=96, channel=0, data=[80, 0])\n",
      "midi.NoteOnEvent(tick=0, channel=0, data=[81, 100])\n",
      "midi.NoteOnEvent(tick=96, channel=0, data=[81, 0])\n",
      "midi.NoteOnEvent(tick=0, channel=0, data=[83, 100])\n",
      "midi.NoteOnEvent(tick=96, channel=0, data=[83, 0])\n",
      "midi.NoteOnEvent(tick=0, channel=0, data=[84, 100])\n",
      "midi.NoteOnEvent(tick=96, channel=0, data=[84, 0])\n",
      "midi.NoteOnEvent(tick=0, channel=0, data=[86, 100])\n",
      "midi.NoteOnEvent(tick=96, channel=0, data=[86, 0])\n",
      "midi.NoteOnEvent(tick=0, channel=0, data=[88, 100])\n",
      "midi.NoteOnEvent(tick=192, channel=0, data=[88, 0])\n",
      "midi.NoteOnEvent(tick=0, channel=0, data=[81, 100])\n",
      "midi.NoteOnEvent(tick=192, channel=0, data=[81, 0])\n",
      "midi.NoteOnEvent(tick=0, channel=0, data=[83, 100])\n",
      "midi.NoteOnEvent(tick=192, channel=0, data=[83, 0])\n",
      "midi.NoteOnEvent(tick=0, channel=0, data=[80, 100])\n",
      "midi.NoteOnEvent(tick=192, channel=0, data=[80, 0])\n",
      "midi.NoteOnEvent(tick=0, channel=0, data=[81, 100])\n",
      "midi.NoteOnEvent(tick=96, channel=0, data=[81, 0])\n",
      "midi.NoteOnEvent(tick=0, channel=0, data=[79, 100])\n",
      "midi.NoteOnEvent(tick=96, channel=0, data=[79, 0])\n",
      "midi.NoteOnEvent(tick=0, channel=0, data=[77, 100])\n",
      "midi.NoteOnEvent(tick=96, channel=0, data=[77, 0])\n",
      "midi.NoteOnEvent(tick=0, channel=0, data=[76, 100])\n",
      "midi.NoteOnEvent(tick=96, channel=0, data=[76, 0])\n",
      "midi.NoteOnEvent(tick=0, channel=0, data=[74, 100])\n",
      "midi.NoteOnEvent(tick=192, channel=0, data=[74, 0])\n",
      "midi.NoteOnEvent(tick=0, channel=0, data=[74, 100])\n",
      "midi.NoteOnEvent(tick=192, channel=0, data=[74, 0])\n",
      "midi.NoteOnEvent(tick=0, channel=0, data=[74, 100])\n",
      "midi.NoteOnEvent(tick=96, channel=0, data=[74, 0])\n",
      "midi.NoteOnEvent(tick=0, channel=0, data=[76, 100])\n",
      "midi.NoteOnEvent(tick=96, channel=0, data=[76, 0])\n",
      "midi.NoteOnEvent(tick=0, channel=0, data=[77, 100])\n",
      "midi.NoteOnEvent(tick=288, channel=0, data=[77, 0])\n",
      "midi.NoteOnEvent(tick=0, channel=0, data=[76, 100])\n",
      "midi.NoteOnEvent(tick=96, channel=0, data=[76, 0])\n",
      "midi.NoteOnEvent(tick=0, channel=0, data=[74, 100])\n",
      "midi.NoteOnEvent(tick=96, channel=0, data=[74, 0])\n",
      "midi.NoteOnEvent(tick=0, channel=0, data=[72, 100])\n",
      "midi.NoteOnEvent(tick=96, channel=0, data=[72, 0])\n",
      "midi.NoteOnEvent(tick=0, channel=0, data=[71, 100])\n",
      "midi.NoteOnEvent(tick=96, channel=0, data=[71, 0])\n",
      "midi.NoteOnEvent(tick=0, channel=0, data=[72, 100])\n",
      "midi.NoteOnEvent(tick=96, channel=0, data=[72, 0])\n",
      "midi.NoteOnEvent(tick=0, channel=0, data=[74, 100])\n",
      "midi.NoteOnEvent(tick=288, channel=0, data=[74, 0])\n",
      "midi.NoteOnEvent(tick=0, channel=0, data=[72, 100])\n",
      "midi.NoteOnEvent(tick=96, channel=0, data=[72, 0])\n",
      "midi.NoteOnEvent(tick=0, channel=0, data=[71, 100])\n",
      "midi.NoteOnEvent(tick=96, channel=0, data=[71, 0])\n",
      "midi.NoteOnEvent(tick=0, channel=0, data=[69, 100])\n",
      "midi.NoteOnEvent(tick=96, channel=0, data=[69, 0])\n",
      "midi.NoteOnEvent(tick=0, channel=0, data=[68, 100])\n",
      "midi.NoteOnEvent(tick=192, channel=0, data=[68, 0])\n",
      "midi.NoteOnEvent(tick=0, channel=0, data=[76, 100])\n",
      "midi.NoteOnEvent(tick=192, channel=0, data=[76, 0])\n",
      "midi.NoteOnEvent(tick=0, channel=0, data=[72, 100])\n",
      "midi.NoteOnEvent(tick=48, channel=0, data=[72, 0])\n",
      "midi.NoteOnEvent(tick=0, channel=0, data=[74, 100])\n",
      "midi.NoteOnEvent(tick=48, channel=0, data=[74, 0])\n",
      "midi.NoteOnEvent(tick=0, channel=0, data=[72, 100])\n",
      "midi.NoteOnEvent(tick=48, channel=0, data=[72, 0])\n",
      "midi.NoteOnEvent(tick=0, channel=0, data=[74, 100])\n",
      "midi.NoteOnEvent(tick=48, channel=0, data=[74, 0])\n",
      "midi.NoteOnEvent(tick=0, channel=0, data=[71, 100])\n",
      "midi.NoteOnEvent(tick=96, channel=0, data=[71, 0])\n",
      "midi.NoteOnEvent(tick=0, channel=0, data=[69, 100])\n",
      "midi.NoteOnEvent(tick=96, channel=0, data=[69, 0])\n",
      "midi.NoteOnEvent(tick=0, channel=0, data=[69, 100])\n",
      "midi.NoteOnEvent(tick=576, channel=0, data=[69, 0])\n",
      "midi.EndOfTrackEvent(tick=0, data=[])\n",
      "midi.PortEvent(tick=0, data=[0])\n",
      "midi.TrackNameEvent(tick=0, text='Violin 1', data=[86, 105, 111, 108, 105, 110, 32, 49])\n",
      "midi.ProgramChangeEvent(tick=0, channel=1, data=[40])\n",
      "midi.ControlChangeEvent(tick=0, channel=1, data=[7, 110])\n",
      "midi.ControlChangeEvent(tick=0, channel=1, data=[10, 32])\n",
      "midi.NoteOnEvent(tick=576, channel=1, data=[76, 100])\n",
      "midi.NoteOnEvent(tick=192, channel=1, data=[76, 0])\n",
      "midi.NoteOnEvent(tick=0, channel=1, data=[81, 100])\n",
      "midi.NoteOnEvent(tick=384, channel=1, data=[81, 0])\n",
      "midi.NoteOnEvent(tick=192, channel=1, data=[76, 100])\n",
      "midi.NoteOnEvent(tick=192, channel=1, data=[76, 0])\n",
      "midi.NoteOnEvent(tick=0, channel=1, data=[77, 100])\n",
      "midi.NoteOnEvent(tick=384, channel=1, data=[77, 0])\n",
      "midi.NoteOnEvent(tick=192, channel=1, data=[74, 100])\n",
      "midi.NoteOnEvent(tick=192, channel=1, data=[74, 0])\n",
      "midi.NoteOnEvent(tick=0, channel=1, data=[76, 100])\n",
      "midi.NoteOnEvent(tick=96, channel=1, data=[76, 0])\n",
      "midi.NoteOnEvent(tick=0, channel=1, data=[74, 100])\n",
      "midi.NoteOnEvent(tick=96, channel=1, data=[74, 0])\n",
      "midi.NoteOnEvent(tick=0, channel=1, data=[72, 100])\n",
      "midi.NoteOnEvent(tick=96, channel=1, data=[72, 0])\n",
      "midi.NoteOnEvent(tick=0, channel=1, data=[76, 100])\n",
      "midi.NoteOnEvent(tick=96, channel=1, data=[76, 0])\n",
      "midi.NoteOnEvent(tick=0, channel=1, data=[74, 100])\n",
      "midi.NoteOnEvent(tick=96, channel=1, data=[74, 0])\n",
      "midi.NoteOnEvent(tick=0, channel=1, data=[72, 100])\n",
      "midi.NoteOnEvent(tick=96, channel=1, data=[72, 0])\n",
      "midi.NoteOnEvent(tick=0, channel=1, data=[71, 100])\n",
      "midi.NoteOnEvent(tick=96, channel=1, data=[71, 0])\n",
      "midi.NoteOnEvent(tick=0, channel=1, data=[74, 100])\n",
      "midi.NoteOnEvent(tick=96, channel=1, data=[74, 0])\n",
      "midi.NoteOnEvent(tick=0, channel=1, data=[72, 100])\n",
      "midi.NoteOnEvent(tick=192, channel=1, data=[72, 0])\n",
      "midi.NoteOnEvent(tick=0, channel=1, data=[69, 100])\n",
      "midi.NoteOnEvent(tick=192, channel=1, data=[69, 0])\n",
      "midi.NoteOnEvent(tick=96, channel=1, data=[69, 100])\n",
      "midi.NoteOnEvent(tick=96, channel=1, data=[69, 0])\n",
      "midi.NoteOnEvent(tick=0, channel=1, data=[68, 100])\n",
      "midi.NoteOnEvent(tick=96, channel=1, data=[68, 0])\n",
      "midi.NoteOnEvent(tick=0, channel=1, data=[69, 100])\n",
      "midi.NoteOnEvent(tick=96, channel=1, data=[69, 0])\n",
      "midi.NoteOnEvent(tick=0, channel=1, data=[71, 100])\n",
      "midi.NoteOnEvent(tick=96, channel=1, data=[71, 0])\n",
      "midi.NoteOnEvent(tick=0, channel=1, data=[69, 100])\n",
      "midi.NoteOnEvent(tick=96, channel=1, data=[69, 0])\n",
      "midi.NoteOnEvent(tick=0, channel=1, data=[68, 100])\n",
      "midi.NoteOnEvent(tick=96, channel=1, data=[68, 0])\n",
      "midi.NoteOnEvent(tick=0, channel=1, data=[69, 100])\n",
      "midi.NoteOnEvent(tick=96, channel=1, data=[69, 0])\n",
      "midi.NoteOnEvent(tick=0, channel=1, data=[72, 100])\n",
      "midi.NoteOnEvent(tick=96, channel=1, data=[72, 0])\n",
      "midi.NoteOnEvent(tick=0, channel=1, data=[69, 100])\n",
      "midi.NoteOnEvent(tick=96, channel=1, data=[69, 0])\n",
      "midi.NoteOnEvent(tick=0, channel=1, data=[68, 100])\n",
      "midi.NoteOnEvent(tick=96, channel=1, data=[68, 0])\n",
      "midi.NoteOnEvent(tick=0, channel=1, data=[69, 100])\n",
      "midi.NoteOnEvent(tick=96, channel=1, data=[69, 0])\n",
      "midi.NoteOnEvent(tick=0, channel=1, data=[74, 100])\n",
      "midi.NoteOnEvent(tick=96, channel=1, data=[74, 0])\n",
      "midi.NoteOnEvent(tick=0, channel=1, data=[69, 100])\n",
      "midi.NoteOnEvent(tick=96, channel=1, data=[69, 0])\n",
      "midi.NoteOnEvent(tick=0, channel=1, data=[68, 100])\n",
      "midi.NoteOnEvent(tick=96, channel=1, data=[68, 0])\n",
      "midi.NoteOnEvent(tick=0, channel=1, data=[69, 100])\n",
      "midi.NoteOnEvent(tick=96, channel=1, data=[69, 0])\n",
      "midi.NoteOnEvent(tick=0, channel=1, data=[76, 100])\n",
      "midi.NoteOnEvent(tick=96, channel=1, data=[76, 0])\n",
      "midi.NoteOnEvent(tick=0, channel=1, data=[69, 100])\n",
      "midi.NoteOnEvent(tick=96, channel=1, data=[69, 0])\n",
      "midi.NoteOnEvent(tick=0, channel=1, data=[68, 100])\n",
      "midi.NoteOnEvent(tick=96, channel=1, data=[68, 0])\n",
      "midi.NoteOnEvent(tick=0, channel=1, data=[69, 100])\n",
      "midi.NoteOnEvent(tick=96, channel=1, data=[69, 0])\n",
      "midi.NoteOnEvent(tick=0, channel=1, data=[77, 100])\n",
      "midi.NoteOnEvent(tick=96, channel=1, data=[77, 0])\n",
      "midi.NoteOnEvent(tick=0, channel=1, data=[79, 100])\n",
      "midi.NoteOnEvent(tick=96, channel=1, data=[79, 0])\n",
      "midi.NoteOnEvent(tick=0, channel=1, data=[77, 100])\n",
      "midi.NoteOnEvent(tick=96, channel=1, data=[77, 0])\n",
      "midi.NoteOnEvent(tick=0, channel=1, data=[76, 100])\n",
      "midi.NoteOnEvent(tick=96, channel=1, data=[76, 0])\n",
      "midi.NoteOnEvent(tick=0, channel=1, data=[74, 100])\n",
      "midi.NoteOnEvent(tick=96, channel=1, data=[74, 0])\n",
      "midi.NoteOnEvent(tick=0, channel=1, data=[72, 100])\n",
      "midi.NoteOnEvent(tick=96, channel=1, data=[72, 0])\n",
      "midi.NoteOnEvent(tick=0, channel=1, data=[71, 100])\n",
      "midi.NoteOnEvent(tick=96, channel=1, data=[71, 0])\n",
      "midi.NoteOnEvent(tick=0, channel=1, data=[69, 100])\n",
      "midi.NoteOnEvent(tick=96, channel=1, data=[69, 0])\n",
      "midi.NoteOnEvent(tick=0, channel=1, data=[68, 100])\n",
      "midi.NoteOnEvent(tick=192, channel=1, data=[68, 0])\n",
      "midi.NoteOnEvent(tick=0, channel=1, data=[64, 100])\n",
      "midi.NoteOnEvent(tick=192, channel=1, data=[64, 0])\n",
      "midi.NoteOnEvent(tick=0, channel=1, data=[83, 100])\n",
      "midi.NoteOnEvent(tick=576, channel=1, data=[83, 0])\n",
      "midi.NoteOnEvent(tick=0, channel=1, data=[81, 100])\n",
      "midi.NoteOnEvent(tick=96, channel=1, data=[81, 0])\n",
      "midi.NoteOnEvent(tick=0, channel=1, data=[80, 100])\n",
      "midi.NoteOnEvent(tick=96, channel=1, data=[80, 0])\n",
      "midi.NoteOnEvent(tick=0, channel=1, data=[81, 100])\n",
      "midi.NoteOnEvent(tick=192, channel=1, data=[81, 0])\n",
      "midi.NoteOnEvent(tick=0, channel=1, data=[84, 100])\n",
      "midi.NoteOnEvent(tick=384, channel=1, data=[84, 0])\n",
      "midi.NoteOnEvent(tick=0, channel=1, data=[78, 100])\n",
      "midi.NoteOnEvent(tick=192, channel=1, data=[78, 0])\n",
      "midi.NoteOnEvent(tick=0, channel=1, data=[81, 100])\n",
      "midi.NoteOnEvent(tick=576, channel=1, data=[81, 0])\n",
      "midi.NoteOnEvent(tick=0, channel=1, data=[79, 100])\n",
      "midi.NoteOnEvent(tick=96, channel=1, data=[79, 0])\n",
      "midi.NoteOnEvent(tick=0, channel=1, data=[78, 100])\n",
      "midi.NoteOnEvent(tick=96, channel=1, data=[78, 0])\n",
      "midi.NoteOnEvent(tick=0, channel=1, data=[79, 100])\n",
      "midi.NoteOnEvent(tick=192, channel=1, data=[79, 0])\n",
      "midi.NoteOnEvent(tick=0, channel=1, data=[83, 100])\n",
      "midi.NoteOnEvent(tick=288, channel=1, data=[83, 0])\n",
      "midi.NoteOnEvent(tick=0, channel=1, data=[81, 100])\n",
      "midi.NoteOnEvent(tick=96, channel=1, data=[81, 0])\n",
      "midi.NoteOnEvent(tick=0, channel=1, data=[79, 100])\n",
      "midi.NoteOnEvent(tick=96, channel=1, data=[79, 0])\n",
      "midi.NoteOnEvent(tick=0, channel=1, data=[78, 100])\n",
      "midi.NoteOnEvent(tick=96, channel=1, data=[78, 0])\n",
      "midi.NoteOnEvent(tick=0, channel=1, data=[76, 100])\n",
      "midi.NoteOnEvent(tick=576, channel=1, data=[76, 0])\n",
      "midi.NoteOnEvent(tick=0, channel=1, data=[78, 100])\n",
      "midi.NoteOnEvent(tick=96, channel=1, data=[78, 0])\n",
      "midi.NoteOnEvent(tick=0, channel=1, data=[79, 100])\n",
      "midi.NoteOnEvent(tick=96, channel=1, data=[79, 0])\n",
      "midi.NoteOnEvent(tick=0, channel=1, data=[81, 100])\n",
      "midi.NoteOnEvent(tick=192, channel=1, data=[81, 0])\n",
      "midi.NoteOnEvent(tick=0, channel=1, data=[72, 100])\n",
      "midi.NoteOnEvent(tick=192, channel=1, data=[72, 0])\n",
      "midi.NoteOnEvent(tick=0, channel=1, data=[71, 100])\n",
      "midi.NoteOnEvent(tick=192, channel=1, data=[71, 0])\n",
      "midi.NoteOnEvent(tick=0, channel=1, data=[81, 100])\n",
      "midi.NoteOnEvent(tick=192, channel=1, data=[81, 0])\n",
      "midi.NoteOnEvent(tick=0, channel=1, data=[79, 100])\n",
      "midi.NoteOnEvent(tick=192, channel=1, data=[79, 0])\n",
      "midi.NoteOnEvent(tick=0, channel=1, data=[71, 100])\n",
      "midi.NoteOnEvent(tick=192, channel=1, data=[71, 0])\n",
      "midi.NoteOnEvent(tick=0, channel=1, data=[69, 100])\n",
      "midi.NoteOnEvent(tick=96, channel=1, data=[69, 0])\n",
      "midi.NoteOnEvent(tick=0, channel=1, data=[71, 100])\n",
      "midi.NoteOnEvent(tick=96, channel=1, data=[71, 0])\n",
      "midi.NoteOnEvent(tick=0, channel=1, data=[72, 100])\n",
      "midi.NoteOnEvent(tick=96, channel=1, data=[72, 0])\n",
      "midi.NoteOnEvent(tick=0, channel=1, data=[71, 100])\n",
      "midi.NoteOnEvent(tick=96, channel=1, data=[71, 0])\n",
      "midi.NoteOnEvent(tick=0, channel=1, data=[69, 100])\n",
      "midi.NoteOnEvent(tick=96, channel=1, data=[69, 0])\n",
      "midi.NoteOnEvent(tick=0, channel=1, data=[67, 100])\n",
      "midi.NoteOnEvent(tick=96, channel=1, data=[67, 0])\n",
      "midi.NoteOnEvent(tick=0, channel=1, data=[66, 100])\n",
      "midi.NoteOnEvent(tick=96, channel=1, data=[66, 0])\n",
      "midi.NoteOnEvent(tick=0, channel=1, data=[64, 100])\n",
      "midi.NoteOnEvent(tick=96, channel=1, data=[64, 0])\n",
      "midi.NoteOnEvent(tick=0, channel=1, data=[63, 100])\n",
      "midi.NoteOnEvent(tick=192, channel=1, data=[63, 0])\n",
      "midi.NoteOnEvent(tick=0, channel=1, data=[72, 100])\n",
      "midi.NoteOnEvent(tick=192, channel=1, data=[72, 0])\n",
      "midi.NoteOnEvent(tick=0, channel=1, data=[71, 100])\n",
      "midi.NoteOnEvent(tick=192, channel=1, data=[71, 0])\n",
      "midi.NoteOnEvent(tick=0, channel=1, data=[76, 100])\n",
      "midi.NoteOnEvent(tick=192, channel=1, data=[76, 0])\n",
      "midi.NoteOnEvent(tick=0, channel=1, data=[79, 100])\n",
      "midi.NoteOnEvent(tick=384, channel=1, data=[79, 0])\n",
      "midi.NoteOnEvent(tick=0, channel=1, data=[78, 100])\n",
      "midi.NoteOnEvent(tick=48, channel=1, data=[78, 0])\n",
      "midi.NoteOnEvent(tick=0, channel=1, data=[79, 100])\n",
      "midi.NoteOnEvent(tick=48, channel=1, data=[79, 0])\n",
      "midi.NoteOnEvent(tick=0, channel=1, data=[78, 100])\n",
      "midi.NoteOnEvent(tick=48, channel=1, data=[78, 0])\n",
      "midi.NoteOnEvent(tick=0, channel=1, data=[79, 100])\n",
      "midi.NoteOnEvent(tick=48, channel=1, data=[79, 0])\n",
      "midi.NoteOnEvent(tick=0, channel=1, data=[78, 100])\n",
      "midi.NoteOnEvent(tick=48, channel=1, data=[78, 0])\n",
      "midi.NoteOnEvent(tick=0, channel=1, data=[79, 100])\n",
      "midi.NoteOnEvent(tick=48, channel=1, data=[79, 0])\n",
      "midi.NoteOnEvent(tick=0, channel=1, data=[78, 100])\n",
      "midi.NoteOnEvent(tick=48, channel=1, data=[78, 0])\n",
      "midi.NoteOnEvent(tick=0, channel=1, data=[79, 100])\n",
      "midi.NoteOnEvent(tick=48, channel=1, data=[79, 0])\n",
      "midi.NoteOnEvent(tick=0, channel=1, data=[78, 100])\n",
      "midi.NoteOnEvent(tick=96, channel=1, data=[78, 0])\n",
      "midi.NoteOnEvent(tick=0, channel=1, data=[79, 100])\n",
      "midi.NoteOnEvent(tick=96, channel=1, data=[79, 0])\n",
      "midi.NoteOnEvent(tick=0, channel=1, data=[81, 100])\n",
      "midi.NoteOnEvent(tick=96, channel=1, data=[81, 0])\n",
      "midi.NoteOnEvent(tick=0, channel=1, data=[78, 100])\n",
      "midi.NoteOnEvent(tick=96, channel=1, data=[78, 0])\n",
      "midi.NoteOnEvent(tick=0, channel=1, data=[75, 100])\n",
      "midi.NoteOnEvent(tick=96, channel=1, data=[75, 0])\n",
      "midi.NoteOnEvent(tick=0, channel=1, data=[76, 100])\n",
      "midi.NoteOnEvent(tick=96, channel=1, data=[76, 0])\n",
      "midi.NoteOnEvent(tick=0, channel=1, data=[78, 100])\n",
      "midi.NoteOnEvent(tick=96, channel=1, data=[78, 0])\n",
      "midi.NoteOnEvent(tick=0, channel=1, data=[75, 100])\n",
      "midi.NoteOnEvent(tick=96, channel=1, data=[75, 0])\n",
      "midi.NoteOnEvent(tick=0, channel=1, data=[83, 100])\n",
      "midi.NoteOnEvent(tick=192, channel=1, data=[83, 0])\n",
      "midi.NoteOnEvent(tick=0, channel=1, data=[76, 100])\n",
      "midi.NoteOnEvent(tick=192, channel=1, data=[76, 0])\n",
      "midi.NoteOnEvent(tick=0, channel=1, data=[78, 100])\n",
      "midi.NoteOnEvent(tick=192, channel=1, data=[78, 0])\n",
      "midi.NoteOnEvent(tick=0, channel=1, data=[75, 100])\n",
      "midi.NoteOnEvent(tick=192, channel=1, data=[75, 0])\n",
      "midi.NoteOnEvent(tick=0, channel=1, data=[76, 100])\n",
      "midi.NoteOnEvent(tick=96, channel=1, data=[76, 0])\n",
      "midi.NoteOnEvent(tick=0, channel=1, data=[74, 100])\n",
      "midi.NoteOnEvent(tick=96, channel=1, data=[74, 0])\n",
      "midi.NoteOnEvent(tick=0, channel=1, data=[72, 100])\n",
      "midi.NoteOnEvent(tick=96, channel=1, data=[72, 0])\n",
      "midi.NoteOnEvent(tick=0, channel=1, data=[71, 100])\n",
      "midi.NoteOnEvent(tick=96, channel=1, data=[71, 0])\n",
      "midi.NoteOnEvent(tick=0, channel=1, data=[69, 100])\n",
      "midi.NoteOnEvent(tick=192, channel=1, data=[69, 0])\n",
      "midi.NoteOnEvent(tick=0, channel=1, data=[69, 100])\n",
      "midi.NoteOnEvent(tick=192, channel=1, data=[69, 0])\n",
      "midi.NoteOnEvent(tick=0, channel=1, data=[69, 100])\n",
      "midi.NoteOnEvent(tick=96, channel=1, data=[69, 0])\n",
      "midi.NoteOnEvent(tick=0, channel=1, data=[71, 100])\n",
      "midi.NoteOnEvent(tick=96, channel=1, data=[71, 0])\n",
      "midi.NoteOnEvent(tick=0, channel=1, data=[72, 100])\n",
      "midi.NoteOnEvent(tick=288, channel=1, data=[72, 0])\n",
      "midi.NoteOnEvent(tick=0, channel=1, data=[71, 100])\n",
      "midi.NoteOnEvent(tick=96, channel=1, data=[71, 0])\n",
      "midi.NoteOnEvent(tick=0, channel=1, data=[69, 100])\n",
      "midi.NoteOnEvent(tick=96, channel=1, data=[69, 0])\n",
      "midi.NoteOnEvent(tick=0, channel=1, data=[67, 100])\n",
      "midi.NoteOnEvent(tick=96, channel=1, data=[67, 0])\n",
      "midi.NoteOnEvent(tick=0, channel=1, data=[66, 100])\n",
      "midi.NoteOnEvent(tick=96, channel=1, data=[66, 0])\n",
      "midi.NoteOnEvent(tick=0, channel=1, data=[67, 100])\n",
      "midi.NoteOnEvent(tick=96, channel=1, data=[67, 0])\n",
      "midi.NoteOnEvent(tick=0, channel=1, data=[69, 100])\n",
      "midi.NoteOnEvent(tick=288, channel=1, data=[69, 0])\n",
      "midi.NoteOnEvent(tick=0, channel=1, data=[67, 100])\n",
      "midi.NoteOnEvent(tick=96, channel=1, data=[67, 0])\n",
      "midi.NoteOnEvent(tick=0, channel=1, data=[66, 100])\n",
      "midi.NoteOnEvent(tick=96, channel=1, data=[66, 0])\n",
      "midi.NoteOnEvent(tick=0, channel=1, data=[64, 100])\n",
      "midi.NoteOnEvent(tick=96, channel=1, data=[64, 0])\n",
      "midi.NoteOnEvent(tick=0, channel=1, data=[63, 100])\n",
      "midi.NoteOnEvent(tick=192, channel=1, data=[63, 0])\n",
      "midi.NoteOnEvent(tick=0, channel=1, data=[71, 100])\n"
     ]
    },
    {
     "name": "stdout",
     "output_type": "stream",
     "text": [
      "midi.NoteOnEvent(tick=192, channel=1, data=[71, 0])\n",
      "midi.NoteOnEvent(tick=0, channel=1, data=[67, 100])\n",
      "midi.NoteOnEvent(tick=48, channel=1, data=[67, 0])\n",
      "midi.NoteOnEvent(tick=0, channel=1, data=[69, 100])\n",
      "midi.NoteOnEvent(tick=48, channel=1, data=[69, 0])\n",
      "midi.NoteOnEvent(tick=0, channel=1, data=[67, 100])\n",
      "midi.NoteOnEvent(tick=48, channel=1, data=[67, 0])\n",
      "midi.NoteOnEvent(tick=0, channel=1, data=[69, 100])\n",
      "midi.NoteOnEvent(tick=48, channel=1, data=[69, 0])\n",
      "midi.NoteOnEvent(tick=0, channel=1, data=[66, 100])\n",
      "midi.NoteOnEvent(tick=96, channel=1, data=[66, 0])\n",
      "midi.NoteOnEvent(tick=0, channel=1, data=[64, 100])\n",
      "midi.NoteOnEvent(tick=96, channel=1, data=[64, 0])\n",
      "midi.NoteOnEvent(tick=0, channel=1, data=[64, 100])\n",
      "midi.NoteOnEvent(tick=384, channel=1, data=[64, 0])\n",
      "midi.NoteOnEvent(tick=576, channel=1, data=[76, 100])\n",
      "midi.NoteOnEvent(tick=192, channel=1, data=[76, 0])\n",
      "midi.NoteOnEvent(tick=0, channel=1, data=[81, 100])\n",
      "midi.NoteOnEvent(tick=192, channel=1, data=[81, 0])\n",
      "midi.NoteOnEvent(tick=384, channel=1, data=[80, 100])\n",
      "midi.NoteOnEvent(tick=96, channel=1, data=[80, 0])\n",
      "midi.NoteOnEvent(tick=0, channel=1, data=[81, 100])\n",
      "midi.NoteOnEvent(tick=96, channel=1, data=[81, 0])\n",
      "midi.NoteOnEvent(tick=0, channel=1, data=[83, 100])\n",
      "midi.NoteOnEvent(tick=192, channel=1, data=[83, 0])\n",
      "midi.NoteOnEvent(tick=384, channel=1, data=[76, 100])\n",
      "midi.NoteOnEvent(tick=192, channel=1, data=[76, 0])\n",
      "midi.NoteOnEvent(tick=0, channel=1, data=[83, 100])\n",
      "midi.NoteOnEvent(tick=192, channel=1, data=[83, 0])\n",
      "midi.NoteOnEvent(tick=384, channel=1, data=[81, 100])\n",
      "midi.NoteOnEvent(tick=96, channel=1, data=[81, 0])\n",
      "midi.NoteOnEvent(tick=0, channel=1, data=[83, 100])\n",
      "midi.NoteOnEvent(tick=96, channel=1, data=[83, 0])\n",
      "midi.NoteOnEvent(tick=0, channel=1, data=[84, 100])\n",
      "midi.NoteOnEvent(tick=192, channel=1, data=[84, 0])\n",
      "midi.NoteOnEvent(tick=3072, channel=1, data=[76, 100])\n",
      "midi.NoteOnEvent(tick=192, channel=1, data=[76, 0])\n",
      "midi.NoteOnEvent(tick=0, channel=1, data=[81, 100])\n",
      "midi.NoteOnEvent(tick=384, channel=1, data=[81, 0])\n",
      "midi.NoteOnEvent(tick=192, channel=1, data=[76, 100])\n",
      "midi.NoteOnEvent(tick=192, channel=1, data=[76, 0])\n",
      "midi.NoteOnEvent(tick=0, channel=1, data=[77, 100])\n",
      "midi.NoteOnEvent(tick=384, channel=1, data=[77, 0])\n",
      "midi.NoteOnEvent(tick=192, channel=1, data=[74, 100])\n",
      "midi.NoteOnEvent(tick=192, channel=1, data=[74, 0])\n",
      "midi.NoteOnEvent(tick=0, channel=1, data=[79, 100])\n",
      "midi.NoteOnEvent(tick=384, channel=1, data=[79, 0])\n",
      "midi.NoteOnEvent(tick=192, channel=1, data=[74, 100])\n",
      "midi.NoteOnEvent(tick=192, channel=1, data=[74, 0])\n",
      "midi.NoteOnEvent(tick=0, channel=1, data=[76, 100])\n",
      "midi.NoteOnEvent(tick=384, channel=1, data=[76, 0])\n",
      "midi.NoteOnEvent(tick=192, channel=1, data=[72, 100])\n",
      "midi.NoteOnEvent(tick=192, channel=1, data=[72, 0])\n",
      "midi.NoteOnEvent(tick=0, channel=1, data=[77, 100])\n",
      "midi.NoteOnEvent(tick=384, channel=1, data=[77, 0])\n",
      "midi.NoteOnEvent(tick=192, channel=1, data=[72, 100])\n",
      "midi.NoteOnEvent(tick=192, channel=1, data=[72, 0])\n",
      "midi.NoteOnEvent(tick=0, channel=1, data=[74, 100])\n",
      "midi.NoteOnEvent(tick=384, channel=1, data=[74, 0])\n",
      "midi.NoteOnEvent(tick=192, channel=1, data=[71, 100])\n",
      "midi.NoteOnEvent(tick=192, channel=1, data=[71, 0])\n",
      "midi.NoteOnEvent(tick=0, channel=1, data=[76, 100])\n",
      "midi.NoteOnEvent(tick=384, channel=1, data=[76, 0])\n",
      "midi.NoteOnEvent(tick=192, channel=1, data=[76, 100])\n",
      "midi.NoteOnEvent(tick=192, channel=1, data=[76, 0])\n",
      "midi.NoteOnEvent(tick=0, channel=1, data=[81, 100])\n",
      "midi.NoteOnEvent(tick=384, channel=1, data=[81, 0])\n",
      "midi.NoteOnEvent(tick=192, channel=1, data=[76, 100])\n",
      "midi.NoteOnEvent(tick=192, channel=1, data=[76, 0])\n",
      "midi.NoteOnEvent(tick=0, channel=1, data=[77, 100])\n",
      "midi.NoteOnEvent(tick=384, channel=1, data=[77, 0])\n",
      "midi.NoteOnEvent(tick=192, channel=1, data=[74, 100])\n",
      "midi.NoteOnEvent(tick=192, channel=1, data=[74, 0])\n",
      "midi.NoteOnEvent(tick=0, channel=1, data=[76, 100])\n",
      "midi.NoteOnEvent(tick=96, channel=1, data=[76, 0])\n",
      "midi.NoteOnEvent(tick=0, channel=1, data=[74, 100])\n",
      "midi.NoteOnEvent(tick=96, channel=1, data=[74, 0])\n",
      "midi.NoteOnEvent(tick=0, channel=1, data=[72, 100])\n",
      "midi.NoteOnEvent(tick=96, channel=1, data=[72, 0])\n",
      "midi.NoteOnEvent(tick=0, channel=1, data=[76, 100])\n",
      "midi.NoteOnEvent(tick=96, channel=1, data=[76, 0])\n",
      "midi.NoteOnEvent(tick=0, channel=1, data=[74, 100])\n",
      "midi.NoteOnEvent(tick=96, channel=1, data=[74, 0])\n",
      "midi.NoteOnEvent(tick=0, channel=1, data=[72, 100])\n",
      "midi.NoteOnEvent(tick=96, channel=1, data=[72, 0])\n",
      "midi.NoteOnEvent(tick=0, channel=1, data=[71, 100])\n",
      "midi.NoteOnEvent(tick=96, channel=1, data=[71, 0])\n",
      "midi.NoteOnEvent(tick=0, channel=1, data=[74, 100])\n",
      "midi.NoteOnEvent(tick=96, channel=1, data=[74, 0])\n",
      "midi.NoteOnEvent(tick=0, channel=1, data=[72, 100])\n",
      "midi.NoteOnEvent(tick=192, channel=1, data=[72, 0])\n",
      "midi.NoteOnEvent(tick=0, channel=1, data=[69, 100])\n",
      "midi.NoteOnEvent(tick=192, channel=1, data=[69, 0])\n",
      "midi.NoteOnEvent(tick=192, channel=1, data=[72, 100])\n",
      "midi.NoteOnEvent(tick=192, channel=1, data=[72, 0])\n",
      "midi.NoteOnEvent(tick=0, channel=1, data=[72, 100])\n",
      "midi.NoteOnEvent(tick=192, channel=1, data=[72, 0])\n",
      "midi.NoteOnEvent(tick=0, channel=1, data=[72, 100])\n",
      "midi.NoteOnEvent(tick=192, channel=1, data=[72, 0])\n",
      "midi.NoteOnEvent(tick=0, channel=1, data=[71, 100])\n",
      "midi.NoteOnEvent(tick=192, channel=1, data=[71, 0])\n",
      "midi.NoteOnEvent(tick=0, channel=1, data=[71, 100])\n",
      "midi.NoteOnEvent(tick=192, channel=1, data=[71, 0])\n",
      "midi.NoteOnEvent(tick=0, channel=1, data=[71, 100])\n",
      "midi.NoteOnEvent(tick=192, channel=1, data=[71, 0])\n",
      "midi.NoteOnEvent(tick=0, channel=1, data=[71, 100])\n",
      "midi.NoteOnEvent(tick=192, channel=1, data=[71, 0])\n",
      "midi.NoteOnEvent(tick=0, channel=1, data=[71, 100])\n",
      "midi.NoteOnEvent(tick=192, channel=1, data=[71, 0])\n",
      "midi.NoteOnEvent(tick=0, channel=1, data=[71, 100])\n",
      "midi.NoteOnEvent(tick=192, channel=1, data=[71, 0])\n",
      "midi.NoteOnEvent(tick=0, channel=1, data=[70, 100])\n",
      "midi.NoteOnEvent(tick=192, channel=1, data=[70, 0])\n",
      "midi.NoteOnEvent(tick=0, channel=1, data=[70, 100])\n",
      "midi.NoteOnEvent(tick=192, channel=1, data=[70, 0])\n",
      "midi.NoteOnEvent(tick=0, channel=1, data=[69, 100])\n",
      "midi.NoteOnEvent(tick=192, channel=1, data=[69, 0])\n",
      "midi.NoteOnEvent(tick=0, channel=1, data=[69, 100])\n",
      "midi.NoteOnEvent(tick=192, channel=1, data=[69, 0])\n",
      "midi.NoteOnEvent(tick=0, channel=1, data=[69, 100])\n",
      "midi.NoteOnEvent(tick=192, channel=1, data=[69, 0])\n",
      "midi.NoteOnEvent(tick=0, channel=1, data=[69, 100])\n",
      "midi.NoteOnEvent(tick=192, channel=1, data=[69, 0])\n",
      "midi.NoteOnEvent(tick=0, channel=1, data=[69, 100])\n",
      "midi.NoteOnEvent(tick=192, channel=1, data=[69, 0])\n",
      "midi.NoteOnEvent(tick=0, channel=1, data=[69, 100])\n",
      "midi.NoteOnEvent(tick=192, channel=1, data=[69, 0])\n",
      "midi.NoteOnEvent(tick=0, channel=1, data=[68, 100])\n",
      "midi.NoteOnEvent(tick=192, channel=1, data=[68, 0])\n",
      "midi.NoteOnEvent(tick=0, channel=1, data=[68, 100])\n",
      "midi.NoteOnEvent(tick=192, channel=1, data=[68, 0])\n",
      "midi.NoteOnEvent(tick=0, channel=1, data=[67, 100])\n",
      "midi.NoteOnEvent(tick=192, channel=1, data=[67, 0])\n",
      "midi.NoteOnEvent(tick=0, channel=1, data=[67, 100])\n",
      "midi.NoteOnEvent(tick=192, channel=1, data=[67, 0])\n",
      "midi.NoteOnEvent(tick=0, channel=1, data=[67, 100])\n",
      "midi.NoteOnEvent(tick=192, channel=1, data=[67, 0])\n",
      "midi.NoteOnEvent(tick=1920, channel=1, data=[79, 100])\n",
      "midi.NoteOnEvent(tick=192, channel=1, data=[79, 0])\n",
      "midi.NoteOnEvent(tick=0, channel=1, data=[84, 100])\n",
      "midi.NoteOnEvent(tick=384, channel=1, data=[84, 0])\n",
      "midi.NoteOnEvent(tick=192, channel=1, data=[79, 100])\n",
      "midi.NoteOnEvent(tick=192, channel=1, data=[79, 0])\n",
      "midi.NoteOnEvent(tick=0, channel=1, data=[81, 100])\n",
      "midi.NoteOnEvent(tick=384, channel=1, data=[81, 0])\n",
      "midi.NoteOnEvent(tick=192, channel=1, data=[77, 100])\n",
      "midi.NoteOnEvent(tick=192, channel=1, data=[77, 0])\n",
      "midi.NoteOnEvent(tick=0, channel=1, data=[79, 100])\n",
      "midi.NoteOnEvent(tick=96, channel=1, data=[79, 0])\n",
      "midi.NoteOnEvent(tick=0, channel=1, data=[77, 100])\n",
      "midi.NoteOnEvent(tick=96, channel=1, data=[77, 0])\n",
      "midi.NoteOnEvent(tick=0, channel=1, data=[76, 100])\n",
      "midi.NoteOnEvent(tick=96, channel=1, data=[76, 0])\n",
      "midi.NoteOnEvent(tick=0, channel=1, data=[79, 100])\n",
      "midi.NoteOnEvent(tick=96, channel=1, data=[79, 0])\n",
      "midi.NoteOnEvent(tick=0, channel=1, data=[77, 100])\n",
      "midi.NoteOnEvent(tick=96, channel=1, data=[77, 0])\n",
      "midi.NoteOnEvent(tick=0, channel=1, data=[76, 100])\n",
      "midi.NoteOnEvent(tick=96, channel=1, data=[76, 0])\n",
      "midi.NoteOnEvent(tick=0, channel=1, data=[74, 100])\n",
      "midi.NoteOnEvent(tick=96, channel=1, data=[74, 0])\n",
      "midi.NoteOnEvent(tick=0, channel=1, data=[77, 100])\n",
      "midi.NoteOnEvent(tick=96, channel=1, data=[77, 0])\n",
      "midi.NoteOnEvent(tick=0, channel=1, data=[76, 100])\n",
      "midi.NoteOnEvent(tick=192, channel=1, data=[76, 0])\n",
      "midi.NoteOnEvent(tick=0, channel=1, data=[72, 100])\n",
      "midi.NoteOnEvent(tick=192, channel=1, data=[72, 0])\n",
      "midi.NoteOnEvent(tick=96, channel=1, data=[72, 100])\n",
      "midi.NoteOnEvent(tick=96, channel=1, data=[72, 0])\n",
      "midi.NoteOnEvent(tick=0, channel=1, data=[71, 100])\n",
      "midi.NoteOnEvent(tick=96, channel=1, data=[71, 0])\n",
      "midi.NoteOnEvent(tick=0, channel=1, data=[72, 100])\n",
      "midi.NoteOnEvent(tick=96, channel=1, data=[72, 0])\n",
      "midi.NoteOnEvent(tick=0, channel=1, data=[74, 100])\n",
      "midi.NoteOnEvent(tick=96, channel=1, data=[74, 0])\n",
      "midi.NoteOnEvent(tick=0, channel=1, data=[72, 100])\n",
      "midi.NoteOnEvent(tick=96, channel=1, data=[72, 0])\n",
      "midi.NoteOnEvent(tick=0, channel=1, data=[71, 100])\n",
      "midi.NoteOnEvent(tick=96, channel=1, data=[71, 0])\n",
      "midi.NoteOnEvent(tick=0, channel=1, data=[72, 100])\n",
      "midi.NoteOnEvent(tick=96, channel=1, data=[72, 0])\n",
      "midi.NoteOnEvent(tick=0, channel=1, data=[76, 100])\n",
      "midi.NoteOnEvent(tick=96, channel=1, data=[76, 0])\n",
      "midi.NoteOnEvent(tick=0, channel=1, data=[72, 100])\n",
      "midi.NoteOnEvent(tick=96, channel=1, data=[72, 0])\n",
      "midi.NoteOnEvent(tick=0, channel=1, data=[71, 100])\n",
      "midi.NoteOnEvent(tick=96, channel=1, data=[71, 0])\n",
      "midi.NoteOnEvent(tick=0, channel=1, data=[72, 100])\n",
      "midi.NoteOnEvent(tick=96, channel=1, data=[72, 0])\n",
      "midi.NoteOnEvent(tick=0, channel=1, data=[77, 100])\n",
      "midi.NoteOnEvent(tick=96, channel=1, data=[77, 0])\n",
      "midi.NoteOnEvent(tick=0, channel=1, data=[72, 100])\n",
      "midi.NoteOnEvent(tick=96, channel=1, data=[72, 0])\n",
      "midi.NoteOnEvent(tick=0, channel=1, data=[71, 100])\n",
      "midi.NoteOnEvent(tick=96, channel=1, data=[71, 0])\n",
      "midi.NoteOnEvent(tick=0, channel=1, data=[72, 100])\n",
      "midi.NoteOnEvent(tick=96, channel=1, data=[72, 0])\n",
      "midi.NoteOnEvent(tick=0, channel=1, data=[79, 100])\n",
      "midi.NoteOnEvent(tick=96, channel=1, data=[79, 0])\n",
      "midi.NoteOnEvent(tick=0, channel=1, data=[72, 100])\n",
      "midi.NoteOnEvent(tick=96, channel=1, data=[72, 0])\n",
      "midi.NoteOnEvent(tick=0, channel=1, data=[71, 100])\n",
      "midi.NoteOnEvent(tick=96, channel=1, data=[71, 0])\n",
      "midi.NoteOnEvent(tick=0, channel=1, data=[72, 100])\n",
      "midi.NoteOnEvent(tick=96, channel=1, data=[72, 0])\n",
      "midi.NoteOnEvent(tick=0, channel=1, data=[81, 100])\n",
      "midi.NoteOnEvent(tick=96, channel=1, data=[81, 0])\n",
      "midi.NoteOnEvent(tick=0, channel=1, data=[82, 100])\n",
      "midi.NoteOnEvent(tick=96, channel=1, data=[82, 0])\n",
      "midi.NoteOnEvent(tick=0, channel=1, data=[81, 100])\n",
      "midi.NoteOnEvent(tick=96, channel=1, data=[81, 0])\n",
      "midi.NoteOnEvent(tick=0, channel=1, data=[79, 100])\n",
      "midi.NoteOnEvent(tick=96, channel=1, data=[79, 0])\n",
      "midi.NoteOnEvent(tick=0, channel=1, data=[77, 100])\n",
      "midi.NoteOnEvent(tick=96, channel=1, data=[77, 0])\n",
      "midi.NoteOnEvent(tick=0, channel=1, data=[76, 100])\n",
      "midi.NoteOnEvent(tick=96, channel=1, data=[76, 0])\n",
      "midi.NoteOnEvent(tick=0, channel=1, data=[74, 100])\n",
      "midi.NoteOnEvent(tick=96, channel=1, data=[74, 0])\n",
      "midi.NoteOnEvent(tick=0, channel=1, data=[72, 100])\n",
      "midi.NoteOnEvent(tick=96, channel=1, data=[72, 0])\n",
      "midi.NoteOnEvent(tick=0, channel=1, data=[71, 100])\n",
      "midi.NoteOnEvent(tick=192, channel=1, data=[71, 0])\n",
      "midi.NoteOnEvent(tick=0, channel=1, data=[67, 100])\n",
      "midi.NoteOnEvent(tick=192, channel=1, data=[67, 0])\n",
      "midi.NoteOnEvent(tick=0, channel=1, data=[83, 100])\n",
      "midi.NoteOnEvent(tick=576, channel=1, data=[83, 0])\n",
      "midi.NoteOnEvent(tick=0, channel=1, data=[81, 100])\n",
      "midi.NoteOnEvent(tick=96, channel=1, data=[81, 0])\n",
      "midi.NoteOnEvent(tick=0, channel=1, data=[80, 100])\n",
      "midi.NoteOnEvent(tick=96, channel=1, data=[80, 0])\n",
      "midi.NoteOnEvent(tick=0, channel=1, data=[81, 100])\n",
      "midi.NoteOnEvent(tick=192, channel=1, data=[81, 0])\n",
      "midi.NoteOnEvent(tick=0, channel=1, data=[84, 100])\n",
      "midi.NoteOnEvent(tick=384, channel=1, data=[84, 0])\n",
      "midi.NoteOnEvent(tick=0, channel=1, data=[78, 100])\n",
      "midi.NoteOnEvent(tick=192, channel=1, data=[78, 0])\n",
      "midi.NoteOnEvent(tick=1344, channel=1, data=[74, 100])\n",
      "midi.NoteOnEvent(tick=192, channel=1, data=[74, 0])\n",
      "midi.NoteOnEvent(tick=0, channel=1, data=[81, 100])\n",
      "midi.NoteOnEvent(tick=576, channel=1, data=[81, 0])\n",
      "midi.NoteOnEvent(tick=0, channel=1, data=[79, 100])\n",
      "midi.NoteOnEvent(tick=96, channel=1, data=[79, 0])\n",
      "midi.NoteOnEvent(tick=0, channel=1, data=[78, 100])\n",
      "midi.NoteOnEvent(tick=96, channel=1, data=[78, 0])\n",
      "midi.NoteOnEvent(tick=0, channel=1, data=[79, 100])\n",
      "midi.NoteOnEvent(tick=192, channel=1, data=[79, 0])\n",
      "midi.NoteOnEvent(tick=0, channel=1, data=[83, 100])\n",
      "midi.NoteOnEvent(tick=384, channel=1, data=[83, 0])\n",
      "midi.NoteOnEvent(tick=0, channel=1, data=[76, 100])\n",
      "midi.NoteOnEvent(tick=192, channel=1, data=[76, 0])\n",
      "midi.NoteOnEvent(tick=1344, channel=1, data=[76, 100])\n",
      "midi.NoteOnEvent(tick=96, channel=1, data=[76, 0])\n",
      "midi.NoteOnEvent(tick=0, channel=1, data=[75, 100])\n",
      "midi.NoteOnEvent(tick=96, channel=1, data=[75, 0])\n",
      "midi.NoteOnEvent(tick=0, channel=1, data=[76, 100])\n",
      "midi.NoteOnEvent(tick=576, channel=1, data=[76, 0])\n",
      "midi.NoteOnEvent(tick=0, channel=1, data=[78, 100])\n",
      "midi.NoteOnEvent(tick=96, channel=1, data=[78, 0])\n",
      "midi.NoteOnEvent(tick=0, channel=1, data=[79, 100])\n",
      "midi.NoteOnEvent(tick=96, channel=1, data=[79, 0])\n",
      "midi.NoteOnEvent(tick=0, channel=1, data=[81, 100])\n",
      "midi.NoteOnEvent(tick=192, channel=1, data=[81, 0])\n",
      "midi.NoteOnEvent(tick=0, channel=1, data=[72, 100])\n",
      "midi.NoteOnEvent(tick=192, channel=1, data=[72, 0])\n",
      "midi.NoteOnEvent(tick=0, channel=1, data=[71, 100])\n",
      "midi.NoteOnEvent(tick=192, channel=1, data=[71, 0])\n",
      "midi.NoteOnEvent(tick=0, channel=1, data=[81, 100])\n",
      "midi.NoteOnEvent(tick=192, channel=1, data=[81, 0])\n",
      "midi.NoteOnEvent(tick=0, channel=1, data=[79, 100])\n",
      "midi.NoteOnEvent(tick=192, channel=1, data=[79, 0])\n",
      "midi.NoteOnEvent(tick=0, channel=1, data=[71, 100])\n",
      "midi.NoteOnEvent(tick=192, channel=1, data=[71, 0])\n",
      "midi.NoteOnEvent(tick=0, channel=1, data=[69, 100])\n",
      "midi.NoteOnEvent(tick=96, channel=1, data=[69, 0])\n",
      "midi.NoteOnEvent(tick=0, channel=1, data=[71, 100])\n",
      "midi.NoteOnEvent(tick=96, channel=1, data=[71, 0])\n",
      "midi.NoteOnEvent(tick=0, channel=1, data=[72, 100])\n",
      "midi.NoteOnEvent(tick=96, channel=1, data=[72, 0])\n",
      "midi.NoteOnEvent(tick=0, channel=1, data=[71, 100])\n",
      "midi.NoteOnEvent(tick=96, channel=1, data=[71, 0])\n",
      "midi.NoteOnEvent(tick=0, channel=1, data=[69, 100])\n",
      "midi.NoteOnEvent(tick=96, channel=1, data=[69, 0])\n",
      "midi.NoteOnEvent(tick=0, channel=1, data=[67, 100])\n",
      "midi.NoteOnEvent(tick=96, channel=1, data=[67, 0])\n",
      "midi.NoteOnEvent(tick=0, channel=1, data=[66, 100])\n",
      "midi.NoteOnEvent(tick=96, channel=1, data=[66, 0])\n",
      "midi.NoteOnEvent(tick=0, channel=1, data=[64, 100])\n",
      "midi.NoteOnEvent(tick=96, channel=1, data=[64, 0])\n",
      "midi.NoteOnEvent(tick=0, channel=1, data=[63, 100])\n",
      "midi.NoteOnEvent(tick=192, channel=1, data=[63, 0])\n",
      "midi.NoteOnEvent(tick=0, channel=1, data=[72, 100])\n",
      "midi.NoteOnEvent(tick=192, channel=1, data=[72, 0])\n",
      "midi.NoteOnEvent(tick=0, channel=1, data=[71, 100])\n",
      "midi.NoteOnEvent(tick=192, channel=1, data=[71, 0])\n",
      "midi.NoteOnEvent(tick=0, channel=1, data=[76, 100])\n",
      "midi.NoteOnEvent(tick=192, channel=1, data=[76, 0])\n",
      "midi.NoteOnEvent(tick=0, channel=1, data=[79, 100])\n",
      "midi.NoteOnEvent(tick=384, channel=1, data=[79, 0])\n",
      "midi.NoteOnEvent(tick=0, channel=1, data=[78, 100])\n",
      "midi.NoteOnEvent(tick=48, channel=1, data=[78, 0])\n",
      "midi.NoteOnEvent(tick=0, channel=1, data=[79, 100])\n",
      "midi.NoteOnEvent(tick=48, channel=1, data=[79, 0])\n",
      "midi.NoteOnEvent(tick=0, channel=1, data=[78, 100])\n",
      "midi.NoteOnEvent(tick=48, channel=1, data=[78, 0])\n",
      "midi.NoteOnEvent(tick=0, channel=1, data=[79, 100])\n",
      "midi.NoteOnEvent(tick=48, channel=1, data=[79, 0])\n",
      "midi.NoteOnEvent(tick=0, channel=1, data=[78, 100])\n",
      "midi.NoteOnEvent(tick=48, channel=1, data=[78, 0])\n",
      "midi.NoteOnEvent(tick=0, channel=1, data=[79, 100])\n",
      "midi.NoteOnEvent(tick=48, channel=1, data=[79, 0])\n",
      "midi.NoteOnEvent(tick=0, channel=1, data=[78, 100])\n",
      "midi.NoteOnEvent(tick=48, channel=1, data=[78, 0])\n",
      "midi.NoteOnEvent(tick=0, channel=1, data=[79, 100])\n",
      "midi.NoteOnEvent(tick=48, channel=1, data=[79, 0])\n",
      "midi.NoteOnEvent(tick=0, channel=1, data=[78, 100])\n",
      "midi.NoteOnEvent(tick=384, channel=1, data=[78, 0])\n",
      "midi.NoteOnEvent(tick=384, channel=1, data=[81, 100])\n",
      "midi.NoteOnEvent(tick=384, channel=1, data=[81, 0])\n",
      "midi.NoteOnEvent(tick=384, channel=1, data=[84, 100])\n",
      "midi.NoteOnEvent(tick=384, channel=1, data=[84, 0])\n",
      "midi.NoteOnEvent(tick=384, channel=1, data=[69, 100])\n",
      "midi.NoteOnEvent(tick=384, channel=1, data=[69, 0])\n",
      "midi.NoteOnEvent(tick=384, channel=1, data=[69, 100])\n",
      "midi.NoteOnEvent(tick=768, channel=1, data=[69, 0])\n",
      "midi.NoteOnEvent(tick=96, channel=1, data=[71, 100])\n",
      "midi.NoteOnEvent(tick=96, channel=1, data=[71, 0])\n",
      "midi.NoteOnEvent(tick=0, channel=1, data=[73, 100])\n",
      "midi.NoteOnEvent(tick=96, channel=1, data=[73, 0])\n",
      "midi.NoteOnEvent(tick=0, channel=1, data=[75, 100])\n",
      "midi.NoteOnEvent(tick=96, channel=1, data=[75, 0])\n",
      "midi.NoteOnEvent(tick=0, channel=1, data=[76, 100])\n",
      "midi.NoteOnEvent(tick=96, channel=1, data=[76, 0])\n",
      "midi.NoteOnEvent(tick=0, channel=1, data=[78, 100])\n",
      "midi.NoteOnEvent(tick=96, channel=1, data=[78, 0])\n",
      "midi.NoteOnEvent(tick=0, channel=1, data=[79, 100])\n",
      "midi.NoteOnEvent(tick=96, channel=1, data=[79, 0])\n",
      "midi.NoteOnEvent(tick=0, channel=1, data=[81, 100])\n",
      "midi.NoteOnEvent(tick=96, channel=1, data=[81, 0])\n",
      "midi.NoteOnEvent(tick=0, channel=1, data=[83, 100])\n",
      "midi.NoteOnEvent(tick=192, channel=1, data=[83, 0])\n",
      "midi.NoteOnEvent(tick=0, channel=1, data=[76, 100])\n",
      "midi.NoteOnEvent(tick=192, channel=1, data=[76, 0])\n",
      "midi.NoteOnEvent(tick=0, channel=1, data=[78, 100])\n",
      "midi.NoteOnEvent(tick=192, channel=1, data=[78, 0])\n",
      "midi.NoteOnEvent(tick=0, channel=1, data=[75, 100])\n",
      "midi.NoteOnEvent(tick=192, channel=1, data=[75, 0])\n",
      "midi.NoteOnEvent(tick=0, channel=1, data=[76, 100])\n",
      "midi.NoteOnEvent(tick=96, channel=1, data=[76, 0])\n",
      "midi.NoteOnEvent(tick=0, channel=1, data=[74, 100])\n",
      "midi.NoteOnEvent(tick=96, channel=1, data=[74, 0])\n",
      "midi.NoteOnEvent(tick=0, channel=1, data=[72, 100])\n",
      "midi.NoteOnEvent(tick=96, channel=1, data=[72, 0])\n",
      "midi.NoteOnEvent(tick=0, channel=1, data=[71, 100])\n",
      "midi.NoteOnEvent(tick=96, channel=1, data=[71, 0])\n",
      "midi.NoteOnEvent(tick=0, channel=1, data=[69, 100])\n",
      "midi.NoteOnEvent(tick=192, channel=1, data=[69, 0])\n",
      "midi.NoteOnEvent(tick=0, channel=1, data=[69, 100])\n",
      "midi.NoteOnEvent(tick=192, channel=1, data=[69, 0])\n",
      "midi.NoteOnEvent(tick=0, channel=1, data=[69, 100])\n",
      "midi.NoteOnEvent(tick=96, channel=1, data=[69, 0])\n",
      "midi.NoteOnEvent(tick=0, channel=1, data=[71, 100])\n",
      "midi.NoteOnEvent(tick=96, channel=1, data=[71, 0])\n",
      "midi.NoteOnEvent(tick=0, channel=1, data=[72, 100])\n",
      "midi.NoteOnEvent(tick=288, channel=1, data=[72, 0])\n",
      "midi.NoteOnEvent(tick=0, channel=1, data=[71, 100])\n",
      "midi.NoteOnEvent(tick=96, channel=1, data=[71, 0])\n",
      "midi.NoteOnEvent(tick=0, channel=1, data=[69, 100])\n",
      "midi.NoteOnEvent(tick=96, channel=1, data=[69, 0])\n",
      "midi.NoteOnEvent(tick=0, channel=1, data=[67, 100])\n",
      "midi.NoteOnEvent(tick=96, channel=1, data=[67, 0])\n",
      "midi.NoteOnEvent(tick=0, channel=1, data=[66, 100])\n",
      "midi.NoteOnEvent(tick=96, channel=1, data=[66, 0])\n",
      "midi.NoteOnEvent(tick=0, channel=1, data=[67, 100])\n",
      "midi.NoteOnEvent(tick=96, channel=1, data=[67, 0])\n",
      "midi.NoteOnEvent(tick=0, channel=1, data=[69, 100])\n",
      "midi.NoteOnEvent(tick=288, channel=1, data=[69, 0])\n",
      "midi.NoteOnEvent(tick=0, channel=1, data=[67, 100])\n",
      "midi.NoteOnEvent(tick=96, channel=1, data=[67, 0])\n",
      "midi.NoteOnEvent(tick=0, channel=1, data=[66, 100])\n",
      "midi.NoteOnEvent(tick=96, channel=1, data=[66, 0])\n",
      "midi.NoteOnEvent(tick=0, channel=1, data=[64, 100])\n",
      "midi.NoteOnEvent(tick=96, channel=1, data=[64, 0])\n",
      "midi.NoteOnEvent(tick=0, channel=1, data=[63, 100])\n",
      "midi.NoteOnEvent(tick=192, channel=1, data=[63, 0])\n",
      "midi.NoteOnEvent(tick=0, channel=1, data=[71, 100])\n",
      "midi.NoteOnEvent(tick=192, channel=1, data=[71, 0])\n",
      "midi.NoteOnEvent(tick=0, channel=1, data=[67, 100])\n",
      "midi.NoteOnEvent(tick=192, channel=1, data=[67, 0])\n",
      "midi.NoteOnEvent(tick=0, channel=1, data=[66, 100])\n",
      "midi.NoteOnEvent(tick=96, channel=1, data=[66, 0])\n",
      "midi.NoteOnEvent(tick=0, channel=1, data=[64, 100])\n",
      "midi.NoteOnEvent(tick=96, channel=1, data=[64, 0])\n",
      "midi.NoteOnEvent(tick=0, channel=1, data=[64, 100])\n",
      "midi.NoteOnEvent(tick=384, channel=1, data=[64, 0])\n",
      "midi.NoteOnEvent(tick=576, channel=1, data=[71, 100])\n",
      "midi.NoteOnEvent(tick=192, channel=1, data=[71, 0])\n",
      "midi.NoteOnEvent(tick=0, channel=1, data=[76, 100])\n",
      "midi.NoteOnEvent(tick=192, channel=1, data=[76, 0])\n",
      "midi.NoteOnEvent(tick=384, channel=1, data=[75, 100])\n",
      "midi.NoteOnEvent(tick=96, channel=1, data=[75, 0])\n",
      "midi.NoteOnEvent(tick=0, channel=1, data=[76, 100])\n",
      "midi.NoteOnEvent(tick=96, channel=1, data=[76, 0])\n",
      "midi.NoteOnEvent(tick=0, channel=1, data=[78, 100])\n",
      "midi.NoteOnEvent(tick=192, channel=1, data=[78, 0])\n",
      "midi.NoteOnEvent(tick=384, channel=1, data=[71, 100])\n",
      "midi.NoteOnEvent(tick=192, channel=1, data=[71, 0])\n",
      "midi.NoteOnEvent(tick=0, channel=1, data=[78, 100])\n",
      "midi.NoteOnEvent(tick=192, channel=1, data=[78, 0])\n",
      "midi.NoteOnEvent(tick=384, channel=1, data=[76, 100])\n",
      "midi.NoteOnEvent(tick=96, channel=1, data=[76, 0])\n",
      "midi.NoteOnEvent(tick=0, channel=1, data=[78, 100])\n",
      "midi.NoteOnEvent(tick=96, channel=1, data=[78, 0])\n",
      "midi.NoteOnEvent(tick=0, channel=1, data=[79, 100])\n",
      "midi.NoteOnEvent(tick=192, channel=1, data=[79, 0])\n",
      "midi.NoteOnEvent(tick=0, channel=1, data=[76, 100])\n",
      "midi.NoteOnEvent(tick=192, channel=1, data=[76, 0])\n",
      "midi.NoteOnEvent(tick=0, channel=1, data=[78, 100])\n",
      "midi.NoteOnEvent(tick=384, channel=1, data=[78, 0])\n",
      "midi.NoteOnEvent(tick=0, channel=1, data=[80, 100])\n",
      "midi.NoteOnEvent(tick=384, channel=1, data=[80, 0])\n",
      "midi.NoteOnEvent(tick=0, channel=1, data=[81, 100])\n",
      "midi.NoteOnEvent(tick=384, channel=1, data=[81, 0])\n",
      "midi.NoteOnEvent(tick=0, channel=1, data=[83, 100])\n",
      "midi.NoteOnEvent(tick=384, channel=1, data=[83, 0])\n",
      "midi.NoteOnEvent(tick=0, channel=1, data=[84, 100])\n",
      "midi.NoteOnEvent(tick=192, channel=1, data=[84, 0])\n",
      "midi.NoteOnEvent(tick=0, channel=1, data=[76, 100])\n",
      "midi.NoteOnEvent(tick=192, channel=1, data=[76, 0])\n",
      "midi.NoteOnEvent(tick=0, channel=1, data=[73, 100])\n",
      "midi.NoteOnEvent(tick=384, channel=1, data=[73, 0])\n",
      "midi.NoteOnEvent(tick=0, channel=1, data=[74, 100])\n",
      "midi.NoteOnEvent(tick=384, channel=1, data=[74, 0])\n",
      "midi.NoteOnEvent(tick=0, channel=1, data=[76, 100])\n",
      "midi.NoteOnEvent(tick=384, channel=1, data=[76, 0])\n",
      "midi.NoteOnEvent(tick=0, channel=1, data=[77, 100])\n",
      "midi.NoteOnEvent(tick=192, channel=1, data=[77, 0])\n",
      "midi.NoteOnEvent(tick=0, channel=1, data=[69, 100])\n",
      "midi.NoteOnEvent(tick=192, channel=1, data=[69, 0])\n",
      "midi.NoteOnEvent(tick=0, channel=1, data=[66, 100])\n",
      "midi.NoteOnEvent(tick=384, channel=1, data=[66, 0])\n",
      "midi.NoteOnEvent(tick=0, channel=1, data=[67, 100])\n",
      "midi.NoteOnEvent(tick=384, channel=1, data=[67, 0])\n",
      "midi.NoteOnEvent(tick=0, channel=1, data=[69, 100])\n",
      "midi.NoteOnEvent(tick=384, channel=1, data=[69, 0])\n",
      "midi.NoteOnEvent(tick=0, channel=1, data=[71, 100])\n",
      "midi.NoteOnEvent(tick=384, channel=1, data=[71, 0])\n",
      "midi.NoteOnEvent(tick=0, channel=1, data=[71, 100])\n",
      "midi.NoteOnEvent(tick=384, channel=1, data=[71, 0])\n",
      "midi.NoteOnEvent(tick=0, channel=1, data=[72, 100])\n",
      "midi.NoteOnEvent(tick=384, channel=1, data=[72, 0])\n",
      "midi.NoteOnEvent(tick=0, channel=1, data=[74, 100])\n",
      "midi.NoteOnEvent(tick=384, channel=1, data=[74, 0])\n",
      "midi.NoteOnEvent(tick=0, channel=1, data=[76, 100])\n",
      "midi.NoteOnEvent(tick=384, channel=1, data=[76, 0])\n",
      "midi.NoteOnEvent(tick=0, channel=1, data=[76, 100])\n",
      "midi.NoteOnEvent(tick=384, channel=1, data=[76, 0])\n",
      "midi.NoteOnEvent(tick=0, channel=1, data=[77, 100])\n",
      "midi.NoteOnEvent(tick=384, channel=1, data=[77, 0])\n",
      "midi.NoteOnEvent(tick=0, channel=1, data=[79, 100])\n",
      "midi.NoteOnEvent(tick=384, channel=1, data=[79, 0])\n",
      "midi.NoteOnEvent(tick=0, channel=1, data=[81, 100])\n",
      "midi.NoteOnEvent(tick=384, channel=1, data=[81, 0])\n",
      "midi.NoteOnEvent(tick=1728, channel=1, data=[69, 100])\n",
      "midi.NoteOnEvent(tick=192, channel=1, data=[69, 0])\n",
      "midi.NoteOnEvent(tick=0, channel=1, data=[74, 100])\n",
      "midi.NoteOnEvent(tick=384, channel=1, data=[74, 0])\n",
      "midi.NoteOnEvent(tick=192, channel=1, data=[69, 100])\n",
      "midi.NoteOnEvent(tick=192, channel=1, data=[69, 0])\n",
      "midi.NoteOnEvent(tick=0, channel=1, data=[70, 100])\n",
      "midi.NoteOnEvent(tick=384, channel=1, data=[70, 0])\n",
      "midi.NoteOnEvent(tick=192, channel=1, data=[67, 100])\n",
      "midi.NoteOnEvent(tick=192, channel=1, data=[67, 0])\n",
      "midi.NoteOnEvent(tick=0, channel=1, data=[69, 100])\n",
      "midi.NoteOnEvent(tick=96, channel=1, data=[69, 0])\n",
      "midi.NoteOnEvent(tick=0, channel=1, data=[67, 100])\n",
      "midi.NoteOnEvent(tick=96, channel=1, data=[67, 0])\n",
      "midi.NoteOnEvent(tick=0, channel=1, data=[65, 100])\n",
      "midi.NoteOnEvent(tick=96, channel=1, data=[65, 0])\n",
      "midi.NoteOnEvent(tick=0, channel=1, data=[69, 100])\n",
      "midi.NoteOnEvent(tick=96, channel=1, data=[69, 0])\n",
      "midi.NoteOnEvent(tick=0, channel=1, data=[67, 100])\n",
      "midi.NoteOnEvent(tick=96, channel=1, data=[67, 0])\n",
      "midi.NoteOnEvent(tick=0, channel=1, data=[65, 100])\n",
      "midi.NoteOnEvent(tick=96, channel=1, data=[65, 0])\n",
      "midi.NoteOnEvent(tick=0, channel=1, data=[64, 100])\n",
      "midi.NoteOnEvent(tick=96, channel=1, data=[64, 0])\n",
      "midi.NoteOnEvent(tick=0, channel=1, data=[67, 100])\n",
      "midi.NoteOnEvent(tick=96, channel=1, data=[67, 0])\n",
      "midi.NoteOnEvent(tick=0, channel=1, data=[65, 100])\n",
      "midi.NoteOnEvent(tick=192, channel=1, data=[65, 0])\n",
      "midi.NoteOnEvent(tick=0, channel=1, data=[62, 100])\n",
      "midi.NoteOnEvent(tick=192, channel=1, data=[62, 0])\n",
      "midi.NoteOnEvent(tick=0, channel=1, data=[72, 100])\n",
      "midi.NoteOnEvent(tick=2112, channel=1, data=[72, 0])\n",
      "midi.NoteOnEvent(tick=0, channel=1, data=[69, 100])\n",
      "midi.NoteOnEvent(tick=192, channel=1, data=[69, 0])\n",
      "midi.NoteOnEvent(tick=0, channel=1, data=[65, 100])\n",
      "midi.NoteOnEvent(tick=192, channel=1, data=[65, 0])\n",
      "midi.NoteOnEvent(tick=0, channel=1, data=[70, 100])\n"
     ]
    },
    {
     "name": "stdout",
     "output_type": "stream",
     "text": [
      "midi.NoteOnEvent(tick=192, channel=1, data=[70, 0])\n",
      "midi.NoteOnEvent(tick=0, channel=1, data=[72, 100])\n",
      "midi.NoteOnEvent(tick=1728, channel=1, data=[72, 0])\n",
      "midi.NoteOnEvent(tick=0, channel=1, data=[72, 100])\n",
      "midi.NoteOnEvent(tick=192, channel=1, data=[72, 0])\n",
      "midi.NoteOnEvent(tick=0, channel=1, data=[69, 100])\n",
      "midi.NoteOnEvent(tick=192, channel=1, data=[69, 0])\n",
      "midi.NoteOnEvent(tick=0, channel=1, data=[65, 100])\n",
      "midi.NoteOnEvent(tick=192, channel=1, data=[65, 0])\n",
      "midi.NoteOnEvent(tick=0, channel=1, data=[70, 100])\n",
      "midi.NoteOnEvent(tick=192, channel=1, data=[70, 0])\n",
      "midi.NoteOnEvent(tick=0, channel=1, data=[74, 100])\n",
      "midi.NoteOnEvent(tick=192, channel=1, data=[74, 0])\n",
      "midi.NoteOnEvent(tick=0, channel=1, data=[74, 100])\n",
      "midi.NoteOnEvent(tick=192, channel=1, data=[74, 0])\n",
      "midi.NoteOnEvent(tick=0, channel=1, data=[74, 100])\n",
      "midi.NoteOnEvent(tick=192, channel=1, data=[74, 0])\n",
      "midi.NoteOnEvent(tick=0, channel=1, data=[74, 100])\n",
      "midi.NoteOnEvent(tick=192, channel=1, data=[74, 0])\n",
      "midi.NoteOnEvent(tick=0, channel=1, data=[74, 100])\n",
      "midi.NoteOnEvent(tick=192, channel=1, data=[74, 0])\n",
      "midi.NoteOnEvent(tick=0, channel=1, data=[74, 100])\n",
      "midi.NoteOnEvent(tick=192, channel=1, data=[74, 0])\n",
      "midi.NoteOnEvent(tick=0, channel=1, data=[74, 100])\n",
      "midi.NoteOnEvent(tick=192, channel=1, data=[74, 0])\n",
      "midi.NoteOnEvent(tick=0, channel=1, data=[74, 100])\n",
      "midi.NoteOnEvent(tick=192, channel=1, data=[74, 0])\n",
      "midi.NoteOnEvent(tick=0, channel=1, data=[79, 100])\n",
      "midi.NoteOnEvent(tick=96, channel=1, data=[79, 0])\n",
      "midi.NoteOnEvent(tick=0, channel=1, data=[81, 100])\n",
      "midi.NoteOnEvent(tick=96, channel=1, data=[81, 0])\n",
      "midi.NoteOnEvent(tick=0, channel=1, data=[79, 100])\n",
      "midi.NoteOnEvent(tick=96, channel=1, data=[79, 0])\n",
      "midi.NoteOnEvent(tick=0, channel=1, data=[77, 100])\n",
      "midi.NoteOnEvent(tick=96, channel=1, data=[77, 0])\n",
      "midi.NoteOnEvent(tick=0, channel=1, data=[76, 100])\n",
      "midi.NoteOnEvent(tick=96, channel=1, data=[76, 0])\n",
      "midi.NoteOnEvent(tick=0, channel=1, data=[74, 100])\n",
      "midi.NoteOnEvent(tick=96, channel=1, data=[74, 0])\n",
      "midi.NoteOnEvent(tick=0, channel=1, data=[73, 100])\n",
      "midi.NoteOnEvent(tick=192, channel=1, data=[73, 0])\n",
      "midi.NoteOnEvent(tick=0, channel=1, data=[73, 100])\n",
      "midi.NoteOnEvent(tick=192, channel=1, data=[73, 0])\n",
      "midi.NoteOnEvent(tick=0, channel=1, data=[73, 100])\n",
      "midi.NoteOnEvent(tick=192, channel=1, data=[73, 0])\n",
      "midi.NoteOnEvent(tick=0, channel=1, data=[73, 100])\n",
      "midi.NoteOnEvent(tick=192, channel=1, data=[73, 0])\n",
      "midi.NoteOnEvent(tick=0, channel=1, data=[73, 100])\n",
      "midi.NoteOnEvent(tick=192, channel=1, data=[73, 0])\n",
      "midi.NoteOnEvent(tick=0, channel=1, data=[73, 100])\n",
      "midi.NoteOnEvent(tick=192, channel=1, data=[73, 0])\n",
      "midi.NoteOnEvent(tick=0, channel=1, data=[73, 100])\n",
      "midi.NoteOnEvent(tick=192, channel=1, data=[73, 0])\n",
      "midi.NoteOnEvent(tick=0, channel=1, data=[73, 100])\n",
      "midi.NoteOnEvent(tick=192, channel=1, data=[73, 0])\n",
      "midi.NoteOnEvent(tick=0, channel=1, data=[74, 100])\n",
      "midi.NoteOnEvent(tick=192, channel=1, data=[74, 0])\n",
      "midi.NoteOnEvent(tick=0, channel=1, data=[69, 100])\n",
      "midi.NoteOnEvent(tick=192, channel=1, data=[69, 0])\n",
      "midi.NoteOnEvent(tick=0, channel=1, data=[77, 100])\n",
      "midi.NoteOnEvent(tick=576, channel=1, data=[77, 0])\n",
      "midi.NoteOnEvent(tick=0, channel=1, data=[79, 100])\n",
      "midi.NoteOnEvent(tick=96, channel=1, data=[79, 0])\n",
      "midi.NoteOnEvent(tick=0, channel=1, data=[81, 100])\n",
      "midi.NoteOnEvent(tick=96, channel=1, data=[81, 0])\n",
      "midi.NoteOnEvent(tick=0, channel=1, data=[79, 100])\n",
      "midi.NoteOnEvent(tick=192, channel=1, data=[79, 0])\n",
      "midi.NoteOnEvent(tick=0, channel=1, data=[77, 100])\n",
      "midi.NoteOnEvent(tick=192, channel=1, data=[77, 0])\n",
      "midi.NoteOnEvent(tick=0, channel=1, data=[76, 100])\n",
      "midi.NoteOnEvent(tick=192, channel=1, data=[76, 0])\n",
      "midi.NoteOnEvent(tick=0, channel=1, data=[67, 100])\n",
      "midi.NoteOnEvent(tick=192, channel=1, data=[67, 0])\n",
      "midi.NoteOnEvent(tick=0, channel=1, data=[76, 100])\n",
      "midi.NoteOnEvent(tick=576, channel=1, data=[76, 0])\n",
      "midi.NoteOnEvent(tick=0, channel=1, data=[77, 100])\n",
      "midi.NoteOnEvent(tick=96, channel=1, data=[77, 0])\n",
      "midi.NoteOnEvent(tick=0, channel=1, data=[79, 100])\n",
      "midi.NoteOnEvent(tick=96, channel=1, data=[79, 0])\n",
      "midi.NoteOnEvent(tick=0, channel=1, data=[77, 100])\n",
      "midi.NoteOnEvent(tick=192, channel=1, data=[77, 0])\n",
      "midi.NoteOnEvent(tick=0, channel=1, data=[76, 100])\n",
      "midi.NoteOnEvent(tick=192, channel=1, data=[76, 0])\n",
      "midi.NoteOnEvent(tick=0, channel=1, data=[74, 100])\n",
      "midi.NoteOnEvent(tick=192, channel=1, data=[74, 0])\n",
      "midi.NoteOnEvent(tick=0, channel=1, data=[68, 100])\n",
      "midi.NoteOnEvent(tick=192, channel=1, data=[68, 0])\n",
      "midi.NoteOnEvent(tick=0, channel=1, data=[74, 100])\n",
      "midi.NoteOnEvent(tick=576, channel=1, data=[74, 0])\n",
      "midi.NoteOnEvent(tick=0, channel=1, data=[72, 100])\n",
      "midi.NoteOnEvent(tick=192, channel=1, data=[72, 0])\n",
      "midi.NoteOnEvent(tick=0, channel=1, data=[71, 100])\n",
      "midi.NoteOnEvent(tick=192, channel=1, data=[71, 0])\n",
      "midi.NoteOnEvent(tick=0, channel=1, data=[69, 100])\n",
      "midi.NoteOnEvent(tick=0, channel=1, data=[76, 100])\n",
      "midi.NoteOnEvent(tick=192, channel=1, data=[76, 0])\n",
      "midi.NoteOnEvent(tick=0, channel=1, data=[69, 0])\n",
      "midi.NoteOnEvent(tick=0, channel=1, data=[81, 100])\n",
      "midi.NoteOnEvent(tick=384, channel=1, data=[81, 0])\n",
      "midi.NoteOnEvent(tick=192, channel=1, data=[76, 100])\n",
      "midi.NoteOnEvent(tick=192, channel=1, data=[76, 0])\n",
      "midi.NoteOnEvent(tick=0, channel=1, data=[77, 100])\n",
      "midi.NoteOnEvent(tick=384, channel=1, data=[77, 0])\n",
      "midi.NoteOnEvent(tick=192, channel=1, data=[74, 100])\n",
      "midi.NoteOnEvent(tick=192, channel=1, data=[74, 0])\n",
      "midi.NoteOnEvent(tick=0, channel=1, data=[76, 100])\n",
      "midi.NoteOnEvent(tick=96, channel=1, data=[76, 0])\n",
      "midi.NoteOnEvent(tick=0, channel=1, data=[74, 100])\n",
      "midi.NoteOnEvent(tick=96, channel=1, data=[74, 0])\n",
      "midi.NoteOnEvent(tick=0, channel=1, data=[72, 100])\n",
      "midi.NoteOnEvent(tick=96, channel=1, data=[72, 0])\n",
      "midi.NoteOnEvent(tick=0, channel=1, data=[76, 100])\n",
      "midi.NoteOnEvent(tick=96, channel=1, data=[76, 0])\n",
      "midi.NoteOnEvent(tick=0, channel=1, data=[74, 100])\n",
      "midi.NoteOnEvent(tick=96, channel=1, data=[74, 0])\n",
      "midi.NoteOnEvent(tick=0, channel=1, data=[72, 100])\n",
      "midi.NoteOnEvent(tick=96, channel=1, data=[72, 0])\n",
      "midi.NoteOnEvent(tick=0, channel=1, data=[71, 100])\n",
      "midi.NoteOnEvent(tick=96, channel=1, data=[71, 0])\n",
      "midi.NoteOnEvent(tick=0, channel=1, data=[74, 100])\n",
      "midi.NoteOnEvent(tick=96, channel=1, data=[74, 0])\n",
      "midi.NoteOnEvent(tick=0, channel=1, data=[72, 100])\n",
      "midi.NoteOnEvent(tick=192, channel=1, data=[72, 0])\n",
      "midi.NoteOnEvent(tick=0, channel=1, data=[69, 100])\n",
      "midi.NoteOnEvent(tick=192, channel=1, data=[69, 0])\n",
      "midi.NoteOnEvent(tick=960, channel=1, data=[76, 100])\n",
      "midi.NoteOnEvent(tick=192, channel=1, data=[76, 0])\n",
      "midi.NoteOnEvent(tick=0, channel=1, data=[69, 100])\n",
      "midi.NoteOnEvent(tick=192, channel=1, data=[69, 0])\n",
      "midi.NoteOnEvent(tick=0, channel=1, data=[74, 100])\n",
      "midi.NoteOnEvent(tick=192, channel=1, data=[74, 0])\n",
      "midi.NoteOnEvent(tick=0, channel=1, data=[67, 100])\n",
      "midi.NoteOnEvent(tick=192, channel=1, data=[67, 0])\n",
      "midi.NoteOnEvent(tick=0, channel=1, data=[73, 100])\n",
      "midi.NoteOnEvent(tick=192, channel=1, data=[73, 0])\n",
      "midi.NoteOnEvent(tick=0, channel=1, data=[74, 100])\n",
      "midi.NoteOnEvent(tick=96, channel=1, data=[74, 0])\n",
      "midi.NoteOnEvent(tick=0, channel=1, data=[65, 100])\n",
      "midi.NoteOnEvent(tick=96, channel=1, data=[65, 0])\n",
      "midi.NoteOnEvent(tick=0, channel=1, data=[64, 100])\n",
      "midi.NoteOnEvent(tick=96, channel=1, data=[64, 0])\n",
      "midi.NoteOnEvent(tick=0, channel=1, data=[65, 100])\n",
      "midi.NoteOnEvent(tick=96, channel=1, data=[65, 0])\n",
      "midi.NoteOnEvent(tick=0, channel=1, data=[62, 100])\n",
      "midi.NoteOnEvent(tick=576, channel=1, data=[62, 0])\n",
      "midi.NoteOnEvent(tick=0, channel=1, data=[67, 100])\n",
      "midi.NoteOnEvent(tick=192, channel=1, data=[67, 0])\n",
      "midi.NoteOnEvent(tick=0, channel=1, data=[60, 100])\n",
      "midi.NoteOnEvent(tick=192, channel=1, data=[60, 0])\n",
      "midi.NoteOnEvent(tick=0, channel=1, data=[66, 100])\n",
      "midi.NoteOnEvent(tick=192, channel=1, data=[66, 0])\n",
      "midi.NoteOnEvent(tick=0, channel=1, data=[67, 100])\n",
      "midi.NoteOnEvent(tick=96, channel=1, data=[67, 0])\n",
      "midi.NoteOnEvent(tick=0, channel=1, data=[58, 100])\n",
      "midi.NoteOnEvent(tick=96, channel=1, data=[58, 0])\n",
      "midi.NoteOnEvent(tick=0, channel=1, data=[57, 100])\n",
      "midi.NoteOnEvent(tick=96, channel=1, data=[57, 0])\n",
      "midi.NoteOnEvent(tick=0, channel=1, data=[58, 100])\n",
      "midi.NoteOnEvent(tick=96, channel=1, data=[58, 0])\n",
      "midi.NoteOnEvent(tick=0, channel=1, data=[55, 100])\n",
      "midi.NoteOnEvent(tick=576, channel=1, data=[55, 0])\n",
      "midi.NoteOnEvent(tick=0, channel=1, data=[72, 100])\n",
      "midi.NoteOnEvent(tick=192, channel=1, data=[72, 0])\n",
      "midi.NoteOnEvent(tick=0, channel=1, data=[65, 100])\n",
      "midi.NoteOnEvent(tick=192, channel=1, data=[65, 0])\n",
      "midi.NoteOnEvent(tick=0, channel=1, data=[71, 100])\n",
      "midi.NoteOnEvent(tick=192, channel=1, data=[71, 0])\n",
      "midi.NoteOnEvent(tick=0, channel=1, data=[72, 100])\n",
      "midi.NoteOnEvent(tick=384, channel=1, data=[72, 0])\n",
      "midi.NoteOnEvent(tick=0, channel=1, data=[79, 100])\n",
      "midi.NoteOnEvent(tick=384, channel=1, data=[79, 0])\n",
      "midi.NoteOnEvent(tick=0, channel=1, data=[77, 100])\n",
      "midi.NoteOnEvent(tick=384, channel=1, data=[77, 0])\n",
      "midi.NoteOnEvent(tick=0, channel=1, data=[76, 100])\n",
      "midi.NoteOnEvent(tick=384, channel=1, data=[76, 0])\n",
      "midi.NoteOnEvent(tick=0, channel=1, data=[77, 100])\n",
      "midi.NoteOnEvent(tick=192, channel=1, data=[77, 0])\n",
      "midi.NoteOnEvent(tick=0, channel=1, data=[77, 100])\n",
      "midi.NoteOnEvent(tick=192, channel=1, data=[77, 0])\n",
      "midi.NoteOnEvent(tick=0, channel=1, data=[75, 100])\n",
      "midi.NoteOnEvent(tick=192, channel=1, data=[75, 0])\n",
      "midi.NoteOnEvent(tick=0, channel=1, data=[75, 100])\n",
      "midi.NoteOnEvent(tick=192, channel=1, data=[75, 0])\n",
      "midi.NoteOnEvent(tick=0, channel=1, data=[74, 100])\n",
      "midi.NoteOnEvent(tick=384, channel=1, data=[74, 0])\n",
      "midi.NoteOnEvent(tick=384, channel=1, data=[70, 100])\n",
      "midi.NoteOnEvent(tick=192, channel=1, data=[70, 0])\n",
      "midi.NoteOnEvent(tick=0, channel=1, data=[70, 100])\n",
      "midi.NoteOnEvent(tick=192, channel=1, data=[70, 0])\n",
      "midi.NoteOnEvent(tick=0, channel=1, data=[69, 100])\n",
      "midi.NoteOnEvent(tick=192, channel=1, data=[69, 0])\n",
      "midi.NoteOnEvent(tick=0, channel=1, data=[69, 100])\n",
      "midi.NoteOnEvent(tick=192, channel=1, data=[69, 0])\n",
      "midi.NoteOnEvent(tick=0, channel=1, data=[69, 100])\n",
      "midi.NoteOnEvent(tick=384, channel=1, data=[69, 0])\n",
      "midi.NoteOnEvent(tick=384, channel=1, data=[65, 100])\n",
      "midi.NoteOnEvent(tick=192, channel=1, data=[65, 0])\n",
      "midi.NoteOnEvent(tick=0, channel=1, data=[65, 100])\n",
      "midi.NoteOnEvent(tick=192, channel=1, data=[65, 0])\n",
      "midi.NoteOnEvent(tick=0, channel=1, data=[64, 100])\n",
      "midi.NoteOnEvent(tick=192, channel=1, data=[64, 0])\n",
      "midi.NoteOnEvent(tick=0, channel=1, data=[64, 100])\n",
      "midi.NoteOnEvent(tick=192, channel=1, data=[64, 0])\n",
      "midi.NoteOnEvent(tick=0, channel=1, data=[64, 100])\n",
      "midi.NoteOnEvent(tick=384, channel=1, data=[64, 0])\n",
      "midi.NoteOnEvent(tick=1728, channel=1, data=[76, 100])\n",
      "midi.NoteOnEvent(tick=192, channel=1, data=[76, 0])\n",
      "midi.NoteOnEvent(tick=0, channel=1, data=[81, 100])\n",
      "midi.NoteOnEvent(tick=384, channel=1, data=[81, 0])\n",
      "midi.NoteOnEvent(tick=192, channel=1, data=[76, 100])\n",
      "midi.NoteOnEvent(tick=192, channel=1, data=[76, 0])\n",
      "midi.NoteOnEvent(tick=0, channel=1, data=[77, 100])\n",
      "midi.NoteOnEvent(tick=384, channel=1, data=[77, 0])\n",
      "midi.NoteOnEvent(tick=192, channel=1, data=[74, 100])\n",
      "midi.NoteOnEvent(tick=192, channel=1, data=[74, 0])\n",
      "midi.NoteOnEvent(tick=0, channel=1, data=[76, 100])\n",
      "midi.NoteOnEvent(tick=96, channel=1, data=[76, 0])\n",
      "midi.NoteOnEvent(tick=0, channel=1, data=[74, 100])\n",
      "midi.NoteOnEvent(tick=96, channel=1, data=[74, 0])\n",
      "midi.NoteOnEvent(tick=0, channel=1, data=[72, 100])\n",
      "midi.NoteOnEvent(tick=96, channel=1, data=[72, 0])\n",
      "midi.NoteOnEvent(tick=0, channel=1, data=[76, 100])\n",
      "midi.NoteOnEvent(tick=96, channel=1, data=[76, 0])\n",
      "midi.NoteOnEvent(tick=0, channel=1, data=[74, 100])\n",
      "midi.NoteOnEvent(tick=96, channel=1, data=[74, 0])\n",
      "midi.NoteOnEvent(tick=0, channel=1, data=[72, 100])\n",
      "midi.NoteOnEvent(tick=96, channel=1, data=[72, 0])\n",
      "midi.NoteOnEvent(tick=0, channel=1, data=[71, 100])\n",
      "midi.NoteOnEvent(tick=96, channel=1, data=[71, 0])\n",
      "midi.NoteOnEvent(tick=0, channel=1, data=[74, 100])\n",
      "midi.NoteOnEvent(tick=96, channel=1, data=[74, 0])\n",
      "midi.NoteOnEvent(tick=0, channel=1, data=[72, 100])\n",
      "midi.NoteOnEvent(tick=192, channel=1, data=[72, 0])\n",
      "midi.NoteOnEvent(tick=0, channel=1, data=[69, 100])\n",
      "midi.NoteOnEvent(tick=192, channel=1, data=[69, 0])\n",
      "midi.NoteOnEvent(tick=0, channel=1, data=[76, 100])\n",
      "midi.NoteOnEvent(tick=576, channel=1, data=[76, 0])\n",
      "midi.NoteOnEvent(tick=0, channel=1, data=[74, 100])\n",
      "midi.NoteOnEvent(tick=96, channel=1, data=[74, 0])\n",
      "midi.NoteOnEvent(tick=0, channel=1, data=[73, 100])\n",
      "midi.NoteOnEvent(tick=96, channel=1, data=[73, 0])\n",
      "midi.NoteOnEvent(tick=0, channel=1, data=[74, 100])\n",
      "midi.NoteOnEvent(tick=192, channel=1, data=[74, 0])\n",
      "midi.NoteOnEvent(tick=0, channel=1, data=[77, 100])\n",
      "midi.NoteOnEvent(tick=384, channel=1, data=[77, 0])\n",
      "midi.NoteOnEvent(tick=0, channel=1, data=[71, 100])\n",
      "midi.NoteOnEvent(tick=192, channel=1, data=[71, 0])\n",
      "midi.NoteOnEvent(tick=1344, channel=1, data=[67, 100])\n",
      "midi.NoteOnEvent(tick=192, channel=1, data=[67, 0])\n",
      "midi.NoteOnEvent(tick=0, channel=1, data=[74, 100])\n",
      "midi.NoteOnEvent(tick=576, channel=1, data=[74, 0])\n",
      "midi.NoteOnEvent(tick=0, channel=1, data=[72, 100])\n",
      "midi.NoteOnEvent(tick=96, channel=1, data=[72, 0])\n",
      "midi.NoteOnEvent(tick=0, channel=1, data=[71, 100])\n",
      "midi.NoteOnEvent(tick=96, channel=1, data=[71, 0])\n",
      "midi.NoteOnEvent(tick=0, channel=1, data=[72, 100])\n",
      "midi.NoteOnEvent(tick=192, channel=1, data=[72, 0])\n",
      "midi.NoteOnEvent(tick=0, channel=1, data=[76, 100])\n",
      "midi.NoteOnEvent(tick=384, channel=1, data=[76, 0])\n",
      "midi.NoteOnEvent(tick=0, channel=1, data=[69, 100])\n",
      "midi.NoteOnEvent(tick=192, channel=1, data=[69, 0])\n",
      "midi.NoteOnEvent(tick=1344, channel=1, data=[65, 100])\n",
      "midi.NoteOnEvent(tick=192, channel=1, data=[65, 0])\n",
      "midi.NoteOnEvent(tick=0, channel=1, data=[72, 100])\n",
      "midi.NoteOnEvent(tick=576, channel=1, data=[72, 0])\n",
      "midi.NoteOnEvent(tick=0, channel=1, data=[71, 100])\n",
      "midi.NoteOnEvent(tick=96, channel=1, data=[71, 0])\n",
      "midi.NoteOnEvent(tick=0, channel=1, data=[72, 100])\n",
      "midi.NoteOnEvent(tick=96, channel=1, data=[72, 0])\n",
      "midi.NoteOnEvent(tick=0, channel=1, data=[74, 100])\n",
      "midi.NoteOnEvent(tick=192, channel=1, data=[74, 0])\n",
      "midi.NoteOnEvent(tick=0, channel=1, data=[65, 100])\n",
      "midi.NoteOnEvent(tick=192, channel=1, data=[65, 0])\n",
      "midi.NoteOnEvent(tick=0, channel=1, data=[64, 100])\n",
      "midi.NoteOnEvent(tick=192, channel=1, data=[64, 0])\n",
      "midi.NoteOnEvent(tick=0, channel=1, data=[74, 100])\n",
      "midi.NoteOnEvent(tick=192, channel=1, data=[74, 0])\n",
      "midi.NoteOnEvent(tick=0, channel=1, data=[72, 100])\n",
      "midi.NoteOnEvent(tick=192, channel=1, data=[72, 0])\n",
      "midi.NoteOnEvent(tick=0, channel=1, data=[64, 100])\n",
      "midi.NoteOnEvent(tick=192, channel=1, data=[64, 0])\n",
      "midi.NoteOnEvent(tick=0, channel=1, data=[62, 100])\n",
      "midi.NoteOnEvent(tick=96, channel=1, data=[62, 0])\n",
      "midi.NoteOnEvent(tick=0, channel=1, data=[72, 100])\n",
      "midi.NoteOnEvent(tick=96, channel=1, data=[72, 0])\n",
      "midi.NoteOnEvent(tick=0, channel=1, data=[71, 100])\n",
      "midi.NoteOnEvent(tick=96, channel=1, data=[71, 0])\n",
      "midi.NoteOnEvent(tick=0, channel=1, data=[69, 100])\n",
      "midi.NoteOnEvent(tick=96, channel=1, data=[69, 0])\n",
      "midi.NoteOnEvent(tick=0, channel=1, data=[71, 100])\n",
      "midi.NoteOnEvent(tick=96, channel=1, data=[71, 0])\n",
      "midi.NoteOnEvent(tick=0, channel=1, data=[69, 100])\n",
      "midi.NoteOnEvent(tick=96, channel=1, data=[69, 0])\n",
      "midi.NoteOnEvent(tick=0, channel=1, data=[68, 100])\n",
      "midi.NoteOnEvent(tick=96, channel=1, data=[68, 0])\n",
      "midi.NoteOnEvent(tick=0, channel=1, data=[66, 100])\n",
      "midi.NoteOnEvent(tick=96, channel=1, data=[66, 0])\n",
      "midi.NoteOnEvent(tick=0, channel=1, data=[68, 100])\n",
      "midi.NoteOnEvent(tick=192, channel=1, data=[68, 0])\n",
      "midi.NoteOnEvent(tick=0, channel=1, data=[77, 100])\n",
      "midi.NoteOnEvent(tick=192, channel=1, data=[77, 0])\n",
      "midi.NoteOnEvent(tick=0, channel=1, data=[76, 100])\n",
      "midi.NoteOnEvent(tick=192, channel=1, data=[76, 0])\n",
      "midi.NoteOnEvent(tick=0, channel=1, data=[81, 100])\n",
      "midi.NoteOnEvent(tick=192, channel=1, data=[81, 0])\n",
      "midi.NoteOnEvent(tick=0, channel=1, data=[84, 100])\n",
      "midi.NoteOnEvent(tick=384, channel=1, data=[84, 0])\n",
      "midi.NoteOnEvent(tick=0, channel=1, data=[83, 100])\n",
      "midi.NoteOnEvent(tick=48, channel=1, data=[83, 0])\n",
      "midi.NoteOnEvent(tick=0, channel=1, data=[84, 100])\n",
      "midi.NoteOnEvent(tick=48, channel=1, data=[84, 0])\n",
      "midi.NoteOnEvent(tick=0, channel=1, data=[83, 100])\n",
      "midi.NoteOnEvent(tick=48, channel=1, data=[83, 0])\n",
      "midi.NoteOnEvent(tick=0, channel=1, data=[84, 100])\n",
      "midi.NoteOnEvent(tick=48, channel=1, data=[84, 0])\n",
      "midi.NoteOnEvent(tick=0, channel=1, data=[83, 100])\n",
      "midi.NoteOnEvent(tick=48, channel=1, data=[83, 0])\n",
      "midi.NoteOnEvent(tick=0, channel=1, data=[84, 100])\n",
      "midi.NoteOnEvent(tick=48, channel=1, data=[84, 0])\n",
      "midi.NoteOnEvent(tick=0, channel=1, data=[83, 100])\n",
      "midi.NoteOnEvent(tick=48, channel=1, data=[83, 0])\n",
      "midi.NoteOnEvent(tick=0, channel=1, data=[84, 100])\n",
      "midi.NoteOnEvent(tick=48, channel=1, data=[84, 0])\n",
      "midi.NoteOnEvent(tick=0, channel=1, data=[83, 100])\n",
      "midi.NoteOnEvent(tick=384, channel=1, data=[83, 0])\n",
      "midi.NoteOnEvent(tick=384, channel=1, data=[74, 100])\n",
      "midi.NoteOnEvent(tick=384, channel=1, data=[74, 0])\n",
      "midi.NoteOnEvent(tick=384, channel=1, data=[77, 100])\n",
      "midi.NoteOnEvent(tick=384, channel=1, data=[77, 0])\n",
      "midi.NoteOnEvent(tick=384, channel=1, data=[74, 100])\n",
      "midi.NoteOnEvent(tick=384, channel=1, data=[74, 0])\n",
      "midi.NoteOnEvent(tick=384, channel=1, data=[74, 100])\n",
      "midi.NoteOnEvent(tick=768, channel=1, data=[74, 0])\n",
      "midi.NoteOnEvent(tick=96, channel=1, data=[76, 100])\n",
      "midi.NoteOnEvent(tick=96, channel=1, data=[76, 0])\n",
      "midi.NoteOnEvent(tick=0, channel=1, data=[78, 100])\n",
      "midi.NoteOnEvent(tick=96, channel=1, data=[78, 0])\n",
      "midi.NoteOnEvent(tick=0, channel=1, data=[80, 100])\n",
      "midi.NoteOnEvent(tick=96, channel=1, data=[80, 0])\n",
      "midi.NoteOnEvent(tick=0, channel=1, data=[81, 100])\n",
      "midi.NoteOnEvent(tick=96, channel=1, data=[81, 0])\n",
      "midi.NoteOnEvent(tick=0, channel=1, data=[80, 100])\n",
      "midi.NoteOnEvent(tick=96, channel=1, data=[80, 0])\n",
      "midi.NoteOnEvent(tick=0, channel=1, data=[81, 100])\n",
      "midi.NoteOnEvent(tick=96, channel=1, data=[81, 0])\n",
      "midi.NoteOnEvent(tick=0, channel=1, data=[83, 100])\n",
      "midi.NoteOnEvent(tick=96, channel=1, data=[83, 0])\n",
      "midi.NoteOnEvent(tick=0, channel=1, data=[76, 100])\n",
      "midi.NoteOnEvent(tick=192, channel=1, data=[76, 0])\n",
      "midi.NoteOnEvent(tick=0, channel=1, data=[81, 100])\n",
      "midi.NoteOnEvent(tick=192, channel=1, data=[81, 0])\n",
      "midi.NoteOnEvent(tick=0, channel=1, data=[83, 100])\n",
      "midi.NoteOnEvent(tick=192, channel=1, data=[83, 0])\n",
      "midi.NoteOnEvent(tick=0, channel=1, data=[80, 100])\n",
      "midi.NoteOnEvent(tick=192, channel=1, data=[80, 0])\n",
      "midi.NoteOnEvent(tick=0, channel=1, data=[81, 100])\n",
      "midi.NoteOnEvent(tick=96, channel=1, data=[81, 0])\n",
      "midi.NoteOnEvent(tick=0, channel=1, data=[79, 100])\n",
      "midi.NoteOnEvent(tick=96, channel=1, data=[79, 0])\n",
      "midi.NoteOnEvent(tick=0, channel=1, data=[77, 100])\n",
      "midi.NoteOnEvent(tick=96, channel=1, data=[77, 0])\n",
      "midi.NoteOnEvent(tick=0, channel=1, data=[76, 100])\n",
      "midi.NoteOnEvent(tick=96, channel=1, data=[76, 0])\n",
      "midi.NoteOnEvent(tick=0, channel=1, data=[74, 100])\n",
      "midi.NoteOnEvent(tick=192, channel=1, data=[74, 0])\n",
      "midi.NoteOnEvent(tick=0, channel=1, data=[74, 100])\n",
      "midi.NoteOnEvent(tick=192, channel=1, data=[74, 0])\n",
      "midi.NoteOnEvent(tick=0, channel=1, data=[74, 100])\n",
      "midi.NoteOnEvent(tick=96, channel=1, data=[74, 0])\n",
      "midi.NoteOnEvent(tick=0, channel=1, data=[76, 100])\n",
      "midi.NoteOnEvent(tick=96, channel=1, data=[76, 0])\n",
      "midi.NoteOnEvent(tick=0, channel=1, data=[77, 100])\n",
      "midi.NoteOnEvent(tick=288, channel=1, data=[77, 0])\n",
      "midi.NoteOnEvent(tick=0, channel=1, data=[76, 100])\n",
      "midi.NoteOnEvent(tick=96, channel=1, data=[76, 0])\n",
      "midi.NoteOnEvent(tick=0, channel=1, data=[74, 100])\n",
      "midi.NoteOnEvent(tick=96, channel=1, data=[74, 0])\n",
      "midi.NoteOnEvent(tick=0, channel=1, data=[72, 100])\n",
      "midi.NoteOnEvent(tick=96, channel=1, data=[72, 0])\n",
      "midi.NoteOnEvent(tick=0, channel=1, data=[71, 100])\n",
      "midi.NoteOnEvent(tick=96, channel=1, data=[71, 0])\n",
      "midi.NoteOnEvent(tick=0, channel=1, data=[72, 100])\n",
      "midi.NoteOnEvent(tick=96, channel=1, data=[72, 0])\n",
      "midi.NoteOnEvent(tick=0, channel=1, data=[74, 100])\n",
      "midi.NoteOnEvent(tick=288, channel=1, data=[74, 0])\n",
      "midi.NoteOnEvent(tick=0, channel=1, data=[72, 100])\n",
      "midi.NoteOnEvent(tick=96, channel=1, data=[72, 0])\n",
      "midi.NoteOnEvent(tick=0, channel=1, data=[71, 100])\n",
      "midi.NoteOnEvent(tick=96, channel=1, data=[71, 0])\n",
      "midi.NoteOnEvent(tick=0, channel=1, data=[69, 100])\n",
      "midi.NoteOnEvent(tick=96, channel=1, data=[69, 0])\n",
      "midi.NoteOnEvent(tick=0, channel=1, data=[68, 100])\n",
      "midi.NoteOnEvent(tick=192, channel=1, data=[68, 0])\n",
      "midi.NoteOnEvent(tick=0, channel=1, data=[76, 100])\n",
      "midi.NoteOnEvent(tick=192, channel=1, data=[76, 0])\n",
      "midi.NoteOnEvent(tick=0, channel=1, data=[72, 100])\n",
      "midi.NoteOnEvent(tick=48, channel=1, data=[72, 0])\n",
      "midi.NoteOnEvent(tick=0, channel=1, data=[74, 100])\n",
      "midi.NoteOnEvent(tick=48, channel=1, data=[74, 0])\n",
      "midi.NoteOnEvent(tick=0, channel=1, data=[72, 100])\n",
      "midi.NoteOnEvent(tick=48, channel=1, data=[72, 0])\n",
      "midi.NoteOnEvent(tick=0, channel=1, data=[74, 100])\n",
      "midi.NoteOnEvent(tick=48, channel=1, data=[74, 0])\n",
      "midi.NoteOnEvent(tick=0, channel=1, data=[71, 100])\n",
      "midi.NoteOnEvent(tick=96, channel=1, data=[71, 0])\n",
      "midi.NoteOnEvent(tick=0, channel=1, data=[69, 100])\n",
      "midi.NoteOnEvent(tick=96, channel=1, data=[69, 0])\n",
      "midi.NoteOnEvent(tick=0, channel=1, data=[69, 100])\n",
      "midi.NoteOnEvent(tick=576, channel=1, data=[69, 0])\n",
      "midi.EndOfTrackEvent(tick=0, data=[])\n",
      "midi.PortEvent(tick=0, data=[0])\n",
      "midi.TrackNameEvent(tick=0, text='Violin 2', data=[86, 105, 111, 108, 105, 110, 32, 50])\n",
      "midi.ProgramChangeEvent(tick=0, channel=2, data=[40])\n",
      "midi.ControlChangeEvent(tick=0, channel=2, data=[7, 110])\n",
      "midi.ControlChangeEvent(tick=0, channel=2, data=[10, 96])\n",
      "midi.NoteOnEvent(tick=576, channel=2, data=[72, 100])\n",
      "midi.NoteOnEvent(tick=192, channel=2, data=[72, 0])\n",
      "midi.NoteOnEvent(tick=0, channel=2, data=[76, 100])\n",
      "midi.NoteOnEvent(tick=384, channel=2, data=[76, 0])\n",
      "midi.NoteOnEvent(tick=192, channel=2, data=[72, 100])\n",
      "midi.NoteOnEvent(tick=192, channel=2, data=[72, 0])\n",
      "midi.NoteOnEvent(tick=0, channel=2, data=[74, 100])\n",
      "midi.NoteOnEvent(tick=384, channel=2, data=[74, 0])\n",
      "midi.NoteOnEvent(tick=192, channel=2, data=[71, 100])\n",
      "midi.NoteOnEvent(tick=192, channel=2, data=[71, 0])\n",
      "midi.NoteOnEvent(tick=0, channel=2, data=[72, 100])\n",
      "midi.NoteOnEvent(tick=96, channel=2, data=[72, 0])\n",
      "midi.NoteOnEvent(tick=0, channel=2, data=[71, 100])\n",
      "midi.NoteOnEvent(tick=96, channel=2, data=[71, 0])\n",
      "midi.NoteOnEvent(tick=0, channel=2, data=[69, 100])\n",
      "midi.NoteOnEvent(tick=96, channel=2, data=[69, 0])\n",
      "midi.NoteOnEvent(tick=0, channel=2, data=[72, 100])\n",
      "midi.NoteOnEvent(tick=96, channel=2, data=[72, 0])\n",
      "midi.NoteOnEvent(tick=0, channel=2, data=[71, 100])\n",
      "midi.NoteOnEvent(tick=96, channel=2, data=[71, 0])\n",
      "midi.NoteOnEvent(tick=0, channel=2, data=[69, 100])\n",
      "midi.NoteOnEvent(tick=96, channel=2, data=[69, 0])\n",
      "midi.NoteOnEvent(tick=0, channel=2, data=[68, 100])\n",
      "midi.NoteOnEvent(tick=96, channel=2, data=[68, 0])\n",
      "midi.NoteOnEvent(tick=0, channel=2, data=[71, 100])\n",
      "midi.NoteOnEvent(tick=96, channel=2, data=[71, 0])\n",
      "midi.NoteOnEvent(tick=0, channel=2, data=[69, 100])\n",
      "midi.NoteOnEvent(tick=192, channel=2, data=[69, 0])\n",
      "midi.NoteOnEvent(tick=0, channel=2, data=[64, 100])\n",
      "midi.NoteOnEvent(tick=192, channel=2, data=[64, 0])\n",
      "midi.NoteOnEvent(tick=192, channel=2, data=[64, 100])\n",
      "midi.NoteOnEvent(tick=192, channel=2, data=[64, 0])\n",
      "midi.NoteOnEvent(tick=0, channel=2, data=[64, 100])\n",
      "midi.NoteOnEvent(tick=192, channel=2, data=[64, 0])\n",
      "midi.NoteOnEvent(tick=192, channel=2, data=[64, 100])\n",
      "midi.NoteOnEvent(tick=192, channel=2, data=[64, 0])\n",
      "midi.NoteOnEvent(tick=192, channel=2, data=[68, 100])\n",
      "midi.NoteOnEvent(tick=192, channel=2, data=[68, 0])\n",
      "midi.NoteOnEvent(tick=192, channel=2, data=[69, 100])\n",
      "midi.NoteOnEvent(tick=192, channel=2, data=[69, 0])\n",
      "midi.NoteOnEvent(tick=192, channel=2, data=[69, 100])\n",
      "midi.NoteOnEvent(tick=192, channel=2, data=[69, 0])\n",
      "midi.NoteOnEvent(tick=0, channel=2, data=[74, 100])\n",
      "midi.NoteOnEvent(tick=192, channel=2, data=[74, 0])\n",
      "midi.NoteOnEvent(tick=0, channel=2, data=[68, 100])\n",
      "midi.NoteOnEvent(tick=192, channel=2, data=[68, 0])\n",
      "midi.NoteOnEvent(tick=0, channel=2, data=[74, 100])\n",
      "midi.NoteOnEvent(tick=288, channel=2, data=[74, 0])\n",
      "midi.NoteOnEvent(tick=0, channel=2, data=[76, 100])\n",
      "midi.NoteOnEvent(tick=96, channel=2, data=[76, 0])\n",
      "midi.NoteOnEvent(tick=0, channel=2, data=[74, 100])\n",
      "midi.NoteOnEvent(tick=96, channel=2, data=[74, 0])\n",
      "midi.NoteOnEvent(tick=0, channel=2, data=[72, 100])\n",
      "midi.NoteOnEvent(tick=96, channel=2, data=[72, 0])\n",
      "midi.NoteOnEvent(tick=0, channel=2, data=[71, 100])\n",
      "midi.NoteOnEvent(tick=96, channel=2, data=[71, 0])\n",
      "midi.NoteOnEvent(tick=0, channel=2, data=[69, 100])\n",
      "midi.NoteOnEvent(tick=96, channel=2, data=[69, 0])\n",
      "midi.NoteOnEvent(tick=0, channel=2, data=[68, 100])\n",
      "midi.NoteOnEvent(tick=96, channel=2, data=[68, 0])\n",
      "midi.NoteOnEvent(tick=0, channel=2, data=[66, 100])\n",
      "midi.NoteOnEvent(tick=96, channel=2, data=[66, 0])\n",
      "midi.NoteOnEvent(tick=0, channel=2, data=[64, 100])\n",
      "midi.NoteOnEvent(tick=96, channel=2, data=[64, 0])\n",
      "midi.NoteOnEvent(tick=0, channel=2, data=[74, 100])\n",
      "midi.NoteOnEvent(tick=96, channel=2, data=[74, 0])\n",
      "midi.NoteOnEvent(tick=0, channel=2, data=[72, 100])\n",
      "midi.NoteOnEvent(tick=96, channel=2, data=[72, 0])\n",
      "midi.NoteOnEvent(tick=0, channel=2, data=[71, 100])\n",
      "midi.NoteOnEvent(tick=96, channel=2, data=[71, 0])\n",
      "midi.NoteOnEvent(tick=0, channel=2, data=[69, 100])\n",
      "midi.NoteOnEvent(tick=96, channel=2, data=[69, 0])\n",
      "midi.NoteOnEvent(tick=0, channel=2, data=[67, 100])\n",
      "midi.NoteOnEvent(tick=96, channel=2, data=[67, 0])\n",
      "midi.NoteOnEvent(tick=0, channel=2, data=[66, 100])\n",
      "midi.NoteOnEvent(tick=96, channel=2, data=[66, 0])\n",
      "midi.NoteOnEvent(tick=0, channel=2, data=[64, 100])\n",
      "midi.NoteOnEvent(tick=96, channel=2, data=[64, 0])\n",
      "midi.NoteOnEvent(tick=0, channel=2, data=[66, 100])\n",
      "midi.NoteOnEvent(tick=96, channel=2, data=[66, 0])\n",
      "midi.NoteOnEvent(tick=0, channel=2, data=[74, 100])\n",
      "midi.NoteOnEvent(tick=96, channel=2, data=[74, 0])\n",
      "midi.NoteOnEvent(tick=0, channel=2, data=[72, 100])\n",
      "midi.NoteOnEvent(tick=96, channel=2, data=[72, 0])\n"
     ]
    },
    {
     "name": "stdout",
     "output_type": "stream",
     "text": [
      "midi.NoteOnEvent(tick=0, channel=2, data=[71, 100])\n",
      "midi.NoteOnEvent(tick=96, channel=2, data=[71, 0])\n",
      "midi.NoteOnEvent(tick=0, channel=2, data=[69, 100])\n",
      "midi.NoteOnEvent(tick=96, channel=2, data=[69, 0])\n",
      "midi.NoteOnEvent(tick=0, channel=2, data=[67, 100])\n",
      "midi.NoteOnEvent(tick=96, channel=2, data=[67, 0])\n",
      "midi.NoteOnEvent(tick=0, channel=2, data=[66, 100])\n",
      "midi.NoteOnEvent(tick=96, channel=2, data=[66, 0])\n",
      "midi.NoteOnEvent(tick=0, channel=2, data=[64, 100])\n",
      "midi.NoteOnEvent(tick=96, channel=2, data=[64, 0])\n",
      "midi.NoteOnEvent(tick=0, channel=2, data=[62, 100])\n",
      "midi.NoteOnEvent(tick=96, channel=2, data=[62, 0])\n",
      "midi.NoteOnEvent(tick=0, channel=2, data=[72, 100])\n",
      "midi.NoteOnEvent(tick=96, channel=2, data=[72, 0])\n",
      "midi.NoteOnEvent(tick=0, channel=2, data=[71, 100])\n",
      "midi.NoteOnEvent(tick=96, channel=2, data=[71, 0])\n",
      "midi.NoteOnEvent(tick=0, channel=2, data=[69, 100])\n",
      "midi.NoteOnEvent(tick=96, channel=2, data=[69, 0])\n",
      "midi.NoteOnEvent(tick=0, channel=2, data=[67, 100])\n",
      "midi.NoteOnEvent(tick=96, channel=2, data=[67, 0])\n",
      "midi.NoteOnEvent(tick=0, channel=2, data=[66, 100])\n",
      "midi.NoteOnEvent(tick=96, channel=2, data=[66, 0])\n",
      "midi.NoteOnEvent(tick=0, channel=2, data=[64, 100])\n",
      "midi.NoteOnEvent(tick=96, channel=2, data=[64, 0])\n",
      "midi.NoteOnEvent(tick=0, channel=2, data=[63, 100])\n",
      "midi.NoteOnEvent(tick=96, channel=2, data=[63, 0])\n",
      "midi.NoteOnEvent(tick=0, channel=2, data=[64, 100])\n",
      "midi.NoteOnEvent(tick=96, channel=2, data=[64, 0])\n",
      "midi.NoteOnEvent(tick=0, channel=2, data=[72, 100])\n",
      "midi.NoteOnEvent(tick=96, channel=2, data=[72, 0])\n",
      "midi.NoteOnEvent(tick=0, channel=2, data=[71, 100])\n",
      "midi.NoteOnEvent(tick=96, channel=2, data=[71, 0])\n",
      "midi.NoteOnEvent(tick=0, channel=2, data=[69, 100])\n",
      "midi.NoteOnEvent(tick=96, channel=2, data=[69, 0])\n",
      "midi.NoteOnEvent(tick=0, channel=2, data=[67, 100])\n",
      "midi.NoteOnEvent(tick=96, channel=2, data=[67, 0])\n",
      "midi.NoteOnEvent(tick=0, channel=2, data=[66, 100])\n",
      "midi.NoteOnEvent(tick=96, channel=2, data=[66, 0])\n",
      "midi.NoteOnEvent(tick=0, channel=2, data=[64, 100])\n",
      "midi.NoteOnEvent(tick=96, channel=2, data=[64, 0])\n",
      "midi.NoteOnEvent(tick=0, channel=2, data=[62, 100])\n",
      "midi.NoteOnEvent(tick=96, channel=2, data=[62, 0])\n",
      "midi.NoteOnEvent(tick=0, channel=2, data=[60, 100])\n",
      "midi.NoteOnEvent(tick=192, channel=2, data=[60, 0])\n",
      "midi.NoteOnEvent(tick=0, channel=2, data=[72, 100])\n",
      "midi.NoteOnEvent(tick=288, channel=2, data=[72, 0])\n",
      "midi.NoteOnEvent(tick=0, channel=2, data=[71, 100])\n",
      "midi.NoteOnEvent(tick=96, channel=2, data=[71, 0])\n",
      "midi.NoteOnEvent(tick=0, channel=2, data=[69, 100])\n",
      "midi.NoteOnEvent(tick=96, channel=2, data=[69, 0])\n",
      "midi.NoteOnEvent(tick=0, channel=2, data=[67, 100])\n",
      "midi.NoteOnEvent(tick=96, channel=2, data=[67, 0])\n",
      "midi.NoteOnEvent(tick=0, channel=2, data=[66, 100])\n",
      "midi.NoteOnEvent(tick=192, channel=2, data=[66, 0])\n",
      "midi.NoteOnEvent(tick=0, channel=2, data=[78, 100])\n",
      "midi.NoteOnEvent(tick=192, channel=2, data=[78, 0])\n",
      "midi.NoteOnEvent(tick=0, channel=2, data=[76, 100])\n",
      "midi.NoteOnEvent(tick=192, channel=2, data=[76, 0])\n",
      "midi.NoteOnEvent(tick=0, channel=2, data=[64, 100])\n",
      "midi.NoteOnEvent(tick=384, channel=2, data=[64, 0])\n",
      "midi.NoteOnEvent(tick=0, channel=2, data=[63, 100])\n",
      "midi.NoteOnEvent(tick=192, channel=2, data=[63, 0])\n",
      "midi.NoteOnEvent(tick=0, channel=2, data=[64, 100])\n",
      "midi.NoteOnEvent(tick=192, channel=2, data=[64, 0])\n",
      "midi.NoteOnEvent(tick=0, channel=2, data=[72, 100])\n",
      "midi.NoteOnEvent(tick=384, channel=2, data=[72, 0])\n",
      "midi.NoteOnEvent(tick=0, channel=2, data=[66, 100])\n",
      "midi.NoteOnEvent(tick=192, channel=2, data=[66, 0])\n",
      "midi.NoteOnEvent(tick=0, channel=2, data=[67, 100])\n",
      "midi.NoteOnEvent(tick=192, channel=2, data=[67, 0])\n",
      "midi.NoteOnEvent(tick=0, channel=2, data=[76, 100])\n",
      "midi.NoteOnEvent(tick=192, channel=2, data=[76, 0])\n",
      "midi.NoteOnEvent(tick=0, channel=2, data=[76, 100])\n",
      "midi.NoteOnEvent(tick=384, channel=2, data=[76, 0])\n",
      "midi.NoteOnEvent(tick=0, channel=2, data=[75, 100])\n",
      "midi.NoteOnEvent(tick=48, channel=2, data=[75, 0])\n",
      "midi.NoteOnEvent(tick=0, channel=2, data=[76, 100])\n",
      "midi.NoteOnEvent(tick=48, channel=2, data=[76, 0])\n",
      "midi.NoteOnEvent(tick=0, channel=2, data=[75, 100])\n",
      "midi.NoteOnEvent(tick=48, channel=2, data=[75, 0])\n",
      "midi.NoteOnEvent(tick=0, channel=2, data=[76, 100])\n",
      "midi.NoteOnEvent(tick=48, channel=2, data=[76, 0])\n",
      "midi.NoteOnEvent(tick=0, channel=2, data=[75, 100])\n",
      "midi.NoteOnEvent(tick=48, channel=2, data=[75, 0])\n",
      "midi.NoteOnEvent(tick=0, channel=2, data=[76, 100])\n",
      "midi.NoteOnEvent(tick=48, channel=2, data=[76, 0])\n",
      "midi.NoteOnEvent(tick=0, channel=2, data=[75, 100])\n",
      "midi.NoteOnEvent(tick=48, channel=2, data=[75, 0])\n",
      "midi.NoteOnEvent(tick=0, channel=2, data=[76, 100])\n",
      "midi.NoteOnEvent(tick=48, channel=2, data=[76, 0])\n",
      "midi.NoteOnEvent(tick=0, channel=2, data=[75, 100])\n",
      "midi.NoteOnEvent(tick=384, channel=2, data=[75, 0])\n",
      "midi.NoteOnEvent(tick=192, channel=2, data=[75, 100])\n",
      "midi.NoteOnEvent(tick=192, channel=2, data=[75, 0])\n",
      "midi.NoteOnEvent(tick=0, channel=2, data=[76, 100])\n",
      "midi.NoteOnEvent(tick=192, channel=2, data=[76, 0])\n",
      "midi.NoteOnEvent(tick=0, channel=2, data=[67, 100])\n",
      "midi.NoteOnEvent(tick=192, channel=2, data=[67, 0])\n",
      "midi.NoteOnEvent(tick=0, channel=2, data=[69, 100])\n",
      "midi.NoteOnEvent(tick=192, channel=2, data=[69, 0])\n",
      "midi.NoteOnEvent(tick=0, channel=2, data=[66, 100])\n",
      "midi.NoteOnEvent(tick=192, channel=2, data=[66, 0])\n",
      "midi.NoteOnEvent(tick=0, channel=2, data=[64, 100])\n",
      "midi.NoteOnEvent(tick=192, channel=2, data=[64, 0])\n",
      "midi.NoteOnEvent(tick=0, channel=2, data=[76, 100])\n",
      "midi.NoteOnEvent(tick=96, channel=2, data=[76, 0])\n",
      "midi.NoteOnEvent(tick=0, channel=2, data=[74, 100])\n",
      "midi.NoteOnEvent(tick=96, channel=2, data=[74, 0])\n",
      "midi.NoteOnEvent(tick=0, channel=2, data=[72, 100])\n",
      "midi.NoteOnEvent(tick=96, channel=2, data=[72, 0])\n",
      "midi.NoteOnEvent(tick=0, channel=2, data=[71, 100])\n",
      "midi.NoteOnEvent(tick=96, channel=2, data=[71, 0])\n",
      "midi.NoteOnEvent(tick=0, channel=2, data=[69, 100])\n",
      "midi.NoteOnEvent(tick=96, channel=2, data=[69, 0])\n",
      "midi.NoteOnEvent(tick=0, channel=2, data=[67, 100])\n",
      "midi.NoteOnEvent(tick=96, channel=2, data=[67, 0])\n",
      "midi.NoteOnEvent(tick=0, channel=2, data=[66, 100])\n",
      "midi.NoteOnEvent(tick=96, channel=2, data=[66, 0])\n",
      "midi.NoteOnEvent(tick=0, channel=2, data=[64, 100])\n",
      "midi.NoteOnEvent(tick=96, channel=2, data=[64, 0])\n",
      "midi.NoteOnEvent(tick=0, channel=2, data=[63, 100])\n",
      "midi.NoteOnEvent(tick=96, channel=2, data=[63, 0])\n",
      "midi.NoteOnEvent(tick=0, channel=2, data=[64, 100])\n",
      "midi.NoteOnEvent(tick=96, channel=2, data=[64, 0])\n",
      "midi.NoteOnEvent(tick=0, channel=2, data=[66, 100])\n",
      "midi.NoteOnEvent(tick=96, channel=2, data=[66, 0])\n",
      "midi.NoteOnEvent(tick=0, channel=2, data=[67, 100])\n",
      "midi.NoteOnEvent(tick=96, channel=2, data=[67, 0])\n",
      "midi.NoteOnEvent(tick=0, channel=2, data=[69, 100])\n",
      "midi.NoteOnEvent(tick=96, channel=2, data=[69, 0])\n",
      "midi.NoteOnEvent(tick=0, channel=2, data=[71, 100])\n",
      "midi.NoteOnEvent(tick=96, channel=2, data=[71, 0])\n",
      "midi.NoteOnEvent(tick=0, channel=2, data=[72, 100])\n",
      "midi.NoteOnEvent(tick=96, channel=2, data=[72, 0])\n",
      "midi.NoteOnEvent(tick=0, channel=2, data=[71, 100])\n",
      "midi.NoteOnEvent(tick=96, channel=2, data=[71, 0])\n",
      "midi.NoteOnEvent(tick=0, channel=2, data=[69, 100])\n",
      "midi.NoteOnEvent(tick=96, channel=2, data=[69, 0])\n",
      "midi.NoteOnEvent(tick=0, channel=2, data=[67, 100])\n",
      "midi.NoteOnEvent(tick=96, channel=2, data=[67, 0])\n",
      "midi.NoteOnEvent(tick=0, channel=2, data=[66, 100])\n",
      "midi.NoteOnEvent(tick=96, channel=2, data=[66, 0])\n",
      "midi.NoteOnEvent(tick=0, channel=2, data=[64, 100])\n",
      "midi.NoteOnEvent(tick=96, channel=2, data=[64, 0])\n",
      "midi.NoteOnEvent(tick=0, channel=2, data=[63, 100])\n",
      "midi.NoteOnEvent(tick=96, channel=2, data=[63, 0])\n",
      "midi.NoteOnEvent(tick=0, channel=2, data=[64, 100])\n",
      "midi.NoteOnEvent(tick=96, channel=2, data=[64, 0])\n",
      "midi.NoteOnEvent(tick=0, channel=2, data=[69, 100])\n",
      "midi.NoteOnEvent(tick=96, channel=2, data=[69, 0])\n",
      "midi.NoteOnEvent(tick=0, channel=2, data=[66, 100])\n",
      "midi.NoteOnEvent(tick=96, channel=2, data=[66, 0])\n",
      "midi.NoteOnEvent(tick=0, channel=2, data=[67, 100])\n",
      "midi.NoteOnEvent(tick=96, channel=2, data=[67, 0])\n",
      "midi.NoteOnEvent(tick=0, channel=2, data=[64, 100])\n",
      "midi.NoteOnEvent(tick=96, channel=2, data=[64, 0])\n",
      "midi.NoteOnEvent(tick=0, channel=2, data=[59, 100])\n",
      "midi.NoteOnEvent(tick=192, channel=2, data=[59, 0])\n",
      "midi.NoteOnEvent(tick=0, channel=2, data=[63, 100])\n",
      "midi.NoteOnEvent(tick=192, channel=2, data=[63, 0])\n",
      "midi.NoteOnEvent(tick=0, channel=2, data=[64, 100])\n",
      "midi.NoteOnEvent(tick=384, channel=2, data=[64, 0])\n",
      "midi.NoteOnEvent(tick=576, channel=2, data=[72, 100])\n",
      "midi.NoteOnEvent(tick=192, channel=2, data=[72, 0])\n",
      "midi.NoteOnEvent(tick=0, channel=2, data=[76, 100])\n",
      "midi.NoteOnEvent(tick=192, channel=2, data=[76, 0])\n",
      "midi.NoteOnEvent(tick=384, channel=2, data=[76, 100])\n",
      "midi.NoteOnEvent(tick=96, channel=2, data=[76, 0])\n",
      "midi.NoteOnEvent(tick=0, channel=2, data=[78, 100])\n",
      "midi.NoteOnEvent(tick=96, channel=2, data=[78, 0])\n",
      "midi.NoteOnEvent(tick=0, channel=2, data=[80, 100])\n",
      "midi.NoteOnEvent(tick=192, channel=2, data=[80, 0])\n",
      "midi.NoteOnEvent(tick=384, channel=2, data=[68, 100])\n",
      "midi.NoteOnEvent(tick=192, channel=2, data=[68, 0])\n",
      "midi.NoteOnEvent(tick=0, channel=2, data=[74, 100])\n",
      "midi.NoteOnEvent(tick=192, channel=2, data=[74, 0])\n",
      "midi.NoteOnEvent(tick=384, channel=2, data=[76, 100])\n",
      "midi.NoteOnEvent(tick=192, channel=2, data=[76, 0])\n",
      "midi.NoteOnEvent(tick=0, channel=2, data=[81, 100])\n",
      "midi.NoteOnEvent(tick=192, channel=2, data=[81, 0])\n",
      "midi.NoteOnEvent(tick=3456, channel=2, data=[76, 100])\n",
      "midi.NoteOnEvent(tick=192, channel=2, data=[76, 0])\n",
      "midi.NoteOnEvent(tick=0, channel=2, data=[81, 100])\n",
      "midi.NoteOnEvent(tick=384, channel=2, data=[81, 0])\n",
      "midi.NoteOnEvent(tick=192, channel=2, data=[74, 100])\n",
      "midi.NoteOnEvent(tick=96, channel=2, data=[74, 0])\n",
      "midi.NoteOnEvent(tick=0, channel=2, data=[76, 100])\n",
      "midi.NoteOnEvent(tick=96, channel=2, data=[76, 0])\n",
      "midi.NoteOnEvent(tick=0, channel=2, data=[77, 100])\n",
      "midi.NoteOnEvent(tick=384, channel=2, data=[77, 0])\n",
      "midi.NoteOnEvent(tick=192, channel=2, data=[74, 100])\n",
      "midi.NoteOnEvent(tick=192, channel=2, data=[74, 0])\n",
      "midi.NoteOnEvent(tick=0, channel=2, data=[79, 100])\n",
      "midi.NoteOnEvent(tick=384, channel=2, data=[79, 0])\n",
      "midi.NoteOnEvent(tick=192, channel=2, data=[72, 100])\n",
      "midi.NoteOnEvent(tick=96, channel=2, data=[72, 0])\n",
      "midi.NoteOnEvent(tick=0, channel=2, data=[74, 100])\n",
      "midi.NoteOnEvent(tick=96, channel=2, data=[74, 0])\n",
      "midi.NoteOnEvent(tick=0, channel=2, data=[76, 100])\n",
      "midi.NoteOnEvent(tick=384, channel=2, data=[76, 0])\n",
      "midi.NoteOnEvent(tick=192, channel=2, data=[72, 100])\n",
      "midi.NoteOnEvent(tick=192, channel=2, data=[72, 0])\n",
      "midi.NoteOnEvent(tick=0, channel=2, data=[77, 100])\n",
      "midi.NoteOnEvent(tick=384, channel=2, data=[77, 0])\n",
      "midi.NoteOnEvent(tick=192, channel=2, data=[71, 100])\n",
      "midi.NoteOnEvent(tick=96, channel=2, data=[71, 0])\n",
      "midi.NoteOnEvent(tick=0, channel=2, data=[72, 100])\n",
      "midi.NoteOnEvent(tick=96, channel=2, data=[72, 0])\n",
      "midi.NoteOnEvent(tick=0, channel=2, data=[74, 100])\n",
      "midi.NoteOnEvent(tick=384, channel=2, data=[74, 0])\n",
      "midi.NoteOnEvent(tick=192, channel=2, data=[71, 100])\n",
      "midi.NoteOnEvent(tick=192, channel=2, data=[71, 0])\n",
      "midi.NoteOnEvent(tick=0, channel=2, data=[76, 100])\n",
      "midi.NoteOnEvent(tick=384, channel=2, data=[76, 0])\n",
      "midi.NoteOnEvent(tick=192, channel=2, data=[76, 100])\n",
      "midi.NoteOnEvent(tick=192, channel=2, data=[76, 0])\n",
      "midi.NoteOnEvent(tick=0, channel=2, data=[81, 100])\n",
      "midi.NoteOnEvent(tick=384, channel=2, data=[81, 0])\n",
      "midi.NoteOnEvent(tick=192, channel=2, data=[74, 100])\n",
      "midi.NoteOnEvent(tick=96, channel=2, data=[74, 0])\n",
      "midi.NoteOnEvent(tick=0, channel=2, data=[76, 100])\n",
      "midi.NoteOnEvent(tick=96, channel=2, data=[76, 0])\n",
      "midi.NoteOnEvent(tick=0, channel=2, data=[77, 100])\n",
      "midi.NoteOnEvent(tick=192, channel=2, data=[77, 0])\n",
      "midi.NoteOnEvent(tick=0, channel=2, data=[68, 100])\n",
      "midi.NoteOnEvent(tick=192, channel=2, data=[68, 0])\n",
      "midi.NoteOnEvent(tick=0, channel=2, data=[72, 100])\n",
      "midi.NoteOnEvent(tick=96, channel=2, data=[72, 0])\n",
      "midi.NoteOnEvent(tick=0, channel=2, data=[71, 100])\n",
      "midi.NoteOnEvent(tick=96, channel=2, data=[71, 0])\n",
      "midi.NoteOnEvent(tick=0, channel=2, data=[69, 100])\n",
      "midi.NoteOnEvent(tick=96, channel=2, data=[69, 0])\n",
      "midi.NoteOnEvent(tick=0, channel=2, data=[72, 100])\n",
      "midi.NoteOnEvent(tick=96, channel=2, data=[72, 0])\n",
      "midi.NoteOnEvent(tick=0, channel=2, data=[71, 100])\n",
      "midi.NoteOnEvent(tick=96, channel=2, data=[71, 0])\n",
      "midi.NoteOnEvent(tick=0, channel=2, data=[69, 100])\n",
      "midi.NoteOnEvent(tick=96, channel=2, data=[69, 0])\n",
      "midi.NoteOnEvent(tick=0, channel=2, data=[68, 100])\n",
      "midi.NoteOnEvent(tick=96, channel=2, data=[68, 0])\n",
      "midi.NoteOnEvent(tick=0, channel=2, data=[71, 100])\n",
      "midi.NoteOnEvent(tick=96, channel=2, data=[71, 0])\n",
      "midi.NoteOnEvent(tick=0, channel=2, data=[69, 100])\n",
      "midi.NoteOnEvent(tick=192, channel=2, data=[69, 0])\n",
      "midi.NoteOnEvent(tick=0, channel=2, data=[64, 100])\n",
      "midi.NoteOnEvent(tick=192, channel=2, data=[64, 0])\n",
      "midi.NoteOnEvent(tick=192, channel=2, data=[69, 100])\n",
      "midi.NoteOnEvent(tick=192, channel=2, data=[69, 0])\n",
      "midi.NoteOnEvent(tick=0, channel=2, data=[69, 100])\n",
      "midi.NoteOnEvent(tick=192, channel=2, data=[69, 0])\n",
      "midi.NoteOnEvent(tick=0, channel=2, data=[69, 100])\n",
      "midi.NoteOnEvent(tick=192, channel=2, data=[69, 0])\n",
      "midi.NoteOnEvent(tick=0, channel=2, data=[69, 100])\n",
      "midi.NoteOnEvent(tick=192, channel=2, data=[69, 0])\n",
      "midi.NoteOnEvent(tick=0, channel=2, data=[69, 100])\n",
      "midi.NoteOnEvent(tick=192, channel=2, data=[69, 0])\n",
      "midi.NoteOnEvent(tick=0, channel=2, data=[67, 100])\n",
      "midi.NoteOnEvent(tick=192, channel=2, data=[67, 0])\n",
      "midi.NoteOnEvent(tick=0, channel=2, data=[67, 100])\n",
      "midi.NoteOnEvent(tick=192, channel=2, data=[67, 0])\n",
      "midi.NoteOnEvent(tick=0, channel=2, data=[67, 100])\n",
      "midi.NoteOnEvent(tick=192, channel=2, data=[67, 0])\n",
      "midi.NoteOnEvent(tick=0, channel=2, data=[67, 100])\n",
      "midi.NoteOnEvent(tick=192, channel=2, data=[67, 0])\n",
      "midi.NoteOnEvent(tick=0, channel=2, data=[67, 100])\n",
      "midi.NoteOnEvent(tick=192, channel=2, data=[67, 0])\n",
      "midi.NoteOnEvent(tick=0, channel=2, data=[67, 100])\n",
      "midi.NoteOnEvent(tick=192, channel=2, data=[67, 0])\n",
      "midi.NoteOnEvent(tick=0, channel=2, data=[67, 100])\n",
      "midi.NoteOnEvent(tick=192, channel=2, data=[67, 0])\n",
      "midi.NoteOnEvent(tick=0, channel=2, data=[67, 100])\n",
      "midi.NoteOnEvent(tick=192, channel=2, data=[67, 0])\n",
      "midi.NoteOnEvent(tick=0, channel=2, data=[65, 100])\n",
      "midi.NoteOnEvent(tick=192, channel=2, data=[65, 0])\n",
      "midi.NoteOnEvent(tick=0, channel=2, data=[65, 100])\n",
      "midi.NoteOnEvent(tick=192, channel=2, data=[65, 0])\n",
      "midi.NoteOnEvent(tick=0, channel=2, data=[65, 100])\n",
      "midi.NoteOnEvent(tick=192, channel=2, data=[65, 0])\n",
      "midi.NoteOnEvent(tick=0, channel=2, data=[65, 100])\n",
      "midi.NoteOnEvent(tick=192, channel=2, data=[65, 0])\n",
      "midi.NoteOnEvent(tick=0, channel=2, data=[65, 100])\n",
      "midi.NoteOnEvent(tick=192, channel=2, data=[65, 0])\n",
      "midi.NoteOnEvent(tick=0, channel=2, data=[65, 100])\n",
      "midi.NoteOnEvent(tick=192, channel=2, data=[65, 0])\n",
      "midi.NoteOnEvent(tick=0, channel=2, data=[65, 100])\n",
      "midi.NoteOnEvent(tick=192, channel=2, data=[65, 0])\n",
      "midi.NoteOnEvent(tick=0, channel=2, data=[65, 100])\n",
      "midi.NoteOnEvent(tick=192, channel=2, data=[65, 0])\n",
      "midi.NoteOnEvent(tick=0, channel=2, data=[64, 100])\n",
      "midi.NoteOnEvent(tick=192, channel=2, data=[64, 0])\n",
      "midi.NoteOnEvent(tick=1920, channel=2, data=[74, 100])\n",
      "midi.NoteOnEvent(tick=192, channel=2, data=[74, 0])\n",
      "midi.NoteOnEvent(tick=0, channel=2, data=[79, 100])\n",
      "midi.NoteOnEvent(tick=384, channel=2, data=[79, 0])\n",
      "midi.NoteOnEvent(tick=192, channel=2, data=[76, 100])\n",
      "midi.NoteOnEvent(tick=192, channel=2, data=[76, 0])\n",
      "midi.NoteOnEvent(tick=0, channel=2, data=[77, 100])\n",
      "midi.NoteOnEvent(tick=384, channel=2, data=[77, 0])\n",
      "midi.NoteOnEvent(tick=192, channel=2, data=[77, 100])\n",
      "midi.NoteOnEvent(tick=192, channel=2, data=[77, 0])\n",
      "midi.NoteOnEvent(tick=0, channel=2, data=[76, 100])\n",
      "midi.NoteOnEvent(tick=96, channel=2, data=[76, 0])\n",
      "midi.NoteOnEvent(tick=0, channel=2, data=[77, 100])\n",
      "midi.NoteOnEvent(tick=96, channel=2, data=[77, 0])\n",
      "midi.NoteOnEvent(tick=0, channel=2, data=[79, 100])\n",
      "midi.NoteOnEvent(tick=96, channel=2, data=[79, 0])\n",
      "midi.NoteOnEvent(tick=0, channel=2, data=[76, 100])\n",
      "midi.NoteOnEvent(tick=96, channel=2, data=[76, 0])\n",
      "midi.NoteOnEvent(tick=0, channel=2, data=[74, 100])\n",
      "midi.NoteOnEvent(tick=96, channel=2, data=[74, 0])\n",
      "midi.NoteOnEvent(tick=0, channel=2, data=[76, 100])\n",
      "midi.NoteOnEvent(tick=96, channel=2, data=[76, 0])\n",
      "midi.NoteOnEvent(tick=0, channel=2, data=[77, 100])\n",
      "midi.NoteOnEvent(tick=96, channel=2, data=[77, 0])\n",
      "midi.NoteOnEvent(tick=0, channel=2, data=[74, 100])\n",
      "midi.NoteOnEvent(tick=96, channel=2, data=[74, 0])\n",
      "midi.NoteOnEvent(tick=0, channel=2, data=[72, 100])\n",
      "midi.NoteOnEvent(tick=192, channel=2, data=[72, 0])\n",
      "midi.NoteOnEvent(tick=0, channel=2, data=[67, 100])\n",
      "midi.NoteOnEvent(tick=192, channel=2, data=[67, 0])\n",
      "midi.NoteOnEvent(tick=192, channel=2, data=[67, 100])\n",
      "midi.NoteOnEvent(tick=192, channel=2, data=[67, 0])\n",
      "midi.NoteOnEvent(tick=0, channel=2, data=[67, 100])\n",
      "midi.NoteOnEvent(tick=192, channel=2, data=[67, 0])\n",
      "midi.NoteOnEvent(tick=192, channel=2, data=[67, 100])\n",
      "midi.NoteOnEvent(tick=192, channel=2, data=[67, 0])\n",
      "midi.NoteOnEvent(tick=192, channel=2, data=[71, 100])\n",
      "midi.NoteOnEvent(tick=192, channel=2, data=[71, 0])\n",
      "midi.NoteOnEvent(tick=192, channel=2, data=[72, 100])\n",
      "midi.NoteOnEvent(tick=192, channel=2, data=[72, 0])\n",
      "midi.NoteOnEvent(tick=192, channel=2, data=[72, 100])\n",
      "midi.NoteOnEvent(tick=192, channel=2, data=[72, 0])\n",
      "midi.NoteOnEvent(tick=0, channel=2, data=[71, 100])\n",
      "midi.NoteOnEvent(tick=192, channel=2, data=[71, 0])\n",
      "midi.NoteOnEvent(tick=0, channel=2, data=[72, 100])\n",
      "midi.NoteOnEvent(tick=192, channel=2, data=[72, 0])\n",
      "midi.NoteOnEvent(tick=0, channel=2, data=[69, 100])\n",
      "midi.NoteOnEvent(tick=192, channel=2, data=[69, 0])\n",
      "midi.NoteOnEvent(tick=0, channel=2, data=[71, 100])\n",
      "midi.NoteOnEvent(tick=96, channel=2, data=[71, 0])\n",
      "midi.NoteOnEvent(tick=0, channel=2, data=[72, 100])\n",
      "midi.NoteOnEvent(tick=96, channel=2, data=[72, 0])\n",
      "midi.NoteOnEvent(tick=0, channel=2, data=[74, 100])\n",
      "midi.NoteOnEvent(tick=96, channel=2, data=[74, 0])\n",
      "midi.NoteOnEvent(tick=0, channel=2, data=[72, 100])\n",
      "midi.NoteOnEvent(tick=96, channel=2, data=[72, 0])\n",
      "midi.NoteOnEvent(tick=0, channel=2, data=[71, 100])\n",
      "midi.NoteOnEvent(tick=96, channel=2, data=[71, 0])\n",
      "midi.NoteOnEvent(tick=0, channel=2, data=[69, 100])\n",
      "midi.NoteOnEvent(tick=96, channel=2, data=[69, 0])\n",
      "midi.NoteOnEvent(tick=0, channel=2, data=[67, 100])\n",
      "midi.NoteOnEvent(tick=96, channel=2, data=[67, 0])\n",
      "midi.NoteOnEvent(tick=0, channel=2, data=[65, 100])\n",
      "midi.NoteOnEvent(tick=96, channel=2, data=[65, 0])\n",
      "midi.NoteOnEvent(tick=0, channel=2, data=[64, 100])\n",
      "midi.NoteOnEvent(tick=96, channel=2, data=[64, 0])\n",
      "midi.NoteOnEvent(tick=0, channel=2, data=[74, 100])\n",
      "midi.NoteOnEvent(tick=96, channel=2, data=[74, 0])\n",
      "midi.NoteOnEvent(tick=0, channel=2, data=[72, 100])\n",
      "midi.NoteOnEvent(tick=96, channel=2, data=[72, 0])\n",
      "midi.NoteOnEvent(tick=0, channel=2, data=[71, 100])\n",
      "midi.NoteOnEvent(tick=96, channel=2, data=[71, 0])\n",
      "midi.NoteOnEvent(tick=0, channel=2, data=[69, 100])\n",
      "midi.NoteOnEvent(tick=96, channel=2, data=[69, 0])\n",
      "midi.NoteOnEvent(tick=0, channel=2, data=[67, 100])\n",
      "midi.NoteOnEvent(tick=96, channel=2, data=[67, 0])\n",
      "midi.NoteOnEvent(tick=0, channel=2, data=[66, 100])\n",
      "midi.NoteOnEvent(tick=96, channel=2, data=[66, 0])\n",
      "midi.NoteOnEvent(tick=0, channel=2, data=[64, 100])\n",
      "midi.NoteOnEvent(tick=96, channel=2, data=[64, 0])\n",
      "midi.NoteOnEvent(tick=0, channel=2, data=[66, 100])\n",
      "midi.NoteOnEvent(tick=192, channel=2, data=[66, 0])\n",
      "midi.NoteOnEvent(tick=0, channel=2, data=[74, 100])\n",
      "midi.NoteOnEvent(tick=192, channel=2, data=[74, 0])\n",
      "midi.NoteOnEvent(tick=1344, channel=2, data=[69, 100])\n",
      "midi.NoteOnEvent(tick=96, channel=2, data=[69, 0])\n",
      "midi.NoteOnEvent(tick=0, channel=2, data=[67, 100])\n",
      "midi.NoteOnEvent(tick=96, channel=2, data=[67, 0])\n",
      "midi.NoteOnEvent(tick=0, channel=2, data=[66, 100])\n",
      "midi.NoteOnEvent(tick=96, channel=2, data=[66, 0])\n",
      "midi.NoteOnEvent(tick=0, channel=2, data=[64, 100])\n",
      "midi.NoteOnEvent(tick=96, channel=2, data=[64, 0])\n",
      "midi.NoteOnEvent(tick=0, channel=2, data=[62, 100])\n",
      "midi.NoteOnEvent(tick=96, channel=2, data=[62, 0])\n",
      "midi.NoteOnEvent(tick=0, channel=2, data=[60, 100])\n",
      "midi.NoteOnEvent(tick=96, channel=2, data=[60, 0])\n",
      "midi.NoteOnEvent(tick=0, channel=2, data=[62, 100])\n",
      "midi.NoteOnEvent(tick=96, channel=2, data=[62, 0])\n",
      "midi.NoteOnEvent(tick=0, channel=2, data=[72, 100])\n",
      "midi.NoteOnEvent(tick=96, channel=2, data=[72, 0])\n",
      "midi.NoteOnEvent(tick=0, channel=2, data=[71, 100])\n",
      "midi.NoteOnEvent(tick=96, channel=2, data=[71, 0])\n",
      "midi.NoteOnEvent(tick=0, channel=2, data=[69, 100])\n",
      "midi.NoteOnEvent(tick=96, channel=2, data=[69, 0])\n",
      "midi.NoteOnEvent(tick=0, channel=2, data=[67, 100])\n",
      "midi.NoteOnEvent(tick=96, channel=2, data=[67, 0])\n",
      "midi.NoteOnEvent(tick=0, channel=2, data=[66, 100])\n",
      "midi.NoteOnEvent(tick=96, channel=2, data=[66, 0])\n",
      "midi.NoteOnEvent(tick=0, channel=2, data=[64, 100])\n",
      "midi.NoteOnEvent(tick=96, channel=2, data=[64, 0])\n",
      "midi.NoteOnEvent(tick=0, channel=2, data=[63, 100])\n",
      "midi.NoteOnEvent(tick=96, channel=2, data=[63, 0])\n",
      "midi.NoteOnEvent(tick=0, channel=2, data=[64, 100])\n",
      "midi.NoteOnEvent(tick=192, channel=2, data=[64, 0])\n",
      "midi.NoteOnEvent(tick=0, channel=2, data=[69, 100])\n",
      "midi.NoteOnEvent(tick=192, channel=2, data=[69, 0])\n",
      "midi.NoteOnEvent(tick=1344, channel=2, data=[67, 100])\n",
      "midi.NoteOnEvent(tick=384, channel=2, data=[67, 0])\n",
      "midi.NoteOnEvent(tick=0, channel=2, data=[69, 100])\n",
      "midi.NoteOnEvent(tick=96, channel=2, data=[69, 0])\n",
      "midi.NoteOnEvent(tick=0, channel=2, data=[71, 100])\n",
      "midi.NoteOnEvent(tick=96, channel=2, data=[71, 0])\n",
      "midi.NoteOnEvent(tick=0, channel=2, data=[72, 100])\n",
      "midi.NoteOnEvent(tick=384, channel=2, data=[72, 0])\n",
      "midi.NoteOnEvent(tick=96, channel=2, data=[71, 100])\n",
      "midi.NoteOnEvent(tick=96, channel=2, data=[71, 0])\n",
      "midi.NoteOnEvent(tick=0, channel=2, data=[69, 100])\n",
      "midi.NoteOnEvent(tick=96, channel=2, data=[69, 0])\n",
      "midi.NoteOnEvent(tick=0, channel=2, data=[67, 100])\n",
      "midi.NoteOnEvent(tick=96, channel=2, data=[67, 0])\n",
      "midi.NoteOnEvent(tick=0, channel=2, data=[66, 100])\n",
      "midi.NoteOnEvent(tick=192, channel=2, data=[66, 0])\n",
      "midi.NoteOnEvent(tick=0, channel=2, data=[78, 100])\n",
      "midi.NoteOnEvent(tick=192, channel=2, data=[78, 0])\n",
      "midi.NoteOnEvent(tick=0, channel=2, data=[76, 100])\n",
      "midi.NoteOnEvent(tick=192, channel=2, data=[76, 0])\n",
      "midi.NoteOnEvent(tick=0, channel=2, data=[64, 100])\n",
      "midi.NoteOnEvent(tick=384, channel=2, data=[64, 0])\n",
      "midi.NoteOnEvent(tick=0, channel=2, data=[63, 100])\n",
      "midi.NoteOnEvent(tick=192, channel=2, data=[63, 0])\n",
      "midi.NoteOnEvent(tick=0, channel=2, data=[64, 100])\n",
      "midi.NoteOnEvent(tick=192, channel=2, data=[64, 0])\n",
      "midi.NoteOnEvent(tick=0, channel=2, data=[72, 100])\n",
      "midi.NoteOnEvent(tick=384, channel=2, data=[72, 0])\n",
      "midi.NoteOnEvent(tick=0, channel=2, data=[66, 100])\n",
      "midi.NoteOnEvent(tick=192, channel=2, data=[66, 0])\n",
      "midi.NoteOnEvent(tick=0, channel=2, data=[67, 100])\n",
      "midi.NoteOnEvent(tick=192, channel=2, data=[67, 0])\n",
      "midi.NoteOnEvent(tick=0, channel=2, data=[76, 100])\n",
      "midi.NoteOnEvent(tick=192, channel=2, data=[76, 0])\n",
      "midi.NoteOnEvent(tick=0, channel=2, data=[76, 100])\n",
      "midi.NoteOnEvent(tick=384, channel=2, data=[76, 0])\n",
      "midi.NoteOnEvent(tick=0, channel=2, data=[75, 100])\n",
      "midi.NoteOnEvent(tick=48, channel=2, data=[75, 0])\n",
      "midi.NoteOnEvent(tick=0, channel=2, data=[76, 100])\n",
      "midi.NoteOnEvent(tick=48, channel=2, data=[76, 0])\n",
      "midi.NoteOnEvent(tick=0, channel=2, data=[75, 100])\n",
      "midi.NoteOnEvent(tick=48, channel=2, data=[75, 0])\n",
      "midi.NoteOnEvent(tick=0, channel=2, data=[76, 100])\n",
      "midi.NoteOnEvent(tick=48, channel=2, data=[76, 0])\n",
      "midi.NoteOnEvent(tick=0, channel=2, data=[75, 100])\n",
      "midi.NoteOnEvent(tick=48, channel=2, data=[75, 0])\n",
      "midi.NoteOnEvent(tick=0, channel=2, data=[76, 100])\n",
      "midi.NoteOnEvent(tick=48, channel=2, data=[76, 0])\n",
      "midi.NoteOnEvent(tick=0, channel=2, data=[75, 100])\n",
      "midi.NoteOnEvent(tick=48, channel=2, data=[75, 0])\n",
      "midi.NoteOnEvent(tick=0, channel=2, data=[76, 100])\n",
      "midi.NoteOnEvent(tick=48, channel=2, data=[76, 0])\n",
      "midi.NoteOnEvent(tick=0, channel=2, data=[75, 100])\n",
      "midi.NoteOnEvent(tick=384, channel=2, data=[75, 0])\n",
      "midi.NoteOnEvent(tick=384, channel=2, data=[78, 100])\n",
      "midi.NoteOnEvent(tick=384, channel=2, data=[78, 0])\n",
      "midi.NoteOnEvent(tick=384, channel=2, data=[79, 100])\n",
      "midi.NoteOnEvent(tick=384, channel=2, data=[79, 0])\n",
      "midi.NoteOnEvent(tick=384, channel=2, data=[66, 100])\n",
      "midi.NoteOnEvent(tick=384, channel=2, data=[66, 0])\n",
      "midi.NoteOnEvent(tick=384, channel=2, data=[66, 100])\n",
      "midi.NoteOnEvent(tick=768, channel=2, data=[66, 0])\n",
      "midi.NoteOnEvent(tick=96, channel=2, data=[67, 100])\n",
      "midi.NoteOnEvent(tick=96, channel=2, data=[67, 0])\n",
      "midi.NoteOnEvent(tick=0, channel=2, data=[69, 100])\n",
      "midi.NoteOnEvent(tick=96, channel=2, data=[69, 0])\n",
      "midi.NoteOnEvent(tick=0, channel=2, data=[71, 100])\n",
      "midi.NoteOnEvent(tick=96, channel=2, data=[71, 0])\n",
      "midi.NoteOnEvent(tick=0, channel=2, data=[73, 100])\n",
      "midi.NoteOnEvent(tick=96, channel=2, data=[73, 0])\n",
      "midi.NoteOnEvent(tick=0, channel=2, data=[75, 100])\n",
      "midi.NoteOnEvent(tick=96, channel=2, data=[75, 0])\n",
      "midi.NoteOnEvent(tick=0, channel=2, data=[76, 100])\n",
      "midi.NoteOnEvent(tick=96, channel=2, data=[76, 0])\n",
      "midi.NoteOnEvent(tick=0, channel=2, data=[78, 100])\n",
      "midi.NoteOnEvent(tick=96, channel=2, data=[78, 0])\n",
      "midi.NoteOnEvent(tick=0, channel=2, data=[79, 100])\n",
      "midi.NoteOnEvent(tick=192, channel=2, data=[79, 0])\n",
      "midi.NoteOnEvent(tick=0, channel=2, data=[67, 100])\n",
      "midi.NoteOnEvent(tick=192, channel=2, data=[67, 0])\n",
      "midi.NoteOnEvent(tick=0, channel=2, data=[69, 100])\n",
      "midi.NoteOnEvent(tick=192, channel=2, data=[69, 0])\n",
      "midi.NoteOnEvent(tick=0, channel=2, data=[66, 100])\n",
      "midi.NoteOnEvent(tick=192, channel=2, data=[66, 0])\n",
      "midi.NoteOnEvent(tick=0, channel=2, data=[64, 100])\n",
      "midi.NoteOnEvent(tick=192, channel=2, data=[64, 0])\n",
      "midi.NoteOnEvent(tick=0, channel=2, data=[76, 100])\n",
      "midi.NoteOnEvent(tick=96, channel=2, data=[76, 0])\n",
      "midi.NoteOnEvent(tick=0, channel=2, data=[74, 100])\n",
      "midi.NoteOnEvent(tick=96, channel=2, data=[74, 0])\n",
      "midi.NoteOnEvent(tick=0, channel=2, data=[72, 100])\n",
      "midi.NoteOnEvent(tick=96, channel=2, data=[72, 0])\n",
      "midi.NoteOnEvent(tick=0, channel=2, data=[71, 100])\n",
      "midi.NoteOnEvent(tick=96, channel=2, data=[71, 0])\n"
     ]
    },
    {
     "name": "stdout",
     "output_type": "stream",
     "text": [
      "midi.NoteOnEvent(tick=0, channel=2, data=[69, 100])\n",
      "midi.NoteOnEvent(tick=96, channel=2, data=[69, 0])\n",
      "midi.NoteOnEvent(tick=0, channel=2, data=[67, 100])\n",
      "midi.NoteOnEvent(tick=96, channel=2, data=[67, 0])\n",
      "midi.NoteOnEvent(tick=0, channel=2, data=[66, 100])\n",
      "midi.NoteOnEvent(tick=96, channel=2, data=[66, 0])\n",
      "midi.NoteOnEvent(tick=0, channel=2, data=[64, 100])\n",
      "midi.NoteOnEvent(tick=96, channel=2, data=[64, 0])\n",
      "midi.NoteOnEvent(tick=0, channel=2, data=[63, 100])\n",
      "midi.NoteOnEvent(tick=96, channel=2, data=[63, 0])\n",
      "midi.NoteOnEvent(tick=0, channel=2, data=[64, 100])\n",
      "midi.NoteOnEvent(tick=96, channel=2, data=[64, 0])\n",
      "midi.NoteOnEvent(tick=0, channel=2, data=[66, 100])\n",
      "midi.NoteOnEvent(tick=96, channel=2, data=[66, 0])\n",
      "midi.NoteOnEvent(tick=0, channel=2, data=[67, 100])\n",
      "midi.NoteOnEvent(tick=96, channel=2, data=[67, 0])\n",
      "midi.NoteOnEvent(tick=0, channel=2, data=[69, 100])\n",
      "midi.NoteOnEvent(tick=96, channel=2, data=[69, 0])\n",
      "midi.NoteOnEvent(tick=0, channel=2, data=[71, 100])\n",
      "midi.NoteOnEvent(tick=96, channel=2, data=[71, 0])\n",
      "midi.NoteOnEvent(tick=0, channel=2, data=[72, 100])\n",
      "midi.NoteOnEvent(tick=96, channel=2, data=[72, 0])\n",
      "midi.NoteOnEvent(tick=0, channel=2, data=[71, 100])\n",
      "midi.NoteOnEvent(tick=96, channel=2, data=[71, 0])\n",
      "midi.NoteOnEvent(tick=0, channel=2, data=[69, 100])\n",
      "midi.NoteOnEvent(tick=96, channel=2, data=[69, 0])\n",
      "midi.NoteOnEvent(tick=0, channel=2, data=[67, 100])\n",
      "midi.NoteOnEvent(tick=96, channel=2, data=[67, 0])\n",
      "midi.NoteOnEvent(tick=0, channel=2, data=[66, 100])\n",
      "midi.NoteOnEvent(tick=96, channel=2, data=[66, 0])\n",
      "midi.NoteOnEvent(tick=0, channel=2, data=[64, 100])\n",
      "midi.NoteOnEvent(tick=96, channel=2, data=[64, 0])\n",
      "midi.NoteOnEvent(tick=0, channel=2, data=[63, 100])\n",
      "midi.NoteOnEvent(tick=96, channel=2, data=[63, 0])\n",
      "midi.NoteOnEvent(tick=0, channel=2, data=[64, 100])\n",
      "midi.NoteOnEvent(tick=96, channel=2, data=[64, 0])\n",
      "midi.NoteOnEvent(tick=0, channel=2, data=[69, 100])\n",
      "midi.NoteOnEvent(tick=192, channel=2, data=[69, 0])\n",
      "midi.NoteOnEvent(tick=0, channel=2, data=[64, 100])\n",
      "midi.NoteOnEvent(tick=192, channel=2, data=[64, 0])\n",
      "midi.NoteOnEvent(tick=0, channel=2, data=[64, 100])\n",
      "midi.NoteOnEvent(tick=192, channel=2, data=[64, 0])\n",
      "midi.NoteOnEvent(tick=0, channel=2, data=[63, 100])\n",
      "midi.NoteOnEvent(tick=192, channel=2, data=[63, 0])\n",
      "midi.NoteOnEvent(tick=0, channel=2, data=[59, 100])\n",
      "midi.NoteOnEvent(tick=384, channel=2, data=[59, 0])\n",
      "midi.NoteOnEvent(tick=576, channel=2, data=[67, 100])\n",
      "midi.NoteOnEvent(tick=192, channel=2, data=[67, 0])\n",
      "midi.NoteOnEvent(tick=0, channel=2, data=[71, 100])\n",
      "midi.NoteOnEvent(tick=192, channel=2, data=[71, 0])\n",
      "midi.NoteOnEvent(tick=384, channel=2, data=[71, 100])\n",
      "midi.NoteOnEvent(tick=96, channel=2, data=[71, 0])\n",
      "midi.NoteOnEvent(tick=0, channel=2, data=[73, 100])\n",
      "midi.NoteOnEvent(tick=96, channel=2, data=[73, 0])\n",
      "midi.NoteOnEvent(tick=0, channel=2, data=[75, 100])\n",
      "midi.NoteOnEvent(tick=192, channel=2, data=[75, 0])\n",
      "midi.NoteOnEvent(tick=384, channel=2, data=[63, 100])\n",
      "midi.NoteOnEvent(tick=192, channel=2, data=[63, 0])\n",
      "midi.NoteOnEvent(tick=0, channel=2, data=[69, 100])\n",
      "midi.NoteOnEvent(tick=192, channel=2, data=[69, 0])\n",
      "midi.NoteOnEvent(tick=384, channel=2, data=[71, 100])\n",
      "midi.NoteOnEvent(tick=192, channel=2, data=[71, 0])\n",
      "midi.NoteOnEvent(tick=0, channel=2, data=[76, 100])\n",
      "midi.NoteOnEvent(tick=192, channel=2, data=[76, 0])\n",
      "midi.NoteOnEvent(tick=0, channel=2, data=[67, 100])\n",
      "midi.NoteOnEvent(tick=192, channel=2, data=[67, 0])\n",
      "midi.NoteOnEvent(tick=0, channel=2, data=[69, 100])\n",
      "midi.NoteOnEvent(tick=384, channel=2, data=[69, 0])\n",
      "midi.NoteOnEvent(tick=0, channel=2, data=[71, 100])\n",
      "midi.NoteOnEvent(tick=384, channel=2, data=[71, 0])\n",
      "midi.NoteOnEvent(tick=0, channel=2, data=[72, 100])\n",
      "midi.NoteOnEvent(tick=384, channel=2, data=[72, 0])\n",
      "midi.NoteOnEvent(tick=0, channel=2, data=[68, 100])\n",
      "midi.NoteOnEvent(tick=384, channel=2, data=[68, 0])\n",
      "midi.NoteOnEvent(tick=0, channel=2, data=[69, 100])\n",
      "midi.NoteOnEvent(tick=384, channel=2, data=[69, 0])\n",
      "midi.NoteOnEvent(tick=0, channel=2, data=[67, 100])\n",
      "midi.NoteOnEvent(tick=384, channel=2, data=[67, 0])\n",
      "midi.NoteOnEvent(tick=0, channel=2, data=[65, 100])\n",
      "midi.NoteOnEvent(tick=384, channel=2, data=[65, 0])\n",
      "midi.NoteOnEvent(tick=0, channel=2, data=[64, 100])\n",
      "midi.NoteOnEvent(tick=384, channel=2, data=[64, 0])\n",
      "midi.NoteOnEvent(tick=0, channel=2, data=[62, 100])\n",
      "midi.NoteOnEvent(tick=384, channel=2, data=[62, 0])\n",
      "midi.NoteOnEvent(tick=0, channel=2, data=[57, 100])\n",
      "midi.NoteOnEvent(tick=384, channel=2, data=[57, 0])\n",
      "midi.NoteOnEvent(tick=0, channel=2, data=[62, 100])\n",
      "midi.NoteOnEvent(tick=384, channel=2, data=[62, 0])\n",
      "midi.NoteOnEvent(tick=0, channel=2, data=[66, 100])\n",
      "midi.NoteOnEvent(tick=384, channel=2, data=[66, 0])\n",
      "midi.NoteOnEvent(tick=0, channel=2, data=[67, 100])\n",
      "midi.NoteOnEvent(tick=384, channel=2, data=[67, 0])\n",
      "midi.NoteOnEvent(tick=0, channel=2, data=[65, 100])\n",
      "midi.NoteOnEvent(tick=384, channel=2, data=[65, 0])\n",
      "midi.NoteOnEvent(tick=0, channel=2, data=[64, 100])\n",
      "midi.NoteOnEvent(tick=384, channel=2, data=[64, 0])\n",
      "midi.NoteOnEvent(tick=0, channel=2, data=[62, 100])\n",
      "midi.NoteOnEvent(tick=384, channel=2, data=[62, 0])\n",
      "midi.NoteOnEvent(tick=0, channel=2, data=[60, 100])\n",
      "midi.NoteOnEvent(tick=384, channel=2, data=[60, 0])\n",
      "midi.NoteOnEvent(tick=0, channel=2, data=[67, 100])\n",
      "midi.NoteOnEvent(tick=384, channel=2, data=[67, 0])\n",
      "midi.NoteOnEvent(tick=0, channel=2, data=[72, 100])\n",
      "midi.NoteOnEvent(tick=384, channel=2, data=[72, 0])\n",
      "midi.NoteOnEvent(tick=0, channel=2, data=[76, 100])\n",
      "midi.NoteOnEvent(tick=384, channel=2, data=[76, 0])\n",
      "midi.NoteOnEvent(tick=0, channel=2, data=[77, 100])\n",
      "midi.NoteOnEvent(tick=384, channel=2, data=[77, 0])\n",
      "midi.NoteOnEvent(tick=2112, channel=2, data=[69, 100])\n",
      "midi.NoteOnEvent(tick=192, channel=2, data=[69, 0])\n",
      "midi.NoteOnEvent(tick=0, channel=2, data=[74, 100])\n",
      "midi.NoteOnEvent(tick=384, channel=2, data=[74, 0])\n",
      "midi.NoteOnEvent(tick=192, channel=2, data=[74, 100])\n",
      "midi.NoteOnEvent(tick=192, channel=2, data=[74, 0])\n",
      "midi.NoteOnEvent(tick=0, channel=2, data=[82, 100])\n",
      "midi.NoteOnEvent(tick=192, channel=2, data=[82, 0])\n",
      "midi.NoteOnEvent(tick=0, channel=2, data=[73, 100])\n",
      "midi.NoteOnEvent(tick=192, channel=2, data=[73, 0])\n",
      "midi.NoteOnEvent(tick=0, channel=2, data=[74, 100])\n",
      "midi.NoteOnEvent(tick=192, channel=2, data=[74, 0])\n",
      "midi.NoteOnEvent(tick=0, channel=2, data=[69, 100])\n",
      "midi.NoteOnEvent(tick=192, channel=2, data=[69, 0])\n",
      "midi.NoteOnEvent(tick=0, channel=2, data=[69, 100])\n",
      "midi.NoteOnEvent(tick=192, channel=2, data=[69, 0])\n",
      "midi.NoteOnEvent(tick=0, channel=2, data=[69, 100])\n",
      "midi.NoteOnEvent(tick=192, channel=2, data=[69, 0])\n",
      "midi.NoteOnEvent(tick=0, channel=2, data=[69, 100])\n",
      "midi.NoteOnEvent(tick=384, channel=2, data=[69, 0])\n",
      "midi.NoteOnEvent(tick=192, channel=2, data=[65, 100])\n",
      "midi.NoteOnEvent(tick=192, channel=2, data=[65, 0])\n",
      "midi.NoteOnEvent(tick=0, channel=2, data=[67, 100])\n",
      "midi.NoteOnEvent(tick=192, channel=2, data=[67, 0])\n",
      "midi.NoteOnEvent(tick=0, channel=2, data=[67, 100])\n",
      "midi.NoteOnEvent(tick=192, channel=2, data=[67, 0])\n",
      "midi.NoteOnEvent(tick=0, channel=2, data=[69, 100])\n",
      "midi.NoteOnEvent(tick=192, channel=2, data=[69, 0])\n",
      "midi.NoteOnEvent(tick=0, channel=2, data=[69, 100])\n",
      "midi.NoteOnEvent(tick=192, channel=2, data=[69, 0])\n",
      "midi.NoteOnEvent(tick=0, channel=2, data=[70, 100])\n",
      "midi.NoteOnEvent(tick=192, channel=2, data=[70, 0])\n",
      "midi.NoteOnEvent(tick=0, channel=2, data=[70, 100])\n",
      "midi.NoteOnEvent(tick=192, channel=2, data=[70, 0])\n",
      "midi.NoteOnEvent(tick=0, channel=2, data=[66, 100])\n",
      "midi.NoteOnEvent(tick=192, channel=2, data=[66, 0])\n",
      "midi.NoteOnEvent(tick=0, channel=2, data=[66, 100])\n",
      "midi.NoteOnEvent(tick=192, channel=2, data=[66, 0])\n",
      "midi.NoteOnEvent(tick=0, channel=2, data=[67, 100])\n",
      "midi.NoteOnEvent(tick=192, channel=2, data=[67, 0])\n",
      "midi.NoteOnEvent(tick=0, channel=2, data=[70, 100])\n",
      "midi.NoteOnEvent(tick=192, channel=2, data=[70, 0])\n",
      "midi.NoteOnEvent(tick=0, channel=2, data=[74, 100])\n",
      "midi.NoteOnEvent(tick=192, channel=2, data=[74, 0])\n",
      "midi.NoteOnEvent(tick=0, channel=2, data=[79, 100])\n",
      "midi.NoteOnEvent(tick=192, channel=2, data=[79, 0])\n",
      "midi.NoteOnEvent(tick=0, channel=2, data=[76, 100])\n",
      "midi.NoteOnEvent(tick=192, channel=2, data=[76, 0])\n",
      "midi.NoteOnEvent(tick=0, channel=2, data=[72, 100])\n",
      "midi.NoteOnEvent(tick=192, channel=2, data=[72, 0])\n",
      "midi.NoteOnEvent(tick=0, channel=2, data=[67, 100])\n",
      "midi.NoteOnEvent(tick=192, channel=2, data=[67, 0])\n",
      "midi.NoteOnEvent(tick=0, channel=2, data=[67, 100])\n",
      "midi.NoteOnEvent(tick=192, channel=2, data=[67, 0])\n",
      "midi.NoteOnEvent(tick=0, channel=2, data=[69, 100])\n",
      "midi.NoteOnEvent(tick=192, channel=2, data=[69, 0])\n",
      "midi.NoteOnEvent(tick=0, channel=2, data=[69, 100])\n",
      "midi.NoteOnEvent(tick=192, channel=2, data=[69, 0])\n",
      "midi.NoteOnEvent(tick=0, channel=2, data=[64, 100])\n",
      "midi.NoteOnEvent(tick=192, channel=2, data=[64, 0])\n",
      "midi.NoteOnEvent(tick=0, channel=2, data=[64, 100])\n",
      "midi.NoteOnEvent(tick=192, channel=2, data=[64, 0])\n",
      "midi.NoteOnEvent(tick=0, channel=2, data=[65, 100])\n",
      "midi.NoteOnEvent(tick=192, channel=2, data=[65, 0])\n",
      "midi.NoteOnEvent(tick=0, channel=2, data=[69, 100])\n",
      "midi.NoteOnEvent(tick=192, channel=2, data=[69, 0])\n",
      "midi.NoteOnEvent(tick=0, channel=2, data=[72, 100])\n",
      "midi.NoteOnEvent(tick=192, channel=2, data=[72, 0])\n",
      "midi.NoteOnEvent(tick=0, channel=2, data=[77, 100])\n",
      "midi.NoteOnEvent(tick=192, channel=2, data=[77, 0])\n",
      "midi.NoteOnEvent(tick=0, channel=2, data=[74, 100])\n",
      "midi.NoteOnEvent(tick=192, channel=2, data=[74, 0])\n",
      "midi.NoteOnEvent(tick=0, channel=2, data=[70, 100])\n",
      "midi.NoteOnEvent(tick=192, channel=2, data=[70, 0])\n",
      "midi.NoteOnEvent(tick=0, channel=2, data=[70, 100])\n",
      "midi.NoteOnEvent(tick=192, channel=2, data=[70, 0])\n",
      "midi.NoteOnEvent(tick=0, channel=2, data=[70, 100])\n",
      "midi.NoteOnEvent(tick=192, channel=2, data=[70, 0])\n",
      "midi.NoteOnEvent(tick=0, channel=2, data=[70, 100])\n",
      "midi.NoteOnEvent(tick=192, channel=2, data=[70, 0])\n",
      "midi.NoteOnEvent(tick=0, channel=2, data=[70, 100])\n",
      "midi.NoteOnEvent(tick=192, channel=2, data=[70, 0])\n",
      "midi.NoteOnEvent(tick=0, channel=2, data=[70, 100])\n",
      "midi.NoteOnEvent(tick=192, channel=2, data=[70, 0])\n",
      "midi.NoteOnEvent(tick=0, channel=2, data=[70, 100])\n",
      "midi.NoteOnEvent(tick=192, channel=2, data=[70, 0])\n",
      "midi.NoteOnEvent(tick=0, channel=2, data=[70, 100])\n",
      "midi.NoteOnEvent(tick=192, channel=2, data=[70, 0])\n",
      "midi.NoteOnEvent(tick=0, channel=2, data=[70, 100])\n",
      "midi.NoteOnEvent(tick=192, channel=2, data=[70, 0])\n",
      "midi.NoteOnEvent(tick=0, channel=2, data=[64, 100])\n",
      "midi.NoteOnEvent(tick=192, channel=2, data=[64, 0])\n",
      "midi.NoteOnEvent(tick=0, channel=2, data=[67, 100])\n",
      "midi.NoteOnEvent(tick=192, channel=2, data=[67, 0])\n",
      "midi.NoteOnEvent(tick=0, channel=2, data=[69, 100])\n",
      "midi.NoteOnEvent(tick=192, channel=2, data=[69, 0])\n",
      "midi.NoteOnEvent(tick=0, channel=2, data=[69, 100])\n",
      "midi.NoteOnEvent(tick=192, channel=2, data=[69, 0])\n",
      "midi.NoteOnEvent(tick=0, channel=2, data=[69, 100])\n",
      "midi.NoteOnEvent(tick=192, channel=2, data=[69, 0])\n",
      "midi.NoteOnEvent(tick=0, channel=2, data=[69, 100])\n",
      "midi.NoteOnEvent(tick=192, channel=2, data=[69, 0])\n",
      "midi.NoteOnEvent(tick=0, channel=2, data=[69, 100])\n",
      "midi.NoteOnEvent(tick=192, channel=2, data=[69, 0])\n",
      "midi.NoteOnEvent(tick=0, channel=2, data=[69, 100])\n",
      "midi.NoteOnEvent(tick=192, channel=2, data=[69, 0])\n",
      "midi.NoteOnEvent(tick=0, channel=2, data=[69, 100])\n",
      "midi.NoteOnEvent(tick=192, channel=2, data=[69, 0])\n",
      "midi.NoteOnEvent(tick=0, channel=2, data=[69, 100])\n",
      "midi.NoteOnEvent(tick=192, channel=2, data=[69, 0])\n",
      "midi.NoteOnEvent(tick=0, channel=2, data=[69, 100])\n",
      "midi.NoteOnEvent(tick=384, channel=2, data=[69, 0])\n",
      "midi.NoteOnEvent(tick=192, channel=2, data=[74, 100])\n",
      "midi.NoteOnEvent(tick=192, channel=2, data=[74, 0])\n",
      "midi.NoteOnEvent(tick=0, channel=2, data=[74, 100])\n",
      "midi.NoteOnEvent(tick=384, channel=2, data=[74, 0])\n",
      "midi.NoteOnEvent(tick=960, channel=2, data=[72, 100])\n",
      "midi.NoteOnEvent(tick=192, channel=2, data=[72, 0])\n",
      "midi.NoteOnEvent(tick=0, channel=2, data=[72, 100])\n",
      "midi.NoteOnEvent(tick=384, channel=2, data=[72, 0])\n",
      "midi.NoteOnEvent(tick=960, channel=2, data=[71, 100])\n",
      "midi.NoteOnEvent(tick=192, channel=2, data=[71, 0])\n",
      "midi.NoteOnEvent(tick=0, channel=2, data=[71, 100])\n",
      "midi.NoteOnEvent(tick=192, channel=2, data=[71, 0])\n",
      "midi.NoteOnEvent(tick=0, channel=2, data=[69, 100])\n",
      "midi.NoteOnEvent(tick=192, channel=2, data=[69, 0])\n",
      "midi.NoteOnEvent(tick=0, channel=2, data=[68, 100])\n",
      "midi.NoteOnEvent(tick=192, channel=2, data=[68, 0])\n",
      "midi.NoteOnEvent(tick=0, channel=2, data=[71, 100])\n",
      "midi.NoteOnEvent(tick=192, channel=2, data=[71, 0])\n",
      "midi.NoteOnEvent(tick=0, channel=2, data=[76, 100])\n",
      "midi.NoteOnEvent(tick=384, channel=2, data=[76, 0])\n",
      "midi.NoteOnEvent(tick=192, channel=2, data=[72, 100])\n",
      "midi.NoteOnEvent(tick=192, channel=2, data=[72, 0])\n",
      "midi.NoteOnEvent(tick=0, channel=2, data=[74, 100])\n",
      "midi.NoteOnEvent(tick=384, channel=2, data=[74, 0])\n",
      "midi.NoteOnEvent(tick=192, channel=2, data=[71, 100])\n",
      "midi.NoteOnEvent(tick=192, channel=2, data=[71, 0])\n",
      "midi.NoteOnEvent(tick=0, channel=2, data=[72, 100])\n",
      "midi.NoteOnEvent(tick=96, channel=2, data=[72, 0])\n",
      "midi.NoteOnEvent(tick=0, channel=2, data=[74, 100])\n",
      "midi.NoteOnEvent(tick=96, channel=2, data=[74, 0])\n",
      "midi.NoteOnEvent(tick=0, channel=2, data=[76, 100])\n",
      "midi.NoteOnEvent(tick=96, channel=2, data=[76, 0])\n",
      "midi.NoteOnEvent(tick=0, channel=2, data=[72, 100])\n",
      "midi.NoteOnEvent(tick=96, channel=2, data=[72, 0])\n",
      "midi.NoteOnEvent(tick=0, channel=2, data=[71, 100])\n",
      "midi.NoteOnEvent(tick=96, channel=2, data=[71, 0])\n",
      "midi.NoteOnEvent(tick=0, channel=2, data=[72, 100])\n",
      "midi.NoteOnEvent(tick=96, channel=2, data=[72, 0])\n",
      "midi.NoteOnEvent(tick=0, channel=2, data=[74, 100])\n",
      "midi.NoteOnEvent(tick=96, channel=2, data=[74, 0])\n",
      "midi.NoteOnEvent(tick=0, channel=2, data=[71, 100])\n",
      "midi.NoteOnEvent(tick=96, channel=2, data=[71, 0])\n",
      "midi.NoteOnEvent(tick=0, channel=2, data=[69, 100])\n",
      "midi.NoteOnEvent(tick=192, channel=2, data=[69, 0])\n",
      "midi.NoteOnEvent(tick=0, channel=2, data=[64, 100])\n",
      "midi.NoteOnEvent(tick=192, channel=2, data=[64, 0])\n",
      "midi.NoteOnEvent(tick=576, channel=2, data=[57, 100])\n",
      "midi.NoteOnEvent(tick=192, channel=2, data=[57, 0])\n",
      "midi.NoteOnEvent(tick=0, channel=2, data=[57, 100])\n",
      "midi.NoteOnEvent(tick=192, channel=2, data=[57, 0])\n",
      "midi.NoteOnEvent(tick=0, channel=2, data=[57, 100])\n",
      "midi.NoteOnEvent(tick=192, channel=2, data=[57, 0])\n",
      "midi.NoteOnEvent(tick=0, channel=2, data=[57, 100])\n",
      "midi.NoteOnEvent(tick=192, channel=2, data=[57, 0])\n",
      "midi.NoteOnEvent(tick=0, channel=2, data=[57, 100])\n",
      "midi.NoteOnEvent(tick=192, channel=2, data=[57, 0])\n",
      "midi.NoteOnEvent(tick=0, channel=2, data=[57, 100])\n",
      "midi.NoteOnEvent(tick=192, channel=2, data=[57, 0])\n",
      "midi.NoteOnEvent(tick=0, channel=2, data=[57, 100])\n",
      "midi.NoteOnEvent(tick=192, channel=2, data=[57, 0])\n",
      "midi.NoteOnEvent(tick=0, channel=2, data=[57, 100])\n",
      "midi.NoteOnEvent(tick=192, channel=2, data=[57, 0])\n",
      "midi.NoteOnEvent(tick=0, channel=2, data=[57, 100])\n",
      "midi.NoteOnEvent(tick=192, channel=2, data=[57, 0])\n",
      "midi.NoteOnEvent(tick=0, channel=2, data=[57, 100])\n",
      "midi.NoteOnEvent(tick=192, channel=2, data=[57, 0])\n",
      "midi.NoteOnEvent(tick=0, channel=2, data=[57, 100])\n",
      "midi.NoteOnEvent(tick=192, channel=2, data=[57, 0])\n",
      "midi.NoteOnEvent(tick=0, channel=2, data=[62, 100])\n",
      "midi.NoteOnEvent(tick=192, channel=2, data=[62, 0])\n",
      "midi.NoteOnEvent(tick=0, channel=2, data=[62, 100])\n",
      "midi.NoteOnEvent(tick=192, channel=2, data=[62, 0])\n",
      "midi.NoteOnEvent(tick=0, channel=2, data=[62, 100])\n",
      "midi.NoteOnEvent(tick=192, channel=2, data=[62, 0])\n",
      "midi.NoteOnEvent(tick=0, channel=2, data=[62, 100])\n",
      "midi.NoteOnEvent(tick=192, channel=2, data=[62, 0])\n",
      "midi.NoteOnEvent(tick=0, channel=2, data=[62, 100])\n",
      "midi.NoteOnEvent(tick=192, channel=2, data=[62, 0])\n",
      "midi.NoteOnEvent(tick=0, channel=2, data=[62, 100])\n",
      "midi.NoteOnEvent(tick=192, channel=2, data=[62, 0])\n",
      "midi.NoteOnEvent(tick=0, channel=2, data=[62, 100])\n",
      "midi.NoteOnEvent(tick=192, channel=2, data=[62, 0])\n",
      "midi.NoteOnEvent(tick=0, channel=2, data=[62, 100])\n",
      "midi.NoteOnEvent(tick=192, channel=2, data=[62, 0])\n",
      "midi.NoteOnEvent(tick=0, channel=2, data=[67, 100])\n",
      "midi.NoteOnEvent(tick=192, channel=2, data=[67, 0])\n",
      "midi.NoteOnEvent(tick=0, channel=2, data=[67, 100])\n",
      "midi.NoteOnEvent(tick=192, channel=2, data=[67, 0])\n",
      "midi.NoteOnEvent(tick=0, channel=2, data=[67, 100])\n",
      "midi.NoteOnEvent(tick=192, channel=2, data=[67, 0])\n",
      "midi.NoteOnEvent(tick=0, channel=2, data=[67, 100])\n",
      "midi.NoteOnEvent(tick=192, channel=2, data=[67, 0])\n",
      "midi.NoteOnEvent(tick=0, channel=2, data=[67, 100])\n",
      "midi.NoteOnEvent(tick=384, channel=2, data=[67, 0])\n",
      "midi.NoteOnEvent(tick=0, channel=2, data=[73, 100])\n",
      "midi.NoteOnEvent(tick=384, channel=2, data=[73, 0])\n",
      "midi.NoteOnEvent(tick=0, channel=2, data=[72, 100])\n",
      "midi.NoteOnEvent(tick=384, channel=2, data=[72, 0])\n",
      "midi.NoteOnEvent(tick=0, channel=2, data=[70, 100])\n",
      "midi.NoteOnEvent(tick=384, channel=2, data=[70, 0])\n",
      "midi.NoteOnEvent(tick=0, channel=2, data=[68, 100])\n",
      "midi.NoteOnEvent(tick=192, channel=2, data=[68, 0])\n",
      "midi.NoteOnEvent(tick=0, channel=2, data=[68, 100])\n",
      "midi.NoteOnEvent(tick=192, channel=2, data=[68, 0])\n",
      "midi.NoteOnEvent(tick=0, channel=2, data=[60, 100])\n",
      "midi.NoteOnEvent(tick=192, channel=2, data=[60, 0])\n",
      "midi.NoteOnEvent(tick=0, channel=2, data=[60, 100])\n",
      "midi.NoteOnEvent(tick=192, channel=2, data=[60, 0])\n",
      "midi.NoteOnEvent(tick=0, channel=2, data=[67, 100])\n",
      "midi.NoteOnEvent(tick=384, channel=2, data=[67, 0])\n",
      "midi.NoteOnEvent(tick=384, channel=2, data=[67, 100])\n",
      "midi.NoteOnEvent(tick=192, channel=2, data=[67, 0])\n",
      "midi.NoteOnEvent(tick=0, channel=2, data=[67, 100])\n",
      "midi.NoteOnEvent(tick=192, channel=2, data=[67, 0])\n",
      "midi.NoteOnEvent(tick=0, channel=2, data=[64, 100])\n",
      "midi.NoteOnEvent(tick=192, channel=2, data=[64, 0])\n",
      "midi.NoteOnEvent(tick=0, channel=2, data=[64, 100])\n",
      "midi.NoteOnEvent(tick=192, channel=2, data=[64, 0])\n",
      "midi.NoteOnEvent(tick=0, channel=2, data=[62, 100])\n",
      "midi.NoteOnEvent(tick=384, channel=2, data=[62, 0])\n",
      "midi.NoteOnEvent(tick=384, channel=2, data=[62, 100])\n",
      "midi.NoteOnEvent(tick=192, channel=2, data=[62, 0])\n",
      "midi.NoteOnEvent(tick=0, channel=2, data=[62, 100])\n",
      "midi.NoteOnEvent(tick=192, channel=2, data=[62, 0])\n",
      "midi.NoteOnEvent(tick=0, channel=2, data=[59, 100])\n",
      "midi.NoteOnEvent(tick=192, channel=2, data=[59, 0])\n",
      "midi.NoteOnEvent(tick=0, channel=2, data=[59, 100])\n",
      "midi.NoteOnEvent(tick=192, channel=2, data=[59, 0])\n",
      "midi.NoteOnEvent(tick=0, channel=2, data=[57, 100])\n",
      "midi.NoteOnEvent(tick=384, channel=2, data=[57, 0])\n",
      "midi.NoteOnEvent(tick=1728, channel=2, data=[71, 100])\n",
      "midi.NoteOnEvent(tick=192, channel=2, data=[71, 0])\n",
      "midi.NoteOnEvent(tick=0, channel=2, data=[76, 100])\n",
      "midi.NoteOnEvent(tick=384, channel=2, data=[76, 0])\n",
      "midi.NoteOnEvent(tick=192, channel=2, data=[72, 100])\n",
      "midi.NoteOnEvent(tick=192, channel=2, data=[72, 0])\n",
      "midi.NoteOnEvent(tick=0, channel=2, data=[74, 100])\n",
      "midi.NoteOnEvent(tick=384, channel=2, data=[74, 0])\n",
      "midi.NoteOnEvent(tick=192, channel=2, data=[71, 100])\n",
      "midi.NoteOnEvent(tick=192, channel=2, data=[71, 0])\n",
      "midi.NoteOnEvent(tick=0, channel=2, data=[72, 100])\n",
      "midi.NoteOnEvent(tick=96, channel=2, data=[72, 0])\n",
      "midi.NoteOnEvent(tick=0, channel=2, data=[74, 100])\n",
      "midi.NoteOnEvent(tick=96, channel=2, data=[74, 0])\n",
      "midi.NoteOnEvent(tick=0, channel=2, data=[76, 100])\n",
      "midi.NoteOnEvent(tick=96, channel=2, data=[76, 0])\n",
      "midi.NoteOnEvent(tick=0, channel=2, data=[72, 100])\n",
      "midi.NoteOnEvent(tick=96, channel=2, data=[72, 0])\n",
      "midi.NoteOnEvent(tick=0, channel=2, data=[71, 100])\n",
      "midi.NoteOnEvent(tick=96, channel=2, data=[71, 0])\n",
      "midi.NoteOnEvent(tick=0, channel=2, data=[72, 100])\n",
      "midi.NoteOnEvent(tick=96, channel=2, data=[72, 0])\n",
      "midi.NoteOnEvent(tick=0, channel=2, data=[74, 100])\n",
      "midi.NoteOnEvent(tick=96, channel=2, data=[74, 0])\n",
      "midi.NoteOnEvent(tick=0, channel=2, data=[71, 100])\n",
      "midi.NoteOnEvent(tick=96, channel=2, data=[71, 0])\n",
      "midi.NoteOnEvent(tick=0, channel=2, data=[69, 100])\n",
      "midi.NoteOnEvent(tick=192, channel=2, data=[69, 0])\n",
      "midi.NoteOnEvent(tick=0, channel=2, data=[76, 100])\n",
      "midi.NoteOnEvent(tick=96, channel=2, data=[76, 0])\n",
      "midi.NoteOnEvent(tick=0, channel=2, data=[74, 100])\n",
      "midi.NoteOnEvent(tick=96, channel=2, data=[74, 0])\n",
      "midi.NoteOnEvent(tick=0, channel=2, data=[72, 100])\n",
      "midi.NoteOnEvent(tick=96, channel=2, data=[72, 0])\n",
      "midi.NoteOnEvent(tick=0, channel=2, data=[71, 100])\n",
      "midi.NoteOnEvent(tick=96, channel=2, data=[71, 0])\n",
      "midi.NoteOnEvent(tick=0, channel=2, data=[69, 100])\n",
      "midi.NoteOnEvent(tick=96, channel=2, data=[69, 0])\n",
      "midi.NoteOnEvent(tick=0, channel=2, data=[67, 100])\n",
      "midi.NoteOnEvent(tick=96, channel=2, data=[67, 0])\n",
      "midi.NoteOnEvent(tick=0, channel=2, data=[69, 100])\n",
      "midi.NoteOnEvent(tick=96, channel=2, data=[69, 0])\n",
      "midi.NoteOnEvent(tick=0, channel=2, data=[79, 100])\n",
      "midi.NoteOnEvent(tick=96, channel=2, data=[79, 0])\n",
      "midi.NoteOnEvent(tick=0, channel=2, data=[77, 100])\n",
      "midi.NoteOnEvent(tick=96, channel=2, data=[77, 0])\n",
      "midi.NoteOnEvent(tick=0, channel=2, data=[76, 100])\n",
      "midi.NoteOnEvent(tick=96, channel=2, data=[76, 0])\n",
      "midi.NoteOnEvent(tick=0, channel=2, data=[74, 100])\n",
      "midi.NoteOnEvent(tick=96, channel=2, data=[74, 0])\n",
      "midi.NoteOnEvent(tick=0, channel=2, data=[72, 100])\n",
      "midi.NoteOnEvent(tick=96, channel=2, data=[72, 0])\n",
      "midi.NoteOnEvent(tick=0, channel=2, data=[71, 100])\n",
      "midi.NoteOnEvent(tick=96, channel=2, data=[71, 0])\n",
      "midi.NoteOnEvent(tick=0, channel=2, data=[69, 100])\n",
      "midi.NoteOnEvent(tick=96, channel=2, data=[69, 0])\n",
      "midi.NoteOnEvent(tick=0, channel=2, data=[71, 100])\n",
      "midi.NoteOnEvent(tick=192, channel=2, data=[71, 0])\n",
      "midi.NoteOnEvent(tick=0, channel=2, data=[79, 100])\n",
      "midi.NoteOnEvent(tick=192, channel=2, data=[79, 0])\n",
      "midi.NoteOnEvent(tick=1344, channel=2, data=[74, 100])\n",
      "midi.NoteOnEvent(tick=96, channel=2, data=[74, 0])\n",
      "midi.NoteOnEvent(tick=0, channel=2, data=[72, 100])\n",
      "midi.NoteOnEvent(tick=96, channel=2, data=[72, 0])\n",
      "midi.NoteOnEvent(tick=0, channel=2, data=[71, 100])\n",
      "midi.NoteOnEvent(tick=96, channel=2, data=[71, 0])\n",
      "midi.NoteOnEvent(tick=0, channel=2, data=[69, 100])\n",
      "midi.NoteOnEvent(tick=96, channel=2, data=[69, 0])\n",
      "midi.NoteOnEvent(tick=0, channel=2, data=[67, 100])\n",
      "midi.NoteOnEvent(tick=96, channel=2, data=[67, 0])\n",
      "midi.NoteOnEvent(tick=0, channel=2, data=[65, 100])\n",
      "midi.NoteOnEvent(tick=96, channel=2, data=[65, 0])\n",
      "midi.NoteOnEvent(tick=0, channel=2, data=[67, 100])\n",
      "midi.NoteOnEvent(tick=96, channel=2, data=[67, 0])\n",
      "midi.NoteOnEvent(tick=0, channel=2, data=[77, 100])\n",
      "midi.NoteOnEvent(tick=96, channel=2, data=[77, 0])\n",
      "midi.NoteOnEvent(tick=0, channel=2, data=[76, 100])\n",
      "midi.NoteOnEvent(tick=96, channel=2, data=[76, 0])\n",
      "midi.NoteOnEvent(tick=0, channel=2, data=[74, 100])\n",
      "midi.NoteOnEvent(tick=96, channel=2, data=[74, 0])\n",
      "midi.NoteOnEvent(tick=0, channel=2, data=[72, 100])\n",
      "midi.NoteOnEvent(tick=96, channel=2, data=[72, 0])\n",
      "midi.NoteOnEvent(tick=0, channel=2, data=[71, 100])\n",
      "midi.NoteOnEvent(tick=96, channel=2, data=[71, 0])\n",
      "midi.NoteOnEvent(tick=0, channel=2, data=[69, 100])\n",
      "midi.NoteOnEvent(tick=96, channel=2, data=[69, 0])\n",
      "midi.NoteOnEvent(tick=0, channel=2, data=[68, 100])\n",
      "midi.NoteOnEvent(tick=96, channel=2, data=[68, 0])\n",
      "midi.NoteOnEvent(tick=0, channel=2, data=[69, 100])\n",
      "midi.NoteOnEvent(tick=192, channel=2, data=[69, 0])\n",
      "midi.NoteOnEvent(tick=0, channel=2, data=[77, 100])\n",
      "midi.NoteOnEvent(tick=192, channel=2, data=[77, 0])\n",
      "midi.NoteOnEvent(tick=1344, channel=2, data=[72, 100])\n",
      "midi.NoteOnEvent(tick=96, channel=2, data=[72, 0])\n",
      "midi.NoteOnEvent(tick=0, channel=2, data=[71, 100])\n",
      "midi.NoteOnEvent(tick=96, channel=2, data=[71, 0])\n",
      "midi.NoteOnEvent(tick=0, channel=2, data=[69, 100])\n",
      "midi.NoteOnEvent(tick=96, channel=2, data=[69, 0])\n",
      "midi.NoteOnEvent(tick=0, channel=2, data=[67, 100])\n",
      "midi.NoteOnEvent(tick=96, channel=2, data=[67, 0])\n",
      "midi.NoteOnEvent(tick=0, channel=2, data=[65, 100])\n",
      "midi.NoteOnEvent(tick=96, channel=2, data=[65, 0])\n",
      "midi.NoteOnEvent(tick=0, channel=2, data=[64, 100])\n",
      "midi.NoteOnEvent(tick=96, channel=2, data=[64, 0])\n",
      "midi.NoteOnEvent(tick=0, channel=2, data=[65, 100])\n",
      "midi.NoteOnEvent(tick=384, channel=2, data=[65, 0])\n",
      "midi.NoteOnEvent(tick=96, channel=2, data=[64, 100])\n",
      "midi.NoteOnEvent(tick=96, channel=2, data=[64, 0])\n",
      "midi.NoteOnEvent(tick=0, channel=2, data=[62, 100])\n",
      "midi.NoteOnEvent(tick=96, channel=2, data=[62, 0])\n",
      "midi.NoteOnEvent(tick=0, channel=2, data=[60, 100])\n",
      "midi.NoteOnEvent(tick=96, channel=2, data=[60, 0])\n",
      "midi.NoteOnEvent(tick=0, channel=2, data=[59, 100])\n",
      "midi.NoteOnEvent(tick=192, channel=2, data=[59, 0])\n",
      "midi.NoteOnEvent(tick=0, channel=2, data=[71, 100])\n",
      "midi.NoteOnEvent(tick=192, channel=2, data=[71, 0])\n",
      "midi.NoteOnEvent(tick=0, channel=2, data=[69, 100])\n",
      "midi.NoteOnEvent(tick=192, channel=2, data=[69, 0])\n",
      "midi.NoteOnEvent(tick=0, channel=2, data=[57, 100])\n",
      "midi.NoteOnEvent(tick=384, channel=2, data=[57, 0])\n",
      "midi.NoteOnEvent(tick=0, channel=2, data=[64, 100])\n",
      "midi.NoteOnEvent(tick=192, channel=2, data=[64, 0])\n",
      "midi.NoteOnEvent(tick=0, channel=2, data=[62, 100])\n",
      "midi.NoteOnEvent(tick=192, channel=2, data=[62, 0])\n",
      "midi.NoteOnEvent(tick=0, channel=2, data=[74, 100])\n",
      "midi.NoteOnEvent(tick=384, channel=2, data=[74, 0])\n",
      "midi.NoteOnEvent(tick=0, channel=2, data=[71, 100])\n",
      "midi.NoteOnEvent(tick=192, channel=2, data=[71, 0])\n",
      "midi.NoteOnEvent(tick=0, channel=2, data=[72, 100])\n",
      "midi.NoteOnEvent(tick=192, channel=2, data=[72, 0])\n",
      "midi.NoteOnEvent(tick=0, channel=2, data=[76, 100])\n",
      "midi.NoteOnEvent(tick=192, channel=2, data=[76, 0])\n",
      "midi.NoteOnEvent(tick=0, channel=2, data=[76, 100])\n",
      "midi.NoteOnEvent(tick=384, channel=2, data=[76, 0])\n",
      "midi.NoteOnEvent(tick=0, channel=2, data=[76, 100])\n",
      "midi.NoteOnEvent(tick=768, channel=2, data=[76, 0])\n",
      "midi.NoteOnEvent(tick=384, channel=2, data=[71, 100])\n",
      "midi.NoteOnEvent(tick=384, channel=2, data=[71, 0])\n",
      "midi.NoteOnEvent(tick=384, channel=2, data=[74, 100])\n",
      "midi.NoteOnEvent(tick=384, channel=2, data=[74, 0])\n",
      "midi.NoteOnEvent(tick=384, channel=2, data=[71, 100])\n",
      "midi.NoteOnEvent(tick=384, channel=2, data=[71, 0])\n",
      "midi.NoteOnEvent(tick=384, channel=2, data=[71, 100])\n",
      "midi.NoteOnEvent(tick=768, channel=2, data=[71, 0])\n",
      "midi.NoteOnEvent(tick=96, channel=2, data=[72, 100])\n",
      "midi.NoteOnEvent(tick=96, channel=2, data=[72, 0])\n",
      "midi.NoteOnEvent(tick=0, channel=2, data=[74, 100])\n",
      "midi.NoteOnEvent(tick=96, channel=2, data=[74, 0])\n",
      "midi.NoteOnEvent(tick=0, channel=2, data=[76, 100])\n"
     ]
    },
    {
     "name": "stdout",
     "output_type": "stream",
     "text": [
      "midi.NoteOnEvent(tick=96, channel=2, data=[76, 0])\n",
      "midi.NoteOnEvent(tick=0, channel=2, data=[78, 100])\n",
      "midi.NoteOnEvent(tick=96, channel=2, data=[78, 0])\n",
      "midi.NoteOnEvent(tick=0, channel=2, data=[80, 100])\n",
      "midi.NoteOnEvent(tick=96, channel=2, data=[80, 0])\n",
      "midi.NoteOnEvent(tick=0, channel=2, data=[81, 100])\n",
      "midi.NoteOnEvent(tick=96, channel=2, data=[81, 0])\n",
      "midi.NoteOnEvent(tick=0, channel=2, data=[83, 100])\n",
      "midi.NoteOnEvent(tick=96, channel=2, data=[83, 0])\n",
      "midi.NoteOnEvent(tick=0, channel=2, data=[76, 100])\n",
      "midi.NoteOnEvent(tick=192, channel=2, data=[76, 0])\n",
      "midi.NoteOnEvent(tick=0, channel=2, data=[72, 100])\n",
      "midi.NoteOnEvent(tick=192, channel=2, data=[72, 0])\n",
      "midi.NoteOnEvent(tick=0, channel=2, data=[74, 100])\n",
      "midi.NoteOnEvent(tick=192, channel=2, data=[74, 0])\n",
      "midi.NoteOnEvent(tick=0, channel=2, data=[71, 100])\n",
      "midi.NoteOnEvent(tick=192, channel=2, data=[71, 0])\n",
      "midi.NoteOnEvent(tick=0, channel=2, data=[69, 100])\n",
      "midi.NoteOnEvent(tick=192, channel=2, data=[69, 0])\n",
      "midi.NoteOnEvent(tick=0, channel=2, data=[81, 100])\n",
      "midi.NoteOnEvent(tick=96, channel=2, data=[81, 0])\n",
      "midi.NoteOnEvent(tick=0, channel=2, data=[79, 100])\n",
      "midi.NoteOnEvent(tick=96, channel=2, data=[79, 0])\n",
      "midi.NoteOnEvent(tick=0, channel=2, data=[77, 100])\n",
      "midi.NoteOnEvent(tick=96, channel=2, data=[77, 0])\n",
      "midi.NoteOnEvent(tick=0, channel=2, data=[76, 100])\n",
      "midi.NoteOnEvent(tick=96, channel=2, data=[76, 0])\n",
      "midi.NoteOnEvent(tick=0, channel=2, data=[74, 100])\n",
      "midi.NoteOnEvent(tick=96, channel=2, data=[74, 0])\n",
      "midi.NoteOnEvent(tick=0, channel=2, data=[72, 100])\n",
      "midi.NoteOnEvent(tick=96, channel=2, data=[72, 0])\n",
      "midi.NoteOnEvent(tick=0, channel=2, data=[71, 100])\n",
      "midi.NoteOnEvent(tick=96, channel=2, data=[71, 0])\n",
      "midi.NoteOnEvent(tick=0, channel=2, data=[69, 100])\n",
      "midi.NoteOnEvent(tick=96, channel=2, data=[69, 0])\n",
      "midi.NoteOnEvent(tick=0, channel=2, data=[68, 100])\n",
      "midi.NoteOnEvent(tick=96, channel=2, data=[68, 0])\n",
      "midi.NoteOnEvent(tick=0, channel=2, data=[69, 100])\n",
      "midi.NoteOnEvent(tick=96, channel=2, data=[69, 0])\n",
      "midi.NoteOnEvent(tick=0, channel=2, data=[71, 100])\n",
      "midi.NoteOnEvent(tick=96, channel=2, data=[71, 0])\n",
      "midi.NoteOnEvent(tick=0, channel=2, data=[72, 100])\n",
      "midi.NoteOnEvent(tick=96, channel=2, data=[72, 0])\n",
      "midi.NoteOnEvent(tick=0, channel=2, data=[74, 100])\n",
      "midi.NoteOnEvent(tick=96, channel=2, data=[74, 0])\n",
      "midi.NoteOnEvent(tick=0, channel=2, data=[76, 100])\n",
      "midi.NoteOnEvent(tick=96, channel=2, data=[76, 0])\n",
      "midi.NoteOnEvent(tick=0, channel=2, data=[77, 100])\n",
      "midi.NoteOnEvent(tick=96, channel=2, data=[77, 0])\n",
      "midi.NoteOnEvent(tick=0, channel=2, data=[76, 100])\n",
      "midi.NoteOnEvent(tick=96, channel=2, data=[76, 0])\n",
      "midi.NoteOnEvent(tick=0, channel=2, data=[74, 100])\n",
      "midi.NoteOnEvent(tick=96, channel=2, data=[74, 0])\n",
      "midi.NoteOnEvent(tick=0, channel=2, data=[72, 100])\n",
      "midi.NoteOnEvent(tick=96, channel=2, data=[72, 0])\n",
      "midi.NoteOnEvent(tick=0, channel=2, data=[71, 100])\n",
      "midi.NoteOnEvent(tick=96, channel=2, data=[71, 0])\n",
      "midi.NoteOnEvent(tick=0, channel=2, data=[69, 100])\n",
      "midi.NoteOnEvent(tick=96, channel=2, data=[69, 0])\n",
      "midi.NoteOnEvent(tick=0, channel=2, data=[68, 100])\n",
      "midi.NoteOnEvent(tick=96, channel=2, data=[68, 0])\n",
      "midi.NoteOnEvent(tick=0, channel=2, data=[69, 100])\n",
      "midi.NoteOnEvent(tick=96, channel=2, data=[69, 0])\n",
      "midi.NoteOnEvent(tick=0, channel=2, data=[74, 100])\n",
      "midi.NoteOnEvent(tick=192, channel=2, data=[74, 0])\n",
      "midi.NoteOnEvent(tick=0, channel=2, data=[69, 100])\n",
      "midi.NoteOnEvent(tick=192, channel=2, data=[69, 0])\n",
      "midi.NoteOnEvent(tick=0, channel=2, data=[69, 100])\n",
      "midi.NoteOnEvent(tick=192, channel=2, data=[69, 0])\n",
      "midi.NoteOnEvent(tick=0, channel=2, data=[68, 100])\n",
      "midi.NoteOnEvent(tick=192, channel=2, data=[68, 0])\n",
      "midi.NoteOnEvent(tick=0, channel=2, data=[69, 100])\n",
      "midi.NoteOnEvent(tick=576, channel=2, data=[69, 0])\n",
      "midi.EndOfTrackEvent(tick=0, data=[])\n",
      "midi.PortEvent(tick=0, data=[0])\n",
      "midi.TrackNameEvent(tick=0, text='Viola', data=[86, 105, 111, 108, 97])\n",
      "midi.ProgramChangeEvent(tick=0, channel=3, data=[41])\n",
      "midi.ControlChangeEvent(tick=0, channel=3, data=[7, 105])\n",
      "midi.ControlChangeEvent(tick=0, channel=3, data=[10, 44])\n",
      "midi.NoteOnEvent(tick=576, channel=3, data=[69, 100])\n",
      "midi.NoteOnEvent(tick=192, channel=3, data=[69, 0])\n",
      "midi.NoteOnEvent(tick=0, channel=3, data=[72, 100])\n",
      "midi.NoteOnEvent(tick=384, channel=3, data=[72, 0])\n",
      "midi.NoteOnEvent(tick=192, channel=3, data=[69, 100])\n",
      "midi.NoteOnEvent(tick=192, channel=3, data=[69, 0])\n",
      "midi.NoteOnEvent(tick=0, channel=3, data=[62, 100])\n",
      "midi.NoteOnEvent(tick=384, channel=3, data=[62, 0])\n",
      "midi.NoteOnEvent(tick=192, channel=3, data=[62, 100])\n",
      "midi.NoteOnEvent(tick=192, channel=3, data=[62, 0])\n",
      "midi.NoteOnEvent(tick=0, channel=3, data=[57, 100])\n",
      "midi.NoteOnEvent(tick=192, channel=3, data=[57, 0])\n",
      "midi.NoteOnEvent(tick=0, channel=3, data=[64, 100])\n",
      "midi.NoteOnEvent(tick=192, channel=3, data=[64, 0])\n",
      "midi.NoteOnEvent(tick=0, channel=3, data=[56, 100])\n",
      "midi.NoteOnEvent(tick=192, channel=3, data=[56, 0])\n",
      "midi.NoteOnEvent(tick=0, channel=3, data=[64, 100])\n",
      "midi.NoteOnEvent(tick=192, channel=3, data=[64, 0])\n",
      "midi.NoteOnEvent(tick=0, channel=3, data=[64, 100])\n",
      "midi.NoteOnEvent(tick=192, channel=3, data=[64, 0])\n",
      "midi.NoteOnEvent(tick=0, channel=3, data=[60, 100])\n",
      "midi.NoteOnEvent(tick=192, channel=3, data=[60, 0])\n",
      "midi.NoteOnEvent(tick=192, channel=3, data=[60, 100])\n",
      "midi.NoteOnEvent(tick=192, channel=3, data=[60, 0])\n",
      "midi.NoteOnEvent(tick=0, channel=3, data=[59, 100])\n",
      "midi.NoteOnEvent(tick=192, channel=3, data=[59, 0])\n",
      "midi.NoteOnEvent(tick=192, channel=3, data=[57, 100])\n",
      "midi.NoteOnEvent(tick=192, channel=3, data=[57, 0])\n",
      "midi.NoteOnEvent(tick=192, channel=3, data=[62, 100])\n",
      "midi.NoteOnEvent(tick=192, channel=3, data=[62, 0])\n",
      "midi.NoteOnEvent(tick=192, channel=3, data=[60, 100])\n",
      "midi.NoteOnEvent(tick=192, channel=3, data=[60, 0])\n",
      "midi.NoteOnEvent(tick=192, channel=3, data=[57, 100])\n",
      "midi.NoteOnEvent(tick=192, channel=3, data=[57, 0])\n",
      "midi.NoteOnEvent(tick=0, channel=3, data=[59, 100])\n",
      "midi.NoteOnEvent(tick=288, channel=3, data=[59, 0])\n",
      "midi.NoteOnEvent(tick=0, channel=3, data=[57, 100])\n",
      "midi.NoteOnEvent(tick=96, channel=3, data=[57, 0])\n",
      "midi.NoteOnEvent(tick=0, channel=3, data=[56, 100])\n",
      "midi.NoteOnEvent(tick=96, channel=3, data=[56, 0])\n",
      "midi.NoteOnEvent(tick=0, channel=3, data=[57, 100])\n",
      "midi.NoteOnEvent(tick=96, channel=3, data=[57, 0])\n",
      "midi.NoteOnEvent(tick=0, channel=3, data=[59, 100])\n",
      "midi.NoteOnEvent(tick=192, channel=3, data=[59, 0])\n",
      "midi.NoteOnEvent(tick=0, channel=3, data=[71, 100])\n",
      "midi.NoteOnEvent(tick=192, channel=3, data=[71, 0])\n",
      "midi.NoteOnEvent(tick=0, channel=3, data=[68, 100])\n",
      "midi.NoteOnEvent(tick=192, channel=3, data=[68, 0])\n",
      "midi.NoteOnEvent(tick=0, channel=3, data=[64, 100])\n",
      "midi.NoteOnEvent(tick=384, channel=3, data=[64, 0])\n",
      "midi.NoteOnEvent(tick=0, channel=3, data=[69, 100])\n",
      "midi.NoteOnEvent(tick=96, channel=3, data=[69, 0])\n",
      "midi.NoteOnEvent(tick=0, channel=3, data=[71, 100])\n",
      "midi.NoteOnEvent(tick=96, channel=3, data=[71, 0])\n",
      "midi.NoteOnEvent(tick=0, channel=3, data=[72, 100])\n",
      "midi.NoteOnEvent(tick=192, channel=3, data=[72, 0])\n",
      "midi.NoteOnEvent(tick=0, channel=3, data=[60, 100])\n",
      "midi.NoteOnEvent(tick=192, channel=3, data=[60, 0])\n",
      "midi.NoteOnEvent(tick=0, channel=3, data=[57, 100])\n",
      "midi.NoteOnEvent(tick=192, channel=3, data=[57, 0])\n",
      "midi.NoteOnEvent(tick=0, channel=3, data=[69, 100])\n",
      "midi.NoteOnEvent(tick=192, channel=3, data=[69, 0])\n",
      "midi.NoteOnEvent(tick=0, channel=3, data=[66, 100])\n",
      "midi.NoteOnEvent(tick=192, channel=3, data=[66, 0])\n",
      "midi.NoteOnEvent(tick=0, channel=3, data=[62, 100])\n",
      "midi.NoteOnEvent(tick=384, channel=3, data=[62, 0])\n",
      "midi.NoteOnEvent(tick=0, channel=3, data=[67, 100])\n",
      "midi.NoteOnEvent(tick=96, channel=3, data=[67, 0])\n",
      "midi.NoteOnEvent(tick=0, channel=3, data=[69, 100])\n",
      "midi.NoteOnEvent(tick=96, channel=3, data=[69, 0])\n",
      "midi.NoteOnEvent(tick=0, channel=3, data=[71, 100])\n",
      "midi.NoteOnEvent(tick=192, channel=3, data=[71, 0])\n",
      "midi.NoteOnEvent(tick=0, channel=3, data=[59, 100])\n",
      "midi.NoteOnEvent(tick=192, channel=3, data=[59, 0])\n",
      "midi.NoteOnEvent(tick=0, channel=3, data=[55, 100])\n",
      "midi.NoteOnEvent(tick=192, channel=3, data=[55, 0])\n",
      "midi.NoteOnEvent(tick=0, channel=3, data=[64, 100])\n",
      "midi.NoteOnEvent(tick=192, channel=3, data=[64, 0])\n",
      "midi.NoteOnEvent(tick=0, channel=3, data=[67, 100])\n",
      "midi.NoteOnEvent(tick=192, channel=3, data=[67, 0])\n",
      "midi.NoteOnEvent(tick=0, channel=3, data=[72, 100])\n",
      "midi.NoteOnEvent(tick=192, channel=3, data=[72, 0])\n",
      "midi.NoteOnEvent(tick=0, channel=3, data=[66, 100])\n",
      "midi.NoteOnEvent(tick=192, channel=3, data=[66, 0])\n",
      "midi.NoteOnEvent(tick=0, channel=3, data=[69, 100])\n",
      "midi.NoteOnEvent(tick=192, channel=3, data=[69, 0])\n",
      "midi.NoteOnEvent(tick=0, channel=3, data=[63, 100])\n",
      "midi.NoteOnEvent(tick=192, channel=3, data=[63, 0])\n",
      "midi.NoteOnEvent(tick=0, channel=3, data=[66, 100])\n",
      "midi.NoteOnEvent(tick=384, channel=3, data=[66, 0])\n",
      "midi.NoteOnEvent(tick=0, channel=3, data=[59, 100])\n",
      "midi.NoteOnEvent(tick=192, channel=3, data=[59, 0])\n",
      "midi.NoteOnEvent(tick=0, channel=3, data=[71, 100])\n",
      "midi.NoteOnEvent(tick=192, channel=3, data=[71, 0])\n",
      "midi.NoteOnEvent(tick=0, channel=3, data=[67, 100])\n",
      "midi.NoteOnEvent(tick=192, channel=3, data=[67, 0])\n",
      "midi.NoteOnEvent(tick=0, channel=3, data=[64, 100])\n",
      "midi.NoteOnEvent(tick=192, channel=3, data=[64, 0])\n",
      "midi.NoteOnEvent(tick=0, channel=3, data=[67, 100])\n",
      "midi.NoteOnEvent(tick=192, channel=3, data=[67, 0])\n",
      "midi.NoteOnEvent(tick=0, channel=3, data=[69, 100])\n",
      "midi.NoteOnEvent(tick=96, channel=3, data=[69, 0])\n",
      "midi.NoteOnEvent(tick=0, channel=3, data=[71, 100])\n",
      "midi.NoteOnEvent(tick=96, channel=3, data=[71, 0])\n",
      "midi.NoteOnEvent(tick=0, channel=3, data=[69, 100])\n",
      "midi.NoteOnEvent(tick=96, channel=3, data=[69, 0])\n",
      "midi.NoteOnEvent(tick=0, channel=3, data=[67, 100])\n",
      "midi.NoteOnEvent(tick=96, channel=3, data=[67, 0])\n",
      "midi.NoteOnEvent(tick=0, channel=3, data=[66, 100])\n",
      "midi.NoteOnEvent(tick=192, channel=3, data=[66, 0])\n",
      "midi.NoteOnEvent(tick=0, channel=3, data=[69, 100])\n",
      "midi.NoteOnEvent(tick=192, channel=3, data=[69, 0])\n",
      "midi.NoteOnEvent(tick=0, channel=3, data=[67, 100])\n",
      "midi.NoteOnEvent(tick=192, channel=3, data=[67, 0])\n",
      "midi.NoteOnEvent(tick=0, channel=3, data=[71, 100])\n",
      "midi.NoteOnEvent(tick=192, channel=3, data=[71, 0])\n",
      "midi.NoteOnEvent(tick=0, channel=3, data=[71, 100])\n",
      "midi.NoteOnEvent(tick=384, channel=3, data=[71, 0])\n",
      "midi.NoteOnEvent(tick=0, channel=3, data=[71, 100])\n",
      "midi.NoteOnEvent(tick=384, channel=3, data=[71, 0])\n",
      "midi.NoteOnEvent(tick=0, channel=3, data=[72, 100])\n",
      "midi.NoteOnEvent(tick=384, channel=3, data=[72, 0])\n",
      "midi.NoteOnEvent(tick=192, channel=3, data=[71, 100])\n",
      "midi.NoteOnEvent(tick=192, channel=3, data=[71, 0])\n",
      "midi.NoteOnEvent(tick=0, channel=3, data=[59, 100])\n",
      "midi.NoteOnEvent(tick=192, channel=3, data=[59, 0])\n",
      "midi.NoteOnEvent(tick=0, channel=3, data=[60, 100])\n",
      "midi.NoteOnEvent(tick=192, channel=3, data=[60, 0])\n",
      "midi.NoteOnEvent(tick=0, channel=3, data=[60, 100])\n",
      "midi.NoteOnEvent(tick=192, channel=3, data=[60, 0])\n",
      "midi.NoteOnEvent(tick=0, channel=3, data=[59, 100])\n",
      "midi.NoteOnEvent(tick=192, channel=3, data=[59, 0])\n",
      "midi.NoteOnEvent(tick=0, channel=3, data=[59, 100])\n",
      "midi.NoteOnEvent(tick=192, channel=3, data=[59, 0])\n",
      "midi.NoteOnEvent(tick=0, channel=3, data=[57, 100])\n",
      "midi.NoteOnEvent(tick=192, channel=3, data=[57, 0])\n",
      "midi.NoteOnEvent(tick=192, channel=3, data=[64, 100])\n",
      "midi.NoteOnEvent(tick=192, channel=3, data=[64, 0])\n",
      "midi.NoteOnEvent(tick=0, channel=3, data=[66, 100])\n",
      "midi.NoteOnEvent(tick=192, channel=3, data=[66, 0])\n",
      "midi.NoteOnEvent(tick=0, channel=3, data=[69, 100])\n",
      "midi.NoteOnEvent(tick=192, channel=3, data=[69, 0])\n",
      "midi.NoteOnEvent(tick=192, channel=3, data=[66, 100])\n",
      "midi.NoteOnEvent(tick=192, channel=3, data=[66, 0])\n",
      "midi.NoteOnEvent(tick=0, channel=3, data=[63, 100])\n",
      "midi.NoteOnEvent(tick=192, channel=3, data=[63, 0])\n",
      "midi.NoteOnEvent(tick=0, channel=3, data=[66, 100])\n",
      "midi.NoteOnEvent(tick=192, channel=3, data=[66, 0])\n",
      "midi.NoteOnEvent(tick=192, channel=3, data=[57, 100])\n",
      "midi.NoteOnEvent(tick=384, channel=3, data=[57, 0])\n",
      "midi.NoteOnEvent(tick=0, channel=3, data=[64, 100])\n",
      "midi.NoteOnEvent(tick=192, channel=3, data=[64, 0])\n",
      "midi.NoteOnEvent(tick=0, channel=3, data=[64, 100])\n",
      "midi.NoteOnEvent(tick=192, channel=3, data=[64, 0])\n",
      "midi.NoteOnEvent(tick=0, channel=3, data=[59, 100])\n",
      "midi.NoteOnEvent(tick=192, channel=3, data=[59, 0])\n",
      "midi.NoteOnEvent(tick=0, channel=3, data=[56, 100])\n",
      "midi.NoteOnEvent(tick=384, channel=3, data=[56, 0])\n",
      "midi.NoteOnEvent(tick=576, channel=3, data=[69, 100])\n",
      "midi.NoteOnEvent(tick=192, channel=3, data=[69, 0])\n",
      "midi.NoteOnEvent(tick=0, channel=3, data=[72, 100])\n",
      "midi.NoteOnEvent(tick=192, channel=3, data=[72, 0])\n",
      "midi.NoteOnEvent(tick=384, channel=3, data=[71, 100])\n",
      "midi.NoteOnEvent(tick=96, channel=3, data=[71, 0])\n",
      "midi.NoteOnEvent(tick=0, channel=3, data=[72, 100])\n",
      "midi.NoteOnEvent(tick=96, channel=3, data=[72, 0])\n",
      "midi.NoteOnEvent(tick=0, channel=3, data=[74, 100])\n",
      "midi.NoteOnEvent(tick=192, channel=3, data=[74, 0])\n",
      "midi.NoteOnEvent(tick=384, channel=3, data=[71, 100])\n",
      "midi.NoteOnEvent(tick=192, channel=3, data=[71, 0])\n",
      "midi.NoteOnEvent(tick=0, channel=3, data=[68, 100])\n",
      "midi.NoteOnEvent(tick=192, channel=3, data=[68, 0])\n",
      "midi.NoteOnEvent(tick=384, channel=3, data=[72, 100])\n",
      "midi.NoteOnEvent(tick=96, channel=3, data=[72, 0])\n",
      "midi.NoteOnEvent(tick=0, channel=3, data=[74, 100])\n",
      "midi.NoteOnEvent(tick=96, channel=3, data=[74, 0])\n",
      "midi.NoteOnEvent(tick=0, channel=3, data=[76, 100])\n",
      "midi.NoteOnEvent(tick=192, channel=3, data=[76, 0])\n",
      "midi.NoteOnEvent(tick=3072, channel=3, data=[68, 100])\n",
      "midi.NoteOnEvent(tick=192, channel=3, data=[68, 0])\n",
      "midi.NoteOnEvent(tick=0, channel=3, data=[64, 100])\n",
      "midi.NoteOnEvent(tick=384, channel=3, data=[64, 0])\n",
      "midi.NoteOnEvent(tick=192, channel=3, data=[69, 100])\n",
      "midi.NoteOnEvent(tick=192, channel=3, data=[69, 0])\n",
      "midi.NoteOnEvent(tick=0, channel=3, data=[62, 100])\n",
      "midi.NoteOnEvent(tick=384, channel=3, data=[62, 0])\n",
      "midi.NoteOnEvent(tick=192, channel=3, data=[65, 100])\n",
      "midi.NoteOnEvent(tick=192, channel=3, data=[65, 0])\n",
      "midi.NoteOnEvent(tick=0, channel=3, data=[62, 100])\n",
      "midi.NoteOnEvent(tick=384, channel=3, data=[62, 0])\n",
      "midi.NoteOnEvent(tick=192, channel=3, data=[67, 100])\n",
      "midi.NoteOnEvent(tick=192, channel=3, data=[67, 0])\n",
      "midi.NoteOnEvent(tick=0, channel=3, data=[60, 100])\n",
      "midi.NoteOnEvent(tick=384, channel=3, data=[60, 0])\n",
      "midi.NoteOnEvent(tick=192, channel=3, data=[64, 100])\n",
      "midi.NoteOnEvent(tick=192, channel=3, data=[64, 0])\n",
      "midi.NoteOnEvent(tick=0, channel=3, data=[60, 100])\n",
      "midi.NoteOnEvent(tick=384, channel=3, data=[60, 0])\n",
      "midi.NoteOnEvent(tick=192, channel=3, data=[65, 100])\n",
      "midi.NoteOnEvent(tick=192, channel=3, data=[65, 0])\n",
      "midi.NoteOnEvent(tick=0, channel=3, data=[59, 100])\n",
      "midi.NoteOnEvent(tick=384, channel=3, data=[59, 0])\n",
      "midi.NoteOnEvent(tick=192, channel=3, data=[62, 100])\n",
      "midi.NoteOnEvent(tick=192, channel=3, data=[62, 0])\n",
      "midi.NoteOnEvent(tick=0, channel=3, data=[59, 100])\n",
      "midi.NoteOnEvent(tick=384, channel=3, data=[59, 0])\n",
      "midi.NoteOnEvent(tick=192, channel=3, data=[68, 100])\n",
      "midi.NoteOnEvent(tick=192, channel=3, data=[68, 0])\n",
      "midi.NoteOnEvent(tick=0, channel=3, data=[64, 100])\n",
      "midi.NoteOnEvent(tick=384, channel=3, data=[64, 0])\n",
      "midi.NoteOnEvent(tick=192, channel=3, data=[72, 100])\n",
      "midi.NoteOnEvent(tick=192, channel=3, data=[72, 0])\n",
      "midi.NoteOnEvent(tick=0, channel=3, data=[74, 100])\n",
      "midi.NoteOnEvent(tick=384, channel=3, data=[74, 0])\n",
      "midi.NoteOnEvent(tick=192, channel=3, data=[71, 100])\n",
      "midi.NoteOnEvent(tick=192, channel=3, data=[71, 0])\n",
      "midi.NoteOnEvent(tick=0, channel=3, data=[64, 100])\n",
      "midi.NoteOnEvent(tick=192, channel=3, data=[64, 0])\n",
      "midi.NoteOnEvent(tick=0, channel=3, data=[64, 100])\n",
      "midi.NoteOnEvent(tick=192, channel=3, data=[64, 0])\n",
      "midi.NoteOnEvent(tick=0, channel=3, data=[64, 100])\n",
      "midi.NoteOnEvent(tick=192, channel=3, data=[64, 0])\n",
      "midi.NoteOnEvent(tick=0, channel=3, data=[64, 100])\n",
      "midi.NoteOnEvent(tick=192, channel=3, data=[64, 0])\n",
      "midi.NoteOnEvent(tick=0, channel=3, data=[64, 100])\n",
      "midi.NoteOnEvent(tick=192, channel=3, data=[64, 0])\n",
      "midi.NoteOnEvent(tick=0, channel=3, data=[60, 100])\n",
      "midi.NoteOnEvent(tick=192, channel=3, data=[60, 0])\n",
      "midi.NoteOnEvent(tick=192, channel=3, data=[64, 100])\n",
      "midi.NoteOnEvent(tick=192, channel=3, data=[64, 0])\n",
      "midi.NoteOnEvent(tick=0, channel=3, data=[69, 100])\n",
      "midi.NoteOnEvent(tick=192, channel=3, data=[69, 0])\n",
      "midi.NoteOnEvent(tick=0, channel=3, data=[69, 100])\n",
      "midi.NoteOnEvent(tick=192, channel=3, data=[69, 0])\n",
      "midi.NoteOnEvent(tick=0, channel=3, data=[69, 100])\n",
      "midi.NoteOnEvent(tick=192, channel=3, data=[69, 0])\n",
      "midi.NoteOnEvent(tick=0, channel=3, data=[69, 100])\n",
      "midi.NoteOnEvent(tick=192, channel=3, data=[69, 0])\n",
      "midi.NoteOnEvent(tick=0, channel=3, data=[67, 100])\n",
      "midi.NoteOnEvent(tick=192, channel=3, data=[67, 0])\n",
      "midi.NoteOnEvent(tick=0, channel=3, data=[67, 100])\n",
      "midi.NoteOnEvent(tick=192, channel=3, data=[67, 0])\n",
      "midi.NoteOnEvent(tick=0, channel=3, data=[67, 100])\n",
      "midi.NoteOnEvent(tick=192, channel=3, data=[67, 0])\n",
      "midi.NoteOnEvent(tick=0, channel=3, data=[67, 100])\n",
      "midi.NoteOnEvent(tick=192, channel=3, data=[67, 0])\n",
      "midi.NoteOnEvent(tick=0, channel=3, data=[67, 100])\n",
      "midi.NoteOnEvent(tick=192, channel=3, data=[67, 0])\n",
      "midi.NoteOnEvent(tick=0, channel=3, data=[67, 100])\n",
      "midi.NoteOnEvent(tick=192, channel=3, data=[67, 0])\n",
      "midi.NoteOnEvent(tick=0, channel=3, data=[67, 100])\n",
      "midi.NoteOnEvent(tick=192, channel=3, data=[67, 0])\n",
      "midi.NoteOnEvent(tick=0, channel=3, data=[67, 100])\n",
      "midi.NoteOnEvent(tick=192, channel=3, data=[67, 0])\n",
      "midi.NoteOnEvent(tick=0, channel=3, data=[65, 100])\n",
      "midi.NoteOnEvent(tick=192, channel=3, data=[65, 0])\n",
      "midi.NoteOnEvent(tick=0, channel=3, data=[65, 100])\n",
      "midi.NoteOnEvent(tick=192, channel=3, data=[65, 0])\n",
      "midi.NoteOnEvent(tick=0, channel=3, data=[65, 100])\n",
      "midi.NoteOnEvent(tick=192, channel=3, data=[65, 0])\n",
      "midi.NoteOnEvent(tick=0, channel=3, data=[65, 100])\n",
      "midi.NoteOnEvent(tick=192, channel=3, data=[65, 0])\n",
      "midi.NoteOnEvent(tick=0, channel=3, data=[65, 100])\n",
      "midi.NoteOnEvent(tick=192, channel=3, data=[65, 0])\n",
      "midi.NoteOnEvent(tick=0, channel=3, data=[65, 100])\n",
      "midi.NoteOnEvent(tick=192, channel=3, data=[65, 0])\n",
      "midi.NoteOnEvent(tick=0, channel=3, data=[65, 100])\n",
      "midi.NoteOnEvent(tick=192, channel=3, data=[65, 0])\n",
      "midi.NoteOnEvent(tick=0, channel=3, data=[65, 100])\n",
      "midi.NoteOnEvent(tick=192, channel=3, data=[65, 0])\n",
      "midi.NoteOnEvent(tick=0, channel=3, data=[64, 100])\n",
      "midi.NoteOnEvent(tick=192, channel=3, data=[64, 0])\n",
      "midi.NoteOnEvent(tick=1920, channel=3, data=[71, 100])\n",
      "midi.NoteOnEvent(tick=192, channel=3, data=[71, 0])\n",
      "midi.NoteOnEvent(tick=0, channel=3, data=[72, 100])\n",
      "midi.NoteOnEvent(tick=384, channel=3, data=[72, 0])\n",
      "midi.NoteOnEvent(tick=192, channel=3, data=[72, 100])\n",
      "midi.NoteOnEvent(tick=192, channel=3, data=[72, 0])\n",
      "midi.NoteOnEvent(tick=0, channel=3, data=[72, 100])\n",
      "midi.NoteOnEvent(tick=384, channel=3, data=[72, 0])\n",
      "midi.NoteOnEvent(tick=192, channel=3, data=[74, 100])\n",
      "midi.NoteOnEvent(tick=192, channel=3, data=[74, 0])\n",
      "midi.NoteOnEvent(tick=0, channel=3, data=[67, 100])\n",
      "midi.NoteOnEvent(tick=192, channel=3, data=[67, 0])\n",
      "midi.NoteOnEvent(tick=0, channel=3, data=[67, 100])\n",
      "midi.NoteOnEvent(tick=192, channel=3, data=[67, 0])\n",
      "midi.NoteOnEvent(tick=0, channel=3, data=[67, 100])\n",
      "midi.NoteOnEvent(tick=192, channel=3, data=[67, 0])\n",
      "midi.NoteOnEvent(tick=0, channel=3, data=[67, 100])\n",
      "midi.NoteOnEvent(tick=192, channel=3, data=[67, 0])\n",
      "midi.NoteOnEvent(tick=0, channel=3, data=[67, 100])\n",
      "midi.NoteOnEvent(tick=192, channel=3, data=[67, 0])\n",
      "midi.NoteOnEvent(tick=0, channel=3, data=[64, 100])\n",
      "midi.NoteOnEvent(tick=192, channel=3, data=[64, 0])\n",
      "midi.NoteOnEvent(tick=192, channel=3, data=[64, 100])\n",
      "midi.NoteOnEvent(tick=192, channel=3, data=[64, 0])\n",
      "midi.NoteOnEvent(tick=0, channel=3, data=[62, 100])\n",
      "midi.NoteOnEvent(tick=192, channel=3, data=[62, 0])\n",
      "midi.NoteOnEvent(tick=192, channel=3, data=[60, 100])\n",
      "midi.NoteOnEvent(tick=192, channel=3, data=[60, 0])\n",
      "midi.NoteOnEvent(tick=192, channel=3, data=[65, 100])\n",
      "midi.NoteOnEvent(tick=192, channel=3, data=[65, 0])\n",
      "midi.NoteOnEvent(tick=192, channel=3, data=[64, 100])\n",
      "midi.NoteOnEvent(tick=192, channel=3, data=[64, 0])\n",
      "midi.NoteOnEvent(tick=192, channel=3, data=[60, 100])\n",
      "midi.NoteOnEvent(tick=192, channel=3, data=[60, 0])\n",
      "midi.NoteOnEvent(tick=0, channel=3, data=[67, 100])\n",
      "midi.NoteOnEvent(tick=192, channel=3, data=[67, 0])\n",
      "midi.NoteOnEvent(tick=0, channel=3, data=[60, 100])\n",
      "midi.NoteOnEvent(tick=192, channel=3, data=[60, 0])\n",
      "midi.NoteOnEvent(tick=0, channel=3, data=[65, 100])\n",
      "midi.NoteOnEvent(tick=192, channel=3, data=[65, 0])\n",
      "midi.NoteOnEvent(tick=0, channel=3, data=[62, 100])\n",
      "midi.NoteOnEvent(tick=192, channel=3, data=[62, 0])\n",
      "midi.NoteOnEvent(tick=0, channel=3, data=[59, 100])\n",
      "midi.NoteOnEvent(tick=192, channel=3, data=[59, 0])\n",
      "midi.NoteOnEvent(tick=0, channel=3, data=[62, 100])\n",
      "midi.NoteOnEvent(tick=192, channel=3, data=[62, 0])\n",
      "midi.NoteOnEvent(tick=0, channel=3, data=[67, 100])\n",
      "midi.NoteOnEvent(tick=384, channel=3, data=[67, 0])\n",
      "midi.NoteOnEvent(tick=0, channel=3, data=[69, 100])\n",
      "midi.NoteOnEvent(tick=96, channel=3, data=[69, 0])\n",
      "midi.NoteOnEvent(tick=0, channel=3, data=[71, 100])\n",
      "midi.NoteOnEvent(tick=96, channel=3, data=[71, 0])\n",
      "midi.NoteOnEvent(tick=0, channel=3, data=[72, 100])\n",
      "midi.NoteOnEvent(tick=192, channel=3, data=[72, 0])\n",
      "midi.NoteOnEvent(tick=0, channel=3, data=[60, 100])\n",
      "midi.NoteOnEvent(tick=192, channel=3, data=[60, 0])\n",
      "midi.NoteOnEvent(tick=0, channel=3, data=[57, 100])\n",
      "midi.NoteOnEvent(tick=192, channel=3, data=[57, 0])\n",
      "midi.NoteOnEvent(tick=0, channel=3, data=[69, 100])\n",
      "midi.NoteOnEvent(tick=192, channel=3, data=[69, 0])\n",
      "midi.NoteOnEvent(tick=1344, channel=3, data=[57, 100])\n",
      "midi.NoteOnEvent(tick=192, channel=3, data=[57, 0])\n",
      "midi.NoteOnEvent(tick=0, channel=3, data=[62, 100])\n",
      "midi.NoteOnEvent(tick=192, channel=3, data=[62, 0])\n",
      "midi.NoteOnEvent(tick=0, channel=3, data=[66, 100])\n",
      "midi.NoteOnEvent(tick=384, channel=3, data=[66, 0])\n",
      "midi.NoteOnEvent(tick=0, channel=3, data=[67, 100])\n",
      "midi.NoteOnEvent(tick=96, channel=3, data=[67, 0])\n",
      "midi.NoteOnEvent(tick=0, channel=3, data=[69, 100])\n",
      "midi.NoteOnEvent(tick=96, channel=3, data=[69, 0])\n",
      "midi.NoteOnEvent(tick=0, channel=3, data=[71, 100])\n",
      "midi.NoteOnEvent(tick=192, channel=3, data=[71, 0])\n",
      "midi.NoteOnEvent(tick=0, channel=3, data=[59, 100])\n",
      "midi.NoteOnEvent(tick=192, channel=3, data=[59, 0])\n",
      "midi.NoteOnEvent(tick=0, channel=3, data=[55, 100])\n",
      "midi.NoteOnEvent(tick=192, channel=3, data=[55, 0])\n",
      "midi.NoteOnEvent(tick=0, channel=3, data=[67, 100])\n",
      "midi.NoteOnEvent(tick=192, channel=3, data=[67, 0])\n",
      "midi.NoteOnEvent(tick=1344, channel=3, data=[64, 100])\n",
      "midi.NoteOnEvent(tick=384, channel=3, data=[64, 0])\n",
      "midi.NoteOnEvent(tick=0, channel=3, data=[66, 100])\n",
      "midi.NoteOnEvent(tick=96, channel=3, data=[66, 0])\n",
      "midi.NoteOnEvent(tick=0, channel=3, data=[67, 100])\n",
      "midi.NoteOnEvent(tick=96, channel=3, data=[67, 0])\n",
      "midi.NoteOnEvent(tick=0, channel=3, data=[69, 100])\n",
      "midi.NoteOnEvent(tick=192, channel=3, data=[69, 0])\n",
      "midi.NoteOnEvent(tick=0, channel=3, data=[72, 100])\n",
      "midi.NoteOnEvent(tick=192, channel=3, data=[72, 0])\n",
      "midi.NoteOnEvent(tick=0, channel=3, data=[63, 100])\n",
      "midi.NoteOnEvent(tick=192, channel=3, data=[63, 0])\n",
      "midi.NoteOnEvent(tick=0, channel=3, data=[66, 100])\n",
      "midi.NoteOnEvent(tick=384, channel=3, data=[66, 0])\n",
      "midi.NoteOnEvent(tick=0, channel=3, data=[59, 100])\n",
      "midi.NoteOnEvent(tick=192, channel=3, data=[59, 0])\n",
      "midi.NoteOnEvent(tick=0, channel=3, data=[69, 100])\n",
      "midi.NoteOnEvent(tick=192, channel=3, data=[69, 0])\n",
      "midi.NoteOnEvent(tick=0, channel=3, data=[67, 100])\n",
      "midi.NoteOnEvent(tick=192, channel=3, data=[67, 0])\n",
      "midi.NoteOnEvent(tick=0, channel=3, data=[64, 100])\n",
      "midi.NoteOnEvent(tick=192, channel=3, data=[64, 0])\n",
      "midi.NoteOnEvent(tick=0, channel=3, data=[67, 100])\n",
      "midi.NoteOnEvent(tick=192, channel=3, data=[67, 0])\n",
      "midi.NoteOnEvent(tick=0, channel=3, data=[69, 100])\n",
      "midi.NoteOnEvent(tick=96, channel=3, data=[69, 0])\n",
      "midi.NoteOnEvent(tick=0, channel=3, data=[71, 100])\n",
      "midi.NoteOnEvent(tick=96, channel=3, data=[71, 0])\n",
      "midi.NoteOnEvent(tick=0, channel=3, data=[69, 100])\n",
      "midi.NoteOnEvent(tick=96, channel=3, data=[69, 0])\n",
      "midi.NoteOnEvent(tick=0, channel=3, data=[67, 100])\n",
      "midi.NoteOnEvent(tick=96, channel=3, data=[67, 0])\n",
      "midi.NoteOnEvent(tick=0, channel=3, data=[66, 100])\n",
      "midi.NoteOnEvent(tick=192, channel=3, data=[66, 0])\n",
      "midi.NoteOnEvent(tick=0, channel=3, data=[69, 100])\n",
      "midi.NoteOnEvent(tick=192, channel=3, data=[69, 0])\n",
      "midi.NoteOnEvent(tick=0, channel=3, data=[67, 100])\n",
      "midi.NoteOnEvent(tick=192, channel=3, data=[67, 0])\n",
      "midi.NoteOnEvent(tick=0, channel=3, data=[72, 100])\n",
      "midi.NoteOnEvent(tick=192, channel=3, data=[72, 0])\n",
      "midi.NoteOnEvent(tick=0, channel=3, data=[71, 100])\n",
      "midi.NoteOnEvent(tick=384, channel=3, data=[71, 0])\n",
      "midi.NoteOnEvent(tick=0, channel=3, data=[71, 100])\n",
      "midi.NoteOnEvent(tick=768, channel=3, data=[71, 0])\n",
      "midi.NoteOnEvent(tick=384, channel=3, data=[72, 100])\n",
      "midi.NoteOnEvent(tick=384, channel=3, data=[72, 0])\n",
      "midi.NoteOnEvent(tick=384, channel=3, data=[66, 100])\n",
      "midi.NoteOnEvent(tick=384, channel=3, data=[66, 0])\n",
      "midi.NoteOnEvent(tick=384, channel=3, data=[72, 100])\n",
      "midi.NoteOnEvent(tick=384, channel=3, data=[72, 0])\n",
      "midi.NoteOnEvent(tick=384, channel=3, data=[63, 100])\n",
      "midi.NoteOnEvent(tick=768, channel=3, data=[63, 0])\n",
      "midi.NoteOnEvent(tick=192, channel=3, data=[64, 100])\n",
      "midi.NoteOnEvent(tick=384, channel=3, data=[64, 0])\n",
      "midi.NoteOnEvent(tick=0, channel=3, data=[72, 100])\n",
      "midi.NoteOnEvent(tick=192, channel=3, data=[72, 0])\n",
      "midi.NoteOnEvent(tick=0, channel=3, data=[71, 100])\n",
      "midi.NoteOnEvent(tick=192, channel=3, data=[71, 0])\n",
      "midi.NoteOnEvent(tick=0, channel=3, data=[72, 100])\n",
      "midi.NoteOnEvent(tick=192, channel=3, data=[72, 0])\n",
      "midi.NoteOnEvent(tick=0, channel=3, data=[72, 100])\n",
      "midi.NoteOnEvent(tick=192, channel=3, data=[72, 0])\n",
      "midi.NoteOnEvent(tick=0, channel=3, data=[71, 100])\n",
      "midi.NoteOnEvent(tick=192, channel=3, data=[71, 0])\n",
      "midi.NoteOnEvent(tick=0, channel=3, data=[71, 100])\n",
      "midi.NoteOnEvent(tick=192, channel=3, data=[71, 0])\n",
      "midi.NoteOnEvent(tick=0, channel=3, data=[69, 100])\n",
      "midi.NoteOnEvent(tick=192, channel=3, data=[69, 0])\n",
      "midi.NoteOnEvent(tick=192, channel=3, data=[64, 100])\n",
      "midi.NoteOnEvent(tick=192, channel=3, data=[64, 0])\n",
      "midi.NoteOnEvent(tick=0, channel=3, data=[66, 100])\n",
      "midi.NoteOnEvent(tick=192, channel=3, data=[66, 0])\n",
      "midi.NoteOnEvent(tick=0, channel=3, data=[69, 100])\n",
      "midi.NoteOnEvent(tick=192, channel=3, data=[69, 0])\n",
      "midi.NoteOnEvent(tick=192, channel=3, data=[66, 100])\n",
      "midi.NoteOnEvent(tick=192, channel=3, data=[66, 0])\n",
      "midi.NoteOnEvent(tick=0, channel=3, data=[63, 100])\n",
      "midi.NoteOnEvent(tick=192, channel=3, data=[63, 0])\n",
      "midi.NoteOnEvent(tick=0, channel=3, data=[66, 100])\n",
      "midi.NoteOnEvent(tick=192, channel=3, data=[66, 0])\n",
      "midi.NoteOnEvent(tick=192, channel=3, data=[69, 100])\n",
      "midi.NoteOnEvent(tick=192, channel=3, data=[69, 0])\n",
      "midi.NoteOnEvent(tick=0, channel=3, data=[57, 100])\n",
      "midi.NoteOnEvent(tick=192, channel=3, data=[57, 0])\n",
      "midi.NoteOnEvent(tick=0, channel=3, data=[59, 100])\n",
      "midi.NoteOnEvent(tick=192, channel=3, data=[59, 0])\n",
      "midi.NoteOnEvent(tick=0, channel=3, data=[59, 100])\n",
      "midi.NoteOnEvent(tick=192, channel=3, data=[59, 0])\n",
      "midi.NoteOnEvent(tick=0, channel=3, data=[59, 100])\n",
      "midi.NoteOnEvent(tick=192, channel=3, data=[59, 0])\n",
      "midi.NoteOnEvent(tick=0, channel=3, data=[55, 100])\n",
      "midi.NoteOnEvent(tick=384, channel=3, data=[55, 0])\n",
      "midi.NoteOnEvent(tick=576, channel=3, data=[64, 100])\n",
      "midi.NoteOnEvent(tick=192, channel=3, data=[64, 0])\n",
      "midi.NoteOnEvent(tick=0, channel=3, data=[67, 100])\n",
      "midi.NoteOnEvent(tick=192, channel=3, data=[67, 0])\n",
      "midi.NoteOnEvent(tick=384, channel=3, data=[66, 100])\n",
      "midi.NoteOnEvent(tick=96, channel=3, data=[66, 0])\n",
      "midi.NoteOnEvent(tick=0, channel=3, data=[67, 100])\n",
      "midi.NoteOnEvent(tick=96, channel=3, data=[67, 0])\n",
      "midi.NoteOnEvent(tick=0, channel=3, data=[69, 100])\n",
      "midi.NoteOnEvent(tick=192, channel=3, data=[69, 0])\n",
      "midi.NoteOnEvent(tick=384, channel=3, data=[66, 100])\n",
      "midi.NoteOnEvent(tick=192, channel=3, data=[66, 0])\n",
      "midi.NoteOnEvent(tick=0, channel=3, data=[63, 100])\n",
      "midi.NoteOnEvent(tick=192, channel=3, data=[63, 0])\n",
      "midi.NoteOnEvent(tick=384, channel=3, data=[67, 100])\n",
      "midi.NoteOnEvent(tick=96, channel=3, data=[67, 0])\n",
      "midi.NoteOnEvent(tick=0, channel=3, data=[69, 100])\n",
      "midi.NoteOnEvent(tick=96, channel=3, data=[69, 0])\n",
      "midi.NoteOnEvent(tick=0, channel=3, data=[71, 100])\n",
      "midi.NoteOnEvent(tick=192, channel=3, data=[71, 0])\n",
      "midi.NoteOnEvent(tick=0, channel=3, data=[64, 100])\n",
      "midi.NoteOnEvent(tick=192, channel=3, data=[64, 0])\n",
      "midi.NoteOnEvent(tick=0, channel=3, data=[64, 100])\n",
      "midi.NoteOnEvent(tick=384, channel=3, data=[64, 0])\n",
      "midi.NoteOnEvent(tick=0, channel=3, data=[62, 100])\n",
      "midi.NoteOnEvent(tick=384, channel=3, data=[62, 0])\n",
      "midi.NoteOnEvent(tick=0, channel=3, data=[60, 100])\n",
      "midi.NoteOnEvent(tick=384, channel=3, data=[60, 0])\n",
      "midi.NoteOnEvent(tick=0, channel=3, data=[59, 100])\n",
      "midi.NoteOnEvent(tick=384, channel=3, data=[59, 0])\n",
      "midi.NoteOnEvent(tick=0, channel=3, data=[57, 100])\n",
      "midi.NoteOnEvent(tick=384, channel=3, data=[57, 0])\n",
      "midi.NoteOnEvent(tick=0, channel=3, data=[57, 100])\n",
      "midi.NoteOnEvent(tick=384, channel=3, data=[57, 0])\n",
      "midi.NoteOnEvent(tick=0, channel=3, data=[59, 100])\n"
     ]
    },
    {
     "name": "stdout",
     "output_type": "stream",
     "text": [
      "midi.NoteOnEvent(tick=384, channel=3, data=[59, 0])\n",
      "midi.NoteOnEvent(tick=0, channel=3, data=[61, 100])\n",
      "midi.NoteOnEvent(tick=384, channel=3, data=[61, 0])\n",
      "midi.NoteOnEvent(tick=0, channel=3, data=[62, 100])\n",
      "midi.NoteOnEvent(tick=384, channel=3, data=[62, 0])\n",
      "midi.NoteOnEvent(tick=0, channel=3, data=[60, 100])\n",
      "midi.NoteOnEvent(tick=384, channel=3, data=[60, 0])\n",
      "midi.NoteOnEvent(tick=0, channel=3, data=[59, 100])\n",
      "midi.NoteOnEvent(tick=384, channel=3, data=[59, 0])\n",
      "midi.NoteOnEvent(tick=0, channel=3, data=[57, 100])\n",
      "midi.NoteOnEvent(tick=384, channel=3, data=[57, 0])\n",
      "midi.NoteOnEvent(tick=0, channel=3, data=[55, 100])\n",
      "midi.NoteOnEvent(tick=384, channel=3, data=[55, 0])\n",
      "midi.NoteOnEvent(tick=0, channel=3, data=[55, 100])\n",
      "midi.NoteOnEvent(tick=384, channel=3, data=[55, 0])\n",
      "midi.NoteOnEvent(tick=0, channel=3, data=[57, 100])\n",
      "midi.NoteOnEvent(tick=384, channel=3, data=[57, 0])\n",
      "midi.NoteOnEvent(tick=0, channel=3, data=[59, 100])\n",
      "midi.NoteOnEvent(tick=384, channel=3, data=[59, 0])\n",
      "midi.NoteOnEvent(tick=0, channel=3, data=[60, 100])\n",
      "midi.NoteOnEvent(tick=1152, channel=3, data=[60, 0])\n",
      "midi.NoteOnEvent(tick=0, channel=3, data=[58, 100])\n",
      "midi.NoteOnEvent(tick=384, channel=3, data=[58, 0])\n",
      "midi.NoteOnEvent(tick=0, channel=3, data=[60, 100])\n",
      "midi.NoteOnEvent(tick=384, channel=3, data=[60, 0])\n",
      "midi.NoteOnEvent(tick=2112, channel=3, data=[65, 100])\n",
      "midi.NoteOnEvent(tick=192, channel=3, data=[65, 0])\n",
      "midi.NoteOnEvent(tick=0, channel=3, data=[62, 100])\n",
      "midi.NoteOnEvent(tick=384, channel=3, data=[62, 0])\n",
      "midi.NoteOnEvent(tick=192, channel=3, data=[62, 100])\n",
      "midi.NoteOnEvent(tick=192, channel=3, data=[62, 0])\n",
      "midi.NoteOnEvent(tick=0, channel=3, data=[64, 100])\n",
      "midi.NoteOnEvent(tick=192, channel=3, data=[64, 0])\n",
      "midi.NoteOnEvent(tick=0, channel=3, data=[70, 100])\n",
      "midi.NoteOnEvent(tick=192, channel=3, data=[70, 0])\n",
      "midi.NoteOnEvent(tick=0, channel=3, data=[69, 100])\n",
      "midi.NoteOnEvent(tick=192, channel=3, data=[69, 0])\n",
      "midi.NoteOnEvent(tick=0, channel=3, data=[62, 100])\n",
      "midi.NoteOnEvent(tick=192, channel=3, data=[62, 0])\n",
      "midi.NoteOnEvent(tick=0, channel=3, data=[64, 100])\n",
      "midi.NoteOnEvent(tick=192, channel=3, data=[64, 0])\n",
      "midi.NoteOnEvent(tick=0, channel=3, data=[64, 100])\n",
      "midi.NoteOnEvent(tick=192, channel=3, data=[64, 0])\n",
      "midi.NoteOnEvent(tick=0, channel=3, data=[65, 100])\n",
      "midi.NoteOnEvent(tick=384, channel=3, data=[65, 0])\n",
      "midi.NoteOnEvent(tick=192, channel=3, data=[65, 100])\n",
      "midi.NoteOnEvent(tick=192, channel=3, data=[65, 0])\n",
      "midi.NoteOnEvent(tick=0, channel=3, data=[67, 100])\n",
      "midi.NoteOnEvent(tick=192, channel=3, data=[67, 0])\n",
      "midi.NoteOnEvent(tick=0, channel=3, data=[67, 100])\n",
      "midi.NoteOnEvent(tick=192, channel=3, data=[67, 0])\n",
      "midi.NoteOnEvent(tick=0, channel=3, data=[69, 100])\n",
      "midi.NoteOnEvent(tick=192, channel=3, data=[69, 0])\n",
      "midi.NoteOnEvent(tick=0, channel=3, data=[69, 100])\n",
      "midi.NoteOnEvent(tick=192, channel=3, data=[69, 0])\n",
      "midi.NoteOnEvent(tick=0, channel=3, data=[70, 100])\n",
      "midi.NoteOnEvent(tick=192, channel=3, data=[70, 0])\n",
      "midi.NoteOnEvent(tick=0, channel=3, data=[70, 100])\n",
      "midi.NoteOnEvent(tick=192, channel=3, data=[70, 0])\n",
      "midi.NoteOnEvent(tick=0, channel=3, data=[66, 100])\n",
      "midi.NoteOnEvent(tick=192, channel=3, data=[66, 0])\n",
      "midi.NoteOnEvent(tick=0, channel=3, data=[66, 100])\n",
      "midi.NoteOnEvent(tick=192, channel=3, data=[66, 0])\n",
      "midi.NoteOnEvent(tick=0, channel=3, data=[67, 100])\n",
      "midi.NoteOnEvent(tick=192, channel=3, data=[67, 0])\n",
      "midi.NoteOnEvent(tick=0, channel=3, data=[62, 100])\n",
      "midi.NoteOnEvent(tick=192, channel=3, data=[62, 0])\n",
      "midi.NoteOnEvent(tick=0, channel=3, data=[67, 100])\n",
      "midi.NoteOnEvent(tick=192, channel=3, data=[67, 0])\n",
      "midi.NoteOnEvent(tick=0, channel=3, data=[70, 100])\n",
      "midi.NoteOnEvent(tick=192, channel=3, data=[70, 0])\n",
      "midi.NoteOnEvent(tick=0, channel=3, data=[72, 100])\n",
      "midi.NoteOnEvent(tick=192, channel=3, data=[72, 0])\n",
      "midi.NoteOnEvent(tick=0, channel=3, data=[67, 100])\n",
      "midi.NoteOnEvent(tick=192, channel=3, data=[67, 0])\n",
      "midi.NoteOnEvent(tick=0, channel=3, data=[67, 100])\n",
      "midi.NoteOnEvent(tick=192, channel=3, data=[67, 0])\n",
      "midi.NoteOnEvent(tick=0, channel=3, data=[67, 100])\n",
      "midi.NoteOnEvent(tick=192, channel=3, data=[67, 0])\n",
      "midi.NoteOnEvent(tick=0, channel=3, data=[69, 100])\n",
      "midi.NoteOnEvent(tick=192, channel=3, data=[69, 0])\n",
      "midi.NoteOnEvent(tick=0, channel=3, data=[69, 100])\n",
      "midi.NoteOnEvent(tick=192, channel=3, data=[69, 0])\n",
      "midi.NoteOnEvent(tick=0, channel=3, data=[64, 100])\n",
      "midi.NoteOnEvent(tick=192, channel=3, data=[64, 0])\n",
      "midi.NoteOnEvent(tick=0, channel=3, data=[64, 100])\n",
      "midi.NoteOnEvent(tick=192, channel=3, data=[64, 0])\n",
      "midi.NoteOnEvent(tick=0, channel=3, data=[65, 100])\n",
      "midi.NoteOnEvent(tick=192, channel=3, data=[65, 0])\n",
      "midi.NoteOnEvent(tick=0, channel=3, data=[60, 100])\n",
      "midi.NoteOnEvent(tick=192, channel=3, data=[60, 0])\n",
      "midi.NoteOnEvent(tick=0, channel=3, data=[65, 100])\n",
      "midi.NoteOnEvent(tick=192, channel=3, data=[65, 0])\n",
      "midi.NoteOnEvent(tick=0, channel=3, data=[69, 100])\n",
      "midi.NoteOnEvent(tick=192, channel=3, data=[69, 0])\n",
      "midi.NoteOnEvent(tick=0, channel=3, data=[70, 100])\n",
      "midi.NoteOnEvent(tick=192, channel=3, data=[70, 0])\n",
      "midi.NoteOnEvent(tick=0, channel=3, data=[70, 100])\n",
      "midi.NoteOnEvent(tick=192, channel=3, data=[70, 0])\n",
      "midi.NoteOnEvent(tick=0, channel=3, data=[70, 100])\n",
      "midi.NoteOnEvent(tick=192, channel=3, data=[70, 0])\n",
      "midi.NoteOnEvent(tick=0, channel=3, data=[70, 100])\n",
      "midi.NoteOnEvent(tick=192, channel=3, data=[70, 0])\n",
      "midi.NoteOnEvent(tick=0, channel=3, data=[70, 100])\n",
      "midi.NoteOnEvent(tick=192, channel=3, data=[70, 0])\n",
      "midi.NoteOnEvent(tick=0, channel=3, data=[70, 100])\n",
      "midi.NoteOnEvent(tick=192, channel=3, data=[70, 0])\n",
      "midi.NoteOnEvent(tick=0, channel=3, data=[70, 100])\n",
      "midi.NoteOnEvent(tick=192, channel=3, data=[70, 0])\n",
      "midi.NoteOnEvent(tick=0, channel=3, data=[70, 100])\n",
      "midi.NoteOnEvent(tick=192, channel=3, data=[70, 0])\n",
      "midi.NoteOnEvent(tick=0, channel=3, data=[70, 100])\n",
      "midi.NoteOnEvent(tick=192, channel=3, data=[70, 0])\n",
      "midi.NoteOnEvent(tick=0, channel=3, data=[67, 100])\n",
      "midi.NoteOnEvent(tick=192, channel=3, data=[67, 0])\n",
      "midi.NoteOnEvent(tick=0, channel=3, data=[70, 100])\n",
      "midi.NoteOnEvent(tick=192, channel=3, data=[70, 0])\n",
      "midi.NoteOnEvent(tick=0, channel=3, data=[64, 100])\n",
      "midi.NoteOnEvent(tick=192, channel=3, data=[64, 0])\n",
      "midi.NoteOnEvent(tick=0, channel=3, data=[64, 100])\n",
      "midi.NoteOnEvent(tick=192, channel=3, data=[64, 0])\n",
      "midi.NoteOnEvent(tick=0, channel=3, data=[69, 100])\n",
      "midi.NoteOnEvent(tick=192, channel=3, data=[69, 0])\n",
      "midi.NoteOnEvent(tick=0, channel=3, data=[69, 100])\n",
      "midi.NoteOnEvent(tick=192, channel=3, data=[69, 0])\n",
      "midi.NoteOnEvent(tick=0, channel=3, data=[69, 100])\n",
      "midi.NoteOnEvent(tick=192, channel=3, data=[69, 0])\n",
      "midi.NoteOnEvent(tick=0, channel=3, data=[69, 100])\n",
      "midi.NoteOnEvent(tick=192, channel=3, data=[69, 0])\n",
      "midi.NoteOnEvent(tick=0, channel=3, data=[69, 100])\n",
      "midi.NoteOnEvent(tick=192, channel=3, data=[69, 0])\n",
      "midi.NoteOnEvent(tick=0, channel=3, data=[69, 100])\n",
      "midi.NoteOnEvent(tick=192, channel=3, data=[69, 0])\n",
      "midi.NoteOnEvent(tick=0, channel=3, data=[69, 100])\n",
      "midi.NoteOnEvent(tick=192, channel=3, data=[69, 0])\n",
      "midi.NoteOnEvent(tick=0, channel=3, data=[62, 100])\n",
      "midi.NoteOnEvent(tick=384, channel=3, data=[62, 0])\n",
      "midi.NoteOnEvent(tick=192, channel=3, data=[69, 100])\n",
      "midi.NoteOnEvent(tick=192, channel=3, data=[69, 0])\n",
      "midi.NoteOnEvent(tick=0, channel=3, data=[67, 100])\n",
      "midi.NoteOnEvent(tick=384, channel=3, data=[67, 0])\n",
      "midi.NoteOnEvent(tick=960, channel=3, data=[67, 100])\n",
      "midi.NoteOnEvent(tick=192, channel=3, data=[67, 0])\n",
      "midi.NoteOnEvent(tick=0, channel=3, data=[65, 100])\n",
      "midi.NoteOnEvent(tick=384, channel=3, data=[65, 0])\n",
      "midi.NoteOnEvent(tick=960, channel=3, data=[65, 100])\n",
      "midi.NoteOnEvent(tick=192, channel=3, data=[65, 0])\n",
      "midi.NoteOnEvent(tick=0, channel=3, data=[64, 100])\n",
      "midi.NoteOnEvent(tick=192, channel=3, data=[64, 0])\n",
      "midi.NoteOnEvent(tick=0, channel=3, data=[66, 100])\n",
      "midi.NoteOnEvent(tick=192, channel=3, data=[66, 0])\n",
      "midi.NoteOnEvent(tick=0, channel=3, data=[68, 100])\n",
      "midi.NoteOnEvent(tick=192, channel=3, data=[68, 0])\n",
      "midi.NoteOnEvent(tick=0, channel=3, data=[64, 100])\n",
      "midi.NoteOnEvent(tick=192, channel=3, data=[64, 0])\n",
      "midi.NoteOnEvent(tick=0, channel=3, data=[72, 100])\n",
      "midi.NoteOnEvent(tick=384, channel=3, data=[72, 0])\n",
      "midi.NoteOnEvent(tick=192, channel=3, data=[69, 100])\n",
      "midi.NoteOnEvent(tick=192, channel=3, data=[69, 0])\n",
      "midi.NoteOnEvent(tick=0, channel=3, data=[62, 100])\n",
      "midi.NoteOnEvent(tick=384, channel=3, data=[62, 0])\n",
      "midi.NoteOnEvent(tick=192, channel=3, data=[62, 100])\n",
      "midi.NoteOnEvent(tick=192, channel=3, data=[62, 0])\n",
      "midi.NoteOnEvent(tick=0, channel=3, data=[57, 100])\n",
      "midi.NoteOnEvent(tick=192, channel=3, data=[57, 0])\n",
      "midi.NoteOnEvent(tick=0, channel=3, data=[64, 100])\n",
      "midi.NoteOnEvent(tick=192, channel=3, data=[64, 0])\n",
      "midi.NoteOnEvent(tick=0, channel=3, data=[56, 100])\n",
      "midi.NoteOnEvent(tick=192, channel=3, data=[56, 0])\n",
      "midi.NoteOnEvent(tick=0, channel=3, data=[64, 100])\n",
      "midi.NoteOnEvent(tick=192, channel=3, data=[64, 0])\n",
      "midi.NoteOnEvent(tick=0, channel=3, data=[64, 100])\n",
      "midi.NoteOnEvent(tick=192, channel=3, data=[64, 0])\n",
      "midi.NoteOnEvent(tick=0, channel=3, data=[60, 100])\n",
      "midi.NoteOnEvent(tick=192, channel=3, data=[60, 0])\n",
      "midi.NoteOnEvent(tick=576, channel=3, data=[57, 100])\n",
      "midi.NoteOnEvent(tick=192, channel=3, data=[57, 0])\n",
      "midi.NoteOnEvent(tick=0, channel=3, data=[57, 100])\n",
      "midi.NoteOnEvent(tick=192, channel=3, data=[57, 0])\n",
      "midi.NoteOnEvent(tick=0, channel=3, data=[57, 100])\n",
      "midi.NoteOnEvent(tick=192, channel=3, data=[57, 0])\n",
      "midi.NoteOnEvent(tick=0, channel=3, data=[57, 100])\n",
      "midi.NoteOnEvent(tick=192, channel=3, data=[57, 0])\n",
      "midi.NoteOnEvent(tick=0, channel=3, data=[57, 100])\n",
      "midi.NoteOnEvent(tick=192, channel=3, data=[57, 0])\n",
      "midi.NoteOnEvent(tick=0, channel=3, data=[57, 100])\n",
      "midi.NoteOnEvent(tick=192, channel=3, data=[57, 0])\n",
      "midi.NoteOnEvent(tick=0, channel=3, data=[57, 100])\n",
      "midi.NoteOnEvent(tick=192, channel=3, data=[57, 0])\n",
      "midi.NoteOnEvent(tick=0, channel=3, data=[57, 100])\n",
      "midi.NoteOnEvent(tick=192, channel=3, data=[57, 0])\n",
      "midi.NoteOnEvent(tick=0, channel=3, data=[57, 100])\n",
      "midi.NoteOnEvent(tick=192, channel=3, data=[57, 0])\n",
      "midi.NoteOnEvent(tick=0, channel=3, data=[57, 100])\n",
      "midi.NoteOnEvent(tick=192, channel=3, data=[57, 0])\n",
      "midi.NoteOnEvent(tick=0, channel=3, data=[57, 100])\n",
      "midi.NoteOnEvent(tick=192, channel=3, data=[57, 0])\n",
      "midi.NoteOnEvent(tick=0, channel=3, data=[62, 100])\n",
      "midi.NoteOnEvent(tick=192, channel=3, data=[62, 0])\n",
      "midi.NoteOnEvent(tick=0, channel=3, data=[62, 100])\n",
      "midi.NoteOnEvent(tick=192, channel=3, data=[62, 0])\n",
      "midi.NoteOnEvent(tick=0, channel=3, data=[62, 100])\n",
      "midi.NoteOnEvent(tick=192, channel=3, data=[62, 0])\n",
      "midi.NoteOnEvent(tick=0, channel=3, data=[62, 100])\n",
      "midi.NoteOnEvent(tick=192, channel=3, data=[62, 0])\n",
      "midi.NoteOnEvent(tick=0, channel=3, data=[62, 100])\n",
      "midi.NoteOnEvent(tick=192, channel=3, data=[62, 0])\n",
      "midi.NoteOnEvent(tick=0, channel=3, data=[62, 100])\n",
      "midi.NoteOnEvent(tick=192, channel=3, data=[62, 0])\n",
      "midi.NoteOnEvent(tick=0, channel=3, data=[62, 100])\n",
      "midi.NoteOnEvent(tick=192, channel=3, data=[62, 0])\n",
      "midi.NoteOnEvent(tick=0, channel=3, data=[62, 100])\n",
      "midi.NoteOnEvent(tick=192, channel=3, data=[62, 0])\n",
      "midi.NoteOnEvent(tick=0, channel=3, data=[67, 100])\n",
      "midi.NoteOnEvent(tick=192, channel=3, data=[67, 0])\n",
      "midi.NoteOnEvent(tick=0, channel=3, data=[67, 100])\n",
      "midi.NoteOnEvent(tick=192, channel=3, data=[67, 0])\n",
      "midi.NoteOnEvent(tick=0, channel=3, data=[67, 100])\n",
      "midi.NoteOnEvent(tick=192, channel=3, data=[67, 0])\n",
      "midi.NoteOnEvent(tick=0, channel=3, data=[67, 100])\n",
      "midi.NoteOnEvent(tick=192, channel=3, data=[67, 0])\n",
      "midi.NoteOnEvent(tick=0, channel=3, data=[67, 100])\n",
      "midi.NoteOnEvent(tick=384, channel=3, data=[67, 0])\n",
      "midi.NoteOnEvent(tick=0, channel=3, data=[70, 100])\n",
      "midi.NoteOnEvent(tick=384, channel=3, data=[70, 0])\n",
      "midi.NoteOnEvent(tick=0, channel=3, data=[68, 100])\n",
      "midi.NoteOnEvent(tick=384, channel=3, data=[68, 0])\n",
      "midi.NoteOnEvent(tick=0, channel=3, data=[67, 100])\n",
      "midi.NoteOnEvent(tick=384, channel=3, data=[67, 0])\n",
      "midi.NoteOnEvent(tick=0, channel=3, data=[65, 100])\n",
      "midi.NoteOnEvent(tick=192, channel=3, data=[65, 0])\n",
      "midi.NoteOnEvent(tick=0, channel=3, data=[65, 100])\n",
      "midi.NoteOnEvent(tick=192, channel=3, data=[65, 0])\n",
      "midi.NoteOnEvent(tick=0, channel=3, data=[69, 100])\n",
      "midi.NoteOnEvent(tick=192, channel=3, data=[69, 0])\n",
      "midi.NoteOnEvent(tick=0, channel=3, data=[69, 100])\n",
      "midi.NoteOnEvent(tick=192, channel=3, data=[69, 0])\n",
      "midi.NoteOnEvent(tick=0, channel=3, data=[70, 100])\n",
      "midi.NoteOnEvent(tick=384, channel=3, data=[70, 0])\n",
      "midi.NoteOnEvent(tick=384, channel=3, data=[67, 100])\n",
      "midi.NoteOnEvent(tick=192, channel=3, data=[67, 0])\n",
      "midi.NoteOnEvent(tick=0, channel=3, data=[67, 100])\n",
      "midi.NoteOnEvent(tick=192, channel=3, data=[67, 0])\n",
      "midi.NoteOnEvent(tick=0, channel=3, data=[69, 100])\n",
      "midi.NoteOnEvent(tick=192, channel=3, data=[69, 0])\n",
      "midi.NoteOnEvent(tick=0, channel=3, data=[69, 100])\n",
      "midi.NoteOnEvent(tick=192, channel=3, data=[69, 0])\n",
      "midi.NoteOnEvent(tick=0, channel=3, data=[57, 100])\n",
      "midi.NoteOnEvent(tick=384, channel=3, data=[57, 0])\n",
      "midi.NoteOnEvent(tick=384, channel=3, data=[62, 100])\n",
      "midi.NoteOnEvent(tick=192, channel=3, data=[62, 0])\n",
      "midi.NoteOnEvent(tick=0, channel=3, data=[62, 100])\n",
      "midi.NoteOnEvent(tick=192, channel=3, data=[62, 0])\n",
      "midi.NoteOnEvent(tick=0, channel=3, data=[64, 100])\n",
      "midi.NoteOnEvent(tick=192, channel=3, data=[64, 0])\n",
      "midi.NoteOnEvent(tick=0, channel=3, data=[64, 100])\n",
      "midi.NoteOnEvent(tick=192, channel=3, data=[64, 0])\n",
      "midi.NoteOnEvent(tick=0, channel=3, data=[52, 100])\n",
      "midi.NoteOnEvent(tick=384, channel=3, data=[52, 0])\n",
      "midi.NoteOnEvent(tick=1728, channel=3, data=[68, 100])\n",
      "midi.NoteOnEvent(tick=192, channel=3, data=[68, 0])\n",
      "midi.NoteOnEvent(tick=0, channel=3, data=[69, 100])\n",
      "midi.NoteOnEvent(tick=384, channel=3, data=[69, 0])\n",
      "midi.NoteOnEvent(tick=192, channel=3, data=[69, 100])\n",
      "midi.NoteOnEvent(tick=192, channel=3, data=[69, 0])\n",
      "midi.NoteOnEvent(tick=0, channel=3, data=[69, 100])\n",
      "midi.NoteOnEvent(tick=384, channel=3, data=[69, 0])\n",
      "midi.NoteOnEvent(tick=192, channel=3, data=[71, 100])\n",
      "midi.NoteOnEvent(tick=192, channel=3, data=[71, 0])\n",
      "midi.NoteOnEvent(tick=0, channel=3, data=[64, 100])\n",
      "midi.NoteOnEvent(tick=192, channel=3, data=[64, 0])\n",
      "midi.NoteOnEvent(tick=0, channel=3, data=[64, 100])\n",
      "midi.NoteOnEvent(tick=192, channel=3, data=[64, 0])\n",
      "midi.NoteOnEvent(tick=0, channel=3, data=[64, 100])\n",
      "midi.NoteOnEvent(tick=192, channel=3, data=[64, 0])\n",
      "midi.NoteOnEvent(tick=0, channel=3, data=[64, 100])\n",
      "midi.NoteOnEvent(tick=192, channel=3, data=[64, 0])\n",
      "midi.NoteOnEvent(tick=0, channel=3, data=[64, 100])\n",
      "midi.NoteOnEvent(tick=192, channel=3, data=[64, 0])\n",
      "midi.NoteOnEvent(tick=0, channel=3, data=[64, 100])\n",
      "midi.NoteOnEvent(tick=192, channel=3, data=[64, 0])\n",
      "midi.NoteOnEvent(tick=0, channel=3, data=[69, 100])\n",
      "midi.NoteOnEvent(tick=192, channel=3, data=[69, 0])\n",
      "midi.NoteOnEvent(tick=0, channel=3, data=[72, 100])\n",
      "midi.NoteOnEvent(tick=384, channel=3, data=[72, 0])\n",
      "midi.NoteOnEvent(tick=0, channel=3, data=[62, 100])\n",
      "midi.NoteOnEvent(tick=96, channel=3, data=[62, 0])\n",
      "midi.NoteOnEvent(tick=0, channel=3, data=[64, 100])\n",
      "midi.NoteOnEvent(tick=96, channel=3, data=[64, 0])\n",
      "midi.NoteOnEvent(tick=0, channel=3, data=[65, 100])\n",
      "midi.NoteOnEvent(tick=192, channel=3, data=[65, 0])\n",
      "midi.NoteOnEvent(tick=0, channel=3, data=[65, 100])\n",
      "midi.NoteOnEvent(tick=192, channel=3, data=[65, 0])\n",
      "midi.NoteOnEvent(tick=0, channel=3, data=[62, 100])\n",
      "midi.NoteOnEvent(tick=192, channel=3, data=[62, 0])\n",
      "midi.NoteOnEvent(tick=0, channel=3, data=[74, 100])\n",
      "midi.NoteOnEvent(tick=192, channel=3, data=[74, 0])\n",
      "midi.NoteOnEvent(tick=1344, channel=3, data=[62, 100])\n",
      "midi.NoteOnEvent(tick=192, channel=3, data=[62, 0])\n",
      "midi.NoteOnEvent(tick=0, channel=3, data=[67, 100])\n",
      "midi.NoteOnEvent(tick=192, channel=3, data=[67, 0])\n",
      "midi.NoteOnEvent(tick=0, channel=3, data=[71, 100])\n",
      "midi.NoteOnEvent(tick=384, channel=3, data=[71, 0])\n",
      "midi.NoteOnEvent(tick=0, channel=3, data=[60, 100])\n",
      "midi.NoteOnEvent(tick=96, channel=3, data=[60, 0])\n",
      "midi.NoteOnEvent(tick=0, channel=3, data=[62, 100])\n",
      "midi.NoteOnEvent(tick=96, channel=3, data=[62, 0])\n",
      "midi.NoteOnEvent(tick=0, channel=3, data=[64, 100])\n",
      "midi.NoteOnEvent(tick=192, channel=3, data=[64, 0])\n",
      "midi.NoteOnEvent(tick=0, channel=3, data=[64, 100])\n",
      "midi.NoteOnEvent(tick=192, channel=3, data=[64, 0])\n",
      "midi.NoteOnEvent(tick=0, channel=3, data=[60, 100])\n",
      "midi.NoteOnEvent(tick=192, channel=3, data=[60, 0])\n",
      "midi.NoteOnEvent(tick=0, channel=3, data=[72, 100])\n",
      "midi.NoteOnEvent(tick=192, channel=3, data=[72, 0])\n",
      "midi.NoteOnEvent(tick=1344, channel=3, data=[60, 100])\n",
      "midi.NoteOnEvent(tick=192, channel=3, data=[60, 0])\n",
      "midi.NoteOnEvent(tick=0, channel=3, data=[65, 100])\n",
      "midi.NoteOnEvent(tick=192, channel=3, data=[65, 0])\n",
      "midi.NoteOnEvent(tick=0, channel=3, data=[69, 100])\n",
      "midi.NoteOnEvent(tick=384, channel=3, data=[69, 0])\n",
      "midi.NoteOnEvent(tick=0, channel=3, data=[68, 100])\n",
      "midi.NoteOnEvent(tick=96, channel=3, data=[68, 0])\n",
      "midi.NoteOnEvent(tick=0, channel=3, data=[69, 100])\n",
      "midi.NoteOnEvent(tick=96, channel=3, data=[69, 0])\n",
      "midi.NoteOnEvent(tick=0, channel=3, data=[71, 100])\n",
      "midi.NoteOnEvent(tick=192, channel=3, data=[71, 0])\n",
      "midi.NoteOnEvent(tick=0, channel=3, data=[59, 100])\n",
      "midi.NoteOnEvent(tick=384, channel=3, data=[59, 0])\n",
      "midi.NoteOnEvent(tick=0, channel=3, data=[52, 100])\n",
      "midi.NoteOnEvent(tick=192, channel=3, data=[52, 0])\n",
      "midi.NoteOnEvent(tick=0, channel=3, data=[64, 100])\n",
      "midi.NoteOnEvent(tick=192, channel=3, data=[64, 0])\n",
      "midi.NoteOnEvent(tick=0, channel=3, data=[60, 100])\n",
      "midi.NoteOnEvent(tick=192, channel=3, data=[60, 0])\n",
      "midi.NoteOnEvent(tick=0, channel=3, data=[57, 100])\n",
      "midi.NoteOnEvent(tick=192, channel=3, data=[57, 0])\n",
      "midi.NoteOnEvent(tick=0, channel=3, data=[60, 100])\n",
      "midi.NoteOnEvent(tick=192, channel=3, data=[60, 0])\n",
      "midi.NoteOnEvent(tick=0, channel=3, data=[65, 100])\n",
      "midi.NoteOnEvent(tick=192, channel=3, data=[65, 0])\n",
      "midi.NoteOnEvent(tick=0, channel=3, data=[62, 100])\n",
      "midi.NoteOnEvent(tick=192, channel=3, data=[62, 0])\n",
      "midi.NoteOnEvent(tick=0, channel=3, data=[59, 100])\n",
      "midi.NoteOnEvent(tick=192, channel=3, data=[59, 0])\n",
      "midi.NoteOnEvent(tick=0, channel=3, data=[74, 100])\n",
      "midi.NoteOnEvent(tick=192, channel=3, data=[74, 0])\n",
      "midi.NoteOnEvent(tick=0, channel=3, data=[72, 100])\n",
      "midi.NoteOnEvent(tick=192, channel=3, data=[72, 0])\n",
      "midi.NoteOnEvent(tick=0, channel=3, data=[69, 100])\n",
      "midi.NoteOnEvent(tick=192, channel=3, data=[69, 0])\n",
      "midi.NoteOnEvent(tick=0, channel=3, data=[69, 100])\n",
      "midi.NoteOnEvent(tick=384, channel=3, data=[69, 0])\n",
      "midi.NoteOnEvent(tick=0, channel=3, data=[68, 100])\n",
      "midi.NoteOnEvent(tick=768, channel=3, data=[68, 0])\n",
      "midi.NoteOnEvent(tick=384, channel=3, data=[65, 100])\n",
      "midi.NoteOnEvent(tick=384, channel=3, data=[65, 0])\n",
      "midi.NoteOnEvent(tick=384, channel=3, data=[59, 100])\n",
      "midi.NoteOnEvent(tick=384, channel=3, data=[59, 0])\n",
      "midi.NoteOnEvent(tick=384, channel=3, data=[67, 100])\n",
      "midi.NoteOnEvent(tick=384, channel=3, data=[67, 0])\n",
      "midi.NoteOnEvent(tick=384, channel=3, data=[68, 100])\n",
      "midi.NoteOnEvent(tick=960, channel=3, data=[68, 0])\n",
      "midi.NoteOnEvent(tick=0, channel=3, data=[69, 100])\n",
      "midi.NoteOnEvent(tick=384, channel=3, data=[69, 0])\n",
      "midi.NoteOnEvent(tick=0, channel=3, data=[59, 100])\n",
      "midi.NoteOnEvent(tick=192, channel=3, data=[59, 0])\n",
      "midi.NoteOnEvent(tick=0, channel=3, data=[57, 100])\n",
      "midi.NoteOnEvent(tick=192, channel=3, data=[57, 0])\n",
      "midi.NoteOnEvent(tick=0, channel=3, data=[60, 100])\n",
      "midi.NoteOnEvent(tick=192, channel=3, data=[60, 0])\n",
      "midi.NoteOnEvent(tick=0, channel=3, data=[65, 100])\n",
      "midi.NoteOnEvent(tick=192, channel=3, data=[65, 0])\n",
      "midi.NoteOnEvent(tick=0, channel=3, data=[64, 100])\n",
      "midi.NoteOnEvent(tick=192, channel=3, data=[64, 0])\n",
      "midi.NoteOnEvent(tick=0, channel=3, data=[64, 100])\n",
      "midi.NoteOnEvent(tick=192, channel=3, data=[64, 0])\n",
      "midi.NoteOnEvent(tick=0, channel=3, data=[62, 100])\n",
      "midi.NoteOnEvent(tick=192, channel=3, data=[62, 0])\n",
      "midi.NoteOnEvent(tick=192, channel=3, data=[57, 100])\n",
      "midi.NoteOnEvent(tick=192, channel=3, data=[57, 0])\n",
      "midi.NoteOnEvent(tick=0, channel=3, data=[59, 100])\n",
      "midi.NoteOnEvent(tick=192, channel=3, data=[59, 0])\n",
      "midi.NoteOnEvent(tick=0, channel=3, data=[62, 100])\n",
      "midi.NoteOnEvent(tick=192, channel=3, data=[62, 0])\n",
      "midi.NoteOnEvent(tick=192, channel=3, data=[71, 100])\n",
      "midi.NoteOnEvent(tick=192, channel=3, data=[71, 0])\n",
      "midi.NoteOnEvent(tick=0, channel=3, data=[68, 100])\n",
      "midi.NoteOnEvent(tick=192, channel=3, data=[68, 0])\n",
      "midi.NoteOnEvent(tick=0, channel=3, data=[71, 100])\n",
      "midi.NoteOnEvent(tick=192, channel=3, data=[71, 0])\n",
      "midi.NoteOnEvent(tick=192, channel=3, data=[74, 100])\n",
      "midi.NoteOnEvent(tick=192, channel=3, data=[74, 0])\n",
      "midi.NoteOnEvent(tick=0, channel=3, data=[62, 100])\n",
      "midi.NoteOnEvent(tick=192, channel=3, data=[62, 0])\n",
      "midi.NoteOnEvent(tick=0, channel=3, data=[64, 100])\n",
      "midi.NoteOnEvent(tick=192, channel=3, data=[64, 0])\n",
      "midi.NoteOnEvent(tick=0, channel=3, data=[64, 100])\n",
      "midi.NoteOnEvent(tick=192, channel=3, data=[64, 0])\n",
      "midi.NoteOnEvent(tick=0, channel=3, data=[64, 100])\n",
      "midi.NoteOnEvent(tick=192, channel=3, data=[64, 0])\n",
      "midi.NoteOnEvent(tick=0, channel=3, data=[60, 100])\n",
      "midi.NoteOnEvent(tick=576, channel=3, data=[60, 0])\n",
      "midi.EndOfTrackEvent(tick=0, data=[])\n",
      "midi.PortEvent(tick=0, data=[0])\n",
      "midi.TrackNameEvent(tick=0, text='Cello', data=[67, 101, 108, 108, 111])\n",
      "midi.ProgramChangeEvent(tick=0, channel=4, data=[42])\n",
      "midi.ControlChangeEvent(tick=0, channel=4, data=[7, 100])\n",
      "midi.ControlChangeEvent(tick=0, channel=4, data=[10, 84])\n",
      "midi.NoteOnEvent(tick=960, channel=4, data=[45, 100])\n",
      "midi.NoteOnEvent(tick=192, channel=4, data=[45, 0])\n",
      "midi.NoteOnEvent(tick=0, channel=4, data=[57, 100])\n",
      "midi.NoteOnEvent(tick=384, channel=4, data=[57, 0])\n",
      "midi.NoteOnEvent(tick=192, channel=4, data=[45, 100])\n",
      "midi.NoteOnEvent(tick=192, channel=4, data=[45, 0])\n",
      "midi.NoteOnEvent(tick=0, channel=4, data=[57, 100])\n",
      "midi.NoteOnEvent(tick=384, channel=4, data=[57, 0])\n",
      "midi.NoteOnEvent(tick=192, channel=4, data=[45, 100])\n",
      "midi.NoteOnEvent(tick=192, channel=4, data=[45, 0])\n",
      "midi.NoteOnEvent(tick=0, channel=4, data=[52, 100])\n",
      "midi.NoteOnEvent(tick=192, channel=4, data=[52, 0])\n",
      "midi.NoteOnEvent(tick=0, channel=4, data=[40, 100])\n",
      "midi.NoteOnEvent(tick=192, channel=4, data=[40, 0])\n",
      "midi.NoteOnEvent(tick=0, channel=4, data=[45, 100])\n",
      "midi.NoteOnEvent(tick=192, channel=4, data=[45, 0])\n",
      "midi.NoteOnEvent(tick=0, channel=4, data=[57, 100])\n",
      "midi.NoteOnEvent(tick=96, channel=4, data=[57, 0])\n",
      "midi.NoteOnEvent(tick=0, channel=4, data=[59, 100])\n",
      "midi.NoteOnEvent(tick=96, channel=4, data=[59, 0])\n",
      "midi.NoteOnEvent(tick=0, channel=4, data=[60, 100])\n",
      "midi.NoteOnEvent(tick=192, channel=4, data=[60, 0])\n",
      "midi.NoteOnEvent(tick=0, channel=4, data=[57, 100])\n",
      "midi.NoteOnEvent(tick=192, channel=4, data=[57, 0])\n",
      "midi.NoteOnEvent(tick=0, channel=4, data=[56, 100])\n",
      "midi.NoteOnEvent(tick=192, channel=4, data=[56, 0])\n",
      "midi.NoteOnEvent(tick=0, channel=4, data=[52, 100])\n",
      "midi.NoteOnEvent(tick=192, channel=4, data=[52, 0])\n",
      "midi.NoteOnEvent(tick=0, channel=4, data=[57, 100])\n",
      "midi.NoteOnEvent(tick=192, channel=4, data=[57, 0])\n",
      "midi.NoteOnEvent(tick=0, channel=4, data=[52, 100])\n",
      "midi.NoteOnEvent(tick=192, channel=4, data=[52, 0])\n",
      "midi.NoteOnEvent(tick=0, channel=4, data=[59, 100])\n",
      "midi.NoteOnEvent(tick=192, channel=4, data=[59, 0])\n",
      "midi.NoteOnEvent(tick=0, channel=4, data=[52, 100])\n",
      "midi.NoteOnEvent(tick=192, channel=4, data=[52, 0])\n",
      "midi.NoteOnEvent(tick=0, channel=4, data=[60, 100])\n",
      "midi.NoteOnEvent(tick=192, channel=4, data=[60, 0])\n",
      "midi.NoteOnEvent(tick=0, channel=4, data=[52, 100])\n",
      "midi.NoteOnEvent(tick=192, channel=4, data=[52, 0])\n",
      "midi.NoteOnEvent(tick=0, channel=4, data=[62, 100])\n",
      "midi.NoteOnEvent(tick=192, channel=4, data=[62, 0])\n",
      "midi.NoteOnEvent(tick=0, channel=4, data=[50, 100])\n",
      "midi.NoteOnEvent(tick=192, channel=4, data=[50, 0])\n",
      "midi.NoteOnEvent(tick=0, channel=4, data=[52, 100])\n",
      "midi.NoteOnEvent(tick=192, channel=4, data=[52, 0])\n",
      "midi.NoteOnEvent(tick=0, channel=4, data=[53, 100])\n",
      "midi.NoteOnEvent(tick=192, channel=4, data=[53, 0])\n",
      "midi.NoteOnEvent(tick=0, channel=4, data=[52, 100])\n",
      "midi.NoteOnEvent(tick=192, channel=4, data=[52, 0])\n",
      "midi.NoteOnEvent(tick=0, channel=4, data=[40, 100])\n",
      "midi.NoteOnEvent(tick=192, channel=4, data=[40, 0])\n",
      "midi.NoteOnEvent(tick=192, channel=4, data=[64, 100])\n",
      "midi.NoteOnEvent(tick=96, channel=4, data=[64, 0])\n",
      "midi.NoteOnEvent(tick=0, channel=4, data=[62, 100])\n",
      "midi.NoteOnEvent(tick=96, channel=4, data=[62, 0])\n",
      "midi.NoteOnEvent(tick=0, channel=4, data=[60, 100])\n",
      "midi.NoteOnEvent(tick=192, channel=4, data=[60, 0])\n",
      "midi.NoteOnEvent(tick=0, channel=4, data=[64, 100])\n",
      "midi.NoteOnEvent(tick=192, channel=4, data=[64, 0])\n",
      "midi.NoteOnEvent(tick=0, channel=4, data=[60, 100])\n",
      "midi.NoteOnEvent(tick=192, channel=4, data=[60, 0])\n",
      "midi.NoteOnEvent(tick=0, channel=4, data=[57, 100])\n",
      "midi.NoteOnEvent(tick=192, channel=4, data=[57, 0])\n",
      "midi.NoteOnEvent(tick=0, channel=4, data=[62, 100])\n",
      "midi.NoteOnEvent(tick=192, channel=4, data=[62, 0])\n",
      "midi.NoteOnEvent(tick=0, channel=4, data=[50, 100])\n",
      "midi.NoteOnEvent(tick=192, channel=4, data=[50, 0])\n",
      "midi.NoteOnEvent(tick=192, channel=4, data=[62, 100])\n",
      "midi.NoteOnEvent(tick=96, channel=4, data=[62, 0])\n",
      "midi.NoteOnEvent(tick=0, channel=4, data=[60, 100])\n",
      "midi.NoteOnEvent(tick=96, channel=4, data=[60, 0])\n",
      "midi.NoteOnEvent(tick=0, channel=4, data=[59, 100])\n",
      "midi.NoteOnEvent(tick=192, channel=4, data=[59, 0])\n",
      "midi.NoteOnEvent(tick=0, channel=4, data=[62, 100])\n",
      "midi.NoteOnEvent(tick=192, channel=4, data=[62, 0])\n",
      "midi.NoteOnEvent(tick=0, channel=4, data=[59, 100])\n",
      "midi.NoteOnEvent(tick=192, channel=4, data=[59, 0])\n",
      "midi.NoteOnEvent(tick=0, channel=4, data=[55, 100])\n",
      "midi.NoteOnEvent(tick=192, channel=4, data=[55, 0])\n",
      "midi.NoteOnEvent(tick=0, channel=4, data=[60, 100])\n",
      "midi.NoteOnEvent(tick=192, channel=4, data=[60, 0])\n",
      "midi.NoteOnEvent(tick=0, channel=4, data=[48, 100])\n",
      "midi.NoteOnEvent(tick=192, channel=4, data=[48, 0])\n",
      "midi.NoteOnEvent(tick=192, channel=4, data=[60, 100])\n",
      "midi.NoteOnEvent(tick=96, channel=4, data=[60, 0])\n",
      "midi.NoteOnEvent(tick=0, channel=4, data=[59, 100])\n",
      "midi.NoteOnEvent(tick=96, channel=4, data=[59, 0])\n",
      "midi.NoteOnEvent(tick=0, channel=4, data=[57, 100])\n",
      "midi.NoteOnEvent(tick=96, channel=4, data=[57, 0])\n",
      "midi.NoteOnEvent(tick=0, channel=4, data=[59, 100])\n",
      "midi.NoteOnEvent(tick=96, channel=4, data=[59, 0])\n",
      "midi.NoteOnEvent(tick=0, channel=4, data=[57, 100])\n",
      "midi.NoteOnEvent(tick=96, channel=4, data=[57, 0])\n",
      "midi.NoteOnEvent(tick=0, channel=4, data=[55, 100])\n",
      "midi.NoteOnEvent(tick=96, channel=4, data=[55, 0])\n",
      "midi.NoteOnEvent(tick=0, channel=4, data=[54, 100])\n",
      "midi.NoteOnEvent(tick=96, channel=4, data=[54, 0])\n",
      "midi.NoteOnEvent(tick=0, channel=4, data=[55, 100])\n",
      "midi.NoteOnEvent(tick=96, channel=4, data=[55, 0])\n",
      "midi.NoteOnEvent(tick=0, channel=4, data=[54, 100])\n",
      "midi.NoteOnEvent(tick=96, channel=4, data=[54, 0])\n",
      "midi.NoteOnEvent(tick=0, channel=4, data=[52, 100])\n",
      "midi.NoteOnEvent(tick=96, channel=4, data=[52, 0])\n",
      "midi.NoteOnEvent(tick=0, channel=4, data=[51, 100])\n",
      "midi.NoteOnEvent(tick=96, channel=4, data=[51, 0])\n",
      "midi.NoteOnEvent(tick=0, channel=4, data=[47, 100])\n",
      "midi.NoteOnEvent(tick=96, channel=4, data=[47, 0])\n",
      "midi.NoteOnEvent(tick=0, channel=4, data=[49, 100])\n",
      "midi.NoteOnEvent(tick=96, channel=4, data=[49, 0])\n",
      "midi.NoteOnEvent(tick=0, channel=4, data=[51, 100])\n",
      "midi.NoteOnEvent(tick=96, channel=4, data=[51, 0])\n",
      "midi.NoteOnEvent(tick=0, channel=4, data=[52, 100])\n",
      "midi.NoteOnEvent(tick=96, channel=4, data=[52, 0])\n",
      "midi.NoteOnEvent(tick=0, channel=4, data=[54, 100])\n",
      "midi.NoteOnEvent(tick=96, channel=4, data=[54, 0])\n",
      "midi.NoteOnEvent(tick=0, channel=4, data=[55, 100])\n",
      "midi.NoteOnEvent(tick=96, channel=4, data=[55, 0])\n",
      "midi.NoteOnEvent(tick=0, channel=4, data=[52, 100])\n",
      "midi.NoteOnEvent(tick=96, channel=4, data=[52, 0])\n",
      "midi.NoteOnEvent(tick=0, channel=4, data=[48, 100])\n",
      "midi.NoteOnEvent(tick=192, channel=4, data=[48, 0])\n",
      "midi.NoteOnEvent(tick=0, channel=4, data=[47, 100])\n",
      "midi.NoteOnEvent(tick=192, channel=4, data=[47, 0])\n",
      "midi.NoteOnEvent(tick=0, channel=4, data=[48, 100])\n",
      "midi.NoteOnEvent(tick=192, channel=4, data=[48, 0])\n",
      "midi.NoteOnEvent(tick=0, channel=4, data=[45, 100])\n",
      "midi.NoteOnEvent(tick=192, channel=4, data=[45, 0])\n",
      "midi.NoteOnEvent(tick=0, channel=4, data=[47, 100])\n",
      "midi.NoteOnEvent(tick=288, channel=4, data=[47, 0])\n",
      "midi.NoteOnEvent(tick=0, channel=4, data=[49, 100])\n",
      "midi.NoteOnEvent(tick=48, channel=4, data=[49, 0])\n",
      "midi.NoteOnEvent(tick=0, channel=4, data=[51, 100])\n",
      "midi.NoteOnEvent(tick=48, channel=4, data=[51, 0])\n",
      "midi.NoteOnEvent(tick=0, channel=4, data=[52, 100])\n",
      "midi.NoteOnEvent(tick=96, channel=4, data=[52, 0])\n",
      "midi.NoteOnEvent(tick=0, channel=4, data=[54, 100])\n",
      "midi.NoteOnEvent(tick=96, channel=4, data=[54, 0])\n",
      "midi.NoteOnEvent(tick=0, channel=4, data=[55, 100])\n",
      "midi.NoteOnEvent(tick=96, channel=4, data=[55, 0])\n",
      "midi.NoteOnEvent(tick=0, channel=4, data=[57, 100])\n",
      "midi.NoteOnEvent(tick=96, channel=4, data=[57, 0])\n",
      "midi.NoteOnEvent(tick=0, channel=4, data=[59, 100])\n",
      "midi.NoteOnEvent(tick=192, channel=4, data=[59, 0])\n",
      "midi.NoteOnEvent(tick=0, channel=4, data=[57, 100])\n",
      "midi.NoteOnEvent(tick=192, channel=4, data=[57, 0])\n",
      "midi.NoteOnEvent(tick=0, channel=4, data=[59, 100])\n",
      "midi.NoteOnEvent(tick=192, channel=4, data=[59, 0])\n",
      "midi.NoteOnEvent(tick=0, channel=4, data=[47, 100])\n",
      "midi.NoteOnEvent(tick=192, channel=4, data=[47, 0])\n",
      "midi.NoteOnEvent(tick=0, channel=4, data=[57, 100])\n",
      "midi.NoteOnEvent(tick=192, channel=4, data=[57, 0])\n",
      "midi.NoteOnEvent(tick=0, channel=4, data=[55, 100])\n",
      "midi.NoteOnEvent(tick=192, channel=4, data=[55, 0])\n",
      "midi.NoteOnEvent(tick=0, channel=4, data=[57, 100])\n",
      "midi.NoteOnEvent(tick=192, channel=4, data=[57, 0])\n",
      "midi.NoteOnEvent(tick=0, channel=4, data=[45, 100])\n",
      "midi.NoteOnEvent(tick=192, channel=4, data=[45, 0])\n",
      "midi.NoteOnEvent(tick=0, channel=4, data=[43, 100])\n",
      "midi.NoteOnEvent(tick=192, channel=4, data=[43, 0])\n",
      "midi.NoteOnEvent(tick=0, channel=4, data=[48, 100])\n",
      "midi.NoteOnEvent(tick=192, channel=4, data=[48, 0])\n",
      "midi.NoteOnEvent(tick=0, channel=4, data=[45, 100])\n",
      "midi.NoteOnEvent(tick=192, channel=4, data=[45, 0])\n",
      "midi.NoteOnEvent(tick=0, channel=4, data=[47, 100])\n",
      "midi.NoteOnEvent(tick=192, channel=4, data=[47, 0])\n",
      "midi.NoteOnEvent(tick=0, channel=4, data=[40, 100])\n",
      "midi.NoteOnEvent(tick=384, channel=4, data=[40, 0])\n",
      "midi.NoteOnEvent(tick=192, channel=4, data=[60, 100])\n",
      "midi.NoteOnEvent(tick=192, channel=4, data=[60, 0])\n",
      "midi.NoteOnEvent(tick=0, channel=4, data=[51, 100])\n",
      "midi.NoteOnEvent(tick=192, channel=4, data=[51, 0])\n",
      "midi.NoteOnEvent(tick=0, channel=4, data=[51, 100])\n",
      "midi.NoteOnEvent(tick=192, channel=4, data=[51, 0])\n",
      "midi.NoteOnEvent(tick=0, channel=4, data=[51, 100])\n",
      "midi.NoteOnEvent(tick=192, channel=4, data=[51, 0])\n",
      "midi.NoteOnEvent(tick=0, channel=4, data=[54, 100])\n",
      "midi.NoteOnEvent(tick=192, channel=4, data=[54, 0])\n",
      "midi.NoteOnEvent(tick=0, channel=4, data=[45, 100])\n",
      "midi.NoteOnEvent(tick=192, channel=4, data=[45, 0])\n",
      "midi.NoteOnEvent(tick=0, channel=4, data=[45, 100])\n",
      "midi.NoteOnEvent(tick=192, channel=4, data=[45, 0])\n",
      "midi.NoteOnEvent(tick=0, channel=4, data=[45, 100])\n",
      "midi.NoteOnEvent(tick=192, channel=4, data=[45, 0])\n",
      "midi.NoteOnEvent(tick=0, channel=4, data=[48, 100])\n",
      "midi.NoteOnEvent(tick=192, channel=4, data=[48, 0])\n",
      "midi.NoteOnEvent(tick=0, channel=4, data=[42, 100])\n",
      "midi.NoteOnEvent(tick=192, channel=4, data=[42, 0])\n",
      "midi.NoteOnEvent(tick=0, channel=4, data=[40, 100])\n",
      "midi.NoteOnEvent(tick=192, channel=4, data=[40, 0])\n",
      "midi.NoteOnEvent(tick=0, channel=4, data=[47, 100])\n",
      "midi.NoteOnEvent(tick=192, channel=4, data=[47, 0])\n",
      "midi.NoteOnEvent(tick=0, channel=4, data=[47, 100])\n",
      "midi.NoteOnEvent(tick=192, channel=4, data=[47, 0])\n",
      "midi.NoteOnEvent(tick=0, channel=4, data=[40, 100])\n",
      "midi.NoteOnEvent(tick=192, channel=4, data=[40, 0])\n",
      "midi.NoteOnEvent(tick=0, channel=4, data=[52, 100])\n",
      "midi.NoteOnEvent(tick=96, channel=4, data=[52, 0])\n",
      "midi.NoteOnEvent(tick=0, channel=4, data=[50, 100])\n",
      "midi.NoteOnEvent(tick=96, channel=4, data=[50, 0])\n",
      "midi.NoteOnEvent(tick=0, channel=4, data=[48, 100])\n",
      "midi.NoteOnEvent(tick=192, channel=4, data=[48, 0])\n",
      "midi.NoteOnEvent(tick=0, channel=4, data=[47, 100])\n",
      "midi.NoteOnEvent(tick=192, channel=4, data=[47, 0])\n",
      "midi.NoteOnEvent(tick=0, channel=4, data=[45, 100])\n",
      "midi.NoteOnEvent(tick=384, channel=4, data=[45, 0])\n",
      "midi.NoteOnEvent(tick=192, channel=4, data=[57, 100])\n",
      "midi.NoteOnEvent(tick=192, channel=4, data=[57, 0])\n",
      "midi.NoteOnEvent(tick=0, channel=4, data=[64, 100])\n",
      "midi.NoteOnEvent(tick=384, channel=4, data=[64, 0])\n",
      "midi.NoteOnEvent(tick=192, channel=4, data=[52, 100])\n",
      "midi.NoteOnEvent(tick=192, channel=4, data=[52, 0])\n",
      "midi.NoteOnEvent(tick=0, channel=4, data=[44, 100])\n",
      "midi.NoteOnEvent(tick=384, channel=4, data=[44, 0])\n",
      "midi.NoteOnEvent(tick=192, channel=4, data=[52, 100])\n",
      "midi.NoteOnEvent(tick=192, channel=4, data=[52, 0])\n",
      "midi.NoteOnEvent(tick=0, channel=4, data=[57, 100])\n",
      "midi.NoteOnEvent(tick=384, channel=4, data=[57, 0])\n",
      "midi.NoteOnEvent(tick=192, channel=4, data=[57, 100])\n",
      "midi.NoteOnEvent(tick=192, channel=4, data=[57, 0])\n",
      "midi.NoteOnEvent(tick=0, channel=4, data=[45, 100])\n",
      "midi.NoteOnEvent(tick=192, channel=4, data=[45, 0])\n",
      "midi.NoteOnEvent(tick=0, channel=4, data=[48, 100])\n",
      "midi.NoteOnEvent(tick=192, channel=4, data=[48, 0])\n",
      "midi.NoteOnEvent(tick=0, channel=4, data=[50, 100])\n",
      "midi.NoteOnEvent(tick=192, channel=4, data=[50, 0])\n",
      "midi.NoteOnEvent(tick=0, channel=4, data=[53, 100])\n",
      "midi.NoteOnEvent(tick=192, channel=4, data=[53, 0])\n",
      "midi.NoteOnEvent(tick=0, channel=4, data=[43, 100])\n",
      "midi.NoteOnEvent(tick=192, channel=4, data=[43, 0])\n",
      "midi.NoteOnEvent(tick=0, channel=4, data=[47, 100])\n",
      "midi.NoteOnEvent(tick=192, channel=4, data=[47, 0])\n",
      "midi.NoteOnEvent(tick=0, channel=4, data=[48, 100])\n",
      "midi.NoteOnEvent(tick=192, channel=4, data=[48, 0])\n",
      "midi.NoteOnEvent(tick=0, channel=4, data=[52, 100])\n",
      "midi.NoteOnEvent(tick=192, channel=4, data=[52, 0])\n",
      "midi.NoteOnEvent(tick=0, channel=4, data=[53, 100])\n",
      "midi.NoteOnEvent(tick=192, channel=4, data=[53, 0])\n",
      "midi.NoteOnEvent(tick=0, channel=4, data=[57, 100])\n",
      "midi.NoteOnEvent(tick=192, channel=4, data=[57, 0])\n",
      "midi.NoteOnEvent(tick=0, channel=4, data=[47, 100])\n",
      "midi.NoteOnEvent(tick=192, channel=4, data=[47, 0])\n",
      "midi.NoteOnEvent(tick=0, channel=4, data=[50, 100])\n",
      "midi.NoteOnEvent(tick=192, channel=4, data=[50, 0])\n",
      "midi.NoteOnEvent(tick=0, channel=4, data=[40, 100])\n",
      "midi.NoteOnEvent(tick=192, channel=4, data=[40, 0])\n",
      "midi.NoteOnEvent(tick=0, channel=4, data=[52, 100])\n",
      "midi.NoteOnEvent(tick=192, channel=4, data=[52, 0])\n",
      "midi.NoteOnEvent(tick=0, channel=4, data=[56, 100])\n",
      "midi.NoteOnEvent(tick=192, channel=4, data=[56, 0])\n",
      "midi.NoteOnEvent(tick=0, channel=4, data=[52, 100])\n",
      "midi.NoteOnEvent(tick=192, channel=4, data=[52, 0])\n",
      "midi.NoteOnEvent(tick=192, channel=4, data=[57, 100])\n",
      "midi.NoteOnEvent(tick=192, channel=4, data=[57, 0])\n",
      "midi.NoteOnEvent(tick=0, channel=4, data=[60, 100])\n",
      "midi.NoteOnEvent(tick=192, channel=4, data=[60, 0])\n",
      "midi.NoteOnEvent(tick=0, channel=4, data=[57, 100])\n",
      "midi.NoteOnEvent(tick=192, channel=4, data=[57, 0])\n",
      "midi.NoteOnEvent(tick=192, channel=4, data=[57, 100])\n",
      "midi.NoteOnEvent(tick=192, channel=4, data=[57, 0])\n",
      "midi.NoteOnEvent(tick=0, channel=4, data=[53, 100])\n",
      "midi.NoteOnEvent(tick=192, channel=4, data=[53, 0])\n",
      "midi.NoteOnEvent(tick=0, channel=4, data=[50, 100])\n",
      "midi.NoteOnEvent(tick=192, channel=4, data=[50, 0])\n",
      "midi.NoteOnEvent(tick=192, channel=4, data=[55, 100])\n",
      "midi.NoteOnEvent(tick=192, channel=4, data=[55, 0])\n",
      "midi.NoteOnEvent(tick=0, channel=4, data=[59, 100])\n",
      "midi.NoteOnEvent(tick=192, channel=4, data=[59, 0])\n",
      "midi.NoteOnEvent(tick=0, channel=4, data=[55, 100])\n",
      "midi.NoteOnEvent(tick=192, channel=4, data=[55, 0])\n",
      "midi.NoteOnEvent(tick=192, channel=4, data=[55, 100])\n",
      "midi.NoteOnEvent(tick=192, channel=4, data=[55, 0])\n",
      "midi.NoteOnEvent(tick=0, channel=4, data=[52, 100])\n",
      "midi.NoteOnEvent(tick=192, channel=4, data=[52, 0])\n",
      "midi.NoteOnEvent(tick=0, channel=4, data=[48, 100])\n",
      "midi.NoteOnEvent(tick=192, channel=4, data=[48, 0])\n",
      "midi.NoteOnEvent(tick=192, channel=4, data=[53, 100])\n",
      "midi.NoteOnEvent(tick=192, channel=4, data=[53, 0])\n",
      "midi.NoteOnEvent(tick=0, channel=4, data=[57, 100])\n",
      "midi.NoteOnEvent(tick=192, channel=4, data=[57, 0])\n",
      "midi.NoteOnEvent(tick=0, channel=4, data=[53, 100])\n",
      "midi.NoteOnEvent(tick=192, channel=4, data=[53, 0])\n",
      "midi.NoteOnEvent(tick=192, channel=4, data=[53, 100])\n",
      "midi.NoteOnEvent(tick=192, channel=4, data=[53, 0])\n",
      "midi.NoteOnEvent(tick=0, channel=4, data=[50, 100])\n",
      "midi.NoteOnEvent(tick=192, channel=4, data=[50, 0])\n",
      "midi.NoteOnEvent(tick=0, channel=4, data=[47, 100])\n",
      "midi.NoteOnEvent(tick=192, channel=4, data=[47, 0])\n",
      "midi.NoteOnEvent(tick=192, channel=4, data=[52, 100])\n",
      "midi.NoteOnEvent(tick=192, channel=4, data=[52, 0])\n",
      "midi.NoteOnEvent(tick=0, channel=4, data=[56, 100])\n",
      "midi.NoteOnEvent(tick=192, channel=4, data=[56, 0])\n",
      "midi.NoteOnEvent(tick=0, channel=4, data=[52, 100])\n",
      "midi.NoteOnEvent(tick=192, channel=4, data=[52, 0])\n",
      "midi.NoteOnEvent(tick=192, channel=4, data=[52, 100])\n",
      "midi.NoteOnEvent(tick=192, channel=4, data=[52, 0])\n",
      "midi.NoteOnEvent(tick=0, channel=4, data=[48, 100])\n",
      "midi.NoteOnEvent(tick=192, channel=4, data=[48, 0])\n",
      "midi.NoteOnEvent(tick=0, channel=4, data=[45, 100])\n",
      "midi.NoteOnEvent(tick=192, channel=4, data=[45, 0])\n",
      "midi.NoteOnEvent(tick=0, channel=4, data=[57, 100])\n",
      "midi.NoteOnEvent(tick=384, channel=4, data=[57, 0])\n",
      "midi.NoteOnEvent(tick=192, channel=4, data=[45, 100])\n",
      "midi.NoteOnEvent(tick=192, channel=4, data=[45, 0])\n",
      "midi.NoteOnEvent(tick=0, channel=4, data=[57, 100])\n",
      "midi.NoteOnEvent(tick=192, channel=4, data=[57, 0])\n",
      "midi.NoteOnEvent(tick=0, channel=4, data=[45, 100])\n",
      "midi.NoteOnEvent(tick=192, channel=4, data=[45, 0])\n",
      "midi.NoteOnEvent(tick=0, channel=4, data=[52, 100])\n",
      "midi.NoteOnEvent(tick=192, channel=4, data=[52, 0])\n",
      "midi.NoteOnEvent(tick=0, channel=4, data=[40, 100])\n",
      "midi.NoteOnEvent(tick=192, channel=4, data=[40, 0])\n",
      "midi.NoteOnEvent(tick=0, channel=4, data=[45, 100])\n",
      "midi.NoteOnEvent(tick=192, channel=4, data=[45, 0])\n",
      "midi.NoteOnEvent(tick=0, channel=4, data=[57, 100])\n",
      "midi.NoteOnEvent(tick=96, channel=4, data=[57, 0])\n",
      "midi.NoteOnEvent(tick=0, channel=4, data=[59, 100])\n",
      "midi.NoteOnEvent(tick=96, channel=4, data=[59, 0])\n",
      "midi.NoteOnEvent(tick=0, channel=4, data=[60, 100])\n",
      "midi.NoteOnEvent(tick=192, channel=4, data=[60, 0])\n",
      "midi.NoteOnEvent(tick=0, channel=4, data=[57, 100])\n",
      "midi.NoteOnEvent(tick=192, channel=4, data=[57, 0])\n",
      "midi.NoteOnEvent(tick=0, channel=4, data=[45, 100])\n",
      "midi.NoteOnEvent(tick=192, channel=4, data=[45, 0])\n",
      "midi.NoteOnEvent(tick=768, channel=4, data=[55, 100])\n",
      "midi.NoteOnEvent(tick=96, channel=4, data=[55, 0])\n",
      "midi.NoteOnEvent(tick=0, channel=4, data=[57, 100])\n",
      "midi.NoteOnEvent(tick=96, channel=4, data=[57, 0])\n",
      "midi.NoteOnEvent(tick=0, channel=4, data=[59, 100])\n",
      "midi.NoteOnEvent(tick=192, channel=4, data=[59, 0])\n",
      "midi.NoteOnEvent(tick=0, channel=4, data=[55, 100])\n",
      "midi.NoteOnEvent(tick=192, channel=4, data=[55, 0])\n",
      "midi.NoteOnEvent(tick=0, channel=4, data=[43, 100])\n",
      "midi.NoteOnEvent(tick=192, channel=4, data=[43, 0])\n",
      "midi.NoteOnEvent(tick=768, channel=4, data=[53, 100])\n",
      "midi.NoteOnEvent(tick=96, channel=4, data=[53, 0])\n",
      "midi.NoteOnEvent(tick=0, channel=4, data=[55, 100])\n",
      "midi.NoteOnEvent(tick=96, channel=4, data=[55, 0])\n",
      "midi.NoteOnEvent(tick=0, channel=4, data=[57, 100])\n",
      "midi.NoteOnEvent(tick=192, channel=4, data=[57, 0])\n",
      "midi.NoteOnEvent(tick=0, channel=4, data=[53, 100])\n",
      "midi.NoteOnEvent(tick=192, channel=4, data=[53, 0])\n",
      "midi.NoteOnEvent(tick=0, channel=4, data=[41, 100])\n",
      "midi.NoteOnEvent(tick=192, channel=4, data=[41, 0])\n",
      "midi.NoteOnEvent(tick=768, channel=4, data=[53, 100])\n",
      "midi.NoteOnEvent(tick=192, channel=4, data=[53, 0])\n",
      "midi.NoteOnEvent(tick=0, channel=4, data=[52, 100])\n",
      "midi.NoteOnEvent(tick=192, channel=4, data=[52, 0])\n",
      "midi.NoteOnEvent(tick=0, channel=4, data=[50, 100])\n",
      "midi.NoteOnEvent(tick=192, channel=4, data=[50, 0])\n",
      "midi.NoteOnEvent(tick=0, channel=4, data=[48, 100])\n",
      "midi.NoteOnEvent(tick=192, channel=4, data=[48, 0])\n",
      "midi.NoteOnEvent(tick=0, channel=4, data=[60, 100])\n",
      "midi.NoteOnEvent(tick=192, channel=4, data=[60, 0])\n",
      "midi.NoteOnEvent(tick=0, channel=4, data=[59, 100])\n",
      "midi.NoteOnEvent(tick=192, channel=4, data=[59, 0])\n",
      "midi.NoteOnEvent(tick=0, channel=4, data=[57, 100])\n",
      "midi.NoteOnEvent(tick=192, channel=4, data=[57, 0])\n",
      "midi.NoteOnEvent(tick=0, channel=4, data=[55, 100])\n",
      "midi.NoteOnEvent(tick=192, channel=4, data=[55, 0])\n",
      "midi.NoteOnEvent(tick=0, channel=4, data=[57, 100])\n",
      "midi.NoteOnEvent(tick=192, channel=4, data=[57, 0])\n",
      "midi.NoteOnEvent(tick=0, channel=4, data=[55, 100])\n",
      "midi.NoteOnEvent(tick=192, channel=4, data=[55, 0])\n",
      "midi.NoteOnEvent(tick=0, channel=4, data=[53, 100])\n",
      "midi.NoteOnEvent(tick=192, channel=4, data=[53, 0])\n",
      "midi.NoteOnEvent(tick=0, channel=4, data=[52, 100])\n",
      "midi.NoteOnEvent(tick=192, channel=4, data=[52, 0])\n",
      "midi.NoteOnEvent(tick=0, channel=4, data=[55, 100])\n",
      "midi.NoteOnEvent(tick=192, channel=4, data=[55, 0])\n",
      "midi.NoteOnEvent(tick=0, channel=4, data=[52, 100])\n",
      "midi.NoteOnEvent(tick=192, channel=4, data=[52, 0])\n",
      "midi.NoteOnEvent(tick=0, channel=4, data=[48, 100])\n",
      "midi.NoteOnEvent(tick=192, channel=4, data=[48, 0])\n",
      "midi.NoteOnEvent(tick=0, channel=4, data=[53, 100])\n",
      "midi.NoteOnEvent(tick=192, channel=4, data=[53, 0])\n",
      "midi.NoteOnEvent(tick=0, channel=4, data=[57, 100])\n",
      "midi.NoteOnEvent(tick=192, channel=4, data=[57, 0])\n",
      "midi.NoteOnEvent(tick=0, channel=4, data=[53, 100])\n",
      "midi.NoteOnEvent(tick=192, channel=4, data=[53, 0])\n",
      "midi.NoteOnEvent(tick=0, channel=4, data=[50, 100])\n",
      "midi.NoteOnEvent(tick=192, channel=4, data=[50, 0])\n",
      "midi.NoteOnEvent(tick=0, channel=4, data=[52, 100])\n",
      "midi.NoteOnEvent(tick=192, channel=4, data=[52, 0])\n",
      "midi.NoteOnEvent(tick=0, channel=4, data=[48, 100])\n",
      "midi.NoteOnEvent(tick=192, channel=4, data=[48, 0])\n",
      "midi.NoteOnEvent(tick=0, channel=4, data=[55, 100])\n",
      "midi.NoteOnEvent(tick=192, channel=4, data=[55, 0])\n",
      "midi.NoteOnEvent(tick=0, channel=4, data=[43, 100])\n",
      "midi.NoteOnEvent(tick=192, channel=4, data=[43, 0])\n",
      "midi.NoteOnEvent(tick=0, channel=4, data=[36, 100])\n",
      "midi.NoteOnEvent(tick=192, channel=4, data=[36, 0])\n",
      "midi.NoteOnEvent(tick=0, channel=4, data=[48, 100])\n",
      "midi.NoteOnEvent(tick=96, channel=4, data=[48, 0])\n",
      "midi.NoteOnEvent(tick=0, channel=4, data=[50, 100])\n",
      "midi.NoteOnEvent(tick=96, channel=4, data=[50, 0])\n",
      "midi.NoteOnEvent(tick=0, channel=4, data=[52, 100])\n",
      "midi.NoteOnEvent(tick=192, channel=4, data=[52, 0])\n",
      "midi.NoteOnEvent(tick=0, channel=4, data=[48, 100])\n",
      "midi.NoteOnEvent(tick=192, channel=4, data=[48, 0])\n",
      "midi.NoteOnEvent(tick=0, channel=4, data=[47, 100])\n",
      "midi.NoteOnEvent(tick=192, channel=4, data=[47, 0])\n",
      "midi.NoteOnEvent(tick=0, channel=4, data=[55, 100])\n",
      "midi.NoteOnEvent(tick=192, channel=4, data=[55, 0])\n",
      "midi.NoteOnEvent(tick=0, channel=4, data=[48, 100])\n",
      "midi.NoteOnEvent(tick=192, channel=4, data=[48, 0])\n",
      "midi.NoteOnEvent(tick=0, channel=4, data=[55, 100])\n",
      "midi.NoteOnEvent(tick=192, channel=4, data=[55, 0])\n",
      "midi.NoteOnEvent(tick=0, channel=4, data=[50, 100])\n",
      "midi.NoteOnEvent(tick=192, channel=4, data=[50, 0])\n",
      "midi.NoteOnEvent(tick=0, channel=4, data=[55, 100])\n",
      "midi.NoteOnEvent(tick=192, channel=4, data=[55, 0])\n",
      "midi.NoteOnEvent(tick=0, channel=4, data=[52, 100])\n",
      "midi.NoteOnEvent(tick=192, channel=4, data=[52, 0])\n",
      "midi.NoteOnEvent(tick=0, channel=4, data=[55, 100])\n",
      "midi.NoteOnEvent(tick=192, channel=4, data=[55, 0])\n",
      "midi.NoteOnEvent(tick=0, channel=4, data=[53, 100])\n",
      "midi.NoteOnEvent(tick=192, channel=4, data=[53, 0])\n",
      "midi.NoteOnEvent(tick=0, channel=4, data=[55, 100])\n",
      "midi.NoteOnEvent(tick=192, channel=4, data=[55, 0])\n",
      "midi.NoteOnEvent(tick=0, channel=4, data=[57, 100])\n",
      "midi.NoteOnEvent(tick=192, channel=4, data=[57, 0])\n",
      "midi.NoteOnEvent(tick=0, channel=4, data=[53, 100])\n",
      "midi.NoteOnEvent(tick=192, channel=4, data=[53, 0])\n",
      "midi.NoteOnEvent(tick=0, channel=4, data=[55, 100])\n",
      "midi.NoteOnEvent(tick=96, channel=4, data=[55, 0])\n",
      "midi.NoteOnEvent(tick=0, channel=4, data=[57, 100])\n",
      "midi.NoteOnEvent(tick=96, channel=4, data=[57, 0])\n",
      "midi.NoteOnEvent(tick=0, channel=4, data=[59, 100])\n",
      "midi.NoteOnEvent(tick=96, channel=4, data=[59, 0])\n",
      "midi.NoteOnEvent(tick=0, channel=4, data=[57, 100])\n",
      "midi.NoteOnEvent(tick=96, channel=4, data=[57, 0])\n",
      "midi.NoteOnEvent(tick=0, channel=4, data=[55, 100])\n",
      "midi.NoteOnEvent(tick=96, channel=4, data=[55, 0])\n",
      "midi.NoteOnEvent(tick=0, channel=4, data=[53, 100])\n",
      "midi.NoteOnEvent(tick=96, channel=4, data=[53, 0])\n",
      "midi.NoteOnEvent(tick=0, channel=4, data=[52, 100])\n",
      "midi.NoteOnEvent(tick=96, channel=4, data=[52, 0])\n",
      "midi.NoteOnEvent(tick=0, channel=4, data=[50, 100])\n",
      "midi.NoteOnEvent(tick=96, channel=4, data=[50, 0])\n",
      "midi.NoteOnEvent(tick=0, channel=4, data=[48, 100])\n",
      "midi.NoteOnEvent(tick=192, channel=4, data=[48, 0])\n",
      "midi.NoteOnEvent(tick=0, channel=4, data=[52, 100])\n",
      "midi.NoteOnEvent(tick=192, channel=4, data=[52, 0])\n",
      "midi.NoteOnEvent(tick=0, channel=4, data=[48, 100])\n",
      "midi.NoteOnEvent(tick=192, channel=4, data=[48, 0])\n",
      "midi.NoteOnEvent(tick=0, channel=4, data=[45, 100])\n",
      "midi.NoteOnEvent(tick=192, channel=4, data=[45, 0])\n",
      "midi.NoteOnEvent(tick=0, channel=4, data=[50, 100])\n",
      "midi.NoteOnEvent(tick=192, channel=4, data=[50, 0])\n",
      "midi.NoteOnEvent(tick=0, channel=4, data=[38, 100])\n",
      "midi.NoteOnEvent(tick=192, channel=4, data=[38, 0])\n",
      "midi.NoteOnEvent(tick=1344, channel=4, data=[54, 100])\n",
      "midi.NoteOnEvent(tick=96, channel=4, data=[54, 0])\n",
      "midi.NoteOnEvent(tick=0, channel=4, data=[52, 100])\n",
      "midi.NoteOnEvent(tick=96, channel=4, data=[52, 0])\n",
      "midi.NoteOnEvent(tick=0, channel=4, data=[50, 100])\n",
      "midi.NoteOnEvent(tick=96, channel=4, data=[50, 0])\n",
      "midi.NoteOnEvent(tick=0, channel=4, data=[48, 100])\n",
      "midi.NoteOnEvent(tick=96, channel=4, data=[48, 0])\n",
      "midi.NoteOnEvent(tick=0, channel=4, data=[47, 100])\n",
      "midi.NoteOnEvent(tick=96, channel=4, data=[47, 0])\n",
      "midi.NoteOnEvent(tick=0, channel=4, data=[45, 100])\n",
      "midi.NoteOnEvent(tick=96, channel=4, data=[45, 0])\n",
      "midi.NoteOnEvent(tick=0, channel=4, data=[47, 100])\n",
      "midi.NoteOnEvent(tick=192, channel=4, data=[47, 0])\n",
      "midi.NoteOnEvent(tick=0, channel=4, data=[50, 100])\n",
      "midi.NoteOnEvent(tick=192, channel=4, data=[50, 0])\n",
      "midi.NoteOnEvent(tick=0, channel=4, data=[47, 100])\n",
      "midi.NoteOnEvent(tick=192, channel=4, data=[47, 0])\n",
      "midi.NoteOnEvent(tick=0, channel=4, data=[43, 100])\n",
      "midi.NoteOnEvent(tick=192, channel=4, data=[43, 0])\n",
      "midi.NoteOnEvent(tick=0, channel=4, data=[48, 100])\n",
      "midi.NoteOnEvent(tick=192, channel=4, data=[48, 0])\n",
      "midi.NoteOnEvent(tick=0, channel=4, data=[36, 100])\n",
      "midi.NoteOnEvent(tick=192, channel=4, data=[36, 0])\n",
      "midi.NoteOnEvent(tick=1344, channel=4, data=[60, 100])\n",
      "midi.NoteOnEvent(tick=96, channel=4, data=[60, 0])\n",
      "midi.NoteOnEvent(tick=0, channel=4, data=[59, 100])\n",
      "midi.NoteOnEvent(tick=96, channel=4, data=[59, 0])\n",
      "midi.NoteOnEvent(tick=0, channel=4, data=[60, 100])\n",
      "midi.NoteOnEvent(tick=96, channel=4, data=[60, 0])\n",
      "midi.NoteOnEvent(tick=0, channel=4, data=[62, 100])\n",
      "midi.NoteOnEvent(tick=96, channel=4, data=[62, 0])\n",
      "midi.NoteOnEvent(tick=0, channel=4, data=[60, 100])\n",
      "midi.NoteOnEvent(tick=96, channel=4, data=[60, 0])\n",
      "midi.NoteOnEvent(tick=0, channel=4, data=[59, 100])\n",
      "midi.NoteOnEvent(tick=96, channel=4, data=[59, 0])\n",
      "midi.NoteOnEvent(tick=0, channel=4, data=[57, 100])\n",
      "midi.NoteOnEvent(tick=96, channel=4, data=[57, 0])\n",
      "midi.NoteOnEvent(tick=0, channel=4, data=[59, 100])\n",
      "midi.NoteOnEvent(tick=96, channel=4, data=[59, 0])\n",
      "midi.NoteOnEvent(tick=0, channel=4, data=[57, 100])\n",
      "midi.NoteOnEvent(tick=96, channel=4, data=[57, 0])\n",
      "midi.NoteOnEvent(tick=0, channel=4, data=[55, 100])\n",
      "midi.NoteOnEvent(tick=96, channel=4, data=[55, 0])\n",
      "midi.NoteOnEvent(tick=0, channel=4, data=[54, 100])\n",
      "midi.NoteOnEvent(tick=96, channel=4, data=[54, 0])\n",
      "midi.NoteOnEvent(tick=0, channel=4, data=[55, 100])\n",
      "midi.NoteOnEvent(tick=96, channel=4, data=[55, 0])\n",
      "midi.NoteOnEvent(tick=0, channel=4, data=[54, 100])\n",
      "midi.NoteOnEvent(tick=96, channel=4, data=[54, 0])\n",
      "midi.NoteOnEvent(tick=0, channel=4, data=[52, 100])\n",
      "midi.NoteOnEvent(tick=96, channel=4, data=[52, 0])\n",
      "midi.NoteOnEvent(tick=0, channel=4, data=[51, 100])\n",
      "midi.NoteOnEvent(tick=96, channel=4, data=[51, 0])\n",
      "midi.NoteOnEvent(tick=0, channel=4, data=[47, 100])\n",
      "midi.NoteOnEvent(tick=96, channel=4, data=[47, 0])\n",
      "midi.NoteOnEvent(tick=0, channel=4, data=[49, 100])\n",
      "midi.NoteOnEvent(tick=96, channel=4, data=[49, 0])\n",
      "midi.NoteOnEvent(tick=0, channel=4, data=[51, 100])\n",
      "midi.NoteOnEvent(tick=96, channel=4, data=[51, 0])\n",
      "midi.NoteOnEvent(tick=0, channel=4, data=[52, 100])\n",
      "midi.NoteOnEvent(tick=96, channel=4, data=[52, 0])\n",
      "midi.NoteOnEvent(tick=0, channel=4, data=[54, 100])\n",
      "midi.NoteOnEvent(tick=96, channel=4, data=[54, 0])\n",
      "midi.NoteOnEvent(tick=0, channel=4, data=[55, 100])\n",
      "midi.NoteOnEvent(tick=96, channel=4, data=[55, 0])\n",
      "midi.NoteOnEvent(tick=0, channel=4, data=[52, 100])\n",
      "midi.NoteOnEvent(tick=96, channel=4, data=[52, 0])\n",
      "midi.NoteOnEvent(tick=0, channel=4, data=[48, 100])\n",
      "midi.NoteOnEvent(tick=192, channel=4, data=[48, 0])\n",
      "midi.NoteOnEvent(tick=0, channel=4, data=[47, 100])\n",
      "midi.NoteOnEvent(tick=192, channel=4, data=[47, 0])\n",
      "midi.NoteOnEvent(tick=0, channel=4, data=[48, 100])\n",
      "midi.NoteOnEvent(tick=192, channel=4, data=[48, 0])\n",
      "midi.NoteOnEvent(tick=0, channel=4, data=[45, 100])\n",
      "midi.NoteOnEvent(tick=192, channel=4, data=[45, 0])\n",
      "midi.NoteOnEvent(tick=0, channel=4, data=[47, 100])\n",
      "midi.NoteOnEvent(tick=288, channel=4, data=[47, 0])\n",
      "midi.NoteOnEvent(tick=0, channel=4, data=[49, 100])\n",
      "midi.NoteOnEvent(tick=48, channel=4, data=[49, 0])\n",
      "midi.NoteOnEvent(tick=0, channel=4, data=[51, 100])\n",
      "midi.NoteOnEvent(tick=48, channel=4, data=[51, 0])\n"
     ]
    },
    {
     "name": "stdout",
     "output_type": "stream",
     "text": [
      "midi.NoteOnEvent(tick=0, channel=4, data=[52, 100])\n",
      "midi.NoteOnEvent(tick=96, channel=4, data=[52, 0])\n",
      "midi.NoteOnEvent(tick=0, channel=4, data=[54, 100])\n",
      "midi.NoteOnEvent(tick=96, channel=4, data=[54, 0])\n",
      "midi.NoteOnEvent(tick=0, channel=4, data=[55, 100])\n",
      "midi.NoteOnEvent(tick=96, channel=4, data=[55, 0])\n",
      "midi.NoteOnEvent(tick=0, channel=4, data=[57, 100])\n",
      "midi.NoteOnEvent(tick=96, channel=4, data=[57, 0])\n",
      "midi.NoteOnEvent(tick=0, channel=4, data=[59, 100])\n",
      "midi.NoteOnEvent(tick=192, channel=4, data=[59, 0])\n",
      "midi.NoteOnEvent(tick=0, channel=4, data=[57, 100])\n",
      "midi.NoteOnEvent(tick=192, channel=4, data=[57, 0])\n",
      "midi.NoteOnEvent(tick=0, channel=4, data=[59, 100])\n",
      "midi.NoteOnEvent(tick=192, channel=4, data=[59, 0])\n",
      "midi.NoteOnEvent(tick=0, channel=4, data=[47, 100])\n",
      "midi.NoteOnEvent(tick=192, channel=4, data=[47, 0])\n",
      "midi.NoteOnEvent(tick=0, channel=4, data=[57, 100])\n",
      "midi.NoteOnEvent(tick=192, channel=4, data=[57, 0])\n",
      "midi.NoteOnEvent(tick=0, channel=4, data=[59, 100])\n",
      "midi.NoteOnEvent(tick=192, channel=4, data=[59, 0])\n",
      "midi.NoteOnEvent(tick=0, channel=4, data=[57, 100])\n",
      "midi.NoteOnEvent(tick=192, channel=4, data=[57, 0])\n",
      "midi.NoteOnEvent(tick=0, channel=4, data=[55, 100])\n",
      "midi.NoteOnEvent(tick=192, channel=4, data=[55, 0])\n",
      "midi.NoteOnEvent(tick=0, channel=4, data=[54, 100])\n",
      "midi.NoteOnEvent(tick=192, channel=4, data=[54, 0])\n",
      "midi.NoteOnEvent(tick=0, channel=4, data=[55, 100])\n",
      "midi.NoteOnEvent(tick=192, channel=4, data=[55, 0])\n",
      "midi.NoteOnEvent(tick=0, channel=4, data=[54, 100])\n",
      "midi.NoteOnEvent(tick=192, channel=4, data=[54, 0])\n",
      "midi.NoteOnEvent(tick=0, channel=4, data=[52, 100])\n",
      "midi.NoteOnEvent(tick=192, channel=4, data=[52, 0])\n",
      "midi.NoteOnEvent(tick=0, channel=4, data=[51, 100])\n",
      "midi.NoteOnEvent(tick=192, channel=4, data=[51, 0])\n",
      "midi.NoteOnEvent(tick=0, channel=4, data=[52, 100])\n",
      "midi.NoteOnEvent(tick=192, channel=4, data=[52, 0])\n",
      "midi.NoteOnEvent(tick=0, channel=4, data=[54, 100])\n",
      "midi.NoteOnEvent(tick=192, channel=4, data=[54, 0])\n",
      "midi.NoteOnEvent(tick=0, channel=4, data=[55, 100])\n",
      "midi.NoteOnEvent(tick=192, channel=4, data=[55, 0])\n",
      "midi.NoteOnEvent(tick=0, channel=4, data=[57, 100])\n",
      "midi.NoteOnEvent(tick=192, channel=4, data=[57, 0])\n",
      "midi.NoteOnEvent(tick=0, channel=4, data=[59, 100])\n",
      "midi.NoteOnEvent(tick=192, channel=4, data=[59, 0])\n",
      "midi.NoteOnEvent(tick=0, channel=4, data=[60, 100])\n",
      "midi.NoteOnEvent(tick=192, channel=4, data=[60, 0])\n",
      "midi.NoteOnEvent(tick=0, channel=4, data=[54, 100])\n",
      "midi.NoteOnEvent(tick=192, channel=4, data=[54, 0])\n",
      "midi.NoteOnEvent(tick=0, channel=4, data=[59, 100])\n",
      "midi.NoteOnEvent(tick=192, channel=4, data=[59, 0])\n",
      "midi.NoteOnEvent(tick=0, channel=4, data=[57, 100])\n",
      "midi.NoteOnEvent(tick=96, channel=4, data=[57, 0])\n",
      "midi.NoteOnEvent(tick=0, channel=4, data=[55, 100])\n",
      "midi.NoteOnEvent(tick=96, channel=4, data=[55, 0])\n",
      "midi.NoteOnEvent(tick=0, channel=4, data=[54, 100])\n",
      "midi.NoteOnEvent(tick=192, channel=4, data=[54, 0])\n",
      "midi.NoteOnEvent(tick=0, channel=4, data=[52, 100])\n",
      "midi.NoteOnEvent(tick=192, channel=4, data=[52, 0])\n",
      "midi.NoteOnEvent(tick=0, channel=4, data=[51, 100])\n",
      "midi.NoteOnEvent(tick=192, channel=4, data=[51, 0])\n",
      "midi.NoteOnEvent(tick=0, channel=4, data=[49, 100])\n",
      "midi.NoteOnEvent(tick=192, channel=4, data=[49, 0])\n",
      "midi.NoteOnEvent(tick=0, channel=4, data=[47, 100])\n",
      "midi.NoteOnEvent(tick=192, channel=4, data=[47, 0])\n",
      "midi.NoteOnEvent(tick=0, channel=4, data=[45, 100])\n",
      "midi.NoteOnEvent(tick=192, channel=4, data=[45, 0])\n",
      "midi.NoteOnEvent(tick=0, channel=4, data=[43, 100])\n",
      "midi.NoteOnEvent(tick=192, channel=4, data=[43, 0])\n",
      "midi.NoteOnEvent(tick=0, channel=4, data=[48, 100])\n",
      "midi.NoteOnEvent(tick=192, channel=4, data=[48, 0])\n",
      "midi.NoteOnEvent(tick=0, channel=4, data=[45, 100])\n",
      "midi.NoteOnEvent(tick=192, channel=4, data=[45, 0])\n",
      "midi.NoteOnEvent(tick=0, channel=4, data=[47, 100])\n",
      "midi.NoteOnEvent(tick=192, channel=4, data=[47, 0])\n",
      "midi.NoteOnEvent(tick=0, channel=4, data=[36, 100])\n",
      "midi.NoteOnEvent(tick=384, channel=4, data=[36, 0])\n",
      "midi.NoteOnEvent(tick=192, channel=4, data=[60, 100])\n",
      "midi.NoteOnEvent(tick=192, channel=4, data=[60, 0])\n",
      "midi.NoteOnEvent(tick=0, channel=4, data=[51, 100])\n",
      "midi.NoteOnEvent(tick=192, channel=4, data=[51, 0])\n",
      "midi.NoteOnEvent(tick=0, channel=4, data=[51, 100])\n",
      "midi.NoteOnEvent(tick=192, channel=4, data=[51, 0])\n",
      "midi.NoteOnEvent(tick=0, channel=4, data=[51, 100])\n",
      "midi.NoteOnEvent(tick=192, channel=4, data=[51, 0])\n",
      "midi.NoteOnEvent(tick=0, channel=4, data=[54, 100])\n",
      "midi.NoteOnEvent(tick=192, channel=4, data=[54, 0])\n",
      "midi.NoteOnEvent(tick=0, channel=4, data=[45, 100])\n",
      "midi.NoteOnEvent(tick=192, channel=4, data=[45, 0])\n",
      "midi.NoteOnEvent(tick=0, channel=4, data=[45, 100])\n",
      "midi.NoteOnEvent(tick=192, channel=4, data=[45, 0])\n",
      "midi.NoteOnEvent(tick=0, channel=4, data=[45, 100])\n",
      "midi.NoteOnEvent(tick=192, channel=4, data=[45, 0])\n",
      "midi.NoteOnEvent(tick=0, channel=4, data=[48, 100])\n",
      "midi.NoteOnEvent(tick=192, channel=4, data=[48, 0])\n",
      "midi.NoteOnEvent(tick=0, channel=4, data=[42, 100])\n",
      "midi.NoteOnEvent(tick=192, channel=4, data=[42, 0])\n",
      "midi.NoteOnEvent(tick=0, channel=4, data=[43, 100])\n",
      "midi.NoteOnEvent(tick=96, channel=4, data=[43, 0])\n",
      "midi.NoteOnEvent(tick=0, channel=4, data=[45, 100])\n",
      "midi.NoteOnEvent(tick=96, channel=4, data=[45, 0])\n",
      "midi.NoteOnEvent(tick=0, channel=4, data=[47, 100])\n",
      "midi.NoteOnEvent(tick=192, channel=4, data=[47, 0])\n",
      "midi.NoteOnEvent(tick=0, channel=4, data=[47, 100])\n",
      "midi.NoteOnEvent(tick=192, channel=4, data=[47, 0])\n",
      "midi.NoteOnEvent(tick=0, channel=4, data=[40, 100])\n",
      "midi.NoteOnEvent(tick=192, channel=4, data=[40, 0])\n",
      "midi.NoteOnEvent(tick=0, channel=4, data=[52, 100])\n",
      "midi.NoteOnEvent(tick=96, channel=4, data=[52, 0])\n",
      "midi.NoteOnEvent(tick=0, channel=4, data=[51, 100])\n",
      "midi.NoteOnEvent(tick=96, channel=4, data=[51, 0])\n",
      "midi.NoteOnEvent(tick=0, channel=4, data=[52, 100])\n",
      "midi.NoteOnEvent(tick=192, channel=4, data=[52, 0])\n",
      "midi.NoteOnEvent(tick=0, channel=4, data=[54, 100])\n",
      "midi.NoteOnEvent(tick=192, channel=4, data=[54, 0])\n",
      "midi.NoteOnEvent(tick=0, channel=4, data=[55, 100])\n",
      "midi.NoteOnEvent(tick=384, channel=4, data=[55, 0])\n",
      "midi.NoteOnEvent(tick=192, channel=4, data=[52, 100])\n",
      "midi.NoteOnEvent(tick=192, channel=4, data=[52, 0])\n",
      "midi.NoteOnEvent(tick=0, channel=4, data=[59, 100])\n",
      "midi.NoteOnEvent(tick=384, channel=4, data=[59, 0])\n",
      "midi.NoteOnEvent(tick=192, channel=4, data=[47, 100])\n",
      "midi.NoteOnEvent(tick=192, channel=4, data=[47, 0])\n",
      "midi.NoteOnEvent(tick=0, channel=4, data=[39, 100])\n",
      "midi.NoteOnEvent(tick=384, channel=4, data=[39, 0])\n",
      "midi.NoteOnEvent(tick=192, channel=4, data=[47, 100])\n",
      "midi.NoteOnEvent(tick=192, channel=4, data=[47, 0])\n",
      "midi.NoteOnEvent(tick=0, channel=4, data=[52, 100])\n",
      "midi.NoteOnEvent(tick=384, channel=4, data=[52, 0])\n",
      "midi.NoteOnEvent(tick=1344, channel=4, data=[52, 100])\n",
      "midi.NoteOnEvent(tick=192, channel=4, data=[52, 0])\n",
      "midi.NoteOnEvent(tick=0, channel=4, data=[40, 100])\n",
      "midi.NoteOnEvent(tick=192, channel=4, data=[40, 0])\n",
      "midi.NoteOnEvent(tick=0, channel=4, data=[52, 100])\n",
      "midi.NoteOnEvent(tick=192, channel=4, data=[52, 0])\n",
      "midi.NoteOnEvent(tick=0, channel=4, data=[45, 100])\n",
      "midi.NoteOnEvent(tick=384, channel=4, data=[45, 0])\n",
      "midi.NoteOnEvent(tick=576, channel=4, data=[57, 100])\n",
      "midi.NoteOnEvent(tick=192, channel=4, data=[57, 0])\n",
      "midi.NoteOnEvent(tick=0, channel=4, data=[45, 100])\n",
      "midi.NoteOnEvent(tick=192, channel=4, data=[45, 0])\n",
      "midi.NoteOnEvent(tick=0, channel=4, data=[57, 100])\n",
      "midi.NoteOnEvent(tick=192, channel=4, data=[57, 0])\n",
      "midi.NoteOnEvent(tick=0, channel=4, data=[50, 100])\n",
      "midi.NoteOnEvent(tick=384, channel=4, data=[50, 0])\n",
      "midi.NoteOnEvent(tick=576, channel=4, data=[50, 100])\n",
      "midi.NoteOnEvent(tick=192, channel=4, data=[50, 0])\n",
      "midi.NoteOnEvent(tick=0, channel=4, data=[38, 100])\n",
      "midi.NoteOnEvent(tick=192, channel=4, data=[38, 0])\n",
      "midi.NoteOnEvent(tick=0, channel=4, data=[50, 100])\n",
      "midi.NoteOnEvent(tick=192, channel=4, data=[50, 0])\n",
      "midi.NoteOnEvent(tick=0, channel=4, data=[43, 100])\n",
      "midi.NoteOnEvent(tick=384, channel=4, data=[43, 0])\n",
      "midi.NoteOnEvent(tick=576, channel=4, data=[55, 100])\n",
      "midi.NoteOnEvent(tick=192, channel=4, data=[55, 0])\n",
      "midi.NoteOnEvent(tick=0, channel=4, data=[43, 100])\n",
      "midi.NoteOnEvent(tick=192, channel=4, data=[43, 0])\n",
      "midi.NoteOnEvent(tick=0, channel=4, data=[55, 100])\n",
      "midi.NoteOnEvent(tick=192, channel=4, data=[55, 0])\n",
      "midi.NoteOnEvent(tick=0, channel=4, data=[48, 100])\n",
      "midi.NoteOnEvent(tick=384, channel=4, data=[48, 0])\n",
      "midi.NoteOnEvent(tick=0, channel=4, data=[58, 100])\n",
      "midi.NoteOnEvent(tick=384, channel=4, data=[58, 0])\n",
      "midi.NoteOnEvent(tick=0, channel=4, data=[57, 100])\n",
      "midi.NoteOnEvent(tick=384, channel=4, data=[57, 0])\n",
      "midi.NoteOnEvent(tick=0, channel=4, data=[55, 100])\n",
      "midi.NoteOnEvent(tick=384, channel=4, data=[55, 0])\n",
      "midi.NoteOnEvent(tick=0, channel=4, data=[53, 100])\n",
      "midi.NoteOnEvent(tick=192, channel=4, data=[53, 0])\n",
      "midi.NoteOnEvent(tick=0, channel=4, data=[52, 100])\n",
      "midi.NoteOnEvent(tick=192, channel=4, data=[52, 0])\n",
      "midi.NoteOnEvent(tick=0, channel=4, data=[50, 100])\n",
      "midi.NoteOnEvent(tick=192, channel=4, data=[50, 0])\n",
      "midi.NoteOnEvent(tick=0, channel=4, data=[53, 100])\n",
      "midi.NoteOnEvent(tick=192, channel=4, data=[53, 0])\n",
      "midi.NoteOnEvent(tick=0, channel=4, data=[55, 100])\n",
      "midi.NoteOnEvent(tick=192, channel=4, data=[55, 0])\n",
      "midi.NoteOnEvent(tick=0, channel=4, data=[53, 100])\n",
      "midi.NoteOnEvent(tick=192, channel=4, data=[53, 0])\n",
      "midi.NoteOnEvent(tick=0, channel=4, data=[52, 100])\n",
      "midi.NoteOnEvent(tick=192, channel=4, data=[52, 0])\n",
      "midi.NoteOnEvent(tick=0, channel=4, data=[55, 100])\n",
      "midi.NoteOnEvent(tick=192, channel=4, data=[55, 0])\n",
      "midi.NoteOnEvent(tick=0, channel=4, data=[57, 100])\n",
      "midi.NoteOnEvent(tick=192, channel=4, data=[57, 0])\n",
      "midi.NoteOnEvent(tick=0, channel=4, data=[59, 100])\n",
      "midi.NoteOnEvent(tick=192, channel=4, data=[59, 0])\n",
      "midi.NoteOnEvent(tick=0, channel=4, data=[61, 100])\n",
      "midi.NoteOnEvent(tick=192, channel=4, data=[61, 0])\n",
      "midi.NoteOnEvent(tick=0, channel=4, data=[57, 100])\n",
      "midi.NoteOnEvent(tick=192, channel=4, data=[57, 0])\n",
      "midi.NoteOnEvent(tick=0, channel=4, data=[53, 100])\n",
      "midi.NoteOnEvent(tick=192, channel=4, data=[53, 0])\n",
      "midi.NoteOnEvent(tick=0, channel=4, data=[57, 100])\n",
      "midi.NoteOnEvent(tick=192, channel=4, data=[57, 0])\n",
      "midi.NoteOnEvent(tick=0, channel=4, data=[53, 100])\n",
      "midi.NoteOnEvent(tick=192, channel=4, data=[53, 0])\n",
      "midi.NoteOnEvent(tick=0, channel=4, data=[50, 100])\n",
      "midi.NoteOnEvent(tick=192, channel=4, data=[50, 0])\n",
      "midi.NoteOnEvent(tick=0, channel=4, data=[55, 100])\n",
      "midi.NoteOnEvent(tick=192, channel=4, data=[55, 0])\n",
      "midi.NoteOnEvent(tick=0, channel=4, data=[58, 100])\n",
      "midi.NoteOnEvent(tick=192, channel=4, data=[58, 0])\n",
      "midi.NoteOnEvent(tick=0, channel=4, data=[55, 100])\n",
      "midi.NoteOnEvent(tick=192, channel=4, data=[55, 0])\n",
      "midi.NoteOnEvent(tick=0, channel=4, data=[50, 100])\n",
      "midi.NoteOnEvent(tick=192, channel=4, data=[50, 0])\n",
      "midi.NoteOnEvent(tick=0, channel=4, data=[62, 100])\n",
      "midi.NoteOnEvent(tick=192, channel=4, data=[62, 0])\n",
      "midi.NoteOnEvent(tick=0, channel=4, data=[50, 100])\n",
      "midi.NoteOnEvent(tick=192, channel=4, data=[50, 0])\n",
      "midi.NoteOnEvent(tick=0, channel=4, data=[57, 100])\n",
      "midi.NoteOnEvent(tick=192, channel=4, data=[57, 0])\n",
      "midi.NoteOnEvent(tick=0, channel=4, data=[45, 100])\n",
      "midi.NoteOnEvent(tick=192, channel=4, data=[45, 0])\n",
      "midi.NoteOnEvent(tick=0, channel=4, data=[50, 100])\n",
      "midi.NoteOnEvent(tick=192, channel=4, data=[50, 0])\n",
      "midi.NoteOnEvent(tick=0, channel=4, data=[38, 100])\n",
      "midi.NoteOnEvent(tick=192, channel=4, data=[38, 0])\n",
      "midi.NoteOnEvent(tick=2112, channel=4, data=[55, 100])\n",
      "midi.NoteOnEvent(tick=96, channel=4, data=[55, 0])\n",
      "midi.NoteOnEvent(tick=0, channel=4, data=[57, 100])\n",
      "midi.NoteOnEvent(tick=96, channel=4, data=[57, 0])\n",
      "midi.NoteOnEvent(tick=0, channel=4, data=[55, 100])\n",
      "midi.NoteOnEvent(tick=96, channel=4, data=[55, 0])\n",
      "midi.NoteOnEvent(tick=0, channel=4, data=[53, 100])\n",
      "midi.NoteOnEvent(tick=96, channel=4, data=[53, 0])\n",
      "midi.NoteOnEvent(tick=0, channel=4, data=[52, 100])\n",
      "midi.NoteOnEvent(tick=96, channel=4, data=[52, 0])\n",
      "midi.NoteOnEvent(tick=0, channel=4, data=[50, 100])\n",
      "midi.NoteOnEvent(tick=96, channel=4, data=[50, 0])\n",
      "midi.NoteOnEvent(tick=0, channel=4, data=[48, 100])\n",
      "midi.NoteOnEvent(tick=192, channel=4, data=[48, 0])\n",
      "midi.NoteOnEvent(tick=0, channel=4, data=[60, 100])\n",
      "midi.NoteOnEvent(tick=192, channel=4, data=[60, 0])\n",
      "midi.NoteOnEvent(tick=1344, channel=4, data=[53, 100])\n",
      "midi.NoteOnEvent(tick=96, channel=4, data=[53, 0])\n",
      "midi.NoteOnEvent(tick=0, channel=4, data=[55, 100])\n",
      "midi.NoteOnEvent(tick=96, channel=4, data=[55, 0])\n",
      "midi.NoteOnEvent(tick=0, channel=4, data=[53, 100])\n",
      "midi.NoteOnEvent(tick=96, channel=4, data=[53, 0])\n",
      "midi.NoteOnEvent(tick=0, channel=4, data=[52, 100])\n",
      "midi.NoteOnEvent(tick=96, channel=4, data=[52, 0])\n",
      "midi.NoteOnEvent(tick=0, channel=4, data=[50, 100])\n",
      "midi.NoteOnEvent(tick=96, channel=4, data=[50, 0])\n",
      "midi.NoteOnEvent(tick=0, channel=4, data=[48, 100])\n",
      "midi.NoteOnEvent(tick=96, channel=4, data=[48, 0])\n",
      "midi.NoteOnEvent(tick=0, channel=4, data=[46, 100])\n",
      "midi.NoteOnEvent(tick=192, channel=4, data=[46, 0])\n",
      "midi.NoteOnEvent(tick=0, channel=4, data=[58, 100])\n",
      "midi.NoteOnEvent(tick=192, channel=4, data=[58, 0])\n",
      "midi.NoteOnEvent(tick=1344, channel=4, data=[52, 100])\n",
      "midi.NoteOnEvent(tick=96, channel=4, data=[52, 0])\n",
      "midi.NoteOnEvent(tick=0, channel=4, data=[53, 100])\n",
      "midi.NoteOnEvent(tick=96, channel=4, data=[53, 0])\n",
      "midi.NoteOnEvent(tick=0, channel=4, data=[52, 100])\n",
      "midi.NoteOnEvent(tick=96, channel=4, data=[52, 0])\n",
      "midi.NoteOnEvent(tick=0, channel=4, data=[50, 100])\n",
      "midi.NoteOnEvent(tick=96, channel=4, data=[50, 0])\n",
      "midi.NoteOnEvent(tick=0, channel=4, data=[49, 100])\n",
      "midi.NoteOnEvent(tick=96, channel=4, data=[49, 0])\n",
      "midi.NoteOnEvent(tick=0, channel=4, data=[47, 100])\n",
      "midi.NoteOnEvent(tick=96, channel=4, data=[47, 0])\n",
      "midi.NoteOnEvent(tick=0, channel=4, data=[45, 100])\n",
      "midi.NoteOnEvent(tick=192, channel=4, data=[45, 0])\n",
      "midi.NoteOnEvent(tick=0, channel=4, data=[57, 100])\n",
      "midi.NoteOnEvent(tick=192, channel=4, data=[57, 0])\n",
      "midi.NoteOnEvent(tick=1344, channel=4, data=[50, 100])\n",
      "midi.NoteOnEvent(tick=192, channel=4, data=[50, 0])\n",
      "midi.NoteOnEvent(tick=0, channel=4, data=[62, 100])\n",
      "midi.NoteOnEvent(tick=192, channel=4, data=[62, 0])\n",
      "midi.NoteOnEvent(tick=0, channel=4, data=[53, 100])\n",
      "midi.NoteOnEvent(tick=192, channel=4, data=[53, 0])\n",
      "midi.NoteOnEvent(tick=0, channel=4, data=[55, 100])\n",
      "midi.NoteOnEvent(tick=192, channel=4, data=[55, 0])\n",
      "midi.NoteOnEvent(tick=0, channel=4, data=[57, 100])\n",
      "midi.NoteOnEvent(tick=192, channel=4, data=[57, 0])\n",
      "midi.NoteOnEvent(tick=0, channel=4, data=[59, 100])\n",
      "midi.NoteOnEvent(tick=192, channel=4, data=[59, 0])\n",
      "midi.NoteOnEvent(tick=0, channel=4, data=[55, 100])\n",
      "midi.NoteOnEvent(tick=192, channel=4, data=[55, 0])\n",
      "midi.NoteOnEvent(tick=0, channel=4, data=[60, 100])\n",
      "midi.NoteOnEvent(tick=192, channel=4, data=[60, 0])\n",
      "midi.NoteOnEvent(tick=0, channel=4, data=[48, 100])\n",
      "midi.NoteOnEvent(tick=192, channel=4, data=[48, 0])\n",
      "midi.NoteOnEvent(tick=0, channel=4, data=[60, 100])\n",
      "midi.NoteOnEvent(tick=192, channel=4, data=[60, 0])\n",
      "midi.NoteOnEvent(tick=0, channel=4, data=[52, 100])\n",
      "midi.NoteOnEvent(tick=192, channel=4, data=[52, 0])\n",
      "midi.NoteOnEvent(tick=0, channel=4, data=[53, 100])\n",
      "midi.NoteOnEvent(tick=192, channel=4, data=[53, 0])\n",
      "midi.NoteOnEvent(tick=0, channel=4, data=[55, 100])\n",
      "midi.NoteOnEvent(tick=192, channel=4, data=[55, 0])\n",
      "midi.NoteOnEvent(tick=0, channel=4, data=[57, 100])\n",
      "midi.NoteOnEvent(tick=192, channel=4, data=[57, 0])\n",
      "midi.NoteOnEvent(tick=0, channel=4, data=[53, 100])\n",
      "midi.NoteOnEvent(tick=192, channel=4, data=[53, 0])\n",
      "midi.NoteOnEvent(tick=0, channel=4, data=[59, 100])\n",
      "midi.NoteOnEvent(tick=192, channel=4, data=[59, 0])\n",
      "midi.NoteOnEvent(tick=0, channel=4, data=[47, 100])\n",
      "midi.NoteOnEvent(tick=192, channel=4, data=[47, 0])\n",
      "midi.NoteOnEvent(tick=0, channel=4, data=[59, 100])\n",
      "midi.NoteOnEvent(tick=192, channel=4, data=[59, 0])\n",
      "midi.NoteOnEvent(tick=0, channel=4, data=[56, 100])\n",
      "midi.NoteOnEvent(tick=192, channel=4, data=[56, 0])\n",
      "midi.NoteOnEvent(tick=0, channel=4, data=[52, 100])\n",
      "midi.NoteOnEvent(tick=192, channel=4, data=[52, 0])\n",
      "midi.NoteOnEvent(tick=0, channel=4, data=[40, 100])\n",
      "midi.NoteOnEvent(tick=192, channel=4, data=[40, 0])\n",
      "midi.NoteOnEvent(tick=576, channel=4, data=[45, 100])\n",
      "midi.NoteOnEvent(tick=192, channel=4, data=[45, 0])\n",
      "midi.NoteOnEvent(tick=0, channel=4, data=[57, 100])\n",
      "midi.NoteOnEvent(tick=384, channel=4, data=[57, 0])\n",
      "midi.NoteOnEvent(tick=192, channel=4, data=[45, 100])\n",
      "midi.NoteOnEvent(tick=192, channel=4, data=[45, 0])\n",
      "midi.NoteOnEvent(tick=0, channel=4, data=[57, 100])\n",
      "midi.NoteOnEvent(tick=384, channel=4, data=[57, 0])\n",
      "midi.NoteOnEvent(tick=192, channel=4, data=[45, 100])\n",
      "midi.NoteOnEvent(tick=192, channel=4, data=[45, 0])\n",
      "midi.NoteOnEvent(tick=0, channel=4, data=[52, 100])\n",
      "midi.NoteOnEvent(tick=192, channel=4, data=[52, 0])\n",
      "midi.NoteOnEvent(tick=0, channel=4, data=[40, 100])\n",
      "midi.NoteOnEvent(tick=192, channel=4, data=[40, 0])\n",
      "midi.NoteOnEvent(tick=0, channel=4, data=[57, 100])\n",
      "midi.NoteOnEvent(tick=192, channel=4, data=[57, 0])\n",
      "midi.NoteOnEvent(tick=0, channel=4, data=[45, 100])\n",
      "midi.NoteOnEvent(tick=192, channel=4, data=[45, 0])\n",
      "midi.NoteOnEvent(tick=0, channel=4, data=[48, 100])\n",
      "midi.NoteOnEvent(tick=192, channel=4, data=[48, 0])\n",
      "midi.NoteOnEvent(tick=0, channel=4, data=[52, 100])\n",
      "midi.NoteOnEvent(tick=192, channel=4, data=[52, 0])\n",
      "midi.NoteOnEvent(tick=0, channel=4, data=[57, 100])\n",
      "midi.NoteOnEvent(tick=384, channel=4, data=[57, 0])\n",
      "midi.NoteOnEvent(tick=0, channel=4, data=[55, 100])\n",
      "midi.NoteOnEvent(tick=384, channel=4, data=[55, 0])\n",
      "midi.NoteOnEvent(tick=0, channel=4, data=[53, 100])\n",
      "midi.NoteOnEvent(tick=384, channel=4, data=[53, 0])\n",
      "midi.NoteOnEvent(tick=0, channel=4, data=[52, 100])\n",
      "midi.NoteOnEvent(tick=384, channel=4, data=[52, 0])\n",
      "midi.NoteOnEvent(tick=0, channel=4, data=[50, 100])\n",
      "midi.NoteOnEvent(tick=384, channel=4, data=[50, 0])\n",
      "midi.NoteOnEvent(tick=0, channel=4, data=[48, 100])\n",
      "midi.NoteOnEvent(tick=384, channel=4, data=[48, 0])\n",
      "midi.NoteOnEvent(tick=0, channel=4, data=[46, 100])\n",
      "midi.NoteOnEvent(tick=384, channel=4, data=[46, 0])\n",
      "midi.NoteOnEvent(tick=0, channel=4, data=[45, 100])\n",
      "midi.NoteOnEvent(tick=384, channel=4, data=[45, 0])\n",
      "midi.NoteOnEvent(tick=0, channel=4, data=[43, 100])\n",
      "midi.NoteOnEvent(tick=384, channel=4, data=[43, 0])\n",
      "midi.NoteOnEvent(tick=0, channel=4, data=[41, 100])\n",
      "midi.NoteOnEvent(tick=384, channel=4, data=[41, 0])\n",
      "midi.NoteOnEvent(tick=0, channel=4, data=[39, 100])\n",
      "midi.NoteOnEvent(tick=384, channel=4, data=[39, 0])\n",
      "midi.NoteOnEvent(tick=0, channel=4, data=[38, 100])\n",
      "midi.NoteOnEvent(tick=384, channel=4, data=[38, 0])\n",
      "midi.NoteOnEvent(tick=0, channel=4, data=[36, 100])\n",
      "midi.NoteOnEvent(tick=192, channel=4, data=[36, 0])\n",
      "midi.NoteOnEvent(tick=0, channel=4, data=[36, 100])\n",
      "midi.NoteOnEvent(tick=192, channel=4, data=[36, 0])\n",
      "midi.NoteOnEvent(tick=0, channel=4, data=[36, 100])\n",
      "midi.NoteOnEvent(tick=192, channel=4, data=[36, 0])\n",
      "midi.NoteOnEvent(tick=0, channel=4, data=[36, 100])\n",
      "midi.NoteOnEvent(tick=192, channel=4, data=[36, 0])\n",
      "midi.NoteOnEvent(tick=0, channel=4, data=[36, 100])\n",
      "midi.NoteOnEvent(tick=192, channel=4, data=[36, 0])\n",
      "midi.NoteOnEvent(tick=0, channel=4, data=[36, 100])\n",
      "midi.NoteOnEvent(tick=192, channel=4, data=[36, 0])\n",
      "midi.NoteOnEvent(tick=0, channel=4, data=[36, 100])\n",
      "midi.NoteOnEvent(tick=192, channel=4, data=[36, 0])\n",
      "midi.NoteOnEvent(tick=0, channel=4, data=[36, 100])\n",
      "midi.NoteOnEvent(tick=192, channel=4, data=[36, 0])\n",
      "midi.NoteOnEvent(tick=0, channel=4, data=[36, 100])\n",
      "midi.NoteOnEvent(tick=192, channel=4, data=[36, 0])\n",
      "midi.NoteOnEvent(tick=0, channel=4, data=[36, 100])\n",
      "midi.NoteOnEvent(tick=192, channel=4, data=[36, 0])\n",
      "midi.NoteOnEvent(tick=0, channel=4, data=[48, 100])\n",
      "midi.NoteOnEvent(tick=192, channel=4, data=[48, 0])\n",
      "midi.NoteOnEvent(tick=0, channel=4, data=[48, 100])\n",
      "midi.NoteOnEvent(tick=192, channel=4, data=[48, 0])\n",
      "midi.NoteOnEvent(tick=0, channel=4, data=[46, 100])\n",
      "midi.NoteOnEvent(tick=192, channel=4, data=[46, 0])\n",
      "midi.NoteOnEvent(tick=0, channel=4, data=[62, 100])\n",
      "midi.NoteOnEvent(tick=192, channel=4, data=[62, 0])\n",
      "midi.NoteOnEvent(tick=0, channel=4, data=[58, 100])\n",
      "midi.NoteOnEvent(tick=192, channel=4, data=[58, 0])\n",
      "midi.NoteOnEvent(tick=0, channel=4, data=[55, 100])\n",
      "midi.NoteOnEvent(tick=192, channel=4, data=[55, 0])\n",
      "midi.NoteOnEvent(tick=0, channel=4, data=[43, 100])\n",
      "midi.NoteOnEvent(tick=192, channel=4, data=[43, 0])\n",
      "midi.NoteOnEvent(tick=0, channel=4, data=[43, 100])\n",
      "midi.NoteOnEvent(tick=192, channel=4, data=[43, 0])\n",
      "midi.NoteOnEvent(tick=0, channel=4, data=[43, 100])\n",
      "midi.NoteOnEvent(tick=192, channel=4, data=[43, 0])\n",
      "midi.NoteOnEvent(tick=0, channel=4, data=[43, 100])\n",
      "midi.NoteOnEvent(tick=192, channel=4, data=[43, 0])\n",
      "midi.NoteOnEvent(tick=0, channel=4, data=[41, 100])\n",
      "midi.NoteOnEvent(tick=192, channel=4, data=[41, 0])\n",
      "midi.NoteOnEvent(tick=0, channel=4, data=[57, 100])\n",
      "midi.NoteOnEvent(tick=192, channel=4, data=[57, 0])\n",
      "midi.NoteOnEvent(tick=0, channel=4, data=[53, 100])\n",
      "midi.NoteOnEvent(tick=192, channel=4, data=[53, 0])\n",
      "midi.NoteOnEvent(tick=0, channel=4, data=[50, 100])\n",
      "midi.NoteOnEvent(tick=192, channel=4, data=[50, 0])\n",
      "midi.NoteOnEvent(tick=0, channel=4, data=[38, 100])\n",
      "midi.NoteOnEvent(tick=192, channel=4, data=[38, 0])\n",
      "midi.NoteOnEvent(tick=0, channel=4, data=[38, 100])\n",
      "midi.NoteOnEvent(tick=192, channel=4, data=[38, 0])\n",
      "midi.NoteOnEvent(tick=0, channel=4, data=[38, 100])\n",
      "midi.NoteOnEvent(tick=192, channel=4, data=[38, 0])\n",
      "midi.NoteOnEvent(tick=0, channel=4, data=[38, 100])\n",
      "midi.NoteOnEvent(tick=192, channel=4, data=[38, 0])\n",
      "midi.NoteOnEvent(tick=0, channel=4, data=[36, 100])\n",
      "midi.NoteOnEvent(tick=192, channel=4, data=[36, 0])\n",
      "midi.NoteOnEvent(tick=0, channel=4, data=[50, 100])\n",
      "midi.NoteOnEvent(tick=192, channel=4, data=[50, 0])\n",
      "midi.NoteOnEvent(tick=0, channel=4, data=[48, 100])\n",
      "midi.NoteOnEvent(tick=192, channel=4, data=[48, 0])\n",
      "midi.NoteOnEvent(tick=0, channel=4, data=[47, 100])\n",
      "midi.NoteOnEvent(tick=192, channel=4, data=[47, 0])\n",
      "midi.NoteOnEvent(tick=0, channel=4, data=[45, 100])\n",
      "midi.NoteOnEvent(tick=192, channel=4, data=[45, 0])\n",
      "midi.NoteOnEvent(tick=0, channel=4, data=[57, 100])\n",
      "midi.NoteOnEvent(tick=192, channel=4, data=[57, 0])\n",
      "midi.NoteOnEvent(tick=0, channel=4, data=[55, 100])\n",
      "midi.NoteOnEvent(tick=192, channel=4, data=[55, 0])\n",
      "midi.NoteOnEvent(tick=0, channel=4, data=[53, 100])\n",
      "midi.NoteOnEvent(tick=192, channel=4, data=[53, 0])\n",
      "midi.NoteOnEvent(tick=0, channel=4, data=[52, 100])\n",
      "midi.NoteOnEvent(tick=192, channel=4, data=[52, 0])\n",
      "midi.NoteOnEvent(tick=0, channel=4, data=[53, 100])\n",
      "midi.NoteOnEvent(tick=192, channel=4, data=[53, 0])\n",
      "midi.NoteOnEvent(tick=0, channel=4, data=[52, 100])\n",
      "midi.NoteOnEvent(tick=192, channel=4, data=[52, 0])\n",
      "midi.NoteOnEvent(tick=0, channel=4, data=[50, 100])\n",
      "midi.NoteOnEvent(tick=192, channel=4, data=[50, 0])\n",
      "midi.NoteOnEvent(tick=0, channel=4, data=[48, 100])\n",
      "midi.NoteOnEvent(tick=192, channel=4, data=[48, 0])\n",
      "midi.NoteOnEvent(tick=0, channel=4, data=[52, 100])\n",
      "midi.NoteOnEvent(tick=192, channel=4, data=[52, 0])\n",
      "midi.NoteOnEvent(tick=0, channel=4, data=[48, 100])\n",
      "midi.NoteOnEvent(tick=192, channel=4, data=[48, 0])\n",
      "midi.NoteOnEvent(tick=0, channel=4, data=[45, 100])\n",
      "midi.NoteOnEvent(tick=192, channel=4, data=[45, 0])\n",
      "midi.NoteOnEvent(tick=0, channel=4, data=[50, 100])\n",
      "midi.NoteOnEvent(tick=192, channel=4, data=[50, 0])\n",
      "midi.NoteOnEvent(tick=0, channel=4, data=[53, 100])\n",
      "midi.NoteOnEvent(tick=192, channel=4, data=[53, 0])\n",
      "midi.NoteOnEvent(tick=0, channel=4, data=[50, 100])\n",
      "midi.NoteOnEvent(tick=192, channel=4, data=[50, 0])\n",
      "midi.NoteOnEvent(tick=0, channel=4, data=[47, 100])\n",
      "midi.NoteOnEvent(tick=192, channel=4, data=[47, 0])\n",
      "midi.NoteOnEvent(tick=0, channel=4, data=[48, 100])\n",
      "midi.NoteOnEvent(tick=192, channel=4, data=[48, 0])\n",
      "midi.NoteOnEvent(tick=0, channel=4, data=[45, 100])\n",
      "midi.NoteOnEvent(tick=192, channel=4, data=[45, 0])\n",
      "midi.NoteOnEvent(tick=0, channel=4, data=[52, 100])\n",
      "midi.NoteOnEvent(tick=192, channel=4, data=[52, 0])\n",
      "midi.NoteOnEvent(tick=0, channel=4, data=[40, 100])\n",
      "midi.NoteOnEvent(tick=192, channel=4, data=[40, 0])\n",
      "midi.NoteOnEvent(tick=0, channel=4, data=[45, 100])\n",
      "midi.NoteOnEvent(tick=192, channel=4, data=[45, 0])\n",
      "midi.NoteOnEvent(tick=0, channel=4, data=[60, 100])\n",
      "midi.NoteOnEvent(tick=96, channel=4, data=[60, 0])\n",
      "midi.NoteOnEvent(tick=0, channel=4, data=[59, 100])\n",
      "midi.NoteOnEvent(tick=96, channel=4, data=[59, 0])\n",
      "midi.NoteOnEvent(tick=0, channel=4, data=[57, 100])\n",
      "midi.NoteOnEvent(tick=96, channel=4, data=[57, 0])\n",
      "midi.NoteOnEvent(tick=0, channel=4, data=[55, 100])\n",
      "midi.NoteOnEvent(tick=96, channel=4, data=[55, 0])\n",
      "midi.NoteOnEvent(tick=0, channel=4, data=[53, 100])\n",
      "midi.NoteOnEvent(tick=96, channel=4, data=[53, 0])\n",
      "midi.NoteOnEvent(tick=0, channel=4, data=[52, 100])\n",
      "midi.NoteOnEvent(tick=96, channel=4, data=[52, 0])\n",
      "midi.NoteOnEvent(tick=0, channel=4, data=[53, 100])\n",
      "midi.NoteOnEvent(tick=192, channel=4, data=[53, 0])\n",
      "midi.NoteOnEvent(tick=0, channel=4, data=[57, 100])\n",
      "midi.NoteOnEvent(tick=192, channel=4, data=[57, 0])\n",
      "midi.NoteOnEvent(tick=0, channel=4, data=[53, 100])\n",
      "midi.NoteOnEvent(tick=192, channel=4, data=[53, 0])\n",
      "midi.NoteOnEvent(tick=0, channel=4, data=[50, 100])\n",
      "midi.NoteOnEvent(tick=192, channel=4, data=[50, 0])\n",
      "midi.NoteOnEvent(tick=0, channel=4, data=[55, 100])\n",
      "midi.NoteOnEvent(tick=192, channel=4, data=[55, 0])\n",
      "midi.NoteOnEvent(tick=0, channel=4, data=[43, 100])\n",
      "midi.NoteOnEvent(tick=192, channel=4, data=[43, 0])\n",
      "midi.NoteOnEvent(tick=1344, channel=4, data=[59, 100])\n",
      "midi.NoteOnEvent(tick=96, channel=4, data=[59, 0])\n",
      "midi.NoteOnEvent(tick=0, channel=4, data=[57, 100])\n",
      "midi.NoteOnEvent(tick=96, channel=4, data=[57, 0])\n",
      "midi.NoteOnEvent(tick=0, channel=4, data=[55, 100])\n",
      "midi.NoteOnEvent(tick=96, channel=4, data=[55, 0])\n",
      "midi.NoteOnEvent(tick=0, channel=4, data=[53, 100])\n",
      "midi.NoteOnEvent(tick=96, channel=4, data=[53, 0])\n",
      "midi.NoteOnEvent(tick=0, channel=4, data=[52, 100])\n",
      "midi.NoteOnEvent(tick=96, channel=4, data=[52, 0])\n",
      "midi.NoteOnEvent(tick=0, channel=4, data=[50, 100])\n",
      "midi.NoteOnEvent(tick=96, channel=4, data=[50, 0])\n",
      "midi.NoteOnEvent(tick=0, channel=4, data=[52, 100])\n",
      "midi.NoteOnEvent(tick=192, channel=4, data=[52, 0])\n",
      "midi.NoteOnEvent(tick=0, channel=4, data=[55, 100])\n",
      "midi.NoteOnEvent(tick=192, channel=4, data=[55, 0])\n"
     ]
    },
    {
     "name": "stdout",
     "output_type": "stream",
     "text": [
      "midi.NoteOnEvent(tick=0, channel=4, data=[52, 100])\n",
      "midi.NoteOnEvent(tick=192, channel=4, data=[52, 0])\n",
      "midi.NoteOnEvent(tick=0, channel=4, data=[48, 100])\n",
      "midi.NoteOnEvent(tick=192, channel=4, data=[48, 0])\n",
      "midi.NoteOnEvent(tick=0, channel=4, data=[53, 100])\n",
      "midi.NoteOnEvent(tick=192, channel=4, data=[53, 0])\n",
      "midi.NoteOnEvent(tick=0, channel=4, data=[41, 100])\n",
      "midi.NoteOnEvent(tick=192, channel=4, data=[41, 0])\n",
      "midi.NoteOnEvent(tick=1344, channel=4, data=[57, 100])\n",
      "midi.NoteOnEvent(tick=96, channel=4, data=[57, 0])\n",
      "midi.NoteOnEvent(tick=0, channel=4, data=[55, 100])\n",
      "midi.NoteOnEvent(tick=96, channel=4, data=[55, 0])\n",
      "midi.NoteOnEvent(tick=0, channel=4, data=[53, 100])\n",
      "midi.NoteOnEvent(tick=96, channel=4, data=[53, 0])\n",
      "midi.NoteOnEvent(tick=0, channel=4, data=[52, 100])\n",
      "midi.NoteOnEvent(tick=96, channel=4, data=[52, 0])\n",
      "midi.NoteOnEvent(tick=0, channel=4, data=[50, 100])\n",
      "midi.NoteOnEvent(tick=96, channel=4, data=[50, 0])\n",
      "midi.NoteOnEvent(tick=0, channel=4, data=[48, 100])\n",
      "midi.NoteOnEvent(tick=96, channel=4, data=[48, 0])\n",
      "midi.NoteOnEvent(tick=0, channel=4, data=[50, 100])\n",
      "midi.NoteOnEvent(tick=96, channel=4, data=[50, 0])\n",
      "midi.NoteOnEvent(tick=0, channel=4, data=[52, 100])\n",
      "midi.NoteOnEvent(tick=96, channel=4, data=[52, 0])\n",
      "midi.NoteOnEvent(tick=0, channel=4, data=[50, 100])\n",
      "midi.NoteOnEvent(tick=96, channel=4, data=[50, 0])\n",
      "midi.NoteOnEvent(tick=0, channel=4, data=[48, 100])\n",
      "midi.NoteOnEvent(tick=96, channel=4, data=[48, 0])\n",
      "midi.NoteOnEvent(tick=0, channel=4, data=[47, 100])\n",
      "midi.NoteOnEvent(tick=96, channel=4, data=[47, 0])\n",
      "midi.NoteOnEvent(tick=0, channel=4, data=[48, 100])\n",
      "midi.NoteOnEvent(tick=96, channel=4, data=[48, 0])\n",
      "midi.NoteOnEvent(tick=0, channel=4, data=[47, 100])\n",
      "midi.NoteOnEvent(tick=96, channel=4, data=[47, 0])\n",
      "midi.NoteOnEvent(tick=0, channel=4, data=[45, 100])\n",
      "midi.NoteOnEvent(tick=96, channel=4, data=[45, 0])\n",
      "midi.NoteOnEvent(tick=0, channel=4, data=[44, 100])\n",
      "midi.NoteOnEvent(tick=96, channel=4, data=[44, 0])\n",
      "midi.NoteOnEvent(tick=0, channel=4, data=[40, 100])\n",
      "midi.NoteOnEvent(tick=96, channel=4, data=[40, 0])\n",
      "midi.NoteOnEvent(tick=0, channel=4, data=[42, 100])\n",
      "midi.NoteOnEvent(tick=96, channel=4, data=[42, 0])\n",
      "midi.NoteOnEvent(tick=0, channel=4, data=[44, 100])\n",
      "midi.NoteOnEvent(tick=96, channel=4, data=[44, 0])\n",
      "midi.NoteOnEvent(tick=0, channel=4, data=[45, 100])\n",
      "midi.NoteOnEvent(tick=96, channel=4, data=[45, 0])\n",
      "midi.NoteOnEvent(tick=0, channel=4, data=[47, 100])\n",
      "midi.NoteOnEvent(tick=96, channel=4, data=[47, 0])\n",
      "midi.NoteOnEvent(tick=0, channel=4, data=[48, 100])\n",
      "midi.NoteOnEvent(tick=96, channel=4, data=[48, 0])\n",
      "midi.NoteOnEvent(tick=0, channel=4, data=[45, 100])\n",
      "midi.NoteOnEvent(tick=96, channel=4, data=[45, 0])\n",
      "midi.NoteOnEvent(tick=0, channel=4, data=[41, 100])\n",
      "midi.NoteOnEvent(tick=192, channel=4, data=[41, 0])\n",
      "midi.NoteOnEvent(tick=0, channel=4, data=[48, 100])\n",
      "midi.NoteOnEvent(tick=192, channel=4, data=[48, 0])\n",
      "midi.NoteOnEvent(tick=0, channel=4, data=[50, 100])\n",
      "midi.NoteOnEvent(tick=192, channel=4, data=[50, 0])\n",
      "midi.NoteOnEvent(tick=0, channel=4, data=[47, 100])\n",
      "midi.NoteOnEvent(tick=192, channel=4, data=[47, 0])\n",
      "midi.NoteOnEvent(tick=0, channel=4, data=[52, 100])\n",
      "midi.NoteOnEvent(tick=288, channel=4, data=[52, 0])\n",
      "midi.NoteOnEvent(tick=0, channel=4, data=[54, 100])\n",
      "midi.NoteOnEvent(tick=48, channel=4, data=[54, 0])\n",
      "midi.NoteOnEvent(tick=0, channel=4, data=[56, 100])\n",
      "midi.NoteOnEvent(tick=48, channel=4, data=[56, 0])\n",
      "midi.NoteOnEvent(tick=0, channel=4, data=[57, 100])\n",
      "midi.NoteOnEvent(tick=96, channel=4, data=[57, 0])\n",
      "midi.NoteOnEvent(tick=0, channel=4, data=[59, 100])\n",
      "midi.NoteOnEvent(tick=96, channel=4, data=[59, 0])\n",
      "midi.NoteOnEvent(tick=0, channel=4, data=[60, 100])\n",
      "midi.NoteOnEvent(tick=96, channel=4, data=[60, 0])\n",
      "midi.NoteOnEvent(tick=0, channel=4, data=[62, 100])\n",
      "midi.NoteOnEvent(tick=96, channel=4, data=[62, 0])\n",
      "midi.NoteOnEvent(tick=0, channel=4, data=[64, 100])\n",
      "midi.NoteOnEvent(tick=192, channel=4, data=[64, 0])\n",
      "midi.NoteOnEvent(tick=0, channel=4, data=[62, 100])\n",
      "midi.NoteOnEvent(tick=192, channel=4, data=[62, 0])\n",
      "midi.NoteOnEvent(tick=0, channel=4, data=[64, 100])\n",
      "midi.NoteOnEvent(tick=192, channel=4, data=[64, 0])\n",
      "midi.NoteOnEvent(tick=0, channel=4, data=[52, 100])\n",
      "midi.NoteOnEvent(tick=192, channel=4, data=[52, 0])\n",
      "midi.NoteOnEvent(tick=0, channel=4, data=[62, 100])\n",
      "midi.NoteOnEvent(tick=192, channel=4, data=[62, 0])\n",
      "midi.NoteOnEvent(tick=0, channel=4, data=[64, 100])\n",
      "midi.NoteOnEvent(tick=192, channel=4, data=[64, 0])\n",
      "midi.NoteOnEvent(tick=0, channel=4, data=[62, 100])\n",
      "midi.NoteOnEvent(tick=192, channel=4, data=[62, 0])\n",
      "midi.NoteOnEvent(tick=0, channel=4, data=[60, 100])\n",
      "midi.NoteOnEvent(tick=192, channel=4, data=[60, 0])\n",
      "midi.NoteOnEvent(tick=0, channel=4, data=[59, 100])\n",
      "midi.NoteOnEvent(tick=192, channel=4, data=[59, 0])\n",
      "midi.NoteOnEvent(tick=0, channel=4, data=[60, 100])\n",
      "midi.NoteOnEvent(tick=192, channel=4, data=[60, 0])\n",
      "midi.NoteOnEvent(tick=0, channel=4, data=[59, 100])\n",
      "midi.NoteOnEvent(tick=192, channel=4, data=[59, 0])\n",
      "midi.NoteOnEvent(tick=0, channel=4, data=[57, 100])\n",
      "midi.NoteOnEvent(tick=192, channel=4, data=[57, 0])\n",
      "midi.NoteOnEvent(tick=0, channel=4, data=[56, 100])\n",
      "midi.NoteOnEvent(tick=192, channel=4, data=[56, 0])\n",
      "midi.NoteOnEvent(tick=0, channel=4, data=[57, 100])\n",
      "midi.NoteOnEvent(tick=192, channel=4, data=[57, 0])\n",
      "midi.NoteOnEvent(tick=0, channel=4, data=[59, 100])\n",
      "midi.NoteOnEvent(tick=192, channel=4, data=[59, 0])\n",
      "midi.NoteOnEvent(tick=0, channel=4, data=[60, 100])\n",
      "midi.NoteOnEvent(tick=192, channel=4, data=[60, 0])\n",
      "midi.NoteOnEvent(tick=0, channel=4, data=[50, 100])\n",
      "midi.NoteOnEvent(tick=192, channel=4, data=[50, 0])\n",
      "midi.NoteOnEvent(tick=0, channel=4, data=[52, 100])\n",
      "midi.NoteOnEvent(tick=192, channel=4, data=[52, 0])\n",
      "midi.NoteOnEvent(tick=0, channel=4, data=[53, 100])\n",
      "midi.NoteOnEvent(tick=192, channel=4, data=[53, 0])\n",
      "midi.NoteOnEvent(tick=0, channel=4, data=[47, 100])\n",
      "midi.NoteOnEvent(tick=192, channel=4, data=[47, 0])\n",
      "midi.NoteOnEvent(tick=0, channel=4, data=[52, 100])\n",
      "midi.NoteOnEvent(tick=192, channel=4, data=[52, 0])\n",
      "midi.NoteOnEvent(tick=0, channel=4, data=[50, 100])\n",
      "midi.NoteOnEvent(tick=96, channel=4, data=[50, 0])\n",
      "midi.NoteOnEvent(tick=0, channel=4, data=[48, 100])\n",
      "midi.NoteOnEvent(tick=96, channel=4, data=[48, 0])\n",
      "midi.NoteOnEvent(tick=0, channel=4, data=[47, 100])\n",
      "midi.NoteOnEvent(tick=192, channel=4, data=[47, 0])\n",
      "midi.NoteOnEvent(tick=0, channel=4, data=[45, 100])\n",
      "midi.NoteOnEvent(tick=192, channel=4, data=[45, 0])\n",
      "midi.NoteOnEvent(tick=0, channel=4, data=[44, 100])\n",
      "midi.NoteOnEvent(tick=192, channel=4, data=[44, 0])\n",
      "midi.NoteOnEvent(tick=0, channel=4, data=[42, 100])\n",
      "midi.NoteOnEvent(tick=192, channel=4, data=[42, 0])\n",
      "midi.NoteOnEvent(tick=0, channel=4, data=[40, 100])\n",
      "midi.NoteOnEvent(tick=192, channel=4, data=[40, 0])\n",
      "midi.NoteOnEvent(tick=0, channel=4, data=[38, 100])\n",
      "midi.NoteOnEvent(tick=192, channel=4, data=[38, 0])\n",
      "midi.NoteOnEvent(tick=0, channel=4, data=[36, 100])\n",
      "midi.NoteOnEvent(tick=192, channel=4, data=[36, 0])\n",
      "midi.NoteOnEvent(tick=0, channel=4, data=[53, 100])\n",
      "midi.NoteOnEvent(tick=192, channel=4, data=[53, 0])\n",
      "midi.NoteOnEvent(tick=0, channel=4, data=[50, 100])\n",
      "midi.NoteOnEvent(tick=192, channel=4, data=[50, 0])\n",
      "midi.NoteOnEvent(tick=0, channel=4, data=[52, 100])\n",
      "midi.NoteOnEvent(tick=192, channel=4, data=[52, 0])\n",
      "midi.NoteOnEvent(tick=0, channel=4, data=[41, 100])\n",
      "midi.NoteOnEvent(tick=384, channel=4, data=[41, 0])\n",
      "midi.NoteOnEvent(tick=192, channel=4, data=[53, 100])\n",
      "midi.NoteOnEvent(tick=192, channel=4, data=[53, 0])\n",
      "midi.NoteOnEvent(tick=0, channel=4, data=[44, 100])\n",
      "midi.NoteOnEvent(tick=192, channel=4, data=[44, 0])\n",
      "midi.NoteOnEvent(tick=0, channel=4, data=[44, 100])\n",
      "midi.NoteOnEvent(tick=192, channel=4, data=[44, 0])\n",
      "midi.NoteOnEvent(tick=0, channel=4, data=[44, 100])\n",
      "midi.NoteOnEvent(tick=192, channel=4, data=[44, 0])\n",
      "midi.NoteOnEvent(tick=0, channel=4, data=[59, 100])\n",
      "midi.NoteOnEvent(tick=192, channel=4, data=[59, 0])\n",
      "midi.NoteOnEvent(tick=0, channel=4, data=[50, 100])\n",
      "midi.NoteOnEvent(tick=192, channel=4, data=[50, 0])\n",
      "midi.NoteOnEvent(tick=0, channel=4, data=[50, 100])\n",
      "midi.NoteOnEvent(tick=192, channel=4, data=[50, 0])\n",
      "midi.NoteOnEvent(tick=0, channel=4, data=[50, 100])\n",
      "midi.NoteOnEvent(tick=192, channel=4, data=[50, 0])\n",
      "midi.NoteOnEvent(tick=0, channel=4, data=[53, 100])\n",
      "midi.NoteOnEvent(tick=192, channel=4, data=[53, 0])\n",
      "midi.NoteOnEvent(tick=0, channel=4, data=[47, 100])\n",
      "midi.NoteOnEvent(tick=192, channel=4, data=[47, 0])\n",
      "midi.NoteOnEvent(tick=0, channel=4, data=[48, 100])\n",
      "midi.NoteOnEvent(tick=96, channel=4, data=[48, 0])\n",
      "midi.NoteOnEvent(tick=0, channel=4, data=[50, 100])\n",
      "midi.NoteOnEvent(tick=96, channel=4, data=[50, 0])\n",
      "midi.NoteOnEvent(tick=0, channel=4, data=[52, 100])\n",
      "midi.NoteOnEvent(tick=192, channel=4, data=[52, 0])\n",
      "midi.NoteOnEvent(tick=0, channel=4, data=[40, 100])\n",
      "midi.NoteOnEvent(tick=192, channel=4, data=[40, 0])\n",
      "midi.NoteOnEvent(tick=0, channel=4, data=[45, 100])\n",
      "midi.NoteOnEvent(tick=576, channel=4, data=[45, 0])\n",
      "midi.EndOfTrackEvent(tick=0, data=[])\n",
      "midi.PortEvent(tick=0, data=[0])\n",
      "midi.TrackNameEvent(tick=0, text='Violone', data=[86, 105, 111, 108, 111, 110, 101])\n",
      "midi.ProgramChangeEvent(tick=0, channel=5, data=[43])\n",
      "midi.ControlChangeEvent(tick=0, channel=5, data=[7, 100])\n",
      "midi.ControlChangeEvent(tick=0, channel=5, data=[10, 64])\n",
      "midi.NoteOnEvent(tick=960, channel=5, data=[33, 100])\n",
      "midi.NoteOnEvent(tick=192, channel=5, data=[33, 0])\n",
      "midi.NoteOnEvent(tick=0, channel=5, data=[45, 100])\n",
      "midi.NoteOnEvent(tick=384, channel=5, data=[45, 0])\n",
      "midi.NoteOnEvent(tick=192, channel=5, data=[33, 100])\n",
      "midi.NoteOnEvent(tick=192, channel=5, data=[33, 0])\n",
      "midi.NoteOnEvent(tick=0, channel=5, data=[45, 100])\n",
      "midi.NoteOnEvent(tick=384, channel=5, data=[45, 0])\n",
      "midi.NoteOnEvent(tick=192, channel=5, data=[33, 100])\n",
      "midi.NoteOnEvent(tick=192, channel=5, data=[33, 0])\n",
      "midi.NoteOnEvent(tick=0, channel=5, data=[40, 100])\n",
      "midi.NoteOnEvent(tick=192, channel=5, data=[40, 0])\n",
      "midi.NoteOnEvent(tick=0, channel=5, data=[28, 100])\n",
      "midi.NoteOnEvent(tick=192, channel=5, data=[28, 0])\n",
      "midi.NoteOnEvent(tick=0, channel=5, data=[33, 100])\n",
      "midi.NoteOnEvent(tick=192, channel=5, data=[33, 0])\n",
      "midi.NoteOnEvent(tick=0, channel=5, data=[45, 100])\n",
      "midi.NoteOnEvent(tick=96, channel=5, data=[45, 0])\n",
      "midi.NoteOnEvent(tick=0, channel=5, data=[47, 100])\n",
      "midi.NoteOnEvent(tick=96, channel=5, data=[47, 0])\n",
      "midi.NoteOnEvent(tick=0, channel=5, data=[48, 100])\n",
      "midi.NoteOnEvent(tick=192, channel=5, data=[48, 0])\n",
      "midi.NoteOnEvent(tick=0, channel=5, data=[45, 100])\n",
      "midi.NoteOnEvent(tick=192, channel=5, data=[45, 0])\n",
      "midi.NoteOnEvent(tick=0, channel=5, data=[44, 100])\n",
      "midi.NoteOnEvent(tick=192, channel=5, data=[44, 0])\n",
      "midi.NoteOnEvent(tick=0, channel=5, data=[40, 100])\n",
      "midi.NoteOnEvent(tick=192, channel=5, data=[40, 0])\n",
      "midi.NoteOnEvent(tick=0, channel=5, data=[45, 100])\n",
      "midi.NoteOnEvent(tick=192, channel=5, data=[45, 0])\n",
      "midi.NoteOnEvent(tick=0, channel=5, data=[40, 100])\n",
      "midi.NoteOnEvent(tick=192, channel=5, data=[40, 0])\n",
      "midi.NoteOnEvent(tick=0, channel=5, data=[47, 100])\n",
      "midi.NoteOnEvent(tick=192, channel=5, data=[47, 0])\n",
      "midi.NoteOnEvent(tick=0, channel=5, data=[40, 100])\n",
      "midi.NoteOnEvent(tick=192, channel=5, data=[40, 0])\n",
      "midi.NoteOnEvent(tick=0, channel=5, data=[48, 100])\n",
      "midi.NoteOnEvent(tick=192, channel=5, data=[48, 0])\n",
      "midi.NoteOnEvent(tick=0, channel=5, data=[40, 100])\n",
      "midi.NoteOnEvent(tick=192, channel=5, data=[40, 0])\n",
      "midi.NoteOnEvent(tick=0, channel=5, data=[50, 100])\n",
      "midi.NoteOnEvent(tick=192, channel=5, data=[50, 0])\n",
      "midi.NoteOnEvent(tick=0, channel=5, data=[38, 100])\n",
      "midi.NoteOnEvent(tick=192, channel=5, data=[38, 0])\n",
      "midi.NoteOnEvent(tick=0, channel=5, data=[40, 100])\n",
      "midi.NoteOnEvent(tick=192, channel=5, data=[40, 0])\n",
      "midi.NoteOnEvent(tick=0, channel=5, data=[41, 100])\n",
      "midi.NoteOnEvent(tick=192, channel=5, data=[41, 0])\n",
      "midi.NoteOnEvent(tick=0, channel=5, data=[40, 100])\n",
      "midi.NoteOnEvent(tick=192, channel=5, data=[40, 0])\n",
      "midi.NoteOnEvent(tick=0, channel=5, data=[28, 100])\n",
      "midi.NoteOnEvent(tick=192, channel=5, data=[28, 0])\n",
      "midi.NoteOnEvent(tick=192, channel=5, data=[52, 100])\n",
      "midi.NoteOnEvent(tick=96, channel=5, data=[52, 0])\n",
      "midi.NoteOnEvent(tick=0, channel=5, data=[50, 100])\n",
      "midi.NoteOnEvent(tick=96, channel=5, data=[50, 0])\n",
      "midi.NoteOnEvent(tick=0, channel=5, data=[48, 100])\n",
      "midi.NoteOnEvent(tick=192, channel=5, data=[48, 0])\n",
      "midi.NoteOnEvent(tick=0, channel=5, data=[52, 100])\n",
      "midi.NoteOnEvent(tick=192, channel=5, data=[52, 0])\n",
      "midi.NoteOnEvent(tick=0, channel=5, data=[48, 100])\n",
      "midi.NoteOnEvent(tick=192, channel=5, data=[48, 0])\n",
      "midi.NoteOnEvent(tick=0, channel=5, data=[45, 100])\n",
      "midi.NoteOnEvent(tick=192, channel=5, data=[45, 0])\n",
      "midi.NoteOnEvent(tick=0, channel=5, data=[50, 100])\n",
      "midi.NoteOnEvent(tick=192, channel=5, data=[50, 0])\n",
      "midi.NoteOnEvent(tick=0, channel=5, data=[38, 100])\n",
      "midi.NoteOnEvent(tick=192, channel=5, data=[38, 0])\n",
      "midi.NoteOnEvent(tick=192, channel=5, data=[50, 100])\n",
      "midi.NoteOnEvent(tick=96, channel=5, data=[50, 0])\n",
      "midi.NoteOnEvent(tick=0, channel=5, data=[48, 100])\n",
      "midi.NoteOnEvent(tick=96, channel=5, data=[48, 0])\n",
      "midi.NoteOnEvent(tick=0, channel=5, data=[47, 100])\n",
      "midi.NoteOnEvent(tick=192, channel=5, data=[47, 0])\n",
      "midi.NoteOnEvent(tick=0, channel=5, data=[50, 100])\n",
      "midi.NoteOnEvent(tick=192, channel=5, data=[50, 0])\n",
      "midi.NoteOnEvent(tick=0, channel=5, data=[47, 100])\n",
      "midi.NoteOnEvent(tick=192, channel=5, data=[47, 0])\n",
      "midi.NoteOnEvent(tick=0, channel=5, data=[43, 100])\n",
      "midi.NoteOnEvent(tick=192, channel=5, data=[43, 0])\n",
      "midi.NoteOnEvent(tick=0, channel=5, data=[48, 100])\n",
      "midi.NoteOnEvent(tick=192, channel=5, data=[48, 0])\n",
      "midi.NoteOnEvent(tick=0, channel=5, data=[36, 100])\n",
      "midi.NoteOnEvent(tick=192, channel=5, data=[36, 0])\n",
      "midi.NoteOnEvent(tick=192, channel=5, data=[48, 100])\n",
      "midi.NoteOnEvent(tick=96, channel=5, data=[48, 0])\n",
      "midi.NoteOnEvent(tick=0, channel=5, data=[47, 100])\n",
      "midi.NoteOnEvent(tick=96, channel=5, data=[47, 0])\n",
      "midi.NoteOnEvent(tick=0, channel=5, data=[45, 100])\n",
      "midi.NoteOnEvent(tick=96, channel=5, data=[45, 0])\n",
      "midi.NoteOnEvent(tick=0, channel=5, data=[47, 100])\n",
      "midi.NoteOnEvent(tick=96, channel=5, data=[47, 0])\n",
      "midi.NoteOnEvent(tick=0, channel=5, data=[45, 100])\n",
      "midi.NoteOnEvent(tick=96, channel=5, data=[45, 0])\n",
      "midi.NoteOnEvent(tick=0, channel=5, data=[43, 100])\n",
      "midi.NoteOnEvent(tick=96, channel=5, data=[43, 0])\n",
      "midi.NoteOnEvent(tick=0, channel=5, data=[42, 100])\n",
      "midi.NoteOnEvent(tick=96, channel=5, data=[42, 0])\n",
      "midi.NoteOnEvent(tick=0, channel=5, data=[43, 100])\n",
      "midi.NoteOnEvent(tick=96, channel=5, data=[43, 0])\n",
      "midi.NoteOnEvent(tick=0, channel=5, data=[42, 100])\n",
      "midi.NoteOnEvent(tick=96, channel=5, data=[42, 0])\n",
      "midi.NoteOnEvent(tick=0, channel=5, data=[40, 100])\n",
      "midi.NoteOnEvent(tick=96, channel=5, data=[40, 0])\n",
      "midi.NoteOnEvent(tick=0, channel=5, data=[39, 100])\n",
      "midi.NoteOnEvent(tick=96, channel=5, data=[39, 0])\n",
      "midi.NoteOnEvent(tick=0, channel=5, data=[35, 100])\n",
      "midi.NoteOnEvent(tick=96, channel=5, data=[35, 0])\n",
      "midi.NoteOnEvent(tick=0, channel=5, data=[37, 100])\n",
      "midi.NoteOnEvent(tick=96, channel=5, data=[37, 0])\n",
      "midi.NoteOnEvent(tick=0, channel=5, data=[39, 100])\n",
      "midi.NoteOnEvent(tick=96, channel=5, data=[39, 0])\n",
      "midi.NoteOnEvent(tick=0, channel=5, data=[40, 100])\n",
      "midi.NoteOnEvent(tick=96, channel=5, data=[40, 0])\n",
      "midi.NoteOnEvent(tick=0, channel=5, data=[42, 100])\n",
      "midi.NoteOnEvent(tick=96, channel=5, data=[42, 0])\n",
      "midi.NoteOnEvent(tick=0, channel=5, data=[43, 100])\n",
      "midi.NoteOnEvent(tick=96, channel=5, data=[43, 0])\n",
      "midi.NoteOnEvent(tick=0, channel=5, data=[40, 100])\n",
      "midi.NoteOnEvent(tick=96, channel=5, data=[40, 0])\n",
      "midi.NoteOnEvent(tick=0, channel=5, data=[36, 100])\n",
      "midi.NoteOnEvent(tick=192, channel=5, data=[36, 0])\n",
      "midi.NoteOnEvent(tick=0, channel=5, data=[35, 100])\n",
      "midi.NoteOnEvent(tick=192, channel=5, data=[35, 0])\n",
      "midi.NoteOnEvent(tick=0, channel=5, data=[36, 100])\n",
      "midi.NoteOnEvent(tick=192, channel=5, data=[36, 0])\n",
      "midi.NoteOnEvent(tick=0, channel=5, data=[33, 100])\n",
      "midi.NoteOnEvent(tick=192, channel=5, data=[33, 0])\n",
      "midi.NoteOnEvent(tick=0, channel=5, data=[35, 100])\n",
      "midi.NoteOnEvent(tick=288, channel=5, data=[35, 0])\n",
      "midi.NoteOnEvent(tick=0, channel=5, data=[37, 100])\n",
      "midi.NoteOnEvent(tick=48, channel=5, data=[37, 0])\n",
      "midi.NoteOnEvent(tick=0, channel=5, data=[39, 100])\n",
      "midi.NoteOnEvent(tick=48, channel=5, data=[39, 0])\n",
      "midi.NoteOnEvent(tick=0, channel=5, data=[40, 100])\n",
      "midi.NoteOnEvent(tick=96, channel=5, data=[40, 0])\n",
      "midi.NoteOnEvent(tick=0, channel=5, data=[42, 100])\n",
      "midi.NoteOnEvent(tick=96, channel=5, data=[42, 0])\n",
      "midi.NoteOnEvent(tick=0, channel=5, data=[43, 100])\n",
      "midi.NoteOnEvent(tick=96, channel=5, data=[43, 0])\n",
      "midi.NoteOnEvent(tick=0, channel=5, data=[45, 100])\n",
      "midi.NoteOnEvent(tick=96, channel=5, data=[45, 0])\n",
      "midi.NoteOnEvent(tick=0, channel=5, data=[47, 100])\n",
      "midi.NoteOnEvent(tick=192, channel=5, data=[47, 0])\n",
      "midi.NoteOnEvent(tick=0, channel=5, data=[45, 100])\n",
      "midi.NoteOnEvent(tick=192, channel=5, data=[45, 0])\n",
      "midi.NoteOnEvent(tick=0, channel=5, data=[47, 100])\n",
      "midi.NoteOnEvent(tick=192, channel=5, data=[47, 0])\n",
      "midi.NoteOnEvent(tick=0, channel=5, data=[35, 100])\n",
      "midi.NoteOnEvent(tick=192, channel=5, data=[35, 0])\n",
      "midi.NoteOnEvent(tick=0, channel=5, data=[45, 100])\n",
      "midi.NoteOnEvent(tick=192, channel=5, data=[45, 0])\n",
      "midi.NoteOnEvent(tick=0, channel=5, data=[43, 100])\n",
      "midi.NoteOnEvent(tick=192, channel=5, data=[43, 0])\n",
      "midi.NoteOnEvent(tick=0, channel=5, data=[45, 100])\n",
      "midi.NoteOnEvent(tick=192, channel=5, data=[45, 0])\n",
      "midi.NoteOnEvent(tick=0, channel=5, data=[33, 100])\n",
      "midi.NoteOnEvent(tick=192, channel=5, data=[33, 0])\n",
      "midi.NoteOnEvent(tick=0, channel=5, data=[31, 100])\n",
      "midi.NoteOnEvent(tick=192, channel=5, data=[31, 0])\n",
      "midi.NoteOnEvent(tick=0, channel=5, data=[36, 100])\n",
      "midi.NoteOnEvent(tick=192, channel=5, data=[36, 0])\n",
      "midi.NoteOnEvent(tick=0, channel=5, data=[33, 100])\n",
      "midi.NoteOnEvent(tick=192, channel=5, data=[33, 0])\n",
      "midi.NoteOnEvent(tick=0, channel=5, data=[35, 100])\n",
      "midi.NoteOnEvent(tick=192, channel=5, data=[35, 0])\n",
      "midi.NoteOnEvent(tick=0, channel=5, data=[28, 100])\n",
      "midi.NoteOnEvent(tick=384, channel=5, data=[28, 0])\n",
      "midi.NoteOnEvent(tick=192, channel=5, data=[48, 100])\n",
      "midi.NoteOnEvent(tick=192, channel=5, data=[48, 0])\n",
      "midi.NoteOnEvent(tick=0, channel=5, data=[39, 100])\n",
      "midi.NoteOnEvent(tick=192, channel=5, data=[39, 0])\n",
      "midi.NoteOnEvent(tick=0, channel=5, data=[39, 100])\n",
      "midi.NoteOnEvent(tick=192, channel=5, data=[39, 0])\n",
      "midi.NoteOnEvent(tick=0, channel=5, data=[39, 100])\n",
      "midi.NoteOnEvent(tick=192, channel=5, data=[39, 0])\n",
      "midi.NoteOnEvent(tick=0, channel=5, data=[42, 100])\n",
      "midi.NoteOnEvent(tick=192, channel=5, data=[42, 0])\n",
      "midi.NoteOnEvent(tick=0, channel=5, data=[33, 100])\n",
      "midi.NoteOnEvent(tick=192, channel=5, data=[33, 0])\n",
      "midi.NoteOnEvent(tick=0, channel=5, data=[33, 100])\n",
      "midi.NoteOnEvent(tick=192, channel=5, data=[33, 0])\n",
      "midi.NoteOnEvent(tick=0, channel=5, data=[33, 100])\n",
      "midi.NoteOnEvent(tick=192, channel=5, data=[33, 0])\n",
      "midi.NoteOnEvent(tick=0, channel=5, data=[36, 100])\n",
      "midi.NoteOnEvent(tick=192, channel=5, data=[36, 0])\n",
      "midi.NoteOnEvent(tick=0, channel=5, data=[30, 100])\n",
      "midi.NoteOnEvent(tick=192, channel=5, data=[30, 0])\n",
      "midi.NoteOnEvent(tick=0, channel=5, data=[28, 100])\n",
      "midi.NoteOnEvent(tick=192, channel=5, data=[28, 0])\n",
      "midi.NoteOnEvent(tick=0, channel=5, data=[35, 100])\n",
      "midi.NoteOnEvent(tick=192, channel=5, data=[35, 0])\n",
      "midi.NoteOnEvent(tick=0, channel=5, data=[35, 100])\n",
      "midi.NoteOnEvent(tick=192, channel=5, data=[35, 0])\n",
      "midi.NoteOnEvent(tick=0, channel=5, data=[28, 100])\n",
      "midi.NoteOnEvent(tick=192, channel=5, data=[28, 0])\n",
      "midi.NoteOnEvent(tick=0, channel=5, data=[40, 100])\n",
      "midi.NoteOnEvent(tick=96, channel=5, data=[40, 0])\n",
      "midi.NoteOnEvent(tick=0, channel=5, data=[38, 100])\n",
      "midi.NoteOnEvent(tick=96, channel=5, data=[38, 0])\n",
      "midi.NoteOnEvent(tick=0, channel=5, data=[36, 100])\n",
      "midi.NoteOnEvent(tick=192, channel=5, data=[36, 0])\n",
      "midi.NoteOnEvent(tick=0, channel=5, data=[35, 100])\n",
      "midi.NoteOnEvent(tick=192, channel=5, data=[35, 0])\n",
      "midi.NoteOnEvent(tick=0, channel=5, data=[33, 100])\n",
      "midi.NoteOnEvent(tick=384, channel=5, data=[33, 0])\n",
      "midi.NoteOnEvent(tick=192, channel=5, data=[45, 100])\n",
      "midi.NoteOnEvent(tick=192, channel=5, data=[45, 0])\n",
      "midi.NoteOnEvent(tick=0, channel=5, data=[52, 100])\n",
      "midi.NoteOnEvent(tick=384, channel=5, data=[52, 0])\n",
      "midi.NoteOnEvent(tick=192, channel=5, data=[40, 100])\n",
      "midi.NoteOnEvent(tick=192, channel=5, data=[40, 0])\n",
      "midi.NoteOnEvent(tick=0, channel=5, data=[32, 100])\n",
      "midi.NoteOnEvent(tick=384, channel=5, data=[32, 0])\n",
      "midi.NoteOnEvent(tick=192, channel=5, data=[40, 100])\n",
      "midi.NoteOnEvent(tick=192, channel=5, data=[40, 0])\n",
      "midi.NoteOnEvent(tick=0, channel=5, data=[45, 100])\n",
      "midi.NoteOnEvent(tick=384, channel=5, data=[45, 0])\n",
      "midi.NoteOnEvent(tick=192, channel=5, data=[45, 100])\n",
      "midi.NoteOnEvent(tick=192, channel=5, data=[45, 0])\n",
      "midi.NoteOnEvent(tick=0, channel=5, data=[33, 100])\n",
      "midi.NoteOnEvent(tick=192, channel=5, data=[33, 0])\n",
      "midi.NoteOnEvent(tick=0, channel=5, data=[36, 100])\n",
      "midi.NoteOnEvent(tick=192, channel=5, data=[36, 0])\n",
      "midi.NoteOnEvent(tick=0, channel=5, data=[38, 100])\n",
      "midi.NoteOnEvent(tick=192, channel=5, data=[38, 0])\n",
      "midi.NoteOnEvent(tick=0, channel=5, data=[41, 100])\n",
      "midi.NoteOnEvent(tick=192, channel=5, data=[41, 0])\n",
      "midi.NoteOnEvent(tick=0, channel=5, data=[31, 100])\n",
      "midi.NoteOnEvent(tick=192, channel=5, data=[31, 0])\n",
      "midi.NoteOnEvent(tick=0, channel=5, data=[35, 100])\n",
      "midi.NoteOnEvent(tick=192, channel=5, data=[35, 0])\n",
      "midi.NoteOnEvent(tick=0, channel=5, data=[36, 100])\n",
      "midi.NoteOnEvent(tick=192, channel=5, data=[36, 0])\n",
      "midi.NoteOnEvent(tick=0, channel=5, data=[40, 100])\n",
      "midi.NoteOnEvent(tick=192, channel=5, data=[40, 0])\n",
      "midi.NoteOnEvent(tick=0, channel=5, data=[41, 100])\n",
      "midi.NoteOnEvent(tick=192, channel=5, data=[41, 0])\n",
      "midi.NoteOnEvent(tick=0, channel=5, data=[45, 100])\n",
      "midi.NoteOnEvent(tick=192, channel=5, data=[45, 0])\n",
      "midi.NoteOnEvent(tick=0, channel=5, data=[35, 100])\n",
      "midi.NoteOnEvent(tick=192, channel=5, data=[35, 0])\n",
      "midi.NoteOnEvent(tick=0, channel=5, data=[38, 100])\n",
      "midi.NoteOnEvent(tick=192, channel=5, data=[38, 0])\n",
      "midi.NoteOnEvent(tick=0, channel=5, data=[28, 100])\n",
      "midi.NoteOnEvent(tick=192, channel=5, data=[28, 0])\n",
      "midi.NoteOnEvent(tick=0, channel=5, data=[40, 100])\n",
      "midi.NoteOnEvent(tick=192, channel=5, data=[40, 0])\n",
      "midi.NoteOnEvent(tick=0, channel=5, data=[44, 100])\n",
      "midi.NoteOnEvent(tick=192, channel=5, data=[44, 0])\n",
      "midi.NoteOnEvent(tick=0, channel=5, data=[40, 100])\n",
      "midi.NoteOnEvent(tick=192, channel=5, data=[40, 0])\n",
      "midi.NoteOnEvent(tick=192, channel=5, data=[45, 100])\n",
      "midi.NoteOnEvent(tick=192, channel=5, data=[45, 0])\n",
      "midi.NoteOnEvent(tick=0, channel=5, data=[48, 100])\n",
      "midi.NoteOnEvent(tick=192, channel=5, data=[48, 0])\n",
      "midi.NoteOnEvent(tick=0, channel=5, data=[45, 100])\n",
      "midi.NoteOnEvent(tick=192, channel=5, data=[45, 0])\n",
      "midi.NoteOnEvent(tick=192, channel=5, data=[45, 100])\n",
      "midi.NoteOnEvent(tick=192, channel=5, data=[45, 0])\n",
      "midi.NoteOnEvent(tick=0, channel=5, data=[41, 100])\n",
      "midi.NoteOnEvent(tick=192, channel=5, data=[41, 0])\n",
      "midi.NoteOnEvent(tick=0, channel=5, data=[38, 100])\n",
      "midi.NoteOnEvent(tick=192, channel=5, data=[38, 0])\n",
      "midi.NoteOnEvent(tick=192, channel=5, data=[43, 100])\n",
      "midi.NoteOnEvent(tick=192, channel=5, data=[43, 0])\n",
      "midi.NoteOnEvent(tick=0, channel=5, data=[47, 100])\n",
      "midi.NoteOnEvent(tick=192, channel=5, data=[47, 0])\n",
      "midi.NoteOnEvent(tick=0, channel=5, data=[43, 100])\n",
      "midi.NoteOnEvent(tick=192, channel=5, data=[43, 0])\n",
      "midi.NoteOnEvent(tick=192, channel=5, data=[43, 100])\n",
      "midi.NoteOnEvent(tick=192, channel=5, data=[43, 0])\n",
      "midi.NoteOnEvent(tick=0, channel=5, data=[40, 100])\n",
      "midi.NoteOnEvent(tick=192, channel=5, data=[40, 0])\n",
      "midi.NoteOnEvent(tick=0, channel=5, data=[36, 100])\n",
      "midi.NoteOnEvent(tick=192, channel=5, data=[36, 0])\n",
      "midi.NoteOnEvent(tick=192, channel=5, data=[41, 100])\n",
      "midi.NoteOnEvent(tick=192, channel=5, data=[41, 0])\n",
      "midi.NoteOnEvent(tick=0, channel=5, data=[45, 100])\n",
      "midi.NoteOnEvent(tick=192, channel=5, data=[45, 0])\n",
      "midi.NoteOnEvent(tick=0, channel=5, data=[41, 100])\n",
      "midi.NoteOnEvent(tick=192, channel=5, data=[41, 0])\n",
      "midi.NoteOnEvent(tick=192, channel=5, data=[41, 100])\n",
      "midi.NoteOnEvent(tick=192, channel=5, data=[41, 0])\n",
      "midi.NoteOnEvent(tick=0, channel=5, data=[38, 100])\n",
      "midi.NoteOnEvent(tick=192, channel=5, data=[38, 0])\n",
      "midi.NoteOnEvent(tick=0, channel=5, data=[35, 100])\n",
      "midi.NoteOnEvent(tick=192, channel=5, data=[35, 0])\n",
      "midi.NoteOnEvent(tick=192, channel=5, data=[40, 100])\n",
      "midi.NoteOnEvent(tick=192, channel=5, data=[40, 0])\n",
      "midi.NoteOnEvent(tick=0, channel=5, data=[44, 100])\n",
      "midi.NoteOnEvent(tick=192, channel=5, data=[44, 0])\n",
      "midi.NoteOnEvent(tick=0, channel=5, data=[40, 100])\n",
      "midi.NoteOnEvent(tick=192, channel=5, data=[40, 0])\n",
      "midi.NoteOnEvent(tick=192, channel=5, data=[40, 100])\n",
      "midi.NoteOnEvent(tick=192, channel=5, data=[40, 0])\n",
      "midi.NoteOnEvent(tick=0, channel=5, data=[36, 100])\n",
      "midi.NoteOnEvent(tick=192, channel=5, data=[36, 0])\n",
      "midi.NoteOnEvent(tick=0, channel=5, data=[33, 100])\n",
      "midi.NoteOnEvent(tick=192, channel=5, data=[33, 0])\n",
      "midi.NoteOnEvent(tick=0, channel=5, data=[45, 100])\n",
      "midi.NoteOnEvent(tick=384, channel=5, data=[45, 0])\n",
      "midi.NoteOnEvent(tick=192, channel=5, data=[33, 100])\n",
      "midi.NoteOnEvent(tick=192, channel=5, data=[33, 0])\n",
      "midi.NoteOnEvent(tick=0, channel=5, data=[45, 100])\n",
      "midi.NoteOnEvent(tick=192, channel=5, data=[45, 0])\n",
      "midi.NoteOnEvent(tick=0, channel=5, data=[33, 100])\n",
      "midi.NoteOnEvent(tick=192, channel=5, data=[33, 0])\n",
      "midi.NoteOnEvent(tick=0, channel=5, data=[40, 100])\n",
      "midi.NoteOnEvent(tick=192, channel=5, data=[40, 0])\n",
      "midi.NoteOnEvent(tick=0, channel=5, data=[28, 100])\n",
      "midi.NoteOnEvent(tick=192, channel=5, data=[28, 0])\n",
      "midi.NoteOnEvent(tick=0, channel=5, data=[33, 100])\n",
      "midi.NoteOnEvent(tick=192, channel=5, data=[33, 0])\n",
      "midi.NoteOnEvent(tick=0, channel=5, data=[45, 100])\n",
      "midi.NoteOnEvent(tick=96, channel=5, data=[45, 0])\n",
      "midi.NoteOnEvent(tick=0, channel=5, data=[47, 100])\n",
      "midi.NoteOnEvent(tick=96, channel=5, data=[47, 0])\n",
      "midi.NoteOnEvent(tick=0, channel=5, data=[48, 100])\n",
      "midi.NoteOnEvent(tick=192, channel=5, data=[48, 0])\n",
      "midi.NoteOnEvent(tick=0, channel=5, data=[45, 100])\n",
      "midi.NoteOnEvent(tick=192, channel=5, data=[45, 0])\n",
      "midi.NoteOnEvent(tick=0, channel=5, data=[33, 100])\n",
      "midi.NoteOnEvent(tick=192, channel=5, data=[33, 0])\n",
      "midi.NoteOnEvent(tick=768, channel=5, data=[43, 100])\n",
      "midi.NoteOnEvent(tick=96, channel=5, data=[43, 0])\n",
      "midi.NoteOnEvent(tick=0, channel=5, data=[45, 100])\n",
      "midi.NoteOnEvent(tick=96, channel=5, data=[45, 0])\n",
      "midi.NoteOnEvent(tick=0, channel=5, data=[47, 100])\n",
      "midi.NoteOnEvent(tick=192, channel=5, data=[47, 0])\n",
      "midi.NoteOnEvent(tick=0, channel=5, data=[43, 100])\n",
      "midi.NoteOnEvent(tick=192, channel=5, data=[43, 0])\n",
      "midi.NoteOnEvent(tick=0, channel=5, data=[31, 100])\n",
      "midi.NoteOnEvent(tick=192, channel=5, data=[31, 0])\n",
      "midi.NoteOnEvent(tick=768, channel=5, data=[41, 100])\n",
      "midi.NoteOnEvent(tick=96, channel=5, data=[41, 0])\n",
      "midi.NoteOnEvent(tick=0, channel=5, data=[43, 100])\n",
      "midi.NoteOnEvent(tick=96, channel=5, data=[43, 0])\n",
      "midi.NoteOnEvent(tick=0, channel=5, data=[45, 100])\n",
      "midi.NoteOnEvent(tick=192, channel=5, data=[45, 0])\n",
      "midi.NoteOnEvent(tick=0, channel=5, data=[41, 100])\n",
      "midi.NoteOnEvent(tick=192, channel=5, data=[41, 0])\n",
      "midi.NoteOnEvent(tick=0, channel=5, data=[29, 100])\n",
      "midi.NoteOnEvent(tick=192, channel=5, data=[29, 0])\n",
      "midi.NoteOnEvent(tick=768, channel=5, data=[41, 100])\n",
      "midi.NoteOnEvent(tick=192, channel=5, data=[41, 0])\n",
      "midi.NoteOnEvent(tick=0, channel=5, data=[40, 100])\n",
      "midi.NoteOnEvent(tick=192, channel=5, data=[40, 0])\n",
      "midi.NoteOnEvent(tick=0, channel=5, data=[38, 100])\n",
      "midi.NoteOnEvent(tick=192, channel=5, data=[38, 0])\n",
      "midi.NoteOnEvent(tick=0, channel=5, data=[36, 100])\n",
      "midi.NoteOnEvent(tick=192, channel=5, data=[36, 0])\n",
      "midi.NoteOnEvent(tick=0, channel=5, data=[48, 100])\n",
      "midi.NoteOnEvent(tick=192, channel=5, data=[48, 0])\n",
      "midi.NoteOnEvent(tick=0, channel=5, data=[47, 100])\n",
      "midi.NoteOnEvent(tick=192, channel=5, data=[47, 0])\n",
      "midi.NoteOnEvent(tick=0, channel=5, data=[45, 100])\n",
      "midi.NoteOnEvent(tick=192, channel=5, data=[45, 0])\n",
      "midi.NoteOnEvent(tick=0, channel=5, data=[43, 100])\n",
      "midi.NoteOnEvent(tick=192, channel=5, data=[43, 0])\n",
      "midi.NoteOnEvent(tick=0, channel=5, data=[45, 100])\n",
      "midi.NoteOnEvent(tick=192, channel=5, data=[45, 0])\n",
      "midi.NoteOnEvent(tick=0, channel=5, data=[43, 100])\n",
      "midi.NoteOnEvent(tick=192, channel=5, data=[43, 0])\n",
      "midi.NoteOnEvent(tick=0, channel=5, data=[41, 100])\n",
      "midi.NoteOnEvent(tick=192, channel=5, data=[41, 0])\n",
      "midi.NoteOnEvent(tick=0, channel=5, data=[40, 100])\n",
      "midi.NoteOnEvent(tick=192, channel=5, data=[40, 0])\n",
      "midi.NoteOnEvent(tick=0, channel=5, data=[43, 100])\n",
      "midi.NoteOnEvent(tick=192, channel=5, data=[43, 0])\n",
      "midi.NoteOnEvent(tick=0, channel=5, data=[40, 100])\n",
      "midi.NoteOnEvent(tick=192, channel=5, data=[40, 0])\n",
      "midi.NoteOnEvent(tick=0, channel=5, data=[36, 100])\n",
      "midi.NoteOnEvent(tick=192, channel=5, data=[36, 0])\n",
      "midi.NoteOnEvent(tick=0, channel=5, data=[41, 100])\n",
      "midi.NoteOnEvent(tick=192, channel=5, data=[41, 0])\n",
      "midi.NoteOnEvent(tick=0, channel=5, data=[45, 100])\n",
      "midi.NoteOnEvent(tick=192, channel=5, data=[45, 0])\n",
      "midi.NoteOnEvent(tick=0, channel=5, data=[41, 100])\n",
      "midi.NoteOnEvent(tick=192, channel=5, data=[41, 0])\n",
      "midi.NoteOnEvent(tick=0, channel=5, data=[38, 100])\n",
      "midi.NoteOnEvent(tick=192, channel=5, data=[38, 0])\n",
      "midi.NoteOnEvent(tick=0, channel=5, data=[40, 100])\n",
      "midi.NoteOnEvent(tick=192, channel=5, data=[40, 0])\n",
      "midi.NoteOnEvent(tick=0, channel=5, data=[36, 100])\n",
      "midi.NoteOnEvent(tick=192, channel=5, data=[36, 0])\n",
      "midi.NoteOnEvent(tick=0, channel=5, data=[43, 100])\n",
      "midi.NoteOnEvent(tick=192, channel=5, data=[43, 0])\n",
      "midi.NoteOnEvent(tick=0, channel=5, data=[31, 100])\n",
      "midi.NoteOnEvent(tick=192, channel=5, data=[31, 0])\n",
      "midi.NoteOnEvent(tick=0, channel=5, data=[24, 100])\n",
      "midi.NoteOnEvent(tick=192, channel=5, data=[24, 0])\n",
      "midi.NoteOnEvent(tick=0, channel=5, data=[36, 100])\n",
      "midi.NoteOnEvent(tick=96, channel=5, data=[36, 0])\n",
      "midi.NoteOnEvent(tick=0, channel=5, data=[38, 100])\n",
      "midi.NoteOnEvent(tick=96, channel=5, data=[38, 0])\n",
      "midi.NoteOnEvent(tick=0, channel=5, data=[40, 100])\n",
      "midi.NoteOnEvent(tick=192, channel=5, data=[40, 0])\n",
      "midi.NoteOnEvent(tick=0, channel=5, data=[36, 100])\n",
      "midi.NoteOnEvent(tick=192, channel=5, data=[36, 0])\n",
      "midi.NoteOnEvent(tick=0, channel=5, data=[35, 100])\n",
      "midi.NoteOnEvent(tick=192, channel=5, data=[35, 0])\n",
      "midi.NoteOnEvent(tick=0, channel=5, data=[43, 100])\n",
      "midi.NoteOnEvent(tick=192, channel=5, data=[43, 0])\n",
      "midi.NoteOnEvent(tick=0, channel=5, data=[36, 100])\n",
      "midi.NoteOnEvent(tick=192, channel=5, data=[36, 0])\n",
      "midi.NoteOnEvent(tick=0, channel=5, data=[43, 100])\n",
      "midi.NoteOnEvent(tick=192, channel=5, data=[43, 0])\n",
      "midi.NoteOnEvent(tick=0, channel=5, data=[38, 100])\n",
      "midi.NoteOnEvent(tick=192, channel=5, data=[38, 0])\n",
      "midi.NoteOnEvent(tick=0, channel=5, data=[43, 100])\n",
      "midi.NoteOnEvent(tick=192, channel=5, data=[43, 0])\n",
      "midi.NoteOnEvent(tick=0, channel=5, data=[40, 100])\n",
      "midi.NoteOnEvent(tick=192, channel=5, data=[40, 0])\n",
      "midi.NoteOnEvent(tick=0, channel=5, data=[43, 100])\n",
      "midi.NoteOnEvent(tick=192, channel=5, data=[43, 0])\n",
      "midi.NoteOnEvent(tick=0, channel=5, data=[41, 100])\n",
      "midi.NoteOnEvent(tick=192, channel=5, data=[41, 0])\n",
      "midi.NoteOnEvent(tick=0, channel=5, data=[43, 100])\n",
      "midi.NoteOnEvent(tick=192, channel=5, data=[43, 0])\n",
      "midi.NoteOnEvent(tick=0, channel=5, data=[45, 100])\n",
      "midi.NoteOnEvent(tick=192, channel=5, data=[45, 0])\n",
      "midi.NoteOnEvent(tick=0, channel=5, data=[41, 100])\n",
      "midi.NoteOnEvent(tick=192, channel=5, data=[41, 0])\n",
      "midi.NoteOnEvent(tick=0, channel=5, data=[43, 100])\n",
      "midi.NoteOnEvent(tick=96, channel=5, data=[43, 0])\n",
      "midi.NoteOnEvent(tick=0, channel=5, data=[45, 100])\n",
      "midi.NoteOnEvent(tick=96, channel=5, data=[45, 0])\n",
      "midi.NoteOnEvent(tick=0, channel=5, data=[47, 100])\n",
      "midi.NoteOnEvent(tick=96, channel=5, data=[47, 0])\n",
      "midi.NoteOnEvent(tick=0, channel=5, data=[45, 100])\n",
      "midi.NoteOnEvent(tick=96, channel=5, data=[45, 0])\n",
      "midi.NoteOnEvent(tick=0, channel=5, data=[43, 100])\n",
      "midi.NoteOnEvent(tick=96, channel=5, data=[43, 0])\n",
      "midi.NoteOnEvent(tick=0, channel=5, data=[41, 100])\n",
      "midi.NoteOnEvent(tick=96, channel=5, data=[41, 0])\n",
      "midi.NoteOnEvent(tick=0, channel=5, data=[40, 100])\n",
      "midi.NoteOnEvent(tick=96, channel=5, data=[40, 0])\n",
      "midi.NoteOnEvent(tick=0, channel=5, data=[38, 100])\n",
      "midi.NoteOnEvent(tick=96, channel=5, data=[38, 0])\n",
      "midi.NoteOnEvent(tick=0, channel=5, data=[36, 100])\n",
      "midi.NoteOnEvent(tick=192, channel=5, data=[36, 0])\n",
      "midi.NoteOnEvent(tick=0, channel=5, data=[40, 100])\n",
      "midi.NoteOnEvent(tick=192, channel=5, data=[40, 0])\n",
      "midi.NoteOnEvent(tick=0, channel=5, data=[36, 100])\n",
      "midi.NoteOnEvent(tick=192, channel=5, data=[36, 0])\n",
      "midi.NoteOnEvent(tick=0, channel=5, data=[33, 100])\n",
      "midi.NoteOnEvent(tick=192, channel=5, data=[33, 0])\n",
      "midi.NoteOnEvent(tick=0, channel=5, data=[38, 100])\n",
      "midi.NoteOnEvent(tick=192, channel=5, data=[38, 0])\n",
      "midi.NoteOnEvent(tick=0, channel=5, data=[26, 100])\n",
      "midi.NoteOnEvent(tick=192, channel=5, data=[26, 0])\n",
      "midi.NoteOnEvent(tick=1344, channel=5, data=[42, 100])\n",
      "midi.NoteOnEvent(tick=96, channel=5, data=[42, 0])\n",
      "midi.NoteOnEvent(tick=0, channel=5, data=[40, 100])\n",
      "midi.NoteOnEvent(tick=96, channel=5, data=[40, 0])\n",
      "midi.NoteOnEvent(tick=0, channel=5, data=[38, 100])\n",
      "midi.NoteOnEvent(tick=96, channel=5, data=[38, 0])\n",
      "midi.NoteOnEvent(tick=0, channel=5, data=[36, 100])\n",
      "midi.NoteOnEvent(tick=96, channel=5, data=[36, 0])\n",
      "midi.NoteOnEvent(tick=0, channel=5, data=[35, 100])\n",
      "midi.NoteOnEvent(tick=96, channel=5, data=[35, 0])\n",
      "midi.NoteOnEvent(tick=0, channel=5, data=[33, 100])\n",
      "midi.NoteOnEvent(tick=96, channel=5, data=[33, 0])\n",
      "midi.NoteOnEvent(tick=0, channel=5, data=[35, 100])\n",
      "midi.NoteOnEvent(tick=192, channel=5, data=[35, 0])\n",
      "midi.NoteOnEvent(tick=0, channel=5, data=[38, 100])\n",
      "midi.NoteOnEvent(tick=192, channel=5, data=[38, 0])\n",
      "midi.NoteOnEvent(tick=0, channel=5, data=[35, 100])\n",
      "midi.NoteOnEvent(tick=192, channel=5, data=[35, 0])\n",
      "midi.NoteOnEvent(tick=0, channel=5, data=[31, 100])\n",
      "midi.NoteOnEvent(tick=192, channel=5, data=[31, 0])\n",
      "midi.NoteOnEvent(tick=0, channel=5, data=[36, 100])\n",
      "midi.NoteOnEvent(tick=192, channel=5, data=[36, 0])\n",
      "midi.NoteOnEvent(tick=0, channel=5, data=[24, 100])\n",
      "midi.NoteOnEvent(tick=192, channel=5, data=[24, 0])\n",
      "midi.NoteOnEvent(tick=1344, channel=5, data=[48, 100])\n",
      "midi.NoteOnEvent(tick=96, channel=5, data=[48, 0])\n",
      "midi.NoteOnEvent(tick=0, channel=5, data=[47, 100])\n",
      "midi.NoteOnEvent(tick=96, channel=5, data=[47, 0])\n",
      "midi.NoteOnEvent(tick=0, channel=5, data=[48, 100])\n",
      "midi.NoteOnEvent(tick=96, channel=5, data=[48, 0])\n",
      "midi.NoteOnEvent(tick=0, channel=5, data=[50, 100])\n",
      "midi.NoteOnEvent(tick=96, channel=5, data=[50, 0])\n",
      "midi.NoteOnEvent(tick=0, channel=5, data=[48, 100])\n",
      "midi.NoteOnEvent(tick=96, channel=5, data=[48, 0])\n",
      "midi.NoteOnEvent(tick=0, channel=5, data=[47, 100])\n",
      "midi.NoteOnEvent(tick=96, channel=5, data=[47, 0])\n",
      "midi.NoteOnEvent(tick=0, channel=5, data=[45, 100])\n",
      "midi.NoteOnEvent(tick=96, channel=5, data=[45, 0])\n",
      "midi.NoteOnEvent(tick=0, channel=5, data=[47, 100])\n",
      "midi.NoteOnEvent(tick=96, channel=5, data=[47, 0])\n",
      "midi.NoteOnEvent(tick=0, channel=5, data=[45, 100])\n",
      "midi.NoteOnEvent(tick=96, channel=5, data=[45, 0])\n",
      "midi.NoteOnEvent(tick=0, channel=5, data=[43, 100])\n",
      "midi.NoteOnEvent(tick=96, channel=5, data=[43, 0])\n",
      "midi.NoteOnEvent(tick=0, channel=5, data=[42, 100])\n",
      "midi.NoteOnEvent(tick=96, channel=5, data=[42, 0])\n",
      "midi.NoteOnEvent(tick=0, channel=5, data=[43, 100])\n",
      "midi.NoteOnEvent(tick=96, channel=5, data=[43, 0])\n",
      "midi.NoteOnEvent(tick=0, channel=5, data=[42, 100])\n",
      "midi.NoteOnEvent(tick=96, channel=5, data=[42, 0])\n",
      "midi.NoteOnEvent(tick=0, channel=5, data=[40, 100])\n",
      "midi.NoteOnEvent(tick=96, channel=5, data=[40, 0])\n",
      "midi.NoteOnEvent(tick=0, channel=5, data=[39, 100])\n",
      "midi.NoteOnEvent(tick=96, channel=5, data=[39, 0])\n",
      "midi.NoteOnEvent(tick=0, channel=5, data=[35, 100])\n",
      "midi.NoteOnEvent(tick=96, channel=5, data=[35, 0])\n",
      "midi.NoteOnEvent(tick=0, channel=5, data=[37, 100])\n",
      "midi.NoteOnEvent(tick=96, channel=5, data=[37, 0])\n",
      "midi.NoteOnEvent(tick=0, channel=5, data=[39, 100])\n",
      "midi.NoteOnEvent(tick=96, channel=5, data=[39, 0])\n",
      "midi.NoteOnEvent(tick=0, channel=5, data=[40, 100])\n",
      "midi.NoteOnEvent(tick=96, channel=5, data=[40, 0])\n",
      "midi.NoteOnEvent(tick=0, channel=5, data=[42, 100])\n",
      "midi.NoteOnEvent(tick=96, channel=5, data=[42, 0])\n",
      "midi.NoteOnEvent(tick=0, channel=5, data=[43, 100])\n",
      "midi.NoteOnEvent(tick=96, channel=5, data=[43, 0])\n",
      "midi.NoteOnEvent(tick=0, channel=5, data=[40, 100])\n",
      "midi.NoteOnEvent(tick=96, channel=5, data=[40, 0])\n",
      "midi.NoteOnEvent(tick=0, channel=5, data=[36, 100])\n",
      "midi.NoteOnEvent(tick=192, channel=5, data=[36, 0])\n",
      "midi.NoteOnEvent(tick=0, channel=5, data=[35, 100])\n",
      "midi.NoteOnEvent(tick=192, channel=5, data=[35, 0])\n",
      "midi.NoteOnEvent(tick=0, channel=5, data=[36, 100])\n",
      "midi.NoteOnEvent(tick=192, channel=5, data=[36, 0])\n",
      "midi.NoteOnEvent(tick=0, channel=5, data=[33, 100])\n",
      "midi.NoteOnEvent(tick=192, channel=5, data=[33, 0])\n",
      "midi.NoteOnEvent(tick=0, channel=5, data=[35, 100])\n",
      "midi.NoteOnEvent(tick=288, channel=5, data=[35, 0])\n",
      "midi.NoteOnEvent(tick=0, channel=5, data=[37, 100])\n",
      "midi.NoteOnEvent(tick=48, channel=5, data=[37, 0])\n",
      "midi.NoteOnEvent(tick=0, channel=5, data=[39, 100])\n",
      "midi.NoteOnEvent(tick=48, channel=5, data=[39, 0])\n",
      "midi.NoteOnEvent(tick=0, channel=5, data=[40, 100])\n",
      "midi.NoteOnEvent(tick=96, channel=5, data=[40, 0])\n",
      "midi.NoteOnEvent(tick=0, channel=5, data=[42, 100])\n",
      "midi.NoteOnEvent(tick=96, channel=5, data=[42, 0])\n",
      "midi.NoteOnEvent(tick=0, channel=5, data=[43, 100])\n",
      "midi.NoteOnEvent(tick=96, channel=5, data=[43, 0])\n",
      "midi.NoteOnEvent(tick=0, channel=5, data=[45, 100])\n",
      "midi.NoteOnEvent(tick=96, channel=5, data=[45, 0])\n",
      "midi.NoteOnEvent(tick=0, channel=5, data=[47, 100])\n",
      "midi.NoteOnEvent(tick=192, channel=5, data=[47, 0])\n",
      "midi.NoteOnEvent(tick=0, channel=5, data=[45, 100])\n",
      "midi.NoteOnEvent(tick=192, channel=5, data=[45, 0])\n",
      "midi.NoteOnEvent(tick=0, channel=5, data=[47, 100])\n",
      "midi.NoteOnEvent(tick=192, channel=5, data=[47, 0])\n",
      "midi.NoteOnEvent(tick=0, channel=5, data=[35, 100])\n",
      "midi.NoteOnEvent(tick=192, channel=5, data=[35, 0])\n",
      "midi.NoteOnEvent(tick=0, channel=5, data=[45, 100])\n",
      "midi.NoteOnEvent(tick=192, channel=5, data=[45, 0])\n",
      "midi.NoteOnEvent(tick=0, channel=5, data=[47, 100])\n",
      "midi.NoteOnEvent(tick=192, channel=5, data=[47, 0])\n",
      "midi.NoteOnEvent(tick=0, channel=5, data=[45, 100])\n",
      "midi.NoteOnEvent(tick=192, channel=5, data=[45, 0])\n",
      "midi.NoteOnEvent(tick=0, channel=5, data=[43, 100])\n",
      "midi.NoteOnEvent(tick=192, channel=5, data=[43, 0])\n",
      "midi.NoteOnEvent(tick=0, channel=5, data=[42, 100])\n",
      "midi.NoteOnEvent(tick=192, channel=5, data=[42, 0])\n",
      "midi.NoteOnEvent(tick=0, channel=5, data=[43, 100])\n",
      "midi.NoteOnEvent(tick=192, channel=5, data=[43, 0])\n",
      "midi.NoteOnEvent(tick=0, channel=5, data=[42, 100])\n",
      "midi.NoteOnEvent(tick=192, channel=5, data=[42, 0])\n",
      "midi.NoteOnEvent(tick=0, channel=5, data=[40, 100])\n",
      "midi.NoteOnEvent(tick=192, channel=5, data=[40, 0])\n",
      "midi.NoteOnEvent(tick=0, channel=5, data=[39, 100])\n",
      "midi.NoteOnEvent(tick=192, channel=5, data=[39, 0])\n",
      "midi.NoteOnEvent(tick=0, channel=5, data=[40, 100])\n",
      "midi.NoteOnEvent(tick=192, channel=5, data=[40, 0])\n",
      "midi.NoteOnEvent(tick=0, channel=5, data=[42, 100])\n",
      "midi.NoteOnEvent(tick=192, channel=5, data=[42, 0])\n",
      "midi.NoteOnEvent(tick=0, channel=5, data=[43, 100])\n",
      "midi.NoteOnEvent(tick=192, channel=5, data=[43, 0])\n",
      "midi.NoteOnEvent(tick=0, channel=5, data=[45, 100])\n",
      "midi.NoteOnEvent(tick=192, channel=5, data=[45, 0])\n",
      "midi.NoteOnEvent(tick=0, channel=5, data=[47, 100])\n",
      "midi.NoteOnEvent(tick=192, channel=5, data=[47, 0])\n",
      "midi.NoteOnEvent(tick=0, channel=5, data=[48, 100])\n",
      "midi.NoteOnEvent(tick=192, channel=5, data=[48, 0])\n",
      "midi.NoteOnEvent(tick=0, channel=5, data=[42, 100])\n",
      "midi.NoteOnEvent(tick=192, channel=5, data=[42, 0])\n",
      "midi.NoteOnEvent(tick=0, channel=5, data=[47, 100])\n",
      "midi.NoteOnEvent(tick=192, channel=5, data=[47, 0])\n",
      "midi.NoteOnEvent(tick=0, channel=5, data=[45, 100])\n",
      "midi.NoteOnEvent(tick=96, channel=5, data=[45, 0])\n",
      "midi.NoteOnEvent(tick=0, channel=5, data=[43, 100])\n",
      "midi.NoteOnEvent(tick=96, channel=5, data=[43, 0])\n",
      "midi.NoteOnEvent(tick=0, channel=5, data=[42, 100])\n",
      "midi.NoteOnEvent(tick=192, channel=5, data=[42, 0])\n",
      "midi.NoteOnEvent(tick=0, channel=5, data=[40, 100])\n",
      "midi.NoteOnEvent(tick=192, channel=5, data=[40, 0])\n",
      "midi.NoteOnEvent(tick=0, channel=5, data=[39, 100])\n",
      "midi.NoteOnEvent(tick=192, channel=5, data=[39, 0])\n",
      "midi.NoteOnEvent(tick=0, channel=5, data=[37, 100])\n",
      "midi.NoteOnEvent(tick=192, channel=5, data=[37, 0])\n",
      "midi.NoteOnEvent(tick=0, channel=5, data=[35, 100])\n",
      "midi.NoteOnEvent(tick=192, channel=5, data=[35, 0])\n",
      "midi.NoteOnEvent(tick=0, channel=5, data=[33, 100])\n",
      "midi.NoteOnEvent(tick=192, channel=5, data=[33, 0])\n",
      "midi.NoteOnEvent(tick=0, channel=5, data=[31, 100])\n",
      "midi.NoteOnEvent(tick=192, channel=5, data=[31, 0])\n",
      "midi.NoteOnEvent(tick=0, channel=5, data=[36, 100])\n",
      "midi.NoteOnEvent(tick=192, channel=5, data=[36, 0])\n",
      "midi.NoteOnEvent(tick=0, channel=5, data=[33, 100])\n",
      "midi.NoteOnEvent(tick=192, channel=5, data=[33, 0])\n",
      "midi.NoteOnEvent(tick=0, channel=5, data=[35, 100])\n",
      "midi.NoteOnEvent(tick=192, channel=5, data=[35, 0])\n",
      "midi.NoteOnEvent(tick=0, channel=5, data=[24, 100])\n",
      "midi.NoteOnEvent(tick=384, channel=5, data=[24, 0])\n",
      "midi.NoteOnEvent(tick=192, channel=5, data=[48, 100])\n",
      "midi.NoteOnEvent(tick=192, channel=5, data=[48, 0])\n",
      "midi.NoteOnEvent(tick=0, channel=5, data=[39, 100])\n",
      "midi.NoteOnEvent(tick=192, channel=5, data=[39, 0])\n",
      "midi.NoteOnEvent(tick=0, channel=5, data=[39, 100])\n",
      "midi.NoteOnEvent(tick=192, channel=5, data=[39, 0])\n",
      "midi.NoteOnEvent(tick=0, channel=5, data=[39, 100])\n",
      "midi.NoteOnEvent(tick=192, channel=5, data=[39, 0])\n",
      "midi.NoteOnEvent(tick=0, channel=5, data=[42, 100])\n",
      "midi.NoteOnEvent(tick=192, channel=5, data=[42, 0])\n",
      "midi.NoteOnEvent(tick=0, channel=5, data=[33, 100])\n",
      "midi.NoteOnEvent(tick=192, channel=5, data=[33, 0])\n",
      "midi.NoteOnEvent(tick=0, channel=5, data=[33, 100])\n",
      "midi.NoteOnEvent(tick=192, channel=5, data=[33, 0])\n",
      "midi.NoteOnEvent(tick=0, channel=5, data=[33, 100])\n",
      "midi.NoteOnEvent(tick=192, channel=5, data=[33, 0])\n",
      "midi.NoteOnEvent(tick=0, channel=5, data=[36, 100])\n",
      "midi.NoteOnEvent(tick=192, channel=5, data=[36, 0])\n",
      "midi.NoteOnEvent(tick=0, channel=5, data=[30, 100])\n",
      "midi.NoteOnEvent(tick=192, channel=5, data=[30, 0])\n",
      "midi.NoteOnEvent(tick=0, channel=5, data=[31, 100])\n",
      "midi.NoteOnEvent(tick=96, channel=5, data=[31, 0])\n",
      "midi.NoteOnEvent(tick=0, channel=5, data=[33, 100])\n",
      "midi.NoteOnEvent(tick=96, channel=5, data=[33, 0])\n",
      "midi.NoteOnEvent(tick=0, channel=5, data=[35, 100])\n",
      "midi.NoteOnEvent(tick=192, channel=5, data=[35, 0])\n",
      "midi.NoteOnEvent(tick=0, channel=5, data=[35, 100])\n",
      "midi.NoteOnEvent(tick=192, channel=5, data=[35, 0])\n",
      "midi.NoteOnEvent(tick=0, channel=5, data=[28, 100])\n",
      "midi.NoteOnEvent(tick=192, channel=5, data=[28, 0])\n",
      "midi.NoteOnEvent(tick=0, channel=5, data=[40, 100])\n",
      "midi.NoteOnEvent(tick=96, channel=5, data=[40, 0])\n",
      "midi.NoteOnEvent(tick=0, channel=5, data=[39, 100])\n",
      "midi.NoteOnEvent(tick=96, channel=5, data=[39, 0])\n",
      "midi.NoteOnEvent(tick=0, channel=5, data=[40, 100])\n",
      "midi.NoteOnEvent(tick=192, channel=5, data=[40, 0])\n",
      "midi.NoteOnEvent(tick=0, channel=5, data=[42, 100])\n",
      "midi.NoteOnEvent(tick=192, channel=5, data=[42, 0])\n",
      "midi.NoteOnEvent(tick=0, channel=5, data=[43, 100])\n",
      "midi.NoteOnEvent(tick=384, channel=5, data=[43, 0])\n",
      "midi.NoteOnEvent(tick=192, channel=5, data=[40, 100])\n",
      "midi.NoteOnEvent(tick=192, channel=5, data=[40, 0])\n",
      "midi.NoteOnEvent(tick=0, channel=5, data=[47, 100])\n",
      "midi.NoteOnEvent(tick=384, channel=5, data=[47, 0])\n",
      "midi.NoteOnEvent(tick=192, channel=5, data=[35, 100])\n",
      "midi.NoteOnEvent(tick=192, channel=5, data=[35, 0])\n",
      "midi.NoteOnEvent(tick=0, channel=5, data=[27, 100])\n",
      "midi.NoteOnEvent(tick=384, channel=5, data=[27, 0])\n",
      "midi.NoteOnEvent(tick=192, channel=5, data=[35, 100])\n",
      "midi.NoteOnEvent(tick=192, channel=5, data=[35, 0])\n",
      "midi.NoteOnEvent(tick=0, channel=5, data=[40, 100])\n",
      "midi.NoteOnEvent(tick=384, channel=5, data=[40, 0])\n",
      "midi.NoteOnEvent(tick=1344, channel=5, data=[40, 100])\n",
      "midi.NoteOnEvent(tick=192, channel=5, data=[40, 0])\n",
      "midi.NoteOnEvent(tick=0, channel=5, data=[28, 100])\n",
      "midi.NoteOnEvent(tick=192, channel=5, data=[28, 0])\n",
      "midi.NoteOnEvent(tick=0, channel=5, data=[40, 100])\n",
      "midi.NoteOnEvent(tick=192, channel=5, data=[40, 0])\n",
      "midi.NoteOnEvent(tick=0, channel=5, data=[33, 100])\n",
      "midi.NoteOnEvent(tick=384, channel=5, data=[33, 0])\n",
      "midi.NoteOnEvent(tick=576, channel=5, data=[45, 100])\n",
      "midi.NoteOnEvent(tick=192, channel=5, data=[45, 0])\n",
      "midi.NoteOnEvent(tick=0, channel=5, data=[33, 100])\n",
      "midi.NoteOnEvent(tick=192, channel=5, data=[33, 0])\n",
      "midi.NoteOnEvent(tick=0, channel=5, data=[45, 100])\n",
      "midi.NoteOnEvent(tick=192, channel=5, data=[45, 0])\n",
      "midi.NoteOnEvent(tick=0, channel=5, data=[38, 100])\n",
      "midi.NoteOnEvent(tick=384, channel=5, data=[38, 0])\n",
      "midi.NoteOnEvent(tick=576, channel=5, data=[38, 100])\n",
      "midi.NoteOnEvent(tick=192, channel=5, data=[38, 0])\n",
      "midi.NoteOnEvent(tick=0, channel=5, data=[26, 100])\n",
      "midi.NoteOnEvent(tick=192, channel=5, data=[26, 0])\n",
      "midi.NoteOnEvent(tick=0, channel=5, data=[38, 100])\n",
      "midi.NoteOnEvent(tick=192, channel=5, data=[38, 0])\n",
      "midi.NoteOnEvent(tick=0, channel=5, data=[31, 100])\n",
      "midi.NoteOnEvent(tick=384, channel=5, data=[31, 0])\n",
      "midi.NoteOnEvent(tick=576, channel=5, data=[43, 100])\n",
      "midi.NoteOnEvent(tick=192, channel=5, data=[43, 0])\n",
      "midi.NoteOnEvent(tick=0, channel=5, data=[31, 100])\n",
      "midi.NoteOnEvent(tick=192, channel=5, data=[31, 0])\n",
      "midi.NoteOnEvent(tick=0, channel=5, data=[43, 100])\n",
      "midi.NoteOnEvent(tick=192, channel=5, data=[43, 0])\n",
      "midi.NoteOnEvent(tick=0, channel=5, data=[36, 100])\n",
      "midi.NoteOnEvent(tick=384, channel=5, data=[36, 0])\n",
      "midi.NoteOnEvent(tick=0, channel=5, data=[46, 100])\n",
      "midi.NoteOnEvent(tick=384, channel=5, data=[46, 0])\n",
      "midi.NoteOnEvent(tick=0, channel=5, data=[45, 100])\n",
      "midi.NoteOnEvent(tick=384, channel=5, data=[45, 0])\n",
      "midi.NoteOnEvent(tick=0, channel=5, data=[43, 100])\n",
      "midi.NoteOnEvent(tick=384, channel=5, data=[43, 0])\n",
      "midi.NoteOnEvent(tick=0, channel=5, data=[41, 100])\n",
      "midi.NoteOnEvent(tick=192, channel=5, data=[41, 0])\n",
      "midi.NoteOnEvent(tick=0, channel=5, data=[40, 100])\n",
      "midi.NoteOnEvent(tick=192, channel=5, data=[40, 0])\n",
      "midi.NoteOnEvent(tick=0, channel=5, data=[38, 100])\n",
      "midi.NoteOnEvent(tick=192, channel=5, data=[38, 0])\n",
      "midi.NoteOnEvent(tick=0, channel=5, data=[41, 100])\n",
      "midi.NoteOnEvent(tick=192, channel=5, data=[41, 0])\n",
      "midi.NoteOnEvent(tick=0, channel=5, data=[43, 100])\n",
      "midi.NoteOnEvent(tick=192, channel=5, data=[43, 0])\n",
      "midi.NoteOnEvent(tick=0, channel=5, data=[41, 100])\n",
      "midi.NoteOnEvent(tick=192, channel=5, data=[41, 0])\n",
      "midi.NoteOnEvent(tick=0, channel=5, data=[40, 100])\n",
      "midi.NoteOnEvent(tick=192, channel=5, data=[40, 0])\n",
      "midi.NoteOnEvent(tick=0, channel=5, data=[43, 100])\n",
      "midi.NoteOnEvent(tick=192, channel=5, data=[43, 0])\n",
      "midi.NoteOnEvent(tick=0, channel=5, data=[45, 100])\n",
      "midi.NoteOnEvent(tick=192, channel=5, data=[45, 0])\n",
      "midi.NoteOnEvent(tick=0, channel=5, data=[47, 100])\n",
      "midi.NoteOnEvent(tick=192, channel=5, data=[47, 0])\n",
      "midi.NoteOnEvent(tick=0, channel=5, data=[49, 100])\n",
      "midi.NoteOnEvent(tick=192, channel=5, data=[49, 0])\n",
      "midi.NoteOnEvent(tick=0, channel=5, data=[45, 100])\n",
      "midi.NoteOnEvent(tick=192, channel=5, data=[45, 0])\n",
      "midi.NoteOnEvent(tick=0, channel=5, data=[41, 100])\n",
      "midi.NoteOnEvent(tick=192, channel=5, data=[41, 0])\n",
      "midi.NoteOnEvent(tick=0, channel=5, data=[45, 100])\n",
      "midi.NoteOnEvent(tick=192, channel=5, data=[45, 0])\n",
      "midi.NoteOnEvent(tick=0, channel=5, data=[41, 100])\n",
      "midi.NoteOnEvent(tick=192, channel=5, data=[41, 0])\n",
      "midi.NoteOnEvent(tick=0, channel=5, data=[38, 100])\n",
      "midi.NoteOnEvent(tick=192, channel=5, data=[38, 0])\n",
      "midi.NoteOnEvent(tick=0, channel=5, data=[43, 100])\n",
      "midi.NoteOnEvent(tick=192, channel=5, data=[43, 0])\n",
      "midi.NoteOnEvent(tick=0, channel=5, data=[46, 100])\n",
      "midi.NoteOnEvent(tick=192, channel=5, data=[46, 0])\n",
      "midi.NoteOnEvent(tick=0, channel=5, data=[43, 100])\n",
      "midi.NoteOnEvent(tick=192, channel=5, data=[43, 0])\n",
      "midi.NoteOnEvent(tick=0, channel=5, data=[38, 100])\n",
      "midi.NoteOnEvent(tick=192, channel=5, data=[38, 0])\n",
      "midi.NoteOnEvent(tick=0, channel=5, data=[50, 100])\n",
      "midi.NoteOnEvent(tick=192, channel=5, data=[50, 0])\n",
      "midi.NoteOnEvent(tick=0, channel=5, data=[38, 100])\n",
      "midi.NoteOnEvent(tick=192, channel=5, data=[38, 0])\n",
      "midi.NoteOnEvent(tick=0, channel=5, data=[45, 100])\n",
      "midi.NoteOnEvent(tick=192, channel=5, data=[45, 0])\n",
      "midi.NoteOnEvent(tick=0, channel=5, data=[33, 100])\n",
      "midi.NoteOnEvent(tick=192, channel=5, data=[33, 0])\n",
      "midi.NoteOnEvent(tick=0, channel=5, data=[38, 100])\n",
      "midi.NoteOnEvent(tick=192, channel=5, data=[38, 0])\n",
      "midi.NoteOnEvent(tick=0, channel=5, data=[26, 100])\n",
      "midi.NoteOnEvent(tick=192, channel=5, data=[26, 0])\n",
      "midi.NoteOnEvent(tick=2112, channel=5, data=[43, 100])\n",
      "midi.NoteOnEvent(tick=96, channel=5, data=[43, 0])\n",
      "midi.NoteOnEvent(tick=0, channel=5, data=[45, 100])\n",
      "midi.NoteOnEvent(tick=96, channel=5, data=[45, 0])\n",
      "midi.NoteOnEvent(tick=0, channel=5, data=[43, 100])\n",
      "midi.NoteOnEvent(tick=96, channel=5, data=[43, 0])\n",
      "midi.NoteOnEvent(tick=0, channel=5, data=[41, 100])\n",
      "midi.NoteOnEvent(tick=96, channel=5, data=[41, 0])\n",
      "midi.NoteOnEvent(tick=0, channel=5, data=[40, 100])\n",
      "midi.NoteOnEvent(tick=96, channel=5, data=[40, 0])\n",
      "midi.NoteOnEvent(tick=0, channel=5, data=[38, 100])\n",
      "midi.NoteOnEvent(tick=96, channel=5, data=[38, 0])\n",
      "midi.NoteOnEvent(tick=0, channel=5, data=[36, 100])\n",
      "midi.NoteOnEvent(tick=192, channel=5, data=[36, 0])\n",
      "midi.NoteOnEvent(tick=0, channel=5, data=[48, 100])\n",
      "midi.NoteOnEvent(tick=192, channel=5, data=[48, 0])\n",
      "midi.NoteOnEvent(tick=1344, channel=5, data=[41, 100])\n",
      "midi.NoteOnEvent(tick=96, channel=5, data=[41, 0])\n",
      "midi.NoteOnEvent(tick=0, channel=5, data=[43, 100])\n",
      "midi.NoteOnEvent(tick=96, channel=5, data=[43, 0])\n",
      "midi.NoteOnEvent(tick=0, channel=5, data=[41, 100])\n",
      "midi.NoteOnEvent(tick=96, channel=5, data=[41, 0])\n",
      "midi.NoteOnEvent(tick=0, channel=5, data=[40, 100])\n",
      "midi.NoteOnEvent(tick=96, channel=5, data=[40, 0])\n",
      "midi.NoteOnEvent(tick=0, channel=5, data=[38, 100])\n",
      "midi.NoteOnEvent(tick=96, channel=5, data=[38, 0])\n",
      "midi.NoteOnEvent(tick=0, channel=5, data=[36, 100])\n",
      "midi.NoteOnEvent(tick=96, channel=5, data=[36, 0])\n",
      "midi.NoteOnEvent(tick=0, channel=5, data=[34, 100])\n",
      "midi.NoteOnEvent(tick=192, channel=5, data=[34, 0])\n",
      "midi.NoteOnEvent(tick=0, channel=5, data=[46, 100])\n",
      "midi.NoteOnEvent(tick=192, channel=5, data=[46, 0])\n",
      "midi.NoteOnEvent(tick=1344, channel=5, data=[40, 100])\n",
      "midi.NoteOnEvent(tick=96, channel=5, data=[40, 0])\n",
      "midi.NoteOnEvent(tick=0, channel=5, data=[41, 100])\n",
      "midi.NoteOnEvent(tick=96, channel=5, data=[41, 0])\n",
      "midi.NoteOnEvent(tick=0, channel=5, data=[40, 100])\n",
      "midi.NoteOnEvent(tick=96, channel=5, data=[40, 0])\n",
      "midi.NoteOnEvent(tick=0, channel=5, data=[38, 100])\n",
      "midi.NoteOnEvent(tick=96, channel=5, data=[38, 0])\n",
      "midi.NoteOnEvent(tick=0, channel=5, data=[37, 100])\n",
      "midi.NoteOnEvent(tick=96, channel=5, data=[37, 0])\n",
      "midi.NoteOnEvent(tick=0, channel=5, data=[35, 100])\n",
      "midi.NoteOnEvent(tick=96, channel=5, data=[35, 0])\n",
      "midi.NoteOnEvent(tick=0, channel=5, data=[33, 100])\n",
      "midi.NoteOnEvent(tick=192, channel=5, data=[33, 0])\n",
      "midi.NoteOnEvent(tick=0, channel=5, data=[45, 100])\n",
      "midi.NoteOnEvent(tick=192, channel=5, data=[45, 0])\n",
      "midi.NoteOnEvent(tick=1344, channel=5, data=[38, 100])\n",
      "midi.NoteOnEvent(tick=192, channel=5, data=[38, 0])\n",
      "midi.NoteOnEvent(tick=0, channel=5, data=[50, 100])\n",
      "midi.NoteOnEvent(tick=192, channel=5, data=[50, 0])\n",
      "midi.NoteOnEvent(tick=0, channel=5, data=[41, 100])\n",
      "midi.NoteOnEvent(tick=192, channel=5, data=[41, 0])\n",
      "midi.NoteOnEvent(tick=0, channel=5, data=[43, 100])\n",
      "midi.NoteOnEvent(tick=192, channel=5, data=[43, 0])\n",
      "midi.NoteOnEvent(tick=0, channel=5, data=[45, 100])\n",
      "midi.NoteOnEvent(tick=192, channel=5, data=[45, 0])\n",
      "midi.NoteOnEvent(tick=0, channel=5, data=[47, 100])\n",
      "midi.NoteOnEvent(tick=192, channel=5, data=[47, 0])\n",
      "midi.NoteOnEvent(tick=0, channel=5, data=[43, 100])\n",
      "midi.NoteOnEvent(tick=192, channel=5, data=[43, 0])\n",
      "midi.NoteOnEvent(tick=0, channel=5, data=[48, 100])\n",
      "midi.NoteOnEvent(tick=192, channel=5, data=[48, 0])\n",
      "midi.NoteOnEvent(tick=0, channel=5, data=[36, 100])\n",
      "midi.NoteOnEvent(tick=192, channel=5, data=[36, 0])\n",
      "midi.NoteOnEvent(tick=0, channel=5, data=[48, 100])\n",
      "midi.NoteOnEvent(tick=192, channel=5, data=[48, 0])\n",
      "midi.NoteOnEvent(tick=0, channel=5, data=[40, 100])\n"
     ]
    },
    {
     "name": "stdout",
     "output_type": "stream",
     "text": [
      "midi.NoteOnEvent(tick=192, channel=5, data=[40, 0])\n",
      "midi.NoteOnEvent(tick=0, channel=5, data=[41, 100])\n",
      "midi.NoteOnEvent(tick=192, channel=5, data=[41, 0])\n",
      "midi.NoteOnEvent(tick=0, channel=5, data=[43, 100])\n",
      "midi.NoteOnEvent(tick=192, channel=5, data=[43, 0])\n",
      "midi.NoteOnEvent(tick=0, channel=5, data=[45, 100])\n",
      "midi.NoteOnEvent(tick=192, channel=5, data=[45, 0])\n",
      "midi.NoteOnEvent(tick=0, channel=5, data=[41, 100])\n",
      "midi.NoteOnEvent(tick=192, channel=5, data=[41, 0])\n",
      "midi.NoteOnEvent(tick=0, channel=5, data=[47, 100])\n",
      "midi.NoteOnEvent(tick=192, channel=5, data=[47, 0])\n",
      "midi.NoteOnEvent(tick=0, channel=5, data=[35, 100])\n",
      "midi.NoteOnEvent(tick=192, channel=5, data=[35, 0])\n",
      "midi.NoteOnEvent(tick=0, channel=5, data=[47, 100])\n",
      "midi.NoteOnEvent(tick=192, channel=5, data=[47, 0])\n",
      "midi.NoteOnEvent(tick=0, channel=5, data=[44, 100])\n",
      "midi.NoteOnEvent(tick=192, channel=5, data=[44, 0])\n",
      "midi.NoteOnEvent(tick=0, channel=5, data=[40, 100])\n",
      "midi.NoteOnEvent(tick=192, channel=5, data=[40, 0])\n",
      "midi.NoteOnEvent(tick=0, channel=5, data=[28, 100])\n",
      "midi.NoteOnEvent(tick=192, channel=5, data=[28, 0])\n",
      "midi.NoteOnEvent(tick=576, channel=5, data=[33, 100])\n",
      "midi.NoteOnEvent(tick=192, channel=5, data=[33, 0])\n",
      "midi.NoteOnEvent(tick=0, channel=5, data=[45, 100])\n",
      "midi.NoteOnEvent(tick=384, channel=5, data=[45, 0])\n",
      "midi.NoteOnEvent(tick=192, channel=5, data=[33, 100])\n",
      "midi.NoteOnEvent(tick=192, channel=5, data=[33, 0])\n",
      "midi.NoteOnEvent(tick=0, channel=5, data=[45, 100])\n",
      "midi.NoteOnEvent(tick=384, channel=5, data=[45, 0])\n",
      "midi.NoteOnEvent(tick=192, channel=5, data=[33, 100])\n",
      "midi.NoteOnEvent(tick=192, channel=5, data=[33, 0])\n",
      "midi.NoteOnEvent(tick=0, channel=5, data=[40, 100])\n",
      "midi.NoteOnEvent(tick=192, channel=5, data=[40, 0])\n",
      "midi.NoteOnEvent(tick=0, channel=5, data=[28, 100])\n",
      "midi.NoteOnEvent(tick=192, channel=5, data=[28, 0])\n",
      "midi.NoteOnEvent(tick=0, channel=5, data=[45, 100])\n",
      "midi.NoteOnEvent(tick=192, channel=5, data=[45, 0])\n",
      "midi.NoteOnEvent(tick=0, channel=5, data=[33, 100])\n",
      "midi.NoteOnEvent(tick=192, channel=5, data=[33, 0])\n",
      "midi.NoteOnEvent(tick=0, channel=5, data=[36, 100])\n",
      "midi.NoteOnEvent(tick=192, channel=5, data=[36, 0])\n",
      "midi.NoteOnEvent(tick=0, channel=5, data=[40, 100])\n",
      "midi.NoteOnEvent(tick=192, channel=5, data=[40, 0])\n",
      "midi.NoteOnEvent(tick=0, channel=5, data=[45, 100])\n",
      "midi.NoteOnEvent(tick=384, channel=5, data=[45, 0])\n",
      "midi.NoteOnEvent(tick=0, channel=5, data=[43, 100])\n",
      "midi.NoteOnEvent(tick=384, channel=5, data=[43, 0])\n",
      "midi.NoteOnEvent(tick=0, channel=5, data=[41, 100])\n",
      "midi.NoteOnEvent(tick=384, channel=5, data=[41, 0])\n",
      "midi.NoteOnEvent(tick=0, channel=5, data=[40, 100])\n",
      "midi.NoteOnEvent(tick=384, channel=5, data=[40, 0])\n",
      "midi.NoteOnEvent(tick=0, channel=5, data=[38, 100])\n",
      "midi.NoteOnEvent(tick=384, channel=5, data=[38, 0])\n",
      "midi.NoteOnEvent(tick=0, channel=5, data=[36, 100])\n",
      "midi.NoteOnEvent(tick=384, channel=5, data=[36, 0])\n",
      "midi.NoteOnEvent(tick=0, channel=5, data=[34, 100])\n",
      "midi.NoteOnEvent(tick=384, channel=5, data=[34, 0])\n",
      "midi.NoteOnEvent(tick=0, channel=5, data=[33, 100])\n",
      "midi.NoteOnEvent(tick=384, channel=5, data=[33, 0])\n",
      "midi.NoteOnEvent(tick=0, channel=5, data=[31, 100])\n",
      "midi.NoteOnEvent(tick=384, channel=5, data=[31, 0])\n",
      "midi.NoteOnEvent(tick=0, channel=5, data=[29, 100])\n",
      "midi.NoteOnEvent(tick=384, channel=5, data=[29, 0])\n",
      "midi.NoteOnEvent(tick=0, channel=5, data=[27, 100])\n",
      "midi.NoteOnEvent(tick=384, channel=5, data=[27, 0])\n",
      "midi.NoteOnEvent(tick=0, channel=5, data=[26, 100])\n",
      "midi.NoteOnEvent(tick=384, channel=5, data=[26, 0])\n",
      "midi.NoteOnEvent(tick=0, channel=5, data=[24, 100])\n",
      "midi.NoteOnEvent(tick=192, channel=5, data=[24, 0])\n",
      "midi.NoteOnEvent(tick=0, channel=5, data=[24, 100])\n",
      "midi.NoteOnEvent(tick=192, channel=5, data=[24, 0])\n",
      "midi.NoteOnEvent(tick=0, channel=5, data=[24, 100])\n",
      "midi.NoteOnEvent(tick=192, channel=5, data=[24, 0])\n",
      "midi.NoteOnEvent(tick=0, channel=5, data=[24, 100])\n",
      "midi.NoteOnEvent(tick=192, channel=5, data=[24, 0])\n",
      "midi.NoteOnEvent(tick=0, channel=5, data=[24, 100])\n",
      "midi.NoteOnEvent(tick=192, channel=5, data=[24, 0])\n",
      "midi.NoteOnEvent(tick=0, channel=5, data=[24, 100])\n",
      "midi.NoteOnEvent(tick=192, channel=5, data=[24, 0])\n",
      "midi.NoteOnEvent(tick=0, channel=5, data=[24, 100])\n",
      "midi.NoteOnEvent(tick=192, channel=5, data=[24, 0])\n",
      "midi.NoteOnEvent(tick=0, channel=5, data=[24, 100])\n",
      "midi.NoteOnEvent(tick=192, channel=5, data=[24, 0])\n",
      "midi.NoteOnEvent(tick=0, channel=5, data=[24, 100])\n",
      "midi.NoteOnEvent(tick=192, channel=5, data=[24, 0])\n",
      "midi.NoteOnEvent(tick=0, channel=5, data=[24, 100])\n",
      "midi.NoteOnEvent(tick=192, channel=5, data=[24, 0])\n",
      "midi.NoteOnEvent(tick=0, channel=5, data=[36, 100])\n",
      "midi.NoteOnEvent(tick=192, channel=5, data=[36, 0])\n",
      "midi.NoteOnEvent(tick=0, channel=5, data=[36, 100])\n",
      "midi.NoteOnEvent(tick=192, channel=5, data=[36, 0])\n",
      "midi.NoteOnEvent(tick=0, channel=5, data=[34, 100])\n",
      "midi.NoteOnEvent(tick=192, channel=5, data=[34, 0])\n",
      "midi.NoteOnEvent(tick=0, channel=5, data=[50, 100])\n",
      "midi.NoteOnEvent(tick=192, channel=5, data=[50, 0])\n",
      "midi.NoteOnEvent(tick=0, channel=5, data=[46, 100])\n",
      "midi.NoteOnEvent(tick=192, channel=5, data=[46, 0])\n",
      "midi.NoteOnEvent(tick=0, channel=5, data=[43, 100])\n",
      "midi.NoteOnEvent(tick=192, channel=5, data=[43, 0])\n",
      "midi.NoteOnEvent(tick=0, channel=5, data=[31, 100])\n",
      "midi.NoteOnEvent(tick=192, channel=5, data=[31, 0])\n",
      "midi.NoteOnEvent(tick=0, channel=5, data=[31, 100])\n",
      "midi.NoteOnEvent(tick=192, channel=5, data=[31, 0])\n",
      "midi.NoteOnEvent(tick=0, channel=5, data=[31, 100])\n",
      "midi.NoteOnEvent(tick=192, channel=5, data=[31, 0])\n",
      "midi.NoteOnEvent(tick=0, channel=5, data=[31, 100])\n",
      "midi.NoteOnEvent(tick=192, channel=5, data=[31, 0])\n",
      "midi.NoteOnEvent(tick=0, channel=5, data=[29, 100])\n",
      "midi.NoteOnEvent(tick=192, channel=5, data=[29, 0])\n",
      "midi.NoteOnEvent(tick=0, channel=5, data=[45, 100])\n",
      "midi.NoteOnEvent(tick=192, channel=5, data=[45, 0])\n",
      "midi.NoteOnEvent(tick=0, channel=5, data=[41, 100])\n",
      "midi.NoteOnEvent(tick=192, channel=5, data=[41, 0])\n",
      "midi.NoteOnEvent(tick=0, channel=5, data=[38, 100])\n",
      "midi.NoteOnEvent(tick=192, channel=5, data=[38, 0])\n",
      "midi.NoteOnEvent(tick=0, channel=5, data=[26, 100])\n",
      "midi.NoteOnEvent(tick=192, channel=5, data=[26, 0])\n",
      "midi.NoteOnEvent(tick=0, channel=5, data=[26, 100])\n",
      "midi.NoteOnEvent(tick=192, channel=5, data=[26, 0])\n",
      "midi.NoteOnEvent(tick=0, channel=5, data=[26, 100])\n",
      "midi.NoteOnEvent(tick=192, channel=5, data=[26, 0])\n",
      "midi.NoteOnEvent(tick=0, channel=5, data=[26, 100])\n",
      "midi.NoteOnEvent(tick=192, channel=5, data=[26, 0])\n",
      "midi.NoteOnEvent(tick=0, channel=5, data=[24, 100])\n",
      "midi.NoteOnEvent(tick=192, channel=5, data=[24, 0])\n",
      "midi.NoteOnEvent(tick=0, channel=5, data=[38, 100])\n",
      "midi.NoteOnEvent(tick=192, channel=5, data=[38, 0])\n",
      "midi.NoteOnEvent(tick=0, channel=5, data=[36, 100])\n",
      "midi.NoteOnEvent(tick=192, channel=5, data=[36, 0])\n",
      "midi.NoteOnEvent(tick=0, channel=5, data=[35, 100])\n",
      "midi.NoteOnEvent(tick=192, channel=5, data=[35, 0])\n",
      "midi.NoteOnEvent(tick=0, channel=5, data=[33, 100])\n",
      "midi.NoteOnEvent(tick=192, channel=5, data=[33, 0])\n",
      "midi.NoteOnEvent(tick=0, channel=5, data=[45, 100])\n",
      "midi.NoteOnEvent(tick=192, channel=5, data=[45, 0])\n",
      "midi.NoteOnEvent(tick=0, channel=5, data=[43, 100])\n",
      "midi.NoteOnEvent(tick=192, channel=5, data=[43, 0])\n",
      "midi.NoteOnEvent(tick=0, channel=5, data=[41, 100])\n",
      "midi.NoteOnEvent(tick=192, channel=5, data=[41, 0])\n",
      "midi.NoteOnEvent(tick=0, channel=5, data=[40, 100])\n",
      "midi.NoteOnEvent(tick=192, channel=5, data=[40, 0])\n",
      "midi.NoteOnEvent(tick=0, channel=5, data=[41, 100])\n",
      "midi.NoteOnEvent(tick=192, channel=5, data=[41, 0])\n",
      "midi.NoteOnEvent(tick=0, channel=5, data=[40, 100])\n",
      "midi.NoteOnEvent(tick=192, channel=5, data=[40, 0])\n",
      "midi.NoteOnEvent(tick=0, channel=5, data=[38, 100])\n",
      "midi.NoteOnEvent(tick=192, channel=5, data=[38, 0])\n",
      "midi.NoteOnEvent(tick=0, channel=5, data=[36, 100])\n",
      "midi.NoteOnEvent(tick=192, channel=5, data=[36, 0])\n",
      "midi.NoteOnEvent(tick=0, channel=5, data=[40, 100])\n",
      "midi.NoteOnEvent(tick=192, channel=5, data=[40, 0])\n",
      "midi.NoteOnEvent(tick=0, channel=5, data=[36, 100])\n",
      "midi.NoteOnEvent(tick=192, channel=5, data=[36, 0])\n",
      "midi.NoteOnEvent(tick=0, channel=5, data=[33, 100])\n",
      "midi.NoteOnEvent(tick=192, channel=5, data=[33, 0])\n",
      "midi.NoteOnEvent(tick=0, channel=5, data=[38, 100])\n",
      "midi.NoteOnEvent(tick=192, channel=5, data=[38, 0])\n",
      "midi.NoteOnEvent(tick=0, channel=5, data=[41, 100])\n",
      "midi.NoteOnEvent(tick=192, channel=5, data=[41, 0])\n",
      "midi.NoteOnEvent(tick=0, channel=5, data=[38, 100])\n",
      "midi.NoteOnEvent(tick=192, channel=5, data=[38, 0])\n",
      "midi.NoteOnEvent(tick=0, channel=5, data=[35, 100])\n",
      "midi.NoteOnEvent(tick=192, channel=5, data=[35, 0])\n",
      "midi.NoteOnEvent(tick=0, channel=5, data=[36, 100])\n",
      "midi.NoteOnEvent(tick=192, channel=5, data=[36, 0])\n",
      "midi.NoteOnEvent(tick=0, channel=5, data=[33, 100])\n",
      "midi.NoteOnEvent(tick=192, channel=5, data=[33, 0])\n",
      "midi.NoteOnEvent(tick=0, channel=5, data=[40, 100])\n",
      "midi.NoteOnEvent(tick=192, channel=5, data=[40, 0])\n",
      "midi.NoteOnEvent(tick=0, channel=5, data=[28, 100])\n",
      "midi.NoteOnEvent(tick=192, channel=5, data=[28, 0])\n",
      "midi.NoteOnEvent(tick=0, channel=5, data=[33, 100])\n",
      "midi.NoteOnEvent(tick=192, channel=5, data=[33, 0])\n",
      "midi.NoteOnEvent(tick=0, channel=5, data=[48, 100])\n",
      "midi.NoteOnEvent(tick=96, channel=5, data=[48, 0])\n",
      "midi.NoteOnEvent(tick=0, channel=5, data=[47, 100])\n",
      "midi.NoteOnEvent(tick=96, channel=5, data=[47, 0])\n",
      "midi.NoteOnEvent(tick=0, channel=5, data=[45, 100])\n",
      "midi.NoteOnEvent(tick=96, channel=5, data=[45, 0])\n",
      "midi.NoteOnEvent(tick=0, channel=5, data=[43, 100])\n",
      "midi.NoteOnEvent(tick=96, channel=5, data=[43, 0])\n",
      "midi.NoteOnEvent(tick=0, channel=5, data=[41, 100])\n",
      "midi.NoteOnEvent(tick=96, channel=5, data=[41, 0])\n",
      "midi.NoteOnEvent(tick=0, channel=5, data=[40, 100])\n",
      "midi.NoteOnEvent(tick=96, channel=5, data=[40, 0])\n",
      "midi.NoteOnEvent(tick=0, channel=5, data=[41, 100])\n",
      "midi.NoteOnEvent(tick=192, channel=5, data=[41, 0])\n",
      "midi.NoteOnEvent(tick=0, channel=5, data=[45, 100])\n",
      "midi.NoteOnEvent(tick=192, channel=5, data=[45, 0])\n",
      "midi.NoteOnEvent(tick=0, channel=5, data=[41, 100])\n",
      "midi.NoteOnEvent(tick=192, channel=5, data=[41, 0])\n",
      "midi.NoteOnEvent(tick=0, channel=5, data=[38, 100])\n",
      "midi.NoteOnEvent(tick=192, channel=5, data=[38, 0])\n",
      "midi.NoteOnEvent(tick=0, channel=5, data=[43, 100])\n",
      "midi.NoteOnEvent(tick=192, channel=5, data=[43, 0])\n",
      "midi.NoteOnEvent(tick=0, channel=5, data=[31, 100])\n",
      "midi.NoteOnEvent(tick=192, channel=5, data=[31, 0])\n",
      "midi.NoteOnEvent(tick=1344, channel=5, data=[47, 100])\n",
      "midi.NoteOnEvent(tick=96, channel=5, data=[47, 0])\n",
      "midi.NoteOnEvent(tick=0, channel=5, data=[45, 100])\n",
      "midi.NoteOnEvent(tick=96, channel=5, data=[45, 0])\n",
      "midi.NoteOnEvent(tick=0, channel=5, data=[43, 100])\n",
      "midi.NoteOnEvent(tick=96, channel=5, data=[43, 0])\n",
      "midi.NoteOnEvent(tick=0, channel=5, data=[41, 100])\n",
      "midi.NoteOnEvent(tick=96, channel=5, data=[41, 0])\n",
      "midi.NoteOnEvent(tick=0, channel=5, data=[40, 100])\n",
      "midi.NoteOnEvent(tick=96, channel=5, data=[40, 0])\n",
      "midi.NoteOnEvent(tick=0, channel=5, data=[38, 100])\n",
      "midi.NoteOnEvent(tick=96, channel=5, data=[38, 0])\n",
      "midi.NoteOnEvent(tick=0, channel=5, data=[40, 100])\n",
      "midi.NoteOnEvent(tick=192, channel=5, data=[40, 0])\n",
      "midi.NoteOnEvent(tick=0, channel=5, data=[43, 100])\n",
      "midi.NoteOnEvent(tick=192, channel=5, data=[43, 0])\n",
      "midi.NoteOnEvent(tick=0, channel=5, data=[40, 100])\n",
      "midi.NoteOnEvent(tick=192, channel=5, data=[40, 0])\n",
      "midi.NoteOnEvent(tick=0, channel=5, data=[36, 100])\n",
      "midi.NoteOnEvent(tick=192, channel=5, data=[36, 0])\n",
      "midi.NoteOnEvent(tick=0, channel=5, data=[41, 100])\n",
      "midi.NoteOnEvent(tick=192, channel=5, data=[41, 0])\n",
      "midi.NoteOnEvent(tick=0, channel=5, data=[29, 100])\n",
      "midi.NoteOnEvent(tick=192, channel=5, data=[29, 0])\n",
      "midi.NoteOnEvent(tick=1344, channel=5, data=[45, 100])\n",
      "midi.NoteOnEvent(tick=96, channel=5, data=[45, 0])\n",
      "midi.NoteOnEvent(tick=0, channel=5, data=[43, 100])\n",
      "midi.NoteOnEvent(tick=96, channel=5, data=[43, 0])\n",
      "midi.NoteOnEvent(tick=0, channel=5, data=[41, 100])\n",
      "midi.NoteOnEvent(tick=96, channel=5, data=[41, 0])\n",
      "midi.NoteOnEvent(tick=0, channel=5, data=[40, 100])\n",
      "midi.NoteOnEvent(tick=96, channel=5, data=[40, 0])\n",
      "midi.NoteOnEvent(tick=0, channel=5, data=[38, 100])\n",
      "midi.NoteOnEvent(tick=96, channel=5, data=[38, 0])\n",
      "midi.NoteOnEvent(tick=0, channel=5, data=[36, 100])\n",
      "midi.NoteOnEvent(tick=96, channel=5, data=[36, 0])\n",
      "midi.NoteOnEvent(tick=0, channel=5, data=[38, 100])\n",
      "midi.NoteOnEvent(tick=96, channel=5, data=[38, 0])\n",
      "midi.NoteOnEvent(tick=0, channel=5, data=[40, 100])\n",
      "midi.NoteOnEvent(tick=96, channel=5, data=[40, 0])\n",
      "midi.NoteOnEvent(tick=0, channel=5, data=[38, 100])\n",
      "midi.NoteOnEvent(tick=96, channel=5, data=[38, 0])\n",
      "midi.NoteOnEvent(tick=0, channel=5, data=[36, 100])\n",
      "midi.NoteOnEvent(tick=96, channel=5, data=[36, 0])\n",
      "midi.NoteOnEvent(tick=0, channel=5, data=[35, 100])\n",
      "midi.NoteOnEvent(tick=96, channel=5, data=[35, 0])\n",
      "midi.NoteOnEvent(tick=0, channel=5, data=[36, 100])\n",
      "midi.NoteOnEvent(tick=96, channel=5, data=[36, 0])\n",
      "midi.NoteOnEvent(tick=0, channel=5, data=[35, 100])\n",
      "midi.NoteOnEvent(tick=96, channel=5, data=[35, 0])\n",
      "midi.NoteOnEvent(tick=0, channel=5, data=[33, 100])\n",
      "midi.NoteOnEvent(tick=96, channel=5, data=[33, 0])\n",
      "midi.NoteOnEvent(tick=0, channel=5, data=[32, 100])\n",
      "midi.NoteOnEvent(tick=96, channel=5, data=[32, 0])\n",
      "midi.NoteOnEvent(tick=0, channel=5, data=[28, 100])\n",
      "midi.NoteOnEvent(tick=96, channel=5, data=[28, 0])\n",
      "midi.NoteOnEvent(tick=0, channel=5, data=[30, 100])\n",
      "midi.NoteOnEvent(tick=96, channel=5, data=[30, 0])\n",
      "midi.NoteOnEvent(tick=0, channel=5, data=[32, 100])\n",
      "midi.NoteOnEvent(tick=96, channel=5, data=[32, 0])\n",
      "midi.NoteOnEvent(tick=0, channel=5, data=[33, 100])\n",
      "midi.NoteOnEvent(tick=96, channel=5, data=[33, 0])\n",
      "midi.NoteOnEvent(tick=0, channel=5, data=[35, 100])\n",
      "midi.NoteOnEvent(tick=96, channel=5, data=[35, 0])\n",
      "midi.NoteOnEvent(tick=0, channel=5, data=[36, 100])\n",
      "midi.NoteOnEvent(tick=96, channel=5, data=[36, 0])\n",
      "midi.NoteOnEvent(tick=0, channel=5, data=[33, 100])\n",
      "midi.NoteOnEvent(tick=96, channel=5, data=[33, 0])\n",
      "midi.NoteOnEvent(tick=0, channel=5, data=[29, 100])\n",
      "midi.NoteOnEvent(tick=192, channel=5, data=[29, 0])\n",
      "midi.NoteOnEvent(tick=0, channel=5, data=[36, 100])\n",
      "midi.NoteOnEvent(tick=192, channel=5, data=[36, 0])\n",
      "midi.NoteOnEvent(tick=0, channel=5, data=[38, 100])\n",
      "midi.NoteOnEvent(tick=192, channel=5, data=[38, 0])\n",
      "midi.NoteOnEvent(tick=0, channel=5, data=[35, 100])\n",
      "midi.NoteOnEvent(tick=192, channel=5, data=[35, 0])\n",
      "midi.NoteOnEvent(tick=0, channel=5, data=[40, 100])\n",
      "midi.NoteOnEvent(tick=288, channel=5, data=[40, 0])\n",
      "midi.NoteOnEvent(tick=0, channel=5, data=[42, 100])\n",
      "midi.NoteOnEvent(tick=48, channel=5, data=[42, 0])\n",
      "midi.NoteOnEvent(tick=0, channel=5, data=[44, 100])\n",
      "midi.NoteOnEvent(tick=48, channel=5, data=[44, 0])\n",
      "midi.NoteOnEvent(tick=0, channel=5, data=[45, 100])\n",
      "midi.NoteOnEvent(tick=96, channel=5, data=[45, 0])\n",
      "midi.NoteOnEvent(tick=0, channel=5, data=[47, 100])\n",
      "midi.NoteOnEvent(tick=96, channel=5, data=[47, 0])\n",
      "midi.NoteOnEvent(tick=0, channel=5, data=[48, 100])\n",
      "midi.NoteOnEvent(tick=96, channel=5, data=[48, 0])\n",
      "midi.NoteOnEvent(tick=0, channel=5, data=[50, 100])\n",
      "midi.NoteOnEvent(tick=96, channel=5, data=[50, 0])\n",
      "midi.NoteOnEvent(tick=0, channel=5, data=[52, 100])\n",
      "midi.NoteOnEvent(tick=192, channel=5, data=[52, 0])\n",
      "midi.NoteOnEvent(tick=0, channel=5, data=[50, 100])\n",
      "midi.NoteOnEvent(tick=192, channel=5, data=[50, 0])\n",
      "midi.NoteOnEvent(tick=0, channel=5, data=[52, 100])\n",
      "midi.NoteOnEvent(tick=192, channel=5, data=[52, 0])\n",
      "midi.NoteOnEvent(tick=0, channel=5, data=[40, 100])\n",
      "midi.NoteOnEvent(tick=192, channel=5, data=[40, 0])\n",
      "midi.NoteOnEvent(tick=0, channel=5, data=[50, 100])\n",
      "midi.NoteOnEvent(tick=192, channel=5, data=[50, 0])\n",
      "midi.NoteOnEvent(tick=0, channel=5, data=[52, 100])\n",
      "midi.NoteOnEvent(tick=192, channel=5, data=[52, 0])\n",
      "midi.NoteOnEvent(tick=0, channel=5, data=[50, 100])\n",
      "midi.NoteOnEvent(tick=192, channel=5, data=[50, 0])\n",
      "midi.NoteOnEvent(tick=0, channel=5, data=[48, 100])\n",
      "midi.NoteOnEvent(tick=192, channel=5, data=[48, 0])\n",
      "midi.NoteOnEvent(tick=0, channel=5, data=[47, 100])\n",
      "midi.NoteOnEvent(tick=192, channel=5, data=[47, 0])\n",
      "midi.NoteOnEvent(tick=0, channel=5, data=[48, 100])\n",
      "midi.NoteOnEvent(tick=192, channel=5, data=[48, 0])\n",
      "midi.NoteOnEvent(tick=0, channel=5, data=[47, 100])\n",
      "midi.NoteOnEvent(tick=192, channel=5, data=[47, 0])\n",
      "midi.NoteOnEvent(tick=0, channel=5, data=[45, 100])\n",
      "midi.NoteOnEvent(tick=192, channel=5, data=[45, 0])\n",
      "midi.NoteOnEvent(tick=0, channel=5, data=[44, 100])\n",
      "midi.NoteOnEvent(tick=192, channel=5, data=[44, 0])\n",
      "midi.NoteOnEvent(tick=0, channel=5, data=[45, 100])\n",
      "midi.NoteOnEvent(tick=192, channel=5, data=[45, 0])\n",
      "midi.NoteOnEvent(tick=0, channel=5, data=[47, 100])\n",
      "midi.NoteOnEvent(tick=192, channel=5, data=[47, 0])\n",
      "midi.NoteOnEvent(tick=0, channel=5, data=[48, 100])\n",
      "midi.NoteOnEvent(tick=192, channel=5, data=[48, 0])\n",
      "midi.NoteOnEvent(tick=0, channel=5, data=[38, 100])\n",
      "midi.NoteOnEvent(tick=192, channel=5, data=[38, 0])\n",
      "midi.NoteOnEvent(tick=0, channel=5, data=[40, 100])\n",
      "midi.NoteOnEvent(tick=192, channel=5, data=[40, 0])\n",
      "midi.NoteOnEvent(tick=0, channel=5, data=[41, 100])\n",
      "midi.NoteOnEvent(tick=192, channel=5, data=[41, 0])\n",
      "midi.NoteOnEvent(tick=0, channel=5, data=[35, 100])\n",
      "midi.NoteOnEvent(tick=192, channel=5, data=[35, 0])\n",
      "midi.NoteOnEvent(tick=0, channel=5, data=[40, 100])\n",
      "midi.NoteOnEvent(tick=192, channel=5, data=[40, 0])\n",
      "midi.NoteOnEvent(tick=0, channel=5, data=[38, 100])\n",
      "midi.NoteOnEvent(tick=96, channel=5, data=[38, 0])\n",
      "midi.NoteOnEvent(tick=0, channel=5, data=[36, 100])\n",
      "midi.NoteOnEvent(tick=96, channel=5, data=[36, 0])\n",
      "midi.NoteOnEvent(tick=0, channel=5, data=[35, 100])\n",
      "midi.NoteOnEvent(tick=192, channel=5, data=[35, 0])\n",
      "midi.NoteOnEvent(tick=0, channel=5, data=[33, 100])\n",
      "midi.NoteOnEvent(tick=192, channel=5, data=[33, 0])\n",
      "midi.NoteOnEvent(tick=0, channel=5, data=[32, 100])\n",
      "midi.NoteOnEvent(tick=192, channel=5, data=[32, 0])\n",
      "midi.NoteOnEvent(tick=0, channel=5, data=[30, 100])\n",
      "midi.NoteOnEvent(tick=192, channel=5, data=[30, 0])\n",
      "midi.NoteOnEvent(tick=0, channel=5, data=[28, 100])\n",
      "midi.NoteOnEvent(tick=192, channel=5, data=[28, 0])\n",
      "midi.NoteOnEvent(tick=0, channel=5, data=[26, 100])\n",
      "midi.NoteOnEvent(tick=192, channel=5, data=[26, 0])\n",
      "midi.NoteOnEvent(tick=0, channel=5, data=[24, 100])\n",
      "midi.NoteOnEvent(tick=192, channel=5, data=[24, 0])\n",
      "midi.NoteOnEvent(tick=0, channel=5, data=[41, 100])\n",
      "midi.NoteOnEvent(tick=192, channel=5, data=[41, 0])\n",
      "midi.NoteOnEvent(tick=0, channel=5, data=[38, 100])\n",
      "midi.NoteOnEvent(tick=192, channel=5, data=[38, 0])\n",
      "midi.NoteOnEvent(tick=0, channel=5, data=[40, 100])\n",
      "midi.NoteOnEvent(tick=192, channel=5, data=[40, 0])\n",
      "midi.NoteOnEvent(tick=0, channel=5, data=[29, 100])\n",
      "midi.NoteOnEvent(tick=384, channel=5, data=[29, 0])\n",
      "midi.NoteOnEvent(tick=192, channel=5, data=[41, 100])\n",
      "midi.NoteOnEvent(tick=192, channel=5, data=[41, 0])\n",
      "midi.NoteOnEvent(tick=0, channel=5, data=[32, 100])\n",
      "midi.NoteOnEvent(tick=192, channel=5, data=[32, 0])\n",
      "midi.NoteOnEvent(tick=0, channel=5, data=[32, 100])\n",
      "midi.NoteOnEvent(tick=192, channel=5, data=[32, 0])\n",
      "midi.NoteOnEvent(tick=0, channel=5, data=[32, 100])\n",
      "midi.NoteOnEvent(tick=192, channel=5, data=[32, 0])\n",
      "midi.NoteOnEvent(tick=0, channel=5, data=[47, 100])\n",
      "midi.NoteOnEvent(tick=192, channel=5, data=[47, 0])\n",
      "midi.NoteOnEvent(tick=0, channel=5, data=[38, 100])\n",
      "midi.NoteOnEvent(tick=192, channel=5, data=[38, 0])\n",
      "midi.NoteOnEvent(tick=0, channel=5, data=[38, 100])\n",
      "midi.NoteOnEvent(tick=192, channel=5, data=[38, 0])\n",
      "midi.NoteOnEvent(tick=0, channel=5, data=[38, 100])\n",
      "midi.NoteOnEvent(tick=192, channel=5, data=[38, 0])\n",
      "midi.NoteOnEvent(tick=0, channel=5, data=[41, 100])\n",
      "midi.NoteOnEvent(tick=192, channel=5, data=[41, 0])\n",
      "midi.NoteOnEvent(tick=0, channel=5, data=[35, 100])\n",
      "midi.NoteOnEvent(tick=192, channel=5, data=[35, 0])\n",
      "midi.NoteOnEvent(tick=0, channel=5, data=[36, 100])\n",
      "midi.NoteOnEvent(tick=96, channel=5, data=[36, 0])\n",
      "midi.NoteOnEvent(tick=0, channel=5, data=[38, 100])\n",
      "midi.NoteOnEvent(tick=96, channel=5, data=[38, 0])\n",
      "midi.NoteOnEvent(tick=0, channel=5, data=[40, 100])\n",
      "midi.NoteOnEvent(tick=192, channel=5, data=[40, 0])\n",
      "midi.NoteOnEvent(tick=0, channel=5, data=[28, 100])\n",
      "midi.NoteOnEvent(tick=192, channel=5, data=[28, 0])\n",
      "midi.NoteOnEvent(tick=0, channel=5, data=[33, 100])\n",
      "midi.NoteOnEvent(tick=576, channel=5, data=[33, 0])\n",
      "midi.EndOfTrackEvent(tick=0, data=[])\n",
      "midi.PortEvent(tick=0, data=[0])\n",
      "midi.TrackNameEvent(tick=0, text='Harpsichord', data=[72, 97, 114, 112, 115, 105, 99, 104, 111, 114, 100])\n",
      "midi.ProgramChangeEvent(tick=0, channel=6, data=[6])\n",
      "midi.ControlChangeEvent(tick=0, channel=6, data=[7, 90])\n",
      "midi.ControlChangeEvent(tick=0, channel=6, data=[10, 64])\n",
      "midi.NoteOnEvent(tick=960, channel=6, data=[45, 100])\n",
      "midi.NoteOnEvent(tick=192, channel=6, data=[45, 0])\n",
      "midi.NoteOnEvent(tick=0, channel=6, data=[57, 100])\n",
      "midi.NoteOnEvent(tick=384, channel=6, data=[57, 0])\n",
      "midi.NoteOnEvent(tick=192, channel=6, data=[45, 100])\n",
      "midi.NoteOnEvent(tick=192, channel=6, data=[45, 0])\n",
      "midi.NoteOnEvent(tick=0, channel=6, data=[57, 100])\n",
      "midi.NoteOnEvent(tick=384, channel=6, data=[57, 0])\n",
      "midi.NoteOnEvent(tick=192, channel=6, data=[45, 100])\n",
      "midi.NoteOnEvent(tick=192, channel=6, data=[45, 0])\n",
      "midi.NoteOnEvent(tick=0, channel=6, data=[52, 100])\n",
      "midi.NoteOnEvent(tick=192, channel=6, data=[52, 0])\n",
      "midi.NoteOnEvent(tick=0, channel=6, data=[40, 100])\n",
      "midi.NoteOnEvent(tick=192, channel=6, data=[40, 0])\n",
      "midi.NoteOnEvent(tick=0, channel=6, data=[45, 100])\n",
      "midi.NoteOnEvent(tick=192, channel=6, data=[45, 0])\n",
      "midi.NoteOnEvent(tick=0, channel=6, data=[57, 100])\n",
      "midi.NoteOnEvent(tick=96, channel=6, data=[57, 0])\n",
      "midi.NoteOnEvent(tick=0, channel=6, data=[59, 100])\n",
      "midi.NoteOnEvent(tick=96, channel=6, data=[59, 0])\n",
      "midi.NoteOnEvent(tick=0, channel=6, data=[60, 100])\n",
      "midi.NoteOnEvent(tick=192, channel=6, data=[60, 0])\n",
      "midi.NoteOnEvent(tick=0, channel=6, data=[57, 100])\n",
      "midi.NoteOnEvent(tick=192, channel=6, data=[57, 0])\n",
      "midi.NoteOnEvent(tick=0, channel=6, data=[56, 100])\n",
      "midi.NoteOnEvent(tick=192, channel=6, data=[56, 0])\n",
      "midi.NoteOnEvent(tick=0, channel=6, data=[52, 100])\n",
      "midi.NoteOnEvent(tick=192, channel=6, data=[52, 0])\n",
      "midi.NoteOnEvent(tick=0, channel=6, data=[57, 100])\n",
      "midi.NoteOnEvent(tick=192, channel=6, data=[57, 0])\n",
      "midi.NoteOnEvent(tick=0, channel=6, data=[52, 100])\n",
      "midi.NoteOnEvent(tick=192, channel=6, data=[52, 0])\n",
      "midi.NoteOnEvent(tick=0, channel=6, data=[59, 100])\n",
      "midi.NoteOnEvent(tick=192, channel=6, data=[59, 0])\n",
      "midi.NoteOnEvent(tick=0, channel=6, data=[52, 100])\n",
      "midi.NoteOnEvent(tick=192, channel=6, data=[52, 0])\n",
      "midi.NoteOnEvent(tick=0, channel=6, data=[60, 100])\n",
      "midi.NoteOnEvent(tick=192, channel=6, data=[60, 0])\n",
      "midi.NoteOnEvent(tick=0, channel=6, data=[52, 100])\n",
      "midi.NoteOnEvent(tick=192, channel=6, data=[52, 0])\n",
      "midi.NoteOnEvent(tick=0, channel=6, data=[62, 100])\n",
      "midi.NoteOnEvent(tick=192, channel=6, data=[62, 0])\n",
      "midi.NoteOnEvent(tick=0, channel=6, data=[50, 100])\n",
      "midi.NoteOnEvent(tick=192, channel=6, data=[50, 0])\n",
      "midi.NoteOnEvent(tick=0, channel=6, data=[52, 100])\n",
      "midi.NoteOnEvent(tick=192, channel=6, data=[52, 0])\n",
      "midi.NoteOnEvent(tick=0, channel=6, data=[53, 100])\n",
      "midi.NoteOnEvent(tick=192, channel=6, data=[53, 0])\n",
      "midi.NoteOnEvent(tick=0, channel=6, data=[52, 100])\n",
      "midi.NoteOnEvent(tick=192, channel=6, data=[52, 0])\n",
      "midi.NoteOnEvent(tick=0, channel=6, data=[40, 100])\n",
      "midi.NoteOnEvent(tick=192, channel=6, data=[40, 0])\n",
      "midi.NoteOnEvent(tick=192, channel=6, data=[64, 100])\n",
      "midi.NoteOnEvent(tick=96, channel=6, data=[64, 0])\n",
      "midi.NoteOnEvent(tick=0, channel=6, data=[62, 100])\n",
      "midi.NoteOnEvent(tick=96, channel=6, data=[62, 0])\n",
      "midi.NoteOnEvent(tick=0, channel=6, data=[60, 100])\n",
      "midi.NoteOnEvent(tick=192, channel=6, data=[60, 0])\n",
      "midi.NoteOnEvent(tick=0, channel=6, data=[64, 100])\n",
      "midi.NoteOnEvent(tick=192, channel=6, data=[64, 0])\n",
      "midi.NoteOnEvent(tick=0, channel=6, data=[60, 100])\n",
      "midi.NoteOnEvent(tick=192, channel=6, data=[60, 0])\n",
      "midi.NoteOnEvent(tick=0, channel=6, data=[57, 100])\n",
      "midi.NoteOnEvent(tick=192, channel=6, data=[57, 0])\n",
      "midi.NoteOnEvent(tick=0, channel=6, data=[62, 100])\n",
      "midi.NoteOnEvent(tick=192, channel=6, data=[62, 0])\n",
      "midi.NoteOnEvent(tick=0, channel=6, data=[50, 100])\n",
      "midi.NoteOnEvent(tick=192, channel=6, data=[50, 0])\n",
      "midi.NoteOnEvent(tick=192, channel=6, data=[62, 100])\n",
      "midi.NoteOnEvent(tick=96, channel=6, data=[62, 0])\n",
      "midi.NoteOnEvent(tick=0, channel=6, data=[60, 100])\n",
      "midi.NoteOnEvent(tick=96, channel=6, data=[60, 0])\n",
      "midi.NoteOnEvent(tick=0, channel=6, data=[59, 100])\n",
      "midi.NoteOnEvent(tick=192, channel=6, data=[59, 0])\n",
      "midi.NoteOnEvent(tick=0, channel=6, data=[62, 100])\n",
      "midi.NoteOnEvent(tick=192, channel=6, data=[62, 0])\n",
      "midi.NoteOnEvent(tick=0, channel=6, data=[59, 100])\n",
      "midi.NoteOnEvent(tick=192, channel=6, data=[59, 0])\n",
      "midi.NoteOnEvent(tick=0, channel=6, data=[55, 100])\n",
      "midi.NoteOnEvent(tick=192, channel=6, data=[55, 0])\n",
      "midi.NoteOnEvent(tick=0, channel=6, data=[60, 100])\n",
      "midi.NoteOnEvent(tick=192, channel=6, data=[60, 0])\n",
      "midi.NoteOnEvent(tick=0, channel=6, data=[48, 100])\n",
      "midi.NoteOnEvent(tick=192, channel=6, data=[48, 0])\n",
      "midi.NoteOnEvent(tick=192, channel=6, data=[60, 100])\n",
      "midi.NoteOnEvent(tick=96, channel=6, data=[60, 0])\n",
      "midi.NoteOnEvent(tick=0, channel=6, data=[59, 100])\n",
      "midi.NoteOnEvent(tick=96, channel=6, data=[59, 0])\n",
      "midi.NoteOnEvent(tick=0, channel=6, data=[57, 100])\n",
      "midi.NoteOnEvent(tick=96, channel=6, data=[57, 0])\n",
      "midi.NoteOnEvent(tick=0, channel=6, data=[59, 100])\n",
      "midi.NoteOnEvent(tick=96, channel=6, data=[59, 0])\n",
      "midi.NoteOnEvent(tick=0, channel=6, data=[57, 100])\n",
      "midi.NoteOnEvent(tick=96, channel=6, data=[57, 0])\n",
      "midi.NoteOnEvent(tick=0, channel=6, data=[55, 100])\n",
      "midi.NoteOnEvent(tick=96, channel=6, data=[55, 0])\n",
      "midi.NoteOnEvent(tick=0, channel=6, data=[54, 100])\n",
      "midi.NoteOnEvent(tick=96, channel=6, data=[54, 0])\n",
      "midi.NoteOnEvent(tick=0, channel=6, data=[55, 100])\n",
      "midi.NoteOnEvent(tick=96, channel=6, data=[55, 0])\n",
      "midi.NoteOnEvent(tick=0, channel=6, data=[54, 100])\n",
      "midi.NoteOnEvent(tick=96, channel=6, data=[54, 0])\n",
      "midi.NoteOnEvent(tick=0, channel=6, data=[52, 100])\n",
      "midi.NoteOnEvent(tick=96, channel=6, data=[52, 0])\n",
      "midi.NoteOnEvent(tick=0, channel=6, data=[51, 100])\n",
      "midi.NoteOnEvent(tick=96, channel=6, data=[51, 0])\n",
      "midi.NoteOnEvent(tick=0, channel=6, data=[47, 100])\n",
      "midi.NoteOnEvent(tick=96, channel=6, data=[47, 0])\n"
     ]
    },
    {
     "name": "stdout",
     "output_type": "stream",
     "text": [
      "midi.NoteOnEvent(tick=0, channel=6, data=[49, 100])\n",
      "midi.NoteOnEvent(tick=96, channel=6, data=[49, 0])\n",
      "midi.NoteOnEvent(tick=0, channel=6, data=[51, 100])\n",
      "midi.NoteOnEvent(tick=96, channel=6, data=[51, 0])\n",
      "midi.NoteOnEvent(tick=0, channel=6, data=[52, 100])\n",
      "midi.NoteOnEvent(tick=96, channel=6, data=[52, 0])\n",
      "midi.NoteOnEvent(tick=0, channel=6, data=[54, 100])\n",
      "midi.NoteOnEvent(tick=96, channel=6, data=[54, 0])\n",
      "midi.NoteOnEvent(tick=0, channel=6, data=[55, 100])\n",
      "midi.NoteOnEvent(tick=96, channel=6, data=[55, 0])\n",
      "midi.NoteOnEvent(tick=0, channel=6, data=[52, 100])\n",
      "midi.NoteOnEvent(tick=96, channel=6, data=[52, 0])\n",
      "midi.NoteOnEvent(tick=0, channel=6, data=[48, 100])\n",
      "midi.NoteOnEvent(tick=192, channel=6, data=[48, 0])\n",
      "midi.NoteOnEvent(tick=0, channel=6, data=[47, 100])\n",
      "midi.NoteOnEvent(tick=192, channel=6, data=[47, 0])\n",
      "midi.NoteOnEvent(tick=0, channel=6, data=[48, 100])\n",
      "midi.NoteOnEvent(tick=192, channel=6, data=[48, 0])\n",
      "midi.NoteOnEvent(tick=0, channel=6, data=[45, 100])\n",
      "midi.NoteOnEvent(tick=192, channel=6, data=[45, 0])\n",
      "midi.NoteOnEvent(tick=0, channel=6, data=[47, 100])\n",
      "midi.NoteOnEvent(tick=288, channel=6, data=[47, 0])\n",
      "midi.NoteOnEvent(tick=0, channel=6, data=[49, 100])\n",
      "midi.NoteOnEvent(tick=48, channel=6, data=[49, 0])\n",
      "midi.NoteOnEvent(tick=0, channel=6, data=[51, 100])\n",
      "midi.NoteOnEvent(tick=48, channel=6, data=[51, 0])\n",
      "midi.NoteOnEvent(tick=0, channel=6, data=[52, 100])\n",
      "midi.NoteOnEvent(tick=96, channel=6, data=[52, 0])\n",
      "midi.NoteOnEvent(tick=0, channel=6, data=[54, 100])\n",
      "midi.NoteOnEvent(tick=96, channel=6, data=[54, 0])\n",
      "midi.NoteOnEvent(tick=0, channel=6, data=[55, 100])\n",
      "midi.NoteOnEvent(tick=96, channel=6, data=[55, 0])\n",
      "midi.NoteOnEvent(tick=0, channel=6, data=[57, 100])\n",
      "midi.NoteOnEvent(tick=96, channel=6, data=[57, 0])\n",
      "midi.NoteOnEvent(tick=0, channel=6, data=[59, 100])\n",
      "midi.NoteOnEvent(tick=192, channel=6, data=[59, 0])\n",
      "midi.NoteOnEvent(tick=0, channel=6, data=[57, 100])\n",
      "midi.NoteOnEvent(tick=192, channel=6, data=[57, 0])\n",
      "midi.NoteOnEvent(tick=0, channel=6, data=[59, 100])\n",
      "midi.NoteOnEvent(tick=192, channel=6, data=[59, 0])\n",
      "midi.NoteOnEvent(tick=0, channel=6, data=[47, 100])\n",
      "midi.NoteOnEvent(tick=192, channel=6, data=[47, 0])\n",
      "midi.NoteOnEvent(tick=0, channel=6, data=[57, 100])\n",
      "midi.NoteOnEvent(tick=192, channel=6, data=[57, 0])\n",
      "midi.NoteOnEvent(tick=0, channel=6, data=[55, 100])\n",
      "midi.NoteOnEvent(tick=192, channel=6, data=[55, 0])\n",
      "midi.NoteOnEvent(tick=0, channel=6, data=[57, 100])\n",
      "midi.NoteOnEvent(tick=192, channel=6, data=[57, 0])\n",
      "midi.NoteOnEvent(tick=0, channel=6, data=[45, 100])\n",
      "midi.NoteOnEvent(tick=192, channel=6, data=[45, 0])\n",
      "midi.NoteOnEvent(tick=0, channel=6, data=[43, 100])\n",
      "midi.NoteOnEvent(tick=192, channel=6, data=[43, 0])\n",
      "midi.NoteOnEvent(tick=0, channel=6, data=[48, 100])\n",
      "midi.NoteOnEvent(tick=192, channel=6, data=[48, 0])\n",
      "midi.NoteOnEvent(tick=0, channel=6, data=[45, 100])\n",
      "midi.NoteOnEvent(tick=192, channel=6, data=[45, 0])\n",
      "midi.NoteOnEvent(tick=0, channel=6, data=[47, 100])\n",
      "midi.NoteOnEvent(tick=192, channel=6, data=[47, 0])\n",
      "midi.NoteOnEvent(tick=0, channel=6, data=[40, 100])\n",
      "midi.NoteOnEvent(tick=384, channel=6, data=[40, 0])\n",
      "midi.NoteOnEvent(tick=192, channel=6, data=[60, 100])\n",
      "midi.NoteOnEvent(tick=192, channel=6, data=[60, 0])\n",
      "midi.NoteOnEvent(tick=0, channel=6, data=[51, 100])\n",
      "midi.NoteOnEvent(tick=192, channel=6, data=[51, 0])\n",
      "midi.NoteOnEvent(tick=0, channel=6, data=[51, 100])\n",
      "midi.NoteOnEvent(tick=192, channel=6, data=[51, 0])\n",
      "midi.NoteOnEvent(tick=0, channel=6, data=[51, 100])\n",
      "midi.NoteOnEvent(tick=192, channel=6, data=[51, 0])\n",
      "midi.NoteOnEvent(tick=0, channel=6, data=[54, 100])\n",
      "midi.NoteOnEvent(tick=192, channel=6, data=[54, 0])\n",
      "midi.NoteOnEvent(tick=0, channel=6, data=[45, 100])\n",
      "midi.NoteOnEvent(tick=192, channel=6, data=[45, 0])\n",
      "midi.NoteOnEvent(tick=0, channel=6, data=[45, 100])\n",
      "midi.NoteOnEvent(tick=192, channel=6, data=[45, 0])\n",
      "midi.NoteOnEvent(tick=0, channel=6, data=[45, 100])\n",
      "midi.NoteOnEvent(tick=192, channel=6, data=[45, 0])\n",
      "midi.NoteOnEvent(tick=0, channel=6, data=[48, 100])\n",
      "midi.NoteOnEvent(tick=192, channel=6, data=[48, 0])\n",
      "midi.NoteOnEvent(tick=0, channel=6, data=[42, 100])\n",
      "midi.NoteOnEvent(tick=192, channel=6, data=[42, 0])\n",
      "midi.NoteOnEvent(tick=0, channel=6, data=[40, 100])\n",
      "midi.NoteOnEvent(tick=192, channel=6, data=[40, 0])\n",
      "midi.NoteOnEvent(tick=0, channel=6, data=[47, 100])\n",
      "midi.NoteOnEvent(tick=192, channel=6, data=[47, 0])\n",
      "midi.NoteOnEvent(tick=0, channel=6, data=[47, 100])\n",
      "midi.NoteOnEvent(tick=192, channel=6, data=[47, 0])\n",
      "midi.NoteOnEvent(tick=0, channel=6, data=[40, 100])\n",
      "midi.NoteOnEvent(tick=192, channel=6, data=[40, 0])\n",
      "midi.NoteOnEvent(tick=0, channel=6, data=[52, 100])\n",
      "midi.NoteOnEvent(tick=96, channel=6, data=[52, 0])\n",
      "midi.NoteOnEvent(tick=0, channel=6, data=[50, 100])\n",
      "midi.NoteOnEvent(tick=96, channel=6, data=[50, 0])\n",
      "midi.NoteOnEvent(tick=0, channel=6, data=[48, 100])\n",
      "midi.NoteOnEvent(tick=192, channel=6, data=[48, 0])\n",
      "midi.NoteOnEvent(tick=0, channel=6, data=[47, 100])\n",
      "midi.NoteOnEvent(tick=192, channel=6, data=[47, 0])\n",
      "midi.NoteOnEvent(tick=0, channel=6, data=[45, 100])\n",
      "midi.NoteOnEvent(tick=384, channel=6, data=[45, 0])\n",
      "midi.NoteOnEvent(tick=192, channel=6, data=[57, 100])\n",
      "midi.NoteOnEvent(tick=192, channel=6, data=[57, 0])\n",
      "midi.NoteOnEvent(tick=0, channel=6, data=[64, 100])\n",
      "midi.NoteOnEvent(tick=384, channel=6, data=[64, 0])\n",
      "midi.NoteOnEvent(tick=192, channel=6, data=[52, 100])\n",
      "midi.NoteOnEvent(tick=192, channel=6, data=[52, 0])\n",
      "midi.NoteOnEvent(tick=0, channel=6, data=[44, 100])\n",
      "midi.NoteOnEvent(tick=384, channel=6, data=[44, 0])\n",
      "midi.NoteOnEvent(tick=192, channel=6, data=[52, 100])\n",
      "midi.NoteOnEvent(tick=192, channel=6, data=[52, 0])\n",
      "midi.NoteOnEvent(tick=0, channel=6, data=[57, 100])\n",
      "midi.NoteOnEvent(tick=384, channel=6, data=[57, 0])\n",
      "midi.NoteOnEvent(tick=192, channel=6, data=[57, 100])\n",
      "midi.NoteOnEvent(tick=192, channel=6, data=[57, 0])\n",
      "midi.NoteOnEvent(tick=0, channel=6, data=[45, 100])\n",
      "midi.NoteOnEvent(tick=192, channel=6, data=[45, 0])\n",
      "midi.NoteOnEvent(tick=0, channel=6, data=[48, 100])\n",
      "midi.NoteOnEvent(tick=192, channel=6, data=[48, 0])\n",
      "midi.NoteOnEvent(tick=0, channel=6, data=[50, 100])\n",
      "midi.NoteOnEvent(tick=192, channel=6, data=[50, 0])\n",
      "midi.NoteOnEvent(tick=0, channel=6, data=[53, 100])\n",
      "midi.NoteOnEvent(tick=192, channel=6, data=[53, 0])\n",
      "midi.NoteOnEvent(tick=0, channel=6, data=[43, 100])\n",
      "midi.NoteOnEvent(tick=192, channel=6, data=[43, 0])\n",
      "midi.NoteOnEvent(tick=0, channel=6, data=[47, 100])\n",
      "midi.NoteOnEvent(tick=192, channel=6, data=[47, 0])\n",
      "midi.NoteOnEvent(tick=0, channel=6, data=[48, 100])\n",
      "midi.NoteOnEvent(tick=192, channel=6, data=[48, 0])\n",
      "midi.NoteOnEvent(tick=0, channel=6, data=[52, 100])\n",
      "midi.NoteOnEvent(tick=192, channel=6, data=[52, 0])\n",
      "midi.NoteOnEvent(tick=0, channel=6, data=[53, 100])\n",
      "midi.NoteOnEvent(tick=192, channel=6, data=[53, 0])\n",
      "midi.NoteOnEvent(tick=0, channel=6, data=[57, 100])\n",
      "midi.NoteOnEvent(tick=192, channel=6, data=[57, 0])\n",
      "midi.NoteOnEvent(tick=0, channel=6, data=[47, 100])\n",
      "midi.NoteOnEvent(tick=192, channel=6, data=[47, 0])\n",
      "midi.NoteOnEvent(tick=0, channel=6, data=[50, 100])\n",
      "midi.NoteOnEvent(tick=192, channel=6, data=[50, 0])\n",
      "midi.NoteOnEvent(tick=0, channel=6, data=[40, 100])\n",
      "midi.NoteOnEvent(tick=192, channel=6, data=[40, 0])\n",
      "midi.NoteOnEvent(tick=0, channel=6, data=[52, 100])\n",
      "midi.NoteOnEvent(tick=192, channel=6, data=[52, 0])\n",
      "midi.NoteOnEvent(tick=0, channel=6, data=[56, 100])\n",
      "midi.NoteOnEvent(tick=192, channel=6, data=[56, 0])\n",
      "midi.NoteOnEvent(tick=0, channel=6, data=[52, 100])\n",
      "midi.NoteOnEvent(tick=192, channel=6, data=[52, 0])\n",
      "midi.NoteOnEvent(tick=192, channel=6, data=[57, 100])\n",
      "midi.NoteOnEvent(tick=192, channel=6, data=[57, 0])\n",
      "midi.NoteOnEvent(tick=0, channel=6, data=[60, 100])\n",
      "midi.NoteOnEvent(tick=192, channel=6, data=[60, 0])\n",
      "midi.NoteOnEvent(tick=0, channel=6, data=[57, 100])\n",
      "midi.NoteOnEvent(tick=192, channel=6, data=[57, 0])\n",
      "midi.NoteOnEvent(tick=192, channel=6, data=[57, 100])\n",
      "midi.NoteOnEvent(tick=192, channel=6, data=[57, 0])\n",
      "midi.NoteOnEvent(tick=0, channel=6, data=[53, 100])\n",
      "midi.NoteOnEvent(tick=192, channel=6, data=[53, 0])\n",
      "midi.NoteOnEvent(tick=0, channel=6, data=[50, 100])\n",
      "midi.NoteOnEvent(tick=192, channel=6, data=[50, 0])\n",
      "midi.NoteOnEvent(tick=192, channel=6, data=[55, 100])\n",
      "midi.NoteOnEvent(tick=192, channel=6, data=[55, 0])\n",
      "midi.NoteOnEvent(tick=0, channel=6, data=[59, 100])\n",
      "midi.NoteOnEvent(tick=192, channel=6, data=[59, 0])\n",
      "midi.NoteOnEvent(tick=0, channel=6, data=[55, 100])\n",
      "midi.NoteOnEvent(tick=192, channel=6, data=[55, 0])\n",
      "midi.NoteOnEvent(tick=192, channel=6, data=[55, 100])\n",
      "midi.NoteOnEvent(tick=192, channel=6, data=[55, 0])\n",
      "midi.NoteOnEvent(tick=0, channel=6, data=[52, 100])\n",
      "midi.NoteOnEvent(tick=192, channel=6, data=[52, 0])\n",
      "midi.NoteOnEvent(tick=0, channel=6, data=[48, 100])\n",
      "midi.NoteOnEvent(tick=192, channel=6, data=[48, 0])\n",
      "midi.NoteOnEvent(tick=192, channel=6, data=[53, 100])\n",
      "midi.NoteOnEvent(tick=192, channel=6, data=[53, 0])\n",
      "midi.NoteOnEvent(tick=0, channel=6, data=[57, 100])\n",
      "midi.NoteOnEvent(tick=192, channel=6, data=[57, 0])\n",
      "midi.NoteOnEvent(tick=0, channel=6, data=[53, 100])\n",
      "midi.NoteOnEvent(tick=192, channel=6, data=[53, 0])\n",
      "midi.NoteOnEvent(tick=192, channel=6, data=[53, 100])\n",
      "midi.NoteOnEvent(tick=192, channel=6, data=[53, 0])\n",
      "midi.NoteOnEvent(tick=0, channel=6, data=[50, 100])\n",
      "midi.NoteOnEvent(tick=192, channel=6, data=[50, 0])\n",
      "midi.NoteOnEvent(tick=0, channel=6, data=[47, 100])\n",
      "midi.NoteOnEvent(tick=192, channel=6, data=[47, 0])\n",
      "midi.NoteOnEvent(tick=192, channel=6, data=[52, 100])\n",
      "midi.NoteOnEvent(tick=192, channel=6, data=[52, 0])\n",
      "midi.NoteOnEvent(tick=0, channel=6, data=[56, 100])\n",
      "midi.NoteOnEvent(tick=192, channel=6, data=[56, 0])\n",
      "midi.NoteOnEvent(tick=0, channel=6, data=[52, 100])\n",
      "midi.NoteOnEvent(tick=192, channel=6, data=[52, 0])\n",
      "midi.NoteOnEvent(tick=192, channel=6, data=[52, 100])\n",
      "midi.NoteOnEvent(tick=192, channel=6, data=[52, 0])\n",
      "midi.NoteOnEvent(tick=0, channel=6, data=[48, 100])\n",
      "midi.NoteOnEvent(tick=192, channel=6, data=[48, 0])\n",
      "midi.NoteOnEvent(tick=0, channel=6, data=[45, 100])\n",
      "midi.NoteOnEvent(tick=192, channel=6, data=[45, 0])\n",
      "midi.NoteOnEvent(tick=0, channel=6, data=[57, 100])\n",
      "midi.NoteOnEvent(tick=384, channel=6, data=[57, 0])\n",
      "midi.NoteOnEvent(tick=192, channel=6, data=[45, 100])\n",
      "midi.NoteOnEvent(tick=192, channel=6, data=[45, 0])\n",
      "midi.NoteOnEvent(tick=0, channel=6, data=[57, 100])\n",
      "midi.NoteOnEvent(tick=192, channel=6, data=[57, 0])\n",
      "midi.NoteOnEvent(tick=0, channel=6, data=[45, 100])\n",
      "midi.NoteOnEvent(tick=192, channel=6, data=[45, 0])\n",
      "midi.NoteOnEvent(tick=0, channel=6, data=[52, 100])\n",
      "midi.NoteOnEvent(tick=192, channel=6, data=[52, 0])\n",
      "midi.NoteOnEvent(tick=0, channel=6, data=[40, 100])\n",
      "midi.NoteOnEvent(tick=192, channel=6, data=[40, 0])\n",
      "midi.NoteOnEvent(tick=0, channel=6, data=[45, 100])\n",
      "midi.NoteOnEvent(tick=192, channel=6, data=[45, 0])\n",
      "midi.NoteOnEvent(tick=0, channel=6, data=[57, 100])\n",
      "midi.NoteOnEvent(tick=96, channel=6, data=[57, 0])\n",
      "midi.NoteOnEvent(tick=0, channel=6, data=[59, 100])\n",
      "midi.NoteOnEvent(tick=96, channel=6, data=[59, 0])\n",
      "midi.NoteOnEvent(tick=0, channel=6, data=[60, 100])\n",
      "midi.NoteOnEvent(tick=192, channel=6, data=[60, 0])\n",
      "midi.NoteOnEvent(tick=0, channel=6, data=[57, 100])\n",
      "midi.NoteOnEvent(tick=192, channel=6, data=[57, 0])\n",
      "midi.NoteOnEvent(tick=0, channel=6, data=[45, 100])\n",
      "midi.NoteOnEvent(tick=192, channel=6, data=[45, 0])\n",
      "midi.NoteOnEvent(tick=768, channel=6, data=[55, 100])\n",
      "midi.NoteOnEvent(tick=96, channel=6, data=[55, 0])\n",
      "midi.NoteOnEvent(tick=0, channel=6, data=[57, 100])\n",
      "midi.NoteOnEvent(tick=96, channel=6, data=[57, 0])\n",
      "midi.NoteOnEvent(tick=0, channel=6, data=[59, 100])\n",
      "midi.NoteOnEvent(tick=192, channel=6, data=[59, 0])\n",
      "midi.NoteOnEvent(tick=0, channel=6, data=[55, 100])\n",
      "midi.NoteOnEvent(tick=192, channel=6, data=[55, 0])\n",
      "midi.NoteOnEvent(tick=0, channel=6, data=[43, 100])\n",
      "midi.NoteOnEvent(tick=192, channel=6, data=[43, 0])\n",
      "midi.NoteOnEvent(tick=768, channel=6, data=[53, 100])\n",
      "midi.NoteOnEvent(tick=96, channel=6, data=[53, 0])\n",
      "midi.NoteOnEvent(tick=0, channel=6, data=[55, 100])\n",
      "midi.NoteOnEvent(tick=96, channel=6, data=[55, 0])\n",
      "midi.NoteOnEvent(tick=0, channel=6, data=[57, 100])\n",
      "midi.NoteOnEvent(tick=192, channel=6, data=[57, 0])\n",
      "midi.NoteOnEvent(tick=0, channel=6, data=[53, 100])\n",
      "midi.NoteOnEvent(tick=192, channel=6, data=[53, 0])\n",
      "midi.NoteOnEvent(tick=0, channel=6, data=[41, 100])\n",
      "midi.NoteOnEvent(tick=192, channel=6, data=[41, 0])\n",
      "midi.NoteOnEvent(tick=768, channel=6, data=[53, 100])\n",
      "midi.NoteOnEvent(tick=192, channel=6, data=[53, 0])\n",
      "midi.NoteOnEvent(tick=0, channel=6, data=[52, 100])\n",
      "midi.NoteOnEvent(tick=192, channel=6, data=[52, 0])\n",
      "midi.NoteOnEvent(tick=0, channel=6, data=[50, 100])\n",
      "midi.NoteOnEvent(tick=192, channel=6, data=[50, 0])\n",
      "midi.NoteOnEvent(tick=0, channel=6, data=[48, 100])\n",
      "midi.NoteOnEvent(tick=192, channel=6, data=[48, 0])\n",
      "midi.NoteOnEvent(tick=0, channel=6, data=[60, 100])\n",
      "midi.NoteOnEvent(tick=192, channel=6, data=[60, 0])\n",
      "midi.NoteOnEvent(tick=0, channel=6, data=[59, 100])\n",
      "midi.NoteOnEvent(tick=192, channel=6, data=[59, 0])\n",
      "midi.NoteOnEvent(tick=0, channel=6, data=[57, 100])\n",
      "midi.NoteOnEvent(tick=192, channel=6, data=[57, 0])\n",
      "midi.NoteOnEvent(tick=0, channel=6, data=[55, 100])\n",
      "midi.NoteOnEvent(tick=192, channel=6, data=[55, 0])\n",
      "midi.NoteOnEvent(tick=0, channel=6, data=[57, 100])\n",
      "midi.NoteOnEvent(tick=192, channel=6, data=[57, 0])\n",
      "midi.NoteOnEvent(tick=0, channel=6, data=[55, 100])\n",
      "midi.NoteOnEvent(tick=192, channel=6, data=[55, 0])\n",
      "midi.NoteOnEvent(tick=0, channel=6, data=[53, 100])\n",
      "midi.NoteOnEvent(tick=192, channel=6, data=[53, 0])\n",
      "midi.NoteOnEvent(tick=0, channel=6, data=[52, 100])\n",
      "midi.NoteOnEvent(tick=192, channel=6, data=[52, 0])\n",
      "midi.NoteOnEvent(tick=0, channel=6, data=[55, 100])\n",
      "midi.NoteOnEvent(tick=192, channel=6, data=[55, 0])\n",
      "midi.NoteOnEvent(tick=0, channel=6, data=[52, 100])\n",
      "midi.NoteOnEvent(tick=192, channel=6, data=[52, 0])\n",
      "midi.NoteOnEvent(tick=0, channel=6, data=[48, 100])\n",
      "midi.NoteOnEvent(tick=192, channel=6, data=[48, 0])\n",
      "midi.NoteOnEvent(tick=0, channel=6, data=[53, 100])\n",
      "midi.NoteOnEvent(tick=192, channel=6, data=[53, 0])\n",
      "midi.NoteOnEvent(tick=0, channel=6, data=[57, 100])\n",
      "midi.NoteOnEvent(tick=192, channel=6, data=[57, 0])\n",
      "midi.NoteOnEvent(tick=0, channel=6, data=[53, 100])\n",
      "midi.NoteOnEvent(tick=192, channel=6, data=[53, 0])\n",
      "midi.NoteOnEvent(tick=0, channel=6, data=[50, 100])\n",
      "midi.NoteOnEvent(tick=192, channel=6, data=[50, 0])\n",
      "midi.NoteOnEvent(tick=0, channel=6, data=[52, 100])\n",
      "midi.NoteOnEvent(tick=192, channel=6, data=[52, 0])\n",
      "midi.NoteOnEvent(tick=0, channel=6, data=[48, 100])\n",
      "midi.NoteOnEvent(tick=192, channel=6, data=[48, 0])\n",
      "midi.NoteOnEvent(tick=0, channel=6, data=[55, 100])\n",
      "midi.NoteOnEvent(tick=192, channel=6, data=[55, 0])\n",
      "midi.NoteOnEvent(tick=0, channel=6, data=[43, 100])\n",
      "midi.NoteOnEvent(tick=192, channel=6, data=[43, 0])\n",
      "midi.NoteOnEvent(tick=0, channel=6, data=[36, 100])\n",
      "midi.NoteOnEvent(tick=192, channel=6, data=[36, 0])\n",
      "midi.NoteOnEvent(tick=0, channel=6, data=[48, 100])\n",
      "midi.NoteOnEvent(tick=96, channel=6, data=[48, 0])\n",
      "midi.NoteOnEvent(tick=0, channel=6, data=[50, 100])\n",
      "midi.NoteOnEvent(tick=96, channel=6, data=[50, 0])\n",
      "midi.NoteOnEvent(tick=0, channel=6, data=[52, 100])\n",
      "midi.NoteOnEvent(tick=192, channel=6, data=[52, 0])\n",
      "midi.NoteOnEvent(tick=0, channel=6, data=[48, 100])\n",
      "midi.NoteOnEvent(tick=192, channel=6, data=[48, 0])\n",
      "midi.NoteOnEvent(tick=0, channel=6, data=[47, 100])\n",
      "midi.NoteOnEvent(tick=192, channel=6, data=[47, 0])\n",
      "midi.NoteOnEvent(tick=0, channel=6, data=[55, 100])\n",
      "midi.NoteOnEvent(tick=192, channel=6, data=[55, 0])\n",
      "midi.NoteOnEvent(tick=0, channel=6, data=[48, 100])\n",
      "midi.NoteOnEvent(tick=192, channel=6, data=[48, 0])\n",
      "midi.NoteOnEvent(tick=0, channel=6, data=[55, 100])\n",
      "midi.NoteOnEvent(tick=192, channel=6, data=[55, 0])\n",
      "midi.NoteOnEvent(tick=0, channel=6, data=[50, 100])\n",
      "midi.NoteOnEvent(tick=192, channel=6, data=[50, 0])\n",
      "midi.NoteOnEvent(tick=0, channel=6, data=[55, 100])\n",
      "midi.NoteOnEvent(tick=192, channel=6, data=[55, 0])\n",
      "midi.NoteOnEvent(tick=0, channel=6, data=[52, 100])\n",
      "midi.NoteOnEvent(tick=192, channel=6, data=[52, 0])\n",
      "midi.NoteOnEvent(tick=0, channel=6, data=[55, 100])\n",
      "midi.NoteOnEvent(tick=192, channel=6, data=[55, 0])\n",
      "midi.NoteOnEvent(tick=0, channel=6, data=[53, 100])\n",
      "midi.NoteOnEvent(tick=192, channel=6, data=[53, 0])\n",
      "midi.NoteOnEvent(tick=0, channel=6, data=[55, 100])\n",
      "midi.NoteOnEvent(tick=192, channel=6, data=[55, 0])\n",
      "midi.NoteOnEvent(tick=0, channel=6, data=[57, 100])\n",
      "midi.NoteOnEvent(tick=192, channel=6, data=[57, 0])\n",
      "midi.NoteOnEvent(tick=0, channel=6, data=[53, 100])\n",
      "midi.NoteOnEvent(tick=192, channel=6, data=[53, 0])\n",
      "midi.NoteOnEvent(tick=0, channel=6, data=[55, 100])\n",
      "midi.NoteOnEvent(tick=96, channel=6, data=[55, 0])\n",
      "midi.NoteOnEvent(tick=0, channel=6, data=[57, 100])\n",
      "midi.NoteOnEvent(tick=96, channel=6, data=[57, 0])\n",
      "midi.NoteOnEvent(tick=0, channel=6, data=[59, 100])\n",
      "midi.NoteOnEvent(tick=96, channel=6, data=[59, 0])\n",
      "midi.NoteOnEvent(tick=0, channel=6, data=[57, 100])\n",
      "midi.NoteOnEvent(tick=96, channel=6, data=[57, 0])\n",
      "midi.NoteOnEvent(tick=0, channel=6, data=[55, 100])\n",
      "midi.NoteOnEvent(tick=96, channel=6, data=[55, 0])\n",
      "midi.NoteOnEvent(tick=0, channel=6, data=[53, 100])\n",
      "midi.NoteOnEvent(tick=96, channel=6, data=[53, 0])\n",
      "midi.NoteOnEvent(tick=0, channel=6, data=[52, 100])\n",
      "midi.NoteOnEvent(tick=96, channel=6, data=[52, 0])\n",
      "midi.NoteOnEvent(tick=0, channel=6, data=[50, 100])\n",
      "midi.NoteOnEvent(tick=96, channel=6, data=[50, 0])\n",
      "midi.NoteOnEvent(tick=0, channel=6, data=[48, 100])\n",
      "midi.NoteOnEvent(tick=192, channel=6, data=[48, 0])\n",
      "midi.NoteOnEvent(tick=0, channel=6, data=[52, 100])\n",
      "midi.NoteOnEvent(tick=192, channel=6, data=[52, 0])\n",
      "midi.NoteOnEvent(tick=0, channel=6, data=[48, 100])\n",
      "midi.NoteOnEvent(tick=192, channel=6, data=[48, 0])\n",
      "midi.NoteOnEvent(tick=0, channel=6, data=[45, 100])\n",
      "midi.NoteOnEvent(tick=192, channel=6, data=[45, 0])\n",
      "midi.NoteOnEvent(tick=0, channel=6, data=[50, 100])\n",
      "midi.NoteOnEvent(tick=192, channel=6, data=[50, 0])\n",
      "midi.NoteOnEvent(tick=0, channel=6, data=[38, 100])\n",
      "midi.NoteOnEvent(tick=192, channel=6, data=[38, 0])\n",
      "midi.NoteOnEvent(tick=1344, channel=6, data=[54, 100])\n",
      "midi.NoteOnEvent(tick=96, channel=6, data=[54, 0])\n",
      "midi.NoteOnEvent(tick=0, channel=6, data=[52, 100])\n",
      "midi.NoteOnEvent(tick=96, channel=6, data=[52, 0])\n",
      "midi.NoteOnEvent(tick=0, channel=6, data=[50, 100])\n",
      "midi.NoteOnEvent(tick=96, channel=6, data=[50, 0])\n",
      "midi.NoteOnEvent(tick=0, channel=6, data=[48, 100])\n",
      "midi.NoteOnEvent(tick=96, channel=6, data=[48, 0])\n",
      "midi.NoteOnEvent(tick=0, channel=6, data=[47, 100])\n",
      "midi.NoteOnEvent(tick=96, channel=6, data=[47, 0])\n",
      "midi.NoteOnEvent(tick=0, channel=6, data=[45, 100])\n",
      "midi.NoteOnEvent(tick=96, channel=6, data=[45, 0])\n",
      "midi.NoteOnEvent(tick=0, channel=6, data=[47, 100])\n",
      "midi.NoteOnEvent(tick=192, channel=6, data=[47, 0])\n",
      "midi.NoteOnEvent(tick=0, channel=6, data=[50, 100])\n",
      "midi.NoteOnEvent(tick=192, channel=6, data=[50, 0])\n",
      "midi.NoteOnEvent(tick=0, channel=6, data=[47, 100])\n",
      "midi.NoteOnEvent(tick=192, channel=6, data=[47, 0])\n",
      "midi.NoteOnEvent(tick=0, channel=6, data=[43, 100])\n",
      "midi.NoteOnEvent(tick=192, channel=6, data=[43, 0])\n",
      "midi.NoteOnEvent(tick=0, channel=6, data=[48, 100])\n",
      "midi.NoteOnEvent(tick=192, channel=6, data=[48, 0])\n",
      "midi.NoteOnEvent(tick=0, channel=6, data=[36, 100])\n",
      "midi.NoteOnEvent(tick=192, channel=6, data=[36, 0])\n",
      "midi.NoteOnEvent(tick=1344, channel=6, data=[60, 100])\n",
      "midi.NoteOnEvent(tick=96, channel=6, data=[60, 0])\n",
      "midi.NoteOnEvent(tick=0, channel=6, data=[59, 100])\n",
      "midi.NoteOnEvent(tick=96, channel=6, data=[59, 0])\n",
      "midi.NoteOnEvent(tick=0, channel=6, data=[60, 100])\n",
      "midi.NoteOnEvent(tick=96, channel=6, data=[60, 0])\n",
      "midi.NoteOnEvent(tick=0, channel=6, data=[62, 100])\n",
      "midi.NoteOnEvent(tick=96, channel=6, data=[62, 0])\n",
      "midi.NoteOnEvent(tick=0, channel=6, data=[60, 100])\n",
      "midi.NoteOnEvent(tick=96, channel=6, data=[60, 0])\n",
      "midi.NoteOnEvent(tick=0, channel=6, data=[59, 100])\n",
      "midi.NoteOnEvent(tick=96, channel=6, data=[59, 0])\n",
      "midi.NoteOnEvent(tick=0, channel=6, data=[57, 100])\n",
      "midi.NoteOnEvent(tick=96, channel=6, data=[57, 0])\n",
      "midi.NoteOnEvent(tick=0, channel=6, data=[59, 100])\n",
      "midi.NoteOnEvent(tick=96, channel=6, data=[59, 0])\n",
      "midi.NoteOnEvent(tick=0, channel=6, data=[57, 100])\n",
      "midi.NoteOnEvent(tick=96, channel=6, data=[57, 0])\n",
      "midi.NoteOnEvent(tick=0, channel=6, data=[55, 100])\n",
      "midi.NoteOnEvent(tick=96, channel=6, data=[55, 0])\n",
      "midi.NoteOnEvent(tick=0, channel=6, data=[54, 100])\n",
      "midi.NoteOnEvent(tick=96, channel=6, data=[54, 0])\n",
      "midi.NoteOnEvent(tick=0, channel=6, data=[55, 100])\n",
      "midi.NoteOnEvent(tick=96, channel=6, data=[55, 0])\n",
      "midi.NoteOnEvent(tick=0, channel=6, data=[54, 100])\n",
      "midi.NoteOnEvent(tick=96, channel=6, data=[54, 0])\n",
      "midi.NoteOnEvent(tick=0, channel=6, data=[52, 100])\n",
      "midi.NoteOnEvent(tick=96, channel=6, data=[52, 0])\n",
      "midi.NoteOnEvent(tick=0, channel=6, data=[51, 100])\n",
      "midi.NoteOnEvent(tick=96, channel=6, data=[51, 0])\n",
      "midi.NoteOnEvent(tick=0, channel=6, data=[47, 100])\n",
      "midi.NoteOnEvent(tick=96, channel=6, data=[47, 0])\n",
      "midi.NoteOnEvent(tick=0, channel=6, data=[49, 100])\n",
      "midi.NoteOnEvent(tick=96, channel=6, data=[49, 0])\n",
      "midi.NoteOnEvent(tick=0, channel=6, data=[51, 100])\n",
      "midi.NoteOnEvent(tick=96, channel=6, data=[51, 0])\n",
      "midi.NoteOnEvent(tick=0, channel=6, data=[52, 100])\n",
      "midi.NoteOnEvent(tick=96, channel=6, data=[52, 0])\n",
      "midi.NoteOnEvent(tick=0, channel=6, data=[54, 100])\n",
      "midi.NoteOnEvent(tick=96, channel=6, data=[54, 0])\n",
      "midi.NoteOnEvent(tick=0, channel=6, data=[55, 100])\n",
      "midi.NoteOnEvent(tick=96, channel=6, data=[55, 0])\n",
      "midi.NoteOnEvent(tick=0, channel=6, data=[52, 100])\n",
      "midi.NoteOnEvent(tick=96, channel=6, data=[52, 0])\n",
      "midi.NoteOnEvent(tick=0, channel=6, data=[48, 100])\n",
      "midi.NoteOnEvent(tick=192, channel=6, data=[48, 0])\n",
      "midi.NoteOnEvent(tick=0, channel=6, data=[47, 100])\n",
      "midi.NoteOnEvent(tick=192, channel=6, data=[47, 0])\n",
      "midi.NoteOnEvent(tick=0, channel=6, data=[48, 100])\n",
      "midi.NoteOnEvent(tick=192, channel=6, data=[48, 0])\n",
      "midi.NoteOnEvent(tick=0, channel=6, data=[45, 100])\n",
      "midi.NoteOnEvent(tick=192, channel=6, data=[45, 0])\n",
      "midi.NoteOnEvent(tick=0, channel=6, data=[47, 100])\n",
      "midi.NoteOnEvent(tick=288, channel=6, data=[47, 0])\n",
      "midi.NoteOnEvent(tick=0, channel=6, data=[49, 100])\n",
      "midi.NoteOnEvent(tick=48, channel=6, data=[49, 0])\n",
      "midi.NoteOnEvent(tick=0, channel=6, data=[51, 100])\n",
      "midi.NoteOnEvent(tick=48, channel=6, data=[51, 0])\n",
      "midi.NoteOnEvent(tick=0, channel=6, data=[52, 100])\n",
      "midi.NoteOnEvent(tick=96, channel=6, data=[52, 0])\n",
      "midi.NoteOnEvent(tick=0, channel=6, data=[54, 100])\n",
      "midi.NoteOnEvent(tick=96, channel=6, data=[54, 0])\n",
      "midi.NoteOnEvent(tick=0, channel=6, data=[55, 100])\n",
      "midi.NoteOnEvent(tick=96, channel=6, data=[55, 0])\n",
      "midi.NoteOnEvent(tick=0, channel=6, data=[57, 100])\n",
      "midi.NoteOnEvent(tick=96, channel=6, data=[57, 0])\n",
      "midi.NoteOnEvent(tick=0, channel=6, data=[59, 100])\n",
      "midi.NoteOnEvent(tick=192, channel=6, data=[59, 0])\n",
      "midi.NoteOnEvent(tick=0, channel=6, data=[57, 100])\n",
      "midi.NoteOnEvent(tick=192, channel=6, data=[57, 0])\n",
      "midi.NoteOnEvent(tick=0, channel=6, data=[59, 100])\n",
      "midi.NoteOnEvent(tick=192, channel=6, data=[59, 0])\n",
      "midi.NoteOnEvent(tick=0, channel=6, data=[47, 100])\n",
      "midi.NoteOnEvent(tick=192, channel=6, data=[47, 0])\n",
      "midi.NoteOnEvent(tick=0, channel=6, data=[57, 100])\n",
      "midi.NoteOnEvent(tick=192, channel=6, data=[57, 0])\n",
      "midi.NoteOnEvent(tick=0, channel=6, data=[59, 100])\n",
      "midi.NoteOnEvent(tick=192, channel=6, data=[59, 0])\n",
      "midi.NoteOnEvent(tick=0, channel=6, data=[57, 100])\n",
      "midi.NoteOnEvent(tick=192, channel=6, data=[57, 0])\n",
      "midi.NoteOnEvent(tick=0, channel=6, data=[55, 100])\n",
      "midi.NoteOnEvent(tick=192, channel=6, data=[55, 0])\n",
      "midi.NoteOnEvent(tick=0, channel=6, data=[54, 100])\n",
      "midi.NoteOnEvent(tick=192, channel=6, data=[54, 0])\n",
      "midi.NoteOnEvent(tick=0, channel=6, data=[55, 100])\n",
      "midi.NoteOnEvent(tick=192, channel=6, data=[55, 0])\n",
      "midi.NoteOnEvent(tick=0, channel=6, data=[54, 100])\n",
      "midi.NoteOnEvent(tick=192, channel=6, data=[54, 0])\n",
      "midi.NoteOnEvent(tick=0, channel=6, data=[52, 100])\n",
      "midi.NoteOnEvent(tick=192, channel=6, data=[52, 0])\n",
      "midi.NoteOnEvent(tick=0, channel=6, data=[51, 100])\n",
      "midi.NoteOnEvent(tick=192, channel=6, data=[51, 0])\n",
      "midi.NoteOnEvent(tick=0, channel=6, data=[52, 100])\n",
      "midi.NoteOnEvent(tick=192, channel=6, data=[52, 0])\n",
      "midi.NoteOnEvent(tick=0, channel=6, data=[54, 100])\n",
      "midi.NoteOnEvent(tick=192, channel=6, data=[54, 0])\n",
      "midi.NoteOnEvent(tick=0, channel=6, data=[55, 100])\n",
      "midi.NoteOnEvent(tick=192, channel=6, data=[55, 0])\n",
      "midi.NoteOnEvent(tick=0, channel=6, data=[57, 100])\n",
      "midi.NoteOnEvent(tick=192, channel=6, data=[57, 0])\n",
      "midi.NoteOnEvent(tick=0, channel=6, data=[59, 100])\n",
      "midi.NoteOnEvent(tick=192, channel=6, data=[59, 0])\n",
      "midi.NoteOnEvent(tick=0, channel=6, data=[60, 100])\n",
      "midi.NoteOnEvent(tick=192, channel=6, data=[60, 0])\n",
      "midi.NoteOnEvent(tick=0, channel=6, data=[54, 100])\n",
      "midi.NoteOnEvent(tick=192, channel=6, data=[54, 0])\n",
      "midi.NoteOnEvent(tick=0, channel=6, data=[59, 100])\n",
      "midi.NoteOnEvent(tick=192, channel=6, data=[59, 0])\n",
      "midi.NoteOnEvent(tick=0, channel=6, data=[57, 100])\n",
      "midi.NoteOnEvent(tick=96, channel=6, data=[57, 0])\n",
      "midi.NoteOnEvent(tick=0, channel=6, data=[55, 100])\n",
      "midi.NoteOnEvent(tick=96, channel=6, data=[55, 0])\n",
      "midi.NoteOnEvent(tick=0, channel=6, data=[54, 100])\n",
      "midi.NoteOnEvent(tick=192, channel=6, data=[54, 0])\n",
      "midi.NoteOnEvent(tick=0, channel=6, data=[52, 100])\n",
      "midi.NoteOnEvent(tick=192, channel=6, data=[52, 0])\n",
      "midi.NoteOnEvent(tick=0, channel=6, data=[51, 100])\n",
      "midi.NoteOnEvent(tick=192, channel=6, data=[51, 0])\n",
      "midi.NoteOnEvent(tick=0, channel=6, data=[49, 100])\n",
      "midi.NoteOnEvent(tick=192, channel=6, data=[49, 0])\n",
      "midi.NoteOnEvent(tick=0, channel=6, data=[47, 100])\n",
      "midi.NoteOnEvent(tick=192, channel=6, data=[47, 0])\n",
      "midi.NoteOnEvent(tick=0, channel=6, data=[45, 100])\n",
      "midi.NoteOnEvent(tick=192, channel=6, data=[45, 0])\n",
      "midi.NoteOnEvent(tick=0, channel=6, data=[43, 100])\n",
      "midi.NoteOnEvent(tick=192, channel=6, data=[43, 0])\n",
      "midi.NoteOnEvent(tick=0, channel=6, data=[48, 100])\n",
      "midi.NoteOnEvent(tick=192, channel=6, data=[48, 0])\n",
      "midi.NoteOnEvent(tick=0, channel=6, data=[45, 100])\n",
      "midi.NoteOnEvent(tick=192, channel=6, data=[45, 0])\n",
      "midi.NoteOnEvent(tick=0, channel=6, data=[47, 100])\n",
      "midi.NoteOnEvent(tick=192, channel=6, data=[47, 0])\n"
     ]
    },
    {
     "name": "stdout",
     "output_type": "stream",
     "text": [
      "midi.NoteOnEvent(tick=0, channel=6, data=[36, 100])\n",
      "midi.NoteOnEvent(tick=384, channel=6, data=[36, 0])\n",
      "midi.NoteOnEvent(tick=192, channel=6, data=[60, 100])\n",
      "midi.NoteOnEvent(tick=192, channel=6, data=[60, 0])\n",
      "midi.NoteOnEvent(tick=0, channel=6, data=[51, 100])\n",
      "midi.NoteOnEvent(tick=192, channel=6, data=[51, 0])\n",
      "midi.NoteOnEvent(tick=0, channel=6, data=[51, 100])\n",
      "midi.NoteOnEvent(tick=192, channel=6, data=[51, 0])\n",
      "midi.NoteOnEvent(tick=0, channel=6, data=[51, 100])\n",
      "midi.NoteOnEvent(tick=192, channel=6, data=[51, 0])\n",
      "midi.NoteOnEvent(tick=0, channel=6, data=[54, 100])\n",
      "midi.NoteOnEvent(tick=192, channel=6, data=[54, 0])\n",
      "midi.NoteOnEvent(tick=0, channel=6, data=[45, 100])\n",
      "midi.NoteOnEvent(tick=192, channel=6, data=[45, 0])\n",
      "midi.NoteOnEvent(tick=0, channel=6, data=[45, 100])\n",
      "midi.NoteOnEvent(tick=192, channel=6, data=[45, 0])\n",
      "midi.NoteOnEvent(tick=0, channel=6, data=[45, 100])\n",
      "midi.NoteOnEvent(tick=192, channel=6, data=[45, 0])\n",
      "midi.NoteOnEvent(tick=0, channel=6, data=[48, 100])\n",
      "midi.NoteOnEvent(tick=192, channel=6, data=[48, 0])\n",
      "midi.NoteOnEvent(tick=0, channel=6, data=[42, 100])\n",
      "midi.NoteOnEvent(tick=192, channel=6, data=[42, 0])\n",
      "midi.NoteOnEvent(tick=0, channel=6, data=[43, 100])\n",
      "midi.NoteOnEvent(tick=96, channel=6, data=[43, 0])\n",
      "midi.NoteOnEvent(tick=0, channel=6, data=[45, 100])\n",
      "midi.NoteOnEvent(tick=96, channel=6, data=[45, 0])\n",
      "midi.NoteOnEvent(tick=0, channel=6, data=[47, 100])\n",
      "midi.NoteOnEvent(tick=192, channel=6, data=[47, 0])\n",
      "midi.NoteOnEvent(tick=0, channel=6, data=[47, 100])\n",
      "midi.NoteOnEvent(tick=192, channel=6, data=[47, 0])\n",
      "midi.NoteOnEvent(tick=0, channel=6, data=[40, 100])\n",
      "midi.NoteOnEvent(tick=192, channel=6, data=[40, 0])\n",
      "midi.NoteOnEvent(tick=0, channel=6, data=[52, 100])\n",
      "midi.NoteOnEvent(tick=96, channel=6, data=[52, 0])\n",
      "midi.NoteOnEvent(tick=0, channel=6, data=[51, 100])\n",
      "midi.NoteOnEvent(tick=96, channel=6, data=[51, 0])\n",
      "midi.NoteOnEvent(tick=0, channel=6, data=[52, 100])\n",
      "midi.NoteOnEvent(tick=192, channel=6, data=[52, 0])\n",
      "midi.NoteOnEvent(tick=0, channel=6, data=[54, 100])\n",
      "midi.NoteOnEvent(tick=192, channel=6, data=[54, 0])\n",
      "midi.NoteOnEvent(tick=0, channel=6, data=[55, 100])\n",
      "midi.NoteOnEvent(tick=384, channel=6, data=[55, 0])\n",
      "midi.NoteOnEvent(tick=192, channel=6, data=[52, 100])\n",
      "midi.NoteOnEvent(tick=192, channel=6, data=[52, 0])\n",
      "midi.NoteOnEvent(tick=0, channel=6, data=[59, 100])\n",
      "midi.NoteOnEvent(tick=384, channel=6, data=[59, 0])\n",
      "midi.NoteOnEvent(tick=192, channel=6, data=[47, 100])\n",
      "midi.NoteOnEvent(tick=192, channel=6, data=[47, 0])\n",
      "midi.NoteOnEvent(tick=0, channel=6, data=[39, 100])\n",
      "midi.NoteOnEvent(tick=384, channel=6, data=[39, 0])\n",
      "midi.NoteOnEvent(tick=192, channel=6, data=[47, 100])\n",
      "midi.NoteOnEvent(tick=192, channel=6, data=[47, 0])\n",
      "midi.NoteOnEvent(tick=0, channel=6, data=[52, 100])\n",
      "midi.NoteOnEvent(tick=384, channel=6, data=[52, 0])\n",
      "midi.NoteOnEvent(tick=1344, channel=6, data=[52, 100])\n",
      "midi.NoteOnEvent(tick=192, channel=6, data=[52, 0])\n",
      "midi.NoteOnEvent(tick=0, channel=6, data=[40, 100])\n",
      "midi.NoteOnEvent(tick=192, channel=6, data=[40, 0])\n",
      "midi.NoteOnEvent(tick=0, channel=6, data=[52, 100])\n",
      "midi.NoteOnEvent(tick=192, channel=6, data=[52, 0])\n",
      "midi.NoteOnEvent(tick=0, channel=6, data=[45, 100])\n",
      "midi.NoteOnEvent(tick=384, channel=6, data=[45, 0])\n",
      "midi.NoteOnEvent(tick=576, channel=6, data=[57, 100])\n",
      "midi.NoteOnEvent(tick=192, channel=6, data=[57, 0])\n",
      "midi.NoteOnEvent(tick=0, channel=6, data=[45, 100])\n",
      "midi.NoteOnEvent(tick=192, channel=6, data=[45, 0])\n",
      "midi.NoteOnEvent(tick=0, channel=6, data=[57, 100])\n",
      "midi.NoteOnEvent(tick=192, channel=6, data=[57, 0])\n",
      "midi.NoteOnEvent(tick=0, channel=6, data=[50, 100])\n",
      "midi.NoteOnEvent(tick=384, channel=6, data=[50, 0])\n",
      "midi.NoteOnEvent(tick=576, channel=6, data=[50, 100])\n",
      "midi.NoteOnEvent(tick=192, channel=6, data=[50, 0])\n",
      "midi.NoteOnEvent(tick=0, channel=6, data=[38, 100])\n",
      "midi.NoteOnEvent(tick=192, channel=6, data=[38, 0])\n",
      "midi.NoteOnEvent(tick=0, channel=6, data=[50, 100])\n",
      "midi.NoteOnEvent(tick=192, channel=6, data=[50, 0])\n",
      "midi.NoteOnEvent(tick=0, channel=6, data=[43, 100])\n",
      "midi.NoteOnEvent(tick=384, channel=6, data=[43, 0])\n",
      "midi.NoteOnEvent(tick=576, channel=6, data=[55, 100])\n",
      "midi.NoteOnEvent(tick=192, channel=6, data=[55, 0])\n",
      "midi.NoteOnEvent(tick=0, channel=6, data=[43, 100])\n",
      "midi.NoteOnEvent(tick=192, channel=6, data=[43, 0])\n",
      "midi.NoteOnEvent(tick=0, channel=6, data=[55, 100])\n",
      "midi.NoteOnEvent(tick=192, channel=6, data=[55, 0])\n",
      "midi.NoteOnEvent(tick=0, channel=6, data=[48, 100])\n",
      "midi.NoteOnEvent(tick=384, channel=6, data=[48, 0])\n",
      "midi.NoteOnEvent(tick=0, channel=6, data=[58, 100])\n",
      "midi.NoteOnEvent(tick=384, channel=6, data=[58, 0])\n",
      "midi.NoteOnEvent(tick=0, channel=6, data=[57, 100])\n",
      "midi.NoteOnEvent(tick=384, channel=6, data=[57, 0])\n",
      "midi.NoteOnEvent(tick=0, channel=6, data=[55, 100])\n",
      "midi.NoteOnEvent(tick=384, channel=6, data=[55, 0])\n",
      "midi.NoteOnEvent(tick=0, channel=6, data=[53, 100])\n",
      "midi.NoteOnEvent(tick=192, channel=6, data=[53, 0])\n",
      "midi.NoteOnEvent(tick=0, channel=6, data=[52, 100])\n",
      "midi.NoteOnEvent(tick=192, channel=6, data=[52, 0])\n",
      "midi.NoteOnEvent(tick=0, channel=6, data=[50, 100])\n",
      "midi.NoteOnEvent(tick=192, channel=6, data=[50, 0])\n",
      "midi.NoteOnEvent(tick=0, channel=6, data=[53, 100])\n",
      "midi.NoteOnEvent(tick=192, channel=6, data=[53, 0])\n",
      "midi.NoteOnEvent(tick=0, channel=6, data=[55, 100])\n",
      "midi.NoteOnEvent(tick=192, channel=6, data=[55, 0])\n",
      "midi.NoteOnEvent(tick=0, channel=6, data=[53, 100])\n",
      "midi.NoteOnEvent(tick=192, channel=6, data=[53, 0])\n",
      "midi.NoteOnEvent(tick=0, channel=6, data=[52, 100])\n",
      "midi.NoteOnEvent(tick=192, channel=6, data=[52, 0])\n",
      "midi.NoteOnEvent(tick=0, channel=6, data=[55, 100])\n",
      "midi.NoteOnEvent(tick=192, channel=6, data=[55, 0])\n",
      "midi.NoteOnEvent(tick=0, channel=6, data=[57, 100])\n",
      "midi.NoteOnEvent(tick=192, channel=6, data=[57, 0])\n",
      "midi.NoteOnEvent(tick=0, channel=6, data=[59, 100])\n",
      "midi.NoteOnEvent(tick=192, channel=6, data=[59, 0])\n",
      "midi.NoteOnEvent(tick=0, channel=6, data=[61, 100])\n",
      "midi.NoteOnEvent(tick=192, channel=6, data=[61, 0])\n",
      "midi.NoteOnEvent(tick=0, channel=6, data=[57, 100])\n",
      "midi.NoteOnEvent(tick=192, channel=6, data=[57, 0])\n",
      "midi.NoteOnEvent(tick=0, channel=6, data=[53, 100])\n",
      "midi.NoteOnEvent(tick=192, channel=6, data=[53, 0])\n",
      "midi.NoteOnEvent(tick=0, channel=6, data=[57, 100])\n",
      "midi.NoteOnEvent(tick=192, channel=6, data=[57, 0])\n",
      "midi.NoteOnEvent(tick=0, channel=6, data=[53, 100])\n",
      "midi.NoteOnEvent(tick=192, channel=6, data=[53, 0])\n",
      "midi.NoteOnEvent(tick=0, channel=6, data=[50, 100])\n",
      "midi.NoteOnEvent(tick=192, channel=6, data=[50, 0])\n",
      "midi.NoteOnEvent(tick=0, channel=6, data=[55, 100])\n",
      "midi.NoteOnEvent(tick=192, channel=6, data=[55, 0])\n",
      "midi.NoteOnEvent(tick=0, channel=6, data=[58, 100])\n",
      "midi.NoteOnEvent(tick=192, channel=6, data=[58, 0])\n",
      "midi.NoteOnEvent(tick=0, channel=6, data=[55, 100])\n",
      "midi.NoteOnEvent(tick=192, channel=6, data=[55, 0])\n",
      "midi.NoteOnEvent(tick=0, channel=6, data=[50, 100])\n",
      "midi.NoteOnEvent(tick=192, channel=6, data=[50, 0])\n",
      "midi.NoteOnEvent(tick=0, channel=6, data=[62, 100])\n",
      "midi.NoteOnEvent(tick=192, channel=6, data=[62, 0])\n",
      "midi.NoteOnEvent(tick=0, channel=6, data=[50, 100])\n",
      "midi.NoteOnEvent(tick=192, channel=6, data=[50, 0])\n",
      "midi.NoteOnEvent(tick=0, channel=6, data=[57, 100])\n",
      "midi.NoteOnEvent(tick=192, channel=6, data=[57, 0])\n",
      "midi.NoteOnEvent(tick=0, channel=6, data=[45, 100])\n",
      "midi.NoteOnEvent(tick=192, channel=6, data=[45, 0])\n",
      "midi.NoteOnEvent(tick=0, channel=6, data=[50, 100])\n",
      "midi.NoteOnEvent(tick=192, channel=6, data=[50, 0])\n",
      "midi.NoteOnEvent(tick=0, channel=6, data=[38, 100])\n",
      "midi.NoteOnEvent(tick=192, channel=6, data=[38, 0])\n",
      "midi.NoteOnEvent(tick=2112, channel=6, data=[55, 100])\n",
      "midi.NoteOnEvent(tick=96, channel=6, data=[55, 0])\n",
      "midi.NoteOnEvent(tick=0, channel=6, data=[57, 100])\n",
      "midi.NoteOnEvent(tick=96, channel=6, data=[57, 0])\n",
      "midi.NoteOnEvent(tick=0, channel=6, data=[55, 100])\n",
      "midi.NoteOnEvent(tick=96, channel=6, data=[55, 0])\n",
      "midi.NoteOnEvent(tick=0, channel=6, data=[53, 100])\n",
      "midi.NoteOnEvent(tick=96, channel=6, data=[53, 0])\n",
      "midi.NoteOnEvent(tick=0, channel=6, data=[52, 100])\n",
      "midi.NoteOnEvent(tick=96, channel=6, data=[52, 0])\n",
      "midi.NoteOnEvent(tick=0, channel=6, data=[50, 100])\n",
      "midi.NoteOnEvent(tick=96, channel=6, data=[50, 0])\n",
      "midi.NoteOnEvent(tick=0, channel=6, data=[48, 100])\n",
      "midi.NoteOnEvent(tick=192, channel=6, data=[48, 0])\n",
      "midi.NoteOnEvent(tick=0, channel=6, data=[60, 100])\n",
      "midi.NoteOnEvent(tick=192, channel=6, data=[60, 0])\n",
      "midi.NoteOnEvent(tick=1344, channel=6, data=[53, 100])\n",
      "midi.NoteOnEvent(tick=96, channel=6, data=[53, 0])\n",
      "midi.NoteOnEvent(tick=0, channel=6, data=[55, 100])\n",
      "midi.NoteOnEvent(tick=96, channel=6, data=[55, 0])\n",
      "midi.NoteOnEvent(tick=0, channel=6, data=[53, 100])\n",
      "midi.NoteOnEvent(tick=96, channel=6, data=[53, 0])\n",
      "midi.NoteOnEvent(tick=0, channel=6, data=[52, 100])\n",
      "midi.NoteOnEvent(tick=96, channel=6, data=[52, 0])\n",
      "midi.NoteOnEvent(tick=0, channel=6, data=[50, 100])\n",
      "midi.NoteOnEvent(tick=96, channel=6, data=[50, 0])\n",
      "midi.NoteOnEvent(tick=0, channel=6, data=[48, 100])\n",
      "midi.NoteOnEvent(tick=96, channel=6, data=[48, 0])\n",
      "midi.NoteOnEvent(tick=0, channel=6, data=[46, 100])\n",
      "midi.NoteOnEvent(tick=192, channel=6, data=[46, 0])\n",
      "midi.NoteOnEvent(tick=0, channel=6, data=[58, 100])\n",
      "midi.NoteOnEvent(tick=192, channel=6, data=[58, 0])\n",
      "midi.NoteOnEvent(tick=1344, channel=6, data=[52, 100])\n",
      "midi.NoteOnEvent(tick=96, channel=6, data=[52, 0])\n",
      "midi.NoteOnEvent(tick=0, channel=6, data=[53, 100])\n",
      "midi.NoteOnEvent(tick=96, channel=6, data=[53, 0])\n",
      "midi.NoteOnEvent(tick=0, channel=6, data=[52, 100])\n",
      "midi.NoteOnEvent(tick=96, channel=6, data=[52, 0])\n",
      "midi.NoteOnEvent(tick=0, channel=6, data=[50, 100])\n",
      "midi.NoteOnEvent(tick=96, channel=6, data=[50, 0])\n",
      "midi.NoteOnEvent(tick=0, channel=6, data=[49, 100])\n",
      "midi.NoteOnEvent(tick=96, channel=6, data=[49, 0])\n",
      "midi.NoteOnEvent(tick=0, channel=6, data=[47, 100])\n",
      "midi.NoteOnEvent(tick=96, channel=6, data=[47, 0])\n",
      "midi.NoteOnEvent(tick=0, channel=6, data=[45, 100])\n",
      "midi.NoteOnEvent(tick=192, channel=6, data=[45, 0])\n",
      "midi.NoteOnEvent(tick=0, channel=6, data=[57, 100])\n",
      "midi.NoteOnEvent(tick=192, channel=6, data=[57, 0])\n",
      "midi.NoteOnEvent(tick=1344, channel=6, data=[50, 100])\n",
      "midi.NoteOnEvent(tick=192, channel=6, data=[50, 0])\n",
      "midi.NoteOnEvent(tick=0, channel=6, data=[62, 100])\n",
      "midi.NoteOnEvent(tick=192, channel=6, data=[62, 0])\n",
      "midi.NoteOnEvent(tick=0, channel=6, data=[53, 100])\n",
      "midi.NoteOnEvent(tick=192, channel=6, data=[53, 0])\n",
      "midi.NoteOnEvent(tick=0, channel=6, data=[55, 100])\n",
      "midi.NoteOnEvent(tick=192, channel=6, data=[55, 0])\n",
      "midi.NoteOnEvent(tick=0, channel=6, data=[57, 100])\n",
      "midi.NoteOnEvent(tick=192, channel=6, data=[57, 0])\n",
      "midi.NoteOnEvent(tick=0, channel=6, data=[59, 100])\n",
      "midi.NoteOnEvent(tick=192, channel=6, data=[59, 0])\n",
      "midi.NoteOnEvent(tick=0, channel=6, data=[55, 100])\n",
      "midi.NoteOnEvent(tick=192, channel=6, data=[55, 0])\n",
      "midi.NoteOnEvent(tick=0, channel=6, data=[60, 100])\n",
      "midi.NoteOnEvent(tick=192, channel=6, data=[60, 0])\n",
      "midi.NoteOnEvent(tick=0, channel=6, data=[48, 100])\n",
      "midi.NoteOnEvent(tick=192, channel=6, data=[48, 0])\n",
      "midi.NoteOnEvent(tick=0, channel=6, data=[60, 100])\n",
      "midi.NoteOnEvent(tick=192, channel=6, data=[60, 0])\n",
      "midi.NoteOnEvent(tick=0, channel=6, data=[52, 100])\n",
      "midi.NoteOnEvent(tick=192, channel=6, data=[52, 0])\n",
      "midi.NoteOnEvent(tick=0, channel=6, data=[53, 100])\n",
      "midi.NoteOnEvent(tick=192, channel=6, data=[53, 0])\n",
      "midi.NoteOnEvent(tick=0, channel=6, data=[55, 100])\n",
      "midi.NoteOnEvent(tick=192, channel=6, data=[55, 0])\n",
      "midi.NoteOnEvent(tick=0, channel=6, data=[57, 100])\n",
      "midi.NoteOnEvent(tick=192, channel=6, data=[57, 0])\n",
      "midi.NoteOnEvent(tick=0, channel=6, data=[53, 100])\n",
      "midi.NoteOnEvent(tick=192, channel=6, data=[53, 0])\n",
      "midi.NoteOnEvent(tick=0, channel=6, data=[59, 100])\n",
      "midi.NoteOnEvent(tick=192, channel=6, data=[59, 0])\n",
      "midi.NoteOnEvent(tick=0, channel=6, data=[47, 100])\n",
      "midi.NoteOnEvent(tick=192, channel=6, data=[47, 0])\n",
      "midi.NoteOnEvent(tick=0, channel=6, data=[59, 100])\n",
      "midi.NoteOnEvent(tick=192, channel=6, data=[59, 0])\n",
      "midi.NoteOnEvent(tick=0, channel=6, data=[56, 100])\n",
      "midi.NoteOnEvent(tick=192, channel=6, data=[56, 0])\n",
      "midi.NoteOnEvent(tick=0, channel=6, data=[52, 100])\n",
      "midi.NoteOnEvent(tick=192, channel=6, data=[52, 0])\n",
      "midi.NoteOnEvent(tick=0, channel=6, data=[40, 100])\n",
      "midi.NoteOnEvent(tick=192, channel=6, data=[40, 0])\n",
      "midi.NoteOnEvent(tick=576, channel=6, data=[45, 100])\n",
      "midi.NoteOnEvent(tick=192, channel=6, data=[45, 0])\n",
      "midi.NoteOnEvent(tick=0, channel=6, data=[57, 100])\n",
      "midi.NoteOnEvent(tick=384, channel=6, data=[57, 0])\n",
      "midi.NoteOnEvent(tick=192, channel=6, data=[45, 100])\n",
      "midi.NoteOnEvent(tick=192, channel=6, data=[45, 0])\n",
      "midi.NoteOnEvent(tick=0, channel=6, data=[57, 100])\n",
      "midi.NoteOnEvent(tick=384, channel=6, data=[57, 0])\n",
      "midi.NoteOnEvent(tick=192, channel=6, data=[45, 100])\n",
      "midi.NoteOnEvent(tick=192, channel=6, data=[45, 0])\n",
      "midi.NoteOnEvent(tick=0, channel=6, data=[52, 100])\n",
      "midi.NoteOnEvent(tick=192, channel=6, data=[52, 0])\n",
      "midi.NoteOnEvent(tick=0, channel=6, data=[40, 100])\n",
      "midi.NoteOnEvent(tick=192, channel=6, data=[40, 0])\n",
      "midi.NoteOnEvent(tick=0, channel=6, data=[57, 100])\n",
      "midi.NoteOnEvent(tick=192, channel=6, data=[57, 0])\n",
      "midi.NoteOnEvent(tick=0, channel=6, data=[45, 100])\n",
      "midi.NoteOnEvent(tick=192, channel=6, data=[45, 0])\n",
      "midi.NoteOnEvent(tick=0, channel=6, data=[48, 100])\n",
      "midi.NoteOnEvent(tick=192, channel=6, data=[48, 0])\n",
      "midi.NoteOnEvent(tick=0, channel=6, data=[52, 100])\n",
      "midi.NoteOnEvent(tick=192, channel=6, data=[52, 0])\n",
      "midi.NoteOnEvent(tick=0, channel=6, data=[57, 100])\n",
      "midi.NoteOnEvent(tick=384, channel=6, data=[57, 0])\n",
      "midi.NoteOnEvent(tick=0, channel=6, data=[55, 100])\n",
      "midi.NoteOnEvent(tick=384, channel=6, data=[55, 0])\n",
      "midi.NoteOnEvent(tick=0, channel=6, data=[53, 100])\n",
      "midi.NoteOnEvent(tick=384, channel=6, data=[53, 0])\n",
      "midi.NoteOnEvent(tick=0, channel=6, data=[52, 100])\n",
      "midi.NoteOnEvent(tick=384, channel=6, data=[52, 0])\n",
      "midi.NoteOnEvent(tick=0, channel=6, data=[50, 100])\n",
      "midi.NoteOnEvent(tick=384, channel=6, data=[50, 0])\n",
      "midi.NoteOnEvent(tick=0, channel=6, data=[48, 100])\n",
      "midi.NoteOnEvent(tick=384, channel=6, data=[48, 0])\n",
      "midi.NoteOnEvent(tick=0, channel=6, data=[46, 100])\n",
      "midi.NoteOnEvent(tick=384, channel=6, data=[46, 0])\n",
      "midi.NoteOnEvent(tick=0, channel=6, data=[45, 100])\n",
      "midi.NoteOnEvent(tick=384, channel=6, data=[45, 0])\n",
      "midi.NoteOnEvent(tick=0, channel=6, data=[43, 100])\n",
      "midi.NoteOnEvent(tick=384, channel=6, data=[43, 0])\n",
      "midi.NoteOnEvent(tick=0, channel=6, data=[41, 100])\n",
      "midi.NoteOnEvent(tick=384, channel=6, data=[41, 0])\n",
      "midi.NoteOnEvent(tick=0, channel=6, data=[39, 100])\n",
      "midi.NoteOnEvent(tick=384, channel=6, data=[39, 0])\n",
      "midi.NoteOnEvent(tick=0, channel=6, data=[38, 100])\n",
      "midi.NoteOnEvent(tick=384, channel=6, data=[38, 0])\n",
      "midi.NoteOnEvent(tick=0, channel=6, data=[36, 100])\n",
      "midi.NoteOnEvent(tick=192, channel=6, data=[36, 0])\n",
      "midi.NoteOnEvent(tick=0, channel=6, data=[36, 100])\n",
      "midi.NoteOnEvent(tick=192, channel=6, data=[36, 0])\n",
      "midi.NoteOnEvent(tick=0, channel=6, data=[36, 100])\n",
      "midi.NoteOnEvent(tick=192, channel=6, data=[36, 0])\n",
      "midi.NoteOnEvent(tick=0, channel=6, data=[36, 100])\n",
      "midi.NoteOnEvent(tick=192, channel=6, data=[36, 0])\n",
      "midi.NoteOnEvent(tick=0, channel=6, data=[36, 100])\n",
      "midi.NoteOnEvent(tick=192, channel=6, data=[36, 0])\n",
      "midi.NoteOnEvent(tick=0, channel=6, data=[36, 100])\n",
      "midi.NoteOnEvent(tick=192, channel=6, data=[36, 0])\n",
      "midi.NoteOnEvent(tick=0, channel=6, data=[36, 100])\n",
      "midi.NoteOnEvent(tick=192, channel=6, data=[36, 0])\n",
      "midi.NoteOnEvent(tick=0, channel=6, data=[36, 100])\n",
      "midi.NoteOnEvent(tick=192, channel=6, data=[36, 0])\n",
      "midi.NoteOnEvent(tick=0, channel=6, data=[36, 100])\n",
      "midi.NoteOnEvent(tick=192, channel=6, data=[36, 0])\n",
      "midi.NoteOnEvent(tick=0, channel=6, data=[36, 100])\n",
      "midi.NoteOnEvent(tick=192, channel=6, data=[36, 0])\n",
      "midi.NoteOnEvent(tick=0, channel=6, data=[48, 100])\n",
      "midi.NoteOnEvent(tick=192, channel=6, data=[48, 0])\n",
      "midi.NoteOnEvent(tick=0, channel=6, data=[48, 100])\n",
      "midi.NoteOnEvent(tick=192, channel=6, data=[48, 0])\n",
      "midi.NoteOnEvent(tick=0, channel=6, data=[46, 100])\n",
      "midi.NoteOnEvent(tick=192, channel=6, data=[46, 0])\n",
      "midi.NoteOnEvent(tick=0, channel=6, data=[62, 100])\n",
      "midi.NoteOnEvent(tick=192, channel=6, data=[62, 0])\n",
      "midi.NoteOnEvent(tick=0, channel=6, data=[58, 100])\n",
      "midi.NoteOnEvent(tick=192, channel=6, data=[58, 0])\n",
      "midi.NoteOnEvent(tick=0, channel=6, data=[55, 100])\n",
      "midi.NoteOnEvent(tick=192, channel=6, data=[55, 0])\n",
      "midi.NoteOnEvent(tick=0, channel=6, data=[43, 100])\n",
      "midi.NoteOnEvent(tick=192, channel=6, data=[43, 0])\n",
      "midi.NoteOnEvent(tick=0, channel=6, data=[43, 100])\n",
      "midi.NoteOnEvent(tick=192, channel=6, data=[43, 0])\n",
      "midi.NoteOnEvent(tick=0, channel=6, data=[43, 100])\n",
      "midi.NoteOnEvent(tick=192, channel=6, data=[43, 0])\n",
      "midi.NoteOnEvent(tick=0, channel=6, data=[43, 100])\n",
      "midi.NoteOnEvent(tick=192, channel=6, data=[43, 0])\n",
      "midi.NoteOnEvent(tick=0, channel=6, data=[41, 100])\n",
      "midi.NoteOnEvent(tick=192, channel=6, data=[41, 0])\n",
      "midi.NoteOnEvent(tick=0, channel=6, data=[57, 100])\n",
      "midi.NoteOnEvent(tick=192, channel=6, data=[57, 0])\n",
      "midi.NoteOnEvent(tick=0, channel=6, data=[53, 100])\n",
      "midi.NoteOnEvent(tick=192, channel=6, data=[53, 0])\n",
      "midi.NoteOnEvent(tick=0, channel=6, data=[50, 100])\n",
      "midi.NoteOnEvent(tick=192, channel=6, data=[50, 0])\n",
      "midi.NoteOnEvent(tick=0, channel=6, data=[38, 100])\n",
      "midi.NoteOnEvent(tick=192, channel=6, data=[38, 0])\n",
      "midi.NoteOnEvent(tick=0, channel=6, data=[38, 100])\n",
      "midi.NoteOnEvent(tick=192, channel=6, data=[38, 0])\n",
      "midi.NoteOnEvent(tick=0, channel=6, data=[38, 100])\n",
      "midi.NoteOnEvent(tick=192, channel=6, data=[38, 0])\n",
      "midi.NoteOnEvent(tick=0, channel=6, data=[38, 100])\n",
      "midi.NoteOnEvent(tick=192, channel=6, data=[38, 0])\n",
      "midi.NoteOnEvent(tick=0, channel=6, data=[36, 100])\n",
      "midi.NoteOnEvent(tick=192, channel=6, data=[36, 0])\n",
      "midi.NoteOnEvent(tick=0, channel=6, data=[50, 100])\n",
      "midi.NoteOnEvent(tick=192, channel=6, data=[50, 0])\n",
      "midi.NoteOnEvent(tick=0, channel=6, data=[48, 100])\n",
      "midi.NoteOnEvent(tick=192, channel=6, data=[48, 0])\n",
      "midi.NoteOnEvent(tick=0, channel=6, data=[47, 100])\n",
      "midi.NoteOnEvent(tick=192, channel=6, data=[47, 0])\n",
      "midi.NoteOnEvent(tick=0, channel=6, data=[45, 100])\n",
      "midi.NoteOnEvent(tick=192, channel=6, data=[45, 0])\n",
      "midi.NoteOnEvent(tick=0, channel=6, data=[57, 100])\n",
      "midi.NoteOnEvent(tick=192, channel=6, data=[57, 0])\n",
      "midi.NoteOnEvent(tick=0, channel=6, data=[55, 100])\n",
      "midi.NoteOnEvent(tick=192, channel=6, data=[55, 0])\n",
      "midi.NoteOnEvent(tick=0, channel=6, data=[53, 100])\n",
      "midi.NoteOnEvent(tick=192, channel=6, data=[53, 0])\n",
      "midi.NoteOnEvent(tick=0, channel=6, data=[52, 100])\n",
      "midi.NoteOnEvent(tick=192, channel=6, data=[52, 0])\n",
      "midi.NoteOnEvent(tick=0, channel=6, data=[53, 100])\n",
      "midi.NoteOnEvent(tick=192, channel=6, data=[53, 0])\n",
      "midi.NoteOnEvent(tick=0, channel=6, data=[52, 100])\n",
      "midi.NoteOnEvent(tick=192, channel=6, data=[52, 0])\n",
      "midi.NoteOnEvent(tick=0, channel=6, data=[50, 100])\n",
      "midi.NoteOnEvent(tick=192, channel=6, data=[50, 0])\n",
      "midi.NoteOnEvent(tick=0, channel=6, data=[48, 100])\n",
      "midi.NoteOnEvent(tick=192, channel=6, data=[48, 0])\n",
      "midi.NoteOnEvent(tick=0, channel=6, data=[52, 100])\n",
      "midi.NoteOnEvent(tick=192, channel=6, data=[52, 0])\n",
      "midi.NoteOnEvent(tick=0, channel=6, data=[48, 100])\n",
      "midi.NoteOnEvent(tick=192, channel=6, data=[48, 0])\n",
      "midi.NoteOnEvent(tick=0, channel=6, data=[45, 100])\n",
      "midi.NoteOnEvent(tick=192, channel=6, data=[45, 0])\n",
      "midi.NoteOnEvent(tick=0, channel=6, data=[50, 100])\n",
      "midi.NoteOnEvent(tick=192, channel=6, data=[50, 0])\n",
      "midi.NoteOnEvent(tick=0, channel=6, data=[53, 100])\n",
      "midi.NoteOnEvent(tick=192, channel=6, data=[53, 0])\n",
      "midi.NoteOnEvent(tick=0, channel=6, data=[50, 100])\n",
      "midi.NoteOnEvent(tick=192, channel=6, data=[50, 0])\n",
      "midi.NoteOnEvent(tick=0, channel=6, data=[47, 100])\n",
      "midi.NoteOnEvent(tick=192, channel=6, data=[47, 0])\n",
      "midi.NoteOnEvent(tick=0, channel=6, data=[48, 100])\n",
      "midi.NoteOnEvent(tick=192, channel=6, data=[48, 0])\n",
      "midi.NoteOnEvent(tick=0, channel=6, data=[45, 100])\n",
      "midi.NoteOnEvent(tick=192, channel=6, data=[45, 0])\n",
      "midi.NoteOnEvent(tick=0, channel=6, data=[52, 100])\n",
      "midi.NoteOnEvent(tick=192, channel=6, data=[52, 0])\n",
      "midi.NoteOnEvent(tick=0, channel=6, data=[40, 100])\n",
      "midi.NoteOnEvent(tick=192, channel=6, data=[40, 0])\n",
      "midi.NoteOnEvent(tick=0, channel=6, data=[45, 100])\n",
      "midi.NoteOnEvent(tick=192, channel=6, data=[45, 0])\n",
      "midi.NoteOnEvent(tick=0, channel=6, data=[60, 100])\n",
      "midi.NoteOnEvent(tick=96, channel=6, data=[60, 0])\n",
      "midi.NoteOnEvent(tick=0, channel=6, data=[59, 100])\n",
      "midi.NoteOnEvent(tick=96, channel=6, data=[59, 0])\n",
      "midi.NoteOnEvent(tick=0, channel=6, data=[57, 100])\n",
      "midi.NoteOnEvent(tick=96, channel=6, data=[57, 0])\n",
      "midi.NoteOnEvent(tick=0, channel=6, data=[55, 100])\n",
      "midi.NoteOnEvent(tick=96, channel=6, data=[55, 0])\n",
      "midi.NoteOnEvent(tick=0, channel=6, data=[53, 100])\n",
      "midi.NoteOnEvent(tick=96, channel=6, data=[53, 0])\n",
      "midi.NoteOnEvent(tick=0, channel=6, data=[52, 100])\n",
      "midi.NoteOnEvent(tick=96, channel=6, data=[52, 0])\n",
      "midi.NoteOnEvent(tick=0, channel=6, data=[53, 100])\n",
      "midi.NoteOnEvent(tick=192, channel=6, data=[53, 0])\n",
      "midi.NoteOnEvent(tick=0, channel=6, data=[57, 100])\n",
      "midi.NoteOnEvent(tick=192, channel=6, data=[57, 0])\n",
      "midi.NoteOnEvent(tick=0, channel=6, data=[53, 100])\n",
      "midi.NoteOnEvent(tick=192, channel=6, data=[53, 0])\n",
      "midi.NoteOnEvent(tick=0, channel=6, data=[50, 100])\n",
      "midi.NoteOnEvent(tick=192, channel=6, data=[50, 0])\n",
      "midi.NoteOnEvent(tick=0, channel=6, data=[55, 100])\n",
      "midi.NoteOnEvent(tick=192, channel=6, data=[55, 0])\n",
      "midi.NoteOnEvent(tick=0, channel=6, data=[43, 100])\n",
      "midi.NoteOnEvent(tick=192, channel=6, data=[43, 0])\n",
      "midi.NoteOnEvent(tick=1344, channel=6, data=[59, 100])\n",
      "midi.NoteOnEvent(tick=96, channel=6, data=[59, 0])\n",
      "midi.NoteOnEvent(tick=0, channel=6, data=[57, 100])\n",
      "midi.NoteOnEvent(tick=96, channel=6, data=[57, 0])\n",
      "midi.NoteOnEvent(tick=0, channel=6, data=[55, 100])\n",
      "midi.NoteOnEvent(tick=96, channel=6, data=[55, 0])\n",
      "midi.NoteOnEvent(tick=0, channel=6, data=[53, 100])\n",
      "midi.NoteOnEvent(tick=96, channel=6, data=[53, 0])\n",
      "midi.NoteOnEvent(tick=0, channel=6, data=[52, 100])\n",
      "midi.NoteOnEvent(tick=96, channel=6, data=[52, 0])\n",
      "midi.NoteOnEvent(tick=0, channel=6, data=[50, 100])\n",
      "midi.NoteOnEvent(tick=96, channel=6, data=[50, 0])\n",
      "midi.NoteOnEvent(tick=0, channel=6, data=[52, 100])\n",
      "midi.NoteOnEvent(tick=192, channel=6, data=[52, 0])\n",
      "midi.NoteOnEvent(tick=0, channel=6, data=[55, 100])\n",
      "midi.NoteOnEvent(tick=192, channel=6, data=[55, 0])\n",
      "midi.NoteOnEvent(tick=0, channel=6, data=[52, 100])\n",
      "midi.NoteOnEvent(tick=192, channel=6, data=[52, 0])\n",
      "midi.NoteOnEvent(tick=0, channel=6, data=[48, 100])\n",
      "midi.NoteOnEvent(tick=192, channel=6, data=[48, 0])\n",
      "midi.NoteOnEvent(tick=0, channel=6, data=[53, 100])\n",
      "midi.NoteOnEvent(tick=192, channel=6, data=[53, 0])\n",
      "midi.NoteOnEvent(tick=0, channel=6, data=[41, 100])\n",
      "midi.NoteOnEvent(tick=192, channel=6, data=[41, 0])\n",
      "midi.NoteOnEvent(tick=1344, channel=6, data=[57, 100])\n",
      "midi.NoteOnEvent(tick=96, channel=6, data=[57, 0])\n",
      "midi.NoteOnEvent(tick=0, channel=6, data=[55, 100])\n",
      "midi.NoteOnEvent(tick=96, channel=6, data=[55, 0])\n",
      "midi.NoteOnEvent(tick=0, channel=6, data=[53, 100])\n",
      "midi.NoteOnEvent(tick=96, channel=6, data=[53, 0])\n",
      "midi.NoteOnEvent(tick=0, channel=6, data=[52, 100])\n",
      "midi.NoteOnEvent(tick=96, channel=6, data=[52, 0])\n",
      "midi.NoteOnEvent(tick=0, channel=6, data=[50, 100])\n",
      "midi.NoteOnEvent(tick=96, channel=6, data=[50, 0])\n",
      "midi.NoteOnEvent(tick=0, channel=6, data=[48, 100])\n",
      "midi.NoteOnEvent(tick=96, channel=6, data=[48, 0])\n",
      "midi.NoteOnEvent(tick=0, channel=6, data=[50, 100])\n",
      "midi.NoteOnEvent(tick=96, channel=6, data=[50, 0])\n",
      "midi.NoteOnEvent(tick=0, channel=6, data=[52, 100])\n",
      "midi.NoteOnEvent(tick=96, channel=6, data=[52, 0])\n",
      "midi.NoteOnEvent(tick=0, channel=6, data=[50, 100])\n",
      "midi.NoteOnEvent(tick=96, channel=6, data=[50, 0])\n",
      "midi.NoteOnEvent(tick=0, channel=6, data=[48, 100])\n",
      "midi.NoteOnEvent(tick=96, channel=6, data=[48, 0])\n",
      "midi.NoteOnEvent(tick=0, channel=6, data=[47, 100])\n",
      "midi.NoteOnEvent(tick=96, channel=6, data=[47, 0])\n",
      "midi.NoteOnEvent(tick=0, channel=6, data=[48, 100])\n",
      "midi.NoteOnEvent(tick=96, channel=6, data=[48, 0])\n",
      "midi.NoteOnEvent(tick=0, channel=6, data=[47, 100])\n",
      "midi.NoteOnEvent(tick=96, channel=6, data=[47, 0])\n",
      "midi.NoteOnEvent(tick=0, channel=6, data=[45, 100])\n",
      "midi.NoteOnEvent(tick=96, channel=6, data=[45, 0])\n",
      "midi.NoteOnEvent(tick=0, channel=6, data=[44, 100])\n",
      "midi.NoteOnEvent(tick=96, channel=6, data=[44, 0])\n",
      "midi.NoteOnEvent(tick=0, channel=6, data=[40, 100])\n",
      "midi.NoteOnEvent(tick=96, channel=6, data=[40, 0])\n",
      "midi.NoteOnEvent(tick=0, channel=6, data=[42, 100])\n",
      "midi.NoteOnEvent(tick=96, channel=6, data=[42, 0])\n",
      "midi.NoteOnEvent(tick=0, channel=6, data=[44, 100])\n",
      "midi.NoteOnEvent(tick=96, channel=6, data=[44, 0])\n",
      "midi.NoteOnEvent(tick=0, channel=6, data=[45, 100])\n",
      "midi.NoteOnEvent(tick=96, channel=6, data=[45, 0])\n",
      "midi.NoteOnEvent(tick=0, channel=6, data=[47, 100])\n",
      "midi.NoteOnEvent(tick=96, channel=6, data=[47, 0])\n",
      "midi.NoteOnEvent(tick=0, channel=6, data=[48, 100])\n",
      "midi.NoteOnEvent(tick=96, channel=6, data=[48, 0])\n",
      "midi.NoteOnEvent(tick=0, channel=6, data=[45, 100])\n",
      "midi.NoteOnEvent(tick=96, channel=6, data=[45, 0])\n",
      "midi.NoteOnEvent(tick=0, channel=6, data=[41, 100])\n",
      "midi.NoteOnEvent(tick=192, channel=6, data=[41, 0])\n",
      "midi.NoteOnEvent(tick=0, channel=6, data=[48, 100])\n",
      "midi.NoteOnEvent(tick=192, channel=6, data=[48, 0])\n",
      "midi.NoteOnEvent(tick=0, channel=6, data=[50, 100])\n",
      "midi.NoteOnEvent(tick=192, channel=6, data=[50, 0])\n",
      "midi.NoteOnEvent(tick=0, channel=6, data=[47, 100])\n",
      "midi.NoteOnEvent(tick=192, channel=6, data=[47, 0])\n",
      "midi.NoteOnEvent(tick=0, channel=6, data=[52, 100])\n",
      "midi.NoteOnEvent(tick=288, channel=6, data=[52, 0])\n",
      "midi.NoteOnEvent(tick=0, channel=6, data=[54, 100])\n",
      "midi.NoteOnEvent(tick=48, channel=6, data=[54, 0])\n",
      "midi.NoteOnEvent(tick=0, channel=6, data=[56, 100])\n",
      "midi.NoteOnEvent(tick=48, channel=6, data=[56, 0])\n",
      "midi.NoteOnEvent(tick=0, channel=6, data=[57, 100])\n",
      "midi.NoteOnEvent(tick=96, channel=6, data=[57, 0])\n",
      "midi.NoteOnEvent(tick=0, channel=6, data=[59, 100])\n",
      "midi.NoteOnEvent(tick=96, channel=6, data=[59, 0])\n",
      "midi.NoteOnEvent(tick=0, channel=6, data=[60, 100])\n",
      "midi.NoteOnEvent(tick=96, channel=6, data=[60, 0])\n",
      "midi.NoteOnEvent(tick=0, channel=6, data=[62, 100])\n",
      "midi.NoteOnEvent(tick=96, channel=6, data=[62, 0])\n",
      "midi.NoteOnEvent(tick=0, channel=6, data=[64, 100])\n",
      "midi.NoteOnEvent(tick=192, channel=6, data=[64, 0])\n",
      "midi.NoteOnEvent(tick=0, channel=6, data=[62, 100])\n",
      "midi.NoteOnEvent(tick=192, channel=6, data=[62, 0])\n",
      "midi.NoteOnEvent(tick=0, channel=6, data=[64, 100])\n",
      "midi.NoteOnEvent(tick=192, channel=6, data=[64, 0])\n",
      "midi.NoteOnEvent(tick=0, channel=6, data=[52, 100])\n",
      "midi.NoteOnEvent(tick=192, channel=6, data=[52, 0])\n",
      "midi.NoteOnEvent(tick=0, channel=6, data=[62, 100])\n",
      "midi.NoteOnEvent(tick=192, channel=6, data=[62, 0])\n",
      "midi.NoteOnEvent(tick=0, channel=6, data=[64, 100])\n",
      "midi.NoteOnEvent(tick=192, channel=6, data=[64, 0])\n",
      "midi.NoteOnEvent(tick=0, channel=6, data=[62, 100])\n",
      "midi.NoteOnEvent(tick=192, channel=6, data=[62, 0])\n",
      "midi.NoteOnEvent(tick=0, channel=6, data=[60, 100])\n",
      "midi.NoteOnEvent(tick=192, channel=6, data=[60, 0])\n",
      "midi.NoteOnEvent(tick=0, channel=6, data=[59, 100])\n",
      "midi.NoteOnEvent(tick=192, channel=6, data=[59, 0])\n",
      "midi.NoteOnEvent(tick=0, channel=6, data=[60, 100])\n",
      "midi.NoteOnEvent(tick=192, channel=6, data=[60, 0])\n",
      "midi.NoteOnEvent(tick=0, channel=6, data=[59, 100])\n",
      "midi.NoteOnEvent(tick=192, channel=6, data=[59, 0])\n",
      "midi.NoteOnEvent(tick=0, channel=6, data=[57, 100])\n",
      "midi.NoteOnEvent(tick=192, channel=6, data=[57, 0])\n",
      "midi.NoteOnEvent(tick=0, channel=6, data=[56, 100])\n",
      "midi.NoteOnEvent(tick=192, channel=6, data=[56, 0])\n",
      "midi.NoteOnEvent(tick=0, channel=6, data=[57, 100])\n",
      "midi.NoteOnEvent(tick=192, channel=6, data=[57, 0])\n",
      "midi.NoteOnEvent(tick=0, channel=6, data=[59, 100])\n",
      "midi.NoteOnEvent(tick=192, channel=6, data=[59, 0])\n",
      "midi.NoteOnEvent(tick=0, channel=6, data=[60, 100])\n",
      "midi.NoteOnEvent(tick=192, channel=6, data=[60, 0])\n",
      "midi.NoteOnEvent(tick=0, channel=6, data=[50, 100])\n",
      "midi.NoteOnEvent(tick=192, channel=6, data=[50, 0])\n",
      "midi.NoteOnEvent(tick=0, channel=6, data=[52, 100])\n",
      "midi.NoteOnEvent(tick=192, channel=6, data=[52, 0])\n",
      "midi.NoteOnEvent(tick=0, channel=6, data=[53, 100])\n",
      "midi.NoteOnEvent(tick=192, channel=6, data=[53, 0])\n",
      "midi.NoteOnEvent(tick=0, channel=6, data=[47, 100])\n",
      "midi.NoteOnEvent(tick=192, channel=6, data=[47, 0])\n",
      "midi.NoteOnEvent(tick=0, channel=6, data=[52, 100])\n",
      "midi.NoteOnEvent(tick=192, channel=6, data=[52, 0])\n",
      "midi.NoteOnEvent(tick=0, channel=6, data=[50, 100])\n",
      "midi.NoteOnEvent(tick=96, channel=6, data=[50, 0])\n",
      "midi.NoteOnEvent(tick=0, channel=6, data=[48, 100])\n",
      "midi.NoteOnEvent(tick=96, channel=6, data=[48, 0])\n",
      "midi.NoteOnEvent(tick=0, channel=6, data=[47, 100])\n",
      "midi.NoteOnEvent(tick=192, channel=6, data=[47, 0])\n",
      "midi.NoteOnEvent(tick=0, channel=6, data=[45, 100])\n",
      "midi.NoteOnEvent(tick=192, channel=6, data=[45, 0])\n",
      "midi.NoteOnEvent(tick=0, channel=6, data=[44, 100])\n",
      "midi.NoteOnEvent(tick=192, channel=6, data=[44, 0])\n",
      "midi.NoteOnEvent(tick=0, channel=6, data=[42, 100])\n",
      "midi.NoteOnEvent(tick=192, channel=6, data=[42, 0])\n",
      "midi.NoteOnEvent(tick=0, channel=6, data=[40, 100])\n",
      "midi.NoteOnEvent(tick=192, channel=6, data=[40, 0])\n",
      "midi.NoteOnEvent(tick=0, channel=6, data=[38, 100])\n",
      "midi.NoteOnEvent(tick=192, channel=6, data=[38, 0])\n",
      "midi.NoteOnEvent(tick=0, channel=6, data=[36, 100])\n",
      "midi.NoteOnEvent(tick=192, channel=6, data=[36, 0])\n",
      "midi.NoteOnEvent(tick=0, channel=6, data=[53, 100])\n",
      "midi.NoteOnEvent(tick=192, channel=6, data=[53, 0])\n",
      "midi.NoteOnEvent(tick=0, channel=6, data=[50, 100])\n",
      "midi.NoteOnEvent(tick=192, channel=6, data=[50, 0])\n",
      "midi.NoteOnEvent(tick=0, channel=6, data=[52, 100])\n",
      "midi.NoteOnEvent(tick=192, channel=6, data=[52, 0])\n",
      "midi.NoteOnEvent(tick=0, channel=6, data=[41, 100])\n",
      "midi.NoteOnEvent(tick=384, channel=6, data=[41, 0])\n",
      "midi.NoteOnEvent(tick=192, channel=6, data=[53, 100])\n",
      "midi.NoteOnEvent(tick=192, channel=6, data=[53, 0])\n",
      "midi.NoteOnEvent(tick=0, channel=6, data=[44, 100])\n",
      "midi.NoteOnEvent(tick=192, channel=6, data=[44, 0])\n",
      "midi.NoteOnEvent(tick=0, channel=6, data=[44, 100])\n",
      "midi.NoteOnEvent(tick=192, channel=6, data=[44, 0])\n",
      "midi.NoteOnEvent(tick=0, channel=6, data=[44, 100])\n",
      "midi.NoteOnEvent(tick=192, channel=6, data=[44, 0])\n",
      "midi.NoteOnEvent(tick=0, channel=6, data=[59, 100])\n",
      "midi.NoteOnEvent(tick=192, channel=6, data=[59, 0])\n",
      "midi.NoteOnEvent(tick=0, channel=6, data=[50, 100])\n",
      "midi.NoteOnEvent(tick=192, channel=6, data=[50, 0])\n",
      "midi.NoteOnEvent(tick=0, channel=6, data=[50, 100])\n",
      "midi.NoteOnEvent(tick=192, channel=6, data=[50, 0])\n",
      "midi.NoteOnEvent(tick=0, channel=6, data=[50, 100])\n",
      "midi.NoteOnEvent(tick=192, channel=6, data=[50, 0])\n",
      "midi.NoteOnEvent(tick=0, channel=6, data=[53, 100])\n",
      "midi.NoteOnEvent(tick=192, channel=6, data=[53, 0])\n",
      "midi.NoteOnEvent(tick=0, channel=6, data=[47, 100])\n",
      "midi.NoteOnEvent(tick=192, channel=6, data=[47, 0])\n",
      "midi.NoteOnEvent(tick=0, channel=6, data=[48, 100])\n",
      "midi.NoteOnEvent(tick=96, channel=6, data=[48, 0])\n",
      "midi.NoteOnEvent(tick=0, channel=6, data=[50, 100])\n",
      "midi.NoteOnEvent(tick=96, channel=6, data=[50, 0])\n",
      "midi.NoteOnEvent(tick=0, channel=6, data=[52, 100])\n",
      "midi.NoteOnEvent(tick=192, channel=6, data=[52, 0])\n",
      "midi.NoteOnEvent(tick=0, channel=6, data=[40, 100])\n",
      "midi.NoteOnEvent(tick=192, channel=6, data=[40, 0])\n",
      "midi.NoteOnEvent(tick=0, channel=6, data=[45, 100])\n",
      "midi.NoteOnEvent(tick=576, channel=6, data=[45, 0])\n",
      "midi.EndOfTrackEvent(tick=0, data=[])\n",
      "midi.PortEvent(tick=0, data=[0])\n",
      "midi.TrackNameEvent(tick=0, text='------------------------------------------', data=[45, 45, 45, 45, 45, 45, 45, 45, 45, 45, 45, 45, 45, 45, 45, 45, 45, 45, 45, 45, 45, 45, 45, 45, 45, 45, 45, 45, 45, 45, 45, 45, 45, 45, 45, 45, 45, 45, 45, 45, 45, 45])\n",
      "midi.EndOfTrackEvent(tick=0, data=[])\n",
      "midi.PortEvent(tick=0, data=[0])\n",
      "midi.TrackNameEvent(tick=0, text='Johann Sebastian Bach  (1685-1750)', data=[74, 111, 104, 97, 110, 110, 32, 83, 101, 98, 97, 115, 116, 105, 97, 110, 32, 66, 97, 99, 104, 32, 32, 40, 49, 54, 56, 53, 45, 49, 55, 53, 48, 41])\n",
      "midi.EndOfTrackEvent(tick=0, data=[])\n",
      "midi.PortEvent(tick=0, data=[0])\n",
      "midi.TrackNameEvent(tick=0, text='Violin Concerto No. 1 in A minor - BWV 1041', data=[86, 105, 111, 108, 105, 110, 32, 67, 111, 110, 99, 101, 114, 116, 111, 32, 78, 111, 46, 32, 49, 32, 105, 110, 32, 65, 32, 109, 105, 110, 111, 114, 32, 45, 32, 66, 87, 86, 32, 49, 48, 52, 49])\n",
      "midi.EndOfTrackEvent(tick=0, data=[])\n",
      "midi.PortEvent(tick=0, data=[0])\n",
      "midi.TrackNameEvent(tick=0, text='1st Movement: ( Allegro moderato )', data=[49, 115, 116, 32, 77, 111, 118, 101, 109, 101, 110, 116, 58, 32, 40, 32, 65, 108, 108, 101, 103, 114, 111, 32, 109, 111, 100, 101, 114, 97, 116, 111, 32, 41])\n",
      "midi.EndOfTrackEvent(tick=0, data=[])\n",
      "midi.PortEvent(tick=0, data=[0])\n",
      "midi.TrackNameEvent(tick=0, text='------------------------------------------', data=[45, 45, 45, 45, 45, 45, 45, 45, 45, 45, 45, 45, 45, 45, 45, 45, 45, 45, 45, 45, 45, 45, 45, 45, 45, 45, 45, 45, 45, 45, 45, 45, 45, 45, 45, 45, 45, 45, 45, 45, 45, 45])\n",
      "midi.EndOfTrackEvent(tick=0, data=[])\n"
     ]
    }
   ],
   "source": [
    "# Iterate through to look at contents\n",
    "for line in bwv:\n",
    "    for event in line:\n",
    "        print(event)"
   ]
  },
  {
   "cell_type": "markdown",
   "metadata": {},
   "source": [
    "## Extract the solo in channel 1"
   ]
  },
  {
   "cell_type": "code",
   "execution_count": 7,
   "metadata": {
    "scrolled": true
   },
   "outputs": [
    {
     "name": "stdout",
     "output_type": "stream",
     "text": [
      "midi.Pattern(format=1, resolution=220, tracks=\\\n",
      "[midi.Track(\\\n",
      "  [midi.TrackNameEvent(tick=0, text='untitled', data=[117, 110, 116, 105, 116, 108, 101, 100]),\n",
      "   midi.SmpteOffsetEvent(tick=0, data=[96, 0, 3, 0, 0]),\n",
      "   midi.TimeSignatureEvent(tick=0, data=[2, 2, 24, 8]),\n",
      "   midi.KeySignatureEvent(tick=0, data=[0, 0]),\n",
      "   midi.SetTempoEvent(tick=0, data=[9, 216, 41]),\n",
      "   midi.EndOfTrackEvent(tick=0, data=[])]),\n",
      " midi.Track(\\\n",
      "  [midi.PortEvent(tick=0, data=[0]),\n",
      "   midi.TrackNameEvent(tick=0, text='Solo Violin', data=[83, 111, 108, 111, 32, 86, 105, 111, 108, 105, 110]),\n",
      "   midi.ProgramChangeEvent(tick=0, channel=0, data=[40]),\n",
      "   midi.ControlChangeEvent(tick=0, channel=0, data=[7, 115]),\n",
      "   midi.ControlChangeEvent(tick=0, channel=0, data=[10, 64]),\n",
      "   midi.NoteOnEvent(tick=576, channel=0, data=[76, 100]),\n",
      "   midi.NoteOnEvent(tick=192, channel=0, data=[76, 0]),\n",
      "   midi.NoteOnEvent(tick=0, channel=0, data=[81, 100]),\n",
      "   midi.NoteOnEvent(tick=384, channel=0, data=[81, 0]),\n",
      "   midi.NoteOnEvent(tick=192, channel=0, data=[76, 100]),\n",
      "   midi.NoteOnEvent(tick=192, channel=0, data=[76, 0]),\n",
      "   midi.NoteOnEvent(tick=0, channel=0, data=[77, 100]),\n",
      "   midi.NoteOnEvent(tick=384, channel=0, data=[77, 0]),\n",
      "   midi.NoteOnEvent(tick=192, channel=0, data=[74, 100]),\n",
      "   midi.NoteOnEvent(tick=192, channel=0, data=[74, 0]),\n",
      "   midi.NoteOnEvent(tick=0, channel=0, data=[76, 100]),\n",
      "   midi.NoteOnEvent(tick=96, channel=0, data=[76, 0]),\n",
      "   midi.NoteOnEvent(tick=0, channel=0, data=[74, 100]),\n",
      "   midi.NoteOnEvent(tick=96, channel=0, data=[74, 0]),\n",
      "   midi.NoteOnEvent(tick=0, channel=0, data=[72, 100]),\n",
      "   midi.NoteOnEvent(tick=96, channel=0, data=[72, 0]),\n",
      "   midi.NoteOnEvent(tick=0, channel=0, data=[76, 100]),\n",
      "   midi.NoteOnEvent(tick=96, channel=0, data=[76, 0]),\n",
      "   midi.NoteOnEvent(tick=0, channel=0, data=[74, 100]),\n",
      "   midi.NoteOnEvent(tick=96, channel=0, data=[74, 0]),\n",
      "   midi.NoteOnEvent(tick=0, channel=0, data=[72, 100]),\n",
      "   midi.NoteOnEvent(tick=96, channel=0, data=[72, 0]),\n",
      "   midi.NoteOnEvent(tick=0, channel=0, data=[71, 100]),\n",
      "   midi.NoteOnEvent(tick=96, channel=0, data=[71, 0]),\n",
      "   midi.NoteOnEvent(tick=0, channel=0, data=[74, 100]),\n",
      "   midi.NoteOnEvent(tick=96, channel=0, data=[74, 0]),\n",
      "   midi.NoteOnEvent(tick=0, channel=0, data=[72, 100]),\n",
      "   midi.NoteOnEvent(tick=192, channel=0, data=[72, 0]),\n",
      "   midi.NoteOnEvent(tick=0, channel=0, data=[69, 100]),\n",
      "   midi.NoteOnEvent(tick=192, channel=0, data=[69, 0]),\n",
      "   midi.NoteOnEvent(tick=96, channel=0, data=[69, 100]),\n",
      "   midi.NoteOnEvent(tick=96, channel=0, data=[69, 0]),\n",
      "   midi.NoteOnEvent(tick=0, channel=0, data=[68, 100]),\n",
      "   midi.NoteOnEvent(tick=96, channel=0, data=[68, 0]),\n",
      "   midi.NoteOnEvent(tick=0, channel=0, data=[69, 100]),\n",
      "   midi.NoteOnEvent(tick=96, channel=0, data=[69, 0]),\n",
      "   midi.NoteOnEvent(tick=0, channel=0, data=[71, 100]),\n",
      "   midi.NoteOnEvent(tick=96, channel=0, data=[71, 0]),\n",
      "   midi.NoteOnEvent(tick=0, channel=0, data=[69, 100]),\n",
      "   midi.NoteOnEvent(tick=96, channel=0, data=[69, 0]),\n",
      "   midi.NoteOnEvent(tick=0, channel=0, data=[68, 100]),\n",
      "   midi.NoteOnEvent(tick=96, channel=0, data=[68, 0]),\n",
      "   midi.NoteOnEvent(tick=0, channel=0, data=[69, 100]),\n",
      "   midi.NoteOnEvent(tick=96, channel=0, data=[69, 0]),\n",
      "   midi.NoteOnEvent(tick=0, channel=0, data=[72, 100]),\n",
      "   midi.NoteOnEvent(tick=96, channel=0, data=[72, 0]),\n",
      "   midi.NoteOnEvent(tick=0, channel=0, data=[69, 100]),\n",
      "   midi.NoteOnEvent(tick=96, channel=0, data=[69, 0]),\n",
      "   midi.NoteOnEvent(tick=0, channel=0, data=[68, 100]),\n",
      "   midi.NoteOnEvent(tick=96, channel=0, data=[68, 0]),\n",
      "   midi.NoteOnEvent(tick=0, channel=0, data=[69, 100]),\n",
      "   midi.NoteOnEvent(tick=96, channel=0, data=[69, 0]),\n",
      "   midi.NoteOnEvent(tick=0, channel=0, data=[74, 100]),\n",
      "   midi.NoteOnEvent(tick=96, channel=0, data=[74, 0]),\n",
      "   midi.NoteOnEvent(tick=0, channel=0, data=[69, 100]),\n",
      "   midi.NoteOnEvent(tick=96, channel=0, data=[69, 0]),\n",
      "   midi.NoteOnEvent(tick=0, channel=0, data=[68, 100]),\n",
      "   midi.NoteOnEvent(tick=96, channel=0, data=[68, 0]),\n",
      "   midi.NoteOnEvent(tick=0, channel=0, data=[69, 100]),\n",
      "   midi.NoteOnEvent(tick=96, channel=0, data=[69, 0]),\n",
      "   midi.NoteOnEvent(tick=0, channel=0, data=[76, 100]),\n",
      "   midi.NoteOnEvent(tick=96, channel=0, data=[76, 0]),\n",
      "   midi.NoteOnEvent(tick=0, channel=0, data=[69, 100]),\n",
      "   midi.NoteOnEvent(tick=96, channel=0, data=[69, 0]),\n",
      "   midi.NoteOnEvent(tick=0, channel=0, data=[68, 100]),\n",
      "   midi.NoteOnEvent(tick=96, channel=0, data=[68, 0]),\n",
      "   midi.NoteOnEvent(tick=0, channel=0, data=[69, 100]),\n",
      "   midi.NoteOnEvent(tick=96, channel=0, data=[69, 0]),\n",
      "   midi.NoteOnEvent(tick=0, channel=0, data=[77, 100]),\n",
      "   midi.NoteOnEvent(tick=96, channel=0, data=[77, 0]),\n",
      "   midi.NoteOnEvent(tick=0, channel=0, data=[79, 100]),\n",
      "   midi.NoteOnEvent(tick=96, channel=0, data=[79, 0]),\n",
      "   midi.NoteOnEvent(tick=0, channel=0, data=[77, 100]),\n",
      "   midi.NoteOnEvent(tick=96, channel=0, data=[77, 0]),\n",
      "   midi.NoteOnEvent(tick=0, channel=0, data=[76, 100]),\n",
      "   midi.NoteOnEvent(tick=96, channel=0, data=[76, 0]),\n",
      "   midi.NoteOnEvent(tick=0, channel=0, data=[74, 100]),\n",
      "   midi.NoteOnEvent(tick=96, channel=0, data=[74, 0]),\n",
      "   midi.NoteOnEvent(tick=0, channel=0, data=[72, 100]),\n",
      "   midi.NoteOnEvent(tick=96, channel=0, data=[72, 0]),\n",
      "   midi.NoteOnEvent(tick=0, channel=0, data=[71, 100]),\n",
      "   midi.NoteOnEvent(tick=96, channel=0, data=[71, 0]),\n",
      "   midi.NoteOnEvent(tick=0, channel=0, data=[69, 100]),\n",
      "   midi.NoteOnEvent(tick=96, channel=0, data=[69, 0]),\n",
      "   midi.NoteOnEvent(tick=0, channel=0, data=[68, 100]),\n",
      "   midi.NoteOnEvent(tick=192, channel=0, data=[68, 0]),\n",
      "   midi.NoteOnEvent(tick=0, channel=0, data=[64, 100]),\n",
      "   midi.NoteOnEvent(tick=192, channel=0, data=[64, 0]),\n",
      "   midi.NoteOnEvent(tick=0, channel=0, data=[83, 100]),\n",
      "   midi.NoteOnEvent(tick=576, channel=0, data=[83, 0]),\n",
      "   midi.NoteOnEvent(tick=0, channel=0, data=[81, 100]),\n",
      "   midi.NoteOnEvent(tick=96, channel=0, data=[81, 0]),\n",
      "   midi.NoteOnEvent(tick=0, channel=0, data=[80, 100]),\n",
      "   midi.NoteOnEvent(tick=96, channel=0, data=[80, 0]),\n",
      "   midi.NoteOnEvent(tick=0, channel=0, data=[81, 100]),\n",
      "   midi.NoteOnEvent(tick=192, channel=0, data=[81, 0]),\n",
      "   midi.NoteOnEvent(tick=0, channel=0, data=[84, 100]),\n",
      "   midi.NoteOnEvent(tick=384, channel=0, data=[84, 0]),\n",
      "   midi.NoteOnEvent(tick=0, channel=0, data=[78, 100]),\n",
      "   midi.NoteOnEvent(tick=192, channel=0, data=[78, 0]),\n",
      "   midi.NoteOnEvent(tick=0, channel=0, data=[81, 100]),\n",
      "   midi.NoteOnEvent(tick=576, channel=0, data=[81, 0]),\n",
      "   midi.NoteOnEvent(tick=0, channel=0, data=[79, 100]),\n",
      "   midi.NoteOnEvent(tick=96, channel=0, data=[79, 0]),\n",
      "   midi.NoteOnEvent(tick=0, channel=0, data=[78, 100]),\n",
      "   midi.NoteOnEvent(tick=96, channel=0, data=[78, 0]),\n",
      "   midi.NoteOnEvent(tick=0, channel=0, data=[79, 100]),\n",
      "   midi.NoteOnEvent(tick=192, channel=0, data=[79, 0]),\n",
      "   midi.NoteOnEvent(tick=0, channel=0, data=[83, 100]),\n",
      "   midi.NoteOnEvent(tick=288, channel=0, data=[83, 0]),\n",
      "   midi.NoteOnEvent(tick=0, channel=0, data=[81, 100]),\n",
      "   midi.NoteOnEvent(tick=96, channel=0, data=[81, 0]),\n",
      "   midi.NoteOnEvent(tick=0, channel=0, data=[79, 100]),\n",
      "   midi.NoteOnEvent(tick=96, channel=0, data=[79, 0]),\n",
      "   midi.NoteOnEvent(tick=0, channel=0, data=[78, 100]),\n",
      "   midi.NoteOnEvent(tick=96, channel=0, data=[78, 0]),\n",
      "   midi.NoteOnEvent(tick=0, channel=0, data=[76, 100]),\n",
      "   midi.NoteOnEvent(tick=576, channel=0, data=[76, 0]),\n",
      "   midi.NoteOnEvent(tick=0, channel=0, data=[78, 100]),\n",
      "   midi.NoteOnEvent(tick=96, channel=0, data=[78, 0]),\n",
      "   midi.NoteOnEvent(tick=0, channel=0, data=[79, 100]),\n",
      "   midi.NoteOnEvent(tick=96, channel=0, data=[79, 0]),\n",
      "   midi.NoteOnEvent(tick=0, channel=0, data=[81, 100]),\n",
      "   midi.NoteOnEvent(tick=192, channel=0, data=[81, 0]),\n",
      "   midi.NoteOnEvent(tick=0, channel=0, data=[72, 100]),\n",
      "   midi.NoteOnEvent(tick=192, channel=0, data=[72, 0]),\n",
      "   midi.NoteOnEvent(tick=0, channel=0, data=[71, 100]),\n",
      "   midi.NoteOnEvent(tick=192, channel=0, data=[71, 0]),\n",
      "   midi.NoteOnEvent(tick=0, channel=0, data=[81, 100]),\n",
      "   midi.NoteOnEvent(tick=192, channel=0, data=[81, 0]),\n",
      "   midi.NoteOnEvent(tick=0, channel=0, data=[79, 100]),\n",
      "   midi.NoteOnEvent(tick=192, channel=0, data=[79, 0]),\n",
      "   midi.NoteOnEvent(tick=0, channel=0, data=[71, 100]),\n",
      "   midi.NoteOnEvent(tick=192, channel=0, data=[71, 0]),\n",
      "   midi.NoteOnEvent(tick=0, channel=0, data=[69, 100]),\n",
      "   midi.NoteOnEvent(tick=96, channel=0, data=[69, 0]),\n",
      "   midi.NoteOnEvent(tick=0, channel=0, data=[71, 100]),\n",
      "   midi.NoteOnEvent(tick=96, channel=0, data=[71, 0]),\n",
      "   midi.NoteOnEvent(tick=0, channel=0, data=[72, 100]),\n",
      "   midi.NoteOnEvent(tick=96, channel=0, data=[72, 0]),\n",
      "   midi.NoteOnEvent(tick=0, channel=0, data=[71, 100]),\n",
      "   midi.NoteOnEvent(tick=96, channel=0, data=[71, 0]),\n",
      "   midi.NoteOnEvent(tick=0, channel=0, data=[69, 100]),\n",
      "   midi.NoteOnEvent(tick=96, channel=0, data=[69, 0]),\n",
      "   midi.NoteOnEvent(tick=0, channel=0, data=[67, 100]),\n",
      "   midi.NoteOnEvent(tick=96, channel=0, data=[67, 0]),\n",
      "   midi.NoteOnEvent(tick=0, channel=0, data=[66, 100]),\n",
      "   midi.NoteOnEvent(tick=96, channel=0, data=[66, 0]),\n",
      "   midi.NoteOnEvent(tick=0, channel=0, data=[64, 100]),\n",
      "   midi.NoteOnEvent(tick=96, channel=0, data=[64, 0]),\n",
      "   midi.NoteOnEvent(tick=0, channel=0, data=[63, 100]),\n",
      "   midi.NoteOnEvent(tick=192, channel=0, data=[63, 0]),\n",
      "   midi.NoteOnEvent(tick=0, channel=0, data=[72, 100]),\n",
      "   midi.NoteOnEvent(tick=192, channel=0, data=[72, 0]),\n",
      "   midi.NoteOnEvent(tick=0, channel=0, data=[71, 100]),\n",
      "   midi.NoteOnEvent(tick=192, channel=0, data=[71, 0]),\n",
      "   midi.NoteOnEvent(tick=0, channel=0, data=[76, 100]),\n",
      "   midi.NoteOnEvent(tick=192, channel=0, data=[76, 0]),\n",
      "   midi.NoteOnEvent(tick=0, channel=0, data=[79, 100]),\n",
      "   midi.NoteOnEvent(tick=384, channel=0, data=[79, 0]),\n",
      "   midi.NoteOnEvent(tick=0, channel=0, data=[78, 100]),\n",
      "   midi.NoteOnEvent(tick=48, channel=0, data=[78, 0]),\n",
      "   midi.NoteOnEvent(tick=0, channel=0, data=[79, 100]),\n",
      "   midi.NoteOnEvent(tick=48, channel=0, data=[79, 0]),\n",
      "   midi.NoteOnEvent(tick=0, channel=0, data=[78, 100]),\n",
      "   midi.NoteOnEvent(tick=48, channel=0, data=[78, 0]),\n",
      "   midi.NoteOnEvent(tick=0, channel=0, data=[79, 100]),\n",
      "   midi.NoteOnEvent(tick=48, channel=0, data=[79, 0]),\n",
      "   midi.NoteOnEvent(tick=0, channel=0, data=[78, 100]),\n",
      "   midi.NoteOnEvent(tick=48, channel=0, data=[78, 0]),\n",
      "   midi.NoteOnEvent(tick=0, channel=0, data=[79, 100]),\n",
      "   midi.NoteOnEvent(tick=48, channel=0, data=[79, 0]),\n",
      "   midi.NoteOnEvent(tick=0, channel=0, data=[78, 100]),\n",
      "   midi.NoteOnEvent(tick=48, channel=0, data=[78, 0]),\n",
      "   midi.NoteOnEvent(tick=0, channel=0, data=[79, 100]),\n",
      "   midi.NoteOnEvent(tick=48, channel=0, data=[79, 0]),\n",
      "   midi.NoteOnEvent(tick=0, channel=0, data=[78, 100]),\n",
      "   midi.NoteOnEvent(tick=96, channel=0, data=[78, 0]),\n",
      "   midi.NoteOnEvent(tick=0, channel=0, data=[79, 100]),\n",
      "   midi.NoteOnEvent(tick=96, channel=0, data=[79, 0]),\n",
      "   midi.NoteOnEvent(tick=0, channel=0, data=[81, 100]),\n",
      "   midi.NoteOnEvent(tick=96, channel=0, data=[81, 0]),\n",
      "   midi.NoteOnEvent(tick=0, channel=0, data=[78, 100]),\n",
      "   midi.NoteOnEvent(tick=96, channel=0, data=[78, 0]),\n",
      "   midi.NoteOnEvent(tick=0, channel=0, data=[75, 100]),\n",
      "   midi.NoteOnEvent(tick=96, channel=0, data=[75, 0]),\n",
      "   midi.NoteOnEvent(tick=0, channel=0, data=[76, 100]),\n",
      "   midi.NoteOnEvent(tick=96, channel=0, data=[76, 0]),\n",
      "   midi.NoteOnEvent(tick=0, channel=0, data=[78, 100]),\n",
      "   midi.NoteOnEvent(tick=96, channel=0, data=[78, 0]),\n",
      "   midi.NoteOnEvent(tick=0, channel=0, data=[75, 100]),\n",
      "   midi.NoteOnEvent(tick=96, channel=0, data=[75, 0]),\n",
      "   midi.NoteOnEvent(tick=0, channel=0, data=[83, 100]),\n",
      "   midi.NoteOnEvent(tick=192, channel=0, data=[83, 0]),\n",
      "   midi.NoteOnEvent(tick=0, channel=0, data=[76, 100]),\n",
      "   midi.NoteOnEvent(tick=192, channel=0, data=[76, 0]),\n",
      "   midi.NoteOnEvent(tick=0, channel=0, data=[78, 100]),\n",
      "   midi.NoteOnEvent(tick=192, channel=0, data=[78, 0]),\n",
      "   midi.NoteOnEvent(tick=0, channel=0, data=[75, 100]),\n",
      "   midi.NoteOnEvent(tick=192, channel=0, data=[75, 0]),\n",
      "   midi.NoteOnEvent(tick=0, channel=0, data=[76, 100]),\n",
      "   midi.NoteOnEvent(tick=96, channel=0, data=[76, 0]),\n",
      "   midi.NoteOnEvent(tick=0, channel=0, data=[74, 100]),\n",
      "   midi.NoteOnEvent(tick=96, channel=0, data=[74, 0]),\n",
      "   midi.NoteOnEvent(tick=0, channel=0, data=[72, 100]),\n",
      "   midi.NoteOnEvent(tick=96, channel=0, data=[72, 0]),\n",
      "   midi.NoteOnEvent(tick=0, channel=0, data=[71, 100]),\n",
      "   midi.NoteOnEvent(tick=96, channel=0, data=[71, 0]),\n",
      "   midi.NoteOnEvent(tick=0, channel=0, data=[69, 100]),\n",
      "   midi.NoteOnEvent(tick=192, channel=0, data=[69, 0]),\n",
      "   midi.NoteOnEvent(tick=0, channel=0, data=[69, 100]),\n",
      "   midi.NoteOnEvent(tick=192, channel=0, data=[69, 0]),\n",
      "   midi.NoteOnEvent(tick=0, channel=0, data=[69, 100]),\n",
      "   midi.NoteOnEvent(tick=96, channel=0, data=[69, 0]),\n",
      "   midi.NoteOnEvent(tick=0, channel=0, data=[71, 100]),\n",
      "   midi.NoteOnEvent(tick=96, channel=0, data=[71, 0]),\n",
      "   midi.NoteOnEvent(tick=0, channel=0, data=[72, 100]),\n",
      "   midi.NoteOnEvent(tick=288, channel=0, data=[72, 0]),\n",
      "   midi.NoteOnEvent(tick=0, channel=0, data=[71, 100]),\n",
      "   midi.NoteOnEvent(tick=96, channel=0, data=[71, 0]),\n",
      "   midi.NoteOnEvent(tick=0, channel=0, data=[69, 100]),\n",
      "   midi.NoteOnEvent(tick=96, channel=0, data=[69, 0]),\n",
      "   midi.NoteOnEvent(tick=0, channel=0, data=[67, 100]),\n",
      "   midi.NoteOnEvent(tick=96, channel=0, data=[67, 0]),\n",
      "   midi.NoteOnEvent(tick=0, channel=0, data=[66, 100]),\n",
      "   midi.NoteOnEvent(tick=96, channel=0, data=[66, 0]),\n",
      "   midi.NoteOnEvent(tick=0, channel=0, data=[67, 100]),\n",
      "   midi.NoteOnEvent(tick=96, channel=0, data=[67, 0]),\n",
      "   midi.NoteOnEvent(tick=0, channel=0, data=[69, 100]),\n",
      "   midi.NoteOnEvent(tick=288, channel=0, data=[69, 0]),\n",
      "   midi.NoteOnEvent(tick=0, channel=0, data=[67, 100]),\n",
      "   midi.NoteOnEvent(tick=96, channel=0, data=[67, 0]),\n",
      "   midi.NoteOnEvent(tick=0, channel=0, data=[66, 100]),\n",
      "   midi.NoteOnEvent(tick=96, channel=0, data=[66, 0]),\n",
      "   midi.NoteOnEvent(tick=0, channel=0, data=[64, 100]),\n",
      "   midi.NoteOnEvent(tick=96, channel=0, data=[64, 0]),\n",
      "   midi.NoteOnEvent(tick=0, channel=0, data=[63, 100]),\n",
      "   midi.NoteOnEvent(tick=192, channel=0, data=[63, 0]),\n",
      "   midi.NoteOnEvent(tick=0, channel=0, data=[71, 100]),\n",
      "   midi.NoteOnEvent(tick=192, channel=0, data=[71, 0]),\n",
      "   midi.NoteOnEvent(tick=0, channel=0, data=[67, 100]),\n",
      "   midi.NoteOnEvent(tick=48, channel=0, data=[67, 0]),\n",
      "   midi.NoteOnEvent(tick=0, channel=0, data=[69, 100]),\n",
      "   midi.NoteOnEvent(tick=48, channel=0, data=[69, 0]),\n",
      "   midi.NoteOnEvent(tick=0, channel=0, data=[67, 100]),\n",
      "   midi.NoteOnEvent(tick=48, channel=0, data=[67, 0]),\n",
      "   midi.NoteOnEvent(tick=0, channel=0, data=[69, 100]),\n",
      "   midi.NoteOnEvent(tick=48, channel=0, data=[69, 0]),\n",
      "   midi.NoteOnEvent(tick=0, channel=0, data=[66, 100]),\n",
      "   midi.NoteOnEvent(tick=96, channel=0, data=[66, 0]),\n",
      "   midi.NoteOnEvent(tick=0, channel=0, data=[64, 100]),\n",
      "   midi.NoteOnEvent(tick=96, channel=0, data=[64, 0]),\n",
      "   midi.NoteOnEvent(tick=0, channel=0, data=[64, 100]),\n",
      "   midi.NoteOnEvent(tick=384, channel=0, data=[64, 0]),\n",
      "   midi.NoteOnEvent(tick=96, channel=0, data=[76, 100]),\n",
      "   midi.NoteOnEvent(tick=96, channel=0, data=[76, 0]),\n",
      "   midi.NoteOnEvent(tick=0, channel=0, data=[75, 100]),\n",
      "   midi.NoteOnEvent(tick=96, channel=0, data=[75, 0]),\n",
      "   midi.NoteOnEvent(tick=0, channel=0, data=[76, 100]),\n",
      "   midi.NoteOnEvent(tick=96, channel=0, data=[76, 0]),\n",
      "   midi.NoteOnEvent(tick=0, channel=0, data=[81, 100]),\n",
      "   midi.NoteOnEvent(tick=96, channel=0, data=[81, 0]),\n",
      "   midi.NoteOnEvent(tick=0, channel=0, data=[80, 100]),\n",
      "   midi.NoteOnEvent(tick=96, channel=0, data=[80, 0]),\n",
      "   midi.NoteOnEvent(tick=0, channel=0, data=[81, 100]),\n",
      "   midi.NoteOnEvent(tick=288, channel=0, data=[81, 0]),\n",
      "   midi.NoteOnEvent(tick=0, channel=0, data=[76, 100]),\n",
      "   midi.NoteOnEvent(tick=96, channel=0, data=[76, 0]),\n",
      "   midi.NoteOnEvent(tick=0, channel=0, data=[75, 100]),\n",
      "   midi.NoteOnEvent(tick=96, channel=0, data=[75, 0]),\n",
      "   midi.NoteOnEvent(tick=0, channel=0, data=[76, 100]),\n",
      "   midi.NoteOnEvent(tick=96, channel=0, data=[76, 0]),\n",
      "   midi.NoteOnEvent(tick=0, channel=0, data=[84, 100]),\n",
      "   midi.NoteOnEvent(tick=192, channel=0, data=[84, 0]),\n",
      "   midi.NoteOnEvent(tick=0, channel=0, data=[83, 100]),\n",
      "   midi.NoteOnEvent(tick=288, channel=0, data=[83, 0]),\n",
      "   midi.NoteOnEvent(tick=0, channel=0, data=[76, 100]),\n",
      "   midi.NoteOnEvent(tick=96, channel=0, data=[76, 0]),\n",
      "   midi.NoteOnEvent(tick=0, channel=0, data=[74, 100]),\n",
      "   midi.NoteOnEvent(tick=96, channel=0, data=[74, 0]),\n",
      "   midi.NoteOnEvent(tick=0, channel=0, data=[76, 100]),\n",
      "   midi.NoteOnEvent(tick=96, channel=0, data=[76, 0]),\n",
      "   midi.NoteOnEvent(tick=0, channel=0, data=[83, 100]),\n",
      "   midi.NoteOnEvent(tick=96, channel=0, data=[83, 0]),\n",
      "   midi.NoteOnEvent(tick=0, channel=0, data=[81, 100]),\n",
      "   midi.NoteOnEvent(tick=96, channel=0, data=[81, 0]),\n",
      "   midi.NoteOnEvent(tick=0, channel=0, data=[83, 100]),\n",
      "   midi.NoteOnEvent(tick=288, channel=0, data=[83, 0]),\n",
      "   midi.NoteOnEvent(tick=0, channel=0, data=[76, 100]),\n",
      "   midi.NoteOnEvent(tick=96, channel=0, data=[76, 0]),\n",
      "   midi.NoteOnEvent(tick=0, channel=0, data=[74, 100]),\n",
      "   midi.NoteOnEvent(tick=96, channel=0, data=[74, 0]),\n",
      "   midi.NoteOnEvent(tick=0, channel=0, data=[76, 100]),\n",
      "   midi.NoteOnEvent(tick=96, channel=0, data=[76, 0]),\n",
      "   midi.NoteOnEvent(tick=0, channel=0, data=[86, 100]),\n",
      "   midi.NoteOnEvent(tick=192, channel=0, data=[86, 0]),\n",
      "   midi.NoteOnEvent(tick=0, channel=0, data=[84, 100]),\n",
      "   midi.NoteOnEvent(tick=288, channel=0, data=[84, 0]),\n",
      "   midi.NoteOnEvent(tick=0, channel=0, data=[76, 100]),\n",
      "   midi.NoteOnEvent(tick=96, channel=0, data=[76, 0]),\n",
      "   midi.NoteOnEvent(tick=0, channel=0, data=[74, 100]),\n",
      "   midi.NoteOnEvent(tick=96, channel=0, data=[74, 0]),\n",
      "   midi.NoteOnEvent(tick=0, channel=0, data=[76, 100]),\n",
      "   midi.NoteOnEvent(tick=96, channel=0, data=[76, 0]),\n",
      "   midi.NoteOnEvent(tick=0, channel=0, data=[84, 100]),\n",
      "   midi.NoteOnEvent(tick=96, channel=0, data=[84, 0]),\n",
      "   midi.NoteOnEvent(tick=0, channel=0, data=[83, 100]),\n",
      "   midi.NoteOnEvent(tick=96, channel=0, data=[83, 0]),\n",
      "   midi.NoteOnEvent(tick=0, channel=0, data=[81, 100]),\n",
      "   midi.NoteOnEvent(tick=96, channel=0, data=[81, 0]),\n",
      "   midi.NoteOnEvent(tick=0, channel=0, data=[79, 100]),\n",
      "   midi.NoteOnEvent(tick=96, channel=0, data=[79, 0]),\n",
      "   midi.NoteOnEvent(tick=0, channel=0, data=[77, 100]),\n",
      "   midi.NoteOnEvent(tick=96, channel=0, data=[77, 0]),\n",
      "   midi.NoteOnEvent(tick=0, channel=0, data=[74, 100]),\n",
      "   midi.NoteOnEvent(tick=96, channel=0, data=[74, 0]),\n",
      "   midi.NoteOnEvent(tick=0, channel=0, data=[72, 100]),\n",
      "   midi.NoteOnEvent(tick=96, channel=0, data=[72, 0]),\n",
      "   midi.NoteOnEvent(tick=0, channel=0, data=[74, 100]),\n",
      "   midi.NoteOnEvent(tick=96, channel=0, data=[74, 0]),\n",
      "   midi.NoteOnEvent(tick=0, channel=0, data=[83, 100]),\n",
      "   midi.NoteOnEvent(tick=96, channel=0, data=[83, 0]),\n",
      "   midi.NoteOnEvent(tick=0, channel=0, data=[81, 100]),\n",
      "   midi.NoteOnEvent(tick=96, channel=0, data=[81, 0]),\n",
      "   midi.NoteOnEvent(tick=0, channel=0, data=[79, 100]),\n",
      "   midi.NoteOnEvent(tick=96, channel=0, data=[79, 0]),\n",
      "   midi.NoteOnEvent(tick=0, channel=0, data=[77, 100]),\n",
      "   midi.NoteOnEvent(tick=96, channel=0, data=[77, 0]),\n",
      "   midi.NoteOnEvent(tick=0, channel=0, data=[76, 100]),\n",
      "   midi.NoteOnEvent(tick=96, channel=0, data=[76, 0]),\n",
      "   midi.NoteOnEvent(tick=0, channel=0, data=[72, 100]),\n",
      "   midi.NoteOnEvent(tick=96, channel=0, data=[72, 0]),\n",
      "   midi.NoteOnEvent(tick=0, channel=0, data=[71, 100]),\n",
      "   midi.NoteOnEvent(tick=96, channel=0, data=[71, 0]),\n",
      "   midi.NoteOnEvent(tick=0, channel=0, data=[72, 100]),\n",
      "   midi.NoteOnEvent(tick=96, channel=0, data=[72, 0]),\n",
      "   midi.NoteOnEvent(tick=0, channel=0, data=[81, 100]),\n",
      "   midi.NoteOnEvent(tick=96, channel=0, data=[81, 0]),\n",
      "   midi.NoteOnEvent(tick=0, channel=0, data=[79, 100]),\n",
      "   midi.NoteOnEvent(tick=96, channel=0, data=[79, 0]),\n",
      "   midi.NoteOnEvent(tick=0, channel=0, data=[77, 100]),\n",
      "   midi.NoteOnEvent(tick=96, channel=0, data=[77, 0]),\n",
      "   midi.NoteOnEvent(tick=0, channel=0, data=[76, 100]),\n",
      "   midi.NoteOnEvent(tick=96, channel=0, data=[76, 0]),\n",
      "   midi.NoteOnEvent(tick=0, channel=0, data=[74, 100]),\n",
      "   midi.NoteOnEvent(tick=96, channel=0, data=[74, 0]),\n",
      "   midi.NoteOnEvent(tick=0, channel=0, data=[71, 100]),\n",
      "   midi.NoteOnEvent(tick=96, channel=0, data=[71, 0]),\n",
      "   midi.NoteOnEvent(tick=0, channel=0, data=[69, 100]),\n",
      "   midi.NoteOnEvent(tick=96, channel=0, data=[69, 0]),\n",
      "   midi.NoteOnEvent(tick=0, channel=0, data=[71, 100]),\n",
      "   midi.NoteOnEvent(tick=96, channel=0, data=[71, 0]),\n",
      "   midi.NoteOnEvent(tick=0, channel=0, data=[80, 100]),\n",
      "   midi.NoteOnEvent(tick=96, channel=0, data=[80, 0]),\n",
      "   midi.NoteOnEvent(tick=0, channel=0, data=[81, 100]),\n",
      "   midi.NoteOnEvent(tick=96, channel=0, data=[81, 0]),\n",
      "   midi.NoteOnEvent(tick=0, channel=0, data=[80, 100]),\n",
      "   midi.NoteOnEvent(tick=96, channel=0, data=[80, 0]),\n",
      "   midi.NoteOnEvent(tick=0, channel=0, data=[78, 100]),\n",
      "   midi.NoteOnEvent(tick=96, channel=0, data=[78, 0]),\n",
      "   midi.NoteOnEvent(tick=0, channel=0, data=[76, 100]),\n",
      "   midi.NoteOnEvent(tick=96, channel=0, data=[76, 0]),\n",
      "   midi.NoteOnEvent(tick=0, channel=0, data=[74, 100]),\n",
      "   midi.NoteOnEvent(tick=96, channel=0, data=[74, 0]),\n",
      "   midi.NoteOnEvent(tick=0, channel=0, data=[72, 100]),\n",
      "   midi.NoteOnEvent(tick=96, channel=0, data=[72, 0]),\n",
      "   midi.NoteOnEvent(tick=0, channel=0, data=[71, 100]),\n",
      "   midi.NoteOnEvent(tick=96, channel=0, data=[71, 0]),\n",
      "   midi.NoteOnEvent(tick=0, channel=0, data=[72, 100]),\n",
      "   midi.NoteOnEvent(tick=96, channel=0, data=[72, 0]),\n",
      "   midi.NoteOnEvent(tick=0, channel=0, data=[74, 100]),\n",
      "   midi.NoteOnEvent(tick=96, channel=0, data=[74, 0]),\n",
      "   midi.NoteOnEvent(tick=0, channel=0, data=[72, 100]),\n",
      "   midi.NoteOnEvent(tick=96, channel=0, data=[72, 0]),\n",
      "   midi.NoteOnEvent(tick=0, channel=0, data=[71, 100]),\n",
      "   midi.NoteOnEvent(tick=96, channel=0, data=[71, 0]),\n",
      "   midi.NoteOnEvent(tick=0, channel=0, data=[69, 100]),\n",
      "   midi.NoteOnEvent(tick=96, channel=0, data=[69, 0]),\n",
      "   midi.NoteOnEvent(tick=0, channel=0, data=[81, 100]),\n",
      "   midi.NoteOnEvent(tick=96, channel=0, data=[81, 0]),\n",
      "   midi.NoteOnEvent(tick=0, channel=0, data=[76, 100]),\n",
      "   midi.NoteOnEvent(tick=96, channel=0, data=[76, 0]),\n",
      "   midi.NoteOnEvent(tick=0, channel=0, data=[79, 100]),\n",
      "   midi.NoteOnEvent(tick=96, channel=0, data=[79, 0]),\n",
      "   midi.NoteOnEvent(tick=0, channel=0, data=[77, 100]),\n",
      "   midi.NoteOnEvent(tick=96, channel=0, data=[77, 0]),\n",
      "   midi.NoteOnEvent(tick=0, channel=0, data=[79, 100]),\n",
      "   midi.NoteOnEvent(tick=96, channel=0, data=[79, 0]),\n",
      "   midi.NoteOnEvent(tick=0, channel=0, data=[77, 100]),\n",
      "   midi.NoteOnEvent(tick=96, channel=0, data=[77, 0]),\n",
      "   midi.NoteOnEvent(tick=0, channel=0, data=[76, 100]),\n",
      "   midi.NoteOnEvent(tick=96, channel=0, data=[76, 0]),\n",
      "   midi.NoteOnEvent(tick=0, channel=0, data=[74, 100]),\n",
      "   midi.NoteOnEvent(tick=96, channel=0, data=[74, 0]),\n",
      "   midi.NoteOnEvent(tick=0, channel=0, data=[72, 100]),\n",
      "   midi.NoteOnEvent(tick=96, channel=0, data=[72, 0]),\n",
      "   midi.NoteOnEvent(tick=0, channel=0, data=[71, 100]),\n",
      "   midi.NoteOnEvent(tick=96, channel=0, data=[71, 0]),\n",
      "   midi.NoteOnEvent(tick=0, channel=0, data=[69, 100]),\n",
      "   midi.NoteOnEvent(tick=96, channel=0, data=[69, 0]),\n",
      "   midi.NoteOnEvent(tick=0, channel=0, data=[71, 100]),\n",
      "   midi.NoteOnEvent(tick=96, channel=0, data=[71, 0]),\n",
      "   midi.NoteOnEvent(tick=0, channel=0, data=[72, 100]),\n",
      "   midi.NoteOnEvent(tick=96, channel=0, data=[72, 0]),\n",
      "   midi.NoteOnEvent(tick=0, channel=0, data=[71, 100]),\n",
      "   midi.NoteOnEvent(tick=96, channel=0, data=[71, 0]),\n",
      "   midi.NoteOnEvent(tick=0, channel=0, data=[69, 100]),\n",
      "   midi.NoteOnEvent(tick=96, channel=0, data=[69, 0]),\n",
      "   midi.NoteOnEvent(tick=0, channel=0, data=[67, 100]),\n",
      "   midi.NoteOnEvent(tick=96, channel=0, data=[67, 0]),\n",
      "   midi.NoteOnEvent(tick=0, channel=0, data=[79, 100]),\n",
      "   midi.NoteOnEvent(tick=96, channel=0, data=[79, 0]),\n",
      "   midi.NoteOnEvent(tick=0, channel=0, data=[74, 100]),\n",
      "   midi.NoteOnEvent(tick=96, channel=0, data=[74, 0]),\n",
      "   midi.NoteOnEvent(tick=0, channel=0, data=[77, 100]),\n",
      "   midi.NoteOnEvent(tick=96, channel=0, data=[77, 0]),\n",
      "   midi.NoteOnEvent(tick=0, channel=0, data=[76, 100]),\n",
      "   midi.NoteOnEvent(tick=96, channel=0, data=[76, 0]),\n",
      "   midi.NoteOnEvent(tick=0, channel=0, data=[77, 100]),\n",
      "   midi.NoteOnEvent(tick=96, channel=0, data=[77, 0]),\n",
      "   midi.NoteOnEvent(tick=0, channel=0, data=[76, 100]),\n",
      "   midi.NoteOnEvent(tick=96, channel=0, data=[76, 0]),\n",
      "   midi.NoteOnEvent(tick=0, channel=0, data=[74, 100]),\n",
      "   midi.NoteOnEvent(tick=96, channel=0, data=[74, 0]),\n",
      "   midi.NoteOnEvent(tick=0, channel=0, data=[72, 100]),\n",
      "   midi.NoteOnEvent(tick=96, channel=0, data=[72, 0]),\n",
      "   midi.NoteOnEvent(tick=0, channel=0, data=[71, 100]),\n",
      "   midi.NoteOnEvent(tick=96, channel=0, data=[71, 0]),\n",
      "   midi.NoteOnEvent(tick=0, channel=0, data=[69, 100]),\n",
      "   midi.NoteOnEvent(tick=96, channel=0, data=[69, 0]),\n",
      "   midi.NoteOnEvent(tick=0, channel=0, data=[67, 100]),\n",
      "   midi.NoteOnEvent(tick=96, channel=0, data=[67, 0]),\n",
      "   midi.NoteOnEvent(tick=0, channel=0, data=[69, 100]),\n",
      "   midi.NoteOnEvent(tick=96, channel=0, data=[69, 0]),\n",
      "   midi.NoteOnEvent(tick=0, channel=0, data=[70, 100]),\n",
      "   midi.NoteOnEvent(tick=96, channel=0, data=[70, 0]),\n",
      "   midi.NoteOnEvent(tick=0, channel=0, data=[69, 100]),\n",
      "   midi.NoteOnEvent(tick=96, channel=0, data=[69, 0]),\n",
      "   midi.NoteOnEvent(tick=0, channel=0, data=[67, 100]),\n",
      "   midi.NoteOnEvent(tick=96, channel=0, data=[67, 0]),\n",
      "   midi.NoteOnEvent(tick=0, channel=0, data=[65, 100]),\n",
      "   midi.NoteOnEvent(tick=96, channel=0, data=[65, 0]),\n",
      "   midi.NoteOnEvent(tick=0, channel=0, data=[77, 100]),\n",
      "   midi.NoteOnEvent(tick=96, channel=0, data=[77, 0]),\n",
      "   midi.NoteOnEvent(tick=0, channel=0, data=[72, 100]),\n",
      "   midi.NoteOnEvent(tick=96, channel=0, data=[72, 0]),\n",
      "   midi.NoteOnEvent(tick=0, channel=0, data=[76, 100]),\n",
      "   midi.NoteOnEvent(tick=96, channel=0, data=[76, 0]),\n",
      "   midi.NoteOnEvent(tick=0, channel=0, data=[74, 100]),\n",
      "   midi.NoteOnEvent(tick=96, channel=0, data=[74, 0]),\n",
      "   midi.NoteOnEvent(tick=0, channel=0, data=[76, 100]),\n",
      "   midi.NoteOnEvent(tick=96, channel=0, data=[76, 0]),\n",
      "   midi.NoteOnEvent(tick=0, channel=0, data=[74, 100]),\n",
      "   midi.NoteOnEvent(tick=96, channel=0, data=[74, 0]),\n",
      "   midi.NoteOnEvent(tick=0, channel=0, data=[72, 100]),\n",
      "   midi.NoteOnEvent(tick=96, channel=0, data=[72, 0]),\n",
      "   midi.NoteOnEvent(tick=0, channel=0, data=[71, 100]),\n",
      "   midi.NoteOnEvent(tick=96, channel=0, data=[71, 0]),\n",
      "   midi.NoteOnEvent(tick=0, channel=0, data=[69, 100]),\n",
      "   midi.NoteOnEvent(tick=96, channel=0, data=[69, 0]),\n",
      "   midi.NoteOnEvent(tick=0, channel=0, data=[68, 100]),\n",
      "   midi.NoteOnEvent(tick=96, channel=0, data=[68, 0]),\n",
      "   midi.NoteOnEvent(tick=0, channel=0, data=[66, 100]),\n",
      "   midi.NoteOnEvent(tick=96, channel=0, data=[66, 0]),\n",
      "   midi.NoteOnEvent(tick=0, channel=0, data=[68, 100]),\n",
      "   midi.NoteOnEvent(tick=96, channel=0, data=[68, 0]),\n",
      "   midi.NoteOnEvent(tick=0, channel=0, data=[69, 100]),\n",
      "   midi.NoteOnEvent(tick=96, channel=0, data=[69, 0]),\n",
      "   midi.NoteOnEvent(tick=0, channel=0, data=[68, 100]),\n",
      "   midi.NoteOnEvent(tick=96, channel=0, data=[68, 0]),\n",
      "   midi.NoteOnEvent(tick=0, channel=0, data=[66, 100]),\n",
      "   midi.NoteOnEvent(tick=96, channel=0, data=[66, 0]),\n",
      "   midi.NoteOnEvent(tick=0, channel=0, data=[64, 100]),\n",
      "   midi.NoteOnEvent(tick=96, channel=0, data=[64, 0]),\n",
      "   midi.NoteOnEvent(tick=0, channel=0, data=[76, 100]),\n",
      "   midi.NoteOnEvent(tick=96, channel=0, data=[76, 0]),\n",
      "   midi.NoteOnEvent(tick=0, channel=0, data=[71, 100]),\n",
      "   midi.NoteOnEvent(tick=96, channel=0, data=[71, 0]),\n",
      "   midi.NoteOnEvent(tick=0, channel=0, data=[74, 100]),\n",
      "   midi.NoteOnEvent(tick=96, channel=0, data=[74, 0]),\n",
      "   midi.NoteOnEvent(tick=0, channel=0, data=[72, 100]),\n",
      "   midi.NoteOnEvent(tick=96, channel=0, data=[72, 0]),\n",
      "   midi.NoteOnEvent(tick=0, channel=0, data=[74, 100]),\n",
      "   midi.NoteOnEvent(tick=96, channel=0, data=[74, 0]),\n",
      "   midi.NoteOnEvent(tick=0, channel=0, data=[72, 100]),\n",
      "   midi.NoteOnEvent(tick=96, channel=0, data=[72, 0]),\n",
      "   midi.NoteOnEvent(tick=0, channel=0, data=[71, 100]),\n",
      "   midi.NoteOnEvent(tick=96, channel=0, data=[71, 0]),\n",
      "   midi.NoteOnEvent(tick=0, channel=0, data=[69, 100]),\n",
      "   midi.NoteOnEvent(tick=96, channel=0, data=[69, 0]),\n",
      "   midi.NoteOnEvent(tick=0, channel=0, data=[81, 100]),\n",
      "   midi.NoteOnEvent(tick=96, channel=0, data=[81, 0]),\n",
      "   midi.NoteOnEvent(tick=0, channel=0, data=[76, 100]),\n",
      "   midi.NoteOnEvent(tick=96, channel=0, data=[76, 0]),\n",
      "   midi.NoteOnEvent(tick=0, channel=0, data=[79, 100]),\n",
      "   midi.NoteOnEvent(tick=96, channel=0, data=[79, 0]),\n",
      "   midi.NoteOnEvent(tick=0, channel=0, data=[77, 100]),\n",
      "   midi.NoteOnEvent(tick=96, channel=0, data=[77, 0]),\n",
      "   midi.NoteOnEvent(tick=0, channel=0, data=[79, 100]),\n",
      "   midi.NoteOnEvent(tick=96, channel=0, data=[79, 0]),\n",
      "   midi.NoteOnEvent(tick=0, channel=0, data=[77, 100]),\n",
      "   midi.NoteOnEvent(tick=96, channel=0, data=[77, 0]),\n",
      "   midi.NoteOnEvent(tick=0, channel=0, data=[76, 100]),\n",
      "   midi.NoteOnEvent(tick=96, channel=0, data=[76, 0]),\n",
      "   midi.NoteOnEvent(tick=0, channel=0, data=[74, 100]),\n",
      "   midi.NoteOnEvent(tick=96, channel=0, data=[74, 0]),\n",
      "   midi.NoteOnEvent(tick=0, channel=0, data=[77, 100]),\n",
      "   midi.NoteOnEvent(tick=96, channel=0, data=[77, 0]),\n",
      "   midi.NoteOnEvent(tick=0, channel=0, data=[71, 100]),\n",
      "   midi.NoteOnEvent(tick=96, channel=0, data=[71, 0]),\n",
      "   midi.NoteOnEvent(tick=0, channel=0, data=[74, 100]),\n",
      "   midi.NoteOnEvent(tick=96, channel=0, data=[74, 0]),\n",
      "   midi.NoteOnEvent(tick=0, channel=0, data=[76, 100]),\n",
      "   midi.NoteOnEvent(tick=96, channel=0, data=[76, 0]),\n",
      "   midi.NoteOnEvent(tick=0, channel=0, data=[74, 100]),\n",
      "   midi.NoteOnEvent(tick=96, channel=0, data=[74, 0]),\n",
      "   midi.NoteOnEvent(tick=0, channel=0, data=[72, 100]),\n",
      "   midi.NoteOnEvent(tick=96, channel=0, data=[72, 0]),\n",
      "   midi.NoteOnEvent(tick=0, channel=0, data=[76, 100]),\n",
      "   midi.NoteOnEvent(tick=96, channel=0, data=[76, 0]),\n",
      "   midi.NoteOnEvent(tick=0, channel=0, data=[74, 100]),\n",
      "   midi.NoteOnEvent(tick=96, channel=0, data=[74, 0]),\n",
      "   midi.NoteOnEvent(tick=0, channel=0, data=[72, 100]),\n",
      "   midi.NoteOnEvent(tick=96, channel=0, data=[72, 0]),\n",
      "   midi.NoteOnEvent(tick=0, channel=0, data=[71, 100]),\n",
      "   midi.NoteOnEvent(tick=96, channel=0, data=[71, 0]),\n",
      "   midi.NoteOnEvent(tick=0, channel=0, data=[74, 100]),\n",
      "   midi.NoteOnEvent(tick=96, channel=0, data=[74, 0]),\n",
      "   midi.NoteOnEvent(tick=0, channel=0, data=[72, 100]),\n",
      "   midi.NoteOnEvent(tick=192, channel=0, data=[72, 0]),\n",
      "   midi.NoteOnEvent(tick=0, channel=0, data=[69, 100]),\n",
      "   midi.NoteOnEvent(tick=192, channel=0, data=[69, 0]),\n",
      "   midi.NoteOnEvent(tick=96, channel=0, data=[64, 100]),\n",
      "   midi.NoteOnEvent(tick=96, channel=0, data=[64, 0]),\n",
      "   midi.NoteOnEvent(tick=0, channel=0, data=[69, 100]),\n",
      "   midi.NoteOnEvent(tick=96, channel=0, data=[69, 0]),\n",
      "   midi.NoteOnEvent(tick=0, channel=0, data=[72, 100]),\n",
      "   midi.NoteOnEvent(tick=96, channel=0, data=[72, 0]),\n",
      "   midi.NoteOnEvent(tick=0, channel=0, data=[77, 100]),\n",
      "   midi.NoteOnEvent(tick=48, channel=0, data=[77, 0]),\n",
      "   midi.NoteOnEvent(tick=0, channel=0, data=[79, 100]),\n",
      "   midi.NoteOnEvent(tick=48, channel=0, data=[79, 0]),\n",
      "   midi.NoteOnEvent(tick=0, channel=0, data=[81, 100]),\n",
      "   midi.NoteOnEvent(tick=192, channel=0, data=[81, 0]),\n",
      "   midi.NoteOnEvent(tick=0, channel=0, data=[77, 100]),\n",
      "   midi.NoteOnEvent(tick=96, channel=0, data=[77, 0]),\n",
      "   midi.NoteOnEvent(tick=0, channel=0, data=[75, 100]),\n",
      "   midi.NoteOnEvent(tick=48, channel=0, data=[75, 0]),\n",
      "   midi.NoteOnEvent(tick=0, channel=0, data=[76, 100]),\n",
      "   midi.NoteOnEvent(tick=48, channel=0, data=[76, 0]),\n",
      "   midi.NoteOnEvent(tick=0, channel=0, data=[78, 100]),\n",
      "   midi.NoteOnEvent(tick=192, channel=0, data=[78, 0]),\n",
      "   midi.NoteOnEvent(tick=0, channel=0, data=[75, 100]),\n",
      "   midi.NoteOnEvent(tick=96, channel=0, data=[75, 0]),\n",
      "   midi.NoteOnEvent(tick=0, channel=0, data=[76, 100]),\n",
      "   midi.NoteOnEvent(tick=96, channel=0, data=[76, 0]),\n",
      "   midi.NoteOnEvent(tick=0, channel=0, data=[71, 100]),\n",
      "   midi.NoteOnEvent(tick=96, channel=0, data=[71, 0]),\n",
      "   midi.NoteOnEvent(tick=0, channel=0, data=[67, 100]),\n",
      "   midi.NoteOnEvent(tick=96, channel=0, data=[67, 0]),\n",
      "   midi.NoteOnEvent(tick=0, channel=0, data=[64, 100]),\n",
      "   midi.NoteOnEvent(tick=96, channel=0, data=[64, 0]),\n",
      "   midi.NoteOnEvent(tick=0, channel=0, data=[63, 100]),\n",
      "   midi.NoteOnEvent(tick=96, channel=0, data=[63, 0]),\n",
      "   midi.NoteOnEvent(tick=0, channel=0, data=[64, 100]),\n",
      "   midi.NoteOnEvent(tick=96, channel=0, data=[64, 0]),\n",
      "   midi.NoteOnEvent(tick=0, channel=0, data=[67, 100]),\n",
      "   midi.NoteOnEvent(tick=96, channel=0, data=[67, 0]),\n",
      "   midi.NoteOnEvent(tick=0, channel=0, data=[71, 100]),\n",
      "   midi.NoteOnEvent(tick=96, channel=0, data=[71, 0]),\n",
      "   midi.NoteOnEvent(tick=0, channel=0, data=[76, 100]),\n",
      "   midi.NoteOnEvent(tick=48, channel=0, data=[76, 0]),\n",
      "   midi.NoteOnEvent(tick=0, channel=0, data=[77, 100]),\n",
      "   midi.NoteOnEvent(tick=48, channel=0, data=[77, 0]),\n",
      "   midi.NoteOnEvent(tick=0, channel=0, data=[79, 100]),\n",
      "   midi.NoteOnEvent(tick=192, channel=0, data=[79, 0]),\n",
      "   midi.NoteOnEvent(tick=0, channel=0, data=[76, 100]),\n",
      "   midi.NoteOnEvent(tick=96, channel=0, data=[76, 0]),\n",
      "   midi.NoteOnEvent(tick=0, channel=0, data=[73, 100]),\n",
      "   midi.NoteOnEvent(tick=48, channel=0, data=[73, 0]),\n",
      "   midi.NoteOnEvent(tick=0, channel=0, data=[74, 100]),\n",
      "   midi.NoteOnEvent(tick=48, channel=0, data=[74, 0]),\n",
      "   midi.NoteOnEvent(tick=0, channel=0, data=[76, 100]),\n",
      "   midi.NoteOnEvent(tick=192, channel=0, data=[76, 0]),\n",
      "   midi.NoteOnEvent(tick=0, channel=0, data=[73, 100]),\n",
      "   midi.NoteOnEvent(tick=96, channel=0, data=[73, 0]),\n",
      "   midi.NoteOnEvent(tick=0, channel=0, data=[74, 100]),\n",
      "   midi.NoteOnEvent(tick=96, channel=0, data=[74, 0]),\n",
      "   midi.NoteOnEvent(tick=0, channel=0, data=[69, 100]),\n",
      "   midi.NoteOnEvent(tick=96, channel=0, data=[69, 0]),\n",
      "   midi.NoteOnEvent(tick=0, channel=0, data=[65, 100]),\n",
      "   midi.NoteOnEvent(tick=96, channel=0, data=[65, 0]),\n",
      "   midi.NoteOnEvent(tick=0, channel=0, data=[62, 100]),\n",
      "   midi.NoteOnEvent(tick=96, channel=0, data=[62, 0]),\n",
      "   midi.NoteOnEvent(tick=0, channel=0, data=[61, 100]),\n",
      "   midi.NoteOnEvent(tick=96, channel=0, data=[61, 0]),\n",
      "   midi.NoteOnEvent(tick=0, channel=0, data=[62, 100]),\n",
      "   midi.NoteOnEvent(tick=96, channel=0, data=[62, 0]),\n",
      "   midi.NoteOnEvent(tick=0, channel=0, data=[65, 100]),\n",
      "   midi.NoteOnEvent(tick=96, channel=0, data=[65, 0]),\n",
      "   midi.NoteOnEvent(tick=0, channel=0, data=[69, 100]),\n",
      "   midi.NoteOnEvent(tick=96, channel=0, data=[69, 0]),\n",
      "   midi.NoteOnEvent(tick=0, channel=0, data=[74, 100]),\n",
      "   midi.NoteOnEvent(tick=48, channel=0, data=[74, 0]),\n",
      "   midi.NoteOnEvent(tick=0, channel=0, data=[76, 100]),\n",
      "   midi.NoteOnEvent(tick=48, channel=0, data=[76, 0]),\n",
      "   midi.NoteOnEvent(tick=0, channel=0, data=[77, 100]),\n",
      "   midi.NoteOnEvent(tick=192, channel=0, data=[77, 0]),\n",
      "   midi.NoteOnEvent(tick=0, channel=0, data=[74, 100]),\n",
      "   midi.NoteOnEvent(tick=96, channel=0, data=[74, 0]),\n",
      "   midi.NoteOnEvent(tick=0, channel=0, data=[71, 100]),\n",
      "   midi.NoteOnEvent(tick=48, channel=0, data=[71, 0]),\n",
      "   midi.NoteOnEvent(tick=0, channel=0, data=[72, 100]),\n",
      "   midi.NoteOnEvent(tick=48, channel=0, data=[72, 0]),\n",
      "   midi.NoteOnEvent(tick=0, channel=0, data=[74, 100]),\n",
      "   midi.NoteOnEvent(tick=192, channel=0, data=[74, 0]),\n",
      "   midi.NoteOnEvent(tick=0, channel=0, data=[71, 100]),\n",
      "   midi.NoteOnEvent(tick=96, channel=0, data=[71, 0]),\n",
      "   midi.NoteOnEvent(tick=0, channel=0, data=[72, 100]),\n",
      "   midi.NoteOnEvent(tick=96, channel=0, data=[72, 0]),\n",
      "   midi.NoteOnEvent(tick=0, channel=0, data=[67, 100]),\n",
      "   midi.NoteOnEvent(tick=96, channel=0, data=[67, 0]),\n",
      "   midi.NoteOnEvent(tick=0, channel=0, data=[69, 100]),\n",
      "   midi.NoteOnEvent(tick=96, channel=0, data=[69, 0]),\n",
      "   midi.NoteOnEvent(tick=0, channel=0, data=[71, 100]),\n",
      "   midi.NoteOnEvent(tick=96, channel=0, data=[71, 0]),\n",
      "   midi.NoteOnEvent(tick=0, channel=0, data=[72, 100]),\n",
      "   midi.NoteOnEvent(tick=96, channel=0, data=[72, 0]),\n",
      "   midi.NoteOnEvent(tick=0, channel=0, data=[67, 100]),\n",
      "   midi.NoteOnEvent(tick=96, channel=0, data=[67, 0]),\n",
      "   midi.NoteOnEvent(tick=0, channel=0, data=[74, 100]),\n",
      "   midi.NoteOnEvent(tick=96, channel=0, data=[74, 0]),\n",
      "   midi.NoteOnEvent(tick=0, channel=0, data=[67, 100]),\n",
      "   midi.NoteOnEvent(tick=96, channel=0, data=[67, 0]),\n",
      "   midi.NoteOnEvent(tick=0, channel=0, data=[76, 100]),\n",
      "   midi.NoteOnEvent(tick=96, channel=0, data=[76, 0]),\n",
      "   midi.NoteOnEvent(tick=0, channel=0, data=[71, 100]),\n",
      "   midi.NoteOnEvent(tick=96, channel=0, data=[71, 0]),\n",
      "   midi.NoteOnEvent(tick=0, channel=0, data=[72, 100]),\n",
      "   midi.NoteOnEvent(tick=96, channel=0, data=[72, 0]),\n",
      "   midi.NoteOnEvent(tick=0, channel=0, data=[74, 100]),\n",
      "   midi.NoteOnEvent(tick=96, channel=0, data=[74, 0]),\n",
      "   midi.NoteOnEvent(tick=0, channel=0, data=[76, 100]),\n",
      "   midi.NoteOnEvent(tick=96, channel=0, data=[76, 0]),\n",
      "   midi.NoteOnEvent(tick=0, channel=0, data=[72, 100]),\n",
      "   midi.NoteOnEvent(tick=96, channel=0, data=[72, 0]),\n",
      "   midi.NoteOnEvent(tick=0, channel=0, data=[78, 100]),\n",
      "   midi.NoteOnEvent(tick=96, channel=0, data=[78, 0]),\n",
      "   midi.NoteOnEvent(tick=0, channel=0, data=[72, 100]),\n",
      "   midi.NoteOnEvent(tick=96, channel=0, data=[72, 0]),\n",
      "   midi.NoteOnEvent(tick=0, channel=0, data=[79, 100]),\n",
      "   midi.NoteOnEvent(tick=96, channel=0, data=[79, 0]),\n",
      "   midi.NoteOnEvent(tick=0, channel=0, data=[67, 100]),\n",
      "   midi.NoteOnEvent(tick=96, channel=0, data=[67, 0]),\n",
      "   midi.NoteOnEvent(tick=0, channel=0, data=[71, 100]),\n",
      "   midi.NoteOnEvent(tick=96, channel=0, data=[71, 0]),\n",
      "   midi.NoteOnEvent(tick=0, channel=0, data=[74, 100]),\n",
      "   midi.NoteOnEvent(tick=96, channel=0, data=[74, 0]),\n",
      "   midi.NoteOnEvent(tick=0, channel=0, data=[79, 100]),\n",
      "   midi.NoteOnEvent(tick=480, channel=0, data=[79, 0]),\n",
      "   midi.NoteOnEvent(tick=0, channel=0, data=[72, 100]),\n",
      "   midi.NoteOnEvent(tick=96, channel=0, data=[72, 0]),\n",
      "   midi.NoteOnEvent(tick=0, channel=0, data=[76, 100]),\n",
      "   midi.NoteOnEvent(tick=96, channel=0, data=[76, 0]),\n",
      "   midi.NoteOnEvent(tick=0, channel=0, data=[79, 100]),\n",
      "   midi.NoteOnEvent(tick=96, channel=0, data=[79, 0]),\n",
      "   midi.NoteOnEvent(tick=0, channel=0, data=[84, 100]),\n",
      "   midi.NoteOnEvent(tick=480, channel=0, data=[84, 0]),\n",
      "   midi.NoteOnEvent(tick=0, channel=0, data=[72, 100]),\n",
      "   midi.NoteOnEvent(tick=96, channel=0, data=[72, 0]),\n",
      "   midi.NoteOnEvent(tick=0, channel=0, data=[76, 100]),\n",
      "   midi.NoteOnEvent(tick=96, channel=0, data=[76, 0]),\n",
      "   midi.NoteOnEvent(tick=0, channel=0, data=[79, 100]),\n",
      "   midi.NoteOnEvent(tick=96, channel=0, data=[79, 0]),\n",
      "   midi.NoteOnEvent(tick=0, channel=0, data=[84, 100]),\n",
      "   midi.NoteOnEvent(tick=576, channel=0, data=[84, 0]),\n",
      "   midi.NoteOnEvent(tick=0, channel=0, data=[72, 100]),\n",
      "   midi.NoteOnEvent(tick=192, channel=0, data=[72, 0]),\n",
      "   midi.NoteOnEvent(tick=0, channel=0, data=[74, 100]),\n",
      "   midi.NoteOnEvent(tick=192, channel=0, data=[74, 0]),\n",
      "   midi.NoteOnEvent(tick=0, channel=0, data=[83, 100]),\n",
      "   midi.NoteOnEvent(tick=192, channel=0, data=[83, 0]),\n",
      "   midi.NoteOnEvent(tick=0, channel=0, data=[84, 100]),\n",
      "   midi.NoteOnEvent(tick=96, channel=0, data=[84, 0]),\n",
      "   midi.NoteOnEvent(tick=0, channel=0, data=[79, 100]),\n",
      "   midi.NoteOnEvent(tick=96, channel=0, data=[79, 0]),\n",
      "   midi.NoteOnEvent(tick=0, channel=0, data=[76, 100]),\n",
      "   midi.NoteOnEvent(tick=96, channel=0, data=[76, 0]),\n",
      "   midi.NoteOnEvent(tick=0, channel=0, data=[72, 100]),\n",
      "   midi.NoteOnEvent(tick=96, channel=0, data=[72, 0]),\n",
      "   midi.NoteOnEvent(tick=0, channel=0, data=[60, 100]),\n",
      "   midi.NoteOnEvent(tick=96, channel=0, data=[60, 0]),\n",
      "   midi.NoteOnEvent(tick=0, channel=0, data=[72, 100]),\n",
      "   midi.NoteOnEvent(tick=96, channel=0, data=[72, 0]),\n",
      "   midi.NoteOnEvent(tick=0, channel=0, data=[71, 100]),\n",
      "   midi.NoteOnEvent(tick=96, channel=0, data=[71, 0]),\n",
      "   midi.NoteOnEvent(tick=0, channel=0, data=[72, 100]),\n",
      "   midi.NoteOnEvent(tick=96, channel=0, data=[72, 0]),\n",
      "   midi.NoteOnEvent(tick=0, channel=0, data=[74, 100]),\n",
      "   midi.NoteOnEvent(tick=96, channel=0, data=[74, 0]),\n",
      "   midi.NoteOnEvent(tick=0, channel=0, data=[72, 100]),\n",
      "   midi.NoteOnEvent(tick=96, channel=0, data=[72, 0]),\n",
      "   midi.NoteOnEvent(tick=0, channel=0, data=[71, 100]),\n",
      "   midi.NoteOnEvent(tick=96, channel=0, data=[71, 0]),\n",
      "   midi.NoteOnEvent(tick=0, channel=0, data=[72, 100]),\n",
      "   midi.NoteOnEvent(tick=96, channel=0, data=[72, 0]),\n",
      "   midi.NoteOnEvent(tick=0, channel=0, data=[76, 100]),\n",
      "   midi.NoteOnEvent(tick=96, channel=0, data=[76, 0]),\n",
      "   midi.NoteOnEvent(tick=0, channel=0, data=[72, 100]),\n",
      "   midi.NoteOnEvent(tick=96, channel=0, data=[72, 0]),\n",
      "   midi.NoteOnEvent(tick=0, channel=0, data=[71, 100]),\n",
      "   midi.NoteOnEvent(tick=96, channel=0, data=[71, 0]),\n",
      "   midi.NoteOnEvent(tick=0, channel=0, data=[72, 100]),\n",
      "   midi.NoteOnEvent(tick=96, channel=0, data=[72, 0]),\n",
      "   midi.NoteOnEvent(tick=0, channel=0, data=[77, 100]),\n",
      "   midi.NoteOnEvent(tick=96, channel=0, data=[77, 0]),\n",
      "   midi.NoteOnEvent(tick=0, channel=0, data=[72, 100]),\n",
      "   midi.NoteOnEvent(tick=96, channel=0, data=[72, 0]),\n",
      "   midi.NoteOnEvent(tick=0, channel=0, data=[71, 100]),\n",
      "   midi.NoteOnEvent(tick=96, channel=0, data=[71, 0]),\n",
      "   midi.NoteOnEvent(tick=0, channel=0, data=[72, 100]),\n",
      "   midi.NoteOnEvent(tick=96, channel=0, data=[72, 0]),\n",
      "   midi.NoteOnEvent(tick=0, channel=0, data=[79, 100]),\n",
      "   midi.NoteOnEvent(tick=96, channel=0, data=[79, 0]),\n",
      "   midi.NoteOnEvent(tick=0, channel=0, data=[72, 100]),\n",
      "   midi.NoteOnEvent(tick=96, channel=0, data=[72, 0]),\n",
      "   midi.NoteOnEvent(tick=0, channel=0, data=[71, 100]),\n",
      "   midi.NoteOnEvent(tick=96, channel=0, data=[71, 0]),\n",
      "   midi.NoteOnEvent(tick=0, channel=0, data=[72, 100]),\n",
      "   midi.NoteOnEvent(tick=96, channel=0, data=[72, 0]),\n",
      "   midi.NoteOnEvent(tick=0, channel=0, data=[81, 100]),\n",
      "   midi.NoteOnEvent(tick=96, channel=0, data=[81, 0]),\n",
      "   midi.NoteOnEvent(tick=0, channel=0, data=[82, 100]),\n",
      "   midi.NoteOnEvent(tick=96, channel=0, data=[82, 0]),\n",
      "   midi.NoteOnEvent(tick=0, channel=0, data=[81, 100]),\n",
      "   midi.NoteOnEvent(tick=96, channel=0, data=[81, 0]),\n",
      "   midi.NoteOnEvent(tick=0, channel=0, data=[79, 100]),\n",
      "   midi.NoteOnEvent(tick=96, channel=0, data=[79, 0]),\n",
      "   midi.NoteOnEvent(tick=0, channel=0, data=[77, 100]),\n",
      "   midi.NoteOnEvent(tick=96, channel=0, data=[77, 0]),\n",
      "   midi.NoteOnEvent(tick=0, channel=0, data=[76, 100]),\n",
      "   midi.NoteOnEvent(tick=96, channel=0, data=[76, 0]),\n",
      "   midi.NoteOnEvent(tick=0, channel=0, data=[74, 100]),\n",
      "   midi.NoteOnEvent(tick=96, channel=0, data=[74, 0]),\n",
      "   midi.NoteOnEvent(tick=0, channel=0, data=[72, 100]),\n",
      "   midi.NoteOnEvent(tick=96, channel=0, data=[72, 0]),\n",
      "   midi.NoteOnEvent(tick=0, channel=0, data=[71, 100]),\n",
      "   midi.NoteOnEvent(tick=192, channel=0, data=[71, 0]),\n",
      "   midi.NoteOnEvent(tick=0, channel=0, data=[67, 100]),\n",
      "   midi.NoteOnEvent(tick=192, channel=0, data=[67, 0]),\n",
      "   midi.NoteOnEvent(tick=0, channel=0, data=[83, 100]),\n",
      "   midi.NoteOnEvent(tick=576, channel=0, data=[83, 0]),\n",
      "   midi.NoteOnEvent(tick=0, channel=0, data=[81, 100]),\n",
      "   midi.NoteOnEvent(tick=96, channel=0, data=[81, 0]),\n",
      "   midi.NoteOnEvent(tick=0, channel=0, data=[80, 100]),\n",
      "   midi.NoteOnEvent(tick=96, channel=0, data=[80, 0]),\n",
      "   midi.NoteOnEvent(tick=0, channel=0, data=[81, 100]),\n",
      "   midi.NoteOnEvent(tick=192, channel=0, data=[81, 0]),\n",
      "   midi.NoteOnEvent(tick=0, channel=0, data=[84, 100]),\n",
      "   midi.NoteOnEvent(tick=384, channel=0, data=[84, 0]),\n",
      "   midi.NoteOnEvent(tick=0, channel=0, data=[78, 100]),\n",
      "   midi.NoteOnEvent(tick=96, channel=0, data=[78, 0]),\n",
      "   midi.NoteOnEvent(tick=0, channel=0, data=[79, 100]),\n",
      "   midi.NoteOnEvent(tick=96, channel=0, data=[79, 0]),\n",
      "   midi.NoteOnEvent(tick=0, channel=0, data=[81, 100]),\n",
      "   midi.NoteOnEvent(tick=96, channel=0, data=[81, 0]),\n",
      "   midi.NoteOnEvent(tick=0, channel=0, data=[78, 100]),\n",
      "   midi.NoteOnEvent(tick=96, channel=0, data=[78, 0]),\n",
      "   midi.NoteOnEvent(tick=0, channel=0, data=[79, 100]),\n",
      "   midi.NoteOnEvent(tick=96, channel=0, data=[79, 0]),\n",
      "   midi.NoteOnEvent(tick=0, channel=0, data=[76, 100]),\n",
      "   midi.NoteOnEvent(tick=96, channel=0, data=[76, 0]),\n",
      "   midi.NoteOnEvent(tick=0, channel=0, data=[78, 100]),\n",
      "   midi.NoteOnEvent(tick=96, channel=0, data=[78, 0]),\n",
      "   midi.NoteOnEvent(tick=0, channel=0, data=[74, 100]),\n",
      "   midi.NoteOnEvent(tick=96, channel=0, data=[74, 0]),\n",
      "   midi.NoteOnEvent(tick=0, channel=0, data=[73, 100]),\n",
      "   midi.NoteOnEvent(tick=96, channel=0, data=[73, 0]),\n",
      "   midi.NoteOnEvent(tick=0, channel=0, data=[74, 100]),\n",
      "   midi.NoteOnEvent(tick=96, channel=0, data=[74, 0]),\n",
      "   midi.NoteOnEvent(tick=0, channel=0, data=[78, 100]),\n",
      "   midi.NoteOnEvent(tick=96, channel=0, data=[78, 0]),\n",
      "   midi.NoteOnEvent(tick=0, channel=0, data=[74, 100]),\n",
      "   midi.NoteOnEvent(tick=96, channel=0, data=[74, 0]),\n",
      "   midi.NoteOnEvent(tick=0, channel=0, data=[81, 100]),\n",
      "   midi.NoteOnEvent(tick=96, channel=0, data=[81, 0]),\n",
      "   midi.NoteOnEvent(tick=0, channel=0, data=[78, 100]),\n",
      "   midi.NoteOnEvent(tick=96, channel=0, data=[78, 0]),\n",
      "   midi.NoteOnEvent(tick=0, channel=0, data=[86, 100]),\n",
      "   midi.NoteOnEvent(tick=192, channel=0, data=[86, 0]),\n",
      "   midi.NoteOnEvent(tick=0, channel=0, data=[74, 100]),\n",
      "   midi.NoteOnEvent(tick=192, channel=0, data=[74, 0]),\n",
      "   midi.NoteOnEvent(tick=0, channel=0, data=[81, 100]),\n",
      "   midi.NoteOnEvent(tick=576, channel=0, data=[81, 0]),\n",
      "   midi.NoteOnEvent(tick=0, channel=0, data=[79, 100]),\n",
      "   midi.NoteOnEvent(tick=96, channel=0, data=[79, 0]),\n",
      "   midi.NoteOnEvent(tick=0, channel=0, data=[78, 100]),\n",
      "   midi.NoteOnEvent(tick=96, channel=0, data=[78, 0]),\n",
      "   midi.NoteOnEvent(tick=0, channel=0, data=[79, 100]),\n",
      "   midi.NoteOnEvent(tick=192, channel=0, data=[79, 0]),\n",
      "   midi.NoteOnEvent(tick=0, channel=0, data=[83, 100]),\n",
      "   midi.NoteOnEvent(tick=384, channel=0, data=[83, 0]),\n",
      "   midi.NoteOnEvent(tick=0, channel=0, data=[76, 100]),\n",
      "   midi.NoteOnEvent(tick=96, channel=0, data=[76, 0]),\n",
      "   midi.NoteOnEvent(tick=0, channel=0, data=[78, 100]),\n",
      "   midi.NoteOnEvent(tick=96, channel=0, data=[78, 0]),\n",
      "   midi.NoteOnEvent(tick=0, channel=0, data=[79, 100]),\n",
      "   midi.NoteOnEvent(tick=96, channel=0, data=[79, 0]),\n",
      "   midi.NoteOnEvent(tick=0, channel=0, data=[76, 100]),\n",
      "   midi.NoteOnEvent(tick=96, channel=0, data=[76, 0]),\n",
      "   midi.NoteOnEvent(tick=0, channel=0, data=[78, 100]),\n",
      "   midi.NoteOnEvent(tick=96, channel=0, data=[78, 0]),\n",
      "   midi.NoteOnEvent(tick=0, channel=0, data=[75, 100]),\n",
      "   midi.NoteOnEvent(tick=96, channel=0, data=[75, 0]),\n",
      "   midi.NoteOnEvent(tick=0, channel=0, data=[76, 100]),\n",
      "   midi.NoteOnEvent(tick=96, channel=0, data=[76, 0]),\n",
      "   midi.NoteOnEvent(tick=0, channel=0, data=[72, 100]),\n",
      "   midi.NoteOnEvent(tick=96, channel=0, data=[72, 0]),\n",
      "   midi.NoteOnEvent(tick=0, channel=0, data=[71, 100]),\n",
      "   midi.NoteOnEvent(tick=96, channel=0, data=[71, 0]),\n",
      "   midi.NoteOnEvent(tick=0, channel=0, data=[72, 100]),\n",
      "   midi.NoteOnEvent(tick=96, channel=0, data=[72, 0]),\n",
      "   midi.NoteOnEvent(tick=0, channel=0, data=[76, 100]),\n",
      "   midi.NoteOnEvent(tick=96, channel=0, data=[76, 0]),\n",
      "   midi.NoteOnEvent(tick=0, channel=0, data=[72, 100]),\n",
      "   midi.NoteOnEvent(tick=96, channel=0, data=[72, 0]),\n",
      "   midi.NoteOnEvent(tick=0, channel=0, data=[79, 100]),\n",
      "   midi.NoteOnEvent(tick=96, channel=0, data=[79, 0]),\n",
      "   midi.NoteOnEvent(tick=0, channel=0, data=[76, 100]),\n",
      "   midi.NoteOnEvent(tick=96, channel=0, data=[76, 0]),\n",
      "   midi.NoteOnEvent(tick=0, channel=0, data=[84, 100]),\n",
      "   midi.NoteOnEvent(tick=192, channel=0, data=[84, 0]),\n",
      "   midi.NoteOnEvent(tick=0, channel=0, data=[72, 100]),\n",
      "   midi.NoteOnEvent(tick=192, channel=0, data=[72, 0]),\n",
      "   midi.NoteOnEvent(tick=0, channel=0, data=[79, 100]),\n",
      "   midi.NoteOnEvent(tick=576, channel=0, data=[79, 0]),\n",
      "   midi.NoteOnEvent(tick=0, channel=0, data=[78, 100]),\n",
      "   midi.NoteOnEvent(tick=96, channel=0, data=[78, 0]),\n",
      "   midi.NoteOnEvent(tick=0, channel=0, data=[79, 100]),\n",
      "   midi.NoteOnEvent(tick=96, channel=0, data=[79, 0]),\n",
      "   midi.NoteOnEvent(tick=0, channel=0, data=[81, 100]),\n",
      "   midi.NoteOnEvent(tick=192, channel=0, data=[81, 0]),\n",
      "   midi.NoteOnEvent(tick=0, channel=0, data=[72, 100]),\n",
      "   midi.NoteOnEvent(tick=192, channel=0, data=[72, 0]),\n",
      "   midi.NoteOnEvent(tick=0, channel=0, data=[71, 100]),\n",
      "   midi.NoteOnEvent(tick=192, channel=0, data=[71, 0]),\n",
      "   midi.NoteOnEvent(tick=0, channel=0, data=[81, 100]),\n",
      "   midi.NoteOnEvent(tick=192, channel=0, data=[81, 0]),\n",
      "   midi.NoteOnEvent(tick=0, channel=0, data=[79, 100]),\n",
      "   midi.NoteOnEvent(tick=192, channel=0, data=[79, 0]),\n",
      "   midi.NoteOnEvent(tick=0, channel=0, data=[71, 100]),\n",
      "   midi.NoteOnEvent(tick=192, channel=0, data=[71, 0]),\n",
      "   midi.NoteOnEvent(tick=0, channel=0, data=[69, 100]),\n",
      "   midi.NoteOnEvent(tick=96, channel=0, data=[69, 0]),\n",
      "   midi.NoteOnEvent(tick=0, channel=0, data=[71, 100]),\n",
      "   midi.NoteOnEvent(tick=96, channel=0, data=[71, 0]),\n",
      "   midi.NoteOnEvent(tick=0, channel=0, data=[72, 100]),\n",
      "   midi.NoteOnEvent(tick=96, channel=0, data=[72, 0]),\n",
      "   midi.NoteOnEvent(tick=0, channel=0, data=[71, 100]),\n",
      "   midi.NoteOnEvent(tick=96, channel=0, data=[71, 0]),\n",
      "   midi.NoteOnEvent(tick=0, channel=0, data=[69, 100]),\n",
      "   midi.NoteOnEvent(tick=96, channel=0, data=[69, 0]),\n",
      "   midi.NoteOnEvent(tick=0, channel=0, data=[67, 100]),\n",
      "   midi.NoteOnEvent(tick=96, channel=0, data=[67, 0]),\n",
      "   midi.NoteOnEvent(tick=0, channel=0, data=[66, 100]),\n",
      "   midi.NoteOnEvent(tick=96, channel=0, data=[66, 0]),\n",
      "   midi.NoteOnEvent(tick=0, channel=0, data=[64, 100]),\n",
      "   midi.NoteOnEvent(tick=96, channel=0, data=[64, 0]),\n",
      "   midi.NoteOnEvent(tick=0, channel=0, data=[63, 100]),\n",
      "   midi.NoteOnEvent(tick=192, channel=0, data=[63, 0]),\n",
      "   midi.NoteOnEvent(tick=0, channel=0, data=[72, 100]),\n",
      "   midi.NoteOnEvent(tick=192, channel=0, data=[72, 0]),\n",
      "   midi.NoteOnEvent(tick=0, channel=0, data=[71, 100]),\n",
      "   midi.NoteOnEvent(tick=192, channel=0, data=[71, 0]),\n",
      "   midi.NoteOnEvent(tick=0, channel=0, data=[76, 100]),\n",
      "   midi.NoteOnEvent(tick=192, channel=0, data=[76, 0]),\n",
      "   midi.NoteOnEvent(tick=0, channel=0, data=[79, 100]),\n",
      "   midi.NoteOnEvent(tick=384, channel=0, data=[79, 0]),\n",
      "   midi.NoteOnEvent(tick=0, channel=0, data=[78, 100]),\n",
      "   midi.NoteOnEvent(tick=48, channel=0, data=[78, 0]),\n",
      "   midi.NoteOnEvent(tick=0, channel=0, data=[79, 100]),\n",
      "   midi.NoteOnEvent(tick=48, channel=0, data=[79, 0]),\n",
      "   midi.NoteOnEvent(tick=0, channel=0, data=[78, 100]),\n",
      "   midi.NoteOnEvent(tick=48, channel=0, data=[78, 0]),\n",
      "   midi.NoteOnEvent(tick=0, channel=0, data=[79, 100]),\n",
      "   midi.NoteOnEvent(tick=48, channel=0, data=[79, 0]),\n",
      "   midi.NoteOnEvent(tick=0, channel=0, data=[78, 100]),\n",
      "   midi.NoteOnEvent(tick=48, channel=0, data=[78, 0]),\n",
      "   midi.NoteOnEvent(tick=0, channel=0, data=[79, 100]),\n",
      "   midi.NoteOnEvent(tick=48, channel=0, data=[79, 0]),\n",
      "   midi.NoteOnEvent(tick=0, channel=0, data=[78, 100]),\n",
      "   midi.NoteOnEvent(tick=48, channel=0, data=[78, 0]),\n",
      "   midi.NoteOnEvent(tick=0, channel=0, data=[79, 100]),\n",
      "   midi.NoteOnEvent(tick=48, channel=0, data=[79, 0]),\n",
      "   midi.NoteOnEvent(tick=0, channel=0, data=[78, 100]),\n",
      "   midi.NoteOnEvent(tick=96, channel=0, data=[78, 0]),\n",
      "   midi.NoteOnEvent(tick=0, channel=0, data=[79, 100]),\n",
      "   midi.NoteOnEvent(tick=96, channel=0, data=[79, 0]),\n",
      "   midi.NoteOnEvent(tick=0, channel=0, data=[81, 100]),\n",
      "   midi.NoteOnEvent(tick=96, channel=0, data=[81, 0]),\n",
      "   midi.NoteOnEvent(tick=0, channel=0, data=[79, 100]),\n",
      "   midi.NoteOnEvent(tick=96, channel=0, data=[79, 0]),\n",
      "   midi.NoteOnEvent(tick=0, channel=0, data=[78, 100]),\n",
      "   midi.NoteOnEvent(tick=96, channel=0, data=[78, 0]),\n",
      "   midi.NoteOnEvent(tick=0, channel=0, data=[81, 100]),\n",
      "   midi.NoteOnEvent(tick=96, channel=0, data=[81, 0]),\n",
      "   midi.NoteOnEvent(tick=0, channel=0, data=[76, 100]),\n",
      "   midi.NoteOnEvent(tick=96, channel=0, data=[76, 0]),\n",
      "   midi.NoteOnEvent(tick=0, channel=0, data=[81, 100]),\n",
      "   midi.NoteOnEvent(tick=96, channel=0, data=[81, 0]),\n",
      "   midi.NoteOnEvent(tick=0, channel=0, data=[75, 100]),\n",
      "   midi.NoteOnEvent(tick=96, channel=0, data=[75, 0]),\n",
      "   midi.NoteOnEvent(tick=0, channel=0, data=[76, 100]),\n",
      "   midi.NoteOnEvent(tick=96, channel=0, data=[76, 0]),\n",
      "   midi.NoteOnEvent(tick=0, channel=0, data=[78, 100]),\n",
      "   midi.NoteOnEvent(tick=96, channel=0, data=[78, 0]),\n",
      "   midi.NoteOnEvent(tick=0, channel=0, data=[76, 100]),\n",
      "   midi.NoteOnEvent(tick=96, channel=0, data=[76, 0]),\n",
      "   midi.NoteOnEvent(tick=0, channel=0, data=[75, 100]),\n",
      "   midi.NoteOnEvent(tick=96, channel=0, data=[75, 0]),\n",
      "   midi.NoteOnEvent(tick=0, channel=0, data=[78, 100]),\n",
      "   midi.NoteOnEvent(tick=96, channel=0, data=[78, 0]),\n",
      "   midi.NoteOnEvent(tick=0, channel=0, data=[72, 100]),\n",
      "   midi.NoteOnEvent(tick=96, channel=0, data=[72, 0]),\n",
      "   midi.NoteOnEvent(tick=0, channel=0, data=[78, 100]),\n",
      "   midi.NoteOnEvent(tick=96, channel=0, data=[78, 0]),\n",
      "   midi.NoteOnEvent(tick=0, channel=0, data=[69, 100]),\n",
      "   midi.NoteOnEvent(tick=96, channel=0, data=[69, 0]),\n",
      "   midi.NoteOnEvent(tick=0, channel=0, data=[71, 100]),\n",
      "   midi.NoteOnEvent(tick=96, channel=0, data=[71, 0]),\n",
      "   midi.NoteOnEvent(tick=0, channel=0, data=[72, 100]),\n",
      "   midi.NoteOnEvent(tick=96, channel=0, data=[72, 0]),\n",
      "   midi.NoteOnEvent(tick=0, channel=0, data=[71, 100]),\n",
      "   midi.NoteOnEvent(tick=96, channel=0, data=[71, 0]),\n",
      "   midi.NoteOnEvent(tick=0, channel=0, data=[69, 100]),\n",
      "   midi.NoteOnEvent(tick=96, channel=0, data=[69, 0]),\n",
      "   midi.NoteOnEvent(tick=0, channel=0, data=[72, 100]),\n",
      "   midi.NoteOnEvent(tick=96, channel=0, data=[72, 0]),\n",
      "   midi.NoteOnEvent(tick=0, channel=0, data=[67, 100]),\n",
      "   midi.NoteOnEvent(tick=96, channel=0, data=[67, 0]),\n",
      "   midi.NoteOnEvent(tick=0, channel=0, data=[72, 100]),\n",
      "   midi.NoteOnEvent(tick=96, channel=0, data=[72, 0]),\n",
      "   midi.NoteOnEvent(tick=0, channel=0, data=[66, 100]),\n",
      "   midi.NoteOnEvent(tick=96, channel=0, data=[66, 0]),\n",
      "   midi.NoteOnEvent(tick=0, channel=0, data=[67, 100]),\n",
      "   midi.NoteOnEvent(tick=96, channel=0, data=[67, 0]),\n",
      "   midi.NoteOnEvent(tick=0, channel=0, data=[69, 100]),\n",
      "   midi.NoteOnEvent(tick=96, channel=0, data=[69, 0]),\n",
      "   midi.NoteOnEvent(tick=0, channel=0, data=[67, 100]),\n",
      "   midi.NoteOnEvent(tick=96, channel=0, data=[67, 0]),\n",
      "   midi.NoteOnEvent(tick=0, channel=0, data=[66, 100]),\n",
      "   midi.NoteOnEvent(tick=96, channel=0, data=[66, 0]),\n",
      "   midi.NoteOnEvent(tick=0, channel=0, data=[69, 100]),\n",
      "   midi.NoteOnEvent(tick=96, channel=0, data=[69, 0]),\n",
      "   midi.NoteOnEvent(tick=0, channel=0, data=[64, 100]),\n",
      "   midi.NoteOnEvent(tick=96, channel=0, data=[64, 0]),\n",
      "   midi.NoteOnEvent(tick=0, channel=0, data=[69, 100]),\n",
      "   midi.NoteOnEvent(tick=96, channel=0, data=[69, 0]),\n",
      "   midi.NoteOnEvent(tick=0, channel=0, data=[63, 100]),\n",
      "   midi.NoteOnEvent(tick=96, channel=0, data=[63, 0]),\n",
      "   midi.NoteOnEvent(tick=0, channel=0, data=[69, 100]),\n",
      "   midi.NoteOnEvent(tick=96, channel=0, data=[69, 0]),\n",
      "   midi.NoteOnEvent(tick=0, channel=0, data=[59, 100]),\n",
      "   midi.NoteOnEvent(tick=96, channel=0, data=[59, 0]),\n",
      "   midi.NoteOnEvent(tick=0, channel=0, data=[61, 100]),\n",
      "   midi.NoteOnEvent(tick=96, channel=0, data=[61, 0]),\n",
      "   midi.NoteOnEvent(tick=0, channel=0, data=[63, 100]),\n",
      "   midi.NoteOnEvent(tick=96, channel=0, data=[63, 0]),\n",
      "   midi.NoteOnEvent(tick=0, channel=0, data=[64, 100]),\n",
      "   midi.NoteOnEvent(tick=96, channel=0, data=[64, 0]),\n",
      "   midi.NoteOnEvent(tick=0, channel=0, data=[66, 100]),\n",
      "   midi.NoteOnEvent(tick=96, channel=0, data=[66, 0]),\n",
      "   midi.NoteOnEvent(tick=0, channel=0, data=[67, 100]),\n",
      "   midi.NoteOnEvent(tick=96, channel=0, data=[67, 0]),\n",
      "   midi.NoteOnEvent(tick=0, channel=0, data=[69, 100]),\n",
      "   midi.NoteOnEvent(tick=96, channel=0, data=[69, 0]),\n",
      "   midi.NoteOnEvent(tick=0, channel=0, data=[71, 100]),\n",
      "   midi.NoteOnEvent(tick=96, channel=0, data=[71, 0]),\n",
      "   midi.NoteOnEvent(tick=0, channel=0, data=[73, 100]),\n",
      "   midi.NoteOnEvent(tick=96, channel=0, data=[73, 0]),\n",
      "   midi.NoteOnEvent(tick=0, channel=0, data=[75, 100]),\n",
      "   midi.NoteOnEvent(tick=96, channel=0, data=[75, 0]),\n",
      "   midi.NoteOnEvent(tick=0, channel=0, data=[76, 100]),\n",
      "   midi.NoteOnEvent(tick=96, channel=0, data=[76, 0]),\n",
      "   midi.NoteOnEvent(tick=0, channel=0, data=[78, 100]),\n",
      "   midi.NoteOnEvent(tick=96, channel=0, data=[78, 0]),\n",
      "   midi.NoteOnEvent(tick=0, channel=0, data=[79, 100]),\n",
      "   midi.NoteOnEvent(tick=96, channel=0, data=[79, 0]),\n",
      "   midi.NoteOnEvent(tick=0, channel=0, data=[81, 100]),\n",
      "   midi.NoteOnEvent(tick=96, channel=0, data=[81, 0]),\n",
      "   midi.NoteOnEvent(tick=0, channel=0, data=[83, 100]),\n",
      "   midi.NoteOnEvent(tick=192, channel=0, data=[83, 0]),\n",
      "   midi.NoteOnEvent(tick=0, channel=0, data=[76, 100]),\n",
      "   midi.NoteOnEvent(tick=192, channel=0, data=[76, 0]),\n",
      "   midi.NoteOnEvent(tick=0, channel=0, data=[78, 100]),\n",
      "   midi.NoteOnEvent(tick=192, channel=0, data=[78, 0]),\n",
      "   midi.NoteOnEvent(tick=0, channel=0, data=[75, 100]),\n",
      "   midi.NoteOnEvent(tick=192, channel=0, data=[75, 0]),\n",
      "   midi.NoteOnEvent(tick=0, channel=0, data=[76, 100]),\n",
      "   midi.NoteOnEvent(tick=96, channel=0, data=[76, 0]),\n",
      "   midi.NoteOnEvent(tick=0, channel=0, data=[74, 100]),\n",
      "   midi.NoteOnEvent(tick=96, channel=0, data=[74, 0]),\n",
      "   midi.NoteOnEvent(tick=0, channel=0, data=[72, 100]),\n",
      "   midi.NoteOnEvent(tick=96, channel=0, data=[72, 0]),\n",
      "   midi.NoteOnEvent(tick=0, channel=0, data=[71, 100]),\n",
      "   midi.NoteOnEvent(tick=96, channel=0, data=[71, 0]),\n",
      "   midi.NoteOnEvent(tick=0, channel=0, data=[69, 100]),\n",
      "   midi.NoteOnEvent(tick=192, channel=0, data=[69, 0]),\n",
      "   midi.NoteOnEvent(tick=0, channel=0, data=[69, 100]),\n",
      "   midi.NoteOnEvent(tick=192, channel=0, data=[69, 0]),\n",
      "   midi.NoteOnEvent(tick=0, channel=0, data=[69, 100]),\n",
      "   midi.NoteOnEvent(tick=96, channel=0, data=[69, 0]),\n",
      "   midi.NoteOnEvent(tick=0, channel=0, data=[71, 100]),\n",
      "   midi.NoteOnEvent(tick=96, channel=0, data=[71, 0]),\n",
      "   midi.NoteOnEvent(tick=0, channel=0, data=[72, 100]),\n",
      "   midi.NoteOnEvent(tick=288, channel=0, data=[72, 0]),\n",
      "   midi.NoteOnEvent(tick=0, channel=0, data=[71, 100]),\n",
      "   midi.NoteOnEvent(tick=96, channel=0, data=[71, 0]),\n",
      "   midi.NoteOnEvent(tick=0, channel=0, data=[69, 100]),\n",
      "   midi.NoteOnEvent(tick=96, channel=0, data=[69, 0]),\n",
      "   midi.NoteOnEvent(tick=0, channel=0, data=[67, 100]),\n",
      "   midi.NoteOnEvent(tick=96, channel=0, data=[67, 0]),\n",
      "   midi.NoteOnEvent(tick=0, channel=0, data=[66, 100]),\n",
      "   midi.NoteOnEvent(tick=96, channel=0, data=[66, 0]),\n",
      "   midi.NoteOnEvent(tick=0, channel=0, data=[67, 100]),\n",
      "   midi.NoteOnEvent(tick=96, channel=0, data=[67, 0]),\n",
      "   midi.NoteOnEvent(tick=0, channel=0, data=[69, 100]),\n",
      "   midi.NoteOnEvent(tick=288, channel=0, data=[69, 0]),\n",
      "   midi.NoteOnEvent(tick=0, channel=0, data=[67, 100]),\n",
      "   midi.NoteOnEvent(tick=96, channel=0, data=[67, 0]),\n",
      "   midi.NoteOnEvent(tick=0, channel=0, data=[66, 100]),\n",
      "   midi.NoteOnEvent(tick=96, channel=0, data=[66, 0]),\n",
      "   midi.NoteOnEvent(tick=0, channel=0, data=[64, 100]),\n",
      "   midi.NoteOnEvent(tick=96, channel=0, data=[64, 0]),\n",
      "   midi.NoteOnEvent(tick=0, channel=0, data=[63, 100]),\n",
      "   midi.NoteOnEvent(tick=192, channel=0, data=[63, 0]),\n",
      "   midi.NoteOnEvent(tick=0, channel=0, data=[71, 100]),\n",
      "   midi.NoteOnEvent(tick=192, channel=0, data=[71, 0]),\n",
      "   midi.NoteOnEvent(tick=0, channel=0, data=[67, 100]),\n",
      "   midi.NoteOnEvent(tick=48, channel=0, data=[67, 0]),\n",
      "   midi.NoteOnEvent(tick=0, channel=0, data=[69, 100]),\n",
      "   midi.NoteOnEvent(tick=48, channel=0, data=[69, 0]),\n",
      "   midi.NoteOnEvent(tick=0, channel=0, data=[67, 100]),\n",
      "   midi.NoteOnEvent(tick=48, channel=0, data=[67, 0]),\n",
      "   midi.NoteOnEvent(tick=0, channel=0, data=[69, 100]),\n",
      "   midi.NoteOnEvent(tick=48, channel=0, data=[69, 0]),\n",
      "   midi.NoteOnEvent(tick=0, channel=0, data=[66, 100]),\n",
      "   midi.NoteOnEvent(tick=96, channel=0, data=[66, 0]),\n",
      "   midi.NoteOnEvent(tick=0, channel=0, data=[64, 100]),\n",
      "   midi.NoteOnEvent(tick=96, channel=0, data=[64, 0]),\n",
      "   midi.NoteOnEvent(tick=0, channel=0, data=[64, 100]),\n",
      "   midi.NoteOnEvent(tick=384, channel=0, data=[64, 0]),\n",
      "   midi.NoteOnEvent(tick=96, channel=0, data=[71, 100]),\n",
      "   midi.NoteOnEvent(tick=96, channel=0, data=[71, 0]),\n",
      "   midi.NoteOnEvent(tick=0, channel=0, data=[69, 100]),\n",
      "   midi.NoteOnEvent(tick=96, channel=0, data=[69, 0]),\n",
      "   midi.NoteOnEvent(tick=0, channel=0, data=[71, 100]),\n",
      "   midi.NoteOnEvent(tick=96, channel=0, data=[71, 0]),\n",
      "   midi.NoteOnEvent(tick=0, channel=0, data=[76, 100]),\n",
      "   midi.NoteOnEvent(tick=96, channel=0, data=[76, 0]),\n",
      "   midi.NoteOnEvent(tick=0, channel=0, data=[75, 100]),\n",
      "   midi.NoteOnEvent(tick=96, channel=0, data=[75, 0]),\n",
      "   midi.NoteOnEvent(tick=0, channel=0, data=[76, 100]),\n",
      "   midi.NoteOnEvent(tick=288, channel=0, data=[76, 0]),\n",
      "   midi.NoteOnEvent(tick=0, channel=0, data=[71, 100]),\n",
      "   midi.NoteOnEvent(tick=96, channel=0, data=[71, 0]),\n",
      "   midi.NoteOnEvent(tick=0, channel=0, data=[69, 100]),\n",
      "   midi.NoteOnEvent(tick=96, channel=0, data=[69, 0]),\n",
      "   midi.NoteOnEvent(tick=0, channel=0, data=[71, 100]),\n",
      "   midi.NoteOnEvent(tick=96, channel=0, data=[71, 0]),\n",
      "   midi.NoteOnEvent(tick=0, channel=0, data=[79, 100]),\n",
      "   midi.NoteOnEvent(tick=192, channel=0, data=[79, 0]),\n",
      "   midi.NoteOnEvent(tick=0, channel=0, data=[78, 100]),\n",
      "   midi.NoteOnEvent(tick=288, channel=0, data=[78, 0]),\n",
      "   midi.NoteOnEvent(tick=0, channel=0, data=[71, 100]),\n",
      "   midi.NoteOnEvent(tick=96, channel=0, data=[71, 0]),\n",
      "   midi.NoteOnEvent(tick=0, channel=0, data=[69, 100]),\n",
      "   midi.NoteOnEvent(tick=96, channel=0, data=[69, 0]),\n",
      "   midi.NoteOnEvent(tick=0, channel=0, data=[71, 100]),\n",
      "   midi.NoteOnEvent(tick=96, channel=0, data=[71, 0]),\n",
      "   midi.NoteOnEvent(tick=0, channel=0, data=[78, 100]),\n",
      "   midi.NoteOnEvent(tick=96, channel=0, data=[78, 0]),\n",
      "   midi.NoteOnEvent(tick=0, channel=0, data=[76, 100]),\n",
      "   midi.NoteOnEvent(tick=96, channel=0, data=[76, 0]),\n",
      "   midi.NoteOnEvent(tick=0, channel=0, data=[78, 100]),\n",
      "   midi.NoteOnEvent(tick=288, channel=0, data=[78, 0]),\n",
      "   midi.NoteOnEvent(tick=0, channel=0, data=[71, 100]),\n",
      "   midi.NoteOnEvent(tick=96, channel=0, data=[71, 0]),\n",
      "   midi.NoteOnEvent(tick=0, channel=0, data=[69, 100]),\n",
      "   midi.NoteOnEvent(tick=96, channel=0, data=[69, 0]),\n",
      "   midi.NoteOnEvent(tick=0, channel=0, data=[71, 100]),\n",
      "   midi.NoteOnEvent(tick=96, channel=0, data=[71, 0]),\n",
      "   midi.NoteOnEvent(tick=0, channel=0, data=[81, 100]),\n",
      "   midi.NoteOnEvent(tick=192, channel=0, data=[81, 0]),\n",
      "   midi.NoteOnEvent(tick=0, channel=0, data=[79, 100]),\n",
      "   midi.NoteOnEvent(tick=288, channel=0, data=[79, 0]),\n",
      "   midi.NoteOnEvent(tick=0, channel=0, data=[76, 100]),\n",
      "   midi.NoteOnEvent(tick=96, channel=0, data=[76, 0]),\n",
      "   midi.NoteOnEvent(tick=0, channel=0, data=[75, 100]),\n",
      "   midi.NoteOnEvent(tick=96, channel=0, data=[75, 0]),\n",
      "   midi.NoteOnEvent(tick=0, channel=0, data=[76, 100]),\n",
      "   midi.NoteOnEvent(tick=96, channel=0, data=[76, 0]),\n",
      "   midi.NoteOnEvent(tick=0, channel=0, data=[78, 100]),\n",
      "   midi.NoteOnEvent(tick=96, channel=0, data=[78, 0]),\n",
      "   midi.NoteOnEvent(tick=0, channel=0, data=[76, 100]),\n",
      "   midi.NoteOnEvent(tick=96, channel=0, data=[76, 0]),\n",
      "   midi.NoteOnEvent(tick=0, channel=0, data=[75, 100]),\n",
      "   midi.NoteOnEvent(tick=96, channel=0, data=[75, 0]),\n",
      "   midi.NoteOnEvent(tick=0, channel=0, data=[76, 100]),\n",
      "   midi.NoteOnEvent(tick=96, channel=0, data=[76, 0]),\n",
      "   midi.NoteOnEvent(tick=0, channel=0, data=[80, 100]),\n",
      "   midi.NoteOnEvent(tick=96, channel=0, data=[80, 0]),\n",
      "   midi.NoteOnEvent(tick=0, channel=0, data=[76, 100]),\n",
      "   midi.NoteOnEvent(tick=96, channel=0, data=[76, 0]),\n",
      "   midi.NoteOnEvent(tick=0, channel=0, data=[75, 100]),\n",
      "   midi.NoteOnEvent(tick=96, channel=0, data=[75, 0]),\n",
      "   midi.NoteOnEvent(tick=0, channel=0, data=[76, 100]),\n",
      "   midi.NoteOnEvent(tick=96, channel=0, data=[76, 0]),\n",
      "   midi.NoteOnEvent(tick=0, channel=0, data=[81, 100]),\n",
      "   midi.NoteOnEvent(tick=96, channel=0, data=[81, 0]),\n",
      "   midi.NoteOnEvent(tick=0, channel=0, data=[76, 100]),\n",
      "   midi.NoteOnEvent(tick=96, channel=0, data=[76, 0]),\n",
      "   midi.NoteOnEvent(tick=0, channel=0, data=[75, 100]),\n",
      "   midi.NoteOnEvent(tick=96, channel=0, data=[75, 0]),\n",
      "   midi.NoteOnEvent(tick=0, channel=0, data=[76, 100]),\n",
      "   midi.NoteOnEvent(tick=96, channel=0, data=[76, 0]),\n",
      "   midi.NoteOnEvent(tick=0, channel=0, data=[83, 100]),\n",
      "   midi.NoteOnEvent(tick=96, channel=0, data=[83, 0]),\n",
      "   midi.NoteOnEvent(tick=0, channel=0, data=[76, 100]),\n",
      "   midi.NoteOnEvent(tick=96, channel=0, data=[76, 0]),\n",
      "   midi.NoteOnEvent(tick=0, channel=0, data=[75, 100]),\n",
      "   midi.NoteOnEvent(tick=96, channel=0, data=[75, 0]),\n",
      "   midi.NoteOnEvent(tick=0, channel=0, data=[76, 100]),\n",
      "   midi.NoteOnEvent(tick=96, channel=0, data=[76, 0]),\n",
      "   midi.NoteOnEvent(tick=0, channel=0, data=[84, 100]),\n",
      "   midi.NoteOnEvent(tick=96, channel=0, data=[84, 0]),\n",
      "   midi.NoteOnEvent(tick=0, channel=0, data=[69, 100]),\n",
      "   midi.NoteOnEvent(tick=96, channel=0, data=[69, 0]),\n",
      "   midi.NoteOnEvent(tick=0, channel=0, data=[68, 100]),\n",
      "   midi.NoteOnEvent(tick=96, channel=0, data=[68, 0]),\n",
      "   midi.NoteOnEvent(tick=0, channel=0, data=[69, 100]),\n",
      "   midi.NoteOnEvent(tick=96, channel=0, data=[69, 0]),\n",
      "   midi.NoteOnEvent(tick=0, channel=0, data=[73, 100]),\n",
      "   midi.NoteOnEvent(tick=96, channel=0, data=[73, 0]),\n",
      "   midi.NoteOnEvent(tick=0, channel=0, data=[69, 100]),\n",
      "   midi.NoteOnEvent(tick=96, channel=0, data=[69, 0]),\n",
      "   midi.NoteOnEvent(tick=0, channel=0, data=[68, 100]),\n",
      "   midi.NoteOnEvent(tick=96, channel=0, data=[68, 0]),\n",
      "   midi.NoteOnEvent(tick=0, channel=0, data=[69, 100]),\n",
      "   midi.NoteOnEvent(tick=96, channel=0, data=[69, 0]),\n",
      "   midi.NoteOnEvent(tick=0, channel=0, data=[74, 100]),\n",
      "   midi.NoteOnEvent(tick=96, channel=0, data=[74, 0]),\n",
      "   midi.NoteOnEvent(tick=0, channel=0, data=[69, 100]),\n",
      "   midi.NoteOnEvent(tick=96, channel=0, data=[69, 0]),\n",
      "   midi.NoteOnEvent(tick=0, channel=0, data=[68, 100]),\n",
      "   midi.NoteOnEvent(tick=96, channel=0, data=[68, 0]),\n",
      "   midi.NoteOnEvent(tick=0, channel=0, data=[69, 100]),\n",
      "   midi.NoteOnEvent(tick=96, channel=0, data=[69, 0]),\n",
      "   midi.NoteOnEvent(tick=0, channel=0, data=[76, 100]),\n",
      "   midi.NoteOnEvent(tick=96, channel=0, data=[76, 0]),\n",
      "   midi.NoteOnEvent(tick=0, channel=0, data=[69, 100]),\n",
      "   midi.NoteOnEvent(tick=96, channel=0, data=[69, 0]),\n",
      "   midi.NoteOnEvent(tick=0, channel=0, data=[68, 100]),\n",
      "   midi.NoteOnEvent(tick=96, channel=0, data=[68, 0]),\n",
      "   midi.NoteOnEvent(tick=0, channel=0, data=[69, 100]),\n",
      "   midi.NoteOnEvent(tick=96, channel=0, data=[69, 0]),\n",
      "   midi.NoteOnEvent(tick=0, channel=0, data=[77, 100]),\n",
      "   midi.NoteOnEvent(tick=96, channel=0, data=[77, 0]),\n",
      "   midi.NoteOnEvent(tick=0, channel=0, data=[62, 100]),\n",
      "   midi.NoteOnEvent(tick=96, channel=0, data=[62, 0]),\n",
      "   midi.NoteOnEvent(tick=0, channel=0, data=[61, 100]),\n",
      "   midi.NoteOnEvent(tick=96, channel=0, data=[61, 0]),\n",
      "   midi.NoteOnEvent(tick=0, channel=0, data=[62, 100]),\n",
      "   midi.NoteOnEvent(tick=96, channel=0, data=[62, 0]),\n",
      "   midi.NoteOnEvent(tick=0, channel=0, data=[66, 100]),\n",
      "   midi.NoteOnEvent(tick=96, channel=0, data=[66, 0]),\n",
      "   midi.NoteOnEvent(tick=0, channel=0, data=[62, 100]),\n",
      "   midi.NoteOnEvent(tick=96, channel=0, data=[62, 0]),\n",
      "   midi.NoteOnEvent(tick=0, channel=0, data=[61, 100]),\n",
      "   midi.NoteOnEvent(tick=96, channel=0, data=[61, 0]),\n",
      "   midi.NoteOnEvent(tick=0, channel=0, data=[62, 100]),\n",
      "   midi.NoteOnEvent(tick=96, channel=0, data=[62, 0]),\n",
      "   midi.NoteOnEvent(tick=0, channel=0, data=[67, 100]),\n",
      "   midi.NoteOnEvent(tick=96, channel=0, data=[67, 0]),\n",
      "   midi.NoteOnEvent(tick=0, channel=0, data=[62, 100]),\n",
      "   midi.NoteOnEvent(tick=96, channel=0, data=[62, 0]),\n",
      "   midi.NoteOnEvent(tick=0, channel=0, data=[61, 100]),\n",
      "   midi.NoteOnEvent(tick=96, channel=0, data=[61, 0]),\n",
      "   midi.NoteOnEvent(tick=0, channel=0, data=[62, 100]),\n",
      "   midi.NoteOnEvent(tick=96, channel=0, data=[62, 0]),\n",
      "   midi.NoteOnEvent(tick=0, channel=0, data=[69, 100]),\n",
      "   midi.NoteOnEvent(tick=96, channel=0, data=[69, 0]),\n",
      "   midi.NoteOnEvent(tick=0, channel=0, data=[62, 100]),\n",
      "   midi.NoteOnEvent(tick=96, channel=0, data=[62, 0]),\n",
      "   midi.NoteOnEvent(tick=0, channel=0, data=[61, 100]),\n",
      "   midi.NoteOnEvent(tick=96, channel=0, data=[61, 0]),\n",
      "   midi.NoteOnEvent(tick=0, channel=0, data=[62, 100]),\n",
      "   midi.NoteOnEvent(tick=96, channel=0, data=[62, 0]),\n",
      "   midi.NoteOnEvent(tick=0, channel=0, data=[71, 100]),\n",
      "   midi.NoteOnEvent(tick=96, channel=0, data=[71, 0]),\n",
      "   midi.NoteOnEvent(tick=0, channel=0, data=[67, 100]),\n",
      "   midi.NoteOnEvent(tick=96, channel=0, data=[67, 0]),\n",
      "   midi.NoteOnEvent(tick=0, channel=0, data=[66, 100]),\n",
      "   midi.NoteOnEvent(tick=96, channel=0, data=[66, 0]),\n",
      "   midi.NoteOnEvent(tick=0, channel=0, data=[67, 100]),\n",
      "   midi.NoteOnEvent(tick=96, channel=0, data=[67, 0]),\n",
      "   midi.NoteOnEvent(tick=0, channel=0, data=[71, 100]),\n",
      "   midi.NoteOnEvent(tick=96, channel=0, data=[71, 0]),\n",
      "   midi.NoteOnEvent(tick=0, channel=0, data=[67, 100]),\n",
      "   midi.NoteOnEvent(tick=96, channel=0, data=[67, 0]),\n",
      "   midi.NoteOnEvent(tick=0, channel=0, data=[66, 100]),\n",
      "   midi.NoteOnEvent(tick=96, channel=0, data=[66, 0]),\n",
      "   midi.NoteOnEvent(tick=0, channel=0, data=[67, 100]),\n",
      "   midi.NoteOnEvent(tick=96, channel=0, data=[67, 0]),\n",
      "   midi.NoteOnEvent(tick=0, channel=0, data=[72, 100]),\n",
      "   midi.NoteOnEvent(tick=96, channel=0, data=[72, 0]),\n",
      "   midi.NoteOnEvent(tick=0, channel=0, data=[67, 100]),\n",
      "   midi.NoteOnEvent(tick=96, channel=0, data=[67, 0]),\n",
      "   midi.NoteOnEvent(tick=0, channel=0, data=[66, 100]),\n",
      "   midi.NoteOnEvent(tick=96, channel=0, data=[66, 0]),\n",
      "   midi.NoteOnEvent(tick=0, channel=0, data=[67, 100]),\n",
      "   midi.NoteOnEvent(tick=96, channel=0, data=[67, 0]),\n",
      "   midi.NoteOnEvent(tick=0, channel=0, data=[74, 100]),\n",
      "   midi.NoteOnEvent(tick=96, channel=0, data=[74, 0]),\n",
      "   midi.NoteOnEvent(tick=0, channel=0, data=[67, 100]),\n",
      "   midi.NoteOnEvent(tick=96, channel=0, data=[67, 0]),\n",
      "   midi.NoteOnEvent(tick=0, channel=0, data=[66, 100]),\n",
      "   midi.NoteOnEvent(tick=96, channel=0, data=[66, 0]),\n",
      "   midi.NoteOnEvent(tick=0, channel=0, data=[67, 100]),\n",
      "   midi.NoteOnEvent(tick=96, channel=0, data=[67, 0]),\n",
      "   midi.NoteOnEvent(tick=0, channel=0, data=[76, 100]),\n",
      "   midi.NoteOnEvent(tick=96, channel=0, data=[76, 0]),\n",
      "   midi.NoteOnEvent(tick=0, channel=0, data=[72, 100]),\n",
      "   midi.NoteOnEvent(tick=96, channel=0, data=[72, 0]),\n",
      "   midi.NoteOnEvent(tick=0, channel=0, data=[71, 100]),\n",
      "   midi.NoteOnEvent(tick=96, channel=0, data=[71, 0]),\n",
      "   midi.NoteOnEvent(tick=0, channel=0, data=[72, 100]),\n",
      "   midi.NoteOnEvent(tick=96, channel=0, data=[72, 0]),\n",
      "   midi.NoteOnEvent(tick=0, channel=0, data=[76, 100]),\n",
      "   midi.NoteOnEvent(tick=96, channel=0, data=[76, 0]),\n",
      "   midi.NoteOnEvent(tick=0, channel=0, data=[72, 100]),\n",
      "   midi.NoteOnEvent(tick=96, channel=0, data=[72, 0]),\n",
      "   midi.NoteOnEvent(tick=0, channel=0, data=[71, 100]),\n",
      "   midi.NoteOnEvent(tick=96, channel=0, data=[71, 0]),\n",
      "   midi.NoteOnEvent(tick=0, channel=0, data=[72, 100]),\n",
      "   midi.NoteOnEvent(tick=96, channel=0, data=[72, 0]),\n",
      "   midi.NoteOnEvent(tick=0, channel=0, data=[77, 100]),\n",
      "   midi.NoteOnEvent(tick=96, channel=0, data=[77, 0]),\n",
      "   midi.NoteOnEvent(tick=0, channel=0, data=[72, 100]),\n",
      "   midi.NoteOnEvent(tick=96, channel=0, data=[72, 0]),\n",
      "   midi.NoteOnEvent(tick=0, channel=0, data=[71, 100]),\n",
      "   midi.NoteOnEvent(tick=96, channel=0, data=[71, 0]),\n",
      "   midi.NoteOnEvent(tick=0, channel=0, data=[72, 100]),\n",
      "   midi.NoteOnEvent(tick=96, channel=0, data=[72, 0]),\n",
      "   midi.NoteOnEvent(tick=0, channel=0, data=[79, 100]),\n",
      "   midi.NoteOnEvent(tick=96, channel=0, data=[79, 0]),\n",
      "   midi.NoteOnEvent(tick=0, channel=0, data=[72, 100]),\n",
      "   midi.NoteOnEvent(tick=96, channel=0, data=[72, 0]),\n",
      "   midi.NoteOnEvent(tick=0, channel=0, data=[71, 100]),\n",
      "   midi.NoteOnEvent(tick=96, channel=0, data=[71, 0]),\n",
      "   midi.NoteOnEvent(tick=0, channel=0, data=[72, 100]),\n",
      "   midi.NoteOnEvent(tick=96, channel=0, data=[72, 0]),\n",
      "   midi.NoteOnEvent(tick=0, channel=0, data=[81, 100]),\n",
      "   midi.NoteOnEvent(tick=96, channel=0, data=[81, 0]),\n",
      "   midi.NoteOnEvent(tick=0, channel=0, data=[82, 100]),\n",
      "   midi.NoteOnEvent(tick=96, channel=0, data=[82, 0]),\n",
      "   midi.NoteOnEvent(tick=0, channel=0, data=[81, 100]),\n",
      "   midi.NoteOnEvent(tick=96, channel=0, data=[81, 0]),\n",
      "   midi.NoteOnEvent(tick=0, channel=0, data=[79, 100]),\n",
      "   midi.NoteOnEvent(tick=96, channel=0, data=[79, 0]),\n",
      "   midi.NoteOnEvent(tick=0, channel=0, data=[77, 100]),\n",
      "   midi.NoteOnEvent(tick=96, channel=0, data=[77, 0]),\n",
      "   midi.NoteOnEvent(tick=0, channel=0, data=[76, 100]),\n",
      "   midi.NoteOnEvent(tick=96, channel=0, data=[76, 0]),\n",
      "   midi.NoteOnEvent(tick=0, channel=0, data=[74, 100]),\n",
      "   midi.NoteOnEvent(tick=96, channel=0, data=[74, 0]),\n",
      "   midi.NoteOnEvent(tick=0, channel=0, data=[72, 100]),\n",
      "   midi.NoteOnEvent(tick=96, channel=0, data=[72, 0]),\n",
      "   midi.NoteOnEvent(tick=0, channel=0, data=[70, 100]),\n",
      "   midi.NoteOnEvent(tick=96, channel=0, data=[70, 0]),\n",
      "   midi.NoteOnEvent(tick=0, channel=0, data=[69, 100]),\n",
      "   midi.NoteOnEvent(tick=96, channel=0, data=[69, 0]),\n",
      "   midi.NoteOnEvent(tick=0, channel=0, data=[70, 100]),\n",
      "   midi.NoteOnEvent(tick=96, channel=0, data=[70, 0]),\n",
      "   midi.NoteOnEvent(tick=0, channel=0, data=[81, 100]),\n",
      "   midi.NoteOnEvent(tick=96, channel=0, data=[81, 0]),\n",
      "   midi.NoteOnEvent(tick=0, channel=0, data=[79, 100]),\n",
      "   midi.NoteOnEvent(tick=96, channel=0, data=[79, 0]),\n",
      "   midi.NoteOnEvent(tick=0, channel=0, data=[77, 100]),\n",
      "   midi.NoteOnEvent(tick=96, channel=0, data=[77, 0]),\n",
      "   midi.NoteOnEvent(tick=0, channel=0, data=[76, 100]),\n",
      "   midi.NoteOnEvent(tick=96, channel=0, data=[76, 0]),\n",
      "   midi.NoteOnEvent(tick=0, channel=0, data=[74, 100]),\n",
      "   midi.NoteOnEvent(tick=96, channel=0, data=[74, 0]),\n",
      "   midi.NoteOnEvent(tick=0, channel=0, data=[73, 100]),\n",
      "   midi.NoteOnEvent(tick=96, channel=0, data=[73, 0]),\n",
      "   midi.NoteOnEvent(tick=0, channel=0, data=[74, 100]),\n",
      "   midi.NoteOnEvent(tick=96, channel=0, data=[74, 0]),\n",
      "   midi.NoteOnEvent(tick=0, channel=0, data=[73, 100]),\n",
      "   midi.NoteOnEvent(tick=96, channel=0, data=[73, 0]),\n",
      "   midi.NoteOnEvent(tick=0, channel=0, data=[71, 100]),\n",
      "   midi.NoteOnEvent(tick=96, channel=0, data=[71, 0]),\n",
      "   midi.NoteOnEvent(tick=0, channel=0, data=[69, 100]),\n",
      "   midi.NoteOnEvent(tick=96, channel=0, data=[69, 0]),\n",
      "   midi.NoteOnEvent(tick=0, channel=0, data=[67, 100]),\n",
      "   midi.NoteOnEvent(tick=96, channel=0, data=[67, 0]),\n",
      "   midi.NoteOnEvent(tick=0, channel=0, data=[65, 100]),\n",
      "   midi.NoteOnEvent(tick=96, channel=0, data=[65, 0]),\n",
      "   midi.NoteOnEvent(tick=0, channel=0, data=[64, 100]),\n",
      "   midi.NoteOnEvent(tick=96, channel=0, data=[64, 0]),\n",
      "   midi.NoteOnEvent(tick=0, channel=0, data=[65, 100]),\n",
      "   midi.NoteOnEvent(tick=96, channel=0, data=[65, 0]),\n",
      "   midi.NoteOnEvent(tick=0, channel=0, data=[69, 100]),\n",
      "   midi.NoteOnEvent(tick=96, channel=0, data=[69, 0]),\n",
      "   midi.NoteOnEvent(tick=0, channel=0, data=[74, 100]),\n",
      "   midi.NoteOnEvent(tick=96, channel=0, data=[74, 0]),\n",
      "   midi.NoteOnEvent(tick=0, channel=0, data=[77, 100]),\n",
      "   midi.NoteOnEvent(tick=96, channel=0, data=[77, 0]),\n",
      "   midi.NoteOnEvent(tick=0, channel=0, data=[81, 100]),\n",
      "   midi.NoteOnEvent(tick=480, channel=0, data=[81, 0]),\n",
      "   midi.NoteOnEvent(tick=0, channel=0, data=[79, 100]),\n",
      "   midi.NoteOnEvent(tick=96, channel=0, data=[79, 0]),\n",
      "   midi.NoteOnEvent(tick=0, channel=0, data=[77, 100]),\n",
      "   midi.NoteOnEvent(tick=96, channel=0, data=[77, 0]),\n",
      "   midi.NoteOnEvent(tick=0, channel=0, data=[81, 100]),\n",
      "   midi.NoteOnEvent(tick=96, channel=0, data=[81, 0]),\n",
      "   midi.NoteOnEvent(tick=0, channel=0, data=[79, 100]),\n",
      "   midi.NoteOnEvent(tick=96, channel=0, data=[79, 0]),\n",
      "   midi.NoteOnEvent(tick=0, channel=0, data=[77, 100]),\n",
      "   midi.NoteOnEvent(tick=96, channel=0, data=[77, 0]),\n",
      "   midi.NoteOnEvent(tick=0, channel=0, data=[76, 100]),\n",
      "   midi.NoteOnEvent(tick=96, channel=0, data=[76, 0]),\n",
      "   midi.NoteOnEvent(tick=0, channel=0, data=[79, 100]),\n",
      "   midi.NoteOnEvent(tick=96, channel=0, data=[79, 0]),\n",
      "   midi.NoteOnEvent(tick=0, channel=0, data=[77, 100]),\n",
      "   midi.NoteOnEvent(tick=96, channel=0, data=[77, 0]),\n",
      "   midi.NoteOnEvent(tick=0, channel=0, data=[76, 100]),\n",
      "   midi.NoteOnEvent(tick=96, channel=0, data=[76, 0]),\n",
      "   midi.NoteOnEvent(tick=0, channel=0, data=[74, 100]),\n",
      "   midi.NoteOnEvent(tick=96, channel=0, data=[74, 0]),\n",
      "   midi.NoteOnEvent(tick=0, channel=0, data=[77, 100]),\n",
      "   midi.NoteOnEvent(tick=96, channel=0, data=[77, 0]),\n",
      "   midi.NoteOnEvent(tick=0, channel=0, data=[76, 100]),\n",
      "   midi.NoteOnEvent(tick=96, channel=0, data=[76, 0]),\n",
      "   midi.NoteOnEvent(tick=0, channel=0, data=[74, 100]),\n",
      "   midi.NoteOnEvent(tick=96, channel=0, data=[74, 0]),\n",
      "   midi.NoteOnEvent(tick=0, channel=0, data=[73, 100]),\n",
      "   midi.NoteOnEvent(tick=96, channel=0, data=[73, 0]),\n",
      "   midi.NoteOnEvent(tick=0, channel=0, data=[76, 100]),\n",
      "   midi.NoteOnEvent(tick=96, channel=0, data=[76, 0]),\n",
      "   midi.NoteOnEvent(tick=0, channel=0, data=[74, 100]),\n",
      "   midi.NoteOnEvent(tick=384, channel=0, data=[74, 0]),\n",
      "   midi.NoteOnEvent(tick=96, channel=0, data=[74, 100]),\n",
      "   midi.NoteOnEvent(tick=96, channel=0, data=[74, 0]),\n",
      "   midi.NoteOnEvent(tick=0, channel=0, data=[73, 100]),\n",
      "   midi.NoteOnEvent(tick=96, channel=0, data=[73, 0]),\n",
      "   midi.NoteOnEvent(tick=0, channel=0, data=[74, 100]),\n",
      "   midi.NoteOnEvent(tick=96, channel=0, data=[74, 0]),\n",
      "   midi.NoteOnEvent(tick=0, channel=0, data=[76, 100]),\n",
      "   midi.NoteOnEvent(tick=96, channel=0, data=[76, 0]),\n",
      "   midi.NoteOnEvent(tick=0, channel=0, data=[74, 100]),\n",
      "   midi.NoteOnEvent(tick=96, channel=0, data=[74, 0]),\n",
      "   midi.NoteOnEvent(tick=0, channel=0, data=[73, 100]),\n",
      "   midi.NoteOnEvent(tick=96, channel=0, data=[73, 0]),\n",
      "   midi.NoteOnEvent(tick=0, channel=0, data=[74, 100]),\n",
      "   midi.NoteOnEvent(tick=96, channel=0, data=[74, 0]),\n",
      "   midi.NoteOnEvent(tick=0, channel=0, data=[77, 100]),\n",
      "   midi.NoteOnEvent(tick=96, channel=0, data=[77, 0]),\n",
      "   midi.NoteOnEvent(tick=0, channel=0, data=[74, 100]),\n",
      "   midi.NoteOnEvent(tick=96, channel=0, data=[74, 0]),\n",
      "   midi.NoteOnEvent(tick=0, channel=0, data=[73, 100]),\n",
      "   midi.NoteOnEvent(tick=96, channel=0, data=[73, 0]),\n",
      "   midi.NoteOnEvent(tick=0, channel=0, data=[74, 100]),\n",
      "   midi.NoteOnEvent(tick=96, channel=0, data=[74, 0]),\n",
      "   midi.NoteOnEvent(tick=0, channel=0, data=[79, 100]),\n",
      "   midi.NoteOnEvent(tick=96, channel=0, data=[79, 0]),\n",
      "   midi.NoteOnEvent(tick=0, channel=0, data=[74, 100]),\n",
      "   midi.NoteOnEvent(tick=96, channel=0, data=[74, 0]),\n",
      "   midi.NoteOnEvent(tick=0, channel=0, data=[73, 100]),\n",
      "   midi.NoteOnEvent(tick=96, channel=0, data=[73, 0]),\n",
      "   midi.NoteOnEvent(tick=0, channel=0, data=[74, 100]),\n",
      "   midi.NoteOnEvent(tick=96, channel=0, data=[74, 0]),\n",
      "   midi.NoteOnEvent(tick=0, channel=0, data=[81, 100]),\n",
      "   midi.NoteOnEvent(tick=96, channel=0, data=[81, 0]),\n",
      "   midi.NoteOnEvent(tick=0, channel=0, data=[74, 100]),\n",
      "   midi.NoteOnEvent(tick=96, channel=0, data=[74, 0]),\n",
      "   midi.NoteOnEvent(tick=0, channel=0, data=[73, 100]),\n",
      "   midi.NoteOnEvent(tick=96, channel=0, data=[73, 0]),\n",
      "   midi.NoteOnEvent(tick=0, channel=0, data=[74, 100]),\n",
      "   midi.NoteOnEvent(tick=96, channel=0, data=[74, 0]),\n",
      "   midi.NoteOnEvent(tick=0, channel=0, data=[82, 100]),\n",
      "   midi.NoteOnEvent(tick=864, channel=0, data=[82, 0]),\n",
      "   midi.NoteOnEvent(tick=0, channel=0, data=[72, 100]),\n",
      "   midi.NoteOnEvent(tick=96, channel=0, data=[72, 0]),\n",
      "   midi.NoteOnEvent(tick=0, channel=0, data=[71, 100]),\n",
      "   midi.NoteOnEvent(tick=96, channel=0, data=[71, 0]),\n",
      "   midi.NoteOnEvent(tick=0, channel=0, data=[72, 100]),\n",
      "   midi.NoteOnEvent(tick=96, channel=0, data=[72, 0]),\n",
      "   midi.NoteOnEvent(tick=0, channel=0, data=[76, 100]),\n",
      "   midi.NoteOnEvent(tick=96, channel=0, data=[76, 0]),\n",
      "   midi.NoteOnEvent(tick=0, channel=0, data=[72, 100]),\n",
      "   midi.NoteOnEvent(tick=96, channel=0, data=[72, 0]),\n",
      "   midi.NoteOnEvent(tick=0, channel=0, data=[71, 100]),\n",
      "   midi.NoteOnEvent(tick=96, channel=0, data=[71, 0]),\n",
      "   midi.NoteOnEvent(tick=0, channel=0, data=[72, 100]),\n",
      "   midi.NoteOnEvent(tick=96, channel=0, data=[72, 0]),\n",
      "   midi.NoteOnEvent(tick=0, channel=0, data=[77, 100]),\n",
      "   midi.NoteOnEvent(tick=96, channel=0, data=[77, 0]),\n",
      "   midi.NoteOnEvent(tick=0, channel=0, data=[72, 100]),\n",
      "   midi.NoteOnEvent(tick=96, channel=0, data=[72, 0]),\n",
      "   midi.NoteOnEvent(tick=0, channel=0, data=[71, 100]),\n",
      "   midi.NoteOnEvent(tick=96, channel=0, data=[71, 0]),\n",
      "   midi.NoteOnEvent(tick=0, channel=0, data=[72, 100]),\n",
      "   midi.NoteOnEvent(tick=96, channel=0, data=[72, 0]),\n",
      "   midi.NoteOnEvent(tick=0, channel=0, data=[79, 100]),\n",
      "   midi.NoteOnEvent(tick=96, channel=0, data=[79, 0]),\n",
      "   midi.NoteOnEvent(tick=0, channel=0, data=[72, 100]),\n",
      "   midi.NoteOnEvent(tick=96, channel=0, data=[72, 0]),\n",
      "   midi.NoteOnEvent(tick=0, channel=0, data=[71, 100]),\n",
      "   midi.NoteOnEvent(tick=96, channel=0, data=[71, 0]),\n",
      "   midi.NoteOnEvent(tick=0, channel=0, data=[72, 100]),\n",
      "   midi.NoteOnEvent(tick=96, channel=0, data=[72, 0]),\n",
      "   midi.NoteOnEvent(tick=0, channel=0, data=[81, 100]),\n",
      "   midi.NoteOnEvent(tick=864, channel=0, data=[81, 0]),\n",
      "   midi.NoteOnEvent(tick=0, channel=0, data=[74, 100]),\n",
      "   midi.NoteOnEvent(tick=96, channel=0, data=[74, 0]),\n",
      "   midi.NoteOnEvent(tick=0, channel=0, data=[76, 100]),\n",
      "   midi.NoteOnEvent(tick=96, channel=0, data=[76, 0]),\n",
      "   midi.NoteOnEvent(tick=0, channel=0, data=[78, 100]),\n",
      "   midi.NoteOnEvent(tick=96, channel=0, data=[78, 0]),\n",
      "   midi.NoteOnEvent(tick=0, channel=0, data=[79, 100]),\n",
      "   midi.NoteOnEvent(tick=96, channel=0, data=[79, 0]),\n",
      "   midi.NoteOnEvent(tick=0, channel=0, data=[81, 100]),\n",
      "   midi.NoteOnEvent(tick=96, channel=0, data=[81, 0]),\n",
      "   midi.NoteOnEvent(tick=0, channel=0, data=[82, 100]),\n",
      "   midi.NoteOnEvent(tick=96, channel=0, data=[82, 0]),\n",
      "   midi.NoteOnEvent(tick=0, channel=0, data=[84, 100]),\n",
      "   midi.NoteOnEvent(tick=96, channel=0, data=[84, 0]),\n",
      "   midi.NoteOnEvent(tick=0, channel=0, data=[86, 100]),\n",
      "   midi.NoteOnEvent(tick=96, channel=0, data=[86, 0]),\n",
      "   midi.NoteOnEvent(tick=0, channel=0, data=[84, 100]),\n",
      "   midi.NoteOnEvent(tick=96, channel=0, data=[84, 0]),\n",
      "   midi.NoteOnEvent(tick=0, channel=0, data=[82, 100]),\n",
      "   midi.NoteOnEvent(tick=96, channel=0, data=[82, 0]),\n",
      "   midi.NoteOnEvent(tick=0, channel=0, data=[81, 100]),\n",
      "   midi.NoteOnEvent(tick=96, channel=0, data=[81, 0]),\n",
      "   midi.NoteOnEvent(tick=0, channel=0, data=[79, 100]),\n",
      "   midi.NoteOnEvent(tick=96, channel=0, data=[79, 0]),\n",
      "   midi.NoteOnEvent(tick=0, channel=0, data=[78, 100]),\n",
      "   midi.NoteOnEvent(tick=96, channel=0, data=[78, 0]),\n",
      "   midi.NoteOnEvent(tick=0, channel=0, data=[76, 100]),\n",
      "   midi.NoteOnEvent(tick=96, channel=0, data=[76, 0]),\n",
      "   midi.NoteOnEvent(tick=0, channel=0, data=[74, 100]),\n",
      "   midi.NoteOnEvent(tick=96, channel=0, data=[74, 0]),\n",
      "   midi.NoteOnEvent(tick=0, channel=0, data=[79, 100]),\n",
      "   midi.NoteOnEvent(tick=864, channel=0, data=[79, 0]),\n",
      "   midi.NoteOnEvent(tick=0, channel=0, data=[76, 100]),\n",
      "   midi.NoteOnEvent(tick=96, channel=0, data=[76, 0]),\n",
      "   midi.NoteOnEvent(tick=0, channel=0, data=[77, 100]),\n",
      "   midi.NoteOnEvent(tick=96, channel=0, data=[77, 0]),\n",
      "   midi.NoteOnEvent(tick=0, channel=0, data=[79, 100]),\n",
      "   midi.NoteOnEvent(tick=96, channel=0, data=[79, 0]),\n",
      "   midi.NoteOnEvent(tick=0, channel=0, data=[81, 100]),\n",
      "   midi.NoteOnEvent(tick=96, channel=0, data=[81, 0]),\n",
      "   midi.NoteOnEvent(tick=0, channel=0, data=[83, 100]),\n",
      "   midi.NoteOnEvent(tick=96, channel=0, data=[83, 0]),\n",
      "   midi.NoteOnEvent(tick=0, channel=0, data=[85, 100]),\n",
      "   midi.NoteOnEvent(tick=96, channel=0, data=[85, 0]),\n",
      "   midi.NoteOnEvent(tick=0, channel=0, data=[86, 100]),\n",
      "   midi.NoteOnEvent(tick=96, channel=0, data=[86, 0]),\n",
      "   midi.NoteOnEvent(tick=0, channel=0, data=[88, 100]),\n",
      "   midi.NoteOnEvent(tick=96, channel=0, data=[88, 0]),\n",
      "   midi.NoteOnEvent(tick=0, channel=0, data=[86, 100]),\n",
      "   midi.NoteOnEvent(tick=96, channel=0, data=[86, 0]),\n",
      "   midi.NoteOnEvent(tick=0, channel=0, data=[85, 100]),\n",
      "   midi.NoteOnEvent(tick=96, channel=0, data=[85, 0]),\n",
      "   midi.NoteOnEvent(tick=0, channel=0, data=[83, 100]),\n",
      "   midi.NoteOnEvent(tick=96, channel=0, data=[83, 0]),\n",
      "   midi.NoteOnEvent(tick=0, channel=0, data=[81, 100]),\n",
      "   midi.NoteOnEvent(tick=96, channel=0, data=[81, 0]),\n",
      "   midi.NoteOnEvent(tick=0, channel=0, data=[79, 100]),\n",
      "   midi.NoteOnEvent(tick=96, channel=0, data=[79, 0]),\n",
      "   midi.NoteOnEvent(tick=0, channel=0, data=[77, 100]),\n",
      "   midi.NoteOnEvent(tick=96, channel=0, data=[77, 0]),\n",
      "   midi.NoteOnEvent(tick=0, channel=0, data=[76, 100]),\n",
      "   midi.NoteOnEvent(tick=96, channel=0, data=[76, 0]),\n",
      "   midi.NoteOnEvent(tick=0, channel=0, data=[77, 100]),\n",
      "   midi.NoteOnEvent(tick=96, channel=0, data=[77, 0]),\n",
      "   midi.NoteOnEvent(tick=0, channel=0, data=[86, 100]),\n",
      "   midi.NoteOnEvent(tick=96, channel=0, data=[86, 0]),\n",
      "   midi.NoteOnEvent(tick=0, channel=0, data=[77, 100]),\n",
      "   midi.NoteOnEvent(tick=96, channel=0, data=[77, 0]),\n",
      "   midi.NoteOnEvent(tick=0, channel=0, data=[76, 100]),\n",
      "   midi.NoteOnEvent(tick=96, channel=0, data=[76, 0]),\n",
      "   midi.NoteOnEvent(tick=0, channel=0, data=[77, 100]),\n",
      "   midi.NoteOnEvent(tick=96, channel=0, data=[77, 0]),\n",
      "   midi.NoteOnEvent(tick=0, channel=0, data=[81, 100]),\n",
      "   midi.NoteOnEvent(tick=96, channel=0, data=[81, 0]),\n",
      "   midi.NoteOnEvent(tick=0, channel=0, data=[86, 100]),\n",
      "   midi.NoteOnEvent(tick=96, channel=0, data=[86, 0]),\n",
      "   midi.NoteOnEvent(tick=0, channel=0, data=[84, 100]),\n",
      "   midi.NoteOnEvent(tick=96, channel=0, data=[84, 0]),\n",
      "   midi.NoteOnEvent(tick=0, channel=0, data=[83, 100]),\n",
      "   midi.NoteOnEvent(tick=96, channel=0, data=[83, 0]),\n",
      "   midi.NoteOnEvent(tick=0, channel=0, data=[77, 100]),\n",
      "   midi.NoteOnEvent(tick=96, channel=0, data=[77, 0]),\n",
      "   midi.NoteOnEvent(tick=0, channel=0, data=[84, 100]),\n",
      "   midi.NoteOnEvent(tick=96, channel=0, data=[84, 0]),\n",
      "   midi.NoteOnEvent(tick=0, channel=0, data=[77, 100]),\n",
      "   midi.NoteOnEvent(tick=96, channel=0, data=[77, 0]),\n",
      "   midi.NoteOnEvent(tick=0, channel=0, data=[86, 100]),\n",
      "   midi.NoteOnEvent(tick=96, channel=0, data=[86, 0]),\n",
      "   midi.NoteOnEvent(tick=0, channel=0, data=[77, 100]),\n",
      "   midi.NoteOnEvent(tick=96, channel=0, data=[77, 0]),\n",
      "   midi.NoteOnEvent(tick=0, channel=0, data=[83, 100]),\n",
      "   midi.NoteOnEvent(tick=96, channel=0, data=[83, 0]),\n",
      "   midi.NoteOnEvent(tick=0, channel=0, data=[77, 100]),\n",
      "   midi.NoteOnEvent(tick=96, channel=0, data=[77, 0]),\n",
      "   midi.NoteOnEvent(tick=0, channel=0, data=[76, 100]),\n",
      "   midi.NoteOnEvent(tick=96, channel=0, data=[76, 0]),\n",
      "   midi.NoteOnEvent(tick=0, channel=0, data=[84, 100]),\n",
      "   midi.NoteOnEvent(tick=96, channel=0, data=[84, 0]),\n",
      "   midi.NoteOnEvent(tick=0, channel=0, data=[76, 100]),\n",
      "   midi.NoteOnEvent(tick=96, channel=0, data=[76, 0]),\n",
      "   midi.NoteOnEvent(tick=0, channel=0, data=[74, 100]),\n",
      "   midi.NoteOnEvent(tick=96, channel=0, data=[74, 0]),\n",
      "   midi.NoteOnEvent(tick=0, channel=0, data=[76, 100]),\n",
      "   midi.NoteOnEvent(tick=96, channel=0, data=[76, 0]),\n",
      "   midi.NoteOnEvent(tick=0, channel=0, data=[79, 100]),\n",
      "   midi.NoteOnEvent(tick=96, channel=0, data=[79, 0]),\n",
      "   midi.NoteOnEvent(tick=0, channel=0, data=[84, 100]),\n",
      "   midi.NoteOnEvent(tick=96, channel=0, data=[84, 0]),\n",
      "   midi.NoteOnEvent(tick=0, channel=0, data=[83, 100]),\n",
      "   midi.NoteOnEvent(tick=96, channel=0, data=[83, 0]),\n",
      "   midi.NoteOnEvent(tick=0, channel=0, data=[81, 100]),\n",
      "   midi.NoteOnEvent(tick=96, channel=0, data=[81, 0]),\n",
      "   midi.NoteOnEvent(tick=0, channel=0, data=[76, 100]),\n",
      "   midi.NoteOnEvent(tick=96, channel=0, data=[76, 0]),\n",
      "   midi.NoteOnEvent(tick=0, channel=0, data=[83, 100]),\n",
      "   midi.NoteOnEvent(tick=96, channel=0, data=[83, 0]),\n",
      "   midi.NoteOnEvent(tick=0, channel=0, data=[76, 100]),\n",
      "   midi.NoteOnEvent(tick=96, channel=0, data=[76, 0]),\n",
      "   midi.NoteOnEvent(tick=0, channel=0, data=[84, 100]),\n",
      "   midi.NoteOnEvent(tick=96, channel=0, data=[84, 0]),\n",
      "   midi.NoteOnEvent(tick=0, channel=0, data=[76, 100]),\n",
      "   midi.NoteOnEvent(tick=96, channel=0, data=[76, 0]),\n",
      "   midi.NoteOnEvent(tick=0, channel=0, data=[81, 100]),\n",
      "   midi.NoteOnEvent(tick=96, channel=0, data=[81, 0]),\n",
      "   midi.NoteOnEvent(tick=0, channel=0, data=[76, 100]),\n",
      "   midi.NoteOnEvent(tick=96, channel=0, data=[76, 0]),\n",
      "   midi.NoteOnEvent(tick=0, channel=0, data=[74, 100]),\n",
      "   midi.NoteOnEvent(tick=96, channel=0, data=[74, 0]),\n",
      "   midi.NoteOnEvent(tick=0, channel=0, data=[83, 100]),\n",
      "   midi.NoteOnEvent(tick=96, channel=0, data=[83, 0]),\n",
      "   midi.NoteOnEvent(tick=0, channel=0, data=[74, 100]),\n",
      "   midi.NoteOnEvent(tick=96, channel=0, data=[74, 0]),\n",
      "   midi.NoteOnEvent(tick=0, channel=0, data=[72, 100]),\n",
      "   midi.NoteOnEvent(tick=96, channel=0, data=[72, 0]),\n",
      "   midi.NoteOnEvent(tick=0, channel=0, data=[74, 100]),\n",
      "   midi.NoteOnEvent(tick=96, channel=0, data=[74, 0]),\n",
      "   midi.NoteOnEvent(tick=0, channel=0, data=[77, 100]),\n",
      "   midi.NoteOnEvent(tick=96, channel=0, data=[77, 0]),\n",
      "   midi.NoteOnEvent(tick=0, channel=0, data=[83, 100]),\n",
      "   midi.NoteOnEvent(tick=96, channel=0, data=[83, 0]),\n",
      "   midi.NoteOnEvent(tick=0, channel=0, data=[81, 100]),\n",
      "   midi.NoteOnEvent(tick=96, channel=0, data=[81, 0]),\n",
      "   midi.NoteOnEvent(tick=0, channel=0, data=[80, 100]),\n",
      "   midi.NoteOnEvent(tick=96, channel=0, data=[80, 0]),\n",
      "   midi.NoteOnEvent(tick=0, channel=0, data=[74, 100]),\n",
      "   midi.NoteOnEvent(tick=96, channel=0, data=[74, 0]),\n",
      "   midi.NoteOnEvent(tick=0, channel=0, data=[81, 100]),\n",
      "   midi.NoteOnEvent(tick=96, channel=0, data=[81, 0]),\n",
      "   midi.NoteOnEvent(tick=0, channel=0, data=[74, 100]),\n",
      "   midi.NoteOnEvent(tick=96, channel=0, data=[74, 0]),\n",
      "   midi.NoteOnEvent(tick=0, channel=0, data=[83, 100]),\n",
      "   midi.NoteOnEvent(tick=96, channel=0, data=[83, 0]),\n",
      "   midi.NoteOnEvent(tick=0, channel=0, data=[74, 100]),\n",
      "   midi.NoteOnEvent(tick=96, channel=0, data=[74, 0]),\n",
      "   midi.NoteOnEvent(tick=0, channel=0, data=[80, 100]),\n",
      "   midi.NoteOnEvent(tick=96, channel=0, data=[80, 0]),\n",
      "   midi.NoteOnEvent(tick=0, channel=0, data=[74, 100]),\n",
      "   midi.NoteOnEvent(tick=96, channel=0, data=[74, 0]),\n",
      "   midi.NoteOnEvent(tick=0, channel=0, data=[72, 100]),\n",
      "   midi.NoteOnEvent(tick=96, channel=0, data=[72, 0]),\n",
      "   midi.NoteOnEvent(tick=0, channel=0, data=[81, 100]),\n",
      "   midi.NoteOnEvent(tick=96, channel=0, data=[81, 0]),\n",
      "   midi.NoteOnEvent(tick=0, channel=0, data=[72, 100]),\n",
      "   midi.NoteOnEvent(tick=96, channel=0, data=[72, 0]),\n",
      "   midi.NoteOnEvent(tick=0, channel=0, data=[71, 100]),\n",
      "   midi.NoteOnEvent(tick=96, channel=0, data=[71, 0]),\n",
      "   midi.NoteOnEvent(tick=0, channel=0, data=[72, 100]),\n",
      "   midi.NoteOnEvent(tick=96, channel=0, data=[72, 0]),\n",
      "   midi.NoteOnEvent(tick=0, channel=0, data=[76, 100]),\n",
      "   midi.NoteOnEvent(tick=96, channel=0, data=[76, 0]),\n",
      "   midi.NoteOnEvent(tick=0, channel=0, data=[81, 100]),\n",
      "   midi.NoteOnEvent(tick=96, channel=0, data=[81, 0]),\n",
      "   midi.NoteOnEvent(tick=0, channel=0, data=[76, 100]),\n",
      "   midi.NoteOnEvent(tick=96, channel=0, data=[76, 0]),\n",
      "   midi.NoteOnEvent(tick=0, channel=0, data=[77, 100]),\n",
      "   midi.NoteOnEvent(tick=96, channel=0, data=[77, 0]),\n",
      "   midi.NoteOnEvent(tick=0, channel=0, data=[81, 100]),\n",
      "   midi.NoteOnEvent(tick=96, channel=0, data=[81, 0]),\n",
      "   midi.NoteOnEvent(tick=0, channel=0, data=[74, 100]),\n",
      "   midi.NoteOnEvent(tick=96, channel=0, data=[74, 0]),\n",
      "   midi.NoteOnEvent(tick=0, channel=0, data=[72, 100]),\n",
      "   midi.NoteOnEvent(tick=96, channel=0, data=[72, 0]),\n",
      "   midi.NoteOnEvent(tick=0, channel=0, data=[74, 100]),\n",
      "   midi.NoteOnEvent(tick=96, channel=0, data=[74, 0]),\n",
      "   midi.NoteOnEvent(tick=0, channel=0, data=[77, 100]),\n",
      "   midi.NoteOnEvent(tick=96, channel=0, data=[77, 0]),\n",
      "   midi.NoteOnEvent(tick=0, channel=0, data=[81, 100]),\n",
      "   midi.NoteOnEvent(tick=96, channel=0, data=[81, 0]),\n",
      "   midi.NoteOnEvent(tick=0, channel=0, data=[71, 100]),\n",
      "   midi.NoteOnEvent(tick=96, channel=0, data=[71, 0]),\n",
      "   midi.NoteOnEvent(tick=0, channel=0, data=[72, 100]),\n",
      "   midi.NoteOnEvent(tick=192, channel=0, data=[72, 0]),\n",
      "   midi.NoteOnEvent(tick=0, channel=0, data=[81, 100]),\n",
      "   midi.NoteOnEvent(tick=192, channel=0, data=[81, 0]),\n",
      "   midi.NoteOnEvent(tick=0, channel=0, data=[71, 100]),\n",
      "   midi.NoteOnEvent(tick=192, channel=0, data=[71, 0]),\n",
      "   midi.NoteOnEvent(tick=0, channel=0, data=[80, 100]),\n",
      "   midi.NoteOnEvent(tick=192, channel=0, data=[80, 0]),\n",
      "   midi.NoteOnEvent(tick=0, channel=0, data=[81, 100]),\n",
      "   midi.NoteOnEvent(tick=384, channel=0, data=[81, 0]),\n",
      "   midi.NoteOnEvent(tick=96, channel=0, data=[57, 100]),\n",
      "   midi.NoteOnEvent(tick=96, channel=0, data=[57, 0]),\n",
      "   midi.NoteOnEvent(tick=0, channel=0, data=[56, 100]),\n",
      "   midi.NoteOnEvent(tick=96, channel=0, data=[56, 0]),\n",
      "   midi.NoteOnEvent(tick=0, channel=0, data=[57, 100]),\n",
      "   midi.NoteOnEvent(tick=96, channel=0, data=[57, 0]),\n",
      "   midi.NoteOnEvent(tick=0, channel=0, data=[60, 100]),\n",
      "   midi.NoteOnEvent(tick=96, channel=0, data=[60, 0]),\n",
      "   midi.NoteOnEvent(tick=0, channel=0, data=[57, 100]),\n",
      "   midi.NoteOnEvent(tick=96, channel=0, data=[57, 0]),\n",
      "   midi.NoteOnEvent(tick=0, channel=0, data=[56, 100]),\n",
      "   midi.NoteOnEvent(tick=96, channel=0, data=[56, 0]),\n",
      "   midi.NoteOnEvent(tick=0, channel=0, data=[57, 100]),\n",
      "   midi.NoteOnEvent(tick=96, channel=0, data=[57, 0]),\n",
      "   midi.NoteOnEvent(tick=0, channel=0, data=[61, 100]),\n",
      "   midi.NoteOnEvent(tick=96, channel=0, data=[61, 0]),\n",
      "   midi.NoteOnEvent(tick=0, channel=0, data=[57, 100]),\n",
      "   midi.NoteOnEvent(tick=96, channel=0, data=[57, 0]),\n",
      "   midi.NoteOnEvent(tick=0, channel=0, data=[56, 100]),\n",
      "   midi.NoteOnEvent(tick=96, channel=0, data=[56, 0]),\n",
      "   midi.NoteOnEvent(tick=0, channel=0, data=[57, 100]),\n",
      "   midi.NoteOnEvent(tick=96, channel=0, data=[57, 0]),\n",
      "   midi.NoteOnEvent(tick=0, channel=0, data=[62, 100]),\n",
      "   midi.NoteOnEvent(tick=96, channel=0, data=[62, 0]),\n",
      "   midi.NoteOnEvent(tick=0, channel=0, data=[57, 100]),\n",
      "   midi.NoteOnEvent(tick=96, channel=0, data=[57, 0]),\n",
      "   midi.NoteOnEvent(tick=0, channel=0, data=[56, 100]),\n",
      "   midi.NoteOnEvent(tick=96, channel=0, data=[56, 0]),\n",
      "   midi.NoteOnEvent(tick=0, channel=0, data=[57, 100]),\n",
      "   midi.NoteOnEvent(tick=96, channel=0, data=[57, 0]),\n",
      "   midi.NoteOnEvent(tick=0, channel=0, data=[64, 100]),\n",
      "   midi.NoteOnEvent(tick=96, channel=0, data=[64, 0]),\n",
      "   midi.NoteOnEvent(tick=0, channel=0, data=[57, 100]),\n",
      "   midi.NoteOnEvent(tick=96, channel=0, data=[57, 0]),\n",
      "   midi.NoteOnEvent(tick=0, channel=0, data=[56, 100]),\n",
      "   midi.NoteOnEvent(tick=96, channel=0, data=[56, 0]),\n",
      "   midi.NoteOnEvent(tick=0, channel=0, data=[57, 100]),\n",
      "   midi.NoteOnEvent(tick=96, channel=0, data=[57, 0]),\n",
      "   midi.NoteOnEvent(tick=0, channel=0, data=[65, 100]),\n",
      "   midi.NoteOnEvent(tick=96, channel=0, data=[65, 0]),\n",
      "   midi.NoteOnEvent(tick=0, channel=0, data=[62, 100]),\n",
      "   midi.NoteOnEvent(tick=96, channel=0, data=[62, 0]),\n",
      "   midi.NoteOnEvent(tick=0, channel=0, data=[61, 100]),\n",
      "   midi.NoteOnEvent(tick=96, channel=0, data=[61, 0]),\n",
      "   midi.NoteOnEvent(tick=0, channel=0, data=[62, 100]),\n",
      "   midi.NoteOnEvent(tick=96, channel=0, data=[62, 0]),\n",
      "   midi.NoteOnEvent(tick=0, channel=0, data=[66, 100]),\n",
      "   midi.NoteOnEvent(tick=96, channel=0, data=[66, 0]),\n",
      "   midi.NoteOnEvent(tick=0, channel=0, data=[62, 100]),\n",
      "   midi.NoteOnEvent(tick=96, channel=0, data=[62, 0]),\n",
      "   midi.NoteOnEvent(tick=0, channel=0, data=[61, 100]),\n",
      "   midi.NoteOnEvent(tick=96, channel=0, data=[61, 0]),\n",
      "   midi.NoteOnEvent(tick=0, channel=0, data=[62, 100]),\n",
      "   midi.NoteOnEvent(tick=96, channel=0, data=[62, 0]),\n",
      "   midi.NoteOnEvent(tick=0, channel=0, data=[67, 100]),\n",
      "   midi.NoteOnEvent(tick=96, channel=0, data=[67, 0]),\n",
      "   midi.NoteOnEvent(tick=0, channel=0, data=[62, 100]),\n",
      "   midi.NoteOnEvent(tick=96, channel=0, data=[62, 0]),\n",
      "   midi.NoteOnEvent(tick=0, channel=0, data=[61, 100]),\n",
      "   midi.NoteOnEvent(tick=96, channel=0, data=[61, 0]),\n",
      "   midi.NoteOnEvent(tick=0, channel=0, data=[62, 100]),\n",
      "   midi.NoteOnEvent(tick=96, channel=0, data=[62, 0]),\n",
      "   midi.NoteOnEvent(tick=0, channel=0, data=[69, 100]),\n",
      "   midi.NoteOnEvent(tick=96, channel=0, data=[69, 0]),\n",
      "   midi.NoteOnEvent(tick=0, channel=0, data=[62, 100]),\n",
      "   midi.NoteOnEvent(tick=96, channel=0, data=[62, 0]),\n",
      "   midi.NoteOnEvent(tick=0, channel=0, data=[61, 100]),\n",
      "   midi.NoteOnEvent(tick=96, channel=0, data=[61, 0]),\n",
      "   midi.NoteOnEvent(tick=0, channel=0, data=[62, 100]),\n",
      "   midi.NoteOnEvent(tick=96, channel=0, data=[62, 0]),\n",
      "   midi.NoteOnEvent(tick=0, channel=0, data=[70, 100]),\n",
      "   midi.NoteOnEvent(tick=96, channel=0, data=[70, 0]),\n",
      "   midi.NoteOnEvent(tick=0, channel=0, data=[67, 100]),\n",
      "   midi.NoteOnEvent(tick=96, channel=0, data=[67, 0]),\n",
      "   midi.NoteOnEvent(tick=0, channel=0, data=[66, 100]),\n",
      "   midi.NoteOnEvent(tick=96, channel=0, data=[66, 0]),\n",
      "   midi.NoteOnEvent(tick=0, channel=0, data=[67, 100]),\n",
      "   midi.NoteOnEvent(tick=96, channel=0, data=[67, 0]),\n",
      "   midi.NoteOnEvent(tick=0, channel=0, data=[71, 100]),\n",
      "   midi.NoteOnEvent(tick=96, channel=0, data=[71, 0]),\n",
      "   midi.NoteOnEvent(tick=0, channel=0, data=[67, 100]),\n",
      "   midi.NoteOnEvent(tick=96, channel=0, data=[67, 0]),\n",
      "   midi.NoteOnEvent(tick=0, channel=0, data=[66, 100]),\n",
      "   midi.NoteOnEvent(tick=96, channel=0, data=[66, 0]),\n",
      "   midi.NoteOnEvent(tick=0, channel=0, data=[67, 100]),\n",
      "   midi.NoteOnEvent(tick=96, channel=0, data=[67, 0]),\n",
      "   midi.NoteOnEvent(tick=0, channel=0, data=[72, 100]),\n",
      "   midi.NoteOnEvent(tick=96, channel=0, data=[72, 0]),\n",
      "   midi.NoteOnEvent(tick=0, channel=0, data=[67, 100]),\n",
      "   midi.NoteOnEvent(tick=96, channel=0, data=[67, 0]),\n",
      "   midi.NoteOnEvent(tick=0, channel=0, data=[66, 100]),\n",
      "   midi.NoteOnEvent(tick=96, channel=0, data=[66, 0]),\n",
      "   midi.NoteOnEvent(tick=0, channel=0, data=[67, 100]),\n",
      "   midi.NoteOnEvent(tick=96, channel=0, data=[67, 0]),\n",
      "   midi.NoteOnEvent(tick=0, channel=0, data=[74, 100]),\n",
      "   midi.NoteOnEvent(tick=96, channel=0, data=[74, 0]),\n",
      "   midi.NoteOnEvent(tick=0, channel=0, data=[67, 100]),\n",
      "   midi.NoteOnEvent(tick=96, channel=0, data=[67, 0]),\n",
      "   midi.NoteOnEvent(tick=0, channel=0, data=[66, 100]),\n",
      "   midi.NoteOnEvent(tick=96, channel=0, data=[66, 0]),\n",
      "   midi.NoteOnEvent(tick=0, channel=0, data=[67, 100]),\n",
      "   midi.NoteOnEvent(tick=96, channel=0, data=[67, 0]),\n",
      "   midi.NoteOnEvent(tick=0, channel=0, data=[75, 100]),\n",
      "   midi.NoteOnEvent(tick=96, channel=0, data=[75, 0]),\n",
      "   midi.NoteOnEvent(tick=0, channel=0, data=[72, 100]),\n",
      "   midi.NoteOnEvent(tick=96, channel=0, data=[72, 0]),\n",
      "   midi.NoteOnEvent(tick=0, channel=0, data=[71, 100]),\n",
      "   midi.NoteOnEvent(tick=96, channel=0, data=[71, 0]),\n",
      "   midi.NoteOnEvent(tick=0, channel=0, data=[72, 100]),\n",
      "   midi.NoteOnEvent(tick=96, channel=0, data=[72, 0]),\n",
      "   midi.NoteOnEvent(tick=0, channel=0, data=[76, 100]),\n",
      "   midi.NoteOnEvent(tick=96, channel=0, data=[76, 0]),\n",
      "   midi.NoteOnEvent(tick=0, channel=0, data=[72, 100]),\n",
      "   midi.NoteOnEvent(tick=96, channel=0, data=[72, 0]),\n",
      "   midi.NoteOnEvent(tick=0, channel=0, data=[71, 100]),\n",
      "   midi.NoteOnEvent(tick=96, channel=0, data=[71, 0]),\n",
      "   midi.NoteOnEvent(tick=0, channel=0, data=[72, 100]),\n",
      "   midi.NoteOnEvent(tick=96, channel=0, data=[72, 0]),\n",
      "   midi.NoteOnEvent(tick=0, channel=0, data=[77, 100]),\n",
      "   midi.NoteOnEvent(tick=96, channel=0, data=[77, 0]),\n",
      "   midi.NoteOnEvent(tick=0, channel=0, data=[72, 100]),\n",
      "   midi.NoteOnEvent(tick=96, channel=0, data=[72, 0]),\n",
      "   midi.NoteOnEvent(tick=0, channel=0, data=[71, 100]),\n",
      "   midi.NoteOnEvent(tick=96, channel=0, data=[71, 0]),\n",
      "   midi.NoteOnEvent(tick=0, channel=0, data=[72, 100]),\n",
      "   midi.NoteOnEvent(tick=96, channel=0, data=[72, 0]),\n",
      "   midi.NoteOnEvent(tick=0, channel=0, data=[79, 100]),\n",
      "   midi.NoteOnEvent(tick=96, channel=0, data=[79, 0]),\n",
      "   midi.NoteOnEvent(tick=0, channel=0, data=[72, 100]),\n",
      "   midi.NoteOnEvent(tick=96, channel=0, data=[72, 0]),\n",
      "   midi.NoteOnEvent(tick=0, channel=0, data=[71, 100]),\n",
      "   midi.NoteOnEvent(tick=96, channel=0, data=[71, 0]),\n",
      "   midi.NoteOnEvent(tick=0, channel=0, data=[72, 100]),\n",
      "   midi.NoteOnEvent(tick=96, channel=0, data=[72, 0]),\n",
      "   midi.NoteOnEvent(tick=0, channel=0, data=[80, 100]),\n",
      "   midi.NoteOnEvent(tick=48, channel=0, data=[80, 0]),\n",
      "   midi.NoteOnEvent(tick=0, channel=0, data=[82, 100]),\n",
      "   midi.NoteOnEvent(tick=48, channel=0, data=[82, 0]),\n",
      "   midi.NoteOnEvent(tick=0, channel=0, data=[84, 100]),\n",
      "   midi.NoteOnEvent(tick=192, channel=0, data=[84, 0]),\n",
      "   midi.NoteOnEvent(tick=0, channel=0, data=[80, 100]),\n",
      "   midi.NoteOnEvent(tick=96, channel=0, data=[80, 0]),\n",
      "   midi.NoteOnEvent(tick=0, channel=0, data=[78, 100]),\n",
      "   midi.NoteOnEvent(tick=48, channel=0, data=[78, 0]),\n",
      "   midi.NoteOnEvent(tick=0, channel=0, data=[79, 100]),\n",
      "   midi.NoteOnEvent(tick=48, channel=0, data=[79, 0]),\n",
      "   midi.NoteOnEvent(tick=0, channel=0, data=[81, 100]),\n",
      "   midi.NoteOnEvent(tick=192, channel=0, data=[81, 0]),\n",
      "   midi.NoteOnEvent(tick=0, channel=0, data=[78, 100]),\n",
      "   midi.NoteOnEvent(tick=96, channel=0, data=[78, 0]),\n",
      "   midi.NoteOnEvent(tick=0, channel=0, data=[79, 100]),\n",
      "   midi.NoteOnEvent(tick=96, channel=0, data=[79, 0]),\n",
      "   midi.NoteOnEvent(tick=0, channel=0, data=[74, 100]),\n",
      "   midi.NoteOnEvent(tick=96, channel=0, data=[74, 0]),\n",
      "   midi.NoteOnEvent(tick=0, channel=0, data=[70, 100]),\n",
      "   midi.NoteOnEvent(tick=96, channel=0, data=[70, 0]),\n",
      "   midi.NoteOnEvent(tick=0, channel=0, data=[67, 100]),\n",
      "   midi.NoteOnEvent(tick=96, channel=0, data=[67, 0]),\n",
      "   midi.NoteOnEvent(tick=0, channel=0, data=[66, 100]),\n",
      "   midi.NoteOnEvent(tick=96, channel=0, data=[66, 0]),\n",
      "   midi.NoteOnEvent(tick=0, channel=0, data=[67, 100]),\n",
      "   midi.NoteOnEvent(tick=96, channel=0, data=[67, 0]),\n",
      "   midi.NoteOnEvent(tick=0, channel=0, data=[70, 100]),\n",
      "   midi.NoteOnEvent(tick=96, channel=0, data=[70, 0]),\n",
      "   midi.NoteOnEvent(tick=0, channel=0, data=[74, 100]),\n",
      "   midi.NoteOnEvent(tick=96, channel=0, data=[74, 0]),\n",
      "   midi.NoteOnEvent(tick=0, channel=0, data=[75, 100]),\n",
      "   midi.NoteOnEvent(tick=48, channel=0, data=[75, 0]),\n",
      "   midi.NoteOnEvent(tick=0, channel=0, data=[77, 100]),\n",
      "   midi.NoteOnEvent(tick=48, channel=0, data=[77, 0]),\n",
      "   midi.NoteOnEvent(tick=0, channel=0, data=[79, 100]),\n",
      "   midi.NoteOnEvent(tick=192, channel=0, data=[79, 0]),\n",
      "   midi.NoteOnEvent(tick=0, channel=0, data=[75, 100]),\n",
      "   midi.NoteOnEvent(tick=96, channel=0, data=[75, 0]),\n",
      "   midi.NoteOnEvent(tick=0, channel=0, data=[73, 100]),\n",
      "   midi.NoteOnEvent(tick=48, channel=0, data=[73, 0]),\n",
      "   midi.NoteOnEvent(tick=0, channel=0, data=[74, 100]),\n",
      "   midi.NoteOnEvent(tick=48, channel=0, data=[74, 0]),\n",
      "   midi.NoteOnEvent(tick=0, channel=0, data=[76, 100]),\n",
      "   midi.NoteOnEvent(tick=192, channel=0, data=[76, 0]),\n",
      "   midi.NoteOnEvent(tick=0, channel=0, data=[73, 100]),\n",
      "   midi.NoteOnEvent(tick=96, channel=0, data=[73, 0]),\n",
      "   midi.NoteOnEvent(tick=0, channel=0, data=[74, 100]),\n",
      "   midi.NoteOnEvent(tick=96, channel=0, data=[74, 0]),\n",
      "   midi.NoteOnEvent(tick=0, channel=0, data=[69, 100]),\n",
      "   midi.NoteOnEvent(tick=96, channel=0, data=[69, 0]),\n",
      "   midi.NoteOnEvent(tick=0, channel=0, data=[65, 100]),\n",
      "   midi.NoteOnEvent(tick=96, channel=0, data=[65, 0]),\n",
      "   midi.NoteOnEvent(tick=0, channel=0, data=[62, 100]),\n",
      "   midi.NoteOnEvent(tick=96, channel=0, data=[62, 0]),\n",
      "   midi.NoteOnEvent(tick=0, channel=0, data=[61, 100]),\n",
      "   midi.NoteOnEvent(tick=96, channel=0, data=[61, 0]),\n",
      "   midi.NoteOnEvent(tick=0, channel=0, data=[62, 100]),\n",
      "   midi.NoteOnEvent(tick=96, channel=0, data=[62, 0]),\n",
      "   midi.NoteOnEvent(tick=0, channel=0, data=[65, 100]),\n",
      "   midi.NoteOnEvent(tick=96, channel=0, data=[65, 0]),\n",
      "   midi.NoteOnEvent(tick=0, channel=0, data=[69, 100]),\n",
      "   midi.NoteOnEvent(tick=96, channel=0, data=[69, 0]),\n",
      "   midi.NoteOnEvent(tick=0, channel=0, data=[70, 100]),\n",
      "   midi.NoteOnEvent(tick=48, channel=0, data=[70, 0]),\n",
      "   midi.NoteOnEvent(tick=0, channel=0, data=[72, 100]),\n",
      "   midi.NoteOnEvent(tick=48, channel=0, data=[72, 0]),\n",
      "   midi.NoteOnEvent(tick=0, channel=0, data=[74, 100]),\n",
      "   midi.NoteOnEvent(tick=192, channel=0, data=[74, 0]),\n",
      "   midi.NoteOnEvent(tick=0, channel=0, data=[70, 100]),\n",
      "   midi.NoteOnEvent(tick=96, channel=0, data=[70, 0]),\n",
      "   midi.NoteOnEvent(tick=0, channel=0, data=[68, 100]),\n",
      "   midi.NoteOnEvent(tick=48, channel=0, data=[68, 0]),\n",
      "   midi.NoteOnEvent(tick=0, channel=0, data=[69, 100]),\n",
      "   midi.NoteOnEvent(tick=48, channel=0, data=[69, 0]),\n",
      "   midi.NoteOnEvent(tick=0, channel=0, data=[71, 100]),\n",
      "   midi.NoteOnEvent(tick=192, channel=0, data=[71, 0]),\n",
      "   midi.NoteOnEvent(tick=0, channel=0, data=[68, 100]),\n",
      "   midi.NoteOnEvent(tick=96, channel=0, data=[68, 0]),\n",
      "   midi.NoteOnEvent(tick=0, channel=0, data=[69, 100]),\n",
      "   midi.NoteOnEvent(tick=96, channel=0, data=[69, 0]),\n",
      "   midi.NoteOnEvent(tick=0, channel=0, data=[64, 100]),\n",
      "   midi.NoteOnEvent(tick=96, channel=0, data=[64, 0]),\n",
      "   midi.NoteOnEvent(tick=0, channel=0, data=[66, 100]),\n",
      "   midi.NoteOnEvent(tick=96, channel=0, data=[66, 0]),\n",
      "   midi.NoteOnEvent(tick=0, channel=0, data=[68, 100]),\n",
      "   midi.NoteOnEvent(tick=96, channel=0, data=[68, 0]),\n",
      "   midi.NoteOnEvent(tick=0, channel=0, data=[69, 100]),\n",
      "   midi.NoteOnEvent(tick=96, channel=0, data=[69, 0]),\n",
      "   midi.NoteOnEvent(tick=0, channel=0, data=[64, 100]),\n",
      "   midi.NoteOnEvent(tick=96, channel=0, data=[64, 0]),\n",
      "   midi.NoteOnEvent(tick=0, channel=0, data=[71, 100]),\n",
      "   midi.NoteOnEvent(tick=96, channel=0, data=[71, 0]),\n",
      "   midi.NoteOnEvent(tick=0, channel=0, data=[64, 100]),\n",
      "   midi.NoteOnEvent(tick=96, channel=0, data=[64, 0]),\n",
      "   midi.NoteOnEvent(tick=0, channel=0, data=[72, 100]),\n",
      "   midi.NoteOnEvent(tick=96, channel=0, data=[72, 0]),\n",
      "   midi.NoteOnEvent(tick=0, channel=0, data=[68, 100]),\n",
      "   midi.NoteOnEvent(tick=96, channel=0, data=[68, 0]),\n",
      "   midi.NoteOnEvent(tick=0, channel=0, data=[69, 100]),\n",
      "   midi.NoteOnEvent(tick=96, channel=0, data=[69, 0]),\n",
      "   midi.NoteOnEvent(tick=0, channel=0, data=[71, 100]),\n",
      "   midi.NoteOnEvent(tick=96, channel=0, data=[71, 0]),\n",
      "   midi.NoteOnEvent(tick=0, channel=0, data=[72, 100]),\n",
      "   midi.NoteOnEvent(tick=96, channel=0, data=[72, 0]),\n",
      "   midi.NoteOnEvent(tick=0, channel=0, data=[69, 100]),\n",
      "   midi.NoteOnEvent(tick=96, channel=0, data=[69, 0]),\n",
      "   midi.NoteOnEvent(tick=0, channel=0, data=[74, 100]),\n",
      "   midi.NoteOnEvent(tick=96, channel=0, data=[74, 0]),\n",
      "   midi.NoteOnEvent(tick=0, channel=0, data=[69, 100]),\n",
      "   midi.NoteOnEvent(tick=96, channel=0, data=[69, 0]),\n",
      "   midi.NoteOnEvent(tick=0, channel=0, data=[68, 100]),\n",
      "   midi.NoteOnEvent(tick=96, channel=0, data=[68, 0]),\n",
      "   midi.NoteOnEvent(tick=0, channel=0, data=[64, 100]),\n",
      "   midi.NoteOnEvent(tick=96, channel=0, data=[64, 0]),\n",
      "   midi.NoteOnEvent(tick=0, channel=0, data=[68, 100]),\n",
      "   midi.NoteOnEvent(tick=96, channel=0, data=[68, 0]),\n",
      "   midi.NoteOnEvent(tick=0, channel=0, data=[71, 100]),\n",
      "   midi.NoteOnEvent(tick=96, channel=0, data=[71, 0]),\n",
      "   midi.NoteOnEvent(tick=0, channel=0, data=[76, 100]),\n",
      "   midi.NoteOnEvent(tick=480, channel=0, data=[76, 0]),\n",
      "   midi.NoteOnEvent(tick=0, channel=0, data=[69, 100]),\n",
      "   midi.NoteOnEvent(tick=96, channel=0, data=[69, 0]),\n",
      "   midi.NoteOnEvent(tick=0, channel=0, data=[72, 100]),\n",
      "   midi.NoteOnEvent(tick=96, channel=0, data=[72, 0]),\n",
      "   midi.NoteOnEvent(tick=0, channel=0, data=[76, 100]),\n",
      "   midi.NoteOnEvent(tick=96, channel=0, data=[76, 0]),\n",
      "   midi.NoteOnEvent(tick=0, channel=0, data=[81, 100]),\n",
      "   midi.NoteOnEvent(tick=480, channel=0, data=[81, 0]),\n",
      "   midi.NoteOnEvent(tick=0, channel=0, data=[69, 100]),\n",
      "   midi.NoteOnEvent(tick=96, channel=0, data=[69, 0]),\n",
      "   midi.NoteOnEvent(tick=0, channel=0, data=[74, 100]),\n",
      "   midi.NoteOnEvent(tick=96, channel=0, data=[74, 0]),\n",
      "   midi.NoteOnEvent(tick=0, channel=0, data=[77, 100]),\n",
      "   midi.NoteOnEvent(tick=96, channel=0, data=[77, 0]),\n",
      "   midi.NoteOnEvent(tick=0, channel=0, data=[81, 100]),\n",
      "   midi.NoteOnEvent(tick=576, channel=0, data=[81, 0]),\n",
      "   midi.NoteOnEvent(tick=0, channel=0, data=[69, 100]),\n",
      "   midi.NoteOnEvent(tick=192, channel=0, data=[69, 0]),\n",
      "   midi.NoteOnEvent(tick=0, channel=0, data=[64, 100]),\n",
      "   midi.NoteOnEvent(tick=192, channel=0, data=[64, 0]),\n",
      "   midi.NoteOnEvent(tick=0, channel=0, data=[68, 100]),\n",
      "   midi.NoteOnEvent(tick=192, channel=0, data=[68, 0]),\n",
      "   midi.NoteOnEvent(tick=0, channel=0, data=[57, 100]),\n",
      "   midi.NoteOnEvent(tick=192, channel=0, data=[57, 0]),\n",
      "   midi.NoteOnEvent(tick=0, channel=0, data=[69, 100]),\n",
      "   midi.NoteOnEvent(tick=192, channel=0, data=[69, 0]),\n",
      "   midi.NoteOnEvent(tick=0, channel=0, data=[76, 100]),\n",
      "   midi.NoteOnEvent(tick=576, channel=0, data=[76, 0]),\n",
      "   midi.NoteOnEvent(tick=0, channel=0, data=[74, 100]),\n",
      "   midi.NoteOnEvent(tick=96, channel=0, data=[74, 0]),\n",
      "   midi.NoteOnEvent(tick=0, channel=0, data=[73, 100]),\n",
      "   midi.NoteOnEvent(tick=96, channel=0, data=[73, 0]),\n",
      "   midi.NoteOnEvent(tick=0, channel=0, data=[74, 100]),\n",
      "   midi.NoteOnEvent(tick=192, channel=0, data=[74, 0]),\n",
      "   midi.NoteOnEvent(tick=0, channel=0, data=[77, 100]),\n",
      "   midi.NoteOnEvent(tick=384, channel=0, data=[77, 0]),\n",
      "   midi.NoteOnEvent(tick=0, channel=0, data=[71, 100]),\n",
      "   midi.NoteOnEvent(tick=96, channel=0, data=[71, 0]),\n",
      "   midi.NoteOnEvent(tick=0, channel=0, data=[72, 100]),\n",
      "   midi.NoteOnEvent(tick=96, channel=0, data=[72, 0]),\n",
      "   midi.NoteOnEvent(tick=0, channel=0, data=[74, 100]),\n",
      "   midi.NoteOnEvent(tick=96, channel=0, data=[74, 0]),\n",
      "   midi.NoteOnEvent(tick=0, channel=0, data=[71, 100]),\n",
      "   midi.NoteOnEvent(tick=96, channel=0, data=[71, 0]),\n",
      "   midi.NoteOnEvent(tick=0, channel=0, data=[72, 100]),\n",
      "   midi.NoteOnEvent(tick=96, channel=0, data=[72, 0]),\n",
      "   midi.NoteOnEvent(tick=0, channel=0, data=[69, 100]),\n",
      "   midi.NoteOnEvent(tick=96, channel=0, data=[69, 0]),\n",
      "   midi.NoteOnEvent(tick=0, channel=0, data=[71, 100]),\n",
      "   midi.NoteOnEvent(tick=96, channel=0, data=[71, 0]),\n",
      "   midi.NoteOnEvent(tick=0, channel=0, data=[67, 100]),\n",
      "   midi.NoteOnEvent(tick=96, channel=0, data=[67, 0]),\n",
      "   midi.NoteOnEvent(tick=0, channel=0, data=[66, 100]),\n",
      "   midi.NoteOnEvent(tick=96, channel=0, data=[66, 0]),\n",
      "   midi.NoteOnEvent(tick=0, channel=0, data=[67, 100]),\n",
      "   midi.NoteOnEvent(tick=96, channel=0, data=[67, 0]),\n",
      "   midi.NoteOnEvent(tick=0, channel=0, data=[71, 100]),\n",
      "   midi.NoteOnEvent(tick=96, channel=0, data=[71, 0]),\n",
      "   midi.NoteOnEvent(tick=0, channel=0, data=[67, 100]),\n",
      "   midi.NoteOnEvent(tick=96, channel=0, data=[67, 0]),\n",
      "   midi.NoteOnEvent(tick=0, channel=0, data=[74, 100]),\n",
      "   midi.NoteOnEvent(tick=96, channel=0, data=[74, 0]),\n",
      "   midi.NoteOnEvent(tick=0, channel=0, data=[71, 100]),\n",
      "   midi.NoteOnEvent(tick=96, channel=0, data=[71, 0]),\n",
      "   midi.NoteOnEvent(tick=0, channel=0, data=[79, 100]),\n",
      "   midi.NoteOnEvent(tick=192, channel=0, data=[79, 0]),\n",
      "   midi.NoteOnEvent(tick=0, channel=0, data=[67, 100]),\n",
      "   midi.NoteOnEvent(tick=192, channel=0, data=[67, 0]),\n",
      "   midi.NoteOnEvent(tick=0, channel=0, data=[74, 100]),\n",
      "   midi.NoteOnEvent(tick=576, channel=0, data=[74, 0]),\n",
      "   midi.NoteOnEvent(tick=0, channel=0, data=[72, 100]),\n",
      "   midi.NoteOnEvent(tick=96, channel=0, data=[72, 0]),\n",
      "   midi.NoteOnEvent(tick=0, channel=0, data=[71, 100]),\n",
      "   midi.NoteOnEvent(tick=96, channel=0, data=[71, 0]),\n",
      "   midi.NoteOnEvent(tick=0, channel=0, data=[72, 100]),\n",
      "   midi.NoteOnEvent(tick=192, channel=0, data=[72, 0]),\n",
      "   midi.NoteOnEvent(tick=0, channel=0, data=[76, 100]),\n",
      "   midi.NoteOnEvent(tick=384, channel=0, data=[76, 0]),\n",
      "   midi.NoteOnEvent(tick=0, channel=0, data=[69, 100]),\n",
      "   midi.NoteOnEvent(tick=96, channel=0, data=[69, 0]),\n",
      "   midi.NoteOnEvent(tick=0, channel=0, data=[71, 100]),\n",
      "   midi.NoteOnEvent(tick=96, channel=0, data=[71, 0]),\n",
      "   midi.NoteOnEvent(tick=0, channel=0, data=[72, 100]),\n",
      "   midi.NoteOnEvent(tick=96, channel=0, data=[72, 0]),\n",
      "   midi.NoteOnEvent(tick=0, channel=0, data=[69, 100]),\n",
      "   midi.NoteOnEvent(tick=96, channel=0, data=[69, 0]),\n",
      "   midi.NoteOnEvent(tick=0, channel=0, data=[71, 100]),\n",
      "   midi.NoteOnEvent(tick=96, channel=0, data=[71, 0]),\n",
      "   midi.NoteOnEvent(tick=0, channel=0, data=[68, 100]),\n",
      "   midi.NoteOnEvent(tick=96, channel=0, data=[68, 0]),\n",
      "   midi.NoteOnEvent(tick=0, channel=0, data=[69, 100]),\n",
      "   midi.NoteOnEvent(tick=96, channel=0, data=[69, 0]),\n",
      "   midi.NoteOnEvent(tick=0, channel=0, data=[65, 100]),\n",
      "   midi.NoteOnEvent(tick=96, channel=0, data=[65, 0]),\n",
      "   midi.NoteOnEvent(tick=0, channel=0, data=[64, 100]),\n",
      "   midi.NoteOnEvent(tick=96, channel=0, data=[64, 0]),\n",
      "   midi.NoteOnEvent(tick=0, channel=0, data=[65, 100]),\n",
      "   midi.NoteOnEvent(tick=96, channel=0, data=[65, 0]),\n",
      "   midi.NoteOnEvent(tick=0, channel=0, data=[69, 100]),\n",
      "   midi.NoteOnEvent(tick=96, channel=0, data=[69, 0]),\n",
      "   midi.NoteOnEvent(tick=0, channel=0, data=[65, 100]),\n",
      "   midi.NoteOnEvent(tick=96, channel=0, data=[65, 0]),\n",
      "   midi.NoteOnEvent(tick=0, channel=0, data=[72, 100]),\n",
      "   midi.NoteOnEvent(tick=96, channel=0, data=[72, 0]),\n",
      "   midi.NoteOnEvent(tick=0, channel=0, data=[65, 100]),\n",
      "   midi.NoteOnEvent(tick=96, channel=0, data=[65, 0]),\n",
      "   midi.NoteOnEvent(tick=0, channel=0, data=[77, 100]),\n",
      "   midi.NoteOnEvent(tick=192, channel=0, data=[77, 0]),\n",
      "   midi.NoteOnEvent(tick=0, channel=0, data=[65, 100]),\n",
      "   midi.NoteOnEvent(tick=192, channel=0, data=[65, 0]),\n",
      "   midi.NoteOnEvent(tick=0, channel=0, data=[72, 100]),\n",
      "   midi.NoteOnEvent(tick=576, channel=0, data=[72, 0]),\n",
      "   midi.NoteOnEvent(tick=0, channel=0, data=[71, 100]),\n",
      "   midi.NoteOnEvent(tick=96, channel=0, data=[71, 0]),\n",
      "   midi.NoteOnEvent(tick=0, channel=0, data=[72, 100]),\n",
      "   midi.NoteOnEvent(tick=96, channel=0, data=[72, 0]),\n",
      "   midi.NoteOnEvent(tick=0, channel=0, data=[74, 100]),\n",
      "   midi.NoteOnEvent(tick=192, channel=0, data=[74, 0]),\n",
      "   midi.NoteOnEvent(tick=0, channel=0, data=[65, 100]),\n",
      "   midi.NoteOnEvent(tick=192, channel=0, data=[65, 0]),\n",
      "   midi.NoteOnEvent(tick=0, channel=0, data=[64, 100]),\n",
      "   midi.NoteOnEvent(tick=192, channel=0, data=[64, 0]),\n",
      "   midi.NoteOnEvent(tick=0, channel=0, data=[74, 100]),\n",
      "   midi.NoteOnEvent(tick=192, channel=0, data=[74, 0]),\n",
      "   midi.NoteOnEvent(tick=0, channel=0, data=[72, 100]),\n",
      "   midi.NoteOnEvent(tick=192, channel=0, data=[72, 0]),\n",
      "   midi.NoteOnEvent(tick=0, channel=0, data=[64, 100]),\n",
      "   midi.NoteOnEvent(tick=192, channel=0, data=[64, 0]),\n",
      "   midi.NoteOnEvent(tick=0, channel=0, data=[62, 100]),\n",
      "   midi.NoteOnEvent(tick=96, channel=0, data=[62, 0]),\n",
      "   midi.NoteOnEvent(tick=0, channel=0, data=[72, 100]),\n",
      "   midi.NoteOnEvent(tick=96, channel=0, data=[72, 0]),\n",
      "   midi.NoteOnEvent(tick=0, channel=0, data=[71, 100]),\n",
      "   midi.NoteOnEvent(tick=96, channel=0, data=[71, 0]),\n",
      "   midi.NoteOnEvent(tick=0, channel=0, data=[69, 100]),\n",
      "   midi.NoteOnEvent(tick=96, channel=0, data=[69, 0]),\n",
      "   midi.NoteOnEvent(tick=0, channel=0, data=[71, 100]),\n",
      "   midi.NoteOnEvent(tick=96, channel=0, data=[71, 0]),\n",
      "   midi.NoteOnEvent(tick=0, channel=0, data=[69, 100]),\n",
      "   midi.NoteOnEvent(tick=96, channel=0, data=[69, 0]),\n",
      "   midi.NoteOnEvent(tick=0, channel=0, data=[68, 100]),\n",
      "   midi.NoteOnEvent(tick=96, channel=0, data=[68, 0]),\n",
      "   midi.NoteOnEvent(tick=0, channel=0, data=[66, 100]),\n",
      "   midi.NoteOnEvent(tick=96, channel=0, data=[66, 0]),\n",
      "   midi.NoteOnEvent(tick=0, channel=0, data=[68, 100]),\n",
      "   midi.NoteOnEvent(tick=192, channel=0, data=[68, 0]),\n",
      "   midi.NoteOnEvent(tick=0, channel=0, data=[77, 100]),\n",
      "   midi.NoteOnEvent(tick=192, channel=0, data=[77, 0]),\n",
      "   midi.NoteOnEvent(tick=0, channel=0, data=[76, 100]),\n",
      "   midi.NoteOnEvent(tick=192, channel=0, data=[76, 0]),\n",
      "   midi.NoteOnEvent(tick=0, channel=0, data=[81, 100]),\n",
      "   midi.NoteOnEvent(tick=192, channel=0, data=[81, 0]),\n",
      "   midi.NoteOnEvent(tick=0, channel=0, data=[84, 100]),\n",
      "   midi.NoteOnEvent(tick=384, channel=0, data=[84, 0]),\n",
      "   midi.NoteOnEvent(tick=0, channel=0, data=[83, 100]),\n",
      "   midi.NoteOnEvent(tick=48, channel=0, data=[83, 0]),\n",
      "   midi.NoteOnEvent(tick=0, channel=0, data=[84, 100]),\n",
      "   midi.NoteOnEvent(tick=48, channel=0, data=[84, 0]),\n",
      "   midi.NoteOnEvent(tick=0, channel=0, data=[83, 100]),\n",
      "   midi.NoteOnEvent(tick=48, channel=0, data=[83, 0]),\n",
      "   midi.NoteOnEvent(tick=0, channel=0, data=[84, 100]),\n",
      "   midi.NoteOnEvent(tick=48, channel=0, data=[84, 0]),\n",
      "   midi.NoteOnEvent(tick=0, channel=0, data=[83, 100]),\n",
      "   midi.NoteOnEvent(tick=48, channel=0, data=[83, 0]),\n",
      "   midi.NoteOnEvent(tick=0, channel=0, data=[84, 100]),\n",
      "   midi.NoteOnEvent(tick=48, channel=0, data=[84, 0]),\n",
      "   midi.NoteOnEvent(tick=0, channel=0, data=[83, 100]),\n",
      "   midi.NoteOnEvent(tick=48, channel=0, data=[83, 0]),\n",
      "   midi.NoteOnEvent(tick=0, channel=0, data=[84, 100]),\n",
      "   midi.NoteOnEvent(tick=48, channel=0, data=[84, 0]),\n",
      "   midi.NoteOnEvent(tick=0, channel=0, data=[83, 100]),\n",
      "   midi.NoteOnEvent(tick=96, channel=0, data=[83, 0]),\n",
      "   midi.NoteOnEvent(tick=0, channel=0, data=[84, 100]),\n",
      "   midi.NoteOnEvent(tick=96, channel=0, data=[84, 0]),\n",
      "   midi.NoteOnEvent(tick=0, channel=0, data=[86, 100]),\n",
      "   midi.NoteOnEvent(tick=96, channel=0, data=[86, 0]),\n",
      "   midi.NoteOnEvent(tick=0, channel=0, data=[84, 100]),\n",
      "   midi.NoteOnEvent(tick=96, channel=0, data=[84, 0]),\n",
      "   midi.NoteOnEvent(tick=0, channel=0, data=[83, 100]),\n",
      "   midi.NoteOnEvent(tick=96, channel=0, data=[83, 0]),\n",
      "   midi.NoteOnEvent(tick=0, channel=0, data=[86, 100]),\n",
      "   midi.NoteOnEvent(tick=96, channel=0, data=[86, 0]),\n",
      "   midi.NoteOnEvent(tick=0, channel=0, data=[81, 100]),\n",
      "   midi.NoteOnEvent(tick=96, channel=0, data=[81, 0]),\n",
      "   midi.NoteOnEvent(tick=0, channel=0, data=[86, 100]),\n",
      "   midi.NoteOnEvent(tick=96, channel=0, data=[86, 0]),\n",
      "   midi.NoteOnEvent(tick=0, channel=0, data=[80, 100]),\n",
      "   midi.NoteOnEvent(tick=96, channel=0, data=[80, 0]),\n",
      "   midi.NoteOnEvent(tick=0, channel=0, data=[81, 100]),\n",
      "   midi.NoteOnEvent(tick=96, channel=0, data=[81, 0]),\n",
      "   midi.NoteOnEvent(tick=0, channel=0, data=[83, 100]),\n",
      "   midi.NoteOnEvent(tick=96, channel=0, data=[83, 0]),\n",
      "   midi.NoteOnEvent(tick=0, channel=0, data=[81, 100]),\n",
      "   midi.NoteOnEvent(tick=96, channel=0, data=[81, 0]),\n",
      "   midi.NoteOnEvent(tick=0, channel=0, data=[80, 100]),\n",
      "   midi.NoteOnEvent(tick=96, channel=0, data=[80, 0]),\n",
      "   midi.NoteOnEvent(tick=0, channel=0, data=[83, 100]),\n",
      "   midi.NoteOnEvent(tick=96, channel=0, data=[83, 0]),\n",
      "   midi.NoteOnEvent(tick=0, channel=0, data=[77, 100]),\n",
      "   midi.NoteOnEvent(tick=96, channel=0, data=[77, 0]),\n",
      "   midi.NoteOnEvent(tick=0, channel=0, data=[83, 100]),\n",
      "   midi.NoteOnEvent(tick=96, channel=0, data=[83, 0]),\n",
      "   midi.NoteOnEvent(tick=0, channel=0, data=[74, 100]),\n",
      "   midi.NoteOnEvent(tick=96, channel=0, data=[74, 0]),\n",
      "   midi.NoteOnEvent(tick=0, channel=0, data=[76, 100]),\n",
      "   midi.NoteOnEvent(tick=96, channel=0, data=[76, 0]),\n",
      "   midi.NoteOnEvent(tick=0, channel=0, data=[77, 100]),\n",
      "   midi.NoteOnEvent(tick=96, channel=0, data=[77, 0]),\n",
      "   midi.NoteOnEvent(tick=0, channel=0, data=[76, 100]),\n",
      "   midi.NoteOnEvent(tick=96, channel=0, data=[76, 0]),\n",
      "   midi.NoteOnEvent(tick=0, channel=0, data=[74, 100]),\n",
      "   midi.NoteOnEvent(tick=96, channel=0, data=[74, 0]),\n",
      "   midi.NoteOnEvent(tick=0, channel=0, data=[77, 100]),\n",
      "   midi.NoteOnEvent(tick=96, channel=0, data=[77, 0]),\n",
      "   midi.NoteOnEvent(tick=0, channel=0, data=[72, 100]),\n",
      "   midi.NoteOnEvent(tick=96, channel=0, data=[72, 0]),\n",
      "   midi.NoteOnEvent(tick=0, channel=0, data=[77, 100]),\n",
      "   midi.NoteOnEvent(tick=96, channel=0, data=[77, 0]),\n",
      "   midi.NoteOnEvent(tick=0, channel=0, data=[71, 100]),\n",
      "   midi.NoteOnEvent(tick=96, channel=0, data=[71, 0]),\n",
      "   midi.NoteOnEvent(tick=0, channel=0, data=[72, 100]),\n",
      "   midi.NoteOnEvent(tick=96, channel=0, data=[72, 0]),\n",
      "   midi.NoteOnEvent(tick=0, channel=0, data=[74, 100]),\n",
      "   midi.NoteOnEvent(tick=96, channel=0, data=[74, 0]),\n",
      "   midi.NoteOnEvent(tick=0, channel=0, data=[72, 100]),\n",
      "   midi.NoteOnEvent(tick=96, channel=0, data=[72, 0]),\n",
      "   midi.NoteOnEvent(tick=0, channel=0, data=[71, 100]),\n",
      "   midi.NoteOnEvent(tick=96, channel=0, data=[71, 0]),\n",
      "   midi.NoteOnEvent(tick=0, channel=0, data=[74, 100]),\n",
      "   midi.NoteOnEvent(tick=96, channel=0, data=[74, 0]),\n",
      "   midi.NoteOnEvent(tick=0, channel=0, data=[69, 100]),\n",
      "   midi.NoteOnEvent(tick=96, channel=0, data=[69, 0]),\n",
      "   midi.NoteOnEvent(tick=0, channel=0, data=[74, 100]),\n",
      "   midi.NoteOnEvent(tick=96, channel=0, data=[74, 0]),\n",
      "   midi.NoteOnEvent(tick=0, channel=0, data=[68, 100]),\n",
      "   midi.NoteOnEvent(tick=96, channel=0, data=[68, 0]),\n",
      "   midi.NoteOnEvent(tick=0, channel=0, data=[74, 100]),\n",
      "   midi.NoteOnEvent(tick=96, channel=0, data=[74, 0]),\n",
      "   midi.NoteOnEvent(tick=0, channel=0, data=[64, 100]),\n",
      "   midi.NoteOnEvent(tick=96, channel=0, data=[64, 0]),\n",
      "   midi.NoteOnEvent(tick=0, channel=0, data=[66, 100]),\n",
      "   midi.NoteOnEvent(tick=96, channel=0, data=[66, 0]),\n",
      "   midi.NoteOnEvent(tick=0, channel=0, data=[68, 100]),\n",
      "   midi.NoteOnEvent(tick=96, channel=0, data=[68, 0]),\n",
      "   midi.NoteOnEvent(tick=0, channel=0, data=[69, 100]),\n",
      "   midi.NoteOnEvent(tick=96, channel=0, data=[69, 0]),\n",
      "   midi.NoteOnEvent(tick=0, channel=0, data=[71, 100]),\n",
      "   midi.NoteOnEvent(tick=96, channel=0, data=[71, 0]),\n",
      "   midi.NoteOnEvent(tick=0, channel=0, data=[72, 100]),\n",
      "   midi.NoteOnEvent(tick=96, channel=0, data=[72, 0]),\n",
      "   midi.NoteOnEvent(tick=0, channel=0, data=[74, 100]),\n",
      "   midi.NoteOnEvent(tick=96, channel=0, data=[74, 0]),\n",
      "   midi.NoteOnEvent(tick=0, channel=0, data=[76, 100]),\n",
      "   midi.NoteOnEvent(tick=96, channel=0, data=[76, 0]),\n",
      "   midi.NoteOnEvent(tick=0, channel=0, data=[78, 100]),\n",
      "   midi.NoteOnEvent(tick=96, channel=0, data=[78, 0]),\n",
      "   midi.NoteOnEvent(tick=0, channel=0, data=[80, 100]),\n",
      "   midi.NoteOnEvent(tick=96, channel=0, data=[80, 0]),\n",
      "   midi.NoteOnEvent(tick=0, channel=0, data=[81, 100]),\n",
      "   midi.NoteOnEvent(tick=96, channel=0, data=[81, 0]),\n",
      "   midi.NoteOnEvent(tick=0, channel=0, data=[83, 100]),\n",
      "   midi.NoteOnEvent(tick=96, channel=0, data=[83, 0]),\n",
      "   midi.NoteOnEvent(tick=0, channel=0, data=[84, 100]),\n",
      "   midi.NoteOnEvent(tick=96, channel=0, data=[84, 0]),\n",
      "   midi.NoteOnEvent(tick=0, channel=0, data=[86, 100]),\n",
      "   midi.NoteOnEvent(tick=96, channel=0, data=[86, 0]),\n",
      "   midi.NoteOnEvent(tick=0, channel=0, data=[88, 100]),\n",
      "   midi.NoteOnEvent(tick=192, channel=0, data=[88, 0]),\n",
      "   midi.NoteOnEvent(tick=0, channel=0, data=[81, 100]),\n",
      "   midi.NoteOnEvent(tick=192, channel=0, data=[81, 0]),\n",
      "   midi.NoteOnEvent(tick=0, channel=0, data=[83, 100]),\n",
      "   midi.NoteOnEvent(tick=192, channel=0, data=[83, 0]),\n",
      "   midi.NoteOnEvent(tick=0, channel=0, data=[80, 100]),\n",
      "   midi.NoteOnEvent(tick=192, channel=0, data=[80, 0]),\n",
      "   midi.NoteOnEvent(tick=0, channel=0, data=[81, 100]),\n",
      "   midi.NoteOnEvent(tick=96, channel=0, data=[81, 0]),\n",
      "   midi.NoteOnEvent(tick=0, channel=0, data=[79, 100]),\n",
      "   midi.NoteOnEvent(tick=96, channel=0, data=[79, 0]),\n",
      "   midi.NoteOnEvent(tick=0, channel=0, data=[77, 100]),\n",
      "   midi.NoteOnEvent(tick=96, channel=0, data=[77, 0]),\n",
      "   midi.NoteOnEvent(tick=0, channel=0, data=[76, 100]),\n",
      "   midi.NoteOnEvent(tick=96, channel=0, data=[76, 0]),\n",
      "   midi.NoteOnEvent(tick=0, channel=0, data=[74, 100]),\n",
      "   midi.NoteOnEvent(tick=192, channel=0, data=[74, 0]),\n",
      "   midi.NoteOnEvent(tick=0, channel=0, data=[74, 100]),\n",
      "   midi.NoteOnEvent(tick=192, channel=0, data=[74, 0]),\n",
      "   midi.NoteOnEvent(tick=0, channel=0, data=[74, 100]),\n",
      "   midi.NoteOnEvent(tick=96, channel=0, data=[74, 0]),\n",
      "   midi.NoteOnEvent(tick=0, channel=0, data=[76, 100]),\n",
      "   midi.NoteOnEvent(tick=96, channel=0, data=[76, 0]),\n",
      "   midi.NoteOnEvent(tick=0, channel=0, data=[77, 100]),\n",
      "   midi.NoteOnEvent(tick=288, channel=0, data=[77, 0]),\n",
      "   midi.NoteOnEvent(tick=0, channel=0, data=[76, 100]),\n",
      "   midi.NoteOnEvent(tick=96, channel=0, data=[76, 0]),\n",
      "   midi.NoteOnEvent(tick=0, channel=0, data=[74, 100]),\n",
      "   midi.NoteOnEvent(tick=96, channel=0, data=[74, 0]),\n",
      "   midi.NoteOnEvent(tick=0, channel=0, data=[72, 100]),\n",
      "   midi.NoteOnEvent(tick=96, channel=0, data=[72, 0]),\n",
      "   midi.NoteOnEvent(tick=0, channel=0, data=[71, 100]),\n",
      "   midi.NoteOnEvent(tick=96, channel=0, data=[71, 0]),\n",
      "   midi.NoteOnEvent(tick=0, channel=0, data=[72, 100]),\n",
      "   midi.NoteOnEvent(tick=96, channel=0, data=[72, 0]),\n",
      "   midi.NoteOnEvent(tick=0, channel=0, data=[74, 100]),\n",
      "   midi.NoteOnEvent(tick=288, channel=0, data=[74, 0]),\n",
      "   midi.NoteOnEvent(tick=0, channel=0, data=[72, 100]),\n",
      "   midi.NoteOnEvent(tick=96, channel=0, data=[72, 0]),\n",
      "   midi.NoteOnEvent(tick=0, channel=0, data=[71, 100]),\n",
      "   midi.NoteOnEvent(tick=96, channel=0, data=[71, 0]),\n",
      "   midi.NoteOnEvent(tick=0, channel=0, data=[69, 100]),\n",
      "   midi.NoteOnEvent(tick=96, channel=0, data=[69, 0]),\n",
      "   midi.NoteOnEvent(tick=0, channel=0, data=[68, 100]),\n",
      "   midi.NoteOnEvent(tick=192, channel=0, data=[68, 0]),\n",
      "   midi.NoteOnEvent(tick=0, channel=0, data=[76, 100]),\n",
      "   midi.NoteOnEvent(tick=192, channel=0, data=[76, 0]),\n",
      "   midi.NoteOnEvent(tick=0, channel=0, data=[72, 100]),\n",
      "   midi.NoteOnEvent(tick=48, channel=0, data=[72, 0]),\n",
      "   midi.NoteOnEvent(tick=0, channel=0, data=[74, 100]),\n",
      "   midi.NoteOnEvent(tick=48, channel=0, data=[74, 0]),\n",
      "   midi.NoteOnEvent(tick=0, channel=0, data=[72, 100]),\n",
      "   midi.NoteOnEvent(tick=48, channel=0, data=[72, 0]),\n",
      "   midi.NoteOnEvent(tick=0, channel=0, data=[74, 100]),\n",
      "   midi.NoteOnEvent(tick=48, channel=0, data=[74, 0]),\n",
      "   midi.NoteOnEvent(tick=0, channel=0, data=[71, 100]),\n",
      "   midi.NoteOnEvent(tick=96, channel=0, data=[71, 0]),\n",
      "   midi.NoteOnEvent(tick=0, channel=0, data=[69, 100]),\n",
      "   midi.NoteOnEvent(tick=96, channel=0, data=[69, 0]),\n",
      "   midi.NoteOnEvent(tick=0, channel=0, data=[69, 100]),\n",
      "   midi.NoteOnEvent(tick=576, channel=0, data=[69, 0]),\n",
      "   midi.EndOfTrackEvent(tick=0, data=[])])])\n"
     ]
    }
   ],
   "source": [
    "# Extract the violin solo in channel 1 and save it\n",
    "\n",
    "# Instantiate a MIDI Pattern (contains a list of tracks)\n",
    "pattern = midi.Pattern()\n",
    "# Append the track to the pattern\n",
    "pattern.append(bwv[0]) # info on tempo\n",
    "pattern.append(bwv[1])\n",
    "print(pattern)\n",
    "# Save the pattern to disk\n",
    "midi.write_midifile(\"bwv1041a_solo.mid\", pattern)"
   ]
  },
  {
   "cell_type": "markdown",
   "metadata": {},
   "source": [
    "# MIDI TO UNIGRAM FUNCTION"
   ]
  },
  {
   "cell_type": "code",
   "execution_count": 8,
   "metadata": {},
   "outputs": [],
   "source": [
    "def midi_to_unigram(FILE_NAME, BASE_TICK, LOWEST_NOTE):\n",
    "    \"\"\"\n",
    "    Converts input MIDI file given the base tick and lowest note in the file into unigrams.\n",
    "    \n",
    "    Function from https://github.com/kstar/markov-music/blob/master/midi-to-unigrams.py\n",
    "    \"\"\"\n",
    "    # Initializations\n",
    "    current_state = 0;\n",
    "\n",
    "    # Open the MIDI file\n",
    "    pattern = midi.read_midifile( FILE_NAME );\n",
    "    \n",
    "    # Initialize list to store unigrams\n",
    "    current_states = []\n",
    "\n",
    "    # Read the file for note on and off events\n",
    "    for line in pattern:\n",
    "        for event in line:\n",
    "            if type(event) == midi.events.NoteOffEvent or type(event) == midi.events.NoteOnEvent:\n",
    "\n",
    "                # Write the state enough number of times\n",
    "                for x in range(0, int( round( float(event.tick) / float(BASE_TICK) ) ) ):\n",
    "                    current_states.append(current_state)\n",
    "                \n",
    "                if type(event) == midi.events.NoteOffEvent or event.get_velocity() <= 0:\n",
    "                    if event.get_pitch() == current_state + LOWEST_NOTE - 1:\n",
    "                        current_state = 0;\n",
    "                else:\n",
    "                    current_state = event.get_pitch() - LOWEST_NOTE + 1;\n",
    "    \n",
    "    return current_states"
   ]
  },
  {
   "cell_type": "markdown",
   "metadata": {},
   "source": [
    "# UNIGRAMS TO N-GRAMS FUNCTION"
   ]
  },
  {
   "cell_type": "code",
   "execution_count": 9,
   "metadata": {},
   "outputs": [],
   "source": [
    "def all_ngrams(vocabulary, n):\n",
    "    \"\"\"Returns a list of all `n`-long *tuples* of elements of the `vocabulary`.\n",
    "    \n",
    "    For instance,  \n",
    "        >>> all_ngrams([\"one\", \"two\"], 3)\n",
    "        [('one', 'one', 'one'),\n",
    "         ('one', 'one', 'two'),\n",
    "         ('one', 'two', 'one'),\n",
    "         ('one', 'two', 'two'),\n",
    "         ('two', 'one', 'one'),\n",
    "         ('two', 'one', 'two'),\n",
    "         ('two', 'two', 'one'),\n",
    "         ('two', 'two', 'two')]\n",
    "         \n",
    "    Order of returned list is not specified or guaranteed.\n",
    "    When `n`=0, return [()].\n",
    "    \"\"\"\n",
    "    return list(itertools.product(vocabulary, repeat=n))"
   ]
  },
  {
   "cell_type": "code",
   "execution_count": 10,
   "metadata": {},
   "outputs": [],
   "source": [
    "def ngrams(notes_list, n):\n",
    "    \"\"\"Returns a list of all `n`-grams in a list of `notes`.\"\"\"\n",
    "    return [tuple(notes_list[i : i + n])\n",
    "            for i in range(0, len(notes_list) - n + 1)]"
   ]
  },
  {
   "cell_type": "markdown",
   "metadata": {},
   "source": [
    "Counting $n$-grams\n",
    "We conceptualize an $n$-gram as having two parts:\n",
    "\n",
    "The context is the first $n1$ notes in the $n$-gram.\n",
    "The target is the final note in the $n$-gram.\n",
    "An $n$-gram model specifies a probability for each $n$-gram type. We'll implement a model as a 2-D dictionary, indexed first by context and then by target, providing the probability for the $n$-gram.\n",
    "\n",
    "We start by generating a similar data structure for counting up the $n$-grams in a note sequence."
   ]
  },
  {
   "cell_type": "code",
   "execution_count": 11,
   "metadata": {},
   "outputs": [],
   "source": [
    "def ngram_counts(vocabulary, notes_list, n):\n",
    "    \"\"\"Returns a dictionary of counts of the `n`-grams in `notes_list`.\n",
    "    \n",
    "    The dictionary is structured with first index by (n-1)-gram context\n",
    "    and second index by the final target note.\n",
    "    \"\"\"\n",
    "    context_dict = defaultdict(lambda: defaultdict(int))\n",
    "    # zero all ngrams\n",
    "    for context in all_ngrams(vocabulary, n - 1):\n",
    "        for target in vocabulary:\n",
    "            context_dict[context][target] = 0\n",
    "    # add counts for attested ngrams\n",
    "    for ngram, count in Counter(ngrams(notes_list, n)).items():\n",
    "        context_dict[ngram[:-1]][ngram[-1]] = count\n",
    "    return context_dict"
   ]
  },
  {
   "cell_type": "markdown",
   "metadata": {},
   "source": [
    "# N-GRAM PROBABILITY MODEL ((N-1) ORDER MARKOV CHAIN) FUNCTION"
   ]
  },
  {
   "cell_type": "code",
   "execution_count": 12,
   "metadata": {},
   "outputs": [],
   "source": [
    "def ngram_model(ngram_counts):\n",
    "    \"\"\"Returns an n-gram probability model calculated by normalizing the \n",
    "       provided `ngram-counts` dictionary\n",
    "    \"\"\"\n",
    "    ngram_probs = defaultdict(lambda: defaultdict(float))\n",
    "    for history in list(ngram_counts.keys()):\n",
    "        for next_note in list(ngram_counts[history].keys()):\n",
    "            try:\n",
    "                ngram_probs[history][next_note] = (ngram_counts[history][next_note])/(sum(ngram_counts[history].values()))\n",
    "            except:\n",
    "                ngram_probs[history][next_note] = 0.0\n",
    "    return ngram_probs"
   ]
  },
  {
   "cell_type": "markdown",
   "metadata": {},
   "source": [
    "# FUNCTION FOR SAMPLING NOTES FROM TRANSITION MATRIX"
   ]
  },
  {
   "cell_type": "code",
   "execution_count": 13,
   "metadata": {},
   "outputs": [],
   "source": [
    "def sample(model, context):\n",
    "    \"\"\"Returns a note sampled from the `model` assuming the `context`\"\"\"\n",
    "    distribution = model[context]\n",
    "    prob_remaining = random.random()\n",
    "    for note, prob in sorted(distribution.items()):\n",
    "        if prob_remaining < prob:\n",
    "            return note\n",
    "        else:\n",
    "            prob_remaining -= prob\n",
    "    raise ValueError"
   ]
  },
  {
   "cell_type": "markdown",
   "metadata": {},
   "source": [
    "# FUNCTION FOR SAMPLING A SEQUENCE OF NOTES"
   ]
  },
  {
   "cell_type": "code",
   "execution_count": 14,
   "metadata": {},
   "outputs": [],
   "source": [
    "def sample_sequence(model, start_context, count=100):\n",
    "    \"\"\"Returns a sequence of `count` notes sampled successively\n",
    "       from the `model` *following the `start_context`*.\n",
    "       The length of the returned list should be `count+len(start_context)`.\n",
    "    \"\"\"\n",
    "    sequence = list(start_context)\n",
    "    cur_context = start_context\n",
    "    n = len(start_context)\n",
    "    for _ in range(count):\n",
    "        cur_sample = sample(model, cur_context)\n",
    "        sequence.append(cur_sample)\n",
    "        cur_context = () if n == 0 else list(cur_context[1:]) + [cur_sample]\n",
    "        cur_context = tuple(cur_context)\n",
    "    return sequence"
   ]
  },
  {
   "cell_type": "markdown",
   "metadata": {},
   "source": [
    "# UNIGRAM TO MIDI FILE FUNCTION"
   ]
  },
  {
   "cell_type": "code",
   "execution_count": 15,
   "metadata": {},
   "outputs": [],
   "source": [
    "def unigram_to_midi(unigrams, bpm, lowest_note, instrument, base_tick):\n",
    "    \"\"\"\n",
    "    Takes in a list of unigrams as well as information regarding the beats per minute (BPM), the lowest note \n",
    "    in the original piece, the instrument, and the base tick.\n",
    "    \n",
    "    Function from https://github.com/kstar/markov-music/blob/master/unigrams-to-midi.py\n",
    "    \"\"\"\n",
    "    BPM = bpm;\n",
    "    LOWEST_NOTE = lowest_note; # Decide how much transpose\n",
    "    INSTRUMENT = instrument; # Choose the instrument rendering the music\n",
    "    BASE_TICK = base_tick;\n",
    "\n",
    "    prev_unigram = 0; # No sound to start with\n",
    "    tick_count = 0;\n",
    "\n",
    "    pattern = midi.Pattern();\n",
    "\n",
    "    track = midi.Track();\n",
    "    pattern.append( track );\n",
    "\n",
    "    set_instrument_event = midi.ProgramChangeEvent();\n",
    "    set_instrument_event.set_value( INSTRUMENT );\n",
    "    track.append( set_instrument_event );\n",
    "\n",
    "    set_tempo_event = midi.SetTempoEvent();\n",
    "    set_tempo_event.set_bpm( BPM );\n",
    "    track.append( set_tempo_event );\n",
    "\n",
    "    for unigram_string in unigrams:\n",
    "        tick_count = tick_count + 1;\n",
    "        unigram = int( unigram_string );\n",
    "        if unigram != prev_unigram:\n",
    "            note = unigram + ( LOWEST_NOTE - 1 );\n",
    "            previous_note = prev_unigram + ( LOWEST_NOTE - 1 );\n",
    "\n",
    "            if prev_unigram != 0: # First turn off any notes that are playing already\n",
    "                event = midi.NoteOffEvent( tick = tick_count * BASE_TICK, velocity = 0, pitch = previous_note );\n",
    "                track.append( event );\n",
    "                tick_count = 0;\n",
    "\n",
    "            if unigram != 0: # We have a new note, so play it\n",
    "                event = midi.NoteOnEvent( tick = tick_count * BASE_TICK, velocity = 120, pitch = note );\n",
    "                track.append( event );\n",
    "                tick_count = 0;\n",
    "\n",
    "        prev_unigram = unigram\n",
    "\n",
    "\n",
    "    eot = midi.EndOfTrackEvent( tick = 1 );\n",
    "    track.append( eot );\n",
    "    \n",
    "    rand_number = random.randint(50, 1000)\n",
    "    \n",
    "    # directory and file name new composed piece is saved under\n",
    "    new_piece_file_name = 'test_folder/composed_song_trial' + str(rand_number) + '.mid'\n",
    "    \n",
    "    print(\"New piece saved to \" + new_piece_file_name)\n",
    "    midi.write_midifile(new_piece_file_name, pattern );"
   ]
  },
  {
   "cell_type": "markdown",
   "metadata": {},
   "source": [
    "# COMPOSITION FUNCTION"
   ]
  },
  {
   "cell_type": "code",
   "execution_count": 16,
   "metadata": {},
   "outputs": [],
   "source": [
    "def compose(MIDI_FILE, n):\n",
    "    \"\"\"\n",
    "    Function takes in a midi file (as a string) along with a value n, specifying the length of the n-grams being used\n",
    "    as our states. It trains a (n-1)-order Markov model based on note transitions in the input midi file and samples\n",
    "    from this created Markov chain to compose a piece of the same length as the piece in the inputted midi file. It \n",
    "    prints out the name of the file the composed piece is saved as.\n",
    "    \"\"\"\n",
    "    # get necessary information, like lowest note, base tick, bpm\n",
    "    pattern = midi.read_midifile( MIDI_FILE );\n",
    "    notes_list = []\n",
    "    ticks_list = [] \n",
    "    bpm_list = []\n",
    "    for line in pattern:\n",
    "        for event in line:\n",
    "            # get instrument\n",
    "            if type(event) == midi.events.ProgramChangeEvent:\n",
    "                INSTRUMENT = event.get_value()\n",
    "            \n",
    "            # get BPM\n",
    "            if type(event) == midi.events.SetTempoEvent:\n",
    "                bpm_list.append(int(event.get_bpm()))\n",
    "\n",
    "            if type(event) == midi.events.NoteOffEvent or type(event) == midi.events.NoteOnEvent:\n",
    "                notes_list.append(event.get_pitch())\n",
    "                ticks_list.append(event.tick)\n",
    "\n",
    "    BPM = stats.mode(bpm_list)\n",
    "    \n",
    "    notes = list(set(notes_list))\n",
    "    notes.sort()\n",
    "    ticks = list(set(ticks_list))\n",
    "    ticks.sort()\n",
    "    \n",
    "    # get number corresponding to lowest note in the piece\n",
    "    LOWEST_NOTE = notes[0]\n",
    "    \n",
    "    # get lowest tick interval (interval all ticks can be evenly divided by)\n",
    "    BASE_TICK = ticks[1]\n",
    "    \n",
    "    # midi to unigram\n",
    "    current_states = midi_to_unigram(MIDI_FILE, BASE_TICK, LOWEST_NOTE)\n",
    "    PIECE_LENGTH = len(current_states)\n",
    "    \n",
    "    # get set of notes in the training piece\n",
    "    vocabulary = list(set(current_states))\n",
    "    \n",
    "    # count all n-grams in the training piece given the vocabulary and a value for n\n",
    "    gram_counts = ngram_counts(vocabulary, current_states, n)\n",
    "    \n",
    "    # create the n-gram model\n",
    "    model = ngram_model(gram_counts)\n",
    "    \n",
    "    # get first nonzero element (first played note) in list of states/notes\n",
    "    val = next((index for index,value in enumerate(current_states) if value != 0), None)\n",
    "    \n",
    "    # initial starting sequence for sampling function\n",
    "    initial_sequence = tuple(current_states[val:(val + n - 1)])\n",
    "    \n",
    "    # sample from model given starting sequence to produce a piece as long as the original piece\n",
    "    unigrams = sample_sequence(model, initial_sequence, PIECE_LENGTH)\n",
    "    \n",
    "    # convert unigrams back to a MIDI file and save to hard drive\n",
    "    unigram_to_midi(unigrams, BPM, LOWEST_NOTE, INSTRUMENT, BASE_TICK)\n",
    "    \n",
    "    return current_states, unigrams"
   ]
  },
  {
   "cell_type": "code",
   "execution_count": 17,
   "metadata": {},
   "outputs": [
    {
     "name": "stdout",
     "output_type": "stream",
     "text": [
      "New piece saved to test_folder/composed_song_trial430.mid\n"
     ]
    },
    {
     "data": {
      "text/plain": [
       "([0,\n",
       "  0,\n",
       "  0,\n",
       "  0,\n",
       "  0,\n",
       "  0,\n",
       "  0,\n",
       "  0,\n",
       "  0,\n",
       "  0,\n",
       "  0,\n",
       "  0,\n",
       "  21,\n",
       "  21,\n",
       "  21,\n",
       "  21,\n",
       "  26,\n",
       "  26,\n",
       "  26,\n",
       "  26,\n",
       "  26,\n",
       "  26,\n",
       "  26,\n",
       "  26,\n",
       "  0,\n",
       "  0,\n",
       "  0,\n",
       "  0,\n",
       "  21,\n",
       "  21,\n",
       "  21,\n",
       "  21,\n",
       "  22,\n",
       "  22,\n",
       "  22,\n",
       "  22,\n",
       "  22,\n",
       "  22,\n",
       "  22,\n",
       "  22,\n",
       "  0,\n",
       "  0,\n",
       "  0,\n",
       "  0,\n",
       "  19,\n",
       "  19,\n",
       "  19,\n",
       "  19,\n",
       "  21,\n",
       "  21,\n",
       "  19,\n",
       "  19,\n",
       "  17,\n",
       "  17,\n",
       "  21,\n",
       "  21,\n",
       "  19,\n",
       "  19,\n",
       "  17,\n",
       "  17,\n",
       "  16,\n",
       "  16,\n",
       "  19,\n",
       "  19,\n",
       "  17,\n",
       "  17,\n",
       "  17,\n",
       "  17,\n",
       "  14,\n",
       "  14,\n",
       "  14,\n",
       "  14,\n",
       "  0,\n",
       "  0,\n",
       "  14,\n",
       "  14,\n",
       "  13,\n",
       "  13,\n",
       "  14,\n",
       "  14,\n",
       "  16,\n",
       "  16,\n",
       "  14,\n",
       "  14,\n",
       "  13,\n",
       "  13,\n",
       "  14,\n",
       "  14,\n",
       "  17,\n",
       "  17,\n",
       "  14,\n",
       "  14,\n",
       "  13,\n",
       "  13,\n",
       "  14,\n",
       "  14,\n",
       "  19,\n",
       "  19,\n",
       "  14,\n",
       "  14,\n",
       "  13,\n",
       "  13,\n",
       "  14,\n",
       "  14,\n",
       "  21,\n",
       "  21,\n",
       "  14,\n",
       "  14,\n",
       "  13,\n",
       "  13,\n",
       "  14,\n",
       "  14,\n",
       "  22,\n",
       "  22,\n",
       "  24,\n",
       "  24,\n",
       "  22,\n",
       "  22,\n",
       "  21,\n",
       "  21,\n",
       "  19,\n",
       "  19,\n",
       "  17,\n",
       "  17,\n",
       "  16,\n",
       "  16,\n",
       "  14,\n",
       "  14,\n",
       "  13,\n",
       "  13,\n",
       "  13,\n",
       "  13,\n",
       "  9,\n",
       "  9,\n",
       "  9,\n",
       "  9,\n",
       "  28,\n",
       "  28,\n",
       "  28,\n",
       "  28,\n",
       "  28,\n",
       "  28,\n",
       "  28,\n",
       "  28,\n",
       "  28,\n",
       "  28,\n",
       "  28,\n",
       "  28,\n",
       "  26,\n",
       "  26,\n",
       "  25,\n",
       "  25,\n",
       "  26,\n",
       "  26,\n",
       "  26,\n",
       "  26,\n",
       "  29,\n",
       "  29,\n",
       "  29,\n",
       "  29,\n",
       "  29,\n",
       "  29,\n",
       "  29,\n",
       "  29,\n",
       "  23,\n",
       "  23,\n",
       "  23,\n",
       "  23,\n",
       "  26,\n",
       "  26,\n",
       "  26,\n",
       "  26,\n",
       "  26,\n",
       "  26,\n",
       "  26,\n",
       "  26,\n",
       "  26,\n",
       "  26,\n",
       "  26,\n",
       "  26,\n",
       "  24,\n",
       "  24,\n",
       "  23,\n",
       "  23,\n",
       "  24,\n",
       "  24,\n",
       "  24,\n",
       "  24,\n",
       "  28,\n",
       "  28,\n",
       "  28,\n",
       "  28,\n",
       "  28,\n",
       "  28,\n",
       "  26,\n",
       "  26,\n",
       "  24,\n",
       "  24,\n",
       "  23,\n",
       "  23,\n",
       "  21,\n",
       "  21,\n",
       "  21,\n",
       "  21,\n",
       "  21,\n",
       "  21,\n",
       "  21,\n",
       "  21,\n",
       "  21,\n",
       "  21,\n",
       "  21,\n",
       "  21,\n",
       "  23,\n",
       "  23,\n",
       "  24,\n",
       "  24,\n",
       "  26,\n",
       "  26,\n",
       "  26,\n",
       "  26,\n",
       "  17,\n",
       "  17,\n",
       "  17,\n",
       "  17,\n",
       "  16,\n",
       "  16,\n",
       "  16,\n",
       "  16,\n",
       "  26,\n",
       "  26,\n",
       "  26,\n",
       "  26,\n",
       "  24,\n",
       "  24,\n",
       "  24,\n",
       "  24,\n",
       "  16,\n",
       "  16,\n",
       "  16,\n",
       "  16,\n",
       "  14,\n",
       "  14,\n",
       "  16,\n",
       "  16,\n",
       "  17,\n",
       "  17,\n",
       "  16,\n",
       "  16,\n",
       "  14,\n",
       "  14,\n",
       "  12,\n",
       "  12,\n",
       "  11,\n",
       "  11,\n",
       "  9,\n",
       "  9,\n",
       "  8,\n",
       "  8,\n",
       "  8,\n",
       "  8,\n",
       "  17,\n",
       "  17,\n",
       "  17,\n",
       "  17,\n",
       "  16,\n",
       "  16,\n",
       "  16,\n",
       "  16,\n",
       "  21,\n",
       "  21,\n",
       "  21,\n",
       "  21,\n",
       "  24,\n",
       "  24,\n",
       "  24,\n",
       "  24,\n",
       "  24,\n",
       "  24,\n",
       "  24,\n",
       "  24,\n",
       "  23,\n",
       "  24,\n",
       "  23,\n",
       "  24,\n",
       "  23,\n",
       "  24,\n",
       "  23,\n",
       "  24,\n",
       "  23,\n",
       "  23,\n",
       "  24,\n",
       "  24,\n",
       "  26,\n",
       "  26,\n",
       "  23,\n",
       "  23,\n",
       "  20,\n",
       "  20,\n",
       "  21,\n",
       "  21,\n",
       "  23,\n",
       "  23,\n",
       "  20,\n",
       "  20,\n",
       "  28,\n",
       "  28,\n",
       "  28,\n",
       "  28,\n",
       "  21,\n",
       "  21,\n",
       "  21,\n",
       "  21,\n",
       "  23,\n",
       "  23,\n",
       "  23,\n",
       "  23,\n",
       "  20,\n",
       "  20,\n",
       "  20,\n",
       "  20,\n",
       "  21,\n",
       "  21,\n",
       "  19,\n",
       "  19,\n",
       "  17,\n",
       "  17,\n",
       "  16,\n",
       "  16,\n",
       "  14,\n",
       "  14,\n",
       "  14,\n",
       "  14,\n",
       "  14,\n",
       "  14,\n",
       "  14,\n",
       "  14,\n",
       "  14,\n",
       "  14,\n",
       "  16,\n",
       "  16,\n",
       "  17,\n",
       "  17,\n",
       "  17,\n",
       "  17,\n",
       "  17,\n",
       "  17,\n",
       "  16,\n",
       "  16,\n",
       "  14,\n",
       "  14,\n",
       "  12,\n",
       "  12,\n",
       "  11,\n",
       "  11,\n",
       "  12,\n",
       "  12,\n",
       "  14,\n",
       "  14,\n",
       "  14,\n",
       "  14,\n",
       "  14,\n",
       "  14,\n",
       "  12,\n",
       "  12,\n",
       "  11,\n",
       "  11,\n",
       "  9,\n",
       "  9,\n",
       "  8,\n",
       "  8,\n",
       "  8,\n",
       "  8,\n",
       "  16,\n",
       "  16,\n",
       "  16,\n",
       "  16,\n",
       "  12,\n",
       "  14,\n",
       "  12,\n",
       "  14,\n",
       "  11,\n",
       "  11,\n",
       "  9,\n",
       "  9,\n",
       "  9,\n",
       "  9,\n",
       "  9,\n",
       "  9,\n",
       "  9,\n",
       "  9,\n",
       "  9,\n",
       "  9,\n",
       "  0,\n",
       "  0,\n",
       "  21,\n",
       "  21,\n",
       "  20,\n",
       "  20,\n",
       "  21,\n",
       "  21,\n",
       "  26,\n",
       "  26,\n",
       "  25,\n",
       "  25,\n",
       "  26,\n",
       "  26,\n",
       "  26,\n",
       "  26,\n",
       "  26,\n",
       "  26,\n",
       "  21,\n",
       "  21,\n",
       "  20,\n",
       "  20,\n",
       "  21,\n",
       "  21,\n",
       "  29,\n",
       "  29,\n",
       "  29,\n",
       "  29,\n",
       "  28,\n",
       "  28,\n",
       "  28,\n",
       "  28,\n",
       "  28,\n",
       "  28,\n",
       "  21,\n",
       "  21,\n",
       "  19,\n",
       "  19,\n",
       "  21,\n",
       "  21,\n",
       "  28,\n",
       "  28,\n",
       "  26,\n",
       "  26,\n",
       "  28,\n",
       "  28,\n",
       "  28,\n",
       "  28,\n",
       "  28,\n",
       "  28,\n",
       "  21,\n",
       "  21,\n",
       "  19,\n",
       "  19,\n",
       "  21,\n",
       "  21,\n",
       "  31,\n",
       "  31,\n",
       "  31,\n",
       "  31,\n",
       "  29,\n",
       "  29,\n",
       "  29,\n",
       "  29,\n",
       "  29,\n",
       "  29,\n",
       "  21,\n",
       "  21,\n",
       "  19,\n",
       "  19,\n",
       "  21,\n",
       "  21,\n",
       "  29,\n",
       "  29,\n",
       "  28,\n",
       "  28,\n",
       "  26,\n",
       "  26,\n",
       "  24,\n",
       "  24,\n",
       "  22,\n",
       "  22,\n",
       "  19,\n",
       "  19,\n",
       "  17,\n",
       "  17,\n",
       "  19,\n",
       "  19,\n",
       "  28,\n",
       "  28,\n",
       "  26,\n",
       "  26,\n",
       "  24,\n",
       "  24,\n",
       "  22,\n",
       "  22,\n",
       "  21,\n",
       "  21,\n",
       "  17,\n",
       "  17,\n",
       "  16,\n",
       "  16,\n",
       "  17,\n",
       "  17,\n",
       "  26,\n",
       "  26,\n",
       "  24,\n",
       "  24,\n",
       "  22,\n",
       "  22,\n",
       "  21,\n",
       "  21,\n",
       "  19,\n",
       "  19,\n",
       "  16,\n",
       "  16,\n",
       "  14,\n",
       "  14,\n",
       "  16,\n",
       "  16,\n",
       "  25,\n",
       "  25,\n",
       "  26,\n",
       "  26,\n",
       "  25,\n",
       "  25,\n",
       "  23,\n",
       "  23,\n",
       "  21,\n",
       "  21,\n",
       "  19,\n",
       "  19,\n",
       "  17,\n",
       "  17,\n",
       "  16,\n",
       "  16,\n",
       "  17,\n",
       "  17,\n",
       "  19,\n",
       "  19,\n",
       "  17,\n",
       "  17,\n",
       "  16,\n",
       "  16,\n",
       "  14,\n",
       "  14,\n",
       "  26,\n",
       "  26,\n",
       "  21,\n",
       "  21,\n",
       "  24,\n",
       "  24,\n",
       "  22,\n",
       "  22,\n",
       "  24,\n",
       "  24,\n",
       "  22,\n",
       "  22,\n",
       "  21,\n",
       "  21,\n",
       "  19,\n",
       "  19,\n",
       "  17,\n",
       "  17,\n",
       "  16,\n",
       "  16,\n",
       "  14,\n",
       "  14,\n",
       "  16,\n",
       "  16,\n",
       "  17,\n",
       "  17,\n",
       "  16,\n",
       "  16,\n",
       "  14,\n",
       "  14,\n",
       "  12,\n",
       "  12,\n",
       "  24,\n",
       "  24,\n",
       "  19,\n",
       "  19,\n",
       "  22,\n",
       "  22,\n",
       "  21,\n",
       "  21,\n",
       "  22,\n",
       "  22,\n",
       "  21,\n",
       "  21,\n",
       "  19,\n",
       "  19,\n",
       "  17,\n",
       "  17,\n",
       "  16,\n",
       "  16,\n",
       "  14,\n",
       "  14,\n",
       "  12,\n",
       "  12,\n",
       "  14,\n",
       "  14,\n",
       "  15,\n",
       "  15,\n",
       "  14,\n",
       "  14,\n",
       "  12,\n",
       "  12,\n",
       "  10,\n",
       "  10,\n",
       "  22,\n",
       "  22,\n",
       "  17,\n",
       "  17,\n",
       "  21,\n",
       "  21,\n",
       "  19,\n",
       "  19,\n",
       "  21,\n",
       "  21,\n",
       "  19,\n",
       "  19,\n",
       "  17,\n",
       "  17,\n",
       "  16,\n",
       "  16,\n",
       "  14,\n",
       "  14,\n",
       "  13,\n",
       "  13,\n",
       "  11,\n",
       "  11,\n",
       "  13,\n",
       "  13,\n",
       "  14,\n",
       "  14,\n",
       "  13,\n",
       "  13,\n",
       "  11,\n",
       "  11,\n",
       "  9,\n",
       "  9,\n",
       "  21,\n",
       "  21,\n",
       "  16,\n",
       "  16,\n",
       "  19,\n",
       "  19,\n",
       "  17,\n",
       "  17,\n",
       "  19,\n",
       "  19,\n",
       "  17,\n",
       "  17,\n",
       "  16,\n",
       "  16,\n",
       "  14,\n",
       "  14,\n",
       "  26,\n",
       "  26,\n",
       "  21,\n",
       "  21,\n",
       "  24,\n",
       "  24,\n",
       "  22,\n",
       "  22,\n",
       "  24,\n",
       "  24,\n",
       "  22,\n",
       "  22,\n",
       "  21,\n",
       "  21,\n",
       "  19,\n",
       "  19,\n",
       "  22,\n",
       "  22,\n",
       "  16,\n",
       "  16,\n",
       "  19,\n",
       "  19,\n",
       "  21,\n",
       "  21,\n",
       "  19,\n",
       "  19,\n",
       "  17,\n",
       "  17,\n",
       "  21,\n",
       "  21,\n",
       "  19,\n",
       "  19,\n",
       "  17,\n",
       "  17,\n",
       "  16,\n",
       "  16,\n",
       "  19,\n",
       "  19,\n",
       "  17,\n",
       "  17,\n",
       "  17,\n",
       "  17,\n",
       "  14,\n",
       "  14,\n",
       "  14,\n",
       "  14,\n",
       "  0,\n",
       "  0,\n",
       "  9,\n",
       "  9,\n",
       "  14,\n",
       "  14,\n",
       "  17,\n",
       "  17,\n",
       "  22,\n",
       "  24,\n",
       "  26,\n",
       "  26,\n",
       "  26,\n",
       "  26,\n",
       "  22,\n",
       "  22,\n",
       "  20,\n",
       "  21,\n",
       "  23,\n",
       "  23,\n",
       "  23,\n",
       "  23,\n",
       "  20,\n",
       "  20,\n",
       "  21,\n",
       "  21,\n",
       "  16,\n",
       "  16,\n",
       "  12,\n",
       "  12,\n",
       "  9,\n",
       "  9,\n",
       "  8,\n",
       "  8,\n",
       "  9,\n",
       "  9,\n",
       "  12,\n",
       "  12,\n",
       "  16,\n",
       "  16,\n",
       "  21,\n",
       "  22,\n",
       "  24,\n",
       "  24,\n",
       "  24,\n",
       "  24,\n",
       "  21,\n",
       "  21,\n",
       "  18,\n",
       "  19,\n",
       "  21,\n",
       "  21,\n",
       "  21,\n",
       "  21,\n",
       "  18,\n",
       "  18,\n",
       "  19,\n",
       "  19,\n",
       "  14,\n",
       "  14,\n",
       "  10,\n",
       "  10,\n",
       "  7,\n",
       "  7,\n",
       "  6,\n",
       "  6,\n",
       "  7,\n",
       "  7,\n",
       "  10,\n",
       "  10,\n",
       "  14,\n",
       "  14,\n",
       "  19,\n",
       "  21,\n",
       "  22,\n",
       "  22,\n",
       "  22,\n",
       "  22,\n",
       "  19,\n",
       "  19,\n",
       "  16,\n",
       "  17,\n",
       "  19,\n",
       "  19,\n",
       "  19,\n",
       "  19,\n",
       "  16,\n",
       "  16,\n",
       "  17,\n",
       "  17,\n",
       "  12,\n",
       "  12,\n",
       "  14,\n",
       "  14,\n",
       "  16,\n",
       "  16,\n",
       "  17,\n",
       "  17,\n",
       "  12,\n",
       "  12,\n",
       "  19,\n",
       "  19,\n",
       "  12,\n",
       "  12,\n",
       "  21,\n",
       "  21,\n",
       "  16,\n",
       "  16,\n",
       "  17,\n",
       "  17,\n",
       "  19,\n",
       "  19,\n",
       "  21,\n",
       "  21,\n",
       "  17,\n",
       "  17,\n",
       "  23,\n",
       "  23,\n",
       "  17,\n",
       "  17,\n",
       "  24,\n",
       "  24,\n",
       "  12,\n",
       "  12,\n",
       "  16,\n",
       "  16,\n",
       "  19,\n",
       "  19,\n",
       "  24,\n",
       "  24,\n",
       "  24,\n",
       "  24,\n",
       "  24,\n",
       "  24,\n",
       "  24,\n",
       "  24,\n",
       "  24,\n",
       "  24,\n",
       "  17,\n",
       "  17,\n",
       "  21,\n",
       "  21,\n",
       "  24,\n",
       "  24,\n",
       "  29,\n",
       "  29,\n",
       "  29,\n",
       "  29,\n",
       "  29,\n",
       "  29,\n",
       "  29,\n",
       "  29,\n",
       "  29,\n",
       "  29,\n",
       "  17,\n",
       "  17,\n",
       "  21,\n",
       "  21,\n",
       "  24,\n",
       "  24,\n",
       "  29,\n",
       "  29,\n",
       "  29,\n",
       "  29,\n",
       "  29,\n",
       "  29,\n",
       "  29,\n",
       "  29,\n",
       "  29,\n",
       "  29,\n",
       "  29,\n",
       "  29,\n",
       "  17,\n",
       "  17,\n",
       "  17,\n",
       "  17,\n",
       "  19,\n",
       "  19,\n",
       "  19,\n",
       "  19,\n",
       "  28,\n",
       "  28,\n",
       "  28,\n",
       "  28,\n",
       "  29,\n",
       "  29,\n",
       "  24,\n",
       "  24,\n",
       "  21,\n",
       "  21,\n",
       "  17,\n",
       "  17,\n",
       "  5,\n",
       "  5,\n",
       "  17,\n",
       "  17,\n",
       "  16,\n",
       "  16,\n",
       "  17,\n",
       "  17,\n",
       "  19,\n",
       "  19,\n",
       "  17,\n",
       "  17,\n",
       "  16,\n",
       "  16,\n",
       "  17,\n",
       "  17,\n",
       "  21,\n",
       "  21,\n",
       "  17,\n",
       "  17,\n",
       "  16,\n",
       "  16,\n",
       "  17,\n",
       "  17,\n",
       "  22,\n",
       "  22,\n",
       "  17,\n",
       "  17,\n",
       "  16,\n",
       "  16,\n",
       "  17,\n",
       "  17,\n",
       "  24,\n",
       "  24,\n",
       "  17,\n",
       "  17,\n",
       "  16,\n",
       "  16,\n",
       "  17,\n",
       "  17,\n",
       "  26,\n",
       "  26,\n",
       "  27,\n",
       "  27,\n",
       "  26,\n",
       "  26,\n",
       "  24,\n",
       "  24,\n",
       "  22,\n",
       "  22,\n",
       "  21,\n",
       "  21,\n",
       "  19,\n",
       "  19,\n",
       "  17,\n",
       "  17,\n",
       "  16,\n",
       "  16,\n",
       "  16,\n",
       "  16,\n",
       "  12,\n",
       "  12,\n",
       "  12,\n",
       "  12,\n",
       "  28,\n",
       "  28,\n",
       "  28,\n",
       "  28,\n",
       "  28,\n",
       "  28,\n",
       "  28,\n",
       "  28,\n",
       "  28,\n",
       "  28,\n",
       "  28,\n",
       "  28,\n",
       "  26,\n",
       "  26,\n",
       "  25,\n",
       "  25,\n",
       "  26,\n",
       "  26,\n",
       "  26,\n",
       "  26,\n",
       "  29,\n",
       "  29,\n",
       "  29,\n",
       "  29,\n",
       "  29,\n",
       "  29,\n",
       "  29,\n",
       "  29,\n",
       "  23,\n",
       "  23,\n",
       "  24,\n",
       "  24,\n",
       "  26,\n",
       "  26,\n",
       "  23,\n",
       "  23,\n",
       "  24,\n",
       "  24,\n",
       "  21,\n",
       "  21,\n",
       "  23,\n",
       "  23,\n",
       "  19,\n",
       "  19,\n",
       "  18,\n",
       "  18,\n",
       "  19,\n",
       "  19,\n",
       "  ...],\n",
       " [21,\n",
       "  21,\n",
       "  21,\n",
       "  21,\n",
       "  18,\n",
       "  18,\n",
       "  19,\n",
       "  19,\n",
       "  19,\n",
       "  19,\n",
       "  28,\n",
       "  28,\n",
       "  28,\n",
       "  28,\n",
       "  21,\n",
       "  21,\n",
       "  21,\n",
       "  21,\n",
       "  14,\n",
       "  14,\n",
       "  16,\n",
       "  16,\n",
       "  23,\n",
       "  23,\n",
       "  21,\n",
       "  21,\n",
       "  21,\n",
       "  21,\n",
       "  21,\n",
       "  21,\n",
       "  21,\n",
       "  23,\n",
       "  23,\n",
       "  20,\n",
       "  20,\n",
       "  20,\n",
       "  20,\n",
       "  21,\n",
       "  21,\n",
       "  26,\n",
       "  26,\n",
       "  25,\n",
       "  25,\n",
       "  26,\n",
       "  26,\n",
       "  26,\n",
       "  26,\n",
       "  26,\n",
       "  24,\n",
       "  24,\n",
       "  24,\n",
       "  24,\n",
       "  24,\n",
       "  24,\n",
       "  24,\n",
       "  24,\n",
       "  24,\n",
       "  24,\n",
       "  24,\n",
       "  24,\n",
       "  24,\n",
       "  24,\n",
       "  24,\n",
       "  16,\n",
       "  16,\n",
       "  16,\n",
       "  16,\n",
       "  14,\n",
       "  14,\n",
       "  16,\n",
       "  16,\n",
       "  17,\n",
       "  17,\n",
       "  25,\n",
       "  27,\n",
       "  29,\n",
       "  29,\n",
       "  29,\n",
       "  29,\n",
       "  29,\n",
       "  29,\n",
       "  29,\n",
       "  29,\n",
       "  17,\n",
       "  17,\n",
       "  17,\n",
       "  17,\n",
       "  16,\n",
       "  16,\n",
       "  14,\n",
       "  14,\n",
       "  13,\n",
       "  13,\n",
       "  11,\n",
       "  11,\n",
       "  9,\n",
       "  9,\n",
       "  21,\n",
       "  21,\n",
       "  16,\n",
       "  16,\n",
       "  12,\n",
       "  12,\n",
       "  11,\n",
       "  11,\n",
       "  12,\n",
       "  12,\n",
       "  14,\n",
       "  14,\n",
       "  15,\n",
       "  15,\n",
       "  26,\n",
       "  26,\n",
       "  24,\n",
       "  24,\n",
       "  23,\n",
       "  23,\n",
       "  24,\n",
       "  24,\n",
       "  26,\n",
       "  26,\n",
       "  23,\n",
       "  23,\n",
       "  31,\n",
       "  31,\n",
       "  31,\n",
       "  31,\n",
       "  29,\n",
       "  29,\n",
       "  28,\n",
       "  28,\n",
       "  28,\n",
       "  28,\n",
       "  28,\n",
       "  28,\n",
       "  28,\n",
       "  28,\n",
       "  26,\n",
       "  26,\n",
       "  25,\n",
       "  25,\n",
       "  19,\n",
       "  19,\n",
       "  26,\n",
       "  26,\n",
       "  19,\n",
       "  19,\n",
       "  18,\n",
       "  18,\n",
       "  19,\n",
       "  19,\n",
       "  23,\n",
       "  23,\n",
       "  19,\n",
       "  19,\n",
       "  26,\n",
       "  26,\n",
       "  19,\n",
       "  19,\n",
       "  28,\n",
       "  28,\n",
       "  19,\n",
       "  19,\n",
       "  21,\n",
       "  21,\n",
       "  23,\n",
       "  23,\n",
       "  24,\n",
       "  24,\n",
       "  19,\n",
       "  19,\n",
       "  15,\n",
       "  15,\n",
       "  12,\n",
       "  12,\n",
       "  11,\n",
       "  11,\n",
       "  9,\n",
       "  9,\n",
       "  8,\n",
       "  8,\n",
       "  9,\n",
       "  9,\n",
       "  11,\n",
       "  11,\n",
       "  12,\n",
       "  12,\n",
       "  19,\n",
       "  19,\n",
       "  16,\n",
       "  16,\n",
       "  14,\n",
       "  14,\n",
       "  13,\n",
       "  13,\n",
       "  14,\n",
       "  14,\n",
       "  19,\n",
       "  19,\n",
       "  14,\n",
       "  14,\n",
       "  19,\n",
       "  19,\n",
       "  14,\n",
       "  14,\n",
       "  19,\n",
       "  19,\n",
       "  22,\n",
       "  22,\n",
       "  21,\n",
       "  21,\n",
       "  19,\n",
       "  19,\n",
       "  22,\n",
       "  22,\n",
       "  26,\n",
       "  26,\n",
       "  16,\n",
       "  16,\n",
       "  16,\n",
       "  16,\n",
       "  12,\n",
       "  14,\n",
       "  12,\n",
       "  14,\n",
       "  11,\n",
       "  11,\n",
       "  9,\n",
       "  9,\n",
       "  8,\n",
       "  8,\n",
       "  9,\n",
       "  9,\n",
       "  12,\n",
       "  12,\n",
       "  16,\n",
       "  16,\n",
       "  12,\n",
       "  12,\n",
       "  11,\n",
       "  11,\n",
       "  12,\n",
       "  12,\n",
       "  14,\n",
       "  14,\n",
       "  16,\n",
       "  16,\n",
       "  21,\n",
       "  21,\n",
       "  21,\n",
       "  21,\n",
       "  21,\n",
       "  22,\n",
       "  22,\n",
       "  21,\n",
       "  21,\n",
       "  29,\n",
       "  29,\n",
       "  28,\n",
       "  28,\n",
       "  31,\n",
       "  31,\n",
       "  26,\n",
       "  26,\n",
       "  31,\n",
       "  31,\n",
       "  25,\n",
       "  25,\n",
       "  26,\n",
       "  26,\n",
       "  24,\n",
       "  24,\n",
       "  23,\n",
       "  23,\n",
       "  26,\n",
       "  26,\n",
       "  21,\n",
       "  21,\n",
       "  20,\n",
       "  20,\n",
       "  21,\n",
       "  21,\n",
       "  19,\n",
       "  19,\n",
       "  17,\n",
       "  17,\n",
       "  21,\n",
       "  21,\n",
       "  17,\n",
       "  17,\n",
       "  16,\n",
       "  16,\n",
       "  17,\n",
       "  17,\n",
       "  16,\n",
       "  16,\n",
       "  17,\n",
       "  17,\n",
       "  19,\n",
       "  19,\n",
       "  16,\n",
       "  16,\n",
       "  17,\n",
       "  17,\n",
       "  16,\n",
       "  16,\n",
       "  19,\n",
       "  19,\n",
       "  17,\n",
       "  17,\n",
       "  15,\n",
       "  15,\n",
       "  14,\n",
       "  14,\n",
       "  12,\n",
       "  12,\n",
       "  11,\n",
       "  11,\n",
       "  9,\n",
       "  9,\n",
       "  8,\n",
       "  8,\n",
       "  8,\n",
       "  8,\n",
       "  16,\n",
       "  16,\n",
       "  16,\n",
       "  16,\n",
       "  26,\n",
       "  26,\n",
       "  26,\n",
       "  26,\n",
       "  26,\n",
       "  23,\n",
       "  23,\n",
       "  20,\n",
       "  20,\n",
       "  21,\n",
       "  21,\n",
       "  25,\n",
       "  25,\n",
       "  21,\n",
       "  21,\n",
       "  20,\n",
       "  20,\n",
       "  21,\n",
       "  21,\n",
       "  19,\n",
       "  19,\n",
       "  28,\n",
       "  28,\n",
       "  26,\n",
       "  26,\n",
       "  24,\n",
       "  24,\n",
       "  24,\n",
       "  24,\n",
       "  12,\n",
       "  12,\n",
       "  12,\n",
       "  12,\n",
       "  28,\n",
       "  28,\n",
       "  28,\n",
       "  28,\n",
       "  21,\n",
       "  21,\n",
       "  19,\n",
       "  19,\n",
       "  17,\n",
       "  17,\n",
       "  19,\n",
       "  19,\n",
       "  17,\n",
       "  17,\n",
       "  19,\n",
       "  19,\n",
       "  19,\n",
       "  19,\n",
       "  17,\n",
       "  17,\n",
       "  16,\n",
       "  16,\n",
       "  17,\n",
       "  17,\n",
       "  12,\n",
       "  12,\n",
       "  17,\n",
       "  17,\n",
       "  12,\n",
       "  12,\n",
       "  14,\n",
       "  14,\n",
       "  16,\n",
       "  16,\n",
       "  23,\n",
       "  23,\n",
       "  21,\n",
       "  21,\n",
       "  20,\n",
       "  20,\n",
       "  23,\n",
       "  23,\n",
       "  17,\n",
       "  17,\n",
       "  24,\n",
       "  24,\n",
       "  12,\n",
       "  12,\n",
       "  12,\n",
       "  12,\n",
       "  28,\n",
       "  28,\n",
       "  28,\n",
       "  28,\n",
       "  28,\n",
       "  28,\n",
       "  21,\n",
       "  21,\n",
       "  19,\n",
       "  19,\n",
       "  18,\n",
       "  18,\n",
       "  19,\n",
       "  19,\n",
       "  21,\n",
       "  21,\n",
       "  24,\n",
       "  24,\n",
       "  22,\n",
       "  22,\n",
       "  21,\n",
       "  21,\n",
       "  22,\n",
       "  22,\n",
       "  22,\n",
       "  22,\n",
       "  22,\n",
       "  22,\n",
       "  22,\n",
       "  10,\n",
       "  10,\n",
       "  10,\n",
       "  10,\n",
       "  9,\n",
       "  9,\n",
       "  10,\n",
       "  10,\n",
       "  14,\n",
       "  14,\n",
       "  19,\n",
       "  19,\n",
       "  14,\n",
       "  14,\n",
       "  19,\n",
       "  19,\n",
       "  14,\n",
       "  14,\n",
       "  19,\n",
       "  19,\n",
       "  14,\n",
       "  14,\n",
       "  13,\n",
       "  13,\n",
       "  14,\n",
       "  14,\n",
       "  22,\n",
       "  22,\n",
       "  24,\n",
       "  24,\n",
       "  26,\n",
       "  26,\n",
       "  26,\n",
       "  26,\n",
       "  26,\n",
       "  26,\n",
       "  26,\n",
       "  26,\n",
       "  26,\n",
       "  24,\n",
       "  24,\n",
       "  22,\n",
       "  22,\n",
       "  19,\n",
       "  19,\n",
       "  17,\n",
       "  17,\n",
       "  16,\n",
       "  16,\n",
       "  14,\n",
       "  14,\n",
       "  12,\n",
       "  12,\n",
       "  11,\n",
       "  11,\n",
       "  12,\n",
       "  12,\n",
       "  14,\n",
       "  14,\n",
       "  14,\n",
       "  14,\n",
       "  14,\n",
       "  14,\n",
       "  14,\n",
       "  14,\n",
       "  14,\n",
       "  14,\n",
       "  14,\n",
       "  14,\n",
       "  16,\n",
       "  16,\n",
       "  25,\n",
       "  25,\n",
       "  25,\n",
       "  25,\n",
       "  26,\n",
       "  26,\n",
       "  26,\n",
       "  26,\n",
       "  26,\n",
       "  26,\n",
       "  24,\n",
       "  24,\n",
       "  22,\n",
       "  22,\n",
       "  21,\n",
       "  21,\n",
       "  22,\n",
       "  22,\n",
       "  24,\n",
       "  24,\n",
       "  22,\n",
       "  22,\n",
       "  21,\n",
       "  21,\n",
       "  19,\n",
       "  19,\n",
       "  18,\n",
       "  18,\n",
       "  16,\n",
       "  16,\n",
       "  14,\n",
       "  14,\n",
       "  16,\n",
       "  16,\n",
       "  17,\n",
       "  17,\n",
       "  24,\n",
       "  24,\n",
       "  17,\n",
       "  17,\n",
       "  16,\n",
       "  16,\n",
       "  16,\n",
       "  16,\n",
       "  21,\n",
       "  21,\n",
       "  21,\n",
       "  21,\n",
       "  21,\n",
       "  21,\n",
       "  21,\n",
       "  23,\n",
       "  23,\n",
       "  21,\n",
       "  21,\n",
       "  19,\n",
       "  19,\n",
       "  17,\n",
       "  17,\n",
       "  16,\n",
       "  16,\n",
       "  14,\n",
       "  14,\n",
       "  16,\n",
       "  16,\n",
       "  26,\n",
       "  26,\n",
       "  26,\n",
       "  26,\n",
       "  26,\n",
       "  26,\n",
       "  26,\n",
       "  26,\n",
       "  26,\n",
       "  26,\n",
       "  26,\n",
       "  24,\n",
       "  24,\n",
       "  22,\n",
       "  22,\n",
       "  21,\n",
       "  21,\n",
       "  24,\n",
       "  24,\n",
       "  22,\n",
       "  22,\n",
       "  21,\n",
       "  21,\n",
       "  19,\n",
       "  19,\n",
       "  17,\n",
       "  17,\n",
       "  16,\n",
       "  16,\n",
       "  19,\n",
       "  19,\n",
       "  14,\n",
       "  14,\n",
       "  10,\n",
       "  10,\n",
       "  17,\n",
       "  17,\n",
       "  10,\n",
       "  10,\n",
       "  22,\n",
       "  22,\n",
       "  17,\n",
       "  17,\n",
       "  22,\n",
       "  22,\n",
       "  16,\n",
       "  16,\n",
       "  17,\n",
       "  17,\n",
       "  21,\n",
       "  21,\n",
       "  17,\n",
       "  17,\n",
       "  16,\n",
       "  16,\n",
       "  14,\n",
       "  14,\n",
       "  12,\n",
       "  12,\n",
       "  10,\n",
       "  10,\n",
       "  9,\n",
       "  9,\n",
       "  10,\n",
       "  10,\n",
       "  14,\n",
       "  14,\n",
       "  19,\n",
       "  21,\n",
       "  22,\n",
       "  22,\n",
       "  22,\n",
       "  22,\n",
       "  22,\n",
       "  19,\n",
       "  19,\n",
       "  16,\n",
       "  17,\n",
       "  19,\n",
       "  19,\n",
       "  19,\n",
       "  19,\n",
       "  19,\n",
       "  19,\n",
       "  19,\n",
       "  19,\n",
       "  19,\n",
       "  19,\n",
       "  19,\n",
       "  17,\n",
       "  17,\n",
       "  17,\n",
       "  17,\n",
       "  16,\n",
       "  16,\n",
       "  17,\n",
       "  17,\n",
       "  21,\n",
       "  21,\n",
       "  19,\n",
       "  19,\n",
       "  17,\n",
       "  17,\n",
       "  26,\n",
       "  26,\n",
       "  26,\n",
       "  26,\n",
       "  26,\n",
       "  26,\n",
       "  26,\n",
       "  26,\n",
       "  26,\n",
       "  26,\n",
       "  17,\n",
       "  17,\n",
       "  17,\n",
       "  17,\n",
       "  16,\n",
       "  16,\n",
       "  16,\n",
       "  16,\n",
       "  12,\n",
       "  14,\n",
       "  12,\n",
       "  14,\n",
       "  11,\n",
       "  11,\n",
       "  9,\n",
       "  9,\n",
       "  8,\n",
       "  8,\n",
       "  9,\n",
       "  9,\n",
       "  11,\n",
       "  11,\n",
       "  12,\n",
       "  12,\n",
       "  19,\n",
       "  19,\n",
       "  12,\n",
       "  12,\n",
       "  11,\n",
       "  11,\n",
       "  9,\n",
       "  9,\n",
       "  8,\n",
       "  8,\n",
       "  9,\n",
       "  9,\n",
       "  11,\n",
       "  11,\n",
       "  13,\n",
       "  13,\n",
       "  14,\n",
       "  14,\n",
       "  9,\n",
       "  9,\n",
       "  9,\n",
       "  9,\n",
       "  9,\n",
       "  9,\n",
       "  0,\n",
       "  0,\n",
       "  21,\n",
       "  21,\n",
       "  21,\n",
       "  21,\n",
       "  18,\n",
       "  18,\n",
       "  19,\n",
       "  19,\n",
       "  22,\n",
       "  22,\n",
       "  16,\n",
       "  16,\n",
       "  19,\n",
       "  19,\n",
       "  21,\n",
       "  21,\n",
       "  17,\n",
       "  17,\n",
       "  16,\n",
       "  16,\n",
       "  14,\n",
       "  14,\n",
       "  12,\n",
       "  12,\n",
       "  11,\n",
       "  11,\n",
       "  12,\n",
       "  12,\n",
       "  20,\n",
       "  20,\n",
       "  17,\n",
       "  17,\n",
       "  16,\n",
       "  16,\n",
       "  14,\n",
       "  14,\n",
       "  16,\n",
       "  16,\n",
       "  21,\n",
       "  21,\n",
       "  21,\n",
       "  21,\n",
       "  23,\n",
       "  23,\n",
       "  21,\n",
       "  21,\n",
       "  21,\n",
       "  21,\n",
       "  18,\n",
       "  18,\n",
       "  19,\n",
       "  19,\n",
       "  26,\n",
       "  26,\n",
       "  23,\n",
       "  23,\n",
       "  24,\n",
       "  24,\n",
       "  26,\n",
       "  26,\n",
       "  26,\n",
       "  26,\n",
       "  26,\n",
       "  26,\n",
       "  26,\n",
       "  26,\n",
       "  26,\n",
       "  26,\n",
       "  26,\n",
       "  0,\n",
       "  0,\n",
       "  2,\n",
       "  2,\n",
       "  1,\n",
       "  1,\n",
       "  2,\n",
       "  2,\n",
       "  7,\n",
       "  7,\n",
       "  2,\n",
       "  2,\n",
       "  1,\n",
       "  1,\n",
       "  2,\n",
       "  2,\n",
       "  7,\n",
       "  7,\n",
       "  2,\n",
       "  2,\n",
       "  1,\n",
       "  1,\n",
       "  2,\n",
       "  2,\n",
       "  5,\n",
       "  5,\n",
       "  2,\n",
       "  2,\n",
       "  1,\n",
       "  1,\n",
       "  2,\n",
       "  2,\n",
       "  6,\n",
       "  6,\n",
       "  2,\n",
       "  2,\n",
       "  1,\n",
       "  1,\n",
       "  2,\n",
       "  2,\n",
       "  6,\n",
       "  6,\n",
       "  2,\n",
       "  2,\n",
       "  1,\n",
       "  1,\n",
       "  2,\n",
       "  2,\n",
       "  10,\n",
       "  10,\n",
       "  7,\n",
       "  7,\n",
       "  6,\n",
       "  6,\n",
       "  7,\n",
       "  7,\n",
       "  12,\n",
       "  12,\n",
       "  7,\n",
       "  7,\n",
       "  6,\n",
       "  6,\n",
       "  7,\n",
       "  7,\n",
       "  10,\n",
       "  10,\n",
       "  14,\n",
       "  14,\n",
       "  19,\n",
       "  19,\n",
       "  14,\n",
       "  14,\n",
       "  13,\n",
       "  13,\n",
       "  13,\n",
       "  13,\n",
       "  9,\n",
       "  9,\n",
       "  9,\n",
       "  9,\n",
       "  9,\n",
       "  9,\n",
       "  9,\n",
       "  9,\n",
       "  9,\n",
       "  9,\n",
       "  0,\n",
       "  0,\n",
       "  21,\n",
       "  21,\n",
       "  21,\n",
       "  21,\n",
       "  21,\n",
       "  26,\n",
       "  26,\n",
       "  25,\n",
       "  25,\n",
       "  26,\n",
       "  26,\n",
       "  24,\n",
       "  24,\n",
       "  22,\n",
       "  22,\n",
       "  21,\n",
       "  21,\n",
       "  22,\n",
       "  22,\n",
       "  31,\n",
       "  31,\n",
       "  22,\n",
       "  22,\n",
       "  21,\n",
       "  21,\n",
       "  22,\n",
       "  22,\n",
       "  22,\n",
       "  22,\n",
       "  22,\n",
       "  22,\n",
       "  22,\n",
       "  22,\n",
       "  10,\n",
       "  10,\n",
       "  10,\n",
       "  10,\n",
       "  17,\n",
       "  17,\n",
       "  17,\n",
       "  17,\n",
       "  17,\n",
       "  16,\n",
       "  16,\n",
       "  14,\n",
       "  14,\n",
       "  16,\n",
       "  16,\n",
       "  17,\n",
       "  17,\n",
       "  21,\n",
       "  21,\n",
       "  26,\n",
       "  26,\n",
       "  25,\n",
       "  25,\n",
       "  26,\n",
       "  26,\n",
       "  26,\n",
       "  26,\n",
       "  26,\n",
       "  26,\n",
       "  26,\n",
       "  26,\n",
       "  26,\n",
       "  24,\n",
       "  24,\n",
       "  22,\n",
       "  22,\n",
       "  26,\n",
       "  26,\n",
       "  26,\n",
       "  26,\n",
       "  26,\n",
       "  24,\n",
       "  24,\n",
       "  22,\n",
       "  22,\n",
       "  21,\n",
       "  21,\n",
       "  19,\n",
       "  19,\n",
       "  17,\n",
       "  17,\n",
       "  16,\n",
       "  16,\n",
       "  17,\n",
       "  17,\n",
       "  24,\n",
       "  24,\n",
       "  12,\n",
       "  12,\n",
       "  12,\n",
       "  12,\n",
       "  19,\n",
       "  19,\n",
       "  12,\n",
       "  12,\n",
       "  11,\n",
       "  11,\n",
       "  12,\n",
       "  12,\n",
       "  14,\n",
       "  14,\n",
       "  ...])"
      ]
     },
     "execution_count": 17,
     "metadata": {},
     "output_type": "execute_result"
    }
   ],
   "source": [
    "compose(\"bwv1041a_solo.mid\", 5)"
   ]
  }
 ],
 "metadata": {
  "kernelspec": {
   "display_name": "Python 3",
   "language": "python",
   "name": "python3"
  },
  "language_info": {
   "codemirror_mode": {
    "name": "ipython",
    "version": 3
   },
   "file_extension": ".py",
   "mimetype": "text/x-python",
   "name": "python",
   "nbconvert_exporter": "python",
   "pygments_lexer": "ipython3",
   "version": "3.8.3"
  }
 },
 "nbformat": 4,
 "nbformat_minor": 5
}
