{
 "cells": [
  {
   "cell_type": "markdown",
   "metadata": {},
   "source": [
    "Source for Midi Conversion functions: https://github.com/kstar/markov-music"
   ]
  },
  {
   "cell_type": "code",
   "execution_count": 1,
   "metadata": {
    "scrolled": false
   },
   "outputs": [
    {
     "name": "stdout",
     "output_type": "stream",
     "text": [
      "Collecting git+https://github.com/vishnubob/python-midi@feature/python3\n",
      "  Cloning https://github.com/vishnubob/python-midi (to revision feature/python3) to /private/var/folders/60/9hjj_5fj7_q5kgnc6ppg7_wc0000gn/T/pip-req-build-1bjpl6ty\n",
      "  Running command git clone -q https://github.com/vishnubob/python-midi /private/var/folders/60/9hjj_5fj7_q5kgnc6ppg7_wc0000gn/T/pip-req-build-1bjpl6ty\n",
      "  Running command git checkout -b feature/python3 --track origin/feature/python3\n",
      "  Switched to a new branch 'feature/python3'\n",
      "  Branch 'feature/python3' set up to track remote branch 'feature/python3' from 'origin'.\n",
      "Requirement already satisfied (use --upgrade to upgrade): midi==0.2.3 from git+https://github.com/vishnubob/python-midi@feature/python3 in /Users/lanzhang/opt/anaconda3/lib/python3.8/site-packages\n",
      "Building wheels for collected packages: midi\n",
      "  Building wheel for midi (setup.py) ... \u001b[?25ldone\n",
      "\u001b[?25h  Created wheel for midi: filename=midi-0.2.3-py3-none-any.whl size=9666 sha256=7fa04756b2b4ab8ab8e22c63030ea52792c99f5c8c838cd074573cc576570409\n",
      "  Stored in directory: /private/var/folders/60/9hjj_5fj7_q5kgnc6ppg7_wc0000gn/T/pip-ephem-wheel-cache-ro15dgl9/wheels/1a/c5/f7/414f20cd34d786c2af030164220e2dae9a9760d90d4e58a5a4\n",
      "Successfully built midi\n",
      "fatal: destination path 'python-midi' already exists and is not an empty directory.\n",
      "Collecting git+https://github.com/louisabraham/python3-midi\n",
      "  Cloning https://github.com/louisabraham/python3-midi to /private/var/folders/60/9hjj_5fj7_q5kgnc6ppg7_wc0000gn/T/pip-req-build-ajdzy73j\n",
      "  Running command git clone -q https://github.com/louisabraham/python3-midi /private/var/folders/60/9hjj_5fj7_q5kgnc6ppg7_wc0000gn/T/pip-req-build-ajdzy73j\n",
      "Building wheels for collected packages: midi\n",
      "  Building wheel for midi (setup.py) ... \u001b[?25ldone\n",
      "\u001b[?25h  Created wheel for midi: filename=midi-0.2.3-py3-none-any.whl size=9718 sha256=e6ff6980c0bbdaae0b31ee8aa2aea465359e6f0b49df0da4c1f05657ba978d64\n",
      "  Stored in directory: /private/var/folders/60/9hjj_5fj7_q5kgnc6ppg7_wc0000gn/T/pip-ephem-wheel-cache-fprzqxaf/wheels/ab/f7/23/b2dc39f11a646c28396d954b99759f34b83f9008f492a91f01\n",
      "Successfully built midi\n",
      "Installing collected packages: midi\n",
      "  Attempting uninstall: midi\n",
      "    Found existing installation: midi 0.2.3\n",
      "    Uninstalling midi-0.2.3:\n",
      "      Successfully uninstalled midi-0.2.3\n",
      "Successfully installed midi-0.2.3\n"
     ]
    }
   ],
   "source": [
    "# Update midi package\n",
    "!pip install git+https://github.com/vishnubob/python-midi@feature/python3\n",
    "!git clone -b feature/python3 https://github.com/vishnubob/python-midi.git\n",
    "!pip install --upgrade git+https://github.com/louisabraham/python3-midi"
   ]
  },
  {
   "cell_type": "code",
   "execution_count": 2,
   "metadata": {
    "scrolled": false
   },
   "outputs": [],
   "source": [
    "# !python python-midi/setup.py install"
   ]
  },
  {
   "cell_type": "markdown",
   "metadata": {},
   "source": [
    "# Preprocessing"
   ]
  },
  {
   "cell_type": "code",
   "execution_count": 3,
   "metadata": {},
   "outputs": [],
   "source": [
    "import mido # https://github.com/mido/mido\n",
    "import midi # https://github.com/vishnubob/python-midi\n",
    "import random\n",
    "import numpy as np\n",
    "import scipy as sp\n",
    "from scipy.sparse import lil_matrix\n",
    "from collections import defaultdict, Counter\n",
    "from sys import getsizeof\n",
    "import itertools\n",
    "import statistics as stats\n",
    "import math"
   ]
  },
  {
   "cell_type": "code",
   "execution_count": 4,
   "metadata": {},
   "outputs": [
    {
     "name": "stdout",
     "output_type": "stream",
     "text": [
      "midi.Pattern(format=1, resolution=384, tracks=\\\r\n",
      "[midi.Track(\\\r\n",
      "  [midi.TrackNameEvent(tick=0, text='untitled', data=[117, 110, 116, 105, 116, 108, 101, 100]),\r\n",
      "   midi.SmpteOffsetEvent(tick=0, data=[96, 0, 3, 0, 0]),\r\n",
      "   midi.TimeSignatureEvent(tick=0, data=[2, 2, 24, 8]),\r\n",
      "   midi.KeySignatureEvent(tick=0, data=[0, 0]),\r\n",
      "   midi.SetTempoEvent(tick=0, data=[9, 216, 41]),\r\n",
      "   midi.EndOfTrackEvent(tick=0, data=[])]),\r\n",
      " midi.Track(\\\r\n",
      "  [midi.PortEvent(tick=0, data=[0]),\r\n",
      "   midi.TrackNameEvent(tick=0, text='Solo Violin', data=[83, 111, 108, 111, 32, 86, 105, 111, 108, 105, 110]),\r\n",
      "   midi.ProgramChangeEvent(tick=0, channel=0, data=[40]),\r\n",
      "   midi.ControlChangeEvent(tick=0, channel=0, data=[7, 115]),\r\n",
      "   midi.ControlChangeEvent(tick=0, channel=0, data=[10, 64]),\r\n",
      "   midi.NoteOnEvent(tick=576, channel=0, data=[76, 100]),\r\n",
      "   midi.NoteOnEvent(tick=192, channel=0, data=[76, 0]),\r\n",
      "   midi.NoteOnEvent(tick=0, channel=0, data=[81, 100]),\r\n",
      "   midi.NoteOnEvent(tick=384, channel=0, data=[81, 0]),\r\n",
      "   midi.NoteOnEvent(tick=192, channel=0, data=[76, 100]),\r\n",
      "   midi.NoteOnEvent(tick=192, channel=0, data=[76, 0]),\r\n",
      "   midi.NoteOnEvent(tick=0, channel=0, data=[77, 100]),\r\n",
      "   midi.NoteOnEvent(tick=384, channel=0, data=[77, 0]),\r\n",
      "   midi.NoteOnEvent(tick=192, channel=0, data=[74, 100]),\r\n",
      "   midi.NoteOnEvent(tick=192, channel=0, data=[74, 0]),\r\n",
      "   midi.NoteOnEvent(tick=0, channel=0, data=[76, 100]),\r\n",
      "   midi.NoteOnEvent(tick=96, channel=0, data=[76, 0]),\r\n",
      "   midi.NoteOnEvent(tick=0, channel=0, data=[74, 100]),\r\n",
      "   midi.NoteOnEvent(tick=96, channel=0, data=[74, 0]),\r\n",
      "   midi.NoteOnEvent(tick=0, channel=0, data=[72, 100]),\r\n",
      "   midi.NoteOnEvent(tick=96, channel=0, data=[72, 0]),\r\n",
      "   midi.NoteOnEvent(tick=0, channel=0, data=[76, 100]),\r\n",
      "   midi.NoteOnEvent(tick=96, channel=0, data=[76, 0]),\r\n",
      "   midi.NoteOnEvent(tick=0, channel=0, data=[74, 100]),\r\n",
      "   midi.NoteOnEvent(tick=96, channel=0, data=[74, 0]),\r\n",
      "   midi.NoteOnEvent(tick=0, channel=0, data=[72, 100]),\r\n",
      "   midi.NoteOnEvent(tick=96, channel=0, data=[72, 0]),\r\n",
      "   midi.NoteOnEvent(tick=0, channel=0, data=[71, 100]),\r\n",
      "   midi.NoteOnEvent(tick=96, channel=0, data=[71, 0]),\r\n",
      "   midi.NoteOnEvent(tick=0, channel=0, data=[74, 100]),\r\n",
      "   midi.NoteOnEvent(tick=96, channel=0, data=[74, 0]),\r\n",
      "   midi.NoteOnEvent(tick=0, channel=0, data=[72, 100]),\r\n",
      "   midi.NoteOnEvent(tick=192, channel=0, data=[72, 0]),\r\n",
      "   midi.NoteOnEvent(tick=0, channel=0, data=[69, 100]),\r\n",
      "   midi.NoteOnEvent(tick=192, channel=0, data=[69, 0]),\r\n",
      "   midi.NoteOnEvent(tick=96, channel=0, data=[69, 100]),\r\n",
      "   midi.NoteOnEvent(tick=96, channel=0, data=[69, 0]),\r\n",
      "   midi.NoteOnEvent(tick=0, channel=0, data=[68, 100]),\r\n",
      "   midi.NoteOnEvent(tick=96, channel=0, data=[68, 0]),\r\n",
      "   midi.NoteOnEvent(tick=0, channel=0, data=[69, 100]),\r\n",
      "   midi.NoteOnEvent(tick=96, channel=0, data=[69, 0]),\r\n",
      "   midi.NoteOnEvent(tick=0, channel=0, data=[71, 100]),\r\n",
      "   midi.NoteOnEvent(tick=96, channel=0, data=[71, 0]),\r\n",
      "   midi.NoteOnEvent(tick=0, channel=0, data=[69, 100]),\r\n",
      "   midi.NoteOnEvent(tick=96, channel=0, data=[69, 0]),\r\n",
      "   midi.NoteOnEvent(tick=0, channel=0, data=[68, 100]),\r\n",
      "   midi.NoteOnEvent(tick=96, channel=0, data=[68, 0]),\r\n",
      "   midi.NoteOnEvent(tick=0, channel=0, data=[69, 100]),\r\n",
      "   midi.NoteOnEvent(tick=96, channel=0, data=[69, 0]),\r\n",
      "   midi.NoteOnEvent(tick=0, channel=0, data=[72, 100]),\r\n",
      "   midi.NoteOnEvent(tick=96, channel=0, data=[72, 0]),\r\n",
      "   midi.NoteOnEvent(tick=0, channel=0, data=[69, 100]),\r\n",
      "   midi.NoteOnEvent(tick=96, channel=0, data=[69, 0]),\r\n",
      "   midi.NoteOnEvent(tick=0, channel=0, data=[68, 100]),\r\n",
      "   midi.NoteOnEvent(tick=96, channel=0, data=[68, 0]),\r\n",
      "   midi.NoteOnEvent(tick=0, channel=0, data=[69, 100]),\r\n",
      "   midi.NoteOnEvent(tick=96, channel=0, data=[69, 0]),\r\n",
      "   midi.NoteOnEvent(tick=0, channel=0, data=[74, 100]),\r\n",
      "   midi.NoteOnEvent(tick=96, channel=0, data=[74, 0]),\r\n",
      "   midi.NoteOnEvent(tick=0, channel=0, data=[69, 100]),\r\n",
      "   midi.NoteOnEvent(tick=96, channel=0, data=[69, 0]),\r\n",
      "   midi.NoteOnEvent(tick=0, channel=0, data=[68, 100]),\r\n",
      "   midi.NoteOnEvent(tick=96, channel=0, data=[68, 0]),\r\n",
      "   midi.NoteOnEvent(tick=0, channel=0, data=[69, 100]),\r\n",
      "   midi.NoteOnEvent(tick=96, channel=0, data=[69, 0]),\r\n",
      "   midi.NoteOnEvent(tick=0, channel=0, data=[76, 100]),\r\n",
      "   midi.NoteOnEvent(tick=96, channel=0, data=[76, 0]),\r\n",
      "   midi.NoteOnEvent(tick=0, channel=0, data=[69, 100]),\r\n",
      "   midi.NoteOnEvent(tick=96, channel=0, data=[69, 0]),\r\n",
      "   midi.NoteOnEvent(tick=0, channel=0, data=[68, 100]),\r\n",
      "   midi.NoteOnEvent(tick=96, channel=0, data=[68, 0]),\r\n",
      "   midi.NoteOnEvent(tick=0, channel=0, data=[69, 100]),\r\n",
      "   midi.NoteOnEvent(tick=96, channel=0, data=[69, 0]),\r\n",
      "   midi.NoteOnEvent(tick=0, channel=0, data=[77, 100]),\r\n",
      "   midi.NoteOnEvent(tick=96, channel=0, data=[77, 0]),\r\n",
      "   midi.NoteOnEvent(tick=0, channel=0, data=[79, 100]),\r\n",
      "   midi.NoteOnEvent(tick=96, channel=0, data=[79, 0]),\r\n",
      "   midi.NoteOnEvent(tick=0, channel=0, data=[77, 100]),\r\n",
      "   midi.NoteOnEvent(tick=96, channel=0, data=[77, 0]),\r\n",
      "   midi.NoteOnEvent(tick=0, channel=0, data=[76, 100]),\r\n",
      "   midi.NoteOnEvent(tick=96, channel=0, data=[76, 0]),\r\n",
      "   midi.NoteOnEvent(tick=0, channel=0, data=[74, 100]),\r\n",
      "   midi.NoteOnEvent(tick=96, channel=0, data=[74, 0]),\r\n",
      "   midi.NoteOnEvent(tick=0, channel=0, data=[72, 100]),\r\n",
      "   midi.NoteOnEvent(tick=96, channel=0, data=[72, 0]),\r\n",
      "   midi.NoteOnEvent(tick=0, channel=0, data=[71, 100]),\r\n",
      "   midi.NoteOnEvent(tick=96, channel=0, data=[71, 0]),\r\n",
      "   midi.NoteOnEvent(tick=0, channel=0, data=[69, 100]),\r\n",
      "   midi.NoteOnEvent(tick=96, channel=0, data=[69, 0]),\r\n",
      "   midi.NoteOnEvent(tick=0, channel=0, data=[68, 100]),\r\n",
      "   midi.NoteOnEvent(tick=192, channel=0, data=[68, 0]),\r\n",
      "   midi.NoteOnEvent(tick=0, channel=0, data=[64, 100]),\r\n",
      "   midi.NoteOnEvent(tick=192, channel=0, data=[64, 0]),\r\n",
      "   midi.NoteOnEvent(tick=0, channel=0, data=[83, 100]),\r\n",
      "   midi.NoteOnEvent(tick=576, channel=0, data=[83, 0]),\r\n",
      "   midi.NoteOnEvent(tick=0, channel=0, data=[81, 100]),\r\n",
      "   midi.NoteOnEvent(tick=96, channel=0, data=[81, 0]),\r\n",
      "   midi.NoteOnEvent(tick=0, channel=0, data=[80, 100]),\r\n",
      "   midi.NoteOnEvent(tick=96, channel=0, data=[80, 0]),\r\n",
      "   midi.NoteOnEvent(tick=0, channel=0, data=[81, 100]),\r\n",
      "   midi.NoteOnEvent(tick=192, channel=0, data=[81, 0]),\r\n",
      "   midi.NoteOnEvent(tick=0, channel=0, data=[84, 100]),\r\n",
      "   midi.NoteOnEvent(tick=384, channel=0, data=[84, 0]),\r\n",
      "   midi.NoteOnEvent(tick=0, channel=0, data=[78, 100]),\r\n",
      "   midi.NoteOnEvent(tick=192, channel=0, data=[78, 0]),\r\n",
      "   midi.NoteOnEvent(tick=0, channel=0, data=[81, 100]),\r\n",
      "   midi.NoteOnEvent(tick=576, channel=0, data=[81, 0]),\r\n",
      "   midi.NoteOnEvent(tick=0, channel=0, data=[79, 100]),\r\n",
      "   midi.NoteOnEvent(tick=96, channel=0, data=[79, 0]),\r\n",
      "   midi.NoteOnEvent(tick=0, channel=0, data=[78, 100]),\r\n",
      "   midi.NoteOnEvent(tick=96, channel=0, data=[78, 0]),\r\n",
      "   midi.NoteOnEvent(tick=0, channel=0, data=[79, 100]),\r\n",
      "   midi.NoteOnEvent(tick=192, channel=0, data=[79, 0]),\r\n",
      "   midi.NoteOnEvent(tick=0, channel=0, data=[83, 100]),\r\n",
      "   midi.NoteOnEvent(tick=288, channel=0, data=[83, 0]),\r\n",
      "   midi.NoteOnEvent(tick=0, channel=0, data=[81, 100]),\r\n",
      "   midi.NoteOnEvent(tick=96, channel=0, data=[81, 0]),\r\n",
      "   midi.NoteOnEvent(tick=0, channel=0, data=[79, 100]),\r\n",
      "   midi.NoteOnEvent(tick=96, channel=0, data=[79, 0]),\r\n",
      "   midi.NoteOnEvent(tick=0, channel=0, data=[78, 100]),\r\n",
      "   midi.NoteOnEvent(tick=96, channel=0, data=[78, 0]),\r\n",
      "   midi.NoteOnEvent(tick=0, channel=0, data=[76, 100]),\r\n",
      "   midi.NoteOnEvent(tick=576, channel=0, data=[76, 0]),\r\n",
      "   midi.NoteOnEvent(tick=0, channel=0, data=[78, 100]),\r\n",
      "   midi.NoteOnEvent(tick=96, channel=0, data=[78, 0]),\r\n",
      "   midi.NoteOnEvent(tick=0, channel=0, data=[79, 100]),\r\n",
      "   midi.NoteOnEvent(tick=96, channel=0, data=[79, 0]),\r\n",
      "   midi.NoteOnEvent(tick=0, channel=0, data=[81, 100]),\r\n",
      "   midi.NoteOnEvent(tick=192, channel=0, data=[81, 0]),\r\n",
      "   midi.NoteOnEvent(tick=0, channel=0, data=[72, 100]),\r\n",
      "   midi.NoteOnEvent(tick=192, channel=0, data=[72, 0]),\r\n",
      "   midi.NoteOnEvent(tick=0, channel=0, data=[71, 100]),\r\n",
      "   midi.NoteOnEvent(tick=192, channel=0, data=[71, 0]),\r\n",
      "   midi.NoteOnEvent(tick=0, channel=0, data=[81, 100]),\r\n",
      "   midi.NoteOnEvent(tick=192, channel=0, data=[81, 0]),\r\n",
      "   midi.NoteOnEvent(tick=0, channel=0, data=[79, 100]),\r\n",
      "   midi.NoteOnEvent(tick=192, channel=0, data=[79, 0]),\r\n",
      "   midi.NoteOnEvent(tick=0, channel=0, data=[71, 100]),\r\n",
      "   midi.NoteOnEvent(tick=192, channel=0, data=[71, 0]),\r\n",
      "   midi.NoteOnEvent(tick=0, channel=0, data=[69, 100]),\r\n",
      "   midi.NoteOnEvent(tick=96, channel=0, data=[69, 0]),\r\n",
      "   midi.NoteOnEvent(tick=0, channel=0, data=[71, 100]),\r\n",
      "   midi.NoteOnEvent(tick=96, channel=0, data=[71, 0]),\r\n",
      "   midi.NoteOnEvent(tick=0, channel=0, data=[72, 100]),\r\n",
      "   midi.NoteOnEvent(tick=96, channel=0, data=[72, 0]),\r\n",
      "   midi.NoteOnEvent(tick=0, channel=0, data=[71, 100]),\r\n",
      "   midi.NoteOnEvent(tick=96, channel=0, data=[71, 0]),\r\n",
      "   midi.NoteOnEvent(tick=0, channel=0, data=[69, 100]),\r\n",
      "   midi.NoteOnEvent(tick=96, channel=0, data=[69, 0]),\r\n",
      "   midi.NoteOnEvent(tick=0, channel=0, data=[67, 100]),\r\n",
      "   midi.NoteOnEvent(tick=96, channel=0, data=[67, 0]),\r\n",
      "   midi.NoteOnEvent(tick=0, channel=0, data=[66, 100]),\r\n",
      "   midi.NoteOnEvent(tick=96, channel=0, data=[66, 0]),\r\n",
      "   midi.NoteOnEvent(tick=0, channel=0, data=[64, 100]),\r\n",
      "   midi.NoteOnEvent(tick=96, channel=0, data=[64, 0]),\r\n",
      "   midi.NoteOnEvent(tick=0, channel=0, data=[63, 100]),\r\n",
      "   midi.NoteOnEvent(tick=192, channel=0, data=[63, 0]),\r\n",
      "   midi.NoteOnEvent(tick=0, channel=0, data=[72, 100]),\r\n",
      "   midi.NoteOnEvent(tick=192, channel=0, data=[72, 0]),\r\n",
      "   midi.NoteOnEvent(tick=0, channel=0, data=[71, 100]),\r\n",
      "   midi.NoteOnEvent(tick=192, channel=0, data=[71, 0]),\r\n",
      "   midi.NoteOnEvent(tick=0, channel=0, data=[76, 100]),\r\n",
      "   midi.NoteOnEvent(tick=192, channel=0, data=[76, 0]),\r\n",
      "   midi.NoteOnEvent(tick=0, channel=0, data=[79, 100]),\r\n",
      "   midi.NoteOnEvent(tick=384, channel=0, data=[79, 0]),\r\n",
      "   midi.NoteOnEvent(tick=0, channel=0, data=[78, 100]),\r\n",
      "   midi.NoteOnEvent(tick=48, channel=0, data=[78, 0]),\r\n",
      "   midi.NoteOnEvent(tick=0, channel=0, data=[79, 100]),\r\n",
      "   midi.NoteOnEvent(tick=48, channel=0, data=[79, 0]),\r\n",
      "   midi.NoteOnEvent(tick=0, channel=0, data=[78, 100]),\r\n",
      "   midi.NoteOnEvent(tick=48, channel=0, data=[78, 0]),\r\n",
      "   midi.NoteOnEvent(tick=0, channel=0, data=[79, 100]),\r\n",
      "   midi.NoteOnEvent(tick=48, channel=0, data=[79, 0]),\r\n",
      "   midi.NoteOnEvent(tick=0, channel=0, data=[78, 100]),\r\n",
      "   midi.NoteOnEvent(tick=48, channel=0, data=[78, 0]),\r\n",
      "   midi.NoteOnEvent(tick=0, channel=0, data=[79, 100]),\r\n",
      "   midi.NoteOnEvent(tick=48, channel=0, data=[79, 0]),\r\n",
      "   midi.NoteOnEvent(tick=0, channel=0, data=[78, 100]),\r\n",
      "   midi.NoteOnEvent(tick=48, channel=0, data=[78, 0]),\r\n",
      "   midi.NoteOnEvent(tick=0, channel=0, data=[79, 100]),\r\n",
      "   midi.NoteOnEvent(tick=48, channel=0, data=[79, 0]),\r\n",
      "   midi.NoteOnEvent(tick=0, channel=0, data=[78, 100]),\r\n",
      "   midi.NoteOnEvent(tick=96, channel=0, data=[78, 0]),\r\n",
      "   midi.NoteOnEvent(tick=0, channel=0, data=[79, 100]),\r\n",
      "   midi.NoteOnEvent(tick=96, channel=0, data=[79, 0]),\r\n",
      "   midi.NoteOnEvent(tick=0, channel=0, data=[81, 100]),\r\n",
      "   midi.NoteOnEvent(tick=96, channel=0, data=[81, 0]),\r\n",
      "   midi.NoteOnEvent(tick=0, channel=0, data=[78, 100]),\r\n",
      "   midi.NoteOnEvent(tick=96, channel=0, data=[78, 0]),\r\n",
      "   midi.NoteOnEvent(tick=0, channel=0, data=[75, 100]),\r\n",
      "   midi.NoteOnEvent(tick=96, channel=0, data=[75, 0]),\r\n",
      "   midi.NoteOnEvent(tick=0, channel=0, data=[76, 100]),\r\n",
      "   midi.NoteOnEvent(tick=96, channel=0, data=[76, 0]),\r\n",
      "   midi.NoteOnEvent(tick=0, channel=0, data=[78, 100]),\r\n",
      "   midi.NoteOnEvent(tick=96, channel=0, data=[78, 0]),\r\n",
      "   midi.NoteOnEvent(tick=0, channel=0, data=[75, 100]),\r\n",
      "   midi.NoteOnEvent(tick=96, channel=0, data=[75, 0]),\r\n",
      "   midi.NoteOnEvent(tick=0, channel=0, data=[83, 100]),\r\n",
      "   midi.NoteOnEvent(tick=192, channel=0, data=[83, 0]),\r\n",
      "   midi.NoteOnEvent(tick=0, channel=0, data=[76, 100]),\r\n",
      "   midi.NoteOnEvent(tick=192, channel=0, data=[76, 0]),\r\n",
      "   midi.NoteOnEvent(tick=0, channel=0, data=[78, 100]),\r\n",
      "   midi.NoteOnEvent(tick=192, channel=0, data=[78, 0]),\r\n",
      "   midi.NoteOnEvent(tick=0, channel=0, data=[75, 100]),\r\n",
      "   midi.NoteOnEvent(tick=192, channel=0, data=[75, 0]),\r\n",
      "   midi.NoteOnEvent(tick=0, channel=0, data=[76, 100]),\r\n",
      "   midi.NoteOnEvent(tick=96, channel=0, data=[76, 0]),\r\n",
      "   midi.NoteOnEvent(tick=0, channel=0, data=[74, 100]),\r\n",
      "   midi.NoteOnEvent(tick=96, channel=0, data=[74, 0]),\r\n",
      "   midi.NoteOnEvent(tick=0, channel=0, data=[72, 100]),\r\n",
      "   midi.NoteOnEvent(tick=96, channel=0, data=[72, 0]),\r\n",
      "   midi.NoteOnEvent(tick=0, channel=0, data=[71, 100]),\r\n",
      "   midi.NoteOnEvent(tick=96, channel=0, data=[71, 0]),\r\n",
      "   midi.NoteOnEvent(tick=0, channel=0, data=[69, 100]),\r\n",
      "   midi.NoteOnEvent(tick=192, channel=0, data=[69, 0]),\r\n",
      "   midi.NoteOnEvent(tick=0, channel=0, data=[69, 100]),\r\n",
      "   midi.NoteOnEvent(tick=192, channel=0, data=[69, 0]),\r\n",
      "   midi.NoteOnEvent(tick=0, channel=0, data=[69, 100]),\r\n",
      "   midi.NoteOnEvent(tick=96, channel=0, data=[69, 0]),\r\n",
      "   midi.NoteOnEvent(tick=0, channel=0, data=[71, 100]),\r\n",
      "   midi.NoteOnEvent(tick=96, channel=0, data=[71, 0]),\r\n",
      "   midi.NoteOnEvent(tick=0, channel=0, data=[72, 100]),\r\n",
      "   midi.NoteOnEvent(tick=288, channel=0, data=[72, 0]),\r\n",
      "   midi.NoteOnEvent(tick=0, channel=0, data=[71, 100]),\r\n",
      "   midi.NoteOnEvent(tick=96, channel=0, data=[71, 0]),\r\n",
      "   midi.NoteOnEvent(tick=0, channel=0, data=[69, 100]),\r\n",
      "   midi.NoteOnEvent(tick=96, channel=0, data=[69, 0]),\r\n",
      "   midi.NoteOnEvent(tick=0, channel=0, data=[67, 100]),\r\n",
      "   midi.NoteOnEvent(tick=96, channel=0, data=[67, 0]),\r\n",
      "   midi.NoteOnEvent(tick=0, channel=0, data=[66, 100]),\r\n",
      "   midi.NoteOnEvent(tick=96, channel=0, data=[66, 0]),\r\n",
      "   midi.NoteOnEvent(tick=0, channel=0, data=[67, 100]),\r\n",
      "   midi.NoteOnEvent(tick=96, channel=0, data=[67, 0]),\r\n",
      "   midi.NoteOnEvent(tick=0, channel=0, data=[69, 100]),\r\n",
      "   midi.NoteOnEvent(tick=288, channel=0, data=[69, 0]),\r\n",
      "   midi.NoteOnEvent(tick=0, channel=0, data=[67, 100]),\r\n",
      "   midi.NoteOnEvent(tick=96, channel=0, data=[67, 0]),\r\n",
      "   midi.NoteOnEvent(tick=0, channel=0, data=[66, 100]),\r\n",
      "   midi.NoteOnEvent(tick=96, channel=0, data=[66, 0]),\r\n",
      "   midi.NoteOnEvent(tick=0, channel=0, data=[64, 100]),\r\n",
      "   midi.NoteOnEvent(tick=96, channel=0, data=[64, 0]),\r\n",
      "   midi.NoteOnEvent(tick=0, channel=0, data=[63, 100]),\r\n",
      "   midi.NoteOnEvent(tick=192, channel=0, data=[63, 0]),\r\n",
      "   midi.NoteOnEvent(tick=0, channel=0, data=[71, 100]),\r\n",
      "   midi.NoteOnEvent(tick=192, channel=0, data=[71, 0]),\r\n",
      "   midi.NoteOnEvent(tick=0, channel=0, data=[67, 100]),\r\n",
      "   midi.NoteOnEvent(tick=48, channel=0, data=[67, 0]),\r\n",
      "   midi.NoteOnEvent(tick=0, channel=0, data=[69, 100]),\r\n",
      "   midi.NoteOnEvent(tick=48, channel=0, data=[69, 0]),\r\n",
      "   midi.NoteOnEvent(tick=0, channel=0, data=[67, 100]),\r\n",
      "   midi.NoteOnEvent(tick=48, channel=0, data=[67, 0]),\r\n",
      "   midi.NoteOnEvent(tick=0, channel=0, data=[69, 100]),\r\n",
      "   midi.NoteOnEvent(tick=48, channel=0, data=[69, 0]),\r\n",
      "   midi.NoteOnEvent(tick=0, channel=0, data=[66, 100]),\r\n",
      "   midi.NoteOnEvent(tick=96, channel=0, data=[66, 0]),\r\n",
      "   midi.NoteOnEvent(tick=0, channel=0, data=[64, 100]),\r\n",
      "   midi.NoteOnEvent(tick=96, channel=0, data=[64, 0]),\r\n",
      "   midi.NoteOnEvent(tick=0, channel=0, data=[64, 100]),\r\n",
      "   midi.NoteOnEvent(tick=384, channel=0, data=[64, 0]),\r\n",
      "   midi.NoteOnEvent(tick=96, channel=0, data=[76, 100]),\r\n",
      "   midi.NoteOnEvent(tick=96, channel=0, data=[76, 0]),\r\n",
      "   midi.NoteOnEvent(tick=0, channel=0, data=[75, 100]),\r\n",
      "   midi.NoteOnEvent(tick=96, channel=0, data=[75, 0]),\r\n",
      "   midi.NoteOnEvent(tick=0, channel=0, data=[76, 100]),\r\n",
      "   midi.NoteOnEvent(tick=96, channel=0, data=[76, 0]),\r\n",
      "   midi.NoteOnEvent(tick=0, channel=0, data=[81, 100]),\r\n",
      "   midi.NoteOnEvent(tick=96, channel=0, data=[81, 0]),\r\n",
      "   midi.NoteOnEvent(tick=0, channel=0, data=[80, 100]),\r\n",
      "   midi.NoteOnEvent(tick=96, channel=0, data=[80, 0]),\r\n",
      "   midi.NoteOnEvent(tick=0, channel=0, data=[81, 100]),\r\n",
      "   midi.NoteOnEvent(tick=288, channel=0, data=[81, 0]),\r\n",
      "   midi.NoteOnEvent(tick=0, channel=0, data=[76, 100]),\r\n",
      "   midi.NoteOnEvent(tick=96, channel=0, data=[76, 0]),\r\n",
      "   midi.NoteOnEvent(tick=0, channel=0, data=[75, 100]),\r\n",
      "   midi.NoteOnEvent(tick=96, channel=0, data=[75, 0]),\r\n",
      "   midi.NoteOnEvent(tick=0, channel=0, data=[76, 100]),\r\n",
      "   midi.NoteOnEvent(tick=96, channel=0, data=[76, 0]),\r\n",
      "   midi.NoteOnEvent(tick=0, channel=0, data=[84, 100]),\r\n",
      "   midi.NoteOnEvent(tick=192, channel=0, data=[84, 0]),\r\n",
      "   midi.NoteOnEvent(tick=0, channel=0, data=[83, 100]),\r\n",
      "   midi.NoteOnEvent(tick=288, channel=0, data=[83, 0]),\r\n",
      "   midi.NoteOnEvent(tick=0, channel=0, data=[76, 100]),\r\n",
      "   midi.NoteOnEvent(tick=96, channel=0, data=[76, 0]),\r\n",
      "   midi.NoteOnEvent(tick=0, channel=0, data=[74, 100]),\r\n",
      "   midi.NoteOnEvent(tick=96, channel=0, data=[74, 0]),\r\n",
      "   midi.NoteOnEvent(tick=0, channel=0, data=[76, 100]),\r\n",
      "   midi.NoteOnEvent(tick=96, channel=0, data=[76, 0]),\r\n",
      "   midi.NoteOnEvent(tick=0, channel=0, data=[83, 100]),\r\n",
      "   midi.NoteOnEvent(tick=96, channel=0, data=[83, 0]),\r\n",
      "   midi.NoteOnEvent(tick=0, channel=0, data=[81, 100]),\r\n",
      "   midi.NoteOnEvent(tick=96, channel=0, data=[81, 0]),\r\n",
      "   midi.NoteOnEvent(tick=0, channel=0, data=[83, 100]),\r\n",
      "   midi.NoteOnEvent(tick=288, channel=0, data=[83, 0]),\r\n",
      "   midi.NoteOnEvent(tick=0, channel=0, data=[76, 100]),\r\n",
      "   midi.NoteOnEvent(tick=96, channel=0, data=[76, 0]),\r\n",
      "   midi.NoteOnEvent(tick=0, channel=0, data=[74, 100]),\r\n",
      "   midi.NoteOnEvent(tick=96, channel=0, data=[74, 0]),\r\n",
      "   midi.NoteOnEvent(tick=0, channel=0, data=[76, 100]),\r\n",
      "   midi.NoteOnEvent(tick=96, channel=0, data=[76, 0]),\r\n",
      "   midi.NoteOnEvent(tick=0, channel=0, data=[86, 100]),\r\n",
      "   midi.NoteOnEvent(tick=192, channel=0, data=[86, 0]),\r\n",
      "   midi.NoteOnEvent(tick=0, channel=0, data=[84, 100]),\r\n",
      "   midi.NoteOnEvent(tick=288, channel=0, data=[84, 0]),\r\n",
      "   midi.NoteOnEvent(tick=0, channel=0, data=[76, 100]),\r\n",
      "   midi.NoteOnEvent(tick=96, channel=0, data=[76, 0]),\r\n",
      "   midi.NoteOnEvent(tick=0, channel=0, data=[74, 100]),\r\n",
      "   midi.NoteOnEvent(tick=96, channel=0, data=[74, 0]),\r\n",
      "   midi.NoteOnEvent(tick=0, channel=0, data=[76, 100]),\r\n",
      "   midi.NoteOnEvent(tick=96, channel=0, data=[76, 0]),\r\n",
      "   midi.NoteOnEvent(tick=0, channel=0, data=[84, 100]),\r\n",
      "   midi.NoteOnEvent(tick=96, channel=0, data=[84, 0]),\r\n",
      "   midi.NoteOnEvent(tick=0, channel=0, data=[83, 100]),\r\n",
      "   midi.NoteOnEvent(tick=96, channel=0, data=[83, 0]),\r\n",
      "   midi.NoteOnEvent(tick=0, channel=0, data=[81, 100]),\r\n",
      "   midi.NoteOnEvent(tick=96, channel=0, data=[81, 0]),\r\n",
      "   midi.NoteOnEvent(tick=0, channel=0, data=[79, 100]),\r\n",
      "   midi.NoteOnEvent(tick=96, channel=0, data=[79, 0]),\r\n",
      "   midi.NoteOnEvent(tick=0, channel=0, data=[77, 100]),\r\n",
      "   midi.NoteOnEvent(tick=96, channel=0, data=[77, 0]),\r\n",
      "   midi.NoteOnEvent(tick=0, channel=0, data=[74, 100]),\r\n",
      "   midi.NoteOnEvent(tick=96, channel=0, data=[74, 0]),\r\n",
      "   midi.NoteOnEvent(tick=0, channel=0, data=[72, 100]),\r\n",
      "   midi.NoteOnEvent(tick=96, channel=0, data=[72, 0]),\r\n",
      "   midi.NoteOnEvent(tick=0, channel=0, data=[74, 100]),\r\n",
      "   midi.NoteOnEvent(tick=96, channel=0, data=[74, 0]),\r\n",
      "   midi.NoteOnEvent(tick=0, channel=0, data=[83, 100]),\r\n",
      "   midi.NoteOnEvent(tick=96, channel=0, data=[83, 0]),\r\n",
      "   midi.NoteOnEvent(tick=0, channel=0, data=[81, 100]),\r\n",
      "   midi.NoteOnEvent(tick=96, channel=0, data=[81, 0]),\r\n",
      "   midi.NoteOnEvent(tick=0, channel=0, data=[79, 100]),\r\n",
      "   midi.NoteOnEvent(tick=96, channel=0, data=[79, 0]),\r\n",
      "   midi.NoteOnEvent(tick=0, channel=0, data=[77, 100]),\r\n",
      "   midi.NoteOnEvent(tick=96, channel=0, data=[77, 0]),\r\n",
      "   midi.NoteOnEvent(tick=0, channel=0, data=[76, 100]),\r\n",
      "   midi.NoteOnEvent(tick=96, channel=0, data=[76, 0]),\r\n",
      "   midi.NoteOnEvent(tick=0, channel=0, data=[72, 100]),\r\n",
      "   midi.NoteOnEvent(tick=96, channel=0, data=[72, 0]),\r\n",
      "   midi.NoteOnEvent(tick=0, channel=0, data=[71, 100]),\r\n",
      "   midi.NoteOnEvent(tick=96, channel=0, data=[71, 0]),\r\n",
      "   midi.NoteOnEvent(tick=0, channel=0, data=[72, 100]),\r\n",
      "   midi.NoteOnEvent(tick=96, channel=0, data=[72, 0]),\r\n",
      "   midi.NoteOnEvent(tick=0, channel=0, data=[81, 100]),\r\n",
      "   midi.NoteOnEvent(tick=96, channel=0, data=[81, 0]),\r\n",
      "   midi.NoteOnEvent(tick=0, channel=0, data=[79, 100]),\r\n",
      "   midi.NoteOnEvent(tick=96, channel=0, data=[79, 0]),\r\n",
      "   midi.NoteOnEvent(tick=0, channel=0, data=[77, 100]),\r\n",
      "   midi.NoteOnEvent(tick=96, channel=0, data=[77, 0]),\r\n",
      "   midi.NoteOnEvent(tick=0, channel=0, data=[76, 100]),\r\n",
      "   midi.NoteOnEvent(tick=96, channel=0, data=[76, 0]),\r\n",
      "   midi.NoteOnEvent(tick=0, channel=0, data=[74, 100]),\r\n",
      "   midi.NoteOnEvent(tick=96, channel=0, data=[74, 0]),\r\n",
      "   midi.NoteOnEvent(tick=0, channel=0, data=[71, 100]),\r\n",
      "   midi.NoteOnEvent(tick=96, channel=0, data=[71, 0]),\r\n",
      "   midi.NoteOnEvent(tick=0, channel=0, data=[69, 100]),\r\n",
      "   midi.NoteOnEvent(tick=96, channel=0, data=[69, 0]),\r\n",
      "   midi.NoteOnEvent(tick=0, channel=0, data=[71, 100]),\r\n",
      "   midi.NoteOnEvent(tick=96, channel=0, data=[71, 0]),\r\n",
      "   midi.NoteOnEvent(tick=0, channel=0, data=[80, 100]),\r\n",
      "   midi.NoteOnEvent(tick=96, channel=0, data=[80, 0]),\r\n",
      "   midi.NoteOnEvent(tick=0, channel=0, data=[81, 100]),\r\n",
      "   midi.NoteOnEvent(tick=96, channel=0, data=[81, 0]),\r\n",
      "   midi.NoteOnEvent(tick=0, channel=0, data=[80, 100]),\r\n",
      "   midi.NoteOnEvent(tick=96, channel=0, data=[80, 0]),\r\n",
      "   midi.NoteOnEvent(tick=0, channel=0, data=[78, 100]),\r\n",
      "   midi.NoteOnEvent(tick=96, channel=0, data=[78, 0]),\r\n",
      "   midi.NoteOnEvent(tick=0, channel=0, data=[76, 100]),\r\n",
      "   midi.NoteOnEvent(tick=96, channel=0, data=[76, 0]),\r\n",
      "   midi.NoteOnEvent(tick=0, channel=0, data=[74, 100]),\r\n",
      "   midi.NoteOnEvent(tick=96, channel=0, data=[74, 0]),\r\n",
      "   midi.NoteOnEvent(tick=0, channel=0, data=[72, 100]),\r\n",
      "   midi.NoteOnEvent(tick=96, channel=0, data=[72, 0]),\r\n",
      "   midi.NoteOnEvent(tick=0, channel=0, data=[71, 100]),\r\n",
      "   midi.NoteOnEvent(tick=96, channel=0, data=[71, 0]),\r\n",
      "   midi.NoteOnEvent(tick=0, channel=0, data=[72, 100]),\r\n",
      "   midi.NoteOnEvent(tick=96, channel=0, data=[72, 0]),\r\n",
      "   midi.NoteOnEvent(tick=0, channel=0, data=[74, 100]),\r\n",
      "   midi.NoteOnEvent(tick=96, channel=0, data=[74, 0]),\r\n",
      "   midi.NoteOnEvent(tick=0, channel=0, data=[72, 100]),\r\n",
      "   midi.NoteOnEvent(tick=96, channel=0, data=[72, 0]),\r\n",
      "   midi.NoteOnEvent(tick=0, channel=0, data=[71, 100]),\r\n",
      "   midi.NoteOnEvent(tick=96, channel=0, data=[71, 0]),\r\n",
      "   midi.NoteOnEvent(tick=0, channel=0, data=[69, 100]),\r\n",
      "   midi.NoteOnEvent(tick=96, channel=0, data=[69, 0]),\r\n",
      "   midi.NoteOnEvent(tick=0, channel=0, data=[81, 100]),\r\n",
      "   midi.NoteOnEvent(tick=96, channel=0, data=[81, 0]),\r\n",
      "   midi.NoteOnEvent(tick=0, channel=0, data=[76, 100]),\r\n",
      "   midi.NoteOnEvent(tick=96, channel=0, data=[76, 0]),\r\n",
      "   midi.NoteOnEvent(tick=0, channel=0, data=[79, 100]),\r\n",
      "   midi.NoteOnEvent(tick=96, channel=0, data=[79, 0]),\r\n",
      "   midi.NoteOnEvent(tick=0, channel=0, data=[77, 100]),\r\n",
      "   midi.NoteOnEvent(tick=96, channel=0, data=[77, 0]),\r\n",
      "   midi.NoteOnEvent(tick=0, channel=0, data=[79, 100]),\r\n",
      "   midi.NoteOnEvent(tick=96, channel=0, data=[79, 0]),\r\n",
      "   midi.NoteOnEvent(tick=0, channel=0, data=[77, 100]),\r\n",
      "   midi.NoteOnEvent(tick=96, channel=0, data=[77, 0]),\r\n",
      "   midi.NoteOnEvent(tick=0, channel=0, data=[76, 100]),\r\n",
      "   midi.NoteOnEvent(tick=96, channel=0, data=[76, 0]),\r\n",
      "   midi.NoteOnEvent(tick=0, channel=0, data=[74, 100]),\r\n",
      "   midi.NoteOnEvent(tick=96, channel=0, data=[74, 0]),\r\n",
      "   midi.NoteOnEvent(tick=0, channel=0, data=[72, 100]),\r\n",
      "   midi.NoteOnEvent(tick=96, channel=0, data=[72, 0]),\r\n",
      "   midi.NoteOnEvent(tick=0, channel=0, data=[71, 100]),\r\n",
      "   midi.NoteOnEvent(tick=96, channel=0, data=[71, 0]),\r\n",
      "   midi.NoteOnEvent(tick=0, channel=0, data=[69, 100]),\r\n",
      "   midi.NoteOnEvent(tick=96, channel=0, data=[69, 0]),\r\n",
      "   midi.NoteOnEvent(tick=0, channel=0, data=[71, 100]),\r\n",
      "   midi.NoteOnEvent(tick=96, channel=0, data=[71, 0]),\r\n",
      "   midi.NoteOnEvent(tick=0, channel=0, data=[72, 100]),\r\n",
      "   midi.NoteOnEvent(tick=96, channel=0, data=[72, 0]),\r\n",
      "   midi.NoteOnEvent(tick=0, channel=0, data=[71, 100]),\r\n",
      "   midi.NoteOnEvent(tick=96, channel=0, data=[71, 0]),\r\n",
      "   midi.NoteOnEvent(tick=0, channel=0, data=[69, 100]),\r\n",
      "   midi.NoteOnEvent(tick=96, channel=0, data=[69, 0]),\r\n",
      "   midi.NoteOnEvent(tick=0, channel=0, data=[67, 100]),\r\n",
      "   midi.NoteOnEvent(tick=96, channel=0, data=[67, 0]),\r\n",
      "   midi.NoteOnEvent(tick=0, channel=0, data=[79, 100]),\r\n",
      "   midi.NoteOnEvent(tick=96, channel=0, data=[79, 0]),\r\n",
      "   midi.NoteOnEvent(tick=0, channel=0, data=[74, 100]),\r\n",
      "   midi.NoteOnEvent(tick=96, channel=0, data=[74, 0]),\r\n",
      "   midi.NoteOnEvent(tick=0, channel=0, data=[77, 100]),\r\n",
      "   midi.NoteOnEvent(tick=96, channel=0, data=[77, 0]),\r\n",
      "   midi.NoteOnEvent(tick=0, channel=0, data=[76, 100]),\r\n",
      "   midi.NoteOnEvent(tick=96, channel=0, data=[76, 0]),\r\n",
      "   midi.NoteOnEvent(tick=0, channel=0, data=[77, 100]),\r\n",
      "   midi.NoteOnEvent(tick=96, channel=0, data=[77, 0]),\r\n",
      "   midi.NoteOnEvent(tick=0, channel=0, data=[76, 100]),\r\n",
      "   midi.NoteOnEvent(tick=96, channel=0, data=[76, 0]),\r\n",
      "   midi.NoteOnEvent(tick=0, channel=0, data=[74, 100]),\r\n",
      "   midi.NoteOnEvent(tick=96, channel=0, data=[74, 0]),\r\n",
      "   midi.NoteOnEvent(tick=0, channel=0, data=[72, 100]),\r\n",
      "   midi.NoteOnEvent(tick=96, channel=0, data=[72, 0]),\r\n",
      "   midi.NoteOnEvent(tick=0, channel=0, data=[71, 100]),\r\n",
      "   midi.NoteOnEvent(tick=96, channel=0, data=[71, 0]),\r\n",
      "   midi.NoteOnEvent(tick=0, channel=0, data=[69, 100]),\r\n",
      "   midi.NoteOnEvent(tick=96, channel=0, data=[69, 0]),\r\n",
      "   midi.NoteOnEvent(tick=0, channel=0, data=[67, 100]),\r\n",
      "   midi.NoteOnEvent(tick=96, channel=0, data=[67, 0]),\r\n",
      "   midi.NoteOnEvent(tick=0, channel=0, data=[69, 100]),\r\n",
      "   midi.NoteOnEvent(tick=96, channel=0, data=[69, 0]),\r\n",
      "   midi.NoteOnEvent(tick=0, channel=0, data=[70, 100]),\r\n",
      "   midi.NoteOnEvent(tick=96, channel=0, data=[70, 0]),\r\n",
      "   midi.NoteOnEvent(tick=0, channel=0, data=[69, 100]),\r\n",
      "   midi.NoteOnEvent(tick=96, channel=0, data=[69, 0]),\r\n",
      "   midi.NoteOnEvent(tick=0, channel=0, data=[67, 100]),\r\n",
      "   midi.NoteOnEvent(tick=96, channel=0, data=[67, 0]),\r\n",
      "   midi.NoteOnEvent(tick=0, channel=0, data=[65, 100]),\r\n",
      "   midi.NoteOnEvent(tick=96, channel=0, data=[65, 0]),\r\n",
      "   midi.NoteOnEvent(tick=0, channel=0, data=[77, 100]),\r\n",
      "   midi.NoteOnEvent(tick=96, channel=0, data=[77, 0]),\r\n",
      "   midi.NoteOnEvent(tick=0, channel=0, data=[72, 100]),\r\n",
      "   midi.NoteOnEvent(tick=96, channel=0, data=[72, 0]),\r\n",
      "   midi.NoteOnEvent(tick=0, channel=0, data=[76, 100]),\r\n",
      "   midi.NoteOnEvent(tick=96, channel=0, data=[76, 0]),\r\n",
      "   midi.NoteOnEvent(tick=0, channel=0, data=[74, 100]),\r\n",
      "   midi.NoteOnEvent(tick=96, channel=0, data=[74, 0]),\r\n",
      "   midi.NoteOnEvent(tick=0, channel=0, data=[76, 100]),\r\n",
      "   midi.NoteOnEvent(tick=96, channel=0, data=[76, 0]),\r\n",
      "   midi.NoteOnEvent(tick=0, channel=0, data=[74, 100]),\r\n",
      "   midi.NoteOnEvent(tick=96, channel=0, data=[74, 0]),\r\n",
      "   midi.NoteOnEvent(tick=0, channel=0, data=[72, 100]),\r\n",
      "   midi.NoteOnEvent(tick=96, channel=0, data=[72, 0]),\r\n",
      "   midi.NoteOnEvent(tick=0, channel=0, data=[71, 100]),\r\n",
      "   midi.NoteOnEvent(tick=96, channel=0, data=[71, 0]),\r\n",
      "   midi.NoteOnEvent(tick=0, channel=0, data=[69, 100]),\r\n",
      "   midi.NoteOnEvent(tick=96, channel=0, data=[69, 0]),\r\n",
      "   midi.NoteOnEvent(tick=0, channel=0, data=[68, 100]),\r\n",
      "   midi.NoteOnEvent(tick=96, channel=0, data=[68, 0]),\r\n",
      "   midi.NoteOnEvent(tick=0, channel=0, data=[66, 100]),\r\n",
      "   midi.NoteOnEvent(tick=96, channel=0, data=[66, 0]),\r\n",
      "   midi.NoteOnEvent(tick=0, channel=0, data=[68, 100]),\r\n",
      "   midi.NoteOnEvent(tick=96, channel=0, data=[68, 0]),\r\n",
      "   midi.NoteOnEvent(tick=0, channel=0, data=[69, 100]),\r\n",
      "   midi.NoteOnEvent(tick=96, channel=0, data=[69, 0]),\r\n",
      "   midi.NoteOnEvent(tick=0, channel=0, data=[68, 100]),\r\n",
      "   midi.NoteOnEvent(tick=96, channel=0, data=[68, 0]),\r\n",
      "   midi.NoteOnEvent(tick=0, channel=0, data=[66, 100]),\r\n",
      "   midi.NoteOnEvent(tick=96, channel=0, data=[66, 0]),\r\n",
      "   midi.NoteOnEvent(tick=0, channel=0, data=[64, 100]),\r\n",
      "   midi.NoteOnEvent(tick=96, channel=0, data=[64, 0]),\r\n",
      "   midi.NoteOnEvent(tick=0, channel=0, data=[76, 100]),\r\n",
      "   midi.NoteOnEvent(tick=96, channel=0, data=[76, 0]),\r\n",
      "   midi.NoteOnEvent(tick=0, channel=0, data=[71, 100]),\r\n",
      "   midi.NoteOnEvent(tick=96, channel=0, data=[71, 0]),\r\n",
      "   midi.NoteOnEvent(tick=0, channel=0, data=[74, 100]),\r\n",
      "   midi.NoteOnEvent(tick=96, channel=0, data=[74, 0]),\r\n",
      "   midi.NoteOnEvent(tick=0, channel=0, data=[72, 100]),\r\n",
      "   midi.NoteOnEvent(tick=96, channel=0, data=[72, 0]),\r\n",
      "   midi.NoteOnEvent(tick=0, channel=0, data=[74, 100]),\r\n",
      "   midi.NoteOnEvent(tick=96, channel=0, data=[74, 0]),\r\n",
      "   midi.NoteOnEvent(tick=0, channel=0, data=[72, 100]),\r\n",
      "   midi.NoteOnEvent(tick=96, channel=0, data=[72, 0]),\r\n",
      "   midi.NoteOnEvent(tick=0, channel=0, data=[71, 100]),\r\n",
      "   midi.NoteOnEvent(tick=96, channel=0, data=[71, 0]),\r\n",
      "   midi.NoteOnEvent(tick=0, channel=0, data=[69, 100]),\r\n",
      "   midi.NoteOnEvent(tick=96, channel=0, data=[69, 0]),\r\n",
      "   midi.NoteOnEvent(tick=0, channel=0, data=[81, 100]),\r\n",
      "   midi.NoteOnEvent(tick=96, channel=0, data=[81, 0]),\r\n",
      "   midi.NoteOnEvent(tick=0, channel=0, data=[76, 100]),\r\n",
      "   midi.NoteOnEvent(tick=96, channel=0, data=[76, 0]),\r\n",
      "   midi.NoteOnEvent(tick=0, channel=0, data=[79, 100]),\r\n",
      "   midi.NoteOnEvent(tick=96, channel=0, data=[79, 0]),\r\n",
      "   midi.NoteOnEvent(tick=0, channel=0, data=[77, 100]),\r\n",
      "   midi.NoteOnEvent(tick=96, channel=0, data=[77, 0]),\r\n",
      "   midi.NoteOnEvent(tick=0, channel=0, data=[79, 100]),\r\n",
      "   midi.NoteOnEvent(tick=96, channel=0, data=[79, 0]),\r\n",
      "   midi.NoteOnEvent(tick=0, channel=0, data=[77, 100]),\r\n",
      "   midi.NoteOnEvent(tick=96, channel=0, data=[77, 0]),\r\n",
      "   midi.NoteOnEvent(tick=0, channel=0, data=[76, 100]),\r\n",
      "   midi.NoteOnEvent(tick=96, channel=0, data=[76, 0]),\r\n",
      "   midi.NoteOnEvent(tick=0, channel=0, data=[74, 100]),\r\n",
      "   midi.NoteOnEvent(tick=96, channel=0, data=[74, 0]),\r\n",
      "   midi.NoteOnEvent(tick=0, channel=0, data=[77, 100]),\r\n",
      "   midi.NoteOnEvent(tick=96, channel=0, data=[77, 0]),\r\n",
      "   midi.NoteOnEvent(tick=0, channel=0, data=[71, 100]),\r\n",
      "   midi.NoteOnEvent(tick=96, channel=0, data=[71, 0]),\r\n",
      "   midi.NoteOnEvent(tick=0, channel=0, data=[74, 100]),\r\n",
      "   midi.NoteOnEvent(tick=96, channel=0, data=[74, 0]),\r\n",
      "   midi.NoteOnEvent(tick=0, channel=0, data=[76, 100]),\r\n",
      "   midi.NoteOnEvent(tick=96, channel=0, data=[76, 0]),\r\n",
      "   midi.NoteOnEvent(tick=0, channel=0, data=[74, 100]),\r\n",
      "   midi.NoteOnEvent(tick=96, channel=0, data=[74, 0]),\r\n",
      "   midi.NoteOnEvent(tick=0, channel=0, data=[72, 100]),\r\n",
      "   midi.NoteOnEvent(tick=96, channel=0, data=[72, 0]),\r\n",
      "   midi.NoteOnEvent(tick=0, channel=0, data=[76, 100]),\r\n",
      "   midi.NoteOnEvent(tick=96, channel=0, data=[76, 0]),\r\n",
      "   midi.NoteOnEvent(tick=0, channel=0, data=[74, 100]),\r\n",
      "   midi.NoteOnEvent(tick=96, channel=0, data=[74, 0]),\r\n",
      "   midi.NoteOnEvent(tick=0, channel=0, data=[72, 100]),\r\n",
      "   midi.NoteOnEvent(tick=96, channel=0, data=[72, 0]),\r\n",
      "   midi.NoteOnEvent(tick=0, channel=0, data=[71, 100]),\r\n",
      "   midi.NoteOnEvent(tick=96, channel=0, data=[71, 0]),\r\n",
      "   midi.NoteOnEvent(tick=0, channel=0, data=[74, 100]),\r\n",
      "   midi.NoteOnEvent(tick=96, channel=0, data=[74, 0]),\r\n",
      "   midi.NoteOnEvent(tick=0, channel=0, data=[72, 100]),\r\n",
      "   midi.NoteOnEvent(tick=192, channel=0, data=[72, 0]),\r\n",
      "   midi.NoteOnEvent(tick=0, channel=0, data=[69, 100]),\r\n",
      "   midi.NoteOnEvent(tick=192, channel=0, data=[69, 0]),\r\n",
      "   midi.NoteOnEvent(tick=96, channel=0, data=[64, 100]),\r\n",
      "   midi.NoteOnEvent(tick=96, channel=0, data=[64, 0]),\r\n",
      "   midi.NoteOnEvent(tick=0, channel=0, data=[69, 100]),\r\n",
      "   midi.NoteOnEvent(tick=96, channel=0, data=[69, 0]),\r\n",
      "   midi.NoteOnEvent(tick=0, channel=0, data=[72, 100]),\r\n",
      "   midi.NoteOnEvent(tick=96, channel=0, data=[72, 0]),\r\n",
      "   midi.NoteOnEvent(tick=0, channel=0, data=[77, 100]),\r\n",
      "   midi.NoteOnEvent(tick=48, channel=0, data=[77, 0]),\r\n",
      "   midi.NoteOnEvent(tick=0, channel=0, data=[79, 100]),\r\n",
      "   midi.NoteOnEvent(tick=48, channel=0, data=[79, 0]),\r\n",
      "   midi.NoteOnEvent(tick=0, channel=0, data=[81, 100]),\r\n",
      "   midi.NoteOnEvent(tick=192, channel=0, data=[81, 0]),\r\n",
      "   midi.NoteOnEvent(tick=0, channel=0, data=[77, 100]),\r\n",
      "   midi.NoteOnEvent(tick=96, channel=0, data=[77, 0]),\r\n",
      "   midi.NoteOnEvent(tick=0, channel=0, data=[75, 100]),\r\n",
      "   midi.NoteOnEvent(tick=48, channel=0, data=[75, 0]),\r\n",
      "   midi.NoteOnEvent(tick=0, channel=0, data=[76, 100]),\r\n",
      "   midi.NoteOnEvent(tick=48, channel=0, data=[76, 0]),\r\n",
      "   midi.NoteOnEvent(tick=0, channel=0, data=[78, 100]),\r\n",
      "   midi.NoteOnEvent(tick=192, channel=0, data=[78, 0]),\r\n",
      "   midi.NoteOnEvent(tick=0, channel=0, data=[75, 100]),\r\n",
      "   midi.NoteOnEvent(tick=96, channel=0, data=[75, 0]),\r\n",
      "   midi.NoteOnEvent(tick=0, channel=0, data=[76, 100]),\r\n",
      "   midi.NoteOnEvent(tick=96, channel=0, data=[76, 0]),\r\n",
      "   midi.NoteOnEvent(tick=0, channel=0, data=[71, 100]),\r\n",
      "   midi.NoteOnEvent(tick=96, channel=0, data=[71, 0]),\r\n",
      "   midi.NoteOnEvent(tick=0, channel=0, data=[67, 100]),\r\n",
      "   midi.NoteOnEvent(tick=96, channel=0, data=[67, 0]),\r\n",
      "   midi.NoteOnEvent(tick=0, channel=0, data=[64, 100]),\r\n",
      "   midi.NoteOnEvent(tick=96, channel=0, data=[64, 0]),\r\n",
      "   midi.NoteOnEvent(tick=0, channel=0, data=[63, 100]),\r\n",
      "   midi.NoteOnEvent(tick=96, channel=0, data=[63, 0]),\r\n",
      "   midi.NoteOnEvent(tick=0, channel=0, data=[64, 100]),\r\n",
      "   midi.NoteOnEvent(tick=96, channel=0, data=[64, 0]),\r\n",
      "   midi.NoteOnEvent(tick=0, channel=0, data=[67, 100]),\r\n",
      "   midi.NoteOnEvent(tick=96, channel=0, data=[67, 0]),\r\n",
      "   midi.NoteOnEvent(tick=0, channel=0, data=[71, 100]),\r\n",
      "   midi.NoteOnEvent(tick=96, channel=0, data=[71, 0]),\r\n",
      "   midi.NoteOnEvent(tick=0, channel=0, data=[76, 100]),\r\n",
      "   midi.NoteOnEvent(tick=48, channel=0, data=[76, 0]),\r\n",
      "   midi.NoteOnEvent(tick=0, channel=0, data=[77, 100]),\r\n",
      "   midi.NoteOnEvent(tick=48, channel=0, data=[77, 0]),\r\n",
      "   midi.NoteOnEvent(tick=0, channel=0, data=[79, 100]),\r\n",
      "   midi.NoteOnEvent(tick=192, channel=0, data=[79, 0]),\r\n",
      "   midi.NoteOnEvent(tick=0, channel=0, data=[76, 100]),\r\n",
      "   midi.NoteOnEvent(tick=96, channel=0, data=[76, 0]),\r\n",
      "   midi.NoteOnEvent(tick=0, channel=0, data=[73, 100]),\r\n",
      "   midi.NoteOnEvent(tick=48, channel=0, data=[73, 0]),\r\n",
      "   midi.NoteOnEvent(tick=0, channel=0, data=[74, 100]),\r\n",
      "   midi.NoteOnEvent(tick=48, channel=0, data=[74, 0]),\r\n",
      "   midi.NoteOnEvent(tick=0, channel=0, data=[76, 100]),\r\n",
      "   midi.NoteOnEvent(tick=192, channel=0, data=[76, 0]),\r\n",
      "   midi.NoteOnEvent(tick=0, channel=0, data=[73, 100]),\r\n",
      "   midi.NoteOnEvent(tick=96, channel=0, data=[73, 0]),\r\n",
      "   midi.NoteOnEvent(tick=0, channel=0, data=[74, 100]),\r\n",
      "   midi.NoteOnEvent(tick=96, channel=0, data=[74, 0]),\r\n",
      "   midi.NoteOnEvent(tick=0, channel=0, data=[69, 100]),\r\n",
      "   midi.NoteOnEvent(tick=96, channel=0, data=[69, 0]),\r\n",
      "   midi.NoteOnEvent(tick=0, channel=0, data=[65, 100]),\r\n",
      "   midi.NoteOnEvent(tick=96, channel=0, data=[65, 0]),\r\n",
      "   midi.NoteOnEvent(tick=0, channel=0, data=[62, 100]),\r\n",
      "   midi.NoteOnEvent(tick=96, channel=0, data=[62, 0]),\r\n",
      "   midi.NoteOnEvent(tick=0, channel=0, data=[61, 100]),\r\n",
      "   midi.NoteOnEvent(tick=96, channel=0, data=[61, 0]),\r\n",
      "   midi.NoteOnEvent(tick=0, channel=0, data=[62, 100]),\r\n",
      "   midi.NoteOnEvent(tick=96, channel=0, data=[62, 0]),\r\n",
      "   midi.NoteOnEvent(tick=0, channel=0, data=[65, 100]),\r\n",
      "   midi.NoteOnEvent(tick=96, channel=0, data=[65, 0]),\r\n",
      "   midi.NoteOnEvent(tick=0, channel=0, data=[69, 100]),\r\n",
      "   midi.NoteOnEvent(tick=96, channel=0, data=[69, 0]),\r\n",
      "   midi.NoteOnEvent(tick=0, channel=0, data=[74, 100]),\r\n",
      "   midi.NoteOnEvent(tick=48, channel=0, data=[74, 0]),\r\n",
      "   midi.NoteOnEvent(tick=0, channel=0, data=[76, 100]),\r\n",
      "   midi.NoteOnEvent(tick=48, channel=0, data=[76, 0]),\r\n",
      "   midi.NoteOnEvent(tick=0, channel=0, data=[77, 100]),\r\n",
      "   midi.NoteOnEvent(tick=192, channel=0, data=[77, 0]),\r\n",
      "   midi.NoteOnEvent(tick=0, channel=0, data=[74, 100]),\r\n",
      "   midi.NoteOnEvent(tick=96, channel=0, data=[74, 0]),\r\n",
      "   midi.NoteOnEvent(tick=0, channel=0, data=[71, 100]),\r\n",
      "   midi.NoteOnEvent(tick=48, channel=0, data=[71, 0]),\r\n",
      "   midi.NoteOnEvent(tick=0, channel=0, data=[72, 100]),\r\n",
      "   midi.NoteOnEvent(tick=48, channel=0, data=[72, 0]),\r\n",
      "   midi.NoteOnEvent(tick=0, channel=0, data=[74, 100]),\r\n",
      "   midi.NoteOnEvent(tick=192, channel=0, data=[74, 0]),\r\n",
      "   midi.NoteOnEvent(tick=0, channel=0, data=[71, 100]),\r\n",
      "   midi.NoteOnEvent(tick=96, channel=0, data=[71, 0]),\r\n",
      "   midi.NoteOnEvent(tick=0, channel=0, data=[72, 100]),\r\n",
      "   midi.NoteOnEvent(tick=96, channel=0, data=[72, 0]),\r\n",
      "   midi.NoteOnEvent(tick=0, channel=0, data=[67, 100]),\r\n",
      "   midi.NoteOnEvent(tick=96, channel=0, data=[67, 0]),\r\n",
      "   midi.NoteOnEvent(tick=0, channel=0, data=[69, 100]),\r\n",
      "   midi.NoteOnEvent(tick=96, channel=0, data=[69, 0]),\r\n",
      "   midi.NoteOnEvent(tick=0, channel=0, data=[71, 100]),\r\n",
      "   midi.NoteOnEvent(tick=96, channel=0, data=[71, 0]),\r\n",
      "   midi.NoteOnEvent(tick=0, channel=0, data=[72, 100]),\r\n",
      "   midi.NoteOnEvent(tick=96, channel=0, data=[72, 0]),\r\n",
      "   midi.NoteOnEvent(tick=0, channel=0, data=[67, 100]),\r\n",
      "   midi.NoteOnEvent(tick=96, channel=0, data=[67, 0]),\r\n",
      "   midi.NoteOnEvent(tick=0, channel=0, data=[74, 100]),\r\n",
      "   midi.NoteOnEvent(tick=96, channel=0, data=[74, 0]),\r\n",
      "   midi.NoteOnEvent(tick=0, channel=0, data=[67, 100]),\r\n",
      "   midi.NoteOnEvent(tick=96, channel=0, data=[67, 0]),\r\n",
      "   midi.NoteOnEvent(tick=0, channel=0, data=[76, 100]),\r\n",
      "   midi.NoteOnEvent(tick=96, channel=0, data=[76, 0]),\r\n",
      "   midi.NoteOnEvent(tick=0, channel=0, data=[71, 100]),\r\n",
      "   midi.NoteOnEvent(tick=96, channel=0, data=[71, 0]),\r\n",
      "   midi.NoteOnEvent(tick=0, channel=0, data=[72, 100]),\r\n",
      "   midi.NoteOnEvent(tick=96, channel=0, data=[72, 0]),\r\n",
      "   midi.NoteOnEvent(tick=0, channel=0, data=[74, 100]),\r\n",
      "   midi.NoteOnEvent(tick=96, channel=0, data=[74, 0]),\r\n",
      "   midi.NoteOnEvent(tick=0, channel=0, data=[76, 100]),\r\n",
      "   midi.NoteOnEvent(tick=96, channel=0, data=[76, 0]),\r\n",
      "   midi.NoteOnEvent(tick=0, channel=0, data=[72, 100]),\r\n",
      "   midi.NoteOnEvent(tick=96, channel=0, data=[72, 0]),\r\n",
      "   midi.NoteOnEvent(tick=0, channel=0, data=[78, 100]),\r\n",
      "   midi.NoteOnEvent(tick=96, channel=0, data=[78, 0]),\r\n",
      "   midi.NoteOnEvent(tick=0, channel=0, data=[72, 100]),\r\n",
      "   midi.NoteOnEvent(tick=96, channel=0, data=[72, 0]),\r\n",
      "   midi.NoteOnEvent(tick=0, channel=0, data=[79, 100]),\r\n",
      "   midi.NoteOnEvent(tick=96, channel=0, data=[79, 0]),\r\n",
      "   midi.NoteOnEvent(tick=0, channel=0, data=[67, 100]),\r\n",
      "   midi.NoteOnEvent(tick=96, channel=0, data=[67, 0]),\r\n",
      "   midi.NoteOnEvent(tick=0, channel=0, data=[71, 100]),\r\n",
      "   midi.NoteOnEvent(tick=96, channel=0, data=[71, 0]),\r\n",
      "   midi.NoteOnEvent(tick=0, channel=0, data=[74, 100]),\r\n",
      "   midi.NoteOnEvent(tick=96, channel=0, data=[74, 0]),\r\n",
      "   midi.NoteOnEvent(tick=0, channel=0, data=[79, 100]),\r\n",
      "   midi.NoteOnEvent(tick=480, channel=0, data=[79, 0]),\r\n",
      "   midi.NoteOnEvent(tick=0, channel=0, data=[72, 100]),\r\n",
      "   midi.NoteOnEvent(tick=96, channel=0, data=[72, 0]),\r\n",
      "   midi.NoteOnEvent(tick=0, channel=0, data=[76, 100]),\r\n",
      "   midi.NoteOnEvent(tick=96, channel=0, data=[76, 0]),\r\n",
      "   midi.NoteOnEvent(tick=0, channel=0, data=[79, 100]),\r\n",
      "   midi.NoteOnEvent(tick=96, channel=0, data=[79, 0]),\r\n",
      "   midi.NoteOnEvent(tick=0, channel=0, data=[84, 100]),\r\n",
      "   midi.NoteOnEvent(tick=480, channel=0, data=[84, 0]),\r",
      "\r\n",
      "   midi.NoteOnEvent(tick=0, channel=0, data=[72, 100]),\r\n",
      "   midi.NoteOnEvent(tick=96, channel=0, data=[72, 0]),\r\n",
      "   midi.NoteOnEvent(tick=0, channel=0, data=[76, 100]),\r\n",
      "   midi.NoteOnEvent(tick=96, channel=0, data=[76, 0]),\r\n",
      "   midi.NoteOnEvent(tick=0, channel=0, data=[79, 100]),\r\n",
      "   midi.NoteOnEvent(tick=96, channel=0, data=[79, 0]),\r\n",
      "   midi.NoteOnEvent(tick=0, channel=0, data=[84, 100]),\r\n",
      "   midi.NoteOnEvent(tick=576, channel=0, data=[84, 0]),\r\n",
      "   midi.NoteOnEvent(tick=0, channel=0, data=[72, 100]),\r\n",
      "   midi.NoteOnEvent(tick=192, channel=0, data=[72, 0]),\r\n",
      "   midi.NoteOnEvent(tick=0, channel=0, data=[74, 100]),\r\n",
      "   midi.NoteOnEvent(tick=192, channel=0, data=[74, 0]),\r\n",
      "   midi.NoteOnEvent(tick=0, channel=0, data=[83, 100]),\r\n",
      "   midi.NoteOnEvent(tick=192, channel=0, data=[83, 0]),\r\n",
      "   midi.NoteOnEvent(tick=0, channel=0, data=[84, 100]),\r\n",
      "   midi.NoteOnEvent(tick=96, channel=0, data=[84, 0]),\r\n",
      "   midi.NoteOnEvent(tick=0, channel=0, data=[79, 100]),\r\n",
      "   midi.NoteOnEvent(tick=96, channel=0, data=[79, 0]),\r\n",
      "   midi.NoteOnEvent(tick=0, channel=0, data=[76, 100]),\r\n",
      "   midi.NoteOnEvent(tick=96, channel=0, data=[76, 0]),\r\n",
      "   midi.NoteOnEvent(tick=0, channel=0, data=[72, 100]),\r\n",
      "   midi.NoteOnEvent(tick=96, channel=0, data=[72, 0]),\r\n",
      "   midi.NoteOnEvent(tick=0, channel=0, data=[60, 100]),\r\n",
      "   midi.NoteOnEvent(tick=96, channel=0, data=[60, 0]),\r\n",
      "   midi.NoteOnEvent(tick=0, channel=0, data=[72, 100]),\r\n",
      "   midi.NoteOnEvent(tick=96, channel=0, data=[72, 0]),\r\n",
      "   midi.NoteOnEvent(tick=0, channel=0, data=[71, 100]),\r\n",
      "   midi.NoteOnEvent(tick=96, channel=0, data=[71, 0]),\r\n",
      "   midi.NoteOnEvent(tick=0, channel=0, data=[72, 100]),\r\n",
      "   midi.NoteOnEvent(tick=96, channel=0, data=[72, 0]),\r\n",
      "   midi.NoteOnEvent(tick=0, channel=0, data=[74, 100]),\r\n",
      "   midi.NoteOnEvent(tick=96, channel=0, data=[74, 0]),\r\n",
      "   midi.NoteOnEvent(tick=0, channel=0, data=[72, 100]),\r\n",
      "   midi.NoteOnEvent(tick=96, channel=0, data=[72, 0]),\r\n",
      "   midi.NoteOnEvent(tick=0, channel=0, data=[71, 100]),\r\n",
      "   midi.NoteOnEvent(tick=96, channel=0, data=[71, 0]),\r\n",
      "   midi.NoteOnEvent(tick=0, channel=0, data=[72, 100]),\r\n",
      "   midi.NoteOnEvent(tick=96, channel=0, data=[72, 0]),\r\n",
      "   midi.NoteOnEvent(tick=0, channel=0, data=[76, 100]),\r\n",
      "   midi.NoteOnEvent(tick=96, channel=0, data=[76, 0]),\r\n",
      "   midi.NoteOnEvent(tick=0, channel=0, data=[72, 100]),\r\n",
      "   midi.NoteOnEvent(tick=96, channel=0, data=[72, 0]),\r\n",
      "   midi.NoteOnEvent(tick=0, channel=0, data=[71, 100]),\r\n",
      "   midi.NoteOnEvent(tick=96, channel=0, data=[71, 0]),\r\n",
      "   midi.NoteOnEvent(tick=0, channel=0, data=[72, 100]),\r\n",
      "   midi.NoteOnEvent(tick=96, channel=0, data=[72, 0]),\r\n",
      "   midi.NoteOnEvent(tick=0, channel=0, data=[77, 100]),\r\n",
      "   midi.NoteOnEvent(tick=96, channel=0, data=[77, 0]),\r\n",
      "   midi.NoteOnEvent(tick=0, channel=0, data=[72, 100]),\r\n",
      "   midi.NoteOnEvent(tick=96, channel=0, data=[72, 0]),\r\n",
      "   midi.NoteOnEvent(tick=0, channel=0, data=[71, 100]),\r\n",
      "   midi.NoteOnEvent(tick=96, channel=0, data=[71, 0]),\r\n",
      "   midi.NoteOnEvent(tick=0, channel=0, data=[72, 100]),\r\n",
      "   midi.NoteOnEvent(tick=96, channel=0, data=[72, 0]),\r\n",
      "   midi.NoteOnEvent(tick=0, channel=0, data=[79, 100]),\r\n",
      "   midi.NoteOnEvent(tick=96, channel=0, data=[79, 0]),\r\n",
      "   midi.NoteOnEvent(tick=0, channel=0, data=[72, 100]),\r\n",
      "   midi.NoteOnEvent(tick=96, channel=0, data=[72, 0]),\r\n",
      "   midi.NoteOnEvent(tick=0, channel=0, data=[71, 100]),\r\n",
      "   midi.NoteOnEvent(tick=96, channel=0, data=[71, 0]),\r\n",
      "   midi.NoteOnEvent(tick=0, channel=0, data=[72, 100]),\r\n",
      "   midi.NoteOnEvent(tick=96, channel=0, data=[72, 0]),\r\n",
      "   midi.NoteOnEvent(tick=0, channel=0, data=[81, 100]),\r\n",
      "   midi.NoteOnEvent(tick=96, channel=0, data=[81, 0]),\r\n",
      "   midi.NoteOnEvent(tick=0, channel=0, data=[82, 100]),\r\n",
      "   midi.NoteOnEvent(tick=96, channel=0, data=[82, 0]),\r\n",
      "   midi.NoteOnEvent(tick=0, channel=0, data=[81, 100]),\r\n",
      "   midi.NoteOnEvent(tick=96, channel=0, data=[81, 0]),\r\n",
      "   midi.NoteOnEvent(tick=0, channel=0, data=[79, 100]),\r\n",
      "   midi.NoteOnEvent(tick=96, channel=0, data=[79, 0]),\r\n",
      "   midi.NoteOnEvent(tick=0, channel=0, data=[77, 100]),\r\n",
      "   midi.NoteOnEvent(tick=96, channel=0, data=[77, 0]),\r\n",
      "   midi.NoteOnEvent(tick=0, channel=0, data=[76, 100]),\r\n",
      "   midi.NoteOnEvent(tick=96, channel=0, data=[76, 0]),\r\n",
      "   midi.NoteOnEvent(tick=0, channel=0, data=[74, 100]),\r\n",
      "   midi.NoteOnEvent(tick=96, channel=0, data=[74, 0]),\r\n",
      "   midi.NoteOnEvent(tick=0, channel=0, data=[72, 100]),\r\n",
      "   midi.NoteOnEvent(tick=96, channel=0, data=[72, 0]),\r\n",
      "   midi.NoteOnEvent(tick=0, channel=0, data=[71, 100]),\r\n",
      "   midi.NoteOnEvent(tick=192, channel=0, data=[71, 0]),\r\n",
      "   midi.NoteOnEvent(tick=0, channel=0, data=[67, 100]),\r\n",
      "   midi.NoteOnEvent(tick=192, channel=0, data=[67, 0]),\r\n",
      "   midi.NoteOnEvent(tick=0, channel=0, data=[83, 100]),\r\n",
      "   midi.NoteOnEvent(tick=576, channel=0, data=[83, 0]),\r\n",
      "   midi.NoteOnEvent(tick=0, channel=0, data=[81, 100]),\r\n",
      "   midi.NoteOnEvent(tick=96, channel=0, data=[81, 0]),\r\n",
      "   midi.NoteOnEvent(tick=0, channel=0, data=[80, 100]),\r\n",
      "   midi.NoteOnEvent(tick=96, channel=0, data=[80, 0]),\r\n",
      "   midi.NoteOnEvent(tick=0, channel=0, data=[81, 100]),\r\n",
      "   midi.NoteOnEvent(tick=192, channel=0, data=[81, 0]),\r\n",
      "   midi.NoteOnEvent(tick=0, channel=0, data=[84, 100]),\r\n",
      "   midi.NoteOnEvent(tick=384, channel=0, data=[84, 0]),\r\n",
      "   midi.NoteOnEvent(tick=0, channel=0, data=[78, 100]),\r\n",
      "   midi.NoteOnEvent(tick=96, channel=0, data=[78, 0]),\r\n",
      "   midi.NoteOnEvent(tick=0, channel=0, data=[79, 100]),\r\n",
      "   midi.NoteOnEvent(tick=96, channel=0, data=[79, 0]),\r\n",
      "   midi.NoteOnEvent(tick=0, channel=0, data=[81, 100]),\r\n",
      "   midi.NoteOnEvent(tick=96, channel=0, data=[81, 0]),\r\n",
      "   midi.NoteOnEvent(tick=0, channel=0, data=[78, 100]),\r\n",
      "   midi.NoteOnEvent(tick=96, channel=0, data=[78, 0]),\r\n",
      "   midi.NoteOnEvent(tick=0, channel=0, data=[79, 100]),\r\n",
      "   midi.NoteOnEvent(tick=96, channel=0, data=[79, 0]),\r\n",
      "   midi.NoteOnEvent(tick=0, channel=0, data=[76, 100]),\r\n",
      "   midi.NoteOnEvent(tick=96, channel=0, data=[76, 0]),\r\n",
      "   midi.NoteOnEvent(tick=0, channel=0, data=[78, 100]),\r\n",
      "   midi.NoteOnEvent(tick=96, channel=0, data=[78, 0]),\r\n",
      "   midi.NoteOnEvent(tick=0, channel=0, data=[74, 100]),\r\n",
      "   midi.NoteOnEvent(tick=96, channel=0, data=[74, 0]),\r\n",
      "   midi.NoteOnEvent(tick=0, channel=0, data=[73, 100]),\r\n",
      "   midi.NoteOnEvent(tick=96, channel=0, data=[73, 0]),\r\n",
      "   midi.NoteOnEvent(tick=0, channel=0, data=[74, 100]),\r\n",
      "   midi.NoteOnEvent(tick=96, channel=0, data=[74, 0]),\r\n",
      "   midi.NoteOnEvent(tick=0, channel=0, data=[78, 100]),\r\n",
      "   midi.NoteOnEvent(tick=96, channel=0, data=[78, 0]),\r\n",
      "   midi.NoteOnEvent(tick=0, channel=0, data=[74, 100]),\r\n",
      "   midi.NoteOnEvent(tick=96, channel=0, data=[74, 0]),\r\n",
      "   midi.NoteOnEvent(tick=0, channel=0, data=[81, 100]),\r\n",
      "   midi.NoteOnEvent(tick=96, channel=0, data=[81, 0]),\r\n",
      "   midi.NoteOnEvent(tick=0, channel=0, data=[78, 100]),\r\n",
      "   midi.NoteOnEvent(tick=96, channel=0, data=[78, 0]),\r\n",
      "   midi.NoteOnEvent(tick=0, channel=0, data=[86, 100]),\r\n",
      "   midi.NoteOnEvent(tick=192, channel=0, data=[86, 0]),\r\n",
      "   midi.NoteOnEvent(tick=0, channel=0, data=[74, 100]),\r\n",
      "   midi.NoteOnEvent(tick=192, channel=0, data=[74, 0]),\r\n",
      "   midi.NoteOnEvent(tick=0, channel=0, data=[81, 100]),\r\n",
      "   midi.NoteOnEvent(tick=576, channel=0, data=[81, 0]),\r\n",
      "   midi.NoteOnEvent(tick=0, channel=0, data=[79, 100]),\r\n",
      "   midi.NoteOnEvent(tick=96, channel=0, data=[79, 0]),\r\n",
      "   midi.NoteOnEvent(tick=0, channel=0, data=[78, 100]),\r\n",
      "   midi.NoteOnEvent(tick=96, channel=0, data=[78, 0]),\r\n",
      "   midi.NoteOnEvent(tick=0, channel=0, data=[79, 100]),\r\n",
      "   midi.NoteOnEvent(tick=192, channel=0, data=[79, 0]),\r\n",
      "   midi.NoteOnEvent(tick=0, channel=0, data=[83, 100]),\r\n",
      "   midi.NoteOnEvent(tick=384, channel=0, data=[83, 0]),\r\n",
      "   midi.NoteOnEvent(tick=0, channel=0, data=[76, 100]),\r\n",
      "   midi.NoteOnEvent(tick=96, channel=0, data=[76, 0]),\r\n",
      "   midi.NoteOnEvent(tick=0, channel=0, data=[78, 100]),\r\n",
      "   midi.NoteOnEvent(tick=96, channel=0, data=[78, 0]),\r\n",
      "   midi.NoteOnEvent(tick=0, channel=0, data=[79, 100]),\r\n",
      "   midi.NoteOnEvent(tick=96, channel=0, data=[79, 0]),\r\n",
      "   midi.NoteOnEvent(tick=0, channel=0, data=[76, 100]),\r\n",
      "   midi.NoteOnEvent(tick=96, channel=0, data=[76, 0]),\r\n",
      "   midi.NoteOnEvent(tick=0, channel=0, data=[78, 100]),\r\n",
      "   midi.NoteOnEvent(tick=96, channel=0, data=[78, 0]),\r\n",
      "   midi.NoteOnEvent(tick=0, channel=0, data=[75, 100]),\r\n",
      "   midi.NoteOnEvent(tick=96, channel=0, data=[75, 0]),\r\n",
      "   midi.NoteOnEvent(tick=0, channel=0, data=[76, 100]),\r\n",
      "   midi.NoteOnEvent(tick=96, channel=0, data=[76, 0]),\r\n",
      "   midi.NoteOnEvent(tick=0, channel=0, data=[72, 100]),\r\n",
      "   midi.NoteOnEvent(tick=96, channel=0, data=[72, 0]),\r\n",
      "   midi.NoteOnEvent(tick=0, channel=0, data=[71, 100]),\r\n",
      "   midi.NoteOnEvent(tick=96, channel=0, data=[71, 0]),\r\n",
      "   midi.NoteOnEvent(tick=0, channel=0, data=[72, 100]),\r\n",
      "   midi.NoteOnEvent(tick=96, channel=0, data=[72, 0]),\r\n",
      "   midi.NoteOnEvent(tick=0, channel=0, data=[76, 100]),\r\n",
      "   midi.NoteOnEvent(tick=96, channel=0, data=[76, 0]),\r\n",
      "   midi.NoteOnEvent(tick=0, channel=0, data=[72, 100]),\r\n",
      "   midi.NoteOnEvent(tick=96, channel=0, data=[72, 0]),\r\n",
      "   midi.NoteOnEvent(tick=0, channel=0, data=[79, 100]),\r\n",
      "   midi.NoteOnEvent(tick=96, channel=0, data=[79, 0]),\r\n",
      "   midi.NoteOnEvent(tick=0, channel=0, data=[76, 100]),\r\n",
      "   midi.NoteOnEvent(tick=96, channel=0, data=[76, 0]),\r\n",
      "   midi.NoteOnEvent(tick=0, channel=0, data=[84, 100]),\r\n",
      "   midi.NoteOnEvent(tick=192, channel=0, data=[84, 0]),\r\n",
      "   midi.NoteOnEvent(tick=0, channel=0, data=[72, 100]),\r\n",
      "   midi.NoteOnEvent(tick=192, channel=0, data=[72, 0]),\r\n",
      "   midi.NoteOnEvent(tick=0, channel=0, data=[79, 100]),\r\n",
      "   midi.NoteOnEvent(tick=576, channel=0, data=[79, 0]),\r\n",
      "   midi.NoteOnEvent(tick=0, channel=0, data=[78, 100]),\r\n",
      "   midi.NoteOnEvent(tick=96, channel=0, data=[78, 0]),\r\n",
      "   midi.NoteOnEvent(tick=0, channel=0, data=[79, 100]),\r\n",
      "   midi.NoteOnEvent(tick=96, channel=0, data=[79, 0]),\r\n",
      "   midi.NoteOnEvent(tick=0, channel=0, data=[81, 100]),\r\n",
      "   midi.NoteOnEvent(tick=192, channel=0, data=[81, 0]),\r\n",
      "   midi.NoteOnEvent(tick=0, channel=0, data=[72, 100]),\r\n",
      "   midi.NoteOnEvent(tick=192, channel=0, data=[72, 0]),\r\n",
      "   midi.NoteOnEvent(tick=0, channel=0, data=[71, 100]),\r\n",
      "   midi.NoteOnEvent(tick=192, channel=0, data=[71, 0]),\r\n",
      "   midi.NoteOnEvent(tick=0, channel=0, data=[81, 100]),\r\n",
      "   midi.NoteOnEvent(tick=192, channel=0, data=[81, 0]),\r\n",
      "   midi.NoteOnEvent(tick=0, channel=0, data=[79, 100]),\r\n",
      "   midi.NoteOnEvent(tick=192, channel=0, data=[79, 0]),\r\n",
      "   midi.NoteOnEvent(tick=0, channel=0, data=[71, 100]),\r\n",
      "   midi.NoteOnEvent(tick=192, channel=0, data=[71, 0]),\r\n",
      "   midi.NoteOnEvent(tick=0, channel=0, data=[69, 100]),\r\n",
      "   midi.NoteOnEvent(tick=96, channel=0, data=[69, 0]),\r\n",
      "   midi.NoteOnEvent(tick=0, channel=0, data=[71, 100]),\r\n",
      "   midi.NoteOnEvent(tick=96, channel=0, data=[71, 0]),\r\n",
      "   midi.NoteOnEvent(tick=0, channel=0, data=[72, 100]),\r\n",
      "   midi.NoteOnEvent(tick=96, channel=0, data=[72, 0]),\r\n",
      "   midi.NoteOnEvent(tick=0, channel=0, data=[71, 100]),\r\n",
      "   midi.NoteOnEvent(tick=96, channel=0, data=[71, 0]),\r\n",
      "   midi.NoteOnEvent(tick=0, channel=0, data=[69, 100]),\r\n",
      "   midi.NoteOnEvent(tick=96, channel=0, data=[69, 0]),\r\n",
      "   midi.NoteOnEvent(tick=0, channel=0, data=[67, 100]),\r\n",
      "   midi.NoteOnEvent(tick=96, channel=0, data=[67, 0]),\r\n",
      "   midi.NoteOnEvent(tick=0, channel=0, data=[66, 100]),\r\n",
      "   midi.NoteOnEvent(tick=96, channel=0, data=[66, 0]),\r\n",
      "   midi.NoteOnEvent(tick=0, channel=0, data=[64, 100]),\r\n",
      "   midi.NoteOnEvent(tick=96, channel=0, data=[64, 0]),\r\n",
      "   midi.NoteOnEvent(tick=0, channel=0, data=[63, 100]),\r\n",
      "   midi.NoteOnEvent(tick=192, channel=0, data=[63, 0]),\r\n",
      "   midi.NoteOnEvent(tick=0, channel=0, data=[72, 100]),\r\n",
      "   midi.NoteOnEvent(tick=192, channel=0, data=[72, 0]),\r\n",
      "   midi.NoteOnEvent(tick=0, channel=0, data=[71, 100]),\r\n",
      "   midi.NoteOnEvent(tick=192, channel=0, data=[71, 0]),\r\n",
      "   midi.NoteOnEvent(tick=0, channel=0, data=[76, 100]),\r\n",
      "   midi.NoteOnEvent(tick=192, channel=0, data=[76, 0]),\r\n",
      "   midi.NoteOnEvent(tick=0, channel=0, data=[79, 100]),\r\n",
      "   midi.NoteOnEvent(tick=384, channel=0, data=[79, 0]),\r\n",
      "   midi.NoteOnEvent(tick=0, channel=0, data=[78, 100]),\r\n",
      "   midi.NoteOnEvent(tick=48, channel=0, data=[78, 0]),\r\n",
      "   midi.NoteOnEvent(tick=0, channel=0, data=[79, 100]),\r\n",
      "   midi.NoteOnEvent(tick=48, channel=0, data=[79, 0]),\r\n",
      "   midi.NoteOnEvent(tick=0, channel=0, data=[78, 100]),\r\n",
      "   midi.NoteOnEvent(tick=48, channel=0, data=[78, 0]),\r\n",
      "   midi.NoteOnEvent(tick=0, channel=0, data=[79, 100]),\r\n",
      "   midi.NoteOnEvent(tick=48, channel=0, data=[79, 0]),\r\n",
      "   midi.NoteOnEvent(tick=0, channel=0, data=[78, 100]),\r\n",
      "   midi.NoteOnEvent(tick=48, channel=0, data=[78, 0]),\r\n",
      "   midi.NoteOnEvent(tick=0, channel=0, data=[79, 100]),\r\n",
      "   midi.NoteOnEvent(tick=48, channel=0, data=[79, 0]),\r\n",
      "   midi.NoteOnEvent(tick=0, channel=0, data=[78, 100]),\r\n",
      "   midi.NoteOnEvent(tick=48, channel=0, data=[78, 0]),\r\n",
      "   midi.NoteOnEvent(tick=0, channel=0, data=[79, 100]),\r\n",
      "   midi.NoteOnEvent(tick=48, channel=0, data=[79, 0]),\r\n",
      "   midi.NoteOnEvent(tick=0, channel=0, data=[78, 100]),\r\n",
      "   midi.NoteOnEvent(tick=96, channel=0, data=[78, 0]),\r\n",
      "   midi.NoteOnEvent(tick=0, channel=0, data=[79, 100]),\r\n",
      "   midi.NoteOnEvent(tick=96, channel=0, data=[79, 0]),\r\n",
      "   midi.NoteOnEvent(tick=0, channel=0, data=[81, 100]),\r\n",
      "   midi.NoteOnEvent(tick=96, channel=0, data=[81, 0]),\r\n",
      "   midi.NoteOnEvent(tick=0, channel=0, data=[79, 100]),\r\n",
      "   midi.NoteOnEvent(tick=96, channel=0, data=[79, 0]),\r\n",
      "   midi.NoteOnEvent(tick=0, channel=0, data=[78, 100]),\r\n",
      "   midi.NoteOnEvent(tick=96, channel=0, data=[78, 0]),\r\n",
      "   midi.NoteOnEvent(tick=0, channel=0, data=[81, 100]),\r\n",
      "   midi.NoteOnEvent(tick=96, channel=0, data=[81, 0]),\r\n",
      "   midi.NoteOnEvent(tick=0, channel=0, data=[76, 100]),\r\n",
      "   midi.NoteOnEvent(tick=96, channel=0, data=[76, 0]),\r\n",
      "   midi.NoteOnEvent(tick=0, channel=0, data=[81, 100]),\r\n",
      "   midi.NoteOnEvent(tick=96, channel=0, data=[81, 0]),\r\n",
      "   midi.NoteOnEvent(tick=0, channel=0, data=[75, 100]),\r\n",
      "   midi.NoteOnEvent(tick=96, channel=0, data=[75, 0]),\r\n",
      "   midi.NoteOnEvent(tick=0, channel=0, data=[76, 100]),\r\n",
      "   midi.NoteOnEvent(tick=96, channel=0, data=[76, 0]),\r\n",
      "   midi.NoteOnEvent(tick=0, channel=0, data=[78, 100]),\r\n",
      "   midi.NoteOnEvent(tick=96, channel=0, data=[78, 0]),\r\n",
      "   midi.NoteOnEvent(tick=0, channel=0, data=[76, 100]),\r\n",
      "   midi.NoteOnEvent(tick=96, channel=0, data=[76, 0]),\r\n",
      "   midi.NoteOnEvent(tick=0, channel=0, data=[75, 100]),\r\n",
      "   midi.NoteOnEvent(tick=96, channel=0, data=[75, 0]),\r\n",
      "   midi.NoteOnEvent(tick=0, channel=0, data=[78, 100]),\r\n",
      "   midi.NoteOnEvent(tick=96, channel=0, data=[78, 0]),\r\n",
      "   midi.NoteOnEvent(tick=0, channel=0, data=[72, 100]),\r\n",
      "   midi.NoteOnEvent(tick=96, channel=0, data=[72, 0]),\r\n",
      "   midi.NoteOnEvent(tick=0, channel=0, data=[78, 100]),\r\n",
      "   midi.NoteOnEvent(tick=96, channel=0, data=[78, 0]),\r\n",
      "   midi.NoteOnEvent(tick=0, channel=0, data=[69, 100]),\r\n",
      "   midi.NoteOnEvent(tick=96, channel=0, data=[69, 0]),\r\n",
      "   midi.NoteOnEvent(tick=0, channel=0, data=[71, 100]),\r\n",
      "   midi.NoteOnEvent(tick=96, channel=0, data=[71, 0]),\r\n",
      "   midi.NoteOnEvent(tick=0, channel=0, data=[72, 100]),\r\n",
      "   midi.NoteOnEvent(tick=96, channel=0, data=[72, 0]),\r\n",
      "   midi.NoteOnEvent(tick=0, channel=0, data=[71, 100]),\r\n",
      "   midi.NoteOnEvent(tick=96, channel=0, data=[71, 0]),\r\n",
      "   midi.NoteOnEvent(tick=0, channel=0, data=[69, 100]),\r\n",
      "   midi.NoteOnEvent(tick=96, channel=0, data=[69, 0]),\r\n",
      "   midi.NoteOnEvent(tick=0, channel=0, data=[72, 100]),\r\n",
      "   midi.NoteOnEvent(tick=96, channel=0, data=[72, 0]),\r\n",
      "   midi.NoteOnEvent(tick=0, channel=0, data=[67, 100]),\r\n",
      "   midi.NoteOnEvent(tick=96, channel=0, data=[67, 0]),\r\n",
      "   midi.NoteOnEvent(tick=0, channel=0, data=[72, 100]),\r\n",
      "   midi.NoteOnEvent(tick=96, channel=0, data=[72, 0]),\r\n",
      "   midi.NoteOnEvent(tick=0, channel=0, data=[66, 100]),\r\n",
      "   midi.NoteOnEvent(tick=96, channel=0, data=[66, 0]),\r\n",
      "   midi.NoteOnEvent(tick=0, channel=0, data=[67, 100]),\r\n",
      "   midi.NoteOnEvent(tick=96, channel=0, data=[67, 0]),\r\n",
      "   midi.NoteOnEvent(tick=0, channel=0, data=[69, 100]),\r\n",
      "   midi.NoteOnEvent(tick=96, channel=0, data=[69, 0]),\r\n",
      "   midi.NoteOnEvent(tick=0, channel=0, data=[67, 100]),\r\n",
      "   midi.NoteOnEvent(tick=96, channel=0, data=[67, 0]),\r\n",
      "   midi.NoteOnEvent(tick=0, channel=0, data=[66, 100]),\r\n",
      "   midi.NoteOnEvent(tick=96, channel=0, data=[66, 0]),\r\n",
      "   midi.NoteOnEvent(tick=0, channel=0, data=[69, 100]),\r\n",
      "   midi.NoteOnEvent(tick=96, channel=0, data=[69, 0]),\r\n",
      "   midi.NoteOnEvent(tick=0, channel=0, data=[64, 100]),\r\n",
      "   midi.NoteOnEvent(tick=96, channel=0, data=[64, 0]),\r\n",
      "   midi.NoteOnEvent(tick=0, channel=0, data=[69, 100]),\r\n",
      "   midi.NoteOnEvent(tick=96, channel=0, data=[69, 0]),\r\n",
      "   midi.NoteOnEvent(tick=0, channel=0, data=[63, 100]),\r\n",
      "   midi.NoteOnEvent(tick=96, channel=0, data=[63, 0]),\r\n",
      "   midi.NoteOnEvent(tick=0, channel=0, data=[69, 100]),\r\n",
      "   midi.NoteOnEvent(tick=96, channel=0, data=[69, 0]),\r\n",
      "   midi.NoteOnEvent(tick=0, channel=0, data=[59, 100]),\r\n",
      "   midi.NoteOnEvent(tick=96, channel=0, data=[59, 0]),\r\n",
      "   midi.NoteOnEvent(tick=0, channel=0, data=[61, 100]),\r\n",
      "   midi.NoteOnEvent(tick=96, channel=0, data=[61, 0]),\r\n",
      "   midi.NoteOnEvent(tick=0, channel=0, data=[63, 100]),\r\n",
      "   midi.NoteOnEvent(tick=96, channel=0, data=[63, 0]),\r\n",
      "   midi.NoteOnEvent(tick=0, channel=0, data=[64, 100]),\r\n",
      "   midi.NoteOnEvent(tick=96, channel=0, data=[64, 0]),\r\n",
      "   midi.NoteOnEvent(tick=0, channel=0, data=[66, 100]),\r\n",
      "   midi.NoteOnEvent(tick=96, channel=0, data=[66, 0]),\r\n",
      "   midi.NoteOnEvent(tick=0, channel=0, data=[67, 100]),\r\n",
      "   midi.NoteOnEvent(tick=96, channel=0, data=[67, 0]),\r\n",
      "   midi.NoteOnEvent(tick=0, channel=0, data=[69, 100]),\r\n",
      "   midi.NoteOnEvent(tick=96, channel=0, data=[69, 0]),\r\n",
      "   midi.NoteOnEvent(tick=0, channel=0, data=[71, 100]),\r\n",
      "   midi.NoteOnEvent(tick=96, channel=0, data=[71, 0]),\r\n",
      "   midi.NoteOnEvent(tick=0, channel=0, data=[73, 100]),\r\n",
      "   midi.NoteOnEvent(tick=96, channel=0, data=[73, 0]),\r\n",
      "   midi.NoteOnEvent(tick=0, channel=0, data=[75, 100]),\r\n",
      "   midi.NoteOnEvent(tick=96, channel=0, data=[75, 0]),\r\n",
      "   midi.NoteOnEvent(tick=0, channel=0, data=[76, 100]),\r\n",
      "   midi.NoteOnEvent(tick=96, channel=0, data=[76, 0]),\r\n",
      "   midi.NoteOnEvent(tick=0, channel=0, data=[78, 100]),\r\n",
      "   midi.NoteOnEvent(tick=96, channel=0, data=[78, 0]),\r\n",
      "   midi.NoteOnEvent(tick=0, channel=0, data=[79, 100]),\r\n",
      "   midi.NoteOnEvent(tick=96, channel=0, data=[79, 0]),\r\n",
      "   midi.NoteOnEvent(tick=0, channel=0, data=[81, 100]),\r\n",
      "   midi.NoteOnEvent(tick=96, channel=0, data=[81, 0]),\r\n",
      "   midi.NoteOnEvent(tick=0, channel=0, data=[83, 100]),\r\n",
      "   midi.NoteOnEvent(tick=192, channel=0, data=[83, 0]),\r\n",
      "   midi.NoteOnEvent(tick=0, channel=0, data=[76, 100]),\r\n",
      "   midi.NoteOnEvent(tick=192, channel=0, data=[76, 0]),\r\n",
      "   midi.NoteOnEvent(tick=0, channel=0, data=[78, 100]),\r\n",
      "   midi.NoteOnEvent(tick=192, channel=0, data=[78, 0]),\r\n",
      "   midi.NoteOnEvent(tick=0, channel=0, data=[75, 100]),\r\n",
      "   midi.NoteOnEvent(tick=192, channel=0, data=[75, 0]),\r\n",
      "   midi.NoteOnEvent(tick=0, channel=0, data=[76, 100]),\r\n",
      "   midi.NoteOnEvent(tick=96, channel=0, data=[76, 0]),\r\n",
      "   midi.NoteOnEvent(tick=0, channel=0, data=[74, 100]),\r\n",
      "   midi.NoteOnEvent(tick=96, channel=0, data=[74, 0]),\r\n",
      "   midi.NoteOnEvent(tick=0, channel=0, data=[72, 100]),\r\n",
      "   midi.NoteOnEvent(tick=96, channel=0, data=[72, 0]),\r\n",
      "   midi.NoteOnEvent(tick=0, channel=0, data=[71, 100]),\r\n",
      "   midi.NoteOnEvent(tick=96, channel=0, data=[71, 0]),\r\n",
      "   midi.NoteOnEvent(tick=0, channel=0, data=[69, 100]),\r\n",
      "   midi.NoteOnEvent(tick=192, channel=0, data=[69, 0]),\r\n",
      "   midi.NoteOnEvent(tick=0, channel=0, data=[69, 100]),\r\n",
      "   midi.NoteOnEvent(tick=192, channel=0, data=[69, 0]),\r\n",
      "   midi.NoteOnEvent(tick=0, channel=0, data=[69, 100]),\r\n",
      "   midi.NoteOnEvent(tick=96, channel=0, data=[69, 0]),\r\n",
      "   midi.NoteOnEvent(tick=0, channel=0, data=[71, 100]),\r\n",
      "   midi.NoteOnEvent(tick=96, channel=0, data=[71, 0]),\r\n",
      "   midi.NoteOnEvent(tick=0, channel=0, data=[72, 100]),\r\n",
      "   midi.NoteOnEvent(tick=288, channel=0, data=[72, 0]),\r\n",
      "   midi.NoteOnEvent(tick=0, channel=0, data=[71, 100]),\r\n",
      "   midi.NoteOnEvent(tick=96, channel=0, data=[71, 0]),\r\n",
      "   midi.NoteOnEvent(tick=0, channel=0, data=[69, 100]),\r\n",
      "   midi.NoteOnEvent(tick=96, channel=0, data=[69, 0]),\r\n",
      "   midi.NoteOnEvent(tick=0, channel=0, data=[67, 100]),\r\n",
      "   midi.NoteOnEvent(tick=96, channel=0, data=[67, 0]),\r\n",
      "   midi.NoteOnEvent(tick=0, channel=0, data=[66, 100]),\r\n",
      "   midi.NoteOnEvent(tick=96, channel=0, data=[66, 0]),\r\n",
      "   midi.NoteOnEvent(tick=0, channel=0, data=[67, 100]),\r\n",
      "   midi.NoteOnEvent(tick=96, channel=0, data=[67, 0]),\r\n",
      "   midi.NoteOnEvent(tick=0, channel=0, data=[69, 100]),\r\n",
      "   midi.NoteOnEvent(tick=288, channel=0, data=[69, 0]),\r\n",
      "   midi.NoteOnEvent(tick=0, channel=0, data=[67, 100]),\r\n",
      "   midi.NoteOnEvent(tick=96, channel=0, data=[67, 0]),\r\n",
      "   midi.NoteOnEvent(tick=0, channel=0, data=[66, 100]),\r\n",
      "   midi.NoteOnEvent(tick=96, channel=0, data=[66, 0]),\r\n",
      "   midi.NoteOnEvent(tick=0, channel=0, data=[64, 100]),\r\n",
      "   midi.NoteOnEvent(tick=96, channel=0, data=[64, 0]),\r\n",
      "   midi.NoteOnEvent(tick=0, channel=0, data=[63, 100]),\r\n",
      "   midi.NoteOnEvent(tick=192, channel=0, data=[63, 0]),\r\n",
      "   midi.NoteOnEvent(tick=0, channel=0, data=[71, 100]),\r\n",
      "   midi.NoteOnEvent(tick=192, channel=0, data=[71, 0]),\r\n",
      "   midi.NoteOnEvent(tick=0, channel=0, data=[67, 100]),\r\n",
      "   midi.NoteOnEvent(tick=48, channel=0, data=[67, 0]),\r\n",
      "   midi.NoteOnEvent(tick=0, channel=0, data=[69, 100]),\r\n",
      "   midi.NoteOnEvent(tick=48, channel=0, data=[69, 0]),\r\n",
      "   midi.NoteOnEvent(tick=0, channel=0, data=[67, 100]),\r\n",
      "   midi.NoteOnEvent(tick=48, channel=0, data=[67, 0]),\r\n",
      "   midi.NoteOnEvent(tick=0, channel=0, data=[69, 100]),\r\n",
      "   midi.NoteOnEvent(tick=48, channel=0, data=[69, 0]),\r\n",
      "   midi.NoteOnEvent(tick=0, channel=0, data=[66, 100]),\r\n",
      "   midi.NoteOnEvent(tick=96, channel=0, data=[66, 0]),\r\n",
      "   midi.NoteOnEvent(tick=0, channel=0, data=[64, 100]),\r\n",
      "   midi.NoteOnEvent(tick=96, channel=0, data=[64, 0]),\r\n",
      "   midi.NoteOnEvent(tick=0, channel=0, data=[64, 100]),\r\n",
      "   midi.NoteOnEvent(tick=384, channel=0, data=[64, 0]),\r\n",
      "   midi.NoteOnEvent(tick=96, channel=0, data=[71, 100]),\r\n",
      "   midi.NoteOnEvent(tick=96, channel=0, data=[71, 0]),\r\n",
      "   midi.NoteOnEvent(tick=0, channel=0, data=[69, 100]),\r\n",
      "   midi.NoteOnEvent(tick=96, channel=0, data=[69, 0]),\r\n",
      "   midi.NoteOnEvent(tick=0, channel=0, data=[71, 100]),\r\n",
      "   midi.NoteOnEvent(tick=96, channel=0, data=[71, 0]),\r\n",
      "   midi.NoteOnEvent(tick=0, channel=0, data=[76, 100]),\r\n",
      "   midi.NoteOnEvent(tick=96, channel=0, data=[76, 0]),\r\n",
      "   midi.NoteOnEvent(tick=0, channel=0, data=[75, 100]),\r\n",
      "   midi.NoteOnEvent(tick=96, channel=0, data=[75, 0]),\r\n",
      "   midi.NoteOnEvent(tick=0, channel=0, data=[76, 100]),\r\n",
      "   midi.NoteOnEvent(tick=288, channel=0, data=[76, 0]),\r\n",
      "   midi.NoteOnEvent(tick=0, channel=0, data=[71, 100]),\r\n",
      "   midi.NoteOnEvent(tick=96, channel=0, data=[71, 0]),\r\n",
      "   midi.NoteOnEvent(tick=0, channel=0, data=[69, 100]),\r\n",
      "   midi.NoteOnEvent(tick=96, channel=0, data=[69, 0]),\r\n",
      "   midi.NoteOnEvent(tick=0, channel=0, data=[71, 100]),\r\n",
      "   midi.NoteOnEvent(tick=96, channel=0, data=[71, 0]),\r\n",
      "   midi.NoteOnEvent(tick=0, channel=0, data=[79, 100]),\r\n",
      "   midi.NoteOnEvent(tick=192, channel=0, data=[79, 0]),\r\n",
      "   midi.NoteOnEvent(tick=0, channel=0, data=[78, 100]),\r\n",
      "   midi.NoteOnEvent(tick=288, channel=0, data=[78, 0]),\r\n",
      "   midi.NoteOnEvent(tick=0, channel=0, data=[71, 100]),\r\n",
      "   midi.NoteOnEvent(tick=96, channel=0, data=[71, 0]),\r\n",
      "   midi.NoteOnEvent(tick=0, channel=0, data=[69, 100]),\r\n",
      "   midi.NoteOnEvent(tick=96, channel=0, data=[69, 0]),\r\n",
      "   midi.NoteOnEvent(tick=0, channel=0, data=[71, 100]),\r\n",
      "   midi.NoteOnEvent(tick=96, channel=0, data=[71, 0]),\r\n",
      "   midi.NoteOnEvent(tick=0, channel=0, data=[78, 100]),\r\n",
      "   midi.NoteOnEvent(tick=96, channel=0, data=[78, 0]),\r\n",
      "   midi.NoteOnEvent(tick=0, channel=0, data=[76, 100]),\r\n",
      "   midi.NoteOnEvent(tick=96, channel=0, data=[76, 0]),\r\n",
      "   midi.NoteOnEvent(tick=0, channel=0, data=[78, 100]),\r\n",
      "   midi.NoteOnEvent(tick=288, channel=0, data=[78, 0]),\r\n",
      "   midi.NoteOnEvent(tick=0, channel=0, data=[71, 100]),\r\n",
      "   midi.NoteOnEvent(tick=96, channel=0, data=[71, 0]),\r\n",
      "   midi.NoteOnEvent(tick=0, channel=0, data=[69, 100]),\r\n",
      "   midi.NoteOnEvent(tick=96, channel=0, data=[69, 0]),\r\n",
      "   midi.NoteOnEvent(tick=0, channel=0, data=[71, 100]),\r\n",
      "   midi.NoteOnEvent(tick=96, channel=0, data=[71, 0]),\r\n",
      "   midi.NoteOnEvent(tick=0, channel=0, data=[81, 100]),\r\n",
      "   midi.NoteOnEvent(tick=192, channel=0, data=[81, 0]),\r\n",
      "   midi.NoteOnEvent(tick=0, channel=0, data=[79, 100]),\r\n",
      "   midi.NoteOnEvent(tick=288, channel=0, data=[79, 0]),\r\n",
      "   midi.NoteOnEvent(tick=0, channel=0, data=[76, 100]),\r\n",
      "   midi.NoteOnEvent(tick=96, channel=0, data=[76, 0]),\r\n",
      "   midi.NoteOnEvent(tick=0, channel=0, data=[75, 100]),\r\n",
      "   midi.NoteOnEvent(tick=96, channel=0, data=[75, 0]),\r\n",
      "   midi.NoteOnEvent(tick=0, channel=0, data=[76, 100]),\r\n",
      "   midi.NoteOnEvent(tick=96, channel=0, data=[76, 0]),\r\n",
      "   midi.NoteOnEvent(tick=0, channel=0, data=[78, 100]),\r\n",
      "   midi.NoteOnEvent(tick=96, channel=0, data=[78, 0]),\r\n",
      "   midi.NoteOnEvent(tick=0, channel=0, data=[76, 100]),\r\n",
      "   midi.NoteOnEvent(tick=96, channel=0, data=[76, 0]),\r\n",
      "   midi.NoteOnEvent(tick=0, channel=0, data=[75, 100]),\r\n",
      "   midi.NoteOnEvent(tick=96, channel=0, data=[75, 0]),\r\n",
      "   midi.NoteOnEvent(tick=0, channel=0, data=[76, 100]),\r\n",
      "   midi.NoteOnEvent(tick=96, channel=0, data=[76, 0]),\r\n",
      "   midi.NoteOnEvent(tick=0, channel=0, data=[80, 100]),\r\n",
      "   midi.NoteOnEvent(tick=96, channel=0, data=[80, 0]),\r\n",
      "   midi.NoteOnEvent(tick=0, channel=0, data=[76, 100]),\r\n",
      "   midi.NoteOnEvent(tick=96, channel=0, data=[76, 0]),\r\n",
      "   midi.NoteOnEvent(tick=0, channel=0, data=[75, 100]),\r\n",
      "   midi.NoteOnEvent(tick=96, channel=0, data=[75, 0]),\r\n",
      "   midi.NoteOnEvent(tick=0, channel=0, data=[76, 100]),\r\n",
      "   midi.NoteOnEvent(tick=96, channel=0, data=[76, 0]),\r\n",
      "   midi.NoteOnEvent(tick=0, channel=0, data=[81, 100]),\r\n",
      "   midi.NoteOnEvent(tick=96, channel=0, data=[81, 0]),\r\n",
      "   midi.NoteOnEvent(tick=0, channel=0, data=[76, 100]),\r\n",
      "   midi.NoteOnEvent(tick=96, channel=0, data=[76, 0]),\r\n",
      "   midi.NoteOnEvent(tick=0, channel=0, data=[75, 100]),\r\n",
      "   midi.NoteOnEvent(tick=96, channel=0, data=[75, 0]),\r\n",
      "   midi.NoteOnEvent(tick=0, channel=0, data=[76, 100]),\r\n",
      "   midi.NoteOnEvent(tick=96, channel=0, data=[76, 0]),\r\n",
      "   midi.NoteOnEvent(tick=0, channel=0, data=[83, 100]),\r\n",
      "   midi.NoteOnEvent(tick=96, channel=0, data=[83, 0]),\r\n",
      "   midi.NoteOnEvent(tick=0, channel=0, data=[76, 100]),\r\n",
      "   midi.NoteOnEvent(tick=96, channel=0, data=[76, 0]),\r\n",
      "   midi.NoteOnEvent(tick=0, channel=0, data=[75, 100]),\r\n",
      "   midi.NoteOnEvent(tick=96, channel=0, data=[75, 0]),\r\n",
      "   midi.NoteOnEvent(tick=0, channel=0, data=[76, 100]),\r\n",
      "   midi.NoteOnEvent(tick=96, channel=0, data=[76, 0]),\r\n",
      "   midi.NoteOnEvent(tick=0, channel=0, data=[84, 100]),\r\n",
      "   midi.NoteOnEvent(tick=96, channel=0, data=[84, 0]),\r\n",
      "   midi.NoteOnEvent(tick=0, channel=0, data=[69, 100]),\r\n",
      "   midi.NoteOnEvent(tick=96, channel=0, data=[69, 0]),\r\n",
      "   midi.NoteOnEvent(tick=0, channel=0, data=[68, 100]),\r\n",
      "   midi.NoteOnEvent(tick=96, channel=0, data=[68, 0]),\r\n",
      "   midi.NoteOnEvent(tick=0, channel=0, data=[69, 100]),\r\n",
      "   midi.NoteOnEvent(tick=96, channel=0, data=[69, 0]),\r\n",
      "   midi.NoteOnEvent(tick=0, channel=0, data=[73, 100]),\r\n",
      "   midi.NoteOnEvent(tick=96, channel=0, data=[73, 0]),\r\n",
      "   midi.NoteOnEvent(tick=0, channel=0, data=[69, 100]),\r\n",
      "   midi.NoteOnEvent(tick=96, channel=0, data=[69, 0]),\r\n",
      "   midi.NoteOnEvent(tick=0, channel=0, data=[68, 100]),\r\n",
      "   midi.NoteOnEvent(tick=96, channel=0, data=[68, 0]),\r\n",
      "   midi.NoteOnEvent(tick=0, channel=0, data=[69, 100]),\r\n",
      "   midi.NoteOnEvent(tick=96, channel=0, data=[69, 0]),\r\n",
      "   midi.NoteOnEvent(tick=0, channel=0, data=[74, 100]),\r\n",
      "   midi.NoteOnEvent(tick=96, channel=0, data=[74, 0]),\r\n",
      "   midi.NoteOnEvent(tick=0, channel=0, data=[69, 100]),\r\n",
      "   midi.NoteOnEvent(tick=96, channel=0, data=[69, 0]),\r\n",
      "   midi.NoteOnEvent(tick=0, channel=0, data=[68, 100]),\r\n",
      "   midi.NoteOnEvent(tick=96, channel=0, data=[68, 0]),\r\n",
      "   midi.NoteOnEvent(tick=0, channel=0, data=[69, 100]),\r\n",
      "   midi.NoteOnEvent(tick=96, channel=0, data=[69, 0]),\r\n",
      "   midi.NoteOnEvent(tick=0, channel=0, data=[76, 100]),\r\n",
      "   midi.NoteOnEvent(tick=96, channel=0, data=[76, 0]),\r\n",
      "   midi.NoteOnEvent(tick=0, channel=0, data=[69, 100]),\r\n",
      "   midi.NoteOnEvent(tick=96, channel=0, data=[69, 0]),\r\n",
      "   midi.NoteOnEvent(tick=0, channel=0, data=[68, 100]),\r\n",
      "   midi.NoteOnEvent(tick=96, channel=0, data=[68, 0]),\r\n",
      "   midi.NoteOnEvent(tick=0, channel=0, data=[69, 100]),\r\n",
      "   midi.NoteOnEvent(tick=96, channel=0, data=[69, 0]),\r\n",
      "   midi.NoteOnEvent(tick=0, channel=0, data=[77, 100]),\r\n",
      "   midi.NoteOnEvent(tick=96, channel=0, data=[77, 0]),\r\n",
      "   midi.NoteOnEvent(tick=0, channel=0, data=[62, 100]),\r\n",
      "   midi.NoteOnEvent(tick=96, channel=0, data=[62, 0]),\r\n",
      "   midi.NoteOnEvent(tick=0, channel=0, data=[61, 100]),\r\n",
      "   midi.NoteOnEvent(tick=96, channel=0, data=[61, 0]),\r\n",
      "   midi.NoteOnEvent(tick=0, channel=0, data=[62, 100]),\r\n",
      "   midi.NoteOnEvent(tick=96, channel=0, data=[62, 0]),\r\n",
      "   midi.NoteOnEvent(tick=0, channel=0, data=[66, 100]),\r\n",
      "   midi.NoteOnEvent(tick=96, channel=0, data=[66, 0]),\r\n",
      "   midi.NoteOnEvent(tick=0, channel=0, data=[62, 100]),\r\n",
      "   midi.NoteOnEvent(tick=96, channel=0, data=[62, 0]),\r\n",
      "   midi.NoteOnEvent(tick=0, channel=0, data=[61, 100]),\r\n",
      "   midi.NoteOnEvent(tick=96, channel=0, data=[61, 0]),\r\n",
      "   midi.NoteOnEvent(tick=0, channel=0, data=[62, 100]),\r\n",
      "   midi.NoteOnEvent(tick=96, channel=0, data=[62, 0]),\r\n",
      "   midi.NoteOnEvent(tick=0, channel=0, data=[67, 100]),\r\n",
      "   midi.NoteOnEvent(tick=96, channel=0, data=[67, 0]),\r\n",
      "   midi.NoteOnEvent(tick=0, channel=0, data=[62, 100]),\r\n",
      "   midi.NoteOnEvent(tick=96, channel=0, data=[62, 0]),\r\n",
      "   midi.NoteOnEvent(tick=0, channel=0, data=[61, 100]),\r\n",
      "   midi.NoteOnEvent(tick=96, channel=0, data=[61, 0]),\r\n",
      "   midi.NoteOnEvent(tick=0, channel=0, data=[62, 100]),\r\n",
      "   midi.NoteOnEvent(tick=96, channel=0, data=[62, 0]),\r\n",
      "   midi.NoteOnEvent(tick=0, channel=0, data=[69, 100]),\r\n",
      "   midi.NoteOnEvent(tick=96, channel=0, data=[69, 0]),\r\n",
      "   midi.NoteOnEvent(tick=0, channel=0, data=[62, 100]),\r\n",
      "   midi.NoteOnEvent(tick=96, channel=0, data=[62, 0]),\r\n",
      "   midi.NoteOnEvent(tick=0, channel=0, data=[61, 100]),\r\n",
      "   midi.NoteOnEvent(tick=96, channel=0, data=[61, 0]),\r\n",
      "   midi.NoteOnEvent(tick=0, channel=0, data=[62, 100]),\r\n",
      "   midi.NoteOnEvent(tick=96, channel=0, data=[62, 0]),\r\n",
      "   midi.NoteOnEvent(tick=0, channel=0, data=[71, 100]),\r\n",
      "   midi.NoteOnEvent(tick=96, channel=0, data=[71, 0]),\r\n",
      "   midi.NoteOnEvent(tick=0, channel=0, data=[67, 100]),\r\n",
      "   midi.NoteOnEvent(tick=96, channel=0, data=[67, 0]),\r\n",
      "   midi.NoteOnEvent(tick=0, channel=0, data=[66, 100]),\r\n",
      "   midi.NoteOnEvent(tick=96, channel=0, data=[66, 0]),\r\n",
      "   midi.NoteOnEvent(tick=0, channel=0, data=[67, 100]),\r\n",
      "   midi.NoteOnEvent(tick=96, channel=0, data=[67, 0]),\r\n",
      "   midi.NoteOnEvent(tick=0, channel=0, data=[71, 100]),\r\n",
      "   midi.NoteOnEvent(tick=96, channel=0, data=[71, 0]),\r\n",
      "   midi.NoteOnEvent(tick=0, channel=0, data=[67, 100]),\r\n",
      "   midi.NoteOnEvent(tick=96, channel=0, data=[67, 0]),\r\n",
      "   midi.NoteOnEvent(tick=0, channel=0, data=[66, 100]),\r\n",
      "   midi.NoteOnEvent(tick=96, channel=0, data=[66, 0]),\r\n",
      "   midi.NoteOnEvent(tick=0, channel=0, data=[67, 100]),\r\n",
      "   midi.NoteOnEvent(tick=96, channel=0, data=[67, 0]),\r\n",
      "   midi.NoteOnEvent(tick=0, channel=0, data=[72, 100]),\r\n",
      "   midi.NoteOnEvent(tick=96, channel=0, data=[72, 0]),\r\n",
      "   midi.NoteOnEvent(tick=0, channel=0, data=[67, 100]),\r\n",
      "   midi.NoteOnEvent(tick=96, channel=0, data=[67, 0]),\r\n",
      "   midi.NoteOnEvent(tick=0, channel=0, data=[66, 100]),\r\n",
      "   midi.NoteOnEvent(tick=96, channel=0, data=[66, 0]),\r\n",
      "   midi.NoteOnEvent(tick=0, channel=0, data=[67, 100]),\r\n",
      "   midi.NoteOnEvent(tick=96, channel=0, data=[67, 0]),\r\n",
      "   midi.NoteOnEvent(tick=0, channel=0, data=[74, 100]),\r\n",
      "   midi.NoteOnEvent(tick=96, channel=0, data=[74, 0]),\r\n",
      "   midi.NoteOnEvent(tick=0, channel=0, data=[67, 100]),\r\n",
      "   midi.NoteOnEvent(tick=96, channel=0, data=[67, 0]),\r\n",
      "   midi.NoteOnEvent(tick=0, channel=0, data=[66, 100]),\r\n",
      "   midi.NoteOnEvent(tick=96, channel=0, data=[66, 0]),\r\n",
      "   midi.NoteOnEvent(tick=0, channel=0, data=[67, 100]),\r\n",
      "   midi.NoteOnEvent(tick=96, channel=0, data=[67, 0]),\r\n",
      "   midi.NoteOnEvent(tick=0, channel=0, data=[76, 100]),\r\n",
      "   midi.NoteOnEvent(tick=96, channel=0, data=[76, 0]),\r\n",
      "   midi.NoteOnEvent(tick=0, channel=0, data=[72, 100]),\r\n",
      "   midi.NoteOnEvent(tick=96, channel=0, data=[72, 0]),\r\n",
      "   midi.NoteOnEvent(tick=0, channel=0, data=[71, 100]),\r\n",
      "   midi.NoteOnEvent(tick=96, channel=0, data=[71, 0]),\r\n",
      "   midi.NoteOnEvent(tick=0, channel=0, data=[72, 100]),\r\n",
      "   midi.NoteOnEvent(tick=96, channel=0, data=[72, 0]),\r\n",
      "   midi.NoteOnEvent(tick=0, channel=0, data=[76, 100]),\r\n",
      "   midi.NoteOnEvent(tick=96, channel=0, data=[76, 0]),\r\n",
      "   midi.NoteOnEvent(tick=0, channel=0, data=[72, 100]),\r\n",
      "   midi.NoteOnEvent(tick=96, channel=0, data=[72, 0]),\r\n",
      "   midi.NoteOnEvent(tick=0, channel=0, data=[71, 100]),\r\n",
      "   midi.NoteOnEvent(tick=96, channel=0, data=[71, 0]),\r\n",
      "   midi.NoteOnEvent(tick=0, channel=0, data=[72, 100]),\r\n",
      "   midi.NoteOnEvent(tick=96, channel=0, data=[72, 0]),\r\n",
      "   midi.NoteOnEvent(tick=0, channel=0, data=[77, 100]),\r\n",
      "   midi.NoteOnEvent(tick=96, channel=0, data=[77, 0]),\r\n",
      "   midi.NoteOnEvent(tick=0, channel=0, data=[72, 100]),\r\n",
      "   midi.NoteOnEvent(tick=96, channel=0, data=[72, 0]),\r\n",
      "   midi.NoteOnEvent(tick=0, channel=0, data=[71, 100]),\r\n",
      "   midi.NoteOnEvent(tick=96, channel=0, data=[71, 0]),\r\n",
      "   midi.NoteOnEvent(tick=0, channel=0, data=[72, 100]),\r\n",
      "   midi.NoteOnEvent(tick=96, channel=0, data=[72, 0]),\r\n",
      "   midi.NoteOnEvent(tick=0, channel=0, data=[79, 100]),\r\n",
      "   midi.NoteOnEvent(tick=96, channel=0, data=[79, 0]),\r\n",
      "   midi.NoteOnEvent(tick=0, channel=0, data=[72, 100]),\r\n",
      "   midi.NoteOnEvent(tick=96, channel=0, data=[72, 0]),\r\n",
      "   midi.NoteOnEvent(tick=0, channel=0, data=[71, 100]),\r\n",
      "   midi.NoteOnEvent(tick=96, channel=0, data=[71, 0]),\r\n",
      "   midi.NoteOnEvent(tick=0, channel=0, data=[72, 100]),\r\n",
      "   midi.NoteOnEvent(tick=96, channel=0, data=[72, 0]),\r\n",
      "   midi.NoteOnEvent(tick=0, channel=0, data=[81, 100]),\r\n",
      "   midi.NoteOnEvent(tick=96, channel=0, data=[81, 0]),\r\n",
      "   midi.NoteOnEvent(tick=0, channel=0, data=[82, 100]),\r\n",
      "   midi.NoteOnEvent(tick=96, channel=0, data=[82, 0]),\r\n",
      "   midi.NoteOnEvent(tick=0, channel=0, data=[81, 100]),\r\n",
      "   midi.NoteOnEvent(tick=96, channel=0, data=[81, 0]),\r\n",
      "   midi.NoteOnEvent(tick=0, channel=0, data=[79, 100]),\r\n",
      "   midi.NoteOnEvent(tick=96, channel=0, data=[79, 0]),\r\n",
      "   midi.NoteOnEvent(tick=0, channel=0, data=[77, 100]),\r\n",
      "   midi.NoteOnEvent(tick=96, channel=0, data=[77, 0]),\r\n",
      "   midi.NoteOnEvent(tick=0, channel=0, data=[76, 100]),\r\n",
      "   midi.NoteOnEvent(tick=96, channel=0, data=[76, 0]),\r\n",
      "   midi.NoteOnEvent(tick=0, channel=0, data=[74, 100]),\r\n",
      "   midi.NoteOnEvent(tick=96, channel=0, data=[74, 0]),\r\n",
      "   midi.NoteOnEvent(tick=0, channel=0, data=[72, 100]),\r\n",
      "   midi.NoteOnEvent(tick=96, channel=0, data=[72, 0]),\r\n",
      "   midi.NoteOnEvent(tick=0, channel=0, data=[70, 100]),\r\n",
      "   midi.NoteOnEvent(tick=96, channel=0, data=[70, 0]),\r\n",
      "   midi.NoteOnEvent(tick=0, channel=0, data=[69, 100]),\r\n",
      "   midi.NoteOnEvent(tick=96, channel=0, data=[69, 0]),\r\n",
      "   midi.NoteOnEvent(tick=0, channel=0, data=[70, 100]),\r\n",
      "   midi.NoteOnEvent(tick=96, channel=0, data=[70, 0]),\r\n",
      "   midi.NoteOnEvent(tick=0, channel=0, data=[81, 100]),\r\n",
      "   midi.NoteOnEvent(tick=96, channel=0, data=[81, 0]),\r\n",
      "   midi.NoteOnEvent(tick=0, channel=0, data=[79, 100]),\r\n",
      "   midi.NoteOnEvent(tick=96, channel=0, data=[79, 0]),\r\n",
      "   midi.NoteOnEvent(tick=0, channel=0, data=[77, 100]),\r\n",
      "   midi.NoteOnEvent(tick=96, channel=0, data=[77, 0]),\r\n",
      "   midi.NoteOnEvent(tick=0, channel=0, data=[76, 100]),\r\n",
      "   midi.NoteOnEvent(tick=96, channel=0, data=[76, 0]),\r\n",
      "   midi.NoteOnEvent(tick=0, channel=0, data=[74, 100]),\r\n",
      "   midi.NoteOnEvent(tick=96, channel=0, data=[74, 0]),\r\n",
      "   midi.NoteOnEvent(tick=0, channel=0, data=[73, 100]),\r\n",
      "   midi.NoteOnEvent(tick=96, channel=0, data=[73, 0]),\r\n",
      "   midi.NoteOnEvent(tick=0, channel=0, data=[74, 100]),\r\n",
      "   midi.NoteOnEvent(tick=96, channel=0, data=[74, 0]),\r\n",
      "   midi.NoteOnEvent(tick=0, channel=0, data=[73, 100]),\r\n",
      "   midi.NoteOnEvent(tick=96, channel=0, data=[73, 0]),\r\n",
      "   midi.NoteOnEvent(tick=0, channel=0, data=[71, 100]),\r\n",
      "   midi.NoteOnEvent(tick=96, channel=0, data=[71, 0]),\r\n",
      "   midi.NoteOnEvent(tick=0, channel=0, data=[69, 100]),\r\n",
      "   midi.NoteOnEvent(tick=96, channel=0, data=[69, 0]),\r\n",
      "   midi.NoteOnEvent(tick=0, channel=0, data=[67, 100]),\r\n",
      "   midi.NoteOnEvent(tick=96, channel=0, data=[67, 0]),\r\n",
      "   midi.NoteOnEvent(tick=0, channel=0, data=[65, 100]),\r\n",
      "   midi.NoteOnEvent(tick=96, channel=0, data=[65, 0]),\r\n",
      "   midi.NoteOnEvent(tick=0, channel=0, data=[64, 100]),\r\n",
      "   midi.NoteOnEvent(tick=96, channel=0, data=[64, 0]),\r\n",
      "   midi.NoteOnEvent(tick=0, channel=0, data=[65, 100]),\r\n",
      "   midi.NoteOnEvent(tick=96, channel=0, data=[65, 0]),\r\n",
      "   midi.NoteOnEvent(tick=0, channel=0, data=[69, 100]),\r\n",
      "   midi.NoteOnEvent(tick=96, channel=0, data=[69, 0]),\r\n",
      "   midi.NoteOnEvent(tick=0, channel=0, data=[74, 100]),\r\n",
      "   midi.NoteOnEvent(tick=96, channel=0, data=[74, 0]),\r\n",
      "   midi.NoteOnEvent(tick=0, channel=0, data=[77, 100]),\r\n",
      "   midi.NoteOnEvent(tick=96, channel=0, data=[77, 0]),\r\n",
      "   midi.NoteOnEvent(tick=0, channel=0, data=[81, 100]),\r\n",
      "   midi.NoteOnEvent(tick=480, channel=0, data=[81, 0]),\r\n",
      "   midi.NoteOnEvent(tick=0, channel=0, data=[79, 100]),\r\n",
      "   midi.NoteOnEvent(tick=96, channel=0, data=[79, 0]),\r\n",
      "   midi.NoteOnEvent(tick=0, channel=0, data=[77, 100]),\r\n",
      "   midi.NoteOnEvent(tick=96, channel=0, data=[77, 0]),\r\n",
      "   midi.NoteOnEvent(tick=0, channel=0, data=[81, 100]),\r\n",
      "   midi.NoteOnEvent(tick=96, channel=0, data=[81, 0]),\r\n",
      "   midi.NoteOnEvent(tick=0, channel=0, data=[79, 100]),\r\n",
      "   midi.NoteOnEvent(tick=96, channel=0, data=[79, 0]),\r\n",
      "   midi.NoteOnEvent(tick=0, channel=0, data=[77, 100]),\r\n",
      "   midi.NoteOnEvent(tick=96, channel=0, data=[77, 0]),\r\n",
      "   midi.NoteOnEvent(tick=0, channel=0, data=[76, 100]),\r\n",
      "   midi.NoteOnEvent(tick=96, channel=0, data=[76, 0]),\r\n",
      "   midi.NoteOnEvent(tick=0, channel=0, data=[79, 100]),\r\n",
      "   midi.NoteOnEvent(tick=96, channel=0, data=[79, 0]),\r\n",
      "   midi.NoteOnEvent(tick=0, channel=0, data=[77, 100]),\r\n",
      "   midi.NoteOnEvent(tick=96, channel=0, data=[77, 0]),\r\n",
      "   midi.NoteOnEvent(tick=0, channel=0, data=[76, 100]),\r\n",
      "   midi.NoteOnEvent(tick=96, channel=0, data=[76, 0]),\r\n",
      "   midi.NoteOnEvent(tick=0, channel=0, data=[74, 100]),\r\n",
      "   midi.NoteOnEvent(tick=96, channel=0, data=[74, 0]),\r\n",
      "   midi.NoteOnEvent(tick=0, channel=0, data=[77, 100]),\r\n",
      "   midi.NoteOnEvent(tick=96, channel=0, data=[77, 0]),\r\n",
      "   midi.NoteOnEvent(tick=0, channel=0, data=[76, 100]),\r\n",
      "   midi.NoteOnEvent(tick=96, channel=0, data=[76, 0]),\r\n",
      "   midi.NoteOnEvent(tick=0, channel=0, data=[74, 100]),\r\n",
      "   midi.NoteOnEvent(tick=96, channel=0, data=[74, 0]),\r\n",
      "   midi.NoteOnEvent(tick=0, channel=0, data=[73, 100]),\r\n",
      "   midi.NoteOnEvent(tick=96, channel=0, data=[73, 0]),\r\n",
      "   midi.NoteOnEvent(tick=0, channel=0, data=[76, 100]),\r\n",
      "   midi.NoteOnEvent(tick=96, channel=0, data=[76, 0]),\r\n",
      "   midi.NoteOnEvent(tick=0, channel=0, data=[74, 100]),\r\n",
      "   midi.NoteOnEvent(tick=384, channel=0, data=[74, 0]),\r\n",
      "   midi.NoteOnEvent(tick=96, channel=0, data=[74, 100]),\r\n",
      "   midi.NoteOnEvent(tick=96, channel=0, data=[74, 0]),\r\n",
      "   midi.NoteOnEvent(tick=0, channel=0, data=[73, 100]),\r\n",
      "   midi.NoteOnEvent(tick=96, channel=0, data=[73, 0]),\r\n",
      "   midi.NoteOnEvent(tick=0, channel=0, data=[74, 100]),\r\n",
      "   midi.NoteOnEvent(tick=96, channel=0, data=[74, 0]),\r\n",
      "   midi.NoteOnEvent(tick=0, channel=0, data=[76, 100]),\r\n",
      "   midi.NoteOnEvent(tick=96, channel=0, data=[76, 0]),\r\n",
      "   midi.NoteOnEvent(tick=0, channel=0, data=[74, 100]),\r\n",
      "   midi.NoteOnEvent(tick=96, channel=0, data=[74, 0]),\r\n",
      "   midi.NoteOnEvent(tick=0, channel=0, data=[73, 100]),\r\n",
      "   midi.NoteOnEvent(tick=96, channel=0, data=[73, 0]),\r\n",
      "   midi.NoteOnEvent(tick=0, channel=0, data=[74, 100]),\r\n",
      "   midi.NoteOnEvent(tick=96, channel=0, data=[74, 0]),\r\n",
      "   midi.NoteOnEvent(tick=0, channel=0, data=[77, 100]),\r\n",
      "   midi.NoteOnEvent(tick=96, channel=0, data=[77, 0]),\r\n",
      "   midi.NoteOnEvent(tick=0, channel=0, data=[74, 100]),\r\n",
      "   midi.NoteOnEvent(tick=96, channel=0, data=[74, 0]),\r\n",
      "   midi.NoteOnEvent(tick=0, channel=0, data=[73, 100]),\r\n",
      "   midi.NoteOnEvent(tick=96, channel=0, data=[73, 0]),\r\n",
      "   midi.NoteOnEvent(tick=0, channel=0, data=[74, 100]),\r\n",
      "   midi.NoteOnEvent(tick=96, channel=0, data=[74, 0]),\r\n",
      "   midi.NoteOnEvent(tick=0, channel=0, data=[79, 100]),\r\n",
      "   midi.NoteOnEvent(tick=96, channel=0, data=[79, 0]),\r\n",
      "   midi.NoteOnEvent(tick=0, channel=0, data=[74, 100]),\r\n",
      "   midi.NoteOnEvent(tick=96, channel=0, data=[74, 0]),\r\n",
      "   midi.NoteOnEvent(tick=0, channel=0, data=[73, 100]),\r\n",
      "   midi.NoteOnEvent(tick=96, channel=0, data=[73, 0]),\r\n",
      "   midi.NoteOnEvent(tick=0, channel=0, data=[74, 100]),\r\n",
      "   midi.NoteOnEvent(tick=96, channel=0, data=[74, 0]),\r\n",
      "   midi.NoteOnEvent(tick=0, channel=0, data=[81, 100]),\r\n",
      "   midi.NoteOnEvent(tick=96, channel=0, data=[81, 0]),\r\n",
      "   midi.NoteOnEvent(tick=0, channel=0, data=[74, 100]),\r\n",
      "   midi.NoteOnEvent(tick=96, channel=0, data=[74, 0]),\r\n",
      "   midi.NoteOnEvent(tick=0, channel=0, data=[73, 100]),\r\n",
      "   midi.NoteOnEvent(tick=96, channel=0, data=[73, 0]),\r\n",
      "   midi.NoteOnEvent(tick=0, channel=0, data=[74, 100]),\r\n",
      "   midi.NoteOnEvent(tick=96, channel=0, data=[74, 0]),\r\n",
      "   midi.NoteOnEvent(tick=0, channel=0, data=[82, 100]),\r\n",
      "   midi.NoteOnEvent(tick=864, channel=0, data=[82, 0]),\r\n",
      "   midi.NoteOnEvent(tick=0, channel=0, data=[72, 100]),\r\n",
      "   midi.NoteOnEvent(tick=96, channel=0, data=[72, 0]),\r\n",
      "   midi.NoteOnEvent(tick=0, channel=0, data=[71, 100]),\r\n",
      "   midi.NoteOnEvent(tick=96, channel=0, data=[71, 0]),\r\n",
      "   midi.NoteOnEvent(tick=0, channel=0, data=[72, 100]),\r\n",
      "   midi.NoteOnEvent(tick=96, channel=0, data=[72, 0]),\r\n",
      "   midi.NoteOnEvent(tick=0, channel=0, data=[76, 100]),\r\n",
      "   midi.NoteOnEvent(tick=96, channel=0, data=[76, 0]),\r\n",
      "   midi.NoteOnEvent(tick=0, channel=0, data=[72, 100]),\r\n",
      "   midi.NoteOnEvent(tick=96, channel=0, data=[72, 0]),\r\n",
      "   midi.NoteOnEvent(tick=0, channel=0, data=[71, 100]),\r\n",
      "   midi.NoteOnEvent(tick=96, channel=0, data=[71, 0]),\r\n",
      "   midi.NoteOnEvent(tick=0, channel=0, data=[72, 100]),\r\n",
      "   midi.NoteOnEvent(tick=96, channel=0, data=[72, 0]),\r\n",
      "   midi.NoteOnEvent(tick=0, channel=0, data=[77, 100]),\r\n",
      "   midi.NoteOnEvent(tick=96, channel=0, data=[77, 0]),\r\n",
      "   midi.NoteOnEvent(tick=0, channel=0, data=[72, 100]),\r\n",
      "   midi.NoteOnEvent(tick=96, channel=0, data=[72, 0]),\r\n",
      "   midi.NoteOnEvent(tick=0, channel=0, data=[71, 100]),\r\n",
      "   midi.NoteOnEvent(tick=96, channel=0, data=[71, 0]),\r\n",
      "   midi.NoteOnEvent(tick=0, channel=0, data=[72, 100]),\r\n",
      "   midi.NoteOnEvent(tick=96, channel=0, data=[72, 0]),\r\n",
      "   midi.NoteOnEvent(tick=0, channel=0, data=[79, 100]),\r\n",
      "   midi.NoteOnEvent(tick=96, channel=0, data=[79, 0]),\r\n",
      "   midi.NoteOnEvent(tick=0, channel=0, data=[72, 100]),\r\n",
      "   midi.NoteOnEvent(tick=96, channel=0, data=[72, 0]),\r\n",
      "   midi.NoteOnEvent(tick=0, channel=0, data=[71, 100]),\r\n",
      "   midi.NoteOnEvent(tick=96, channel=0, data=[71, 0]),\r\n",
      "   midi.NoteOnEvent(tick=0, channel=0, data=[72, 100]),\r\n",
      "   midi.NoteOnEvent(tick=96, channel=0, data=[72, 0]),\r\n",
      "   midi.NoteOnEvent(tick=0, channel=0, data=[81, 100]),\r\n",
      "   midi.NoteOnEvent(tick=864, channel=0, data=[81, 0]),\r\n",
      "   midi.NoteOnEvent(tick=0, channel=0, data=[74, 100]),\r\n",
      "   midi.NoteOnEvent(tick=96, channel=0, data=[74, 0]),\r\n",
      "   midi.NoteOnEvent(tick=0, channel=0, data=[76, 100]),\r\n",
      "   midi.NoteOnEvent(tick=96, channel=0, data=[76, 0]),\r\n",
      "   midi.NoteOnEvent(tick=0, channel=0, data=[78, 100]),\r\n",
      "   midi.NoteOnEvent(tick=96, channel=0, data=[78, 0]),\r\n",
      "   midi.NoteOnEvent(tick=0, channel=0, data=[79, 100]),\r\n",
      "   midi.NoteOnEvent(tick=96, channel=0, data=[79, 0]),\r\n",
      "   midi.NoteOnEvent(tick=0, channel=0, data=[81, 100]),\r\n",
      "   midi.NoteOnEvent(tick=96, channel=0, data=[81, 0]),\r\n",
      "   midi.NoteOnEvent(tick=0, channel=0, data=[82, 100]),\r\n",
      "   midi.NoteOnEvent(tick=96, channel=0, data=[82, 0]),\r\n",
      "   midi.NoteOnEvent(tick=0, channel=0, data=[84, 100]),\r\n",
      "   midi.NoteOnEvent(tick=96, channel=0, data=[84, 0]),\r\n",
      "   midi.NoteOnEvent(tick=0, channel=0, data=[86, 100]),\r\n",
      "   midi.NoteOnEvent(tick=96, channel=0, data=[86, 0]),\r\n",
      "   midi.NoteOnEvent(tick=0, channel=0, data=[84, 100]),\r\n",
      "   midi.NoteOnEvent(tick=96, channel=0, data=[84, 0]),\r\n",
      "   midi.NoteOnEvent(tick=0, channel=0, data=[82, 100]),\r\n",
      "   midi.NoteOnEvent(tick=96, channel=0, data=[82, 0]),\r\n",
      "   midi.NoteOnEvent(tick=0, channel=0, data=[81, 100]),\r\n",
      "   midi.NoteOnEvent(tick=96, channel=0, data=[81, 0]),\r\n",
      "   midi.NoteOnEvent(tick=0, channel=0, data=[79, 100]),\r\n",
      "   midi.NoteOnEvent(tick=96, channel=0, data=[79, 0]),\r\n",
      "   midi.NoteOnEvent(tick=0, channel=0, data=[78, 100]),\r\n",
      "   midi.NoteOnEvent(tick=96, channel=0, data=[78, 0]),\r\n",
      "   midi.NoteOnEvent(tick=0, channel=0, data=[76, 100]),\r\n",
      "   midi.NoteOnEvent(tick=96, channel=0, data=[76, 0]),\r\n",
      "   midi.NoteOnEvent(tick=0, channel=0, data=[74, 100]),\r\n",
      "   midi.NoteOnEvent(tick=96, channel=0, data=[74, 0]),\r\n",
      "   midi.NoteOnEvent(tick=0, channel=0, data=[79, 100]),\r\n",
      "   midi.NoteOnEvent(tick=864, channel=0, data=[79, 0]),\r\n",
      "   midi.NoteOnEvent(tick=0, channel=0, data=[76, 100]),\r\n",
      "   midi.NoteOnEvent(tick=96, channel=0, data=[76, 0]),\r\n",
      "   midi.NoteOnEvent(tick=0, channel=0, data=[77, 100]),\r\n",
      "   midi.NoteOnEvent(tick=96, channel=0, data=[77, 0]),\r\n",
      "   midi.NoteOnEvent(tick=0, channel=0, data=[79, 100]),\r\n",
      "   midi.NoteOnEvent(tick=96, channel=0, data=[79, 0]),\r\n",
      "   midi.NoteOnEvent(tick=0, channel=0, data=[81, 100]),\r\n",
      "   midi.NoteOnEvent(tick=96, channel=0, data=[81, 0]),\r\n",
      "   midi.NoteOnEvent(tick=0, channel=0, data=[83, 100]),\r\n",
      "   midi.NoteOnEvent(tick=96, channel=0, data=[83, 0]),\r\n",
      "   midi.NoteOnEvent(tick=0, channel=0, data=[85, 100]),\r\n",
      "   midi.NoteOnEvent(tick=96, channel=0, data=[85, 0]),\r\n",
      "   midi.NoteOnEvent(tick=0, channel=0, data=[86, 100]),\r\n",
      "   midi.NoteOnEvent(tick=96, channel=0, data=[86, 0]),\r\n",
      "   midi.NoteOnEvent(tick=0, channel=0, data=[88, 100]),\r\n",
      "   midi.NoteOnEvent(tick=96, channel=0, data=[88, 0]),\r\n",
      "   midi.NoteOnEvent(tick=0, channel=0, data=[86, 100]),\r\n",
      "   midi.NoteOnEvent(tick=96, channel=0, data=[86, 0]),\r\n",
      "   midi.NoteOnEvent(tick=0, channel=0, data=[85, 100]),\r\n",
      "   midi.NoteOnEvent(tick=96, channel=0, data=[85, 0]),\r\n",
      "   midi.NoteOnEvent(tick=0, channel=0, data=[83, 100]),\r\n",
      "   midi.NoteOnEvent(tick=96, channel=0, data=[83, 0]),\r\n",
      "   midi.NoteOnEvent(tick=0, channel=0, data=[81, 100]),\r\n",
      "   midi.NoteOnEvent(tick=96, channel=0, data=[81, 0]),\r\n",
      "   midi.NoteOnEvent(tick=0, channel=0, data=[79, 100]),\r\n",
      "   midi.NoteOnEvent(tick=96, channel=0, data=[79, 0]),\r\n",
      "   midi.NoteOnEvent(tick=0, channel=0, data=[77, 100]),\r\n",
      "   midi.NoteOnEvent(tick=96, channel=0, data=[77, 0]),\r\n",
      "   midi.NoteOnEvent(tick=0, channel=0, data=[76, 100]),\r\n",
      "   midi.NoteOnEvent(tick=96, channel=0, data=[76, 0]),\r\n",
      "   midi.NoteOnEvent(tick=0, channel=0, data=[77, 100]),\r\n",
      "   midi.NoteOnEvent(tick=96, channel=0, data=[77, 0]),\r\n",
      "   midi.NoteOnEvent(tick=0, channel=0, data=[86, 100]),\r\n",
      "   midi.NoteOnEvent(tick=96, channel=0, data=[86, 0]),\r\n",
      "   midi.NoteOnEvent(tick=0, channel=0, data=[77, 100]),\r\n",
      "   midi.NoteOnEvent(tick=96, channel=0, data=[77, 0]),\r\n",
      "   midi.NoteOnEvent(tick=0, channel=0, data=[76, 100]),\r\n",
      "   midi.NoteOnEvent(tick=96, channel=0, data=[76, 0]),\r\n",
      "   midi.NoteOnEvent(tick=0, channel=0, data=[77, 100]),\r\n",
      "   midi.NoteOnEvent(tick=96, channel=0, data=[77, 0]),\r\n",
      "   midi.NoteOnEvent(tick=0, channel=0, data=[81, 100]),\r\n",
      "   midi.NoteOnEvent(tick=96, channel=0, data=[81, 0]),\r\n",
      "   midi.NoteOnEvent(tick=0, channel=0, data=[86, 100]),\r\n",
      "   midi.NoteOnEvent(tick=96, channel=0, data=[86, 0]),\r\n",
      "   midi.NoteOnEvent(tick=0, channel=0, data=[84, 100]),\r\n",
      "   midi.NoteOnEvent(tick=96, channel=0, data=[84, 0]),\r\n",
      "   midi.NoteOnEvent(tick=0, channel=0, data=[83, 100]),\r\n",
      "   midi.NoteOnEvent(tick=96, channel=0, data=[83, 0]),\r\n",
      "   midi.NoteOnEvent(tick=0, channel=0, data=[77, 100]),\r\n",
      "   midi.NoteOnEvent(tick=96, channel=0, data=[77, 0]),\r\n",
      "   midi.NoteOnEvent(tick=0, channel=0, data=[84, 100]),\r\n",
      "   midi.NoteOnEvent(tick=96, channel=0, data=[84, 0]),\r\n",
      "   midi.NoteOnEvent(tick=0, channel=0, data=[77, 100]),\r\n",
      "   midi.NoteOnEvent(tick=96, channel=0, data=[77, 0]),\r\n",
      "   midi.NoteOnEvent(tick=0, channel=0, data=[86, 100]),\r\n",
      "   midi.NoteOnEvent(tick=96, channel=0, data=[86, 0]),\r\n",
      "   midi.NoteOnEvent(tick=0, channel=0, data=[77, 100]),\r\n",
      "   midi.NoteOnEvent(tick=96, channel=0, data=[77, 0]),\r\n",
      "   midi.NoteOnEvent(tick=0, channel=0, data=[83, 100]),\r\n",
      "   midi.NoteOnEvent(tick=96, channel=0, data=[83, 0]),\r\n",
      "   midi.NoteOnEvent(tick=0, channel=0, data=[77, 100]),\r\n",
      "   midi.NoteOnEvent(tick=96, channel=0, data=[77, 0]),\r\n",
      "   midi.NoteOnEvent(tick=0, channel=0, data=[76, 100]),\r\n",
      "   midi.NoteOnEvent(tick=96, channel=0, data=[76, 0]),\r\n",
      "   midi.NoteOnEvent(tick=0, channel=0, data=[84, 100]),\r\n",
      "   midi.NoteOnEvent(tick=96, channel=0, data=[84, 0]),\r\n",
      "   midi.NoteOnEvent(tick=0, channel=0, data=[76, 100]),\r\n",
      "   midi.NoteOnEvent(tick=96, channel=0, data=[76, 0]),\r\n",
      "   midi.NoteOnEvent(tick=0, channel=0, data=[74, 100]),\r\n",
      "   midi.NoteOnEvent(tick=96, channel=0, data=[74, 0]),\r\n",
      "   midi.NoteOnEvent(tick=0, channel=0, data=[76, 100]),\r\n",
      "   midi.NoteOnEvent(tick=96, channel=0, data=[76, 0]),\r\n",
      "   midi.NoteOnEvent(tick=0, channel=0, data=[79, 100]),\r\n",
      "   midi.NoteOnEvent(tick=96, channel=0, data=[79, 0]),\r\n",
      "   midi.NoteOnEvent(tick=0, channel=0, data=[84, 100]),\r\n",
      "   midi.NoteOnEvent(tick=96, channel=0, data=[84, 0]),\r\n",
      "   midi.NoteOnEvent(tick=0, channel=0, data=[83, 100]),\r\n",
      "   midi.NoteOnEvent(tick=96, channel=0, data=[83, 0]),\r\n",
      "   midi.NoteOnEvent(tick=0, channel=0, data=[81, 100]),\r\n",
      "   midi.NoteOnEvent(tick=96, channel=0, data=[81, 0]),\r\n",
      "   midi.NoteOnEvent(tick=0, channel=0, data=[76, 100]),\r\n",
      "   midi.NoteOnEvent(tick=96, channel=0, data=[76, 0]),\r\n",
      "   midi.NoteOnEvent(tick=0, channel=0, data=[83, 100]),\r\n",
      "   midi.NoteOnEvent(tick=96, channel=0, data=[83, 0]),\r\n",
      "   midi.NoteOnEvent(tick=0, channel=0, data=[76, 100]),\r\n",
      "   midi.NoteOnEvent(tick=96, channel=0, data=[76, 0]),\r\n",
      "   midi.NoteOnEvent(tick=0, channel=0, data=[84, 100]),\r\n",
      "   midi.NoteOnEvent(tick=96, channel=0, data=[84, 0]),\r\n",
      "   midi.NoteOnEvent(tick=0, channel=0, data=[76, 100]),\r\n",
      "   midi.NoteOnEvent(tick=96, channel=0, data=[76, 0]),\r\n",
      "   midi.NoteOnEvent(tick=0, channel=0, data=[81, 100]),\r\n",
      "   midi.NoteOnEvent(tick=96, channel=0, data=[81, 0]),\r\n",
      "   midi.NoteOnEvent(tick=0, channel=0, data=[76, 100]),\r\n",
      "   midi.NoteOnEvent(tick=96, channel=0, data=[76, 0]),\r\n",
      "   midi.NoteOnEvent(tick=0, channel=0, data=[74, 100]),\r\n",
      "   midi.NoteOnEvent(tick=96, channel=0, data=[74, 0]),\r\n",
      "   midi.NoteOnEvent(tick=0, channel=0, data=[83, 100]),\r\n",
      "   midi.NoteOnEvent(tick=96, channel=0, data=[83, 0]),\r\n",
      "   midi.NoteOnEvent(tick=0, channel=0, data=[74, 100]),\r\n",
      "   midi.NoteOnEvent(tick=96, channel=0, data=[74, 0]),\r\n",
      "   midi.NoteOnEvent(tick=0, channel=0, data=[72, 100]),\r\n",
      "   midi.NoteOnEvent(tick=96, channel=0, data=[72, 0]),\r\n",
      "   midi.NoteOnEvent(tick=0, channel=0, data=[74, 100]),\r\n",
      "   midi.NoteOnEvent(tick=96, channel=0, data=[74, 0]),\r\n",
      "   midi.NoteOnEvent(tick=0, channel=0, data=[77, 100]),\r\n",
      "   midi.NoteOnEvent(tick=96, channel=0, data=[77, 0]),\r\n",
      "   midi.NoteOnEvent(tick=0, channel=0, data=[83, 100]),\r\n",
      "   midi.NoteOnEvent(tick=96, channel=0, data=[83, 0]),\r\n",
      "   midi.NoteOnEvent(tick=0, channel=0, data=[81, 100]),\r\n",
      "   midi.NoteOnEvent(tick=96, channel=0, data=[81, 0]),\r\n",
      "   midi.NoteOnEvent(tick=0, channel=0, data=[80, 100]),\r\n",
      "   midi.NoteOnEvent(tick=96, channel=0, data=[80, 0]),\r\n",
      "   midi.NoteOnEvent(tick=0, channel=0, data=[74, 100]),\r\n",
      "   midi.NoteOnEvent(tick=96, channel=0, data=[74, 0]),\r\n",
      "   midi.NoteOnEvent(tick=0, channel=0, data=[81, 100]),\r\n",
      "   midi.NoteOnEvent(tick=96, channel=0, data=[81, 0]),\r\n",
      "   midi.NoteOnEvent(tick=0, channel=0, data=[74, 100]),\r\n",
      "   midi.NoteOnEvent(tick=96, channel=0, data=[74, 0]),\r\n",
      "   midi.NoteOnEvent(tick=0, channel=0, data=[83, 100]),\r\n",
      "   midi.NoteOnEvent(tick=96, channel=0, data=[83, 0]),\r\n",
      "   midi.NoteOnEvent(tick=0, channel=0, data=[74, 100]),\r\n",
      "   midi.NoteOnEvent(tick=96, channel=0, data=[74, 0]),\r\n",
      "   midi.NoteOnEvent(tick=0, channel=0, data=[80, 100]),\r\n",
      "   midi.NoteOnEvent(tick=96, channel=0, data=[80, 0]),\r\n",
      "   midi.NoteOnEvent(tick=0, channel=0, data=[74, 100]),\r\n",
      "   midi.NoteOnEvent(tick=96, channel=0, data=[74, 0]),\r\n",
      "   midi.NoteOnEvent(tick=0, channel=0, data=[72, 100]),\r\n",
      "   midi.NoteOnEvent(tick=96, channel=0, data=[72, 0]),\r\n",
      "   midi.NoteOnEvent(tick=0, channel=0, data=[81, 100]),\r\n",
      "   midi.NoteOnEvent(tick=96, channel=0, data=[81, 0]),\r\n",
      "   midi.NoteOnEvent(tick=0, channel=0, data=[72, 100]),\r\n",
      "   midi.NoteOnEvent(tick=96, channel=0, data=[72, 0]),\r\n",
      "   midi.NoteOnEvent(tick=0, channel=0, data=[71, 100]),\r\n",
      "   midi.NoteOnEvent(tick=96, channel=0, data=[71, 0]),\r\n",
      "   midi.NoteOnEvent(tick=0, channel=0, data=[72, 100]),\r\n",
      "   midi.NoteOnEvent(tick=96, channel=0, data=[72, 0]),\r\n",
      "   midi.NoteOnEvent(tick=0, channel=0, data=[76, 100]),\r\n",
      "   midi.NoteOnEvent(tick=96, channel=0, data=[76, 0]),\r\n",
      "   midi.NoteOnEvent(tick=0, channel=0, data=[81, 100]),\r\n",
      "   midi.NoteOnEvent(tick=96, channel=0, data=[81, 0]),\r\n",
      "   midi.NoteOnEvent(tick=0, channel=0, data=[76, 100]),\r\n",
      "   midi.NoteOnEvent(tick=96, channel=0, data=[76, 0]),\r\n",
      "   midi.NoteOnEvent(tick=0, channel=0, data=[77, 100]),\r\n",
      "   midi.NoteOnEvent(tick=96, channel=0, data=[77, 0]),\r\n",
      "   midi.NoteOnEvent(tick=0, channel=0, data=[81, 100]),\r\n",
      "   midi.NoteOnEvent(tick=96, channel=0, data=[81, 0]),\r\n",
      "   midi.NoteOnEvent(tick=0, channel=0, data=[74, 100]),\r\n",
      "   midi.NoteOnEvent(tick=96, channel=0, data=[74, 0]),\r\n",
      "   midi.NoteOnEvent(tick=0, channel=0, data=[72, 100]),\r\n",
      "   midi.NoteOnEvent(tick=96, channel=0, data=[72, 0]),\r\n",
      "   midi.NoteOnEvent(tick=0, channel=0, data=[74, 100]),\r\n",
      "   midi.NoteOnEvent(tick=96, channel=0, data=[74, 0]),\r\n",
      "   midi.NoteOnEvent(tick=0, channel=0, data=[77, 100]),\r\n",
      "   midi.NoteOnEvent(tick=96, channel=0, data=[77, 0]),\r\n",
      "   midi.NoteOnEvent(tick=0, channel=0, data=[81, 100]),\r\n",
      "   midi.NoteOnEvent(tick=96, channel=0, data=[81, 0]),\r\n",
      "   midi.NoteOnEvent(tick=0, channel=0, data=[71, 100]),\r\n",
      "   midi.NoteOnEvent(tick=96, channel=0, data=[71, 0]),\r\n",
      "   midi.NoteOnEvent(tick=0, channel=0, data=[72, 100]),\r\n",
      "   midi.NoteOnEvent(tick=192, channel=0, data=[72, 0]),\r\n",
      "   midi.NoteOnEvent(tick=0, channel=0, data=[81, 100]),\r\n",
      "   midi.NoteOnEvent(tick=192, channel=0, data=[81, 0]),\r\n",
      "   midi.NoteOnEvent(tick=0, channel=0, data=[71, 100]),\r\n",
      "   midi.NoteOnEvent(tick=192, channel=0, data=[71, 0]),\r\n",
      "   midi.NoteOnEvent(tick=0, channel=0, data=[80, 100]),\r\n",
      "   midi.NoteOnEvent(tick=192, channel=0, data=[80, 0]),\r\n",
      "   midi.NoteOnEvent(tick=0, channel=0, data=[81, 100]),\r\n",
      "   midi.NoteOnEvent(tick=384, channel=0, data=[81, 0]),\r\n",
      "   midi.NoteOnEvent(tick=96, channel=0, data=[57, 100]),\r\n",
      "   midi.NoteOnEvent(tick=96, channel=0, data=[57, 0]),\r\n",
      "   midi.NoteOnEvent(tick=0, channel=0, data=[56, 100]),\r\n",
      "   midi.NoteOnEvent(tick=96, channel=0, data=[56, 0]),\r\n",
      "   midi.NoteOnEvent(tick=0, channel=0, data=[57, 100]),\r\n",
      "   midi.NoteOnEvent(tick=96, channel=0, data=[57, 0]),\r\n",
      "   midi.NoteOnEvent(tick=0, channel=0, data=[60, 100]),\r\n",
      "   midi.NoteOnEvent(tick=96, channel=0, data=[60, 0]),\r\n",
      "   midi.NoteOnEvent(tick=0, channel=0, data=[57, 100]),\r\n",
      "   midi.NoteOnEvent(tick=96, channel=0, data=[57, 0]),\r\n",
      "   midi.NoteOnEvent(tick=0, channel=0, data=[56, 100]),\r\n",
      "   midi.NoteOnEvent(tick=96, channel=0, data=[56, 0]),\r\n",
      "   midi.NoteOnEvent(tick=0, channel=0, data=[57, 100]),\r\n",
      "   midi.NoteOnEvent(tick=96, channel=0, data=[57, 0]),\r\n",
      "   midi.NoteOnEvent(tick=0, channel=0, data=[61, 100]),\r\n",
      "   midi.NoteOnEvent(tick=96, channel=0, data=[61, 0]),\r\n",
      "   midi.NoteOnEvent(tick=0, channel=0, data=[57, 100]),\r\n",
      "   midi.NoteOnEvent(tick=96, channel=0, data=[57, 0]),\r\n",
      "   midi.NoteOnEvent(tick=0, channel=0, data=[56, 100]),\r\n",
      "   midi.NoteOnEvent(tick=96, channel=0, data=[56, 0]),\r\n",
      "   midi.NoteOnEvent(tick=0, channel=0, data=[57, 100]),\r\n",
      "   midi.NoteOnEvent(tick=96, channel=0, data=[57, 0]),\r\n",
      "   midi.NoteOnEvent(tick=0, channel=0, data=[62, 100]),\r\n",
      "   midi.NoteOnEvent(tick=96, channel=0, data=[62, 0]),\r\n",
      "   midi.NoteOnEvent(tick=0, channel=0, data=[57, 100]),\r\n",
      "   midi.NoteOnEvent(tick=96, channel=0, data=[57, 0]),\r\n",
      "   midi.NoteOnEvent(tick=0, channel=0, data=[56, 100]),\r\n",
      "   midi.NoteOnEvent(tick=96, channel=0, data=[56, 0]),\r\n",
      "   midi.NoteOnEvent(tick=0, channel=0, data=[57, 100]),\r\n",
      "   midi.NoteOnEvent(tick=96, channel=0, data=[57, 0]),\r\n",
      "   midi.NoteOnEvent(tick=0, channel=0, data=[64, 100]),\r\n",
      "   midi.NoteOnEvent(tick=96, channel=0, data=[64, 0]),\r\n",
      "   midi.NoteOnEvent(tick=0, channel=0, data=[57, 100]),\r\n",
      "   midi.NoteOnEvent(tick=96, channel=0, data=[57, 0]),\r\n",
      "   midi.NoteOnEvent(tick=0, channel=0, data=[56, 100]),\r\n",
      "   midi.NoteOnEvent(tick=96, channel=0, data=[56, 0]),\r\n",
      "   midi.NoteOnEvent(tick=0, channel=0, data=[57, 100]),\r\n",
      "   midi.NoteOnEvent(tick=96, channel=0, data=[57, 0]),\r\n",
      "   midi.NoteOnEvent(tick=0, channel=0, data=[65, 100]),\r\n",
      "   midi.NoteOnEvent(tick=96, channel=0, data=[65, 0]),\r\n",
      "   midi.NoteOnEvent(tick=0, channel=0, data=[62, 100]),\r\n",
      "   midi.NoteOnEvent(tick=96, channel=0, data=[62, 0]),\r\n",
      "   midi.NoteOnEvent(tick=0, channel=0, data=[61, 100]),\r\n",
      "   midi.NoteOnEvent(tick=96, channel=0, data=[61, 0]),\r\n",
      "   midi.NoteOnEvent(tick=0, channel=0, data=[62, 100]),\r\n",
      "   midi.NoteOnEvent(tick=96, channel=0, data=[62, 0]),\r\n",
      "   midi.NoteOnEvent(tick=0, channel=0, data=[66, 100]),\r\n",
      "   midi.NoteOnEvent(tick=96, channel=0, data=[66, 0]),\r\n",
      "   midi.NoteOnEvent(tick=0, channel=0, data=[62, 100]),\r\n",
      "   midi.NoteOnEvent(tick=96, channel=0, data=[62, 0]),\r\n",
      "   midi.NoteOnEvent(tick=0, channel=0, data=[61, 100]),\r\n",
      "   midi.NoteOnEvent(tick=96, channel=0, data=[61, 0]),\r\n",
      "   midi.NoteOnEvent(tick=0, channel=0, data=[62, 100]),\r\n",
      "   midi.NoteOnEvent(tick=96, channel=0, data=[62, 0]),\r\n",
      "   midi.NoteOnEvent(tick=0, channel=0, data=[67, 100]),\r\n",
      "   midi.NoteOnEvent(tick=96, channel=0, data=[67, 0]),\r\n",
      "   midi.NoteOnEvent(tick=0, channel=0, data=[62, 100]),\r\n",
      "   midi.NoteOnEvent(tick=96, channel=0, data=[62, 0]),\r\n",
      "   midi.NoteOnEvent(tick=0, channel=0, data=[61, 100]),\r\n",
      "   midi.NoteOnEvent(tick=96, channel=0, data=[61, 0]),\r\n",
      "   midi.NoteOnEvent(tick=0, channel=0, data=[62, 100]),\r\n",
      "   midi.NoteOnEvent(tick=96, channel=0, data=[62, 0]),\r\n",
      "   midi.NoteOnEvent(tick=0, channel=0, data=[69, 100]),\r\n",
      "   midi.NoteOnEvent(tick=96, channel=0, data=[69, 0]),\r\n",
      "   midi.NoteOnEvent(tick=0, channel=0, data=[62, 100]),\r\n",
      "   midi.NoteOnEvent(tick=96, channel=0, data=[62, 0]),\r\n",
      "   midi.NoteOnEvent(tick=0, channel=0, data=[61, 100]),\r\n",
      "   midi.NoteOnEvent(tick=96, channel=0, data=[61, 0]),\r\n",
      "   midi.NoteOnEvent(tick=0, channel=0, data=[62, 100]),\r\n",
      "   midi.NoteOnEvent(tick=96, channel=0, data=[62, 0]),\r\n",
      "   midi.NoteOnEvent(tick=0, channel=0, data=[70, 100]),\r\n",
      "   midi.NoteOnEvent(tick=96, channel=0, data=[70, 0]),\r\n",
      "   midi.NoteOnEvent(tick=0, channel=0, data=[67, 100]),\r\n",
      "   midi.NoteOnEvent(tick=96, channel=0, data=[67, 0]),\r\n",
      "   midi.NoteOnEvent(tick=0, channel=0, data=[66, 100]),\r\n",
      "   midi.NoteOnEvent(tick=96, channel=0, data=[66, 0]),\r\n",
      "   midi.NoteOnEvent(tick=0, channel=0, data=[67, 100]),\r\n",
      "   midi.NoteOnEvent(tick=96, channel=0, data=[67, 0]),\r\n",
      "   midi.NoteOnEvent(tick=0, channel=0, data=[71, 100]),\r\n",
      "   midi.NoteOnEvent(tick=96, channel=0, data=[71, 0]),\r\n",
      "   midi.NoteOnEvent(tick=0, channel=0, data=[67, 100]),\r\n",
      "   midi.NoteOnEvent(tick=96, channel=0, data=[67, 0]),\r\n",
      "   midi.NoteOnEvent(tick=0, channel=0, data=[66, 100]),\r\n",
      "   midi.NoteOnEvent(tick=96, channel=0, data=[66, 0]),\r\n",
      "   midi.NoteOnEvent(tick=0, channel=0, data=[67, 100]),\r\n",
      "   midi.NoteOnEvent(tick=96, channel=0, data=[67, 0]),\r\n",
      "   midi.NoteOnEvent(tick=0, channel=0, data=[72, 100]),\r\n",
      "   midi.NoteOnEvent(tick=96, channel=0, data=[72, 0]),\r\n",
      "   midi.NoteOnEvent(tick=0, channel=0, data=[67, 100]),\r\n",
      "   midi.NoteOnEvent(tick=96, channel=0, data=[67, 0]),\r\n",
      "   midi.NoteOnEvent(tick=0, channel=0, data=[66, 100]),\r\n",
      "   midi.NoteOnEvent(tick=96, channel=0, data=[66, 0]),\r\n",
      "   midi.NoteOnEvent(tick=0, channel=0, data=[67, 100]),\r\n",
      "   midi.NoteOnEvent(tick=96, channel=0, data=[67, 0]),\r\n",
      "   midi.NoteOnEvent(tick=0, channel=0, data=[74, 100]),\r\n",
      "   midi.NoteOnEvent(tick=96, channel=0, data=[74, 0]),\r\n",
      "   midi.NoteOnEvent(tick=0, channel=0, data=[67, 100]),\r\n",
      "   midi.NoteOnEvent(tick=96, channel=0, data=[67, 0]),\r\n",
      "   midi.NoteOnEvent(tick=0, channel=0, data=[66, 100]),\r\n",
      "   midi.NoteOnEvent(tick=96, channel=0, data=[66, 0]),\r\n",
      "   midi.NoteOnEvent(tick=0, channel=0, data=[67, 100]),\r\n",
      "   midi.NoteOnEvent(tick=96, channel=0, data=[67, 0]),\r\n",
      "   midi.NoteOnEvent(tick=0, channel=0, data=[75, 100]),\r\n",
      "   midi.NoteOnEvent(tick=96, channel=0, data=[75, 0]),\r\n",
      "   midi.NoteOnEvent(tick=0, channel=0, data=[72, 100]),\r\n",
      "   midi.NoteOnEvent(tick=96, channel=0, data=[72, 0]),\r\n",
      "   midi.NoteOnEvent(tick=0, channel=0, data=[71, 100]),\r\n",
      "   midi.NoteOnEvent(tick=96, channel=0, data=[71, 0]),\r\n",
      "   midi.NoteOnEvent(tick=0, channel=0, data=[72, 100]),\r\n",
      "   midi.NoteOnEvent(tick=96, channel=0, data=[72, 0]),\r\n",
      "   midi.NoteOnEvent(tick=0, channel=0, data=[76, 100]),\r\n",
      "   midi.NoteOnEvent(tick=96, channel=0, data=[76, 0]),\r\n",
      "   midi.NoteOnEvent(tick=0, channel=0, data=[72, 100]),\r\n",
      "   midi.NoteOnEvent(tick=96, channel=0, data=[72, 0]),\r\n",
      "   midi.NoteOnEvent(tick=0, channel=0, data=[71, 100]),\r\n",
      "   midi.NoteOnEvent(tick=96, channel=0, data=[71, 0]),\r\n",
      "   midi.NoteOnEvent(tick=0, channel=0, data=[72, 100]),\r\n",
      "   midi.NoteOnEvent(tick=96, channel=0, data=[72, 0]),\r\n",
      "   midi.NoteOnEvent(tick=0, channel=0, data=[77, 100]),\r\n",
      "   midi.NoteOnEvent(tick=96, channel=0, data=[77, 0]),\r\n",
      "   midi.NoteOnEvent(tick=0, channel=0, data=[72, 100]),\r\n",
      "   midi.NoteOnEvent(tick=96, channel=0, data=[72, 0]),\r\n",
      "   midi.NoteOnEvent(tick=0, channel=0, data=[71, 100]),\r\n",
      "   midi.NoteOnEvent(tick=96, channel=0, data=[71, 0]),\r\n",
      "   midi.NoteOnEvent(tick=0, channel=0, data=[72, 100]),\r\n",
      "   midi.NoteOnEvent(tick=96, channel=0, data=[72, 0]),\r\n",
      "   midi.NoteOnEvent(tick=0, channel=0, data=[79, 100]),\r\n",
      "   midi.NoteOnEvent(tick=96, channel=0, data=[79, 0]),\r\n",
      "   midi.NoteOnEvent(tick=0, channel=0, data=[72, 100]),\r\n",
      "   midi.NoteOnEvent(tick=96, channel=0, data=[72, 0]),\r\n",
      "   midi.NoteOnEvent(tick=0, channel=0, data=[71, 100]),\r\n",
      "   midi.NoteOnEvent(tick=96, channel=0, data=[71, 0]),\r\n",
      "   midi.NoteOnEvent(tick=0, channel=0, data=[72, 100]),\r\n",
      "   midi.NoteOnEvent(tick=96, channel=0, data=[72, 0]),\r\n",
      "   midi.NoteOnEvent(tick=0, channel=0, data=[80, 100]),\r\n",
      "   midi.NoteOnEvent(tick=48, channel=0, data=[80, 0]),\r\n",
      "   midi.NoteOnEvent(tick=0, channel=0, data=[82, 100]),\r\n",
      "   midi.NoteOnEvent(tick=48, channel=0, data=[82, 0]),\r\n",
      "   midi.NoteOnEvent(tick=0, channel=0, data=[84, 100]),\r\n",
      "   midi.NoteOnEvent(tick=192, channel=0, data=[84, 0]),\r\n",
      "   midi.NoteOnEvent(tick=0, channel=0, data=[80, 100]),\r\n",
      "   midi.NoteOnEvent(tick=96, channel=0, data=[80, 0]),\r\n",
      "   midi.NoteOnEvent(tick=0, channel=0, data=[78, 100]),\r\n",
      "   midi.NoteOnEvent(tick=48, channel=0, data=[78, 0]),\r\n",
      "   midi.NoteOnEvent(tick=0, channel=0, data=[79, 100]),\r\n",
      "   midi.NoteOnEvent(tick=48, channel=0, data=[79, 0]),\r\n",
      "   midi.NoteOnEvent(tick=0, channel=0, data=[81, 100]),\r\n",
      "   midi.NoteOnEvent(tick=192, channel=0, data=[81, 0]),\r\n",
      "   midi.NoteOnEvent(tick=0, channel=0, data=[78, 100]),\r\n",
      "   midi.NoteOnEvent(tick=96, channel=0, data=[78, 0]),\r\n",
      "   midi.NoteOnEvent(tick=0, channel=0, data=[79, 100]),\r\n",
      "   midi.NoteOnEvent(tick=96, channel=0, data=[79, 0]),\r\n",
      "   midi.NoteOnEvent(tick=0, channel=0, data=[74, 100]),\r\n",
      "   midi.NoteOnEvent(tick=96, channel=0, data=[74, 0]),\r\n",
      "   midi.NoteOnEvent(tick=0, channel=0, data=[70, 100]),\r\n",
      "   midi.NoteOnEvent(tick=96, channel=0, data=[70, 0]),\r\n",
      "   midi.NoteOnEvent(tick=0, channel=0, data=[67, 100]),\r\n",
      "   midi.NoteOnEvent(tick=96, channel=0, data=[67, 0]),\r\n",
      "   midi.NoteOnEvent(tick=0, channel=0, data=[66, 100]),\r\n",
      "   midi.NoteOnEvent(tick=96, channel=0, data=[66, 0]),\r\n",
      "   midi.NoteOnEvent(tick=0, channel=0, data=[67, 100]),\r\n",
      "   midi.NoteOnEvent(tick=96, channel=0, data=[67, 0]),\r\n",
      "   midi.NoteOnEvent(tick=0, channel=0, data=[70, 100]),\r\n",
      "   midi.NoteOnEvent(tick=96, channel=0, data=[70, 0]),\r\n",
      "   midi.NoteOnEvent(tick=0, channel=0, data=[74, 100]),\r\n",
      "   midi.NoteOnEvent(tick=96, channel=0, data=[74, 0]),\r\n",
      "   midi.NoteOnEvent(tick=0, channel=0, data=[75, 100]),\r\n",
      "   midi.NoteOnEvent(tick=48, channel=0, data=[75, 0]),\r\n",
      "   midi.NoteOnEvent(tick=0, channel=0, data=[77, 100]),\r\n",
      "   midi.NoteOnEvent(tick=48, channel=0, data=[77, 0]),\r\n",
      "   midi.NoteOnEvent(tick=0, channel=0, data=[79, 100]),\r\n",
      "   midi.NoteOnEvent(tick=192, channel=0, data=[79, 0]),\r\n",
      "   midi.NoteOnEvent(tick=0, channel=0, data=[75, 100]),\r\n",
      "   midi.NoteOnEvent(tick=96, channel=0, data=[75, 0]),\r\n",
      "   midi.NoteOnEvent(tick=0, channel=0, data=[73, 100]),\r\n",
      "   midi.NoteOnEvent(tick=48, channel=0, data=[73, 0]),\r\n",
      "   midi.NoteOnEvent(tick=0, channel=0, data=[74, 100]),\r\n",
      "   midi.NoteOnEvent(tick=48, channel=0, data=[74, 0]),\r\n",
      "   midi.NoteOnEvent(tick=0, channel=0, data=[76, 100]),\r\n",
      "   midi.NoteOnEvent(tick=192, channel=0, data=[76, 0]),\r\n",
      "   midi.NoteOnEvent(tick=0, channel=0, data=[73, 100]),\r\n",
      "   midi.NoteOnEvent(tick=96, channel=0, data=[73, 0]),\r\n",
      "   midi.NoteOnEvent(tick=0, channel=0, data=[74, 100]),\r\n",
      "   midi.NoteOnEvent(tick=96, channel=0, data=[74, 0]),\r\n",
      "   midi.NoteOnEvent(tick=0, channel=0, data=[69, 100]),\r\n",
      "   midi.NoteOnEvent(tick=96, channel=0, data=[69, 0]),\r\n",
      "   midi.NoteOnEvent(tick=0, channel=0, data=[65, 100]),\r\n",
      "   midi.NoteOnEvent(tick=96, channel=0, data=[65, 0]),\r\n",
      "   midi.NoteOnEvent(tick=0, channel=0, data=[62, 100]),\r\n",
      "   midi.NoteOnEvent(tick=96, channel=0, data=[62, 0]),\r\n",
      "   midi.NoteOnEvent(tick=0, channel=0, data=[61, 100]),\r\n",
      "   midi.NoteOnEvent(tick=96, channel=0, data=[61, 0]),\r\n",
      "   midi.NoteOnEvent(tick=0, channel=0, data=[62, 100]),\r\n",
      "   midi.NoteOnEvent(tick=96, channel=0, data=[62, 0]),\r\n",
      "   midi.NoteOnEvent(tick=0, channel=0, data=[65, 100]),\r\n",
      "   midi.NoteOnEvent(tick=96, channel=0, data=[65, 0]),\r\n",
      "   midi.NoteOnEvent(tick=0, channel=0, data=[69, 100]),\r\n",
      "   midi.NoteOnEvent(tick=96, channel=0, data=[69, 0]),\r\n",
      "   midi.NoteOnEvent(tick=0, channel=0, data=[70, 100]),\r\n",
      "   midi.NoteOnEvent(tick=48, channel=0, data=[70, 0]),\r\n",
      "   midi.NoteOnEvent(tick=0, channel=0, data=[72, 100]),\r\n",
      "   midi.NoteOnEvent(tick=48, channel=0, data=[72, 0]),\r\n",
      "   midi.NoteOnEvent(tick=0, channel=0, data=[74, 100]),\r\n",
      "   midi.NoteOnEvent(tick=192, channel=0, data=[74, 0]),\r\n",
      "   midi.NoteOnEvent(tick=0, channel=0, data=[70, 100]),\r\n",
      "   midi.NoteOnEvent(tick=96, channel=0, data=[70, 0]),\r\n",
      "   midi.NoteOnEvent(tick=0, channel=0, data=[68, 100]),\r\n",
      "   midi.NoteOnEvent(tick=48, channel=0, data=[68, 0]),\r\n",
      "   midi.NoteOnEvent(tick=0, channel=0, data=[69, 100]),\r\n",
      "   midi.NoteOnEvent(tick=48, channel=0, data=[69, 0]),\r\n",
      "   midi.NoteOnEvent(tick=0, channel=0, data=[71, 100]),\r\n",
      "   midi.NoteOnEvent(tick=192, channel=0, data=[71, 0]),\r\n",
      "   midi.NoteOnEvent(tick=0, channel=0, data=[68, 100]),\r\n",
      "   midi.NoteOnEvent(tick=96, channel=0, data=[68, 0]),\r\n",
      "   midi.NoteOnEvent(tick=0, channel=0, data=[69, 100]),\r\n",
      "   midi.NoteOnEvent(tick=96, channel=0, data=[69, 0]),\r\n",
      "   midi.NoteOnEvent(tick=0, channel=0, data=[64, 100]),\r\n",
      "   midi.NoteOnEvent(tick=96, channel=0, data=[64, 0]),\r\n",
      "   midi.NoteOnEvent(tick=0, channel=0, data=[66, 100]),\r\n",
      "   midi.NoteOnEvent(tick=96, channel=0, data=[66, 0]),\r\n",
      "   midi.NoteOnEvent(tick=0, channel=0, data=[68, 100]),\r\n",
      "   midi.NoteOnEvent(tick=96, channel=0, data=[68, 0]),\r\n",
      "   midi.NoteOnEvent(tick=0, channel=0, data=[69, 100]),\r\n",
      "   midi.NoteOnEvent(tick=96, channel=0, data=[69, 0]),\r\n",
      "   midi.NoteOnEvent(tick=0, channel=0, data=[64, 100]),\r\n",
      "   midi.NoteOnEvent(tick=96, channel=0, data=[64, 0]),\r\n",
      "   midi.NoteOnEvent(tick=0, channel=0, data=[71, 100]),\r\n",
      "   midi.NoteOnEvent(tick=96, channel=0, data=[71, 0]),\r\n",
      "   midi.NoteOnEvent(tick=0, channel=0, data=[64, 100]),\r\n",
      "   midi.NoteOnEvent(tick=96, channel=0, data=[64, 0]),\r\n",
      "   midi.NoteOnEvent(tick=0, channel=0, data=[72, 100]),\r\n",
      "   midi.NoteOnEvent(tick=96, channel=0, data=[72, 0]),\r\n",
      "   midi.NoteOnEvent(tick=0, channel=0, data=[68, 100]),\r\n",
      "   midi.NoteOnEvent(tick=96, channel=0, data=[68, 0]),\r\n",
      "   midi.NoteOnEvent(tick=0, channel=0, data=[69, 100]),\r\n",
      "   midi.NoteOnEvent(tick=96, channel=0, data=[69, 0]),\r\n",
      "   midi.NoteOnEvent(tick=0, channel=0, data=[71, 100]),\r\n",
      "   midi.NoteOnEvent(tick=96, channel=0, data=[71, 0]),\r\n",
      "   midi.NoteOnEvent(tick=0, channel=0, data=[72, 100]),\r\n",
      "   midi.NoteOnEvent(tick=96, channel=0, data=[72, 0]),\r\n",
      "   midi.NoteOnEvent(tick=0, channel=0, data=[69, 100]),\r\n",
      "   midi.NoteOnEvent(tick=96, channel=0, data=[69, 0]),\r\n",
      "   midi.NoteOnEvent(tick=0, channel=0, data=[74, 100]),\r\n",
      "   midi.NoteOnEvent(tick=96, channel=0, data=[74, 0]),\r\n",
      "   midi.NoteOnEvent(tick=0, channel=0, data=[69, 100]),\r\n",
      "   midi.NoteOnEvent(tick=96, channel=0, data=[69, 0]),\r\n",
      "   midi.NoteOnEvent(tick=0, channel=0, data=[68, 100]),\r\n",
      "   midi.NoteOnEvent(tick=96, channel=0, data=[68, 0]),\r\n",
      "   midi.NoteOnEvent(tick=0, channel=0, data=[64, 100]),\r\n",
      "   midi.NoteOnEvent(tick=96, channel=0, data=[64, 0]),\r\n",
      "   midi.NoteOnEvent(tick=0, channel=0, data=[68, 100]),\r\n",
      "   midi.NoteOnEvent(tick=96, channel=0, data=[68, 0]),\r\n",
      "   midi.NoteOnEvent(tick=0, channel=0, data=[71, 100]),\r\n",
      "   midi.NoteOnEvent(tick=96, channel=0, data=[71, 0]),\r\n",
      "   midi.NoteOnEvent(tick=0, channel=0, data=[76, 100]),\r\n",
      "   midi.NoteOnEvent(tick=480, channel=0, data=[76, 0]),\r\n",
      "   midi.NoteOnEvent(tick=0, channel=0, data=[69, 100]),\r\n",
      "   midi.NoteOnEvent(tick=96, channel=0, data=[69, 0]),\r\n",
      "   midi.NoteOnEvent(tick=0, channel=0, data=[72, 100]),\r\n",
      "   midi.NoteOnEvent(tick=96, channel=0, data=[72, 0]),\r\n",
      "   midi.NoteOnEvent(tick=0, channel=0, data=[76, 100]),\r\n",
      "   midi.NoteOnEvent(tick=96, channel=0, data=[76, 0]),\r\n",
      "   midi.NoteOnEvent(tick=0, channel=0, data=[81, 100]),\r\n",
      "   midi.NoteOnEvent(tick=480, channel=0, data=[81, 0]),\r\n",
      "   midi.NoteOnEvent(tick=0, channel=0, data=[69, 100]),\r\n",
      "   midi.NoteOnEvent(tick=96, channel=0, data=[69, 0]),\r\n",
      "   midi.NoteOnEvent(tick=0, channel=0, data=[74, 100]),\r\n",
      "   midi.NoteOnEvent(tick=96, channel=0, data=[74, 0]),\r\n",
      "   midi.NoteOnEvent(tick=0, channel=0, data=[77, 100]),\r\n",
      "   midi.NoteOnEvent(tick=96, channel=0, data=[77, 0]),\r\n",
      "   midi.NoteOnEvent(tick=0, channel=0, data=[81, 100]),\r\n",
      "   midi.NoteOnEvent(tick=576, channel=0, data=[81, 0]),\r\n",
      "   midi.NoteOnEvent(tick=0, channel=0, data=[69, 100]),\r\n",
      "   midi.NoteOnEvent(tick=192, channel=0, data=[69, 0]),\r\n",
      "   midi.NoteOnEvent(tick=0, channel=0, data=[64, 100]),\r\n",
      "   midi.NoteOnEvent(tick=192, channel=0, data=[64, 0]),\r\n",
      "   midi.NoteOnEvent(tick=0, channel=0, data=[68, 100]),\r\n",
      "   midi.NoteOnEvent(tick=192, channel=0, data=[68, 0]),\r\n",
      "   midi.NoteOnEvent(tick=0, channel=0, data=[57, 100]),\r\n",
      "   midi.NoteOnEvent(tick=192, channel=0, data=[57, 0]),\r\n",
      "   midi.NoteOnEvent(tick=0, channel=0, data=[69, 100]),\r\n",
      "   midi.NoteOnEvent(tick=192, channel=0, data=[69, 0]),\r\n",
      "   midi.NoteOnEvent(tick=0, channel=0, data=[76, 100]),\r\n",
      "   midi.NoteOnEvent(tick=576, channel=0, data=[76, 0]),\r\n",
      "   midi.NoteOnEvent(tick=0, channel=0, data=[74, 100]),\r\n",
      "   midi.NoteOnEvent(tick=96, channel=0, data=[74, 0]),\r\n",
      "   midi.NoteOnEvent(tick=0, channel=0, data=[73, 100]),\r\n",
      "   midi.NoteOnEvent(tick=96, channel=0, data=[73, 0]),\r\n",
      "   midi.NoteOnEvent(tick=0, channel=0, data=[74, 100]),\r\n",
      "   midi.NoteOnEvent(tick=192, channel=0, data=[74, 0]),\r\n",
      "   midi.NoteOnEvent(tick=0, channel=0, data=[77, 100]),\r\n",
      "   midi.NoteOnEvent(tick=384, channel=0, data=[77, 0]),\r\n",
      "   midi.NoteOnEvent(tick=0, channel=0, data=[71, 100]),\r\n",
      "   midi.NoteOnEvent(tick=96, channel=0, data=[71, 0]),\r\n",
      "   midi.NoteOnEvent(tick=0, channel=0, data=[72, 100]),\r\n",
      "   midi.NoteOnEvent(tick=96, channel=0, data=[72, 0]),\r\n",
      "   midi.NoteOnEvent(tick=0, channel=0, data=[74, 100]),\r\n",
      "   midi.NoteOnEvent(tick=96, channel=0, data=[74, 0]),\r\n",
      "   midi.NoteOnEvent(tick=0, channel=0, data=[71, 100]),\r\n",
      "   midi.NoteOnEvent(tick=96, channel=0, data=[71, 0]),\r\n",
      "   midi.NoteOnEvent(tick=0, channel=0, data=[72, 100]),\r\n",
      "   midi.NoteOnEvent(tick=96, channel=0, data=[72, 0]),\r\n",
      "   midi.NoteOnEvent(tick=0, channel=0, data=[69, 100]),\r\n",
      "   midi.NoteOnEvent(tick=96, channel=0, data=[69, 0]),\r\n",
      "   midi.NoteOnEvent(tick=0, channel=0, data=[71, 100]),\r\n",
      "   midi.NoteOnEvent(tick=96, channel=0, data=[71, 0]),\r\n",
      "   midi.NoteOnEvent(tick=0, channel=0, data=[67, 100]),\r\n",
      "   midi.NoteOnEvent(tick=96, channel=0, data=[67, 0]),\r\n",
      "   midi.NoteOnEvent(tick=0, channel=0, data=[66, 100]),\r\n",
      "   midi.NoteOnEvent(tick=96, channel=0, data=[66, 0]),\r\n",
      "   midi.NoteOnEvent(tick=0, channel=0, data=[67, 100]),\r\n",
      "   midi.NoteOnEvent(tick=96, channel=0, data=[67, 0]),\r\n",
      "   midi.NoteOnEvent(tick=0, channel=0, data=[71, 100]),\r\n",
      "   midi.NoteOnEvent(tick=96, channel=0, data=[71, 0]),\r\n",
      "   midi.NoteOnEvent(tick=0, channel=0, data=[67, 100]),\r\n",
      "   midi.NoteOnEvent(tick=96, channel=0, data=[67, 0]),\r\n",
      "   midi.NoteOnEvent(tick=0, channel=0, data=[74, 100]),\r\n",
      "   midi.NoteOnEvent(tick=96, channel=0, data=[74, 0]),\r\n",
      "   midi.NoteOnEvent(tick=0, channel=0, data=[71, 100]),\r\n",
      "   midi.NoteOnEvent(tick=96, channel=0, data=[71, 0]),\r\n",
      "   midi.NoteOnEvent(tick=0, channel=0, data=[79, 100]),\r\n",
      "   midi.NoteOnEvent(tick=192, channel=0, data=[79, 0]),\r\n",
      "   midi.NoteOnEvent(tick=0, channel=0, data=[67, 100]),\r\n",
      "   midi.NoteOnEvent(tick=192, channel=0, data=[67, 0]),\r\n",
      "   midi.NoteOnEvent(tick=0, channel=0, data=[74, 100]),\r\n",
      "   midi.NoteOnEvent(tick=576, channel=0, data=[74, 0]),\r\n",
      "   midi.NoteOnEvent(tick=0, channel=0, data=[72, 100]),\r\n",
      "   midi.NoteOnEvent(tick=96, channel=0, data=[72, 0]),\r\n",
      "   midi.NoteOnEvent(tick=0, channel=0, data=[71, 100]),\r\n",
      "   midi.NoteOnEvent(tick=96, channel=0, data=[71, 0]),\r\n",
      "   midi.NoteOnEvent(tick=0, channel=0, data=[72, 100]),\r\n",
      "   midi.NoteOnEvent(tick=192, channel=0, data=[72, 0]),\r\n",
      "   midi.NoteOnEvent(tick=0, channel=0, data=[76, 100]),\r\n",
      "   midi.NoteOnEvent(tick=384, channel=0, data=[76, 0]),\r\n",
      "   midi.NoteOnEvent(tick=0, channel=0, data=[69, 100]),\r\n",
      "   midi.NoteOnEvent(tick=96, channel=0, data=[69, 0]),\r\n",
      "   midi.NoteOnEvent(tick=0, channel=0, data=[71, 100]),\r\n",
      "   midi.NoteOnEvent(tick=96, channel=0, data=[71, 0]),\r\n",
      "   midi.NoteOnEvent(tick=0, channel=0, data=[72, 100]),\r\n",
      "   midi.NoteOnEvent(tick=96, channel=0, data=[72, 0]),\r\n",
      "   midi.NoteOnEvent(tick=0, channel=0, data=[69, 100]),\r\n",
      "   midi.NoteOnEvent(tick=96, channel=0, data=[69, 0]),\r\n",
      "   midi.NoteOnEvent(tick=0, channel=0, data=[71, 100]),\r\n",
      "   midi.NoteOnEvent(tick=96, channel=0, data=[71, 0]),\r\n",
      "   midi.NoteOnEvent(tick=0, channel=0, data=[68, 100]),\r\n",
      "   midi.NoteOnEvent(tick=96, channel=0, data=[68, 0]),\r\n",
      "   midi.NoteOnEvent(tick=0, channel=0, data=[69, 100]),\r\n",
      "   midi.NoteOnEvent(tick=96, channel=0, data=[69, 0]),\r\n",
      "   midi.NoteOnEvent(tick=0, channel=0, data=[65, 100]),\r\n",
      "   midi.NoteOnEvent(tick=96, channel=0, data=[65, 0]),\r\n",
      "   midi.NoteOnEvent(tick=0, channel=0, data=[64, 100]),\r\n",
      "   midi.NoteOnEvent(tick=96, channel=0, data=[64, 0]),\r\n",
      "   midi.NoteOnEvent(tick=0, channel=0, data=[65, 100]),\r\n",
      "   midi.NoteOnEvent(tick=96, channel=0, data=[65, 0]),\r\n",
      "   midi.NoteOnEvent(tick=0, channel=0, data=[69, 100]),\r\n",
      "   midi.NoteOnEvent(tick=96, channel=0, data=[69, 0]),\r\n",
      "   midi.NoteOnEvent(tick=0, channel=0, data=[65, 100]),\r\n",
      "   midi.NoteOnEvent(tick=96, channel=0, data=[65, 0]),\r\n",
      "   midi.NoteOnEvent(tick=0, channel=0, data=[72, 100]),\r\n",
      "   midi.NoteOnEvent(tick=96, channel=0, data=[72, 0]),\r\n",
      "   midi.NoteOnEvent(tick=0, channel=0, data=[65, 100]),\r\n",
      "   midi.NoteOnEvent(tick=96, channel=0, data=[65, 0]),\r\n",
      "   midi.NoteOnEvent(tick=0, channel=0, data=[77, 100]),\r\n",
      "   midi.NoteOnEvent(tick=192, channel=0, data=[77, 0]),\r\n",
      "   midi.NoteOnEvent(tick=0, channel=0, data=[65, 100]),\r\n",
      "   midi.NoteOnEvent(tick=192, channel=0, data=[65, 0]),\r\n",
      "   midi.NoteOnEvent(tick=0, channel=0, data=[72, 100]),\r\n",
      "   midi.NoteOnEvent(tick=576, channel=0, data=[72, 0]),\r\n",
      "   midi.NoteOnEvent(tick=0, channel=0, data=[71, 100]),\r\n",
      "   midi.NoteOnEvent(tick=96, channel=0, data=[71, 0]),\r\n",
      "   midi.NoteOnEvent(tick=0, channel=0, data=[72, 100]),\r\n",
      "   midi.NoteOnEvent(tick=96, channel=0, data=[72, 0]),\r\n",
      "   midi.NoteOnEvent(tick=0, channel=0, data=[74, 100]),\r\n",
      "   midi.NoteOnEvent(tick=192, channel=0, data=[74, 0]),\r\n",
      "   midi.NoteOnEvent(tick=0, channel=0, data=[65, 100]),\r\n",
      "   midi.NoteOnEvent(tick=192, channel=0, data=[65, 0]),\r\n",
      "   midi.NoteOnEvent(tick=0, channel=0, data=[64, 100]),\r\n",
      "   midi.NoteOnEvent(tick=192, channel=0, data=[64, 0]),\r\n",
      "   midi.NoteOnEvent(tick=0, channel=0, data=[74, 100]),\r\n",
      "   midi.NoteOnEvent(tick=192, channel=0, data=[74, 0]),\r\n",
      "   midi.NoteOnEvent(tick=0, channel=0, data=[72, 100]),\r\n",
      "   midi.NoteOnEvent(tick=192, channel=0, data=[72, 0]),\r\n",
      "   midi.NoteOnEvent(tick=0, channel=0, data=[64, 100]),\r\n",
      "   midi.NoteOnEvent(tick=192, channel=0, data=[64, 0]),\r\n",
      "   midi.NoteOnEvent(tick=0, channel=0, data=[62, 100]),\r\n",
      "   midi.NoteOnEvent(tick=96, channel=0, data=[62, 0]),\r\n",
      "   midi.NoteOnEvent(tick=0, channel=0, data=[72, 100]),\r\n",
      "   midi.NoteOnEvent(tick=96, channel=0, data=[72, 0]),\r\n",
      "   midi.NoteOnEvent(tick=0, channel=0, data=[71, 100]),\r\n",
      "   midi.NoteOnEvent(tick=96, channel=0, data=[71, 0]),\r\n",
      "   midi.NoteOnEvent(tick=0, channel=0, data=[69, 100]),\r\n",
      "   midi.NoteOnEvent(tick=96, channel=0, data=[69, 0]),\r\n",
      "   midi.NoteOnEvent(tick=0, channel=0, data=[71, 100]),\r\n",
      "   midi.NoteOnEvent(tick=96, channel=0, data=[71, 0]),\r\n",
      "   midi.NoteOnEvent(tick=0, channel=0, data=[69, 100]),\r\n",
      "   midi.NoteOnEvent(tick=96, channel=0, data=[69, 0]),\r\n",
      "   midi.NoteOnEvent(tick=0, channel=0, data=[68, 100]),\r\n",
      "   midi.NoteOnEvent(tick=96, channel=0, data=[68, 0]),\r\n",
      "   midi.NoteOnEvent(tick=0, channel=0, data=[66, 100]),\r\n",
      "   midi.NoteOnEvent(tick=96, channel=0, data=[66, 0]),\r\n",
      "   midi.NoteOnEvent(tick=0, channel=0, data=[68, 100]),\r\n",
      "   midi.NoteOnEvent(tick=192, channel=0, data=[68, 0]),\r\n",
      "   midi.NoteOnEvent(tick=0, channel=0, data=[77, 100]),\r\n",
      "   midi.NoteOnEvent(tick=192, channel=0, data=[77, 0]),\r\n",
      "   midi.NoteOnEvent(tick=0, channel=0, data=[76, 100]),\r\n",
      "   midi.NoteOnEvent(tick=192, channel=0, data=[76, 0]),\r\n",
      "   midi.NoteOnEvent(tick=0, channel=0, data=[81, 100]),\r\n",
      "   midi.NoteOnEvent(tick=192, channel=0, data=[81, 0]),\r\n",
      "   midi.NoteOnEvent(tick=0, channel=0, data=[84, 100]),\r\n",
      "   midi.NoteOnEvent(tick=384, channel=0, data=[84, 0]),\r\n",
      "   midi.NoteOnEvent(tick=0, channel=0, data=[83, 100]),\r\n",
      "   midi.NoteOnEvent(tick=48, channel=0, data=[83, 0]),\r\n",
      "   midi.NoteOnEvent(tick=0, channel=0, data=[84, 100]),\r\n",
      "   midi.NoteOnEvent(tick=48, channel=0, data=[84, 0]),\r\n",
      "   midi.NoteOnEvent(tick=0, channel=0, data=[83, 100]),\r\n",
      "   midi.NoteOnEvent(tick=48, channel=0, data=[83, 0]),\r\n",
      "   midi.NoteOnEvent(tick=0, channel=0, data=[84, 100]),\r\n",
      "   midi.NoteOnEvent(tick=48, channel=0, data=[84, 0]),\r\n",
      "   midi.NoteOnEvent(tick=0, channel=0, data=[83, 100]),\r\n",
      "   midi.NoteOnEvent(tick=48, channel=0, data=[83, 0]),\r\n",
      "   midi.NoteOnEvent(tick=0, channel=0, data=[84, 100]),\r\n",
      "   midi.NoteOnEvent(tick=48, channel=0, data=[84, 0]),\r\n",
      "   midi.NoteOnEvent(tick=0, channel=0, data=[83, 100]),\r\n",
      "   midi.NoteOnEvent(tick=48, channel=0, data=[83, 0]),\r\n",
      "   midi.NoteOnEvent(tick=0, channel=0, data=[84, 100]),\r\n",
      "   midi.NoteOnEvent(tick=48, channel=0, data=[84, 0]),\r\n",
      "   midi.NoteOnEvent(tick=0, channel=0, data=[83, 100]),\r\n",
      "   midi.NoteOnEvent(tick=96, channel=0, data=[83, 0]),\r\n",
      "   midi.NoteOnEvent(tick=0, channel=0, data=[84, 100]),\r\n",
      "   midi.NoteOnEvent(tick=96, channel=0, data=[84, 0]),\r\n",
      "   midi.NoteOnEvent(tick=0, channel=0, data=[86, 100]),\r\n",
      "   midi.NoteOnEvent(tick=96, channel=0, data=[86, 0]),\r\n",
      "   midi.NoteOnEvent(tick=0, channel=0, data=[84, 100]),\r\n",
      "   midi.NoteOnEvent(tick=96, channel=0, data=[84, 0]),\r\n",
      "   midi.NoteOnEvent(tick=0, channel=0, data=[83, 100]),\r\n",
      "   midi.NoteOnEvent(tick=96, channel=0, data=[83, 0]),\r\n",
      "   midi.NoteOnEvent(tick=0, channel=0, data=[86, 100]),\r\n",
      "   midi.NoteOnEvent(tick=96, channel=0, data=[86, 0]),\r\n",
      "   midi.NoteOnEvent(tick=0, channel=0, data=[81, 100]),\r\n",
      "   midi.NoteOnEvent(tick=96, channel=0, data=[81, 0]),\r\n",
      "   midi.NoteOnEvent(tick=0, channel=0, data=[86, 100]),\r\n",
      "   midi.NoteOnEvent(tick=96, channel=0, data=[86, 0]),\r\n",
      "   midi.NoteOnEvent(tick=0, channel=0, data=[80, 100]),\r\n",
      "   midi.NoteOnEvent(tick=96, channel=0, data=[80, 0]),\r\n",
      "   midi.NoteOnEvent(tick=0, channel=0, data=[81, 100]),\r\n",
      "   midi.NoteOnEvent(tick=96, channel=0, data=[81, 0]),\r\n",
      "   midi.NoteOnEvent(tick=0, channel=0, data=[83, 100]),\r\n",
      "   midi.NoteOnEvent(tick=96, channel=0, data=[83, 0]),\r\n",
      "   midi.NoteOnEvent(tick=0, channel=0, data=[81, 100]),\r\n",
      "   midi.NoteOnEvent(tick=96, channel=0, data=[81, 0]),\r\n",
      "   midi.NoteOnEvent(tick=0, channel=0, data=[80, 100]),\r\n",
      "   midi.NoteOnEvent(tick=96, channel=0, data=[80, 0]),\r\n",
      "   midi.NoteOnEvent(tick=0, channel=0, data=[83, 100]),\r\n",
      "   midi.NoteOnEvent(tick=96, channel=0, data=[83, 0]),\r\n",
      "   midi.NoteOnEvent(tick=0, channel=0, data=[77, 100]),\r\n",
      "   midi.NoteOnEvent(tick=96, channel=0, data=[77, 0]),\r\n",
      "   midi.NoteOnEvent(tick=0, channel=0, data=[83, 100]),\r\n",
      "   midi.NoteOnEvent(tick=96, channel=0, data=[83, 0]),\r\n",
      "   midi.NoteOnEvent(tick=0, channel=0, data=[74, 100]),\r\n",
      "   midi.NoteOnEvent(tick=96, channel=0, data=[74, 0]),\r\n",
      "   midi.NoteOnEvent(tick=0, channel=0, data=[76, 100]),\r\n",
      "   midi.NoteOnEvent(tick=96, channel=0, data=[76, 0]),\r\n",
      "   midi.NoteOnEvent(tick=0, channel=0, data=[77, 100]),\r\n",
      "   midi.NoteOnEvent(tick=96, channel=0, data=[77, 0]),\r\n",
      "   midi.NoteOnEvent(tick=0, channel=0, data=[76, 100]),\r\n",
      "   midi.NoteOnEvent(tick=96, channel=0, data=[76, 0]),\r\n",
      "   midi.NoteOnEvent(tick=0, channel=0, data=[74, 100]),\r\n",
      "   midi.NoteOnEvent(tick=96, channel=0, data=[74, 0]),\r\n",
      "   midi.NoteOnEvent(tick=0, channel=0, data=[77, 100]),\r\n",
      "   midi.NoteOnEvent(tick=96, channel=0, data=[77, 0]),\r\n",
      "   midi.NoteOnEvent(tick=0, channel=0, data=[72, 100]),\r\n",
      "   midi.NoteOnEvent(tick=96, channel=0, data=[72, 0]),\r\n",
      "   midi.NoteOnEvent(tick=0, channel=0, data=[77, 100]),\r\n",
      "   midi.NoteOnEvent(tick=96, channel=0, data=[77, 0]),\r\n",
      "   midi.NoteOnEvent(tick=0, channel=0, data=[71, 100]),\r\n",
      "   midi.NoteOnEvent(tick=96, channel=0, data=[71, 0]),\r\n",
      "   midi.NoteOnEvent(tick=0, channel=0, data=[72, 100]),\r\n",
      "   midi.NoteOnEvent(tick=96, channel=0, data=[72, 0]),\r\n",
      "   midi.NoteOnEvent(tick=0, channel=0, data=[74, 100]),\r\n",
      "   midi.NoteOnEvent(tick=96, channel=0, data=[74, 0]),\r\n",
      "   midi.NoteOnEvent(tick=0, channel=0, data=[72, 100]),\r\n",
      "   midi.NoteOnEvent(tick=96, channel=0, data=[72, 0]),\r\n",
      "   midi.NoteOnEvent(tick=0, channel=0, data=[71, 100]),\r\n",
      "   midi.NoteOnEvent(tick=96, channel=0, data=[71, 0]),\r\n",
      "   midi.NoteOnEvent(tick=0, channel=0, data=[74, 100]),\r\n",
      "   midi.NoteOnEvent(tick=96, channel=0, data=[74, 0]),\r\n",
      "   midi.NoteOnEvent(tick=0, channel=0, data=[69, 100]),\r\n",
      "   midi.NoteOnEvent(tick=96, channel=0, data=[69, 0]),\r\n",
      "   midi.NoteOnEvent(tick=0, channel=0, data=[74, 100]),\r\n",
      "   midi.NoteOnEvent(tick=96, channel=0, data=[74, 0]),\r\n",
      "   midi.NoteOnEvent(tick=0, channel=0, data=[68, 100]),\r\n",
      "   midi.NoteOnEvent(tick=96, channel=0, data=[68, 0]),\r\n",
      "   midi.NoteOnEvent(tick=0, channel=0, data=[74, 100]),\r\n",
      "   midi.NoteOnEvent(tick=96, channel=0, data=[74, 0]),\r\n",
      "   midi.NoteOnEvent(tick=0, channel=0, data=[64, 100]),\r\n",
      "   midi.NoteOnEvent(tick=96, channel=0, data=[64, 0]),\r\n",
      "   midi.NoteOnEvent(tick=0, channel=0, data=[66, 100]),\r\n",
      "   midi.NoteOnEvent(tick=96, channel=0, data=[66, 0]),\r\n",
      "   midi.NoteOnEvent(tick=0, channel=0, data=[68, 100]),\r\n",
      "   midi.NoteOnEvent(tick=96, channel=0, data=[68, 0]),\r\n",
      "   midi.NoteOnEvent(tick=0, channel=0, data=[69, 100]),\r\n",
      "   midi.NoteOnEvent(tick=96, channel=0, data=[69, 0]),\r\n",
      "   midi.NoteOnEvent(tick=0, channel=0, data=[71, 100]),\r\n",
      "   midi.NoteOnEvent(tick=96, channel=0, data=[71, 0]),\r\n",
      "   midi.NoteOnEvent(tick=0, channel=0, data=[72, 100]),\r\n",
      "   midi.NoteOnEvent(tick=96, channel=0, data=[72, 0]),\r\n",
      "   midi.NoteOnEvent(tick=0, channel=0, data=[74, 100]),\r\n",
      "   midi.NoteOnEvent(tick=96, channel=0, data=[74, 0]),\r\n",
      "   midi.NoteOnEvent(tick=0, channel=0, data=[76, 100]),\r\n",
      "   midi.NoteOnEvent(tick=96, channel=0, data=[76, 0]),\r\n",
      "   midi.NoteOnEvent(tick=0, channel=0, data=[78, 100]),\r\n",
      "   midi.NoteOnEvent(tick=96, channel=0, data=[78, 0]),\r\n",
      "   midi.NoteOnEvent(tick=0, channel=0, data=[80, 100]),\r\n",
      "   midi.NoteOnEvent(tick=96, channel=0, data=[80, 0]),\r\n",
      "   midi.NoteOnEvent(tick=0, channel=0, data=[81, 100]),\r\n",
      "   midi.NoteOnEvent(tick=96, channel=0, data=[81, 0]),\r\n",
      "   midi.NoteOnEvent(tick=0, channel=0, data=[83, 100]),\r\n",
      "   midi.NoteOnEvent(tick=96, channel=0, data=[83, 0]),\r\n",
      "   midi.NoteOnEvent(tick=0, channel=0, data=[84, 100]),\r\n",
      "   midi.NoteOnEvent(tick=96, channel=0, data=[84, 0]),\r\n",
      "   midi.NoteOnEvent(tick=0, channel=0, data=[86, 100]),\r\n",
      "   midi.NoteOnEvent(tick=96, channel=0, data=[86, 0]),\r\n",
      "   midi.NoteOnEvent(tick=0, channel=0, data=[88, 100]),\r\n",
      "   midi.NoteOnEvent(tick=192, channel=0, data=[88, 0]),\r\n",
      "   midi.NoteOnEvent(tick=0, channel=0, data=[81, 100]),\r\n",
      "   midi.NoteOnEvent(tick=192, channel=0, data=[81, 0]),\r\n",
      "   midi.NoteOnEvent(tick=0, channel=0, data=[83, 100]),\r\n",
      "   midi.NoteOnEvent(tick=192, channel=0, data=[83, 0]),\r\n",
      "   midi.NoteOnEvent(tick=0, channel=0, data=[80, 100]),\r\n",
      "   midi.NoteOnEvent(tick=192, channel=0, data=[80, 0]),\r\n",
      "   midi.NoteOnEvent(tick=0, channel=0, data=[81, 100]),\r\n",
      "   midi.NoteOnEvent(tick=96, channel=0, data=[81, 0]),\r\n",
      "   midi.NoteOnEvent(tick=0, channel=0, data=[79, 100]),\r\n",
      "   midi.NoteOnEvent(tick=96, channel=0, data=[79, 0]),\r\n",
      "   midi.NoteOnEvent(tick=0, channel=0, data=[77, 100]),\r\n",
      "   midi.NoteOnEvent(tick=96, channel=0, data=[77, 0]),\r\n",
      "   midi.NoteOnEvent(tick=0, channel=0, data=[76, 100]),\r\n",
      "   midi.NoteOnEvent(tick=96, channel=0, data=[76, 0]),\r\n",
      "   midi.NoteOnEvent(tick=0, channel=0, data=[74, 100]),\r\n",
      "   midi.NoteOnEvent(tick=192, channel=0, data=[74, 0]),\r\n",
      "   midi.NoteOnEvent(tick=0, channel=0, data=[74, 100]),\r\n",
      "   midi.NoteOnEvent(tick=192, channel=0, data=[74, 0]),\r\n",
      "   midi.NoteOnEvent(tick=0, channel=0, data=[74, 100]),\r\n",
      "   midi.NoteOnEvent(tick=96, channel=0, data=[74, 0]),\r\n",
      "   midi.NoteOnEvent(tick=0, channel=0, data=[76, 100]),\r\n",
      "   midi.NoteOnEvent(tick=96, channel=0, data=[76, 0]),\r\n",
      "   midi.NoteOnEvent(tick=0, channel=0, data=[77, 100]),\r\n",
      "   midi.NoteOnEvent(tick=288, channel=0, data=[77, 0]),\r\n",
      "   midi.NoteOnEvent(tick=0, channel=0, data=[76, 100]),\r\n",
      "   midi.NoteOnEvent(tick=96, channel=0, data=[76, 0]),\r\n",
      "   midi.NoteOnEvent(tick=0, channel=0, data=[74, 100]),\r\n",
      "   midi.NoteOnEvent(tick=96, channel=0, data=[74, 0]),\r\n",
      "   midi.NoteOnEvent(tick=0, channel=0, data=[72, 100]),\r\n",
      "   midi.NoteOnEvent(tick=96, channel=0, data=[72, 0]),\r\n",
      "   midi.NoteOnEvent(tick=0, channel=0, data=[71, 100]),\r\n",
      "   midi.NoteOnEvent(tick=96, channel=0, data=[71, 0]),\r\n",
      "   midi.NoteOnEvent(tick=0, channel=0, data=[72, 100]),\r\n",
      "   midi.NoteOnEvent(tick=96, channel=0, data=[72, 0]),\r\n",
      "   midi.NoteOnEvent(tick=0, channel=0, data=[74, 100]),\r\n",
      "   midi.NoteOnEvent(tick=288, channel=0, data=[74, 0]),\r\n",
      "   midi.NoteOnEvent(tick=0, channel=0, data=[72, 100]),\r\n",
      "   midi.NoteOnEvent(tick=96, channel=0, data=[72, 0]),\r\n",
      "   midi.NoteOnEvent(tick=0, channel=0, data=[71, 100]),\r\n",
      "   midi.NoteOnEvent(tick=96, channel=0, data=[71, 0]),\r\n",
      "   midi.NoteOnEvent(tick=0, channel=0, data=[69, 100]),\r\n",
      "   midi.NoteOnEvent(tick=96, channel=0, data=[69, 0]),\r\n",
      "   midi.NoteOnEvent(tick=0, channel=0, data=[68, 100]),\r\n",
      "   midi.NoteOnEvent(tick=192, channel=0, data=[68, 0]),\r\n",
      "   midi.NoteOnEvent(tick=0, channel=0, data=[76, 100]),\r\n",
      "   midi.NoteOnEvent(tick=192, channel=0, data=[76, 0]),\r\n",
      "   midi.NoteOnEvent(tick=0, channel=0, data=[72, 100]),\r\n",
      "   midi.NoteOnEvent(tick=48, channel=0, data=[72, 0]),\r\n",
      "   midi.NoteOnEvent(tick=0, channel=0, data=[74, 100]),\r\n",
      "   midi.NoteOnEvent(tick=48, channel=0, data=[74, 0]),\r\n",
      "   midi.NoteOnEvent(tick=0, channel=0, data=[72, 100]),\r\n",
      "   midi.NoteOnEvent(tick=48, channel=0, data=[72, 0]),\r\n",
      "   midi.NoteOnEvent(tick=0, channel=0, data=[74, 100]),\r\n",
      "   midi.NoteOnEvent(tick=48, channel=0, data=[74, 0]),\r\n",
      "   midi.NoteOnEvent(tick=0, channel=0, data=[71, 100]),\r\n",
      "   midi.NoteOnEvent(tick=96, channel=0, data=[71, 0]),\r\n",
      "   midi.NoteOnEvent(tick=0, channel=0, data=[69, 100]),\r\n",
      "   midi.NoteOnEvent(tick=96, channel=0, data=[69, 0]),\r\n",
      "   midi.NoteOnEvent(tick=0, channel=0, data=[69, 100]),\r\n",
      "   midi.NoteOnEvent(tick=576, channel=0, data=[69, 0]),\r\n",
      "   midi.EndOfTrackEvent(tick=0, data=[])]),\r\n",
      " midi.Track(\\\r\n",
      "  [midi.PortEvent(tick=0, data=[0]),\r\n",
      "   midi.TrackNameEvent(tick=0, text='Violin 1', data=[86, 105, 111, 108, 105, 110, 32, 49]),\r\n",
      "   midi.ProgramChangeEvent(tick=0, channel=1, data=[40]),\r\n",
      "   midi.ControlChangeEvent(tick=0, channel=1, data=[7, 110]),\r\n",
      "   midi.ControlChangeEvent(tick=0, channel=1, data=[10, 32]),\r\n",
      "   midi.NoteOnEvent(tick=576, channel=1, data=[76, 100]),\r",
      "\r\n",
      "   midi.NoteOnEvent(tick=192, channel=1, data=[76, 0]),\r\n",
      "   midi.NoteOnEvent(tick=0, channel=1, data=[81, 100]),\r\n",
      "   midi.NoteOnEvent(tick=384, channel=1, data=[81, 0]),\r\n",
      "   midi.NoteOnEvent(tick=192, channel=1, data=[76, 100]),\r\n",
      "   midi.NoteOnEvent(tick=192, channel=1, data=[76, 0]),\r\n",
      "   midi.NoteOnEvent(tick=0, channel=1, data=[77, 100]),\r\n",
      "   midi.NoteOnEvent(tick=384, channel=1, data=[77, 0]),\r\n",
      "   midi.NoteOnEvent(tick=192, channel=1, data=[74, 100]),\r\n",
      "   midi.NoteOnEvent(tick=192, channel=1, data=[74, 0]),\r\n",
      "   midi.NoteOnEvent(tick=0, channel=1, data=[76, 100]),\r\n",
      "   midi.NoteOnEvent(tick=96, channel=1, data=[76, 0]),\r\n",
      "   midi.NoteOnEvent(tick=0, channel=1, data=[74, 100]),\r\n",
      "   midi.NoteOnEvent(tick=96, channel=1, data=[74, 0]),\r\n",
      "   midi.NoteOnEvent(tick=0, channel=1, data=[72, 100]),\r\n",
      "   midi.NoteOnEvent(tick=96, channel=1, data=[72, 0]),\r\n",
      "   midi.NoteOnEvent(tick=0, channel=1, data=[76, 100]),\r\n",
      "   midi.NoteOnEvent(tick=96, channel=1, data=[76, 0]),\r\n",
      "   midi.NoteOnEvent(tick=0, channel=1, data=[74, 100]),\r\n",
      "   midi.NoteOnEvent(tick=96, channel=1, data=[74, 0]),\r\n",
      "   midi.NoteOnEvent(tick=0, channel=1, data=[72, 100]),\r\n",
      "   midi.NoteOnEvent(tick=96, channel=1, data=[72, 0]),\r\n",
      "   midi.NoteOnEvent(tick=0, channel=1, data=[71, 100]),\r\n",
      "   midi.NoteOnEvent(tick=96, channel=1, data=[71, 0]),\r\n",
      "   midi.NoteOnEvent(tick=0, channel=1, data=[74, 100]),\r\n",
      "   midi.NoteOnEvent(tick=96, channel=1, data=[74, 0]),\r\n",
      "   midi.NoteOnEvent(tick=0, channel=1, data=[72, 100]),\r\n",
      "   midi.NoteOnEvent(tick=192, channel=1, data=[72, 0]),\r\n",
      "   midi.NoteOnEvent(tick=0, channel=1, data=[69, 100]),\r\n",
      "   midi.NoteOnEvent(tick=192, channel=1, data=[69, 0]),\r\n",
      "   midi.NoteOnEvent(tick=96, channel=1, data=[69, 100]),\r\n",
      "   midi.NoteOnEvent(tick=96, channel=1, data=[69, 0]),\r\n",
      "   midi.NoteOnEvent(tick=0, channel=1, data=[68, 100]),\r\n",
      "   midi.NoteOnEvent(tick=96, channel=1, data=[68, 0]),\r\n",
      "   midi.NoteOnEvent(tick=0, channel=1, data=[69, 100]),\r\n",
      "   midi.NoteOnEvent(tick=96, channel=1, data=[69, 0]),\r\n",
      "   midi.NoteOnEvent(tick=0, channel=1, data=[71, 100]),\r\n",
      "   midi.NoteOnEvent(tick=96, channel=1, data=[71, 0]),\r\n",
      "   midi.NoteOnEvent(tick=0, channel=1, data=[69, 100]),\r\n",
      "   midi.NoteOnEvent(tick=96, channel=1, data=[69, 0]),\r\n",
      "   midi.NoteOnEvent(tick=0, channel=1, data=[68, 100]),\r\n",
      "   midi.NoteOnEvent(tick=96, channel=1, data=[68, 0]),\r\n",
      "   midi.NoteOnEvent(tick=0, channel=1, data=[69, 100]),\r\n",
      "   midi.NoteOnEvent(tick=96, channel=1, data=[69, 0]),\r\n",
      "   midi.NoteOnEvent(tick=0, channel=1, data=[72, 100]),\r\n",
      "   midi.NoteOnEvent(tick=96, channel=1, data=[72, 0]),\r\n",
      "   midi.NoteOnEvent(tick=0, channel=1, data=[69, 100]),\r\n",
      "   midi.NoteOnEvent(tick=96, channel=1, data=[69, 0]),\r\n",
      "   midi.NoteOnEvent(tick=0, channel=1, data=[68, 100]),\r\n",
      "   midi.NoteOnEvent(tick=96, channel=1, data=[68, 0]),\r\n",
      "   midi.NoteOnEvent(tick=0, channel=1, data=[69, 100]),\r\n",
      "   midi.NoteOnEvent(tick=96, channel=1, data=[69, 0]),\r\n",
      "   midi.NoteOnEvent(tick=0, channel=1, data=[74, 100]),\r\n",
      "   midi.NoteOnEvent(tick=96, channel=1, data=[74, 0]),\r\n",
      "   midi.NoteOnEvent(tick=0, channel=1, data=[69, 100]),\r\n",
      "   midi.NoteOnEvent(tick=96, channel=1, data=[69, 0]),\r\n",
      "   midi.NoteOnEvent(tick=0, channel=1, data=[68, 100]),\r\n",
      "   midi.NoteOnEvent(tick=96, channel=1, data=[68, 0]),\r\n",
      "   midi.NoteOnEvent(tick=0, channel=1, data=[69, 100]),\r\n",
      "   midi.NoteOnEvent(tick=96, channel=1, data=[69, 0]),\r\n",
      "   midi.NoteOnEvent(tick=0, channel=1, data=[76, 100]),\r\n",
      "   midi.NoteOnEvent(tick=96, channel=1, data=[76, 0]),\r\n",
      "   midi.NoteOnEvent(tick=0, channel=1, data=[69, 100]),\r\n",
      "   midi.NoteOnEvent(tick=96, channel=1, data=[69, 0]),\r\n",
      "   midi.NoteOnEvent(tick=0, channel=1, data=[68, 100]),\r\n",
      "   midi.NoteOnEvent(tick=96, channel=1, data=[68, 0]),\r\n",
      "   midi.NoteOnEvent(tick=0, channel=1, data=[69, 100]),\r\n",
      "   midi.NoteOnEvent(tick=96, channel=1, data=[69, 0]),\r\n",
      "   midi.NoteOnEvent(tick=0, channel=1, data=[77, 100]),\r\n",
      "   midi.NoteOnEvent(tick=96, channel=1, data=[77, 0]),\r\n",
      "   midi.NoteOnEvent(tick=0, channel=1, data=[79, 100]),\r\n",
      "   midi.NoteOnEvent(tick=96, channel=1, data=[79, 0]),\r\n",
      "   midi.NoteOnEvent(tick=0, channel=1, data=[77, 100]),\r\n",
      "   midi.NoteOnEvent(tick=96, channel=1, data=[77, 0]),\r\n",
      "   midi.NoteOnEvent(tick=0, channel=1, data=[76, 100]),\r\n",
      "   midi.NoteOnEvent(tick=96, channel=1, data=[76, 0]),\r\n",
      "   midi.NoteOnEvent(tick=0, channel=1, data=[74, 100]),\r\n",
      "   midi.NoteOnEvent(tick=96, channel=1, data=[74, 0]),\r\n",
      "   midi.NoteOnEvent(tick=0, channel=1, data=[72, 100]),\r\n",
      "   midi.NoteOnEvent(tick=96, channel=1, data=[72, 0]),\r\n",
      "   midi.NoteOnEvent(tick=0, channel=1, data=[71, 100]),\r\n",
      "   midi.NoteOnEvent(tick=96, channel=1, data=[71, 0]),\r\n",
      "   midi.NoteOnEvent(tick=0, channel=1, data=[69, 100]),\r\n",
      "   midi.NoteOnEvent(tick=96, channel=1, data=[69, 0]),\r\n",
      "   midi.NoteOnEvent(tick=0, channel=1, data=[68, 100]),\r\n",
      "   midi.NoteOnEvent(tick=192, channel=1, data=[68, 0]),\r\n",
      "   midi.NoteOnEvent(tick=0, channel=1, data=[64, 100]),\r\n",
      "   midi.NoteOnEvent(tick=192, channel=1, data=[64, 0]),\r\n",
      "   midi.NoteOnEvent(tick=0, channel=1, data=[83, 100]),\r\n",
      "   midi.NoteOnEvent(tick=576, channel=1, data=[83, 0]),\r\n",
      "   midi.NoteOnEvent(tick=0, channel=1, data=[81, 100]),\r\n",
      "   midi.NoteOnEvent(tick=96, channel=1, data=[81, 0]),\r\n",
      "   midi.NoteOnEvent(tick=0, channel=1, data=[80, 100]),\r\n",
      "   midi.NoteOnEvent(tick=96, channel=1, data=[80, 0]),\r\n",
      "   midi.NoteOnEvent(tick=0, channel=1, data=[81, 100]),\r\n",
      "   midi.NoteOnEvent(tick=192, channel=1, data=[81, 0]),\r\n",
      "   midi.NoteOnEvent(tick=0, channel=1, data=[84, 100]),\r\n",
      "   midi.NoteOnEvent(tick=384, channel=1, data=[84, 0]),\r\n",
      "   midi.NoteOnEvent(tick=0, channel=1, data=[78, 100]),\r\n",
      "   midi.NoteOnEvent(tick=192, channel=1, data=[78, 0]),\r\n",
      "   midi.NoteOnEvent(tick=0, channel=1, data=[81, 100]),\r\n",
      "   midi.NoteOnEvent(tick=576, channel=1, data=[81, 0]),\r\n",
      "   midi.NoteOnEvent(tick=0, channel=1, data=[79, 100]),\r\n",
      "   midi.NoteOnEvent(tick=96, channel=1, data=[79, 0]),\r\n",
      "   midi.NoteOnEvent(tick=0, channel=1, data=[78, 100]),\r\n",
      "   midi.NoteOnEvent(tick=96, channel=1, data=[78, 0]),\r\n",
      "   midi.NoteOnEvent(tick=0, channel=1, data=[79, 100]),\r\n",
      "   midi.NoteOnEvent(tick=192, channel=1, data=[79, 0]),\r\n",
      "   midi.NoteOnEvent(tick=0, channel=1, data=[83, 100]),\r\n",
      "   midi.NoteOnEvent(tick=288, channel=1, data=[83, 0]),\r\n",
      "   midi.NoteOnEvent(tick=0, channel=1, data=[81, 100]),\r\n",
      "   midi.NoteOnEvent(tick=96, channel=1, data=[81, 0]),\r\n",
      "   midi.NoteOnEvent(tick=0, channel=1, data=[79, 100]),\r\n",
      "   midi.NoteOnEvent(tick=96, channel=1, data=[79, 0]),\r\n",
      "   midi.NoteOnEvent(tick=0, channel=1, data=[78, 100]),\r\n",
      "   midi.NoteOnEvent(tick=96, channel=1, data=[78, 0]),\r\n",
      "   midi.NoteOnEvent(tick=0, channel=1, data=[76, 100]),\r\n",
      "   midi.NoteOnEvent(tick=576, channel=1, data=[76, 0]),\r\n",
      "   midi.NoteOnEvent(tick=0, channel=1, data=[78, 100]),\r\n",
      "   midi.NoteOnEvent(tick=96, channel=1, data=[78, 0]),\r\n",
      "   midi.NoteOnEvent(tick=0, channel=1, data=[79, 100]),\r\n",
      "   midi.NoteOnEvent(tick=96, channel=1, data=[79, 0]),\r\n",
      "   midi.NoteOnEvent(tick=0, channel=1, data=[81, 100]),\r\n",
      "   midi.NoteOnEvent(tick=192, channel=1, data=[81, 0]),\r\n",
      "   midi.NoteOnEvent(tick=0, channel=1, data=[72, 100]),\r\n",
      "   midi.NoteOnEvent(tick=192, channel=1, data=[72, 0]),\r\n",
      "   midi.NoteOnEvent(tick=0, channel=1, data=[71, 100]),\r\n",
      "   midi.NoteOnEvent(tick=192, channel=1, data=[71, 0]),\r\n",
      "   midi.NoteOnEvent(tick=0, channel=1, data=[81, 100]),\r\n",
      "   midi.NoteOnEvent(tick=192, channel=1, data=[81, 0]),\r\n",
      "   midi.NoteOnEvent(tick=0, channel=1, data=[79, 100]),\r\n",
      "   midi.NoteOnEvent(tick=192, channel=1, data=[79, 0]),\r\n",
      "   midi.NoteOnEvent(tick=0, channel=1, data=[71, 100]),\r\n",
      "   midi.NoteOnEvent(tick=192, channel=1, data=[71, 0]),\r\n",
      "   midi.NoteOnEvent(tick=0, channel=1, data=[69, 100]),\r\n",
      "   midi.NoteOnEvent(tick=96, channel=1, data=[69, 0]),\r\n",
      "   midi.NoteOnEvent(tick=0, channel=1, data=[71, 100]),\r\n",
      "   midi.NoteOnEvent(tick=96, channel=1, data=[71, 0]),\r\n",
      "   midi.NoteOnEvent(tick=0, channel=1, data=[72, 100]),\r\n",
      "   midi.NoteOnEvent(tick=96, channel=1, data=[72, 0]),\r\n",
      "   midi.NoteOnEvent(tick=0, channel=1, data=[71, 100]),\r\n",
      "   midi.NoteOnEvent(tick=96, channel=1, data=[71, 0]),\r\n",
      "   midi.NoteOnEvent(tick=0, channel=1, data=[69, 100]),\r\n",
      "   midi.NoteOnEvent(tick=96, channel=1, data=[69, 0]),\r\n",
      "   midi.NoteOnEvent(tick=0, channel=1, data=[67, 100]),\r\n",
      "   midi.NoteOnEvent(tick=96, channel=1, data=[67, 0]),\r\n",
      "   midi.NoteOnEvent(tick=0, channel=1, data=[66, 100]),\r\n",
      "   midi.NoteOnEvent(tick=96, channel=1, data=[66, 0]),\r\n",
      "   midi.NoteOnEvent(tick=0, channel=1, data=[64, 100]),\r\n",
      "   midi.NoteOnEvent(tick=96, channel=1, data=[64, 0]),\r\n",
      "   midi.NoteOnEvent(tick=0, channel=1, data=[63, 100]),\r\n",
      "   midi.NoteOnEvent(tick=192, channel=1, data=[63, 0]),\r\n",
      "   midi.NoteOnEvent(tick=0, channel=1, data=[72, 100]),\r\n",
      "   midi.NoteOnEvent(tick=192, channel=1, data=[72, 0]),\r\n",
      "   midi.NoteOnEvent(tick=0, channel=1, data=[71, 100]),\r\n",
      "   midi.NoteOnEvent(tick=192, channel=1, data=[71, 0]),\r\n",
      "   midi.NoteOnEvent(tick=0, channel=1, data=[76, 100]),\r\n",
      "   midi.NoteOnEvent(tick=192, channel=1, data=[76, 0]),\r\n",
      "   midi.NoteOnEvent(tick=0, channel=1, data=[79, 100]),\r\n",
      "   midi.NoteOnEvent(tick=384, channel=1, data=[79, 0]),\r\n",
      "   midi.NoteOnEvent(tick=0, channel=1, data=[78, 100]),\r\n",
      "   midi.NoteOnEvent(tick=48, channel=1, data=[78, 0]),\r\n",
      "   midi.NoteOnEvent(tick=0, channel=1, data=[79, 100]),\r\n",
      "   midi.NoteOnEvent(tick=48, channel=1, data=[79, 0]),\r\n",
      "   midi.NoteOnEvent(tick=0, channel=1, data=[78, 100]),\r\n",
      "   midi.NoteOnEvent(tick=48, channel=1, data=[78, 0]),\r\n",
      "   midi.NoteOnEvent(tick=0, channel=1, data=[79, 100]),\r\n",
      "   midi.NoteOnEvent(tick=48, channel=1, data=[79, 0]),\r\n",
      "   midi.NoteOnEvent(tick=0, channel=1, data=[78, 100]),\r\n",
      "   midi.NoteOnEvent(tick=48, channel=1, data=[78, 0]),\r\n",
      "   midi.NoteOnEvent(tick=0, channel=1, data=[79, 100]),\r\n",
      "   midi.NoteOnEvent(tick=48, channel=1, data=[79, 0]),\r\n",
      "   midi.NoteOnEvent(tick=0, channel=1, data=[78, 100]),\r\n",
      "   midi.NoteOnEvent(tick=48, channel=1, data=[78, 0]),\r\n",
      "   midi.NoteOnEvent(tick=0, channel=1, data=[79, 100]),\r\n",
      "   midi.NoteOnEvent(tick=48, channel=1, data=[79, 0]),\r\n",
      "   midi.NoteOnEvent(tick=0, channel=1, data=[78, 100]),\r\n",
      "   midi.NoteOnEvent(tick=96, channel=1, data=[78, 0]),\r\n",
      "   midi.NoteOnEvent(tick=0, channel=1, data=[79, 100]),\r\n",
      "   midi.NoteOnEvent(tick=96, channel=1, data=[79, 0]),\r\n",
      "   midi.NoteOnEvent(tick=0, channel=1, data=[81, 100]),\r\n",
      "   midi.NoteOnEvent(tick=96, channel=1, data=[81, 0]),\r\n",
      "   midi.NoteOnEvent(tick=0, channel=1, data=[78, 100]),\r\n",
      "   midi.NoteOnEvent(tick=96, channel=1, data=[78, 0]),\r\n",
      "   midi.NoteOnEvent(tick=0, channel=1, data=[75, 100]),\r\n",
      "   midi.NoteOnEvent(tick=96, channel=1, data=[75, 0]),\r\n",
      "   midi.NoteOnEvent(tick=0, channel=1, data=[76, 100]),\r\n",
      "   midi.NoteOnEvent(tick=96, channel=1, data=[76, 0]),\r\n",
      "   midi.NoteOnEvent(tick=0, channel=1, data=[78, 100]),\r\n",
      "   midi.NoteOnEvent(tick=96, channel=1, data=[78, 0]),\r\n",
      "   midi.NoteOnEvent(tick=0, channel=1, data=[75, 100]),\r\n",
      "   midi.NoteOnEvent(tick=96, channel=1, data=[75, 0]),\r\n",
      "   midi.NoteOnEvent(tick=0, channel=1, data=[83, 100]),\r\n",
      "   midi.NoteOnEvent(tick=192, channel=1, data=[83, 0]),\r\n",
      "   midi.NoteOnEvent(tick=0, channel=1, data=[76, 100]),\r\n",
      "   midi.NoteOnEvent(tick=192, channel=1, data=[76, 0]),\r\n",
      "   midi.NoteOnEvent(tick=0, channel=1, data=[78, 100]),\r\n",
      "   midi.NoteOnEvent(tick=192, channel=1, data=[78, 0]),\r\n",
      "   midi.NoteOnEvent(tick=0, channel=1, data=[75, 100]),\r\n",
      "   midi.NoteOnEvent(tick=192, channel=1, data=[75, 0]),\r\n",
      "   midi.NoteOnEvent(tick=0, channel=1, data=[76, 100]),\r\n",
      "   midi.NoteOnEvent(tick=96, channel=1, data=[76, 0]),\r\n",
      "   midi.NoteOnEvent(tick=0, channel=1, data=[74, 100]),\r\n",
      "   midi.NoteOnEvent(tick=96, channel=1, data=[74, 0]),\r\n",
      "   midi.NoteOnEvent(tick=0, channel=1, data=[72, 100]),\r\n",
      "   midi.NoteOnEvent(tick=96, channel=1, data=[72, 0]),\r\n",
      "   midi.NoteOnEvent(tick=0, channel=1, data=[71, 100]),\r\n",
      "   midi.NoteOnEvent(tick=96, channel=1, data=[71, 0]),\r\n",
      "   midi.NoteOnEvent(tick=0, channel=1, data=[69, 100]),\r\n",
      "   midi.NoteOnEvent(tick=192, channel=1, data=[69, 0]),\r\n",
      "   midi.NoteOnEvent(tick=0, channel=1, data=[69, 100]),\r\n",
      "   midi.NoteOnEvent(tick=192, channel=1, data=[69, 0]),\r\n",
      "   midi.NoteOnEvent(tick=0, channel=1, data=[69, 100]),\r\n",
      "   midi.NoteOnEvent(tick=96, channel=1, data=[69, 0]),\r\n",
      "   midi.NoteOnEvent(tick=0, channel=1, data=[71, 100]),\r\n",
      "   midi.NoteOnEvent(tick=96, channel=1, data=[71, 0]),\r\n",
      "   midi.NoteOnEvent(tick=0, channel=1, data=[72, 100]),\r\n",
      "   midi.NoteOnEvent(tick=288, channel=1, data=[72, 0]),\r\n",
      "   midi.NoteOnEvent(tick=0, channel=1, data=[71, 100]),\r\n",
      "   midi.NoteOnEvent(tick=96, channel=1, data=[71, 0]),\r\n",
      "   midi.NoteOnEvent(tick=0, channel=1, data=[69, 100]),\r\n",
      "   midi.NoteOnEvent(tick=96, channel=1, data=[69, 0]),\r\n",
      "   midi.NoteOnEvent(tick=0, channel=1, data=[67, 100]),\r\n",
      "   midi.NoteOnEvent(tick=96, channel=1, data=[67, 0]),\r\n",
      "   midi.NoteOnEvent(tick=0, channel=1, data=[66, 100]),\r\n",
      "   midi.NoteOnEvent(tick=96, channel=1, data=[66, 0]),\r\n",
      "   midi.NoteOnEvent(tick=0, channel=1, data=[67, 100]),\r\n",
      "   midi.NoteOnEvent(tick=96, channel=1, data=[67, 0]),\r\n",
      "   midi.NoteOnEvent(tick=0, channel=1, data=[69, 100]),\r\n",
      "   midi.NoteOnEvent(tick=288, channel=1, data=[69, 0]),\r\n",
      "   midi.NoteOnEvent(tick=0, channel=1, data=[67, 100]),\r\n",
      "   midi.NoteOnEvent(tick=96, channel=1, data=[67, 0]),\r\n",
      "   midi.NoteOnEvent(tick=0, channel=1, data=[66, 100]),\r\n",
      "   midi.NoteOnEvent(tick=96, channel=1, data=[66, 0]),\r\n",
      "   midi.NoteOnEvent(tick=0, channel=1, data=[64, 100]),\r\n",
      "   midi.NoteOnEvent(tick=96, channel=1, data=[64, 0]),\r\n",
      "   midi.NoteOnEvent(tick=0, channel=1, data=[63, 100]),\r\n",
      "   midi.NoteOnEvent(tick=192, channel=1, data=[63, 0]),\r\n",
      "   midi.NoteOnEvent(tick=0, channel=1, data=[71, 100]),\r\n",
      "   midi.NoteOnEvent(tick=192, channel=1, data=[71, 0]),\r\n",
      "   midi.NoteOnEvent(tick=0, channel=1, data=[67, 100]),\r\n",
      "   midi.NoteOnEvent(tick=48, channel=1, data=[67, 0]),\r\n",
      "   midi.NoteOnEvent(tick=0, channel=1, data=[69, 100]),\r\n",
      "   midi.NoteOnEvent(tick=48, channel=1, data=[69, 0]),\r\n",
      "   midi.NoteOnEvent(tick=0, channel=1, data=[67, 100]),\r\n",
      "   midi.NoteOnEvent(tick=48, channel=1, data=[67, 0]),\r\n",
      "   midi.NoteOnEvent(tick=0, channel=1, data=[69, 100]),\r\n",
      "   midi.NoteOnEvent(tick=48, channel=1, data=[69, 0]),\r\n",
      "   midi.NoteOnEvent(tick=0, channel=1, data=[66, 100]),\r\n",
      "   midi.NoteOnEvent(tick=96, channel=1, data=[66, 0]),\r\n",
      "   midi.NoteOnEvent(tick=0, channel=1, data=[64, 100]),\r\n",
      "   midi.NoteOnEvent(tick=96, channel=1, data=[64, 0]),\r\n",
      "   midi.NoteOnEvent(tick=0, channel=1, data=[64, 100]),\r\n",
      "   midi.NoteOnEvent(tick=384, channel=1, data=[64, 0]),\r\n",
      "   midi.NoteOnEvent(tick=576, channel=1, data=[76, 100]),\r\n",
      "   midi.NoteOnEvent(tick=192, channel=1, data=[76, 0]),\r\n",
      "   midi.NoteOnEvent(tick=0, channel=1, data=[81, 100]),\r\n",
      "   midi.NoteOnEvent(tick=192, channel=1, data=[81, 0]),\r\n",
      "   midi.NoteOnEvent(tick=384, channel=1, data=[80, 100]),\r\n",
      "   midi.NoteOnEvent(tick=96, channel=1, data=[80, 0]),\r\n",
      "   midi.NoteOnEvent(tick=0, channel=1, data=[81, 100]),\r\n",
      "   midi.NoteOnEvent(tick=96, channel=1, data=[81, 0]),\r\n",
      "   midi.NoteOnEvent(tick=0, channel=1, data=[83, 100]),\r\n",
      "   midi.NoteOnEvent(tick=192, channel=1, data=[83, 0]),\r\n",
      "   midi.NoteOnEvent(tick=384, channel=1, data=[76, 100]),\r\n",
      "   midi.NoteOnEvent(tick=192, channel=1, data=[76, 0]),\r\n",
      "   midi.NoteOnEvent(tick=0, channel=1, data=[83, 100]),\r\n",
      "   midi.NoteOnEvent(tick=192, channel=1, data=[83, 0]),\r\n",
      "   midi.NoteOnEvent(tick=384, channel=1, data=[81, 100]),\r\n",
      "   midi.NoteOnEvent(tick=96, channel=1, data=[81, 0]),\r\n",
      "   midi.NoteOnEvent(tick=0, channel=1, data=[83, 100]),\r\n",
      "   midi.NoteOnEvent(tick=96, channel=1, data=[83, 0]),\r\n",
      "   midi.NoteOnEvent(tick=0, channel=1, data=[84, 100]),\r\n",
      "   midi.NoteOnEvent(tick=192, channel=1, data=[84, 0]),\r\n",
      "   midi.NoteOnEvent(tick=3072, channel=1, data=[76, 100]),\r\n",
      "   midi.NoteOnEvent(tick=192, channel=1, data=[76, 0]),\r\n",
      "   midi.NoteOnEvent(tick=0, channel=1, data=[81, 100]),\r\n",
      "   midi.NoteOnEvent(tick=384, channel=1, data=[81, 0]),\r\n",
      "   midi.NoteOnEvent(tick=192, channel=1, data=[76, 100]),\r\n",
      "   midi.NoteOnEvent(tick=192, channel=1, data=[76, 0]),\r\n",
      "   midi.NoteOnEvent(tick=0, channel=1, data=[77, 100]),\r\n",
      "   midi.NoteOnEvent(tick=384, channel=1, data=[77, 0]),\r\n",
      "   midi.NoteOnEvent(tick=192, channel=1, data=[74, 100]),\r\n",
      "   midi.NoteOnEvent(tick=192, channel=1, data=[74, 0]),\r\n",
      "   midi.NoteOnEvent(tick=0, channel=1, data=[79, 100]),\r\n",
      "   midi.NoteOnEvent(tick=384, channel=1, data=[79, 0]),\r\n",
      "   midi.NoteOnEvent(tick=192, channel=1, data=[74, 100]),\r\n",
      "   midi.NoteOnEvent(tick=192, channel=1, data=[74, 0]),\r\n",
      "   midi.NoteOnEvent(tick=0, channel=1, data=[76, 100]),\r\n",
      "   midi.NoteOnEvent(tick=384, channel=1, data=[76, 0]),\r\n",
      "   midi.NoteOnEvent(tick=192, channel=1, data=[72, 100]),\r\n",
      "   midi.NoteOnEvent(tick=192, channel=1, data=[72, 0]),\r\n",
      "   midi.NoteOnEvent(tick=0, channel=1, data=[77, 100]),\r\n",
      "   midi.NoteOnEvent(tick=384, channel=1, data=[77, 0]),\r\n",
      "   midi.NoteOnEvent(tick=192, channel=1, data=[72, 100]),\r\n",
      "   midi.NoteOnEvent(tick=192, channel=1, data=[72, 0]),\r\n",
      "   midi.NoteOnEvent(tick=0, channel=1, data=[74, 100]),\r\n",
      "   midi.NoteOnEvent(tick=384, channel=1, data=[74, 0]),\r\n",
      "   midi.NoteOnEvent(tick=192, channel=1, data=[71, 100]),\r\n",
      "   midi.NoteOnEvent(tick=192, channel=1, data=[71, 0]),\r\n",
      "   midi.NoteOnEvent(tick=0, channel=1, data=[76, 100]),\r\n",
      "   midi.NoteOnEvent(tick=384, channel=1, data=[76, 0]),\r\n",
      "   midi.NoteOnEvent(tick=192, channel=1, data=[76, 100]),\r\n",
      "   midi.NoteOnEvent(tick=192, channel=1, data=[76, 0]),\r\n",
      "   midi.NoteOnEvent(tick=0, channel=1, data=[81, 100]),\r\n",
      "   midi.NoteOnEvent(tick=384, channel=1, data=[81, 0]),\r\n",
      "   midi.NoteOnEvent(tick=192, channel=1, data=[76, 100]),\r\n",
      "   midi.NoteOnEvent(tick=192, channel=1, data=[76, 0]),\r\n",
      "   midi.NoteOnEvent(tick=0, channel=1, data=[77, 100]),\r\n",
      "   midi.NoteOnEvent(tick=384, channel=1, data=[77, 0]),\r\n",
      "   midi.NoteOnEvent(tick=192, channel=1, data=[74, 100]),\r\n",
      "   midi.NoteOnEvent(tick=192, channel=1, data=[74, 0]),\r\n",
      "   midi.NoteOnEvent(tick=0, channel=1, data=[76, 100]),\r\n",
      "   midi.NoteOnEvent(tick=96, channel=1, data=[76, 0]),\r\n",
      "   midi.NoteOnEvent(tick=0, channel=1, data=[74, 100]),\r\n",
      "   midi.NoteOnEvent(tick=96, channel=1, data=[74, 0]),\r\n",
      "   midi.NoteOnEvent(tick=0, channel=1, data=[72, 100]),\r\n",
      "   midi.NoteOnEvent(tick=96, channel=1, data=[72, 0]),\r\n",
      "   midi.NoteOnEvent(tick=0, channel=1, data=[76, 100]),\r\n",
      "   midi.NoteOnEvent(tick=96, channel=1, data=[76, 0]),\r\n",
      "   midi.NoteOnEvent(tick=0, channel=1, data=[74, 100]),\r\n",
      "   midi.NoteOnEvent(tick=96, channel=1, data=[74, 0]),\r\n",
      "   midi.NoteOnEvent(tick=0, channel=1, data=[72, 100]),\r\n",
      "   midi.NoteOnEvent(tick=96, channel=1, data=[72, 0]),\r\n",
      "   midi.NoteOnEvent(tick=0, channel=1, data=[71, 100]),\r\n",
      "   midi.NoteOnEvent(tick=96, channel=1, data=[71, 0]),\r\n",
      "   midi.NoteOnEvent(tick=0, channel=1, data=[74, 100]),\r\n",
      "   midi.NoteOnEvent(tick=96, channel=1, data=[74, 0]),\r\n",
      "   midi.NoteOnEvent(tick=0, channel=1, data=[72, 100]),\r\n",
      "   midi.NoteOnEvent(tick=192, channel=1, data=[72, 0]),\r\n",
      "   midi.NoteOnEvent(tick=0, channel=1, data=[69, 100]),\r\n",
      "   midi.NoteOnEvent(tick=192, channel=1, data=[69, 0]),\r\n",
      "   midi.NoteOnEvent(tick=192, channel=1, data=[72, 100]),\r\n",
      "   midi.NoteOnEvent(tick=192, channel=1, data=[72, 0]),\r\n",
      "   midi.NoteOnEvent(tick=0, channel=1, data=[72, 100]),\r\n",
      "   midi.NoteOnEvent(tick=192, channel=1, data=[72, 0]),\r\n",
      "   midi.NoteOnEvent(tick=0, channel=1, data=[72, 100]),\r\n",
      "   midi.NoteOnEvent(tick=192, channel=1, data=[72, 0]),\r\n",
      "   midi.NoteOnEvent(tick=0, channel=1, data=[71, 100]),\r\n",
      "   midi.NoteOnEvent(tick=192, channel=1, data=[71, 0]),\r\n",
      "   midi.NoteOnEvent(tick=0, channel=1, data=[71, 100]),\r\n",
      "   midi.NoteOnEvent(tick=192, channel=1, data=[71, 0]),\r\n",
      "   midi.NoteOnEvent(tick=0, channel=1, data=[71, 100]),\r\n",
      "   midi.NoteOnEvent(tick=192, channel=1, data=[71, 0]),\r\n",
      "   midi.NoteOnEvent(tick=0, channel=1, data=[71, 100]),\r\n",
      "   midi.NoteOnEvent(tick=192, channel=1, data=[71, 0]),\r\n",
      "   midi.NoteOnEvent(tick=0, channel=1, data=[71, 100]),\r\n",
      "   midi.NoteOnEvent(tick=192, channel=1, data=[71, 0]),\r\n",
      "   midi.NoteOnEvent(tick=0, channel=1, data=[71, 100]),\r\n",
      "   midi.NoteOnEvent(tick=192, channel=1, data=[71, 0]),\r\n",
      "   midi.NoteOnEvent(tick=0, channel=1, data=[70, 100]),\r\n",
      "   midi.NoteOnEvent(tick=192, channel=1, data=[70, 0]),\r\n",
      "   midi.NoteOnEvent(tick=0, channel=1, data=[70, 100]),\r\n",
      "   midi.NoteOnEvent(tick=192, channel=1, data=[70, 0]),\r\n",
      "   midi.NoteOnEvent(tick=0, channel=1, data=[69, 100]),\r\n",
      "   midi.NoteOnEvent(tick=192, channel=1, data=[69, 0]),\r\n",
      "   midi.NoteOnEvent(tick=0, channel=1, data=[69, 100]),\r\n",
      "   midi.NoteOnEvent(tick=192, channel=1, data=[69, 0]),\r\n",
      "   midi.NoteOnEvent(tick=0, channel=1, data=[69, 100]),\r\n",
      "   midi.NoteOnEvent(tick=192, channel=1, data=[69, 0]),\r\n",
      "   midi.NoteOnEvent(tick=0, channel=1, data=[69, 100]),\r\n",
      "   midi.NoteOnEvent(tick=192, channel=1, data=[69, 0]),\r\n",
      "   midi.NoteOnEvent(tick=0, channel=1, data=[69, 100]),\r\n",
      "   midi.NoteOnEvent(tick=192, channel=1, data=[69, 0]),\r\n",
      "   midi.NoteOnEvent(tick=0, channel=1, data=[69, 100]),\r\n",
      "   midi.NoteOnEvent(tick=192, channel=1, data=[69, 0]),\r\n",
      "   midi.NoteOnEvent(tick=0, channel=1, data=[68, 100]),\r\n",
      "   midi.NoteOnEvent(tick=192, channel=1, data=[68, 0]),\r\n",
      "   midi.NoteOnEvent(tick=0, channel=1, data=[68, 100]),\r\n",
      "   midi.NoteOnEvent(tick=192, channel=1, data=[68, 0]),\r\n",
      "   midi.NoteOnEvent(tick=0, channel=1, data=[67, 100]),\r\n",
      "   midi.NoteOnEvent(tick=192, channel=1, data=[67, 0]),\r\n",
      "   midi.NoteOnEvent(tick=0, channel=1, data=[67, 100]),\r\n",
      "   midi.NoteOnEvent(tick=192, channel=1, data=[67, 0]),\r\n",
      "   midi.NoteOnEvent(tick=0, channel=1, data=[67, 100]),\r\n",
      "   midi.NoteOnEvent(tick=192, channel=1, data=[67, 0]),\r\n",
      "   midi.NoteOnEvent(tick=1920, channel=1, data=[79, 100]),\r\n",
      "   midi.NoteOnEvent(tick=192, channel=1, data=[79, 0]),\r\n",
      "   midi.NoteOnEvent(tick=0, channel=1, data=[84, 100]),\r\n",
      "   midi.NoteOnEvent(tick=384, channel=1, data=[84, 0]),\r\n",
      "   midi.NoteOnEvent(tick=192, channel=1, data=[79, 100]),\r\n",
      "   midi.NoteOnEvent(tick=192, channel=1, data=[79, 0]),\r\n",
      "   midi.NoteOnEvent(tick=0, channel=1, data=[81, 100]),\r\n",
      "   midi.NoteOnEvent(tick=384, channel=1, data=[81, 0]),\r\n",
      "   midi.NoteOnEvent(tick=192, channel=1, data=[77, 100]),\r\n",
      "   midi.NoteOnEvent(tick=192, channel=1, data=[77, 0]),\r\n",
      "   midi.NoteOnEvent(tick=0, channel=1, data=[79, 100]),\r\n",
      "   midi.NoteOnEvent(tick=96, channel=1, data=[79, 0]),\r\n",
      "   midi.NoteOnEvent(tick=0, channel=1, data=[77, 100]),\r\n",
      "   midi.NoteOnEvent(tick=96, channel=1, data=[77, 0]),\r\n",
      "   midi.NoteOnEvent(tick=0, channel=1, data=[76, 100]),\r\n",
      "   midi.NoteOnEvent(tick=96, channel=1, data=[76, 0]),\r\n",
      "   midi.NoteOnEvent(tick=0, channel=1, data=[79, 100]),\r\n",
      "   midi.NoteOnEvent(tick=96, channel=1, data=[79, 0]),\r\n",
      "   midi.NoteOnEvent(tick=0, channel=1, data=[77, 100]),\r\n",
      "   midi.NoteOnEvent(tick=96, channel=1, data=[77, 0]),\r\n",
      "   midi.NoteOnEvent(tick=0, channel=1, data=[76, 100]),\r\n",
      "   midi.NoteOnEvent(tick=96, channel=1, data=[76, 0]),\r\n",
      "   midi.NoteOnEvent(tick=0, channel=1, data=[74, 100]),\r\n",
      "   midi.NoteOnEvent(tick=96, channel=1, data=[74, 0]),\r\n",
      "   midi.NoteOnEvent(tick=0, channel=1, data=[77, 100]),\r\n",
      "   midi.NoteOnEvent(tick=96, channel=1, data=[77, 0]),\r\n",
      "   midi.NoteOnEvent(tick=0, channel=1, data=[76, 100]),\r\n",
      "   midi.NoteOnEvent(tick=192, channel=1, data=[76, 0]),\r\n",
      "   midi.NoteOnEvent(tick=0, channel=1, data=[72, 100]),\r\n",
      "   midi.NoteOnEvent(tick=192, channel=1, data=[72, 0]),\r\n",
      "   midi.NoteOnEvent(tick=96, channel=1, data=[72, 100]),\r\n",
      "   midi.NoteOnEvent(tick=96, channel=1, data=[72, 0]),\r\n",
      "   midi.NoteOnEvent(tick=0, channel=1, data=[71, 100]),\r\n",
      "   midi.NoteOnEvent(tick=96, channel=1, data=[71, 0]),\r\n",
      "   midi.NoteOnEvent(tick=0, channel=1, data=[72, 100]),\r\n",
      "   midi.NoteOnEvent(tick=96, channel=1, data=[72, 0]),\r\n",
      "   midi.NoteOnEvent(tick=0, channel=1, data=[74, 100]),\r\n",
      "   midi.NoteOnEvent(tick=96, channel=1, data=[74, 0]),\r\n",
      "   midi.NoteOnEvent(tick=0, channel=1, data=[72, 100]),\r\n",
      "   midi.NoteOnEvent(tick=96, channel=1, data=[72, 0]),\r\n",
      "   midi.NoteOnEvent(tick=0, channel=1, data=[71, 100]),\r\n",
      "   midi.NoteOnEvent(tick=96, channel=1, data=[71, 0]),\r\n",
      "   midi.NoteOnEvent(tick=0, channel=1, data=[72, 100]),\r\n",
      "   midi.NoteOnEvent(tick=96, channel=1, data=[72, 0]),\r\n",
      "   midi.NoteOnEvent(tick=0, channel=1, data=[76, 100]),\r\n",
      "   midi.NoteOnEvent(tick=96, channel=1, data=[76, 0]),\r\n",
      "   midi.NoteOnEvent(tick=0, channel=1, data=[72, 100]),\r\n",
      "   midi.NoteOnEvent(tick=96, channel=1, data=[72, 0]),\r\n",
      "   midi.NoteOnEvent(tick=0, channel=1, data=[71, 100]),\r\n",
      "   midi.NoteOnEvent(tick=96, channel=1, data=[71, 0]),\r\n",
      "   midi.NoteOnEvent(tick=0, channel=1, data=[72, 100]),\r\n",
      "   midi.NoteOnEvent(tick=96, channel=1, data=[72, 0]),\r\n",
      "   midi.NoteOnEvent(tick=0, channel=1, data=[77, 100]),\r\n",
      "   midi.NoteOnEvent(tick=96, channel=1, data=[77, 0]),\r\n",
      "   midi.NoteOnEvent(tick=0, channel=1, data=[72, 100]),\r\n",
      "   midi.NoteOnEvent(tick=96, channel=1, data=[72, 0]),\r\n",
      "   midi.NoteOnEvent(tick=0, channel=1, data=[71, 100]),\r\n",
      "   midi.NoteOnEvent(tick=96, channel=1, data=[71, 0]),\r\n",
      "   midi.NoteOnEvent(tick=0, channel=1, data=[72, 100]),\r\n",
      "   midi.NoteOnEvent(tick=96, channel=1, data=[72, 0]),\r\n",
      "   midi.NoteOnEvent(tick=0, channel=1, data=[79, 100]),\r\n",
      "   midi.NoteOnEvent(tick=96, channel=1, data=[79, 0]),\r\n",
      "   midi.NoteOnEvent(tick=0, channel=1, data=[72, 100]),\r\n",
      "   midi.NoteOnEvent(tick=96, channel=1, data=[72, 0]),\r\n",
      "   midi.NoteOnEvent(tick=0, channel=1, data=[71, 100]),\r\n",
      "   midi.NoteOnEvent(tick=96, channel=1, data=[71, 0]),\r\n",
      "   midi.NoteOnEvent(tick=0, channel=1, data=[72, 100]),\r\n",
      "   midi.NoteOnEvent(tick=96, channel=1, data=[72, 0]),\r\n",
      "   midi.NoteOnEvent(tick=0, channel=1, data=[81, 100]),\r\n",
      "   midi.NoteOnEvent(tick=96, channel=1, data=[81, 0]),\r\n",
      "   midi.NoteOnEvent(tick=0, channel=1, data=[82, 100]),\r\n",
      "   midi.NoteOnEvent(tick=96, channel=1, data=[82, 0]),\r\n",
      "   midi.NoteOnEvent(tick=0, channel=1, data=[81, 100]),\r\n",
      "   midi.NoteOnEvent(tick=96, channel=1, data=[81, 0]),\r\n",
      "   midi.NoteOnEvent(tick=0, channel=1, data=[79, 100]),\r\n",
      "   midi.NoteOnEvent(tick=96, channel=1, data=[79, 0]),\r\n",
      "   midi.NoteOnEvent(tick=0, channel=1, data=[77, 100]),\r\n",
      "   midi.NoteOnEvent(tick=96, channel=1, data=[77, 0]),\r\n",
      "   midi.NoteOnEvent(tick=0, channel=1, data=[76, 100]),\r\n",
      "   midi.NoteOnEvent(tick=96, channel=1, data=[76, 0]),\r\n",
      "   midi.NoteOnEvent(tick=0, channel=1, data=[74, 100]),\r\n",
      "   midi.NoteOnEvent(tick=96, channel=1, data=[74, 0]),\r\n",
      "   midi.NoteOnEvent(tick=0, channel=1, data=[72, 100]),\r\n",
      "   midi.NoteOnEvent(tick=96, channel=1, data=[72, 0]),\r\n",
      "   midi.NoteOnEvent(tick=0, channel=1, data=[71, 100]),\r\n",
      "   midi.NoteOnEvent(tick=192, channel=1, data=[71, 0]),\r\n",
      "   midi.NoteOnEvent(tick=0, channel=1, data=[67, 100]),\r\n",
      "   midi.NoteOnEvent(tick=192, channel=1, data=[67, 0]),\r\n",
      "   midi.NoteOnEvent(tick=0, channel=1, data=[83, 100]),\r\n",
      "   midi.NoteOnEvent(tick=576, channel=1, data=[83, 0]),\r\n",
      "   midi.NoteOnEvent(tick=0, channel=1, data=[81, 100]),\r\n",
      "   midi.NoteOnEvent(tick=96, channel=1, data=[81, 0]),\r\n",
      "   midi.NoteOnEvent(tick=0, channel=1, data=[80, 100]),\r\n",
      "   midi.NoteOnEvent(tick=96, channel=1, data=[80, 0]),\r\n",
      "   midi.NoteOnEvent(tick=0, channel=1, data=[81, 100]),\r\n",
      "   midi.NoteOnEvent(tick=192, channel=1, data=[81, 0]),\r\n",
      "   midi.NoteOnEvent(tick=0, channel=1, data=[84, 100]),\r\n",
      "   midi.NoteOnEvent(tick=384, channel=1, data=[84, 0]),\r\n",
      "   midi.NoteOnEvent(tick=0, channel=1, data=[78, 100]),\r\n",
      "   midi.NoteOnEvent(tick=192, channel=1, data=[78, 0]),\r\n",
      "   midi.NoteOnEvent(tick=1344, channel=1, data=[74, 100]),\r\n",
      "   midi.NoteOnEvent(tick=192, channel=1, data=[74, 0]),\r\n",
      "   midi.NoteOnEvent(tick=0, channel=1, data=[81, 100]),\r\n",
      "   midi.NoteOnEvent(tick=576, channel=1, data=[81, 0]),\r\n",
      "   midi.NoteOnEvent(tick=0, channel=1, data=[79, 100]),\r\n",
      "   midi.NoteOnEvent(tick=96, channel=1, data=[79, 0]),\r\n",
      "   midi.NoteOnEvent(tick=0, channel=1, data=[78, 100]),\r\n",
      "   midi.NoteOnEvent(tick=96, channel=1, data=[78, 0]),\r\n",
      "   midi.NoteOnEvent(tick=0, channel=1, data=[79, 100]),\r\n",
      "   midi.NoteOnEvent(tick=192, channel=1, data=[79, 0]),\r\n",
      "   midi.NoteOnEvent(tick=0, channel=1, data=[83, 100]),\r\n",
      "   midi.NoteOnEvent(tick=384, channel=1, data=[83, 0]),\r\n",
      "   midi.NoteOnEvent(tick=0, channel=1, data=[76, 100]),\r\n",
      "   midi.NoteOnEvent(tick=192, channel=1, data=[76, 0]),\r\n",
      "   midi.NoteOnEvent(tick=1344, channel=1, data=[76, 100]),\r\n",
      "   midi.NoteOnEvent(tick=96, channel=1, data=[76, 0]),\r\n",
      "   midi.NoteOnEvent(tick=0, channel=1, data=[75, 100]),\r\n",
      "   midi.NoteOnEvent(tick=96, channel=1, data=[75, 0]),\r\n",
      "   midi.NoteOnEvent(tick=0, channel=1, data=[76, 100]),\r\n",
      "   midi.NoteOnEvent(tick=576, channel=1, data=[76, 0]),\r\n",
      "   midi.NoteOnEvent(tick=0, channel=1, data=[78, 100]),\r\n",
      "   midi.NoteOnEvent(tick=96, channel=1, data=[78, 0]),\r\n",
      "   midi.NoteOnEvent(tick=0, channel=1, data=[79, 100]),\r\n",
      "   midi.NoteOnEvent(tick=96, channel=1, data=[79, 0]),\r\n",
      "   midi.NoteOnEvent(tick=0, channel=1, data=[81, 100]),\r\n",
      "   midi.NoteOnEvent(tick=192, channel=1, data=[81, 0]),\r\n",
      "   midi.NoteOnEvent(tick=0, channel=1, data=[72, 100]),\r\n",
      "   midi.NoteOnEvent(tick=192, channel=1, data=[72, 0]),\r\n",
      "   midi.NoteOnEvent(tick=0, channel=1, data=[71, 100]),\r\n",
      "   midi.NoteOnEvent(tick=192, channel=1, data=[71, 0]),\r\n",
      "   midi.NoteOnEvent(tick=0, channel=1, data=[81, 100]),\r\n",
      "   midi.NoteOnEvent(tick=192, channel=1, data=[81, 0]),\r\n",
      "   midi.NoteOnEvent(tick=0, channel=1, data=[79, 100]),\r\n",
      "   midi.NoteOnEvent(tick=192, channel=1, data=[79, 0]),\r\n",
      "   midi.NoteOnEvent(tick=0, channel=1, data=[71, 100]),\r\n",
      "   midi.NoteOnEvent(tick=192, channel=1, data=[71, 0]),\r\n",
      "   midi.NoteOnEvent(tick=0, channel=1, data=[69, 100]),\r\n",
      "   midi.NoteOnEvent(tick=96, channel=1, data=[69, 0]),\r\n",
      "   midi.NoteOnEvent(tick=0, channel=1, data=[71, 100]),\r\n",
      "   midi.NoteOnEvent(tick=96, channel=1, data=[71, 0]),\r\n",
      "   midi.NoteOnEvent(tick=0, channel=1, data=[72, 100]),\r\n",
      "   midi.NoteOnEvent(tick=96, channel=1, data=[72, 0]),\r\n",
      "   midi.NoteOnEvent(tick=0, channel=1, data=[71, 100]),\r\n",
      "   midi.NoteOnEvent(tick=96, channel=1, data=[71, 0]),\r\n",
      "   midi.NoteOnEvent(tick=0, channel=1, data=[69, 100]),\r\n",
      "   midi.NoteOnEvent(tick=96, channel=1, data=[69, 0]),\r\n",
      "   midi.NoteOnEvent(tick=0, channel=1, data=[67, 100]),\r\n",
      "   midi.NoteOnEvent(tick=96, channel=1, data=[67, 0]),\r\n",
      "   midi.NoteOnEvent(tick=0, channel=1, data=[66, 100]),\r\n",
      "   midi.NoteOnEvent(tick=96, channel=1, data=[66, 0]),\r\n",
      "   midi.NoteOnEvent(tick=0, channel=1, data=[64, 100]),\r\n",
      "   midi.NoteOnEvent(tick=96, channel=1, data=[64, 0]),\r\n",
      "   midi.NoteOnEvent(tick=0, channel=1, data=[63, 100]),\r\n",
      "   midi.NoteOnEvent(tick=192, channel=1, data=[63, 0]),\r\n",
      "   midi.NoteOnEvent(tick=0, channel=1, data=[72, 100]),\r\n",
      "   midi.NoteOnEvent(tick=192, channel=1, data=[72, 0]),\r\n",
      "   midi.NoteOnEvent(tick=0, channel=1, data=[71, 100]),\r\n",
      "   midi.NoteOnEvent(tick=192, channel=1, data=[71, 0]),\r\n",
      "   midi.NoteOnEvent(tick=0, channel=1, data=[76, 100]),\r\n",
      "   midi.NoteOnEvent(tick=192, channel=1, data=[76, 0]),\r\n",
      "   midi.NoteOnEvent(tick=0, channel=1, data=[79, 100]),\r\n",
      "   midi.NoteOnEvent(tick=384, channel=1, data=[79, 0]),\r\n",
      "   midi.NoteOnEvent(tick=0, channel=1, data=[78, 100]),\r\n",
      "   midi.NoteOnEvent(tick=48, channel=1, data=[78, 0]),\r\n",
      "   midi.NoteOnEvent(tick=0, channel=1, data=[79, 100]),\r\n",
      "   midi.NoteOnEvent(tick=48, channel=1, data=[79, 0]),\r\n",
      "   midi.NoteOnEvent(tick=0, channel=1, data=[78, 100]),\r\n",
      "   midi.NoteOnEvent(tick=48, channel=1, data=[78, 0]),\r\n",
      "   midi.NoteOnEvent(tick=0, channel=1, data=[79, 100]),\r\n",
      "   midi.NoteOnEvent(tick=48, channel=1, data=[79, 0]),\r\n",
      "   midi.NoteOnEvent(tick=0, channel=1, data=[78, 100]),\r\n",
      "   midi.NoteOnEvent(tick=48, channel=1, data=[78, 0]),\r\n",
      "   midi.NoteOnEvent(tick=0, channel=1, data=[79, 100]),\r\n",
      "   midi.NoteOnEvent(tick=48, channel=1, data=[79, 0]),\r\n",
      "   midi.NoteOnEvent(tick=0, channel=1, data=[78, 100]),\r\n",
      "   midi.NoteOnEvent(tick=48, channel=1, data=[78, 0]),\r\n",
      "   midi.NoteOnEvent(tick=0, channel=1, data=[79, 100]),\r\n",
      "   midi.NoteOnEvent(tick=48, channel=1, data=[79, 0]),\r\n",
      "   midi.NoteOnEvent(tick=0, channel=1, data=[78, 100]),\r\n",
      "   midi.NoteOnEvent(tick=384, channel=1, data=[78, 0]),\r\n",
      "   midi.NoteOnEvent(tick=384, channel=1, data=[81, 100]),\r\n",
      "   midi.NoteOnEvent(tick=384, channel=1, data=[81, 0]),\r\n",
      "   midi.NoteOnEvent(tick=384, channel=1, data=[84, 100]),\r\n",
      "   midi.NoteOnEvent(tick=384, channel=1, data=[84, 0]),\r\n",
      "   midi.NoteOnEvent(tick=384, channel=1, data=[69, 100]),\r\n",
      "   midi.NoteOnEvent(tick=384, channel=1, data=[69, 0]),\r\n",
      "   midi.NoteOnEvent(tick=384, channel=1, data=[69, 100]),\r\n",
      "   midi.NoteOnEvent(tick=768, channel=1, data=[69, 0]),\r\n",
      "   midi.NoteOnEvent(tick=96, channel=1, data=[71, 100]),\r\n",
      "   midi.NoteOnEvent(tick=96, channel=1, data=[71, 0]),\r\n",
      "   midi.NoteOnEvent(tick=0, channel=1, data=[73, 100]),\r\n",
      "   midi.NoteOnEvent(tick=96, channel=1, data=[73, 0]),\r\n",
      "   midi.NoteOnEvent(tick=0, channel=1, data=[75, 100]),\r\n",
      "   midi.NoteOnEvent(tick=96, channel=1, data=[75, 0]),\r\n",
      "   midi.NoteOnEvent(tick=0, channel=1, data=[76, 100]),\r\n",
      "   midi.NoteOnEvent(tick=96, channel=1, data=[76, 0]),\r\n",
      "   midi.NoteOnEvent(tick=0, channel=1, data=[78, 100]),\r\n",
      "   midi.NoteOnEvent(tick=96, channel=1, data=[78, 0]),\r\n",
      "   midi.NoteOnEvent(tick=0, channel=1, data=[79, 100]),\r\n",
      "   midi.NoteOnEvent(tick=96, channel=1, data=[79, 0]),\r\n",
      "   midi.NoteOnEvent(tick=0, channel=1, data=[81, 100]),\r\n",
      "   midi.NoteOnEvent(tick=96, channel=1, data=[81, 0]),\r\n",
      "   midi.NoteOnEvent(tick=0, channel=1, data=[83, 100]),\r\n",
      "   midi.NoteOnEvent(tick=192, channel=1, data=[83, 0]),\r\n",
      "   midi.NoteOnEvent(tick=0, channel=1, data=[76, 100]),\r\n",
      "   midi.NoteOnEvent(tick=192, channel=1, data=[76, 0]),\r\n",
      "   midi.NoteOnEvent(tick=0, channel=1, data=[78, 100]),\r\n",
      "   midi.NoteOnEvent(tick=192, channel=1, data=[78, 0]),\r\n",
      "   midi.NoteOnEvent(tick=0, channel=1, data=[75, 100]),\r\n",
      "   midi.NoteOnEvent(tick=192, channel=1, data=[75, 0]),\r\n",
      "   midi.NoteOnEvent(tick=0, channel=1, data=[76, 100]),\r\n",
      "   midi.NoteOnEvent(tick=96, channel=1, data=[76, 0]),\r\n",
      "   midi.NoteOnEvent(tick=0, channel=1, data=[74, 100]),\r\n",
      "   midi.NoteOnEvent(tick=96, channel=1, data=[74, 0]),\r\n",
      "   midi.NoteOnEvent(tick=0, channel=1, data=[72, 100]),\r\n",
      "   midi.NoteOnEvent(tick=96, channel=1, data=[72, 0]),\r\n",
      "   midi.NoteOnEvent(tick=0, channel=1, data=[71, 100]),\r\n",
      "   midi.NoteOnEvent(tick=96, channel=1, data=[71, 0]),\r\n",
      "   midi.NoteOnEvent(tick=0, channel=1, data=[69, 100]),\r\n",
      "   midi.NoteOnEvent(tick=192, channel=1, data=[69, 0]),\r\n",
      "   midi.NoteOnEvent(tick=0, channel=1, data=[69, 100]),\r\n",
      "   midi.NoteOnEvent(tick=192, channel=1, data=[69, 0]),\r\n",
      "   midi.NoteOnEvent(tick=0, channel=1, data=[69, 100]),\r\n",
      "   midi.NoteOnEvent(tick=96, channel=1, data=[69, 0]),\r\n",
      "   midi.NoteOnEvent(tick=0, channel=1, data=[71, 100]),\r\n",
      "   midi.NoteOnEvent(tick=96, channel=1, data=[71, 0]),\r\n",
      "   midi.NoteOnEvent(tick=0, channel=1, data=[72, 100]),\r\n",
      "   midi.NoteOnEvent(tick=288, channel=1, data=[72, 0]),\r\n",
      "   midi.NoteOnEvent(tick=0, channel=1, data=[71, 100]),\r\n",
      "   midi.NoteOnEvent(tick=96, channel=1, data=[71, 0]),\r\n",
      "   midi.NoteOnEvent(tick=0, channel=1, data=[69, 100]),\r\n",
      "   midi.NoteOnEvent(tick=96, channel=1, data=[69, 0]),\r\n",
      "   midi.NoteOnEvent(tick=0, channel=1, data=[67, 100]),\r\n",
      "   midi.NoteOnEvent(tick=96, channel=1, data=[67, 0]),\r\n",
      "   midi.NoteOnEvent(tick=0, channel=1, data=[66, 100]),\r\n",
      "   midi.NoteOnEvent(tick=96, channel=1, data=[66, 0]),\r\n",
      "   midi.NoteOnEvent(tick=0, channel=1, data=[67, 100]),\r\n",
      "   midi.NoteOnEvent(tick=96, channel=1, data=[67, 0]),\r\n",
      "   midi.NoteOnEvent(tick=0, channel=1, data=[69, 100]),\r\n",
      "   midi.NoteOnEvent(tick=288, channel=1, data=[69, 0]),\r\n",
      "   midi.NoteOnEvent(tick=0, channel=1, data=[67, 100]),\r\n",
      "   midi.NoteOnEvent(tick=96, channel=1, data=[67, 0]),\r\n",
      "   midi.NoteOnEvent(tick=0, channel=1, data=[66, 100]),\r\n",
      "   midi.NoteOnEvent(tick=96, channel=1, data=[66, 0]),\r\n",
      "   midi.NoteOnEvent(tick=0, channel=1, data=[64, 100]),\r\n",
      "   midi.NoteOnEvent(tick=96, channel=1, data=[64, 0]),\r\n",
      "   midi.NoteOnEvent(tick=0, channel=1, data=[63, 100]),\r\n",
      "   midi.NoteOnEvent(tick=192, channel=1, data=[63, 0]),\r\n",
      "   midi.NoteOnEvent(tick=0, channel=1, data=[71, 100]),\r\n",
      "   midi.NoteOnEvent(tick=192, channel=1, data=[71, 0]),\r\n",
      "   midi.NoteOnEvent(tick=0, channel=1, data=[67, 100]),\r\n",
      "   midi.NoteOnEvent(tick=192, channel=1, data=[67, 0]),\r\n",
      "   midi.NoteOnEvent(tick=0, channel=1, data=[66, 100]),\r\n",
      "   midi.NoteOnEvent(tick=96, channel=1, data=[66, 0]),\r\n",
      "   midi.NoteOnEvent(tick=0, channel=1, data=[64, 100]),\r\n",
      "   midi.NoteOnEvent(tick=96, channel=1, data=[64, 0]),\r\n",
      "   midi.NoteOnEvent(tick=0, channel=1, data=[64, 100]),\r\n",
      "   midi.NoteOnEvent(tick=384, channel=1, data=[64, 0]),\r\n",
      "   midi.NoteOnEvent(tick=576, channel=1, data=[71, 100]),\r\n",
      "   midi.NoteOnEvent(tick=192, channel=1, data=[71, 0]),\r\n",
      "   midi.NoteOnEvent(tick=0, channel=1, data=[76, 100]),\r\n",
      "   midi.NoteOnEvent(tick=192, channel=1, data=[76, 0]),\r\n",
      "   midi.NoteOnEvent(tick=384, channel=1, data=[75, 100]),\r\n",
      "   midi.NoteOnEvent(tick=96, channel=1, data=[75, 0]),\r\n",
      "   midi.NoteOnEvent(tick=0, channel=1, data=[76, 100]),\r\n",
      "   midi.NoteOnEvent(tick=96, channel=1, data=[76, 0]),\r\n",
      "   midi.NoteOnEvent(tick=0, channel=1, data=[78, 100]),\r\n",
      "   midi.NoteOnEvent(tick=192, channel=1, data=[78, 0]),\r\n",
      "   midi.NoteOnEvent(tick=384, channel=1, data=[71, 100]),\r\n",
      "   midi.NoteOnEvent(tick=192, channel=1, data=[71, 0]),\r\n",
      "   midi.NoteOnEvent(tick=0, channel=1, data=[78, 100]),\r\n",
      "   midi.NoteOnEvent(tick=192, channel=1, data=[78, 0]),\r\n",
      "   midi.NoteOnEvent(tick=384, channel=1, data=[76, 100]),\r\n",
      "   midi.NoteOnEvent(tick=96, channel=1, data=[76, 0]),\r\n",
      "   midi.NoteOnEvent(tick=0, channel=1, data=[78, 100]),\r\n",
      "   midi.NoteOnEvent(tick=96, channel=1, data=[78, 0]),\r\n",
      "   midi.NoteOnEvent(tick=0, channel=1, data=[79, 100]),\r\n",
      "   midi.NoteOnEvent(tick=192, channel=1, data=[79, 0]),\r\n",
      "   midi.NoteOnEvent(tick=0, channel=1, data=[76, 100]),\r\n",
      "   midi.NoteOnEvent(tick=192, channel=1, data=[76, 0]),\r\n",
      "   midi.NoteOnEvent(tick=0, channel=1, data=[78, 100]),\r\n",
      "   midi.NoteOnEvent(tick=384, channel=1, data=[78, 0]),\r\n",
      "   midi.NoteOnEvent(tick=0, channel=1, data=[80, 100]),\r\n",
      "   midi.NoteOnEvent(tick=384, channel=1, data=[80, 0]),\r\n",
      "   midi.NoteOnEvent(tick=0, channel=1, data=[81, 100]),\r\n",
      "   midi.NoteOnEvent(tick=384, channel=1, data=[81, 0]),\r\n",
      "   midi.NoteOnEvent(tick=0, channel=1, data=[83, 100]),\r\n",
      "   midi.NoteOnEvent(tick=384, channel=1, data=[83, 0]),\r\n",
      "   midi.NoteOnEvent(tick=0, channel=1, data=[84, 100]),\r\n",
      "   midi.NoteOnEvent(tick=192, channel=1, data=[84, 0]),\r\n",
      "   midi.NoteOnEvent(tick=0, channel=1, data=[76, 100]),\r\n",
      "   midi.NoteOnEvent(tick=192, channel=1, data=[76, 0]),\r\n",
      "   midi.NoteOnEvent(tick=0, channel=1, data=[73, 100]),\r\n",
      "   midi.NoteOnEvent(tick=384, channel=1, data=[73, 0]),\r\n",
      "   midi.NoteOnEvent(tick=0, channel=1, data=[74, 100]),\r\n",
      "   midi.NoteOnEvent(tick=384, channel=1, data=[74, 0]),\r\n",
      "   midi.NoteOnEvent(tick=0, channel=1, data=[76, 100]),\r\n",
      "   midi.NoteOnEvent(tick=384, channel=1, data=[76, 0]),\r\n",
      "   midi.NoteOnEvent(tick=0, channel=1, data=[77, 100]),\r\n",
      "   midi.NoteOnEvent(tick=192, channel=1, data=[77, 0]),\r\n",
      "   midi.NoteOnEvent(tick=0, channel=1, data=[69, 100]),\r\n",
      "   midi.NoteOnEvent(tick=192, channel=1, data=[69, 0]),\r\n",
      "   midi.NoteOnEvent(tick=0, channel=1, data=[66, 100]),\r\n",
      "   midi.NoteOnEvent(tick=384, channel=1, data=[66, 0]),\r\n",
      "   midi.NoteOnEvent(tick=0, channel=1, data=[67, 100]),\r\n",
      "   midi.NoteOnEvent(tick=384, channel=1, data=[67, 0]),\r\n",
      "   midi.NoteOnEvent(tick=0, channel=1, data=[69, 100]),\r\n",
      "   midi.NoteOnEvent(tick=384, channel=1, data=[69, 0]),\r\n",
      "   midi.NoteOnEvent(tick=0, channel=1, data=[71, 100]),\r\n",
      "   midi.NoteOnEvent(tick=384, channel=1, data=[71, 0]),\r\n",
      "   midi.NoteOnEvent(tick=0, channel=1, data=[71, 100]),\r\n",
      "   midi.NoteOnEvent(tick=384, channel=1, data=[71, 0]),\r\n",
      "   midi.NoteOnEvent(tick=0, channel=1, data=[72, 100]),\r\n",
      "   midi.NoteOnEvent(tick=384, channel=1, data=[72, 0]),\r\n",
      "   midi.NoteOnEvent(tick=0, channel=1, data=[74, 100]),\r\n",
      "   midi.NoteOnEvent(tick=384, channel=1, data=[74, 0]),\r\n",
      "   midi.NoteOnEvent(tick=0, channel=1, data=[76, 100]),\r\n",
      "   midi.NoteOnEvent(tick=384, channel=1, data=[76, 0]),\r\n",
      "   midi.NoteOnEvent(tick=0, channel=1, data=[76, 100]),\r\n",
      "   midi.NoteOnEvent(tick=384, channel=1, data=[76, 0]),\r\n",
      "   midi.NoteOnEvent(tick=0, channel=1, data=[77, 100]),\r\n",
      "   midi.NoteOnEvent(tick=384, channel=1, data=[77, 0]),\r\n",
      "   midi.NoteOnEvent(tick=0, channel=1, data=[79, 100]),\r\n",
      "   midi.NoteOnEvent(tick=384, channel=1, data=[79, 0]),\r\n",
      "   midi.NoteOnEvent(tick=0, channel=1, data=[81, 100]),\r\n",
      "   midi.NoteOnEvent(tick=384, channel=1, data=[81, 0]),\r\n",
      "   midi.NoteOnEvent(tick=1728, channel=1, data=[69, 100]),\r\n",
      "   midi.NoteOnEvent(tick=192, channel=1, data=[69, 0]),\r\n",
      "   midi.NoteOnEvent(tick=0, channel=1, data=[74, 100]),\r\n",
      "   midi.NoteOnEvent(tick=384, channel=1, data=[74, 0]),\r\n",
      "   midi.NoteOnEvent(tick=192, channel=1, data=[69, 100]),\r\n",
      "   midi.NoteOnEvent(tick=192, channel=1, data=[69, 0]),\r\n",
      "   midi.NoteOnEvent(tick=0, channel=1, data=[70, 100]),\r\n",
      "   midi.NoteOnEvent(tick=384, channel=1, data=[70, 0]),\r\n",
      "   midi.NoteOnEvent(tick=192, channel=1, data=[67, 100]),\r\n",
      "   midi.NoteOnEvent(tick=192, channel=1, data=[67, 0]),\r\n",
      "   midi.NoteOnEvent(tick=0, channel=1, data=[69, 100]),\r\n",
      "   midi.NoteOnEvent(tick=96, channel=1, data=[69, 0]),\r\n",
      "   midi.NoteOnEvent(tick=0, channel=1, data=[67, 100]),\r\n",
      "   midi.NoteOnEvent(tick=96, channel=1, data=[67, 0]),\r\n",
      "   midi.NoteOnEvent(tick=0, channel=1, data=[65, 100]),\r\n",
      "   midi.NoteOnEvent(tick=96, channel=1, data=[65, 0]),\r\n",
      "   midi.NoteOnEvent(tick=0, channel=1, data=[69, 100]),\r\n",
      "   midi.NoteOnEvent(tick=96, channel=1, data=[69, 0]),\r\n",
      "   midi.NoteOnEvent(tick=0, channel=1, data=[67, 100]),\r\n",
      "   midi.NoteOnEvent(tick=96, channel=1, data=[67, 0]),\r\n",
      "   midi.NoteOnEvent(tick=0, channel=1, data=[65, 100]),\r\n",
      "   midi.NoteOnEvent(tick=96, channel=1, data=[65, 0]),\r\n",
      "   midi.NoteOnEvent(tick=0, channel=1, data=[64, 100]),\r\n",
      "   midi.NoteOnEvent(tick=96, channel=1, data=[64, 0]),\r\n",
      "   midi.NoteOnEvent(tick=0, channel=1, data=[67, 100]),\r\n",
      "   midi.NoteOnEvent(tick=96, channel=1, data=[67, 0]),\r\n",
      "   midi.NoteOnEvent(tick=0, channel=1, data=[65, 100]),\r\n",
      "   midi.NoteOnEvent(tick=192, channel=1, data=[65, 0]),\r\n",
      "   midi.NoteOnEvent(tick=0, channel=1, data=[62, 100]),\r\n",
      "   midi.NoteOnEvent(tick=192, channel=1, data=[62, 0]),\r\n",
      "   midi.NoteOnEvent(tick=0, channel=1, data=[72, 100]),\r\n",
      "   midi.NoteOnEvent(tick=2112, channel=1, data=[72, 0]),\r\n",
      "   midi.NoteOnEvent(tick=0, channel=1, data=[69, 100]),\r\n",
      "   midi.NoteOnEvent(tick=192, channel=1, data=[69, 0]),\r\n",
      "   midi.NoteOnEvent(tick=0, channel=1, data=[65, 100]),\r\n",
      "   midi.NoteOnEvent(tick=192, channel=1, data=[65, 0]),\r\n",
      "   midi.NoteOnEvent(tick=0, channel=1, data=[70, 100]),\r\n",
      "   midi.NoteOnEvent(tick=192, channel=1, data=[70, 0]),\r\n",
      "   midi.NoteOnEvent(tick=0, channel=1, data=[72, 100]),\r\n",
      "   midi.NoteOnEvent(tick=1728, channel=1, data=[72, 0]),\r\n",
      "   midi.NoteOnEvent(tick=0, channel=1, data=[72, 100]),\r\n",
      "   midi.NoteOnEvent(tick=192, channel=1, data=[72, 0]),\r\n",
      "   midi.NoteOnEvent(tick=0, channel=1, data=[69, 100]),\r\n",
      "   midi.NoteOnEvent(tick=192, channel=1, data=[69, 0]),\r\n",
      "   midi.NoteOnEvent(tick=0, channel=1, data=[65, 100]),\r\n",
      "   midi.NoteOnEvent(tick=192, channel=1, data=[65, 0]),\r\n",
      "   midi.NoteOnEvent(tick=0, channel=1, data=[70, 100]),\r\n",
      "   midi.NoteOnEvent(tick=192, channel=1, data=[70, 0]),\r\n",
      "   midi.NoteOnEvent(tick=0, channel=1, data=[74, 100]),\r\n",
      "   midi.NoteOnEvent(tick=192, channel=1, data=[74, 0]),\r\n",
      "   midi.NoteOnEvent(tick=0, channel=1, data=[74, 100]),\r\n",
      "   midi.NoteOnEvent(tick=192, channel=1, data=[74, 0]),\r\n",
      "   midi.NoteOnEvent(tick=0, channel=1, data=[74, 100]),\r\n",
      "   midi.NoteOnEvent(tick=192, channel=1, data=[74, 0]),\r\n",
      "   midi.NoteOnEvent(tick=0, channel=1, data=[74, 100]),\r\n",
      "   midi.NoteOnEvent(tick=192, channel=1, data=[74, 0]),\r\n",
      "   midi.NoteOnEvent(tick=0, channel=1, data=[74, 100]),\r\n",
      "   midi.NoteOnEvent(tick=192, channel=1, data=[74, 0]),\r\n",
      "   midi.NoteOnEvent(tick=0, channel=1, data=[74, 100]),\r\n",
      "   midi.NoteOnEvent(tick=192, channel=1, data=[74, 0]),\r\n",
      "   midi.NoteOnEvent(tick=0, channel=1, data=[74, 100]),\r\n",
      "   midi.NoteOnEvent(tick=192, channel=1, data=[74, 0]),\r\n",
      "   midi.NoteOnEvent(tick=0, channel=1, data=[74, 100]),\r\n",
      "   midi.NoteOnEvent(tick=192, channel=1, data=[74, 0]),\r\n",
      "   midi.NoteOnEvent(tick=0, channel=1, data=[79, 100]),\r\n",
      "   midi.NoteOnEvent(tick=96, channel=1, data=[79, 0]),\r\n",
      "   midi.NoteOnEvent(tick=0, channel=1, data=[81, 100]),\r\n",
      "   midi.NoteOnEvent(tick=96, channel=1, data=[81, 0]),\r\n",
      "   midi.NoteOnEvent(tick=0, channel=1, data=[79, 100]),\r\n",
      "   midi.NoteOnEvent(tick=96, channel=1, data=[79, 0]),\r\n",
      "   midi.NoteOnEvent(tick=0, channel=1, data=[77, 100]),\r\n",
      "   midi.NoteOnEvent(tick=96, channel=1, data=[77, 0]),\r\n",
      "   midi.NoteOnEvent(tick=0, channel=1, data=[76, 100]),\r\n",
      "   midi.NoteOnEvent(tick=96, channel=1, data=[76, 0]),\r\n",
      "   midi.NoteOnEvent(tick=0, channel=1, data=[74, 100]),\r\n",
      "   midi.NoteOnEvent(tick=96, channel=1, data=[74, 0]),\r\n",
      "   midi.NoteOnEvent(tick=0, channel=1, data=[73, 100]),\r\n",
      "   midi.NoteOnEvent(tick=192, channel=1, data=[73, 0]),\r\n",
      "   midi.NoteOnEvent(tick=0, channel=1, data=[73, 100]),\r\n",
      "   midi.NoteOnEvent(tick=192, channel=1, data=[73, 0]),\r\n",
      "   midi.NoteOnEvent(tick=0, channel=1, data=[73, 100]),\r\n",
      "   midi.NoteOnEvent(tick=192, channel=1, data=[73, 0]),\r\n",
      "   midi.NoteOnEvent(tick=0, channel=1, data=[73, 100]),\r\n",
      "   midi.NoteOnEvent(tick=192, channel=1, data=[73, 0]),\r\n",
      "   midi.NoteOnEvent(tick=0, channel=1, data=[73, 100]),\r\n",
      "   midi.NoteOnEvent(tick=192, channel=1, data=[73, 0]),\r\n",
      "   midi.NoteOnEvent(tick=0, channel=1, data=[73, 100]),\r\n",
      "   midi.NoteOnEvent(tick=192, channel=1, data=[73, 0]),\r\n",
      "   midi.NoteOnEvent(tick=0, channel=1, data=[73, 100]),\r\n",
      "   midi.NoteOnEvent(tick=192, channel=1, data=[73, 0]),\r\n",
      "   midi.NoteOnEvent(tick=0, channel=1, data=[73, 100]),\r\n",
      "   midi.NoteOnEvent(tick=192, channel=1, data=[73, 0]),\r\n",
      "   midi.NoteOnEvent(tick=0, channel=1, data=[74, 100]),\r\n",
      "   midi.NoteOnEvent(tick=192, channel=1, data=[74, 0]),\r\n",
      "   midi.NoteOnEvent(tick=0, channel=1, data=[69, 100]),\r\n",
      "   midi.NoteOnEvent(tick=192, channel=1, data=[69, 0]),\r\n",
      "   midi.NoteOnEvent(tick=0, channel=1, data=[77, 100]),\r\n",
      "   midi.NoteOnEvent(tick=576, channel=1, data=[77, 0]),\r\n",
      "   midi.NoteOnEvent(tick=0, channel=1, data=[79, 100]),\r\n",
      "   midi.NoteOnEvent(tick=96, channel=1, data=[79, 0]),\r\n",
      "   midi.NoteOnEvent(tick=0, channel=1, data=[81, 100]),\r\n",
      "   midi.NoteOnEvent(tick=96, channel=1, data=[81, 0]),\r\n",
      "   midi.NoteOnEvent(tick=0, channel=1, data=[79, 100]),\r\n",
      "   midi.NoteOnEvent(tick=192, channel=1, data=[79, 0]),\r\n",
      "   midi.NoteOnEvent(tick=0, channel=1, data=[77, 100]),\r\n",
      "   midi.NoteOnEvent(tick=192, channel=1, data=[77, 0]),\r\n",
      "   midi.NoteOnEvent(tick=0, channel=1, data=[76, 100]),\r\n",
      "   midi.NoteOnEvent(tick=192, channel=1, data=[76, 0]),\r\n",
      "   midi.NoteOnEvent(tick=0, channel=1, data=[67, 100]),\r\n",
      "   midi.NoteOnEvent(tick=192, channel=1, data=[67, 0]),\r\n",
      "   midi.NoteOnEvent(tick=0, channel=1, data=[76, 100]),\r\n",
      "   midi.NoteOnEvent(tick=576, channel=1, data=[76, 0]),\r\n",
      "   midi.NoteOnEvent(tick=0, channel=1, data=[77, 100]),\r\n",
      "   midi.NoteOnEvent(tick=96, channel=1, data=[77, 0]),\r\n",
      "   midi.NoteOnEvent(tick=0, channel=1, data=[79, 100]),\r\n",
      "   midi.NoteOnEvent(tick=96, channel=1, data=[79, 0]),\r\n",
      "   midi.NoteOnEvent(tick=0, channel=1, data=[77, 100]),\r\n",
      "   midi.NoteOnEvent(tick=192, channel=1, data=[77, 0]),\r\n",
      "   midi.NoteOnEvent(tick=0, channel=1, data=[76, 100]),\r\n",
      "   midi.NoteOnEvent(tick=192, channel=1, data=[76, 0]),\r\n",
      "   midi.NoteOnEvent(tick=0, channel=1, data=[74, 100]),\r\n",
      "   midi.NoteOnEvent(tick=192, channel=1, data=[74, 0]),\r\n",
      "   midi.NoteOnEvent(tick=0, channel=1, data=[68, 100]),\r\n",
      "   midi.NoteOnEvent(tick=192, channel=1, data=[68, 0]),\r\n",
      "   midi.NoteOnEvent(tick=0, channel=1, data=[74, 100]),\r\n",
      "   midi.NoteOnEvent(tick=576, channel=1, data=[74, 0]),\r\n",
      "   midi.NoteOnEvent(tick=0, channel=1, data=[72, 100]),\r\n",
      "   midi.NoteOnEvent(tick=192, channel=1, data=[72, 0]),\r\n",
      "   midi.NoteOnEvent(tick=0, channel=1, data=[71, 100]),\r\n",
      "   midi.NoteOnEvent(tick=192, channel=1, data=[71, 0]),\r\n",
      "   midi.NoteOnEvent(tick=0, channel=1, data=[69, 100]),\r\n",
      "   midi.NoteOnEvent(tick=0, channel=1, data=[76, 100]),\r\n",
      "   midi.NoteOnEvent(tick=192, channel=1, data=[76, 0]),\r\n",
      "   midi.NoteOnEvent(tick=0, channel=1, data=[69, 0]),\r\n",
      "   midi.NoteOnEvent(tick=0, channel=1, data=[81, 100]),\r\n",
      "   midi.NoteOnEvent(tick=384, channel=1, data=[81, 0]),\r\n",
      "   midi.NoteOnEvent(tick=192, channel=1, data=[76, 100]),\r\n",
      "   midi.NoteOnEvent(tick=192, channel=1, data=[76, 0]),\r\n",
      "   midi.NoteOnEvent(tick=0, channel=1, data=[77, 100]),\r\n",
      "   midi.NoteOnEvent(tick=384, channel=1, data=[77, 0]),\r\n",
      "   midi.NoteOnEvent(tick=192, channel=1, data=[74, 100]),\r\n",
      "   midi.NoteOnEvent(tick=192, channel=1, data=[74, 0]),\r\n",
      "   midi.NoteOnEvent(tick=0, channel=1, data=[76, 100]),\r\n",
      "   midi.NoteOnEvent(tick=96, channel=1, data=[76, 0]),\r\n",
      "   midi.NoteOnEvent(tick=0, channel=1, data=[74, 100]),\r\n",
      "   midi.NoteOnEvent(tick=96, channel=1, data=[74, 0]),\r\n",
      "   midi.NoteOnEvent(tick=0, channel=1, data=[72, 100]),\r\n",
      "   midi.NoteOnEvent(tick=96, channel=1, data=[72, 0]),\r\n",
      "   midi.NoteOnEvent(tick=0, channel=1, data=[76, 100]),\r\n",
      "   midi.NoteOnEvent(tick=96, channel=1, data=[76, 0]),\r\n",
      "   midi.NoteOnEvent(tick=0, channel=1, data=[74, 100]),\r\n",
      "   midi.NoteOnEvent(tick=96, channel=1, data=[74, 0]),\r\n",
      "   midi.NoteOnEvent(tick=0, channel=1, data=[72, 100]),\r\n",
      "   midi.NoteOnEvent(tick=96, channel=1, data=[72, 0]),\r\n",
      "   midi.NoteOnEvent(tick=0, channel=1, data=[71, 100]),\r\n",
      "   midi.NoteOnEvent(tick=96, channel=1, data=[71, 0]),\r\n",
      "   midi.NoteOnEvent(tick=0, channel=1, data=[74, 100]),\r\n",
      "   midi.NoteOnEvent(tick=96, channel=1, data=[74, 0]),\r\n",
      "   midi.NoteOnEvent(tick=0, channel=1, data=[72, 100]),\r\n",
      "   midi.NoteOnEvent(tick=192, channel=1, data=[72, 0]),\r\n",
      "   midi.NoteOnEvent(tick=0, channel=1, data=[69, 100]),\r\n",
      "   midi.NoteOnEvent(tick=192, channel=1, data=[69, 0]),\r\n",
      "   midi.NoteOnEvent(tick=960, channel=1, data=[76, 100]),\r\n",
      "   midi.NoteOnEvent(tick=192, channel=1, data=[76, 0]),\r\n",
      "   midi.NoteOnEvent(tick=0, channel=1, data=[69, 100]),\r\n",
      "   midi.NoteOnEvent(tick=192, channel=1, data=[69, 0]),\r\n",
      "   midi.NoteOnEvent(tick=0, channel=1, data=[74, 100]),\r\n",
      "   midi.NoteOnEvent(tick=192, channel=1, data=[74, 0]),\r\n",
      "   midi.NoteOnEvent(tick=0, channel=1, data=[67, 100]),\r\n",
      "   midi.NoteOnEvent(tick=192, channel=1, data=[67, 0]),\r\n",
      "   midi.NoteOnEvent(tick=0, channel=1, data=[73, 100]),\r\n",
      "   midi.NoteOnEvent(tick=192, channel=1, data=[73, 0]),\r\n",
      "   midi.NoteOnEvent(tick=0, channel=1, data=[74, 100]),\r\n",
      "   midi.NoteOnEvent(tick=96, channel=1, data=[74, 0]),\r\n",
      "   midi.NoteOnEvent(tick=0, channel=1, data=[65, 100]),\r\n",
      "   midi.NoteOnEvent(tick=96, channel=1, data=[65, 0]),\r\n",
      "   midi.NoteOnEvent(tick=0, channel=1, data=[64, 100]),\r\n",
      "   midi.NoteOnEvent(tick=96, channel=1, data=[64, 0]),\r\n",
      "   midi.NoteOnEvent(tick=0, channel=1, data=[65, 100]),\r\n",
      "   midi.NoteOnEvent(tick=96, channel=1, data=[65, 0]),\r\n",
      "   midi.NoteOnEvent(tick=0, channel=1, data=[62, 100]),\r\n",
      "   midi.NoteOnEvent(tick=576, channel=1, data=[62, 0]),\r\n",
      "   midi.NoteOnEvent(tick=0, channel=1, data=[67, 100]),\r\n",
      "   midi.NoteOnEvent(tick=192, channel=1, data=[67, 0]),\r\n",
      "   midi.NoteOnEvent(tick=0, channel=1, data=[60, 100]),\r\n",
      "   midi.NoteOnEvent(tick=192, channel=1, data=[60, 0]),\r\n",
      "   midi.NoteOnEvent(tick=0, channel=1, data=[66, 100]),\r\n",
      "   midi.NoteOnEvent(tick=192, channel=1, data=[66, 0]),\r\n",
      "   midi.NoteOnEvent(tick=0, channel=1, data=[67, 100]),\r\n",
      "   midi.NoteOnEvent(tick=96, channel=1, data=[67, 0]),\r\n",
      "   midi.NoteOnEvent(tick=0, channel=1, data=[58, 100]),\r\n",
      "   midi.NoteOnEvent(tick=96, channel=1, data=[58, 0]),\r\n",
      "   midi.NoteOnEvent(tick=0, channel=1, data=[57, 100]),\r\n",
      "   midi.NoteOnEvent(tick=96, channel=1, data=[57, 0]),\r\n",
      "   midi.NoteOnEvent(tick=0, channel=1, data=[58, 100]),\r\n",
      "   midi.NoteOnEvent(tick=96, channel=1, data=[58, 0]),\r\n",
      "   midi.NoteOnEvent(tick=0, channel=1, data=[55, 100]),\r\n",
      "   midi.NoteOnEvent(tick=576, channel=1, data=[55, 0]),\r\n",
      "   midi.NoteOnEvent(tick=0, channel=1, data=[72, 100]),\r\n",
      "   midi.NoteOnEvent(tick=192, channel=1, data=[72, 0]),\r\n",
      "   midi.NoteOnEvent(tick=0, channel=1, data=[65, 100]),\r\n",
      "   midi.NoteOnEvent(tick=192, channel=1, data=[65, 0]),\r\n",
      "   midi.NoteOnEvent(tick=0, channel=1, data=[71, 100]),\r\n",
      "   midi.NoteOnEvent(tick=192, channel=1, data=[71, 0]),\r\n",
      "   midi.NoteOnEvent(tick=0, channel=1, data=[72, 100]),\r\n",
      "   midi.NoteOnEvent(tick=384, channel=1, data=[72, 0]),\r\n",
      "   midi.NoteOnEvent(tick=0, channel=1, data=[79, 100]),\r\n",
      "   midi.NoteOnEvent(tick=384, channel=1, data=[79, 0]),\r\n",
      "   midi.NoteOnEvent(tick=0, channel=1, data=[77, 100]),\r\n",
      "   midi.NoteOnEvent(tick=384, channel=1, data=[77, 0]),\r\n",
      "   midi.NoteOnEvent(tick=0, channel=1, data=[76, 100]),\r\n",
      "   midi.NoteOnEvent(tick=384, channel=1, data=[76, 0]),\r\n",
      "   midi.NoteOnEvent(tick=0, channel=1, data=[77, 100]),\r\n",
      "   midi.NoteOnEvent(tick=192, channel=1, data=[77, 0]),\r\n",
      "   midi.NoteOnEvent(tick=0, channel=1, data=[77, 100]),\r\n",
      "   midi.NoteOnEvent(tick=192, channel=1, data=[77, 0]),\r\n",
      "   midi.NoteOnEvent(tick=0, channel=1, data=[75, 100]),\r\n",
      "   midi.NoteOnEvent(tick=192, channel=1, data=[75, 0]),\r\n",
      "   midi.NoteOnEvent(tick=0, channel=1, data=[75, 100]),\r\n",
      "   midi.NoteOnEvent(tick=192, channel=1, data=[75, 0]),\r\n",
      "   midi.NoteOnEvent(tick=0, channel=1, data=[74, 100]),\r\n",
      "   midi.NoteOnEvent(tick=384, channel=1, data=[74, 0]),\r\n",
      "   midi.NoteOnEvent(tick=384, channel=1, data=[70, 100]),\r\n",
      "   midi.NoteOnEvent(tick=192, channel=1, data=[70, 0]),\r\n",
      "   midi.NoteOnEvent(tick=0, channel=1, data=[70, 100]),\r\n",
      "   midi.NoteOnEvent(tick=192, channel=1, data=[70, 0]),\r\n",
      "   midi.NoteOnEvent(tick=0, channel=1, data=[69, 100]),\r\n",
      "   midi.NoteOnEvent(tick=192, channel=1, data=[69, 0]),\r\n",
      "   midi.NoteOnEvent(tick=0, channel=1, data=[69, 100]),\r\n",
      "   midi.NoteOnEvent(tick=192, channel=1, data=[69, 0]),\r\n",
      "   midi.NoteOnEvent(tick=0, channel=1, data=[69, 100]),\r\n",
      "   midi.NoteOnEvent(tick=384, channel=1, data=[69, 0]),\r\n",
      "   midi.NoteOnEvent(tick=384, channel=1, data=[65, 100]),\r\n",
      "   midi.NoteOnEvent(tick=192, channel=1, data=[65, 0]),\r\n",
      "   midi.NoteOnEvent(tick=0, channel=1, data=[65, 100]),\r\n",
      "   midi.NoteOnEvent(tick=192, channel=1, data=[65, 0]),\r\n",
      "   midi.NoteOnEvent(tick=0, channel=1, data=[64, 100]),\r\n",
      "   midi.NoteOnEvent(tick=192, channel=1, data=[64, 0]),\r\n",
      "   midi.NoteOnEvent(tick=0, channel=1, data=[64, 100]),\r\n",
      "   midi.NoteOnEvent(tick=192, channel=1, data=[64, 0]),\r\n",
      "   midi.NoteOnEvent(tick=0, channel=1, data=[64, 100]),\r\n",
      "   midi.NoteOnEvent(tick=384, channel=1, data=[64, 0]),\r\n",
      "   midi.NoteOnEvent(tick=1728, channel=1, data=[76, 100]),\r\n",
      "   midi.NoteOnEvent(tick=192, channel=1, data=[76, 0]),\r\n",
      "   midi.NoteOnEvent(tick=0, channel=1, data=[81, 100]),\r\n",
      "   midi.NoteOnEvent(tick=384, channel=1, data=[81, 0]),\r\n",
      "   midi.NoteOnEvent(tick=192, channel=1, data=[76, 100]),\r\n",
      "   midi.NoteOnEvent(tick=192, channel=1, data=[76, 0]),\r\n",
      "   midi.NoteOnEvent(tick=0, channel=1, data=[77, 100]),\r\n",
      "   midi.NoteOnEvent(tick=384, channel=1, data=[77, 0]),\r\n",
      "   midi.NoteOnEvent(tick=192, channel=1, data=[74, 100]),\r\n",
      "   midi.NoteOnEvent(tick=192, channel=1, data=[74, 0]),\r\n",
      "   midi.NoteOnEvent(tick=0, channel=1, data=[76, 100]),\r\n",
      "   midi.NoteOnEvent(tick=96, channel=1, data=[76, 0]),\r\n",
      "   midi.NoteOnEvent(tick=0, channel=1, data=[74, 100]),\r\n",
      "   midi.NoteOnEvent(tick=96, channel=1, data=[74, 0]),\r\n",
      "   midi.NoteOnEvent(tick=0, channel=1, data=[72, 100]),\r\n",
      "   midi.NoteOnEvent(tick=96, channel=1, data=[72, 0]),\r\n",
      "   midi.NoteOnEvent(tick=0, channel=1, data=[76, 100]),\r\n",
      "   midi.NoteOnEvent(tick=96, channel=1, data=[76, 0]),\r\n",
      "   midi.NoteOnEvent(tick=0, channel=1, data=[74, 100]),\r\n",
      "   midi.NoteOnEvent(tick=96, channel=1, data=[74, 0]),\r\n",
      "   midi.NoteOnEvent(tick=0, channel=1, data=[72, 100]),\r\n",
      "   midi.NoteOnEvent(tick=96, channel=1, data=[72, 0]),\r\n",
      "   midi.NoteOnEvent(tick=0, channel=1, data=[71, 100]),\r\n",
      "   midi.NoteOnEvent(tick=96, channel=1, data=[71, 0]),\r\n",
      "   midi.NoteOnEvent(tick=0, channel=1, data=[74, 100]),\r\n",
      "   midi.NoteOnEvent(tick=96, channel=1, data=[74, 0]),\r\n",
      "   midi.NoteOnEvent(tick=0, channel=1, data=[72, 100]),\r\n",
      "   midi.NoteOnEvent(tick=192, channel=1, data=[72, 0]),\r\n",
      "   midi.NoteOnEvent(tick=0, channel=1, data=[69, 100]),\r\n",
      "   midi.NoteOnEvent(tick=192, channel=1, data=[69, 0]),\r\n",
      "   midi.NoteOnEvent(tick=0, channel=1, data=[76, 100]),\r\n",
      "   midi.NoteOnEvent(tick=576, channel=1, data=[76, 0]),\r\n",
      "   midi.NoteOnEvent(tick=0, channel=1, data=[74, 100]),\r\n",
      "   midi.NoteOnEvent(tick=96, channel=1, data=[74, 0]),\r",
      "\r\n",
      "   midi.NoteOnEvent(tick=0, channel=1, data=[73, 100]),\r\n",
      "   midi.NoteOnEvent(tick=96, channel=1, data=[73, 0]),\r\n",
      "   midi.NoteOnEvent(tick=0, channel=1, data=[74, 100]),\r\n",
      "   midi.NoteOnEvent(tick=192, channel=1, data=[74, 0]),\r\n",
      "   midi.NoteOnEvent(tick=0, channel=1, data=[77, 100]),\r\n",
      "   midi.NoteOnEvent(tick=384, channel=1, data=[77, 0]),\r\n",
      "   midi.NoteOnEvent(tick=0, channel=1, data=[71, 100]),\r\n",
      "   midi.NoteOnEvent(tick=192, channel=1, data=[71, 0]),\r\n",
      "   midi.NoteOnEvent(tick=1344, channel=1, data=[67, 100]),\r\n",
      "   midi.NoteOnEvent(tick=192, channel=1, data=[67, 0]),\r\n",
      "   midi.NoteOnEvent(tick=0, channel=1, data=[74, 100]),\r\n",
      "   midi.NoteOnEvent(tick=576, channel=1, data=[74, 0]),\r\n",
      "   midi.NoteOnEvent(tick=0, channel=1, data=[72, 100]),\r\n",
      "   midi.NoteOnEvent(tick=96, channel=1, data=[72, 0]),\r\n",
      "   midi.NoteOnEvent(tick=0, channel=1, data=[71, 100]),\r\n",
      "   midi.NoteOnEvent(tick=96, channel=1, data=[71, 0]),\r\n",
      "   midi.NoteOnEvent(tick=0, channel=1, data=[72, 100]),\r\n",
      "   midi.NoteOnEvent(tick=192, channel=1, data=[72, 0]),\r\n",
      "   midi.NoteOnEvent(tick=0, channel=1, data=[76, 100]),\r\n",
      "   midi.NoteOnEvent(tick=384, channel=1, data=[76, 0]),\r\n",
      "   midi.NoteOnEvent(tick=0, channel=1, data=[69, 100]),\r\n",
      "   midi.NoteOnEvent(tick=192, channel=1, data=[69, 0]),\r\n",
      "   midi.NoteOnEvent(tick=1344, channel=1, data=[65, 100]),\r\n",
      "   midi.NoteOnEvent(tick=192, channel=1, data=[65, 0]),\r\n",
      "   midi.NoteOnEvent(tick=0, channel=1, data=[72, 100]),\r\n",
      "   midi.NoteOnEvent(tick=576, channel=1, data=[72, 0]),\r\n",
      "   midi.NoteOnEvent(tick=0, channel=1, data=[71, 100]),\r\n",
      "   midi.NoteOnEvent(tick=96, channel=1, data=[71, 0]),\r\n",
      "   midi.NoteOnEvent(tick=0, channel=1, data=[72, 100]),\r\n",
      "   midi.NoteOnEvent(tick=96, channel=1, data=[72, 0]),\r\n",
      "   midi.NoteOnEvent(tick=0, channel=1, data=[74, 100]),\r\n",
      "   midi.NoteOnEvent(tick=192, channel=1, data=[74, 0]),\r\n",
      "   midi.NoteOnEvent(tick=0, channel=1, data=[65, 100]),\r\n",
      "   midi.NoteOnEvent(tick=192, channel=1, data=[65, 0]),\r\n",
      "   midi.NoteOnEvent(tick=0, channel=1, data=[64, 100]),\r\n",
      "   midi.NoteOnEvent(tick=192, channel=1, data=[64, 0]),\r\n",
      "   midi.NoteOnEvent(tick=0, channel=1, data=[74, 100]),\r\n",
      "   midi.NoteOnEvent(tick=192, channel=1, data=[74, 0]),\r\n",
      "   midi.NoteOnEvent(tick=0, channel=1, data=[72, 100]),\r\n",
      "   midi.NoteOnEvent(tick=192, channel=1, data=[72, 0]),\r\n",
      "   midi.NoteOnEvent(tick=0, channel=1, data=[64, 100]),\r\n",
      "   midi.NoteOnEvent(tick=192, channel=1, data=[64, 0]),\r\n",
      "   midi.NoteOnEvent(tick=0, channel=1, data=[62, 100]),\r\n",
      "   midi.NoteOnEvent(tick=96, channel=1, data=[62, 0]),\r\n",
      "   midi.NoteOnEvent(tick=0, channel=1, data=[72, 100]),\r\n",
      "   midi.NoteOnEvent(tick=96, channel=1, data=[72, 0]),\r\n",
      "   midi.NoteOnEvent(tick=0, channel=1, data=[71, 100]),\r\n",
      "   midi.NoteOnEvent(tick=96, channel=1, data=[71, 0]),\r\n",
      "   midi.NoteOnEvent(tick=0, channel=1, data=[69, 100]),\r\n",
      "   midi.NoteOnEvent(tick=96, channel=1, data=[69, 0]),\r\n",
      "   midi.NoteOnEvent(tick=0, channel=1, data=[71, 100]),\r\n",
      "   midi.NoteOnEvent(tick=96, channel=1, data=[71, 0]),\r\n",
      "   midi.NoteOnEvent(tick=0, channel=1, data=[69, 100]),\r\n",
      "   midi.NoteOnEvent(tick=96, channel=1, data=[69, 0]),\r\n",
      "   midi.NoteOnEvent(tick=0, channel=1, data=[68, 100]),\r\n",
      "   midi.NoteOnEvent(tick=96, channel=1, data=[68, 0]),\r\n",
      "   midi.NoteOnEvent(tick=0, channel=1, data=[66, 100]),\r\n",
      "   midi.NoteOnEvent(tick=96, channel=1, data=[66, 0]),\r\n",
      "   midi.NoteOnEvent(tick=0, channel=1, data=[68, 100]),\r\n",
      "   midi.NoteOnEvent(tick=192, channel=1, data=[68, 0]),\r\n",
      "   midi.NoteOnEvent(tick=0, channel=1, data=[77, 100]),\r\n",
      "   midi.NoteOnEvent(tick=192, channel=1, data=[77, 0]),\r\n",
      "   midi.NoteOnEvent(tick=0, channel=1, data=[76, 100]),\r\n",
      "   midi.NoteOnEvent(tick=192, channel=1, data=[76, 0]),\r\n",
      "   midi.NoteOnEvent(tick=0, channel=1, data=[81, 100]),\r\n",
      "   midi.NoteOnEvent(tick=192, channel=1, data=[81, 0]),\r\n",
      "   midi.NoteOnEvent(tick=0, channel=1, data=[84, 100]),\r\n",
      "   midi.NoteOnEvent(tick=384, channel=1, data=[84, 0]),\r\n",
      "   midi.NoteOnEvent(tick=0, channel=1, data=[83, 100]),\r\n",
      "   midi.NoteOnEvent(tick=48, channel=1, data=[83, 0]),\r\n",
      "   midi.NoteOnEvent(tick=0, channel=1, data=[84, 100]),\r\n",
      "   midi.NoteOnEvent(tick=48, channel=1, data=[84, 0]),\r",
      "\r\n",
      "   midi.NoteOnEvent(tick=0, channel=1, data=[83, 100]),\r\n",
      "   midi.NoteOnEvent(tick=48, channel=1, data=[83, 0]),\r\n",
      "   midi.NoteOnEvent(tick=0, channel=1, data=[84, 100]),\r\n",
      "   midi.NoteOnEvent(tick=48, channel=1, data=[84, 0]),\r\n",
      "   midi.NoteOnEvent(tick=0, channel=1, data=[83, 100]),\r\n",
      "   midi.NoteOnEvent(tick=48, channel=1, data=[83, 0]),\r\n",
      "   midi.NoteOnEvent(tick=0, channel=1, data=[84, 100]),\r\n",
      "   midi.NoteOnEvent(tick=48, channel=1, data=[84, 0]),\r\n",
      "   midi.NoteOnEvent(tick=0, channel=1, data=[83, 100]),\r\n",
      "   midi.NoteOnEvent(tick=48, channel=1, data=[83, 0]),\r\n",
      "   midi.NoteOnEvent(tick=0, channel=1, data=[84, 100]),\r\n",
      "   midi.NoteOnEvent(tick=48, channel=1, data=[84, 0]),\r\n",
      "   midi.NoteOnEvent(tick=0, channel=1, data=[83, 100]),\r\n",
      "   midi.NoteOnEvent(tick=384, channel=1, data=[83, 0]),\r\n",
      "   midi.NoteOnEvent(tick=384, channel=1, data=[74, 100]),\r\n",
      "   midi.NoteOnEvent(tick=384, channel=1, data=[74, 0]),\r\n",
      "   midi.NoteOnEvent(tick=384, channel=1, data=[77, 100]),\r\n",
      "   midi.NoteOnEvent(tick=384, channel=1, data=[77, 0]),\r\n",
      "   midi.NoteOnEvent(tick=384, channel=1, data=[74, 100]),\r\n",
      "   midi.NoteOnEvent(tick=384, channel=1, data=[74, 0]),\r\n",
      "   midi.NoteOnEvent(tick=384, channel=1, data=[74, 100]),\r\n",
      "   midi.NoteOnEvent(tick=768, channel=1, data=[74, 0]),\r\n",
      "   midi.NoteOnEvent(tick=96, channel=1, data=[76, 100]),\r\n",
      "   midi.NoteOnEvent(tick=96, channel=1, data=[76, 0]),\r\n",
      "   midi.NoteOnEvent(tick=0, channel=1, data=[78, 100]),\r\n",
      "   midi.NoteOnEvent(tick=96, channel=1, data=[78, 0]),\r\n",
      "   midi.NoteOnEvent(tick=0, channel=1, data=[80, 100]),\r\n",
      "   midi.NoteOnEvent(tick=96, channel=1, data=[80, 0]),\r\n",
      "   midi.NoteOnEvent(tick=0, channel=1, data=[81, 100]),\r\n",
      "   midi.NoteOnEvent(tick=96, channel=1, data=[81, 0]),\r\n",
      "   midi.NoteOnEvent(tick=0, channel=1, data=[80, 100]),\r\n",
      "   midi.NoteOnEvent(tick=96, channel=1, data=[80, 0]),\r\n",
      "   midi.NoteOnEvent(tick=0, channel=1, data=[81, 100]),\r\n",
      "   midi.NoteOnEvent(tick=96, channel=1, data=[81, 0]),\r\n",
      "   midi.NoteOnEvent(tick=0, channel=1, data=[83, 100]),\r\n",
      "   midi.NoteOnEvent(tick=96, channel=1, data=[83, 0]),\r\n",
      "   midi.NoteOnEvent(tick=0, channel=1, data=[76, 100]),\r\n",
      "   midi.NoteOnEvent(tick=192, channel=1, data=[76, 0]),\r\n",
      "   midi.NoteOnEvent(tick=0, channel=1, data=[81, 100]),\r\n",
      "   midi.NoteOnEvent(tick=192, channel=1, data=[81, 0]),\r\n",
      "   midi.NoteOnEvent(tick=0, channel=1, data=[83, 100]),\r\n",
      "   midi.NoteOnEvent(tick=192, channel=1, data=[83, 0]),\r\n",
      "   midi.NoteOnEvent(tick=0, channel=1, data=[80, 100]),\r\n",
      "   midi.NoteOnEvent(tick=192, channel=1, data=[80, 0]),\r\n",
      "   midi.NoteOnEvent(tick=0, channel=1, data=[81, 100]),\r\n",
      "   midi.NoteOnEvent(tick=96, channel=1, data=[81, 0]),\r\n",
      "   midi.NoteOnEvent(tick=0, channel=1, data=[79, 100]),\r\n",
      "   midi.NoteOnEvent(tick=96, channel=1, data=[79, 0]),\r\n",
      "   midi.NoteOnEvent(tick=0, channel=1, data=[77, 100]),\r\n",
      "   midi.NoteOnEvent(tick=96, channel=1, data=[77, 0]),\r\n",
      "   midi.NoteOnEvent(tick=0, channel=1, data=[76, 100]),\r\n",
      "   midi.NoteOnEvent(tick=96, channel=1, data=[76, 0]),\r\n",
      "   midi.NoteOnEvent(tick=0, channel=1, data=[74, 100]),\r\n",
      "   midi.NoteOnEvent(tick=192, channel=1, data=[74, 0]),\r\n",
      "   midi.NoteOnEvent(tick=0, channel=1, data=[74, 100]),\r\n",
      "   midi.NoteOnEvent(tick=192, channel=1, data=[74, 0]),\r\n",
      "   midi.NoteOnEvent(tick=0, channel=1, data=[74, 100]),\r\n",
      "   midi.NoteOnEvent(tick=96, channel=1, data=[74, 0]),\r\n",
      "   midi.NoteOnEvent(tick=0, channel=1, data=[76, 100]),\r\n",
      "   midi.NoteOnEvent(tick=96, channel=1, data=[76, 0]),\r\n",
      "   midi.NoteOnEvent(tick=0, channel=1, data=[77, 100]),\r\n",
      "   midi.NoteOnEvent(tick=288, channel=1, data=[77, 0]),\r\n",
      "   midi.NoteOnEvent(tick=0, channel=1, data=[76, 100]),\r\n",
      "   midi.NoteOnEvent(tick=96, channel=1, data=[76, 0]),\r\n",
      "   midi.NoteOnEvent(tick=0, channel=1, data=[74, 100]),\r\n",
      "   midi.NoteOnEvent(tick=96, channel=1, data=[74, 0]),\r\n",
      "   midi.NoteOnEvent(tick=0, channel=1, data=[72, 100]),\r\n",
      "   midi.NoteOnEvent(tick=96, channel=1, data=[72, 0]),\r\n",
      "   midi.NoteOnEvent(tick=0, channel=1, data=[71, 100]),\r\n",
      "   midi.NoteOnEvent(tick=96, channel=1, data=[71, 0]),\r\n",
      "   midi.NoteOnEvent(tick=0, channel=1, data=[72, 100]),\r\n",
      "   midi.NoteOnEvent(tick=96, channel=1, data=[72, 0]),\r\n",
      "   midi.NoteOnEvent(tick=0, channel=1, data=[74, 100]),\r\n",
      "   midi.NoteOnEvent(tick=288, channel=1, data=[74, 0]),\r\n",
      "   midi.NoteOnEvent(tick=0, channel=1, data=[72, 100]),\r\n",
      "   midi.NoteOnEvent(tick=96, channel=1, data=[72, 0]),\r\n",
      "   midi.NoteOnEvent(tick=0, channel=1, data=[71, 100]),\r\n",
      "   midi.NoteOnEvent(tick=96, channel=1, data=[71, 0]),\r\n",
      "   midi.NoteOnEvent(tick=0, channel=1, data=[69, 100]),\r\n",
      "   midi.NoteOnEvent(tick=96, channel=1, data=[69, 0]),\r\n",
      "   midi.NoteOnEvent(tick=0, channel=1, data=[68, 100]),\r\n",
      "   midi.NoteOnEvent(tick=192, channel=1, data=[68, 0]),\r\n",
      "   midi.NoteOnEvent(tick=0, channel=1, data=[76, 100]),\r\n",
      "   midi.NoteOnEvent(tick=192, channel=1, data=[76, 0]),\r\n",
      "   midi.NoteOnEvent(tick=0, channel=1, data=[72, 100]),\r\n",
      "   midi.NoteOnEvent(tick=48, channel=1, data=[72, 0]),\r\n",
      "   midi.NoteOnEvent(tick=0, channel=1, data=[74, 100]),\r\n",
      "   midi.NoteOnEvent(tick=48, channel=1, data=[74, 0]),\r\n",
      "   midi.NoteOnEvent(tick=0, channel=1, data=[72, 100]),\r\n",
      "   midi.NoteOnEvent(tick=48, channel=1, data=[72, 0]),\r\n",
      "   midi.NoteOnEvent(tick=0, channel=1, data=[74, 100]),\r\n",
      "   midi.NoteOnEvent(tick=48, channel=1, data=[74, 0]),\r\n",
      "   midi.NoteOnEvent(tick=0, channel=1, data=[71, 100]),\r\n",
      "   midi.NoteOnEvent(tick=96, channel=1, data=[71, 0]),\r\n",
      "   midi.NoteOnEvent(tick=0, channel=1, data=[69, 100]),\r\n",
      "   midi.NoteOnEvent(tick=96, channel=1, data=[69, 0]),\r\n",
      "   midi.NoteOnEvent(tick=0, channel=1, data=[69, 100]),\r\n",
      "   midi.NoteOnEvent(tick=576, channel=1, data=[69, 0]),\r\n",
      "   midi.EndOfTrackEvent(tick=0, data=[])]),\r\n",
      " midi.Track(\\\r\n",
      "  [midi.PortEvent(tick=0, data=[0]),\r\n",
      "   midi.TrackNameEvent(tick=0, text='Violin 2', data=[86, 105, 111, 108, 105, 110, 32, 50]),\r\n",
      "   midi.ProgramChangeEvent(tick=0, channel=2, data=[40]),\r\n",
      "   midi.ControlChangeEvent(tick=0, channel=2, data=[7, 110]),\r\n",
      "   midi.ControlChangeEvent(tick=0, channel=2, data=[10, 96]),\r\n",
      "   midi.NoteOnEvent(tick=576, channel=2, data=[72, 100]),\r\n",
      "   midi.NoteOnEvent(tick=192, channel=2, data=[72, 0]),\r\n",
      "   midi.NoteOnEvent(tick=0, channel=2, data=[76, 100]),\r\n",
      "   midi.NoteOnEvent(tick=384, channel=2, data=[76, 0]),\r\n",
      "   midi.NoteOnEvent(tick=192, channel=2, data=[72, 100]),\r\n",
      "   midi.NoteOnEvent(tick=192, channel=2, data=[72, 0]),\r\n",
      "   midi.NoteOnEvent(tick=0, channel=2, data=[74, 100]),\r\n",
      "   midi.NoteOnEvent(tick=384, channel=2, data=[74, 0]),\r\n",
      "   midi.NoteOnEvent(tick=192, channel=2, data=[71, 100]),\r\n",
      "   midi.NoteOnEvent(tick=192, channel=2, data=[71, 0]),\r\n",
      "   midi.NoteOnEvent(tick=0, channel=2, data=[72, 100]),\r\n",
      "   midi.NoteOnEvent(tick=96, channel=2, data=[72, 0]),\r\n",
      "   midi.NoteOnEvent(tick=0, channel=2, data=[71, 100]),\r\n",
      "   midi.NoteOnEvent(tick=96, channel=2, data=[71, 0]),\r\n",
      "   midi.NoteOnEvent(tick=0, channel=2, data=[69, 100]),\r\n",
      "   midi.NoteOnEvent(tick=96, channel=2, data=[69, 0]),\r\n",
      "   midi.NoteOnEvent(tick=0, channel=2, data=[72, 100]),\r\n",
      "   midi.NoteOnEvent(tick=96, channel=2, data=[72, 0]),\r\n",
      "   midi.NoteOnEvent(tick=0, channel=2, data=[71, 100]),\r\n",
      "   midi.NoteOnEvent(tick=96, channel=2, data=[71, 0]),\r\n",
      "   midi.NoteOnEvent(tick=0, channel=2, data=[69, 100]),\r\n",
      "   midi.NoteOnEvent(tick=96, channel=2, data=[69, 0]),\r\n",
      "   midi.NoteOnEvent(tick=0, channel=2, data=[68, 100]),\r\n",
      "   midi.NoteOnEvent(tick=96, channel=2, data=[68, 0]),\r\n",
      "   midi.NoteOnEvent(tick=0, channel=2, data=[71, 100]),\r\n",
      "   midi.NoteOnEvent(tick=96, channel=2, data=[71, 0]),\r\n",
      "   midi.NoteOnEvent(tick=0, channel=2, data=[69, 100]),\r\n",
      "   midi.NoteOnEvent(tick=192, channel=2, data=[69, 0]),\r\n",
      "   midi.NoteOnEvent(tick=0, channel=2, data=[64, 100]),\r\n",
      "   midi.NoteOnEvent(tick=192, channel=2, data=[64, 0]),\r\n",
      "   midi.NoteOnEvent(tick=192, channel=2, data=[64, 100]),\r\n",
      "   midi.NoteOnEvent(tick=192, channel=2, data=[64, 0]),\r\n",
      "   midi.NoteOnEvent(tick=0, channel=2, data=[64, 100]),\r\n",
      "   midi.NoteOnEvent(tick=192, channel=2, data=[64, 0]),\r\n",
      "   midi.NoteOnEvent(tick=192, channel=2, data=[64, 100]),\r\n",
      "   midi.NoteOnEvent(tick=192, channel=2, data=[64, 0]),\r\n",
      "   midi.NoteOnEvent(tick=192, channel=2, data=[68, 100]),\r\n",
      "   midi.NoteOnEvent(tick=192, channel=2, data=[68, 0]),\r\n",
      "   midi.NoteOnEvent(tick=192, channel=2, data=[69, 100]),\r\n",
      "   midi.NoteOnEvent(tick=192, channel=2, data=[69, 0]),\r\n",
      "   midi.NoteOnEvent(tick=192, channel=2, data=[69, 100]),\r\n",
      "   midi.NoteOnEvent(tick=192, channel=2, data=[69, 0]),\r\n",
      "   midi.NoteOnEvent(tick=0, channel=2, data=[74, 100]),\r\n",
      "   midi.NoteOnEvent(tick=192, channel=2, data=[74, 0]),\r\n",
      "   midi.NoteOnEvent(tick=0, channel=2, data=[68, 100]),\r\n",
      "   midi.NoteOnEvent(tick=192, channel=2, data=[68, 0]),\r\n",
      "   midi.NoteOnEvent(tick=0, channel=2, data=[74, 100]),\r\n",
      "   midi.NoteOnEvent(tick=288, channel=2, data=[74, 0]),\r\n",
      "   midi.NoteOnEvent(tick=0, channel=2, data=[76, 100]),\r\n",
      "   midi.NoteOnEvent(tick=96, channel=2, data=[76, 0]),\r\n",
      "   midi.NoteOnEvent(tick=0, channel=2, data=[74, 100]),\r\n",
      "   midi.NoteOnEvent(tick=96, channel=2, data=[74, 0]),\r\n",
      "   midi.NoteOnEvent(tick=0, channel=2, data=[72, 100]),\r\n",
      "   midi.NoteOnEvent(tick=96, channel=2, data=[72, 0]),\r\n",
      "   midi.NoteOnEvent(tick=0, channel=2, data=[71, 100]),\r\n",
      "   midi.NoteOnEvent(tick=96, channel=2, data=[71, 0]),\r\n",
      "   midi.NoteOnEvent(tick=0, channel=2, data=[69, 100]),\r\n",
      "   midi.NoteOnEvent(tick=96, channel=2, data=[69, 0]),\r\n",
      "   midi.NoteOnEvent(tick=0, channel=2, data=[68, 100]),\r\n",
      "   midi.NoteOnEvent(tick=96, channel=2, data=[68, 0]),\r\n",
      "   midi.NoteOnEvent(tick=0, channel=2, data=[66, 100]),\r\n",
      "   midi.NoteOnEvent(tick=96, channel=2, data=[66, 0]),\r\n",
      "   midi.NoteOnEvent(tick=0, channel=2, data=[64, 100]),\r\n",
      "   midi.NoteOnEvent(tick=96, channel=2, data=[64, 0]),\r\n",
      "   midi.NoteOnEvent(tick=0, channel=2, data=[74, 100]),\r\n",
      "   midi.NoteOnEvent(tick=96, channel=2, data=[74, 0]),\r\n",
      "   midi.NoteOnEvent(tick=0, channel=2, data=[72, 100]),\r\n",
      "   midi.NoteOnEvent(tick=96, channel=2, data=[72, 0]),\r\n",
      "   midi.NoteOnEvent(tick=0, channel=2, data=[71, 100]),\r\n",
      "   midi.NoteOnEvent(tick=96, channel=2, data=[71, 0]),\r\n",
      "   midi.NoteOnEvent(tick=0, channel=2, data=[69, 100]),\r\n",
      "   midi.NoteOnEvent(tick=96, channel=2, data=[69, 0]),\r\n",
      "   midi.NoteOnEvent(tick=0, channel=2, data=[67, 100]),\r\n",
      "   midi.NoteOnEvent(tick=96, channel=2, data=[67, 0]),\r\n",
      "   midi.NoteOnEvent(tick=0, channel=2, data=[66, 100]),\r\n",
      "   midi.NoteOnEvent(tick=96, channel=2, data=[66, 0]),\r\n",
      "   midi.NoteOnEvent(tick=0, channel=2, data=[64, 100]),\r\n",
      "   midi.NoteOnEvent(tick=96, channel=2, data=[64, 0]),\r\n",
      "   midi.NoteOnEvent(tick=0, channel=2, data=[66, 100]),\r\n",
      "   midi.NoteOnEvent(tick=96, channel=2, data=[66, 0]),\r\n",
      "   midi.NoteOnEvent(tick=0, channel=2, data=[74, 100]),\r\n",
      "   midi.NoteOnEvent(tick=96, channel=2, data=[74, 0]),\r\n",
      "   midi.NoteOnEvent(tick=0, channel=2, data=[72, 100]),\r\n",
      "   midi.NoteOnEvent(tick=96, channel=2, data=[72, 0]),\r\n",
      "   midi.NoteOnEvent(tick=0, channel=2, data=[71, 100]),\r\n",
      "   midi.NoteOnEvent(tick=96, channel=2, data=[71, 0]),\r\n",
      "   midi.NoteOnEvent(tick=0, channel=2, data=[69, 100]),\r\n",
      "   midi.NoteOnEvent(tick=96, channel=2, data=[69, 0]),\r\n",
      "   midi.NoteOnEvent(tick=0, channel=2, data=[67, 100]),\r\n",
      "   midi.NoteOnEvent(tick=96, channel=2, data=[67, 0]),\r\n",
      "   midi.NoteOnEvent(tick=0, channel=2, data=[66, 100]),\r\n",
      "   midi.NoteOnEvent(tick=96, channel=2, data=[66, 0]),\r\n",
      "   midi.NoteOnEvent(tick=0, channel=2, data=[64, 100]),\r\n",
      "   midi.NoteOnEvent(tick=96, channel=2, data=[64, 0]),\r\n",
      "   midi.NoteOnEvent(tick=0, channel=2, data=[62, 100]),\r\n",
      "   midi.NoteOnEvent(tick=96, channel=2, data=[62, 0]),\r\n",
      "   midi.NoteOnEvent(tick=0, channel=2, data=[72, 100]),\r\n",
      "   midi.NoteOnEvent(tick=96, channel=2, data=[72, 0]),\r\n",
      "   midi.NoteOnEvent(tick=0, channel=2, data=[71, 100]),\r\n",
      "   midi.NoteOnEvent(tick=96, channel=2, data=[71, 0]),\r\n",
      "   midi.NoteOnEvent(tick=0, channel=2, data=[69, 100]),\r\n",
      "   midi.NoteOnEvent(tick=96, channel=2, data=[69, 0]),\r\n",
      "   midi.NoteOnEvent(tick=0, channel=2, data=[67, 100]),\r\n",
      "   midi.NoteOnEvent(tick=96, channel=2, data=[67, 0]),\r\n",
      "   midi.NoteOnEvent(tick=0, channel=2, data=[66, 100]),\r\n",
      "   midi.NoteOnEvent(tick=96, channel=2, data=[66, 0]),\r\n",
      "   midi.NoteOnEvent(tick=0, channel=2, data=[64, 100]),\r\n",
      "   midi.NoteOnEvent(tick=96, channel=2, data=[64, 0]),\r\n",
      "   midi.NoteOnEvent(tick=0, channel=2, data=[63, 100]),\r\n",
      "   midi.NoteOnEvent(tick=96, channel=2, data=[63, 0]),\r\n",
      "   midi.NoteOnEvent(tick=0, channel=2, data=[64, 100]),\r\n",
      "   midi.NoteOnEvent(tick=96, channel=2, data=[64, 0]),\r\n",
      "   midi.NoteOnEvent(tick=0, channel=2, data=[72, 100]),\r\n",
      "   midi.NoteOnEvent(tick=96, channel=2, data=[72, 0]),\r\n",
      "   midi.NoteOnEvent(tick=0, channel=2, data=[71, 100]),\r\n",
      "   midi.NoteOnEvent(tick=96, channel=2, data=[71, 0]),\r\n",
      "   midi.NoteOnEvent(tick=0, channel=2, data=[69, 100]),\r\n",
      "   midi.NoteOnEvent(tick=96, channel=2, data=[69, 0]),\r\n",
      "   midi.NoteOnEvent(tick=0, channel=2, data=[67, 100]),\r\n",
      "   midi.NoteOnEvent(tick=96, channel=2, data=[67, 0]),\r\n",
      "   midi.NoteOnEvent(tick=0, channel=2, data=[66, 100]),\r\n",
      "   midi.NoteOnEvent(tick=96, channel=2, data=[66, 0]),\r\n",
      "   midi.NoteOnEvent(tick=0, channel=2, data=[64, 100]),\r\n",
      "   midi.NoteOnEvent(tick=96, channel=2, data=[64, 0]),\r\n",
      "   midi.NoteOnEvent(tick=0, channel=2, data=[62, 100]),\r\n",
      "   midi.NoteOnEvent(tick=96, channel=2, data=[62, 0]),\r\n",
      "   midi.NoteOnEvent(tick=0, channel=2, data=[60, 100]),\r\n",
      "   midi.NoteOnEvent(tick=192, channel=2, data=[60, 0]),\r\n",
      "   midi.NoteOnEvent(tick=0, channel=2, data=[72, 100]),\r\n",
      "   midi.NoteOnEvent(tick=288, channel=2, data=[72, 0]),\r\n",
      "   midi.NoteOnEvent(tick=0, channel=2, data=[71, 100]),\r\n",
      "   midi.NoteOnEvent(tick=96, channel=2, data=[71, 0]),\r\n",
      "   midi.NoteOnEvent(tick=0, channel=2, data=[69, 100]),\r\n",
      "   midi.NoteOnEvent(tick=96, channel=2, data=[69, 0]),\r\n",
      "   midi.NoteOnEvent(tick=0, channel=2, data=[67, 100]),\r\n",
      "   midi.NoteOnEvent(tick=96, channel=2, data=[67, 0]),\r\n",
      "   midi.NoteOnEvent(tick=0, channel=2, data=[66, 100]),\r\n",
      "   midi.NoteOnEvent(tick=192, channel=2, data=[66, 0]),\r\n",
      "   midi.NoteOnEvent(tick=0, channel=2, data=[78, 100]),\r\n",
      "   midi.NoteOnEvent(tick=192, channel=2, data=[78, 0]),\r\n",
      "   midi.NoteOnEvent(tick=0, channel=2, data=[76, 100]),\r\n",
      "   midi.NoteOnEvent(tick=192, channel=2, data=[76, 0]),\r\n"
     ]
    },
    {
     "name": "stdout",
     "output_type": "stream",
     "text": [
      "   midi.NoteOnEvent(tick=0, channel=2, data=[64, 100]),\r\n",
      "   midi.NoteOnEvent(tick=384, channel=2, data=[64, 0]),\r\n",
      "   midi.NoteOnEvent(tick=0, channel=2, data=[63, 100]),\r\n",
      "   midi.NoteOnEvent(tick=192, channel=2, data=[63, 0]),\r\n",
      "   midi.NoteOnEvent(tick=0, channel=2, data=[64, 100]),\r\n",
      "   midi.NoteOnEvent(tick=192, channel=2, data=[64, 0]),\r\n",
      "   midi.NoteOnEvent(tick=0, channel=2, data=[72, 100]),\r\n",
      "   midi.NoteOnEvent(tick=384, channel=2, data=[72, 0]),\r\n",
      "   midi.NoteOnEvent(tick=0, channel=2, data=[66, 100]),\r\n",
      "   midi.NoteOnEvent(tick=192, channel=2, data=[66, 0]),\r\n",
      "   midi.NoteOnEvent(tick=0, channel=2, data=[67, 100]),\r\n",
      "   midi.NoteOnEvent(tick=192, channel=2, data=[67, 0]),\r\n",
      "   midi.NoteOnEvent(tick=0, channel=2, data=[76, 100]),\r\n",
      "   midi.NoteOnEvent(tick=192, channel=2, data=[76, 0]),\r\n",
      "   midi.NoteOnEvent(tick=0, channel=2, data=[76, 100]),\r\n",
      "   midi.NoteOnEvent(tick=384, channel=2, data=[76, 0]),\r\n",
      "   midi.NoteOnEvent(tick=0, channel=2, data=[75, 100]),\r\n",
      "   midi.NoteOnEvent(tick=48, channel=2, data=[75, 0]),\r\n",
      "   midi.NoteOnEvent(tick=0, channel=2, data=[76, 100]),\r\n",
      "   midi.NoteOnEvent(tick=48, channel=2, data=[76, 0]),\r\n",
      "   midi.NoteOnEvent(tick=0, channel=2, data=[75, 100]),\r\n",
      "   midi.NoteOnEvent(tick=48, channel=2, data=[75, 0]),\r\n",
      "   midi.NoteOnEvent(tick=0, channel=2, data=[76, 100]),\r\n",
      "   midi.NoteOnEvent(tick=48, channel=2, data=[76, 0]),\r\n",
      "   midi.NoteOnEvent(tick=0, channel=2, data=[75, 100]),\r\n",
      "   midi.NoteOnEvent(tick=48, channel=2, data=[75, 0]),\r\n",
      "   midi.NoteOnEvent(tick=0, channel=2, data=[76, 100]),\r\n",
      "   midi.NoteOnEvent(tick=48, channel=2, data=[76, 0]),\r\n",
      "   midi.NoteOnEvent(tick=0, channel=2, data=[75, 100]),\r\n",
      "   midi.NoteOnEvent(tick=48, channel=2, data=[75, 0]),\r\n",
      "   midi.NoteOnEvent(tick=0, channel=2, data=[76, 100]),\r\n",
      "   midi.NoteOnEvent(tick=48, channel=2, data=[76, 0]),\r\n",
      "   midi.NoteOnEvent(tick=0, channel=2, data=[75, 100]),\r\n",
      "   midi.NoteOnEvent(tick=384, channel=2, data=[75, 0]),\r\n",
      "   midi.NoteOnEvent(tick=192, channel=2, data=[75, 100]),\r\n",
      "   midi.NoteOnEvent(tick=192, channel=2, data=[75, 0]),\r\n",
      "   midi.NoteOnEvent(tick=0, channel=2, data=[76, 100]),\r\n",
      "   midi.NoteOnEvent(tick=192, channel=2, data=[76, 0]),\r\n",
      "   midi.NoteOnEvent(tick=0, channel=2, data=[67, 100]),\r\n",
      "   midi.NoteOnEvent(tick=192, channel=2, data=[67, 0]),\r\n",
      "   midi.NoteOnEvent(tick=0, channel=2, data=[69, 100]),\r\n",
      "   midi.NoteOnEvent(tick=192, channel=2, data=[69, 0]),\r\n",
      "   midi.NoteOnEvent(tick=0, channel=2, data=[66, 100]),\r\n",
      "   midi.NoteOnEvent(tick=192, channel=2, data=[66, 0]),\r\n",
      "   midi.NoteOnEvent(tick=0, channel=2, data=[64, 100]),\r\n",
      "   midi.NoteOnEvent(tick=192, channel=2, data=[64, 0]),\r\n",
      "   midi.NoteOnEvent(tick=0, channel=2, data=[76, 100]),\r\n",
      "   midi.NoteOnEvent(tick=96, channel=2, data=[76, 0]),\r\n",
      "   midi.NoteOnEvent(tick=0, channel=2, data=[74, 100]),\r\n",
      "   midi.NoteOnEvent(tick=96, channel=2, data=[74, 0]),\r\n",
      "   midi.NoteOnEvent(tick=0, channel=2, data=[72, 100]),\r\n",
      "   midi.NoteOnEvent(tick=96, channel=2, data=[72, 0]),\r\n",
      "   midi.NoteOnEvent(tick=0, channel=2, data=[71, 100]),\r\n",
      "   midi.NoteOnEvent(tick=96, channel=2, data=[71, 0]),\r\n",
      "   midi.NoteOnEvent(tick=0, channel=2, data=[69, 100]),\r\n",
      "   midi.NoteOnEvent(tick=96, channel=2, data=[69, 0]),\r\n",
      "   midi.NoteOnEvent(tick=0, channel=2, data=[67, 100]),\r\n",
      "   midi.NoteOnEvent(tick=96, channel=2, data=[67, 0]),\r\n",
      "   midi.NoteOnEvent(tick=0, channel=2, data=[66, 100]),\r\n",
      "   midi.NoteOnEvent(tick=96, channel=2, data=[66, 0]),\r\n",
      "   midi.NoteOnEvent(tick=0, channel=2, data=[64, 100]),\r\n",
      "   midi.NoteOnEvent(tick=96, channel=2, data=[64, 0]),\r\n",
      "   midi.NoteOnEvent(tick=0, channel=2, data=[63, 100]),\r\n",
      "   midi.NoteOnEvent(tick=96, channel=2, data=[63, 0]),\r\n",
      "   midi.NoteOnEvent(tick=0, channel=2, data=[64, 100]),\r\n",
      "   midi.NoteOnEvent(tick=96, channel=2, data=[64, 0]),\r\n",
      "   midi.NoteOnEvent(tick=0, channel=2, data=[66, 100]),\r\n",
      "   midi.NoteOnEvent(tick=96, channel=2, data=[66, 0]),\r\n",
      "   midi.NoteOnEvent(tick=0, channel=2, data=[67, 100]),\r\n",
      "   midi.NoteOnEvent(tick=96, channel=2, data=[67, 0]),\r\n",
      "   midi.NoteOnEvent(tick=0, channel=2, data=[69, 100]),\r\n",
      "   midi.NoteOnEvent(tick=96, channel=2, data=[69, 0]),\r\n",
      "   midi.NoteOnEvent(tick=0, channel=2, data=[71, 100]),\r\n",
      "   midi.NoteOnEvent(tick=96, channel=2, data=[71, 0]),\r\n",
      "   midi.NoteOnEvent(tick=0, channel=2, data=[72, 100]),\r\n",
      "   midi.NoteOnEvent(tick=96, channel=2, data=[72, 0]),\r\n",
      "   midi.NoteOnEvent(tick=0, channel=2, data=[71, 100]),\r\n",
      "   midi.NoteOnEvent(tick=96, channel=2, data=[71, 0]),\r\n",
      "   midi.NoteOnEvent(tick=0, channel=2, data=[69, 100]),\r\n",
      "   midi.NoteOnEvent(tick=96, channel=2, data=[69, 0]),\r\n",
      "   midi.NoteOnEvent(tick=0, channel=2, data=[67, 100]),\r\n",
      "   midi.NoteOnEvent(tick=96, channel=2, data=[67, 0]),\r\n",
      "   midi.NoteOnEvent(tick=0, channel=2, data=[66, 100]),\r\n",
      "   midi.NoteOnEvent(tick=96, channel=2, data=[66, 0]),\r\n",
      "   midi.NoteOnEvent(tick=0, channel=2, data=[64, 100]),\r\n",
      "   midi.NoteOnEvent(tick=96, channel=2, data=[64, 0]),\r\n",
      "   midi.NoteOnEvent(tick=0, channel=2, data=[63, 100]),\r\n",
      "   midi.NoteOnEvent(tick=96, channel=2, data=[63, 0]),\r\n",
      "   midi.NoteOnEvent(tick=0, channel=2, data=[64, 100]),\r\n",
      "   midi.NoteOnEvent(tick=96, channel=2, data=[64, 0]),\r\n",
      "   midi.NoteOnEvent(tick=0, channel=2, data=[69, 100]),\r\n",
      "   midi.NoteOnEvent(tick=96, channel=2, data=[69, 0]),\r\n",
      "   midi.NoteOnEvent(tick=0, channel=2, data=[66, 100]),\r\n",
      "   midi.NoteOnEvent(tick=96, channel=2, data=[66, 0]),\r\n",
      "   midi.NoteOnEvent(tick=0, channel=2, data=[67, 100]),\r\n",
      "   midi.NoteOnEvent(tick=96, channel=2, data=[67, 0]),\r\n",
      "   midi.NoteOnEvent(tick=0, channel=2, data=[64, 100]),\r\n",
      "   midi.NoteOnEvent(tick=96, channel=2, data=[64, 0]),\r\n",
      "   midi.NoteOnEvent(tick=0, channel=2, data=[59, 100]),\r\n",
      "   midi.NoteOnEvent(tick=192, channel=2, data=[59, 0]),\r\n",
      "   midi.NoteOnEvent(tick=0, channel=2, data=[63, 100]),\r\n",
      "   midi.NoteOnEvent(tick=192, channel=2, data=[63, 0]),\r\n",
      "   midi.NoteOnEvent(tick=0, channel=2, data=[64, 100]),\r\n",
      "   midi.NoteOnEvent(tick=384, channel=2, data=[64, 0]),\r\n",
      "   midi.NoteOnEvent(tick=576, channel=2, data=[72, 100]),\r\n",
      "   midi.NoteOnEvent(tick=192, channel=2, data=[72, 0]),\r\n",
      "   midi.NoteOnEvent(tick=0, channel=2, data=[76, 100]),\r\n",
      "   midi.NoteOnEvent(tick=192, channel=2, data=[76, 0]),\r\n",
      "   midi.NoteOnEvent(tick=384, channel=2, data=[76, 100]),\r\n",
      "   midi.NoteOnEvent(tick=96, channel=2, data=[76, 0]),\r\n",
      "   midi.NoteOnEvent(tick=0, channel=2, data=[78, 100]),\r\n",
      "   midi.NoteOnEvent(tick=96, channel=2, data=[78, 0]),\r\n",
      "   midi.NoteOnEvent(tick=0, channel=2, data=[80, 100]),\r\n",
      "   midi.NoteOnEvent(tick=192, channel=2, data=[80, 0]),\r\n",
      "   midi.NoteOnEvent(tick=384, channel=2, data=[68, 100]),\r\n",
      "   midi.NoteOnEvent(tick=192, channel=2, data=[68, 0]),\r\n",
      "   midi.NoteOnEvent(tick=0, channel=2, data=[74, 100]),\r\n",
      "   midi.NoteOnEvent(tick=192, channel=2, data=[74, 0]),\r\n",
      "   midi.NoteOnEvent(tick=384, channel=2, data=[76, 100]),\r\n",
      "   midi.NoteOnEvent(tick=192, channel=2, data=[76, 0]),\r\n",
      "   midi.NoteOnEvent(tick=0, channel=2, data=[81, 100]),\r\n",
      "   midi.NoteOnEvent(tick=192, channel=2, data=[81, 0]),\r\n",
      "   midi.NoteOnEvent(tick=3456, channel=2, data=[76, 100]),\r\n",
      "   midi.NoteOnEvent(tick=192, channel=2, data=[76, 0]),\r\n",
      "   midi.NoteOnEvent(tick=0, channel=2, data=[81, 100]),\r\n",
      "   midi.NoteOnEvent(tick=384, channel=2, data=[81, 0]),\r\n",
      "   midi.NoteOnEvent(tick=192, channel=2, data=[74, 100]),\r\n",
      "   midi.NoteOnEvent(tick=96, channel=2, data=[74, 0]),\r\n",
      "   midi.NoteOnEvent(tick=0, channel=2, data=[76, 100]),\r\n",
      "   midi.NoteOnEvent(tick=96, channel=2, data=[76, 0]),\r\n",
      "   midi.NoteOnEvent(tick=0, channel=2, data=[77, 100]),\r\n",
      "   midi.NoteOnEvent(tick=384, channel=2, data=[77, 0]),\r\n",
      "   midi.NoteOnEvent(tick=192, channel=2, data=[74, 100]),\r\n",
      "   midi.NoteOnEvent(tick=192, channel=2, data=[74, 0]),\r\n",
      "   midi.NoteOnEvent(tick=0, channel=2, data=[79, 100]),\r\n",
      "   midi.NoteOnEvent(tick=384, channel=2, data=[79, 0]),\r\n",
      "   midi.NoteOnEvent(tick=192, channel=2, data=[72, 100]),\r\n",
      "   midi.NoteOnEvent(tick=96, channel=2, data=[72, 0]),\r\n",
      "   midi.NoteOnEvent(tick=0, channel=2, data=[74, 100]),\r\n",
      "   midi.NoteOnEvent(tick=96, channel=2, data=[74, 0]),\r\n",
      "   midi.NoteOnEvent(tick=0, channel=2, data=[76, 100]),\r\n",
      "   midi.NoteOnEvent(tick=384, channel=2, data=[76, 0]),\r\n",
      "   midi.NoteOnEvent(tick=192, channel=2, data=[72, 100]),\r\n",
      "   midi.NoteOnEvent(tick=192, channel=2, data=[72, 0]),\r\n",
      "   midi.NoteOnEvent(tick=0, channel=2, data=[77, 100]),\r\n",
      "   midi.NoteOnEvent(tick=384, channel=2, data=[77, 0]),\r\n",
      "   midi.NoteOnEvent(tick=192, channel=2, data=[71, 100]),\r\n",
      "   midi.NoteOnEvent(tick=96, channel=2, data=[71, 0]),\r\n",
      "   midi.NoteOnEvent(tick=0, channel=2, data=[72, 100]),\r\n",
      "   midi.NoteOnEvent(tick=96, channel=2, data=[72, 0]),\r\n",
      "   midi.NoteOnEvent(tick=0, channel=2, data=[74, 100]),\r\n",
      "   midi.NoteOnEvent(tick=384, channel=2, data=[74, 0]),\r\n",
      "   midi.NoteOnEvent(tick=192, channel=2, data=[71, 100]),\r\n",
      "   midi.NoteOnEvent(tick=192, channel=2, data=[71, 0]),\r\n",
      "   midi.NoteOnEvent(tick=0, channel=2, data=[76, 100]),\r\n",
      "   midi.NoteOnEvent(tick=384, channel=2, data=[76, 0]),\r\n",
      "   midi.NoteOnEvent(tick=192, channel=2, data=[76, 100]),\r\n",
      "   midi.NoteOnEvent(tick=192, channel=2, data=[76, 0]),\r\n",
      "   midi.NoteOnEvent(tick=0, channel=2, data=[81, 100]),\r\n",
      "   midi.NoteOnEvent(tick=384, channel=2, data=[81, 0]),\r\n",
      "   midi.NoteOnEvent(tick=192, channel=2, data=[74, 100]),\r\n",
      "   midi.NoteOnEvent(tick=96, channel=2, data=[74, 0]),\r\n",
      "   midi.NoteOnEvent(tick=0, channel=2, data=[76, 100]),\r\n",
      "   midi.NoteOnEvent(tick=96, channel=2, data=[76, 0]),\r\n",
      "   midi.NoteOnEvent(tick=0, channel=2, data=[77, 100]),\r\n",
      "   midi.NoteOnEvent(tick=192, channel=2, data=[77, 0]),\r\n",
      "   midi.NoteOnEvent(tick=0, channel=2, data=[68, 100]),\r\n",
      "   midi.NoteOnEvent(tick=192, channel=2, data=[68, 0]),\r\n",
      "   midi.NoteOnEvent(tick=0, channel=2, data=[72, 100]),\r\n",
      "   midi.NoteOnEvent(tick=96, channel=2, data=[72, 0]),\r\n",
      "   midi.NoteOnEvent(tick=0, channel=2, data=[71, 100]),\r\n",
      "   midi.NoteOnEvent(tick=96, channel=2, data=[71, 0]),\r\n",
      "   midi.NoteOnEvent(tick=0, channel=2, data=[69, 100]),\r\n",
      "   midi.NoteOnEvent(tick=96, channel=2, data=[69, 0]),\r\n",
      "   midi.NoteOnEvent(tick=0, channel=2, data=[72, 100]),\r\n",
      "   midi.NoteOnEvent(tick=96, channel=2, data=[72, 0]),\r\n",
      "   midi.NoteOnEvent(tick=0, channel=2, data=[71, 100]),\r\n",
      "   midi.NoteOnEvent(tick=96, channel=2, data=[71, 0]),\r\n",
      "   midi.NoteOnEvent(tick=0, channel=2, data=[69, 100]),\r\n",
      "   midi.NoteOnEvent(tick=96, channel=2, data=[69, 0]),\r\n",
      "   midi.NoteOnEvent(tick=0, channel=2, data=[68, 100]),\r\n",
      "   midi.NoteOnEvent(tick=96, channel=2, data=[68, 0]),\r\n",
      "   midi.NoteOnEvent(tick=0, channel=2, data=[71, 100]),\r\n",
      "   midi.NoteOnEvent(tick=96, channel=2, data=[71, 0]),\r\n",
      "   midi.NoteOnEvent(tick=0, channel=2, data=[69, 100]),\r\n",
      "   midi.NoteOnEvent(tick=192, channel=2, data=[69, 0]),\r\n",
      "   midi.NoteOnEvent(tick=0, channel=2, data=[64, 100]),\r\n",
      "   midi.NoteOnEvent(tick=192, channel=2, data=[64, 0]),\r\n",
      "   midi.NoteOnEvent(tick=192, channel=2, data=[69, 100]),\r\n",
      "   midi.NoteOnEvent(tick=192, channel=2, data=[69, 0]),\r\n",
      "   midi.NoteOnEvent(tick=0, channel=2, data=[69, 100]),\r\n",
      "   midi.NoteOnEvent(tick=192, channel=2, data=[69, 0]),\r\n",
      "   midi.NoteOnEvent(tick=0, channel=2, data=[69, 100]),\r\n",
      "   midi.NoteOnEvent(tick=192, channel=2, data=[69, 0]),\r\n",
      "   midi.NoteOnEvent(tick=0, channel=2, data=[69, 100]),\r\n",
      "   midi.NoteOnEvent(tick=192, channel=2, data=[69, 0]),\r\n",
      "   midi.NoteOnEvent(tick=0, channel=2, data=[69, 100]),\r\n",
      "   midi.NoteOnEvent(tick=192, channel=2, data=[69, 0]),\r\n",
      "   midi.NoteOnEvent(tick=0, channel=2, data=[67, 100]),\r\n",
      "   midi.NoteOnEvent(tick=192, channel=2, data=[67, 0]),\r\n",
      "   midi.NoteOnEvent(tick=0, channel=2, data=[67, 100]),\r\n",
      "   midi.NoteOnEvent(tick=192, channel=2, data=[67, 0]),\r\n",
      "   midi.NoteOnEvent(tick=0, channel=2, data=[67, 100]),\r\n",
      "   midi.NoteOnEvent(tick=192, channel=2, data=[67, 0]),\r\n",
      "   midi.NoteOnEvent(tick=0, channel=2, data=[67, 100]),\r\n",
      "   midi.NoteOnEvent(tick=192, channel=2, data=[67, 0]),\r\n",
      "   midi.NoteOnEvent(tick=0, channel=2, data=[67, 100]),\r\n",
      "   midi.NoteOnEvent(tick=192, channel=2, data=[67, 0]),\r\n",
      "   midi.NoteOnEvent(tick=0, channel=2, data=[67, 100]),\r\n",
      "   midi.NoteOnEvent(tick=192, channel=2, data=[67, 0]),\r\n",
      "   midi.NoteOnEvent(tick=0, channel=2, data=[67, 100]),\r\n",
      "   midi.NoteOnEvent(tick=192, channel=2, data=[67, 0]),\r\n",
      "   midi.NoteOnEvent(tick=0, channel=2, data=[67, 100]),\r\n",
      "   midi.NoteOnEvent(tick=192, channel=2, data=[67, 0]),\r\n",
      "   midi.NoteOnEvent(tick=0, channel=2, data=[65, 100]),\r\n",
      "   midi.NoteOnEvent(tick=192, channel=2, data=[65, 0]),\r\n",
      "   midi.NoteOnEvent(tick=0, channel=2, data=[65, 100]),\r\n",
      "   midi.NoteOnEvent(tick=192, channel=2, data=[65, 0]),\r\n",
      "   midi.NoteOnEvent(tick=0, channel=2, data=[65, 100]),\r\n",
      "   midi.NoteOnEvent(tick=192, channel=2, data=[65, 0]),\r\n",
      "   midi.NoteOnEvent(tick=0, channel=2, data=[65, 100]),\r\n",
      "   midi.NoteOnEvent(tick=192, channel=2, data=[65, 0]),\r\n",
      "   midi.NoteOnEvent(tick=0, channel=2, data=[65, 100]),\r\n",
      "   midi.NoteOnEvent(tick=192, channel=2, data=[65, 0]),\r\n",
      "   midi.NoteOnEvent(tick=0, channel=2, data=[65, 100]),\r\n",
      "   midi.NoteOnEvent(tick=192, channel=2, data=[65, 0]),\r\n",
      "   midi.NoteOnEvent(tick=0, channel=2, data=[65, 100]),\r\n",
      "   midi.NoteOnEvent(tick=192, channel=2, data=[65, 0]),\r\n",
      "   midi.NoteOnEvent(tick=0, channel=2, data=[65, 100]),\r\n",
      "   midi.NoteOnEvent(tick=192, channel=2, data=[65, 0]),\r\n",
      "   midi.NoteOnEvent(tick=0, channel=2, data=[64, 100]),\r\n",
      "   midi.NoteOnEvent(tick=192, channel=2, data=[64, 0]),\r\n",
      "   midi.NoteOnEvent(tick=1920, channel=2, data=[74, 100]),\r\n",
      "   midi.NoteOnEvent(tick=192, channel=2, data=[74, 0]),\r\n",
      "   midi.NoteOnEvent(tick=0, channel=2, data=[79, 100]),\r\n",
      "   midi.NoteOnEvent(tick=384, channel=2, data=[79, 0]),\r\n",
      "   midi.NoteOnEvent(tick=192, channel=2, data=[76, 100]),\r\n",
      "   midi.NoteOnEvent(tick=192, channel=2, data=[76, 0]),\r\n",
      "   midi.NoteOnEvent(tick=0, channel=2, data=[77, 100]),\r\n",
      "   midi.NoteOnEvent(tick=384, channel=2, data=[77, 0]),\r\n",
      "   midi.NoteOnEvent(tick=192, channel=2, data=[77, 100]),\r\n",
      "   midi.NoteOnEvent(tick=192, channel=2, data=[77, 0]),\r\n",
      "   midi.NoteOnEvent(tick=0, channel=2, data=[76, 100]),\r\n",
      "   midi.NoteOnEvent(tick=96, channel=2, data=[76, 0]),\r\n",
      "   midi.NoteOnEvent(tick=0, channel=2, data=[77, 100]),\r\n",
      "   midi.NoteOnEvent(tick=96, channel=2, data=[77, 0]),\r\n",
      "   midi.NoteOnEvent(tick=0, channel=2, data=[79, 100]),\r\n",
      "   midi.NoteOnEvent(tick=96, channel=2, data=[79, 0]),\r\n",
      "   midi.NoteOnEvent(tick=0, channel=2, data=[76, 100]),\r\n",
      "   midi.NoteOnEvent(tick=96, channel=2, data=[76, 0]),\r\n",
      "   midi.NoteOnEvent(tick=0, channel=2, data=[74, 100]),\r\n",
      "   midi.NoteOnEvent(tick=96, channel=2, data=[74, 0]),\r\n",
      "   midi.NoteOnEvent(tick=0, channel=2, data=[76, 100]),\r\n",
      "   midi.NoteOnEvent(tick=96, channel=2, data=[76, 0]),\r\n",
      "   midi.NoteOnEvent(tick=0, channel=2, data=[77, 100]),\r\n",
      "   midi.NoteOnEvent(tick=96, channel=2, data=[77, 0]),\r\n",
      "   midi.NoteOnEvent(tick=0, channel=2, data=[74, 100]),\r\n",
      "   midi.NoteOnEvent(tick=96, channel=2, data=[74, 0]),\r\n",
      "   midi.NoteOnEvent(tick=0, channel=2, data=[72, 100]),\r\n",
      "   midi.NoteOnEvent(tick=192, channel=2, data=[72, 0]),\r\n",
      "   midi.NoteOnEvent(tick=0, channel=2, data=[67, 100]),\r\n",
      "   midi.NoteOnEvent(tick=192, channel=2, data=[67, 0]),\r\n",
      "   midi.NoteOnEvent(tick=192, channel=2, data=[67, 100]),\r\n",
      "   midi.NoteOnEvent(tick=192, channel=2, data=[67, 0]),\r\n",
      "   midi.NoteOnEvent(tick=0, channel=2, data=[67, 100]),\r\n",
      "   midi.NoteOnEvent(tick=192, channel=2, data=[67, 0]),\r\n",
      "   midi.NoteOnEvent(tick=192, channel=2, data=[67, 100]),\r\n",
      "   midi.NoteOnEvent(tick=192, channel=2, data=[67, 0]),\r\n",
      "   midi.NoteOnEvent(tick=192, channel=2, data=[71, 100]),\r\n",
      "   midi.NoteOnEvent(tick=192, channel=2, data=[71, 0]),\r\n",
      "   midi.NoteOnEvent(tick=192, channel=2, data=[72, 100]),\r\n",
      "   midi.NoteOnEvent(tick=192, channel=2, data=[72, 0]),\r\n",
      "   midi.NoteOnEvent(tick=192, channel=2, data=[72, 100]),\r\n",
      "   midi.NoteOnEvent(tick=192, channel=2, data=[72, 0]),\r\n",
      "   midi.NoteOnEvent(tick=0, channel=2, data=[71, 100]),\r\n",
      "   midi.NoteOnEvent(tick=192, channel=2, data=[71, 0]),\r\n",
      "   midi.NoteOnEvent(tick=0, channel=2, data=[72, 100]),\r\n",
      "   midi.NoteOnEvent(tick=192, channel=2, data=[72, 0]),\r\n",
      "   midi.NoteOnEvent(tick=0, channel=2, data=[69, 100]),\r\n",
      "   midi.NoteOnEvent(tick=192, channel=2, data=[69, 0]),\r\n",
      "   midi.NoteOnEvent(tick=0, channel=2, data=[71, 100]),\r\n",
      "   midi.NoteOnEvent(tick=96, channel=2, data=[71, 0]),\r\n",
      "   midi.NoteOnEvent(tick=0, channel=2, data=[72, 100]),\r\n",
      "   midi.NoteOnEvent(tick=96, channel=2, data=[72, 0]),\r\n",
      "   midi.NoteOnEvent(tick=0, channel=2, data=[74, 100]),\r\n",
      "   midi.NoteOnEvent(tick=96, channel=2, data=[74, 0]),\r\n",
      "   midi.NoteOnEvent(tick=0, channel=2, data=[72, 100]),\r\n",
      "   midi.NoteOnEvent(tick=96, channel=2, data=[72, 0]),\r\n",
      "   midi.NoteOnEvent(tick=0, channel=2, data=[71, 100]),\r\n",
      "   midi.NoteOnEvent(tick=96, channel=2, data=[71, 0]),\r\n",
      "   midi.NoteOnEvent(tick=0, channel=2, data=[69, 100]),\r\n",
      "   midi.NoteOnEvent(tick=96, channel=2, data=[69, 0]),\r\n",
      "   midi.NoteOnEvent(tick=0, channel=2, data=[67, 100]),\r\n",
      "   midi.NoteOnEvent(tick=96, channel=2, data=[67, 0]),\r\n",
      "   midi.NoteOnEvent(tick=0, channel=2, data=[65, 100]),\r\n",
      "   midi.NoteOnEvent(tick=96, channel=2, data=[65, 0]),\r\n",
      "   midi.NoteOnEvent(tick=0, channel=2, data=[64, 100]),\r\n",
      "   midi.NoteOnEvent(tick=96, channel=2, data=[64, 0]),\r\n",
      "   midi.NoteOnEvent(tick=0, channel=2, data=[74, 100]),\r\n",
      "   midi.NoteOnEvent(tick=96, channel=2, data=[74, 0]),\r\n",
      "   midi.NoteOnEvent(tick=0, channel=2, data=[72, 100]),\r\n",
      "   midi.NoteOnEvent(tick=96, channel=2, data=[72, 0]),\r\n",
      "   midi.NoteOnEvent(tick=0, channel=2, data=[71, 100]),\r\n",
      "   midi.NoteOnEvent(tick=96, channel=2, data=[71, 0]),\r\n",
      "   midi.NoteOnEvent(tick=0, channel=2, data=[69, 100]),\r\n",
      "   midi.NoteOnEvent(tick=96, channel=2, data=[69, 0]),\r\n",
      "   midi.NoteOnEvent(tick=0, channel=2, data=[67, 100]),\r\n",
      "   midi.NoteOnEvent(tick=96, channel=2, data=[67, 0]),\r\n",
      "   midi.NoteOnEvent(tick=0, channel=2, data=[66, 100]),\r\n",
      "   midi.NoteOnEvent(tick=96, channel=2, data=[66, 0]),\r\n",
      "   midi.NoteOnEvent(tick=0, channel=2, data=[64, 100]),\r\n",
      "   midi.NoteOnEvent(tick=96, channel=2, data=[64, 0]),\r\n",
      "   midi.NoteOnEvent(tick=0, channel=2, data=[66, 100]),\r\n",
      "   midi.NoteOnEvent(tick=192, channel=2, data=[66, 0]),\r\n",
      "   midi.NoteOnEvent(tick=0, channel=2, data=[74, 100]),\r\n",
      "   midi.NoteOnEvent(tick=192, channel=2, data=[74, 0]),\r\n",
      "   midi.NoteOnEvent(tick=1344, channel=2, data=[69, 100]),\r\n",
      "   midi.NoteOnEvent(tick=96, channel=2, data=[69, 0]),\r\n",
      "   midi.NoteOnEvent(tick=0, channel=2, data=[67, 100]),\r\n",
      "   midi.NoteOnEvent(tick=96, channel=2, data=[67, 0]),\r\n",
      "   midi.NoteOnEvent(tick=0, channel=2, data=[66, 100]),\r\n",
      "   midi.NoteOnEvent(tick=96, channel=2, data=[66, 0]),\r\n",
      "   midi.NoteOnEvent(tick=0, channel=2, data=[64, 100]),\r\n",
      "   midi.NoteOnEvent(tick=96, channel=2, data=[64, 0]),\r\n",
      "   midi.NoteOnEvent(tick=0, channel=2, data=[62, 100]),\r\n",
      "   midi.NoteOnEvent(tick=96, channel=2, data=[62, 0]),\r\n",
      "   midi.NoteOnEvent(tick=0, channel=2, data=[60, 100]),\r\n",
      "   midi.NoteOnEvent(tick=96, channel=2, data=[60, 0]),\r\n",
      "   midi.NoteOnEvent(tick=0, channel=2, data=[62, 100]),\r\n",
      "   midi.NoteOnEvent(tick=96, channel=2, data=[62, 0]),\r\n",
      "   midi.NoteOnEvent(tick=0, channel=2, data=[72, 100]),\r\n",
      "   midi.NoteOnEvent(tick=96, channel=2, data=[72, 0]),\r\n",
      "   midi.NoteOnEvent(tick=0, channel=2, data=[71, 100]),\r\n",
      "   midi.NoteOnEvent(tick=96, channel=2, data=[71, 0]),\r\n",
      "   midi.NoteOnEvent(tick=0, channel=2, data=[69, 100]),\r\n",
      "   midi.NoteOnEvent(tick=96, channel=2, data=[69, 0]),\r\n",
      "   midi.NoteOnEvent(tick=0, channel=2, data=[67, 100]),\r\n",
      "   midi.NoteOnEvent(tick=96, channel=2, data=[67, 0]),\r\n",
      "   midi.NoteOnEvent(tick=0, channel=2, data=[66, 100]),\r\n",
      "   midi.NoteOnEvent(tick=96, channel=2, data=[66, 0]),\r\n",
      "   midi.NoteOnEvent(tick=0, channel=2, data=[64, 100]),\r\n",
      "   midi.NoteOnEvent(tick=96, channel=2, data=[64, 0]),\r\n",
      "   midi.NoteOnEvent(tick=0, channel=2, data=[63, 100]),\r\n",
      "   midi.NoteOnEvent(tick=96, channel=2, data=[63, 0]),\r\n",
      "   midi.NoteOnEvent(tick=0, channel=2, data=[64, 100]),\r\n",
      "   midi.NoteOnEvent(tick=192, channel=2, data=[64, 0]),\r\n",
      "   midi.NoteOnEvent(tick=0, channel=2, data=[69, 100]),\r\n",
      "   midi.NoteOnEvent(tick=192, channel=2, data=[69, 0]),\r\n",
      "   midi.NoteOnEvent(tick=1344, channel=2, data=[67, 100]),\r\n",
      "   midi.NoteOnEvent(tick=384, channel=2, data=[67, 0]),\r\n",
      "   midi.NoteOnEvent(tick=0, channel=2, data=[69, 100]),\r\n",
      "   midi.NoteOnEvent(tick=96, channel=2, data=[69, 0]),\r\n",
      "   midi.NoteOnEvent(tick=0, channel=2, data=[71, 100]),\r\n",
      "   midi.NoteOnEvent(tick=96, channel=2, data=[71, 0]),\r\n",
      "   midi.NoteOnEvent(tick=0, channel=2, data=[72, 100]),\r\n",
      "   midi.NoteOnEvent(tick=384, channel=2, data=[72, 0]),\r\n",
      "   midi.NoteOnEvent(tick=96, channel=2, data=[71, 100]),\r\n",
      "   midi.NoteOnEvent(tick=96, channel=2, data=[71, 0]),\r\n",
      "   midi.NoteOnEvent(tick=0, channel=2, data=[69, 100]),\r\n",
      "   midi.NoteOnEvent(tick=96, channel=2, data=[69, 0]),\r\n",
      "   midi.NoteOnEvent(tick=0, channel=2, data=[67, 100]),\r\n",
      "   midi.NoteOnEvent(tick=96, channel=2, data=[67, 0]),\r\n",
      "   midi.NoteOnEvent(tick=0, channel=2, data=[66, 100]),\r\n",
      "   midi.NoteOnEvent(tick=192, channel=2, data=[66, 0]),\r\n",
      "   midi.NoteOnEvent(tick=0, channel=2, data=[78, 100]),\r\n",
      "   midi.NoteOnEvent(tick=192, channel=2, data=[78, 0]),\r\n",
      "   midi.NoteOnEvent(tick=0, channel=2, data=[76, 100]),\r\n",
      "   midi.NoteOnEvent(tick=192, channel=2, data=[76, 0]),\r\n",
      "   midi.NoteOnEvent(tick=0, channel=2, data=[64, 100]),\r\n",
      "   midi.NoteOnEvent(tick=384, channel=2, data=[64, 0]),\r\n",
      "   midi.NoteOnEvent(tick=0, channel=2, data=[63, 100]),\r\n",
      "   midi.NoteOnEvent(tick=192, channel=2, data=[63, 0]),\r\n",
      "   midi.NoteOnEvent(tick=0, channel=2, data=[64, 100]),\r\n",
      "   midi.NoteOnEvent(tick=192, channel=2, data=[64, 0]),\r\n",
      "   midi.NoteOnEvent(tick=0, channel=2, data=[72, 100]),\r\n",
      "   midi.NoteOnEvent(tick=384, channel=2, data=[72, 0]),\r\n",
      "   midi.NoteOnEvent(tick=0, channel=2, data=[66, 100]),\r\n",
      "   midi.NoteOnEvent(tick=192, channel=2, data=[66, 0]),\r\n",
      "   midi.NoteOnEvent(tick=0, channel=2, data=[67, 100]),\r\n",
      "   midi.NoteOnEvent(tick=192, channel=2, data=[67, 0]),\r\n",
      "   midi.NoteOnEvent(tick=0, channel=2, data=[76, 100]),\r\n",
      "   midi.NoteOnEvent(tick=192, channel=2, data=[76, 0]),\r\n",
      "   midi.NoteOnEvent(tick=0, channel=2, data=[76, 100]),\r\n",
      "   midi.NoteOnEvent(tick=384, channel=2, data=[76, 0]),\r\n",
      "   midi.NoteOnEvent(tick=0, channel=2, data=[75, 100]),\r\n",
      "   midi.NoteOnEvent(tick=48, channel=2, data=[75, 0]),\r\n",
      "   midi.NoteOnEvent(tick=0, channel=2, data=[76, 100]),\r\n",
      "   midi.NoteOnEvent(tick=48, channel=2, data=[76, 0]),\r\n",
      "   midi.NoteOnEvent(tick=0, channel=2, data=[75, 100]),\r\n",
      "   midi.NoteOnEvent(tick=48, channel=2, data=[75, 0]),\r\n",
      "   midi.NoteOnEvent(tick=0, channel=2, data=[76, 100]),\r\n",
      "   midi.NoteOnEvent(tick=48, channel=2, data=[76, 0]),\r\n",
      "   midi.NoteOnEvent(tick=0, channel=2, data=[75, 100]),\r\n",
      "   midi.NoteOnEvent(tick=48, channel=2, data=[75, 0]),\r\n",
      "   midi.NoteOnEvent(tick=0, channel=2, data=[76, 100]),\r\n",
      "   midi.NoteOnEvent(tick=48, channel=2, data=[76, 0]),\r\n",
      "   midi.NoteOnEvent(tick=0, channel=2, data=[75, 100]),\r\n",
      "   midi.NoteOnEvent(tick=48, channel=2, data=[75, 0]),\r\n",
      "   midi.NoteOnEvent(tick=0, channel=2, data=[76, 100]),\r\n",
      "   midi.NoteOnEvent(tick=48, channel=2, data=[76, 0]),\r\n",
      "   midi.NoteOnEvent(tick=0, channel=2, data=[75, 100]),\r\n",
      "   midi.NoteOnEvent(tick=384, channel=2, data=[75, 0]),\r\n",
      "   midi.NoteOnEvent(tick=384, channel=2, data=[78, 100]),\r\n",
      "   midi.NoteOnEvent(tick=384, channel=2, data=[78, 0]),\r\n",
      "   midi.NoteOnEvent(tick=384, channel=2, data=[79, 100]),\r\n",
      "   midi.NoteOnEvent(tick=384, channel=2, data=[79, 0]),\r\n",
      "   midi.NoteOnEvent(tick=384, channel=2, data=[66, 100]),\r\n",
      "   midi.NoteOnEvent(tick=384, channel=2, data=[66, 0]),\r\n",
      "   midi.NoteOnEvent(tick=384, channel=2, data=[66, 100]),\r\n",
      "   midi.NoteOnEvent(tick=768, channel=2, data=[66, 0]),\r\n",
      "   midi.NoteOnEvent(tick=96, channel=2, data=[67, 100]),\r\n",
      "   midi.NoteOnEvent(tick=96, channel=2, data=[67, 0]),\r\n",
      "   midi.NoteOnEvent(tick=0, channel=2, data=[69, 100]),\r\n",
      "   midi.NoteOnEvent(tick=96, channel=2, data=[69, 0]),\r\n",
      "   midi.NoteOnEvent(tick=0, channel=2, data=[71, 100]),\r\n",
      "   midi.NoteOnEvent(tick=96, channel=2, data=[71, 0]),\r\n",
      "   midi.NoteOnEvent(tick=0, channel=2, data=[73, 100]),\r\n",
      "   midi.NoteOnEvent(tick=96, channel=2, data=[73, 0]),\r\n",
      "   midi.NoteOnEvent(tick=0, channel=2, data=[75, 100]),\r\n",
      "   midi.NoteOnEvent(tick=96, channel=2, data=[75, 0]),\r\n",
      "   midi.NoteOnEvent(tick=0, channel=2, data=[76, 100]),\r\n",
      "   midi.NoteOnEvent(tick=96, channel=2, data=[76, 0]),\r\n",
      "   midi.NoteOnEvent(tick=0, channel=2, data=[78, 100]),\r\n",
      "   midi.NoteOnEvent(tick=96, channel=2, data=[78, 0]),\r\n",
      "   midi.NoteOnEvent(tick=0, channel=2, data=[79, 100]),\r\n",
      "   midi.NoteOnEvent(tick=192, channel=2, data=[79, 0]),\r\n",
      "   midi.NoteOnEvent(tick=0, channel=2, data=[67, 100]),\r\n",
      "   midi.NoteOnEvent(tick=192, channel=2, data=[67, 0]),\r\n",
      "   midi.NoteOnEvent(tick=0, channel=2, data=[69, 100]),\r\n",
      "   midi.NoteOnEvent(tick=192, channel=2, data=[69, 0]),\r\n",
      "   midi.NoteOnEvent(tick=0, channel=2, data=[66, 100]),\r\n",
      "   midi.NoteOnEvent(tick=192, channel=2, data=[66, 0]),\r\n",
      "   midi.NoteOnEvent(tick=0, channel=2, data=[64, 100]),\r\n",
      "   midi.NoteOnEvent(tick=192, channel=2, data=[64, 0]),\r\n",
      "   midi.NoteOnEvent(tick=0, channel=2, data=[76, 100]),\r\n",
      "   midi.NoteOnEvent(tick=96, channel=2, data=[76, 0]),\r\n",
      "   midi.NoteOnEvent(tick=0, channel=2, data=[74, 100]),\r\n",
      "   midi.NoteOnEvent(tick=96, channel=2, data=[74, 0]),\r\n",
      "   midi.NoteOnEvent(tick=0, channel=2, data=[72, 100]),\r\n",
      "   midi.NoteOnEvent(tick=96, channel=2, data=[72, 0]),\r\n",
      "   midi.NoteOnEvent(tick=0, channel=2, data=[71, 100]),\r\n",
      "   midi.NoteOnEvent(tick=96, channel=2, data=[71, 0]),\r\n",
      "   midi.NoteOnEvent(tick=0, channel=2, data=[69, 100]),\r\n",
      "   midi.NoteOnEvent(tick=96, channel=2, data=[69, 0]),\r\n",
      "   midi.NoteOnEvent(tick=0, channel=2, data=[67, 100]),\r\n",
      "   midi.NoteOnEvent(tick=96, channel=2, data=[67, 0]),\r\n",
      "   midi.NoteOnEvent(tick=0, channel=2, data=[66, 100]),\r\n",
      "   midi.NoteOnEvent(tick=96, channel=2, data=[66, 0]),\r\n",
      "   midi.NoteOnEvent(tick=0, channel=2, data=[64, 100]),\r\n",
      "   midi.NoteOnEvent(tick=96, channel=2, data=[64, 0]),\r\n",
      "   midi.NoteOnEvent(tick=0, channel=2, data=[63, 100]),\r\n",
      "   midi.NoteOnEvent(tick=96, channel=2, data=[63, 0]),\r\n",
      "   midi.NoteOnEvent(tick=0, channel=2, data=[64, 100]),\r\n",
      "   midi.NoteOnEvent(tick=96, channel=2, data=[64, 0]),\r\n",
      "   midi.NoteOnEvent(tick=0, channel=2, data=[66, 100]),\r\n",
      "   midi.NoteOnEvent(tick=96, channel=2, data=[66, 0]),\r\n",
      "   midi.NoteOnEvent(tick=0, channel=2, data=[67, 100]),\r\n",
      "   midi.NoteOnEvent(tick=96, channel=2, data=[67, 0]),\r\n",
      "   midi.NoteOnEvent(tick=0, channel=2, data=[69, 100]),\r\n",
      "   midi.NoteOnEvent(tick=96, channel=2, data=[69, 0]),\r\n",
      "   midi.NoteOnEvent(tick=0, channel=2, data=[71, 100]),\r\n",
      "   midi.NoteOnEvent(tick=96, channel=2, data=[71, 0]),\r\n",
      "   midi.NoteOnEvent(tick=0, channel=2, data=[72, 100]),\r\n",
      "   midi.NoteOnEvent(tick=96, channel=2, data=[72, 0]),\r\n",
      "   midi.NoteOnEvent(tick=0, channel=2, data=[71, 100]),\r\n",
      "   midi.NoteOnEvent(tick=96, channel=2, data=[71, 0]),\r\n",
      "   midi.NoteOnEvent(tick=0, channel=2, data=[69, 100]),\r\n",
      "   midi.NoteOnEvent(tick=96, channel=2, data=[69, 0]),\r\n",
      "   midi.NoteOnEvent(tick=0, channel=2, data=[67, 100]),\r\n",
      "   midi.NoteOnEvent(tick=96, channel=2, data=[67, 0]),\r\n",
      "   midi.NoteOnEvent(tick=0, channel=2, data=[66, 100]),\r\n",
      "   midi.NoteOnEvent(tick=96, channel=2, data=[66, 0]),\r\n",
      "   midi.NoteOnEvent(tick=0, channel=2, data=[64, 100]),\r\n",
      "   midi.NoteOnEvent(tick=96, channel=2, data=[64, 0]),\r\n",
      "   midi.NoteOnEvent(tick=0, channel=2, data=[63, 100]),\r\n",
      "   midi.NoteOnEvent(tick=96, channel=2, data=[63, 0]),\r\n",
      "   midi.NoteOnEvent(tick=0, channel=2, data=[64, 100]),\r\n",
      "   midi.NoteOnEvent(tick=96, channel=2, data=[64, 0]),\r\n",
      "   midi.NoteOnEvent(tick=0, channel=2, data=[69, 100]),\r\n",
      "   midi.NoteOnEvent(tick=192, channel=2, data=[69, 0]),\r\n",
      "   midi.NoteOnEvent(tick=0, channel=2, data=[64, 100]),\r\n",
      "   midi.NoteOnEvent(tick=192, channel=2, data=[64, 0]),\r\n",
      "   midi.NoteOnEvent(tick=0, channel=2, data=[64, 100]),\r\n",
      "   midi.NoteOnEvent(tick=192, channel=2, data=[64, 0]),\r\n",
      "   midi.NoteOnEvent(tick=0, channel=2, data=[63, 100]),\r\n",
      "   midi.NoteOnEvent(tick=192, channel=2, data=[63, 0]),\r\n",
      "   midi.NoteOnEvent(tick=0, channel=2, data=[59, 100]),\r\n",
      "   midi.NoteOnEvent(tick=384, channel=2, data=[59, 0]),\r\n",
      "   midi.NoteOnEvent(tick=576, channel=2, data=[67, 100]),\r\n",
      "   midi.NoteOnEvent(tick=192, channel=2, data=[67, 0]),\r\n",
      "   midi.NoteOnEvent(tick=0, channel=2, data=[71, 100]),\r\n",
      "   midi.NoteOnEvent(tick=192, channel=2, data=[71, 0]),\r\n",
      "   midi.NoteOnEvent(tick=384, channel=2, data=[71, 100]),\r\n",
      "   midi.NoteOnEvent(tick=96, channel=2, data=[71, 0]),\r\n",
      "   midi.NoteOnEvent(tick=0, channel=2, data=[73, 100]),\r\n",
      "   midi.NoteOnEvent(tick=96, channel=2, data=[73, 0]),\r\n",
      "   midi.NoteOnEvent(tick=0, channel=2, data=[75, 100]),\r\n",
      "   midi.NoteOnEvent(tick=192, channel=2, data=[75, 0]),\r\n",
      "   midi.NoteOnEvent(tick=384, channel=2, data=[63, 100]),\r\n",
      "   midi.NoteOnEvent(tick=192, channel=2, data=[63, 0]),\r\n",
      "   midi.NoteOnEvent(tick=0, channel=2, data=[69, 100]),\r\n",
      "   midi.NoteOnEvent(tick=192, channel=2, data=[69, 0]),\r\n",
      "   midi.NoteOnEvent(tick=384, channel=2, data=[71, 100]),\r\n",
      "   midi.NoteOnEvent(tick=192, channel=2, data=[71, 0]),\r\n",
      "   midi.NoteOnEvent(tick=0, channel=2, data=[76, 100]),\r\n",
      "   midi.NoteOnEvent(tick=192, channel=2, data=[76, 0]),\r\n",
      "   midi.NoteOnEvent(tick=0, channel=2, data=[67, 100]),\r\n",
      "   midi.NoteOnEvent(tick=192, channel=2, data=[67, 0]),\r\n",
      "   midi.NoteOnEvent(tick=0, channel=2, data=[69, 100]),\r\n",
      "   midi.NoteOnEvent(tick=384, channel=2, data=[69, 0]),\r\n",
      "   midi.NoteOnEvent(tick=0, channel=2, data=[71, 100]),\r\n",
      "   midi.NoteOnEvent(tick=384, channel=2, data=[71, 0]),\r\n",
      "   midi.NoteOnEvent(tick=0, channel=2, data=[72, 100]),\r\n",
      "   midi.NoteOnEvent(tick=384, channel=2, data=[72, 0]),\r\n",
      "   midi.NoteOnEvent(tick=0, channel=2, data=[68, 100]),\r\n",
      "   midi.NoteOnEvent(tick=384, channel=2, data=[68, 0]),\r\n",
      "   midi.NoteOnEvent(tick=0, channel=2, data=[69, 100]),\r\n",
      "   midi.NoteOnEvent(tick=384, channel=2, data=[69, 0]),\r\n",
      "   midi.NoteOnEvent(tick=0, channel=2, data=[67, 100]),\r\n",
      "   midi.NoteOnEvent(tick=384, channel=2, data=[67, 0]),\r\n",
      "   midi.NoteOnEvent(tick=0, channel=2, data=[65, 100]),\r\n",
      "   midi.NoteOnEvent(tick=384, channel=2, data=[65, 0]),\r\n",
      "   midi.NoteOnEvent(tick=0, channel=2, data=[64, 100]),\r\n",
      "   midi.NoteOnEvent(tick=384, channel=2, data=[64, 0]),\r\n",
      "   midi.NoteOnEvent(tick=0, channel=2, data=[62, 100]),\r\n",
      "   midi.NoteOnEvent(tick=384, channel=2, data=[62, 0]),\r\n",
      "   midi.NoteOnEvent(tick=0, channel=2, data=[57, 100]),\r\n",
      "   midi.NoteOnEvent(tick=384, channel=2, data=[57, 0]),\r\n",
      "   midi.NoteOnEvent(tick=0, channel=2, data=[62, 100]),\r\n",
      "   midi.NoteOnEvent(tick=384, channel=2, data=[62, 0]),\r\n",
      "   midi.NoteOnEvent(tick=0, channel=2, data=[66, 100]),\r\n",
      "   midi.NoteOnEvent(tick=384, channel=2, data=[66, 0]),\r\n",
      "   midi.NoteOnEvent(tick=0, channel=2, data=[67, 100]),\r\n",
      "   midi.NoteOnEvent(tick=384, channel=2, data=[67, 0]),\r\n",
      "   midi.NoteOnEvent(tick=0, channel=2, data=[65, 100]),\r\n",
      "   midi.NoteOnEvent(tick=384, channel=2, data=[65, 0]),\r\n",
      "   midi.NoteOnEvent(tick=0, channel=2, data=[64, 100]),\r\n",
      "   midi.NoteOnEvent(tick=384, channel=2, data=[64, 0]),\r\n",
      "   midi.NoteOnEvent(tick=0, channel=2, data=[62, 100]),\r\n",
      "   midi.NoteOnEvent(tick=384, channel=2, data=[62, 0]),\r\n",
      "   midi.NoteOnEvent(tick=0, channel=2, data=[60, 100]),\r\n",
      "   midi.NoteOnEvent(tick=384, channel=2, data=[60, 0]),\r\n",
      "   midi.NoteOnEvent(tick=0, channel=2, data=[67, 100]),\r\n",
      "   midi.NoteOnEvent(tick=384, channel=2, data=[67, 0]),\r\n",
      "   midi.NoteOnEvent(tick=0, channel=2, data=[72, 100]),\r\n",
      "   midi.NoteOnEvent(tick=384, channel=2, data=[72, 0]),\r\n",
      "   midi.NoteOnEvent(tick=0, channel=2, data=[76, 100]),\r\n",
      "   midi.NoteOnEvent(tick=384, channel=2, data=[76, 0]),\r\n",
      "   midi.NoteOnEvent(tick=0, channel=2, data=[77, 100]),\r\n",
      "   midi.NoteOnEvent(tick=384, channel=2, data=[77, 0]),\r\n",
      "   midi.NoteOnEvent(tick=2112, channel=2, data=[69, 100]),\r\n",
      "   midi.NoteOnEvent(tick=192, channel=2, data=[69, 0]),\r\n",
      "   midi.NoteOnEvent(tick=0, channel=2, data=[74, 100]),\r\n",
      "   midi.NoteOnEvent(tick=384, channel=2, data=[74, 0]),\r\n",
      "   midi.NoteOnEvent(tick=192, channel=2, data=[74, 100]),\r\n",
      "   midi.NoteOnEvent(tick=192, channel=2, data=[74, 0]),\r\n",
      "   midi.NoteOnEvent(tick=0, channel=2, data=[82, 100]),\r\n",
      "   midi.NoteOnEvent(tick=192, channel=2, data=[82, 0]),\r\n",
      "   midi.NoteOnEvent(tick=0, channel=2, data=[73, 100]),\r\n",
      "   midi.NoteOnEvent(tick=192, channel=2, data=[73, 0]),\r\n",
      "   midi.NoteOnEvent(tick=0, channel=2, data=[74, 100]),\r\n",
      "   midi.NoteOnEvent(tick=192, channel=2, data=[74, 0]),\r\n",
      "   midi.NoteOnEvent(tick=0, channel=2, data=[69, 100]),\r\n",
      "   midi.NoteOnEvent(tick=192, channel=2, data=[69, 0]),\r\n",
      "   midi.NoteOnEvent(tick=0, channel=2, data=[69, 100]),\r\n",
      "   midi.NoteOnEvent(tick=192, channel=2, data=[69, 0]),\r\n",
      "   midi.NoteOnEvent(tick=0, channel=2, data=[69, 100]),\r\n",
      "   midi.NoteOnEvent(tick=192, channel=2, data=[69, 0]),\r\n",
      "   midi.NoteOnEvent(tick=0, channel=2, data=[69, 100]),\r\n",
      "   midi.NoteOnEvent(tick=384, channel=2, data=[69, 0]),\r\n",
      "   midi.NoteOnEvent(tick=192, channel=2, data=[65, 100]),\r\n",
      "   midi.NoteOnEvent(tick=192, channel=2, data=[65, 0]),\r\n",
      "   midi.NoteOnEvent(tick=0, channel=2, data=[67, 100]),\r\n",
      "   midi.NoteOnEvent(tick=192, channel=2, data=[67, 0]),\r\n",
      "   midi.NoteOnEvent(tick=0, channel=2, data=[67, 100]),\r\n",
      "   midi.NoteOnEvent(tick=192, channel=2, data=[67, 0]),\r\n",
      "   midi.NoteOnEvent(tick=0, channel=2, data=[69, 100]),\r\n",
      "   midi.NoteOnEvent(tick=192, channel=2, data=[69, 0]),\r\n",
      "   midi.NoteOnEvent(tick=0, channel=2, data=[69, 100]),\r\n",
      "   midi.NoteOnEvent(tick=192, channel=2, data=[69, 0]),\r\n",
      "   midi.NoteOnEvent(tick=0, channel=2, data=[70, 100]),\r\n",
      "   midi.NoteOnEvent(tick=192, channel=2, data=[70, 0]),\r\n",
      "   midi.NoteOnEvent(tick=0, channel=2, data=[70, 100]),\r\n",
      "   midi.NoteOnEvent(tick=192, channel=2, data=[70, 0]),\r\n",
      "   midi.NoteOnEvent(tick=0, channel=2, data=[66, 100]),\r\n",
      "   midi.NoteOnEvent(tick=192, channel=2, data=[66, 0]),\r\n",
      "   midi.NoteOnEvent(tick=0, channel=2, data=[66, 100]),\r\n",
      "   midi.NoteOnEvent(tick=192, channel=2, data=[66, 0]),\r\n",
      "   midi.NoteOnEvent(tick=0, channel=2, data=[67, 100]),\r\n",
      "   midi.NoteOnEvent(tick=192, channel=2, data=[67, 0]),\r\n",
      "   midi.NoteOnEvent(tick=0, channel=2, data=[70, 100]),\r\n",
      "   midi.NoteOnEvent(tick=192, channel=2, data=[70, 0]),\r\n",
      "   midi.NoteOnEvent(tick=0, channel=2, data=[74, 100]),\r\n",
      "   midi.NoteOnEvent(tick=192, channel=2, data=[74, 0]),\r\n",
      "   midi.NoteOnEvent(tick=0, channel=2, data=[79, 100]),\r\n",
      "   midi.NoteOnEvent(tick=192, channel=2, data=[79, 0]),\r\n",
      "   midi.NoteOnEvent(tick=0, channel=2, data=[76, 100]),\r\n",
      "   midi.NoteOnEvent(tick=192, channel=2, data=[76, 0]),\r\n",
      "   midi.NoteOnEvent(tick=0, channel=2, data=[72, 100]),\r\n",
      "   midi.NoteOnEvent(tick=192, channel=2, data=[72, 0]),\r\n",
      "   midi.NoteOnEvent(tick=0, channel=2, data=[67, 100]),\r\n",
      "   midi.NoteOnEvent(tick=192, channel=2, data=[67, 0]),\r\n",
      "   midi.NoteOnEvent(tick=0, channel=2, data=[67, 100]),\r\n",
      "   midi.NoteOnEvent(tick=192, channel=2, data=[67, 0]),\r\n",
      "   midi.NoteOnEvent(tick=0, channel=2, data=[69, 100]),\r\n",
      "   midi.NoteOnEvent(tick=192, channel=2, data=[69, 0]),\r\n",
      "   midi.NoteOnEvent(tick=0, channel=2, data=[69, 100]),\r\n",
      "   midi.NoteOnEvent(tick=192, channel=2, data=[69, 0]),\r\n",
      "   midi.NoteOnEvent(tick=0, channel=2, data=[64, 100]),\r\n",
      "   midi.NoteOnEvent(tick=192, channel=2, data=[64, 0]),\r\n",
      "   midi.NoteOnEvent(tick=0, channel=2, data=[64, 100]),\r\n",
      "   midi.NoteOnEvent(tick=192, channel=2, data=[64, 0]),\r\n",
      "   midi.NoteOnEvent(tick=0, channel=2, data=[65, 100]),\r\n",
      "   midi.NoteOnEvent(tick=192, channel=2, data=[65, 0]),\r\n",
      "   midi.NoteOnEvent(tick=0, channel=2, data=[69, 100]),\r\n",
      "   midi.NoteOnEvent(tick=192, channel=2, data=[69, 0]),\r\n",
      "   midi.NoteOnEvent(tick=0, channel=2, data=[72, 100]),\r\n",
      "   midi.NoteOnEvent(tick=192, channel=2, data=[72, 0]),\r\n",
      "   midi.NoteOnEvent(tick=0, channel=2, data=[77, 100]),\r\n",
      "   midi.NoteOnEvent(tick=192, channel=2, data=[77, 0]),\r\n",
      "   midi.NoteOnEvent(tick=0, channel=2, data=[74, 100]),\r\n",
      "   midi.NoteOnEvent(tick=192, channel=2, data=[74, 0]),\r\n",
      "   midi.NoteOnEvent(tick=0, channel=2, data=[70, 100]),\r\n",
      "   midi.NoteOnEvent(tick=192, channel=2, data=[70, 0]),\r\n",
      "   midi.NoteOnEvent(tick=0, channel=2, data=[70, 100]),\r\n",
      "   midi.NoteOnEvent(tick=192, channel=2, data=[70, 0]),\r\n",
      "   midi.NoteOnEvent(tick=0, channel=2, data=[70, 100]),\r\n",
      "   midi.NoteOnEvent(tick=192, channel=2, data=[70, 0]),\r\n",
      "   midi.NoteOnEvent(tick=0, channel=2, data=[70, 100]),\r\n",
      "   midi.NoteOnEvent(tick=192, channel=2, data=[70, 0]),\r\n",
      "   midi.NoteOnEvent(tick=0, channel=2, data=[70, 100]),\r\n",
      "   midi.NoteOnEvent(tick=192, channel=2, data=[70, 0]),\r\n",
      "   midi.NoteOnEvent(tick=0, channel=2, data=[70, 100]),\r\n",
      "   midi.NoteOnEvent(tick=192, channel=2, data=[70, 0]),\r\n",
      "   midi.NoteOnEvent(tick=0, channel=2, data=[70, 100]),\r\n",
      "   midi.NoteOnEvent(tick=192, channel=2, data=[70, 0]),\r\n",
      "   midi.NoteOnEvent(tick=0, channel=2, data=[70, 100]),\r\n",
      "   midi.NoteOnEvent(tick=192, channel=2, data=[70, 0]),\r\n",
      "   midi.NoteOnEvent(tick=0, channel=2, data=[70, 100]),\r\n",
      "   midi.NoteOnEvent(tick=192, channel=2, data=[70, 0]),\r\n",
      "   midi.NoteOnEvent(tick=0, channel=2, data=[64, 100]),\r\n",
      "   midi.NoteOnEvent(tick=192, channel=2, data=[64, 0]),\r\n",
      "   midi.NoteOnEvent(tick=0, channel=2, data=[67, 100]),\r\n",
      "   midi.NoteOnEvent(tick=192, channel=2, data=[67, 0]),\r\n",
      "   midi.NoteOnEvent(tick=0, channel=2, data=[69, 100]),\r\n",
      "   midi.NoteOnEvent(tick=192, channel=2, data=[69, 0]),\r\n",
      "   midi.NoteOnEvent(tick=0, channel=2, data=[69, 100]),\r\n",
      "   midi.NoteOnEvent(tick=192, channel=2, data=[69, 0]),\r\n",
      "   midi.NoteOnEvent(tick=0, channel=2, data=[69, 100]),\r\n",
      "   midi.NoteOnEvent(tick=192, channel=2, data=[69, 0]),\r\n",
      "   midi.NoteOnEvent(tick=0, channel=2, data=[69, 100]),\r\n",
      "   midi.NoteOnEvent(tick=192, channel=2, data=[69, 0]),\r\n",
      "   midi.NoteOnEvent(tick=0, channel=2, data=[69, 100]),\r\n",
      "   midi.NoteOnEvent(tick=192, channel=2, data=[69, 0]),\r\n",
      "   midi.NoteOnEvent(tick=0, channel=2, data=[69, 100]),\r\n",
      "   midi.NoteOnEvent(tick=192, channel=2, data=[69, 0]),\r\n",
      "   midi.NoteOnEvent(tick=0, channel=2, data=[69, 100]),\r\n",
      "   midi.NoteOnEvent(tick=192, channel=2, data=[69, 0]),\r\n",
      "   midi.NoteOnEvent(tick=0, channel=2, data=[69, 100]),\r\n",
      "   midi.NoteOnEvent(tick=192, channel=2, data=[69, 0]),\r\n",
      "   midi.NoteOnEvent(tick=0, channel=2, data=[69, 100]),\r\n",
      "   midi.NoteOnEvent(tick=384, channel=2, data=[69, 0]),\r\n",
      "   midi.NoteOnEvent(tick=192, channel=2, data=[74, 100]),\r\n",
      "   midi.NoteOnEvent(tick=192, channel=2, data=[74, 0]),\r\n",
      "   midi.NoteOnEvent(tick=0, channel=2, data=[74, 100]),\r\n",
      "   midi.NoteOnEvent(tick=384, channel=2, data=[74, 0]),\r\n",
      "   midi.NoteOnEvent(tick=960, channel=2, data=[72, 100]),\r\n",
      "   midi.NoteOnEvent(tick=192, channel=2, data=[72, 0]),\r\n",
      "   midi.NoteOnEvent(tick=0, channel=2, data=[72, 100]),\r\n",
      "   midi.NoteOnEvent(tick=384, channel=2, data=[72, 0]),\r\n",
      "   midi.NoteOnEvent(tick=960, channel=2, data=[71, 100]),\r\n",
      "   midi.NoteOnEvent(tick=192, channel=2, data=[71, 0]),\r\n",
      "   midi.NoteOnEvent(tick=0, channel=2, data=[71, 100]),\r\n",
      "   midi.NoteOnEvent(tick=192, channel=2, data=[71, 0]),\r\n",
      "   midi.NoteOnEvent(tick=0, channel=2, data=[69, 100]),\r\n",
      "   midi.NoteOnEvent(tick=192, channel=2, data=[69, 0]),\r\n",
      "   midi.NoteOnEvent(tick=0, channel=2, data=[68, 100]),\r\n",
      "   midi.NoteOnEvent(tick=192, channel=2, data=[68, 0]),\r\n",
      "   midi.NoteOnEvent(tick=0, channel=2, data=[71, 100]),\r\n",
      "   midi.NoteOnEvent(tick=192, channel=2, data=[71, 0]),\r\n",
      "   midi.NoteOnEvent(tick=0, channel=2, data=[76, 100]),\r\n",
      "   midi.NoteOnEvent(tick=384, channel=2, data=[76, 0]),\r\n",
      "   midi.NoteOnEvent(tick=192, channel=2, data=[72, 100]),\r\n",
      "   midi.NoteOnEvent(tick=192, channel=2, data=[72, 0]),\r\n",
      "   midi.NoteOnEvent(tick=0, channel=2, data=[74, 100]),\r\n",
      "   midi.NoteOnEvent(tick=384, channel=2, data=[74, 0]),\r\n",
      "   midi.NoteOnEvent(tick=192, channel=2, data=[71, 100]),\r\n",
      "   midi.NoteOnEvent(tick=192, channel=2, data=[71, 0]),\r\n",
      "   midi.NoteOnEvent(tick=0, channel=2, data=[72, 100]),\r\n",
      "   midi.NoteOnEvent(tick=96, channel=2, data=[72, 0]),\r\n",
      "   midi.NoteOnEvent(tick=0, channel=2, data=[74, 100]),\r\n",
      "   midi.NoteOnEvent(tick=96, channel=2, data=[74, 0]),\r\n",
      "   midi.NoteOnEvent(tick=0, channel=2, data=[76, 100]),\r\n",
      "   midi.NoteOnEvent(tick=96, channel=2, data=[76, 0]),\r\n",
      "   midi.NoteOnEvent(tick=0, channel=2, data=[72, 100]),\r\n",
      "   midi.NoteOnEvent(tick=96, channel=2, data=[72, 0]),\r\n",
      "   midi.NoteOnEvent(tick=0, channel=2, data=[71, 100]),\r\n",
      "   midi.NoteOnEvent(tick=96, channel=2, data=[71, 0]),\r\n",
      "   midi.NoteOnEvent(tick=0, channel=2, data=[72, 100]),\r\n",
      "   midi.NoteOnEvent(tick=96, channel=2, data=[72, 0]),\r\n",
      "   midi.NoteOnEvent(tick=0, channel=2, data=[74, 100]),\r\n",
      "   midi.NoteOnEvent(tick=96, channel=2, data=[74, 0]),\r\n",
      "   midi.NoteOnEvent(tick=0, channel=2, data=[71, 100]),\r\n",
      "   midi.NoteOnEvent(tick=96, channel=2, data=[71, 0]),\r\n",
      "   midi.NoteOnEvent(tick=0, channel=2, data=[69, 100]),\r\n",
      "   midi.NoteOnEvent(tick=192, channel=2, data=[69, 0]),\r\n",
      "   midi.NoteOnEvent(tick=0, channel=2, data=[64, 100]),\r\n",
      "   midi.NoteOnEvent(tick=192, channel=2, data=[64, 0]),\r\n",
      "   midi.NoteOnEvent(tick=576, channel=2, data=[57, 100]),\r\n",
      "   midi.NoteOnEvent(tick=192, channel=2, data=[57, 0]),\r\n",
      "   midi.NoteOnEvent(tick=0, channel=2, data=[57, 100]),\r\n",
      "   midi.NoteOnEvent(tick=192, channel=2, data=[57, 0]),\r\n",
      "   midi.NoteOnEvent(tick=0, channel=2, data=[57, 100]),\r\n",
      "   midi.NoteOnEvent(tick=192, channel=2, data=[57, 0]),\r\n",
      "   midi.NoteOnEvent(tick=0, channel=2, data=[57, 100]),\r\n",
      "   midi.NoteOnEvent(tick=192, channel=2, data=[57, 0]),\r\n",
      "   midi.NoteOnEvent(tick=0, channel=2, data=[57, 100]),\r\n",
      "   midi.NoteOnEvent(tick=192, channel=2, data=[57, 0]),\r\n",
      "   midi.NoteOnEvent(tick=0, channel=2, data=[57, 100]),\r\n",
      "   midi.NoteOnEvent(tick=192, channel=2, data=[57, 0]),\r\n",
      "   midi.NoteOnEvent(tick=0, channel=2, data=[57, 100]),\r\n",
      "   midi.NoteOnEvent(tick=192, channel=2, data=[57, 0]),\r\n",
      "   midi.NoteOnEvent(tick=0, channel=2, data=[57, 100]),\r\n",
      "   midi.NoteOnEvent(tick=192, channel=2, data=[57, 0]),\r\n",
      "   midi.NoteOnEvent(tick=0, channel=2, data=[57, 100]),\r\n",
      "   midi.NoteOnEvent(tick=192, channel=2, data=[57, 0]),\r\n",
      "   midi.NoteOnEvent(tick=0, channel=2, data=[57, 100]),\r\n",
      "   midi.NoteOnEvent(tick=192, channel=2, data=[57, 0]),\r\n",
      "   midi.NoteOnEvent(tick=0, channel=2, data=[57, 100]),\r\n",
      "   midi.NoteOnEvent(tick=192, channel=2, data=[57, 0]),\r\n",
      "   midi.NoteOnEvent(tick=0, channel=2, data=[62, 100]),\r\n",
      "   midi.NoteOnEvent(tick=192, channel=2, data=[62, 0]),\r\n",
      "   midi.NoteOnEvent(tick=0, channel=2, data=[62, 100]),\r\n",
      "   midi.NoteOnEvent(tick=192, channel=2, data=[62, 0]),\r\n",
      "   midi.NoteOnEvent(tick=0, channel=2, data=[62, 100]),\r\n",
      "   midi.NoteOnEvent(tick=192, channel=2, data=[62, 0]),\r\n",
      "   midi.NoteOnEvent(tick=0, channel=2, data=[62, 100]),\r\n",
      "   midi.NoteOnEvent(tick=192, channel=2, data=[62, 0]),\r\n",
      "   midi.NoteOnEvent(tick=0, channel=2, data=[62, 100]),\r\n",
      "   midi.NoteOnEvent(tick=192, channel=2, data=[62, 0]),\r\n",
      "   midi.NoteOnEvent(tick=0, channel=2, data=[62, 100]),\r\n",
      "   midi.NoteOnEvent(tick=192, channel=2, data=[62, 0]),\r\n",
      "   midi.NoteOnEvent(tick=0, channel=2, data=[62, 100]),\r\n",
      "   midi.NoteOnEvent(tick=192, channel=2, data=[62, 0]),\r\n",
      "   midi.NoteOnEvent(tick=0, channel=2, data=[62, 100]),\r\n",
      "   midi.NoteOnEvent(tick=192, channel=2, data=[62, 0]),\r\n",
      "   midi.NoteOnEvent(tick=0, channel=2, data=[67, 100]),\r\n",
      "   midi.NoteOnEvent(tick=192, channel=2, data=[67, 0]),\r\n",
      "   midi.NoteOnEvent(tick=0, channel=2, data=[67, 100]),\r\n",
      "   midi.NoteOnEvent(tick=192, channel=2, data=[67, 0]),\r\n",
      "   midi.NoteOnEvent(tick=0, channel=2, data=[67, 100]),\r\n",
      "   midi.NoteOnEvent(tick=192, channel=2, data=[67, 0]),\r\n",
      "   midi.NoteOnEvent(tick=0, channel=2, data=[67, 100]),\r\n",
      "   midi.NoteOnEvent(tick=192, channel=2, data=[67, 0]),\r\n",
      "   midi.NoteOnEvent(tick=0, channel=2, data=[67, 100]),\r\n",
      "   midi.NoteOnEvent(tick=384, channel=2, data=[67, 0]),\r\n",
      "   midi.NoteOnEvent(tick=0, channel=2, data=[73, 100]),\r\n",
      "   midi.NoteOnEvent(tick=384, channel=2, data=[73, 0]),\r\n",
      "   midi.NoteOnEvent(tick=0, channel=2, data=[72, 100]),\r\n",
      "   midi.NoteOnEvent(tick=384, channel=2, data=[72, 0]),\r\n",
      "   midi.NoteOnEvent(tick=0, channel=2, data=[70, 100]),\r\n",
      "   midi.NoteOnEvent(tick=384, channel=2, data=[70, 0]),\r\n",
      "   midi.NoteOnEvent(tick=0, channel=2, data=[68, 100]),\r\n",
      "   midi.NoteOnEvent(tick=192, channel=2, data=[68, 0]),\r\n",
      "   midi.NoteOnEvent(tick=0, channel=2, data=[68, 100]),\r\n",
      "   midi.NoteOnEvent(tick=192, channel=2, data=[68, 0]),\r\n",
      "   midi.NoteOnEvent(tick=0, channel=2, data=[60, 100]),\r\n",
      "   midi.NoteOnEvent(tick=192, channel=2, data=[60, 0]),\r\n",
      "   midi.NoteOnEvent(tick=0, channel=2, data=[60, 100]),\r\n",
      "   midi.NoteOnEvent(tick=192, channel=2, data=[60, 0]),\r\n",
      "   midi.NoteOnEvent(tick=0, channel=2, data=[67, 100]),\r\n",
      "   midi.NoteOnEvent(tick=384, channel=2, data=[67, 0]),\r\n",
      "   midi.NoteOnEvent(tick=384, channel=2, data=[67, 100]),\r\n",
      "   midi.NoteOnEvent(tick=192, channel=2, data=[67, 0]),\r\n",
      "   midi.NoteOnEvent(tick=0, channel=2, data=[67, 100]),\r\n",
      "   midi.NoteOnEvent(tick=192, channel=2, data=[67, 0]),\r\n",
      "   midi.NoteOnEvent(tick=0, channel=2, data=[64, 100]),\r\n",
      "   midi.NoteOnEvent(tick=192, channel=2, data=[64, 0]),\r\n",
      "   midi.NoteOnEvent(tick=0, channel=2, data=[64, 100]),\r\n",
      "   midi.NoteOnEvent(tick=192, channel=2, data=[64, 0]),\r\n",
      "   midi.NoteOnEvent(tick=0, channel=2, data=[62, 100]),\r\n",
      "   midi.NoteOnEvent(tick=384, channel=2, data=[62, 0]),\r\n",
      "   midi.NoteOnEvent(tick=384, channel=2, data=[62, 100]),\r\n",
      "   midi.NoteOnEvent(tick=192, channel=2, data=[62, 0]),\r\n",
      "   midi.NoteOnEvent(tick=0, channel=2, data=[62, 100]),\r\n",
      "   midi.NoteOnEvent(tick=192, channel=2, data=[62, 0]),\r\n",
      "   midi.NoteOnEvent(tick=0, channel=2, data=[59, 100]),\r\n",
      "   midi.NoteOnEvent(tick=192, channel=2, data=[59, 0]),\r\n",
      "   midi.NoteOnEvent(tick=0, channel=2, data=[59, 100]),\r\n",
      "   midi.NoteOnEvent(tick=192, channel=2, data=[59, 0]),\r\n",
      "   midi.NoteOnEvent(tick=0, channel=2, data=[57, 100]),\r\n",
      "   midi.NoteOnEvent(tick=384, channel=2, data=[57, 0]),\r\n",
      "   midi.NoteOnEvent(tick=1728, channel=2, data=[71, 100]),\r\n",
      "   midi.NoteOnEvent(tick=192, channel=2, data=[71, 0]),\r\n",
      "   midi.NoteOnEvent(tick=0, channel=2, data=[76, 100]),\r\n",
      "   midi.NoteOnEvent(tick=384, channel=2, data=[76, 0]),\r\n",
      "   midi.NoteOnEvent(tick=192, channel=2, data=[72, 100]),\r\n",
      "   midi.NoteOnEvent(tick=192, channel=2, data=[72, 0]),\r\n",
      "   midi.NoteOnEvent(tick=0, channel=2, data=[74, 100]),\r\n",
      "   midi.NoteOnEvent(tick=384, channel=2, data=[74, 0]),\r\n",
      "   midi.NoteOnEvent(tick=192, channel=2, data=[71, 100]),\r\n",
      "   midi.NoteOnEvent(tick=192, channel=2, data=[71, 0]),\r\n",
      "   midi.NoteOnEvent(tick=0, channel=2, data=[72, 100]),\r\n",
      "   midi.NoteOnEvent(tick=96, channel=2, data=[72, 0]),\r\n",
      "   midi.NoteOnEvent(tick=0, channel=2, data=[74, 100]),\r\n",
      "   midi.NoteOnEvent(tick=96, channel=2, data=[74, 0]),\r\n",
      "   midi.NoteOnEvent(tick=0, channel=2, data=[76, 100]),\r\n",
      "   midi.NoteOnEvent(tick=96, channel=2, data=[76, 0]),\r\n",
      "   midi.NoteOnEvent(tick=0, channel=2, data=[72, 100]),\r\n",
      "   midi.NoteOnEvent(tick=96, channel=2, data=[72, 0]),\r\n",
      "   midi.NoteOnEvent(tick=0, channel=2, data=[71, 100]),\r\n",
      "   midi.NoteOnEvent(tick=96, channel=2, data=[71, 0]),\r\n",
      "   midi.NoteOnEvent(tick=0, channel=2, data=[72, 100]),\r\n",
      "   midi.NoteOnEvent(tick=96, channel=2, data=[72, 0]),\r\n",
      "   midi.NoteOnEvent(tick=0, channel=2, data=[74, 100]),\r\n",
      "   midi.NoteOnEvent(tick=96, channel=2, data=[74, 0]),\r\n",
      "   midi.NoteOnEvent(tick=0, channel=2, data=[71, 100]),\r\n",
      "   midi.NoteOnEvent(tick=96, channel=2, data=[71, 0]),\r\n",
      "   midi.NoteOnEvent(tick=0, channel=2, data=[69, 100]),\r\n",
      "   midi.NoteOnEvent(tick=192, channel=2, data=[69, 0]),\r\n",
      "   midi.NoteOnEvent(tick=0, channel=2, data=[76, 100]),\r\n",
      "   midi.NoteOnEvent(tick=96, channel=2, data=[76, 0]),\r\n",
      "   midi.NoteOnEvent(tick=0, channel=2, data=[74, 100]),\r\n",
      "   midi.NoteOnEvent(tick=96, channel=2, data=[74, 0]),\r\n",
      "   midi.NoteOnEvent(tick=0, channel=2, data=[72, 100]),\r\n",
      "   midi.NoteOnEvent(tick=96, channel=2, data=[72, 0]),\r\n",
      "   midi.NoteOnEvent(tick=0, channel=2, data=[71, 100]),\r\n",
      "   midi.NoteOnEvent(tick=96, channel=2, data=[71, 0]),\r\n",
      "   midi.NoteOnEvent(tick=0, channel=2, data=[69, 100]),\r\n",
      "   midi.NoteOnEvent(tick=96, channel=2, data=[69, 0]),\r\n",
      "   midi.NoteOnEvent(tick=0, channel=2, data=[67, 100]),\r\n",
      "   midi.NoteOnEvent(tick=96, channel=2, data=[67, 0]),\r\n",
      "   midi.NoteOnEvent(tick=0, channel=2, data=[69, 100]),\r\n",
      "   midi.NoteOnEvent(tick=96, channel=2, data=[69, 0]),\r\n",
      "   midi.NoteOnEvent(tick=0, channel=2, data=[79, 100]),\r\n",
      "   midi.NoteOnEvent(tick=96, channel=2, data=[79, 0]),\r\n",
      "   midi.NoteOnEvent(tick=0, channel=2, data=[77, 100]),\r\n",
      "   midi.NoteOnEvent(tick=96, channel=2, data=[77, 0]),\r\n",
      "   midi.NoteOnEvent(tick=0, channel=2, data=[76, 100]),\r\n",
      "   midi.NoteOnEvent(tick=96, channel=2, data=[76, 0]),\r\n",
      "   midi.NoteOnEvent(tick=0, channel=2, data=[74, 100]),\r\n",
      "   midi.NoteOnEvent(tick=96, channel=2, data=[74, 0]),\r\n",
      "   midi.NoteOnEvent(tick=0, channel=2, data=[72, 100]),\r\n",
      "   midi.NoteOnEvent(tick=96, channel=2, data=[72, 0]),\r\n",
      "   midi.NoteOnEvent(tick=0, channel=2, data=[71, 100]),\r\n",
      "   midi.NoteOnEvent(tick=96, channel=2, data=[71, 0]),\r\n",
      "   midi.NoteOnEvent(tick=0, channel=2, data=[69, 100]),\r\n",
      "   midi.NoteOnEvent(tick=96, channel=2, data=[69, 0]),\r\n",
      "   midi.NoteOnEvent(tick=0, channel=2, data=[71, 100]),\r\n",
      "   midi.NoteOnEvent(tick=192, channel=2, data=[71, 0]),\r\n",
      "   midi.NoteOnEvent(tick=0, channel=2, data=[79, 100]),\r\n",
      "   midi.NoteOnEvent(tick=192, channel=2, data=[79, 0]),\r\n",
      "   midi.NoteOnEvent(tick=1344, channel=2, data=[74, 100]),\r\n",
      "   midi.NoteOnEvent(tick=96, channel=2, data=[74, 0]),\r\n",
      "   midi.NoteOnEvent(tick=0, channel=2, data=[72, 100]),\r\n",
      "   midi.NoteOnEvent(tick=96, channel=2, data=[72, 0]),\r\n",
      "   midi.NoteOnEvent(tick=0, channel=2, data=[71, 100]),\r\n",
      "   midi.NoteOnEvent(tick=96, channel=2, data=[71, 0]),\r\n",
      "   midi.NoteOnEvent(tick=0, channel=2, data=[69, 100]),\r\n",
      "   midi.NoteOnEvent(tick=96, channel=2, data=[69, 0]),\r\n",
      "   midi.NoteOnEvent(tick=0, channel=2, data=[67, 100]),\r\n",
      "   midi.NoteOnEvent(tick=96, channel=2, data=[67, 0]),\r\n",
      "   midi.NoteOnEvent(tick=0, channel=2, data=[65, 100]),\r\n",
      "   midi.NoteOnEvent(tick=96, channel=2, data=[65, 0]),\r\n",
      "   midi.NoteOnEvent(tick=0, channel=2, data=[67, 100]),\r\n",
      "   midi.NoteOnEvent(tick=96, channel=2, data=[67, 0]),\r\n",
      "   midi.NoteOnEvent(tick=0, channel=2, data=[77, 100]),\r\n",
      "   midi.NoteOnEvent(tick=96, channel=2, data=[77, 0]),\r\n",
      "   midi.NoteOnEvent(tick=0, channel=2, data=[76, 100]),\r\n",
      "   midi.NoteOnEvent(tick=96, channel=2, data=[76, 0]),\r\n",
      "   midi.NoteOnEvent(tick=0, channel=2, data=[74, 100]),\r\n",
      "   midi.NoteOnEvent(tick=96, channel=2, data=[74, 0]),\r\n",
      "   midi.NoteOnEvent(tick=0, channel=2, data=[72, 100]),\r\n",
      "   midi.NoteOnEvent(tick=96, channel=2, data=[72, 0]),\r\n",
      "   midi.NoteOnEvent(tick=0, channel=2, data=[71, 100]),\r\n",
      "   midi.NoteOnEvent(tick=96, channel=2, data=[71, 0]),\r\n",
      "   midi.NoteOnEvent(tick=0, channel=2, data=[69, 100]),\r\n",
      "   midi.NoteOnEvent(tick=96, channel=2, data=[69, 0]),\r\n",
      "   midi.NoteOnEvent(tick=0, channel=2, data=[68, 100]),\r\n",
      "   midi.NoteOnEvent(tick=96, channel=2, data=[68, 0]),\r\n",
      "   midi.NoteOnEvent(tick=0, channel=2, data=[69, 100]),\r\n",
      "   midi.NoteOnEvent(tick=192, channel=2, data=[69, 0]),\r\n",
      "   midi.NoteOnEvent(tick=0, channel=2, data=[77, 100]),\r\n",
      "   midi.NoteOnEvent(tick=192, channel=2, data=[77, 0]),\r\n",
      "   midi.NoteOnEvent(tick=1344, channel=2, data=[72, 100]),\r\n",
      "   midi.NoteOnEvent(tick=96, channel=2, data=[72, 0]),\r\n",
      "   midi.NoteOnEvent(tick=0, channel=2, data=[71, 100]),\r\n",
      "   midi.NoteOnEvent(tick=96, channel=2, data=[71, 0]),\r\n",
      "   midi.NoteOnEvent(tick=0, channel=2, data=[69, 100]),\r\n",
      "   midi.NoteOnEvent(tick=96, channel=2, data=[69, 0]),\r\n",
      "   midi.NoteOnEvent(tick=0, channel=2, data=[67, 100]),\r\n",
      "   midi.NoteOnEvent(tick=96, channel=2, data=[67, 0]),\r\n",
      "   midi.NoteOnEvent(tick=0, channel=2, data=[65, 100]),\r\n",
      "   midi.NoteOnEvent(tick=96, channel=2, data=[65, 0]),\r\n",
      "   midi.NoteOnEvent(tick=0, channel=2, data=[64, 100]),\r\n",
      "   midi.NoteOnEvent(tick=96, channel=2, data=[64, 0]),\r\n",
      "   midi.NoteOnEvent(tick=0, channel=2, data=[65, 100]),\r\n",
      "   midi.NoteOnEvent(tick=384, channel=2, data=[65, 0]),\r\n",
      "   midi.NoteOnEvent(tick=96, channel=2, data=[64, 100]),\r\n",
      "   midi.NoteOnEvent(tick=96, channel=2, data=[64, 0]),\r\n",
      "   midi.NoteOnEvent(tick=0, channel=2, data=[62, 100]),\r\n",
      "   midi.NoteOnEvent(tick=96, channel=2, data=[62, 0]),\r\n",
      "   midi.NoteOnEvent(tick=0, channel=2, data=[60, 100]),\r\n",
      "   midi.NoteOnEvent(tick=96, channel=2, data=[60, 0]),\r\n",
      "   midi.NoteOnEvent(tick=0, channel=2, data=[59, 100]),\r\n",
      "   midi.NoteOnEvent(tick=192, channel=2, data=[59, 0]),\r\n",
      "   midi.NoteOnEvent(tick=0, channel=2, data=[71, 100]),\r\n",
      "   midi.NoteOnEvent(tick=192, channel=2, data=[71, 0]),\r\n",
      "   midi.NoteOnEvent(tick=0, channel=2, data=[69, 100]),\r\n",
      "   midi.NoteOnEvent(tick=192, channel=2, data=[69, 0]),\r\n",
      "   midi.NoteOnEvent(tick=0, channel=2, data=[57, 100]),\r\n",
      "   midi.NoteOnEvent(tick=384, channel=2, data=[57, 0]),\r\n",
      "   midi.NoteOnEvent(tick=0, channel=2, data=[64, 100]),\r\n",
      "   midi.NoteOnEvent(tick=192, channel=2, data=[64, 0]),\r\n",
      "   midi.NoteOnEvent(tick=0, channel=2, data=[62, 100]),\r\n",
      "   midi.NoteOnEvent(tick=192, channel=2, data=[62, 0]),\r\n",
      "   midi.NoteOnEvent(tick=0, channel=2, data=[74, 100]),\r\n",
      "   midi.NoteOnEvent(tick=384, channel=2, data=[74, 0]),\r\n",
      "   midi.NoteOnEvent(tick=0, channel=2, data=[71, 100]),\r\n",
      "   midi.NoteOnEvent(tick=192, channel=2, data=[71, 0]),\r\n",
      "   midi.NoteOnEvent(tick=0, channel=2, data=[72, 100]),\r\n",
      "   midi.NoteOnEvent(tick=192, channel=2, data=[72, 0]),\r\n",
      "   midi.NoteOnEvent(tick=0, channel=2, data=[76, 100]),\r\n",
      "   midi.NoteOnEvent(tick=192, channel=2, data=[76, 0]),\r\n",
      "   midi.NoteOnEvent(tick=0, channel=2, data=[76, 100]),\r\n",
      "   midi.NoteOnEvent(tick=384, channel=2, data=[76, 0]),\r\n",
      "   midi.NoteOnEvent(tick=0, channel=2, data=[76, 100]),\r\n",
      "   midi.NoteOnEvent(tick=768, channel=2, data=[76, 0]),\r\n",
      "   midi.NoteOnEvent(tick=384, channel=2, data=[71, 100]),\r\n",
      "   midi.NoteOnEvent(tick=384, channel=2, data=[71, 0]),\r\n",
      "   midi.NoteOnEvent(tick=384, channel=2, data=[74, 100]),\r\n",
      "   midi.NoteOnEvent(tick=384, channel=2, data=[74, 0]),\r\n",
      "   midi.NoteOnEvent(tick=384, channel=2, data=[71, 100]),\r\n",
      "   midi.NoteOnEvent(tick=384, channel=2, data=[71, 0]),\r\n",
      "   midi.NoteOnEvent(tick=384, channel=2, data=[71, 100]),\r\n",
      "   midi.NoteOnEvent(tick=768, channel=2, data=[71, 0]),\r\n",
      "   midi.NoteOnEvent(tick=96, channel=2, data=[72, 100]),\r\n",
      "   midi.NoteOnEvent(tick=96, channel=2, data=[72, 0]),\r\n",
      "   midi.NoteOnEvent(tick=0, channel=2, data=[74, 100]),\r\n",
      "   midi.NoteOnEvent(tick=96, channel=2, data=[74, 0]),\r\n",
      "   midi.NoteOnEvent(tick=0, channel=2, data=[76, 100]),\r\n",
      "   midi.NoteOnEvent(tick=96, channel=2, data=[76, 0]),\r\n",
      "   midi.NoteOnEvent(tick=0, channel=2, data=[78, 100]),\r\n",
      "   midi.NoteOnEvent(tick=96, channel=2, data=[78, 0]),\r\n",
      "   midi.NoteOnEvent(tick=0, channel=2, data=[80, 100]),\r\n",
      "   midi.NoteOnEvent(tick=96, channel=2, data=[80, 0]),\r\n",
      "   midi.NoteOnEvent(tick=0, channel=2, data=[81, 100]),\r\n",
      "   midi.NoteOnEvent(tick=96, channel=2, data=[81, 0]),\r\n",
      "   midi.NoteOnEvent(tick=0, channel=2, data=[83, 100]),\r\n",
      "   midi.NoteOnEvent(tick=96, channel=2, data=[83, 0]),\r\n",
      "   midi.NoteOnEvent(tick=0, channel=2, data=[76, 100]),\r\n",
      "   midi.NoteOnEvent(tick=192, channel=2, data=[76, 0]),\r\n",
      "   midi.NoteOnEvent(tick=0, channel=2, data=[72, 100]),\r\n",
      "   midi.NoteOnEvent(tick=192, channel=2, data=[72, 0]),\r\n",
      "   midi.NoteOnEvent(tick=0, channel=2, data=[74, 100]),\r\n",
      "   midi.NoteOnEvent(tick=192, channel=2, data=[74, 0]),\r\n",
      "   midi.NoteOnEvent(tick=0, channel=2, data=[71, 100]),\r\n",
      "   midi.NoteOnEvent(tick=192, channel=2, data=[71, 0]),\r\n",
      "   midi.NoteOnEvent(tick=0, channel=2, data=[69, 100]),\r\n",
      "   midi.NoteOnEvent(tick=192, channel=2, data=[69, 0]),\r\n",
      "   midi.NoteOnEvent(tick=0, channel=2, data=[81, 100]),\r\n",
      "   midi.NoteOnEvent(tick=96, channel=2, data=[81, 0]),\r\n",
      "   midi.NoteOnEvent(tick=0, channel=2, data=[79, 100]),\r\n",
      "   midi.NoteOnEvent(tick=96, channel=2, data=[79, 0]),\r\n",
      "   midi.NoteOnEvent(tick=0, channel=2, data=[77, 100]),\r\n",
      "   midi.NoteOnEvent(tick=96, channel=2, data=[77, 0]),\r\n",
      "   midi.NoteOnEvent(tick=0, channel=2, data=[76, 100]),\r\n",
      "   midi.NoteOnEvent(tick=96, channel=2, data=[76, 0]),\r\n",
      "   midi.NoteOnEvent(tick=0, channel=2, data=[74, 100]),\r\n",
      "   midi.NoteOnEvent(tick=96, channel=2, data=[74, 0]),\r\n",
      "   midi.NoteOnEvent(tick=0, channel=2, data=[72, 100]),\r\n",
      "   midi.NoteOnEvent(tick=96, channel=2, data=[72, 0]),\r\n",
      "   midi.NoteOnEvent(tick=0, channel=2, data=[71, 100]),\r\n",
      "   midi.NoteOnEvent(tick=96, channel=2, data=[71, 0]),\r\n",
      "   midi.NoteOnEvent(tick=0, channel=2, data=[69, 100]),\r\n",
      "   midi.NoteOnEvent(tick=96, channel=2, data=[69, 0]),\r\n",
      "   midi.NoteOnEvent(tick=0, channel=2, data=[68, 100]),\r\n",
      "   midi.NoteOnEvent(tick=96, channel=2, data=[68, 0]),\r\n",
      "   midi.NoteOnEvent(tick=0, channel=2, data=[69, 100]),\r\n",
      "   midi.NoteOnEvent(tick=96, channel=2, data=[69, 0]),\r\n",
      "   midi.NoteOnEvent(tick=0, channel=2, data=[71, 100]),\r\n",
      "   midi.NoteOnEvent(tick=96, channel=2, data=[71, 0]),\r\n",
      "   midi.NoteOnEvent(tick=0, channel=2, data=[72, 100]),\r\n",
      "   midi.NoteOnEvent(tick=96, channel=2, data=[72, 0]),\r\n",
      "   midi.NoteOnEvent(tick=0, channel=2, data=[74, 100]),\r\n",
      "   midi.NoteOnEvent(tick=96, channel=2, data=[74, 0]),\r\n",
      "   midi.NoteOnEvent(tick=0, channel=2, data=[76, 100]),\r\n",
      "   midi.NoteOnEvent(tick=96, channel=2, data=[76, 0]),\r\n",
      "   midi.NoteOnEvent(tick=0, channel=2, data=[77, 100]),\r\n",
      "   midi.NoteOnEvent(tick=96, channel=2, data=[77, 0]),\r\n",
      "   midi.NoteOnEvent(tick=0, channel=2, data=[76, 100]),\r\n",
      "   midi.NoteOnEvent(tick=96, channel=2, data=[76, 0]),\r\n",
      "   midi.NoteOnEvent(tick=0, channel=2, data=[74, 100]),\r\n",
      "   midi.NoteOnEvent(tick=96, channel=2, data=[74, 0]),\r\n",
      "   midi.NoteOnEvent(tick=0, channel=2, data=[72, 100]),\r\n",
      "   midi.NoteOnEvent(tick=96, channel=2, data=[72, 0]),\r\n",
      "   midi.NoteOnEvent(tick=0, channel=2, data=[71, 100]),\r\n",
      "   midi.NoteOnEvent(tick=96, channel=2, data=[71, 0]),\r\n",
      "   midi.NoteOnEvent(tick=0, channel=2, data=[69, 100]),\r\n",
      "   midi.NoteOnEvent(tick=96, channel=2, data=[69, 0]),\r\n",
      "   midi.NoteOnEvent(tick=0, channel=2, data=[68, 100]),\r\n",
      "   midi.NoteOnEvent(tick=96, channel=2, data=[68, 0]),\r\n",
      "   midi.NoteOnEvent(tick=0, channel=2, data=[69, 100]),\r\n",
      "   midi.NoteOnEvent(tick=96, channel=2, data=[69, 0]),\r\n",
      "   midi.NoteOnEvent(tick=0, channel=2, data=[74, 100]),\r\n",
      "   midi.NoteOnEvent(tick=192, channel=2, data=[74, 0]),\r\n",
      "   midi.NoteOnEvent(tick=0, channel=2, data=[69, 100]),\r\n",
      "   midi.NoteOnEvent(tick=192, channel=2, data=[69, 0]),\r\n",
      "   midi.NoteOnEvent(tick=0, channel=2, data=[69, 100]),\r\n",
      "   midi.NoteOnEvent(tick=192, channel=2, data=[69, 0]),\r\n",
      "   midi.NoteOnEvent(tick=0, channel=2, data=[68, 100]),\r\n",
      "   midi.NoteOnEvent(tick=192, channel=2, data=[68, 0]),\r\n",
      "   midi.NoteOnEvent(tick=0, channel=2, data=[69, 100]),\r\n",
      "   midi.NoteOnEvent(tick=576, channel=2, data=[69, 0]),\r\n",
      "   midi.EndOfTrackEvent(tick=0, data=[])]),\r\n",
      " midi.Track(\\\r\n",
      "  [midi.PortEvent(tick=0, data=[0]),\r\n",
      "   midi.TrackNameEvent(tick=0, text='Viola', data=[86, 105, 111, 108, 97]),\r\n",
      "   midi.ProgramChangeEvent(tick=0, channel=3, data=[41]),\r\n",
      "   midi.ControlChangeEvent(tick=0, channel=3, data=[7, 105]),\r\n",
      "   midi.ControlChangeEvent(tick=0, channel=3, data=[10, 44]),\r\n",
      "   midi.NoteOnEvent(tick=576, channel=3, data=[69, 100]),\r\n",
      "   midi.NoteOnEvent(tick=192, channel=3, data=[69, 0]),\r\n",
      "   midi.NoteOnEvent(tick=0, channel=3, data=[72, 100]),\r\n",
      "   midi.NoteOnEvent(tick=384, channel=3, data=[72, 0]),\r\n",
      "   midi.NoteOnEvent(tick=192, channel=3, data=[69, 100]),\r\n",
      "   midi.NoteOnEvent(tick=192, channel=3, data=[69, 0]),\r\n",
      "   midi.NoteOnEvent(tick=0, channel=3, data=[62, 100]),\r\n",
      "   midi.NoteOnEvent(tick=384, channel=3, data=[62, 0]),\r\n",
      "   midi.NoteOnEvent(tick=192, channel=3, data=[62, 100]),\r\n",
      "   midi.NoteOnEvent(tick=192, channel=3, data=[62, 0]),\r\n",
      "   midi.NoteOnEvent(tick=0, channel=3, data=[57, 100]),\r\n",
      "   midi.NoteOnEvent(tick=192, channel=3, data=[57, 0]),\r\n",
      "   midi.NoteOnEvent(tick=0, channel=3, data=[64, 100]),\r\n",
      "   midi.NoteOnEvent(tick=192, channel=3, data=[64, 0]),\r\n",
      "   midi.NoteOnEvent(tick=0, channel=3, data=[56, 100]),\r\n",
      "   midi.NoteOnEvent(tick=192, channel=3, data=[56, 0]),\r\n",
      "   midi.NoteOnEvent(tick=0, channel=3, data=[64, 100]),\r\n",
      "   midi.NoteOnEvent(tick=192, channel=3, data=[64, 0]),\r\n",
      "   midi.NoteOnEvent(tick=0, channel=3, data=[64, 100]),\r\n",
      "   midi.NoteOnEvent(tick=192, channel=3, data=[64, 0]),\r\n",
      "   midi.NoteOnEvent(tick=0, channel=3, data=[60, 100]),\r\n",
      "   midi.NoteOnEvent(tick=192, channel=3, data=[60, 0]),\r\n",
      "   midi.NoteOnEvent(tick=192, channel=3, data=[60, 100]),\r\n",
      "   midi.NoteOnEvent(tick=192, channel=3, data=[60, 0]),\r\n",
      "   midi.NoteOnEvent(tick=0, channel=3, data=[59, 100]),\r\n",
      "   midi.NoteOnEvent(tick=192, channel=3, data=[59, 0]),\r\n",
      "   midi.NoteOnEvent(tick=192, channel=3, data=[57, 100]),\r\n",
      "   midi.NoteOnEvent(tick=192, channel=3, data=[57, 0]),\r\n",
      "   midi.NoteOnEvent(tick=192, channel=3, data=[62, 100]),\r\n",
      "   midi.NoteOnEvent(tick=192, channel=3, data=[62, 0]),\r\n",
      "   midi.NoteOnEvent(tick=192, channel=3, data=[60, 100]),\r\n",
      "   midi.NoteOnEvent(tick=192, channel=3, data=[60, 0]),\r\n",
      "   midi.NoteOnEvent(tick=192, channel=3, data=[57, 100]),\r\n",
      "   midi.NoteOnEvent(tick=192, channel=3, data=[57, 0]),\r\n",
      "   midi.NoteOnEvent(tick=0, channel=3, data=[59, 100]),\r\n",
      "   midi.NoteOnEvent(tick=288, channel=3, data=[59, 0]),\r\n",
      "   midi.NoteOnEvent(tick=0, channel=3, data=[57, 100]),\r\n",
      "   midi.NoteOnEvent(tick=96, channel=3, data=[57, 0]),\r\n",
      "   midi.NoteOnEvent(tick=0, channel=3, data=[56, 100]),\r\n",
      "   midi.NoteOnEvent(tick=96, channel=3, data=[56, 0]),\r\n",
      "   midi.NoteOnEvent(tick=0, channel=3, data=[57, 100]),\r\n",
      "   midi.NoteOnEvent(tick=96, channel=3, data=[57, 0]),\r\n",
      "   midi.NoteOnEvent(tick=0, channel=3, data=[59, 100]),\r\n",
      "   midi.NoteOnEvent(tick=192, channel=3, data=[59, 0]),\r\n",
      "   midi.NoteOnEvent(tick=0, channel=3, data=[71, 100]),\r\n",
      "   midi.NoteOnEvent(tick=192, channel=3, data=[71, 0]),\r\n",
      "   midi.NoteOnEvent(tick=0, channel=3, data=[68, 100]),\r\n",
      "   midi.NoteOnEvent(tick=192, channel=3, data=[68, 0]),\r\n",
      "   midi.NoteOnEvent(tick=0, channel=3, data=[64, 100]),\r\n",
      "   midi.NoteOnEvent(tick=384, channel=3, data=[64, 0]),\r\n",
      "   midi.NoteOnEvent(tick=0, channel=3, data=[69, 100]),\r\n",
      "   midi.NoteOnEvent(tick=96, channel=3, data=[69, 0]),\r\n",
      "   midi.NoteOnEvent(tick=0, channel=3, data=[71, 100]),\r\n",
      "   midi.NoteOnEvent(tick=96, channel=3, data=[71, 0]),\r\n",
      "   midi.NoteOnEvent(tick=0, channel=3, data=[72, 100]),\r\n",
      "   midi.NoteOnEvent(tick=192, channel=3, data=[72, 0]),\r\n",
      "   midi.NoteOnEvent(tick=0, channel=3, data=[60, 100]),\r\n",
      "   midi.NoteOnEvent(tick=192, channel=3, data=[60, 0]),\r\n",
      "   midi.NoteOnEvent(tick=0, channel=3, data=[57, 100]),\r\n",
      "   midi.NoteOnEvent(tick=192, channel=3, data=[57, 0]),\r\n",
      "   midi.NoteOnEvent(tick=0, channel=3, data=[69, 100]),\r\n",
      "   midi.NoteOnEvent(tick=192, channel=3, data=[69, 0]),\r\n",
      "   midi.NoteOnEvent(tick=0, channel=3, data=[66, 100]),\r\n",
      "   midi.NoteOnEvent(tick=192, channel=3, data=[66, 0]),\r\n",
      "   midi.NoteOnEvent(tick=0, channel=3, data=[62, 100]),\r\n",
      "   midi.NoteOnEvent(tick=384, channel=3, data=[62, 0]),\r\n",
      "   midi.NoteOnEvent(tick=0, channel=3, data=[67, 100]),\r\n",
      "   midi.NoteOnEvent(tick=96, channel=3, data=[67, 0]),\r\n",
      "   midi.NoteOnEvent(tick=0, channel=3, data=[69, 100]),\r\n",
      "   midi.NoteOnEvent(tick=96, channel=3, data=[69, 0]),\r\n",
      "   midi.NoteOnEvent(tick=0, channel=3, data=[71, 100]),\r\n",
      "   midi.NoteOnEvent(tick=192, channel=3, data=[71, 0]),\r\n",
      "   midi.NoteOnEvent(tick=0, channel=3, data=[59, 100]),\r\n",
      "   midi.NoteOnEvent(tick=192, channel=3, data=[59, 0]),\r\n",
      "   midi.NoteOnEvent(tick=0, channel=3, data=[55, 100]),\r\n",
      "   midi.NoteOnEvent(tick=192, channel=3, data=[55, 0]),\r\n",
      "   midi.NoteOnEvent(tick=0, channel=3, data=[64, 100]),\r\n",
      "   midi.NoteOnEvent(tick=192, channel=3, data=[64, 0]),\r\n",
      "   midi.NoteOnEvent(tick=0, channel=3, data=[67, 100]),\r\n",
      "   midi.NoteOnEvent(tick=192, channel=3, data=[67, 0]),\r\n",
      "   midi.NoteOnEvent(tick=0, channel=3, data=[72, 100]),\r\n",
      "   midi.NoteOnEvent(tick=192, channel=3, data=[72, 0]),\r\n",
      "   midi.NoteOnEvent(tick=0, channel=3, data=[66, 100]),\r\n",
      "   midi.NoteOnEvent(tick=192, channel=3, data=[66, 0]),\r\n",
      "   midi.NoteOnEvent(tick=0, channel=3, data=[69, 100]),\r\n",
      "   midi.NoteOnEvent(tick=192, channel=3, data=[69, 0]),\r\n",
      "   midi.NoteOnEvent(tick=0, channel=3, data=[63, 100]),\r\n",
      "   midi.NoteOnEvent(tick=192, channel=3, data=[63, 0]),\r\n",
      "   midi.NoteOnEvent(tick=0, channel=3, data=[66, 100]),\r\n",
      "   midi.NoteOnEvent(tick=384, channel=3, data=[66, 0]),\r\n",
      "   midi.NoteOnEvent(tick=0, channel=3, data=[59, 100]),\r\n",
      "   midi.NoteOnEvent(tick=192, channel=3, data=[59, 0]),\r\n",
      "   midi.NoteOnEvent(tick=0, channel=3, data=[71, 100]),\r\n",
      "   midi.NoteOnEvent(tick=192, channel=3, data=[71, 0]),\r\n",
      "   midi.NoteOnEvent(tick=0, channel=3, data=[67, 100]),\r\n",
      "   midi.NoteOnEvent(tick=192, channel=3, data=[67, 0]),\r\n",
      "   midi.NoteOnEvent(tick=0, channel=3, data=[64, 100]),\r\n",
      "   midi.NoteOnEvent(tick=192, channel=3, data=[64, 0]),\r\n",
      "   midi.NoteOnEvent(tick=0, channel=3, data=[67, 100]),\r\n",
      "   midi.NoteOnEvent(tick=192, channel=3, data=[67, 0]),\r\n",
      "   midi.NoteOnEvent(tick=0, channel=3, data=[69, 100]),\r\n",
      "   midi.NoteOnEvent(tick=96, channel=3, data=[69, 0]),\r\n",
      "   midi.NoteOnEvent(tick=0, channel=3, data=[71, 100]),\r\n",
      "   midi.NoteOnEvent(tick=96, channel=3, data=[71, 0]),\r\n",
      "   midi.NoteOnEvent(tick=0, channel=3, data=[69, 100]),\r\n",
      "   midi.NoteOnEvent(tick=96, channel=3, data=[69, 0]),\r\n",
      "   midi.NoteOnEvent(tick=0, channel=3, data=[67, 100]),\r\n",
      "   midi.NoteOnEvent(tick=96, channel=3, data=[67, 0]),\r\n",
      "   midi.NoteOnEvent(tick=0, channel=3, data=[66, 100]),\r\n",
      "   midi.NoteOnEvent(tick=192, channel=3, data=[66, 0]),\r\n",
      "   midi.NoteOnEvent(tick=0, channel=3, data=[69, 100]),\r\n",
      "   midi.NoteOnEvent(tick=192, channel=3, data=[69, 0]),\r\n",
      "   midi.NoteOnEvent(tick=0, channel=3, data=[67, 100]),\r\n",
      "   midi.NoteOnEvent(tick=192, channel=3, data=[67, 0]),\r\n",
      "   midi.NoteOnEvent(tick=0, channel=3, data=[71, 100]),\r\n",
      "   midi.NoteOnEvent(tick=192, channel=3, data=[71, 0]),\r\n",
      "   midi.NoteOnEvent(tick=0, channel=3, data=[71, 100]),\r\n",
      "   midi.NoteOnEvent(tick=384, channel=3, data=[71, 0]),\r\n",
      "   midi.NoteOnEvent(tick=0, channel=3, data=[71, 100]),\r\n",
      "   midi.NoteOnEvent(tick=384, channel=3, data=[71, 0]),\r\n",
      "   midi.NoteOnEvent(tick=0, channel=3, data=[72, 100]),\r\n",
      "   midi.NoteOnEvent(tick=384, channel=3, data=[72, 0]),\r\n",
      "   midi.NoteOnEvent(tick=192, channel=3, data=[71, 100]),\r\n",
      "   midi.NoteOnEvent(tick=192, channel=3, data=[71, 0]),\r\n",
      "   midi.NoteOnEvent(tick=0, channel=3, data=[59, 100]),\r\n",
      "   midi.NoteOnEvent(tick=192, channel=3, data=[59, 0]),\r\n",
      "   midi.NoteOnEvent(tick=0, channel=3, data=[60, 100]),\r\n",
      "   midi.NoteOnEvent(tick=192, channel=3, data=[60, 0]),\r\n",
      "   midi.NoteOnEvent(tick=0, channel=3, data=[60, 100]),\r\n",
      "   midi.NoteOnEvent(tick=192, channel=3, data=[60, 0]),\r\n",
      "   midi.NoteOnEvent(tick=0, channel=3, data=[59, 100]),\r\n",
      "   midi.NoteOnEvent(tick=192, channel=3, data=[59, 0]),\r\n",
      "   midi.NoteOnEvent(tick=0, channel=3, data=[59, 100]),\r\n",
      "   midi.NoteOnEvent(tick=192, channel=3, data=[59, 0]),\r\n",
      "   midi.NoteOnEvent(tick=0, channel=3, data=[57, 100]),\r\n",
      "   midi.NoteOnEvent(tick=192, channel=3, data=[57, 0]),\r\n",
      "   midi.NoteOnEvent(tick=192, channel=3, data=[64, 100]),\r\n",
      "   midi.NoteOnEvent(tick=192, channel=3, data=[64, 0]),\r\n",
      "   midi.NoteOnEvent(tick=0, channel=3, data=[66, 100]),\r\n",
      "   midi.NoteOnEvent(tick=192, channel=3, data=[66, 0]),\r\n",
      "   midi.NoteOnEvent(tick=0, channel=3, data=[69, 100]),\r\n",
      "   midi.NoteOnEvent(tick=192, channel=3, data=[69, 0]),\r\n",
      "   midi.NoteOnEvent(tick=192, channel=3, data=[66, 100]),\r\n",
      "   midi.NoteOnEvent(tick=192, channel=3, data=[66, 0]),\r\n",
      "   midi.NoteOnEvent(tick=0, channel=3, data=[63, 100]),\r\n",
      "   midi.NoteOnEvent(tick=192, channel=3, data=[63, 0]),\r\n",
      "   midi.NoteOnEvent(tick=0, channel=3, data=[66, 100]),\r\n",
      "   midi.NoteOnEvent(tick=192, channel=3, data=[66, 0]),\r\n",
      "   midi.NoteOnEvent(tick=192, channel=3, data=[57, 100]),\r\n",
      "   midi.NoteOnEvent(tick=384, channel=3, data=[57, 0]),\r\n",
      "   midi.NoteOnEvent(tick=0, channel=3, data=[64, 100]),\r\n",
      "   midi.NoteOnEvent(tick=192, channel=3, data=[64, 0]),\r\n",
      "   midi.NoteOnEvent(tick=0, channel=3, data=[64, 100]),\r\n",
      "   midi.NoteOnEvent(tick=192, channel=3, data=[64, 0]),\r\n",
      "   midi.NoteOnEvent(tick=0, channel=3, data=[59, 100]),\r\n",
      "   midi.NoteOnEvent(tick=192, channel=3, data=[59, 0]),\r\n",
      "   midi.NoteOnEvent(tick=0, channel=3, data=[56, 100]),\r\n",
      "   midi.NoteOnEvent(tick=384, channel=3, data=[56, 0]),\r\n",
      "   midi.NoteOnEvent(tick=576, channel=3, data=[69, 100]),\r\n",
      "   midi.NoteOnEvent(tick=192, channel=3, data=[69, 0]),\r\n",
      "   midi.NoteOnEvent(tick=0, channel=3, data=[72, 100]),\r\n",
      "   midi.NoteOnEvent(tick=192, channel=3, data=[72, 0]),\r\n",
      "   midi.NoteOnEvent(tick=384, channel=3, data=[71, 100]),\r\n",
      "   midi.NoteOnEvent(tick=96, channel=3, data=[71, 0]),\r\n",
      "   midi.NoteOnEvent(tick=0, channel=3, data=[72, 100]),\r\n",
      "   midi.NoteOnEvent(tick=96, channel=3, data=[72, 0]),\r\n",
      "   midi.NoteOnEvent(tick=0, channel=3, data=[74, 100]),\r\n",
      "   midi.NoteOnEvent(tick=192, channel=3, data=[74, 0]),\r\n",
      "   midi.NoteOnEvent(tick=384, channel=3, data=[71, 100]),\r\n",
      "   midi.NoteOnEvent(tick=192, channel=3, data=[71, 0]),\r\n",
      "   midi.NoteOnEvent(tick=0, channel=3, data=[68, 100]),\r\n",
      "   midi.NoteOnEvent(tick=192, channel=3, data=[68, 0]),\r\n",
      "   midi.NoteOnEvent(tick=384, channel=3, data=[72, 100]),\r\n",
      "   midi.NoteOnEvent(tick=96, channel=3, data=[72, 0]),\r\n",
      "   midi.NoteOnEvent(tick=0, channel=3, data=[74, 100]),\r\n",
      "   midi.NoteOnEvent(tick=96, channel=3, data=[74, 0]),\r\n",
      "   midi.NoteOnEvent(tick=0, channel=3, data=[76, 100]),\r\n",
      "   midi.NoteOnEvent(tick=192, channel=3, data=[76, 0]),\r\n",
      "   midi.NoteOnEvent(tick=3072, channel=3, data=[68, 100]),\r\n",
      "   midi.NoteOnEvent(tick=192, channel=3, data=[68, 0]),\r\n",
      "   midi.NoteOnEvent(tick=0, channel=3, data=[64, 100]),\r\n",
      "   midi.NoteOnEvent(tick=384, channel=3, data=[64, 0]),\r\n",
      "   midi.NoteOnEvent(tick=192, channel=3, data=[69, 100]),\r\n",
      "   midi.NoteOnEvent(tick=192, channel=3, data=[69, 0]),\r\n",
      "   midi.NoteOnEvent(tick=0, channel=3, data=[62, 100]),\r\n",
      "   midi.NoteOnEvent(tick=384, channel=3, data=[62, 0]),\r\n",
      "   midi.NoteOnEvent(tick=192, channel=3, data=[65, 100]),\r\n",
      "   midi.NoteOnEvent(tick=192, channel=3, data=[65, 0]),\r\n",
      "   midi.NoteOnEvent(tick=0, channel=3, data=[62, 100]),\r\n",
      "   midi.NoteOnEvent(tick=384, channel=3, data=[62, 0]),\r\n",
      "   midi.NoteOnEvent(tick=192, channel=3, data=[67, 100]),\r\n",
      "   midi.NoteOnEvent(tick=192, channel=3, data=[67, 0]),\r\n",
      "   midi.NoteOnEvent(tick=0, channel=3, data=[60, 100]),\r\n",
      "   midi.NoteOnEvent(tick=384, channel=3, data=[60, 0]),\r\n",
      "   midi.NoteOnEvent(tick=192, channel=3, data=[64, 100]),\r\n",
      "   midi.NoteOnEvent(tick=192, channel=3, data=[64, 0]),\r\n",
      "   midi.NoteOnEvent(tick=0, channel=3, data=[60, 100]),\r\n",
      "   midi.NoteOnEvent(tick=384, channel=3, data=[60, 0]),\r\n",
      "   midi.NoteOnEvent(tick=192, channel=3, data=[65, 100]),\r\n",
      "   midi.NoteOnEvent(tick=192, channel=3, data=[65, 0]),\r\n",
      "   midi.NoteOnEvent(tick=0, channel=3, data=[59, 100]),\r\n",
      "   midi.NoteOnEvent(tick=384, channel=3, data=[59, 0]),\r\n",
      "   midi.NoteOnEvent(tick=192, channel=3, data=[62, 100]),\r\n",
      "   midi.NoteOnEvent(tick=192, channel=3, data=[62, 0]),\r\n",
      "   midi.NoteOnEvent(tick=0, channel=3, data=[59, 100]),\r\n",
      "   midi.NoteOnEvent(tick=384, channel=3, data=[59, 0]),\r\n",
      "   midi.NoteOnEvent(tick=192, channel=3, data=[68, 100]),\r\n",
      "   midi.NoteOnEvent(tick=192, channel=3, data=[68, 0]),\r\n",
      "   midi.NoteOnEvent(tick=0, channel=3, data=[64, 100]),\r\n",
      "   midi.NoteOnEvent(tick=384, channel=3, data=[64, 0]),\r\n",
      "   midi.NoteOnEvent(tick=192, channel=3, data=[72, 100]),\r\n",
      "   midi.NoteOnEvent(tick=192, channel=3, data=[72, 0]),\r\n",
      "   midi.NoteOnEvent(tick=0, channel=3, data=[74, 100]),\r\n",
      "   midi.NoteOnEvent(tick=384, channel=3, data=[74, 0]),\r\n",
      "   midi.NoteOnEvent(tick=192, channel=3, data=[71, 100]),\r\n",
      "   midi.NoteOnEvent(tick=192, channel=3, data=[71, 0]),\r\n",
      "   midi.NoteOnEvent(tick=0, channel=3, data=[64, 100]),\r\n",
      "   midi.NoteOnEvent(tick=192, channel=3, data=[64, 0]),\r\n",
      "   midi.NoteOnEvent(tick=0, channel=3, data=[64, 100]),\r\n",
      "   midi.NoteOnEvent(tick=192, channel=3, data=[64, 0]),\r\n",
      "   midi.NoteOnEvent(tick=0, channel=3, data=[64, 100]),\r\n",
      "   midi.NoteOnEvent(tick=192, channel=3, data=[64, 0]),\r\n",
      "   midi.NoteOnEvent(tick=0, channel=3, data=[64, 100]),\r\n",
      "   midi.NoteOnEvent(tick=192, channel=3, data=[64, 0]),\r\n",
      "   midi.NoteOnEvent(tick=0, channel=3, data=[64, 100]),\r\n",
      "   midi.NoteOnEvent(tick=192, channel=3, data=[64, 0]),\r\n",
      "   midi.NoteOnEvent(tick=0, channel=3, data=[60, 100]),\r\n",
      "   midi.NoteOnEvent(tick=192, channel=3, data=[60, 0]),\r\n",
      "   midi.NoteOnEvent(tick=192, channel=3, data=[64, 100]),\r\n",
      "   midi.NoteOnEvent(tick=192, channel=3, data=[64, 0]),\r\n",
      "   midi.NoteOnEvent(tick=0, channel=3, data=[69, 100]),\r\n",
      "   midi.NoteOnEvent(tick=192, channel=3, data=[69, 0]),\r\n",
      "   midi.NoteOnEvent(tick=0, channel=3, data=[69, 100]),\r\n",
      "   midi.NoteOnEvent(tick=192, channel=3, data=[69, 0]),\r\n",
      "   midi.NoteOnEvent(tick=0, channel=3, data=[69, 100]),\r\n",
      "   midi.NoteOnEvent(tick=192, channel=3, data=[69, 0]),\r\n",
      "   midi.NoteOnEvent(tick=0, channel=3, data=[69, 100]),\r\n",
      "   midi.NoteOnEvent(tick=192, channel=3, data=[69, 0]),\r\n",
      "   midi.NoteOnEvent(tick=0, channel=3, data=[67, 100]),\r\n",
      "   midi.NoteOnEvent(tick=192, channel=3, data=[67, 0]),\r\n",
      "   midi.NoteOnEvent(tick=0, channel=3, data=[67, 100]),\r\n",
      "   midi.NoteOnEvent(tick=192, channel=3, data=[67, 0]),\r\n",
      "   midi.NoteOnEvent(tick=0, channel=3, data=[67, 100]),\r\n",
      "   midi.NoteOnEvent(tick=192, channel=3, data=[67, 0]),\r\n",
      "   midi.NoteOnEvent(tick=0, channel=3, data=[67, 100]),\r\n",
      "   midi.NoteOnEvent(tick=192, channel=3, data=[67, 0]),\r\n",
      "   midi.NoteOnEvent(tick=0, channel=3, data=[67, 100]),\r\n",
      "   midi.NoteOnEvent(tick=192, channel=3, data=[67, 0]),\r\n",
      "   midi.NoteOnEvent(tick=0, channel=3, data=[67, 100]),\r\n",
      "   midi.NoteOnEvent(tick=192, channel=3, data=[67, 0]),\r\n",
      "   midi.NoteOnEvent(tick=0, channel=3, data=[67, 100]),\r\n",
      "   midi.NoteOnEvent(tick=192, channel=3, data=[67, 0]),\r\n",
      "   midi.NoteOnEvent(tick=0, channel=3, data=[67, 100]),\r\n",
      "   midi.NoteOnEvent(tick=192, channel=3, data=[67, 0]),\r\n",
      "   midi.NoteOnEvent(tick=0, channel=3, data=[65, 100]),\r\n",
      "   midi.NoteOnEvent(tick=192, channel=3, data=[65, 0]),\r\n",
      "   midi.NoteOnEvent(tick=0, channel=3, data=[65, 100]),\r\n",
      "   midi.NoteOnEvent(tick=192, channel=3, data=[65, 0]),\r\n",
      "   midi.NoteOnEvent(tick=0, channel=3, data=[65, 100]),\r\n",
      "   midi.NoteOnEvent(tick=192, channel=3, data=[65, 0]),\r\n",
      "   midi.NoteOnEvent(tick=0, channel=3, data=[65, 100]),\r\n",
      "   midi.NoteOnEvent(tick=192, channel=3, data=[65, 0]),\r\n",
      "   midi.NoteOnEvent(tick=0, channel=3, data=[65, 100]),\r\n",
      "   midi.NoteOnEvent(tick=192, channel=3, data=[65, 0]),\r\n",
      "   midi.NoteOnEvent(tick=0, channel=3, data=[65, 100]),\r\n",
      "   midi.NoteOnEvent(tick=192, channel=3, data=[65, 0]),\r\n",
      "   midi.NoteOnEvent(tick=0, channel=3, data=[65, 100]),\r\n",
      "   midi.NoteOnEvent(tick=192, channel=3, data=[65, 0]),\r\n",
      "   midi.NoteOnEvent(tick=0, channel=3, data=[65, 100]),\r\n",
      "   midi.NoteOnEvent(tick=192, channel=3, data=[65, 0]),\r\n",
      "   midi.NoteOnEvent(tick=0, channel=3, data=[64, 100]),\r\n",
      "   midi.NoteOnEvent(tick=192, channel=3, data=[64, 0]),\r\n",
      "   midi.NoteOnEvent(tick=1920, channel=3, data=[71, 100]),\r\n",
      "   midi.NoteOnEvent(tick=192, channel=3, data=[71, 0]),\r\n",
      "   midi.NoteOnEvent(tick=0, channel=3, data=[72, 100]),\r\n",
      "   midi.NoteOnEvent(tick=384, channel=3, data=[72, 0]),\r\n",
      "   midi.NoteOnEvent(tick=192, channel=3, data=[72, 100]),\r\n",
      "   midi.NoteOnEvent(tick=192, channel=3, data=[72, 0]),\r\n",
      "   midi.NoteOnEvent(tick=0, channel=3, data=[72, 100]),\r\n",
      "   midi.NoteOnEvent(tick=384, channel=3, data=[72, 0]),\r\n",
      "   midi.NoteOnEvent(tick=192, channel=3, data=[74, 100]),\r\n",
      "   midi.NoteOnEvent(tick=192, channel=3, data=[74, 0]),\r\n",
      "   midi.NoteOnEvent(tick=0, channel=3, data=[67, 100]),\r\n",
      "   midi.NoteOnEvent(tick=192, channel=3, data=[67, 0]),\r\n",
      "   midi.NoteOnEvent(tick=0, channel=3, data=[67, 100]),\r\n",
      "   midi.NoteOnEvent(tick=192, channel=3, data=[67, 0]),\r\n",
      "   midi.NoteOnEvent(tick=0, channel=3, data=[67, 100]),\r\n",
      "   midi.NoteOnEvent(tick=192, channel=3, data=[67, 0]),\r\n",
      "   midi.NoteOnEvent(tick=0, channel=3, data=[67, 100]),\r\n",
      "   midi.NoteOnEvent(tick=192, channel=3, data=[67, 0]),\r\n",
      "   midi.NoteOnEvent(tick=0, channel=3, data=[67, 100]),\r\n",
      "   midi.NoteOnEvent(tick=192, channel=3, data=[67, 0]),\r\n",
      "   midi.NoteOnEvent(tick=0, channel=3, data=[64, 100]),\r\n",
      "   midi.NoteOnEvent(tick=192, channel=3, data=[64, 0]),\r\n",
      "   midi.NoteOnEvent(tick=192, channel=3, data=[64, 100]),\r\n",
      "   midi.NoteOnEvent(tick=192, channel=3, data=[64, 0]),\r\n",
      "   midi.NoteOnEvent(tick=0, channel=3, data=[62, 100]),\r\n",
      "   midi.NoteOnEvent(tick=192, channel=3, data=[62, 0]),\r\n",
      "   midi.NoteOnEvent(tick=192, channel=3, data=[60, 100]),\r\n",
      "   midi.NoteOnEvent(tick=192, channel=3, data=[60, 0]),\r\n",
      "   midi.NoteOnEvent(tick=192, channel=3, data=[65, 100]),\r\n",
      "   midi.NoteOnEvent(tick=192, channel=3, data=[65, 0]),\r\n",
      "   midi.NoteOnEvent(tick=192, channel=3, data=[64, 100]),\r\n",
      "   midi.NoteOnEvent(tick=192, channel=3, data=[64, 0]),\r\n",
      "   midi.NoteOnEvent(tick=192, channel=3, data=[60, 100]),\r\n",
      "   midi.NoteOnEvent(tick=192, channel=3, data=[60, 0]),\r\n",
      "   midi.NoteOnEvent(tick=0, channel=3, data=[67, 100]),\r\n",
      "   midi.NoteOnEvent(tick=192, channel=3, data=[67, 0]),\r\n",
      "   midi.NoteOnEvent(tick=0, channel=3, data=[60, 100]),\r\n",
      "   midi.NoteOnEvent(tick=192, channel=3, data=[60, 0]),\r\n",
      "   midi.NoteOnEvent(tick=0, channel=3, data=[65, 100]),\r\n",
      "   midi.NoteOnEvent(tick=192, channel=3, data=[65, 0]),\r\n",
      "   midi.NoteOnEvent(tick=0, channel=3, data=[62, 100]),\r\n",
      "   midi.NoteOnEvent(tick=192, channel=3, data=[62, 0]),\r\n",
      "   midi.NoteOnEvent(tick=0, channel=3, data=[59, 100]),\r\n",
      "   midi.NoteOnEvent(tick=192, channel=3, data=[59, 0]),\r\n",
      "   midi.NoteOnEvent(tick=0, channel=3, data=[62, 100]),\r\n",
      "   midi.NoteOnEvent(tick=192, channel=3, data=[62, 0]),\r\n",
      "   midi.NoteOnEvent(tick=0, channel=3, data=[67, 100]),\r\n",
      "   midi.NoteOnEvent(tick=384, channel=3, data=[67, 0]),\r\n",
      "   midi.NoteOnEvent(tick=0, channel=3, data=[69, 100]),\r\n",
      "   midi.NoteOnEvent(tick=96, channel=3, data=[69, 0]),\r\n",
      "   midi.NoteOnEvent(tick=0, channel=3, data=[71, 100]),\r\n",
      "   midi.NoteOnEvent(tick=96, channel=3, data=[71, 0]),\r\n",
      "   midi.NoteOnEvent(tick=0, channel=3, data=[72, 100]),\r\n",
      "   midi.NoteOnEvent(tick=192, channel=3, data=[72, 0]),\r\n",
      "   midi.NoteOnEvent(tick=0, channel=3, data=[60, 100]),\r\n",
      "   midi.NoteOnEvent(tick=192, channel=3, data=[60, 0]),\r\n",
      "   midi.NoteOnEvent(tick=0, channel=3, data=[57, 100]),\r\n",
      "   midi.NoteOnEvent(tick=192, channel=3, data=[57, 0]),\r\n",
      "   midi.NoteOnEvent(tick=0, channel=3, data=[69, 100]),\r\n",
      "   midi.NoteOnEvent(tick=192, channel=3, data=[69, 0]),\r\n",
      "   midi.NoteOnEvent(tick=1344, channel=3, data=[57, 100]),\r\n",
      "   midi.NoteOnEvent(tick=192, channel=3, data=[57, 0]),\r\n",
      "   midi.NoteOnEvent(tick=0, channel=3, data=[62, 100]),\r\n",
      "   midi.NoteOnEvent(tick=192, channel=3, data=[62, 0]),\r\n",
      "   midi.NoteOnEvent(tick=0, channel=3, data=[66, 100]),\r\n",
      "   midi.NoteOnEvent(tick=384, channel=3, data=[66, 0]),\r\n",
      "   midi.NoteOnEvent(tick=0, channel=3, data=[67, 100]),\r\n",
      "   midi.NoteOnEvent(tick=96, channel=3, data=[67, 0]),\r\n",
      "   midi.NoteOnEvent(tick=0, channel=3, data=[69, 100]),\r\n",
      "   midi.NoteOnEvent(tick=96, channel=3, data=[69, 0]),\r\n",
      "   midi.NoteOnEvent(tick=0, channel=3, data=[71, 100]),\r\n",
      "   midi.NoteOnEvent(tick=192, channel=3, data=[71, 0]),\r\n",
      "   midi.NoteOnEvent(tick=0, channel=3, data=[59, 100]),\r\n",
      "   midi.NoteOnEvent(tick=192, channel=3, data=[59, 0]),\r\n",
      "   midi.NoteOnEvent(tick=0, channel=3, data=[55, 100]),\r\n",
      "   midi.NoteOnEvent(tick=192, channel=3, data=[55, 0]),\r\n",
      "   midi.NoteOnEvent(tick=0, channel=3, data=[67, 100]),\r\n",
      "   midi.NoteOnEvent(tick=192, channel=3, data=[67, 0]),\r\n",
      "   midi.NoteOnEvent(tick=1344, channel=3, data=[64, 100]),\r\n",
      "   midi.NoteOnEvent(tick=384, channel=3, data=[64, 0]),\r\n",
      "   midi.NoteOnEvent(tick=0, channel=3, data=[66, 100]),\r\n",
      "   midi.NoteOnEvent(tick=96, channel=3, data=[66, 0]),\r\n",
      "   midi.NoteOnEvent(tick=0, channel=3, data=[67, 100]),\r\n",
      "   midi.NoteOnEvent(tick=96, channel=3, data=[67, 0]),\r\n",
      "   midi.NoteOnEvent(tick=0, channel=3, data=[69, 100]),\r\n",
      "   midi.NoteOnEvent(tick=192, channel=3, data=[69, 0]),\r\n",
      "   midi.NoteOnEvent(tick=0, channel=3, data=[72, 100]),\r\n",
      "   midi.NoteOnEvent(tick=192, channel=3, data=[72, 0]),\r\n",
      "   midi.NoteOnEvent(tick=0, channel=3, data=[63, 100]),\r\n",
      "   midi.NoteOnEvent(tick=192, channel=3, data=[63, 0]),\r\n",
      "   midi.NoteOnEvent(tick=0, channel=3, data=[66, 100]),\r\n",
      "   midi.NoteOnEvent(tick=384, channel=3, data=[66, 0]),\r\n",
      "   midi.NoteOnEvent(tick=0, channel=3, data=[59, 100]),\r\n",
      "   midi.NoteOnEvent(tick=192, channel=3, data=[59, 0]),\r\n",
      "   midi.NoteOnEvent(tick=0, channel=3, data=[69, 100]),\r\n",
      "   midi.NoteOnEvent(tick=192, channel=3, data=[69, 0]),\r\n",
      "   midi.NoteOnEvent(tick=0, channel=3, data=[67, 100]),\r\n",
      "   midi.NoteOnEvent(tick=192, channel=3, data=[67, 0]),\r\n",
      "   midi.NoteOnEvent(tick=0, channel=3, data=[64, 100]),\r\n",
      "   midi.NoteOnEvent(tick=192, channel=3, data=[64, 0]),\r\n",
      "   midi.NoteOnEvent(tick=0, channel=3, data=[67, 100]),\r\n",
      "   midi.NoteOnEvent(tick=192, channel=3, data=[67, 0]),\r\n",
      "   midi.NoteOnEvent(tick=0, channel=3, data=[69, 100]),\r\n",
      "   midi.NoteOnEvent(tick=96, channel=3, data=[69, 0]),\r\n",
      "   midi.NoteOnEvent(tick=0, channel=3, data=[71, 100]),\r\n",
      "   midi.NoteOnEvent(tick=96, channel=3, data=[71, 0]),\r\n",
      "   midi.NoteOnEvent(tick=0, channel=3, data=[69, 100]),\r\n",
      "   midi.NoteOnEvent(tick=96, channel=3, data=[69, 0]),\r\n",
      "   midi.NoteOnEvent(tick=0, channel=3, data=[67, 100]),\r\n",
      "   midi.NoteOnEvent(tick=96, channel=3, data=[67, 0]),\r\n",
      "   midi.NoteOnEvent(tick=0, channel=3, data=[66, 100]),\r\n",
      "   midi.NoteOnEvent(tick=192, channel=3, data=[66, 0]),\r\n",
      "   midi.NoteOnEvent(tick=0, channel=3, data=[69, 100]),\r\n",
      "   midi.NoteOnEvent(tick=192, channel=3, data=[69, 0]),\r\n",
      "   midi.NoteOnEvent(tick=0, channel=3, data=[67, 100]),\r\n",
      "   midi.NoteOnEvent(tick=192, channel=3, data=[67, 0]),\r\n",
      "   midi.NoteOnEvent(tick=0, channel=3, data=[72, 100]),\r\n",
      "   midi.NoteOnEvent(tick=192, channel=3, data=[72, 0]),\r\n",
      "   midi.NoteOnEvent(tick=0, channel=3, data=[71, 100]),\r\n",
      "   midi.NoteOnEvent(tick=384, channel=3, data=[71, 0]),\r\n",
      "   midi.NoteOnEvent(tick=0, channel=3, data=[71, 100]),\r\n",
      "   midi.NoteOnEvent(tick=768, channel=3, data=[71, 0]),\r\n",
      "   midi.NoteOnEvent(tick=384, channel=3, data=[72, 100]),\r\n",
      "   midi.NoteOnEvent(tick=384, channel=3, data=[72, 0]),\r\n",
      "   midi.NoteOnEvent(tick=384, channel=3, data=[66, 100]),\r\n",
      "   midi.NoteOnEvent(tick=384, channel=3, data=[66, 0]),\r\n",
      "   midi.NoteOnEvent(tick=384, channel=3, data=[72, 100]),\r\n",
      "   midi.NoteOnEvent(tick=384, channel=3, data=[72, 0]),\r\n",
      "   midi.NoteOnEvent(tick=384, channel=3, data=[63, 100]),\r\n",
      "   midi.NoteOnEvent(tick=768, channel=3, data=[63, 0]),\r\n",
      "   midi.NoteOnEvent(tick=192, channel=3, data=[64, 100]),\r\n",
      "   midi.NoteOnEvent(tick=384, channel=3, data=[64, 0]),\r\n",
      "   midi.NoteOnEvent(tick=0, channel=3, data=[72, 100]),\r\n",
      "   midi.NoteOnEvent(tick=192, channel=3, data=[72, 0]),\r\n",
      "   midi.NoteOnEvent(tick=0, channel=3, data=[71, 100]),\r\n",
      "   midi.NoteOnEvent(tick=192, channel=3, data=[71, 0]),\r\n",
      "   midi.NoteOnEvent(tick=0, channel=3, data=[72, 100]),\r\n",
      "   midi.NoteOnEvent(tick=192, channel=3, data=[72, 0]),\r\n",
      "   midi.NoteOnEvent(tick=0, channel=3, data=[72, 100]),\r\n",
      "   midi.NoteOnEvent(tick=192, channel=3, data=[72, 0]),\r\n",
      "   midi.NoteOnEvent(tick=0, channel=3, data=[71, 100]),\r\n",
      "   midi.NoteOnEvent(tick=192, channel=3, data=[71, 0]),\r\n",
      "   midi.NoteOnEvent(tick=0, channel=3, data=[71, 100]),\r\n",
      "   midi.NoteOnEvent(tick=192, channel=3, data=[71, 0]),\r\n",
      "   midi.NoteOnEvent(tick=0, channel=3, data=[69, 100]),\r\n",
      "   midi.NoteOnEvent(tick=192, channel=3, data=[69, 0]),\r\n",
      "   midi.NoteOnEvent(tick=192, channel=3, data=[64, 100]),\r\n",
      "   midi.NoteOnEvent(tick=192, channel=3, data=[64, 0]),\r\n",
      "   midi.NoteOnEvent(tick=0, channel=3, data=[66, 100]),\r\n",
      "   midi.NoteOnEvent(tick=192, channel=3, data=[66, 0]),\r\n",
      "   midi.NoteOnEvent(tick=0, channel=3, data=[69, 100]),\r\n",
      "   midi.NoteOnEvent(tick=192, channel=3, data=[69, 0]),\r\n",
      "   midi.NoteOnEvent(tick=192, channel=3, data=[66, 100]),\r\n",
      "   midi.NoteOnEvent(tick=192, channel=3, data=[66, 0]),\r\n",
      "   midi.NoteOnEvent(tick=0, channel=3, data=[63, 100]),\r\n",
      "   midi.NoteOnEvent(tick=192, channel=3, data=[63, 0]),\r\n",
      "   midi.NoteOnEvent(tick=0, channel=3, data=[66, 100]),\r\n",
      "   midi.NoteOnEvent(tick=192, channel=3, data=[66, 0]),\r\n",
      "   midi.NoteOnEvent(tick=192, channel=3, data=[69, 100]),\r\n",
      "   midi.NoteOnEvent(tick=192, channel=3, data=[69, 0]),\r\n",
      "   midi.NoteOnEvent(tick=0, channel=3, data=[57, 100]),\r\n",
      "   midi.NoteOnEvent(tick=192, channel=3, data=[57, 0]),\r\n",
      "   midi.NoteOnEvent(tick=0, channel=3, data=[59, 100]),\r\n",
      "   midi.NoteOnEvent(tick=192, channel=3, data=[59, 0]),\r\n",
      "   midi.NoteOnEvent(tick=0, channel=3, data=[59, 100]),\r\n",
      "   midi.NoteOnEvent(tick=192, channel=3, data=[59, 0]),\r\n",
      "   midi.NoteOnEvent(tick=0, channel=3, data=[59, 100]),\r\n",
      "   midi.NoteOnEvent(tick=192, channel=3, data=[59, 0]),\r\n",
      "   midi.NoteOnEvent(tick=0, channel=3, data=[55, 100]),\r\n",
      "   midi.NoteOnEvent(tick=384, channel=3, data=[55, 0]),\r\n",
      "   midi.NoteOnEvent(tick=576, channel=3, data=[64, 100]),\r\n",
      "   midi.NoteOnEvent(tick=192, channel=3, data=[64, 0]),\r\n",
      "   midi.NoteOnEvent(tick=0, channel=3, data=[67, 100]),\r\n",
      "   midi.NoteOnEvent(tick=192, channel=3, data=[67, 0]),\r\n",
      "   midi.NoteOnEvent(tick=384, channel=3, data=[66, 100]),\r\n",
      "   midi.NoteOnEvent(tick=96, channel=3, data=[66, 0]),\r\n",
      "   midi.NoteOnEvent(tick=0, channel=3, data=[67, 100]),\r\n",
      "   midi.NoteOnEvent(tick=96, channel=3, data=[67, 0]),\r\n",
      "   midi.NoteOnEvent(tick=0, channel=3, data=[69, 100]),\r\n",
      "   midi.NoteOnEvent(tick=192, channel=3, data=[69, 0]),\r\n",
      "   midi.NoteOnEvent(tick=384, channel=3, data=[66, 100]),\r\n",
      "   midi.NoteOnEvent(tick=192, channel=3, data=[66, 0]),\r\n",
      "   midi.NoteOnEvent(tick=0, channel=3, data=[63, 100]),\r\n",
      "   midi.NoteOnEvent(tick=192, channel=3, data=[63, 0]),\r\n",
      "   midi.NoteOnEvent(tick=384, channel=3, data=[67, 100]),\r\n",
      "   midi.NoteOnEvent(tick=96, channel=3, data=[67, 0]),\r\n",
      "   midi.NoteOnEvent(tick=0, channel=3, data=[69, 100]),\r\n",
      "   midi.NoteOnEvent(tick=96, channel=3, data=[69, 0]),\r\n",
      "   midi.NoteOnEvent(tick=0, channel=3, data=[71, 100]),\r\n",
      "   midi.NoteOnEvent(tick=192, channel=3, data=[71, 0]),\r\n",
      "   midi.NoteOnEvent(tick=0, channel=3, data=[64, 100]),\r\n",
      "   midi.NoteOnEvent(tick=192, channel=3, data=[64, 0]),\r\n",
      "   midi.NoteOnEvent(tick=0, channel=3, data=[64, 100]),\r\n",
      "   midi.NoteOnEvent(tick=384, channel=3, data=[64, 0]),\r\n",
      "   midi.NoteOnEvent(tick=0, channel=3, data=[62, 100]),\r\n",
      "   midi.NoteOnEvent(tick=384, channel=3, data=[62, 0]),\r\n",
      "   midi.NoteOnEvent(tick=0, channel=3, data=[60, 100]),\r\n",
      "   midi.NoteOnEvent(tick=384, channel=3, data=[60, 0]),\r\n",
      "   midi.NoteOnEvent(tick=0, channel=3, data=[59, 100]),\r\n",
      "   midi.NoteOnEvent(tick=384, channel=3, data=[59, 0]),\r\n",
      "   midi.NoteOnEvent(tick=0, channel=3, data=[57, 100]),\r\n",
      "   midi.NoteOnEvent(tick=384, channel=3, data=[57, 0]),\r\n",
      "   midi.NoteOnEvent(tick=0, channel=3, data=[57, 100]),\r\n",
      "   midi.NoteOnEvent(tick=384, channel=3, data=[57, 0]),\r\n",
      "   midi.NoteOnEvent(tick=0, channel=3, data=[59, 100]),\r\n",
      "   midi.NoteOnEvent(tick=384, channel=3, data=[59, 0]),\r\n",
      "   midi.NoteOnEvent(tick=0, channel=3, data=[61, 100]),\r\n",
      "   midi.NoteOnEvent(tick=384, channel=3, data=[61, 0]),\r\n",
      "   midi.NoteOnEvent(tick=0, channel=3, data=[62, 100]),\r\n",
      "   midi.NoteOnEvent(tick=384, channel=3, data=[62, 0]),\r\n",
      "   midi.NoteOnEvent(tick=0, channel=3, data=[60, 100]),\r\n",
      "   midi.NoteOnEvent(tick=384, channel=3, data=[60, 0]),\r\n",
      "   midi.NoteOnEvent(tick=0, channel=3, data=[59, 100]),\r\n",
      "   midi.NoteOnEvent(tick=384, channel=3, data=[59, 0]),\r\n",
      "   midi.NoteOnEvent(tick=0, channel=3, data=[57, 100]),\r\n",
      "   midi.NoteOnEvent(tick=384, channel=3, data=[57, 0]),\r\n",
      "   midi.NoteOnEvent(tick=0, channel=3, data=[55, 100]),\r\n",
      "   midi.NoteOnEvent(tick=384, channel=3, data=[55, 0]),\r\n",
      "   midi.NoteOnEvent(tick=0, channel=3, data=[55, 100]),\r\n",
      "   midi.NoteOnEvent(tick=384, channel=3, data=[55, 0]),\r\n",
      "   midi.NoteOnEvent(tick=0, channel=3, data=[57, 100]),\r\n",
      "   midi.NoteOnEvent(tick=384, channel=3, data=[57, 0]),\r\n",
      "   midi.NoteOnEvent(tick=0, channel=3, data=[59, 100]),\r\n",
      "   midi.NoteOnEvent(tick=384, channel=3, data=[59, 0]),\r\n",
      "   midi.NoteOnEvent(tick=0, channel=3, data=[60, 100]),\r\n",
      "   midi.NoteOnEvent(tick=1152, channel=3, data=[60, 0]),\r\n",
      "   midi.NoteOnEvent(tick=0, channel=3, data=[58, 100]),\r\n",
      "   midi.NoteOnEvent(tick=384, channel=3, data=[58, 0]),\r\n",
      "   midi.NoteOnEvent(tick=0, channel=3, data=[60, 100]),\r\n",
      "   midi.NoteOnEvent(tick=384, channel=3, data=[60, 0]),\r\n",
      "   midi.NoteOnEvent(tick=2112, channel=3, data=[65, 100]),\r\n",
      "   midi.NoteOnEvent(tick=192, channel=3, data=[65, 0]),\r\n",
      "   midi.NoteOnEvent(tick=0, channel=3, data=[62, 100]),\r\n",
      "   midi.NoteOnEvent(tick=384, channel=3, data=[62, 0]),\r\n",
      "   midi.NoteOnEvent(tick=192, channel=3, data=[62, 100]),\r\n",
      "   midi.NoteOnEvent(tick=192, channel=3, data=[62, 0]),\r\n",
      "   midi.NoteOnEvent(tick=0, channel=3, data=[64, 100]),\r\n",
      "   midi.NoteOnEvent(tick=192, channel=3, data=[64, 0]),\r\n",
      "   midi.NoteOnEvent(tick=0, channel=3, data=[70, 100]),\r\n",
      "   midi.NoteOnEvent(tick=192, channel=3, data=[70, 0]),\r\n",
      "   midi.NoteOnEvent(tick=0, channel=3, data=[69, 100]),\r\n",
      "   midi.NoteOnEvent(tick=192, channel=3, data=[69, 0]),\r\n",
      "   midi.NoteOnEvent(tick=0, channel=3, data=[62, 100]),\r\n",
      "   midi.NoteOnEvent(tick=192, channel=3, data=[62, 0]),\r\n",
      "   midi.NoteOnEvent(tick=0, channel=3, data=[64, 100]),\r\n",
      "   midi.NoteOnEvent(tick=192, channel=3, data=[64, 0]),\r\n",
      "   midi.NoteOnEvent(tick=0, channel=3, data=[64, 100]),\r\n",
      "   midi.NoteOnEvent(tick=192, channel=3, data=[64, 0]),\r\n",
      "   midi.NoteOnEvent(tick=0, channel=3, data=[65, 100]),\r\n",
      "   midi.NoteOnEvent(tick=384, channel=3, data=[65, 0]),\r\n",
      "   midi.NoteOnEvent(tick=192, channel=3, data=[65, 100]),\r\n",
      "   midi.NoteOnEvent(tick=192, channel=3, data=[65, 0]),\r\n",
      "   midi.NoteOnEvent(tick=0, channel=3, data=[67, 100]),\r\n",
      "   midi.NoteOnEvent(tick=192, channel=3, data=[67, 0]),\r\n",
      "   midi.NoteOnEvent(tick=0, channel=3, data=[67, 100]),\r\n",
      "   midi.NoteOnEvent(tick=192, channel=3, data=[67, 0]),\r\n",
      "   midi.NoteOnEvent(tick=0, channel=3, data=[69, 100]),\r\n",
      "   midi.NoteOnEvent(tick=192, channel=3, data=[69, 0]),\r\n",
      "   midi.NoteOnEvent(tick=0, channel=3, data=[69, 100]),\r\n",
      "   midi.NoteOnEvent(tick=192, channel=3, data=[69, 0]),\r\n",
      "   midi.NoteOnEvent(tick=0, channel=3, data=[70, 100]),\r\n",
      "   midi.NoteOnEvent(tick=192, channel=3, data=[70, 0]),\r\n",
      "   midi.NoteOnEvent(tick=0, channel=3, data=[70, 100]),\r\n",
      "   midi.NoteOnEvent(tick=192, channel=3, data=[70, 0]),\r\n",
      "   midi.NoteOnEvent(tick=0, channel=3, data=[66, 100]),\r\n",
      "   midi.NoteOnEvent(tick=192, channel=3, data=[66, 0]),\r\n",
      "   midi.NoteOnEvent(tick=0, channel=3, data=[66, 100]),\r\n",
      "   midi.NoteOnEvent(tick=192, channel=3, data=[66, 0]),\r\n",
      "   midi.NoteOnEvent(tick=0, channel=3, data=[67, 100]),\r\n",
      "   midi.NoteOnEvent(tick=192, channel=3, data=[67, 0]),\r\n",
      "   midi.NoteOnEvent(tick=0, channel=3, data=[62, 100]),\r\n",
      "   midi.NoteOnEvent(tick=192, channel=3, data=[62, 0]),\r\n",
      "   midi.NoteOnEvent(tick=0, channel=3, data=[67, 100]),\r\n",
      "   midi.NoteOnEvent(tick=192, channel=3, data=[67, 0]),\r\n",
      "   midi.NoteOnEvent(tick=0, channel=3, data=[70, 100]),\r\n",
      "   midi.NoteOnEvent(tick=192, channel=3, data=[70, 0]),\r\n",
      "   midi.NoteOnEvent(tick=0, channel=3, data=[72, 100]),\r\n",
      "   midi.NoteOnEvent(tick=192, channel=3, data=[72, 0]),\r\n",
      "   midi.NoteOnEvent(tick=0, channel=3, data=[67, 100]),\r\n",
      "   midi.NoteOnEvent(tick=192, channel=3, data=[67, 0]),\r\n",
      "   midi.NoteOnEvent(tick=0, channel=3, data=[67, 100]),\r\n",
      "   midi.NoteOnEvent(tick=192, channel=3, data=[67, 0]),\r\n",
      "   midi.NoteOnEvent(tick=0, channel=3, data=[67, 100]),\r\n",
      "   midi.NoteOnEvent(tick=192, channel=3, data=[67, 0]),\r\n",
      "   midi.NoteOnEvent(tick=0, channel=3, data=[69, 100]),\r\n",
      "   midi.NoteOnEvent(tick=192, channel=3, data=[69, 0]),\r\n",
      "   midi.NoteOnEvent(tick=0, channel=3, data=[69, 100]),\r\n",
      "   midi.NoteOnEvent(tick=192, channel=3, data=[69, 0]),\r\n",
      "   midi.NoteOnEvent(tick=0, channel=3, data=[64, 100]),\r\n",
      "   midi.NoteOnEvent(tick=192, channel=3, data=[64, 0]),\r\n",
      "   midi.NoteOnEvent(tick=0, channel=3, data=[64, 100]),\r\n",
      "   midi.NoteOnEvent(tick=192, channel=3, data=[64, 0]),\r\n",
      "   midi.NoteOnEvent(tick=0, channel=3, data=[65, 100]),\r\n",
      "   midi.NoteOnEvent(tick=192, channel=3, data=[65, 0]),\r\n",
      "   midi.NoteOnEvent(tick=0, channel=3, data=[60, 100]),\r\n",
      "   midi.NoteOnEvent(tick=192, channel=3, data=[60, 0]),\r\n",
      "   midi.NoteOnEvent(tick=0, channel=3, data=[65, 100]),\r\n",
      "   midi.NoteOnEvent(tick=192, channel=3, data=[65, 0]),\r\n",
      "   midi.NoteOnEvent(tick=0, channel=3, data=[69, 100]),\r\n",
      "   midi.NoteOnEvent(tick=192, channel=3, data=[69, 0]),\r\n",
      "   midi.NoteOnEvent(tick=0, channel=3, data=[70, 100]),\r\n",
      "   midi.NoteOnEvent(tick=192, channel=3, data=[70, 0]),\r\n",
      "   midi.NoteOnEvent(tick=0, channel=3, data=[70, 100]),\r\n",
      "   midi.NoteOnEvent(tick=192, channel=3, data=[70, 0]),\r\n",
      "   midi.NoteOnEvent(tick=0, channel=3, data=[70, 100]),\r\n",
      "   midi.NoteOnEvent(tick=192, channel=3, data=[70, 0]),\r\n",
      "   midi.NoteOnEvent(tick=0, channel=3, data=[70, 100]),\r\n",
      "   midi.NoteOnEvent(tick=192, channel=3, data=[70, 0]),\r\n",
      "   midi.NoteOnEvent(tick=0, channel=3, data=[70, 100]),\r\n",
      "   midi.NoteOnEvent(tick=192, channel=3, data=[70, 0]),\r\n",
      "   midi.NoteOnEvent(tick=0, channel=3, data=[70, 100]),\r\n",
      "   midi.NoteOnEvent(tick=192, channel=3, data=[70, 0]),\r\n",
      "   midi.NoteOnEvent(tick=0, channel=3, data=[70, 100]),\r\n",
      "   midi.NoteOnEvent(tick=192, channel=3, data=[70, 0]),\r\n",
      "   midi.NoteOnEvent(tick=0, channel=3, data=[70, 100]),\r\n",
      "   midi.NoteOnEvent(tick=192, channel=3, data=[70, 0]),\r\n",
      "   midi.NoteOnEvent(tick=0, channel=3, data=[70, 100]),\r\n",
      "   midi.NoteOnEvent(tick=192, channel=3, data=[70, 0]),\r\n",
      "   midi.NoteOnEvent(tick=0, channel=3, data=[67, 100]),\r\n",
      "   midi.NoteOnEvent(tick=192, channel=3, data=[67, 0]),\r\n",
      "   midi.NoteOnEvent(tick=0, channel=3, data=[70, 100]),\r\n",
      "   midi.NoteOnEvent(tick=192, channel=3, data=[70, 0]),\r\n",
      "   midi.NoteOnEvent(tick=0, channel=3, data=[64, 100]),\r\n",
      "   midi.NoteOnEvent(tick=192, channel=3, data=[64, 0]),\r\n",
      "   midi.NoteOnEvent(tick=0, channel=3, data=[64, 100]),\r\n",
      "   midi.NoteOnEvent(tick=192, channel=3, data=[64, 0]),\r\n",
      "   midi.NoteOnEvent(tick=0, channel=3, data=[69, 100]),\r\n",
      "   midi.NoteOnEvent(tick=192, channel=3, data=[69, 0]),\r\n",
      "   midi.NoteOnEvent(tick=0, channel=3, data=[69, 100]),\r\n",
      "   midi.NoteOnEvent(tick=192, channel=3, data=[69, 0]),\r\n",
      "   midi.NoteOnEvent(tick=0, channel=3, data=[69, 100]),\r\n",
      "   midi.NoteOnEvent(tick=192, channel=3, data=[69, 0]),\r\n",
      "   midi.NoteOnEvent(tick=0, channel=3, data=[69, 100]),\r\n",
      "   midi.NoteOnEvent(tick=192, channel=3, data=[69, 0]),\r\n",
      "   midi.NoteOnEvent(tick=0, channel=3, data=[69, 100]),\r\n",
      "   midi.NoteOnEvent(tick=192, channel=3, data=[69, 0]),\r\n",
      "   midi.NoteOnEvent(tick=0, channel=3, data=[69, 100]),\r\n",
      "   midi.NoteOnEvent(tick=192, channel=3, data=[69, 0]),\r\n",
      "   midi.NoteOnEvent(tick=0, channel=3, data=[69, 100]),\r\n",
      "   midi.NoteOnEvent(tick=192, channel=3, data=[69, 0]),\r\n",
      "   midi.NoteOnEvent(tick=0, channel=3, data=[62, 100]),\r\n",
      "   midi.NoteOnEvent(tick=384, channel=3, data=[62, 0]),\r\n",
      "   midi.NoteOnEvent(tick=192, channel=3, data=[69, 100]),\r\n",
      "   midi.NoteOnEvent(tick=192, channel=3, data=[69, 0]),\r\n",
      "   midi.NoteOnEvent(tick=0, channel=3, data=[67, 100]),\r\n",
      "   midi.NoteOnEvent(tick=384, channel=3, data=[67, 0]),\r\n",
      "   midi.NoteOnEvent(tick=960, channel=3, data=[67, 100]),\r\n",
      "   midi.NoteOnEvent(tick=192, channel=3, data=[67, 0]),\r\n",
      "   midi.NoteOnEvent(tick=0, channel=3, data=[65, 100]),\r\n",
      "   midi.NoteOnEvent(tick=384, channel=3, data=[65, 0]),\r\n",
      "   midi.NoteOnEvent(tick=960, channel=3, data=[65, 100]),\r\n",
      "   midi.NoteOnEvent(tick=192, channel=3, data=[65, 0]),\r\n",
      "   midi.NoteOnEvent(tick=0, channel=3, data=[64, 100]),\r\n",
      "   midi.NoteOnEvent(tick=192, channel=3, data=[64, 0]),\r\n",
      "   midi.NoteOnEvent(tick=0, channel=3, data=[66, 100]),\r\n",
      "   midi.NoteOnEvent(tick=192, channel=3, data=[66, 0]),\r\n",
      "   midi.NoteOnEvent(tick=0, channel=3, data=[68, 100]),\r\n",
      "   midi.NoteOnEvent(tick=192, channel=3, data=[68, 0]),\r\n",
      "   midi.NoteOnEvent(tick=0, channel=3, data=[64, 100]),\r\n",
      "   midi.NoteOnEvent(tick=192, channel=3, data=[64, 0]),\r\n",
      "   midi.NoteOnEvent(tick=0, channel=3, data=[72, 100]),\r\n",
      "   midi.NoteOnEvent(tick=384, channel=3, data=[72, 0]),\r\n",
      "   midi.NoteOnEvent(tick=192, channel=3, data=[69, 100]),\r\n",
      "   midi.NoteOnEvent(tick=192, channel=3, data=[69, 0]),\r\n",
      "   midi.NoteOnEvent(tick=0, channel=3, data=[62, 100]),\r\n",
      "   midi.NoteOnEvent(tick=384, channel=3, data=[62, 0]),\r\n",
      "   midi.NoteOnEvent(tick=192, channel=3, data=[62, 100]),\r\n",
      "   midi.NoteOnEvent(tick=192, channel=3, data=[62, 0]),\r\n",
      "   midi.NoteOnEvent(tick=0, channel=3, data=[57, 100]),\r\n",
      "   midi.NoteOnEvent(tick=192, channel=3, data=[57, 0]),\r\n",
      "   midi.NoteOnEvent(tick=0, channel=3, data=[64, 100]),\r\n",
      "   midi.NoteOnEvent(tick=192, channel=3, data=[64, 0]),\r\n",
      "   midi.NoteOnEvent(tick=0, channel=3, data=[56, 100]),\r\n",
      "   midi.NoteOnEvent(tick=192, channel=3, data=[56, 0]),\r\n",
      "   midi.NoteOnEvent(tick=0, channel=3, data=[64, 100]),\r\n",
      "   midi.NoteOnEvent(tick=192, channel=3, data=[64, 0]),\r\n",
      "   midi.NoteOnEvent(tick=0, channel=3, data=[64, 100]),\r\n",
      "   midi.NoteOnEvent(tick=192, channel=3, data=[64, 0]),\r\n",
      "   midi.NoteOnEvent(tick=0, channel=3, data=[60, 100]),\r\n",
      "   midi.NoteOnEvent(tick=192, channel=3, data=[60, 0]),\r\n",
      "   midi.NoteOnEvent(tick=576, channel=3, data=[57, 100]),\r\n",
      "   midi.NoteOnEvent(tick=192, channel=3, data=[57, 0]),\r\n",
      "   midi.NoteOnEvent(tick=0, channel=3, data=[57, 100]),\r\n",
      "   midi.NoteOnEvent(tick=192, channel=3, data=[57, 0]),\r\n",
      "   midi.NoteOnEvent(tick=0, channel=3, data=[57, 100]),\r\n",
      "   midi.NoteOnEvent(tick=192, channel=3, data=[57, 0]),\r\n",
      "   midi.NoteOnEvent(tick=0, channel=3, data=[57, 100]),\r\n",
      "   midi.NoteOnEvent(tick=192, channel=3, data=[57, 0]),\r\n",
      "   midi.NoteOnEvent(tick=0, channel=3, data=[57, 100]),\r\n",
      "   midi.NoteOnEvent(tick=192, channel=3, data=[57, 0]),\r\n",
      "   midi.NoteOnEvent(tick=0, channel=3, data=[57, 100]),\r\n",
      "   midi.NoteOnEvent(tick=192, channel=3, data=[57, 0]),\r\n",
      "   midi.NoteOnEvent(tick=0, channel=3, data=[57, 100]),\r\n",
      "   midi.NoteOnEvent(tick=192, channel=3, data=[57, 0]),\r\n",
      "   midi.NoteOnEvent(tick=0, channel=3, data=[57, 100]),\r\n",
      "   midi.NoteOnEvent(tick=192, channel=3, data=[57, 0]),\r\n",
      "   midi.NoteOnEvent(tick=0, channel=3, data=[57, 100]),\r\n",
      "   midi.NoteOnEvent(tick=192, channel=3, data=[57, 0]),\r\n",
      "   midi.NoteOnEvent(tick=0, channel=3, data=[57, 100]),\r\n",
      "   midi.NoteOnEvent(tick=192, channel=3, data=[57, 0]),\r\n",
      "   midi.NoteOnEvent(tick=0, channel=3, data=[57, 100]),\r\n",
      "   midi.NoteOnEvent(tick=192, channel=3, data=[57, 0]),\r\n",
      "   midi.NoteOnEvent(tick=0, channel=3, data=[62, 100]),\r\n",
      "   midi.NoteOnEvent(tick=192, channel=3, data=[62, 0]),\r\n",
      "   midi.NoteOnEvent(tick=0, channel=3, data=[62, 100]),\r\n",
      "   midi.NoteOnEvent(tick=192, channel=3, data=[62, 0]),\r\n",
      "   midi.NoteOnEvent(tick=0, channel=3, data=[62, 100]),\r\n",
      "   midi.NoteOnEvent(tick=192, channel=3, data=[62, 0]),\r\n",
      "   midi.NoteOnEvent(tick=0, channel=3, data=[62, 100]),\r\n",
      "   midi.NoteOnEvent(tick=192, channel=3, data=[62, 0]),\r\n",
      "   midi.NoteOnEvent(tick=0, channel=3, data=[62, 100]),\r\n",
      "   midi.NoteOnEvent(tick=192, channel=3, data=[62, 0]),\r\n",
      "   midi.NoteOnEvent(tick=0, channel=3, data=[62, 100]),\r\n",
      "   midi.NoteOnEvent(tick=192, channel=3, data=[62, 0]),\r\n",
      "   midi.NoteOnEvent(tick=0, channel=3, data=[62, 100]),\r\n",
      "   midi.NoteOnEvent(tick=192, channel=3, data=[62, 0]),\r\n",
      "   midi.NoteOnEvent(tick=0, channel=3, data=[62, 100]),\r\n",
      "   midi.NoteOnEvent(tick=192, channel=3, data=[62, 0]),\r\n",
      "   midi.NoteOnEvent(tick=0, channel=3, data=[67, 100]),\r\n",
      "   midi.NoteOnEvent(tick=192, channel=3, data=[67, 0]),\r\n",
      "   midi.NoteOnEvent(tick=0, channel=3, data=[67, 100]),\r\n",
      "   midi.NoteOnEvent(tick=192, channel=3, data=[67, 0]),\r\n",
      "   midi.NoteOnEvent(tick=0, channel=3, data=[67, 100]),\r\n",
      "   midi.NoteOnEvent(tick=192, channel=3, data=[67, 0]),\r\n",
      "   midi.NoteOnEvent(tick=0, channel=3, data=[67, 100]),\r\n",
      "   midi.NoteOnEvent(tick=192, channel=3, data=[67, 0]),\r\n",
      "   midi.NoteOnEvent(tick=0, channel=3, data=[67, 100]),\r\n",
      "   midi.NoteOnEvent(tick=384, channel=3, data=[67, 0]),\r\n",
      "   midi.NoteOnEvent(tick=0, channel=3, data=[70, 100]),\r\n",
      "   midi.NoteOnEvent(tick=384, channel=3, data=[70, 0]),\r\n",
      "   midi.NoteOnEvent(tick=0, channel=3, data=[68, 100]),\r\n",
      "   midi.NoteOnEvent(tick=384, channel=3, data=[68, 0]),\r\n",
      "   midi.NoteOnEvent(tick=0, channel=3, data=[67, 100]),\r\n",
      "   midi.NoteOnEvent(tick=384, channel=3, data=[67, 0]),\r\n",
      "   midi.NoteOnEvent(tick=0, channel=3, data=[65, 100]),\r\n",
      "   midi.NoteOnEvent(tick=192, channel=3, data=[65, 0]),\r\n",
      "   midi.NoteOnEvent(tick=0, channel=3, data=[65, 100]),\r\n",
      "   midi.NoteOnEvent(tick=192, channel=3, data=[65, 0]),\r\n",
      "   midi.NoteOnEvent(tick=0, channel=3, data=[69, 100]),\r\n",
      "   midi.NoteOnEvent(tick=192, channel=3, data=[69, 0]),\r\n",
      "   midi.NoteOnEvent(tick=0, channel=3, data=[69, 100]),\r\n",
      "   midi.NoteOnEvent(tick=192, channel=3, data=[69, 0]),\r\n",
      "   midi.NoteOnEvent(tick=0, channel=3, data=[70, 100]),\r\n",
      "   midi.NoteOnEvent(tick=384, channel=3, data=[70, 0]),\r\n",
      "   midi.NoteOnEvent(tick=384, channel=3, data=[67, 100]),\r\n",
      "   midi.NoteOnEvent(tick=192, channel=3, data=[67, 0]),\r\n",
      "   midi.NoteOnEvent(tick=0, channel=3, data=[67, 100]),\r\n",
      "   midi.NoteOnEvent(tick=192, channel=3, data=[67, 0]),\r\n",
      "   midi.NoteOnEvent(tick=0, channel=3, data=[69, 100]),\r\n",
      "   midi.NoteOnEvent(tick=192, channel=3, data=[69, 0]),\r\n",
      "   midi.NoteOnEvent(tick=0, channel=3, data=[69, 100]),\r\n",
      "   midi.NoteOnEvent(tick=192, channel=3, data=[69, 0]),\r\n",
      "   midi.NoteOnEvent(tick=0, channel=3, data=[57, 100]),\r\n",
      "   midi.NoteOnEvent(tick=384, channel=3, data=[57, 0]),\r\n",
      "   midi.NoteOnEvent(tick=384, channel=3, data=[62, 100]),\r\n",
      "   midi.NoteOnEvent(tick=192, channel=3, data=[62, 0]),\r\n",
      "   midi.NoteOnEvent(tick=0, channel=3, data=[62, 100]),\r\n",
      "   midi.NoteOnEvent(tick=192, channel=3, data=[62, 0]),\r\n",
      "   midi.NoteOnEvent(tick=0, channel=3, data=[64, 100]),\r\n",
      "   midi.NoteOnEvent(tick=192, channel=3, data=[64, 0]),\r\n",
      "   midi.NoteOnEvent(tick=0, channel=3, data=[64, 100]),\r\n",
      "   midi.NoteOnEvent(tick=192, channel=3, data=[64, 0]),\r\n",
      "   midi.NoteOnEvent(tick=0, channel=3, data=[52, 100]),\r\n",
      "   midi.NoteOnEvent(tick=384, channel=3, data=[52, 0]),\r\n",
      "   midi.NoteOnEvent(tick=1728, channel=3, data=[68, 100]),\r\n",
      "   midi.NoteOnEvent(tick=192, channel=3, data=[68, 0]),\r\n",
      "   midi.NoteOnEvent(tick=0, channel=3, data=[69, 100]),\r\n",
      "   midi.NoteOnEvent(tick=384, channel=3, data=[69, 0]),\r\n",
      "   midi.NoteOnEvent(tick=192, channel=3, data=[69, 100]),\r\n",
      "   midi.NoteOnEvent(tick=192, channel=3, data=[69, 0]),\r\n",
      "   midi.NoteOnEvent(tick=0, channel=3, data=[69, 100]),\r\n",
      "   midi.NoteOnEvent(tick=384, channel=3, data=[69, 0]),\r\n",
      "   midi.NoteOnEvent(tick=192, channel=3, data=[71, 100]),\r\n",
      "   midi.NoteOnEvent(tick=192, channel=3, data=[71, 0]),\r\n",
      "   midi.NoteOnEvent(tick=0, channel=3, data=[64, 100]),\r\n",
      "   midi.NoteOnEvent(tick=192, channel=3, data=[64, 0]),\r\n",
      "   midi.NoteOnEvent(tick=0, channel=3, data=[64, 100]),\r\n",
      "   midi.NoteOnEvent(tick=192, channel=3, data=[64, 0]),\r\n",
      "   midi.NoteOnEvent(tick=0, channel=3, data=[64, 100]),\r\n",
      "   midi.NoteOnEvent(tick=192, channel=3, data=[64, 0]),\r\n",
      "   midi.NoteOnEvent(tick=0, channel=3, data=[64, 100]),\r\n",
      "   midi.NoteOnEvent(tick=192, channel=3, data=[64, 0]),\r\n",
      "   midi.NoteOnEvent(tick=0, channel=3, data=[64, 100]),\r\n",
      "   midi.NoteOnEvent(tick=192, channel=3, data=[64, 0]),\r\n",
      "   midi.NoteOnEvent(tick=0, channel=3, data=[64, 100]),\r\n",
      "   midi.NoteOnEvent(tick=192, channel=3, data=[64, 0]),\r\n",
      "   midi.NoteOnEvent(tick=0, channel=3, data=[69, 100]),\r\n",
      "   midi.NoteOnEvent(tick=192, channel=3, data=[69, 0]),\r\n",
      "   midi.NoteOnEvent(tick=0, channel=3, data=[72, 100]),\r\n",
      "   midi.NoteOnEvent(tick=384, channel=3, data=[72, 0]),\r\n",
      "   midi.NoteOnEvent(tick=0, channel=3, data=[62, 100]),\r\n",
      "   midi.NoteOnEvent(tick=96, channel=3, data=[62, 0]),\r\n",
      "   midi.NoteOnEvent(tick=0, channel=3, data=[64, 100]),\r\n",
      "   midi.NoteOnEvent(tick=96, channel=3, data=[64, 0]),\r\n",
      "   midi.NoteOnEvent(tick=0, channel=3, data=[65, 100]),\r\n",
      "   midi.NoteOnEvent(tick=192, channel=3, data=[65, 0]),\r\n",
      "   midi.NoteOnEvent(tick=0, channel=3, data=[65, 100]),\r\n",
      "   midi.NoteOnEvent(tick=192, channel=3, data=[65, 0]),\r\n",
      "   midi.NoteOnEvent(tick=0, channel=3, data=[62, 100]),\r\n",
      "   midi.NoteOnEvent(tick=192, channel=3, data=[62, 0]),\r\n",
      "   midi.NoteOnEvent(tick=0, channel=3, data=[74, 100]),\r\n",
      "   midi.NoteOnEvent(tick=192, channel=3, data=[74, 0]),\r\n",
      "   midi.NoteOnEvent(tick=1344, channel=3, data=[62, 100]),\r\n",
      "   midi.NoteOnEvent(tick=192, channel=3, data=[62, 0]),\r\n",
      "   midi.NoteOnEvent(tick=0, channel=3, data=[67, 100]),\r\n",
      "   midi.NoteOnEvent(tick=192, channel=3, data=[67, 0]),\r\n",
      "   midi.NoteOnEvent(tick=0, channel=3, data=[71, 100]),\r\n",
      "   midi.NoteOnEvent(tick=384, channel=3, data=[71, 0]),\r\n",
      "   midi.NoteOnEvent(tick=0, channel=3, data=[60, 100]),\r\n",
      "   midi.NoteOnEvent(tick=96, channel=3, data=[60, 0]),\r\n",
      "   midi.NoteOnEvent(tick=0, channel=3, data=[62, 100]),\r\n",
      "   midi.NoteOnEvent(tick=96, channel=3, data=[62, 0]),\r\n",
      "   midi.NoteOnEvent(tick=0, channel=3, data=[64, 100]),\r\n",
      "   midi.NoteOnEvent(tick=192, channel=3, data=[64, 0]),\r\n",
      "   midi.NoteOnEvent(tick=0, channel=3, data=[64, 100]),\r\n",
      "   midi.NoteOnEvent(tick=192, channel=3, data=[64, 0]),\r\n",
      "   midi.NoteOnEvent(tick=0, channel=3, data=[60, 100]),\r\n",
      "   midi.NoteOnEvent(tick=192, channel=3, data=[60, 0]),\r\n",
      "   midi.NoteOnEvent(tick=0, channel=3, data=[72, 100]),\r\n",
      "   midi.NoteOnEvent(tick=192, channel=3, data=[72, 0]),\r\n",
      "   midi.NoteOnEvent(tick=1344, channel=3, data=[60, 100]),\r\n",
      "   midi.NoteOnEvent(tick=192, channel=3, data=[60, 0]),\r\n",
      "   midi.NoteOnEvent(tick=0, channel=3, data=[65, 100]),\r\n",
      "   midi.NoteOnEvent(tick=192, channel=3, data=[65, 0]),\r\n",
      "   midi.NoteOnEvent(tick=0, channel=3, data=[69, 100]),\r\n",
      "   midi.NoteOnEvent(tick=384, channel=3, data=[69, 0]),\r\n",
      "   midi.NoteOnEvent(tick=0, channel=3, data=[68, 100]),\r\n",
      "   midi.NoteOnEvent(tick=96, channel=3, data=[68, 0]),\r\n",
      "   midi.NoteOnEvent(tick=0, channel=3, data=[69, 100]),\r\n",
      "   midi.NoteOnEvent(tick=96, channel=3, data=[69, 0]),\r\n",
      "   midi.NoteOnEvent(tick=0, channel=3, data=[71, 100]),\r\n",
      "   midi.NoteOnEvent(tick=192, channel=3, data=[71, 0]),\r\n",
      "   midi.NoteOnEvent(tick=0, channel=3, data=[59, 100]),\r\n",
      "   midi.NoteOnEvent(tick=384, channel=3, data=[59, 0]),\r\n",
      "   midi.NoteOnEvent(tick=0, channel=3, data=[52, 100]),\r\n",
      "   midi.NoteOnEvent(tick=192, channel=3, data=[52, 0]),\r\n",
      "   midi.NoteOnEvent(tick=0, channel=3, data=[64, 100]),\r\n",
      "   midi.NoteOnEvent(tick=192, channel=3, data=[64, 0]),\r\n",
      "   midi.NoteOnEvent(tick=0, channel=3, data=[60, 100]),\r\n",
      "   midi.NoteOnEvent(tick=192, channel=3, data=[60, 0]),\r\n",
      "   midi.NoteOnEvent(tick=0, channel=3, data=[57, 100]),\r\n",
      "   midi.NoteOnEvent(tick=192, channel=3, data=[57, 0]),\r\n",
      "   midi.NoteOnEvent(tick=0, channel=3, data=[60, 100]),\r\n",
      "   midi.NoteOnEvent(tick=192, channel=3, data=[60, 0]),\r\n",
      "   midi.NoteOnEvent(tick=0, channel=3, data=[65, 100]),\r\n",
      "   midi.NoteOnEvent(tick=192, channel=3, data=[65, 0]),\r\n",
      "   midi.NoteOnEvent(tick=0, channel=3, data=[62, 100]),\r\n",
      "   midi.NoteOnEvent(tick=192, channel=3, data=[62, 0]),\r\n",
      "   midi.NoteOnEvent(tick=0, channel=3, data=[59, 100]),\r\n",
      "   midi.NoteOnEvent(tick=192, channel=3, data=[59, 0]),\r\n",
      "   midi.NoteOnEvent(tick=0, channel=3, data=[74, 100]),\r\n",
      "   midi.NoteOnEvent(tick=192, channel=3, data=[74, 0]),\r\n",
      "   midi.NoteOnEvent(tick=0, channel=3, data=[72, 100]),\r\n",
      "   midi.NoteOnEvent(tick=192, channel=3, data=[72, 0]),\r\n",
      "   midi.NoteOnEvent(tick=0, channel=3, data=[69, 100]),\r\n",
      "   midi.NoteOnEvent(tick=192, channel=3, data=[69, 0]),\r\n",
      "   midi.NoteOnEvent(tick=0, channel=3, data=[69, 100]),\r\n",
      "   midi.NoteOnEvent(tick=384, channel=3, data=[69, 0]),\r\n",
      "   midi.NoteOnEvent(tick=0, channel=3, data=[68, 100]),\r\n",
      "   midi.NoteOnEvent(tick=768, channel=3, data=[68, 0]),\r\n",
      "   midi.NoteOnEvent(tick=384, channel=3, data=[65, 100]),\r\n",
      "   midi.NoteOnEvent(tick=384, channel=3, data=[65, 0]),\r\n",
      "   midi.NoteOnEvent(tick=384, channel=3, data=[59, 100]),\r\n",
      "   midi.NoteOnEvent(tick=384, channel=3, data=[59, 0]),\r\n",
      "   midi.NoteOnEvent(tick=384, channel=3, data=[67, 100]),\r\n",
      "   midi.NoteOnEvent(tick=384, channel=3, data=[67, 0]),\r\n",
      "   midi.NoteOnEvent(tick=384, channel=3, data=[68, 100]),\r\n",
      "   midi.NoteOnEvent(tick=960, channel=3, data=[68, 0]),\r\n",
      "   midi.NoteOnEvent(tick=0, channel=3, data=[69, 100]),\r\n",
      "   midi.NoteOnEvent(tick=384, channel=3, data=[69, 0]),\r\n",
      "   midi.NoteOnEvent(tick=0, channel=3, data=[59, 100]),\r\n",
      "   midi.NoteOnEvent(tick=192, channel=3, data=[59, 0]),\r\n",
      "   midi.NoteOnEvent(tick=0, channel=3, data=[57, 100]),\r\n",
      "   midi.NoteOnEvent(tick=192, channel=3, data=[57, 0]),\r\n",
      "   midi.NoteOnEvent(tick=0, channel=3, data=[60, 100]),\r\n",
      "   midi.NoteOnEvent(tick=192, channel=3, data=[60, 0]),\r\n",
      "   midi.NoteOnEvent(tick=0, channel=3, data=[65, 100]),\r\n",
      "   midi.NoteOnEvent(tick=192, channel=3, data=[65, 0]),\r\n",
      "   midi.NoteOnEvent(tick=0, channel=3, data=[64, 100]),\r\n",
      "   midi.NoteOnEvent(tick=192, channel=3, data=[64, 0]),\r\n",
      "   midi.NoteOnEvent(tick=0, channel=3, data=[64, 100]),\r\n",
      "   midi.NoteOnEvent(tick=192, channel=3, data=[64, 0]),\r\n",
      "   midi.NoteOnEvent(tick=0, channel=3, data=[62, 100]),\r\n",
      "   midi.NoteOnEvent(tick=192, channel=3, data=[62, 0]),\r\n",
      "   midi.NoteOnEvent(tick=192, channel=3, data=[57, 100]),\r\n",
      "   midi.NoteOnEvent(tick=192, channel=3, data=[57, 0]),\r\n",
      "   midi.NoteOnEvent(tick=0, channel=3, data=[59, 100]),\r\n",
      "   midi.NoteOnEvent(tick=192, channel=3, data=[59, 0]),\r\n",
      "   midi.NoteOnEvent(tick=0, channel=3, data=[62, 100]),\r\n",
      "   midi.NoteOnEvent(tick=192, channel=3, data=[62, 0]),\r\n",
      "   midi.NoteOnEvent(tick=192, channel=3, data=[71, 100]),\r\n",
      "   midi.NoteOnEvent(tick=192, channel=3, data=[71, 0]),\r\n",
      "   midi.NoteOnEvent(tick=0, channel=3, data=[68, 100]),\r\n",
      "   midi.NoteOnEvent(tick=192, channel=3, data=[68, 0]),\r\n",
      "   midi.NoteOnEvent(tick=0, channel=3, data=[71, 100]),\r\n",
      "   midi.NoteOnEvent(tick=192, channel=3, data=[71, 0]),\r\n",
      "   midi.NoteOnEvent(tick=192, channel=3, data=[74, 100]),\r\n",
      "   midi.NoteOnEvent(tick=192, channel=3, data=[74, 0]),\r\n",
      "   midi.NoteOnEvent(tick=0, channel=3, data=[62, 100]),\r\n",
      "   midi.NoteOnEvent(tick=192, channel=3, data=[62, 0]),\r\n",
      "   midi.NoteOnEvent(tick=0, channel=3, data=[64, 100]),\r\n",
      "   midi.NoteOnEvent(tick=192, channel=3, data=[64, 0]),\r\n",
      "   midi.NoteOnEvent(tick=0, channel=3, data=[64, 100]),\r\n",
      "   midi.NoteOnEvent(tick=192, channel=3, data=[64, 0]),\r\n",
      "   midi.NoteOnEvent(tick=0, channel=3, data=[64, 100]),\r\n",
      "   midi.NoteOnEvent(tick=192, channel=3, data=[64, 0]),\r\n",
      "   midi.NoteOnEvent(tick=0, channel=3, data=[60, 100]),\r\n",
      "   midi.NoteOnEvent(tick=576, channel=3, data=[60, 0]),\r\n",
      "   midi.EndOfTrackEvent(tick=0, data=[])]),\r\n",
      " midi.Track(\\\r\n",
      "  [midi.PortEvent(tick=0, data=[0]),\r\n",
      "   midi.TrackNameEvent(tick=0, text='Cello', data=[67, 101, 108, 108, 111]),\r\n",
      "   midi.ProgramChangeEvent(tick=0, channel=4, data=[42]),\r\n",
      "   midi.ControlChangeEvent(tick=0, channel=4, data=[7, 100]),\r\n",
      "   midi.ControlChangeEvent(tick=0, channel=4, data=[10, 84]),\r\n",
      "   midi.NoteOnEvent(tick=960, channel=4, data=[45, 100]),\r\n",
      "   midi.NoteOnEvent(tick=192, channel=4, data=[45, 0]),\r\n",
      "   midi.NoteOnEvent(tick=0, channel=4, data=[57, 100]),\r\n",
      "   midi.NoteOnEvent(tick=384, channel=4, data=[57, 0]),\r\n",
      "   midi.NoteOnEvent(tick=192, channel=4, data=[45, 100]),\r\n",
      "   midi.NoteOnEvent(tick=192, channel=4, data=[45, 0]),\r\n",
      "   midi.NoteOnEvent(tick=0, channel=4, data=[57, 100]),\r\n",
      "   midi.NoteOnEvent(tick=384, channel=4, data=[57, 0]),\r\n",
      "   midi.NoteOnEvent(tick=192, channel=4, data=[45, 100]),\r\n",
      "   midi.NoteOnEvent(tick=192, channel=4, data=[45, 0]),\r\n",
      "   midi.NoteOnEvent(tick=0, channel=4, data=[52, 100]),\r\n",
      "   midi.NoteOnEvent(tick=192, channel=4, data=[52, 0]),\r\n",
      "   midi.NoteOnEvent(tick=0, channel=4, data=[40, 100]),\r\n",
      "   midi.NoteOnEvent(tick=192, channel=4, data=[40, 0]),\r\n",
      "   midi.NoteOnEvent(tick=0, channel=4, data=[45, 100]),\r\n",
      "   midi.NoteOnEvent(tick=192, channel=4, data=[45, 0]),\r\n",
      "   midi.NoteOnEvent(tick=0, channel=4, data=[57, 100]),\r\n",
      "   midi.NoteOnEvent(tick=96, channel=4, data=[57, 0]),\r\n",
      "   midi.NoteOnEvent(tick=0, channel=4, data=[59, 100]),\r\n",
      "   midi.NoteOnEvent(tick=96, channel=4, data=[59, 0]),\r\n",
      "   midi.NoteOnEvent(tick=0, channel=4, data=[60, 100]),\r\n",
      "   midi.NoteOnEvent(tick=192, channel=4, data=[60, 0]),\r\n",
      "   midi.NoteOnEvent(tick=0, channel=4, data=[57, 100]),\r\n",
      "   midi.NoteOnEvent(tick=192, channel=4, data=[57, 0]),\r\n",
      "   midi.NoteOnEvent(tick=0, channel=4, data=[56, 100]),\r\n",
      "   midi.NoteOnEvent(tick=192, channel=4, data=[56, 0]),\r\n",
      "   midi.NoteOnEvent(tick=0, channel=4, data=[52, 100]),\r\n",
      "   midi.NoteOnEvent(tick=192, channel=4, data=[52, 0]),\r\n",
      "   midi.NoteOnEvent(tick=0, channel=4, data=[57, 100]),\r\n",
      "   midi.NoteOnEvent(tick=192, channel=4, data=[57, 0]),\r\n",
      "   midi.NoteOnEvent(tick=0, channel=4, data=[52, 100]),\r\n",
      "   midi.NoteOnEvent(tick=192, channel=4, data=[52, 0]),\r\n",
      "   midi.NoteOnEvent(tick=0, channel=4, data=[59, 100]),\r\n",
      "   midi.NoteOnEvent(tick=192, channel=4, data=[59, 0]),\r\n",
      "   midi.NoteOnEvent(tick=0, channel=4, data=[52, 100]),\r\n",
      "   midi.NoteOnEvent(tick=192, channel=4, data=[52, 0]),\r\n",
      "   midi.NoteOnEvent(tick=0, channel=4, data=[60, 100]),\r\n",
      "   midi.NoteOnEvent(tick=192, channel=4, data=[60, 0]),\r\n",
      "   midi.NoteOnEvent(tick=0, channel=4, data=[52, 100]),\r\n",
      "   midi.NoteOnEvent(tick=192, channel=4, data=[52, 0]),\r\n",
      "   midi.NoteOnEvent(tick=0, channel=4, data=[62, 100]),\r\n",
      "   midi.NoteOnEvent(tick=192, channel=4, data=[62, 0]),\r\n",
      "   midi.NoteOnEvent(tick=0, channel=4, data=[50, 100]),\r\n",
      "   midi.NoteOnEvent(tick=192, channel=4, data=[50, 0]),\r\n",
      "   midi.NoteOnEvent(tick=0, channel=4, data=[52, 100]),\r\n",
      "   midi.NoteOnEvent(tick=192, channel=4, data=[52, 0]),\r\n",
      "   midi.NoteOnEvent(tick=0, channel=4, data=[53, 100]),\r\n",
      "   midi.NoteOnEvent(tick=192, channel=4, data=[53, 0]),\r\n",
      "   midi.NoteOnEvent(tick=0, channel=4, data=[52, 100]),\r\n",
      "   midi.NoteOnEvent(tick=192, channel=4, data=[52, 0]),\r\n",
      "   midi.NoteOnEvent(tick=0, channel=4, data=[40, 100]),\r\n",
      "   midi.NoteOnEvent(tick=192, channel=4, data=[40, 0]),\r\n",
      "   midi.NoteOnEvent(tick=192, channel=4, data=[64, 100]),\r\n",
      "   midi.NoteOnEvent(tick=96, channel=4, data=[64, 0]),\r\n",
      "   midi.NoteOnEvent(tick=0, channel=4, data=[62, 100]),\r\n",
      "   midi.NoteOnEvent(tick=96, channel=4, data=[62, 0]),\r\n",
      "   midi.NoteOnEvent(tick=0, channel=4, data=[60, 100]),\r\n",
      "   midi.NoteOnEvent(tick=192, channel=4, data=[60, 0]),\r\n",
      "   midi.NoteOnEvent(tick=0, channel=4, data=[64, 100]),\r\n",
      "   midi.NoteOnEvent(tick=192, channel=4, data=[64, 0]),\r\n",
      "   midi.NoteOnEvent(tick=0, channel=4, data=[60, 100]),\r\n",
      "   midi.NoteOnEvent(tick=192, channel=4, data=[60, 0]),\r\n",
      "   midi.NoteOnEvent(tick=0, channel=4, data=[57, 100]),\r\n",
      "   midi.NoteOnEvent(tick=192, channel=4, data=[57, 0]),\r\n",
      "   midi.NoteOnEvent(tick=0, channel=4, data=[62, 100]),\r\n",
      "   midi.NoteOnEvent(tick=192, channel=4, data=[62, 0]),\r\n",
      "   midi.NoteOnEvent(tick=0, channel=4, data=[50, 100]),\r\n",
      "   midi.NoteOnEvent(tick=192, channel=4, data=[50, 0]),\r\n",
      "   midi.NoteOnEvent(tick=192, channel=4, data=[62, 100]),\r\n",
      "   midi.NoteOnEvent(tick=96, channel=4, data=[62, 0]),\r\n",
      "   midi.NoteOnEvent(tick=0, channel=4, data=[60, 100]),\r\n",
      "   midi.NoteOnEvent(tick=96, channel=4, data=[60, 0]),\r\n",
      "   midi.NoteOnEvent(tick=0, channel=4, data=[59, 100]),\r\n",
      "   midi.NoteOnEvent(tick=192, channel=4, data=[59, 0]),\r\n",
      "   midi.NoteOnEvent(tick=0, channel=4, data=[62, 100]),\r\n",
      "   midi.NoteOnEvent(tick=192, channel=4, data=[62, 0]),\r\n",
      "   midi.NoteOnEvent(tick=0, channel=4, data=[59, 100]),\r\n",
      "   midi.NoteOnEvent(tick=192, channel=4, data=[59, 0]),\r\n",
      "   midi.NoteOnEvent(tick=0, channel=4, data=[55, 100]),\r\n",
      "   midi.NoteOnEvent(tick=192, channel=4, data=[55, 0]),\r\n",
      "   midi.NoteOnEvent(tick=0, channel=4, data=[60, 100]),\r\n",
      "   midi.NoteOnEvent(tick=192, channel=4, data=[60, 0]),\r\n",
      "   midi.NoteOnEvent(tick=0, channel=4, data=[48, 100]),\r\n",
      "   midi.NoteOnEvent(tick=192, channel=4, data=[48, 0]),\r\n",
      "   midi.NoteOnEvent(tick=192, channel=4, data=[60, 100]),\r\n",
      "   midi.NoteOnEvent(tick=96, channel=4, data=[60, 0]),\r\n",
      "   midi.NoteOnEvent(tick=0, channel=4, data=[59, 100]),\r\n",
      "   midi.NoteOnEvent(tick=96, channel=4, data=[59, 0]),\r\n",
      "   midi.NoteOnEvent(tick=0, channel=4, data=[57, 100]),\r\n",
      "   midi.NoteOnEvent(tick=96, channel=4, data=[57, 0]),\r\n",
      "   midi.NoteOnEvent(tick=0, channel=4, data=[59, 100]),\r\n",
      "   midi.NoteOnEvent(tick=96, channel=4, data=[59, 0]),\r\n",
      "   midi.NoteOnEvent(tick=0, channel=4, data=[57, 100]),\r\n",
      "   midi.NoteOnEvent(tick=96, channel=4, data=[57, 0]),\r\n",
      "   midi.NoteOnEvent(tick=0, channel=4, data=[55, 100]),\r\n",
      "   midi.NoteOnEvent(tick=96, channel=4, data=[55, 0]),\r\n",
      "   midi.NoteOnEvent(tick=0, channel=4, data=[54, 100]),\r\n",
      "   midi.NoteOnEvent(tick=96, channel=4, data=[54, 0]),\r\n",
      "   midi.NoteOnEvent(tick=0, channel=4, data=[55, 100]),\r\n",
      "   midi.NoteOnEvent(tick=96, channel=4, data=[55, 0]),\r\n",
      "   midi.NoteOnEvent(tick=0, channel=4, data=[54, 100]),\r\n",
      "   midi.NoteOnEvent(tick=96, channel=4, data=[54, 0]),\r\n",
      "   midi.NoteOnEvent(tick=0, channel=4, data=[52, 100]),\r\n",
      "   midi.NoteOnEvent(tick=96, channel=4, data=[52, 0]),\r\n",
      "   midi.NoteOnEvent(tick=0, channel=4, data=[51, 100]),\r\n",
      "   midi.NoteOnEvent(tick=96, channel=4, data=[51, 0]),\r\n",
      "   midi.NoteOnEvent(tick=0, channel=4, data=[47, 100]),\r\n",
      "   midi.NoteOnEvent(tick=96, channel=4, data=[47, 0]),\r\n",
      "   midi.NoteOnEvent(tick=0, channel=4, data=[49, 100]),\r\n",
      "   midi.NoteOnEvent(tick=96, channel=4, data=[49, 0]),\r\n",
      "   midi.NoteOnEvent(tick=0, channel=4, data=[51, 100]),\r\n",
      "   midi.NoteOnEvent(tick=96, channel=4, data=[51, 0]),\r\n",
      "   midi.NoteOnEvent(tick=0, channel=4, data=[52, 100]),\r\n",
      "   midi.NoteOnEvent(tick=96, channel=4, data=[52, 0]),\r\n",
      "   midi.NoteOnEvent(tick=0, channel=4, data=[54, 100]),\r\n",
      "   midi.NoteOnEvent(tick=96, channel=4, data=[54, 0]),\r\n",
      "   midi.NoteOnEvent(tick=0, channel=4, data=[55, 100]),\r\n",
      "   midi.NoteOnEvent(tick=96, channel=4, data=[55, 0]),\r\n",
      "   midi.NoteOnEvent(tick=0, channel=4, data=[52, 100]),\r\n",
      "   midi.NoteOnEvent(tick=96, channel=4, data=[52, 0]),\r\n",
      "   midi.NoteOnEvent(tick=0, channel=4, data=[48, 100]),\r\n",
      "   midi.NoteOnEvent(tick=192, channel=4, data=[48, 0]),\r\n",
      "   midi.NoteOnEvent(tick=0, channel=4, data=[47, 100]),\r\n",
      "   midi.NoteOnEvent(tick=192, channel=4, data=[47, 0]),\r\n",
      "   midi.NoteOnEvent(tick=0, channel=4, data=[48, 100]),\r\n",
      "   midi.NoteOnEvent(tick=192, channel=4, data=[48, 0]),\r\n",
      "   midi.NoteOnEvent(tick=0, channel=4, data=[45, 100]),\r\n",
      "   midi.NoteOnEvent(tick=192, channel=4, data=[45, 0]),\r\n",
      "   midi.NoteOnEvent(tick=0, channel=4, data=[47, 100]),\r\n",
      "   midi.NoteOnEvent(tick=288, channel=4, data=[47, 0]),\r\n",
      "   midi.NoteOnEvent(tick=0, channel=4, data=[49, 100]),\r\n",
      "   midi.NoteOnEvent(tick=48, channel=4, data=[49, 0]),\r\n",
      "   midi.NoteOnEvent(tick=0, channel=4, data=[51, 100]),\r\n",
      "   midi.NoteOnEvent(tick=48, channel=4, data=[51, 0]),\r\n",
      "   midi.NoteOnEvent(tick=0, channel=4, data=[52, 100]),\r\n",
      "   midi.NoteOnEvent(tick=96, channel=4, data=[52, 0]),\r\n",
      "   midi.NoteOnEvent(tick=0, channel=4, data=[54, 100]),\r\n",
      "   midi.NoteOnEvent(tick=96, channel=4, data=[54, 0]),\r\n",
      "   midi.NoteOnEvent(tick=0, channel=4, data=[55, 100]),\r\n",
      "   midi.NoteOnEvent(tick=96, channel=4, data=[55, 0]),\r\n",
      "   midi.NoteOnEvent(tick=0, channel=4, data=[57, 100]),\r\n",
      "   midi.NoteOnEvent(tick=96, channel=4, data=[57, 0]),\r\n",
      "   midi.NoteOnEvent(tick=0, channel=4, data=[59, 100]),\r\n",
      "   midi.NoteOnEvent(tick=192, channel=4, data=[59, 0]),\r\n",
      "   midi.NoteOnEvent(tick=0, channel=4, data=[57, 100]),\r\n",
      "   midi.NoteOnEvent(tick=192, channel=4, data=[57, 0]),\r\n",
      "   midi.NoteOnEvent(tick=0, channel=4, data=[59, 100]),\r\n",
      "   midi.NoteOnEvent(tick=192, channel=4, data=[59, 0]),\r\n",
      "   midi.NoteOnEvent(tick=0, channel=4, data=[47, 100]),\r\n",
      "   midi.NoteOnEvent(tick=192, channel=4, data=[47, 0]),\r\n",
      "   midi.NoteOnEvent(tick=0, channel=4, data=[57, 100]),\r\n",
      "   midi.NoteOnEvent(tick=192, channel=4, data=[57, 0]),\r\n",
      "   midi.NoteOnEvent(tick=0, channel=4, data=[55, 100]),\r\n",
      "   midi.NoteOnEvent(tick=192, channel=4, data=[55, 0]),\r\n",
      "   midi.NoteOnEvent(tick=0, channel=4, data=[57, 100]),\r\n",
      "   midi.NoteOnEvent(tick=192, channel=4, data=[57, 0]),\r\n",
      "   midi.NoteOnEvent(tick=0, channel=4, data=[45, 100]),\r\n",
      "   midi.NoteOnEvent(tick=192, channel=4, data=[45, 0]),\r\n",
      "   midi.NoteOnEvent(tick=0, channel=4, data=[43, 100]),\r\n",
      "   midi.NoteOnEvent(tick=192, channel=4, data=[43, 0]),\r\n",
      "   midi.NoteOnEvent(tick=0, channel=4, data=[48, 100]),\r\n",
      "   midi.NoteOnEvent(tick=192, channel=4, data=[48, 0]),\r\n",
      "   midi.NoteOnEvent(tick=0, channel=4, data=[45, 100]),\r\n",
      "   midi.NoteOnEvent(tick=192, channel=4, data=[45, 0]),\r\n",
      "   midi.NoteOnEvent(tick=0, channel=4, data=[47, 100]),\r\n",
      "   midi.NoteOnEvent(tick=192, channel=4, data=[47, 0]),\r\n",
      "   midi.NoteOnEvent(tick=0, channel=4, data=[40, 100]),\r\n",
      "   midi.NoteOnEvent(tick=384, channel=4, data=[40, 0]),\r\n",
      "   midi.NoteOnEvent(tick=192, channel=4, data=[60, 100]),\r\n",
      "   midi.NoteOnEvent(tick=192, channel=4, data=[60, 0]),\r\n",
      "   midi.NoteOnEvent(tick=0, channel=4, data=[51, 100]),\r\n",
      "   midi.NoteOnEvent(tick=192, channel=4, data=[51, 0]),\r\n",
      "   midi.NoteOnEvent(tick=0, channel=4, data=[51, 100]),\r\n",
      "   midi.NoteOnEvent(tick=192, channel=4, data=[51, 0]),\r\n",
      "   midi.NoteOnEvent(tick=0, channel=4, data=[51, 100]),\r\n",
      "   midi.NoteOnEvent(tick=192, channel=4, data=[51, 0]),\r\n",
      "   midi.NoteOnEvent(tick=0, channel=4, data=[54, 100]),\r\n",
      "   midi.NoteOnEvent(tick=192, channel=4, data=[54, 0]),\r\n",
      "   midi.NoteOnEvent(tick=0, channel=4, data=[45, 100]),\r\n",
      "   midi.NoteOnEvent(tick=192, channel=4, data=[45, 0]),\r\n",
      "   midi.NoteOnEvent(tick=0, channel=4, data=[45, 100]),\r\n",
      "   midi.NoteOnEvent(tick=192, channel=4, data=[45, 0]),\r\n",
      "   midi.NoteOnEvent(tick=0, channel=4, data=[45, 100]),\r\n",
      "   midi.NoteOnEvent(tick=192, channel=4, data=[45, 0]),\r\n",
      "   midi.NoteOnEvent(tick=0, channel=4, data=[48, 100]),\r\n",
      "   midi.NoteOnEvent(tick=192, channel=4, data=[48, 0]),\r\n",
      "   midi.NoteOnEvent(tick=0, channel=4, data=[42, 100]),\r\n",
      "   midi.NoteOnEvent(tick=192, channel=4, data=[42, 0]),\r\n",
      "   midi.NoteOnEvent(tick=0, channel=4, data=[40, 100]),\r\n",
      "   midi.NoteOnEvent(tick=192, channel=4, data=[40, 0]),\r\n",
      "   midi.NoteOnEvent(tick=0, channel=4, data=[47, 100]),\r\n",
      "   midi.NoteOnEvent(tick=192, channel=4, data=[47, 0]),\r\n",
      "   midi.NoteOnEvent(tick=0, channel=4, data=[47, 100]),\r\n",
      "   midi.NoteOnEvent(tick=192, channel=4, data=[47, 0]),\r\n",
      "   midi.NoteOnEvent(tick=0, channel=4, data=[40, 100]),\r\n",
      "   midi.NoteOnEvent(tick=192, channel=4, data=[40, 0]),\r\n",
      "   midi.NoteOnEvent(tick=0, channel=4, data=[52, 100]),\r\n",
      "   midi.NoteOnEvent(tick=96, channel=4, data=[52, 0]),\r\n",
      "   midi.NoteOnEvent(tick=0, channel=4, data=[50, 100]),\r\n",
      "   midi.NoteOnEvent(tick=96, channel=4, data=[50, 0]),\r\n",
      "   midi.NoteOnEvent(tick=0, channel=4, data=[48, 100]),\r\n",
      "   midi.NoteOnEvent(tick=192, channel=4, data=[48, 0]),\r\n",
      "   midi.NoteOnEvent(tick=0, channel=4, data=[47, 100]),\r\n",
      "   midi.NoteOnEvent(tick=192, channel=4, data=[47, 0]),\r\n",
      "   midi.NoteOnEvent(tick=0, channel=4, data=[45, 100]),\r\n",
      "   midi.NoteOnEvent(tick=384, channel=4, data=[45, 0]),\r\n",
      "   midi.NoteOnEvent(tick=192, channel=4, data=[57, 100]),\r\n",
      "   midi.NoteOnEvent(tick=192, channel=4, data=[57, 0]),\r\n",
      "   midi.NoteOnEvent(tick=0, channel=4, data=[64, 100]),\r\n",
      "   midi.NoteOnEvent(tick=384, channel=4, data=[64, 0]),\r\n",
      "   midi.NoteOnEvent(tick=192, channel=4, data=[52, 100]),\r\n",
      "   midi.NoteOnEvent(tick=192, channel=4, data=[52, 0]),\r\n",
      "   midi.NoteOnEvent(tick=0, channel=4, data=[44, 100]),\r\n",
      "   midi.NoteOnEvent(tick=384, channel=4, data=[44, 0]),\r\n",
      "   midi.NoteOnEvent(tick=192, channel=4, data=[52, 100]),\r\n",
      "   midi.NoteOnEvent(tick=192, channel=4, data=[52, 0]),\r\n",
      "   midi.NoteOnEvent(tick=0, channel=4, data=[57, 100]),\r\n",
      "   midi.NoteOnEvent(tick=384, channel=4, data=[57, 0]),\r\n",
      "   midi.NoteOnEvent(tick=192, channel=4, data=[57, 100]),\r\n",
      "   midi.NoteOnEvent(tick=192, channel=4, data=[57, 0]),\r\n",
      "   midi.NoteOnEvent(tick=0, channel=4, data=[45, 100]),\r\n",
      "   midi.NoteOnEvent(tick=192, channel=4, data=[45, 0]),\r\n",
      "   midi.NoteOnEvent(tick=0, channel=4, data=[48, 100]),\r\n",
      "   midi.NoteOnEvent(tick=192, channel=4, data=[48, 0]),\r\n",
      "   midi.NoteOnEvent(tick=0, channel=4, data=[50, 100]),\r\n",
      "   midi.NoteOnEvent(tick=192, channel=4, data=[50, 0]),\r\n",
      "   midi.NoteOnEvent(tick=0, channel=4, data=[53, 100]),\r\n",
      "   midi.NoteOnEvent(tick=192, channel=4, data=[53, 0]),\r\n",
      "   midi.NoteOnEvent(tick=0, channel=4, data=[43, 100]),\r\n",
      "   midi.NoteOnEvent(tick=192, channel=4, data=[43, 0]),\r\n",
      "   midi.NoteOnEvent(tick=0, channel=4, data=[47, 100]),\r\n",
      "   midi.NoteOnEvent(tick=192, channel=4, data=[47, 0]),\r\n",
      "   midi.NoteOnEvent(tick=0, channel=4, data=[48, 100]),\r\n",
      "   midi.NoteOnEvent(tick=192, channel=4, data=[48, 0]),\r\n",
      "   midi.NoteOnEvent(tick=0, channel=4, data=[52, 100]),\r\n",
      "   midi.NoteOnEvent(tick=192, channel=4, data=[52, 0]),\r\n",
      "   midi.NoteOnEvent(tick=0, channel=4, data=[53, 100]),\r\n",
      "   midi.NoteOnEvent(tick=192, channel=4, data=[53, 0]),\r\n",
      "   midi.NoteOnEvent(tick=0, channel=4, data=[57, 100]),\r\n",
      "   midi.NoteOnEvent(tick=192, channel=4, data=[57, 0]),\r\n",
      "   midi.NoteOnEvent(tick=0, channel=4, data=[47, 100]),\r\n",
      "   midi.NoteOnEvent(tick=192, channel=4, data=[47, 0]),\r\n",
      "   midi.NoteOnEvent(tick=0, channel=4, data=[50, 100]),\r\n",
      "   midi.NoteOnEvent(tick=192, channel=4, data=[50, 0]),\r\n",
      "   midi.NoteOnEvent(tick=0, channel=4, data=[40, 100]),\r\n",
      "   midi.NoteOnEvent(tick=192, channel=4, data=[40, 0]),\r\n",
      "   midi.NoteOnEvent(tick=0, channel=4, data=[52, 100]),\r\n",
      "   midi.NoteOnEvent(tick=192, channel=4, data=[52, 0]),\r\n",
      "   midi.NoteOnEvent(tick=0, channel=4, data=[56, 100]),\r\n",
      "   midi.NoteOnEvent(tick=192, channel=4, data=[56, 0]),\r\n",
      "   midi.NoteOnEvent(tick=0, channel=4, data=[52, 100]),\r\n",
      "   midi.NoteOnEvent(tick=192, channel=4, data=[52, 0]),\r\n",
      "   midi.NoteOnEvent(tick=192, channel=4, data=[57, 100]),\r\n",
      "   midi.NoteOnEvent(tick=192, channel=4, data=[57, 0]),\r\n",
      "   midi.NoteOnEvent(tick=0, channel=4, data=[60, 100]),\r\n",
      "   midi.NoteOnEvent(tick=192, channel=4, data=[60, 0]),\r\n",
      "   midi.NoteOnEvent(tick=0, channel=4, data=[57, 100]),\r\n",
      "   midi.NoteOnEvent(tick=192, channel=4, data=[57, 0]),\r\n",
      "   midi.NoteOnEvent(tick=192, channel=4, data=[57, 100]),\r\n",
      "   midi.NoteOnEvent(tick=192, channel=4, data=[57, 0]),\r\n",
      "   midi.NoteOnEvent(tick=0, channel=4, data=[53, 100]),\r\n",
      "   midi.NoteOnEvent(tick=192, channel=4, data=[53, 0]),\r\n",
      "   midi.NoteOnEvent(tick=0, channel=4, data=[50, 100]),\r\n",
      "   midi.NoteOnEvent(tick=192, channel=4, data=[50, 0]),\r\n",
      "   midi.NoteOnEvent(tick=192, channel=4, data=[55, 100]),\r\n",
      "   midi.NoteOnEvent(tick=192, channel=4, data=[55, 0]),\r\n",
      "   midi.NoteOnEvent(tick=0, channel=4, data=[59, 100]),\r\n",
      "   midi.NoteOnEvent(tick=192, channel=4, data=[59, 0]),\r\n",
      "   midi.NoteOnEvent(tick=0, channel=4, data=[55, 100]),\r\n",
      "   midi.NoteOnEvent(tick=192, channel=4, data=[55, 0]),\r\n",
      "   midi.NoteOnEvent(tick=192, channel=4, data=[55, 100]),\r\n",
      "   midi.NoteOnEvent(tick=192, channel=4, data=[55, 0]),\r\n",
      "   midi.NoteOnEvent(tick=0, channel=4, data=[52, 100]),\r\n",
      "   midi.NoteOnEvent(tick=192, channel=4, data=[52, 0]),\r\n",
      "   midi.NoteOnEvent(tick=0, channel=4, data=[48, 100]),\r\n",
      "   midi.NoteOnEvent(tick=192, channel=4, data=[48, 0]),\r\n",
      "   midi.NoteOnEvent(tick=192, channel=4, data=[53, 100]),\r\n",
      "   midi.NoteOnEvent(tick=192, channel=4, data=[53, 0]),\r\n",
      "   midi.NoteOnEvent(tick=0, channel=4, data=[57, 100]),\r\n",
      "   midi.NoteOnEvent(tick=192, channel=4, data=[57, 0]),\r\n",
      "   midi.NoteOnEvent(tick=0, channel=4, data=[53, 100]),\r\n",
      "   midi.NoteOnEvent(tick=192, channel=4, data=[53, 0]),\r\n",
      "   midi.NoteOnEvent(tick=192, channel=4, data=[53, 100]),\r\n",
      "   midi.NoteOnEvent(tick=192, channel=4, data=[53, 0]),\r\n",
      "   midi.NoteOnEvent(tick=0, channel=4, data=[50, 100]),\r\n",
      "   midi.NoteOnEvent(tick=192, channel=4, data=[50, 0]),\r\n",
      "   midi.NoteOnEvent(tick=0, channel=4, data=[47, 100]),\r\n",
      "   midi.NoteOnEvent(tick=192, channel=4, data=[47, 0]),\r\n",
      "   midi.NoteOnEvent(tick=192, channel=4, data=[52, 100]),\r\n",
      "   midi.NoteOnEvent(tick=192, channel=4, data=[52, 0]),\r\n",
      "   midi.NoteOnEvent(tick=0, channel=4, data=[56, 100]),\r\n",
      "   midi.NoteOnEvent(tick=192, channel=4, data=[56, 0]),\r\n",
      "   midi.NoteOnEvent(tick=0, channel=4, data=[52, 100]),\r\n",
      "   midi.NoteOnEvent(tick=192, channel=4, data=[52, 0]),\r\n",
      "   midi.NoteOnEvent(tick=192, channel=4, data=[52, 100]),\r\n",
      "   midi.NoteOnEvent(tick=192, channel=4, data=[52, 0]),\r\n",
      "   midi.NoteOnEvent(tick=0, channel=4, data=[48, 100]),\r\n",
      "   midi.NoteOnEvent(tick=192, channel=4, data=[48, 0]),\r\n",
      "   midi.NoteOnEvent(tick=0, channel=4, data=[45, 100]),\r\n",
      "   midi.NoteOnEvent(tick=192, channel=4, data=[45, 0]),\r\n",
      "   midi.NoteOnEvent(tick=0, channel=4, data=[57, 100]),\r\n",
      "   midi.NoteOnEvent(tick=384, channel=4, data=[57, 0]),\r\n",
      "   midi.NoteOnEvent(tick=192, channel=4, data=[45, 100]),\r\n",
      "   midi.NoteOnEvent(tick=192, channel=4, data=[45, 0]),\r\n",
      "   midi.NoteOnEvent(tick=0, channel=4, data=[57, 100]),\r\n",
      "   midi.NoteOnEvent(tick=192, channel=4, data=[57, 0]),\r\n",
      "   midi.NoteOnEvent(tick=0, channel=4, data=[45, 100]),\r\n",
      "   midi.NoteOnEvent(tick=192, channel=4, data=[45, 0]),\r\n",
      "   midi.NoteOnEvent(tick=0, channel=4, data=[52, 100]),\r\n",
      "   midi.NoteOnEvent(tick=192, channel=4, data=[52, 0]),\r\n",
      "   midi.NoteOnEvent(tick=0, channel=4, data=[40, 100]),\r\n",
      "   midi.NoteOnEvent(tick=192, channel=4, data=[40, 0]),\r\n",
      "   midi.NoteOnEvent(tick=0, channel=4, data=[45, 100]),\r\n",
      "   midi.NoteOnEvent(tick=192, channel=4, data=[45, 0]),\r\n",
      "   midi.NoteOnEvent(tick=0, channel=4, data=[57, 100]),\r\n",
      "   midi.NoteOnEvent(tick=96, channel=4, data=[57, 0]),\r\n",
      "   midi.NoteOnEvent(tick=0, channel=4, data=[59, 100]),\r\n",
      "   midi.NoteOnEvent(tick=96, channel=4, data=[59, 0]),\r\n",
      "   midi.NoteOnEvent(tick=0, channel=4, data=[60, 100]),\r\n",
      "   midi.NoteOnEvent(tick=192, channel=4, data=[60, 0]),\r\n",
      "   midi.NoteOnEvent(tick=0, channel=4, data=[57, 100]),\r\n",
      "   midi.NoteOnEvent(tick=192, channel=4, data=[57, 0]),\r\n",
      "   midi.NoteOnEvent(tick=0, channel=4, data=[45, 100]),\r\n",
      "   midi.NoteOnEvent(tick=192, channel=4, data=[45, 0]),\r\n",
      "   midi.NoteOnEvent(tick=768, channel=4, data=[55, 100]),\r\n",
      "   midi.NoteOnEvent(tick=96, channel=4, data=[55, 0]),\r\n",
      "   midi.NoteOnEvent(tick=0, channel=4, data=[57, 100]),\r\n",
      "   midi.NoteOnEvent(tick=96, channel=4, data=[57, 0]),\r\n",
      "   midi.NoteOnEvent(tick=0, channel=4, data=[59, 100]),\r\n",
      "   midi.NoteOnEvent(tick=192, channel=4, data=[59, 0]),\r\n",
      "   midi.NoteOnEvent(tick=0, channel=4, data=[55, 100]),\r\n",
      "   midi.NoteOnEvent(tick=192, channel=4, data=[55, 0]),\r\n",
      "   midi.NoteOnEvent(tick=0, channel=4, data=[43, 100]),\r\n",
      "   midi.NoteOnEvent(tick=192, channel=4, data=[43, 0]),\r\n",
      "   midi.NoteOnEvent(tick=768, channel=4, data=[53, 100]),\r\n",
      "   midi.NoteOnEvent(tick=96, channel=4, data=[53, 0]),\r\n",
      "   midi.NoteOnEvent(tick=0, channel=4, data=[55, 100]),\r\n",
      "   midi.NoteOnEvent(tick=96, channel=4, data=[55, 0]),\r\n",
      "   midi.NoteOnEvent(tick=0, channel=4, data=[57, 100]),\r\n",
      "   midi.NoteOnEvent(tick=192, channel=4, data=[57, 0]),\r\n",
      "   midi.NoteOnEvent(tick=0, channel=4, data=[53, 100]),\r\n",
      "   midi.NoteOnEvent(tick=192, channel=4, data=[53, 0]),\r\n",
      "   midi.NoteOnEvent(tick=0, channel=4, data=[41, 100]),\r\n",
      "   midi.NoteOnEvent(tick=192, channel=4, data=[41, 0]),\r\n",
      "   midi.NoteOnEvent(tick=768, channel=4, data=[53, 100]),\r\n",
      "   midi.NoteOnEvent(tick=192, channel=4, data=[53, 0]),\r\n",
      "   midi.NoteOnEvent(tick=0, channel=4, data=[52, 100]),\r\n",
      "   midi.NoteOnEvent(tick=192, channel=4, data=[52, 0]),\r\n",
      "   midi.NoteOnEvent(tick=0, channel=4, data=[50, 100]),\r\n",
      "   midi.NoteOnEvent(tick=192, channel=4, data=[50, 0]),\r\n",
      "   midi.NoteOnEvent(tick=0, channel=4, data=[48, 100]),\r\n",
      "   midi.NoteOnEvent(tick=192, channel=4, data=[48, 0]),\r\n",
      "   midi.NoteOnEvent(tick=0, channel=4, data=[60, 100]),\r\n",
      "   midi.NoteOnEvent(tick=192, channel=4, data=[60, 0]),\r\n",
      "   midi.NoteOnEvent(tick=0, channel=4, data=[59, 100]),\r\n",
      "   midi.NoteOnEvent(tick=192, channel=4, data=[59, 0]),\r\n",
      "   midi.NoteOnEvent(tick=0, channel=4, data=[57, 100]),\r\n",
      "   midi.NoteOnEvent(tick=192, channel=4, data=[57, 0]),\r\n",
      "   midi.NoteOnEvent(tick=0, channel=4, data=[55, 100]),\r\n",
      "   midi.NoteOnEvent(tick=192, channel=4, data=[55, 0]),\r\n",
      "   midi.NoteOnEvent(tick=0, channel=4, data=[57, 100]),\r\n",
      "   midi.NoteOnEvent(tick=192, channel=4, data=[57, 0]),\r\n",
      "   midi.NoteOnEvent(tick=0, channel=4, data=[55, 100]),\r\n",
      "   midi.NoteOnEvent(tick=192, channel=4, data=[55, 0]),\r\n",
      "   midi.NoteOnEvent(tick=0, channel=4, data=[53, 100]),\r\n",
      "   midi.NoteOnEvent(tick=192, channel=4, data=[53, 0]),\r\n",
      "   midi.NoteOnEvent(tick=0, channel=4, data=[52, 100]),\r\n",
      "   midi.NoteOnEvent(tick=192, channel=4, data=[52, 0]),\r\n",
      "   midi.NoteOnEvent(tick=0, channel=4, data=[55, 100]),\r\n",
      "   midi.NoteOnEvent(tick=192, channel=4, data=[55, 0]),\r\n",
      "   midi.NoteOnEvent(tick=0, channel=4, data=[52, 100]),\r\n",
      "   midi.NoteOnEvent(tick=192, channel=4, data=[52, 0]),\r\n",
      "   midi.NoteOnEvent(tick=0, channel=4, data=[48, 100]),\r\n",
      "   midi.NoteOnEvent(tick=192, channel=4, data=[48, 0]),\r\n",
      "   midi.NoteOnEvent(tick=0, channel=4, data=[53, 100]),\r\n",
      "   midi.NoteOnEvent(tick=192, channel=4, data=[53, 0]),\r\n",
      "   midi.NoteOnEvent(tick=0, channel=4, data=[57, 100]),\r\n",
      "   midi.NoteOnEvent(tick=192, channel=4, data=[57, 0]),\r\n",
      "   midi.NoteOnEvent(tick=0, channel=4, data=[53, 100]),\r\n",
      "   midi.NoteOnEvent(tick=192, channel=4, data=[53, 0]),\r\n",
      "   midi.NoteOnEvent(tick=0, channel=4, data=[50, 100]),\r\n",
      "   midi.NoteOnEvent(tick=192, channel=4, data=[50, 0]),\r\n",
      "   midi.NoteOnEvent(tick=0, channel=4, data=[52, 100]),\r\n",
      "   midi.NoteOnEvent(tick=192, channel=4, data=[52, 0]),\r\n",
      "   midi.NoteOnEvent(tick=0, channel=4, data=[48, 100]),\r\n",
      "   midi.NoteOnEvent(tick=192, channel=4, data=[48, 0]),\r\n",
      "   midi.NoteOnEvent(tick=0, channel=4, data=[55, 100]),\r\n",
      "   midi.NoteOnEvent(tick=192, channel=4, data=[55, 0]),\r\n",
      "   midi.NoteOnEvent(tick=0, channel=4, data=[43, 100]),\r\n",
      "   midi.NoteOnEvent(tick=192, channel=4, data=[43, 0]),\r\n",
      "   midi.NoteOnEvent(tick=0, channel=4, data=[36, 100]),\r\n",
      "   midi.NoteOnEvent(tick=192, channel=4, data=[36, 0]),\r\n",
      "   midi.NoteOnEvent(tick=0, channel=4, data=[48, 100]),\r\n",
      "   midi.NoteOnEvent(tick=96, channel=4, data=[48, 0]),\r\n",
      "   midi.NoteOnEvent(tick=0, channel=4, data=[50, 100]),\r\n",
      "   midi.NoteOnEvent(tick=96, channel=4, data=[50, 0]),\r\n",
      "   midi.NoteOnEvent(tick=0, channel=4, data=[52, 100]),\r\n",
      "   midi.NoteOnEvent(tick=192, channel=4, data=[52, 0]),\r\n",
      "   midi.NoteOnEvent(tick=0, channel=4, data=[48, 100]),\r\n",
      "   midi.NoteOnEvent(tick=192, channel=4, data=[48, 0]),\r\n",
      "   midi.NoteOnEvent(tick=0, channel=4, data=[47, 100]),\r\n",
      "   midi.NoteOnEvent(tick=192, channel=4, data=[47, 0]),\r\n",
      "   midi.NoteOnEvent(tick=0, channel=4, data=[55, 100]),\r\n",
      "   midi.NoteOnEvent(tick=192, channel=4, data=[55, 0]),\r\n",
      "   midi.NoteOnEvent(tick=0, channel=4, data=[48, 100]),\r\n",
      "   midi.NoteOnEvent(tick=192, channel=4, data=[48, 0]),\r\n",
      "   midi.NoteOnEvent(tick=0, channel=4, data=[55, 100]),\r\n",
      "   midi.NoteOnEvent(tick=192, channel=4, data=[55, 0]),\r\n",
      "   midi.NoteOnEvent(tick=0, channel=4, data=[50, 100]),\r\n",
      "   midi.NoteOnEvent(tick=192, channel=4, data=[50, 0]),\r\n",
      "   midi.NoteOnEvent(tick=0, channel=4, data=[55, 100]),\r\n",
      "   midi.NoteOnEvent(tick=192, channel=4, data=[55, 0]),\r\n",
      "   midi.NoteOnEvent(tick=0, channel=4, data=[52, 100]),\r\n",
      "   midi.NoteOnEvent(tick=192, channel=4, data=[52, 0]),\r\n",
      "   midi.NoteOnEvent(tick=0, channel=4, data=[55, 100]),\r\n",
      "   midi.NoteOnEvent(tick=192, channel=4, data=[55, 0]),\r\n",
      "   midi.NoteOnEvent(tick=0, channel=4, data=[53, 100]),\r\n",
      "   midi.NoteOnEvent(tick=192, channel=4, data=[53, 0]),\r\n",
      "   midi.NoteOnEvent(tick=0, channel=4, data=[55, 100]),\r\n",
      "   midi.NoteOnEvent(tick=192, channel=4, data=[55, 0]),\r\n",
      "   midi.NoteOnEvent(tick=0, channel=4, data=[57, 100]),\r\n",
      "   midi.NoteOnEvent(tick=192, channel=4, data=[57, 0]),\r\n",
      "   midi.NoteOnEvent(tick=0, channel=4, data=[53, 100]),\r",
      "\r\n",
      "   midi.NoteOnEvent(tick=192, channel=4, data=[53, 0]),\r\n",
      "   midi.NoteOnEvent(tick=0, channel=4, data=[55, 100]),\r\n",
      "   midi.NoteOnEvent(tick=96, channel=4, data=[55, 0]),\r\n",
      "   midi.NoteOnEvent(tick=0, channel=4, data=[57, 100]),\r\n",
      "   midi.NoteOnEvent(tick=96, channel=4, data=[57, 0]),\r\n",
      "   midi.NoteOnEvent(tick=0, channel=4, data=[59, 100]),\r\n",
      "   midi.NoteOnEvent(tick=96, channel=4, data=[59, 0]),\r\n",
      "   midi.NoteOnEvent(tick=0, channel=4, data=[57, 100]),\r\n",
      "   midi.NoteOnEvent(tick=96, channel=4, data=[57, 0]),\r\n",
      "   midi.NoteOnEvent(tick=0, channel=4, data=[55, 100]),\r\n",
      "   midi.NoteOnEvent(tick=96, channel=4, data=[55, 0]),\r\n",
      "   midi.NoteOnEvent(tick=0, channel=4, data=[53, 100]),\r\n",
      "   midi.NoteOnEvent(tick=96, channel=4, data=[53, 0]),\r\n",
      "   midi.NoteOnEvent(tick=0, channel=4, data=[52, 100]),\r\n",
      "   midi.NoteOnEvent(tick=96, channel=4, data=[52, 0]),\r\n",
      "   midi.NoteOnEvent(tick=0, channel=4, data=[50, 100]),\r\n",
      "   midi.NoteOnEvent(tick=96, channel=4, data=[50, 0]),\r\n",
      "   midi.NoteOnEvent(tick=0, channel=4, data=[48, 100]),\r\n",
      "   midi.NoteOnEvent(tick=192, channel=4, data=[48, 0]),\r\n",
      "   midi.NoteOnEvent(tick=0, channel=4, data=[52, 100]),\r\n",
      "   midi.NoteOnEvent(tick=192, channel=4, data=[52, 0]),\r\n",
      "   midi.NoteOnEvent(tick=0, channel=4, data=[48, 100]),\r\n",
      "   midi.NoteOnEvent(tick=192, channel=4, data=[48, 0]),\r\n",
      "   midi.NoteOnEvent(tick=0, channel=4, data=[45, 100]),\r\n",
      "   midi.NoteOnEvent(tick=192, channel=4, data=[45, 0]),\r\n",
      "   midi.NoteOnEvent(tick=0, channel=4, data=[50, 100]),\r\n",
      "   midi.NoteOnEvent(tick=192, channel=4, data=[50, 0]),\r\n",
      "   midi.NoteOnEvent(tick=0, channel=4, data=[38, 100]),\r\n",
      "   midi.NoteOnEvent(tick=192, channel=4, data=[38, 0]),\r\n",
      "   midi.NoteOnEvent(tick=1344, channel=4, data=[54, 100]),\r\n",
      "   midi.NoteOnEvent(tick=96, channel=4, data=[54, 0]),\r\n",
      "   midi.NoteOnEvent(tick=0, channel=4, data=[52, 100]),\r\n",
      "   midi.NoteOnEvent(tick=96, channel=4, data=[52, 0]),\r\n",
      "   midi.NoteOnEvent(tick=0, channel=4, data=[50, 100]),\r\n",
      "   midi.NoteOnEvent(tick=96, channel=4, data=[50, 0]),\r\n",
      "   midi.NoteOnEvent(tick=0, channel=4, data=[48, 100]),\r\n",
      "   midi.NoteOnEvent(tick=96, channel=4, data=[48, 0]),\r\n",
      "   midi.NoteOnEvent(tick=0, channel=4, data=[47, 100]),\r\n",
      "   midi.NoteOnEvent(tick=96, channel=4, data=[47, 0]),\r\n",
      "   midi.NoteOnEvent(tick=0, channel=4, data=[45, 100]),\r\n",
      "   midi.NoteOnEvent(tick=96, channel=4, data=[45, 0]),\r\n",
      "   midi.NoteOnEvent(tick=0, channel=4, data=[47, 100]),\r\n",
      "   midi.NoteOnEvent(tick=192, channel=4, data=[47, 0]),\r\n",
      "   midi.NoteOnEvent(tick=0, channel=4, data=[50, 100]),\r\n",
      "   midi.NoteOnEvent(tick=192, channel=4, data=[50, 0]),\r\n",
      "   midi.NoteOnEvent(tick=0, channel=4, data=[47, 100]),\r\n",
      "   midi.NoteOnEvent(tick=192, channel=4, data=[47, 0]),\r\n",
      "   midi.NoteOnEvent(tick=0, channel=4, data=[43, 100]),\r\n",
      "   midi.NoteOnEvent(tick=192, channel=4, data=[43, 0]),\r\n",
      "   midi.NoteOnEvent(tick=0, channel=4, data=[48, 100]),\r\n",
      "   midi.NoteOnEvent(tick=192, channel=4, data=[48, 0]),\r\n",
      "   midi.NoteOnEvent(tick=0, channel=4, data=[36, 100]),\r\n",
      "   midi.NoteOnEvent(tick=192, channel=4, data=[36, 0]),\r\n",
      "   midi.NoteOnEvent(tick=1344, channel=4, data=[60, 100]),\r\n",
      "   midi.NoteOnEvent(tick=96, channel=4, data=[60, 0]),\r\n",
      "   midi.NoteOnEvent(tick=0, channel=4, data=[59, 100]),\r\n",
      "   midi.NoteOnEvent(tick=96, channel=4, data=[59, 0]),\r\n",
      "   midi.NoteOnEvent(tick=0, channel=4, data=[60, 100]),\r\n",
      "   midi.NoteOnEvent(tick=96, channel=4, data=[60, 0]),\r\n",
      "   midi.NoteOnEvent(tick=0, channel=4, data=[62, 100]),\r\n",
      "   midi.NoteOnEvent(tick=96, channel=4, data=[62, 0]),\r\n",
      "   midi.NoteOnEvent(tick=0, channel=4, data=[60, 100]),\r\n",
      "   midi.NoteOnEvent(tick=96, channel=4, data=[60, 0]),\r\n",
      "   midi.NoteOnEvent(tick=0, channel=4, data=[59, 100]),\r\n",
      "   midi.NoteOnEvent(tick=96, channel=4, data=[59, 0]),\r\n",
      "   midi.NoteOnEvent(tick=0, channel=4, data=[57, 100]),\r\n",
      "   midi.NoteOnEvent(tick=96, channel=4, data=[57, 0]),\r\n",
      "   midi.NoteOnEvent(tick=0, channel=4, data=[59, 100]),\r\n",
      "   midi.NoteOnEvent(tick=96, channel=4, data=[59, 0]),\r\n",
      "   midi.NoteOnEvent(tick=0, channel=4, data=[57, 100]),\r\n",
      "   midi.NoteOnEvent(tick=96, channel=4, data=[57, 0]),\r\n",
      "   midi.NoteOnEvent(tick=0, channel=4, data=[55, 100]),\r\n",
      "   midi.NoteOnEvent(tick=96, channel=4, data=[55, 0]),\r\n",
      "   midi.NoteOnEvent(tick=0, channel=4, data=[54, 100]),\r\n",
      "   midi.NoteOnEvent(tick=96, channel=4, data=[54, 0]),\r\n",
      "   midi.NoteOnEvent(tick=0, channel=4, data=[55, 100]),\r\n",
      "   midi.NoteOnEvent(tick=96, channel=4, data=[55, 0]),\r\n",
      "   midi.NoteOnEvent(tick=0, channel=4, data=[54, 100]),\r\n",
      "   midi.NoteOnEvent(tick=96, channel=4, data=[54, 0]),\r\n",
      "   midi.NoteOnEvent(tick=0, channel=4, data=[52, 100]),\r\n",
      "   midi.NoteOnEvent(tick=96, channel=4, data=[52, 0]),\r\n",
      "   midi.NoteOnEvent(tick=0, channel=4, data=[51, 100]),\r\n",
      "   midi.NoteOnEvent(tick=96, channel=4, data=[51, 0]),\r\n",
      "   midi.NoteOnEvent(tick=0, channel=4, data=[47, 100]),\r\n",
      "   midi.NoteOnEvent(tick=96, channel=4, data=[47, 0]),\r\n",
      "   midi.NoteOnEvent(tick=0, channel=4, data=[49, 100]),\r\n",
      "   midi.NoteOnEvent(tick=96, channel=4, data=[49, 0]),\r\n",
      "   midi.NoteOnEvent(tick=0, channel=4, data=[51, 100]),\r\n",
      "   midi.NoteOnEvent(tick=96, channel=4, data=[51, 0]),\r\n",
      "   midi.NoteOnEvent(tick=0, channel=4, data=[52, 100]),\r\n",
      "   midi.NoteOnEvent(tick=96, channel=4, data=[52, 0]),\r\n",
      "   midi.NoteOnEvent(tick=0, channel=4, data=[54, 100]),\r\n",
      "   midi.NoteOnEvent(tick=96, channel=4, data=[54, 0]),\r\n",
      "   midi.NoteOnEvent(tick=0, channel=4, data=[55, 100]),\r\n",
      "   midi.NoteOnEvent(tick=96, channel=4, data=[55, 0]),\r\n",
      "   midi.NoteOnEvent(tick=0, channel=4, data=[52, 100]),\r\n",
      "   midi.NoteOnEvent(tick=96, channel=4, data=[52, 0]),\r\n",
      "   midi.NoteOnEvent(tick=0, channel=4, data=[48, 100]),\r\n",
      "   midi.NoteOnEvent(tick=192, channel=4, data=[48, 0]),\r\n",
      "   midi.NoteOnEvent(tick=0, channel=4, data=[47, 100]),\r\n",
      "   midi.NoteOnEvent(tick=192, channel=4, data=[47, 0]),\r\n",
      "   midi.NoteOnEvent(tick=0, channel=4, data=[48, 100]),\r\n",
      "   midi.NoteOnEvent(tick=192, channel=4, data=[48, 0]),\r\n",
      "   midi.NoteOnEvent(tick=0, channel=4, data=[45, 100]),\r\n",
      "   midi.NoteOnEvent(tick=192, channel=4, data=[45, 0]),\r\n",
      "   midi.NoteOnEvent(tick=0, channel=4, data=[47, 100]),\r\n",
      "   midi.NoteOnEvent(tick=288, channel=4, data=[47, 0]),\r\n",
      "   midi.NoteOnEvent(tick=0, channel=4, data=[49, 100]),\r\n",
      "   midi.NoteOnEvent(tick=48, channel=4, data=[49, 0]),\r\n",
      "   midi.NoteOnEvent(tick=0, channel=4, data=[51, 100]),\r\n",
      "   midi.NoteOnEvent(tick=48, channel=4, data=[51, 0]),\r\n",
      "   midi.NoteOnEvent(tick=0, channel=4, data=[52, 100]),\r\n",
      "   midi.NoteOnEvent(tick=96, channel=4, data=[52, 0]),\r\n",
      "   midi.NoteOnEvent(tick=0, channel=4, data=[54, 100]),\r\n",
      "   midi.NoteOnEvent(tick=96, channel=4, data=[54, 0]),\r\n",
      "   midi.NoteOnEvent(tick=0, channel=4, data=[55, 100]),\r\n",
      "   midi.NoteOnEvent(tick=96, channel=4, data=[55, 0]),\r\n",
      "   midi.NoteOnEvent(tick=0, channel=4, data=[57, 100]),\r\n",
      "   midi.NoteOnEvent(tick=96, channel=4, data=[57, 0]),\r\n",
      "   midi.NoteOnEvent(tick=0, channel=4, data=[59, 100]),\r\n",
      "   midi.NoteOnEvent(tick=192, channel=4, data=[59, 0]),\r\n",
      "   midi.NoteOnEvent(tick=0, channel=4, data=[57, 100]),\r\n",
      "   midi.NoteOnEvent(tick=192, channel=4, data=[57, 0]),\r\n",
      "   midi.NoteOnEvent(tick=0, channel=4, data=[59, 100]),\r\n",
      "   midi.NoteOnEvent(tick=192, channel=4, data=[59, 0]),\r\n",
      "   midi.NoteOnEvent(tick=0, channel=4, data=[47, 100]),\r\n",
      "   midi.NoteOnEvent(tick=192, channel=4, data=[47, 0]),\r\n",
      "   midi.NoteOnEvent(tick=0, channel=4, data=[57, 100]),\r\n",
      "   midi.NoteOnEvent(tick=192, channel=4, data=[57, 0]),\r\n",
      "   midi.NoteOnEvent(tick=0, channel=4, data=[59, 100]),\r\n",
      "   midi.NoteOnEvent(tick=192, channel=4, data=[59, 0]),\r\n",
      "   midi.NoteOnEvent(tick=0, channel=4, data=[57, 100]),\r\n",
      "   midi.NoteOnEvent(tick=192, channel=4, data=[57, 0]),\r\n",
      "   midi.NoteOnEvent(tick=0, channel=4, data=[55, 100]),\r\n",
      "   midi.NoteOnEvent(tick=192, channel=4, data=[55, 0]),\r\n",
      "   midi.NoteOnEvent(tick=0, channel=4, data=[54, 100]),\r\n",
      "   midi.NoteOnEvent(tick=192, channel=4, data=[54, 0]),\r\n",
      "   midi.NoteOnEvent(tick=0, channel=4, data=[55, 100]),\r\n",
      "   midi.NoteOnEvent(tick=192, channel=4, data=[55, 0]),\r\n",
      "   midi.NoteOnEvent(tick=0, channel=4, data=[54, 100]),\r\n",
      "   midi.NoteOnEvent(tick=192, channel=4, data=[54, 0]),\r\n",
      "   midi.NoteOnEvent(tick=0, channel=4, data=[52, 100]),\r\n",
      "   midi.NoteOnEvent(tick=192, channel=4, data=[52, 0]),\r\n",
      "   midi.NoteOnEvent(tick=0, channel=4, data=[51, 100]),\r\n",
      "   midi.NoteOnEvent(tick=192, channel=4, data=[51, 0]),\r\n",
      "   midi.NoteOnEvent(tick=0, channel=4, data=[52, 100]),\r\n",
      "   midi.NoteOnEvent(tick=192, channel=4, data=[52, 0]),\r\n",
      "   midi.NoteOnEvent(tick=0, channel=4, data=[54, 100]),\r\n",
      "   midi.NoteOnEvent(tick=192, channel=4, data=[54, 0]),\r\n",
      "   midi.NoteOnEvent(tick=0, channel=4, data=[55, 100]),\r\n",
      "   midi.NoteOnEvent(tick=192, channel=4, data=[55, 0]),\r\n",
      "   midi.NoteOnEvent(tick=0, channel=4, data=[57, 100]),\r\n",
      "   midi.NoteOnEvent(tick=192, channel=4, data=[57, 0]),\r\n",
      "   midi.NoteOnEvent(tick=0, channel=4, data=[59, 100]),\r\n",
      "   midi.NoteOnEvent(tick=192, channel=4, data=[59, 0]),\r\n",
      "   midi.NoteOnEvent(tick=0, channel=4, data=[60, 100]),\r\n",
      "   midi.NoteOnEvent(tick=192, channel=4, data=[60, 0]),\r\n",
      "   midi.NoteOnEvent(tick=0, channel=4, data=[54, 100]),\r\n",
      "   midi.NoteOnEvent(tick=192, channel=4, data=[54, 0]),\r\n",
      "   midi.NoteOnEvent(tick=0, channel=4, data=[59, 100]),\r\n",
      "   midi.NoteOnEvent(tick=192, channel=4, data=[59, 0]),\r\n",
      "   midi.NoteOnEvent(tick=0, channel=4, data=[57, 100]),\r\n",
      "   midi.NoteOnEvent(tick=96, channel=4, data=[57, 0]),\r\n",
      "   midi.NoteOnEvent(tick=0, channel=4, data=[55, 100]),\r\n",
      "   midi.NoteOnEvent(tick=96, channel=4, data=[55, 0]),\r\n",
      "   midi.NoteOnEvent(tick=0, channel=4, data=[54, 100]),\r\n",
      "   midi.NoteOnEvent(tick=192, channel=4, data=[54, 0]),\r\n",
      "   midi.NoteOnEvent(tick=0, channel=4, data=[52, 100]),\r\n",
      "   midi.NoteOnEvent(tick=192, channel=4, data=[52, 0]),\r\n",
      "   midi.NoteOnEvent(tick=0, channel=4, data=[51, 100]),\r\n",
      "   midi.NoteOnEvent(tick=192, channel=4, data=[51, 0]),\r\n",
      "   midi.NoteOnEvent(tick=0, channel=4, data=[49, 100]),\r\n",
      "   midi.NoteOnEvent(tick=192, channel=4, data=[49, 0]),\r\n",
      "   midi.NoteOnEvent(tick=0, channel=4, data=[47, 100]),\r\n",
      "   midi.NoteOnEvent(tick=192, channel=4, data=[47, 0]),\r\n",
      "   midi.NoteOnEvent(tick=0, channel=4, data=[45, 100]),\r\n",
      "   midi.NoteOnEvent(tick=192, channel=4, data=[45, 0]),\r\n",
      "   midi.NoteOnEvent(tick=0, channel=4, data=[43, 100]),\r\n",
      "   midi.NoteOnEvent(tick=192, channel=4, data=[43, 0]),\r\n",
      "   midi.NoteOnEvent(tick=0, channel=4, data=[48, 100]),\r\n",
      "   midi.NoteOnEvent(tick=192, channel=4, data=[48, 0]),\r\n",
      "   midi.NoteOnEvent(tick=0, channel=4, data=[45, 100]),\r\n",
      "   midi.NoteOnEvent(tick=192, channel=4, data=[45, 0]),\r\n",
      "   midi.NoteOnEvent(tick=0, channel=4, data=[47, 100]),\r\n",
      "   midi.NoteOnEvent(tick=192, channel=4, data=[47, 0]),\r\n",
      "   midi.NoteOnEvent(tick=0, channel=4, data=[36, 100]),\r\n",
      "   midi.NoteOnEvent(tick=384, channel=4, data=[36, 0]),\r\n",
      "   midi.NoteOnEvent(tick=192, channel=4, data=[60, 100]),\r\n",
      "   midi.NoteOnEvent(tick=192, channel=4, data=[60, 0]),\r\n",
      "   midi.NoteOnEvent(tick=0, channel=4, data=[51, 100]),\r\n",
      "   midi.NoteOnEvent(tick=192, channel=4, data=[51, 0]),\r\n",
      "   midi.NoteOnEvent(tick=0, channel=4, data=[51, 100]),\r\n",
      "   midi.NoteOnEvent(tick=192, channel=4, data=[51, 0]),\r\n",
      "   midi.NoteOnEvent(tick=0, channel=4, data=[51, 100]),\r\n",
      "   midi.NoteOnEvent(tick=192, channel=4, data=[51, 0]),\r\n",
      "   midi.NoteOnEvent(tick=0, channel=4, data=[54, 100]),\r\n",
      "   midi.NoteOnEvent(tick=192, channel=4, data=[54, 0]),\r\n",
      "   midi.NoteOnEvent(tick=0, channel=4, data=[45, 100]),\r\n",
      "   midi.NoteOnEvent(tick=192, channel=4, data=[45, 0]),\r\n",
      "   midi.NoteOnEvent(tick=0, channel=4, data=[45, 100]),\r\n",
      "   midi.NoteOnEvent(tick=192, channel=4, data=[45, 0]),\r\n",
      "   midi.NoteOnEvent(tick=0, channel=4, data=[45, 100]),\r\n",
      "   midi.NoteOnEvent(tick=192, channel=4, data=[45, 0]),\r\n",
      "   midi.NoteOnEvent(tick=0, channel=4, data=[48, 100]),\r\n",
      "   midi.NoteOnEvent(tick=192, channel=4, data=[48, 0]),\r\n",
      "   midi.NoteOnEvent(tick=0, channel=4, data=[42, 100]),\r\n",
      "   midi.NoteOnEvent(tick=192, channel=4, data=[42, 0]),\r\n",
      "   midi.NoteOnEvent(tick=0, channel=4, data=[43, 100]),\r\n",
      "   midi.NoteOnEvent(tick=96, channel=4, data=[43, 0]),\r\n",
      "   midi.NoteOnEvent(tick=0, channel=4, data=[45, 100]),\r\n",
      "   midi.NoteOnEvent(tick=96, channel=4, data=[45, 0]),\r\n",
      "   midi.NoteOnEvent(tick=0, channel=4, data=[47, 100]),\r\n",
      "   midi.NoteOnEvent(tick=192, channel=4, data=[47, 0]),\r\n",
      "   midi.NoteOnEvent(tick=0, channel=4, data=[47, 100]),\r\n",
      "   midi.NoteOnEvent(tick=192, channel=4, data=[47, 0]),\r\n",
      "   midi.NoteOnEvent(tick=0, channel=4, data=[40, 100]),\r\n",
      "   midi.NoteOnEvent(tick=192, channel=4, data=[40, 0]),\r\n",
      "   midi.NoteOnEvent(tick=0, channel=4, data=[52, 100]),\r\n",
      "   midi.NoteOnEvent(tick=96, channel=4, data=[52, 0]),\r\n",
      "   midi.NoteOnEvent(tick=0, channel=4, data=[51, 100]),\r\n",
      "   midi.NoteOnEvent(tick=96, channel=4, data=[51, 0]),\r\n",
      "   midi.NoteOnEvent(tick=0, channel=4, data=[52, 100]),\r\n",
      "   midi.NoteOnEvent(tick=192, channel=4, data=[52, 0]),\r\n",
      "   midi.NoteOnEvent(tick=0, channel=4, data=[54, 100]),\r\n",
      "   midi.NoteOnEvent(tick=192, channel=4, data=[54, 0]),\r\n",
      "   midi.NoteOnEvent(tick=0, channel=4, data=[55, 100]),\r\n",
      "   midi.NoteOnEvent(tick=384, channel=4, data=[55, 0]),\r\n",
      "   midi.NoteOnEvent(tick=192, channel=4, data=[52, 100]),\r\n",
      "   midi.NoteOnEvent(tick=192, channel=4, data=[52, 0]),\r\n",
      "   midi.NoteOnEvent(tick=0, channel=4, data=[59, 100]),\r\n",
      "   midi.NoteOnEvent(tick=384, channel=4, data=[59, 0]),\r\n",
      "   midi.NoteOnEvent(tick=192, channel=4, data=[47, 100]),\r\n",
      "   midi.NoteOnEvent(tick=192, channel=4, data=[47, 0]),\r\n",
      "   midi.NoteOnEvent(tick=0, channel=4, data=[39, 100]),\r\n",
      "   midi.NoteOnEvent(tick=384, channel=4, data=[39, 0]),\r\n",
      "   midi.NoteOnEvent(tick=192, channel=4, data=[47, 100]),\r\n",
      "   midi.NoteOnEvent(tick=192, channel=4, data=[47, 0]),\r\n",
      "   midi.NoteOnEvent(tick=0, channel=4, data=[52, 100]),\r\n",
      "   midi.NoteOnEvent(tick=384, channel=4, data=[52, 0]),\r\n",
      "   midi.NoteOnEvent(tick=1344, channel=4, data=[52, 100]),\r\n",
      "   midi.NoteOnEvent(tick=192, channel=4, data=[52, 0]),\r\n",
      "   midi.NoteOnEvent(tick=0, channel=4, data=[40, 100]),\r\n",
      "   midi.NoteOnEvent(tick=192, channel=4, data=[40, 0]),\r\n",
      "   midi.NoteOnEvent(tick=0, channel=4, data=[52, 100]),\r\n",
      "   midi.NoteOnEvent(tick=192, channel=4, data=[52, 0]),\r\n",
      "   midi.NoteOnEvent(tick=0, channel=4, data=[45, 100]),\r\n",
      "   midi.NoteOnEvent(tick=384, channel=4, data=[45, 0]),\r\n",
      "   midi.NoteOnEvent(tick=576, channel=4, data=[57, 100]),\r\n",
      "   midi.NoteOnEvent(tick=192, channel=4, data=[57, 0]),\r\n",
      "   midi.NoteOnEvent(tick=0, channel=4, data=[45, 100]),\r\n",
      "   midi.NoteOnEvent(tick=192, channel=4, data=[45, 0]),\r\n",
      "   midi.NoteOnEvent(tick=0, channel=4, data=[57, 100]),\r\n",
      "   midi.NoteOnEvent(tick=192, channel=4, data=[57, 0]),\r\n",
      "   midi.NoteOnEvent(tick=0, channel=4, data=[50, 100]),\r\n",
      "   midi.NoteOnEvent(tick=384, channel=4, data=[50, 0]),\r\n",
      "   midi.NoteOnEvent(tick=576, channel=4, data=[50, 100]),\r\n",
      "   midi.NoteOnEvent(tick=192, channel=4, data=[50, 0]),\r\n",
      "   midi.NoteOnEvent(tick=0, channel=4, data=[38, 100]),\r\n",
      "   midi.NoteOnEvent(tick=192, channel=4, data=[38, 0]),\r\n",
      "   midi.NoteOnEvent(tick=0, channel=4, data=[50, 100]),\r\n",
      "   midi.NoteOnEvent(tick=192, channel=4, data=[50, 0]),\r\n",
      "   midi.NoteOnEvent(tick=0, channel=4, data=[43, 100]),\r\n",
      "   midi.NoteOnEvent(tick=384, channel=4, data=[43, 0]),\r\n",
      "   midi.NoteOnEvent(tick=576, channel=4, data=[55, 100]),\r",
      "\r\n",
      "   midi.NoteOnEvent(tick=192, channel=4, data=[55, 0]),\r\n",
      "   midi.NoteOnEvent(tick=0, channel=4, data=[43, 100]),\r\n",
      "   midi.NoteOnEvent(tick=192, channel=4, data=[43, 0]),\r\n",
      "   midi.NoteOnEvent(tick=0, channel=4, data=[55, 100]),\r\n",
      "   midi.NoteOnEvent(tick=192, channel=4, data=[55, 0]),\r\n",
      "   midi.NoteOnEvent(tick=0, channel=4, data=[48, 100]),\r\n",
      "   midi.NoteOnEvent(tick=384, channel=4, data=[48, 0]),\r\n",
      "   midi.NoteOnEvent(tick=0, channel=4, data=[58, 100]),\r\n",
      "   midi.NoteOnEvent(tick=384, channel=4, data=[58, 0]),\r\n",
      "   midi.NoteOnEvent(tick=0, channel=4, data=[57, 100]),\r\n",
      "   midi.NoteOnEvent(tick=384, channel=4, data=[57, 0]),\r\n",
      "   midi.NoteOnEvent(tick=0, channel=4, data=[55, 100]),\r\n",
      "   midi.NoteOnEvent(tick=384, channel=4, data=[55, 0]),\r\n",
      "   midi.NoteOnEvent(tick=0, channel=4, data=[53, 100]),\r\n",
      "   midi.NoteOnEvent(tick=192, channel=4, data=[53, 0]),\r\n",
      "   midi.NoteOnEvent(tick=0, channel=4, data=[52, 100]),\r\n",
      "   midi.NoteOnEvent(tick=192, channel=4, data=[52, 0]),\r\n",
      "   midi.NoteOnEvent(tick=0, channel=4, data=[50, 100]),\r\n",
      "   midi.NoteOnEvent(tick=192, channel=4, data=[50, 0]),\r\n",
      "   midi.NoteOnEvent(tick=0, channel=4, data=[53, 100]),\r\n",
      "   midi.NoteOnEvent(tick=192, channel=4, data=[53, 0]),\r\n",
      "   midi.NoteOnEvent(tick=0, channel=4, data=[55, 100]),\r\n",
      "   midi.NoteOnEvent(tick=192, channel=4, data=[55, 0]),\r\n",
      "   midi.NoteOnEvent(tick=0, channel=4, data=[53, 100]),\r\n",
      "   midi.NoteOnEvent(tick=192, channel=4, data=[53, 0]),\r\n",
      "   midi.NoteOnEvent(tick=0, channel=4, data=[52, 100]),\r\n",
      "   midi.NoteOnEvent(tick=192, channel=4, data=[52, 0]),\r\n",
      "   midi.NoteOnEvent(tick=0, channel=4, data=[55, 100]),\r\n",
      "   midi.NoteOnEvent(tick=192, channel=4, data=[55, 0]),\r\n",
      "   midi.NoteOnEvent(tick=0, channel=4, data=[57, 100]),\r\n",
      "   midi.NoteOnEvent(tick=192, channel=4, data=[57, 0]),\r\n",
      "   midi.NoteOnEvent(tick=0, channel=4, data=[59, 100]),\r\n",
      "   midi.NoteOnEvent(tick=192, channel=4, data=[59, 0]),\r\n",
      "   midi.NoteOnEvent(tick=0, channel=4, data=[61, 100]),\r\n",
      "   midi.NoteOnEvent(tick=192, channel=4, data=[61, 0]),\r\n",
      "   midi.NoteOnEvent(tick=0, channel=4, data=[57, 100]),\r\n",
      "   midi.NoteOnEvent(tick=192, channel=4, data=[57, 0]),\r\n",
      "   midi.NoteOnEvent(tick=0, channel=4, data=[53, 100]),\r\n",
      "   midi.NoteOnEvent(tick=192, channel=4, data=[53, 0]),\r\n",
      "   midi.NoteOnEvent(tick=0, channel=4, data=[57, 100]),\r\n",
      "   midi.NoteOnEvent(tick=192, channel=4, data=[57, 0]),\r\n",
      "   midi.NoteOnEvent(tick=0, channel=4, data=[53, 100]),\r\n",
      "   midi.NoteOnEvent(tick=192, channel=4, data=[53, 0]),\r\n",
      "   midi.NoteOnEvent(tick=0, channel=4, data=[50, 100]),\r\n",
      "   midi.NoteOnEvent(tick=192, channel=4, data=[50, 0]),\r\n",
      "   midi.NoteOnEvent(tick=0, channel=4, data=[55, 100]),\r\n",
      "   midi.NoteOnEvent(tick=192, channel=4, data=[55, 0]),\r\n",
      "   midi.NoteOnEvent(tick=0, channel=4, data=[58, 100]),\r\n",
      "   midi.NoteOnEvent(tick=192, channel=4, data=[58, 0]),\r\n",
      "   midi.NoteOnEvent(tick=0, channel=4, data=[55, 100]),\r\n",
      "   midi.NoteOnEvent(tick=192, channel=4, data=[55, 0]),\r\n",
      "   midi.NoteOnEvent(tick=0, channel=4, data=[50, 100]),\r\n",
      "   midi.NoteOnEvent(tick=192, channel=4, data=[50, 0]),\r\n",
      "   midi.NoteOnEvent(tick=0, channel=4, data=[62, 100]),\r\n",
      "   midi.NoteOnEvent(tick=192, channel=4, data=[62, 0]),\r\n",
      "   midi.NoteOnEvent(tick=0, channel=4, data=[50, 100]),\r\n",
      "   midi.NoteOnEvent(tick=192, channel=4, data=[50, 0]),\r\n",
      "   midi.NoteOnEvent(tick=0, channel=4, data=[57, 100]),\r\n",
      "   midi.NoteOnEvent(tick=192, channel=4, data=[57, 0]),\r\n",
      "   midi.NoteOnEvent(tick=0, channel=4, data=[45, 100]),\r\n",
      "   midi.NoteOnEvent(tick=192, channel=4, data=[45, 0]),\r\n",
      "   midi.NoteOnEvent(tick=0, channel=4, data=[50, 100]),\r\n",
      "   midi.NoteOnEvent(tick=192, channel=4, data=[50, 0]),\r\n",
      "   midi.NoteOnEvent(tick=0, channel=4, data=[38, 100]),\r\n",
      "   midi.NoteOnEvent(tick=192, channel=4, data=[38, 0]),\r\n",
      "   midi.NoteOnEvent(tick=2112, channel=4, data=[55, 100]),\r\n",
      "   midi.NoteOnEvent(tick=96, channel=4, data=[55, 0]),\r\n",
      "   midi.NoteOnEvent(tick=0, channel=4, data=[57, 100]),\r\n",
      "   midi.NoteOnEvent(tick=96, channel=4, data=[57, 0]),\r\n",
      "   midi.NoteOnEvent(tick=0, channel=4, data=[55, 100]),\r\n",
      "   midi.NoteOnEvent(tick=96, channel=4, data=[55, 0]),\r\n",
      "   midi.NoteOnEvent(tick=0, channel=4, data=[53, 100]),\r\n",
      "   midi.NoteOnEvent(tick=96, channel=4, data=[53, 0]),\r\n",
      "   midi.NoteOnEvent(tick=0, channel=4, data=[52, 100]),\r\n",
      "   midi.NoteOnEvent(tick=96, channel=4, data=[52, 0]),\r\n",
      "   midi.NoteOnEvent(tick=0, channel=4, data=[50, 100]),\r\n",
      "   midi.NoteOnEvent(tick=96, channel=4, data=[50, 0]),\r\n",
      "   midi.NoteOnEvent(tick=0, channel=4, data=[48, 100]),\r\n",
      "   midi.NoteOnEvent(tick=192, channel=4, data=[48, 0]),\r\n",
      "   midi.NoteOnEvent(tick=0, channel=4, data=[60, 100]),\r\n",
      "   midi.NoteOnEvent(tick=192, channel=4, data=[60, 0]),\r\n",
      "   midi.NoteOnEvent(tick=1344, channel=4, data=[53, 100]),\r\n",
      "   midi.NoteOnEvent(tick=96, channel=4, data=[53, 0]),\r\n",
      "   midi.NoteOnEvent(tick=0, channel=4, data=[55, 100]),\r\n",
      "   midi.NoteOnEvent(tick=96, channel=4, data=[55, 0]),\r\n",
      "   midi.NoteOnEvent(tick=0, channel=4, data=[53, 100]),\r\n",
      "   midi.NoteOnEvent(tick=96, channel=4, data=[53, 0]),\r\n",
      "   midi.NoteOnEvent(tick=0, channel=4, data=[52, 100]),\r\n",
      "   midi.NoteOnEvent(tick=96, channel=4, data=[52, 0]),\r\n",
      "   midi.NoteOnEvent(tick=0, channel=4, data=[50, 100]),\r\n",
      "   midi.NoteOnEvent(tick=96, channel=4, data=[50, 0]),\r\n",
      "   midi.NoteOnEvent(tick=0, channel=4, data=[48, 100]),\r\n",
      "   midi.NoteOnEvent(tick=96, channel=4, data=[48, 0]),\r\n",
      "   midi.NoteOnEvent(tick=0, channel=4, data=[46, 100]),\r\n",
      "   midi.NoteOnEvent(tick=192, channel=4, data=[46, 0]),\r\n",
      "   midi.NoteOnEvent(tick=0, channel=4, data=[58, 100]),\r\n",
      "   midi.NoteOnEvent(tick=192, channel=4, data=[58, 0]),\r\n",
      "   midi.NoteOnEvent(tick=1344, channel=4, data=[52, 100]),\r\n",
      "   midi.NoteOnEvent(tick=96, channel=4, data=[52, 0]),\r\n",
      "   midi.NoteOnEvent(tick=0, channel=4, data=[53, 100]),\r\n",
      "   midi.NoteOnEvent(tick=96, channel=4, data=[53, 0]),\r\n",
      "   midi.NoteOnEvent(tick=0, channel=4, data=[52, 100]),\r\n",
      "   midi.NoteOnEvent(tick=96, channel=4, data=[52, 0]),\r\n",
      "   midi.NoteOnEvent(tick=0, channel=4, data=[50, 100]),\r\n",
      "   midi.NoteOnEvent(tick=96, channel=4, data=[50, 0]),\r\n",
      "   midi.NoteOnEvent(tick=0, channel=4, data=[49, 100]),\r\n",
      "   midi.NoteOnEvent(tick=96, channel=4, data=[49, 0]),\r\n",
      "   midi.NoteOnEvent(tick=0, channel=4, data=[47, 100]),\r\n",
      "   midi.NoteOnEvent(tick=96, channel=4, data=[47, 0]),\r\n",
      "   midi.NoteOnEvent(tick=0, channel=4, data=[45, 100]),\r\n",
      "   midi.NoteOnEvent(tick=192, channel=4, data=[45, 0]),\r\n",
      "   midi.NoteOnEvent(tick=0, channel=4, data=[57, 100]),\r\n",
      "   midi.NoteOnEvent(tick=192, channel=4, data=[57, 0]),\r\n",
      "   midi.NoteOnEvent(tick=1344, channel=4, data=[50, 100]),\r\n",
      "   midi.NoteOnEvent(tick=192, channel=4, data=[50, 0]),\r\n",
      "   midi.NoteOnEvent(tick=0, channel=4, data=[62, 100]),\r\n",
      "   midi.NoteOnEvent(tick=192, channel=4, data=[62, 0]),\r\n",
      "   midi.NoteOnEvent(tick=0, channel=4, data=[53, 100]),\r\n",
      "   midi.NoteOnEvent(tick=192, channel=4, data=[53, 0]),\r\n",
      "   midi.NoteOnEvent(tick=0, channel=4, data=[55, 100]),\r\n",
      "   midi.NoteOnEvent(tick=192, channel=4, data=[55, 0]),\r\n",
      "   midi.NoteOnEvent(tick=0, channel=4, data=[57, 100]),\r\n",
      "   midi.NoteOnEvent(tick=192, channel=4, data=[57, 0]),\r\n",
      "   midi.NoteOnEvent(tick=0, channel=4, data=[59, 100]),\r\n",
      "   midi.NoteOnEvent(tick=192, channel=4, data=[59, 0]),\r\n",
      "   midi.NoteOnEvent(tick=0, channel=4, data=[55, 100]),\r\n",
      "   midi.NoteOnEvent(tick=192, channel=4, data=[55, 0]),\r\n",
      "   midi.NoteOnEvent(tick=0, channel=4, data=[60, 100]),\r\n",
      "   midi.NoteOnEvent(tick=192, channel=4, data=[60, 0]),\r\n",
      "   midi.NoteOnEvent(tick=0, channel=4, data=[48, 100]),\r\n",
      "   midi.NoteOnEvent(tick=192, channel=4, data=[48, 0]),\r\n",
      "   midi.NoteOnEvent(tick=0, channel=4, data=[60, 100]),\r\n",
      "   midi.NoteOnEvent(tick=192, channel=4, data=[60, 0]),\r\n",
      "   midi.NoteOnEvent(tick=0, channel=4, data=[52, 100]),\r\n",
      "   midi.NoteOnEvent(tick=192, channel=4, data=[52, 0]),\r\n",
      "   midi.NoteOnEvent(tick=0, channel=4, data=[53, 100]),\r\n",
      "   midi.NoteOnEvent(tick=192, channel=4, data=[53, 0]),\r\n",
      "   midi.NoteOnEvent(tick=0, channel=4, data=[55, 100]),\r\n",
      "   midi.NoteOnEvent(tick=192, channel=4, data=[55, 0]),\r\n",
      "   midi.NoteOnEvent(tick=0, channel=4, data=[57, 100]),\r\n",
      "   midi.NoteOnEvent(tick=192, channel=4, data=[57, 0]),\r\n",
      "   midi.NoteOnEvent(tick=0, channel=4, data=[53, 100]),\r\n",
      "   midi.NoteOnEvent(tick=192, channel=4, data=[53, 0]),\r\n",
      "   midi.NoteOnEvent(tick=0, channel=4, data=[59, 100]),\r\n",
      "   midi.NoteOnEvent(tick=192, channel=4, data=[59, 0]),\r\n",
      "   midi.NoteOnEvent(tick=0, channel=4, data=[47, 100]),\r\n",
      "   midi.NoteOnEvent(tick=192, channel=4, data=[47, 0]),\r\n",
      "   midi.NoteOnEvent(tick=0, channel=4, data=[59, 100]),\r\n",
      "   midi.NoteOnEvent(tick=192, channel=4, data=[59, 0]),\r\n",
      "   midi.NoteOnEvent(tick=0, channel=4, data=[56, 100]),\r\n",
      "   midi.NoteOnEvent(tick=192, channel=4, data=[56, 0]),\r\n",
      "   midi.NoteOnEvent(tick=0, channel=4, data=[52, 100]),\r\n",
      "   midi.NoteOnEvent(tick=192, channel=4, data=[52, 0]),\r\n",
      "   midi.NoteOnEvent(tick=0, channel=4, data=[40, 100]),\r\n",
      "   midi.NoteOnEvent(tick=192, channel=4, data=[40, 0]),\r\n",
      "   midi.NoteOnEvent(tick=576, channel=4, data=[45, 100]),\r\n",
      "   midi.NoteOnEvent(tick=192, channel=4, data=[45, 0]),\r\n",
      "   midi.NoteOnEvent(tick=0, channel=4, data=[57, 100]),\r\n",
      "   midi.NoteOnEvent(tick=384, channel=4, data=[57, 0]),\r\n",
      "   midi.NoteOnEvent(tick=192, channel=4, data=[45, 100]),\r\n",
      "   midi.NoteOnEvent(tick=192, channel=4, data=[45, 0]),\r\n",
      "   midi.NoteOnEvent(tick=0, channel=4, data=[57, 100]),\r\n",
      "   midi.NoteOnEvent(tick=384, channel=4, data=[57, 0]),\r\n",
      "   midi.NoteOnEvent(tick=192, channel=4, data=[45, 100]),\r\n",
      "   midi.NoteOnEvent(tick=192, channel=4, data=[45, 0]),\r\n",
      "   midi.NoteOnEvent(tick=0, channel=4, data=[52, 100]),\r\n",
      "   midi.NoteOnEvent(tick=192, channel=4, data=[52, 0]),\r\n",
      "   midi.NoteOnEvent(tick=0, channel=4, data=[40, 100]),\r\n",
      "   midi.NoteOnEvent(tick=192, channel=4, data=[40, 0]),\r\n",
      "   midi.NoteOnEvent(tick=0, channel=4, data=[57, 100]),\r\n",
      "   midi.NoteOnEvent(tick=192, channel=4, data=[57, 0]),\r\n",
      "   midi.NoteOnEvent(tick=0, channel=4, data=[45, 100]),\r\n",
      "   midi.NoteOnEvent(tick=192, channel=4, data=[45, 0]),\r\n",
      "   midi.NoteOnEvent(tick=0, channel=4, data=[48, 100]),\r\n",
      "   midi.NoteOnEvent(tick=192, channel=4, data=[48, 0]),\r\n",
      "   midi.NoteOnEvent(tick=0, channel=4, data=[52, 100]),\r\n",
      "   midi.NoteOnEvent(tick=192, channel=4, data=[52, 0]),\r\n",
      "   midi.NoteOnEvent(tick=0, channel=4, data=[57, 100]),\r\n",
      "   midi.NoteOnEvent(tick=384, channel=4, data=[57, 0]),\r\n",
      "   midi.NoteOnEvent(tick=0, channel=4, data=[55, 100]),\r\n",
      "   midi.NoteOnEvent(tick=384, channel=4, data=[55, 0]),\r\n",
      "   midi.NoteOnEvent(tick=0, channel=4, data=[53, 100]),\r\n",
      "   midi.NoteOnEvent(tick=384, channel=4, data=[53, 0]),\r\n",
      "   midi.NoteOnEvent(tick=0, channel=4, data=[52, 100]),\r\n",
      "   midi.NoteOnEvent(tick=384, channel=4, data=[52, 0]),\r\n",
      "   midi.NoteOnEvent(tick=0, channel=4, data=[50, 100]),\r\n",
      "   midi.NoteOnEvent(tick=384, channel=4, data=[50, 0]),\r\n",
      "   midi.NoteOnEvent(tick=0, channel=4, data=[48, 100]),\r\n",
      "   midi.NoteOnEvent(tick=384, channel=4, data=[48, 0]),\r\n",
      "   midi.NoteOnEvent(tick=0, channel=4, data=[46, 100]),\r\n",
      "   midi.NoteOnEvent(tick=384, channel=4, data=[46, 0]),\r\n",
      "   midi.NoteOnEvent(tick=0, channel=4, data=[45, 100]),\r\n",
      "   midi.NoteOnEvent(tick=384, channel=4, data=[45, 0]),\r\n",
      "   midi.NoteOnEvent(tick=0, channel=4, data=[43, 100]),\r\n",
      "   midi.NoteOnEvent(tick=384, channel=4, data=[43, 0]),\r\n",
      "   midi.NoteOnEvent(tick=0, channel=4, data=[41, 100]),\r\n",
      "   midi.NoteOnEvent(tick=384, channel=4, data=[41, 0]),\r\n",
      "   midi.NoteOnEvent(tick=0, channel=4, data=[39, 100]),\r\n",
      "   midi.NoteOnEvent(tick=384, channel=4, data=[39, 0]),\r\n",
      "   midi.NoteOnEvent(tick=0, channel=4, data=[38, 100]),\r\n",
      "   midi.NoteOnEvent(tick=384, channel=4, data=[38, 0]),\r\n",
      "   midi.NoteOnEvent(tick=0, channel=4, data=[36, 100]),\r\n",
      "   midi.NoteOnEvent(tick=192, channel=4, data=[36, 0]),\r\n",
      "   midi.NoteOnEvent(tick=0, channel=4, data=[36, 100]),\r\n",
      "   midi.NoteOnEvent(tick=192, channel=4, data=[36, 0]),\r\n",
      "   midi.NoteOnEvent(tick=0, channel=4, data=[36, 100]),\r\n",
      "   midi.NoteOnEvent(tick=192, channel=4, data=[36, 0]),\r\n",
      "   midi.NoteOnEvent(tick=0, channel=4, data=[36, 100]),\r\n",
      "   midi.NoteOnEvent(tick=192, channel=4, data=[36, 0]),\r\n",
      "   midi.NoteOnEvent(tick=0, channel=4, data=[36, 100]),\r\n",
      "   midi.NoteOnEvent(tick=192, channel=4, data=[36, 0]),\r\n",
      "   midi.NoteOnEvent(tick=0, channel=4, data=[36, 100]),\r\n",
      "   midi.NoteOnEvent(tick=192, channel=4, data=[36, 0]),\r\n",
      "   midi.NoteOnEvent(tick=0, channel=4, data=[36, 100]),\r\n",
      "   midi.NoteOnEvent(tick=192, channel=4, data=[36, 0]),\r\n",
      "   midi.NoteOnEvent(tick=0, channel=4, data=[36, 100]),\r\n",
      "   midi.NoteOnEvent(tick=192, channel=4, data=[36, 0]),\r\n",
      "   midi.NoteOnEvent(tick=0, channel=4, data=[36, 100]),\r\n",
      "   midi.NoteOnEvent(tick=192, channel=4, data=[36, 0]),\r\n",
      "   midi.NoteOnEvent(tick=0, channel=4, data=[36, 100]),\r\n",
      "   midi.NoteOnEvent(tick=192, channel=4, data=[36, 0]),\r\n",
      "   midi.NoteOnEvent(tick=0, channel=4, data=[48, 100]),\r\n",
      "   midi.NoteOnEvent(tick=192, channel=4, data=[48, 0]),\r\n",
      "   midi.NoteOnEvent(tick=0, channel=4, data=[48, 100]),\r\n",
      "   midi.NoteOnEvent(tick=192, channel=4, data=[48, 0]),\r\n",
      "   midi.NoteOnEvent(tick=0, channel=4, data=[46, 100]),\r\n",
      "   midi.NoteOnEvent(tick=192, channel=4, data=[46, 0]),\r\n",
      "   midi.NoteOnEvent(tick=0, channel=4, data=[62, 100]),\r\n",
      "   midi.NoteOnEvent(tick=192, channel=4, data=[62, 0]),\r\n",
      "   midi.NoteOnEvent(tick=0, channel=4, data=[58, 100]),\r\n",
      "   midi.NoteOnEvent(tick=192, channel=4, data=[58, 0]),\r\n",
      "   midi.NoteOnEvent(tick=0, channel=4, data=[55, 100]),\r\n",
      "   midi.NoteOnEvent(tick=192, channel=4, data=[55, 0]),\r\n",
      "   midi.NoteOnEvent(tick=0, channel=4, data=[43, 100]),\r\n",
      "   midi.NoteOnEvent(tick=192, channel=4, data=[43, 0]),\r\n",
      "   midi.NoteOnEvent(tick=0, channel=4, data=[43, 100]),\r\n",
      "   midi.NoteOnEvent(tick=192, channel=4, data=[43, 0]),\r\n",
      "   midi.NoteOnEvent(tick=0, channel=4, data=[43, 100]),\r\n",
      "   midi.NoteOnEvent(tick=192, channel=4, data=[43, 0]),\r\n",
      "   midi.NoteOnEvent(tick=0, channel=4, data=[43, 100]),\r\n",
      "   midi.NoteOnEvent(tick=192, channel=4, data=[43, 0]),\r\n",
      "   midi.NoteOnEvent(tick=0, channel=4, data=[41, 100]),\r\n",
      "   midi.NoteOnEvent(tick=192, channel=4, data=[41, 0]),\r\n",
      "   midi.NoteOnEvent(tick=0, channel=4, data=[57, 100]),\r\n",
      "   midi.NoteOnEvent(tick=192, channel=4, data=[57, 0]),\r\n",
      "   midi.NoteOnEvent(tick=0, channel=4, data=[53, 100]),\r\n",
      "   midi.NoteOnEvent(tick=192, channel=4, data=[53, 0]),\r\n",
      "   midi.NoteOnEvent(tick=0, channel=4, data=[50, 100]),\r\n",
      "   midi.NoteOnEvent(tick=192, channel=4, data=[50, 0]),\r\n",
      "   midi.NoteOnEvent(tick=0, channel=4, data=[38, 100]),\r\n",
      "   midi.NoteOnEvent(tick=192, channel=4, data=[38, 0]),\r\n",
      "   midi.NoteOnEvent(tick=0, channel=4, data=[38, 100]),\r\n",
      "   midi.NoteOnEvent(tick=192, channel=4, data=[38, 0]),\r\n",
      "   midi.NoteOnEvent(tick=0, channel=4, data=[38, 100]),\r\n",
      "   midi.NoteOnEvent(tick=192, channel=4, data=[38, 0]),\r\n",
      "   midi.NoteOnEvent(tick=0, channel=4, data=[38, 100]),\r\n",
      "   midi.NoteOnEvent(tick=192, channel=4, data=[38, 0]),\r\n",
      "   midi.NoteOnEvent(tick=0, channel=4, data=[36, 100]),\r\n",
      "   midi.NoteOnEvent(tick=192, channel=4, data=[36, 0]),\r\n",
      "   midi.NoteOnEvent(tick=0, channel=4, data=[50, 100]),\r\n",
      "   midi.NoteOnEvent(tick=192, channel=4, data=[50, 0]),\r\n",
      "   midi.NoteOnEvent(tick=0, channel=4, data=[48, 100]),\r\n",
      "   midi.NoteOnEvent(tick=192, channel=4, data=[48, 0]),\r\n",
      "   midi.NoteOnEvent(tick=0, channel=4, data=[47, 100]),\r\n",
      "   midi.NoteOnEvent(tick=192, channel=4, data=[47, 0]),\r\n",
      "   midi.NoteOnEvent(tick=0, channel=4, data=[45, 100]),\r\n",
      "   midi.NoteOnEvent(tick=192, channel=4, data=[45, 0]),\r\n",
      "   midi.NoteOnEvent(tick=0, channel=4, data=[57, 100]),\r\n",
      "   midi.NoteOnEvent(tick=192, channel=4, data=[57, 0]),\r\n",
      "   midi.NoteOnEvent(tick=0, channel=4, data=[55, 100]),\r\n",
      "   midi.NoteOnEvent(tick=192, channel=4, data=[55, 0]),\r\n",
      "   midi.NoteOnEvent(tick=0, channel=4, data=[53, 100]),\r\n",
      "   midi.NoteOnEvent(tick=192, channel=4, data=[53, 0]),\r\n",
      "   midi.NoteOnEvent(tick=0, channel=4, data=[52, 100]),\r\n",
      "   midi.NoteOnEvent(tick=192, channel=4, data=[52, 0]),\r\n",
      "   midi.NoteOnEvent(tick=0, channel=4, data=[53, 100]),\r\n",
      "   midi.NoteOnEvent(tick=192, channel=4, data=[53, 0]),\r\n",
      "   midi.NoteOnEvent(tick=0, channel=4, data=[52, 100]),\r\n",
      "   midi.NoteOnEvent(tick=192, channel=4, data=[52, 0]),\r\n",
      "   midi.NoteOnEvent(tick=0, channel=4, data=[50, 100]),\r\n",
      "   midi.NoteOnEvent(tick=192, channel=4, data=[50, 0]),\r\n",
      "   midi.NoteOnEvent(tick=0, channel=4, data=[48, 100]),\r\n",
      "   midi.NoteOnEvent(tick=192, channel=4, data=[48, 0]),\r\n",
      "   midi.NoteOnEvent(tick=0, channel=4, data=[52, 100]),\r\n",
      "   midi.NoteOnEvent(tick=192, channel=4, data=[52, 0]),\r\n",
      "   midi.NoteOnEvent(tick=0, channel=4, data=[48, 100]),\r\n",
      "   midi.NoteOnEvent(tick=192, channel=4, data=[48, 0]),\r\n",
      "   midi.NoteOnEvent(tick=0, channel=4, data=[45, 100]),\r\n",
      "   midi.NoteOnEvent(tick=192, channel=4, data=[45, 0]),\r\n",
      "   midi.NoteOnEvent(tick=0, channel=4, data=[50, 100]),\r\n",
      "   midi.NoteOnEvent(tick=192, channel=4, data=[50, 0]),\r\n",
      "   midi.NoteOnEvent(tick=0, channel=4, data=[53, 100]),\r\n",
      "   midi.NoteOnEvent(tick=192, channel=4, data=[53, 0]),\r\n",
      "   midi.NoteOnEvent(tick=0, channel=4, data=[50, 100]),\r\n",
      "   midi.NoteOnEvent(tick=192, channel=4, data=[50, 0]),\r\n",
      "   midi.NoteOnEvent(tick=0, channel=4, data=[47, 100]),\r\n",
      "   midi.NoteOnEvent(tick=192, channel=4, data=[47, 0]),\r\n",
      "   midi.NoteOnEvent(tick=0, channel=4, data=[48, 100]),\r\n",
      "   midi.NoteOnEvent(tick=192, channel=4, data=[48, 0]),\r\n",
      "   midi.NoteOnEvent(tick=0, channel=4, data=[45, 100]),\r\n",
      "   midi.NoteOnEvent(tick=192, channel=4, data=[45, 0]),\r\n",
      "   midi.NoteOnEvent(tick=0, channel=4, data=[52, 100]),\r\n",
      "   midi.NoteOnEvent(tick=192, channel=4, data=[52, 0]),\r\n",
      "   midi.NoteOnEvent(tick=0, channel=4, data=[40, 100]),\r\n",
      "   midi.NoteOnEvent(tick=192, channel=4, data=[40, 0]),\r\n",
      "   midi.NoteOnEvent(tick=0, channel=4, data=[45, 100]),\r\n",
      "   midi.NoteOnEvent(tick=192, channel=4, data=[45, 0]),\r\n",
      "   midi.NoteOnEvent(tick=0, channel=4, data=[60, 100]),\r\n",
      "   midi.NoteOnEvent(tick=96, channel=4, data=[60, 0]),\r\n",
      "   midi.NoteOnEvent(tick=0, channel=4, data=[59, 100]),\r\n",
      "   midi.NoteOnEvent(tick=96, channel=4, data=[59, 0]),\r\n",
      "   midi.NoteOnEvent(tick=0, channel=4, data=[57, 100]),\r\n",
      "   midi.NoteOnEvent(tick=96, channel=4, data=[57, 0]),\r\n",
      "   midi.NoteOnEvent(tick=0, channel=4, data=[55, 100]),\r\n",
      "   midi.NoteOnEvent(tick=96, channel=4, data=[55, 0]),\r\n",
      "   midi.NoteOnEvent(tick=0, channel=4, data=[53, 100]),\r\n",
      "   midi.NoteOnEvent(tick=96, channel=4, data=[53, 0]),\r\n",
      "   midi.NoteOnEvent(tick=0, channel=4, data=[52, 100]),\r\n",
      "   midi.NoteOnEvent(tick=96, channel=4, data=[52, 0]),\r\n",
      "   midi.NoteOnEvent(tick=0, channel=4, data=[53, 100]),\r\n",
      "   midi.NoteOnEvent(tick=192, channel=4, data=[53, 0]),\r\n",
      "   midi.NoteOnEvent(tick=0, channel=4, data=[57, 100]),\r\n",
      "   midi.NoteOnEvent(tick=192, channel=4, data=[57, 0]),\r\n",
      "   midi.NoteOnEvent(tick=0, channel=4, data=[53, 100]),\r\n",
      "   midi.NoteOnEvent(tick=192, channel=4, data=[53, 0]),\r\n",
      "   midi.NoteOnEvent(tick=0, channel=4, data=[50, 100]),\r\n",
      "   midi.NoteOnEvent(tick=192, channel=4, data=[50, 0]),\r\n",
      "   midi.NoteOnEvent(tick=0, channel=4, data=[55, 100]),\r\n",
      "   midi.NoteOnEvent(tick=192, channel=4, data=[55, 0]),\r\n",
      "   midi.NoteOnEvent(tick=0, channel=4, data=[43, 100]),\r\n",
      "   midi.NoteOnEvent(tick=192, channel=4, data=[43, 0]),\r\n",
      "   midi.NoteOnEvent(tick=1344, channel=4, data=[59, 100]),\r\n",
      "   midi.NoteOnEvent(tick=96, channel=4, data=[59, 0]),\r\n",
      "   midi.NoteOnEvent(tick=0, channel=4, data=[57, 100]),\r\n",
      "   midi.NoteOnEvent(tick=96, channel=4, data=[57, 0]),\r\n",
      "   midi.NoteOnEvent(tick=0, channel=4, data=[55, 100]),\r\n",
      "   midi.NoteOnEvent(tick=96, channel=4, data=[55, 0]),\r\n",
      "   midi.NoteOnEvent(tick=0, channel=4, data=[53, 100]),\r\n",
      "   midi.NoteOnEvent(tick=96, channel=4, data=[53, 0]),\r\n",
      "   midi.NoteOnEvent(tick=0, channel=4, data=[52, 100]),\r\n",
      "   midi.NoteOnEvent(tick=96, channel=4, data=[52, 0]),\r\n",
      "   midi.NoteOnEvent(tick=0, channel=4, data=[50, 100]),\r\n",
      "   midi.NoteOnEvent(tick=96, channel=4, data=[50, 0]),\r\n",
      "   midi.NoteOnEvent(tick=0, channel=4, data=[52, 100]),\r\n",
      "   midi.NoteOnEvent(tick=192, channel=4, data=[52, 0]),\r\n",
      "   midi.NoteOnEvent(tick=0, channel=4, data=[55, 100]),\r\n",
      "   midi.NoteOnEvent(tick=192, channel=4, data=[55, 0]),\r\n",
      "   midi.NoteOnEvent(tick=0, channel=4, data=[52, 100]),\r\n",
      "   midi.NoteOnEvent(tick=192, channel=4, data=[52, 0]),\r\n",
      "   midi.NoteOnEvent(tick=0, channel=4, data=[48, 100]),\r\n",
      "   midi.NoteOnEvent(tick=192, channel=4, data=[48, 0]),\r\n",
      "   midi.NoteOnEvent(tick=0, channel=4, data=[53, 100]),\r\n",
      "   midi.NoteOnEvent(tick=192, channel=4, data=[53, 0]),\r\n",
      "   midi.NoteOnEvent(tick=0, channel=4, data=[41, 100]),\r\n",
      "   midi.NoteOnEvent(tick=192, channel=4, data=[41, 0]),\r\n",
      "   midi.NoteOnEvent(tick=1344, channel=4, data=[57, 100]),\r\n",
      "   midi.NoteOnEvent(tick=96, channel=4, data=[57, 0]),\r\n",
      "   midi.NoteOnEvent(tick=0, channel=4, data=[55, 100]),\r\n",
      "   midi.NoteOnEvent(tick=96, channel=4, data=[55, 0]),\r\n",
      "   midi.NoteOnEvent(tick=0, channel=4, data=[53, 100]),\r\n",
      "   midi.NoteOnEvent(tick=96, channel=4, data=[53, 0]),\r\n",
      "   midi.NoteOnEvent(tick=0, channel=4, data=[52, 100]),\r\n",
      "   midi.NoteOnEvent(tick=96, channel=4, data=[52, 0]),\r\n",
      "   midi.NoteOnEvent(tick=0, channel=4, data=[50, 100]),\r\n",
      "   midi.NoteOnEvent(tick=96, channel=4, data=[50, 0]),\r\n",
      "   midi.NoteOnEvent(tick=0, channel=4, data=[48, 100]),\r\n",
      "   midi.NoteOnEvent(tick=96, channel=4, data=[48, 0]),\r\n",
      "   midi.NoteOnEvent(tick=0, channel=4, data=[50, 100]),\r\n",
      "   midi.NoteOnEvent(tick=96, channel=4, data=[50, 0]),\r\n",
      "   midi.NoteOnEvent(tick=0, channel=4, data=[52, 100]),\r\n",
      "   midi.NoteOnEvent(tick=96, channel=4, data=[52, 0]),\r\n",
      "   midi.NoteOnEvent(tick=0, channel=4, data=[50, 100]),\r\n",
      "   midi.NoteOnEvent(tick=96, channel=4, data=[50, 0]),\r\n",
      "   midi.NoteOnEvent(tick=0, channel=4, data=[48, 100]),\r\n",
      "   midi.NoteOnEvent(tick=96, channel=4, data=[48, 0]),\r\n",
      "   midi.NoteOnEvent(tick=0, channel=4, data=[47, 100]),\r\n",
      "   midi.NoteOnEvent(tick=96, channel=4, data=[47, 0]),\r\n",
      "   midi.NoteOnEvent(tick=0, channel=4, data=[48, 100]),\r\n",
      "   midi.NoteOnEvent(tick=96, channel=4, data=[48, 0]),\r\n",
      "   midi.NoteOnEvent(tick=0, channel=4, data=[47, 100]),\r\n",
      "   midi.NoteOnEvent(tick=96, channel=4, data=[47, 0]),\r\n",
      "   midi.NoteOnEvent(tick=0, channel=4, data=[45, 100]),\r\n",
      "   midi.NoteOnEvent(tick=96, channel=4, data=[45, 0]),\r\n",
      "   midi.NoteOnEvent(tick=0, channel=4, data=[44, 100]),\r\n",
      "   midi.NoteOnEvent(tick=96, channel=4, data=[44, 0]),\r\n",
      "   midi.NoteOnEvent(tick=0, channel=4, data=[40, 100]),\r\n",
      "   midi.NoteOnEvent(tick=96, channel=4, data=[40, 0]),\r\n",
      "   midi.NoteOnEvent(tick=0, channel=4, data=[42, 100]),\r\n",
      "   midi.NoteOnEvent(tick=96, channel=4, data=[42, 0]),\r\n",
      "   midi.NoteOnEvent(tick=0, channel=4, data=[44, 100]),\r\n",
      "   midi.NoteOnEvent(tick=96, channel=4, data=[44, 0]),\r\n",
      "   midi.NoteOnEvent(tick=0, channel=4, data=[45, 100]),\r\n",
      "   midi.NoteOnEvent(tick=96, channel=4, data=[45, 0]),\r\n",
      "   midi.NoteOnEvent(tick=0, channel=4, data=[47, 100]),\r\n",
      "   midi.NoteOnEvent(tick=96, channel=4, data=[47, 0]),\r\n",
      "   midi.NoteOnEvent(tick=0, channel=4, data=[48, 100]),\r\n",
      "   midi.NoteOnEvent(tick=96, channel=4, data=[48, 0]),\r\n",
      "   midi.NoteOnEvent(tick=0, channel=4, data=[45, 100]),\r\n",
      "   midi.NoteOnEvent(tick=96, channel=4, data=[45, 0]),\r\n",
      "   midi.NoteOnEvent(tick=0, channel=4, data=[41, 100]),\r\n",
      "   midi.NoteOnEvent(tick=192, channel=4, data=[41, 0]),\r\n",
      "   midi.NoteOnEvent(tick=0, channel=4, data=[48, 100]),\r\n",
      "   midi.NoteOnEvent(tick=192, channel=4, data=[48, 0]),\r\n",
      "   midi.NoteOnEvent(tick=0, channel=4, data=[50, 100]),\r\n",
      "   midi.NoteOnEvent(tick=192, channel=4, data=[50, 0]),\r\n",
      "   midi.NoteOnEvent(tick=0, channel=4, data=[47, 100]),\r\n",
      "   midi.NoteOnEvent(tick=192, channel=4, data=[47, 0]),\r\n",
      "   midi.NoteOnEvent(tick=0, channel=4, data=[52, 100]),\r\n",
      "   midi.NoteOnEvent(tick=288, channel=4, data=[52, 0]),\r\n",
      "   midi.NoteOnEvent(tick=0, channel=4, data=[54, 100]),\r\n",
      "   midi.NoteOnEvent(tick=48, channel=4, data=[54, 0]),\r\n",
      "   midi.NoteOnEvent(tick=0, channel=4, data=[56, 100]),\r\n",
      "   midi.NoteOnEvent(tick=48, channel=4, data=[56, 0]),\r\n",
      "   midi.NoteOnEvent(tick=0, channel=4, data=[57, 100]),\r\n",
      "   midi.NoteOnEvent(tick=96, channel=4, data=[57, 0]),\r\n",
      "   midi.NoteOnEvent(tick=0, channel=4, data=[59, 100]),\r\n",
      "   midi.NoteOnEvent(tick=96, channel=4, data=[59, 0]),\r\n",
      "   midi.NoteOnEvent(tick=0, channel=4, data=[60, 100]),\r\n",
      "   midi.NoteOnEvent(tick=96, channel=4, data=[60, 0]),\r\n",
      "   midi.NoteOnEvent(tick=0, channel=4, data=[62, 100]),\r\n",
      "   midi.NoteOnEvent(tick=96, channel=4, data=[62, 0]),\r\n",
      "   midi.NoteOnEvent(tick=0, channel=4, data=[64, 100]),\r\n",
      "   midi.NoteOnEvent(tick=192, channel=4, data=[64, 0]),\r\n",
      "   midi.NoteOnEvent(tick=0, channel=4, data=[62, 100]),\r\n",
      "   midi.NoteOnEvent(tick=192, channel=4, data=[62, 0]),\r\n",
      "   midi.NoteOnEvent(tick=0, channel=4, data=[64, 100]),\r\n",
      "   midi.NoteOnEvent(tick=192, channel=4, data=[64, 0]),\r\n",
      "   midi.NoteOnEvent(tick=0, channel=4, data=[52, 100]),\r\n",
      "   midi.NoteOnEvent(tick=192, channel=4, data=[52, 0]),\r\n",
      "   midi.NoteOnEvent(tick=0, channel=4, data=[62, 100]),\r\n",
      "   midi.NoteOnEvent(tick=192, channel=4, data=[62, 0]),\r\n",
      "   midi.NoteOnEvent(tick=0, channel=4, data=[64, 100]),\r\n",
      "   midi.NoteOnEvent(tick=192, channel=4, data=[64, 0]),\r\n",
      "   midi.NoteOnEvent(tick=0, channel=4, data=[62, 100]),\r\n",
      "   midi.NoteOnEvent(tick=192, channel=4, data=[62, 0]),\r\n",
      "   midi.NoteOnEvent(tick=0, channel=4, data=[60, 100]),\r\n",
      "   midi.NoteOnEvent(tick=192, channel=4, data=[60, 0]),\r\n",
      "   midi.NoteOnEvent(tick=0, channel=4, data=[59, 100]),\r\n",
      "   midi.NoteOnEvent(tick=192, channel=4, data=[59, 0]),\r\n",
      "   midi.NoteOnEvent(tick=0, channel=4, data=[60, 100]),\r\n",
      "   midi.NoteOnEvent(tick=192, channel=4, data=[60, 0]),\r\n",
      "   midi.NoteOnEvent(tick=0, channel=4, data=[59, 100]),\r\n",
      "   midi.NoteOnEvent(tick=192, channel=4, data=[59, 0]),\r\n",
      "   midi.NoteOnEvent(tick=0, channel=4, data=[57, 100]),\r\n",
      "   midi.NoteOnEvent(tick=192, channel=4, data=[57, 0]),\r\n",
      "   midi.NoteOnEvent(tick=0, channel=4, data=[56, 100]),\r\n",
      "   midi.NoteOnEvent(tick=192, channel=4, data=[56, 0]),\r\n",
      "   midi.NoteOnEvent(tick=0, channel=4, data=[57, 100]),\r\n",
      "   midi.NoteOnEvent(tick=192, channel=4, data=[57, 0]),\r\n",
      "   midi.NoteOnEvent(tick=0, channel=4, data=[59, 100]),\r\n",
      "   midi.NoteOnEvent(tick=192, channel=4, data=[59, 0]),\r\n",
      "   midi.NoteOnEvent(tick=0, channel=4, data=[60, 100]),\r\n",
      "   midi.NoteOnEvent(tick=192, channel=4, data=[60, 0]),\r\n",
      "   midi.NoteOnEvent(tick=0, channel=4, data=[50, 100]),\r\n",
      "   midi.NoteOnEvent(tick=192, channel=4, data=[50, 0]),\r\n",
      "   midi.NoteOnEvent(tick=0, channel=4, data=[52, 100]),\r\n",
      "   midi.NoteOnEvent(tick=192, channel=4, data=[52, 0]),\r\n",
      "   midi.NoteOnEvent(tick=0, channel=4, data=[53, 100]),\r\n",
      "   midi.NoteOnEvent(tick=192, channel=4, data=[53, 0]),\r\n",
      "   midi.NoteOnEvent(tick=0, channel=4, data=[47, 100]),\r\n",
      "   midi.NoteOnEvent(tick=192, channel=4, data=[47, 0]),\r\n",
      "   midi.NoteOnEvent(tick=0, channel=4, data=[52, 100]),\r\n",
      "   midi.NoteOnEvent(tick=192, channel=4, data=[52, 0]),\r\n",
      "   midi.NoteOnEvent(tick=0, channel=4, data=[50, 100]),\r\n",
      "   midi.NoteOnEvent(tick=96, channel=4, data=[50, 0]),\r\n",
      "   midi.NoteOnEvent(tick=0, channel=4, data=[48, 100]),\r\n",
      "   midi.NoteOnEvent(tick=96, channel=4, data=[48, 0]),\r\n",
      "   midi.NoteOnEvent(tick=0, channel=4, data=[47, 100]),\r\n",
      "   midi.NoteOnEvent(tick=192, channel=4, data=[47, 0]),\r\n",
      "   midi.NoteOnEvent(tick=0, channel=4, data=[45, 100]),\r\n",
      "   midi.NoteOnEvent(tick=192, channel=4, data=[45, 0]),\r\n",
      "   midi.NoteOnEvent(tick=0, channel=4, data=[44, 100]),\r\n",
      "   midi.NoteOnEvent(tick=192, channel=4, data=[44, 0]),\r\n",
      "   midi.NoteOnEvent(tick=0, channel=4, data=[42, 100]),\r\n",
      "   midi.NoteOnEvent(tick=192, channel=4, data=[42, 0]),\r\n",
      "   midi.NoteOnEvent(tick=0, channel=4, data=[40, 100]),\r\n",
      "   midi.NoteOnEvent(tick=192, channel=4, data=[40, 0]),\r\n",
      "   midi.NoteOnEvent(tick=0, channel=4, data=[38, 100]),\r\n",
      "   midi.NoteOnEvent(tick=192, channel=4, data=[38, 0]),\r\n",
      "   midi.NoteOnEvent(tick=0, channel=4, data=[36, 100]),\r\n",
      "   midi.NoteOnEvent(tick=192, channel=4, data=[36, 0]),\r\n",
      "   midi.NoteOnEvent(tick=0, channel=4, data=[53, 100]),\r\n",
      "   midi.NoteOnEvent(tick=192, channel=4, data=[53, 0]),\r\n",
      "   midi.NoteOnEvent(tick=0, channel=4, data=[50, 100]),\r\n",
      "   midi.NoteOnEvent(tick=192, channel=4, data=[50, 0]),\r\n",
      "   midi.NoteOnEvent(tick=0, channel=4, data=[52, 100]),\r\n",
      "   midi.NoteOnEvent(tick=192, channel=4, data=[52, 0]),\r\n",
      "   midi.NoteOnEvent(tick=0, channel=4, data=[41, 100]),\r\n",
      "   midi.NoteOnEvent(tick=384, channel=4, data=[41, 0]),\r\n",
      "   midi.NoteOnEvent(tick=192, channel=4, data=[53, 100]),\r\n",
      "   midi.NoteOnEvent(tick=192, channel=4, data=[53, 0]),\r\n",
      "   midi.NoteOnEvent(tick=0, channel=4, data=[44, 100]),\r\n",
      "   midi.NoteOnEvent(tick=192, channel=4, data=[44, 0]),\r\n",
      "   midi.NoteOnEvent(tick=0, channel=4, data=[44, 100]),\r\n",
      "   midi.NoteOnEvent(tick=192, channel=4, data=[44, 0]),\r\n",
      "   midi.NoteOnEvent(tick=0, channel=4, data=[44, 100]),\r\n",
      "   midi.NoteOnEvent(tick=192, channel=4, data=[44, 0]),\r\n",
      "   midi.NoteOnEvent(tick=0, channel=4, data=[59, 100]),\r\n",
      "   midi.NoteOnEvent(tick=192, channel=4, data=[59, 0]),\r\n",
      "   midi.NoteOnEvent(tick=0, channel=4, data=[50, 100]),\r\n",
      "   midi.NoteOnEvent(tick=192, channel=4, data=[50, 0]),\r\n",
      "   midi.NoteOnEvent(tick=0, channel=4, data=[50, 100]),\r\n",
      "   midi.NoteOnEvent(tick=192, channel=4, data=[50, 0]),\r\n",
      "   midi.NoteOnEvent(tick=0, channel=4, data=[50, 100]),\r\n",
      "   midi.NoteOnEvent(tick=192, channel=4, data=[50, 0]),\r\n",
      "   midi.NoteOnEvent(tick=0, channel=4, data=[53, 100]),\r\n",
      "   midi.NoteOnEvent(tick=192, channel=4, data=[53, 0]),\r\n",
      "   midi.NoteOnEvent(tick=0, channel=4, data=[47, 100]),\r\n",
      "   midi.NoteOnEvent(tick=192, channel=4, data=[47, 0]),\r\n",
      "   midi.NoteOnEvent(tick=0, channel=4, data=[48, 100]),\r\n",
      "   midi.NoteOnEvent(tick=96, channel=4, data=[48, 0]),\r\n",
      "   midi.NoteOnEvent(tick=0, channel=4, data=[50, 100]),\r\n",
      "   midi.NoteOnEvent(tick=96, channel=4, data=[50, 0]),\r\n",
      "   midi.NoteOnEvent(tick=0, channel=4, data=[52, 100]),\r\n",
      "   midi.NoteOnEvent(tick=192, channel=4, data=[52, 0]),\r\n",
      "   midi.NoteOnEvent(tick=0, channel=4, data=[40, 100]),\r\n",
      "   midi.NoteOnEvent(tick=192, channel=4, data=[40, 0]),\r\n",
      "   midi.NoteOnEvent(tick=0, channel=4, data=[45, 100]),\r\n",
      "   midi.NoteOnEvent(tick=576, channel=4, data=[45, 0]),\r\n",
      "   midi.EndOfTrackEvent(tick=0, data=[])]),\r\n",
      " midi.Track(\\\r\n",
      "  [midi.PortEvent(tick=0, data=[0]),\r\n",
      "   midi.TrackNameEvent(tick=0, text='Violone', data=[86, 105, 111, 108, 111, 110, 101]),\r\n",
      "   midi.ProgramChangeEvent(tick=0, channel=5, data=[43]),\r\n",
      "   midi.ControlChangeEvent(tick=0, channel=5, data=[7, 100]),\r\n",
      "   midi.ControlChangeEvent(tick=0, channel=5, data=[10, 64]),\r\n",
      "   midi.NoteOnEvent(tick=960, channel=5, data=[33, 100]),\r\n",
      "   midi.NoteOnEvent(tick=192, channel=5, data=[33, 0]),\r\n",
      "   midi.NoteOnEvent(tick=0, channel=5, data=[45, 100]),\r\n",
      "   midi.NoteOnEvent(tick=384, channel=5, data=[45, 0]),\r\n",
      "   midi.NoteOnEvent(tick=192, channel=5, data=[33, 100]),\r\n",
      "   midi.NoteOnEvent(tick=192, channel=5, data=[33, 0]),\r\n",
      "   midi.NoteOnEvent(tick=0, channel=5, data=[45, 100]),\r\n",
      "   midi.NoteOnEvent(tick=384, channel=5, data=[45, 0]),\r\n",
      "   midi.NoteOnEvent(tick=192, channel=5, data=[33, 100]),\r\n",
      "   midi.NoteOnEvent(tick=192, channel=5, data=[33, 0]),\r\n",
      "   midi.NoteOnEvent(tick=0, channel=5, data=[40, 100]),\r\n",
      "   midi.NoteOnEvent(tick=192, channel=5, data=[40, 0]),\r\n",
      "   midi.NoteOnEvent(tick=0, channel=5, data=[28, 100]),\r\n",
      "   midi.NoteOnEvent(tick=192, channel=5, data=[28, 0]),\r\n",
      "   midi.NoteOnEvent(tick=0, channel=5, data=[33, 100]),\r\n",
      "   midi.NoteOnEvent(tick=192, channel=5, data=[33, 0]),\r\n",
      "   midi.NoteOnEvent(tick=0, channel=5, data=[45, 100]),\r\n",
      "   midi.NoteOnEvent(tick=96, channel=5, data=[45, 0]),\r\n",
      "   midi.NoteOnEvent(tick=0, channel=5, data=[47, 100]),\r\n",
      "   midi.NoteOnEvent(tick=96, channel=5, data=[47, 0]),\r\n",
      "   midi.NoteOnEvent(tick=0, channel=5, data=[48, 100]),\r\n",
      "   midi.NoteOnEvent(tick=192, channel=5, data=[48, 0]),\r\n",
      "   midi.NoteOnEvent(tick=0, channel=5, data=[45, 100]),\r\n",
      "   midi.NoteOnEvent(tick=192, channel=5, data=[45, 0]),\r\n",
      "   midi.NoteOnEvent(tick=0, channel=5, data=[44, 100]),\r\n",
      "   midi.NoteOnEvent(tick=192, channel=5, data=[44, 0]),\r\n",
      "   midi.NoteOnEvent(tick=0, channel=5, data=[40, 100]),\r\n",
      "   midi.NoteOnEvent(tick=192, channel=5, data=[40, 0]),\r\n",
      "   midi.NoteOnEvent(tick=0, channel=5, data=[45, 100]),\r\n",
      "   midi.NoteOnEvent(tick=192, channel=5, data=[45, 0]),\r\n",
      "   midi.NoteOnEvent(tick=0, channel=5, data=[40, 100]),\r\n",
      "   midi.NoteOnEvent(tick=192, channel=5, data=[40, 0]),\r\n",
      "   midi.NoteOnEvent(tick=0, channel=5, data=[47, 100]),\r\n",
      "   midi.NoteOnEvent(tick=192, channel=5, data=[47, 0]),\r\n",
      "   midi.NoteOnEvent(tick=0, channel=5, data=[40, 100]),\r\n",
      "   midi.NoteOnEvent(tick=192, channel=5, data=[40, 0]),\r\n",
      "   midi.NoteOnEvent(tick=0, channel=5, data=[48, 100]),\r\n",
      "   midi.NoteOnEvent(tick=192, channel=5, data=[48, 0]),\r\n",
      "   midi.NoteOnEvent(tick=0, channel=5, data=[40, 100]),\r\n",
      "   midi.NoteOnEvent(tick=192, channel=5, data=[40, 0]),\r\n",
      "   midi.NoteOnEvent(tick=0, channel=5, data=[50, 100]),\r\n",
      "   midi.NoteOnEvent(tick=192, channel=5, data=[50, 0]),\r\n",
      "   midi.NoteOnEvent(tick=0, channel=5, data=[38, 100]),\r\n",
      "   midi.NoteOnEvent(tick=192, channel=5, data=[38, 0]),\r\n",
      "   midi.NoteOnEvent(tick=0, channel=5, data=[40, 100]),\r\n",
      "   midi.NoteOnEvent(tick=192, channel=5, data=[40, 0]),\r\n",
      "   midi.NoteOnEvent(tick=0, channel=5, data=[41, 100]),\r\n",
      "   midi.NoteOnEvent(tick=192, channel=5, data=[41, 0]),\r\n",
      "   midi.NoteOnEvent(tick=0, channel=5, data=[40, 100]),\r\n",
      "   midi.NoteOnEvent(tick=192, channel=5, data=[40, 0]),\r\n",
      "   midi.NoteOnEvent(tick=0, channel=5, data=[28, 100]),\r\n",
      "   midi.NoteOnEvent(tick=192, channel=5, data=[28, 0]),\r\n",
      "   midi.NoteOnEvent(tick=192, channel=5, data=[52, 100]),\r\n",
      "   midi.NoteOnEvent(tick=96, channel=5, data=[52, 0]),\r\n",
      "   midi.NoteOnEvent(tick=0, channel=5, data=[50, 100]),\r\n",
      "   midi.NoteOnEvent(tick=96, channel=5, data=[50, 0]),\r\n",
      "   midi.NoteOnEvent(tick=0, channel=5, data=[48, 100]),\r\n",
      "   midi.NoteOnEvent(tick=192, channel=5, data=[48, 0]),\r\n",
      "   midi.NoteOnEvent(tick=0, channel=5, data=[52, 100]),\r\n",
      "   midi.NoteOnEvent(tick=192, channel=5, data=[52, 0]),\r\n",
      "   midi.NoteOnEvent(tick=0, channel=5, data=[48, 100]),\r\n",
      "   midi.NoteOnEvent(tick=192, channel=5, data=[48, 0]),\r\n",
      "   midi.NoteOnEvent(tick=0, channel=5, data=[45, 100]),\r\n",
      "   midi.NoteOnEvent(tick=192, channel=5, data=[45, 0]),\r\n",
      "   midi.NoteOnEvent(tick=0, channel=5, data=[50, 100]),\r\n",
      "   midi.NoteOnEvent(tick=192, channel=5, data=[50, 0]),\r\n",
      "   midi.NoteOnEvent(tick=0, channel=5, data=[38, 100]),\r\n",
      "   midi.NoteOnEvent(tick=192, channel=5, data=[38, 0]),\r\n",
      "   midi.NoteOnEvent(tick=192, channel=5, data=[50, 100]),\r\n",
      "   midi.NoteOnEvent(tick=96, channel=5, data=[50, 0]),\r\n",
      "   midi.NoteOnEvent(tick=0, channel=5, data=[48, 100]),\r\n",
      "   midi.NoteOnEvent(tick=96, channel=5, data=[48, 0]),\r\n",
      "   midi.NoteOnEvent(tick=0, channel=5, data=[47, 100]),\r\n",
      "   midi.NoteOnEvent(tick=192, channel=5, data=[47, 0]),\r\n",
      "   midi.NoteOnEvent(tick=0, channel=5, data=[50, 100]),\r\n",
      "   midi.NoteOnEvent(tick=192, channel=5, data=[50, 0]),\r\n",
      "   midi.NoteOnEvent(tick=0, channel=5, data=[47, 100]),\r\n",
      "   midi.NoteOnEvent(tick=192, channel=5, data=[47, 0]),\r\n",
      "   midi.NoteOnEvent(tick=0, channel=5, data=[43, 100]),\r\n",
      "   midi.NoteOnEvent(tick=192, channel=5, data=[43, 0]),\r\n",
      "   midi.NoteOnEvent(tick=0, channel=5, data=[48, 100]),\r\n",
      "   midi.NoteOnEvent(tick=192, channel=5, data=[48, 0]),\r\n",
      "   midi.NoteOnEvent(tick=0, channel=5, data=[36, 100]),\r\n",
      "   midi.NoteOnEvent(tick=192, channel=5, data=[36, 0]),\r\n",
      "   midi.NoteOnEvent(tick=192, channel=5, data=[48, 100]),\r\n",
      "   midi.NoteOnEvent(tick=96, channel=5, data=[48, 0]),\r\n",
      "   midi.NoteOnEvent(tick=0, channel=5, data=[47, 100]),\r\n",
      "   midi.NoteOnEvent(tick=96, channel=5, data=[47, 0]),\r\n",
      "   midi.NoteOnEvent(tick=0, channel=5, data=[45, 100]),\r\n",
      "   midi.NoteOnEvent(tick=96, channel=5, data=[45, 0]),\r\n",
      "   midi.NoteOnEvent(tick=0, channel=5, data=[47, 100]),\r\n",
      "   midi.NoteOnEvent(tick=96, channel=5, data=[47, 0]),\r\n",
      "   midi.NoteOnEvent(tick=0, channel=5, data=[45, 100]),\r\n",
      "   midi.NoteOnEvent(tick=96, channel=5, data=[45, 0]),\r\n",
      "   midi.NoteOnEvent(tick=0, channel=5, data=[43, 100]),\r\n",
      "   midi.NoteOnEvent(tick=96, channel=5, data=[43, 0]),\r\n",
      "   midi.NoteOnEvent(tick=0, channel=5, data=[42, 100]),\r\n",
      "   midi.NoteOnEvent(tick=96, channel=5, data=[42, 0]),\r\n",
      "   midi.NoteOnEvent(tick=0, channel=5, data=[43, 100]),\r\n",
      "   midi.NoteOnEvent(tick=96, channel=5, data=[43, 0]),\r\n",
      "   midi.NoteOnEvent(tick=0, channel=5, data=[42, 100]),\r\n",
      "   midi.NoteOnEvent(tick=96, channel=5, data=[42, 0]),\r\n",
      "   midi.NoteOnEvent(tick=0, channel=5, data=[40, 100]),\r\n",
      "   midi.NoteOnEvent(tick=96, channel=5, data=[40, 0]),\r\n",
      "   midi.NoteOnEvent(tick=0, channel=5, data=[39, 100]),\r\n",
      "   midi.NoteOnEvent(tick=96, channel=5, data=[39, 0]),\r\n",
      "   midi.NoteOnEvent(tick=0, channel=5, data=[35, 100]),\r\n",
      "   midi.NoteOnEvent(tick=96, channel=5, data=[35, 0]),\r\n",
      "   midi.NoteOnEvent(tick=0, channel=5, data=[37, 100]),\r\n",
      "   midi.NoteOnEvent(tick=96, channel=5, data=[37, 0]),\r\n",
      "   midi.NoteOnEvent(tick=0, channel=5, data=[39, 100]),\r\n",
      "   midi.NoteOnEvent(tick=96, channel=5, data=[39, 0]),\r\n",
      "   midi.NoteOnEvent(tick=0, channel=5, data=[40, 100]),\r\n",
      "   midi.NoteOnEvent(tick=96, channel=5, data=[40, 0]),\r\n",
      "   midi.NoteOnEvent(tick=0, channel=5, data=[42, 100]),\r\n",
      "   midi.NoteOnEvent(tick=96, channel=5, data=[42, 0]),\r\n",
      "   midi.NoteOnEvent(tick=0, channel=5, data=[43, 100]),\r\n",
      "   midi.NoteOnEvent(tick=96, channel=5, data=[43, 0]),\r\n",
      "   midi.NoteOnEvent(tick=0, channel=5, data=[40, 100]),\r\n",
      "   midi.NoteOnEvent(tick=96, channel=5, data=[40, 0]),\r\n",
      "   midi.NoteOnEvent(tick=0, channel=5, data=[36, 100]),\r\n",
      "   midi.NoteOnEvent(tick=192, channel=5, data=[36, 0]),\r\n",
      "   midi.NoteOnEvent(tick=0, channel=5, data=[35, 100]),\r\n",
      "   midi.NoteOnEvent(tick=192, channel=5, data=[35, 0]),\r\n",
      "   midi.NoteOnEvent(tick=0, channel=5, data=[36, 100]),\r\n",
      "   midi.NoteOnEvent(tick=192, channel=5, data=[36, 0]),\r\n",
      "   midi.NoteOnEvent(tick=0, channel=5, data=[33, 100]),\r\n",
      "   midi.NoteOnEvent(tick=192, channel=5, data=[33, 0]),\r\n",
      "   midi.NoteOnEvent(tick=0, channel=5, data=[35, 100]),\r\n",
      "   midi.NoteOnEvent(tick=288, channel=5, data=[35, 0]),\r\n",
      "   midi.NoteOnEvent(tick=0, channel=5, data=[37, 100]),\r\n",
      "   midi.NoteOnEvent(tick=48, channel=5, data=[37, 0]),\r\n",
      "   midi.NoteOnEvent(tick=0, channel=5, data=[39, 100]),\r\n",
      "   midi.NoteOnEvent(tick=48, channel=5, data=[39, 0]),\r\n",
      "   midi.NoteOnEvent(tick=0, channel=5, data=[40, 100]),\r\n",
      "   midi.NoteOnEvent(tick=96, channel=5, data=[40, 0]),\r\n",
      "   midi.NoteOnEvent(tick=0, channel=5, data=[42, 100]),\r\n",
      "   midi.NoteOnEvent(tick=96, channel=5, data=[42, 0]),\r\n",
      "   midi.NoteOnEvent(tick=0, channel=5, data=[43, 100]),\r\n",
      "   midi.NoteOnEvent(tick=96, channel=5, data=[43, 0]),\r\n",
      "   midi.NoteOnEvent(tick=0, channel=5, data=[45, 100]),\r\n",
      "   midi.NoteOnEvent(tick=96, channel=5, data=[45, 0]),\r\n",
      "   midi.NoteOnEvent(tick=0, channel=5, data=[47, 100]),\r\n",
      "   midi.NoteOnEvent(tick=192, channel=5, data=[47, 0]),\r\n",
      "   midi.NoteOnEvent(tick=0, channel=5, data=[45, 100]),\r\n",
      "   midi.NoteOnEvent(tick=192, channel=5, data=[45, 0]),\r\n",
      "   midi.NoteOnEvent(tick=0, channel=5, data=[47, 100]),\r\n",
      "   midi.NoteOnEvent(tick=192, channel=5, data=[47, 0]),\r\n",
      "   midi.NoteOnEvent(tick=0, channel=5, data=[35, 100]),\r\n",
      "   midi.NoteOnEvent(tick=192, channel=5, data=[35, 0]),\r\n",
      "   midi.NoteOnEvent(tick=0, channel=5, data=[45, 100]),\r\n",
      "   midi.NoteOnEvent(tick=192, channel=5, data=[45, 0]),\r\n",
      "   midi.NoteOnEvent(tick=0, channel=5, data=[43, 100]),\r\n",
      "   midi.NoteOnEvent(tick=192, channel=5, data=[43, 0]),\r\n",
      "   midi.NoteOnEvent(tick=0, channel=5, data=[45, 100]),\r\n",
      "   midi.NoteOnEvent(tick=192, channel=5, data=[45, 0]),\r\n",
      "   midi.NoteOnEvent(tick=0, channel=5, data=[33, 100]),\r\n",
      "   midi.NoteOnEvent(tick=192, channel=5, data=[33, 0]),\r\n",
      "   midi.NoteOnEvent(tick=0, channel=5, data=[31, 100]),\r\n",
      "   midi.NoteOnEvent(tick=192, channel=5, data=[31, 0]),\r\n",
      "   midi.NoteOnEvent(tick=0, channel=5, data=[36, 100]),\r\n",
      "   midi.NoteOnEvent(tick=192, channel=5, data=[36, 0]),\r\n",
      "   midi.NoteOnEvent(tick=0, channel=5, data=[33, 100]),\r\n",
      "   midi.NoteOnEvent(tick=192, channel=5, data=[33, 0]),\r\n",
      "   midi.NoteOnEvent(tick=0, channel=5, data=[35, 100]),\r\n",
      "   midi.NoteOnEvent(tick=192, channel=5, data=[35, 0]),\r\n",
      "   midi.NoteOnEvent(tick=0, channel=5, data=[28, 100]),\r\n",
      "   midi.NoteOnEvent(tick=384, channel=5, data=[28, 0]),\r\n",
      "   midi.NoteOnEvent(tick=192, channel=5, data=[48, 100]),\r\n",
      "   midi.NoteOnEvent(tick=192, channel=5, data=[48, 0]),\r\n",
      "   midi.NoteOnEvent(tick=0, channel=5, data=[39, 100]),\r\n",
      "   midi.NoteOnEvent(tick=192, channel=5, data=[39, 0]),\r\n",
      "   midi.NoteOnEvent(tick=0, channel=5, data=[39, 100]),\r\n",
      "   midi.NoteOnEvent(tick=192, channel=5, data=[39, 0]),\r\n",
      "   midi.NoteOnEvent(tick=0, channel=5, data=[39, 100]),\r\n",
      "   midi.NoteOnEvent(tick=192, channel=5, data=[39, 0]),\r\n",
      "   midi.NoteOnEvent(tick=0, channel=5, data=[42, 100]),\r\n",
      "   midi.NoteOnEvent(tick=192, channel=5, data=[42, 0]),\r\n",
      "   midi.NoteOnEvent(tick=0, channel=5, data=[33, 100]),\r\n",
      "   midi.NoteOnEvent(tick=192, channel=5, data=[33, 0]),\r\n",
      "   midi.NoteOnEvent(tick=0, channel=5, data=[33, 100]),\r\n",
      "   midi.NoteOnEvent(tick=192, channel=5, data=[33, 0]),\r\n",
      "   midi.NoteOnEvent(tick=0, channel=5, data=[33, 100]),\r\n",
      "   midi.NoteOnEvent(tick=192, channel=5, data=[33, 0]),\r\n",
      "   midi.NoteOnEvent(tick=0, channel=5, data=[36, 100]),\r\n",
      "   midi.NoteOnEvent(tick=192, channel=5, data=[36, 0]),\r\n",
      "   midi.NoteOnEvent(tick=0, channel=5, data=[30, 100]),\r\n",
      "   midi.NoteOnEvent(tick=192, channel=5, data=[30, 0]),\r\n",
      "   midi.NoteOnEvent(tick=0, channel=5, data=[28, 100]),\r\n",
      "   midi.NoteOnEvent(tick=192, channel=5, data=[28, 0]),\r\n",
      "   midi.NoteOnEvent(tick=0, channel=5, data=[35, 100]),\r\n",
      "   midi.NoteOnEvent(tick=192, channel=5, data=[35, 0]),\r\n",
      "   midi.NoteOnEvent(tick=0, channel=5, data=[35, 100]),\r\n",
      "   midi.NoteOnEvent(tick=192, channel=5, data=[35, 0]),\r\n",
      "   midi.NoteOnEvent(tick=0, channel=5, data=[28, 100]),\r\n",
      "   midi.NoteOnEvent(tick=192, channel=5, data=[28, 0]),\r\n",
      "   midi.NoteOnEvent(tick=0, channel=5, data=[40, 100]),\r\n",
      "   midi.NoteOnEvent(tick=96, channel=5, data=[40, 0]),\r\n",
      "   midi.NoteOnEvent(tick=0, channel=5, data=[38, 100]),\r\n",
      "   midi.NoteOnEvent(tick=96, channel=5, data=[38, 0]),\r\n",
      "   midi.NoteOnEvent(tick=0, channel=5, data=[36, 100]),\r\n",
      "   midi.NoteOnEvent(tick=192, channel=5, data=[36, 0]),\r\n",
      "   midi.NoteOnEvent(tick=0, channel=5, data=[35, 100]),\r\n",
      "   midi.NoteOnEvent(tick=192, channel=5, data=[35, 0]),\r\n",
      "   midi.NoteOnEvent(tick=0, channel=5, data=[33, 100]),\r\n",
      "   midi.NoteOnEvent(tick=384, channel=5, data=[33, 0]),\r\n",
      "   midi.NoteOnEvent(tick=192, channel=5, data=[45, 100]),\r\n",
      "   midi.NoteOnEvent(tick=192, channel=5, data=[45, 0]),\r\n",
      "   midi.NoteOnEvent(tick=0, channel=5, data=[52, 100]),\r\n",
      "   midi.NoteOnEvent(tick=384, channel=5, data=[52, 0]),\r\n",
      "   midi.NoteOnEvent(tick=192, channel=5, data=[40, 100]),\r\n",
      "   midi.NoteOnEvent(tick=192, channel=5, data=[40, 0]),\r\n",
      "   midi.NoteOnEvent(tick=0, channel=5, data=[32, 100]),\r\n",
      "   midi.NoteOnEvent(tick=384, channel=5, data=[32, 0]),\r\n",
      "   midi.NoteOnEvent(tick=192, channel=5, data=[40, 100]),\r\n",
      "   midi.NoteOnEvent(tick=192, channel=5, data=[40, 0]),\r\n",
      "   midi.NoteOnEvent(tick=0, channel=5, data=[45, 100]),\r\n",
      "   midi.NoteOnEvent(tick=384, channel=5, data=[45, 0]),\r\n",
      "   midi.NoteOnEvent(tick=192, channel=5, data=[45, 100]),\r\n",
      "   midi.NoteOnEvent(tick=192, channel=5, data=[45, 0]),\r\n",
      "   midi.NoteOnEvent(tick=0, channel=5, data=[33, 100]),\r\n",
      "   midi.NoteOnEvent(tick=192, channel=5, data=[33, 0]),\r\n",
      "   midi.NoteOnEvent(tick=0, channel=5, data=[36, 100]),\r\n",
      "   midi.NoteOnEvent(tick=192, channel=5, data=[36, 0]),\r\n",
      "   midi.NoteOnEvent(tick=0, channel=5, data=[38, 100]),\r\n",
      "   midi.NoteOnEvent(tick=192, channel=5, data=[38, 0]),\r\n",
      "   midi.NoteOnEvent(tick=0, channel=5, data=[41, 100]),\r\n",
      "   midi.NoteOnEvent(tick=192, channel=5, data=[41, 0]),\r\n",
      "   midi.NoteOnEvent(tick=0, channel=5, data=[31, 100]),\r\n",
      "   midi.NoteOnEvent(tick=192, channel=5, data=[31, 0]),\r\n",
      "   midi.NoteOnEvent(tick=0, channel=5, data=[35, 100]),\r\n",
      "   midi.NoteOnEvent(tick=192, channel=5, data=[35, 0]),\r\n",
      "   midi.NoteOnEvent(tick=0, channel=5, data=[36, 100]),\r\n",
      "   midi.NoteOnEvent(tick=192, channel=5, data=[36, 0]),\r\n",
      "   midi.NoteOnEvent(tick=0, channel=5, data=[40, 100]),\r\n",
      "   midi.NoteOnEvent(tick=192, channel=5, data=[40, 0]),\r\n",
      "   midi.NoteOnEvent(tick=0, channel=5, data=[41, 100]),\r\n",
      "   midi.NoteOnEvent(tick=192, channel=5, data=[41, 0]),\r\n",
      "   midi.NoteOnEvent(tick=0, channel=5, data=[45, 100]),\r\n",
      "   midi.NoteOnEvent(tick=192, channel=5, data=[45, 0]),\r\n",
      "   midi.NoteOnEvent(tick=0, channel=5, data=[35, 100]),\r\n",
      "   midi.NoteOnEvent(tick=192, channel=5, data=[35, 0]),\r\n",
      "   midi.NoteOnEvent(tick=0, channel=5, data=[38, 100]),\r\n",
      "   midi.NoteOnEvent(tick=192, channel=5, data=[38, 0]),\r\n",
      "   midi.NoteOnEvent(tick=0, channel=5, data=[28, 100]),\r\n",
      "   midi.NoteOnEvent(tick=192, channel=5, data=[28, 0]),\r\n",
      "   midi.NoteOnEvent(tick=0, channel=5, data=[40, 100]),\r\n",
      "   midi.NoteOnEvent(tick=192, channel=5, data=[40, 0]),\r\n",
      "   midi.NoteOnEvent(tick=0, channel=5, data=[44, 100]),\r\n",
      "   midi.NoteOnEvent(tick=192, channel=5, data=[44, 0]),\r\n",
      "   midi.NoteOnEvent(tick=0, channel=5, data=[40, 100]),\r\n",
      "   midi.NoteOnEvent(tick=192, channel=5, data=[40, 0]),\r\n",
      "   midi.NoteOnEvent(tick=192, channel=5, data=[45, 100]),\r\n",
      "   midi.NoteOnEvent(tick=192, channel=5, data=[45, 0]),\r\n",
      "   midi.NoteOnEvent(tick=0, channel=5, data=[48, 100]),\r\n",
      "   midi.NoteOnEvent(tick=192, channel=5, data=[48, 0]),\r\n",
      "   midi.NoteOnEvent(tick=0, channel=5, data=[45, 100]),\r\n",
      "   midi.NoteOnEvent(tick=192, channel=5, data=[45, 0]),\r\n",
      "   midi.NoteOnEvent(tick=192, channel=5, data=[45, 100]),\r\n",
      "   midi.NoteOnEvent(tick=192, channel=5, data=[45, 0]),\r\n",
      "   midi.NoteOnEvent(tick=0, channel=5, data=[41, 100]),\r\n",
      "   midi.NoteOnEvent(tick=192, channel=5, data=[41, 0]),\r\n",
      "   midi.NoteOnEvent(tick=0, channel=5, data=[38, 100]),\r\n",
      "   midi.NoteOnEvent(tick=192, channel=5, data=[38, 0]),\r\n",
      "   midi.NoteOnEvent(tick=192, channel=5, data=[43, 100]),\r\n",
      "   midi.NoteOnEvent(tick=192, channel=5, data=[43, 0]),\r\n",
      "   midi.NoteOnEvent(tick=0, channel=5, data=[47, 100]),\r\n",
      "   midi.NoteOnEvent(tick=192, channel=5, data=[47, 0]),\r\n",
      "   midi.NoteOnEvent(tick=0, channel=5, data=[43, 100]),\r\n",
      "   midi.NoteOnEvent(tick=192, channel=5, data=[43, 0]),\r\n",
      "   midi.NoteOnEvent(tick=192, channel=5, data=[43, 100]),\r\n",
      "   midi.NoteOnEvent(tick=192, channel=5, data=[43, 0]),\r\n",
      "   midi.NoteOnEvent(tick=0, channel=5, data=[40, 100]),\r\n",
      "   midi.NoteOnEvent(tick=192, channel=5, data=[40, 0]),\r\n",
      "   midi.NoteOnEvent(tick=0, channel=5, data=[36, 100]),\r\n",
      "   midi.NoteOnEvent(tick=192, channel=5, data=[36, 0]),\r\n",
      "   midi.NoteOnEvent(tick=192, channel=5, data=[41, 100]),\r\n",
      "   midi.NoteOnEvent(tick=192, channel=5, data=[41, 0]),\r\n",
      "   midi.NoteOnEvent(tick=0, channel=5, data=[45, 100]),\r\n",
      "   midi.NoteOnEvent(tick=192, channel=5, data=[45, 0]),\r\n",
      "   midi.NoteOnEvent(tick=0, channel=5, data=[41, 100]),\r\n",
      "   midi.NoteOnEvent(tick=192, channel=5, data=[41, 0]),\r\n",
      "   midi.NoteOnEvent(tick=192, channel=5, data=[41, 100]),\r\n",
      "   midi.NoteOnEvent(tick=192, channel=5, data=[41, 0]),\r\n",
      "   midi.NoteOnEvent(tick=0, channel=5, data=[38, 100]),\r\n",
      "   midi.NoteOnEvent(tick=192, channel=5, data=[38, 0]),\r\n",
      "   midi.NoteOnEvent(tick=0, channel=5, data=[35, 100]),\r\n",
      "   midi.NoteOnEvent(tick=192, channel=5, data=[35, 0]),\r\n",
      "   midi.NoteOnEvent(tick=192, channel=5, data=[40, 100]),\r\n",
      "   midi.NoteOnEvent(tick=192, channel=5, data=[40, 0]),\r\n",
      "   midi.NoteOnEvent(tick=0, channel=5, data=[44, 100]),\r\n",
      "   midi.NoteOnEvent(tick=192, channel=5, data=[44, 0]),\r\n",
      "   midi.NoteOnEvent(tick=0, channel=5, data=[40, 100]),\r\n",
      "   midi.NoteOnEvent(tick=192, channel=5, data=[40, 0]),\r\n",
      "   midi.NoteOnEvent(tick=192, channel=5, data=[40, 100]),\r\n",
      "   midi.NoteOnEvent(tick=192, channel=5, data=[40, 0]),\r\n",
      "   midi.NoteOnEvent(tick=0, channel=5, data=[36, 100]),\r\n",
      "   midi.NoteOnEvent(tick=192, channel=5, data=[36, 0]),\r\n",
      "   midi.NoteOnEvent(tick=0, channel=5, data=[33, 100]),\r\n",
      "   midi.NoteOnEvent(tick=192, channel=5, data=[33, 0]),\r\n",
      "   midi.NoteOnEvent(tick=0, channel=5, data=[45, 100]),\r\n",
      "   midi.NoteOnEvent(tick=384, channel=5, data=[45, 0]),\r\n",
      "   midi.NoteOnEvent(tick=192, channel=5, data=[33, 100]),\r\n",
      "   midi.NoteOnEvent(tick=192, channel=5, data=[33, 0]),\r\n",
      "   midi.NoteOnEvent(tick=0, channel=5, data=[45, 100]),\r\n",
      "   midi.NoteOnEvent(tick=192, channel=5, data=[45, 0]),\r\n",
      "   midi.NoteOnEvent(tick=0, channel=5, data=[33, 100]),\r\n",
      "   midi.NoteOnEvent(tick=192, channel=5, data=[33, 0]),\r\n",
      "   midi.NoteOnEvent(tick=0, channel=5, data=[40, 100]),\r\n",
      "   midi.NoteOnEvent(tick=192, channel=5, data=[40, 0]),\r\n",
      "   midi.NoteOnEvent(tick=0, channel=5, data=[28, 100]),\r\n",
      "   midi.NoteOnEvent(tick=192, channel=5, data=[28, 0]),\r\n",
      "   midi.NoteOnEvent(tick=0, channel=5, data=[33, 100]),\r\n",
      "   midi.NoteOnEvent(tick=192, channel=5, data=[33, 0]),\r\n",
      "   midi.NoteOnEvent(tick=0, channel=5, data=[45, 100]),\r\n",
      "   midi.NoteOnEvent(tick=96, channel=5, data=[45, 0]),\r\n",
      "   midi.NoteOnEvent(tick=0, channel=5, data=[47, 100]),\r\n",
      "   midi.NoteOnEvent(tick=96, channel=5, data=[47, 0]),\r\n",
      "   midi.NoteOnEvent(tick=0, channel=5, data=[48, 100]),\r\n",
      "   midi.NoteOnEvent(tick=192, channel=5, data=[48, 0]),\r\n",
      "   midi.NoteOnEvent(tick=0, channel=5, data=[45, 100]),\r\n",
      "   midi.NoteOnEvent(tick=192, channel=5, data=[45, 0]),\r\n",
      "   midi.NoteOnEvent(tick=0, channel=5, data=[33, 100]),\r\n",
      "   midi.NoteOnEvent(tick=192, channel=5, data=[33, 0]),\r\n",
      "   midi.NoteOnEvent(tick=768, channel=5, data=[43, 100]),\r\n",
      "   midi.NoteOnEvent(tick=96, channel=5, data=[43, 0]),\r\n",
      "   midi.NoteOnEvent(tick=0, channel=5, data=[45, 100]),\r\n",
      "   midi.NoteOnEvent(tick=96, channel=5, data=[45, 0]),\r\n",
      "   midi.NoteOnEvent(tick=0, channel=5, data=[47, 100]),\r\n",
      "   midi.NoteOnEvent(tick=192, channel=5, data=[47, 0]),\r\n",
      "   midi.NoteOnEvent(tick=0, channel=5, data=[43, 100]),\r\n",
      "   midi.NoteOnEvent(tick=192, channel=5, data=[43, 0]),\r\n",
      "   midi.NoteOnEvent(tick=0, channel=5, data=[31, 100]),\r\n",
      "   midi.NoteOnEvent(tick=192, channel=5, data=[31, 0]),\r\n",
      "   midi.NoteOnEvent(tick=768, channel=5, data=[41, 100]),\r\n",
      "   midi.NoteOnEvent(tick=96, channel=5, data=[41, 0]),\r\n",
      "   midi.NoteOnEvent(tick=0, channel=5, data=[43, 100]),\r\n",
      "   midi.NoteOnEvent(tick=96, channel=5, data=[43, 0]),\r\n",
      "   midi.NoteOnEvent(tick=0, channel=5, data=[45, 100]),\r\n",
      "   midi.NoteOnEvent(tick=192, channel=5, data=[45, 0]),\r\n",
      "   midi.NoteOnEvent(tick=0, channel=5, data=[41, 100]),\r\n",
      "   midi.NoteOnEvent(tick=192, channel=5, data=[41, 0]),\r\n",
      "   midi.NoteOnEvent(tick=0, channel=5, data=[29, 100]),\r\n",
      "   midi.NoteOnEvent(tick=192, channel=5, data=[29, 0]),\r\n",
      "   midi.NoteOnEvent(tick=768, channel=5, data=[41, 100]),\r\n",
      "   midi.NoteOnEvent(tick=192, channel=5, data=[41, 0]),\r\n",
      "   midi.NoteOnEvent(tick=0, channel=5, data=[40, 100]),\r\n",
      "   midi.NoteOnEvent(tick=192, channel=5, data=[40, 0]),\r\n",
      "   midi.NoteOnEvent(tick=0, channel=5, data=[38, 100]),\r\n",
      "   midi.NoteOnEvent(tick=192, channel=5, data=[38, 0]),\r\n",
      "   midi.NoteOnEvent(tick=0, channel=5, data=[36, 100]),\r\n",
      "   midi.NoteOnEvent(tick=192, channel=5, data=[36, 0]),\r\n",
      "   midi.NoteOnEvent(tick=0, channel=5, data=[48, 100]),\r\n",
      "   midi.NoteOnEvent(tick=192, channel=5, data=[48, 0]),\r\n",
      "   midi.NoteOnEvent(tick=0, channel=5, data=[47, 100]),\r\n",
      "   midi.NoteOnEvent(tick=192, channel=5, data=[47, 0]),\r\n",
      "   midi.NoteOnEvent(tick=0, channel=5, data=[45, 100]),\r\n",
      "   midi.NoteOnEvent(tick=192, channel=5, data=[45, 0]),\r\n",
      "   midi.NoteOnEvent(tick=0, channel=5, data=[43, 100]),\r\n",
      "   midi.NoteOnEvent(tick=192, channel=5, data=[43, 0]),\r\n",
      "   midi.NoteOnEvent(tick=0, channel=5, data=[45, 100]),\r\n",
      "   midi.NoteOnEvent(tick=192, channel=5, data=[45, 0]),\r\n",
      "   midi.NoteOnEvent(tick=0, channel=5, data=[43, 100]),\r\n",
      "   midi.NoteOnEvent(tick=192, channel=5, data=[43, 0]),\r\n",
      "   midi.NoteOnEvent(tick=0, channel=5, data=[41, 100]),\r\n",
      "   midi.NoteOnEvent(tick=192, channel=5, data=[41, 0]),\r\n",
      "   midi.NoteOnEvent(tick=0, channel=5, data=[40, 100]),\r\n",
      "   midi.NoteOnEvent(tick=192, channel=5, data=[40, 0]),\r\n",
      "   midi.NoteOnEvent(tick=0, channel=5, data=[43, 100]),\r\n",
      "   midi.NoteOnEvent(tick=192, channel=5, data=[43, 0]),\r\n",
      "   midi.NoteOnEvent(tick=0, channel=5, data=[40, 100]),\r\n",
      "   midi.NoteOnEvent(tick=192, channel=5, data=[40, 0]),\r\n",
      "   midi.NoteOnEvent(tick=0, channel=5, data=[36, 100]),\r\n",
      "   midi.NoteOnEvent(tick=192, channel=5, data=[36, 0]),\r\n",
      "   midi.NoteOnEvent(tick=0, channel=5, data=[41, 100]),\r\n",
      "   midi.NoteOnEvent(tick=192, channel=5, data=[41, 0]),\r\n",
      "   midi.NoteOnEvent(tick=0, channel=5, data=[45, 100]),\r\n",
      "   midi.NoteOnEvent(tick=192, channel=5, data=[45, 0]),\r\n",
      "   midi.NoteOnEvent(tick=0, channel=5, data=[41, 100]),\r\n",
      "   midi.NoteOnEvent(tick=192, channel=5, data=[41, 0]),\r\n",
      "   midi.NoteOnEvent(tick=0, channel=5, data=[38, 100]),\r\n",
      "   midi.NoteOnEvent(tick=192, channel=5, data=[38, 0]),\r\n",
      "   midi.NoteOnEvent(tick=0, channel=5, data=[40, 100]),\r\n",
      "   midi.NoteOnEvent(tick=192, channel=5, data=[40, 0]),\r\n",
      "   midi.NoteOnEvent(tick=0, channel=5, data=[36, 100]),\r\n",
      "   midi.NoteOnEvent(tick=192, channel=5, data=[36, 0]),\r\n",
      "   midi.NoteOnEvent(tick=0, channel=5, data=[43, 100]),\r\n",
      "   midi.NoteOnEvent(tick=192, channel=5, data=[43, 0]),\r\n",
      "   midi.NoteOnEvent(tick=0, channel=5, data=[31, 100]),\r\n",
      "   midi.NoteOnEvent(tick=192, channel=5, data=[31, 0]),\r\n",
      "   midi.NoteOnEvent(tick=0, channel=5, data=[24, 100]),\r\n",
      "   midi.NoteOnEvent(tick=192, channel=5, data=[24, 0]),\r\n",
      "   midi.NoteOnEvent(tick=0, channel=5, data=[36, 100]),\r\n",
      "   midi.NoteOnEvent(tick=96, channel=5, data=[36, 0]),\r\n",
      "   midi.NoteOnEvent(tick=0, channel=5, data=[38, 100]),\r\n",
      "   midi.NoteOnEvent(tick=96, channel=5, data=[38, 0]),\r\n",
      "   midi.NoteOnEvent(tick=0, channel=5, data=[40, 100]),\r\n",
      "   midi.NoteOnEvent(tick=192, channel=5, data=[40, 0]),\r\n",
      "   midi.NoteOnEvent(tick=0, channel=5, data=[36, 100]),\r\n",
      "   midi.NoteOnEvent(tick=192, channel=5, data=[36, 0]),\r\n",
      "   midi.NoteOnEvent(tick=0, channel=5, data=[35, 100]),\r\n",
      "   midi.NoteOnEvent(tick=192, channel=5, data=[35, 0]),\r\n",
      "   midi.NoteOnEvent(tick=0, channel=5, data=[43, 100]),\r\n",
      "   midi.NoteOnEvent(tick=192, channel=5, data=[43, 0]),\r\n",
      "   midi.NoteOnEvent(tick=0, channel=5, data=[36, 100]),\r\n",
      "   midi.NoteOnEvent(tick=192, channel=5, data=[36, 0]),\r\n",
      "   midi.NoteOnEvent(tick=0, channel=5, data=[43, 100]),\r\n",
      "   midi.NoteOnEvent(tick=192, channel=5, data=[43, 0]),\r\n",
      "   midi.NoteOnEvent(tick=0, channel=5, data=[38, 100]),\r\n",
      "   midi.NoteOnEvent(tick=192, channel=5, data=[38, 0]),\r\n",
      "   midi.NoteOnEvent(tick=0, channel=5, data=[43, 100]),\r\n"
     ]
    },
    {
     "name": "stdout",
     "output_type": "stream",
     "text": [
      "   midi.NoteOnEvent(tick=192, channel=5, data=[43, 0]),\r\n",
      "   midi.NoteOnEvent(tick=0, channel=5, data=[40, 100]),\r\n",
      "   midi.NoteOnEvent(tick=192, channel=5, data=[40, 0]),\r\n",
      "   midi.NoteOnEvent(tick=0, channel=5, data=[43, 100]),\r\n",
      "   midi.NoteOnEvent(tick=192, channel=5, data=[43, 0]),\r\n",
      "   midi.NoteOnEvent(tick=0, channel=5, data=[41, 100]),\r\n",
      "   midi.NoteOnEvent(tick=192, channel=5, data=[41, 0]),\r\n",
      "   midi.NoteOnEvent(tick=0, channel=5, data=[43, 100]),\r\n",
      "   midi.NoteOnEvent(tick=192, channel=5, data=[43, 0]),\r\n",
      "   midi.NoteOnEvent(tick=0, channel=5, data=[45, 100]),\r\n",
      "   midi.NoteOnEvent(tick=192, channel=5, data=[45, 0]),\r\n",
      "   midi.NoteOnEvent(tick=0, channel=5, data=[41, 100]),\r\n",
      "   midi.NoteOnEvent(tick=192, channel=5, data=[41, 0]),\r\n",
      "   midi.NoteOnEvent(tick=0, channel=5, data=[43, 100]),\r\n",
      "   midi.NoteOnEvent(tick=96, channel=5, data=[43, 0]),\r\n",
      "   midi.NoteOnEvent(tick=0, channel=5, data=[45, 100]),\r\n",
      "   midi.NoteOnEvent(tick=96, channel=5, data=[45, 0]),\r\n",
      "   midi.NoteOnEvent(tick=0, channel=5, data=[47, 100]),\r\n",
      "   midi.NoteOnEvent(tick=96, channel=5, data=[47, 0]),\r\n",
      "   midi.NoteOnEvent(tick=0, channel=5, data=[45, 100]),\r\n",
      "   midi.NoteOnEvent(tick=96, channel=5, data=[45, 0]),\r\n",
      "   midi.NoteOnEvent(tick=0, channel=5, data=[43, 100]),\r\n",
      "   midi.NoteOnEvent(tick=96, channel=5, data=[43, 0]),\r\n",
      "   midi.NoteOnEvent(tick=0, channel=5, data=[41, 100]),\r\n",
      "   midi.NoteOnEvent(tick=96, channel=5, data=[41, 0]),\r\n",
      "   midi.NoteOnEvent(tick=0, channel=5, data=[40, 100]),\r\n",
      "   midi.NoteOnEvent(tick=96, channel=5, data=[40, 0]),\r\n",
      "   midi.NoteOnEvent(tick=0, channel=5, data=[38, 100]),\r\n",
      "   midi.NoteOnEvent(tick=96, channel=5, data=[38, 0]),\r\n",
      "   midi.NoteOnEvent(tick=0, channel=5, data=[36, 100]),\r\n",
      "   midi.NoteOnEvent(tick=192, channel=5, data=[36, 0]),\r\n",
      "   midi.NoteOnEvent(tick=0, channel=5, data=[40, 100]),\r\n",
      "   midi.NoteOnEvent(tick=192, channel=5, data=[40, 0]),\r\n",
      "   midi.NoteOnEvent(tick=0, channel=5, data=[36, 100]),\r\n",
      "   midi.NoteOnEvent(tick=192, channel=5, data=[36, 0]),\r\n",
      "   midi.NoteOnEvent(tick=0, channel=5, data=[33, 100]),\r\n",
      "   midi.NoteOnEvent(tick=192, channel=5, data=[33, 0]),\r\n",
      "   midi.NoteOnEvent(tick=0, channel=5, data=[38, 100]),\r\n",
      "   midi.NoteOnEvent(tick=192, channel=5, data=[38, 0]),\r\n",
      "   midi.NoteOnEvent(tick=0, channel=5, data=[26, 100]),\r\n",
      "   midi.NoteOnEvent(tick=192, channel=5, data=[26, 0]),\r\n",
      "   midi.NoteOnEvent(tick=1344, channel=5, data=[42, 100]),\r\n",
      "   midi.NoteOnEvent(tick=96, channel=5, data=[42, 0]),\r\n",
      "   midi.NoteOnEvent(tick=0, channel=5, data=[40, 100]),\r\n",
      "   midi.NoteOnEvent(tick=96, channel=5, data=[40, 0]),\r\n",
      "   midi.NoteOnEvent(tick=0, channel=5, data=[38, 100]),\r\n",
      "   midi.NoteOnEvent(tick=96, channel=5, data=[38, 0]),\r\n",
      "   midi.NoteOnEvent(tick=0, channel=5, data=[36, 100]),\r\n",
      "   midi.NoteOnEvent(tick=96, channel=5, data=[36, 0]),\r\n",
      "   midi.NoteOnEvent(tick=0, channel=5, data=[35, 100]),\r\n",
      "   midi.NoteOnEvent(tick=96, channel=5, data=[35, 0]),\r\n",
      "   midi.NoteOnEvent(tick=0, channel=5, data=[33, 100]),\r\n",
      "   midi.NoteOnEvent(tick=96, channel=5, data=[33, 0]),\r\n",
      "   midi.NoteOnEvent(tick=0, channel=5, data=[35, 100]),\r\n",
      "   midi.NoteOnEvent(tick=192, channel=5, data=[35, 0]),\r\n",
      "   midi.NoteOnEvent(tick=0, channel=5, data=[38, 100]),\r\n",
      "   midi.NoteOnEvent(tick=192, channel=5, data=[38, 0]),\r\n",
      "   midi.NoteOnEvent(tick=0, channel=5, data=[35, 100]),\r\n",
      "   midi.NoteOnEvent(tick=192, channel=5, data=[35, 0]),\r\n",
      "   midi.NoteOnEvent(tick=0, channel=5, data=[31, 100]),\r\n",
      "   midi.NoteOnEvent(tick=192, channel=5, data=[31, 0]),\r\n",
      "   midi.NoteOnEvent(tick=0, channel=5, data=[36, 100]),\r\n",
      "   midi.NoteOnEvent(tick=192, channel=5, data=[36, 0]),\r\n",
      "   midi.NoteOnEvent(tick=0, channel=5, data=[24, 100]),\r\n",
      "   midi.NoteOnEvent(tick=192, channel=5, data=[24, 0]),\r\n",
      "   midi.NoteOnEvent(tick=1344, channel=5, data=[48, 100]),\r\n",
      "   midi.NoteOnEvent(tick=96, channel=5, data=[48, 0]),\r\n",
      "   midi.NoteOnEvent(tick=0, channel=5, data=[47, 100]),\r\n",
      "   midi.NoteOnEvent(tick=96, channel=5, data=[47, 0]),\r\n",
      "   midi.NoteOnEvent(tick=0, channel=5, data=[48, 100]),\r\n",
      "   midi.NoteOnEvent(tick=96, channel=5, data=[48, 0]),\r\n",
      "   midi.NoteOnEvent(tick=0, channel=5, data=[50, 100]),\r\n",
      "   midi.NoteOnEvent(tick=96, channel=5, data=[50, 0]),\r\n",
      "   midi.NoteOnEvent(tick=0, channel=5, data=[48, 100]),\r\n",
      "   midi.NoteOnEvent(tick=96, channel=5, data=[48, 0]),\r\n",
      "   midi.NoteOnEvent(tick=0, channel=5, data=[47, 100]),\r\n",
      "   midi.NoteOnEvent(tick=96, channel=5, data=[47, 0]),\r\n",
      "   midi.NoteOnEvent(tick=0, channel=5, data=[45, 100]),\r\n",
      "   midi.NoteOnEvent(tick=96, channel=5, data=[45, 0]),\r\n",
      "   midi.NoteOnEvent(tick=0, channel=5, data=[47, 100]),\r\n",
      "   midi.NoteOnEvent(tick=96, channel=5, data=[47, 0]),\r\n",
      "   midi.NoteOnEvent(tick=0, channel=5, data=[45, 100]),\r\n",
      "   midi.NoteOnEvent(tick=96, channel=5, data=[45, 0]),\r\n",
      "   midi.NoteOnEvent(tick=0, channel=5, data=[43, 100]),\r\n",
      "   midi.NoteOnEvent(tick=96, channel=5, data=[43, 0]),\r\n",
      "   midi.NoteOnEvent(tick=0, channel=5, data=[42, 100]),\r\n",
      "   midi.NoteOnEvent(tick=96, channel=5, data=[42, 0]),\r\n",
      "   midi.NoteOnEvent(tick=0, channel=5, data=[43, 100]),\r\n",
      "   midi.NoteOnEvent(tick=96, channel=5, data=[43, 0]),\r\n",
      "   midi.NoteOnEvent(tick=0, channel=5, data=[42, 100]),\r\n",
      "   midi.NoteOnEvent(tick=96, channel=5, data=[42, 0]),\r\n",
      "   midi.NoteOnEvent(tick=0, channel=5, data=[40, 100]),\r\n",
      "   midi.NoteOnEvent(tick=96, channel=5, data=[40, 0]),\r\n",
      "   midi.NoteOnEvent(tick=0, channel=5, data=[39, 100]),\r\n",
      "   midi.NoteOnEvent(tick=96, channel=5, data=[39, 0]),\r\n",
      "   midi.NoteOnEvent(tick=0, channel=5, data=[35, 100]),\r\n",
      "   midi.NoteOnEvent(tick=96, channel=5, data=[35, 0]),\r\n",
      "   midi.NoteOnEvent(tick=0, channel=5, data=[37, 100]),\r\n",
      "   midi.NoteOnEvent(tick=96, channel=5, data=[37, 0]),\r\n",
      "   midi.NoteOnEvent(tick=0, channel=5, data=[39, 100]),\r\n",
      "   midi.NoteOnEvent(tick=96, channel=5, data=[39, 0]),\r\n",
      "   midi.NoteOnEvent(tick=0, channel=5, data=[40, 100]),\r\n",
      "   midi.NoteOnEvent(tick=96, channel=5, data=[40, 0]),\r\n",
      "   midi.NoteOnEvent(tick=0, channel=5, data=[42, 100]),\r\n",
      "   midi.NoteOnEvent(tick=96, channel=5, data=[42, 0]),\r\n",
      "   midi.NoteOnEvent(tick=0, channel=5, data=[43, 100]),\r\n",
      "   midi.NoteOnEvent(tick=96, channel=5, data=[43, 0]),\r\n",
      "   midi.NoteOnEvent(tick=0, channel=5, data=[40, 100]),\r\n",
      "   midi.NoteOnEvent(tick=96, channel=5, data=[40, 0]),\r\n",
      "   midi.NoteOnEvent(tick=0, channel=5, data=[36, 100]),\r\n",
      "   midi.NoteOnEvent(tick=192, channel=5, data=[36, 0]),\r\n",
      "   midi.NoteOnEvent(tick=0, channel=5, data=[35, 100]),\r\n",
      "   midi.NoteOnEvent(tick=192, channel=5, data=[35, 0]),\r\n",
      "   midi.NoteOnEvent(tick=0, channel=5, data=[36, 100]),\r\n",
      "   midi.NoteOnEvent(tick=192, channel=5, data=[36, 0]),\r\n",
      "   midi.NoteOnEvent(tick=0, channel=5, data=[33, 100]),\r\n",
      "   midi.NoteOnEvent(tick=192, channel=5, data=[33, 0]),\r\n",
      "   midi.NoteOnEvent(tick=0, channel=5, data=[35, 100]),\r\n",
      "   midi.NoteOnEvent(tick=288, channel=5, data=[35, 0]),\r\n",
      "   midi.NoteOnEvent(tick=0, channel=5, data=[37, 100]),\r\n",
      "   midi.NoteOnEvent(tick=48, channel=5, data=[37, 0]),\r\n",
      "   midi.NoteOnEvent(tick=0, channel=5, data=[39, 100]),\r\n",
      "   midi.NoteOnEvent(tick=48, channel=5, data=[39, 0]),\r\n",
      "   midi.NoteOnEvent(tick=0, channel=5, data=[40, 100]),\r\n",
      "   midi.NoteOnEvent(tick=96, channel=5, data=[40, 0]),\r\n",
      "   midi.NoteOnEvent(tick=0, channel=5, data=[42, 100]),\r\n",
      "   midi.NoteOnEvent(tick=96, channel=5, data=[42, 0]),\r\n",
      "   midi.NoteOnEvent(tick=0, channel=5, data=[43, 100]),\r\n",
      "   midi.NoteOnEvent(tick=96, channel=5, data=[43, 0]),\r\n",
      "   midi.NoteOnEvent(tick=0, channel=5, data=[45, 100]),\r\n",
      "   midi.NoteOnEvent(tick=96, channel=5, data=[45, 0]),\r\n",
      "   midi.NoteOnEvent(tick=0, channel=5, data=[47, 100]),\r\n",
      "   midi.NoteOnEvent(tick=192, channel=5, data=[47, 0]),\r\n",
      "   midi.NoteOnEvent(tick=0, channel=5, data=[45, 100]),\r\n",
      "   midi.NoteOnEvent(tick=192, channel=5, data=[45, 0]),\r\n",
      "   midi.NoteOnEvent(tick=0, channel=5, data=[47, 100]),\r\n",
      "   midi.NoteOnEvent(tick=192, channel=5, data=[47, 0]),\r\n",
      "   midi.NoteOnEvent(tick=0, channel=5, data=[35, 100]),\r\n",
      "   midi.NoteOnEvent(tick=192, channel=5, data=[35, 0]),\r\n",
      "   midi.NoteOnEvent(tick=0, channel=5, data=[45, 100]),\r\n",
      "   midi.NoteOnEvent(tick=192, channel=5, data=[45, 0]),\r\n",
      "   midi.NoteOnEvent(tick=0, channel=5, data=[47, 100]),\r\n",
      "   midi.NoteOnEvent(tick=192, channel=5, data=[47, 0]),\r\n",
      "   midi.NoteOnEvent(tick=0, channel=5, data=[45, 100]),\r\n",
      "   midi.NoteOnEvent(tick=192, channel=5, data=[45, 0]),\r\n",
      "   midi.NoteOnEvent(tick=0, channel=5, data=[43, 100]),\r\n",
      "   midi.NoteOnEvent(tick=192, channel=5, data=[43, 0]),\r\n",
      "   midi.NoteOnEvent(tick=0, channel=5, data=[42, 100]),\r\n",
      "   midi.NoteOnEvent(tick=192, channel=5, data=[42, 0]),\r\n",
      "   midi.NoteOnEvent(tick=0, channel=5, data=[43, 100]),\r\n",
      "   midi.NoteOnEvent(tick=192, channel=5, data=[43, 0]),\r\n",
      "   midi.NoteOnEvent(tick=0, channel=5, data=[42, 100]),\r\n",
      "   midi.NoteOnEvent(tick=192, channel=5, data=[42, 0]),\r\n",
      "   midi.NoteOnEvent(tick=0, channel=5, data=[40, 100]),\r\n",
      "   midi.NoteOnEvent(tick=192, channel=5, data=[40, 0]),\r\n",
      "   midi.NoteOnEvent(tick=0, channel=5, data=[39, 100]),\r\n",
      "   midi.NoteOnEvent(tick=192, channel=5, data=[39, 0]),\r\n",
      "   midi.NoteOnEvent(tick=0, channel=5, data=[40, 100]),\r\n",
      "   midi.NoteOnEvent(tick=192, channel=5, data=[40, 0]),\r\n",
      "   midi.NoteOnEvent(tick=0, channel=5, data=[42, 100]),\r\n",
      "   midi.NoteOnEvent(tick=192, channel=5, data=[42, 0]),\r\n",
      "   midi.NoteOnEvent(tick=0, channel=5, data=[43, 100]),\r\n",
      "   midi.NoteOnEvent(tick=192, channel=5, data=[43, 0]),\r\n",
      "   midi.NoteOnEvent(tick=0, channel=5, data=[45, 100]),\r\n",
      "   midi.NoteOnEvent(tick=192, channel=5, data=[45, 0]),\r\n",
      "   midi.NoteOnEvent(tick=0, channel=5, data=[47, 100]),\r\n",
      "   midi.NoteOnEvent(tick=192, channel=5, data=[47, 0]),\r\n",
      "   midi.NoteOnEvent(tick=0, channel=5, data=[48, 100]),\r\n",
      "   midi.NoteOnEvent(tick=192, channel=5, data=[48, 0]),\r\n",
      "   midi.NoteOnEvent(tick=0, channel=5, data=[42, 100]),\r\n",
      "   midi.NoteOnEvent(tick=192, channel=5, data=[42, 0]),\r\n",
      "   midi.NoteOnEvent(tick=0, channel=5, data=[47, 100]),\r\n",
      "   midi.NoteOnEvent(tick=192, channel=5, data=[47, 0]),\r\n",
      "   midi.NoteOnEvent(tick=0, channel=5, data=[45, 100]),\r\n",
      "   midi.NoteOnEvent(tick=96, channel=5, data=[45, 0]),\r\n",
      "   midi.NoteOnEvent(tick=0, channel=5, data=[43, 100]),\r\n",
      "   midi.NoteOnEvent(tick=96, channel=5, data=[43, 0]),\r\n",
      "   midi.NoteOnEvent(tick=0, channel=5, data=[42, 100]),\r\n",
      "   midi.NoteOnEvent(tick=192, channel=5, data=[42, 0]),\r\n",
      "   midi.NoteOnEvent(tick=0, channel=5, data=[40, 100]),\r\n",
      "   midi.NoteOnEvent(tick=192, channel=5, data=[40, 0]),\r\n",
      "   midi.NoteOnEvent(tick=0, channel=5, data=[39, 100]),\r\n",
      "   midi.NoteOnEvent(tick=192, channel=5, data=[39, 0]),\r\n",
      "   midi.NoteOnEvent(tick=0, channel=5, data=[37, 100]),\r\n",
      "   midi.NoteOnEvent(tick=192, channel=5, data=[37, 0]),\r\n",
      "   midi.NoteOnEvent(tick=0, channel=5, data=[35, 100]),\r\n",
      "   midi.NoteOnEvent(tick=192, channel=5, data=[35, 0]),\r\n",
      "   midi.NoteOnEvent(tick=0, channel=5, data=[33, 100]),\r\n",
      "   midi.NoteOnEvent(tick=192, channel=5, data=[33, 0]),\r\n",
      "   midi.NoteOnEvent(tick=0, channel=5, data=[31, 100]),\r\n",
      "   midi.NoteOnEvent(tick=192, channel=5, data=[31, 0]),\r\n",
      "   midi.NoteOnEvent(tick=0, channel=5, data=[36, 100]),\r\n",
      "   midi.NoteOnEvent(tick=192, channel=5, data=[36, 0]),\r\n",
      "   midi.NoteOnEvent(tick=0, channel=5, data=[33, 100]),\r\n",
      "   midi.NoteOnEvent(tick=192, channel=5, data=[33, 0]),\r\n",
      "   midi.NoteOnEvent(tick=0, channel=5, data=[35, 100]),\r\n",
      "   midi.NoteOnEvent(tick=192, channel=5, data=[35, 0]),\r\n",
      "   midi.NoteOnEvent(tick=0, channel=5, data=[24, 100]),\r\n",
      "   midi.NoteOnEvent(tick=384, channel=5, data=[24, 0]),\r\n",
      "   midi.NoteOnEvent(tick=192, channel=5, data=[48, 100]),\r\n",
      "   midi.NoteOnEvent(tick=192, channel=5, data=[48, 0]),\r\n",
      "   midi.NoteOnEvent(tick=0, channel=5, data=[39, 100]),\r\n",
      "   midi.NoteOnEvent(tick=192, channel=5, data=[39, 0]),\r\n",
      "   midi.NoteOnEvent(tick=0, channel=5, data=[39, 100]),\r\n",
      "   midi.NoteOnEvent(tick=192, channel=5, data=[39, 0]),\r\n",
      "   midi.NoteOnEvent(tick=0, channel=5, data=[39, 100]),\r\n",
      "   midi.NoteOnEvent(tick=192, channel=5, data=[39, 0]),\r\n",
      "   midi.NoteOnEvent(tick=0, channel=5, data=[42, 100]),\r\n",
      "   midi.NoteOnEvent(tick=192, channel=5, data=[42, 0]),\r\n",
      "   midi.NoteOnEvent(tick=0, channel=5, data=[33, 100]),\r\n",
      "   midi.NoteOnEvent(tick=192, channel=5, data=[33, 0]),\r\n",
      "   midi.NoteOnEvent(tick=0, channel=5, data=[33, 100]),\r\n",
      "   midi.NoteOnEvent(tick=192, channel=5, data=[33, 0]),\r\n",
      "   midi.NoteOnEvent(tick=0, channel=5, data=[33, 100]),\r\n",
      "   midi.NoteOnEvent(tick=192, channel=5, data=[33, 0]),\r\n",
      "   midi.NoteOnEvent(tick=0, channel=5, data=[36, 100]),\r\n",
      "   midi.NoteOnEvent(tick=192, channel=5, data=[36, 0]),\r\n",
      "   midi.NoteOnEvent(tick=0, channel=5, data=[30, 100]),\r\n",
      "   midi.NoteOnEvent(tick=192, channel=5, data=[30, 0]),\r\n",
      "   midi.NoteOnEvent(tick=0, channel=5, data=[31, 100]),\r\n",
      "   midi.NoteOnEvent(tick=96, channel=5, data=[31, 0]),\r\n",
      "   midi.NoteOnEvent(tick=0, channel=5, data=[33, 100]),\r\n",
      "   midi.NoteOnEvent(tick=96, channel=5, data=[33, 0]),\r\n",
      "   midi.NoteOnEvent(tick=0, channel=5, data=[35, 100]),\r\n",
      "   midi.NoteOnEvent(tick=192, channel=5, data=[35, 0]),\r\n",
      "   midi.NoteOnEvent(tick=0, channel=5, data=[35, 100]),\r\n",
      "   midi.NoteOnEvent(tick=192, channel=5, data=[35, 0]),\r\n",
      "   midi.NoteOnEvent(tick=0, channel=5, data=[28, 100]),\r\n",
      "   midi.NoteOnEvent(tick=192, channel=5, data=[28, 0]),\r\n",
      "   midi.NoteOnEvent(tick=0, channel=5, data=[40, 100]),\r\n",
      "   midi.NoteOnEvent(tick=96, channel=5, data=[40, 0]),\r\n",
      "   midi.NoteOnEvent(tick=0, channel=5, data=[39, 100]),\r\n",
      "   midi.NoteOnEvent(tick=96, channel=5, data=[39, 0]),\r\n",
      "   midi.NoteOnEvent(tick=0, channel=5, data=[40, 100]),\r\n",
      "   midi.NoteOnEvent(tick=192, channel=5, data=[40, 0]),\r\n",
      "   midi.NoteOnEvent(tick=0, channel=5, data=[42, 100]),\r\n",
      "   midi.NoteOnEvent(tick=192, channel=5, data=[42, 0]),\r\n",
      "   midi.NoteOnEvent(tick=0, channel=5, data=[43, 100]),\r\n",
      "   midi.NoteOnEvent(tick=384, channel=5, data=[43, 0]),\r\n",
      "   midi.NoteOnEvent(tick=192, channel=5, data=[40, 100]),\r\n",
      "   midi.NoteOnEvent(tick=192, channel=5, data=[40, 0]),\r\n",
      "   midi.NoteOnEvent(tick=0, channel=5, data=[47, 100]),\r\n",
      "   midi.NoteOnEvent(tick=384, channel=5, data=[47, 0]),\r\n",
      "   midi.NoteOnEvent(tick=192, channel=5, data=[35, 100]),\r\n",
      "   midi.NoteOnEvent(tick=192, channel=5, data=[35, 0]),\r\n",
      "   midi.NoteOnEvent(tick=0, channel=5, data=[27, 100]),\r\n",
      "   midi.NoteOnEvent(tick=384, channel=5, data=[27, 0]),\r\n",
      "   midi.NoteOnEvent(tick=192, channel=5, data=[35, 100]),\r",
      "\r\n",
      "   midi.NoteOnEvent(tick=192, channel=5, data=[35, 0]),\r\n",
      "   midi.NoteOnEvent(tick=0, channel=5, data=[40, 100]),\r\n",
      "   midi.NoteOnEvent(tick=384, channel=5, data=[40, 0]),\r\n",
      "   midi.NoteOnEvent(tick=1344, channel=5, data=[40, 100]),\r\n",
      "   midi.NoteOnEvent(tick=192, channel=5, data=[40, 0]),\r\n",
      "   midi.NoteOnEvent(tick=0, channel=5, data=[28, 100]),\r\n",
      "   midi.NoteOnEvent(tick=192, channel=5, data=[28, 0]),\r\n",
      "   midi.NoteOnEvent(tick=0, channel=5, data=[40, 100]),\r\n",
      "   midi.NoteOnEvent(tick=192, channel=5, data=[40, 0]),\r\n",
      "   midi.NoteOnEvent(tick=0, channel=5, data=[33, 100]),\r\n",
      "   midi.NoteOnEvent(tick=384, channel=5, data=[33, 0]),\r\n",
      "   midi.NoteOnEvent(tick=576, channel=5, data=[45, 100]),\r\n",
      "   midi.NoteOnEvent(tick=192, channel=5, data=[45, 0]),\r\n",
      "   midi.NoteOnEvent(tick=0, channel=5, data=[33, 100]),\r\n",
      "   midi.NoteOnEvent(tick=192, channel=5, data=[33, 0]),\r\n",
      "   midi.NoteOnEvent(tick=0, channel=5, data=[45, 100]),\r\n",
      "   midi.NoteOnEvent(tick=192, channel=5, data=[45, 0]),\r\n",
      "   midi.NoteOnEvent(tick=0, channel=5, data=[38, 100]),\r\n",
      "   midi.NoteOnEvent(tick=384, channel=5, data=[38, 0]),\r\n",
      "   midi.NoteOnEvent(tick=576, channel=5, data=[38, 100]),\r\n",
      "   midi.NoteOnEvent(tick=192, channel=5, data=[38, 0]),\r\n",
      "   midi.NoteOnEvent(tick=0, channel=5, data=[26, 100]),\r\n",
      "   midi.NoteOnEvent(tick=192, channel=5, data=[26, 0]),\r\n",
      "   midi.NoteOnEvent(tick=0, channel=5, data=[38, 100]),\r\n",
      "   midi.NoteOnEvent(tick=192, channel=5, data=[38, 0]),\r\n",
      "   midi.NoteOnEvent(tick=0, channel=5, data=[31, 100]),\r\n",
      "   midi.NoteOnEvent(tick=384, channel=5, data=[31, 0]),\r\n",
      "   midi.NoteOnEvent(tick=576, channel=5, data=[43, 100]),\r\n",
      "   midi.NoteOnEvent(tick=192, channel=5, data=[43, 0]),\r\n",
      "   midi.NoteOnEvent(tick=0, channel=5, data=[31, 100]),\r\n",
      "   midi.NoteOnEvent(tick=192, channel=5, data=[31, 0]),\r\n",
      "   midi.NoteOnEvent(tick=0, channel=5, data=[43, 100]),\r\n",
      "   midi.NoteOnEvent(tick=192, channel=5, data=[43, 0]),\r\n",
      "   midi.NoteOnEvent(tick=0, channel=5, data=[36, 100]),\r\n",
      "   midi.NoteOnEvent(tick=384, channel=5, data=[36, 0]),\r\n",
      "   midi.NoteOnEvent(tick=0, channel=5, data=[46, 100]),\r\n",
      "   midi.NoteOnEvent(tick=384, channel=5, data=[46, 0]),\r\n",
      "   midi.NoteOnEvent(tick=0, channel=5, data=[45, 100]),\r\n",
      "   midi.NoteOnEvent(tick=384, channel=5, data=[45, 0]),\r\n",
      "   midi.NoteOnEvent(tick=0, channel=5, data=[43, 100]),\r\n",
      "   midi.NoteOnEvent(tick=384, channel=5, data=[43, 0]),\r\n",
      "   midi.NoteOnEvent(tick=0, channel=5, data=[41, 100]),\r\n",
      "   midi.NoteOnEvent(tick=192, channel=5, data=[41, 0]),\r\n",
      "   midi.NoteOnEvent(tick=0, channel=5, data=[40, 100]),\r\n",
      "   midi.NoteOnEvent(tick=192, channel=5, data=[40, 0]),\r\n",
      "   midi.NoteOnEvent(tick=0, channel=5, data=[38, 100]),\r\n",
      "   midi.NoteOnEvent(tick=192, channel=5, data=[38, 0]),\r\n",
      "   midi.NoteOnEvent(tick=0, channel=5, data=[41, 100]),\r\n",
      "   midi.NoteOnEvent(tick=192, channel=5, data=[41, 0]),\r\n",
      "   midi.NoteOnEvent(tick=0, channel=5, data=[43, 100]),\r\n",
      "   midi.NoteOnEvent(tick=192, channel=5, data=[43, 0]),\r\n",
      "   midi.NoteOnEvent(tick=0, channel=5, data=[41, 100]),\r\n",
      "   midi.NoteOnEvent(tick=192, channel=5, data=[41, 0]),\r\n",
      "   midi.NoteOnEvent(tick=0, channel=5, data=[40, 100]),\r\n",
      "   midi.NoteOnEvent(tick=192, channel=5, data=[40, 0]),\r\n",
      "   midi.NoteOnEvent(tick=0, channel=5, data=[43, 100]),\r\n",
      "   midi.NoteOnEvent(tick=192, channel=5, data=[43, 0]),\r\n",
      "   midi.NoteOnEvent(tick=0, channel=5, data=[45, 100]),\r\n",
      "   midi.NoteOnEvent(tick=192, channel=5, data=[45, 0]),\r\n",
      "   midi.NoteOnEvent(tick=0, channel=5, data=[47, 100]),\r\n",
      "   midi.NoteOnEvent(tick=192, channel=5, data=[47, 0]),\r\n",
      "   midi.NoteOnEvent(tick=0, channel=5, data=[49, 100]),\r\n",
      "   midi.NoteOnEvent(tick=192, channel=5, data=[49, 0]),\r\n",
      "   midi.NoteOnEvent(tick=0, channel=5, data=[45, 100]),\r\n",
      "   midi.NoteOnEvent(tick=192, channel=5, data=[45, 0]),\r\n",
      "   midi.NoteOnEvent(tick=0, channel=5, data=[41, 100]),\r\n",
      "   midi.NoteOnEvent(tick=192, channel=5, data=[41, 0]),\r\n",
      "   midi.NoteOnEvent(tick=0, channel=5, data=[45, 100]),\r\n",
      "   midi.NoteOnEvent(tick=192, channel=5, data=[45, 0]),\r\n",
      "   midi.NoteOnEvent(tick=0, channel=5, data=[41, 100]),\r",
      "\r\n",
      "   midi.NoteOnEvent(tick=192, channel=5, data=[41, 0]),\r\n",
      "   midi.NoteOnEvent(tick=0, channel=5, data=[38, 100]),\r\n",
      "   midi.NoteOnEvent(tick=192, channel=5, data=[38, 0]),\r\n",
      "   midi.NoteOnEvent(tick=0, channel=5, data=[43, 100]),\r\n",
      "   midi.NoteOnEvent(tick=192, channel=5, data=[43, 0]),\r\n",
      "   midi.NoteOnEvent(tick=0, channel=5, data=[46, 100]),\r\n",
      "   midi.NoteOnEvent(tick=192, channel=5, data=[46, 0]),\r\n",
      "   midi.NoteOnEvent(tick=0, channel=5, data=[43, 100]),\r\n",
      "   midi.NoteOnEvent(tick=192, channel=5, data=[43, 0]),\r\n",
      "   midi.NoteOnEvent(tick=0, channel=5, data=[38, 100]),\r\n",
      "   midi.NoteOnEvent(tick=192, channel=5, data=[38, 0]),\r\n",
      "   midi.NoteOnEvent(tick=0, channel=5, data=[50, 100]),\r\n",
      "   midi.NoteOnEvent(tick=192, channel=5, data=[50, 0]),\r\n",
      "   midi.NoteOnEvent(tick=0, channel=5, data=[38, 100]),\r\n",
      "   midi.NoteOnEvent(tick=192, channel=5, data=[38, 0]),\r\n",
      "   midi.NoteOnEvent(tick=0, channel=5, data=[45, 100]),\r\n",
      "   midi.NoteOnEvent(tick=192, channel=5, data=[45, 0]),\r\n",
      "   midi.NoteOnEvent(tick=0, channel=5, data=[33, 100]),\r\n",
      "   midi.NoteOnEvent(tick=192, channel=5, data=[33, 0]),\r\n",
      "   midi.NoteOnEvent(tick=0, channel=5, data=[38, 100]),\r\n",
      "   midi.NoteOnEvent(tick=192, channel=5, data=[38, 0]),\r\n",
      "   midi.NoteOnEvent(tick=0, channel=5, data=[26, 100]),\r\n",
      "   midi.NoteOnEvent(tick=192, channel=5, data=[26, 0]),\r\n",
      "   midi.NoteOnEvent(tick=2112, channel=5, data=[43, 100]),\r\n",
      "   midi.NoteOnEvent(tick=96, channel=5, data=[43, 0]),\r\n",
      "   midi.NoteOnEvent(tick=0, channel=5, data=[45, 100]),\r\n",
      "   midi.NoteOnEvent(tick=96, channel=5, data=[45, 0]),\r\n",
      "   midi.NoteOnEvent(tick=0, channel=5, data=[43, 100]),\r\n",
      "   midi.NoteOnEvent(tick=96, channel=5, data=[43, 0]),\r\n",
      "   midi.NoteOnEvent(tick=0, channel=5, data=[41, 100]),\r\n",
      "   midi.NoteOnEvent(tick=96, channel=5, data=[41, 0]),\r\n",
      "   midi.NoteOnEvent(tick=0, channel=5, data=[40, 100]),\r\n",
      "   midi.NoteOnEvent(tick=96, channel=5, data=[40, 0]),\r\n",
      "   midi.NoteOnEvent(tick=0, channel=5, data=[38, 100]),\r\n",
      "   midi.NoteOnEvent(tick=96, channel=5, data=[38, 0]),\r\n",
      "   midi.NoteOnEvent(tick=0, channel=5, data=[36, 100]),\r\n",
      "   midi.NoteOnEvent(tick=192, channel=5, data=[36, 0]),\r\n",
      "   midi.NoteOnEvent(tick=0, channel=5, data=[48, 100]),\r\n",
      "   midi.NoteOnEvent(tick=192, channel=5, data=[48, 0]),\r\n",
      "   midi.NoteOnEvent(tick=1344, channel=5, data=[41, 100]),\r\n",
      "   midi.NoteOnEvent(tick=96, channel=5, data=[41, 0]),\r\n",
      "   midi.NoteOnEvent(tick=0, channel=5, data=[43, 100]),\r\n",
      "   midi.NoteOnEvent(tick=96, channel=5, data=[43, 0]),\r\n",
      "   midi.NoteOnEvent(tick=0, channel=5, data=[41, 100]),\r\n",
      "   midi.NoteOnEvent(tick=96, channel=5, data=[41, 0]),\r\n",
      "   midi.NoteOnEvent(tick=0, channel=5, data=[40, 100]),\r\n",
      "   midi.NoteOnEvent(tick=96, channel=5, data=[40, 0]),\r\n",
      "   midi.NoteOnEvent(tick=0, channel=5, data=[38, 100]),\r\n",
      "   midi.NoteOnEvent(tick=96, channel=5, data=[38, 0]),\r\n",
      "   midi.NoteOnEvent(tick=0, channel=5, data=[36, 100]),\r\n",
      "   midi.NoteOnEvent(tick=96, channel=5, data=[36, 0]),\r\n",
      "   midi.NoteOnEvent(tick=0, channel=5, data=[34, 100]),\r\n",
      "   midi.NoteOnEvent(tick=192, channel=5, data=[34, 0]),\r\n",
      "   midi.NoteOnEvent(tick=0, channel=5, data=[46, 100]),\r\n",
      "   midi.NoteOnEvent(tick=192, channel=5, data=[46, 0]),\r\n",
      "   midi.NoteOnEvent(tick=1344, channel=5, data=[40, 100]),\r\n",
      "   midi.NoteOnEvent(tick=96, channel=5, data=[40, 0]),\r\n",
      "   midi.NoteOnEvent(tick=0, channel=5, data=[41, 100]),\r\n",
      "   midi.NoteOnEvent(tick=96, channel=5, data=[41, 0]),\r\n",
      "   midi.NoteOnEvent(tick=0, channel=5, data=[40, 100]),\r\n",
      "   midi.NoteOnEvent(tick=96, channel=5, data=[40, 0]),\r\n",
      "   midi.NoteOnEvent(tick=0, channel=5, data=[38, 100]),\r\n",
      "   midi.NoteOnEvent(tick=96, channel=5, data=[38, 0]),\r\n",
      "   midi.NoteOnEvent(tick=0, channel=5, data=[37, 100]),\r\n",
      "   midi.NoteOnEvent(tick=96, channel=5, data=[37, 0]),\r\n",
      "   midi.NoteOnEvent(tick=0, channel=5, data=[35, 100]),\r\n",
      "   midi.NoteOnEvent(tick=96, channel=5, data=[35, 0]),\r\n",
      "   midi.NoteOnEvent(tick=0, channel=5, data=[33, 100]),\r\n",
      "   midi.NoteOnEvent(tick=192, channel=5, data=[33, 0]),\r\n",
      "   midi.NoteOnEvent(tick=0, channel=5, data=[45, 100]),\r\n",
      "   midi.NoteOnEvent(tick=192, channel=5, data=[45, 0]),\r\n",
      "   midi.NoteOnEvent(tick=1344, channel=5, data=[38, 100]),\r\n",
      "   midi.NoteOnEvent(tick=192, channel=5, data=[38, 0]),\r\n",
      "   midi.NoteOnEvent(tick=0, channel=5, data=[50, 100]),\r\n",
      "   midi.NoteOnEvent(tick=192, channel=5, data=[50, 0]),\r\n",
      "   midi.NoteOnEvent(tick=0, channel=5, data=[41, 100]),\r\n",
      "   midi.NoteOnEvent(tick=192, channel=5, data=[41, 0]),\r\n",
      "   midi.NoteOnEvent(tick=0, channel=5, data=[43, 100]),\r\n",
      "   midi.NoteOnEvent(tick=192, channel=5, data=[43, 0]),\r\n",
      "   midi.NoteOnEvent(tick=0, channel=5, data=[45, 100]),\r\n",
      "   midi.NoteOnEvent(tick=192, channel=5, data=[45, 0]),\r\n",
      "   midi.NoteOnEvent(tick=0, channel=5, data=[47, 100]),\r\n",
      "   midi.NoteOnEvent(tick=192, channel=5, data=[47, 0]),\r\n",
      "   midi.NoteOnEvent(tick=0, channel=5, data=[43, 100]),\r\n",
      "   midi.NoteOnEvent(tick=192, channel=5, data=[43, 0]),\r\n",
      "   midi.NoteOnEvent(tick=0, channel=5, data=[48, 100]),\r\n",
      "   midi.NoteOnEvent(tick=192, channel=5, data=[48, 0]),\r\n",
      "   midi.NoteOnEvent(tick=0, channel=5, data=[36, 100]),\r\n",
      "   midi.NoteOnEvent(tick=192, channel=5, data=[36, 0]),\r\n",
      "   midi.NoteOnEvent(tick=0, channel=5, data=[48, 100]),\r\n",
      "   midi.NoteOnEvent(tick=192, channel=5, data=[48, 0]),\r\n",
      "   midi.NoteOnEvent(tick=0, channel=5, data=[40, 100]),\r\n",
      "   midi.NoteOnEvent(tick=192, channel=5, data=[40, 0]),\r\n",
      "   midi.NoteOnEvent(tick=0, channel=5, data=[41, 100]),\r\n",
      "   midi.NoteOnEvent(tick=192, channel=5, data=[41, 0]),\r\n",
      "   midi.NoteOnEvent(tick=0, channel=5, data=[43, 100]),\r\n",
      "   midi.NoteOnEvent(tick=192, channel=5, data=[43, 0]),\r\n",
      "   midi.NoteOnEvent(tick=0, channel=5, data=[45, 100]),\r\n",
      "   midi.NoteOnEvent(tick=192, channel=5, data=[45, 0]),\r\n",
      "   midi.NoteOnEvent(tick=0, channel=5, data=[41, 100]),\r\n",
      "   midi.NoteOnEvent(tick=192, channel=5, data=[41, 0]),\r\n",
      "   midi.NoteOnEvent(tick=0, channel=5, data=[47, 100]),\r\n",
      "   midi.NoteOnEvent(tick=192, channel=5, data=[47, 0]),\r\n",
      "   midi.NoteOnEvent(tick=0, channel=5, data=[35, 100]),\r\n",
      "   midi.NoteOnEvent(tick=192, channel=5, data=[35, 0]),\r\n",
      "   midi.NoteOnEvent(tick=0, channel=5, data=[47, 100]),\r\n",
      "   midi.NoteOnEvent(tick=192, channel=5, data=[47, 0]),\r\n",
      "   midi.NoteOnEvent(tick=0, channel=5, data=[44, 100]),\r\n",
      "   midi.NoteOnEvent(tick=192, channel=5, data=[44, 0]),\r\n",
      "   midi.NoteOnEvent(tick=0, channel=5, data=[40, 100]),\r\n",
      "   midi.NoteOnEvent(tick=192, channel=5, data=[40, 0]),\r\n",
      "   midi.NoteOnEvent(tick=0, channel=5, data=[28, 100]),\r\n",
      "   midi.NoteOnEvent(tick=192, channel=5, data=[28, 0]),\r\n",
      "   midi.NoteOnEvent(tick=576, channel=5, data=[33, 100]),\r\n",
      "   midi.NoteOnEvent(tick=192, channel=5, data=[33, 0]),\r\n",
      "   midi.NoteOnEvent(tick=0, channel=5, data=[45, 100]),\r\n",
      "   midi.NoteOnEvent(tick=384, channel=5, data=[45, 0]),\r\n",
      "   midi.NoteOnEvent(tick=192, channel=5, data=[33, 100]),\r\n",
      "   midi.NoteOnEvent(tick=192, channel=5, data=[33, 0]),\r\n",
      "   midi.NoteOnEvent(tick=0, channel=5, data=[45, 100]),\r\n",
      "   midi.NoteOnEvent(tick=384, channel=5, data=[45, 0]),\r\n",
      "   midi.NoteOnEvent(tick=192, channel=5, data=[33, 100]),\r\n",
      "   midi.NoteOnEvent(tick=192, channel=5, data=[33, 0]),\r\n",
      "   midi.NoteOnEvent(tick=0, channel=5, data=[40, 100]),\r\n",
      "   midi.NoteOnEvent(tick=192, channel=5, data=[40, 0]),\r\n",
      "   midi.NoteOnEvent(tick=0, channel=5, data=[28, 100]),\r\n",
      "   midi.NoteOnEvent(tick=192, channel=5, data=[28, 0]),\r\n",
      "   midi.NoteOnEvent(tick=0, channel=5, data=[45, 100]),\r\n",
      "   midi.NoteOnEvent(tick=192, channel=5, data=[45, 0]),\r\n",
      "   midi.NoteOnEvent(tick=0, channel=5, data=[33, 100]),\r\n",
      "   midi.NoteOnEvent(tick=192, channel=5, data=[33, 0]),\r\n",
      "   midi.NoteOnEvent(tick=0, channel=5, data=[36, 100]),\r\n",
      "   midi.NoteOnEvent(tick=192, channel=5, data=[36, 0]),\r\n",
      "   midi.NoteOnEvent(tick=0, channel=5, data=[40, 100]),\r\n",
      "   midi.NoteOnEvent(tick=192, channel=5, data=[40, 0]),\r\n",
      "   midi.NoteOnEvent(tick=0, channel=5, data=[45, 100]),\r\n",
      "   midi.NoteOnEvent(tick=384, channel=5, data=[45, 0]),\r\n",
      "   midi.NoteOnEvent(tick=0, channel=5, data=[43, 100]),\r\n",
      "   midi.NoteOnEvent(tick=384, channel=5, data=[43, 0]),\r\n",
      "   midi.NoteOnEvent(tick=0, channel=5, data=[41, 100]),\r\n",
      "   midi.NoteOnEvent(tick=384, channel=5, data=[41, 0]),\r\n",
      "   midi.NoteOnEvent(tick=0, channel=5, data=[40, 100]),\r\n",
      "   midi.NoteOnEvent(tick=384, channel=5, data=[40, 0]),\r\n",
      "   midi.NoteOnEvent(tick=0, channel=5, data=[38, 100]),\r\n",
      "   midi.NoteOnEvent(tick=384, channel=5, data=[38, 0]),\r\n",
      "   midi.NoteOnEvent(tick=0, channel=5, data=[36, 100]),\r\n",
      "   midi.NoteOnEvent(tick=384, channel=5, data=[36, 0]),\r\n",
      "   midi.NoteOnEvent(tick=0, channel=5, data=[34, 100]),\r\n",
      "   midi.NoteOnEvent(tick=384, channel=5, data=[34, 0]),\r\n",
      "   midi.NoteOnEvent(tick=0, channel=5, data=[33, 100]),\r\n",
      "   midi.NoteOnEvent(tick=384, channel=5, data=[33, 0]),\r\n",
      "   midi.NoteOnEvent(tick=0, channel=5, data=[31, 100]),\r\n",
      "   midi.NoteOnEvent(tick=384, channel=5, data=[31, 0]),\r\n",
      "   midi.NoteOnEvent(tick=0, channel=5, data=[29, 100]),\r\n",
      "   midi.NoteOnEvent(tick=384, channel=5, data=[29, 0]),\r\n",
      "   midi.NoteOnEvent(tick=0, channel=5, data=[27, 100]),\r\n",
      "   midi.NoteOnEvent(tick=384, channel=5, data=[27, 0]),\r\n",
      "   midi.NoteOnEvent(tick=0, channel=5, data=[26, 100]),\r\n",
      "   midi.NoteOnEvent(tick=384, channel=5, data=[26, 0]),\r\n",
      "   midi.NoteOnEvent(tick=0, channel=5, data=[24, 100]),\r\n",
      "   midi.NoteOnEvent(tick=192, channel=5, data=[24, 0]),\r\n",
      "   midi.NoteOnEvent(tick=0, channel=5, data=[24, 100]),\r\n",
      "   midi.NoteOnEvent(tick=192, channel=5, data=[24, 0]),\r\n",
      "   midi.NoteOnEvent(tick=0, channel=5, data=[24, 100]),\r\n",
      "   midi.NoteOnEvent(tick=192, channel=5, data=[24, 0]),\r\n",
      "   midi.NoteOnEvent(tick=0, channel=5, data=[24, 100]),\r\n",
      "   midi.NoteOnEvent(tick=192, channel=5, data=[24, 0]),\r\n",
      "   midi.NoteOnEvent(tick=0, channel=5, data=[24, 100]),\r\n",
      "   midi.NoteOnEvent(tick=192, channel=5, data=[24, 0]),\r\n",
      "   midi.NoteOnEvent(tick=0, channel=5, data=[24, 100]),\r\n",
      "   midi.NoteOnEvent(tick=192, channel=5, data=[24, 0]),\r\n",
      "   midi.NoteOnEvent(tick=0, channel=5, data=[24, 100]),\r\n",
      "   midi.NoteOnEvent(tick=192, channel=5, data=[24, 0]),\r\n",
      "   midi.NoteOnEvent(tick=0, channel=5, data=[24, 100]),\r\n",
      "   midi.NoteOnEvent(tick=192, channel=5, data=[24, 0]),\r\n",
      "   midi.NoteOnEvent(tick=0, channel=5, data=[24, 100]),\r\n",
      "   midi.NoteOnEvent(tick=192, channel=5, data=[24, 0]),\r\n",
      "   midi.NoteOnEvent(tick=0, channel=5, data=[24, 100]),\r\n",
      "   midi.NoteOnEvent(tick=192, channel=5, data=[24, 0]),\r\n",
      "   midi.NoteOnEvent(tick=0, channel=5, data=[36, 100]),\r\n",
      "   midi.NoteOnEvent(tick=192, channel=5, data=[36, 0]),\r\n",
      "   midi.NoteOnEvent(tick=0, channel=5, data=[36, 100]),\r\n",
      "   midi.NoteOnEvent(tick=192, channel=5, data=[36, 0]),\r\n",
      "   midi.NoteOnEvent(tick=0, channel=5, data=[34, 100]),\r\n",
      "   midi.NoteOnEvent(tick=192, channel=5, data=[34, 0]),\r\n",
      "   midi.NoteOnEvent(tick=0, channel=5, data=[50, 100]),\r\n",
      "   midi.NoteOnEvent(tick=192, channel=5, data=[50, 0]),\r\n",
      "   midi.NoteOnEvent(tick=0, channel=5, data=[46, 100]),\r\n",
      "   midi.NoteOnEvent(tick=192, channel=5, data=[46, 0]),\r\n",
      "   midi.NoteOnEvent(tick=0, channel=5, data=[43, 100]),\r\n",
      "   midi.NoteOnEvent(tick=192, channel=5, data=[43, 0]),\r\n",
      "   midi.NoteOnEvent(tick=0, channel=5, data=[31, 100]),\r\n",
      "   midi.NoteOnEvent(tick=192, channel=5, data=[31, 0]),\r\n",
      "   midi.NoteOnEvent(tick=0, channel=5, data=[31, 100]),\r\n",
      "   midi.NoteOnEvent(tick=192, channel=5, data=[31, 0]),\r\n",
      "   midi.NoteOnEvent(tick=0, channel=5, data=[31, 100]),\r\n",
      "   midi.NoteOnEvent(tick=192, channel=5, data=[31, 0]),\r\n",
      "   midi.NoteOnEvent(tick=0, channel=5, data=[31, 100]),\r\n",
      "   midi.NoteOnEvent(tick=192, channel=5, data=[31, 0]),\r\n",
      "   midi.NoteOnEvent(tick=0, channel=5, data=[29, 100]),\r\n",
      "   midi.NoteOnEvent(tick=192, channel=5, data=[29, 0]),\r\n",
      "   midi.NoteOnEvent(tick=0, channel=5, data=[45, 100]),\r\n",
      "   midi.NoteOnEvent(tick=192, channel=5, data=[45, 0]),\r\n",
      "   midi.NoteOnEvent(tick=0, channel=5, data=[41, 100]),\r\n",
      "   midi.NoteOnEvent(tick=192, channel=5, data=[41, 0]),\r\n",
      "   midi.NoteOnEvent(tick=0, channel=5, data=[38, 100]),\r\n",
      "   midi.NoteOnEvent(tick=192, channel=5, data=[38, 0]),\r\n",
      "   midi.NoteOnEvent(tick=0, channel=5, data=[26, 100]),\r\n",
      "   midi.NoteOnEvent(tick=192, channel=5, data=[26, 0]),\r\n",
      "   midi.NoteOnEvent(tick=0, channel=5, data=[26, 100]),\r\n",
      "   midi.NoteOnEvent(tick=192, channel=5, data=[26, 0]),\r\n",
      "   midi.NoteOnEvent(tick=0, channel=5, data=[26, 100]),\r\n",
      "   midi.NoteOnEvent(tick=192, channel=5, data=[26, 0]),\r\n",
      "   midi.NoteOnEvent(tick=0, channel=5, data=[26, 100]),\r\n",
      "   midi.NoteOnEvent(tick=192, channel=5, data=[26, 0]),\r\n",
      "   midi.NoteOnEvent(tick=0, channel=5, data=[24, 100]),\r\n",
      "   midi.NoteOnEvent(tick=192, channel=5, data=[24, 0]),\r\n",
      "   midi.NoteOnEvent(tick=0, channel=5, data=[38, 100]),\r\n",
      "   midi.NoteOnEvent(tick=192, channel=5, data=[38, 0]),\r\n",
      "   midi.NoteOnEvent(tick=0, channel=5, data=[36, 100]),\r\n",
      "   midi.NoteOnEvent(tick=192, channel=5, data=[36, 0]),\r\n",
      "   midi.NoteOnEvent(tick=0, channel=5, data=[35, 100]),\r\n",
      "   midi.NoteOnEvent(tick=192, channel=5, data=[35, 0]),\r\n",
      "   midi.NoteOnEvent(tick=0, channel=5, data=[33, 100]),\r\n",
      "   midi.NoteOnEvent(tick=192, channel=5, data=[33, 0]),\r\n",
      "   midi.NoteOnEvent(tick=0, channel=5, data=[45, 100]),\r\n",
      "   midi.NoteOnEvent(tick=192, channel=5, data=[45, 0]),\r\n",
      "   midi.NoteOnEvent(tick=0, channel=5, data=[43, 100]),\r\n",
      "   midi.NoteOnEvent(tick=192, channel=5, data=[43, 0]),\r\n",
      "   midi.NoteOnEvent(tick=0, channel=5, data=[41, 100]),\r\n",
      "   midi.NoteOnEvent(tick=192, channel=5, data=[41, 0]),\r",
      "\r\n",
      "   midi.NoteOnEvent(tick=0, channel=5, data=[40, 100]),\r\n",
      "   midi.NoteOnEvent(tick=192, channel=5, data=[40, 0]),\r\n",
      "   midi.NoteOnEvent(tick=0, channel=5, data=[41, 100]),\r\n",
      "   midi.NoteOnEvent(tick=192, channel=5, data=[41, 0]),\r\n",
      "   midi.NoteOnEvent(tick=0, channel=5, data=[40, 100]),\r\n",
      "   midi.NoteOnEvent(tick=192, channel=5, data=[40, 0]),\r\n",
      "   midi.NoteOnEvent(tick=0, channel=5, data=[38, 100]),\r\n",
      "   midi.NoteOnEvent(tick=192, channel=5, data=[38, 0]),\r\n",
      "   midi.NoteOnEvent(tick=0, channel=5, data=[36, 100]),\r\n",
      "   midi.NoteOnEvent(tick=192, channel=5, data=[36, 0]),\r\n",
      "   midi.NoteOnEvent(tick=0, channel=5, data=[40, 100]),\r\n",
      "   midi.NoteOnEvent(tick=192, channel=5, data=[40, 0]),\r\n",
      "   midi.NoteOnEvent(tick=0, channel=5, data=[36, 100]),\r\n",
      "   midi.NoteOnEvent(tick=192, channel=5, data=[36, 0]),\r\n",
      "   midi.NoteOnEvent(tick=0, channel=5, data=[33, 100]),\r\n",
      "   midi.NoteOnEvent(tick=192, channel=5, data=[33, 0]),\r\n",
      "   midi.NoteOnEvent(tick=0, channel=5, data=[38, 100]),\r\n",
      "   midi.NoteOnEvent(tick=192, channel=5, data=[38, 0]),\r\n",
      "   midi.NoteOnEvent(tick=0, channel=5, data=[41, 100]),\r\n",
      "   midi.NoteOnEvent(tick=192, channel=5, data=[41, 0]),\r\n",
      "   midi.NoteOnEvent(tick=0, channel=5, data=[38, 100]),\r\n",
      "   midi.NoteOnEvent(tick=192, channel=5, data=[38, 0]),\r\n",
      "   midi.NoteOnEvent(tick=0, channel=5, data=[35, 100]),\r\n",
      "   midi.NoteOnEvent(tick=192, channel=5, data=[35, 0]),\r\n",
      "   midi.NoteOnEvent(tick=0, channel=5, data=[36, 100]),\r\n",
      "   midi.NoteOnEvent(tick=192, channel=5, data=[36, 0]),\r\n",
      "   midi.NoteOnEvent(tick=0, channel=5, data=[33, 100]),\r\n",
      "   midi.NoteOnEvent(tick=192, channel=5, data=[33, 0]),\r\n",
      "   midi.NoteOnEvent(tick=0, channel=5, data=[40, 100]),\r\n",
      "   midi.NoteOnEvent(tick=192, channel=5, data=[40, 0]),\r\n",
      "   midi.NoteOnEvent(tick=0, channel=5, data=[28, 100]),\r\n",
      "   midi.NoteOnEvent(tick=192, channel=5, data=[28, 0]),\r\n",
      "   midi.NoteOnEvent(tick=0, channel=5, data=[33, 100]),\r\n",
      "   midi.NoteOnEvent(tick=192, channel=5, data=[33, 0]),\r\n",
      "   midi.NoteOnEvent(tick=0, channel=5, data=[48, 100]),\r\n",
      "   midi.NoteOnEvent(tick=96, channel=5, data=[48, 0]),\r\n",
      "   midi.NoteOnEvent(tick=0, channel=5, data=[47, 100]),\r\n",
      "   midi.NoteOnEvent(tick=96, channel=5, data=[47, 0]),\r\n",
      "   midi.NoteOnEvent(tick=0, channel=5, data=[45, 100]),\r\n",
      "   midi.NoteOnEvent(tick=96, channel=5, data=[45, 0]),\r\n",
      "   midi.NoteOnEvent(tick=0, channel=5, data=[43, 100]),\r\n",
      "   midi.NoteOnEvent(tick=96, channel=5, data=[43, 0]),\r\n",
      "   midi.NoteOnEvent(tick=0, channel=5, data=[41, 100]),\r\n",
      "   midi.NoteOnEvent(tick=96, channel=5, data=[41, 0]),\r\n",
      "   midi.NoteOnEvent(tick=0, channel=5, data=[40, 100]),\r\n",
      "   midi.NoteOnEvent(tick=96, channel=5, data=[40, 0]),\r\n",
      "   midi.NoteOnEvent(tick=0, channel=5, data=[41, 100]),\r\n",
      "   midi.NoteOnEvent(tick=192, channel=5, data=[41, 0]),\r\n",
      "   midi.NoteOnEvent(tick=0, channel=5, data=[45, 100]),\r\n",
      "   midi.NoteOnEvent(tick=192, channel=5, data=[45, 0]),\r\n",
      "   midi.NoteOnEvent(tick=0, channel=5, data=[41, 100]),\r\n",
      "   midi.NoteOnEvent(tick=192, channel=5, data=[41, 0]),\r\n",
      "   midi.NoteOnEvent(tick=0, channel=5, data=[38, 100]),\r\n",
      "   midi.NoteOnEvent(tick=192, channel=5, data=[38, 0]),\r\n",
      "   midi.NoteOnEvent(tick=0, channel=5, data=[43, 100]),\r\n",
      "   midi.NoteOnEvent(tick=192, channel=5, data=[43, 0]),\r\n",
      "   midi.NoteOnEvent(tick=0, channel=5, data=[31, 100]),\r\n",
      "   midi.NoteOnEvent(tick=192, channel=5, data=[31, 0]),\r\n",
      "   midi.NoteOnEvent(tick=1344, channel=5, data=[47, 100]),\r\n",
      "   midi.NoteOnEvent(tick=96, channel=5, data=[47, 0]),\r\n",
      "   midi.NoteOnEvent(tick=0, channel=5, data=[45, 100]),\r\n",
      "   midi.NoteOnEvent(tick=96, channel=5, data=[45, 0]),\r\n",
      "   midi.NoteOnEvent(tick=0, channel=5, data=[43, 100]),\r\n",
      "   midi.NoteOnEvent(tick=96, channel=5, data=[43, 0]),\r\n",
      "   midi.NoteOnEvent(tick=0, channel=5, data=[41, 100]),\r\n",
      "   midi.NoteOnEvent(tick=96, channel=5, data=[41, 0]),\r\n",
      "   midi.NoteOnEvent(tick=0, channel=5, data=[40, 100]),\r\n",
      "   midi.NoteOnEvent(tick=96, channel=5, data=[40, 0]),\r\n",
      "   midi.NoteOnEvent(tick=0, channel=5, data=[38, 100]),\r\n",
      "   midi.NoteOnEvent(tick=96, channel=5, data=[38, 0]),\r\n",
      "   midi.NoteOnEvent(tick=0, channel=5, data=[40, 100]),\r\n",
      "   midi.NoteOnEvent(tick=192, channel=5, data=[40, 0]),\r\n",
      "   midi.NoteOnEvent(tick=0, channel=5, data=[43, 100]),\r\n",
      "   midi.NoteOnEvent(tick=192, channel=5, data=[43, 0]),\r\n",
      "   midi.NoteOnEvent(tick=0, channel=5, data=[40, 100]),\r\n",
      "   midi.NoteOnEvent(tick=192, channel=5, data=[40, 0]),\r\n",
      "   midi.NoteOnEvent(tick=0, channel=5, data=[36, 100]),\r\n",
      "   midi.NoteOnEvent(tick=192, channel=5, data=[36, 0]),\r\n",
      "   midi.NoteOnEvent(tick=0, channel=5, data=[41, 100]),\r\n",
      "   midi.NoteOnEvent(tick=192, channel=5, data=[41, 0]),\r\n",
      "   midi.NoteOnEvent(tick=0, channel=5, data=[29, 100]),\r\n",
      "   midi.NoteOnEvent(tick=192, channel=5, data=[29, 0]),\r\n",
      "   midi.NoteOnEvent(tick=1344, channel=5, data=[45, 100]),\r\n",
      "   midi.NoteOnEvent(tick=96, channel=5, data=[45, 0]),\r\n",
      "   midi.NoteOnEvent(tick=0, channel=5, data=[43, 100]),\r\n",
      "   midi.NoteOnEvent(tick=96, channel=5, data=[43, 0]),\r\n",
      "   midi.NoteOnEvent(tick=0, channel=5, data=[41, 100]),\r\n",
      "   midi.NoteOnEvent(tick=96, channel=5, data=[41, 0]),\r\n",
      "   midi.NoteOnEvent(tick=0, channel=5, data=[40, 100]),\r\n",
      "   midi.NoteOnEvent(tick=96, channel=5, data=[40, 0]),\r\n",
      "   midi.NoteOnEvent(tick=0, channel=5, data=[38, 100]),\r\n",
      "   midi.NoteOnEvent(tick=96, channel=5, data=[38, 0]),\r\n",
      "   midi.NoteOnEvent(tick=0, channel=5, data=[36, 100]),\r\n",
      "   midi.NoteOnEvent(tick=96, channel=5, data=[36, 0]),\r\n",
      "   midi.NoteOnEvent(tick=0, channel=5, data=[38, 100]),\r\n",
      "   midi.NoteOnEvent(tick=96, channel=5, data=[38, 0]),\r\n",
      "   midi.NoteOnEvent(tick=0, channel=5, data=[40, 100]),\r\n",
      "   midi.NoteOnEvent(tick=96, channel=5, data=[40, 0]),\r\n",
      "   midi.NoteOnEvent(tick=0, channel=5, data=[38, 100]),\r\n",
      "   midi.NoteOnEvent(tick=96, channel=5, data=[38, 0]),\r\n",
      "   midi.NoteOnEvent(tick=0, channel=5, data=[36, 100]),\r\n",
      "   midi.NoteOnEvent(tick=96, channel=5, data=[36, 0]),\r\n",
      "   midi.NoteOnEvent(tick=0, channel=5, data=[35, 100]),\r\n",
      "   midi.NoteOnEvent(tick=96, channel=5, data=[35, 0]),\r\n",
      "   midi.NoteOnEvent(tick=0, channel=5, data=[36, 100]),\r\n",
      "   midi.NoteOnEvent(tick=96, channel=5, data=[36, 0]),\r\n",
      "   midi.NoteOnEvent(tick=0, channel=5, data=[35, 100]),\r\n",
      "   midi.NoteOnEvent(tick=96, channel=5, data=[35, 0]),\r\n",
      "   midi.NoteOnEvent(tick=0, channel=5, data=[33, 100]),\r\n",
      "   midi.NoteOnEvent(tick=96, channel=5, data=[33, 0]),\r\n",
      "   midi.NoteOnEvent(tick=0, channel=5, data=[32, 100]),\r\n",
      "   midi.NoteOnEvent(tick=96, channel=5, data=[32, 0]),\r\n",
      "   midi.NoteOnEvent(tick=0, channel=5, data=[28, 100]),\r\n",
      "   midi.NoteOnEvent(tick=96, channel=5, data=[28, 0]),\r\n",
      "   midi.NoteOnEvent(tick=0, channel=5, data=[30, 100]),\r\n",
      "   midi.NoteOnEvent(tick=96, channel=5, data=[30, 0]),\r\n",
      "   midi.NoteOnEvent(tick=0, channel=5, data=[32, 100]),\r\n",
      "   midi.NoteOnEvent(tick=96, channel=5, data=[32, 0]),\r\n",
      "   midi.NoteOnEvent(tick=0, channel=5, data=[33, 100]),\r\n",
      "   midi.NoteOnEvent(tick=96, channel=5, data=[33, 0]),\r\n",
      "   midi.NoteOnEvent(tick=0, channel=5, data=[35, 100]),\r\n",
      "   midi.NoteOnEvent(tick=96, channel=5, data=[35, 0]),\r\n",
      "   midi.NoteOnEvent(tick=0, channel=5, data=[36, 100]),\r\n",
      "   midi.NoteOnEvent(tick=96, channel=5, data=[36, 0]),\r\n",
      "   midi.NoteOnEvent(tick=0, channel=5, data=[33, 100]),\r\n",
      "   midi.NoteOnEvent(tick=96, channel=5, data=[33, 0]),\r\n",
      "   midi.NoteOnEvent(tick=0, channel=5, data=[29, 100]),\r\n",
      "   midi.NoteOnEvent(tick=192, channel=5, data=[29, 0]),\r\n",
      "   midi.NoteOnEvent(tick=0, channel=5, data=[36, 100]),\r\n",
      "   midi.NoteOnEvent(tick=192, channel=5, data=[36, 0]),\r\n",
      "   midi.NoteOnEvent(tick=0, channel=5, data=[38, 100]),\r\n",
      "   midi.NoteOnEvent(tick=192, channel=5, data=[38, 0]),\r\n",
      "   midi.NoteOnEvent(tick=0, channel=5, data=[35, 100]),\r\n",
      "   midi.NoteOnEvent(tick=192, channel=5, data=[35, 0]),\r\n",
      "   midi.NoteOnEvent(tick=0, channel=5, data=[40, 100]),\r\n",
      "   midi.NoteOnEvent(tick=288, channel=5, data=[40, 0]),\r\n",
      "   midi.NoteOnEvent(tick=0, channel=5, data=[42, 100]),\r\n",
      "   midi.NoteOnEvent(tick=48, channel=5, data=[42, 0]),\r\n",
      "   midi.NoteOnEvent(tick=0, channel=5, data=[44, 100]),\r\n",
      "   midi.NoteOnEvent(tick=48, channel=5, data=[44, 0]),\r\n",
      "   midi.NoteOnEvent(tick=0, channel=5, data=[45, 100]),\r\n",
      "   midi.NoteOnEvent(tick=96, channel=5, data=[45, 0]),\r\n",
      "   midi.NoteOnEvent(tick=0, channel=5, data=[47, 100]),\r\n",
      "   midi.NoteOnEvent(tick=96, channel=5, data=[47, 0]),\r\n",
      "   midi.NoteOnEvent(tick=0, channel=5, data=[48, 100]),\r\n",
      "   midi.NoteOnEvent(tick=96, channel=5, data=[48, 0]),\r\n",
      "   midi.NoteOnEvent(tick=0, channel=5, data=[50, 100]),\r\n",
      "   midi.NoteOnEvent(tick=96, channel=5, data=[50, 0]),\r\n",
      "   midi.NoteOnEvent(tick=0, channel=5, data=[52, 100]),\r\n",
      "   midi.NoteOnEvent(tick=192, channel=5, data=[52, 0]),\r\n",
      "   midi.NoteOnEvent(tick=0, channel=5, data=[50, 100]),\r\n",
      "   midi.NoteOnEvent(tick=192, channel=5, data=[50, 0]),\r\n",
      "   midi.NoteOnEvent(tick=0, channel=5, data=[52, 100]),\r\n",
      "   midi.NoteOnEvent(tick=192, channel=5, data=[52, 0]),\r\n",
      "   midi.NoteOnEvent(tick=0, channel=5, data=[40, 100]),\r\n",
      "   midi.NoteOnEvent(tick=192, channel=5, data=[40, 0]),\r\n",
      "   midi.NoteOnEvent(tick=0, channel=5, data=[50, 100]),\r\n",
      "   midi.NoteOnEvent(tick=192, channel=5, data=[50, 0]),\r\n",
      "   midi.NoteOnEvent(tick=0, channel=5, data=[52, 100]),\r\n",
      "   midi.NoteOnEvent(tick=192, channel=5, data=[52, 0]),\r\n",
      "   midi.NoteOnEvent(tick=0, channel=5, data=[50, 100]),\r\n",
      "   midi.NoteOnEvent(tick=192, channel=5, data=[50, 0]),\r\n",
      "   midi.NoteOnEvent(tick=0, channel=5, data=[48, 100]),\r\n",
      "   midi.NoteOnEvent(tick=192, channel=5, data=[48, 0]),\r\n",
      "   midi.NoteOnEvent(tick=0, channel=5, data=[47, 100]),\r\n",
      "   midi.NoteOnEvent(tick=192, channel=5, data=[47, 0]),\r\n",
      "   midi.NoteOnEvent(tick=0, channel=5, data=[48, 100]),\r\n",
      "   midi.NoteOnEvent(tick=192, channel=5, data=[48, 0]),\r\n",
      "   midi.NoteOnEvent(tick=0, channel=5, data=[47, 100]),\r\n",
      "   midi.NoteOnEvent(tick=192, channel=5, data=[47, 0]),\r\n",
      "   midi.NoteOnEvent(tick=0, channel=5, data=[45, 100]),\r\n",
      "   midi.NoteOnEvent(tick=192, channel=5, data=[45, 0]),\r\n",
      "   midi.NoteOnEvent(tick=0, channel=5, data=[44, 100]),\r\n",
      "   midi.NoteOnEvent(tick=192, channel=5, data=[44, 0]),\r\n",
      "   midi.NoteOnEvent(tick=0, channel=5, data=[45, 100]),\r\n",
      "   midi.NoteOnEvent(tick=192, channel=5, data=[45, 0]),\r\n",
      "   midi.NoteOnEvent(tick=0, channel=5, data=[47, 100]),\r\n",
      "   midi.NoteOnEvent(tick=192, channel=5, data=[47, 0]),\r\n",
      "   midi.NoteOnEvent(tick=0, channel=5, data=[48, 100]),\r\n",
      "   midi.NoteOnEvent(tick=192, channel=5, data=[48, 0]),\r\n",
      "   midi.NoteOnEvent(tick=0, channel=5, data=[38, 100]),\r\n",
      "   midi.NoteOnEvent(tick=192, channel=5, data=[38, 0]),\r\n",
      "   midi.NoteOnEvent(tick=0, channel=5, data=[40, 100]),\r\n",
      "   midi.NoteOnEvent(tick=192, channel=5, data=[40, 0]),\r\n",
      "   midi.NoteOnEvent(tick=0, channel=5, data=[41, 100]),\r\n",
      "   midi.NoteOnEvent(tick=192, channel=5, data=[41, 0]),\r\n",
      "   midi.NoteOnEvent(tick=0, channel=5, data=[35, 100]),\r\n",
      "   midi.NoteOnEvent(tick=192, channel=5, data=[35, 0]),\r\n",
      "   midi.NoteOnEvent(tick=0, channel=5, data=[40, 100]),\r\n",
      "   midi.NoteOnEvent(tick=192, channel=5, data=[40, 0]),\r\n",
      "   midi.NoteOnEvent(tick=0, channel=5, data=[38, 100]),\r\n",
      "   midi.NoteOnEvent(tick=96, channel=5, data=[38, 0]),\r\n",
      "   midi.NoteOnEvent(tick=0, channel=5, data=[36, 100]),\r\n",
      "   midi.NoteOnEvent(tick=96, channel=5, data=[36, 0]),\r\n",
      "   midi.NoteOnEvent(tick=0, channel=5, data=[35, 100]),\r\n",
      "   midi.NoteOnEvent(tick=192, channel=5, data=[35, 0]),\r\n",
      "   midi.NoteOnEvent(tick=0, channel=5, data=[33, 100]),\r\n",
      "   midi.NoteOnEvent(tick=192, channel=5, data=[33, 0]),\r\n",
      "   midi.NoteOnEvent(tick=0, channel=5, data=[32, 100]),\r\n",
      "   midi.NoteOnEvent(tick=192, channel=5, data=[32, 0]),\r\n",
      "   midi.NoteOnEvent(tick=0, channel=5, data=[30, 100]),\r\n",
      "   midi.NoteOnEvent(tick=192, channel=5, data=[30, 0]),\r\n",
      "   midi.NoteOnEvent(tick=0, channel=5, data=[28, 100]),\r\n",
      "   midi.NoteOnEvent(tick=192, channel=5, data=[28, 0]),\r\n",
      "   midi.NoteOnEvent(tick=0, channel=5, data=[26, 100]),\r\n",
      "   midi.NoteOnEvent(tick=192, channel=5, data=[26, 0]),\r\n",
      "   midi.NoteOnEvent(tick=0, channel=5, data=[24, 100]),\r\n",
      "   midi.NoteOnEvent(tick=192, channel=5, data=[24, 0]),\r\n",
      "   midi.NoteOnEvent(tick=0, channel=5, data=[41, 100]),\r\n",
      "   midi.NoteOnEvent(tick=192, channel=5, data=[41, 0]),\r\n",
      "   midi.NoteOnEvent(tick=0, channel=5, data=[38, 100]),\r\n",
      "   midi.NoteOnEvent(tick=192, channel=5, data=[38, 0]),\r\n",
      "   midi.NoteOnEvent(tick=0, channel=5, data=[40, 100]),\r\n",
      "   midi.NoteOnEvent(tick=192, channel=5, data=[40, 0]),\r\n",
      "   midi.NoteOnEvent(tick=0, channel=5, data=[29, 100]),\r\n",
      "   midi.NoteOnEvent(tick=384, channel=5, data=[29, 0]),\r\n",
      "   midi.NoteOnEvent(tick=192, channel=5, data=[41, 100]),\r\n",
      "   midi.NoteOnEvent(tick=192, channel=5, data=[41, 0]),\r\n",
      "   midi.NoteOnEvent(tick=0, channel=5, data=[32, 100]),\r\n",
      "   midi.NoteOnEvent(tick=192, channel=5, data=[32, 0]),\r\n",
      "   midi.NoteOnEvent(tick=0, channel=5, data=[32, 100]),\r\n",
      "   midi.NoteOnEvent(tick=192, channel=5, data=[32, 0]),\r\n",
      "   midi.NoteOnEvent(tick=0, channel=5, data=[32, 100]),\r\n",
      "   midi.NoteOnEvent(tick=192, channel=5, data=[32, 0]),\r\n",
      "   midi.NoteOnEvent(tick=0, channel=5, data=[47, 100]),\r\n",
      "   midi.NoteOnEvent(tick=192, channel=5, data=[47, 0]),\r\n",
      "   midi.NoteOnEvent(tick=0, channel=5, data=[38, 100]),\r\n",
      "   midi.NoteOnEvent(tick=192, channel=5, data=[38, 0]),\r\n",
      "   midi.NoteOnEvent(tick=0, channel=5, data=[38, 100]),\r\n",
      "   midi.NoteOnEvent(tick=192, channel=5, data=[38, 0]),\r\n",
      "   midi.NoteOnEvent(tick=0, channel=5, data=[38, 100]),\r\n",
      "   midi.NoteOnEvent(tick=192, channel=5, data=[38, 0]),\r\n",
      "   midi.NoteOnEvent(tick=0, channel=5, data=[41, 100]),\r\n",
      "   midi.NoteOnEvent(tick=192, channel=5, data=[41, 0]),\r\n",
      "   midi.NoteOnEvent(tick=0, channel=5, data=[35, 100]),\r\n",
      "   midi.NoteOnEvent(tick=192, channel=5, data=[35, 0]),\r\n",
      "   midi.NoteOnEvent(tick=0, channel=5, data=[36, 100]),\r\n",
      "   midi.NoteOnEvent(tick=96, channel=5, data=[36, 0]),\r\n",
      "   midi.NoteOnEvent(tick=0, channel=5, data=[38, 100]),\r\n",
      "   midi.NoteOnEvent(tick=96, channel=5, data=[38, 0]),\r\n",
      "   midi.NoteOnEvent(tick=0, channel=5, data=[40, 100]),\r\n",
      "   midi.NoteOnEvent(tick=192, channel=5, data=[40, 0]),\r\n",
      "   midi.NoteOnEvent(tick=0, channel=5, data=[28, 100]),\r\n",
      "   midi.NoteOnEvent(tick=192, channel=5, data=[28, 0]),\r\n",
      "   midi.NoteOnEvent(tick=0, channel=5, data=[33, 100]),\r\n",
      "   midi.NoteOnEvent(tick=576, channel=5, data=[33, 0]),\r\n",
      "   midi.EndOfTrackEvent(tick=0, data=[])]),\r\n",
      " midi.Track(\\\r\n",
      "  [midi.PortEvent(tick=0, data=[0]),\r\n",
      "   midi.TrackNameEvent(tick=0, text='Harpsichord', data=[72, 97, 114, 112, 115, 105, 99, 104, 111, 114, 100]),\r\n",
      "   midi.ProgramChangeEvent(tick=0, channel=6, data=[6]),\r\n",
      "   midi.ControlChangeEvent(tick=0, channel=6, data=[7, 90]),\r\n",
      "   midi.ControlChangeEvent(tick=0, channel=6, data=[10, 64]),\r\n",
      "   midi.NoteOnEvent(tick=960, channel=6, data=[45, 100]),\r\n",
      "   midi.NoteOnEvent(tick=192, channel=6, data=[45, 0]),\r\n",
      "   midi.NoteOnEvent(tick=0, channel=6, data=[57, 100]),\r\n",
      "   midi.NoteOnEvent(tick=384, channel=6, data=[57, 0]),\r\n",
      "   midi.NoteOnEvent(tick=192, channel=6, data=[45, 100]),\r\n",
      "   midi.NoteOnEvent(tick=192, channel=6, data=[45, 0]),\r\n",
      "   midi.NoteOnEvent(tick=0, channel=6, data=[57, 100]),\r\n",
      "   midi.NoteOnEvent(tick=384, channel=6, data=[57, 0]),\r\n",
      "   midi.NoteOnEvent(tick=192, channel=6, data=[45, 100]),\r\n",
      "   midi.NoteOnEvent(tick=192, channel=6, data=[45, 0]),\r\n",
      "   midi.NoteOnEvent(tick=0, channel=6, data=[52, 100]),\r\n",
      "   midi.NoteOnEvent(tick=192, channel=6, data=[52, 0]),\r\n",
      "   midi.NoteOnEvent(tick=0, channel=6, data=[40, 100]),\r\n",
      "   midi.NoteOnEvent(tick=192, channel=6, data=[40, 0]),\r\n",
      "   midi.NoteOnEvent(tick=0, channel=6, data=[45, 100]),\r\n",
      "   midi.NoteOnEvent(tick=192, channel=6, data=[45, 0]),\r\n",
      "   midi.NoteOnEvent(tick=0, channel=6, data=[57, 100]),\r\n",
      "   midi.NoteOnEvent(tick=96, channel=6, data=[57, 0]),\r\n",
      "   midi.NoteOnEvent(tick=0, channel=6, data=[59, 100]),\r\n",
      "   midi.NoteOnEvent(tick=96, channel=6, data=[59, 0]),\r\n",
      "   midi.NoteOnEvent(tick=0, channel=6, data=[60, 100]),\r\n",
      "   midi.NoteOnEvent(tick=192, channel=6, data=[60, 0]),\r\n",
      "   midi.NoteOnEvent(tick=0, channel=6, data=[57, 100]),\r\n",
      "   midi.NoteOnEvent(tick=192, channel=6, data=[57, 0]),\r\n",
      "   midi.NoteOnEvent(tick=0, channel=6, data=[56, 100]),\r\n",
      "   midi.NoteOnEvent(tick=192, channel=6, data=[56, 0]),\r\n",
      "   midi.NoteOnEvent(tick=0, channel=6, data=[52, 100]),\r\n",
      "   midi.NoteOnEvent(tick=192, channel=6, data=[52, 0]),\r\n",
      "   midi.NoteOnEvent(tick=0, channel=6, data=[57, 100]),\r\n",
      "   midi.NoteOnEvent(tick=192, channel=6, data=[57, 0]),\r\n",
      "   midi.NoteOnEvent(tick=0, channel=6, data=[52, 100]),\r\n",
      "   midi.NoteOnEvent(tick=192, channel=6, data=[52, 0]),\r\n",
      "   midi.NoteOnEvent(tick=0, channel=6, data=[59, 100]),\r\n",
      "   midi.NoteOnEvent(tick=192, channel=6, data=[59, 0]),\r\n",
      "   midi.NoteOnEvent(tick=0, channel=6, data=[52, 100]),\r\n",
      "   midi.NoteOnEvent(tick=192, channel=6, data=[52, 0]),\r\n",
      "   midi.NoteOnEvent(tick=0, channel=6, data=[60, 100]),\r\n",
      "   midi.NoteOnEvent(tick=192, channel=6, data=[60, 0]),\r\n",
      "   midi.NoteOnEvent(tick=0, channel=6, data=[52, 100]),\r\n",
      "   midi.NoteOnEvent(tick=192, channel=6, data=[52, 0]),\r\n",
      "   midi.NoteOnEvent(tick=0, channel=6, data=[62, 100]),\r\n",
      "   midi.NoteOnEvent(tick=192, channel=6, data=[62, 0]),\r\n",
      "   midi.NoteOnEvent(tick=0, channel=6, data=[50, 100]),\r\n",
      "   midi.NoteOnEvent(tick=192, channel=6, data=[50, 0]),\r\n",
      "   midi.NoteOnEvent(tick=0, channel=6, data=[52, 100]),\r\n",
      "   midi.NoteOnEvent(tick=192, channel=6, data=[52, 0]),\r\n",
      "   midi.NoteOnEvent(tick=0, channel=6, data=[53, 100]),\r\n",
      "   midi.NoteOnEvent(tick=192, channel=6, data=[53, 0]),\r\n",
      "   midi.NoteOnEvent(tick=0, channel=6, data=[52, 100]),\r\n",
      "   midi.NoteOnEvent(tick=192, channel=6, data=[52, 0]),\r\n",
      "   midi.NoteOnEvent(tick=0, channel=6, data=[40, 100]),\r\n",
      "   midi.NoteOnEvent(tick=192, channel=6, data=[40, 0]),\r\n",
      "   midi.NoteOnEvent(tick=192, channel=6, data=[64, 100]),\r\n",
      "   midi.NoteOnEvent(tick=96, channel=6, data=[64, 0]),\r\n",
      "   midi.NoteOnEvent(tick=0, channel=6, data=[62, 100]),\r\n",
      "   midi.NoteOnEvent(tick=96, channel=6, data=[62, 0]),\r\n",
      "   midi.NoteOnEvent(tick=0, channel=6, data=[60, 100]),\r\n",
      "   midi.NoteOnEvent(tick=192, channel=6, data=[60, 0]),\r\n",
      "   midi.NoteOnEvent(tick=0, channel=6, data=[64, 100]),\r\n",
      "   midi.NoteOnEvent(tick=192, channel=6, data=[64, 0]),\r\n",
      "   midi.NoteOnEvent(tick=0, channel=6, data=[60, 100]),\r\n",
      "   midi.NoteOnEvent(tick=192, channel=6, data=[60, 0]),\r\n",
      "   midi.NoteOnEvent(tick=0, channel=6, data=[57, 100]),\r\n",
      "   midi.NoteOnEvent(tick=192, channel=6, data=[57, 0]),\r\n",
      "   midi.NoteOnEvent(tick=0, channel=6, data=[62, 100]),\r\n",
      "   midi.NoteOnEvent(tick=192, channel=6, data=[62, 0]),\r\n",
      "   midi.NoteOnEvent(tick=0, channel=6, data=[50, 100]),\r\n",
      "   midi.NoteOnEvent(tick=192, channel=6, data=[50, 0]),\r\n",
      "   midi.NoteOnEvent(tick=192, channel=6, data=[62, 100]),\r\n",
      "   midi.NoteOnEvent(tick=96, channel=6, data=[62, 0]),\r\n",
      "   midi.NoteOnEvent(tick=0, channel=6, data=[60, 100]),\r\n",
      "   midi.NoteOnEvent(tick=96, channel=6, data=[60, 0]),\r\n",
      "   midi.NoteOnEvent(tick=0, channel=6, data=[59, 100]),\r\n",
      "   midi.NoteOnEvent(tick=192, channel=6, data=[59, 0]),\r\n",
      "   midi.NoteOnEvent(tick=0, channel=6, data=[62, 100]),\r\n",
      "   midi.NoteOnEvent(tick=192, channel=6, data=[62, 0]),\r\n",
      "   midi.NoteOnEvent(tick=0, channel=6, data=[59, 100]),\r\n",
      "   midi.NoteOnEvent(tick=192, channel=6, data=[59, 0]),\r\n",
      "   midi.NoteOnEvent(tick=0, channel=6, data=[55, 100]),\r\n",
      "   midi.NoteOnEvent(tick=192, channel=6, data=[55, 0]),\r\n",
      "   midi.NoteOnEvent(tick=0, channel=6, data=[60, 100]),\r\n",
      "   midi.NoteOnEvent(tick=192, channel=6, data=[60, 0]),\r\n",
      "   midi.NoteOnEvent(tick=0, channel=6, data=[48, 100]),\r\n",
      "   midi.NoteOnEvent(tick=192, channel=6, data=[48, 0]),\r\n",
      "   midi.NoteOnEvent(tick=192, channel=6, data=[60, 100]),\r\n",
      "   midi.NoteOnEvent(tick=96, channel=6, data=[60, 0]),\r\n",
      "   midi.NoteOnEvent(tick=0, channel=6, data=[59, 100]),\r\n",
      "   midi.NoteOnEvent(tick=96, channel=6, data=[59, 0]),\r\n",
      "   midi.NoteOnEvent(tick=0, channel=6, data=[57, 100]),\r\n",
      "   midi.NoteOnEvent(tick=96, channel=6, data=[57, 0]),\r\n",
      "   midi.NoteOnEvent(tick=0, channel=6, data=[59, 100]),\r\n",
      "   midi.NoteOnEvent(tick=96, channel=6, data=[59, 0]),\r\n",
      "   midi.NoteOnEvent(tick=0, channel=6, data=[57, 100]),\r\n",
      "   midi.NoteOnEvent(tick=96, channel=6, data=[57, 0]),\r\n",
      "   midi.NoteOnEvent(tick=0, channel=6, data=[55, 100]),\r\n",
      "   midi.NoteOnEvent(tick=96, channel=6, data=[55, 0]),\r\n",
      "   midi.NoteOnEvent(tick=0, channel=6, data=[54, 100]),\r\n",
      "   midi.NoteOnEvent(tick=96, channel=6, data=[54, 0]),\r\n",
      "   midi.NoteOnEvent(tick=0, channel=6, data=[55, 100]),\r\n",
      "   midi.NoteOnEvent(tick=96, channel=6, data=[55, 0]),\r\n",
      "   midi.NoteOnEvent(tick=0, channel=6, data=[54, 100]),\r\n",
      "   midi.NoteOnEvent(tick=96, channel=6, data=[54, 0]),\r\n",
      "   midi.NoteOnEvent(tick=0, channel=6, data=[52, 100]),\r\n",
      "   midi.NoteOnEvent(tick=96, channel=6, data=[52, 0]),\r\n",
      "   midi.NoteOnEvent(tick=0, channel=6, data=[51, 100]),\r\n",
      "   midi.NoteOnEvent(tick=96, channel=6, data=[51, 0]),\r\n",
      "   midi.NoteOnEvent(tick=0, channel=6, data=[47, 100]),\r\n",
      "   midi.NoteOnEvent(tick=96, channel=6, data=[47, 0]),\r\n",
      "   midi.NoteOnEvent(tick=0, channel=6, data=[49, 100]),\r\n",
      "   midi.NoteOnEvent(tick=96, channel=6, data=[49, 0]),\r\n",
      "   midi.NoteOnEvent(tick=0, channel=6, data=[51, 100]),\r\n",
      "   midi.NoteOnEvent(tick=96, channel=6, data=[51, 0]),\r\n",
      "   midi.NoteOnEvent(tick=0, channel=6, data=[52, 100]),\r\n",
      "   midi.NoteOnEvent(tick=96, channel=6, data=[52, 0]),\r\n",
      "   midi.NoteOnEvent(tick=0, channel=6, data=[54, 100]),\r\n",
      "   midi.NoteOnEvent(tick=96, channel=6, data=[54, 0]),\r\n",
      "   midi.NoteOnEvent(tick=0, channel=6, data=[55, 100]),\r\n",
      "   midi.NoteOnEvent(tick=96, channel=6, data=[55, 0]),\r\n",
      "   midi.NoteOnEvent(tick=0, channel=6, data=[52, 100]),\r\n",
      "   midi.NoteOnEvent(tick=96, channel=6, data=[52, 0]),\r\n",
      "   midi.NoteOnEvent(tick=0, channel=6, data=[48, 100]),\r\n",
      "   midi.NoteOnEvent(tick=192, channel=6, data=[48, 0]),\r\n",
      "   midi.NoteOnEvent(tick=0, channel=6, data=[47, 100]),\r\n",
      "   midi.NoteOnEvent(tick=192, channel=6, data=[47, 0]),\r\n",
      "   midi.NoteOnEvent(tick=0, channel=6, data=[48, 100]),\r\n",
      "   midi.NoteOnEvent(tick=192, channel=6, data=[48, 0]),\r\n",
      "   midi.NoteOnEvent(tick=0, channel=6, data=[45, 100]),\r\n",
      "   midi.NoteOnEvent(tick=192, channel=6, data=[45, 0]),\r\n",
      "   midi.NoteOnEvent(tick=0, channel=6, data=[47, 100]),\r\n",
      "   midi.NoteOnEvent(tick=288, channel=6, data=[47, 0]),\r\n",
      "   midi.NoteOnEvent(tick=0, channel=6, data=[49, 100]),\r\n",
      "   midi.NoteOnEvent(tick=48, channel=6, data=[49, 0]),\r\n",
      "   midi.NoteOnEvent(tick=0, channel=6, data=[51, 100]),\r\n",
      "   midi.NoteOnEvent(tick=48, channel=6, data=[51, 0]),\r\n",
      "   midi.NoteOnEvent(tick=0, channel=6, data=[52, 100]),\r\n",
      "   midi.NoteOnEvent(tick=96, channel=6, data=[52, 0]),\r\n",
      "   midi.NoteOnEvent(tick=0, channel=6, data=[54, 100]),\r\n",
      "   midi.NoteOnEvent(tick=96, channel=6, data=[54, 0]),\r\n",
      "   midi.NoteOnEvent(tick=0, channel=6, data=[55, 100]),\r\n",
      "   midi.NoteOnEvent(tick=96, channel=6, data=[55, 0]),\r\n",
      "   midi.NoteOnEvent(tick=0, channel=6, data=[57, 100]),\r\n",
      "   midi.NoteOnEvent(tick=96, channel=6, data=[57, 0]),\r\n",
      "   midi.NoteOnEvent(tick=0, channel=6, data=[59, 100]),\r\n",
      "   midi.NoteOnEvent(tick=192, channel=6, data=[59, 0]),\r\n",
      "   midi.NoteOnEvent(tick=0, channel=6, data=[57, 100]),\r\n",
      "   midi.NoteOnEvent(tick=192, channel=6, data=[57, 0]),\r\n",
      "   midi.NoteOnEvent(tick=0, channel=6, data=[59, 100]),\r\n",
      "   midi.NoteOnEvent(tick=192, channel=6, data=[59, 0]),\r\n",
      "   midi.NoteOnEvent(tick=0, channel=6, data=[47, 100]),\r\n",
      "   midi.NoteOnEvent(tick=192, channel=6, data=[47, 0]),\r\n",
      "   midi.NoteOnEvent(tick=0, channel=6, data=[57, 100]),\r\n",
      "   midi.NoteOnEvent(tick=192, channel=6, data=[57, 0]),\r\n",
      "   midi.NoteOnEvent(tick=0, channel=6, data=[55, 100]),\r\n",
      "   midi.NoteOnEvent(tick=192, channel=6, data=[55, 0]),\r\n",
      "   midi.NoteOnEvent(tick=0, channel=6, data=[57, 100]),\r\n",
      "   midi.NoteOnEvent(tick=192, channel=6, data=[57, 0]),\r\n",
      "   midi.NoteOnEvent(tick=0, channel=6, data=[45, 100]),\r\n",
      "   midi.NoteOnEvent(tick=192, channel=6, data=[45, 0]),\r\n",
      "   midi.NoteOnEvent(tick=0, channel=6, data=[43, 100]),\r\n",
      "   midi.NoteOnEvent(tick=192, channel=6, data=[43, 0]),\r\n",
      "   midi.NoteOnEvent(tick=0, channel=6, data=[48, 100]),\r\n",
      "   midi.NoteOnEvent(tick=192, channel=6, data=[48, 0]),\r\n",
      "   midi.NoteOnEvent(tick=0, channel=6, data=[45, 100]),\r\n",
      "   midi.NoteOnEvent(tick=192, channel=6, data=[45, 0]),\r\n",
      "   midi.NoteOnEvent(tick=0, channel=6, data=[47, 100]),\r\n",
      "   midi.NoteOnEvent(tick=192, channel=6, data=[47, 0]),\r\n",
      "   midi.NoteOnEvent(tick=0, channel=6, data=[40, 100]),\r\n",
      "   midi.NoteOnEvent(tick=384, channel=6, data=[40, 0]),\r\n",
      "   midi.NoteOnEvent(tick=192, channel=6, data=[60, 100]),\r\n",
      "   midi.NoteOnEvent(tick=192, channel=6, data=[60, 0]),\r\n",
      "   midi.NoteOnEvent(tick=0, channel=6, data=[51, 100]),\r\n",
      "   midi.NoteOnEvent(tick=192, channel=6, data=[51, 0]),\r\n",
      "   midi.NoteOnEvent(tick=0, channel=6, data=[51, 100]),\r\n",
      "   midi.NoteOnEvent(tick=192, channel=6, data=[51, 0]),\r\n",
      "   midi.NoteOnEvent(tick=0, channel=6, data=[51, 100]),\r\n",
      "   midi.NoteOnEvent(tick=192, channel=6, data=[51, 0]),\r\n",
      "   midi.NoteOnEvent(tick=0, channel=6, data=[54, 100]),\r\n",
      "   midi.NoteOnEvent(tick=192, channel=6, data=[54, 0]),\r\n",
      "   midi.NoteOnEvent(tick=0, channel=6, data=[45, 100]),\r\n",
      "   midi.NoteOnEvent(tick=192, channel=6, data=[45, 0]),\r\n",
      "   midi.NoteOnEvent(tick=0, channel=6, data=[45, 100]),\r\n",
      "   midi.NoteOnEvent(tick=192, channel=6, data=[45, 0]),\r\n",
      "   midi.NoteOnEvent(tick=0, channel=6, data=[45, 100]),\r\n",
      "   midi.NoteOnEvent(tick=192, channel=6, data=[45, 0]),\r\n",
      "   midi.NoteOnEvent(tick=0, channel=6, data=[48, 100]),\r\n",
      "   midi.NoteOnEvent(tick=192, channel=6, data=[48, 0]),\r\n",
      "   midi.NoteOnEvent(tick=0, channel=6, data=[42, 100]),\r\n",
      "   midi.NoteOnEvent(tick=192, channel=6, data=[42, 0]),\r\n",
      "   midi.NoteOnEvent(tick=0, channel=6, data=[40, 100]),\r\n",
      "   midi.NoteOnEvent(tick=192, channel=6, data=[40, 0]),\r\n",
      "   midi.NoteOnEvent(tick=0, channel=6, data=[47, 100]),\r\n",
      "   midi.NoteOnEvent(tick=192, channel=6, data=[47, 0]),\r\n",
      "   midi.NoteOnEvent(tick=0, channel=6, data=[47, 100]),\r\n",
      "   midi.NoteOnEvent(tick=192, channel=6, data=[47, 0]),\r\n",
      "   midi.NoteOnEvent(tick=0, channel=6, data=[40, 100]),\r\n",
      "   midi.NoteOnEvent(tick=192, channel=6, data=[40, 0]),\r\n",
      "   midi.NoteOnEvent(tick=0, channel=6, data=[52, 100]),\r\n",
      "   midi.NoteOnEvent(tick=96, channel=6, data=[52, 0]),\r\n",
      "   midi.NoteOnEvent(tick=0, channel=6, data=[50, 100]),\r\n",
      "   midi.NoteOnEvent(tick=96, channel=6, data=[50, 0]),\r\n",
      "   midi.NoteOnEvent(tick=0, channel=6, data=[48, 100]),\r\n",
      "   midi.NoteOnEvent(tick=192, channel=6, data=[48, 0]),\r\n",
      "   midi.NoteOnEvent(tick=0, channel=6, data=[47, 100]),\r\n",
      "   midi.NoteOnEvent(tick=192, channel=6, data=[47, 0]),\r\n",
      "   midi.NoteOnEvent(tick=0, channel=6, data=[45, 100]),\r\n",
      "   midi.NoteOnEvent(tick=384, channel=6, data=[45, 0]),\r\n",
      "   midi.NoteOnEvent(tick=192, channel=6, data=[57, 100]),\r\n",
      "   midi.NoteOnEvent(tick=192, channel=6, data=[57, 0]),\r\n",
      "   midi.NoteOnEvent(tick=0, channel=6, data=[64, 100]),\r\n",
      "   midi.NoteOnEvent(tick=384, channel=6, data=[64, 0]),\r\n",
      "   midi.NoteOnEvent(tick=192, channel=6, data=[52, 100]),\r\n",
      "   midi.NoteOnEvent(tick=192, channel=6, data=[52, 0]),\r\n",
      "   midi.NoteOnEvent(tick=0, channel=6, data=[44, 100]),\r\n",
      "   midi.NoteOnEvent(tick=384, channel=6, data=[44, 0]),\r\n",
      "   midi.NoteOnEvent(tick=192, channel=6, data=[52, 100]),\r\n",
      "   midi.NoteOnEvent(tick=192, channel=6, data=[52, 0]),\r\n",
      "   midi.NoteOnEvent(tick=0, channel=6, data=[57, 100]),\r\n",
      "   midi.NoteOnEvent(tick=384, channel=6, data=[57, 0]),\r\n",
      "   midi.NoteOnEvent(tick=192, channel=6, data=[57, 100]),\r\n",
      "   midi.NoteOnEvent(tick=192, channel=6, data=[57, 0]),\r\n",
      "   midi.NoteOnEvent(tick=0, channel=6, data=[45, 100]),\r\n",
      "   midi.NoteOnEvent(tick=192, channel=6, data=[45, 0]),\r\n",
      "   midi.NoteOnEvent(tick=0, channel=6, data=[48, 100]),\r\n",
      "   midi.NoteOnEvent(tick=192, channel=6, data=[48, 0]),\r\n",
      "   midi.NoteOnEvent(tick=0, channel=6, data=[50, 100]),\r\n",
      "   midi.NoteOnEvent(tick=192, channel=6, data=[50, 0]),\r\n",
      "   midi.NoteOnEvent(tick=0, channel=6, data=[53, 100]),\r\n",
      "   midi.NoteOnEvent(tick=192, channel=6, data=[53, 0]),\r\n",
      "   midi.NoteOnEvent(tick=0, channel=6, data=[43, 100]),\r\n",
      "   midi.NoteOnEvent(tick=192, channel=6, data=[43, 0]),\r\n",
      "   midi.NoteOnEvent(tick=0, channel=6, data=[47, 100]),\r\n",
      "   midi.NoteOnEvent(tick=192, channel=6, data=[47, 0]),\r\n",
      "   midi.NoteOnEvent(tick=0, channel=6, data=[48, 100]),\r\n",
      "   midi.NoteOnEvent(tick=192, channel=6, data=[48, 0]),\r\n",
      "   midi.NoteOnEvent(tick=0, channel=6, data=[52, 100]),\r\n",
      "   midi.NoteOnEvent(tick=192, channel=6, data=[52, 0]),\r\n",
      "   midi.NoteOnEvent(tick=0, channel=6, data=[53, 100]),\r\n",
      "   midi.NoteOnEvent(tick=192, channel=6, data=[53, 0]),\r\n",
      "   midi.NoteOnEvent(tick=0, channel=6, data=[57, 100]),\r\n",
      "   midi.NoteOnEvent(tick=192, channel=6, data=[57, 0]),\r\n",
      "   midi.NoteOnEvent(tick=0, channel=6, data=[47, 100]),\r\n",
      "   midi.NoteOnEvent(tick=192, channel=6, data=[47, 0]),\r\n",
      "   midi.NoteOnEvent(tick=0, channel=6, data=[50, 100]),\r\n",
      "   midi.NoteOnEvent(tick=192, channel=6, data=[50, 0]),\r\n",
      "   midi.NoteOnEvent(tick=0, channel=6, data=[40, 100]),\r\n",
      "   midi.NoteOnEvent(tick=192, channel=6, data=[40, 0]),\r\n",
      "   midi.NoteOnEvent(tick=0, channel=6, data=[52, 100]),\r\n",
      "   midi.NoteOnEvent(tick=192, channel=6, data=[52, 0]),\r\n",
      "   midi.NoteOnEvent(tick=0, channel=6, data=[56, 100]),\r\n",
      "   midi.NoteOnEvent(tick=192, channel=6, data=[56, 0]),\r\n",
      "   midi.NoteOnEvent(tick=0, channel=6, data=[52, 100]),\r\n",
      "   midi.NoteOnEvent(tick=192, channel=6, data=[52, 0]),\r\n",
      "   midi.NoteOnEvent(tick=192, channel=6, data=[57, 100]),\r\n",
      "   midi.NoteOnEvent(tick=192, channel=6, data=[57, 0]),\r\n",
      "   midi.NoteOnEvent(tick=0, channel=6, data=[60, 100]),\r\n",
      "   midi.NoteOnEvent(tick=192, channel=6, data=[60, 0]),\r\n",
      "   midi.NoteOnEvent(tick=0, channel=6, data=[57, 100]),\r\n",
      "   midi.NoteOnEvent(tick=192, channel=6, data=[57, 0]),\r\n",
      "   midi.NoteOnEvent(tick=192, channel=6, data=[57, 100]),\r\n",
      "   midi.NoteOnEvent(tick=192, channel=6, data=[57, 0]),\r\n",
      "   midi.NoteOnEvent(tick=0, channel=6, data=[53, 100]),\r\n",
      "   midi.NoteOnEvent(tick=192, channel=6, data=[53, 0]),\r\n",
      "   midi.NoteOnEvent(tick=0, channel=6, data=[50, 100]),\r\n",
      "   midi.NoteOnEvent(tick=192, channel=6, data=[50, 0]),\r\n",
      "   midi.NoteOnEvent(tick=192, channel=6, data=[55, 100]),\r\n",
      "   midi.NoteOnEvent(tick=192, channel=6, data=[55, 0]),\r\n",
      "   midi.NoteOnEvent(tick=0, channel=6, data=[59, 100]),\r\n",
      "   midi.NoteOnEvent(tick=192, channel=6, data=[59, 0]),\r\n",
      "   midi.NoteOnEvent(tick=0, channel=6, data=[55, 100]),\r\n",
      "   midi.NoteOnEvent(tick=192, channel=6, data=[55, 0]),\r\n",
      "   midi.NoteOnEvent(tick=192, channel=6, data=[55, 100]),\r\n",
      "   midi.NoteOnEvent(tick=192, channel=6, data=[55, 0]),\r\n",
      "   midi.NoteOnEvent(tick=0, channel=6, data=[52, 100]),\r\n",
      "   midi.NoteOnEvent(tick=192, channel=6, data=[52, 0]),\r\n",
      "   midi.NoteOnEvent(tick=0, channel=6, data=[48, 100]),\r\n",
      "   midi.NoteOnEvent(tick=192, channel=6, data=[48, 0]),\r\n",
      "   midi.NoteOnEvent(tick=192, channel=6, data=[53, 100]),\r\n",
      "   midi.NoteOnEvent(tick=192, channel=6, data=[53, 0]),\r\n",
      "   midi.NoteOnEvent(tick=0, channel=6, data=[57, 100]),\r\n",
      "   midi.NoteOnEvent(tick=192, channel=6, data=[57, 0]),\r\n",
      "   midi.NoteOnEvent(tick=0, channel=6, data=[53, 100]),\r\n",
      "   midi.NoteOnEvent(tick=192, channel=6, data=[53, 0]),\r\n",
      "   midi.NoteOnEvent(tick=192, channel=6, data=[53, 100]),\r\n",
      "   midi.NoteOnEvent(tick=192, channel=6, data=[53, 0]),\r\n",
      "   midi.NoteOnEvent(tick=0, channel=6, data=[50, 100]),\r\n",
      "   midi.NoteOnEvent(tick=192, channel=6, data=[50, 0]),\r\n",
      "   midi.NoteOnEvent(tick=0, channel=6, data=[47, 100]),\r\n",
      "   midi.NoteOnEvent(tick=192, channel=6, data=[47, 0]),\r\n",
      "   midi.NoteOnEvent(tick=192, channel=6, data=[52, 100]),\r\n",
      "   midi.NoteOnEvent(tick=192, channel=6, data=[52, 0]),\r\n",
      "   midi.NoteOnEvent(tick=0, channel=6, data=[56, 100]),\r\n",
      "   midi.NoteOnEvent(tick=192, channel=6, data=[56, 0]),\r\n",
      "   midi.NoteOnEvent(tick=0, channel=6, data=[52, 100]),\r\n",
      "   midi.NoteOnEvent(tick=192, channel=6, data=[52, 0]),\r\n",
      "   midi.NoteOnEvent(tick=192, channel=6, data=[52, 100]),\r\n",
      "   midi.NoteOnEvent(tick=192, channel=6, data=[52, 0]),\r\n",
      "   midi.NoteOnEvent(tick=0, channel=6, data=[48, 100]),\r\n",
      "   midi.NoteOnEvent(tick=192, channel=6, data=[48, 0]),\r\n",
      "   midi.NoteOnEvent(tick=0, channel=6, data=[45, 100]),\r\n",
      "   midi.NoteOnEvent(tick=192, channel=6, data=[45, 0]),\r\n",
      "   midi.NoteOnEvent(tick=0, channel=6, data=[57, 100]),\r\n",
      "   midi.NoteOnEvent(tick=384, channel=6, data=[57, 0]),\r",
      "\r\n",
      "   midi.NoteOnEvent(tick=192, channel=6, data=[45, 100]),\r\n",
      "   midi.NoteOnEvent(tick=192, channel=6, data=[45, 0]),\r\n",
      "   midi.NoteOnEvent(tick=0, channel=6, data=[57, 100]),\r\n",
      "   midi.NoteOnEvent(tick=192, channel=6, data=[57, 0]),\r\n",
      "   midi.NoteOnEvent(tick=0, channel=6, data=[45, 100]),\r\n",
      "   midi.NoteOnEvent(tick=192, channel=6, data=[45, 0]),\r\n",
      "   midi.NoteOnEvent(tick=0, channel=6, data=[52, 100]),\r\n",
      "   midi.NoteOnEvent(tick=192, channel=6, data=[52, 0]),\r\n",
      "   midi.NoteOnEvent(tick=0, channel=6, data=[40, 100]),\r\n",
      "   midi.NoteOnEvent(tick=192, channel=6, data=[40, 0]),\r\n",
      "   midi.NoteOnEvent(tick=0, channel=6, data=[45, 100]),\r\n",
      "   midi.NoteOnEvent(tick=192, channel=6, data=[45, 0]),\r\n",
      "   midi.NoteOnEvent(tick=0, channel=6, data=[57, 100]),\r\n",
      "   midi.NoteOnEvent(tick=96, channel=6, data=[57, 0]),\r\n",
      "   midi.NoteOnEvent(tick=0, channel=6, data=[59, 100]),\r\n",
      "   midi.NoteOnEvent(tick=96, channel=6, data=[59, 0]),\r\n",
      "   midi.NoteOnEvent(tick=0, channel=6, data=[60, 100]),\r\n",
      "   midi.NoteOnEvent(tick=192, channel=6, data=[60, 0]),\r\n",
      "   midi.NoteOnEvent(tick=0, channel=6, data=[57, 100]),\r\n",
      "   midi.NoteOnEvent(tick=192, channel=6, data=[57, 0]),\r\n",
      "   midi.NoteOnEvent(tick=0, channel=6, data=[45, 100]),\r\n",
      "   midi.NoteOnEvent(tick=192, channel=6, data=[45, 0]),\r\n",
      "   midi.NoteOnEvent(tick=768, channel=6, data=[55, 100]),\r\n",
      "   midi.NoteOnEvent(tick=96, channel=6, data=[55, 0]),\r\n",
      "   midi.NoteOnEvent(tick=0, channel=6, data=[57, 100]),\r\n",
      "   midi.NoteOnEvent(tick=96, channel=6, data=[57, 0]),\r\n",
      "   midi.NoteOnEvent(tick=0, channel=6, data=[59, 100]),\r\n",
      "   midi.NoteOnEvent(tick=192, channel=6, data=[59, 0]),\r\n",
      "   midi.NoteOnEvent(tick=0, channel=6, data=[55, 100]),\r\n",
      "   midi.NoteOnEvent(tick=192, channel=6, data=[55, 0]),\r\n",
      "   midi.NoteOnEvent(tick=0, channel=6, data=[43, 100]),\r\n",
      "   midi.NoteOnEvent(tick=192, channel=6, data=[43, 0]),\r\n",
      "   midi.NoteOnEvent(tick=768, channel=6, data=[53, 100]),\r\n",
      "   midi.NoteOnEvent(tick=96, channel=6, data=[53, 0]),\r\n",
      "   midi.NoteOnEvent(tick=0, channel=6, data=[55, 100]),\r\n",
      "   midi.NoteOnEvent(tick=96, channel=6, data=[55, 0]),\r\n",
      "   midi.NoteOnEvent(tick=0, channel=6, data=[57, 100]),\r\n",
      "   midi.NoteOnEvent(tick=192, channel=6, data=[57, 0]),\r\n",
      "   midi.NoteOnEvent(tick=0, channel=6, data=[53, 100]),\r\n",
      "   midi.NoteOnEvent(tick=192, channel=6, data=[53, 0]),\r\n",
      "   midi.NoteOnEvent(tick=0, channel=6, data=[41, 100]),\r\n",
      "   midi.NoteOnEvent(tick=192, channel=6, data=[41, 0]),\r\n",
      "   midi.NoteOnEvent(tick=768, channel=6, data=[53, 100]),\r\n",
      "   midi.NoteOnEvent(tick=192, channel=6, data=[53, 0]),\r\n",
      "   midi.NoteOnEvent(tick=0, channel=6, data=[52, 100]),\r\n",
      "   midi.NoteOnEvent(tick=192, channel=6, data=[52, 0]),\r\n",
      "   midi.NoteOnEvent(tick=0, channel=6, data=[50, 100]),\r\n",
      "   midi.NoteOnEvent(tick=192, channel=6, data=[50, 0]),\r\n",
      "   midi.NoteOnEvent(tick=0, channel=6, data=[48, 100]),\r\n",
      "   midi.NoteOnEvent(tick=192, channel=6, data=[48, 0]),\r\n",
      "   midi.NoteOnEvent(tick=0, channel=6, data=[60, 100]),\r\n",
      "   midi.NoteOnEvent(tick=192, channel=6, data=[60, 0]),\r\n",
      "   midi.NoteOnEvent(tick=0, channel=6, data=[59, 100]),\r\n",
      "   midi.NoteOnEvent(tick=192, channel=6, data=[59, 0]),\r\n",
      "   midi.NoteOnEvent(tick=0, channel=6, data=[57, 100]),\r\n",
      "   midi.NoteOnEvent(tick=192, channel=6, data=[57, 0]),\r\n",
      "   midi.NoteOnEvent(tick=0, channel=6, data=[55, 100]),\r\n",
      "   midi.NoteOnEvent(tick=192, channel=6, data=[55, 0]),\r\n",
      "   midi.NoteOnEvent(tick=0, channel=6, data=[57, 100]),\r\n",
      "   midi.NoteOnEvent(tick=192, channel=6, data=[57, 0]),\r\n",
      "   midi.NoteOnEvent(tick=0, channel=6, data=[55, 100]),\r\n",
      "   midi.NoteOnEvent(tick=192, channel=6, data=[55, 0]),\r\n",
      "   midi.NoteOnEvent(tick=0, channel=6, data=[53, 100]),\r\n",
      "   midi.NoteOnEvent(tick=192, channel=6, data=[53, 0]),\r\n",
      "   midi.NoteOnEvent(tick=0, channel=6, data=[52, 100]),\r\n",
      "   midi.NoteOnEvent(tick=192, channel=6, data=[52, 0]),\r\n",
      "   midi.NoteOnEvent(tick=0, channel=6, data=[55, 100]),\r\n",
      "   midi.NoteOnEvent(tick=192, channel=6, data=[55, 0]),\r\n",
      "   midi.NoteOnEvent(tick=0, channel=6, data=[52, 100]),\r\n",
      "   midi.NoteOnEvent(tick=192, channel=6, data=[52, 0]),\r\n",
      "   midi.NoteOnEvent(tick=0, channel=6, data=[48, 100]),\r\n",
      "   midi.NoteOnEvent(tick=192, channel=6, data=[48, 0]),\r\n",
      "   midi.NoteOnEvent(tick=0, channel=6, data=[53, 100]),\r\n",
      "   midi.NoteOnEvent(tick=192, channel=6, data=[53, 0]),\r\n",
      "   midi.NoteOnEvent(tick=0, channel=6, data=[57, 100]),\r\n",
      "   midi.NoteOnEvent(tick=192, channel=6, data=[57, 0]),\r\n",
      "   midi.NoteOnEvent(tick=0, channel=6, data=[53, 100]),\r\n",
      "   midi.NoteOnEvent(tick=192, channel=6, data=[53, 0]),\r\n",
      "   midi.NoteOnEvent(tick=0, channel=6, data=[50, 100]),\r\n",
      "   midi.NoteOnEvent(tick=192, channel=6, data=[50, 0]),\r\n",
      "   midi.NoteOnEvent(tick=0, channel=6, data=[52, 100]),\r\n",
      "   midi.NoteOnEvent(tick=192, channel=6, data=[52, 0]),\r\n",
      "   midi.NoteOnEvent(tick=0, channel=6, data=[48, 100]),\r\n",
      "   midi.NoteOnEvent(tick=192, channel=6, data=[48, 0]),\r\n",
      "   midi.NoteOnEvent(tick=0, channel=6, data=[55, 100]),\r\n",
      "   midi.NoteOnEvent(tick=192, channel=6, data=[55, 0]),\r\n",
      "   midi.NoteOnEvent(tick=0, channel=6, data=[43, 100]),\r\n",
      "   midi.NoteOnEvent(tick=192, channel=6, data=[43, 0]),\r\n",
      "   midi.NoteOnEvent(tick=0, channel=6, data=[36, 100]),\r\n",
      "   midi.NoteOnEvent(tick=192, channel=6, data=[36, 0]),\r\n",
      "   midi.NoteOnEvent(tick=0, channel=6, data=[48, 100]),\r\n",
      "   midi.NoteOnEvent(tick=96, channel=6, data=[48, 0]),\r\n",
      "   midi.NoteOnEvent(tick=0, channel=6, data=[50, 100]),\r\n",
      "   midi.NoteOnEvent(tick=96, channel=6, data=[50, 0]),\r\n",
      "   midi.NoteOnEvent(tick=0, channel=6, data=[52, 100]),\r\n",
      "   midi.NoteOnEvent(tick=192, channel=6, data=[52, 0]),\r\n",
      "   midi.NoteOnEvent(tick=0, channel=6, data=[48, 100]),\r\n",
      "   midi.NoteOnEvent(tick=192, channel=6, data=[48, 0]),\r\n",
      "   midi.NoteOnEvent(tick=0, channel=6, data=[47, 100]),\r\n",
      "   midi.NoteOnEvent(tick=192, channel=6, data=[47, 0]),\r\n",
      "   midi.NoteOnEvent(tick=0, channel=6, data=[55, 100]),\r\n",
      "   midi.NoteOnEvent(tick=192, channel=6, data=[55, 0]),\r\n",
      "   midi.NoteOnEvent(tick=0, channel=6, data=[48, 100]),\r\n",
      "   midi.NoteOnEvent(tick=192, channel=6, data=[48, 0]),\r\n",
      "   midi.NoteOnEvent(tick=0, channel=6, data=[55, 100]),\r\n",
      "   midi.NoteOnEvent(tick=192, channel=6, data=[55, 0]),\r\n",
      "   midi.NoteOnEvent(tick=0, channel=6, data=[50, 100]),\r\n",
      "   midi.NoteOnEvent(tick=192, channel=6, data=[50, 0]),\r\n",
      "   midi.NoteOnEvent(tick=0, channel=6, data=[55, 100]),\r\n",
      "   midi.NoteOnEvent(tick=192, channel=6, data=[55, 0]),\r\n",
      "   midi.NoteOnEvent(tick=0, channel=6, data=[52, 100]),\r\n",
      "   midi.NoteOnEvent(tick=192, channel=6, data=[52, 0]),\r\n",
      "   midi.NoteOnEvent(tick=0, channel=6, data=[55, 100]),\r\n",
      "   midi.NoteOnEvent(tick=192, channel=6, data=[55, 0]),\r\n",
      "   midi.NoteOnEvent(tick=0, channel=6, data=[53, 100]),\r\n",
      "   midi.NoteOnEvent(tick=192, channel=6, data=[53, 0]),\r\n",
      "   midi.NoteOnEvent(tick=0, channel=6, data=[55, 100]),\r\n",
      "   midi.NoteOnEvent(tick=192, channel=6, data=[55, 0]),\r\n",
      "   midi.NoteOnEvent(tick=0, channel=6, data=[57, 100]),\r\n",
      "   midi.NoteOnEvent(tick=192, channel=6, data=[57, 0]),\r\n",
      "   midi.NoteOnEvent(tick=0, channel=6, data=[53, 100]),\r\n",
      "   midi.NoteOnEvent(tick=192, channel=6, data=[53, 0]),\r\n",
      "   midi.NoteOnEvent(tick=0, channel=6, data=[55, 100]),\r\n",
      "   midi.NoteOnEvent(tick=96, channel=6, data=[55, 0]),\r\n",
      "   midi.NoteOnEvent(tick=0, channel=6, data=[57, 100]),\r\n",
      "   midi.NoteOnEvent(tick=96, channel=6, data=[57, 0]),\r\n",
      "   midi.NoteOnEvent(tick=0, channel=6, data=[59, 100]),\r\n",
      "   midi.NoteOnEvent(tick=96, channel=6, data=[59, 0]),\r\n",
      "   midi.NoteOnEvent(tick=0, channel=6, data=[57, 100]),\r\n",
      "   midi.NoteOnEvent(tick=96, channel=6, data=[57, 0]),\r\n",
      "   midi.NoteOnEvent(tick=0, channel=6, data=[55, 100]),\r\n",
      "   midi.NoteOnEvent(tick=96, channel=6, data=[55, 0]),\r\n",
      "   midi.NoteOnEvent(tick=0, channel=6, data=[53, 100]),\r\n",
      "   midi.NoteOnEvent(tick=96, channel=6, data=[53, 0]),\r\n",
      "   midi.NoteOnEvent(tick=0, channel=6, data=[52, 100]),\r\n",
      "   midi.NoteOnEvent(tick=96, channel=6, data=[52, 0]),\r\n",
      "   midi.NoteOnEvent(tick=0, channel=6, data=[50, 100]),\r\n",
      "   midi.NoteOnEvent(tick=96, channel=6, data=[50, 0]),\r\n",
      "   midi.NoteOnEvent(tick=0, channel=6, data=[48, 100]),\r\n",
      "   midi.NoteOnEvent(tick=192, channel=6, data=[48, 0]),\r\n",
      "   midi.NoteOnEvent(tick=0, channel=6, data=[52, 100]),\r\n",
      "   midi.NoteOnEvent(tick=192, channel=6, data=[52, 0]),\r\n",
      "   midi.NoteOnEvent(tick=0, channel=6, data=[48, 100]),\r\n",
      "   midi.NoteOnEvent(tick=192, channel=6, data=[48, 0]),\r\n",
      "   midi.NoteOnEvent(tick=0, channel=6, data=[45, 100]),\r\n",
      "   midi.NoteOnEvent(tick=192, channel=6, data=[45, 0]),\r\n",
      "   midi.NoteOnEvent(tick=0, channel=6, data=[50, 100]),\r\n",
      "   midi.NoteOnEvent(tick=192, channel=6, data=[50, 0]),\r\n",
      "   midi.NoteOnEvent(tick=0, channel=6, data=[38, 100]),\r\n",
      "   midi.NoteOnEvent(tick=192, channel=6, data=[38, 0]),\r\n",
      "   midi.NoteOnEvent(tick=1344, channel=6, data=[54, 100]),\r\n",
      "   midi.NoteOnEvent(tick=96, channel=6, data=[54, 0]),\r\n",
      "   midi.NoteOnEvent(tick=0, channel=6, data=[52, 100]),\r\n",
      "   midi.NoteOnEvent(tick=96, channel=6, data=[52, 0]),\r\n",
      "   midi.NoteOnEvent(tick=0, channel=6, data=[50, 100]),\r\n",
      "   midi.NoteOnEvent(tick=96, channel=6, data=[50, 0]),\r\n",
      "   midi.NoteOnEvent(tick=0, channel=6, data=[48, 100]),\r\n",
      "   midi.NoteOnEvent(tick=96, channel=6, data=[48, 0]),\r\n",
      "   midi.NoteOnEvent(tick=0, channel=6, data=[47, 100]),\r\n",
      "   midi.NoteOnEvent(tick=96, channel=6, data=[47, 0]),\r\n",
      "   midi.NoteOnEvent(tick=0, channel=6, data=[45, 100]),\r\n",
      "   midi.NoteOnEvent(tick=96, channel=6, data=[45, 0]),\r\n",
      "   midi.NoteOnEvent(tick=0, channel=6, data=[47, 100]),\r\n",
      "   midi.NoteOnEvent(tick=192, channel=6, data=[47, 0]),\r\n",
      "   midi.NoteOnEvent(tick=0, channel=6, data=[50, 100]),\r\n",
      "   midi.NoteOnEvent(tick=192, channel=6, data=[50, 0]),\r\n",
      "   midi.NoteOnEvent(tick=0, channel=6, data=[47, 100]),\r\n",
      "   midi.NoteOnEvent(tick=192, channel=6, data=[47, 0]),\r\n",
      "   midi.NoteOnEvent(tick=0, channel=6, data=[43, 100]),\r\n",
      "   midi.NoteOnEvent(tick=192, channel=6, data=[43, 0]),\r\n",
      "   midi.NoteOnEvent(tick=0, channel=6, data=[48, 100]),\r\n",
      "   midi.NoteOnEvent(tick=192, channel=6, data=[48, 0]),\r\n",
      "   midi.NoteOnEvent(tick=0, channel=6, data=[36, 100]),\r\n",
      "   midi.NoteOnEvent(tick=192, channel=6, data=[36, 0]),\r\n",
      "   midi.NoteOnEvent(tick=1344, channel=6, data=[60, 100]),\r\n",
      "   midi.NoteOnEvent(tick=96, channel=6, data=[60, 0]),\r\n",
      "   midi.NoteOnEvent(tick=0, channel=6, data=[59, 100]),\r\n",
      "   midi.NoteOnEvent(tick=96, channel=6, data=[59, 0]),\r\n",
      "   midi.NoteOnEvent(tick=0, channel=6, data=[60, 100]),\r\n",
      "   midi.NoteOnEvent(tick=96, channel=6, data=[60, 0]),\r\n",
      "   midi.NoteOnEvent(tick=0, channel=6, data=[62, 100]),\r\n",
      "   midi.NoteOnEvent(tick=96, channel=6, data=[62, 0]),\r\n",
      "   midi.NoteOnEvent(tick=0, channel=6, data=[60, 100]),\r\n",
      "   midi.NoteOnEvent(tick=96, channel=6, data=[60, 0]),\r\n",
      "   midi.NoteOnEvent(tick=0, channel=6, data=[59, 100]),\r\n",
      "   midi.NoteOnEvent(tick=96, channel=6, data=[59, 0]),\r\n",
      "   midi.NoteOnEvent(tick=0, channel=6, data=[57, 100]),\r\n",
      "   midi.NoteOnEvent(tick=96, channel=6, data=[57, 0]),\r\n",
      "   midi.NoteOnEvent(tick=0, channel=6, data=[59, 100]),\r\n",
      "   midi.NoteOnEvent(tick=96, channel=6, data=[59, 0]),\r\n",
      "   midi.NoteOnEvent(tick=0, channel=6, data=[57, 100]),\r\n",
      "   midi.NoteOnEvent(tick=96, channel=6, data=[57, 0]),\r\n",
      "   midi.NoteOnEvent(tick=0, channel=6, data=[55, 100]),\r\n",
      "   midi.NoteOnEvent(tick=96, channel=6, data=[55, 0]),\r\n",
      "   midi.NoteOnEvent(tick=0, channel=6, data=[54, 100]),\r\n",
      "   midi.NoteOnEvent(tick=96, channel=6, data=[54, 0]),\r\n",
      "   midi.NoteOnEvent(tick=0, channel=6, data=[55, 100]),\r\n",
      "   midi.NoteOnEvent(tick=96, channel=6, data=[55, 0]),\r\n",
      "   midi.NoteOnEvent(tick=0, channel=6, data=[54, 100]),\r\n",
      "   midi.NoteOnEvent(tick=96, channel=6, data=[54, 0]),\r\n",
      "   midi.NoteOnEvent(tick=0, channel=6, data=[52, 100]),\r\n",
      "   midi.NoteOnEvent(tick=96, channel=6, data=[52, 0]),\r\n",
      "   midi.NoteOnEvent(tick=0, channel=6, data=[51, 100]),\r\n",
      "   midi.NoteOnEvent(tick=96, channel=6, data=[51, 0]),\r\n",
      "   midi.NoteOnEvent(tick=0, channel=6, data=[47, 100]),\r\n",
      "   midi.NoteOnEvent(tick=96, channel=6, data=[47, 0]),\r\n",
      "   midi.NoteOnEvent(tick=0, channel=6, data=[49, 100]),\r\n",
      "   midi.NoteOnEvent(tick=96, channel=6, data=[49, 0]),\r\n",
      "   midi.NoteOnEvent(tick=0, channel=6, data=[51, 100]),\r\n",
      "   midi.NoteOnEvent(tick=96, channel=6, data=[51, 0]),\r\n",
      "   midi.NoteOnEvent(tick=0, channel=6, data=[52, 100]),\r\n",
      "   midi.NoteOnEvent(tick=96, channel=6, data=[52, 0]),\r\n",
      "   midi.NoteOnEvent(tick=0, channel=6, data=[54, 100]),\r\n",
      "   midi.NoteOnEvent(tick=96, channel=6, data=[54, 0]),\r\n",
      "   midi.NoteOnEvent(tick=0, channel=6, data=[55, 100]),\r\n",
      "   midi.NoteOnEvent(tick=96, channel=6, data=[55, 0]),\r\n",
      "   midi.NoteOnEvent(tick=0, channel=6, data=[52, 100]),\r\n",
      "   midi.NoteOnEvent(tick=96, channel=6, data=[52, 0]),\r\n",
      "   midi.NoteOnEvent(tick=0, channel=6, data=[48, 100]),\r\n",
      "   midi.NoteOnEvent(tick=192, channel=6, data=[48, 0]),\r\n",
      "   midi.NoteOnEvent(tick=0, channel=6, data=[47, 100]),\r\n",
      "   midi.NoteOnEvent(tick=192, channel=6, data=[47, 0]),\r\n",
      "   midi.NoteOnEvent(tick=0, channel=6, data=[48, 100]),\r\n",
      "   midi.NoteOnEvent(tick=192, channel=6, data=[48, 0]),\r\n",
      "   midi.NoteOnEvent(tick=0, channel=6, data=[45, 100]),\r\n",
      "   midi.NoteOnEvent(tick=192, channel=6, data=[45, 0]),\r\n",
      "   midi.NoteOnEvent(tick=0, channel=6, data=[47, 100]),\r\n",
      "   midi.NoteOnEvent(tick=288, channel=6, data=[47, 0]),\r\n",
      "   midi.NoteOnEvent(tick=0, channel=6, data=[49, 100]),\r\n",
      "   midi.NoteOnEvent(tick=48, channel=6, data=[49, 0]),\r\n",
      "   midi.NoteOnEvent(tick=0, channel=6, data=[51, 100]),\r\n",
      "   midi.NoteOnEvent(tick=48, channel=6, data=[51, 0]),\r\n",
      "   midi.NoteOnEvent(tick=0, channel=6, data=[52, 100]),\r\n",
      "   midi.NoteOnEvent(tick=96, channel=6, data=[52, 0]),\r\n",
      "   midi.NoteOnEvent(tick=0, channel=6, data=[54, 100]),\r\n",
      "   midi.NoteOnEvent(tick=96, channel=6, data=[54, 0]),\r\n",
      "   midi.NoteOnEvent(tick=0, channel=6, data=[55, 100]),\r\n",
      "   midi.NoteOnEvent(tick=96, channel=6, data=[55, 0]),\r\n",
      "   midi.NoteOnEvent(tick=0, channel=6, data=[57, 100]),\r\n",
      "   midi.NoteOnEvent(tick=96, channel=6, data=[57, 0]),\r\n",
      "   midi.NoteOnEvent(tick=0, channel=6, data=[59, 100]),\r\n",
      "   midi.NoteOnEvent(tick=192, channel=6, data=[59, 0]),\r\n",
      "   midi.NoteOnEvent(tick=0, channel=6, data=[57, 100]),\r\n",
      "   midi.NoteOnEvent(tick=192, channel=6, data=[57, 0]),\r\n",
      "   midi.NoteOnEvent(tick=0, channel=6, data=[59, 100]),\r\n",
      "   midi.NoteOnEvent(tick=192, channel=6, data=[59, 0]),\r\n",
      "   midi.NoteOnEvent(tick=0, channel=6, data=[47, 100]),\r\n",
      "   midi.NoteOnEvent(tick=192, channel=6, data=[47, 0]),\r\n",
      "   midi.NoteOnEvent(tick=0, channel=6, data=[57, 100]),\r\n",
      "   midi.NoteOnEvent(tick=192, channel=6, data=[57, 0]),\r\n",
      "   midi.NoteOnEvent(tick=0, channel=6, data=[59, 100]),\r\n",
      "   midi.NoteOnEvent(tick=192, channel=6, data=[59, 0]),\r\n",
      "   midi.NoteOnEvent(tick=0, channel=6, data=[57, 100]),\r\n",
      "   midi.NoteOnEvent(tick=192, channel=6, data=[57, 0]),\r\n",
      "   midi.NoteOnEvent(tick=0, channel=6, data=[55, 100]),\r\n",
      "   midi.NoteOnEvent(tick=192, channel=6, data=[55, 0]),\r\n",
      "   midi.NoteOnEvent(tick=0, channel=6, data=[54, 100]),\r\n",
      "   midi.NoteOnEvent(tick=192, channel=6, data=[54, 0]),\r\n",
      "   midi.NoteOnEvent(tick=0, channel=6, data=[55, 100]),\r\n",
      "   midi.NoteOnEvent(tick=192, channel=6, data=[55, 0]),\r\n",
      "   midi.NoteOnEvent(tick=0, channel=6, data=[54, 100]),\r\n",
      "   midi.NoteOnEvent(tick=192, channel=6, data=[54, 0]),\r\n",
      "   midi.NoteOnEvent(tick=0, channel=6, data=[52, 100]),\r\n",
      "   midi.NoteOnEvent(tick=192, channel=6, data=[52, 0]),\r\n",
      "   midi.NoteOnEvent(tick=0, channel=6, data=[51, 100]),\r\n",
      "   midi.NoteOnEvent(tick=192, channel=6, data=[51, 0]),\r\n",
      "   midi.NoteOnEvent(tick=0, channel=6, data=[52, 100]),\r\n",
      "   midi.NoteOnEvent(tick=192, channel=6, data=[52, 0]),\r\n",
      "   midi.NoteOnEvent(tick=0, channel=6, data=[54, 100]),\r\n",
      "   midi.NoteOnEvent(tick=192, channel=6, data=[54, 0]),\r\n",
      "   midi.NoteOnEvent(tick=0, channel=6, data=[55, 100]),\r\n",
      "   midi.NoteOnEvent(tick=192, channel=6, data=[55, 0]),\r\n",
      "   midi.NoteOnEvent(tick=0, channel=6, data=[57, 100]),\r\n",
      "   midi.NoteOnEvent(tick=192, channel=6, data=[57, 0]),\r\n",
      "   midi.NoteOnEvent(tick=0, channel=6, data=[59, 100]),\r\n",
      "   midi.NoteOnEvent(tick=192, channel=6, data=[59, 0]),\r\n",
      "   midi.NoteOnEvent(tick=0, channel=6, data=[60, 100]),\r\n",
      "   midi.NoteOnEvent(tick=192, channel=6, data=[60, 0]),\r\n",
      "   midi.NoteOnEvent(tick=0, channel=6, data=[54, 100]),\r\n",
      "   midi.NoteOnEvent(tick=192, channel=6, data=[54, 0]),\r\n",
      "   midi.NoteOnEvent(tick=0, channel=6, data=[59, 100]),\r\n",
      "   midi.NoteOnEvent(tick=192, channel=6, data=[59, 0]),\r\n",
      "   midi.NoteOnEvent(tick=0, channel=6, data=[57, 100]),\r\n",
      "   midi.NoteOnEvent(tick=96, channel=6, data=[57, 0]),\r\n",
      "   midi.NoteOnEvent(tick=0, channel=6, data=[55, 100]),\r\n",
      "   midi.NoteOnEvent(tick=96, channel=6, data=[55, 0]),\r\n",
      "   midi.NoteOnEvent(tick=0, channel=6, data=[54, 100]),\r\n",
      "   midi.NoteOnEvent(tick=192, channel=6, data=[54, 0]),\r\n",
      "   midi.NoteOnEvent(tick=0, channel=6, data=[52, 100]),\r\n",
      "   midi.NoteOnEvent(tick=192, channel=6, data=[52, 0]),\r\n",
      "   midi.NoteOnEvent(tick=0, channel=6, data=[51, 100]),\r\n",
      "   midi.NoteOnEvent(tick=192, channel=6, data=[51, 0]),\r\n",
      "   midi.NoteOnEvent(tick=0, channel=6, data=[49, 100]),\r\n",
      "   midi.NoteOnEvent(tick=192, channel=6, data=[49, 0]),\r\n",
      "   midi.NoteOnEvent(tick=0, channel=6, data=[47, 100]),\r\n",
      "   midi.NoteOnEvent(tick=192, channel=6, data=[47, 0]),\r\n",
      "   midi.NoteOnEvent(tick=0, channel=6, data=[45, 100]),\r\n",
      "   midi.NoteOnEvent(tick=192, channel=6, data=[45, 0]),\r\n",
      "   midi.NoteOnEvent(tick=0, channel=6, data=[43, 100]),\r\n",
      "   midi.NoteOnEvent(tick=192, channel=6, data=[43, 0]),\r\n",
      "   midi.NoteOnEvent(tick=0, channel=6, data=[48, 100]),\r\n",
      "   midi.NoteOnEvent(tick=192, channel=6, data=[48, 0]),\r\n",
      "   midi.NoteOnEvent(tick=0, channel=6, data=[45, 100]),\r\n",
      "   midi.NoteOnEvent(tick=192, channel=6, data=[45, 0]),\r\n",
      "   midi.NoteOnEvent(tick=0, channel=6, data=[47, 100]),\r\n",
      "   midi.NoteOnEvent(tick=192, channel=6, data=[47, 0]),\r\n",
      "   midi.NoteOnEvent(tick=0, channel=6, data=[36, 100]),\r\n",
      "   midi.NoteOnEvent(tick=384, channel=6, data=[36, 0]),\r\n",
      "   midi.NoteOnEvent(tick=192, channel=6, data=[60, 100]),\r\n",
      "   midi.NoteOnEvent(tick=192, channel=6, data=[60, 0]),\r\n",
      "   midi.NoteOnEvent(tick=0, channel=6, data=[51, 100]),\r\n",
      "   midi.NoteOnEvent(tick=192, channel=6, data=[51, 0]),\r\n",
      "   midi.NoteOnEvent(tick=0, channel=6, data=[51, 100]),\r\n",
      "   midi.NoteOnEvent(tick=192, channel=6, data=[51, 0]),\r\n",
      "   midi.NoteOnEvent(tick=0, channel=6, data=[51, 100]),\r\n",
      "   midi.NoteOnEvent(tick=192, channel=6, data=[51, 0]),\r\n",
      "   midi.NoteOnEvent(tick=0, channel=6, data=[54, 100]),\r\n",
      "   midi.NoteOnEvent(tick=192, channel=6, data=[54, 0]),\r\n",
      "   midi.NoteOnEvent(tick=0, channel=6, data=[45, 100]),\r\n",
      "   midi.NoteOnEvent(tick=192, channel=6, data=[45, 0]),\r\n",
      "   midi.NoteOnEvent(tick=0, channel=6, data=[45, 100]),\r\n",
      "   midi.NoteOnEvent(tick=192, channel=6, data=[45, 0]),\r\n",
      "   midi.NoteOnEvent(tick=0, channel=6, data=[45, 100]),\r\n",
      "   midi.NoteOnEvent(tick=192, channel=6, data=[45, 0]),\r\n",
      "   midi.NoteOnEvent(tick=0, channel=6, data=[48, 100]),\r\n",
      "   midi.NoteOnEvent(tick=192, channel=6, data=[48, 0]),\r\n",
      "   midi.NoteOnEvent(tick=0, channel=6, data=[42, 100]),\r\n",
      "   midi.NoteOnEvent(tick=192, channel=6, data=[42, 0]),\r\n",
      "   midi.NoteOnEvent(tick=0, channel=6, data=[43, 100]),\r\n",
      "   midi.NoteOnEvent(tick=96, channel=6, data=[43, 0]),\r\n",
      "   midi.NoteOnEvent(tick=0, channel=6, data=[45, 100]),\r\n",
      "   midi.NoteOnEvent(tick=96, channel=6, data=[45, 0]),\r\n",
      "   midi.NoteOnEvent(tick=0, channel=6, data=[47, 100]),\r\n",
      "   midi.NoteOnEvent(tick=192, channel=6, data=[47, 0]),\r\n",
      "   midi.NoteOnEvent(tick=0, channel=6, data=[47, 100]),\r\n",
      "   midi.NoteOnEvent(tick=192, channel=6, data=[47, 0]),\r\n",
      "   midi.NoteOnEvent(tick=0, channel=6, data=[40, 100]),\r\n",
      "   midi.NoteOnEvent(tick=192, channel=6, data=[40, 0]),\r\n",
      "   midi.NoteOnEvent(tick=0, channel=6, data=[52, 100]),\r\n",
      "   midi.NoteOnEvent(tick=96, channel=6, data=[52, 0]),\r\n",
      "   midi.NoteOnEvent(tick=0, channel=6, data=[51, 100]),\r\n",
      "   midi.NoteOnEvent(tick=96, channel=6, data=[51, 0]),\r\n",
      "   midi.NoteOnEvent(tick=0, channel=6, data=[52, 100]),\r\n",
      "   midi.NoteOnEvent(tick=192, channel=6, data=[52, 0]),\r\n",
      "   midi.NoteOnEvent(tick=0, channel=6, data=[54, 100]),\r\n",
      "   midi.NoteOnEvent(tick=192, channel=6, data=[54, 0]),\r\n",
      "   midi.NoteOnEvent(tick=0, channel=6, data=[55, 100]),\r\n",
      "   midi.NoteOnEvent(tick=384, channel=6, data=[55, 0]),\r\n",
      "   midi.NoteOnEvent(tick=192, channel=6, data=[52, 100]),\r\n",
      "   midi.NoteOnEvent(tick=192, channel=6, data=[52, 0]),\r\n",
      "   midi.NoteOnEvent(tick=0, channel=6, data=[59, 100]),\r\n",
      "   midi.NoteOnEvent(tick=384, channel=6, data=[59, 0]),\r\n",
      "   midi.NoteOnEvent(tick=192, channel=6, data=[47, 100]),\r\n",
      "   midi.NoteOnEvent(tick=192, channel=6, data=[47, 0]),\r\n",
      "   midi.NoteOnEvent(tick=0, channel=6, data=[39, 100]),\r\n",
      "   midi.NoteOnEvent(tick=384, channel=6, data=[39, 0]),\r\n",
      "   midi.NoteOnEvent(tick=192, channel=6, data=[47, 100]),\r\n",
      "   midi.NoteOnEvent(tick=192, channel=6, data=[47, 0]),\r\n",
      "   midi.NoteOnEvent(tick=0, channel=6, data=[52, 100]),\r\n",
      "   midi.NoteOnEvent(tick=384, channel=6, data=[52, 0]),\r\n",
      "   midi.NoteOnEvent(tick=1344, channel=6, data=[52, 100]),\r\n",
      "   midi.NoteOnEvent(tick=192, channel=6, data=[52, 0]),\r\n",
      "   midi.NoteOnEvent(tick=0, channel=6, data=[40, 100]),\r\n",
      "   midi.NoteOnEvent(tick=192, channel=6, data=[40, 0]),\r\n",
      "   midi.NoteOnEvent(tick=0, channel=6, data=[52, 100]),\r\n",
      "   midi.NoteOnEvent(tick=192, channel=6, data=[52, 0]),\r\n",
      "   midi.NoteOnEvent(tick=0, channel=6, data=[45, 100]),\r\n",
      "   midi.NoteOnEvent(tick=384, channel=6, data=[45, 0]),\r\n",
      "   midi.NoteOnEvent(tick=576, channel=6, data=[57, 100]),\r\n",
      "   midi.NoteOnEvent(tick=192, channel=6, data=[57, 0]),\r\n",
      "   midi.NoteOnEvent(tick=0, channel=6, data=[45, 100]),\r\n",
      "   midi.NoteOnEvent(tick=192, channel=6, data=[45, 0]),\r\n",
      "   midi.NoteOnEvent(tick=0, channel=6, data=[57, 100]),\r\n",
      "   midi.NoteOnEvent(tick=192, channel=6, data=[57, 0]),\r\n",
      "   midi.NoteOnEvent(tick=0, channel=6, data=[50, 100]),\r\n",
      "   midi.NoteOnEvent(tick=384, channel=6, data=[50, 0]),\r\n",
      "   midi.NoteOnEvent(tick=576, channel=6, data=[50, 100]),\r\n",
      "   midi.NoteOnEvent(tick=192, channel=6, data=[50, 0]),\r\n",
      "   midi.NoteOnEvent(tick=0, channel=6, data=[38, 100]),\r\n",
      "   midi.NoteOnEvent(tick=192, channel=6, data=[38, 0]),\r\n",
      "   midi.NoteOnEvent(tick=0, channel=6, data=[50, 100]),\r\n",
      "   midi.NoteOnEvent(tick=192, channel=6, data=[50, 0]),\r\n",
      "   midi.NoteOnEvent(tick=0, channel=6, data=[43, 100]),\r\n",
      "   midi.NoteOnEvent(tick=384, channel=6, data=[43, 0]),\r\n",
      "   midi.NoteOnEvent(tick=576, channel=6, data=[55, 100]),\r\n",
      "   midi.NoteOnEvent(tick=192, channel=6, data=[55, 0]),\r\n",
      "   midi.NoteOnEvent(tick=0, channel=6, data=[43, 100]),\r\n",
      "   midi.NoteOnEvent(tick=192, channel=6, data=[43, 0]),\r\n",
      "   midi.NoteOnEvent(tick=0, channel=6, data=[55, 100]),\r\n",
      "   midi.NoteOnEvent(tick=192, channel=6, data=[55, 0]),\r\n",
      "   midi.NoteOnEvent(tick=0, channel=6, data=[48, 100]),\r\n",
      "   midi.NoteOnEvent(tick=384, channel=6, data=[48, 0]),\r\n",
      "   midi.NoteOnEvent(tick=0, channel=6, data=[58, 100]),\r\n",
      "   midi.NoteOnEvent(tick=384, channel=6, data=[58, 0]),\r\n",
      "   midi.NoteOnEvent(tick=0, channel=6, data=[57, 100]),\r\n",
      "   midi.NoteOnEvent(tick=384, channel=6, data=[57, 0]),\r\n",
      "   midi.NoteOnEvent(tick=0, channel=6, data=[55, 100]),\r\n",
      "   midi.NoteOnEvent(tick=384, channel=6, data=[55, 0]),\r\n",
      "   midi.NoteOnEvent(tick=0, channel=6, data=[53, 100]),\r\n",
      "   midi.NoteOnEvent(tick=192, channel=6, data=[53, 0]),\r\n",
      "   midi.NoteOnEvent(tick=0, channel=6, data=[52, 100]),\r\n",
      "   midi.NoteOnEvent(tick=192, channel=6, data=[52, 0]),\r\n",
      "   midi.NoteOnEvent(tick=0, channel=6, data=[50, 100]),\r\n",
      "   midi.NoteOnEvent(tick=192, channel=6, data=[50, 0]),\r\n",
      "   midi.NoteOnEvent(tick=0, channel=6, data=[53, 100]),\r\n",
      "   midi.NoteOnEvent(tick=192, channel=6, data=[53, 0]),\r\n",
      "   midi.NoteOnEvent(tick=0, channel=6, data=[55, 100]),\r\n",
      "   midi.NoteOnEvent(tick=192, channel=6, data=[55, 0]),\r\n",
      "   midi.NoteOnEvent(tick=0, channel=6, data=[53, 100]),\r\n",
      "   midi.NoteOnEvent(tick=192, channel=6, data=[53, 0]),\r\n",
      "   midi.NoteOnEvent(tick=0, channel=6, data=[52, 100]),\r\n",
      "   midi.NoteOnEvent(tick=192, channel=6, data=[52, 0]),\r\n",
      "   midi.NoteOnEvent(tick=0, channel=6, data=[55, 100]),\r\n",
      "   midi.NoteOnEvent(tick=192, channel=6, data=[55, 0]),\r\n",
      "   midi.NoteOnEvent(tick=0, channel=6, data=[57, 100]),\r\n",
      "   midi.NoteOnEvent(tick=192, channel=6, data=[57, 0]),\r\n",
      "   midi.NoteOnEvent(tick=0, channel=6, data=[59, 100]),\r\n",
      "   midi.NoteOnEvent(tick=192, channel=6, data=[59, 0]),\r\n",
      "   midi.NoteOnEvent(tick=0, channel=6, data=[61, 100]),\r\n",
      "   midi.NoteOnEvent(tick=192, channel=6, data=[61, 0]),\r\n",
      "   midi.NoteOnEvent(tick=0, channel=6, data=[57, 100]),\r\n",
      "   midi.NoteOnEvent(tick=192, channel=6, data=[57, 0]),\r\n",
      "   midi.NoteOnEvent(tick=0, channel=6, data=[53, 100]),\r\n",
      "   midi.NoteOnEvent(tick=192, channel=6, data=[53, 0]),\r\n",
      "   midi.NoteOnEvent(tick=0, channel=6, data=[57, 100]),\r\n",
      "   midi.NoteOnEvent(tick=192, channel=6, data=[57, 0]),\r\n",
      "   midi.NoteOnEvent(tick=0, channel=6, data=[53, 100]),\r\n",
      "   midi.NoteOnEvent(tick=192, channel=6, data=[53, 0]),\r\n",
      "   midi.NoteOnEvent(tick=0, channel=6, data=[50, 100]),\r\n",
      "   midi.NoteOnEvent(tick=192, channel=6, data=[50, 0]),\r\n",
      "   midi.NoteOnEvent(tick=0, channel=6, data=[55, 100]),\r\n",
      "   midi.NoteOnEvent(tick=192, channel=6, data=[55, 0]),\r\n",
      "   midi.NoteOnEvent(tick=0, channel=6, data=[58, 100]),\r\n",
      "   midi.NoteOnEvent(tick=192, channel=6, data=[58, 0]),\r\n",
      "   midi.NoteOnEvent(tick=0, channel=6, data=[55, 100]),\r\n",
      "   midi.NoteOnEvent(tick=192, channel=6, data=[55, 0]),\r\n",
      "   midi.NoteOnEvent(tick=0, channel=6, data=[50, 100]),\r\n",
      "   midi.NoteOnEvent(tick=192, channel=6, data=[50, 0]),\r\n",
      "   midi.NoteOnEvent(tick=0, channel=6, data=[62, 100]),\r\n",
      "   midi.NoteOnEvent(tick=192, channel=6, data=[62, 0]),\r\n",
      "   midi.NoteOnEvent(tick=0, channel=6, data=[50, 100]),\r\n",
      "   midi.NoteOnEvent(tick=192, channel=6, data=[50, 0]),\r\n",
      "   midi.NoteOnEvent(tick=0, channel=6, data=[57, 100]),\r\n",
      "   midi.NoteOnEvent(tick=192, channel=6, data=[57, 0]),\r\n",
      "   midi.NoteOnEvent(tick=0, channel=6, data=[45, 100]),\r\n",
      "   midi.NoteOnEvent(tick=192, channel=6, data=[45, 0]),\r\n",
      "   midi.NoteOnEvent(tick=0, channel=6, data=[50, 100]),\r\n",
      "   midi.NoteOnEvent(tick=192, channel=6, data=[50, 0]),\r\n",
      "   midi.NoteOnEvent(tick=0, channel=6, data=[38, 100]),\r\n",
      "   midi.NoteOnEvent(tick=192, channel=6, data=[38, 0]),\r\n",
      "   midi.NoteOnEvent(tick=2112, channel=6, data=[55, 100]),\r\n",
      "   midi.NoteOnEvent(tick=96, channel=6, data=[55, 0]),\r\n",
      "   midi.NoteOnEvent(tick=0, channel=6, data=[57, 100]),\r\n",
      "   midi.NoteOnEvent(tick=96, channel=6, data=[57, 0]),\r\n",
      "   midi.NoteOnEvent(tick=0, channel=6, data=[55, 100]),\r\n",
      "   midi.NoteOnEvent(tick=96, channel=6, data=[55, 0]),\r\n",
      "   midi.NoteOnEvent(tick=0, channel=6, data=[53, 100]),\r\n",
      "   midi.NoteOnEvent(tick=96, channel=6, data=[53, 0]),\r\n",
      "   midi.NoteOnEvent(tick=0, channel=6, data=[52, 100]),\r\n",
      "   midi.NoteOnEvent(tick=96, channel=6, data=[52, 0]),\r\n",
      "   midi.NoteOnEvent(tick=0, channel=6, data=[50, 100]),\r\n",
      "   midi.NoteOnEvent(tick=96, channel=6, data=[50, 0]),\r\n",
      "   midi.NoteOnEvent(tick=0, channel=6, data=[48, 100]),\r\n",
      "   midi.NoteOnEvent(tick=192, channel=6, data=[48, 0]),\r\n",
      "   midi.NoteOnEvent(tick=0, channel=6, data=[60, 100]),\r\n",
      "   midi.NoteOnEvent(tick=192, channel=6, data=[60, 0]),\r\n",
      "   midi.NoteOnEvent(tick=1344, channel=6, data=[53, 100]),\r\n",
      "   midi.NoteOnEvent(tick=96, channel=6, data=[53, 0]),\r\n",
      "   midi.NoteOnEvent(tick=0, channel=6, data=[55, 100]),\r\n",
      "   midi.NoteOnEvent(tick=96, channel=6, data=[55, 0]),\r\n",
      "   midi.NoteOnEvent(tick=0, channel=6, data=[53, 100]),\r\n",
      "   midi.NoteOnEvent(tick=96, channel=6, data=[53, 0]),\r\n",
      "   midi.NoteOnEvent(tick=0, channel=6, data=[52, 100]),\r\n",
      "   midi.NoteOnEvent(tick=96, channel=6, data=[52, 0]),\r\n",
      "   midi.NoteOnEvent(tick=0, channel=6, data=[50, 100]),\r\n",
      "   midi.NoteOnEvent(tick=96, channel=6, data=[50, 0]),\r\n",
      "   midi.NoteOnEvent(tick=0, channel=6, data=[48, 100]),\r\n",
      "   midi.NoteOnEvent(tick=96, channel=6, data=[48, 0]),\r\n",
      "   midi.NoteOnEvent(tick=0, channel=6, data=[46, 100]),\r\n",
      "   midi.NoteOnEvent(tick=192, channel=6, data=[46, 0]),\r\n",
      "   midi.NoteOnEvent(tick=0, channel=6, data=[58, 100]),\r\n",
      "   midi.NoteOnEvent(tick=192, channel=6, data=[58, 0]),\r\n",
      "   midi.NoteOnEvent(tick=1344, channel=6, data=[52, 100]),\r\n",
      "   midi.NoteOnEvent(tick=96, channel=6, data=[52, 0]),\r\n",
      "   midi.NoteOnEvent(tick=0, channel=6, data=[53, 100]),\r\n",
      "   midi.NoteOnEvent(tick=96, channel=6, data=[53, 0]),\r\n",
      "   midi.NoteOnEvent(tick=0, channel=6, data=[52, 100]),\r\n",
      "   midi.NoteOnEvent(tick=96, channel=6, data=[52, 0]),\r\n",
      "   midi.NoteOnEvent(tick=0, channel=6, data=[50, 100]),\r\n",
      "   midi.NoteOnEvent(tick=96, channel=6, data=[50, 0]),\r\n",
      "   midi.NoteOnEvent(tick=0, channel=6, data=[49, 100]),\r\n",
      "   midi.NoteOnEvent(tick=96, channel=6, data=[49, 0]),\r\n",
      "   midi.NoteOnEvent(tick=0, channel=6, data=[47, 100]),\r\n",
      "   midi.NoteOnEvent(tick=96, channel=6, data=[47, 0]),\r\n",
      "   midi.NoteOnEvent(tick=0, channel=6, data=[45, 100]),\r\n",
      "   midi.NoteOnEvent(tick=192, channel=6, data=[45, 0]),\r\n",
      "   midi.NoteOnEvent(tick=0, channel=6, data=[57, 100]),\r\n",
      "   midi.NoteOnEvent(tick=192, channel=6, data=[57, 0]),\r\n",
      "   midi.NoteOnEvent(tick=1344, channel=6, data=[50, 100]),\r\n",
      "   midi.NoteOnEvent(tick=192, channel=6, data=[50, 0]),\r\n",
      "   midi.NoteOnEvent(tick=0, channel=6, data=[62, 100]),\r\n",
      "   midi.NoteOnEvent(tick=192, channel=6, data=[62, 0]),\r\n",
      "   midi.NoteOnEvent(tick=0, channel=6, data=[53, 100]),\r\n",
      "   midi.NoteOnEvent(tick=192, channel=6, data=[53, 0]),\r\n",
      "   midi.NoteOnEvent(tick=0, channel=6, data=[55, 100]),\r\n",
      "   midi.NoteOnEvent(tick=192, channel=6, data=[55, 0]),\r\n",
      "   midi.NoteOnEvent(tick=0, channel=6, data=[57, 100]),\r\n",
      "   midi.NoteOnEvent(tick=192, channel=6, data=[57, 0]),\r\n",
      "   midi.NoteOnEvent(tick=0, channel=6, data=[59, 100]),\r\n",
      "   midi.NoteOnEvent(tick=192, channel=6, data=[59, 0]),\r\n",
      "   midi.NoteOnEvent(tick=0, channel=6, data=[55, 100]),\r\n",
      "   midi.NoteOnEvent(tick=192, channel=6, data=[55, 0]),\r\n",
      "   midi.NoteOnEvent(tick=0, channel=6, data=[60, 100]),\r\n",
      "   midi.NoteOnEvent(tick=192, channel=6, data=[60, 0]),\r\n",
      "   midi.NoteOnEvent(tick=0, channel=6, data=[48, 100]),\r\n",
      "   midi.NoteOnEvent(tick=192, channel=6, data=[48, 0]),\r\n",
      "   midi.NoteOnEvent(tick=0, channel=6, data=[60, 100]),\r\n",
      "   midi.NoteOnEvent(tick=192, channel=6, data=[60, 0]),\r\n",
      "   midi.NoteOnEvent(tick=0, channel=6, data=[52, 100]),\r\n",
      "   midi.NoteOnEvent(tick=192, channel=6, data=[52, 0]),\r\n",
      "   midi.NoteOnEvent(tick=0, channel=6, data=[53, 100]),\r\n",
      "   midi.NoteOnEvent(tick=192, channel=6, data=[53, 0]),\r\n",
      "   midi.NoteOnEvent(tick=0, channel=6, data=[55, 100]),\r\n",
      "   midi.NoteOnEvent(tick=192, channel=6, data=[55, 0]),\r\n",
      "   midi.NoteOnEvent(tick=0, channel=6, data=[57, 100]),\r\n",
      "   midi.NoteOnEvent(tick=192, channel=6, data=[57, 0]),\r\n",
      "   midi.NoteOnEvent(tick=0, channel=6, data=[53, 100]),\r\n",
      "   midi.NoteOnEvent(tick=192, channel=6, data=[53, 0]),\r\n",
      "   midi.NoteOnEvent(tick=0, channel=6, data=[59, 100]),\r\n",
      "   midi.NoteOnEvent(tick=192, channel=6, data=[59, 0]),\r\n",
      "   midi.NoteOnEvent(tick=0, channel=6, data=[47, 100]),\r\n",
      "   midi.NoteOnEvent(tick=192, channel=6, data=[47, 0]),\r\n",
      "   midi.NoteOnEvent(tick=0, channel=6, data=[59, 100]),\r\n",
      "   midi.NoteOnEvent(tick=192, channel=6, data=[59, 0]),\r\n",
      "   midi.NoteOnEvent(tick=0, channel=6, data=[56, 100]),\r\n",
      "   midi.NoteOnEvent(tick=192, channel=6, data=[56, 0]),\r\n",
      "   midi.NoteOnEvent(tick=0, channel=6, data=[52, 100]),\r\n",
      "   midi.NoteOnEvent(tick=192, channel=6, data=[52, 0]),\r\n",
      "   midi.NoteOnEvent(tick=0, channel=6, data=[40, 100]),\r\n",
      "   midi.NoteOnEvent(tick=192, channel=6, data=[40, 0]),\r\n",
      "   midi.NoteOnEvent(tick=576, channel=6, data=[45, 100]),\r\n",
      "   midi.NoteOnEvent(tick=192, channel=6, data=[45, 0]),\r\n",
      "   midi.NoteOnEvent(tick=0, channel=6, data=[57, 100]),\r\n",
      "   midi.NoteOnEvent(tick=384, channel=6, data=[57, 0]),\r\n",
      "   midi.NoteOnEvent(tick=192, channel=6, data=[45, 100]),\r\n",
      "   midi.NoteOnEvent(tick=192, channel=6, data=[45, 0]),\r\n",
      "   midi.NoteOnEvent(tick=0, channel=6, data=[57, 100]),\r\n",
      "   midi.NoteOnEvent(tick=384, channel=6, data=[57, 0]),\r\n",
      "   midi.NoteOnEvent(tick=192, channel=6, data=[45, 100]),\r\n",
      "   midi.NoteOnEvent(tick=192, channel=6, data=[45, 0]),\r\n",
      "   midi.NoteOnEvent(tick=0, channel=6, data=[52, 100]),\r\n",
      "   midi.NoteOnEvent(tick=192, channel=6, data=[52, 0]),\r\n",
      "   midi.NoteOnEvent(tick=0, channel=6, data=[40, 100]),\r\n",
      "   midi.NoteOnEvent(tick=192, channel=6, data=[40, 0]),\r\n",
      "   midi.NoteOnEvent(tick=0, channel=6, data=[57, 100]),\r\n",
      "   midi.NoteOnEvent(tick=192, channel=6, data=[57, 0]),\r\n",
      "   midi.NoteOnEvent(tick=0, channel=6, data=[45, 100]),\r\n",
      "   midi.NoteOnEvent(tick=192, channel=6, data=[45, 0]),\r\n",
      "   midi.NoteOnEvent(tick=0, channel=6, data=[48, 100]),\r\n",
      "   midi.NoteOnEvent(tick=192, channel=6, data=[48, 0]),\r\n",
      "   midi.NoteOnEvent(tick=0, channel=6, data=[52, 100]),\r\n",
      "   midi.NoteOnEvent(tick=192, channel=6, data=[52, 0]),\r\n",
      "   midi.NoteOnEvent(tick=0, channel=6, data=[57, 100]),\r\n",
      "   midi.NoteOnEvent(tick=384, channel=6, data=[57, 0]),\r\n",
      "   midi.NoteOnEvent(tick=0, channel=6, data=[55, 100]),\r\n",
      "   midi.NoteOnEvent(tick=384, channel=6, data=[55, 0]),\r\n",
      "   midi.NoteOnEvent(tick=0, channel=6, data=[53, 100]),\r\n",
      "   midi.NoteOnEvent(tick=384, channel=6, data=[53, 0]),\r\n",
      "   midi.NoteOnEvent(tick=0, channel=6, data=[52, 100]),\r\n",
      "   midi.NoteOnEvent(tick=384, channel=6, data=[52, 0]),\r\n",
      "   midi.NoteOnEvent(tick=0, channel=6, data=[50, 100]),\r\n",
      "   midi.NoteOnEvent(tick=384, channel=6, data=[50, 0]),\r\n",
      "   midi.NoteOnEvent(tick=0, channel=6, data=[48, 100]),\r\n",
      "   midi.NoteOnEvent(tick=384, channel=6, data=[48, 0]),\r\n",
      "   midi.NoteOnEvent(tick=0, channel=6, data=[46, 100]),\r\n",
      "   midi.NoteOnEvent(tick=384, channel=6, data=[46, 0]),\r\n",
      "   midi.NoteOnEvent(tick=0, channel=6, data=[45, 100]),\r\n",
      "   midi.NoteOnEvent(tick=384, channel=6, data=[45, 0]),\r\n",
      "   midi.NoteOnEvent(tick=0, channel=6, data=[43, 100]),\r\n",
      "   midi.NoteOnEvent(tick=384, channel=6, data=[43, 0]),\r\n",
      "   midi.NoteOnEvent(tick=0, channel=6, data=[41, 100]),\r\n",
      "   midi.NoteOnEvent(tick=384, channel=6, data=[41, 0]),\r\n",
      "   midi.NoteOnEvent(tick=0, channel=6, data=[39, 100]),\r\n",
      "   midi.NoteOnEvent(tick=384, channel=6, data=[39, 0]),\r\n",
      "   midi.NoteOnEvent(tick=0, channel=6, data=[38, 100]),\r\n",
      "   midi.NoteOnEvent(tick=384, channel=6, data=[38, 0]),\r\n",
      "   midi.NoteOnEvent(tick=0, channel=6, data=[36, 100]),\r\n",
      "   midi.NoteOnEvent(tick=192, channel=6, data=[36, 0]),\r\n",
      "   midi.NoteOnEvent(tick=0, channel=6, data=[36, 100]),\r\n",
      "   midi.NoteOnEvent(tick=192, channel=6, data=[36, 0]),\r\n",
      "   midi.NoteOnEvent(tick=0, channel=6, data=[36, 100]),\r\n",
      "   midi.NoteOnEvent(tick=192, channel=6, data=[36, 0]),\r\n",
      "   midi.NoteOnEvent(tick=0, channel=6, data=[36, 100]),\r\n",
      "   midi.NoteOnEvent(tick=192, channel=6, data=[36, 0]),\r\n",
      "   midi.NoteOnEvent(tick=0, channel=6, data=[36, 100]),\r\n",
      "   midi.NoteOnEvent(tick=192, channel=6, data=[36, 0]),\r\n",
      "   midi.NoteOnEvent(tick=0, channel=6, data=[36, 100]),\r\n",
      "   midi.NoteOnEvent(tick=192, channel=6, data=[36, 0]),\r\n",
      "   midi.NoteOnEvent(tick=0, channel=6, data=[36, 100]),\r\n",
      "   midi.NoteOnEvent(tick=192, channel=6, data=[36, 0]),\r\n",
      "   midi.NoteOnEvent(tick=0, channel=6, data=[36, 100]),\r\n",
      "   midi.NoteOnEvent(tick=192, channel=6, data=[36, 0]),\r\n",
      "   midi.NoteOnEvent(tick=0, channel=6, data=[36, 100]),\r\n",
      "   midi.NoteOnEvent(tick=192, channel=6, data=[36, 0]),\r\n",
      "   midi.NoteOnEvent(tick=0, channel=6, data=[36, 100]),\r\n",
      "   midi.NoteOnEvent(tick=192, channel=6, data=[36, 0]),\r\n",
      "   midi.NoteOnEvent(tick=0, channel=6, data=[48, 100]),\r\n",
      "   midi.NoteOnEvent(tick=192, channel=6, data=[48, 0]),\r\n",
      "   midi.NoteOnEvent(tick=0, channel=6, data=[48, 100]),\r\n",
      "   midi.NoteOnEvent(tick=192, channel=6, data=[48, 0]),\r\n",
      "   midi.NoteOnEvent(tick=0, channel=6, data=[46, 100]),\r\n",
      "   midi.NoteOnEvent(tick=192, channel=6, data=[46, 0]),\r\n",
      "   midi.NoteOnEvent(tick=0, channel=6, data=[62, 100]),\r\n",
      "   midi.NoteOnEvent(tick=192, channel=6, data=[62, 0]),\r\n",
      "   midi.NoteOnEvent(tick=0, channel=6, data=[58, 100]),\r\n",
      "   midi.NoteOnEvent(tick=192, channel=6, data=[58, 0]),\r\n",
      "   midi.NoteOnEvent(tick=0, channel=6, data=[55, 100]),\r\n",
      "   midi.NoteOnEvent(tick=192, channel=6, data=[55, 0]),\r\n",
      "   midi.NoteOnEvent(tick=0, channel=6, data=[43, 100]),\r\n",
      "   midi.NoteOnEvent(tick=192, channel=6, data=[43, 0]),\r\n",
      "   midi.NoteOnEvent(tick=0, channel=6, data=[43, 100]),\r\n",
      "   midi.NoteOnEvent(tick=192, channel=6, data=[43, 0]),\r\n",
      "   midi.NoteOnEvent(tick=0, channel=6, data=[43, 100]),\r\n",
      "   midi.NoteOnEvent(tick=192, channel=6, data=[43, 0]),\r\n",
      "   midi.NoteOnEvent(tick=0, channel=6, data=[43, 100]),\r\n",
      "   midi.NoteOnEvent(tick=192, channel=6, data=[43, 0]),\r\n",
      "   midi.NoteOnEvent(tick=0, channel=6, data=[41, 100]),\r\n",
      "   midi.NoteOnEvent(tick=192, channel=6, data=[41, 0]),\r\n",
      "   midi.NoteOnEvent(tick=0, channel=6, data=[57, 100]),\r\n",
      "   midi.NoteOnEvent(tick=192, channel=6, data=[57, 0]),\r\n",
      "   midi.NoteOnEvent(tick=0, channel=6, data=[53, 100]),\r\n",
      "   midi.NoteOnEvent(tick=192, channel=6, data=[53, 0]),\r\n",
      "   midi.NoteOnEvent(tick=0, channel=6, data=[50, 100]),\r\n",
      "   midi.NoteOnEvent(tick=192, channel=6, data=[50, 0]),\r\n",
      "   midi.NoteOnEvent(tick=0, channel=6, data=[38, 100]),\r\n",
      "   midi.NoteOnEvent(tick=192, channel=6, data=[38, 0]),\r\n",
      "   midi.NoteOnEvent(tick=0, channel=6, data=[38, 100]),\r\n",
      "   midi.NoteOnEvent(tick=192, channel=6, data=[38, 0]),\r\n",
      "   midi.NoteOnEvent(tick=0, channel=6, data=[38, 100]),\r\n",
      "   midi.NoteOnEvent(tick=192, channel=6, data=[38, 0]),\r\n",
      "   midi.NoteOnEvent(tick=0, channel=6, data=[38, 100]),\r\n",
      "   midi.NoteOnEvent(tick=192, channel=6, data=[38, 0]),\r\n",
      "   midi.NoteOnEvent(tick=0, channel=6, data=[36, 100]),\r\n",
      "   midi.NoteOnEvent(tick=192, channel=6, data=[36, 0]),\r\n",
      "   midi.NoteOnEvent(tick=0, channel=6, data=[50, 100]),\r\n",
      "   midi.NoteOnEvent(tick=192, channel=6, data=[50, 0]),\r\n",
      "   midi.NoteOnEvent(tick=0, channel=6, data=[48, 100]),\r\n",
      "   midi.NoteOnEvent(tick=192, channel=6, data=[48, 0]),\r\n",
      "   midi.NoteOnEvent(tick=0, channel=6, data=[47, 100]),\r\n",
      "   midi.NoteOnEvent(tick=192, channel=6, data=[47, 0]),\r\n",
      "   midi.NoteOnEvent(tick=0, channel=6, data=[45, 100]),\r\n",
      "   midi.NoteOnEvent(tick=192, channel=6, data=[45, 0]),\r\n",
      "   midi.NoteOnEvent(tick=0, channel=6, data=[57, 100]),\r\n",
      "   midi.NoteOnEvent(tick=192, channel=6, data=[57, 0]),\r\n",
      "   midi.NoteOnEvent(tick=0, channel=6, data=[55, 100]),\r\n",
      "   midi.NoteOnEvent(tick=192, channel=6, data=[55, 0]),\r\n",
      "   midi.NoteOnEvent(tick=0, channel=6, data=[53, 100]),\r\n",
      "   midi.NoteOnEvent(tick=192, channel=6, data=[53, 0]),\r\n",
      "   midi.NoteOnEvent(tick=0, channel=6, data=[52, 100]),\r\n",
      "   midi.NoteOnEvent(tick=192, channel=6, data=[52, 0]),\r\n",
      "   midi.NoteOnEvent(tick=0, channel=6, data=[53, 100]),\r\n",
      "   midi.NoteOnEvent(tick=192, channel=6, data=[53, 0]),\r\n",
      "   midi.NoteOnEvent(tick=0, channel=6, data=[52, 100]),\r\n",
      "   midi.NoteOnEvent(tick=192, channel=6, data=[52, 0]),\r\n",
      "   midi.NoteOnEvent(tick=0, channel=6, data=[50, 100]),\r\n",
      "   midi.NoteOnEvent(tick=192, channel=6, data=[50, 0]),\r\n",
      "   midi.NoteOnEvent(tick=0, channel=6, data=[48, 100]),\r\n",
      "   midi.NoteOnEvent(tick=192, channel=6, data=[48, 0]),\r\n",
      "   midi.NoteOnEvent(tick=0, channel=6, data=[52, 100]),\r\n",
      "   midi.NoteOnEvent(tick=192, channel=6, data=[52, 0]),\r\n",
      "   midi.NoteOnEvent(tick=0, channel=6, data=[48, 100]),\r\n",
      "   midi.NoteOnEvent(tick=192, channel=6, data=[48, 0]),\r\n",
      "   midi.NoteOnEvent(tick=0, channel=6, data=[45, 100]),\r\n",
      "   midi.NoteOnEvent(tick=192, channel=6, data=[45, 0]),\r\n",
      "   midi.NoteOnEvent(tick=0, channel=6, data=[50, 100]),\r\n",
      "   midi.NoteOnEvent(tick=192, channel=6, data=[50, 0]),\r\n",
      "   midi.NoteOnEvent(tick=0, channel=6, data=[53, 100]),\r\n",
      "   midi.NoteOnEvent(tick=192, channel=6, data=[53, 0]),\r\n",
      "   midi.NoteOnEvent(tick=0, channel=6, data=[50, 100]),\r\n",
      "   midi.NoteOnEvent(tick=192, channel=6, data=[50, 0]),\r\n",
      "   midi.NoteOnEvent(tick=0, channel=6, data=[47, 100]),\r\n",
      "   midi.NoteOnEvent(tick=192, channel=6, data=[47, 0]),\r\n",
      "   midi.NoteOnEvent(tick=0, channel=6, data=[48, 100]),\r\n",
      "   midi.NoteOnEvent(tick=192, channel=6, data=[48, 0]),\r\n",
      "   midi.NoteOnEvent(tick=0, channel=6, data=[45, 100]),\r\n",
      "   midi.NoteOnEvent(tick=192, channel=6, data=[45, 0]),\r\n",
      "   midi.NoteOnEvent(tick=0, channel=6, data=[52, 100]),\r\n",
      "   midi.NoteOnEvent(tick=192, channel=6, data=[52, 0]),\r\n",
      "   midi.NoteOnEvent(tick=0, channel=6, data=[40, 100]),\r\n",
      "   midi.NoteOnEvent(tick=192, channel=6, data=[40, 0]),\r\n",
      "   midi.NoteOnEvent(tick=0, channel=6, data=[45, 100]),\r\n",
      "   midi.NoteOnEvent(tick=192, channel=6, data=[45, 0]),\r\n",
      "   midi.NoteOnEvent(tick=0, channel=6, data=[60, 100]),\r\n",
      "   midi.NoteOnEvent(tick=96, channel=6, data=[60, 0]),\r\n",
      "   midi.NoteOnEvent(tick=0, channel=6, data=[59, 100]),\r\n",
      "   midi.NoteOnEvent(tick=96, channel=6, data=[59, 0]),\r\n",
      "   midi.NoteOnEvent(tick=0, channel=6, data=[57, 100]),\r\n",
      "   midi.NoteOnEvent(tick=96, channel=6, data=[57, 0]),\r\n",
      "   midi.NoteOnEvent(tick=0, channel=6, data=[55, 100]),\r\n",
      "   midi.NoteOnEvent(tick=96, channel=6, data=[55, 0]),\r\n",
      "   midi.NoteOnEvent(tick=0, channel=6, data=[53, 100]),\r\n",
      "   midi.NoteOnEvent(tick=96, channel=6, data=[53, 0]),\r\n",
      "   midi.NoteOnEvent(tick=0, channel=6, data=[52, 100]),\r\n",
      "   midi.NoteOnEvent(tick=96, channel=6, data=[52, 0]),\r\n",
      "   midi.NoteOnEvent(tick=0, channel=6, data=[53, 100]),\r\n",
      "   midi.NoteOnEvent(tick=192, channel=6, data=[53, 0]),\r\n",
      "   midi.NoteOnEvent(tick=0, channel=6, data=[57, 100]),\r\n",
      "   midi.NoteOnEvent(tick=192, channel=6, data=[57, 0]),\r\n",
      "   midi.NoteOnEvent(tick=0, channel=6, data=[53, 100]),\r\n",
      "   midi.NoteOnEvent(tick=192, channel=6, data=[53, 0]),\r\n",
      "   midi.NoteOnEvent(tick=0, channel=6, data=[50, 100]),\r\n",
      "   midi.NoteOnEvent(tick=192, channel=6, data=[50, 0]),\r\n",
      "   midi.NoteOnEvent(tick=0, channel=6, data=[55, 100]),\r\n",
      "   midi.NoteOnEvent(tick=192, channel=6, data=[55, 0]),\r\n",
      "   midi.NoteOnEvent(tick=0, channel=6, data=[43, 100]),\r\n",
      "   midi.NoteOnEvent(tick=192, channel=6, data=[43, 0]),\r\n",
      "   midi.NoteOnEvent(tick=1344, channel=6, data=[59, 100]),\r\n",
      "   midi.NoteOnEvent(tick=96, channel=6, data=[59, 0]),\r\n",
      "   midi.NoteOnEvent(tick=0, channel=6, data=[57, 100]),\r\n",
      "   midi.NoteOnEvent(tick=96, channel=6, data=[57, 0]),\r\n",
      "   midi.NoteOnEvent(tick=0, channel=6, data=[55, 100]),\r\n",
      "   midi.NoteOnEvent(tick=96, channel=6, data=[55, 0]),\r\n",
      "   midi.NoteOnEvent(tick=0, channel=6, data=[53, 100]),\r\n",
      "   midi.NoteOnEvent(tick=96, channel=6, data=[53, 0]),\r\n",
      "   midi.NoteOnEvent(tick=0, channel=6, data=[52, 100]),\r\n",
      "   midi.NoteOnEvent(tick=96, channel=6, data=[52, 0]),\r\n",
      "   midi.NoteOnEvent(tick=0, channel=6, data=[50, 100]),\r\n",
      "   midi.NoteOnEvent(tick=96, channel=6, data=[50, 0]),\r\n",
      "   midi.NoteOnEvent(tick=0, channel=6, data=[52, 100]),\r\n",
      "   midi.NoteOnEvent(tick=192, channel=6, data=[52, 0]),\r\n",
      "   midi.NoteOnEvent(tick=0, channel=6, data=[55, 100]),\r\n",
      "   midi.NoteOnEvent(tick=192, channel=6, data=[55, 0]),\r\n",
      "   midi.NoteOnEvent(tick=0, channel=6, data=[52, 100]),\r\n",
      "   midi.NoteOnEvent(tick=192, channel=6, data=[52, 0]),\r\n",
      "   midi.NoteOnEvent(tick=0, channel=6, data=[48, 100]),\r\n",
      "   midi.NoteOnEvent(tick=192, channel=6, data=[48, 0]),\r\n",
      "   midi.NoteOnEvent(tick=0, channel=6, data=[53, 100]),\r\n",
      "   midi.NoteOnEvent(tick=192, channel=6, data=[53, 0]),\r\n",
      "   midi.NoteOnEvent(tick=0, channel=6, data=[41, 100]),\r\n",
      "   midi.NoteOnEvent(tick=192, channel=6, data=[41, 0]),\r\n",
      "   midi.NoteOnEvent(tick=1344, channel=6, data=[57, 100]),\r\n",
      "   midi.NoteOnEvent(tick=96, channel=6, data=[57, 0]),\r\n",
      "   midi.NoteOnEvent(tick=0, channel=6, data=[55, 100]),\r\n",
      "   midi.NoteOnEvent(tick=96, channel=6, data=[55, 0]),\r\n",
      "   midi.NoteOnEvent(tick=0, channel=6, data=[53, 100]),\r\n",
      "   midi.NoteOnEvent(tick=96, channel=6, data=[53, 0]),\r\n",
      "   midi.NoteOnEvent(tick=0, channel=6, data=[52, 100]),\r\n",
      "   midi.NoteOnEvent(tick=96, channel=6, data=[52, 0]),\r\n",
      "   midi.NoteOnEvent(tick=0, channel=6, data=[50, 100]),\r\n",
      "   midi.NoteOnEvent(tick=96, channel=6, data=[50, 0]),\r\n",
      "   midi.NoteOnEvent(tick=0, channel=6, data=[48, 100]),\r\n",
      "   midi.NoteOnEvent(tick=96, channel=6, data=[48, 0]),\r\n",
      "   midi.NoteOnEvent(tick=0, channel=6, data=[50, 100]),\r\n",
      "   midi.NoteOnEvent(tick=96, channel=6, data=[50, 0]),\r\n",
      "   midi.NoteOnEvent(tick=0, channel=6, data=[52, 100]),\r\n",
      "   midi.NoteOnEvent(tick=96, channel=6, data=[52, 0]),\r\n",
      "   midi.NoteOnEvent(tick=0, channel=6, data=[50, 100]),\r\n",
      "   midi.NoteOnEvent(tick=96, channel=6, data=[50, 0]),\r\n",
      "   midi.NoteOnEvent(tick=0, channel=6, data=[48, 100]),\r\n",
      "   midi.NoteOnEvent(tick=96, channel=6, data=[48, 0]),\r\n",
      "   midi.NoteOnEvent(tick=0, channel=6, data=[47, 100]),\r\n",
      "   midi.NoteOnEvent(tick=96, channel=6, data=[47, 0]),\r\n",
      "   midi.NoteOnEvent(tick=0, channel=6, data=[48, 100]),\r\n",
      "   midi.NoteOnEvent(tick=96, channel=6, data=[48, 0]),\r\n",
      "   midi.NoteOnEvent(tick=0, channel=6, data=[47, 100]),\r\n",
      "   midi.NoteOnEvent(tick=96, channel=6, data=[47, 0]),\r\n",
      "   midi.NoteOnEvent(tick=0, channel=6, data=[45, 100]),\r\n",
      "   midi.NoteOnEvent(tick=96, channel=6, data=[45, 0]),\r\n",
      "   midi.NoteOnEvent(tick=0, channel=6, data=[44, 100]),\r\n",
      "   midi.NoteOnEvent(tick=96, channel=6, data=[44, 0]),\r\n",
      "   midi.NoteOnEvent(tick=0, channel=6, data=[40, 100]),\r\n",
      "   midi.NoteOnEvent(tick=96, channel=6, data=[40, 0]),\r\n",
      "   midi.NoteOnEvent(tick=0, channel=6, data=[42, 100]),\r\n",
      "   midi.NoteOnEvent(tick=96, channel=6, data=[42, 0]),\r\n",
      "   midi.NoteOnEvent(tick=0, channel=6, data=[44, 100]),\r\n",
      "   midi.NoteOnEvent(tick=96, channel=6, data=[44, 0]),\r\n",
      "   midi.NoteOnEvent(tick=0, channel=6, data=[45, 100]),\r\n",
      "   midi.NoteOnEvent(tick=96, channel=6, data=[45, 0]),\r\n",
      "   midi.NoteOnEvent(tick=0, channel=6, data=[47, 100]),\r\n",
      "   midi.NoteOnEvent(tick=96, channel=6, data=[47, 0]),\r\n",
      "   midi.NoteOnEvent(tick=0, channel=6, data=[48, 100]),\r\n",
      "   midi.NoteOnEvent(tick=96, channel=6, data=[48, 0]),\r\n",
      "   midi.NoteOnEvent(tick=0, channel=6, data=[45, 100]),\r\n",
      "   midi.NoteOnEvent(tick=96, channel=6, data=[45, 0]),\r\n",
      "   midi.NoteOnEvent(tick=0, channel=6, data=[41, 100]),\r\n",
      "   midi.NoteOnEvent(tick=192, channel=6, data=[41, 0]),\r\n",
      "   midi.NoteOnEvent(tick=0, channel=6, data=[48, 100]),\r\n",
      "   midi.NoteOnEvent(tick=192, channel=6, data=[48, 0]),\r\n",
      "   midi.NoteOnEvent(tick=0, channel=6, data=[50, 100]),\r\n",
      "   midi.NoteOnEvent(tick=192, channel=6, data=[50, 0]),\r\n",
      "   midi.NoteOnEvent(tick=0, channel=6, data=[47, 100]),\r\n",
      "   midi.NoteOnEvent(tick=192, channel=6, data=[47, 0]),\r\n",
      "   midi.NoteOnEvent(tick=0, channel=6, data=[52, 100]),\r\n",
      "   midi.NoteOnEvent(tick=288, channel=6, data=[52, 0]),\r\n",
      "   midi.NoteOnEvent(tick=0, channel=6, data=[54, 100]),\r\n",
      "   midi.NoteOnEvent(tick=48, channel=6, data=[54, 0]),\r\n",
      "   midi.NoteOnEvent(tick=0, channel=6, data=[56, 100]),\r\n",
      "   midi.NoteOnEvent(tick=48, channel=6, data=[56, 0]),\r\n",
      "   midi.NoteOnEvent(tick=0, channel=6, data=[57, 100]),\r\n",
      "   midi.NoteOnEvent(tick=96, channel=6, data=[57, 0]),\r\n",
      "   midi.NoteOnEvent(tick=0, channel=6, data=[59, 100]),\r\n",
      "   midi.NoteOnEvent(tick=96, channel=6, data=[59, 0]),\r\n",
      "   midi.NoteOnEvent(tick=0, channel=6, data=[60, 100]),\r\n",
      "   midi.NoteOnEvent(tick=96, channel=6, data=[60, 0]),\r\n",
      "   midi.NoteOnEvent(tick=0, channel=6, data=[62, 100]),\r\n",
      "   midi.NoteOnEvent(tick=96, channel=6, data=[62, 0]),\r\n",
      "   midi.NoteOnEvent(tick=0, channel=6, data=[64, 100]),\r\n",
      "   midi.NoteOnEvent(tick=192, channel=6, data=[64, 0]),\r\n",
      "   midi.NoteOnEvent(tick=0, channel=6, data=[62, 100]),\r\n",
      "   midi.NoteOnEvent(tick=192, channel=6, data=[62, 0]),\r\n",
      "   midi.NoteOnEvent(tick=0, channel=6, data=[64, 100]),\r\n",
      "   midi.NoteOnEvent(tick=192, channel=6, data=[64, 0]),\r\n",
      "   midi.NoteOnEvent(tick=0, channel=6, data=[52, 100]),\r\n",
      "   midi.NoteOnEvent(tick=192, channel=6, data=[52, 0]),\r\n",
      "   midi.NoteOnEvent(tick=0, channel=6, data=[62, 100]),\r\n",
      "   midi.NoteOnEvent(tick=192, channel=6, data=[62, 0]),\r\n",
      "   midi.NoteOnEvent(tick=0, channel=6, data=[64, 100]),\r\n",
      "   midi.NoteOnEvent(tick=192, channel=6, data=[64, 0]),\r\n",
      "   midi.NoteOnEvent(tick=0, channel=6, data=[62, 100]),\r\n",
      "   midi.NoteOnEvent(tick=192, channel=6, data=[62, 0]),\r\n",
      "   midi.NoteOnEvent(tick=0, channel=6, data=[60, 100]),\r\n",
      "   midi.NoteOnEvent(tick=192, channel=6, data=[60, 0]),\r\n",
      "   midi.NoteOnEvent(tick=0, channel=6, data=[59, 100]),\r\n",
      "   midi.NoteOnEvent(tick=192, channel=6, data=[59, 0]),\r\n",
      "   midi.NoteOnEvent(tick=0, channel=6, data=[60, 100]),\r\n",
      "   midi.NoteOnEvent(tick=192, channel=6, data=[60, 0]),\r\n",
      "   midi.NoteOnEvent(tick=0, channel=6, data=[59, 100]),\r\n",
      "   midi.NoteOnEvent(tick=192, channel=6, data=[59, 0]),\r\n",
      "   midi.NoteOnEvent(tick=0, channel=6, data=[57, 100]),\r\n",
      "   midi.NoteOnEvent(tick=192, channel=6, data=[57, 0]),\r\n",
      "   midi.NoteOnEvent(tick=0, channel=6, data=[56, 100]),\r\n",
      "   midi.NoteOnEvent(tick=192, channel=6, data=[56, 0]),\r\n",
      "   midi.NoteOnEvent(tick=0, channel=6, data=[57, 100]),\r\n",
      "   midi.NoteOnEvent(tick=192, channel=6, data=[57, 0]),\r\n",
      "   midi.NoteOnEvent(tick=0, channel=6, data=[59, 100]),\r\n",
      "   midi.NoteOnEvent(tick=192, channel=6, data=[59, 0]),\r\n",
      "   midi.NoteOnEvent(tick=0, channel=6, data=[60, 100]),\r\n",
      "   midi.NoteOnEvent(tick=192, channel=6, data=[60, 0]),\r\n",
      "   midi.NoteOnEvent(tick=0, channel=6, data=[50, 100]),\r\n",
      "   midi.NoteOnEvent(tick=192, channel=6, data=[50, 0]),\r\n",
      "   midi.NoteOnEvent(tick=0, channel=6, data=[52, 100]),\r\n",
      "   midi.NoteOnEvent(tick=192, channel=6, data=[52, 0]),\r\n",
      "   midi.NoteOnEvent(tick=0, channel=6, data=[53, 100]),\r\n",
      "   midi.NoteOnEvent(tick=192, channel=6, data=[53, 0]),\r\n",
      "   midi.NoteOnEvent(tick=0, channel=6, data=[47, 100]),\r\n",
      "   midi.NoteOnEvent(tick=192, channel=6, data=[47, 0]),\r\n",
      "   midi.NoteOnEvent(tick=0, channel=6, data=[52, 100]),\r\n",
      "   midi.NoteOnEvent(tick=192, channel=6, data=[52, 0]),\r\n",
      "   midi.NoteOnEvent(tick=0, channel=6, data=[50, 100]),\r\n",
      "   midi.NoteOnEvent(tick=96, channel=6, data=[50, 0]),\r\n",
      "   midi.NoteOnEvent(tick=0, channel=6, data=[48, 100]),\r\n",
      "   midi.NoteOnEvent(tick=96, channel=6, data=[48, 0]),\r\n",
      "   midi.NoteOnEvent(tick=0, channel=6, data=[47, 100]),\r\n",
      "   midi.NoteOnEvent(tick=192, channel=6, data=[47, 0]),\r\n",
      "   midi.NoteOnEvent(tick=0, channel=6, data=[45, 100]),\r\n",
      "   midi.NoteOnEvent(tick=192, channel=6, data=[45, 0]),\r\n",
      "   midi.NoteOnEvent(tick=0, channel=6, data=[44, 100]),\r\n",
      "   midi.NoteOnEvent(tick=192, channel=6, data=[44, 0]),\r\n",
      "   midi.NoteOnEvent(tick=0, channel=6, data=[42, 100]),\r\n",
      "   midi.NoteOnEvent(tick=192, channel=6, data=[42, 0]),\r\n",
      "   midi.NoteOnEvent(tick=0, channel=6, data=[40, 100]),\r\n",
      "   midi.NoteOnEvent(tick=192, channel=6, data=[40, 0]),\r\n",
      "   midi.NoteOnEvent(tick=0, channel=6, data=[38, 100]),\r\n",
      "   midi.NoteOnEvent(tick=192, channel=6, data=[38, 0]),\r\n",
      "   midi.NoteOnEvent(tick=0, channel=6, data=[36, 100]),\r\n",
      "   midi.NoteOnEvent(tick=192, channel=6, data=[36, 0]),\r\n",
      "   midi.NoteOnEvent(tick=0, channel=6, data=[53, 100]),\r\n",
      "   midi.NoteOnEvent(tick=192, channel=6, data=[53, 0]),\r\n",
      "   midi.NoteOnEvent(tick=0, channel=6, data=[50, 100]),\r\n",
      "   midi.NoteOnEvent(tick=192, channel=6, data=[50, 0]),\r\n",
      "   midi.NoteOnEvent(tick=0, channel=6, data=[52, 100]),\r\n",
      "   midi.NoteOnEvent(tick=192, channel=6, data=[52, 0]),\r\n",
      "   midi.NoteOnEvent(tick=0, channel=6, data=[41, 100]),\r\n",
      "   midi.NoteOnEvent(tick=384, channel=6, data=[41, 0]),\r\n",
      "   midi.NoteOnEvent(tick=192, channel=6, data=[53, 100]),\r\n",
      "   midi.NoteOnEvent(tick=192, channel=6, data=[53, 0]),\r\n",
      "   midi.NoteOnEvent(tick=0, channel=6, data=[44, 100]),\r\n",
      "   midi.NoteOnEvent(tick=192, channel=6, data=[44, 0]),\r\n",
      "   midi.NoteOnEvent(tick=0, channel=6, data=[44, 100]),\r\n",
      "   midi.NoteOnEvent(tick=192, channel=6, data=[44, 0]),\r\n",
      "   midi.NoteOnEvent(tick=0, channel=6, data=[44, 100]),\r\n",
      "   midi.NoteOnEvent(tick=192, channel=6, data=[44, 0]),\r\n",
      "   midi.NoteOnEvent(tick=0, channel=6, data=[59, 100]),\r\n",
      "   midi.NoteOnEvent(tick=192, channel=6, data=[59, 0]),\r\n",
      "   midi.NoteOnEvent(tick=0, channel=6, data=[50, 100]),\r\n",
      "   midi.NoteOnEvent(tick=192, channel=6, data=[50, 0]),\r\n",
      "   midi.NoteOnEvent(tick=0, channel=6, data=[50, 100]),\r\n",
      "   midi.NoteOnEvent(tick=192, channel=6, data=[50, 0]),\r\n",
      "   midi.NoteOnEvent(tick=0, channel=6, data=[50, 100]),\r\n",
      "   midi.NoteOnEvent(tick=192, channel=6, data=[50, 0]),\r\n",
      "   midi.NoteOnEvent(tick=0, channel=6, data=[53, 100]),\r\n",
      "   midi.NoteOnEvent(tick=192, channel=6, data=[53, 0]),\r\n",
      "   midi.NoteOnEvent(tick=0, channel=6, data=[47, 100]),\r\n",
      "   midi.NoteOnEvent(tick=192, channel=6, data=[47, 0]),\r\n",
      "   midi.NoteOnEvent(tick=0, channel=6, data=[48, 100]),\r\n",
      "   midi.NoteOnEvent(tick=96, channel=6, data=[48, 0]),\r\n",
      "   midi.NoteOnEvent(tick=0, channel=6, data=[50, 100]),\r\n",
      "   midi.NoteOnEvent(tick=96, channel=6, data=[50, 0]),\r\n",
      "   midi.NoteOnEvent(tick=0, channel=6, data=[52, 100]),\r\n",
      "   midi.NoteOnEvent(tick=192, channel=6, data=[52, 0]),\r\n",
      "   midi.NoteOnEvent(tick=0, channel=6, data=[40, 100]),\r\n",
      "   midi.NoteOnEvent(tick=192, channel=6, data=[40, 0]),\r\n",
      "   midi.NoteOnEvent(tick=0, channel=6, data=[45, 100]),\r\n",
      "   midi.NoteOnEvent(tick=576, channel=6, data=[45, 0]),\r\n",
      "   midi.EndOfTrackEvent(tick=0, data=[])]),\r\n",
      " midi.Track(\\\r\n",
      "  [midi.PortEvent(tick=0, data=[0]),\r\n",
      "   midi.TrackNameEvent(tick=0, text='------------------------------------------', data=[45, 45, 45, 45, 45, 45, 45, 45, 45, 45, 45, 45, 45, 45, 45, 45, 45, 45, 45, 45, 45, 45, 45, 45, 45, 45, 45, 45, 45, 45, 45, 45, 45, 45, 45, 45, 45, 45, 45, 45, 45, 45]),\r\n",
      "   midi.EndOfTrackEvent(tick=0, data=[])]),\r\n",
      " midi.Track(\\\r\n",
      "  [midi.PortEvent(tick=0, data=[0]),\r\n",
      "   midi.TrackNameEvent(tick=0, text='Johann Sebastian Bach  (1685-1750)', data=[74, 111, 104, 97, 110, 110, 32, 83, 101, 98, 97, 115, 116, 105, 97, 110, 32, 66, 97, 99, 104, 32, 32, 40, 49, 54, 56, 53, 45, 49, 55, 53, 48, 41]),\r\n",
      "   midi.EndOfTrackEvent(tick=0, data=[])]),\r\n",
      " midi.Track(\\\r\n",
      "  [midi.PortEvent(tick=0, data=[0]),\r\n",
      "   midi.TrackNameEvent(tick=0, text='Violin Concerto No. 1 in A minor - BWV 1041', data=[86, 105, 111, 108, 105, 110, 32, 67, 111, 110, 99, 101, 114, 116, 111, 32, 78, 111, 46, 32, 49, 32, 105, 110, 32, 65, 32, 109, 105, 110, 111, 114, 32, 45, 32, 66, 87, 86, 32, 49, 48, 52, 49]),\r\n",
      "   midi.EndOfTrackEvent(tick=0, data=[])]),\r\n",
      " midi.Track(\\\r\n",
      "  [midi.PortEvent(tick=0, data=[0]),\r\n",
      "   midi.TrackNameEvent(tick=0, text='1st Movement: ( Allegro moderato )', data=[49, 115, 116, 32, 77, 111, 118, 101, 109, 101, 110, 116, 58, 32, 40, 32, 65, 108, 108, 101, 103, 114, 111, 32, 109, 111, 100, 101, 114, 97, 116, 111, 32, 41]),\r\n",
      "   midi.EndOfTrackEvent(tick=0, data=[])]),\r\n",
      " midi.Track(\\\r\n",
      "  [midi.PortEvent(tick=0, data=[0]),\r\n",
      "   midi.TrackNameEvent(tick=0, text='------------------------------------------', data=[45, 45, 45, 45, 45, 45, 45, 45, 45, 45, 45, 45, 45, 45, 45, 45, 45, 45, 45, 45, 45, 45, 45, 45, 45, 45, 45, 45, 45, 45, 45, 45, 45, 45, 45, 45, 45, 45, 45, 45, 45, 45]),\r\n",
      "   midi.EndOfTrackEvent(tick=0, data=[])])])\r\n"
     ]
    }
   ],
   "source": [
    "# Look at the file\n",
    "! mididump.py midi/bwv1041a.mid"
   ]
  },
  {
   "cell_type": "code",
   "execution_count": 5,
   "metadata": {},
   "outputs": [],
   "source": [
    "# https://github.com/vishnubob/python-midi\n",
    "bwv = midi.read_midifile('midi/bwv1041a.mid')"
   ]
  },
  {
   "cell_type": "code",
   "execution_count": 6,
   "metadata": {
    "scrolled": true
   },
   "outputs": [
    {
     "name": "stdout",
     "output_type": "stream",
     "text": [
      "midi.TrackNameEvent(tick=0, text='untitled', data=[117, 110, 116, 105, 116, 108, 101, 100])\n",
      "midi.SmpteOffsetEvent(tick=0, data=[96, 0, 3, 0, 0])\n",
      "midi.TimeSignatureEvent(tick=0, data=[2, 2, 24, 8])\n",
      "midi.KeySignatureEvent(tick=0, data=[0, 0])\n",
      "midi.SetTempoEvent(tick=0, data=[9, 216, 41])\n",
      "midi.EndOfTrackEvent(tick=0, data=[])\n",
      "midi.PortEvent(tick=0, data=[0])\n",
      "midi.TrackNameEvent(tick=0, text='Solo Violin', data=[83, 111, 108, 111, 32, 86, 105, 111, 108, 105, 110])\n",
      "midi.ProgramChangeEvent(tick=0, channel=0, data=[40])\n",
      "midi.ControlChangeEvent(tick=0, channel=0, data=[7, 115])\n",
      "midi.ControlChangeEvent(tick=0, channel=0, data=[10, 64])\n",
      "midi.NoteOnEvent(tick=576, channel=0, data=[76, 100])\n",
      "midi.NoteOnEvent(tick=192, channel=0, data=[76, 0])\n",
      "midi.NoteOnEvent(tick=0, channel=0, data=[81, 100])\n",
      "midi.NoteOnEvent(tick=384, channel=0, data=[81, 0])\n",
      "midi.NoteOnEvent(tick=192, channel=0, data=[76, 100])\n",
      "midi.NoteOnEvent(tick=192, channel=0, data=[76, 0])\n",
      "midi.NoteOnEvent(tick=0, channel=0, data=[77, 100])\n",
      "midi.NoteOnEvent(tick=384, channel=0, data=[77, 0])\n",
      "midi.NoteOnEvent(tick=192, channel=0, data=[74, 100])\n",
      "midi.NoteOnEvent(tick=192, channel=0, data=[74, 0])\n",
      "midi.NoteOnEvent(tick=0, channel=0, data=[76, 100])\n",
      "midi.NoteOnEvent(tick=96, channel=0, data=[76, 0])\n",
      "midi.NoteOnEvent(tick=0, channel=0, data=[74, 100])\n",
      "midi.NoteOnEvent(tick=96, channel=0, data=[74, 0])\n",
      "midi.NoteOnEvent(tick=0, channel=0, data=[72, 100])\n",
      "midi.NoteOnEvent(tick=96, channel=0, data=[72, 0])\n",
      "midi.NoteOnEvent(tick=0, channel=0, data=[76, 100])\n",
      "midi.NoteOnEvent(tick=96, channel=0, data=[76, 0])\n",
      "midi.NoteOnEvent(tick=0, channel=0, data=[74, 100])\n",
      "midi.NoteOnEvent(tick=96, channel=0, data=[74, 0])\n",
      "midi.NoteOnEvent(tick=0, channel=0, data=[72, 100])\n",
      "midi.NoteOnEvent(tick=96, channel=0, data=[72, 0])\n",
      "midi.NoteOnEvent(tick=0, channel=0, data=[71, 100])\n",
      "midi.NoteOnEvent(tick=96, channel=0, data=[71, 0])\n",
      "midi.NoteOnEvent(tick=0, channel=0, data=[74, 100])\n",
      "midi.NoteOnEvent(tick=96, channel=0, data=[74, 0])\n",
      "midi.NoteOnEvent(tick=0, channel=0, data=[72, 100])\n",
      "midi.NoteOnEvent(tick=192, channel=0, data=[72, 0])\n",
      "midi.NoteOnEvent(tick=0, channel=0, data=[69, 100])\n",
      "midi.NoteOnEvent(tick=192, channel=0, data=[69, 0])\n",
      "midi.NoteOnEvent(tick=96, channel=0, data=[69, 100])\n",
      "midi.NoteOnEvent(tick=96, channel=0, data=[69, 0])\n",
      "midi.NoteOnEvent(tick=0, channel=0, data=[68, 100])\n",
      "midi.NoteOnEvent(tick=96, channel=0, data=[68, 0])\n",
      "midi.NoteOnEvent(tick=0, channel=0, data=[69, 100])\n",
      "midi.NoteOnEvent(tick=96, channel=0, data=[69, 0])\n",
      "midi.NoteOnEvent(tick=0, channel=0, data=[71, 100])\n",
      "midi.NoteOnEvent(tick=96, channel=0, data=[71, 0])\n",
      "midi.NoteOnEvent(tick=0, channel=0, data=[69, 100])\n",
      "midi.NoteOnEvent(tick=96, channel=0, data=[69, 0])\n",
      "midi.NoteOnEvent(tick=0, channel=0, data=[68, 100])\n",
      "midi.NoteOnEvent(tick=96, channel=0, data=[68, 0])\n",
      "midi.NoteOnEvent(tick=0, channel=0, data=[69, 100])\n",
      "midi.NoteOnEvent(tick=96, channel=0, data=[69, 0])\n",
      "midi.NoteOnEvent(tick=0, channel=0, data=[72, 100])\n",
      "midi.NoteOnEvent(tick=96, channel=0, data=[72, 0])\n",
      "midi.NoteOnEvent(tick=0, channel=0, data=[69, 100])\n",
      "midi.NoteOnEvent(tick=96, channel=0, data=[69, 0])\n",
      "midi.NoteOnEvent(tick=0, channel=0, data=[68, 100])\n",
      "midi.NoteOnEvent(tick=96, channel=0, data=[68, 0])\n",
      "midi.NoteOnEvent(tick=0, channel=0, data=[69, 100])\n",
      "midi.NoteOnEvent(tick=96, channel=0, data=[69, 0])\n",
      "midi.NoteOnEvent(tick=0, channel=0, data=[74, 100])\n",
      "midi.NoteOnEvent(tick=96, channel=0, data=[74, 0])\n",
      "midi.NoteOnEvent(tick=0, channel=0, data=[69, 100])\n",
      "midi.NoteOnEvent(tick=96, channel=0, data=[69, 0])\n",
      "midi.NoteOnEvent(tick=0, channel=0, data=[68, 100])\n",
      "midi.NoteOnEvent(tick=96, channel=0, data=[68, 0])\n",
      "midi.NoteOnEvent(tick=0, channel=0, data=[69, 100])\n",
      "midi.NoteOnEvent(tick=96, channel=0, data=[69, 0])\n",
      "midi.NoteOnEvent(tick=0, channel=0, data=[76, 100])\n",
      "midi.NoteOnEvent(tick=96, channel=0, data=[76, 0])\n",
      "midi.NoteOnEvent(tick=0, channel=0, data=[69, 100])\n",
      "midi.NoteOnEvent(tick=96, channel=0, data=[69, 0])\n",
      "midi.NoteOnEvent(tick=0, channel=0, data=[68, 100])\n",
      "midi.NoteOnEvent(tick=96, channel=0, data=[68, 0])\n",
      "midi.NoteOnEvent(tick=0, channel=0, data=[69, 100])\n",
      "midi.NoteOnEvent(tick=96, channel=0, data=[69, 0])\n",
      "midi.NoteOnEvent(tick=0, channel=0, data=[77, 100])\n",
      "midi.NoteOnEvent(tick=96, channel=0, data=[77, 0])\n",
      "midi.NoteOnEvent(tick=0, channel=0, data=[79, 100])\n",
      "midi.NoteOnEvent(tick=96, channel=0, data=[79, 0])\n",
      "midi.NoteOnEvent(tick=0, channel=0, data=[77, 100])\n",
      "midi.NoteOnEvent(tick=96, channel=0, data=[77, 0])\n",
      "midi.NoteOnEvent(tick=0, channel=0, data=[76, 100])\n",
      "midi.NoteOnEvent(tick=96, channel=0, data=[76, 0])\n",
      "midi.NoteOnEvent(tick=0, channel=0, data=[74, 100])\n",
      "midi.NoteOnEvent(tick=96, channel=0, data=[74, 0])\n",
      "midi.NoteOnEvent(tick=0, channel=0, data=[72, 100])\n",
      "midi.NoteOnEvent(tick=96, channel=0, data=[72, 0])\n",
      "midi.NoteOnEvent(tick=0, channel=0, data=[71, 100])\n",
      "midi.NoteOnEvent(tick=96, channel=0, data=[71, 0])\n",
      "midi.NoteOnEvent(tick=0, channel=0, data=[69, 100])\n",
      "midi.NoteOnEvent(tick=96, channel=0, data=[69, 0])\n",
      "midi.NoteOnEvent(tick=0, channel=0, data=[68, 100])\n",
      "midi.NoteOnEvent(tick=192, channel=0, data=[68, 0])\n",
      "midi.NoteOnEvent(tick=0, channel=0, data=[64, 100])\n",
      "midi.NoteOnEvent(tick=192, channel=0, data=[64, 0])\n",
      "midi.NoteOnEvent(tick=0, channel=0, data=[83, 100])\n",
      "midi.NoteOnEvent(tick=576, channel=0, data=[83, 0])\n",
      "midi.NoteOnEvent(tick=0, channel=0, data=[81, 100])\n",
      "midi.NoteOnEvent(tick=96, channel=0, data=[81, 0])\n",
      "midi.NoteOnEvent(tick=0, channel=0, data=[80, 100])\n",
      "midi.NoteOnEvent(tick=96, channel=0, data=[80, 0])\n",
      "midi.NoteOnEvent(tick=0, channel=0, data=[81, 100])\n",
      "midi.NoteOnEvent(tick=192, channel=0, data=[81, 0])\n",
      "midi.NoteOnEvent(tick=0, channel=0, data=[84, 100])\n",
      "midi.NoteOnEvent(tick=384, channel=0, data=[84, 0])\n",
      "midi.NoteOnEvent(tick=0, channel=0, data=[78, 100])\n",
      "midi.NoteOnEvent(tick=192, channel=0, data=[78, 0])\n",
      "midi.NoteOnEvent(tick=0, channel=0, data=[81, 100])\n",
      "midi.NoteOnEvent(tick=576, channel=0, data=[81, 0])\n",
      "midi.NoteOnEvent(tick=0, channel=0, data=[79, 100])\n",
      "midi.NoteOnEvent(tick=96, channel=0, data=[79, 0])\n",
      "midi.NoteOnEvent(tick=0, channel=0, data=[78, 100])\n",
      "midi.NoteOnEvent(tick=96, channel=0, data=[78, 0])\n",
      "midi.NoteOnEvent(tick=0, channel=0, data=[79, 100])\n",
      "midi.NoteOnEvent(tick=192, channel=0, data=[79, 0])\n",
      "midi.NoteOnEvent(tick=0, channel=0, data=[83, 100])\n",
      "midi.NoteOnEvent(tick=288, channel=0, data=[83, 0])\n",
      "midi.NoteOnEvent(tick=0, channel=0, data=[81, 100])\n",
      "midi.NoteOnEvent(tick=96, channel=0, data=[81, 0])\n",
      "midi.NoteOnEvent(tick=0, channel=0, data=[79, 100])\n",
      "midi.NoteOnEvent(tick=96, channel=0, data=[79, 0])\n",
      "midi.NoteOnEvent(tick=0, channel=0, data=[78, 100])\n",
      "midi.NoteOnEvent(tick=96, channel=0, data=[78, 0])\n",
      "midi.NoteOnEvent(tick=0, channel=0, data=[76, 100])\n",
      "midi.NoteOnEvent(tick=576, channel=0, data=[76, 0])\n",
      "midi.NoteOnEvent(tick=0, channel=0, data=[78, 100])\n",
      "midi.NoteOnEvent(tick=96, channel=0, data=[78, 0])\n",
      "midi.NoteOnEvent(tick=0, channel=0, data=[79, 100])\n",
      "midi.NoteOnEvent(tick=96, channel=0, data=[79, 0])\n",
      "midi.NoteOnEvent(tick=0, channel=0, data=[81, 100])\n",
      "midi.NoteOnEvent(tick=192, channel=0, data=[81, 0])\n",
      "midi.NoteOnEvent(tick=0, channel=0, data=[72, 100])\n",
      "midi.NoteOnEvent(tick=192, channel=0, data=[72, 0])\n",
      "midi.NoteOnEvent(tick=0, channel=0, data=[71, 100])\n",
      "midi.NoteOnEvent(tick=192, channel=0, data=[71, 0])\n",
      "midi.NoteOnEvent(tick=0, channel=0, data=[81, 100])\n",
      "midi.NoteOnEvent(tick=192, channel=0, data=[81, 0])\n",
      "midi.NoteOnEvent(tick=0, channel=0, data=[79, 100])\n",
      "midi.NoteOnEvent(tick=192, channel=0, data=[79, 0])\n",
      "midi.NoteOnEvent(tick=0, channel=0, data=[71, 100])\n",
      "midi.NoteOnEvent(tick=192, channel=0, data=[71, 0])\n",
      "midi.NoteOnEvent(tick=0, channel=0, data=[69, 100])\n",
      "midi.NoteOnEvent(tick=96, channel=0, data=[69, 0])\n",
      "midi.NoteOnEvent(tick=0, channel=0, data=[71, 100])\n",
      "midi.NoteOnEvent(tick=96, channel=0, data=[71, 0])\n",
      "midi.NoteOnEvent(tick=0, channel=0, data=[72, 100])\n",
      "midi.NoteOnEvent(tick=96, channel=0, data=[72, 0])\n",
      "midi.NoteOnEvent(tick=0, channel=0, data=[71, 100])\n",
      "midi.NoteOnEvent(tick=96, channel=0, data=[71, 0])\n",
      "midi.NoteOnEvent(tick=0, channel=0, data=[69, 100])\n",
      "midi.NoteOnEvent(tick=96, channel=0, data=[69, 0])\n",
      "midi.NoteOnEvent(tick=0, channel=0, data=[67, 100])\n",
      "midi.NoteOnEvent(tick=96, channel=0, data=[67, 0])\n",
      "midi.NoteOnEvent(tick=0, channel=0, data=[66, 100])\n",
      "midi.NoteOnEvent(tick=96, channel=0, data=[66, 0])\n",
      "midi.NoteOnEvent(tick=0, channel=0, data=[64, 100])\n",
      "midi.NoteOnEvent(tick=96, channel=0, data=[64, 0])\n",
      "midi.NoteOnEvent(tick=0, channel=0, data=[63, 100])\n",
      "midi.NoteOnEvent(tick=192, channel=0, data=[63, 0])\n",
      "midi.NoteOnEvent(tick=0, channel=0, data=[72, 100])\n",
      "midi.NoteOnEvent(tick=192, channel=0, data=[72, 0])\n",
      "midi.NoteOnEvent(tick=0, channel=0, data=[71, 100])\n",
      "midi.NoteOnEvent(tick=192, channel=0, data=[71, 0])\n",
      "midi.NoteOnEvent(tick=0, channel=0, data=[76, 100])\n",
      "midi.NoteOnEvent(tick=192, channel=0, data=[76, 0])\n",
      "midi.NoteOnEvent(tick=0, channel=0, data=[79, 100])\n",
      "midi.NoteOnEvent(tick=384, channel=0, data=[79, 0])\n",
      "midi.NoteOnEvent(tick=0, channel=0, data=[78, 100])\n",
      "midi.NoteOnEvent(tick=48, channel=0, data=[78, 0])\n",
      "midi.NoteOnEvent(tick=0, channel=0, data=[79, 100])\n",
      "midi.NoteOnEvent(tick=48, channel=0, data=[79, 0])\n",
      "midi.NoteOnEvent(tick=0, channel=0, data=[78, 100])\n",
      "midi.NoteOnEvent(tick=48, channel=0, data=[78, 0])\n",
      "midi.NoteOnEvent(tick=0, channel=0, data=[79, 100])\n",
      "midi.NoteOnEvent(tick=48, channel=0, data=[79, 0])\n",
      "midi.NoteOnEvent(tick=0, channel=0, data=[78, 100])\n",
      "midi.NoteOnEvent(tick=48, channel=0, data=[78, 0])\n",
      "midi.NoteOnEvent(tick=0, channel=0, data=[79, 100])\n",
      "midi.NoteOnEvent(tick=48, channel=0, data=[79, 0])\n",
      "midi.NoteOnEvent(tick=0, channel=0, data=[78, 100])\n",
      "midi.NoteOnEvent(tick=48, channel=0, data=[78, 0])\n",
      "midi.NoteOnEvent(tick=0, channel=0, data=[79, 100])\n",
      "midi.NoteOnEvent(tick=48, channel=0, data=[79, 0])\n",
      "midi.NoteOnEvent(tick=0, channel=0, data=[78, 100])\n",
      "midi.NoteOnEvent(tick=96, channel=0, data=[78, 0])\n",
      "midi.NoteOnEvent(tick=0, channel=0, data=[79, 100])\n",
      "midi.NoteOnEvent(tick=96, channel=0, data=[79, 0])\n",
      "midi.NoteOnEvent(tick=0, channel=0, data=[81, 100])\n",
      "midi.NoteOnEvent(tick=96, channel=0, data=[81, 0])\n",
      "midi.NoteOnEvent(tick=0, channel=0, data=[78, 100])\n",
      "midi.NoteOnEvent(tick=96, channel=0, data=[78, 0])\n",
      "midi.NoteOnEvent(tick=0, channel=0, data=[75, 100])\n",
      "midi.NoteOnEvent(tick=96, channel=0, data=[75, 0])\n",
      "midi.NoteOnEvent(tick=0, channel=0, data=[76, 100])\n",
      "midi.NoteOnEvent(tick=96, channel=0, data=[76, 0])\n",
      "midi.NoteOnEvent(tick=0, channel=0, data=[78, 100])\n",
      "midi.NoteOnEvent(tick=96, channel=0, data=[78, 0])\n",
      "midi.NoteOnEvent(tick=0, channel=0, data=[75, 100])\n",
      "midi.NoteOnEvent(tick=96, channel=0, data=[75, 0])\n",
      "midi.NoteOnEvent(tick=0, channel=0, data=[83, 100])\n",
      "midi.NoteOnEvent(tick=192, channel=0, data=[83, 0])\n",
      "midi.NoteOnEvent(tick=0, channel=0, data=[76, 100])\n",
      "midi.NoteOnEvent(tick=192, channel=0, data=[76, 0])\n",
      "midi.NoteOnEvent(tick=0, channel=0, data=[78, 100])\n",
      "midi.NoteOnEvent(tick=192, channel=0, data=[78, 0])\n",
      "midi.NoteOnEvent(tick=0, channel=0, data=[75, 100])\n",
      "midi.NoteOnEvent(tick=192, channel=0, data=[75, 0])\n",
      "midi.NoteOnEvent(tick=0, channel=0, data=[76, 100])\n",
      "midi.NoteOnEvent(tick=96, channel=0, data=[76, 0])\n",
      "midi.NoteOnEvent(tick=0, channel=0, data=[74, 100])\n",
      "midi.NoteOnEvent(tick=96, channel=0, data=[74, 0])\n",
      "midi.NoteOnEvent(tick=0, channel=0, data=[72, 100])\n",
      "midi.NoteOnEvent(tick=96, channel=0, data=[72, 0])\n",
      "midi.NoteOnEvent(tick=0, channel=0, data=[71, 100])\n",
      "midi.NoteOnEvent(tick=96, channel=0, data=[71, 0])\n",
      "midi.NoteOnEvent(tick=0, channel=0, data=[69, 100])\n",
      "midi.NoteOnEvent(tick=192, channel=0, data=[69, 0])\n",
      "midi.NoteOnEvent(tick=0, channel=0, data=[69, 100])\n",
      "midi.NoteOnEvent(tick=192, channel=0, data=[69, 0])\n",
      "midi.NoteOnEvent(tick=0, channel=0, data=[69, 100])\n",
      "midi.NoteOnEvent(tick=96, channel=0, data=[69, 0])\n",
      "midi.NoteOnEvent(tick=0, channel=0, data=[71, 100])\n",
      "midi.NoteOnEvent(tick=96, channel=0, data=[71, 0])\n",
      "midi.NoteOnEvent(tick=0, channel=0, data=[72, 100])\n",
      "midi.NoteOnEvent(tick=288, channel=0, data=[72, 0])\n",
      "midi.NoteOnEvent(tick=0, channel=0, data=[71, 100])\n",
      "midi.NoteOnEvent(tick=96, channel=0, data=[71, 0])\n",
      "midi.NoteOnEvent(tick=0, channel=0, data=[69, 100])\n",
      "midi.NoteOnEvent(tick=96, channel=0, data=[69, 0])\n",
      "midi.NoteOnEvent(tick=0, channel=0, data=[67, 100])\n",
      "midi.NoteOnEvent(tick=96, channel=0, data=[67, 0])\n",
      "midi.NoteOnEvent(tick=0, channel=0, data=[66, 100])\n",
      "midi.NoteOnEvent(tick=96, channel=0, data=[66, 0])\n",
      "midi.NoteOnEvent(tick=0, channel=0, data=[67, 100])\n",
      "midi.NoteOnEvent(tick=96, channel=0, data=[67, 0])\n",
      "midi.NoteOnEvent(tick=0, channel=0, data=[69, 100])\n",
      "midi.NoteOnEvent(tick=288, channel=0, data=[69, 0])\n",
      "midi.NoteOnEvent(tick=0, channel=0, data=[67, 100])\n",
      "midi.NoteOnEvent(tick=96, channel=0, data=[67, 0])\n",
      "midi.NoteOnEvent(tick=0, channel=0, data=[66, 100])\n",
      "midi.NoteOnEvent(tick=96, channel=0, data=[66, 0])\n",
      "midi.NoteOnEvent(tick=0, channel=0, data=[64, 100])\n",
      "midi.NoteOnEvent(tick=96, channel=0, data=[64, 0])\n",
      "midi.NoteOnEvent(tick=0, channel=0, data=[63, 100])\n",
      "midi.NoteOnEvent(tick=192, channel=0, data=[63, 0])\n",
      "midi.NoteOnEvent(tick=0, channel=0, data=[71, 100])\n",
      "midi.NoteOnEvent(tick=192, channel=0, data=[71, 0])\n",
      "midi.NoteOnEvent(tick=0, channel=0, data=[67, 100])\n",
      "midi.NoteOnEvent(tick=48, channel=0, data=[67, 0])\n",
      "midi.NoteOnEvent(tick=0, channel=0, data=[69, 100])\n",
      "midi.NoteOnEvent(tick=48, channel=0, data=[69, 0])\n",
      "midi.NoteOnEvent(tick=0, channel=0, data=[67, 100])\n",
      "midi.NoteOnEvent(tick=48, channel=0, data=[67, 0])\n",
      "midi.NoteOnEvent(tick=0, channel=0, data=[69, 100])\n",
      "midi.NoteOnEvent(tick=48, channel=0, data=[69, 0])\n",
      "midi.NoteOnEvent(tick=0, channel=0, data=[66, 100])\n",
      "midi.NoteOnEvent(tick=96, channel=0, data=[66, 0])\n",
      "midi.NoteOnEvent(tick=0, channel=0, data=[64, 100])\n",
      "midi.NoteOnEvent(tick=96, channel=0, data=[64, 0])\n",
      "midi.NoteOnEvent(tick=0, channel=0, data=[64, 100])\n",
      "midi.NoteOnEvent(tick=384, channel=0, data=[64, 0])\n",
      "midi.NoteOnEvent(tick=96, channel=0, data=[76, 100])\n",
      "midi.NoteOnEvent(tick=96, channel=0, data=[76, 0])\n",
      "midi.NoteOnEvent(tick=0, channel=0, data=[75, 100])\n",
      "midi.NoteOnEvent(tick=96, channel=0, data=[75, 0])\n",
      "midi.NoteOnEvent(tick=0, channel=0, data=[76, 100])\n",
      "midi.NoteOnEvent(tick=96, channel=0, data=[76, 0])\n",
      "midi.NoteOnEvent(tick=0, channel=0, data=[81, 100])\n",
      "midi.NoteOnEvent(tick=96, channel=0, data=[81, 0])\n",
      "midi.NoteOnEvent(tick=0, channel=0, data=[80, 100])\n",
      "midi.NoteOnEvent(tick=96, channel=0, data=[80, 0])\n",
      "midi.NoteOnEvent(tick=0, channel=0, data=[81, 100])\n",
      "midi.NoteOnEvent(tick=288, channel=0, data=[81, 0])\n",
      "midi.NoteOnEvent(tick=0, channel=0, data=[76, 100])\n",
      "midi.NoteOnEvent(tick=96, channel=0, data=[76, 0])\n",
      "midi.NoteOnEvent(tick=0, channel=0, data=[75, 100])\n",
      "midi.NoteOnEvent(tick=96, channel=0, data=[75, 0])\n",
      "midi.NoteOnEvent(tick=0, channel=0, data=[76, 100])\n",
      "midi.NoteOnEvent(tick=96, channel=0, data=[76, 0])\n",
      "midi.NoteOnEvent(tick=0, channel=0, data=[84, 100])\n",
      "midi.NoteOnEvent(tick=192, channel=0, data=[84, 0])\n",
      "midi.NoteOnEvent(tick=0, channel=0, data=[83, 100])\n",
      "midi.NoteOnEvent(tick=288, channel=0, data=[83, 0])\n",
      "midi.NoteOnEvent(tick=0, channel=0, data=[76, 100])\n",
      "midi.NoteOnEvent(tick=96, channel=0, data=[76, 0])\n",
      "midi.NoteOnEvent(tick=0, channel=0, data=[74, 100])\n",
      "midi.NoteOnEvent(tick=96, channel=0, data=[74, 0])\n",
      "midi.NoteOnEvent(tick=0, channel=0, data=[76, 100])\n",
      "midi.NoteOnEvent(tick=96, channel=0, data=[76, 0])\n",
      "midi.NoteOnEvent(tick=0, channel=0, data=[83, 100])\n",
      "midi.NoteOnEvent(tick=96, channel=0, data=[83, 0])\n",
      "midi.NoteOnEvent(tick=0, channel=0, data=[81, 100])\n",
      "midi.NoteOnEvent(tick=96, channel=0, data=[81, 0])\n",
      "midi.NoteOnEvent(tick=0, channel=0, data=[83, 100])\n",
      "midi.NoteOnEvent(tick=288, channel=0, data=[83, 0])\n",
      "midi.NoteOnEvent(tick=0, channel=0, data=[76, 100])\n",
      "midi.NoteOnEvent(tick=96, channel=0, data=[76, 0])\n",
      "midi.NoteOnEvent(tick=0, channel=0, data=[74, 100])\n",
      "midi.NoteOnEvent(tick=96, channel=0, data=[74, 0])\n",
      "midi.NoteOnEvent(tick=0, channel=0, data=[76, 100])\n",
      "midi.NoteOnEvent(tick=96, channel=0, data=[76, 0])\n",
      "midi.NoteOnEvent(tick=0, channel=0, data=[86, 100])\n",
      "midi.NoteOnEvent(tick=192, channel=0, data=[86, 0])\n",
      "midi.NoteOnEvent(tick=0, channel=0, data=[84, 100])\n",
      "midi.NoteOnEvent(tick=288, channel=0, data=[84, 0])\n",
      "midi.NoteOnEvent(tick=0, channel=0, data=[76, 100])\n",
      "midi.NoteOnEvent(tick=96, channel=0, data=[76, 0])\n",
      "midi.NoteOnEvent(tick=0, channel=0, data=[74, 100])\n",
      "midi.NoteOnEvent(tick=96, channel=0, data=[74, 0])\n",
      "midi.NoteOnEvent(tick=0, channel=0, data=[76, 100])\n",
      "midi.NoteOnEvent(tick=96, channel=0, data=[76, 0])\n",
      "midi.NoteOnEvent(tick=0, channel=0, data=[84, 100])\n",
      "midi.NoteOnEvent(tick=96, channel=0, data=[84, 0])\n",
      "midi.NoteOnEvent(tick=0, channel=0, data=[83, 100])\n",
      "midi.NoteOnEvent(tick=96, channel=0, data=[83, 0])\n",
      "midi.NoteOnEvent(tick=0, channel=0, data=[81, 100])\n",
      "midi.NoteOnEvent(tick=96, channel=0, data=[81, 0])\n",
      "midi.NoteOnEvent(tick=0, channel=0, data=[79, 100])\n",
      "midi.NoteOnEvent(tick=96, channel=0, data=[79, 0])\n",
      "midi.NoteOnEvent(tick=0, channel=0, data=[77, 100])\n",
      "midi.NoteOnEvent(tick=96, channel=0, data=[77, 0])\n",
      "midi.NoteOnEvent(tick=0, channel=0, data=[74, 100])\n",
      "midi.NoteOnEvent(tick=96, channel=0, data=[74, 0])\n",
      "midi.NoteOnEvent(tick=0, channel=0, data=[72, 100])\n",
      "midi.NoteOnEvent(tick=96, channel=0, data=[72, 0])\n",
      "midi.NoteOnEvent(tick=0, channel=0, data=[74, 100])\n",
      "midi.NoteOnEvent(tick=96, channel=0, data=[74, 0])\n",
      "midi.NoteOnEvent(tick=0, channel=0, data=[83, 100])\n",
      "midi.NoteOnEvent(tick=96, channel=0, data=[83, 0])\n",
      "midi.NoteOnEvent(tick=0, channel=0, data=[81, 100])\n",
      "midi.NoteOnEvent(tick=96, channel=0, data=[81, 0])\n",
      "midi.NoteOnEvent(tick=0, channel=0, data=[79, 100])\n",
      "midi.NoteOnEvent(tick=96, channel=0, data=[79, 0])\n",
      "midi.NoteOnEvent(tick=0, channel=0, data=[77, 100])\n",
      "midi.NoteOnEvent(tick=96, channel=0, data=[77, 0])\n",
      "midi.NoteOnEvent(tick=0, channel=0, data=[76, 100])\n",
      "midi.NoteOnEvent(tick=96, channel=0, data=[76, 0])\n",
      "midi.NoteOnEvent(tick=0, channel=0, data=[72, 100])\n",
      "midi.NoteOnEvent(tick=96, channel=0, data=[72, 0])\n",
      "midi.NoteOnEvent(tick=0, channel=0, data=[71, 100])\n",
      "midi.NoteOnEvent(tick=96, channel=0, data=[71, 0])\n",
      "midi.NoteOnEvent(tick=0, channel=0, data=[72, 100])\n",
      "midi.NoteOnEvent(tick=96, channel=0, data=[72, 0])\n",
      "midi.NoteOnEvent(tick=0, channel=0, data=[81, 100])\n",
      "midi.NoteOnEvent(tick=96, channel=0, data=[81, 0])\n",
      "midi.NoteOnEvent(tick=0, channel=0, data=[79, 100])\n",
      "midi.NoteOnEvent(tick=96, channel=0, data=[79, 0])\n",
      "midi.NoteOnEvent(tick=0, channel=0, data=[77, 100])\n",
      "midi.NoteOnEvent(tick=96, channel=0, data=[77, 0])\n",
      "midi.NoteOnEvent(tick=0, channel=0, data=[76, 100])\n",
      "midi.NoteOnEvent(tick=96, channel=0, data=[76, 0])\n",
      "midi.NoteOnEvent(tick=0, channel=0, data=[74, 100])\n",
      "midi.NoteOnEvent(tick=96, channel=0, data=[74, 0])\n",
      "midi.NoteOnEvent(tick=0, channel=0, data=[71, 100])\n",
      "midi.NoteOnEvent(tick=96, channel=0, data=[71, 0])\n",
      "midi.NoteOnEvent(tick=0, channel=0, data=[69, 100])\n",
      "midi.NoteOnEvent(tick=96, channel=0, data=[69, 0])\n",
      "midi.NoteOnEvent(tick=0, channel=0, data=[71, 100])\n",
      "midi.NoteOnEvent(tick=96, channel=0, data=[71, 0])\n",
      "midi.NoteOnEvent(tick=0, channel=0, data=[80, 100])\n",
      "midi.NoteOnEvent(tick=96, channel=0, data=[80, 0])\n",
      "midi.NoteOnEvent(tick=0, channel=0, data=[81, 100])\n",
      "midi.NoteOnEvent(tick=96, channel=0, data=[81, 0])\n",
      "midi.NoteOnEvent(tick=0, channel=0, data=[80, 100])\n",
      "midi.NoteOnEvent(tick=96, channel=0, data=[80, 0])\n",
      "midi.NoteOnEvent(tick=0, channel=0, data=[78, 100])\n",
      "midi.NoteOnEvent(tick=96, channel=0, data=[78, 0])\n",
      "midi.NoteOnEvent(tick=0, channel=0, data=[76, 100])\n",
      "midi.NoteOnEvent(tick=96, channel=0, data=[76, 0])\n",
      "midi.NoteOnEvent(tick=0, channel=0, data=[74, 100])\n",
      "midi.NoteOnEvent(tick=96, channel=0, data=[74, 0])\n",
      "midi.NoteOnEvent(tick=0, channel=0, data=[72, 100])\n",
      "midi.NoteOnEvent(tick=96, channel=0, data=[72, 0])\n",
      "midi.NoteOnEvent(tick=0, channel=0, data=[71, 100])\n",
      "midi.NoteOnEvent(tick=96, channel=0, data=[71, 0])\n",
      "midi.NoteOnEvent(tick=0, channel=0, data=[72, 100])\n",
      "midi.NoteOnEvent(tick=96, channel=0, data=[72, 0])\n",
      "midi.NoteOnEvent(tick=0, channel=0, data=[74, 100])\n",
      "midi.NoteOnEvent(tick=96, channel=0, data=[74, 0])\n",
      "midi.NoteOnEvent(tick=0, channel=0, data=[72, 100])\n",
      "midi.NoteOnEvent(tick=96, channel=0, data=[72, 0])\n",
      "midi.NoteOnEvent(tick=0, channel=0, data=[71, 100])\n",
      "midi.NoteOnEvent(tick=96, channel=0, data=[71, 0])\n",
      "midi.NoteOnEvent(tick=0, channel=0, data=[69, 100])\n",
      "midi.NoteOnEvent(tick=96, channel=0, data=[69, 0])\n",
      "midi.NoteOnEvent(tick=0, channel=0, data=[81, 100])\n",
      "midi.NoteOnEvent(tick=96, channel=0, data=[81, 0])\n",
      "midi.NoteOnEvent(tick=0, channel=0, data=[76, 100])\n",
      "midi.NoteOnEvent(tick=96, channel=0, data=[76, 0])\n",
      "midi.NoteOnEvent(tick=0, channel=0, data=[79, 100])\n",
      "midi.NoteOnEvent(tick=96, channel=0, data=[79, 0])\n",
      "midi.NoteOnEvent(tick=0, channel=0, data=[77, 100])\n",
      "midi.NoteOnEvent(tick=96, channel=0, data=[77, 0])\n",
      "midi.NoteOnEvent(tick=0, channel=0, data=[79, 100])\n",
      "midi.NoteOnEvent(tick=96, channel=0, data=[79, 0])\n",
      "midi.NoteOnEvent(tick=0, channel=0, data=[77, 100])\n",
      "midi.NoteOnEvent(tick=96, channel=0, data=[77, 0])\n",
      "midi.NoteOnEvent(tick=0, channel=0, data=[76, 100])\n",
      "midi.NoteOnEvent(tick=96, channel=0, data=[76, 0])\n",
      "midi.NoteOnEvent(tick=0, channel=0, data=[74, 100])\n",
      "midi.NoteOnEvent(tick=96, channel=0, data=[74, 0])\n",
      "midi.NoteOnEvent(tick=0, channel=0, data=[72, 100])\n",
      "midi.NoteOnEvent(tick=96, channel=0, data=[72, 0])\n",
      "midi.NoteOnEvent(tick=0, channel=0, data=[71, 100])\n",
      "midi.NoteOnEvent(tick=96, channel=0, data=[71, 0])\n",
      "midi.NoteOnEvent(tick=0, channel=0, data=[69, 100])\n",
      "midi.NoteOnEvent(tick=96, channel=0, data=[69, 0])\n",
      "midi.NoteOnEvent(tick=0, channel=0, data=[71, 100])\n",
      "midi.NoteOnEvent(tick=96, channel=0, data=[71, 0])\n",
      "midi.NoteOnEvent(tick=0, channel=0, data=[72, 100])\n",
      "midi.NoteOnEvent(tick=96, channel=0, data=[72, 0])\n",
      "midi.NoteOnEvent(tick=0, channel=0, data=[71, 100])\n",
      "midi.NoteOnEvent(tick=96, channel=0, data=[71, 0])\n",
      "midi.NoteOnEvent(tick=0, channel=0, data=[69, 100])\n",
      "midi.NoteOnEvent(tick=96, channel=0, data=[69, 0])\n",
      "midi.NoteOnEvent(tick=0, channel=0, data=[67, 100])\n",
      "midi.NoteOnEvent(tick=96, channel=0, data=[67, 0])\n",
      "midi.NoteOnEvent(tick=0, channel=0, data=[79, 100])\n",
      "midi.NoteOnEvent(tick=96, channel=0, data=[79, 0])\n",
      "midi.NoteOnEvent(tick=0, channel=0, data=[74, 100])\n",
      "midi.NoteOnEvent(tick=96, channel=0, data=[74, 0])\n",
      "midi.NoteOnEvent(tick=0, channel=0, data=[77, 100])\n",
      "midi.NoteOnEvent(tick=96, channel=0, data=[77, 0])\n",
      "midi.NoteOnEvent(tick=0, channel=0, data=[76, 100])\n",
      "midi.NoteOnEvent(tick=96, channel=0, data=[76, 0])\n",
      "midi.NoteOnEvent(tick=0, channel=0, data=[77, 100])\n",
      "midi.NoteOnEvent(tick=96, channel=0, data=[77, 0])\n",
      "midi.NoteOnEvent(tick=0, channel=0, data=[76, 100])\n",
      "midi.NoteOnEvent(tick=96, channel=0, data=[76, 0])\n",
      "midi.NoteOnEvent(tick=0, channel=0, data=[74, 100])\n",
      "midi.NoteOnEvent(tick=96, channel=0, data=[74, 0])\n",
      "midi.NoteOnEvent(tick=0, channel=0, data=[72, 100])\n",
      "midi.NoteOnEvent(tick=96, channel=0, data=[72, 0])\n",
      "midi.NoteOnEvent(tick=0, channel=0, data=[71, 100])\n",
      "midi.NoteOnEvent(tick=96, channel=0, data=[71, 0])\n",
      "midi.NoteOnEvent(tick=0, channel=0, data=[69, 100])\n",
      "midi.NoteOnEvent(tick=96, channel=0, data=[69, 0])\n",
      "midi.NoteOnEvent(tick=0, channel=0, data=[67, 100])\n",
      "midi.NoteOnEvent(tick=96, channel=0, data=[67, 0])\n",
      "midi.NoteOnEvent(tick=0, channel=0, data=[69, 100])\n",
      "midi.NoteOnEvent(tick=96, channel=0, data=[69, 0])\n",
      "midi.NoteOnEvent(tick=0, channel=0, data=[70, 100])\n",
      "midi.NoteOnEvent(tick=96, channel=0, data=[70, 0])\n",
      "midi.NoteOnEvent(tick=0, channel=0, data=[69, 100])\n",
      "midi.NoteOnEvent(tick=96, channel=0, data=[69, 0])\n",
      "midi.NoteOnEvent(tick=0, channel=0, data=[67, 100])\n",
      "midi.NoteOnEvent(tick=96, channel=0, data=[67, 0])\n",
      "midi.NoteOnEvent(tick=0, channel=0, data=[65, 100])\n",
      "midi.NoteOnEvent(tick=96, channel=0, data=[65, 0])\n",
      "midi.NoteOnEvent(tick=0, channel=0, data=[77, 100])\n",
      "midi.NoteOnEvent(tick=96, channel=0, data=[77, 0])\n",
      "midi.NoteOnEvent(tick=0, channel=0, data=[72, 100])\n",
      "midi.NoteOnEvent(tick=96, channel=0, data=[72, 0])\n",
      "midi.NoteOnEvent(tick=0, channel=0, data=[76, 100])\n",
      "midi.NoteOnEvent(tick=96, channel=0, data=[76, 0])\n",
      "midi.NoteOnEvent(tick=0, channel=0, data=[74, 100])\n",
      "midi.NoteOnEvent(tick=96, channel=0, data=[74, 0])\n",
      "midi.NoteOnEvent(tick=0, channel=0, data=[76, 100])\n",
      "midi.NoteOnEvent(tick=96, channel=0, data=[76, 0])\n",
      "midi.NoteOnEvent(tick=0, channel=0, data=[74, 100])\n",
      "midi.NoteOnEvent(tick=96, channel=0, data=[74, 0])\n",
      "midi.NoteOnEvent(tick=0, channel=0, data=[72, 100])\n",
      "midi.NoteOnEvent(tick=96, channel=0, data=[72, 0])\n",
      "midi.NoteOnEvent(tick=0, channel=0, data=[71, 100])\n",
      "midi.NoteOnEvent(tick=96, channel=0, data=[71, 0])\n",
      "midi.NoteOnEvent(tick=0, channel=0, data=[69, 100])\n",
      "midi.NoteOnEvent(tick=96, channel=0, data=[69, 0])\n",
      "midi.NoteOnEvent(tick=0, channel=0, data=[68, 100])\n",
      "midi.NoteOnEvent(tick=96, channel=0, data=[68, 0])\n",
      "midi.NoteOnEvent(tick=0, channel=0, data=[66, 100])\n",
      "midi.NoteOnEvent(tick=96, channel=0, data=[66, 0])\n",
      "midi.NoteOnEvent(tick=0, channel=0, data=[68, 100])\n",
      "midi.NoteOnEvent(tick=96, channel=0, data=[68, 0])\n",
      "midi.NoteOnEvent(tick=0, channel=0, data=[69, 100])\n",
      "midi.NoteOnEvent(tick=96, channel=0, data=[69, 0])\n",
      "midi.NoteOnEvent(tick=0, channel=0, data=[68, 100])\n",
      "midi.NoteOnEvent(tick=96, channel=0, data=[68, 0])\n",
      "midi.NoteOnEvent(tick=0, channel=0, data=[66, 100])\n",
      "midi.NoteOnEvent(tick=96, channel=0, data=[66, 0])\n",
      "midi.NoteOnEvent(tick=0, channel=0, data=[64, 100])\n",
      "midi.NoteOnEvent(tick=96, channel=0, data=[64, 0])\n",
      "midi.NoteOnEvent(tick=0, channel=0, data=[76, 100])\n",
      "midi.NoteOnEvent(tick=96, channel=0, data=[76, 0])\n",
      "midi.NoteOnEvent(tick=0, channel=0, data=[71, 100])\n",
      "midi.NoteOnEvent(tick=96, channel=0, data=[71, 0])\n",
      "midi.NoteOnEvent(tick=0, channel=0, data=[74, 100])\n",
      "midi.NoteOnEvent(tick=96, channel=0, data=[74, 0])\n",
      "midi.NoteOnEvent(tick=0, channel=0, data=[72, 100])\n",
      "midi.NoteOnEvent(tick=96, channel=0, data=[72, 0])\n",
      "midi.NoteOnEvent(tick=0, channel=0, data=[74, 100])\n",
      "midi.NoteOnEvent(tick=96, channel=0, data=[74, 0])\n",
      "midi.NoteOnEvent(tick=0, channel=0, data=[72, 100])\n",
      "midi.NoteOnEvent(tick=96, channel=0, data=[72, 0])\n",
      "midi.NoteOnEvent(tick=0, channel=0, data=[71, 100])\n",
      "midi.NoteOnEvent(tick=96, channel=0, data=[71, 0])\n",
      "midi.NoteOnEvent(tick=0, channel=0, data=[69, 100])\n",
      "midi.NoteOnEvent(tick=96, channel=0, data=[69, 0])\n",
      "midi.NoteOnEvent(tick=0, channel=0, data=[81, 100])\n",
      "midi.NoteOnEvent(tick=96, channel=0, data=[81, 0])\n",
      "midi.NoteOnEvent(tick=0, channel=0, data=[76, 100])\n",
      "midi.NoteOnEvent(tick=96, channel=0, data=[76, 0])\n",
      "midi.NoteOnEvent(tick=0, channel=0, data=[79, 100])\n",
      "midi.NoteOnEvent(tick=96, channel=0, data=[79, 0])\n",
      "midi.NoteOnEvent(tick=0, channel=0, data=[77, 100])\n",
      "midi.NoteOnEvent(tick=96, channel=0, data=[77, 0])\n",
      "midi.NoteOnEvent(tick=0, channel=0, data=[79, 100])\n",
      "midi.NoteOnEvent(tick=96, channel=0, data=[79, 0])\n",
      "midi.NoteOnEvent(tick=0, channel=0, data=[77, 100])\n",
      "midi.NoteOnEvent(tick=96, channel=0, data=[77, 0])\n",
      "midi.NoteOnEvent(tick=0, channel=0, data=[76, 100])\n",
      "midi.NoteOnEvent(tick=96, channel=0, data=[76, 0])\n",
      "midi.NoteOnEvent(tick=0, channel=0, data=[74, 100])\n",
      "midi.NoteOnEvent(tick=96, channel=0, data=[74, 0])\n",
      "midi.NoteOnEvent(tick=0, channel=0, data=[77, 100])\n",
      "midi.NoteOnEvent(tick=96, channel=0, data=[77, 0])\n",
      "midi.NoteOnEvent(tick=0, channel=0, data=[71, 100])\n",
      "midi.NoteOnEvent(tick=96, channel=0, data=[71, 0])\n",
      "midi.NoteOnEvent(tick=0, channel=0, data=[74, 100])\n",
      "midi.NoteOnEvent(tick=96, channel=0, data=[74, 0])\n",
      "midi.NoteOnEvent(tick=0, channel=0, data=[76, 100])\n",
      "midi.NoteOnEvent(tick=96, channel=0, data=[76, 0])\n",
      "midi.NoteOnEvent(tick=0, channel=0, data=[74, 100])\n",
      "midi.NoteOnEvent(tick=96, channel=0, data=[74, 0])\n",
      "midi.NoteOnEvent(tick=0, channel=0, data=[72, 100])\n",
      "midi.NoteOnEvent(tick=96, channel=0, data=[72, 0])\n",
      "midi.NoteOnEvent(tick=0, channel=0, data=[76, 100])\n",
      "midi.NoteOnEvent(tick=96, channel=0, data=[76, 0])\n",
      "midi.NoteOnEvent(tick=0, channel=0, data=[74, 100])\n",
      "midi.NoteOnEvent(tick=96, channel=0, data=[74, 0])\n",
      "midi.NoteOnEvent(tick=0, channel=0, data=[72, 100])\n",
      "midi.NoteOnEvent(tick=96, channel=0, data=[72, 0])\n",
      "midi.NoteOnEvent(tick=0, channel=0, data=[71, 100])\n",
      "midi.NoteOnEvent(tick=96, channel=0, data=[71, 0])\n",
      "midi.NoteOnEvent(tick=0, channel=0, data=[74, 100])\n",
      "midi.NoteOnEvent(tick=96, channel=0, data=[74, 0])\n",
      "midi.NoteOnEvent(tick=0, channel=0, data=[72, 100])\n",
      "midi.NoteOnEvent(tick=192, channel=0, data=[72, 0])\n",
      "midi.NoteOnEvent(tick=0, channel=0, data=[69, 100])\n",
      "midi.NoteOnEvent(tick=192, channel=0, data=[69, 0])\n",
      "midi.NoteOnEvent(tick=96, channel=0, data=[64, 100])\n",
      "midi.NoteOnEvent(tick=96, channel=0, data=[64, 0])\n",
      "midi.NoteOnEvent(tick=0, channel=0, data=[69, 100])\n",
      "midi.NoteOnEvent(tick=96, channel=0, data=[69, 0])\n",
      "midi.NoteOnEvent(tick=0, channel=0, data=[72, 100])\n",
      "midi.NoteOnEvent(tick=96, channel=0, data=[72, 0])\n",
      "midi.NoteOnEvent(tick=0, channel=0, data=[77, 100])\n",
      "midi.NoteOnEvent(tick=48, channel=0, data=[77, 0])\n",
      "midi.NoteOnEvent(tick=0, channel=0, data=[79, 100])\n",
      "midi.NoteOnEvent(tick=48, channel=0, data=[79, 0])\n",
      "midi.NoteOnEvent(tick=0, channel=0, data=[81, 100])\n",
      "midi.NoteOnEvent(tick=192, channel=0, data=[81, 0])\n",
      "midi.NoteOnEvent(tick=0, channel=0, data=[77, 100])\n",
      "midi.NoteOnEvent(tick=96, channel=0, data=[77, 0])\n",
      "midi.NoteOnEvent(tick=0, channel=0, data=[75, 100])\n",
      "midi.NoteOnEvent(tick=48, channel=0, data=[75, 0])\n",
      "midi.NoteOnEvent(tick=0, channel=0, data=[76, 100])\n",
      "midi.NoteOnEvent(tick=48, channel=0, data=[76, 0])\n",
      "midi.NoteOnEvent(tick=0, channel=0, data=[78, 100])\n",
      "midi.NoteOnEvent(tick=192, channel=0, data=[78, 0])\n",
      "midi.NoteOnEvent(tick=0, channel=0, data=[75, 100])\n",
      "midi.NoteOnEvent(tick=96, channel=0, data=[75, 0])\n",
      "midi.NoteOnEvent(tick=0, channel=0, data=[76, 100])\n",
      "midi.NoteOnEvent(tick=96, channel=0, data=[76, 0])\n",
      "midi.NoteOnEvent(tick=0, channel=0, data=[71, 100])\n",
      "midi.NoteOnEvent(tick=96, channel=0, data=[71, 0])\n",
      "midi.NoteOnEvent(tick=0, channel=0, data=[67, 100])\n",
      "midi.NoteOnEvent(tick=96, channel=0, data=[67, 0])\n",
      "midi.NoteOnEvent(tick=0, channel=0, data=[64, 100])\n",
      "midi.NoteOnEvent(tick=96, channel=0, data=[64, 0])\n",
      "midi.NoteOnEvent(tick=0, channel=0, data=[63, 100])\n",
      "midi.NoteOnEvent(tick=96, channel=0, data=[63, 0])\n",
      "midi.NoteOnEvent(tick=0, channel=0, data=[64, 100])\n",
      "midi.NoteOnEvent(tick=96, channel=0, data=[64, 0])\n",
      "midi.NoteOnEvent(tick=0, channel=0, data=[67, 100])\n",
      "midi.NoteOnEvent(tick=96, channel=0, data=[67, 0])\n",
      "midi.NoteOnEvent(tick=0, channel=0, data=[71, 100])\n",
      "midi.NoteOnEvent(tick=96, channel=0, data=[71, 0])\n",
      "midi.NoteOnEvent(tick=0, channel=0, data=[76, 100])\n",
      "midi.NoteOnEvent(tick=48, channel=0, data=[76, 0])\n",
      "midi.NoteOnEvent(tick=0, channel=0, data=[77, 100])\n",
      "midi.NoteOnEvent(tick=48, channel=0, data=[77, 0])\n",
      "midi.NoteOnEvent(tick=0, channel=0, data=[79, 100])\n",
      "midi.NoteOnEvent(tick=192, channel=0, data=[79, 0])\n",
      "midi.NoteOnEvent(tick=0, channel=0, data=[76, 100])\n",
      "midi.NoteOnEvent(tick=96, channel=0, data=[76, 0])\n",
      "midi.NoteOnEvent(tick=0, channel=0, data=[73, 100])\n",
      "midi.NoteOnEvent(tick=48, channel=0, data=[73, 0])\n",
      "midi.NoteOnEvent(tick=0, channel=0, data=[74, 100])\n",
      "midi.NoteOnEvent(tick=48, channel=0, data=[74, 0])\n",
      "midi.NoteOnEvent(tick=0, channel=0, data=[76, 100])\n",
      "midi.NoteOnEvent(tick=192, channel=0, data=[76, 0])\n",
      "midi.NoteOnEvent(tick=0, channel=0, data=[73, 100])\n",
      "midi.NoteOnEvent(tick=96, channel=0, data=[73, 0])\n",
      "midi.NoteOnEvent(tick=0, channel=0, data=[74, 100])\n",
      "midi.NoteOnEvent(tick=96, channel=0, data=[74, 0])\n",
      "midi.NoteOnEvent(tick=0, channel=0, data=[69, 100])\n",
      "midi.NoteOnEvent(tick=96, channel=0, data=[69, 0])\n",
      "midi.NoteOnEvent(tick=0, channel=0, data=[65, 100])\n",
      "midi.NoteOnEvent(tick=96, channel=0, data=[65, 0])\n",
      "midi.NoteOnEvent(tick=0, channel=0, data=[62, 100])\n",
      "midi.NoteOnEvent(tick=96, channel=0, data=[62, 0])\n",
      "midi.NoteOnEvent(tick=0, channel=0, data=[61, 100])\n",
      "midi.NoteOnEvent(tick=96, channel=0, data=[61, 0])\n",
      "midi.NoteOnEvent(tick=0, channel=0, data=[62, 100])\n",
      "midi.NoteOnEvent(tick=96, channel=0, data=[62, 0])\n",
      "midi.NoteOnEvent(tick=0, channel=0, data=[65, 100])\n",
      "midi.NoteOnEvent(tick=96, channel=0, data=[65, 0])\n",
      "midi.NoteOnEvent(tick=0, channel=0, data=[69, 100])\n",
      "midi.NoteOnEvent(tick=96, channel=0, data=[69, 0])\n",
      "midi.NoteOnEvent(tick=0, channel=0, data=[74, 100])\n",
      "midi.NoteOnEvent(tick=48, channel=0, data=[74, 0])\n",
      "midi.NoteOnEvent(tick=0, channel=0, data=[76, 100])\n",
      "midi.NoteOnEvent(tick=48, channel=0, data=[76, 0])\n",
      "midi.NoteOnEvent(tick=0, channel=0, data=[77, 100])\n",
      "midi.NoteOnEvent(tick=192, channel=0, data=[77, 0])\n",
      "midi.NoteOnEvent(tick=0, channel=0, data=[74, 100])\n",
      "midi.NoteOnEvent(tick=96, channel=0, data=[74, 0])\n",
      "midi.NoteOnEvent(tick=0, channel=0, data=[71, 100])\n",
      "midi.NoteOnEvent(tick=48, channel=0, data=[71, 0])\n",
      "midi.NoteOnEvent(tick=0, channel=0, data=[72, 100])\n",
      "midi.NoteOnEvent(tick=48, channel=0, data=[72, 0])\n",
      "midi.NoteOnEvent(tick=0, channel=0, data=[74, 100])\n",
      "midi.NoteOnEvent(tick=192, channel=0, data=[74, 0])\n",
      "midi.NoteOnEvent(tick=0, channel=0, data=[71, 100])\n",
      "midi.NoteOnEvent(tick=96, channel=0, data=[71, 0])\n",
      "midi.NoteOnEvent(tick=0, channel=0, data=[72, 100])\n",
      "midi.NoteOnEvent(tick=96, channel=0, data=[72, 0])\n",
      "midi.NoteOnEvent(tick=0, channel=0, data=[67, 100])\n",
      "midi.NoteOnEvent(tick=96, channel=0, data=[67, 0])\n",
      "midi.NoteOnEvent(tick=0, channel=0, data=[69, 100])\n",
      "midi.NoteOnEvent(tick=96, channel=0, data=[69, 0])\n",
      "midi.NoteOnEvent(tick=0, channel=0, data=[71, 100])\n",
      "midi.NoteOnEvent(tick=96, channel=0, data=[71, 0])\n",
      "midi.NoteOnEvent(tick=0, channel=0, data=[72, 100])\n",
      "midi.NoteOnEvent(tick=96, channel=0, data=[72, 0])\n",
      "midi.NoteOnEvent(tick=0, channel=0, data=[67, 100])\n",
      "midi.NoteOnEvent(tick=96, channel=0, data=[67, 0])\n",
      "midi.NoteOnEvent(tick=0, channel=0, data=[74, 100])\n",
      "midi.NoteOnEvent(tick=96, channel=0, data=[74, 0])\n",
      "midi.NoteOnEvent(tick=0, channel=0, data=[67, 100])\n",
      "midi.NoteOnEvent(tick=96, channel=0, data=[67, 0])\n",
      "midi.NoteOnEvent(tick=0, channel=0, data=[76, 100])\n",
      "midi.NoteOnEvent(tick=96, channel=0, data=[76, 0])\n",
      "midi.NoteOnEvent(tick=0, channel=0, data=[71, 100])\n",
      "midi.NoteOnEvent(tick=96, channel=0, data=[71, 0])\n",
      "midi.NoteOnEvent(tick=0, channel=0, data=[72, 100])\n",
      "midi.NoteOnEvent(tick=96, channel=0, data=[72, 0])\n",
      "midi.NoteOnEvent(tick=0, channel=0, data=[74, 100])\n",
      "midi.NoteOnEvent(tick=96, channel=0, data=[74, 0])\n",
      "midi.NoteOnEvent(tick=0, channel=0, data=[76, 100])\n",
      "midi.NoteOnEvent(tick=96, channel=0, data=[76, 0])\n",
      "midi.NoteOnEvent(tick=0, channel=0, data=[72, 100])\n",
      "midi.NoteOnEvent(tick=96, channel=0, data=[72, 0])\n",
      "midi.NoteOnEvent(tick=0, channel=0, data=[78, 100])\n",
      "midi.NoteOnEvent(tick=96, channel=0, data=[78, 0])\n",
      "midi.NoteOnEvent(tick=0, channel=0, data=[72, 100])\n",
      "midi.NoteOnEvent(tick=96, channel=0, data=[72, 0])\n",
      "midi.NoteOnEvent(tick=0, channel=0, data=[79, 100])\n",
      "midi.NoteOnEvent(tick=96, channel=0, data=[79, 0])\n",
      "midi.NoteOnEvent(tick=0, channel=0, data=[67, 100])\n",
      "midi.NoteOnEvent(tick=96, channel=0, data=[67, 0])\n",
      "midi.NoteOnEvent(tick=0, channel=0, data=[71, 100])\n",
      "midi.NoteOnEvent(tick=96, channel=0, data=[71, 0])\n",
      "midi.NoteOnEvent(tick=0, channel=0, data=[74, 100])\n",
      "midi.NoteOnEvent(tick=96, channel=0, data=[74, 0])\n",
      "midi.NoteOnEvent(tick=0, channel=0, data=[79, 100])\n",
      "midi.NoteOnEvent(tick=480, channel=0, data=[79, 0])\n",
      "midi.NoteOnEvent(tick=0, channel=0, data=[72, 100])\n",
      "midi.NoteOnEvent(tick=96, channel=0, data=[72, 0])\n",
      "midi.NoteOnEvent(tick=0, channel=0, data=[76, 100])\n",
      "midi.NoteOnEvent(tick=96, channel=0, data=[76, 0])\n",
      "midi.NoteOnEvent(tick=0, channel=0, data=[79, 100])\n",
      "midi.NoteOnEvent(tick=96, channel=0, data=[79, 0])\n",
      "midi.NoteOnEvent(tick=0, channel=0, data=[84, 100])\n",
      "midi.NoteOnEvent(tick=480, channel=0, data=[84, 0])\n",
      "midi.NoteOnEvent(tick=0, channel=0, data=[72, 100])\n",
      "midi.NoteOnEvent(tick=96, channel=0, data=[72, 0])\n",
      "midi.NoteOnEvent(tick=0, channel=0, data=[76, 100])\n",
      "midi.NoteOnEvent(tick=96, channel=0, data=[76, 0])\n",
      "midi.NoteOnEvent(tick=0, channel=0, data=[79, 100])\n",
      "midi.NoteOnEvent(tick=96, channel=0, data=[79, 0])\n",
      "midi.NoteOnEvent(tick=0, channel=0, data=[84, 100])\n",
      "midi.NoteOnEvent(tick=576, channel=0, data=[84, 0])\n",
      "midi.NoteOnEvent(tick=0, channel=0, data=[72, 100])\n",
      "midi.NoteOnEvent(tick=192, channel=0, data=[72, 0])\n",
      "midi.NoteOnEvent(tick=0, channel=0, data=[74, 100])\n",
      "midi.NoteOnEvent(tick=192, channel=0, data=[74, 0])\n",
      "midi.NoteOnEvent(tick=0, channel=0, data=[83, 100])\n",
      "midi.NoteOnEvent(tick=192, channel=0, data=[83, 0])\n",
      "midi.NoteOnEvent(tick=0, channel=0, data=[84, 100])\n",
      "midi.NoteOnEvent(tick=96, channel=0, data=[84, 0])\n",
      "midi.NoteOnEvent(tick=0, channel=0, data=[79, 100])\n",
      "midi.NoteOnEvent(tick=96, channel=0, data=[79, 0])\n",
      "midi.NoteOnEvent(tick=0, channel=0, data=[76, 100])\n",
      "midi.NoteOnEvent(tick=96, channel=0, data=[76, 0])\n",
      "midi.NoteOnEvent(tick=0, channel=0, data=[72, 100])\n",
      "midi.NoteOnEvent(tick=96, channel=0, data=[72, 0])\n",
      "midi.NoteOnEvent(tick=0, channel=0, data=[60, 100])\n",
      "midi.NoteOnEvent(tick=96, channel=0, data=[60, 0])\n",
      "midi.NoteOnEvent(tick=0, channel=0, data=[72, 100])\n",
      "midi.NoteOnEvent(tick=96, channel=0, data=[72, 0])\n",
      "midi.NoteOnEvent(tick=0, channel=0, data=[71, 100])\n",
      "midi.NoteOnEvent(tick=96, channel=0, data=[71, 0])\n",
      "midi.NoteOnEvent(tick=0, channel=0, data=[72, 100])\n",
      "midi.NoteOnEvent(tick=96, channel=0, data=[72, 0])\n",
      "midi.NoteOnEvent(tick=0, channel=0, data=[74, 100])\n",
      "midi.NoteOnEvent(tick=96, channel=0, data=[74, 0])\n",
      "midi.NoteOnEvent(tick=0, channel=0, data=[72, 100])\n",
      "midi.NoteOnEvent(tick=96, channel=0, data=[72, 0])\n",
      "midi.NoteOnEvent(tick=0, channel=0, data=[71, 100])\n",
      "midi.NoteOnEvent(tick=96, channel=0, data=[71, 0])\n",
      "midi.NoteOnEvent(tick=0, channel=0, data=[72, 100])\n",
      "midi.NoteOnEvent(tick=96, channel=0, data=[72, 0])\n",
      "midi.NoteOnEvent(tick=0, channel=0, data=[76, 100])\n",
      "midi.NoteOnEvent(tick=96, channel=0, data=[76, 0])\n",
      "midi.NoteOnEvent(tick=0, channel=0, data=[72, 100])\n",
      "midi.NoteOnEvent(tick=96, channel=0, data=[72, 0])\n",
      "midi.NoteOnEvent(tick=0, channel=0, data=[71, 100])\n",
      "midi.NoteOnEvent(tick=96, channel=0, data=[71, 0])\n",
      "midi.NoteOnEvent(tick=0, channel=0, data=[72, 100])\n",
      "midi.NoteOnEvent(tick=96, channel=0, data=[72, 0])\n",
      "midi.NoteOnEvent(tick=0, channel=0, data=[77, 100])\n",
      "midi.NoteOnEvent(tick=96, channel=0, data=[77, 0])\n",
      "midi.NoteOnEvent(tick=0, channel=0, data=[72, 100])\n",
      "midi.NoteOnEvent(tick=96, channel=0, data=[72, 0])\n",
      "midi.NoteOnEvent(tick=0, channel=0, data=[71, 100])\n",
      "midi.NoteOnEvent(tick=96, channel=0, data=[71, 0])\n",
      "midi.NoteOnEvent(tick=0, channel=0, data=[72, 100])\n",
      "midi.NoteOnEvent(tick=96, channel=0, data=[72, 0])\n",
      "midi.NoteOnEvent(tick=0, channel=0, data=[79, 100])\n",
      "midi.NoteOnEvent(tick=96, channel=0, data=[79, 0])\n",
      "midi.NoteOnEvent(tick=0, channel=0, data=[72, 100])\n",
      "midi.NoteOnEvent(tick=96, channel=0, data=[72, 0])\n",
      "midi.NoteOnEvent(tick=0, channel=0, data=[71, 100])\n",
      "midi.NoteOnEvent(tick=96, channel=0, data=[71, 0])\n",
      "midi.NoteOnEvent(tick=0, channel=0, data=[72, 100])\n",
      "midi.NoteOnEvent(tick=96, channel=0, data=[72, 0])\n",
      "midi.NoteOnEvent(tick=0, channel=0, data=[81, 100])\n",
      "midi.NoteOnEvent(tick=96, channel=0, data=[81, 0])\n",
      "midi.NoteOnEvent(tick=0, channel=0, data=[82, 100])\n",
      "midi.NoteOnEvent(tick=96, channel=0, data=[82, 0])\n",
      "midi.NoteOnEvent(tick=0, channel=0, data=[81, 100])\n",
      "midi.NoteOnEvent(tick=96, channel=0, data=[81, 0])\n",
      "midi.NoteOnEvent(tick=0, channel=0, data=[79, 100])\n",
      "midi.NoteOnEvent(tick=96, channel=0, data=[79, 0])\n",
      "midi.NoteOnEvent(tick=0, channel=0, data=[77, 100])\n",
      "midi.NoteOnEvent(tick=96, channel=0, data=[77, 0])\n",
      "midi.NoteOnEvent(tick=0, channel=0, data=[76, 100])\n",
      "midi.NoteOnEvent(tick=96, channel=0, data=[76, 0])\n",
      "midi.NoteOnEvent(tick=0, channel=0, data=[74, 100])\n",
      "midi.NoteOnEvent(tick=96, channel=0, data=[74, 0])\n",
      "midi.NoteOnEvent(tick=0, channel=0, data=[72, 100])\n",
      "midi.NoteOnEvent(tick=96, channel=0, data=[72, 0])\n",
      "midi.NoteOnEvent(tick=0, channel=0, data=[71, 100])\n",
      "midi.NoteOnEvent(tick=192, channel=0, data=[71, 0])\n",
      "midi.NoteOnEvent(tick=0, channel=0, data=[67, 100])\n",
      "midi.NoteOnEvent(tick=192, channel=0, data=[67, 0])\n",
      "midi.NoteOnEvent(tick=0, channel=0, data=[83, 100])\n",
      "midi.NoteOnEvent(tick=576, channel=0, data=[83, 0])\n",
      "midi.NoteOnEvent(tick=0, channel=0, data=[81, 100])\n",
      "midi.NoteOnEvent(tick=96, channel=0, data=[81, 0])\n",
      "midi.NoteOnEvent(tick=0, channel=0, data=[80, 100])\n",
      "midi.NoteOnEvent(tick=96, channel=0, data=[80, 0])\n",
      "midi.NoteOnEvent(tick=0, channel=0, data=[81, 100])\n",
      "midi.NoteOnEvent(tick=192, channel=0, data=[81, 0])\n",
      "midi.NoteOnEvent(tick=0, channel=0, data=[84, 100])\n",
      "midi.NoteOnEvent(tick=384, channel=0, data=[84, 0])\n",
      "midi.NoteOnEvent(tick=0, channel=0, data=[78, 100])\n",
      "midi.NoteOnEvent(tick=96, channel=0, data=[78, 0])\n",
      "midi.NoteOnEvent(tick=0, channel=0, data=[79, 100])\n",
      "midi.NoteOnEvent(tick=96, channel=0, data=[79, 0])\n",
      "midi.NoteOnEvent(tick=0, channel=0, data=[81, 100])\n",
      "midi.NoteOnEvent(tick=96, channel=0, data=[81, 0])\n",
      "midi.NoteOnEvent(tick=0, channel=0, data=[78, 100])\n",
      "midi.NoteOnEvent(tick=96, channel=0, data=[78, 0])\n",
      "midi.NoteOnEvent(tick=0, channel=0, data=[79, 100])\n",
      "midi.NoteOnEvent(tick=96, channel=0, data=[79, 0])\n",
      "midi.NoteOnEvent(tick=0, channel=0, data=[76, 100])\n",
      "midi.NoteOnEvent(tick=96, channel=0, data=[76, 0])\n",
      "midi.NoteOnEvent(tick=0, channel=0, data=[78, 100])\n",
      "midi.NoteOnEvent(tick=96, channel=0, data=[78, 0])\n",
      "midi.NoteOnEvent(tick=0, channel=0, data=[74, 100])\n",
      "midi.NoteOnEvent(tick=96, channel=0, data=[74, 0])\n",
      "midi.NoteOnEvent(tick=0, channel=0, data=[73, 100])\n",
      "midi.NoteOnEvent(tick=96, channel=0, data=[73, 0])\n",
      "midi.NoteOnEvent(tick=0, channel=0, data=[74, 100])\n",
      "midi.NoteOnEvent(tick=96, channel=0, data=[74, 0])\n",
      "midi.NoteOnEvent(tick=0, channel=0, data=[78, 100])\n",
      "midi.NoteOnEvent(tick=96, channel=0, data=[78, 0])\n",
      "midi.NoteOnEvent(tick=0, channel=0, data=[74, 100])\n",
      "midi.NoteOnEvent(tick=96, channel=0, data=[74, 0])\n",
      "midi.NoteOnEvent(tick=0, channel=0, data=[81, 100])\n",
      "midi.NoteOnEvent(tick=96, channel=0, data=[81, 0])\n",
      "midi.NoteOnEvent(tick=0, channel=0, data=[78, 100])\n",
      "midi.NoteOnEvent(tick=96, channel=0, data=[78, 0])\n",
      "midi.NoteOnEvent(tick=0, channel=0, data=[86, 100])\n",
      "midi.NoteOnEvent(tick=192, channel=0, data=[86, 0])\n",
      "midi.NoteOnEvent(tick=0, channel=0, data=[74, 100])\n",
      "midi.NoteOnEvent(tick=192, channel=0, data=[74, 0])\n",
      "midi.NoteOnEvent(tick=0, channel=0, data=[81, 100])\n",
      "midi.NoteOnEvent(tick=576, channel=0, data=[81, 0])\n",
      "midi.NoteOnEvent(tick=0, channel=0, data=[79, 100])\n",
      "midi.NoteOnEvent(tick=96, channel=0, data=[79, 0])\n",
      "midi.NoteOnEvent(tick=0, channel=0, data=[78, 100])\n",
      "midi.NoteOnEvent(tick=96, channel=0, data=[78, 0])\n",
      "midi.NoteOnEvent(tick=0, channel=0, data=[79, 100])\n",
      "midi.NoteOnEvent(tick=192, channel=0, data=[79, 0])\n",
      "midi.NoteOnEvent(tick=0, channel=0, data=[83, 100])\n",
      "midi.NoteOnEvent(tick=384, channel=0, data=[83, 0])\n",
      "midi.NoteOnEvent(tick=0, channel=0, data=[76, 100])\n",
      "midi.NoteOnEvent(tick=96, channel=0, data=[76, 0])\n",
      "midi.NoteOnEvent(tick=0, channel=0, data=[78, 100])\n",
      "midi.NoteOnEvent(tick=96, channel=0, data=[78, 0])\n",
      "midi.NoteOnEvent(tick=0, channel=0, data=[79, 100])\n",
      "midi.NoteOnEvent(tick=96, channel=0, data=[79, 0])\n",
      "midi.NoteOnEvent(tick=0, channel=0, data=[76, 100])\n",
      "midi.NoteOnEvent(tick=96, channel=0, data=[76, 0])\n",
      "midi.NoteOnEvent(tick=0, channel=0, data=[78, 100])\n",
      "midi.NoteOnEvent(tick=96, channel=0, data=[78, 0])\n",
      "midi.NoteOnEvent(tick=0, channel=0, data=[75, 100])\n",
      "midi.NoteOnEvent(tick=96, channel=0, data=[75, 0])\n",
      "midi.NoteOnEvent(tick=0, channel=0, data=[76, 100])\n",
      "midi.NoteOnEvent(tick=96, channel=0, data=[76, 0])\n",
      "midi.NoteOnEvent(tick=0, channel=0, data=[72, 100])\n",
      "midi.NoteOnEvent(tick=96, channel=0, data=[72, 0])\n",
      "midi.NoteOnEvent(tick=0, channel=0, data=[71, 100])\n",
      "midi.NoteOnEvent(tick=96, channel=0, data=[71, 0])\n",
      "midi.NoteOnEvent(tick=0, channel=0, data=[72, 100])\n",
      "midi.NoteOnEvent(tick=96, channel=0, data=[72, 0])\n",
      "midi.NoteOnEvent(tick=0, channel=0, data=[76, 100])\n",
      "midi.NoteOnEvent(tick=96, channel=0, data=[76, 0])\n",
      "midi.NoteOnEvent(tick=0, channel=0, data=[72, 100])\n",
      "midi.NoteOnEvent(tick=96, channel=0, data=[72, 0])\n",
      "midi.NoteOnEvent(tick=0, channel=0, data=[79, 100])\n",
      "midi.NoteOnEvent(tick=96, channel=0, data=[79, 0])\n",
      "midi.NoteOnEvent(tick=0, channel=0, data=[76, 100])\n",
      "midi.NoteOnEvent(tick=96, channel=0, data=[76, 0])\n",
      "midi.NoteOnEvent(tick=0, channel=0, data=[84, 100])\n",
      "midi.NoteOnEvent(tick=192, channel=0, data=[84, 0])\n",
      "midi.NoteOnEvent(tick=0, channel=0, data=[72, 100])\n",
      "midi.NoteOnEvent(tick=192, channel=0, data=[72, 0])\n",
      "midi.NoteOnEvent(tick=0, channel=0, data=[79, 100])\n",
      "midi.NoteOnEvent(tick=576, channel=0, data=[79, 0])\n",
      "midi.NoteOnEvent(tick=0, channel=0, data=[78, 100])\n",
      "midi.NoteOnEvent(tick=96, channel=0, data=[78, 0])\n",
      "midi.NoteOnEvent(tick=0, channel=0, data=[79, 100])\n",
      "midi.NoteOnEvent(tick=96, channel=0, data=[79, 0])\n",
      "midi.NoteOnEvent(tick=0, channel=0, data=[81, 100])\n",
      "midi.NoteOnEvent(tick=192, channel=0, data=[81, 0])\n",
      "midi.NoteOnEvent(tick=0, channel=0, data=[72, 100])\n",
      "midi.NoteOnEvent(tick=192, channel=0, data=[72, 0])\n",
      "midi.NoteOnEvent(tick=0, channel=0, data=[71, 100])\n",
      "midi.NoteOnEvent(tick=192, channel=0, data=[71, 0])\n",
      "midi.NoteOnEvent(tick=0, channel=0, data=[81, 100])\n",
      "midi.NoteOnEvent(tick=192, channel=0, data=[81, 0])\n",
      "midi.NoteOnEvent(tick=0, channel=0, data=[79, 100])\n",
      "midi.NoteOnEvent(tick=192, channel=0, data=[79, 0])\n",
      "midi.NoteOnEvent(tick=0, channel=0, data=[71, 100])\n",
      "midi.NoteOnEvent(tick=192, channel=0, data=[71, 0])\n",
      "midi.NoteOnEvent(tick=0, channel=0, data=[69, 100])\n",
      "midi.NoteOnEvent(tick=96, channel=0, data=[69, 0])\n",
      "midi.NoteOnEvent(tick=0, channel=0, data=[71, 100])\n",
      "midi.NoteOnEvent(tick=96, channel=0, data=[71, 0])\n",
      "midi.NoteOnEvent(tick=0, channel=0, data=[72, 100])\n",
      "midi.NoteOnEvent(tick=96, channel=0, data=[72, 0])\n",
      "midi.NoteOnEvent(tick=0, channel=0, data=[71, 100])\n",
      "midi.NoteOnEvent(tick=96, channel=0, data=[71, 0])\n",
      "midi.NoteOnEvent(tick=0, channel=0, data=[69, 100])\n",
      "midi.NoteOnEvent(tick=96, channel=0, data=[69, 0])\n",
      "midi.NoteOnEvent(tick=0, channel=0, data=[67, 100])\n",
      "midi.NoteOnEvent(tick=96, channel=0, data=[67, 0])\n",
      "midi.NoteOnEvent(tick=0, channel=0, data=[66, 100])\n",
      "midi.NoteOnEvent(tick=96, channel=0, data=[66, 0])\n",
      "midi.NoteOnEvent(tick=0, channel=0, data=[64, 100])\n",
      "midi.NoteOnEvent(tick=96, channel=0, data=[64, 0])\n",
      "midi.NoteOnEvent(tick=0, channel=0, data=[63, 100])\n",
      "midi.NoteOnEvent(tick=192, channel=0, data=[63, 0])\n",
      "midi.NoteOnEvent(tick=0, channel=0, data=[72, 100])\n",
      "midi.NoteOnEvent(tick=192, channel=0, data=[72, 0])\n",
      "midi.NoteOnEvent(tick=0, channel=0, data=[71, 100])\n",
      "midi.NoteOnEvent(tick=192, channel=0, data=[71, 0])\n",
      "midi.NoteOnEvent(tick=0, channel=0, data=[76, 100])\n",
      "midi.NoteOnEvent(tick=192, channel=0, data=[76, 0])\n",
      "midi.NoteOnEvent(tick=0, channel=0, data=[79, 100])\n",
      "midi.NoteOnEvent(tick=384, channel=0, data=[79, 0])\n",
      "midi.NoteOnEvent(tick=0, channel=0, data=[78, 100])\n",
      "midi.NoteOnEvent(tick=48, channel=0, data=[78, 0])\n",
      "midi.NoteOnEvent(tick=0, channel=0, data=[79, 100])\n",
      "midi.NoteOnEvent(tick=48, channel=0, data=[79, 0])\n",
      "midi.NoteOnEvent(tick=0, channel=0, data=[78, 100])\n",
      "midi.NoteOnEvent(tick=48, channel=0, data=[78, 0])\n",
      "midi.NoteOnEvent(tick=0, channel=0, data=[79, 100])\n",
      "midi.NoteOnEvent(tick=48, channel=0, data=[79, 0])\n",
      "midi.NoteOnEvent(tick=0, channel=0, data=[78, 100])\n",
      "midi.NoteOnEvent(tick=48, channel=0, data=[78, 0])\n",
      "midi.NoteOnEvent(tick=0, channel=0, data=[79, 100])\n",
      "midi.NoteOnEvent(tick=48, channel=0, data=[79, 0])\n",
      "midi.NoteOnEvent(tick=0, channel=0, data=[78, 100])\n",
      "midi.NoteOnEvent(tick=48, channel=0, data=[78, 0])\n",
      "midi.NoteOnEvent(tick=0, channel=0, data=[79, 100])\n",
      "midi.NoteOnEvent(tick=48, channel=0, data=[79, 0])\n",
      "midi.NoteOnEvent(tick=0, channel=0, data=[78, 100])\n",
      "midi.NoteOnEvent(tick=96, channel=0, data=[78, 0])\n",
      "midi.NoteOnEvent(tick=0, channel=0, data=[79, 100])\n",
      "midi.NoteOnEvent(tick=96, channel=0, data=[79, 0])\n",
      "midi.NoteOnEvent(tick=0, channel=0, data=[81, 100])\n",
      "midi.NoteOnEvent(tick=96, channel=0, data=[81, 0])\n",
      "midi.NoteOnEvent(tick=0, channel=0, data=[79, 100])\n",
      "midi.NoteOnEvent(tick=96, channel=0, data=[79, 0])\n",
      "midi.NoteOnEvent(tick=0, channel=0, data=[78, 100])\n",
      "midi.NoteOnEvent(tick=96, channel=0, data=[78, 0])\n",
      "midi.NoteOnEvent(tick=0, channel=0, data=[81, 100])\n",
      "midi.NoteOnEvent(tick=96, channel=0, data=[81, 0])\n",
      "midi.NoteOnEvent(tick=0, channel=0, data=[76, 100])\n",
      "midi.NoteOnEvent(tick=96, channel=0, data=[76, 0])\n",
      "midi.NoteOnEvent(tick=0, channel=0, data=[81, 100])\n",
      "midi.NoteOnEvent(tick=96, channel=0, data=[81, 0])\n",
      "midi.NoteOnEvent(tick=0, channel=0, data=[75, 100])\n",
      "midi.NoteOnEvent(tick=96, channel=0, data=[75, 0])\n",
      "midi.NoteOnEvent(tick=0, channel=0, data=[76, 100])\n",
      "midi.NoteOnEvent(tick=96, channel=0, data=[76, 0])\n",
      "midi.NoteOnEvent(tick=0, channel=0, data=[78, 100])\n",
      "midi.NoteOnEvent(tick=96, channel=0, data=[78, 0])\n",
      "midi.NoteOnEvent(tick=0, channel=0, data=[76, 100])\n",
      "midi.NoteOnEvent(tick=96, channel=0, data=[76, 0])\n",
      "midi.NoteOnEvent(tick=0, channel=0, data=[75, 100])\n",
      "midi.NoteOnEvent(tick=96, channel=0, data=[75, 0])\n",
      "midi.NoteOnEvent(tick=0, channel=0, data=[78, 100])\n",
      "midi.NoteOnEvent(tick=96, channel=0, data=[78, 0])\n",
      "midi.NoteOnEvent(tick=0, channel=0, data=[72, 100])\n",
      "midi.NoteOnEvent(tick=96, channel=0, data=[72, 0])\n",
      "midi.NoteOnEvent(tick=0, channel=0, data=[78, 100])\n",
      "midi.NoteOnEvent(tick=96, channel=0, data=[78, 0])\n",
      "midi.NoteOnEvent(tick=0, channel=0, data=[69, 100])\n",
      "midi.NoteOnEvent(tick=96, channel=0, data=[69, 0])\n",
      "midi.NoteOnEvent(tick=0, channel=0, data=[71, 100])\n",
      "midi.NoteOnEvent(tick=96, channel=0, data=[71, 0])\n",
      "midi.NoteOnEvent(tick=0, channel=0, data=[72, 100])\n",
      "midi.NoteOnEvent(tick=96, channel=0, data=[72, 0])\n",
      "midi.NoteOnEvent(tick=0, channel=0, data=[71, 100])\n",
      "midi.NoteOnEvent(tick=96, channel=0, data=[71, 0])\n",
      "midi.NoteOnEvent(tick=0, channel=0, data=[69, 100])\n",
      "midi.NoteOnEvent(tick=96, channel=0, data=[69, 0])\n",
      "midi.NoteOnEvent(tick=0, channel=0, data=[72, 100])\n",
      "midi.NoteOnEvent(tick=96, channel=0, data=[72, 0])\n",
      "midi.NoteOnEvent(tick=0, channel=0, data=[67, 100])\n",
      "midi.NoteOnEvent(tick=96, channel=0, data=[67, 0])\n",
      "midi.NoteOnEvent(tick=0, channel=0, data=[72, 100])\n",
      "midi.NoteOnEvent(tick=96, channel=0, data=[72, 0])\n",
      "midi.NoteOnEvent(tick=0, channel=0, data=[66, 100])\n",
      "midi.NoteOnEvent(tick=96, channel=0, data=[66, 0])\n",
      "midi.NoteOnEvent(tick=0, channel=0, data=[67, 100])\n",
      "midi.NoteOnEvent(tick=96, channel=0, data=[67, 0])\n",
      "midi.NoteOnEvent(tick=0, channel=0, data=[69, 100])\n",
      "midi.NoteOnEvent(tick=96, channel=0, data=[69, 0])\n",
      "midi.NoteOnEvent(tick=0, channel=0, data=[67, 100])\n",
      "midi.NoteOnEvent(tick=96, channel=0, data=[67, 0])\n",
      "midi.NoteOnEvent(tick=0, channel=0, data=[66, 100])\n",
      "midi.NoteOnEvent(tick=96, channel=0, data=[66, 0])\n",
      "midi.NoteOnEvent(tick=0, channel=0, data=[69, 100])\n",
      "midi.NoteOnEvent(tick=96, channel=0, data=[69, 0])\n",
      "midi.NoteOnEvent(tick=0, channel=0, data=[64, 100])\n",
      "midi.NoteOnEvent(tick=96, channel=0, data=[64, 0])\n",
      "midi.NoteOnEvent(tick=0, channel=0, data=[69, 100])\n",
      "midi.NoteOnEvent(tick=96, channel=0, data=[69, 0])\n",
      "midi.NoteOnEvent(tick=0, channel=0, data=[63, 100])\n",
      "midi.NoteOnEvent(tick=96, channel=0, data=[63, 0])\n",
      "midi.NoteOnEvent(tick=0, channel=0, data=[69, 100])\n",
      "midi.NoteOnEvent(tick=96, channel=0, data=[69, 0])\n",
      "midi.NoteOnEvent(tick=0, channel=0, data=[59, 100])\n",
      "midi.NoteOnEvent(tick=96, channel=0, data=[59, 0])\n",
      "midi.NoteOnEvent(tick=0, channel=0, data=[61, 100])\n",
      "midi.NoteOnEvent(tick=96, channel=0, data=[61, 0])\n",
      "midi.NoteOnEvent(tick=0, channel=0, data=[63, 100])\n",
      "midi.NoteOnEvent(tick=96, channel=0, data=[63, 0])\n",
      "midi.NoteOnEvent(tick=0, channel=0, data=[64, 100])\n",
      "midi.NoteOnEvent(tick=96, channel=0, data=[64, 0])\n",
      "midi.NoteOnEvent(tick=0, channel=0, data=[66, 100])\n",
      "midi.NoteOnEvent(tick=96, channel=0, data=[66, 0])\n",
      "midi.NoteOnEvent(tick=0, channel=0, data=[67, 100])\n",
      "midi.NoteOnEvent(tick=96, channel=0, data=[67, 0])\n",
      "midi.NoteOnEvent(tick=0, channel=0, data=[69, 100])\n",
      "midi.NoteOnEvent(tick=96, channel=0, data=[69, 0])\n",
      "midi.NoteOnEvent(tick=0, channel=0, data=[71, 100])\n",
      "midi.NoteOnEvent(tick=96, channel=0, data=[71, 0])\n",
      "midi.NoteOnEvent(tick=0, channel=0, data=[73, 100])\n",
      "midi.NoteOnEvent(tick=96, channel=0, data=[73, 0])\n",
      "midi.NoteOnEvent(tick=0, channel=0, data=[75, 100])\n",
      "midi.NoteOnEvent(tick=96, channel=0, data=[75, 0])\n",
      "midi.NoteOnEvent(tick=0, channel=0, data=[76, 100])\n",
      "midi.NoteOnEvent(tick=96, channel=0, data=[76, 0])\n",
      "midi.NoteOnEvent(tick=0, channel=0, data=[78, 100])\n",
      "midi.NoteOnEvent(tick=96, channel=0, data=[78, 0])\n",
      "midi.NoteOnEvent(tick=0, channel=0, data=[79, 100])\n",
      "midi.NoteOnEvent(tick=96, channel=0, data=[79, 0])\n",
      "midi.NoteOnEvent(tick=0, channel=0, data=[81, 100])\n",
      "midi.NoteOnEvent(tick=96, channel=0, data=[81, 0])\n",
      "midi.NoteOnEvent(tick=0, channel=0, data=[83, 100])\n",
      "midi.NoteOnEvent(tick=192, channel=0, data=[83, 0])\n",
      "midi.NoteOnEvent(tick=0, channel=0, data=[76, 100])\n",
      "midi.NoteOnEvent(tick=192, channel=0, data=[76, 0])\n",
      "midi.NoteOnEvent(tick=0, channel=0, data=[78, 100])\n",
      "midi.NoteOnEvent(tick=192, channel=0, data=[78, 0])\n",
      "midi.NoteOnEvent(tick=0, channel=0, data=[75, 100])\n",
      "midi.NoteOnEvent(tick=192, channel=0, data=[75, 0])\n",
      "midi.NoteOnEvent(tick=0, channel=0, data=[76, 100])\n",
      "midi.NoteOnEvent(tick=96, channel=0, data=[76, 0])\n",
      "midi.NoteOnEvent(tick=0, channel=0, data=[74, 100])\n",
      "midi.NoteOnEvent(tick=96, channel=0, data=[74, 0])\n",
      "midi.NoteOnEvent(tick=0, channel=0, data=[72, 100])\n",
      "midi.NoteOnEvent(tick=96, channel=0, data=[72, 0])\n",
      "midi.NoteOnEvent(tick=0, channel=0, data=[71, 100])\n",
      "midi.NoteOnEvent(tick=96, channel=0, data=[71, 0])\n",
      "midi.NoteOnEvent(tick=0, channel=0, data=[69, 100])\n",
      "midi.NoteOnEvent(tick=192, channel=0, data=[69, 0])\n",
      "midi.NoteOnEvent(tick=0, channel=0, data=[69, 100])\n",
      "midi.NoteOnEvent(tick=192, channel=0, data=[69, 0])\n",
      "midi.NoteOnEvent(tick=0, channel=0, data=[69, 100])\n",
      "midi.NoteOnEvent(tick=96, channel=0, data=[69, 0])\n",
      "midi.NoteOnEvent(tick=0, channel=0, data=[71, 100])\n",
      "midi.NoteOnEvent(tick=96, channel=0, data=[71, 0])\n",
      "midi.NoteOnEvent(tick=0, channel=0, data=[72, 100])\n",
      "midi.NoteOnEvent(tick=288, channel=0, data=[72, 0])\n",
      "midi.NoteOnEvent(tick=0, channel=0, data=[71, 100])\n",
      "midi.NoteOnEvent(tick=96, channel=0, data=[71, 0])\n",
      "midi.NoteOnEvent(tick=0, channel=0, data=[69, 100])\n",
      "midi.NoteOnEvent(tick=96, channel=0, data=[69, 0])\n",
      "midi.NoteOnEvent(tick=0, channel=0, data=[67, 100])\n",
      "midi.NoteOnEvent(tick=96, channel=0, data=[67, 0])\n",
      "midi.NoteOnEvent(tick=0, channel=0, data=[66, 100])\n",
      "midi.NoteOnEvent(tick=96, channel=0, data=[66, 0])\n",
      "midi.NoteOnEvent(tick=0, channel=0, data=[67, 100])\n",
      "midi.NoteOnEvent(tick=96, channel=0, data=[67, 0])\n",
      "midi.NoteOnEvent(tick=0, channel=0, data=[69, 100])\n",
      "midi.NoteOnEvent(tick=288, channel=0, data=[69, 0])\n",
      "midi.NoteOnEvent(tick=0, channel=0, data=[67, 100])\n",
      "midi.NoteOnEvent(tick=96, channel=0, data=[67, 0])\n",
      "midi.NoteOnEvent(tick=0, channel=0, data=[66, 100])\n",
      "midi.NoteOnEvent(tick=96, channel=0, data=[66, 0])\n",
      "midi.NoteOnEvent(tick=0, channel=0, data=[64, 100])\n",
      "midi.NoteOnEvent(tick=96, channel=0, data=[64, 0])\n",
      "midi.NoteOnEvent(tick=0, channel=0, data=[63, 100])\n",
      "midi.NoteOnEvent(tick=192, channel=0, data=[63, 0])\n",
      "midi.NoteOnEvent(tick=0, channel=0, data=[71, 100])\n",
      "midi.NoteOnEvent(tick=192, channel=0, data=[71, 0])\n",
      "midi.NoteOnEvent(tick=0, channel=0, data=[67, 100])\n",
      "midi.NoteOnEvent(tick=48, channel=0, data=[67, 0])\n",
      "midi.NoteOnEvent(tick=0, channel=0, data=[69, 100])\n",
      "midi.NoteOnEvent(tick=48, channel=0, data=[69, 0])\n",
      "midi.NoteOnEvent(tick=0, channel=0, data=[67, 100])\n",
      "midi.NoteOnEvent(tick=48, channel=0, data=[67, 0])\n",
      "midi.NoteOnEvent(tick=0, channel=0, data=[69, 100])\n",
      "midi.NoteOnEvent(tick=48, channel=0, data=[69, 0])\n",
      "midi.NoteOnEvent(tick=0, channel=0, data=[66, 100])\n",
      "midi.NoteOnEvent(tick=96, channel=0, data=[66, 0])\n",
      "midi.NoteOnEvent(tick=0, channel=0, data=[64, 100])\n",
      "midi.NoteOnEvent(tick=96, channel=0, data=[64, 0])\n",
      "midi.NoteOnEvent(tick=0, channel=0, data=[64, 100])\n",
      "midi.NoteOnEvent(tick=384, channel=0, data=[64, 0])\n",
      "midi.NoteOnEvent(tick=96, channel=0, data=[71, 100])\n",
      "midi.NoteOnEvent(tick=96, channel=0, data=[71, 0])\n",
      "midi.NoteOnEvent(tick=0, channel=0, data=[69, 100])\n",
      "midi.NoteOnEvent(tick=96, channel=0, data=[69, 0])\n",
      "midi.NoteOnEvent(tick=0, channel=0, data=[71, 100])\n",
      "midi.NoteOnEvent(tick=96, channel=0, data=[71, 0])\n",
      "midi.NoteOnEvent(tick=0, channel=0, data=[76, 100])\n",
      "midi.NoteOnEvent(tick=96, channel=0, data=[76, 0])\n",
      "midi.NoteOnEvent(tick=0, channel=0, data=[75, 100])\n",
      "midi.NoteOnEvent(tick=96, channel=0, data=[75, 0])\n",
      "midi.NoteOnEvent(tick=0, channel=0, data=[76, 100])\n",
      "midi.NoteOnEvent(tick=288, channel=0, data=[76, 0])\n",
      "midi.NoteOnEvent(tick=0, channel=0, data=[71, 100])\n",
      "midi.NoteOnEvent(tick=96, channel=0, data=[71, 0])\n",
      "midi.NoteOnEvent(tick=0, channel=0, data=[69, 100])\n",
      "midi.NoteOnEvent(tick=96, channel=0, data=[69, 0])\n",
      "midi.NoteOnEvent(tick=0, channel=0, data=[71, 100])\n",
      "midi.NoteOnEvent(tick=96, channel=0, data=[71, 0])\n",
      "midi.NoteOnEvent(tick=0, channel=0, data=[79, 100])\n",
      "midi.NoteOnEvent(tick=192, channel=0, data=[79, 0])\n",
      "midi.NoteOnEvent(tick=0, channel=0, data=[78, 100])\n",
      "midi.NoteOnEvent(tick=288, channel=0, data=[78, 0])\n",
      "midi.NoteOnEvent(tick=0, channel=0, data=[71, 100])\n",
      "midi.NoteOnEvent(tick=96, channel=0, data=[71, 0])\n",
      "midi.NoteOnEvent(tick=0, channel=0, data=[69, 100])\n",
      "midi.NoteOnEvent(tick=96, channel=0, data=[69, 0])\n",
      "midi.NoteOnEvent(tick=0, channel=0, data=[71, 100])\n",
      "midi.NoteOnEvent(tick=96, channel=0, data=[71, 0])\n",
      "midi.NoteOnEvent(tick=0, channel=0, data=[78, 100])\n",
      "midi.NoteOnEvent(tick=96, channel=0, data=[78, 0])\n",
      "midi.NoteOnEvent(tick=0, channel=0, data=[76, 100])\n",
      "midi.NoteOnEvent(tick=96, channel=0, data=[76, 0])\n",
      "midi.NoteOnEvent(tick=0, channel=0, data=[78, 100])\n",
      "midi.NoteOnEvent(tick=288, channel=0, data=[78, 0])\n",
      "midi.NoteOnEvent(tick=0, channel=0, data=[71, 100])\n",
      "midi.NoteOnEvent(tick=96, channel=0, data=[71, 0])\n",
      "midi.NoteOnEvent(tick=0, channel=0, data=[69, 100])\n",
      "midi.NoteOnEvent(tick=96, channel=0, data=[69, 0])\n",
      "midi.NoteOnEvent(tick=0, channel=0, data=[71, 100])\n",
      "midi.NoteOnEvent(tick=96, channel=0, data=[71, 0])\n",
      "midi.NoteOnEvent(tick=0, channel=0, data=[81, 100])\n",
      "midi.NoteOnEvent(tick=192, channel=0, data=[81, 0])\n",
      "midi.NoteOnEvent(tick=0, channel=0, data=[79, 100])\n",
      "midi.NoteOnEvent(tick=288, channel=0, data=[79, 0])\n",
      "midi.NoteOnEvent(tick=0, channel=0, data=[76, 100])\n",
      "midi.NoteOnEvent(tick=96, channel=0, data=[76, 0])\n",
      "midi.NoteOnEvent(tick=0, channel=0, data=[75, 100])\n",
      "midi.NoteOnEvent(tick=96, channel=0, data=[75, 0])\n",
      "midi.NoteOnEvent(tick=0, channel=0, data=[76, 100])\n",
      "midi.NoteOnEvent(tick=96, channel=0, data=[76, 0])\n",
      "midi.NoteOnEvent(tick=0, channel=0, data=[78, 100])\n",
      "midi.NoteOnEvent(tick=96, channel=0, data=[78, 0])\n",
      "midi.NoteOnEvent(tick=0, channel=0, data=[76, 100])\n",
      "midi.NoteOnEvent(tick=96, channel=0, data=[76, 0])\n",
      "midi.NoteOnEvent(tick=0, channel=0, data=[75, 100])\n",
      "midi.NoteOnEvent(tick=96, channel=0, data=[75, 0])\n",
      "midi.NoteOnEvent(tick=0, channel=0, data=[76, 100])\n",
      "midi.NoteOnEvent(tick=96, channel=0, data=[76, 0])\n",
      "midi.NoteOnEvent(tick=0, channel=0, data=[80, 100])\n",
      "midi.NoteOnEvent(tick=96, channel=0, data=[80, 0])\n",
      "midi.NoteOnEvent(tick=0, channel=0, data=[76, 100])\n",
      "midi.NoteOnEvent(tick=96, channel=0, data=[76, 0])\n",
      "midi.NoteOnEvent(tick=0, channel=0, data=[75, 100])\n",
      "midi.NoteOnEvent(tick=96, channel=0, data=[75, 0])\n",
      "midi.NoteOnEvent(tick=0, channel=0, data=[76, 100])\n",
      "midi.NoteOnEvent(tick=96, channel=0, data=[76, 0])\n",
      "midi.NoteOnEvent(tick=0, channel=0, data=[81, 100])\n",
      "midi.NoteOnEvent(tick=96, channel=0, data=[81, 0])\n",
      "midi.NoteOnEvent(tick=0, channel=0, data=[76, 100])\n",
      "midi.NoteOnEvent(tick=96, channel=0, data=[76, 0])\n",
      "midi.NoteOnEvent(tick=0, channel=0, data=[75, 100])\n",
      "midi.NoteOnEvent(tick=96, channel=0, data=[75, 0])\n",
      "midi.NoteOnEvent(tick=0, channel=0, data=[76, 100])\n",
      "midi.NoteOnEvent(tick=96, channel=0, data=[76, 0])\n",
      "midi.NoteOnEvent(tick=0, channel=0, data=[83, 100])\n",
      "midi.NoteOnEvent(tick=96, channel=0, data=[83, 0])\n",
      "midi.NoteOnEvent(tick=0, channel=0, data=[76, 100])\n",
      "midi.NoteOnEvent(tick=96, channel=0, data=[76, 0])\n",
      "midi.NoteOnEvent(tick=0, channel=0, data=[75, 100])\n",
      "midi.NoteOnEvent(tick=96, channel=0, data=[75, 0])\n",
      "midi.NoteOnEvent(tick=0, channel=0, data=[76, 100])\n",
      "midi.NoteOnEvent(tick=96, channel=0, data=[76, 0])\n",
      "midi.NoteOnEvent(tick=0, channel=0, data=[84, 100])\n",
      "midi.NoteOnEvent(tick=96, channel=0, data=[84, 0])\n",
      "midi.NoteOnEvent(tick=0, channel=0, data=[69, 100])\n",
      "midi.NoteOnEvent(tick=96, channel=0, data=[69, 0])\n",
      "midi.NoteOnEvent(tick=0, channel=0, data=[68, 100])\n",
      "midi.NoteOnEvent(tick=96, channel=0, data=[68, 0])\n",
      "midi.NoteOnEvent(tick=0, channel=0, data=[69, 100])\n",
      "midi.NoteOnEvent(tick=96, channel=0, data=[69, 0])\n",
      "midi.NoteOnEvent(tick=0, channel=0, data=[73, 100])\n",
      "midi.NoteOnEvent(tick=96, channel=0, data=[73, 0])\n",
      "midi.NoteOnEvent(tick=0, channel=0, data=[69, 100])\n",
      "midi.NoteOnEvent(tick=96, channel=0, data=[69, 0])\n",
      "midi.NoteOnEvent(tick=0, channel=0, data=[68, 100])\n",
      "midi.NoteOnEvent(tick=96, channel=0, data=[68, 0])\n",
      "midi.NoteOnEvent(tick=0, channel=0, data=[69, 100])\n",
      "midi.NoteOnEvent(tick=96, channel=0, data=[69, 0])\n",
      "midi.NoteOnEvent(tick=0, channel=0, data=[74, 100])\n",
      "midi.NoteOnEvent(tick=96, channel=0, data=[74, 0])\n",
      "midi.NoteOnEvent(tick=0, channel=0, data=[69, 100])\n",
      "midi.NoteOnEvent(tick=96, channel=0, data=[69, 0])\n",
      "midi.NoteOnEvent(tick=0, channel=0, data=[68, 100])\n",
      "midi.NoteOnEvent(tick=96, channel=0, data=[68, 0])\n",
      "midi.NoteOnEvent(tick=0, channel=0, data=[69, 100])\n",
      "midi.NoteOnEvent(tick=96, channel=0, data=[69, 0])\n",
      "midi.NoteOnEvent(tick=0, channel=0, data=[76, 100])\n",
      "midi.NoteOnEvent(tick=96, channel=0, data=[76, 0])\n",
      "midi.NoteOnEvent(tick=0, channel=0, data=[69, 100])\n",
      "midi.NoteOnEvent(tick=96, channel=0, data=[69, 0])\n",
      "midi.NoteOnEvent(tick=0, channel=0, data=[68, 100])\n",
      "midi.NoteOnEvent(tick=96, channel=0, data=[68, 0])\n",
      "midi.NoteOnEvent(tick=0, channel=0, data=[69, 100])\n",
      "midi.NoteOnEvent(tick=96, channel=0, data=[69, 0])\n",
      "midi.NoteOnEvent(tick=0, channel=0, data=[77, 100])\n",
      "midi.NoteOnEvent(tick=96, channel=0, data=[77, 0])\n",
      "midi.NoteOnEvent(tick=0, channel=0, data=[62, 100])\n",
      "midi.NoteOnEvent(tick=96, channel=0, data=[62, 0])\n",
      "midi.NoteOnEvent(tick=0, channel=0, data=[61, 100])\n",
      "midi.NoteOnEvent(tick=96, channel=0, data=[61, 0])\n",
      "midi.NoteOnEvent(tick=0, channel=0, data=[62, 100])\n",
      "midi.NoteOnEvent(tick=96, channel=0, data=[62, 0])\n",
      "midi.NoteOnEvent(tick=0, channel=0, data=[66, 100])\n",
      "midi.NoteOnEvent(tick=96, channel=0, data=[66, 0])\n",
      "midi.NoteOnEvent(tick=0, channel=0, data=[62, 100])\n",
      "midi.NoteOnEvent(tick=96, channel=0, data=[62, 0])\n",
      "midi.NoteOnEvent(tick=0, channel=0, data=[61, 100])\n",
      "midi.NoteOnEvent(tick=96, channel=0, data=[61, 0])\n",
      "midi.NoteOnEvent(tick=0, channel=0, data=[62, 100])\n",
      "midi.NoteOnEvent(tick=96, channel=0, data=[62, 0])\n",
      "midi.NoteOnEvent(tick=0, channel=0, data=[67, 100])\n",
      "midi.NoteOnEvent(tick=96, channel=0, data=[67, 0])\n",
      "midi.NoteOnEvent(tick=0, channel=0, data=[62, 100])\n",
      "midi.NoteOnEvent(tick=96, channel=0, data=[62, 0])\n",
      "midi.NoteOnEvent(tick=0, channel=0, data=[61, 100])\n",
      "midi.NoteOnEvent(tick=96, channel=0, data=[61, 0])\n",
      "midi.NoteOnEvent(tick=0, channel=0, data=[62, 100])\n",
      "midi.NoteOnEvent(tick=96, channel=0, data=[62, 0])\n",
      "midi.NoteOnEvent(tick=0, channel=0, data=[69, 100])\n",
      "midi.NoteOnEvent(tick=96, channel=0, data=[69, 0])\n",
      "midi.NoteOnEvent(tick=0, channel=0, data=[62, 100])\n",
      "midi.NoteOnEvent(tick=96, channel=0, data=[62, 0])\n",
      "midi.NoteOnEvent(tick=0, channel=0, data=[61, 100])\n",
      "midi.NoteOnEvent(tick=96, channel=0, data=[61, 0])\n",
      "midi.NoteOnEvent(tick=0, channel=0, data=[62, 100])\n",
      "midi.NoteOnEvent(tick=96, channel=0, data=[62, 0])\n",
      "midi.NoteOnEvent(tick=0, channel=0, data=[71, 100])\n",
      "midi.NoteOnEvent(tick=96, channel=0, data=[71, 0])\n",
      "midi.NoteOnEvent(tick=0, channel=0, data=[67, 100])\n",
      "midi.NoteOnEvent(tick=96, channel=0, data=[67, 0])\n",
      "midi.NoteOnEvent(tick=0, channel=0, data=[66, 100])\n",
      "midi.NoteOnEvent(tick=96, channel=0, data=[66, 0])\n",
      "midi.NoteOnEvent(tick=0, channel=0, data=[67, 100])\n",
      "midi.NoteOnEvent(tick=96, channel=0, data=[67, 0])\n",
      "midi.NoteOnEvent(tick=0, channel=0, data=[71, 100])\n",
      "midi.NoteOnEvent(tick=96, channel=0, data=[71, 0])\n",
      "midi.NoteOnEvent(tick=0, channel=0, data=[67, 100])\n",
      "midi.NoteOnEvent(tick=96, channel=0, data=[67, 0])\n",
      "midi.NoteOnEvent(tick=0, channel=0, data=[66, 100])\n",
      "midi.NoteOnEvent(tick=96, channel=0, data=[66, 0])\n",
      "midi.NoteOnEvent(tick=0, channel=0, data=[67, 100])\n",
      "midi.NoteOnEvent(tick=96, channel=0, data=[67, 0])\n",
      "midi.NoteOnEvent(tick=0, channel=0, data=[72, 100])\n",
      "midi.NoteOnEvent(tick=96, channel=0, data=[72, 0])\n",
      "midi.NoteOnEvent(tick=0, channel=0, data=[67, 100])\n",
      "midi.NoteOnEvent(tick=96, channel=0, data=[67, 0])\n",
      "midi.NoteOnEvent(tick=0, channel=0, data=[66, 100])\n",
      "midi.NoteOnEvent(tick=96, channel=0, data=[66, 0])\n",
      "midi.NoteOnEvent(tick=0, channel=0, data=[67, 100])\n",
      "midi.NoteOnEvent(tick=96, channel=0, data=[67, 0])\n",
      "midi.NoteOnEvent(tick=0, channel=0, data=[74, 100])\n",
      "midi.NoteOnEvent(tick=96, channel=0, data=[74, 0])\n",
      "midi.NoteOnEvent(tick=0, channel=0, data=[67, 100])\n",
      "midi.NoteOnEvent(tick=96, channel=0, data=[67, 0])\n",
      "midi.NoteOnEvent(tick=0, channel=0, data=[66, 100])\n",
      "midi.NoteOnEvent(tick=96, channel=0, data=[66, 0])\n",
      "midi.NoteOnEvent(tick=0, channel=0, data=[67, 100])\n",
      "midi.NoteOnEvent(tick=96, channel=0, data=[67, 0])\n",
      "midi.NoteOnEvent(tick=0, channel=0, data=[76, 100])\n",
      "midi.NoteOnEvent(tick=96, channel=0, data=[76, 0])\n",
      "midi.NoteOnEvent(tick=0, channel=0, data=[72, 100])\n",
      "midi.NoteOnEvent(tick=96, channel=0, data=[72, 0])\n",
      "midi.NoteOnEvent(tick=0, channel=0, data=[71, 100])\n",
      "midi.NoteOnEvent(tick=96, channel=0, data=[71, 0])\n",
      "midi.NoteOnEvent(tick=0, channel=0, data=[72, 100])\n",
      "midi.NoteOnEvent(tick=96, channel=0, data=[72, 0])\n",
      "midi.NoteOnEvent(tick=0, channel=0, data=[76, 100])\n",
      "midi.NoteOnEvent(tick=96, channel=0, data=[76, 0])\n",
      "midi.NoteOnEvent(tick=0, channel=0, data=[72, 100])\n",
      "midi.NoteOnEvent(tick=96, channel=0, data=[72, 0])\n",
      "midi.NoteOnEvent(tick=0, channel=0, data=[71, 100])\n",
      "midi.NoteOnEvent(tick=96, channel=0, data=[71, 0])\n",
      "midi.NoteOnEvent(tick=0, channel=0, data=[72, 100])\n",
      "midi.NoteOnEvent(tick=96, channel=0, data=[72, 0])\n",
      "midi.NoteOnEvent(tick=0, channel=0, data=[77, 100])\n",
      "midi.NoteOnEvent(tick=96, channel=0, data=[77, 0])\n",
      "midi.NoteOnEvent(tick=0, channel=0, data=[72, 100])\n",
      "midi.NoteOnEvent(tick=96, channel=0, data=[72, 0])\n",
      "midi.NoteOnEvent(tick=0, channel=0, data=[71, 100])\n",
      "midi.NoteOnEvent(tick=96, channel=0, data=[71, 0])\n",
      "midi.NoteOnEvent(tick=0, channel=0, data=[72, 100])\n",
      "midi.NoteOnEvent(tick=96, channel=0, data=[72, 0])\n",
      "midi.NoteOnEvent(tick=0, channel=0, data=[79, 100])\n",
      "midi.NoteOnEvent(tick=96, channel=0, data=[79, 0])\n",
      "midi.NoteOnEvent(tick=0, channel=0, data=[72, 100])\n",
      "midi.NoteOnEvent(tick=96, channel=0, data=[72, 0])\n",
      "midi.NoteOnEvent(tick=0, channel=0, data=[71, 100])\n",
      "midi.NoteOnEvent(tick=96, channel=0, data=[71, 0])\n",
      "midi.NoteOnEvent(tick=0, channel=0, data=[72, 100])\n",
      "midi.NoteOnEvent(tick=96, channel=0, data=[72, 0])\n",
      "midi.NoteOnEvent(tick=0, channel=0, data=[81, 100])\n",
      "midi.NoteOnEvent(tick=96, channel=0, data=[81, 0])\n",
      "midi.NoteOnEvent(tick=0, channel=0, data=[82, 100])\n",
      "midi.NoteOnEvent(tick=96, channel=0, data=[82, 0])\n",
      "midi.NoteOnEvent(tick=0, channel=0, data=[81, 100])\n",
      "midi.NoteOnEvent(tick=96, channel=0, data=[81, 0])\n",
      "midi.NoteOnEvent(tick=0, channel=0, data=[79, 100])\n",
      "midi.NoteOnEvent(tick=96, channel=0, data=[79, 0])\n",
      "midi.NoteOnEvent(tick=0, channel=0, data=[77, 100])\n",
      "midi.NoteOnEvent(tick=96, channel=0, data=[77, 0])\n",
      "midi.NoteOnEvent(tick=0, channel=0, data=[76, 100])\n",
      "midi.NoteOnEvent(tick=96, channel=0, data=[76, 0])\n",
      "midi.NoteOnEvent(tick=0, channel=0, data=[74, 100])\n",
      "midi.NoteOnEvent(tick=96, channel=0, data=[74, 0])\n",
      "midi.NoteOnEvent(tick=0, channel=0, data=[72, 100])\n",
      "midi.NoteOnEvent(tick=96, channel=0, data=[72, 0])\n",
      "midi.NoteOnEvent(tick=0, channel=0, data=[70, 100])\n",
      "midi.NoteOnEvent(tick=96, channel=0, data=[70, 0])\n",
      "midi.NoteOnEvent(tick=0, channel=0, data=[69, 100])\n",
      "midi.NoteOnEvent(tick=96, channel=0, data=[69, 0])\n",
      "midi.NoteOnEvent(tick=0, channel=0, data=[70, 100])\n",
      "midi.NoteOnEvent(tick=96, channel=0, data=[70, 0])\n",
      "midi.NoteOnEvent(tick=0, channel=0, data=[81, 100])\n",
      "midi.NoteOnEvent(tick=96, channel=0, data=[81, 0])\n",
      "midi.NoteOnEvent(tick=0, channel=0, data=[79, 100])\n",
      "midi.NoteOnEvent(tick=96, channel=0, data=[79, 0])\n",
      "midi.NoteOnEvent(tick=0, channel=0, data=[77, 100])\n",
      "midi.NoteOnEvent(tick=96, channel=0, data=[77, 0])\n",
      "midi.NoteOnEvent(tick=0, channel=0, data=[76, 100])\n",
      "midi.NoteOnEvent(tick=96, channel=0, data=[76, 0])\n",
      "midi.NoteOnEvent(tick=0, channel=0, data=[74, 100])\n",
      "midi.NoteOnEvent(tick=96, channel=0, data=[74, 0])\n",
      "midi.NoteOnEvent(tick=0, channel=0, data=[73, 100])\n",
      "midi.NoteOnEvent(tick=96, channel=0, data=[73, 0])\n",
      "midi.NoteOnEvent(tick=0, channel=0, data=[74, 100])\n",
      "midi.NoteOnEvent(tick=96, channel=0, data=[74, 0])\n",
      "midi.NoteOnEvent(tick=0, channel=0, data=[73, 100])\n",
      "midi.NoteOnEvent(tick=96, channel=0, data=[73, 0])\n",
      "midi.NoteOnEvent(tick=0, channel=0, data=[71, 100])\n",
      "midi.NoteOnEvent(tick=96, channel=0, data=[71, 0])\n",
      "midi.NoteOnEvent(tick=0, channel=0, data=[69, 100])\n",
      "midi.NoteOnEvent(tick=96, channel=0, data=[69, 0])\n",
      "midi.NoteOnEvent(tick=0, channel=0, data=[67, 100])\n",
      "midi.NoteOnEvent(tick=96, channel=0, data=[67, 0])\n",
      "midi.NoteOnEvent(tick=0, channel=0, data=[65, 100])\n",
      "midi.NoteOnEvent(tick=96, channel=0, data=[65, 0])\n",
      "midi.NoteOnEvent(tick=0, channel=0, data=[64, 100])\n",
      "midi.NoteOnEvent(tick=96, channel=0, data=[64, 0])\n",
      "midi.NoteOnEvent(tick=0, channel=0, data=[65, 100])\n",
      "midi.NoteOnEvent(tick=96, channel=0, data=[65, 0])\n",
      "midi.NoteOnEvent(tick=0, channel=0, data=[69, 100])\n",
      "midi.NoteOnEvent(tick=96, channel=0, data=[69, 0])\n",
      "midi.NoteOnEvent(tick=0, channel=0, data=[74, 100])\n",
      "midi.NoteOnEvent(tick=96, channel=0, data=[74, 0])\n",
      "midi.NoteOnEvent(tick=0, channel=0, data=[77, 100])\n",
      "midi.NoteOnEvent(tick=96, channel=0, data=[77, 0])\n",
      "midi.NoteOnEvent(tick=0, channel=0, data=[81, 100])\n",
      "midi.NoteOnEvent(tick=480, channel=0, data=[81, 0])\n",
      "midi.NoteOnEvent(tick=0, channel=0, data=[79, 100])\n",
      "midi.NoteOnEvent(tick=96, channel=0, data=[79, 0])\n",
      "midi.NoteOnEvent(tick=0, channel=0, data=[77, 100])\n",
      "midi.NoteOnEvent(tick=96, channel=0, data=[77, 0])\n",
      "midi.NoteOnEvent(tick=0, channel=0, data=[81, 100])\n",
      "midi.NoteOnEvent(tick=96, channel=0, data=[81, 0])\n",
      "midi.NoteOnEvent(tick=0, channel=0, data=[79, 100])\n",
      "midi.NoteOnEvent(tick=96, channel=0, data=[79, 0])\n",
      "midi.NoteOnEvent(tick=0, channel=0, data=[77, 100])\n",
      "midi.NoteOnEvent(tick=96, channel=0, data=[77, 0])\n",
      "midi.NoteOnEvent(tick=0, channel=0, data=[76, 100])\n",
      "midi.NoteOnEvent(tick=96, channel=0, data=[76, 0])\n",
      "midi.NoteOnEvent(tick=0, channel=0, data=[79, 100])\n",
      "midi.NoteOnEvent(tick=96, channel=0, data=[79, 0])\n",
      "midi.NoteOnEvent(tick=0, channel=0, data=[77, 100])\n",
      "midi.NoteOnEvent(tick=96, channel=0, data=[77, 0])\n",
      "midi.NoteOnEvent(tick=0, channel=0, data=[76, 100])\n",
      "midi.NoteOnEvent(tick=96, channel=0, data=[76, 0])\n",
      "midi.NoteOnEvent(tick=0, channel=0, data=[74, 100])\n",
      "midi.NoteOnEvent(tick=96, channel=0, data=[74, 0])\n",
      "midi.NoteOnEvent(tick=0, channel=0, data=[77, 100])\n",
      "midi.NoteOnEvent(tick=96, channel=0, data=[77, 0])\n",
      "midi.NoteOnEvent(tick=0, channel=0, data=[76, 100])\n",
      "midi.NoteOnEvent(tick=96, channel=0, data=[76, 0])\n",
      "midi.NoteOnEvent(tick=0, channel=0, data=[74, 100])\n",
      "midi.NoteOnEvent(tick=96, channel=0, data=[74, 0])\n",
      "midi.NoteOnEvent(tick=0, channel=0, data=[73, 100])\n",
      "midi.NoteOnEvent(tick=96, channel=0, data=[73, 0])\n",
      "midi.NoteOnEvent(tick=0, channel=0, data=[76, 100])\n",
      "midi.NoteOnEvent(tick=96, channel=0, data=[76, 0])\n",
      "midi.NoteOnEvent(tick=0, channel=0, data=[74, 100])\n",
      "midi.NoteOnEvent(tick=384, channel=0, data=[74, 0])\n",
      "midi.NoteOnEvent(tick=96, channel=0, data=[74, 100])\n",
      "midi.NoteOnEvent(tick=96, channel=0, data=[74, 0])\n",
      "midi.NoteOnEvent(tick=0, channel=0, data=[73, 100])\n",
      "midi.NoteOnEvent(tick=96, channel=0, data=[73, 0])\n",
      "midi.NoteOnEvent(tick=0, channel=0, data=[74, 100])\n",
      "midi.NoteOnEvent(tick=96, channel=0, data=[74, 0])\n",
      "midi.NoteOnEvent(tick=0, channel=0, data=[76, 100])\n",
      "midi.NoteOnEvent(tick=96, channel=0, data=[76, 0])\n",
      "midi.NoteOnEvent(tick=0, channel=0, data=[74, 100])\n",
      "midi.NoteOnEvent(tick=96, channel=0, data=[74, 0])\n",
      "midi.NoteOnEvent(tick=0, channel=0, data=[73, 100])\n",
      "midi.NoteOnEvent(tick=96, channel=0, data=[73, 0])\n",
      "midi.NoteOnEvent(tick=0, channel=0, data=[74, 100])\n",
      "midi.NoteOnEvent(tick=96, channel=0, data=[74, 0])\n",
      "midi.NoteOnEvent(tick=0, channel=0, data=[77, 100])\n",
      "midi.NoteOnEvent(tick=96, channel=0, data=[77, 0])\n",
      "midi.NoteOnEvent(tick=0, channel=0, data=[74, 100])\n",
      "midi.NoteOnEvent(tick=96, channel=0, data=[74, 0])\n",
      "midi.NoteOnEvent(tick=0, channel=0, data=[73, 100])\n",
      "midi.NoteOnEvent(tick=96, channel=0, data=[73, 0])\n",
      "midi.NoteOnEvent(tick=0, channel=0, data=[74, 100])\n",
      "midi.NoteOnEvent(tick=96, channel=0, data=[74, 0])\n",
      "midi.NoteOnEvent(tick=0, channel=0, data=[79, 100])\n",
      "midi.NoteOnEvent(tick=96, channel=0, data=[79, 0])\n",
      "midi.NoteOnEvent(tick=0, channel=0, data=[74, 100])\n",
      "midi.NoteOnEvent(tick=96, channel=0, data=[74, 0])\n",
      "midi.NoteOnEvent(tick=0, channel=0, data=[73, 100])\n",
      "midi.NoteOnEvent(tick=96, channel=0, data=[73, 0])\n",
      "midi.NoteOnEvent(tick=0, channel=0, data=[74, 100])\n",
      "midi.NoteOnEvent(tick=96, channel=0, data=[74, 0])\n",
      "midi.NoteOnEvent(tick=0, channel=0, data=[81, 100])\n",
      "midi.NoteOnEvent(tick=96, channel=0, data=[81, 0])\n",
      "midi.NoteOnEvent(tick=0, channel=0, data=[74, 100])\n",
      "midi.NoteOnEvent(tick=96, channel=0, data=[74, 0])\n",
      "midi.NoteOnEvent(tick=0, channel=0, data=[73, 100])\n",
      "midi.NoteOnEvent(tick=96, channel=0, data=[73, 0])\n",
      "midi.NoteOnEvent(tick=0, channel=0, data=[74, 100])\n",
      "midi.NoteOnEvent(tick=96, channel=0, data=[74, 0])\n",
      "midi.NoteOnEvent(tick=0, channel=0, data=[82, 100])\n",
      "midi.NoteOnEvent(tick=864, channel=0, data=[82, 0])\n",
      "midi.NoteOnEvent(tick=0, channel=0, data=[72, 100])\n",
      "midi.NoteOnEvent(tick=96, channel=0, data=[72, 0])\n",
      "midi.NoteOnEvent(tick=0, channel=0, data=[71, 100])\n",
      "midi.NoteOnEvent(tick=96, channel=0, data=[71, 0])\n",
      "midi.NoteOnEvent(tick=0, channel=0, data=[72, 100])\n",
      "midi.NoteOnEvent(tick=96, channel=0, data=[72, 0])\n",
      "midi.NoteOnEvent(tick=0, channel=0, data=[76, 100])\n",
      "midi.NoteOnEvent(tick=96, channel=0, data=[76, 0])\n",
      "midi.NoteOnEvent(tick=0, channel=0, data=[72, 100])\n",
      "midi.NoteOnEvent(tick=96, channel=0, data=[72, 0])\n",
      "midi.NoteOnEvent(tick=0, channel=0, data=[71, 100])\n",
      "midi.NoteOnEvent(tick=96, channel=0, data=[71, 0])\n",
      "midi.NoteOnEvent(tick=0, channel=0, data=[72, 100])\n",
      "midi.NoteOnEvent(tick=96, channel=0, data=[72, 0])\n",
      "midi.NoteOnEvent(tick=0, channel=0, data=[77, 100])\n",
      "midi.NoteOnEvent(tick=96, channel=0, data=[77, 0])\n",
      "midi.NoteOnEvent(tick=0, channel=0, data=[72, 100])\n",
      "midi.NoteOnEvent(tick=96, channel=0, data=[72, 0])\n",
      "midi.NoteOnEvent(tick=0, channel=0, data=[71, 100])\n",
      "midi.NoteOnEvent(tick=96, channel=0, data=[71, 0])\n",
      "midi.NoteOnEvent(tick=0, channel=0, data=[72, 100])\n",
      "midi.NoteOnEvent(tick=96, channel=0, data=[72, 0])\n",
      "midi.NoteOnEvent(tick=0, channel=0, data=[79, 100])\n",
      "midi.NoteOnEvent(tick=96, channel=0, data=[79, 0])\n",
      "midi.NoteOnEvent(tick=0, channel=0, data=[72, 100])\n",
      "midi.NoteOnEvent(tick=96, channel=0, data=[72, 0])\n",
      "midi.NoteOnEvent(tick=0, channel=0, data=[71, 100])\n",
      "midi.NoteOnEvent(tick=96, channel=0, data=[71, 0])\n",
      "midi.NoteOnEvent(tick=0, channel=0, data=[72, 100])\n",
      "midi.NoteOnEvent(tick=96, channel=0, data=[72, 0])\n",
      "midi.NoteOnEvent(tick=0, channel=0, data=[81, 100])\n",
      "midi.NoteOnEvent(tick=864, channel=0, data=[81, 0])\n",
      "midi.NoteOnEvent(tick=0, channel=0, data=[74, 100])\n",
      "midi.NoteOnEvent(tick=96, channel=0, data=[74, 0])\n",
      "midi.NoteOnEvent(tick=0, channel=0, data=[76, 100])\n",
      "midi.NoteOnEvent(tick=96, channel=0, data=[76, 0])\n",
      "midi.NoteOnEvent(tick=0, channel=0, data=[78, 100])\n",
      "midi.NoteOnEvent(tick=96, channel=0, data=[78, 0])\n",
      "midi.NoteOnEvent(tick=0, channel=0, data=[79, 100])\n",
      "midi.NoteOnEvent(tick=96, channel=0, data=[79, 0])\n",
      "midi.NoteOnEvent(tick=0, channel=0, data=[81, 100])\n",
      "midi.NoteOnEvent(tick=96, channel=0, data=[81, 0])\n",
      "midi.NoteOnEvent(tick=0, channel=0, data=[82, 100])\n",
      "midi.NoteOnEvent(tick=96, channel=0, data=[82, 0])\n",
      "midi.NoteOnEvent(tick=0, channel=0, data=[84, 100])\n",
      "midi.NoteOnEvent(tick=96, channel=0, data=[84, 0])\n",
      "midi.NoteOnEvent(tick=0, channel=0, data=[86, 100])\n",
      "midi.NoteOnEvent(tick=96, channel=0, data=[86, 0])\n",
      "midi.NoteOnEvent(tick=0, channel=0, data=[84, 100])\n",
      "midi.NoteOnEvent(tick=96, channel=0, data=[84, 0])\n",
      "midi.NoteOnEvent(tick=0, channel=0, data=[82, 100])\n",
      "midi.NoteOnEvent(tick=96, channel=0, data=[82, 0])\n",
      "midi.NoteOnEvent(tick=0, channel=0, data=[81, 100])\n",
      "midi.NoteOnEvent(tick=96, channel=0, data=[81, 0])\n",
      "midi.NoteOnEvent(tick=0, channel=0, data=[79, 100])\n",
      "midi.NoteOnEvent(tick=96, channel=0, data=[79, 0])\n",
      "midi.NoteOnEvent(tick=0, channel=0, data=[78, 100])\n",
      "midi.NoteOnEvent(tick=96, channel=0, data=[78, 0])\n",
      "midi.NoteOnEvent(tick=0, channel=0, data=[76, 100])\n",
      "midi.NoteOnEvent(tick=96, channel=0, data=[76, 0])\n",
      "midi.NoteOnEvent(tick=0, channel=0, data=[74, 100])\n",
      "midi.NoteOnEvent(tick=96, channel=0, data=[74, 0])\n",
      "midi.NoteOnEvent(tick=0, channel=0, data=[79, 100])\n",
      "midi.NoteOnEvent(tick=864, channel=0, data=[79, 0])\n",
      "midi.NoteOnEvent(tick=0, channel=0, data=[76, 100])\n",
      "midi.NoteOnEvent(tick=96, channel=0, data=[76, 0])\n",
      "midi.NoteOnEvent(tick=0, channel=0, data=[77, 100])\n",
      "midi.NoteOnEvent(tick=96, channel=0, data=[77, 0])\n",
      "midi.NoteOnEvent(tick=0, channel=0, data=[79, 100])\n",
      "midi.NoteOnEvent(tick=96, channel=0, data=[79, 0])\n",
      "midi.NoteOnEvent(tick=0, channel=0, data=[81, 100])\n",
      "midi.NoteOnEvent(tick=96, channel=0, data=[81, 0])\n",
      "midi.NoteOnEvent(tick=0, channel=0, data=[83, 100])\n",
      "midi.NoteOnEvent(tick=96, channel=0, data=[83, 0])\n",
      "midi.NoteOnEvent(tick=0, channel=0, data=[85, 100])\n",
      "midi.NoteOnEvent(tick=96, channel=0, data=[85, 0])\n",
      "midi.NoteOnEvent(tick=0, channel=0, data=[86, 100])\n",
      "midi.NoteOnEvent(tick=96, channel=0, data=[86, 0])\n",
      "midi.NoteOnEvent(tick=0, channel=0, data=[88, 100])\n",
      "midi.NoteOnEvent(tick=96, channel=0, data=[88, 0])\n",
      "midi.NoteOnEvent(tick=0, channel=0, data=[86, 100])\n",
      "midi.NoteOnEvent(tick=96, channel=0, data=[86, 0])\n",
      "midi.NoteOnEvent(tick=0, channel=0, data=[85, 100])\n",
      "midi.NoteOnEvent(tick=96, channel=0, data=[85, 0])\n",
      "midi.NoteOnEvent(tick=0, channel=0, data=[83, 100])\n",
      "midi.NoteOnEvent(tick=96, channel=0, data=[83, 0])\n",
      "midi.NoteOnEvent(tick=0, channel=0, data=[81, 100])\n",
      "midi.NoteOnEvent(tick=96, channel=0, data=[81, 0])\n",
      "midi.NoteOnEvent(tick=0, channel=0, data=[79, 100])\n",
      "midi.NoteOnEvent(tick=96, channel=0, data=[79, 0])\n",
      "midi.NoteOnEvent(tick=0, channel=0, data=[77, 100])\n",
      "midi.NoteOnEvent(tick=96, channel=0, data=[77, 0])\n",
      "midi.NoteOnEvent(tick=0, channel=0, data=[76, 100])\n",
      "midi.NoteOnEvent(tick=96, channel=0, data=[76, 0])\n",
      "midi.NoteOnEvent(tick=0, channel=0, data=[77, 100])\n",
      "midi.NoteOnEvent(tick=96, channel=0, data=[77, 0])\n",
      "midi.NoteOnEvent(tick=0, channel=0, data=[86, 100])\n",
      "midi.NoteOnEvent(tick=96, channel=0, data=[86, 0])\n",
      "midi.NoteOnEvent(tick=0, channel=0, data=[77, 100])\n",
      "midi.NoteOnEvent(tick=96, channel=0, data=[77, 0])\n",
      "midi.NoteOnEvent(tick=0, channel=0, data=[76, 100])\n",
      "midi.NoteOnEvent(tick=96, channel=0, data=[76, 0])\n",
      "midi.NoteOnEvent(tick=0, channel=0, data=[77, 100])\n",
      "midi.NoteOnEvent(tick=96, channel=0, data=[77, 0])\n",
      "midi.NoteOnEvent(tick=0, channel=0, data=[81, 100])\n",
      "midi.NoteOnEvent(tick=96, channel=0, data=[81, 0])\n",
      "midi.NoteOnEvent(tick=0, channel=0, data=[86, 100])\n",
      "midi.NoteOnEvent(tick=96, channel=0, data=[86, 0])\n",
      "midi.NoteOnEvent(tick=0, channel=0, data=[84, 100])\n",
      "midi.NoteOnEvent(tick=96, channel=0, data=[84, 0])\n",
      "midi.NoteOnEvent(tick=0, channel=0, data=[83, 100])\n",
      "midi.NoteOnEvent(tick=96, channel=0, data=[83, 0])\n",
      "midi.NoteOnEvent(tick=0, channel=0, data=[77, 100])\n",
      "midi.NoteOnEvent(tick=96, channel=0, data=[77, 0])\n",
      "midi.NoteOnEvent(tick=0, channel=0, data=[84, 100])\n",
      "midi.NoteOnEvent(tick=96, channel=0, data=[84, 0])\n",
      "midi.NoteOnEvent(tick=0, channel=0, data=[77, 100])\n",
      "midi.NoteOnEvent(tick=96, channel=0, data=[77, 0])\n",
      "midi.NoteOnEvent(tick=0, channel=0, data=[86, 100])\n",
      "midi.NoteOnEvent(tick=96, channel=0, data=[86, 0])\n",
      "midi.NoteOnEvent(tick=0, channel=0, data=[77, 100])\n",
      "midi.NoteOnEvent(tick=96, channel=0, data=[77, 0])\n",
      "midi.NoteOnEvent(tick=0, channel=0, data=[83, 100])\n",
      "midi.NoteOnEvent(tick=96, channel=0, data=[83, 0])\n",
      "midi.NoteOnEvent(tick=0, channel=0, data=[77, 100])\n",
      "midi.NoteOnEvent(tick=96, channel=0, data=[77, 0])\n",
      "midi.NoteOnEvent(tick=0, channel=0, data=[76, 100])\n",
      "midi.NoteOnEvent(tick=96, channel=0, data=[76, 0])\n",
      "midi.NoteOnEvent(tick=0, channel=0, data=[84, 100])\n",
      "midi.NoteOnEvent(tick=96, channel=0, data=[84, 0])\n",
      "midi.NoteOnEvent(tick=0, channel=0, data=[76, 100])\n",
      "midi.NoteOnEvent(tick=96, channel=0, data=[76, 0])\n",
      "midi.NoteOnEvent(tick=0, channel=0, data=[74, 100])\n",
      "midi.NoteOnEvent(tick=96, channel=0, data=[74, 0])\n",
      "midi.NoteOnEvent(tick=0, channel=0, data=[76, 100])\n",
      "midi.NoteOnEvent(tick=96, channel=0, data=[76, 0])\n",
      "midi.NoteOnEvent(tick=0, channel=0, data=[79, 100])\n",
      "midi.NoteOnEvent(tick=96, channel=0, data=[79, 0])\n",
      "midi.NoteOnEvent(tick=0, channel=0, data=[84, 100])\n",
      "midi.NoteOnEvent(tick=96, channel=0, data=[84, 0])\n",
      "midi.NoteOnEvent(tick=0, channel=0, data=[83, 100])\n",
      "midi.NoteOnEvent(tick=96, channel=0, data=[83, 0])\n",
      "midi.NoteOnEvent(tick=0, channel=0, data=[81, 100])\n",
      "midi.NoteOnEvent(tick=96, channel=0, data=[81, 0])\n",
      "midi.NoteOnEvent(tick=0, channel=0, data=[76, 100])\n",
      "midi.NoteOnEvent(tick=96, channel=0, data=[76, 0])\n",
      "midi.NoteOnEvent(tick=0, channel=0, data=[83, 100])\n",
      "midi.NoteOnEvent(tick=96, channel=0, data=[83, 0])\n",
      "midi.NoteOnEvent(tick=0, channel=0, data=[76, 100])\n",
      "midi.NoteOnEvent(tick=96, channel=0, data=[76, 0])\n",
      "midi.NoteOnEvent(tick=0, channel=0, data=[84, 100])\n",
      "midi.NoteOnEvent(tick=96, channel=0, data=[84, 0])\n",
      "midi.NoteOnEvent(tick=0, channel=0, data=[76, 100])\n",
      "midi.NoteOnEvent(tick=96, channel=0, data=[76, 0])\n",
      "midi.NoteOnEvent(tick=0, channel=0, data=[81, 100])\n",
      "midi.NoteOnEvent(tick=96, channel=0, data=[81, 0])\n",
      "midi.NoteOnEvent(tick=0, channel=0, data=[76, 100])\n",
      "midi.NoteOnEvent(tick=96, channel=0, data=[76, 0])\n",
      "midi.NoteOnEvent(tick=0, channel=0, data=[74, 100])\n",
      "midi.NoteOnEvent(tick=96, channel=0, data=[74, 0])\n",
      "midi.NoteOnEvent(tick=0, channel=0, data=[83, 100])\n",
      "midi.NoteOnEvent(tick=96, channel=0, data=[83, 0])\n",
      "midi.NoteOnEvent(tick=0, channel=0, data=[74, 100])\n",
      "midi.NoteOnEvent(tick=96, channel=0, data=[74, 0])\n",
      "midi.NoteOnEvent(tick=0, channel=0, data=[72, 100])\n",
      "midi.NoteOnEvent(tick=96, channel=0, data=[72, 0])\n",
      "midi.NoteOnEvent(tick=0, channel=0, data=[74, 100])\n",
      "midi.NoteOnEvent(tick=96, channel=0, data=[74, 0])\n",
      "midi.NoteOnEvent(tick=0, channel=0, data=[77, 100])\n",
      "midi.NoteOnEvent(tick=96, channel=0, data=[77, 0])\n",
      "midi.NoteOnEvent(tick=0, channel=0, data=[83, 100])\n",
      "midi.NoteOnEvent(tick=96, channel=0, data=[83, 0])\n",
      "midi.NoteOnEvent(tick=0, channel=0, data=[81, 100])\n",
      "midi.NoteOnEvent(tick=96, channel=0, data=[81, 0])\n",
      "midi.NoteOnEvent(tick=0, channel=0, data=[80, 100])\n",
      "midi.NoteOnEvent(tick=96, channel=0, data=[80, 0])\n",
      "midi.NoteOnEvent(tick=0, channel=0, data=[74, 100])\n",
      "midi.NoteOnEvent(tick=96, channel=0, data=[74, 0])\n",
      "midi.NoteOnEvent(tick=0, channel=0, data=[81, 100])\n",
      "midi.NoteOnEvent(tick=96, channel=0, data=[81, 0])\n",
      "midi.NoteOnEvent(tick=0, channel=0, data=[74, 100])\n",
      "midi.NoteOnEvent(tick=96, channel=0, data=[74, 0])\n",
      "midi.NoteOnEvent(tick=0, channel=0, data=[83, 100])\n",
      "midi.NoteOnEvent(tick=96, channel=0, data=[83, 0])\n",
      "midi.NoteOnEvent(tick=0, channel=0, data=[74, 100])\n",
      "midi.NoteOnEvent(tick=96, channel=0, data=[74, 0])\n",
      "midi.NoteOnEvent(tick=0, channel=0, data=[80, 100])\n",
      "midi.NoteOnEvent(tick=96, channel=0, data=[80, 0])\n",
      "midi.NoteOnEvent(tick=0, channel=0, data=[74, 100])\n",
      "midi.NoteOnEvent(tick=96, channel=0, data=[74, 0])\n",
      "midi.NoteOnEvent(tick=0, channel=0, data=[72, 100])\n",
      "midi.NoteOnEvent(tick=96, channel=0, data=[72, 0])\n",
      "midi.NoteOnEvent(tick=0, channel=0, data=[81, 100])\n",
      "midi.NoteOnEvent(tick=96, channel=0, data=[81, 0])\n",
      "midi.NoteOnEvent(tick=0, channel=0, data=[72, 100])\n",
      "midi.NoteOnEvent(tick=96, channel=0, data=[72, 0])\n",
      "midi.NoteOnEvent(tick=0, channel=0, data=[71, 100])\n",
      "midi.NoteOnEvent(tick=96, channel=0, data=[71, 0])\n",
      "midi.NoteOnEvent(tick=0, channel=0, data=[72, 100])\n",
      "midi.NoteOnEvent(tick=96, channel=0, data=[72, 0])\n",
      "midi.NoteOnEvent(tick=0, channel=0, data=[76, 100])\n",
      "midi.NoteOnEvent(tick=96, channel=0, data=[76, 0])\n",
      "midi.NoteOnEvent(tick=0, channel=0, data=[81, 100])\n",
      "midi.NoteOnEvent(tick=96, channel=0, data=[81, 0])\n",
      "midi.NoteOnEvent(tick=0, channel=0, data=[76, 100])\n",
      "midi.NoteOnEvent(tick=96, channel=0, data=[76, 0])\n",
      "midi.NoteOnEvent(tick=0, channel=0, data=[77, 100])\n",
      "midi.NoteOnEvent(tick=96, channel=0, data=[77, 0])\n",
      "midi.NoteOnEvent(tick=0, channel=0, data=[81, 100])\n",
      "midi.NoteOnEvent(tick=96, channel=0, data=[81, 0])\n",
      "midi.NoteOnEvent(tick=0, channel=0, data=[74, 100])\n",
      "midi.NoteOnEvent(tick=96, channel=0, data=[74, 0])\n",
      "midi.NoteOnEvent(tick=0, channel=0, data=[72, 100])\n",
      "midi.NoteOnEvent(tick=96, channel=0, data=[72, 0])\n",
      "midi.NoteOnEvent(tick=0, channel=0, data=[74, 100])\n",
      "midi.NoteOnEvent(tick=96, channel=0, data=[74, 0])\n",
      "midi.NoteOnEvent(tick=0, channel=0, data=[77, 100])\n",
      "midi.NoteOnEvent(tick=96, channel=0, data=[77, 0])\n",
      "midi.NoteOnEvent(tick=0, channel=0, data=[81, 100])\n",
      "midi.NoteOnEvent(tick=96, channel=0, data=[81, 0])\n",
      "midi.NoteOnEvent(tick=0, channel=0, data=[71, 100])\n",
      "midi.NoteOnEvent(tick=96, channel=0, data=[71, 0])\n",
      "midi.NoteOnEvent(tick=0, channel=0, data=[72, 100])\n",
      "midi.NoteOnEvent(tick=192, channel=0, data=[72, 0])\n",
      "midi.NoteOnEvent(tick=0, channel=0, data=[81, 100])\n",
      "midi.NoteOnEvent(tick=192, channel=0, data=[81, 0])\n",
      "midi.NoteOnEvent(tick=0, channel=0, data=[71, 100])\n",
      "midi.NoteOnEvent(tick=192, channel=0, data=[71, 0])\n",
      "midi.NoteOnEvent(tick=0, channel=0, data=[80, 100])\n",
      "midi.NoteOnEvent(tick=192, channel=0, data=[80, 0])\n",
      "midi.NoteOnEvent(tick=0, channel=0, data=[81, 100])\n",
      "midi.NoteOnEvent(tick=384, channel=0, data=[81, 0])\n",
      "midi.NoteOnEvent(tick=96, channel=0, data=[57, 100])\n",
      "midi.NoteOnEvent(tick=96, channel=0, data=[57, 0])\n",
      "midi.NoteOnEvent(tick=0, channel=0, data=[56, 100])\n",
      "midi.NoteOnEvent(tick=96, channel=0, data=[56, 0])\n",
      "midi.NoteOnEvent(tick=0, channel=0, data=[57, 100])\n",
      "midi.NoteOnEvent(tick=96, channel=0, data=[57, 0])\n",
      "midi.NoteOnEvent(tick=0, channel=0, data=[60, 100])\n",
      "midi.NoteOnEvent(tick=96, channel=0, data=[60, 0])\n",
      "midi.NoteOnEvent(tick=0, channel=0, data=[57, 100])\n",
      "midi.NoteOnEvent(tick=96, channel=0, data=[57, 0])\n",
      "midi.NoteOnEvent(tick=0, channel=0, data=[56, 100])\n",
      "midi.NoteOnEvent(tick=96, channel=0, data=[56, 0])\n",
      "midi.NoteOnEvent(tick=0, channel=0, data=[57, 100])\n",
      "midi.NoteOnEvent(tick=96, channel=0, data=[57, 0])\n",
      "midi.NoteOnEvent(tick=0, channel=0, data=[61, 100])\n",
      "midi.NoteOnEvent(tick=96, channel=0, data=[61, 0])\n",
      "midi.NoteOnEvent(tick=0, channel=0, data=[57, 100])\n",
      "midi.NoteOnEvent(tick=96, channel=0, data=[57, 0])\n",
      "midi.NoteOnEvent(tick=0, channel=0, data=[56, 100])\n",
      "midi.NoteOnEvent(tick=96, channel=0, data=[56, 0])\n",
      "midi.NoteOnEvent(tick=0, channel=0, data=[57, 100])\n",
      "midi.NoteOnEvent(tick=96, channel=0, data=[57, 0])\n",
      "midi.NoteOnEvent(tick=0, channel=0, data=[62, 100])\n",
      "midi.NoteOnEvent(tick=96, channel=0, data=[62, 0])\n",
      "midi.NoteOnEvent(tick=0, channel=0, data=[57, 100])\n",
      "midi.NoteOnEvent(tick=96, channel=0, data=[57, 0])\n",
      "midi.NoteOnEvent(tick=0, channel=0, data=[56, 100])\n",
      "midi.NoteOnEvent(tick=96, channel=0, data=[56, 0])\n",
      "midi.NoteOnEvent(tick=0, channel=0, data=[57, 100])\n",
      "midi.NoteOnEvent(tick=96, channel=0, data=[57, 0])\n",
      "midi.NoteOnEvent(tick=0, channel=0, data=[64, 100])\n",
      "midi.NoteOnEvent(tick=96, channel=0, data=[64, 0])\n",
      "midi.NoteOnEvent(tick=0, channel=0, data=[57, 100])\n",
      "midi.NoteOnEvent(tick=96, channel=0, data=[57, 0])\n",
      "midi.NoteOnEvent(tick=0, channel=0, data=[56, 100])\n",
      "midi.NoteOnEvent(tick=96, channel=0, data=[56, 0])\n",
      "midi.NoteOnEvent(tick=0, channel=0, data=[57, 100])\n",
      "midi.NoteOnEvent(tick=96, channel=0, data=[57, 0])\n",
      "midi.NoteOnEvent(tick=0, channel=0, data=[65, 100])\n",
      "midi.NoteOnEvent(tick=96, channel=0, data=[65, 0])\n",
      "midi.NoteOnEvent(tick=0, channel=0, data=[62, 100])\n",
      "midi.NoteOnEvent(tick=96, channel=0, data=[62, 0])\n",
      "midi.NoteOnEvent(tick=0, channel=0, data=[61, 100])\n",
      "midi.NoteOnEvent(tick=96, channel=0, data=[61, 0])\n",
      "midi.NoteOnEvent(tick=0, channel=0, data=[62, 100])\n",
      "midi.NoteOnEvent(tick=96, channel=0, data=[62, 0])\n",
      "midi.NoteOnEvent(tick=0, channel=0, data=[66, 100])\n",
      "midi.NoteOnEvent(tick=96, channel=0, data=[66, 0])\n",
      "midi.NoteOnEvent(tick=0, channel=0, data=[62, 100])\n",
      "midi.NoteOnEvent(tick=96, channel=0, data=[62, 0])\n",
      "midi.NoteOnEvent(tick=0, channel=0, data=[61, 100])\n",
      "midi.NoteOnEvent(tick=96, channel=0, data=[61, 0])\n",
      "midi.NoteOnEvent(tick=0, channel=0, data=[62, 100])\n",
      "midi.NoteOnEvent(tick=96, channel=0, data=[62, 0])\n",
      "midi.NoteOnEvent(tick=0, channel=0, data=[67, 100])\n",
      "midi.NoteOnEvent(tick=96, channel=0, data=[67, 0])\n",
      "midi.NoteOnEvent(tick=0, channel=0, data=[62, 100])\n",
      "midi.NoteOnEvent(tick=96, channel=0, data=[62, 0])\n",
      "midi.NoteOnEvent(tick=0, channel=0, data=[61, 100])\n",
      "midi.NoteOnEvent(tick=96, channel=0, data=[61, 0])\n",
      "midi.NoteOnEvent(tick=0, channel=0, data=[62, 100])\n",
      "midi.NoteOnEvent(tick=96, channel=0, data=[62, 0])\n",
      "midi.NoteOnEvent(tick=0, channel=0, data=[69, 100])\n",
      "midi.NoteOnEvent(tick=96, channel=0, data=[69, 0])\n",
      "midi.NoteOnEvent(tick=0, channel=0, data=[62, 100])\n",
      "midi.NoteOnEvent(tick=96, channel=0, data=[62, 0])\n",
      "midi.NoteOnEvent(tick=0, channel=0, data=[61, 100])\n",
      "midi.NoteOnEvent(tick=96, channel=0, data=[61, 0])\n",
      "midi.NoteOnEvent(tick=0, channel=0, data=[62, 100])\n",
      "midi.NoteOnEvent(tick=96, channel=0, data=[62, 0])\n",
      "midi.NoteOnEvent(tick=0, channel=0, data=[70, 100])\n",
      "midi.NoteOnEvent(tick=96, channel=0, data=[70, 0])\n",
      "midi.NoteOnEvent(tick=0, channel=0, data=[67, 100])\n",
      "midi.NoteOnEvent(tick=96, channel=0, data=[67, 0])\n",
      "midi.NoteOnEvent(tick=0, channel=0, data=[66, 100])\n",
      "midi.NoteOnEvent(tick=96, channel=0, data=[66, 0])\n",
      "midi.NoteOnEvent(tick=0, channel=0, data=[67, 100])\n",
      "midi.NoteOnEvent(tick=96, channel=0, data=[67, 0])\n",
      "midi.NoteOnEvent(tick=0, channel=0, data=[71, 100])\n",
      "midi.NoteOnEvent(tick=96, channel=0, data=[71, 0])\n",
      "midi.NoteOnEvent(tick=0, channel=0, data=[67, 100])\n",
      "midi.NoteOnEvent(tick=96, channel=0, data=[67, 0])\n",
      "midi.NoteOnEvent(tick=0, channel=0, data=[66, 100])\n",
      "midi.NoteOnEvent(tick=96, channel=0, data=[66, 0])\n",
      "midi.NoteOnEvent(tick=0, channel=0, data=[67, 100])\n",
      "midi.NoteOnEvent(tick=96, channel=0, data=[67, 0])\n",
      "midi.NoteOnEvent(tick=0, channel=0, data=[72, 100])\n",
      "midi.NoteOnEvent(tick=96, channel=0, data=[72, 0])\n",
      "midi.NoteOnEvent(tick=0, channel=0, data=[67, 100])\n",
      "midi.NoteOnEvent(tick=96, channel=0, data=[67, 0])\n",
      "midi.NoteOnEvent(tick=0, channel=0, data=[66, 100])\n",
      "midi.NoteOnEvent(tick=96, channel=0, data=[66, 0])\n",
      "midi.NoteOnEvent(tick=0, channel=0, data=[67, 100])\n",
      "midi.NoteOnEvent(tick=96, channel=0, data=[67, 0])\n",
      "midi.NoteOnEvent(tick=0, channel=0, data=[74, 100])\n",
      "midi.NoteOnEvent(tick=96, channel=0, data=[74, 0])\n",
      "midi.NoteOnEvent(tick=0, channel=0, data=[67, 100])\n",
      "midi.NoteOnEvent(tick=96, channel=0, data=[67, 0])\n",
      "midi.NoteOnEvent(tick=0, channel=0, data=[66, 100])\n",
      "midi.NoteOnEvent(tick=96, channel=0, data=[66, 0])\n",
      "midi.NoteOnEvent(tick=0, channel=0, data=[67, 100])\n",
      "midi.NoteOnEvent(tick=96, channel=0, data=[67, 0])\n",
      "midi.NoteOnEvent(tick=0, channel=0, data=[75, 100])\n",
      "midi.NoteOnEvent(tick=96, channel=0, data=[75, 0])\n",
      "midi.NoteOnEvent(tick=0, channel=0, data=[72, 100])\n",
      "midi.NoteOnEvent(tick=96, channel=0, data=[72, 0])\n",
      "midi.NoteOnEvent(tick=0, channel=0, data=[71, 100])\n",
      "midi.NoteOnEvent(tick=96, channel=0, data=[71, 0])\n",
      "midi.NoteOnEvent(tick=0, channel=0, data=[72, 100])\n",
      "midi.NoteOnEvent(tick=96, channel=0, data=[72, 0])\n",
      "midi.NoteOnEvent(tick=0, channel=0, data=[76, 100])\n",
      "midi.NoteOnEvent(tick=96, channel=0, data=[76, 0])\n",
      "midi.NoteOnEvent(tick=0, channel=0, data=[72, 100])\n",
      "midi.NoteOnEvent(tick=96, channel=0, data=[72, 0])\n",
      "midi.NoteOnEvent(tick=0, channel=0, data=[71, 100])\n",
      "midi.NoteOnEvent(tick=96, channel=0, data=[71, 0])\n",
      "midi.NoteOnEvent(tick=0, channel=0, data=[72, 100])\n",
      "midi.NoteOnEvent(tick=96, channel=0, data=[72, 0])\n",
      "midi.NoteOnEvent(tick=0, channel=0, data=[77, 100])\n",
      "midi.NoteOnEvent(tick=96, channel=0, data=[77, 0])\n",
      "midi.NoteOnEvent(tick=0, channel=0, data=[72, 100])\n",
      "midi.NoteOnEvent(tick=96, channel=0, data=[72, 0])\n",
      "midi.NoteOnEvent(tick=0, channel=0, data=[71, 100])\n",
      "midi.NoteOnEvent(tick=96, channel=0, data=[71, 0])\n",
      "midi.NoteOnEvent(tick=0, channel=0, data=[72, 100])\n",
      "midi.NoteOnEvent(tick=96, channel=0, data=[72, 0])\n",
      "midi.NoteOnEvent(tick=0, channel=0, data=[79, 100])\n",
      "midi.NoteOnEvent(tick=96, channel=0, data=[79, 0])\n",
      "midi.NoteOnEvent(tick=0, channel=0, data=[72, 100])\n",
      "midi.NoteOnEvent(tick=96, channel=0, data=[72, 0])\n",
      "midi.NoteOnEvent(tick=0, channel=0, data=[71, 100])\n",
      "midi.NoteOnEvent(tick=96, channel=0, data=[71, 0])\n",
      "midi.NoteOnEvent(tick=0, channel=0, data=[72, 100])\n",
      "midi.NoteOnEvent(tick=96, channel=0, data=[72, 0])\n",
      "midi.NoteOnEvent(tick=0, channel=0, data=[80, 100])\n",
      "midi.NoteOnEvent(tick=48, channel=0, data=[80, 0])\n",
      "midi.NoteOnEvent(tick=0, channel=0, data=[82, 100])\n",
      "midi.NoteOnEvent(tick=48, channel=0, data=[82, 0])\n",
      "midi.NoteOnEvent(tick=0, channel=0, data=[84, 100])\n",
      "midi.NoteOnEvent(tick=192, channel=0, data=[84, 0])\n",
      "midi.NoteOnEvent(tick=0, channel=0, data=[80, 100])\n",
      "midi.NoteOnEvent(tick=96, channel=0, data=[80, 0])\n",
      "midi.NoteOnEvent(tick=0, channel=0, data=[78, 100])\n",
      "midi.NoteOnEvent(tick=48, channel=0, data=[78, 0])\n",
      "midi.NoteOnEvent(tick=0, channel=0, data=[79, 100])\n",
      "midi.NoteOnEvent(tick=48, channel=0, data=[79, 0])\n",
      "midi.NoteOnEvent(tick=0, channel=0, data=[81, 100])\n",
      "midi.NoteOnEvent(tick=192, channel=0, data=[81, 0])\n",
      "midi.NoteOnEvent(tick=0, channel=0, data=[78, 100])\n",
      "midi.NoteOnEvent(tick=96, channel=0, data=[78, 0])\n",
      "midi.NoteOnEvent(tick=0, channel=0, data=[79, 100])\n",
      "midi.NoteOnEvent(tick=96, channel=0, data=[79, 0])\n",
      "midi.NoteOnEvent(tick=0, channel=0, data=[74, 100])\n",
      "midi.NoteOnEvent(tick=96, channel=0, data=[74, 0])\n",
      "midi.NoteOnEvent(tick=0, channel=0, data=[70, 100])\n",
      "midi.NoteOnEvent(tick=96, channel=0, data=[70, 0])\n",
      "midi.NoteOnEvent(tick=0, channel=0, data=[67, 100])\n",
      "midi.NoteOnEvent(tick=96, channel=0, data=[67, 0])\n",
      "midi.NoteOnEvent(tick=0, channel=0, data=[66, 100])\n",
      "midi.NoteOnEvent(tick=96, channel=0, data=[66, 0])\n",
      "midi.NoteOnEvent(tick=0, channel=0, data=[67, 100])\n",
      "midi.NoteOnEvent(tick=96, channel=0, data=[67, 0])\n",
      "midi.NoteOnEvent(tick=0, channel=0, data=[70, 100])\n",
      "midi.NoteOnEvent(tick=96, channel=0, data=[70, 0])\n",
      "midi.NoteOnEvent(tick=0, channel=0, data=[74, 100])\n",
      "midi.NoteOnEvent(tick=96, channel=0, data=[74, 0])\n",
      "midi.NoteOnEvent(tick=0, channel=0, data=[75, 100])\n",
      "midi.NoteOnEvent(tick=48, channel=0, data=[75, 0])\n",
      "midi.NoteOnEvent(tick=0, channel=0, data=[77, 100])\n",
      "midi.NoteOnEvent(tick=48, channel=0, data=[77, 0])\n",
      "midi.NoteOnEvent(tick=0, channel=0, data=[79, 100])\n",
      "midi.NoteOnEvent(tick=192, channel=0, data=[79, 0])\n",
      "midi.NoteOnEvent(tick=0, channel=0, data=[75, 100])\n",
      "midi.NoteOnEvent(tick=96, channel=0, data=[75, 0])\n",
      "midi.NoteOnEvent(tick=0, channel=0, data=[73, 100])\n",
      "midi.NoteOnEvent(tick=48, channel=0, data=[73, 0])\n",
      "midi.NoteOnEvent(tick=0, channel=0, data=[74, 100])\n",
      "midi.NoteOnEvent(tick=48, channel=0, data=[74, 0])\n",
      "midi.NoteOnEvent(tick=0, channel=0, data=[76, 100])\n",
      "midi.NoteOnEvent(tick=192, channel=0, data=[76, 0])\n",
      "midi.NoteOnEvent(tick=0, channel=0, data=[73, 100])\n",
      "midi.NoteOnEvent(tick=96, channel=0, data=[73, 0])\n",
      "midi.NoteOnEvent(tick=0, channel=0, data=[74, 100])\n",
      "midi.NoteOnEvent(tick=96, channel=0, data=[74, 0])\n",
      "midi.NoteOnEvent(tick=0, channel=0, data=[69, 100])\n",
      "midi.NoteOnEvent(tick=96, channel=0, data=[69, 0])\n",
      "midi.NoteOnEvent(tick=0, channel=0, data=[65, 100])\n",
      "midi.NoteOnEvent(tick=96, channel=0, data=[65, 0])\n",
      "midi.NoteOnEvent(tick=0, channel=0, data=[62, 100])\n",
      "midi.NoteOnEvent(tick=96, channel=0, data=[62, 0])\n",
      "midi.NoteOnEvent(tick=0, channel=0, data=[61, 100])\n",
      "midi.NoteOnEvent(tick=96, channel=0, data=[61, 0])\n",
      "midi.NoteOnEvent(tick=0, channel=0, data=[62, 100])\n",
      "midi.NoteOnEvent(tick=96, channel=0, data=[62, 0])\n",
      "midi.NoteOnEvent(tick=0, channel=0, data=[65, 100])\n",
      "midi.NoteOnEvent(tick=96, channel=0, data=[65, 0])\n",
      "midi.NoteOnEvent(tick=0, channel=0, data=[69, 100])\n",
      "midi.NoteOnEvent(tick=96, channel=0, data=[69, 0])\n",
      "midi.NoteOnEvent(tick=0, channel=0, data=[70, 100])\n",
      "midi.NoteOnEvent(tick=48, channel=0, data=[70, 0])\n",
      "midi.NoteOnEvent(tick=0, channel=0, data=[72, 100])\n",
      "midi.NoteOnEvent(tick=48, channel=0, data=[72, 0])\n",
      "midi.NoteOnEvent(tick=0, channel=0, data=[74, 100])\n",
      "midi.NoteOnEvent(tick=192, channel=0, data=[74, 0])\n",
      "midi.NoteOnEvent(tick=0, channel=0, data=[70, 100])\n",
      "midi.NoteOnEvent(tick=96, channel=0, data=[70, 0])\n",
      "midi.NoteOnEvent(tick=0, channel=0, data=[68, 100])\n",
      "midi.NoteOnEvent(tick=48, channel=0, data=[68, 0])\n",
      "midi.NoteOnEvent(tick=0, channel=0, data=[69, 100])\n",
      "midi.NoteOnEvent(tick=48, channel=0, data=[69, 0])\n",
      "midi.NoteOnEvent(tick=0, channel=0, data=[71, 100])\n",
      "midi.NoteOnEvent(tick=192, channel=0, data=[71, 0])\n",
      "midi.NoteOnEvent(tick=0, channel=0, data=[68, 100])\n",
      "midi.NoteOnEvent(tick=96, channel=0, data=[68, 0])\n",
      "midi.NoteOnEvent(tick=0, channel=0, data=[69, 100])\n",
      "midi.NoteOnEvent(tick=96, channel=0, data=[69, 0])\n",
      "midi.NoteOnEvent(tick=0, channel=0, data=[64, 100])\n",
      "midi.NoteOnEvent(tick=96, channel=0, data=[64, 0])\n",
      "midi.NoteOnEvent(tick=0, channel=0, data=[66, 100])\n",
      "midi.NoteOnEvent(tick=96, channel=0, data=[66, 0])\n",
      "midi.NoteOnEvent(tick=0, channel=0, data=[68, 100])\n",
      "midi.NoteOnEvent(tick=96, channel=0, data=[68, 0])\n",
      "midi.NoteOnEvent(tick=0, channel=0, data=[69, 100])\n",
      "midi.NoteOnEvent(tick=96, channel=0, data=[69, 0])\n",
      "midi.NoteOnEvent(tick=0, channel=0, data=[64, 100])\n",
      "midi.NoteOnEvent(tick=96, channel=0, data=[64, 0])\n",
      "midi.NoteOnEvent(tick=0, channel=0, data=[71, 100])\n",
      "midi.NoteOnEvent(tick=96, channel=0, data=[71, 0])\n",
      "midi.NoteOnEvent(tick=0, channel=0, data=[64, 100])\n",
      "midi.NoteOnEvent(tick=96, channel=0, data=[64, 0])\n",
      "midi.NoteOnEvent(tick=0, channel=0, data=[72, 100])\n",
      "midi.NoteOnEvent(tick=96, channel=0, data=[72, 0])\n",
      "midi.NoteOnEvent(tick=0, channel=0, data=[68, 100])\n",
      "midi.NoteOnEvent(tick=96, channel=0, data=[68, 0])\n",
      "midi.NoteOnEvent(tick=0, channel=0, data=[69, 100])\n",
      "midi.NoteOnEvent(tick=96, channel=0, data=[69, 0])\n",
      "midi.NoteOnEvent(tick=0, channel=0, data=[71, 100])\n",
      "midi.NoteOnEvent(tick=96, channel=0, data=[71, 0])\n",
      "midi.NoteOnEvent(tick=0, channel=0, data=[72, 100])\n",
      "midi.NoteOnEvent(tick=96, channel=0, data=[72, 0])\n",
      "midi.NoteOnEvent(tick=0, channel=0, data=[69, 100])\n",
      "midi.NoteOnEvent(tick=96, channel=0, data=[69, 0])\n",
      "midi.NoteOnEvent(tick=0, channel=0, data=[74, 100])\n",
      "midi.NoteOnEvent(tick=96, channel=0, data=[74, 0])\n",
      "midi.NoteOnEvent(tick=0, channel=0, data=[69, 100])\n",
      "midi.NoteOnEvent(tick=96, channel=0, data=[69, 0])\n",
      "midi.NoteOnEvent(tick=0, channel=0, data=[68, 100])\n",
      "midi.NoteOnEvent(tick=96, channel=0, data=[68, 0])\n",
      "midi.NoteOnEvent(tick=0, channel=0, data=[64, 100])\n",
      "midi.NoteOnEvent(tick=96, channel=0, data=[64, 0])\n",
      "midi.NoteOnEvent(tick=0, channel=0, data=[68, 100])\n",
      "midi.NoteOnEvent(tick=96, channel=0, data=[68, 0])\n",
      "midi.NoteOnEvent(tick=0, channel=0, data=[71, 100])\n",
      "midi.NoteOnEvent(tick=96, channel=0, data=[71, 0])\n",
      "midi.NoteOnEvent(tick=0, channel=0, data=[76, 100])\n",
      "midi.NoteOnEvent(tick=480, channel=0, data=[76, 0])\n",
      "midi.NoteOnEvent(tick=0, channel=0, data=[69, 100])\n",
      "midi.NoteOnEvent(tick=96, channel=0, data=[69, 0])\n",
      "midi.NoteOnEvent(tick=0, channel=0, data=[72, 100])\n",
      "midi.NoteOnEvent(tick=96, channel=0, data=[72, 0])\n",
      "midi.NoteOnEvent(tick=0, channel=0, data=[76, 100])\n",
      "midi.NoteOnEvent(tick=96, channel=0, data=[76, 0])\n",
      "midi.NoteOnEvent(tick=0, channel=0, data=[81, 100])\n",
      "midi.NoteOnEvent(tick=480, channel=0, data=[81, 0])\n",
      "midi.NoteOnEvent(tick=0, channel=0, data=[69, 100])\n",
      "midi.NoteOnEvent(tick=96, channel=0, data=[69, 0])\n",
      "midi.NoteOnEvent(tick=0, channel=0, data=[74, 100])\n",
      "midi.NoteOnEvent(tick=96, channel=0, data=[74, 0])\n",
      "midi.NoteOnEvent(tick=0, channel=0, data=[77, 100])\n",
      "midi.NoteOnEvent(tick=96, channel=0, data=[77, 0])\n",
      "midi.NoteOnEvent(tick=0, channel=0, data=[81, 100])\n",
      "midi.NoteOnEvent(tick=576, channel=0, data=[81, 0])\n",
      "midi.NoteOnEvent(tick=0, channel=0, data=[69, 100])\n",
      "midi.NoteOnEvent(tick=192, channel=0, data=[69, 0])\n",
      "midi.NoteOnEvent(tick=0, channel=0, data=[64, 100])\n",
      "midi.NoteOnEvent(tick=192, channel=0, data=[64, 0])\n",
      "midi.NoteOnEvent(tick=0, channel=0, data=[68, 100])\n",
      "midi.NoteOnEvent(tick=192, channel=0, data=[68, 0])\n",
      "midi.NoteOnEvent(tick=0, channel=0, data=[57, 100])\n",
      "midi.NoteOnEvent(tick=192, channel=0, data=[57, 0])\n",
      "midi.NoteOnEvent(tick=0, channel=0, data=[69, 100])\n",
      "midi.NoteOnEvent(tick=192, channel=0, data=[69, 0])\n",
      "midi.NoteOnEvent(tick=0, channel=0, data=[76, 100])\n",
      "midi.NoteOnEvent(tick=576, channel=0, data=[76, 0])\n",
      "midi.NoteOnEvent(tick=0, channel=0, data=[74, 100])\n",
      "midi.NoteOnEvent(tick=96, channel=0, data=[74, 0])\n",
      "midi.NoteOnEvent(tick=0, channel=0, data=[73, 100])\n",
      "midi.NoteOnEvent(tick=96, channel=0, data=[73, 0])\n",
      "midi.NoteOnEvent(tick=0, channel=0, data=[74, 100])\n",
      "midi.NoteOnEvent(tick=192, channel=0, data=[74, 0])\n",
      "midi.NoteOnEvent(tick=0, channel=0, data=[77, 100])\n",
      "midi.NoteOnEvent(tick=384, channel=0, data=[77, 0])\n",
      "midi.NoteOnEvent(tick=0, channel=0, data=[71, 100])\n",
      "midi.NoteOnEvent(tick=96, channel=0, data=[71, 0])\n",
      "midi.NoteOnEvent(tick=0, channel=0, data=[72, 100])\n",
      "midi.NoteOnEvent(tick=96, channel=0, data=[72, 0])\n",
      "midi.NoteOnEvent(tick=0, channel=0, data=[74, 100])\n",
      "midi.NoteOnEvent(tick=96, channel=0, data=[74, 0])\n",
      "midi.NoteOnEvent(tick=0, channel=0, data=[71, 100])\n",
      "midi.NoteOnEvent(tick=96, channel=0, data=[71, 0])\n",
      "midi.NoteOnEvent(tick=0, channel=0, data=[72, 100])\n",
      "midi.NoteOnEvent(tick=96, channel=0, data=[72, 0])\n",
      "midi.NoteOnEvent(tick=0, channel=0, data=[69, 100])\n",
      "midi.NoteOnEvent(tick=96, channel=0, data=[69, 0])\n",
      "midi.NoteOnEvent(tick=0, channel=0, data=[71, 100])\n",
      "midi.NoteOnEvent(tick=96, channel=0, data=[71, 0])\n",
      "midi.NoteOnEvent(tick=0, channel=0, data=[67, 100])\n",
      "midi.NoteOnEvent(tick=96, channel=0, data=[67, 0])\n",
      "midi.NoteOnEvent(tick=0, channel=0, data=[66, 100])\n",
      "midi.NoteOnEvent(tick=96, channel=0, data=[66, 0])\n",
      "midi.NoteOnEvent(tick=0, channel=0, data=[67, 100])\n",
      "midi.NoteOnEvent(tick=96, channel=0, data=[67, 0])\n",
      "midi.NoteOnEvent(tick=0, channel=0, data=[71, 100])\n",
      "midi.NoteOnEvent(tick=96, channel=0, data=[71, 0])\n",
      "midi.NoteOnEvent(tick=0, channel=0, data=[67, 100])\n",
      "midi.NoteOnEvent(tick=96, channel=0, data=[67, 0])\n",
      "midi.NoteOnEvent(tick=0, channel=0, data=[74, 100])\n",
      "midi.NoteOnEvent(tick=96, channel=0, data=[74, 0])\n",
      "midi.NoteOnEvent(tick=0, channel=0, data=[71, 100])\n",
      "midi.NoteOnEvent(tick=96, channel=0, data=[71, 0])\n",
      "midi.NoteOnEvent(tick=0, channel=0, data=[79, 100])\n",
      "midi.NoteOnEvent(tick=192, channel=0, data=[79, 0])\n",
      "midi.NoteOnEvent(tick=0, channel=0, data=[67, 100])\n",
      "midi.NoteOnEvent(tick=192, channel=0, data=[67, 0])\n",
      "midi.NoteOnEvent(tick=0, channel=0, data=[74, 100])\n",
      "midi.NoteOnEvent(tick=576, channel=0, data=[74, 0])\n",
      "midi.NoteOnEvent(tick=0, channel=0, data=[72, 100])\n",
      "midi.NoteOnEvent(tick=96, channel=0, data=[72, 0])\n",
      "midi.NoteOnEvent(tick=0, channel=0, data=[71, 100])\n",
      "midi.NoteOnEvent(tick=96, channel=0, data=[71, 0])\n",
      "midi.NoteOnEvent(tick=0, channel=0, data=[72, 100])\n",
      "midi.NoteOnEvent(tick=192, channel=0, data=[72, 0])\n",
      "midi.NoteOnEvent(tick=0, channel=0, data=[76, 100])\n",
      "midi.NoteOnEvent(tick=384, channel=0, data=[76, 0])\n",
      "midi.NoteOnEvent(tick=0, channel=0, data=[69, 100])\n",
      "midi.NoteOnEvent(tick=96, channel=0, data=[69, 0])\n",
      "midi.NoteOnEvent(tick=0, channel=0, data=[71, 100])\n",
      "midi.NoteOnEvent(tick=96, channel=0, data=[71, 0])\n",
      "midi.NoteOnEvent(tick=0, channel=0, data=[72, 100])\n",
      "midi.NoteOnEvent(tick=96, channel=0, data=[72, 0])\n",
      "midi.NoteOnEvent(tick=0, channel=0, data=[69, 100])\n",
      "midi.NoteOnEvent(tick=96, channel=0, data=[69, 0])\n",
      "midi.NoteOnEvent(tick=0, channel=0, data=[71, 100])\n",
      "midi.NoteOnEvent(tick=96, channel=0, data=[71, 0])\n",
      "midi.NoteOnEvent(tick=0, channel=0, data=[68, 100])\n",
      "midi.NoteOnEvent(tick=96, channel=0, data=[68, 0])\n",
      "midi.NoteOnEvent(tick=0, channel=0, data=[69, 100])\n",
      "midi.NoteOnEvent(tick=96, channel=0, data=[69, 0])\n",
      "midi.NoteOnEvent(tick=0, channel=0, data=[65, 100])\n",
      "midi.NoteOnEvent(tick=96, channel=0, data=[65, 0])\n",
      "midi.NoteOnEvent(tick=0, channel=0, data=[64, 100])\n",
      "midi.NoteOnEvent(tick=96, channel=0, data=[64, 0])\n",
      "midi.NoteOnEvent(tick=0, channel=0, data=[65, 100])\n",
      "midi.NoteOnEvent(tick=96, channel=0, data=[65, 0])\n",
      "midi.NoteOnEvent(tick=0, channel=0, data=[69, 100])\n",
      "midi.NoteOnEvent(tick=96, channel=0, data=[69, 0])\n",
      "midi.NoteOnEvent(tick=0, channel=0, data=[65, 100])\n",
      "midi.NoteOnEvent(tick=96, channel=0, data=[65, 0])\n",
      "midi.NoteOnEvent(tick=0, channel=0, data=[72, 100])\n",
      "midi.NoteOnEvent(tick=96, channel=0, data=[72, 0])\n",
      "midi.NoteOnEvent(tick=0, channel=0, data=[65, 100])\n",
      "midi.NoteOnEvent(tick=96, channel=0, data=[65, 0])\n",
      "midi.NoteOnEvent(tick=0, channel=0, data=[77, 100])\n",
      "midi.NoteOnEvent(tick=192, channel=0, data=[77, 0])\n",
      "midi.NoteOnEvent(tick=0, channel=0, data=[65, 100])\n",
      "midi.NoteOnEvent(tick=192, channel=0, data=[65, 0])\n",
      "midi.NoteOnEvent(tick=0, channel=0, data=[72, 100])\n",
      "midi.NoteOnEvent(tick=576, channel=0, data=[72, 0])\n",
      "midi.NoteOnEvent(tick=0, channel=0, data=[71, 100])\n",
      "midi.NoteOnEvent(tick=96, channel=0, data=[71, 0])\n",
      "midi.NoteOnEvent(tick=0, channel=0, data=[72, 100])\n",
      "midi.NoteOnEvent(tick=96, channel=0, data=[72, 0])\n",
      "midi.NoteOnEvent(tick=0, channel=0, data=[74, 100])\n",
      "midi.NoteOnEvent(tick=192, channel=0, data=[74, 0])\n",
      "midi.NoteOnEvent(tick=0, channel=0, data=[65, 100])\n",
      "midi.NoteOnEvent(tick=192, channel=0, data=[65, 0])\n",
      "midi.NoteOnEvent(tick=0, channel=0, data=[64, 100])\n",
      "midi.NoteOnEvent(tick=192, channel=0, data=[64, 0])\n",
      "midi.NoteOnEvent(tick=0, channel=0, data=[74, 100])\n",
      "midi.NoteOnEvent(tick=192, channel=0, data=[74, 0])\n",
      "midi.NoteOnEvent(tick=0, channel=0, data=[72, 100])\n",
      "midi.NoteOnEvent(tick=192, channel=0, data=[72, 0])\n",
      "midi.NoteOnEvent(tick=0, channel=0, data=[64, 100])\n",
      "midi.NoteOnEvent(tick=192, channel=0, data=[64, 0])\n",
      "midi.NoteOnEvent(tick=0, channel=0, data=[62, 100])\n",
      "midi.NoteOnEvent(tick=96, channel=0, data=[62, 0])\n",
      "midi.NoteOnEvent(tick=0, channel=0, data=[72, 100])\n",
      "midi.NoteOnEvent(tick=96, channel=0, data=[72, 0])\n",
      "midi.NoteOnEvent(tick=0, channel=0, data=[71, 100])\n",
      "midi.NoteOnEvent(tick=96, channel=0, data=[71, 0])\n",
      "midi.NoteOnEvent(tick=0, channel=0, data=[69, 100])\n",
      "midi.NoteOnEvent(tick=96, channel=0, data=[69, 0])\n",
      "midi.NoteOnEvent(tick=0, channel=0, data=[71, 100])\n",
      "midi.NoteOnEvent(tick=96, channel=0, data=[71, 0])\n",
      "midi.NoteOnEvent(tick=0, channel=0, data=[69, 100])\n",
      "midi.NoteOnEvent(tick=96, channel=0, data=[69, 0])\n",
      "midi.NoteOnEvent(tick=0, channel=0, data=[68, 100])\n"
     ]
    },
    {
     "name": "stdout",
     "output_type": "stream",
     "text": [
      "midi.NoteOnEvent(tick=96, channel=0, data=[68, 0])\n",
      "midi.NoteOnEvent(tick=0, channel=0, data=[66, 100])\n",
      "midi.NoteOnEvent(tick=96, channel=0, data=[66, 0])\n",
      "midi.NoteOnEvent(tick=0, channel=0, data=[68, 100])\n",
      "midi.NoteOnEvent(tick=192, channel=0, data=[68, 0])\n",
      "midi.NoteOnEvent(tick=0, channel=0, data=[77, 100])\n",
      "midi.NoteOnEvent(tick=192, channel=0, data=[77, 0])\n",
      "midi.NoteOnEvent(tick=0, channel=0, data=[76, 100])\n",
      "midi.NoteOnEvent(tick=192, channel=0, data=[76, 0])\n",
      "midi.NoteOnEvent(tick=0, channel=0, data=[81, 100])\n",
      "midi.NoteOnEvent(tick=192, channel=0, data=[81, 0])\n",
      "midi.NoteOnEvent(tick=0, channel=0, data=[84, 100])\n",
      "midi.NoteOnEvent(tick=384, channel=0, data=[84, 0])\n",
      "midi.NoteOnEvent(tick=0, channel=0, data=[83, 100])\n",
      "midi.NoteOnEvent(tick=48, channel=0, data=[83, 0])\n",
      "midi.NoteOnEvent(tick=0, channel=0, data=[84, 100])\n",
      "midi.NoteOnEvent(tick=48, channel=0, data=[84, 0])\n",
      "midi.NoteOnEvent(tick=0, channel=0, data=[83, 100])\n",
      "midi.NoteOnEvent(tick=48, channel=0, data=[83, 0])\n",
      "midi.NoteOnEvent(tick=0, channel=0, data=[84, 100])\n",
      "midi.NoteOnEvent(tick=48, channel=0, data=[84, 0])\n",
      "midi.NoteOnEvent(tick=0, channel=0, data=[83, 100])\n",
      "midi.NoteOnEvent(tick=48, channel=0, data=[83, 0])\n",
      "midi.NoteOnEvent(tick=0, channel=0, data=[84, 100])\n",
      "midi.NoteOnEvent(tick=48, channel=0, data=[84, 0])\n",
      "midi.NoteOnEvent(tick=0, channel=0, data=[83, 100])\n",
      "midi.NoteOnEvent(tick=48, channel=0, data=[83, 0])\n",
      "midi.NoteOnEvent(tick=0, channel=0, data=[84, 100])\n",
      "midi.NoteOnEvent(tick=48, channel=0, data=[84, 0])\n",
      "midi.NoteOnEvent(tick=0, channel=0, data=[83, 100])\n",
      "midi.NoteOnEvent(tick=96, channel=0, data=[83, 0])\n",
      "midi.NoteOnEvent(tick=0, channel=0, data=[84, 100])\n",
      "midi.NoteOnEvent(tick=96, channel=0, data=[84, 0])\n",
      "midi.NoteOnEvent(tick=0, channel=0, data=[86, 100])\n",
      "midi.NoteOnEvent(tick=96, channel=0, data=[86, 0])\n",
      "midi.NoteOnEvent(tick=0, channel=0, data=[84, 100])\n",
      "midi.NoteOnEvent(tick=96, channel=0, data=[84, 0])\n",
      "midi.NoteOnEvent(tick=0, channel=0, data=[83, 100])\n",
      "midi.NoteOnEvent(tick=96, channel=0, data=[83, 0])\n",
      "midi.NoteOnEvent(tick=0, channel=0, data=[86, 100])\n",
      "midi.NoteOnEvent(tick=96, channel=0, data=[86, 0])\n",
      "midi.NoteOnEvent(tick=0, channel=0, data=[81, 100])\n",
      "midi.NoteOnEvent(tick=96, channel=0, data=[81, 0])\n",
      "midi.NoteOnEvent(tick=0, channel=0, data=[86, 100])\n",
      "midi.NoteOnEvent(tick=96, channel=0, data=[86, 0])\n",
      "midi.NoteOnEvent(tick=0, channel=0, data=[80, 100])\n",
      "midi.NoteOnEvent(tick=96, channel=0, data=[80, 0])\n",
      "midi.NoteOnEvent(tick=0, channel=0, data=[81, 100])\n",
      "midi.NoteOnEvent(tick=96, channel=0, data=[81, 0])\n",
      "midi.NoteOnEvent(tick=0, channel=0, data=[83, 100])\n",
      "midi.NoteOnEvent(tick=96, channel=0, data=[83, 0])\n",
      "midi.NoteOnEvent(tick=0, channel=0, data=[81, 100])\n",
      "midi.NoteOnEvent(tick=96, channel=0, data=[81, 0])\n",
      "midi.NoteOnEvent(tick=0, channel=0, data=[80, 100])\n",
      "midi.NoteOnEvent(tick=96, channel=0, data=[80, 0])\n",
      "midi.NoteOnEvent(tick=0, channel=0, data=[83, 100])\n",
      "midi.NoteOnEvent(tick=96, channel=0, data=[83, 0])\n",
      "midi.NoteOnEvent(tick=0, channel=0, data=[77, 100])\n",
      "midi.NoteOnEvent(tick=96, channel=0, data=[77, 0])\n",
      "midi.NoteOnEvent(tick=0, channel=0, data=[83, 100])\n",
      "midi.NoteOnEvent(tick=96, channel=0, data=[83, 0])\n",
      "midi.NoteOnEvent(tick=0, channel=0, data=[74, 100])\n",
      "midi.NoteOnEvent(tick=96, channel=0, data=[74, 0])\n",
      "midi.NoteOnEvent(tick=0, channel=0, data=[76, 100])\n",
      "midi.NoteOnEvent(tick=96, channel=0, data=[76, 0])\n",
      "midi.NoteOnEvent(tick=0, channel=0, data=[77, 100])\n",
      "midi.NoteOnEvent(tick=96, channel=0, data=[77, 0])\n",
      "midi.NoteOnEvent(tick=0, channel=0, data=[76, 100])\n",
      "midi.NoteOnEvent(tick=96, channel=0, data=[76, 0])\n",
      "midi.NoteOnEvent(tick=0, channel=0, data=[74, 100])\n",
      "midi.NoteOnEvent(tick=96, channel=0, data=[74, 0])\n",
      "midi.NoteOnEvent(tick=0, channel=0, data=[77, 100])\n",
      "midi.NoteOnEvent(tick=96, channel=0, data=[77, 0])\n",
      "midi.NoteOnEvent(tick=0, channel=0, data=[72, 100])\n",
      "midi.NoteOnEvent(tick=96, channel=0, data=[72, 0])\n",
      "midi.NoteOnEvent(tick=0, channel=0, data=[77, 100])\n",
      "midi.NoteOnEvent(tick=96, channel=0, data=[77, 0])\n",
      "midi.NoteOnEvent(tick=0, channel=0, data=[71, 100])\n",
      "midi.NoteOnEvent(tick=96, channel=0, data=[71, 0])\n",
      "midi.NoteOnEvent(tick=0, channel=0, data=[72, 100])\n",
      "midi.NoteOnEvent(tick=96, channel=0, data=[72, 0])\n",
      "midi.NoteOnEvent(tick=0, channel=0, data=[74, 100])\n",
      "midi.NoteOnEvent(tick=96, channel=0, data=[74, 0])\n",
      "midi.NoteOnEvent(tick=0, channel=0, data=[72, 100])\n",
      "midi.NoteOnEvent(tick=96, channel=0, data=[72, 0])\n",
      "midi.NoteOnEvent(tick=0, channel=0, data=[71, 100])\n",
      "midi.NoteOnEvent(tick=96, channel=0, data=[71, 0])\n",
      "midi.NoteOnEvent(tick=0, channel=0, data=[74, 100])\n",
      "midi.NoteOnEvent(tick=96, channel=0, data=[74, 0])\n",
      "midi.NoteOnEvent(tick=0, channel=0, data=[69, 100])\n",
      "midi.NoteOnEvent(tick=96, channel=0, data=[69, 0])\n",
      "midi.NoteOnEvent(tick=0, channel=0, data=[74, 100])\n",
      "midi.NoteOnEvent(tick=96, channel=0, data=[74, 0])\n",
      "midi.NoteOnEvent(tick=0, channel=0, data=[68, 100])\n",
      "midi.NoteOnEvent(tick=96, channel=0, data=[68, 0])\n",
      "midi.NoteOnEvent(tick=0, channel=0, data=[74, 100])\n",
      "midi.NoteOnEvent(tick=96, channel=0, data=[74, 0])\n",
      "midi.NoteOnEvent(tick=0, channel=0, data=[64, 100])\n",
      "midi.NoteOnEvent(tick=96, channel=0, data=[64, 0])\n",
      "midi.NoteOnEvent(tick=0, channel=0, data=[66, 100])\n",
      "midi.NoteOnEvent(tick=96, channel=0, data=[66, 0])\n",
      "midi.NoteOnEvent(tick=0, channel=0, data=[68, 100])\n",
      "midi.NoteOnEvent(tick=96, channel=0, data=[68, 0])\n",
      "midi.NoteOnEvent(tick=0, channel=0, data=[69, 100])\n",
      "midi.NoteOnEvent(tick=96, channel=0, data=[69, 0])\n",
      "midi.NoteOnEvent(tick=0, channel=0, data=[71, 100])\n",
      "midi.NoteOnEvent(tick=96, channel=0, data=[71, 0])\n",
      "midi.NoteOnEvent(tick=0, channel=0, data=[72, 100])\n",
      "midi.NoteOnEvent(tick=96, channel=0, data=[72, 0])\n",
      "midi.NoteOnEvent(tick=0, channel=0, data=[74, 100])\n",
      "midi.NoteOnEvent(tick=96, channel=0, data=[74, 0])\n",
      "midi.NoteOnEvent(tick=0, channel=0, data=[76, 100])\n",
      "midi.NoteOnEvent(tick=96, channel=0, data=[76, 0])\n",
      "midi.NoteOnEvent(tick=0, channel=0, data=[78, 100])\n",
      "midi.NoteOnEvent(tick=96, channel=0, data=[78, 0])\n",
      "midi.NoteOnEvent(tick=0, channel=0, data=[80, 100])\n",
      "midi.NoteOnEvent(tick=96, channel=0, data=[80, 0])\n",
      "midi.NoteOnEvent(tick=0, channel=0, data=[81, 100])\n",
      "midi.NoteOnEvent(tick=96, channel=0, data=[81, 0])\n",
      "midi.NoteOnEvent(tick=0, channel=0, data=[83, 100])\n",
      "midi.NoteOnEvent(tick=96, channel=0, data=[83, 0])\n",
      "midi.NoteOnEvent(tick=0, channel=0, data=[84, 100])\n",
      "midi.NoteOnEvent(tick=96, channel=0, data=[84, 0])\n",
      "midi.NoteOnEvent(tick=0, channel=0, data=[86, 100])\n",
      "midi.NoteOnEvent(tick=96, channel=0, data=[86, 0])\n",
      "midi.NoteOnEvent(tick=0, channel=0, data=[88, 100])\n",
      "midi.NoteOnEvent(tick=192, channel=0, data=[88, 0])\n",
      "midi.NoteOnEvent(tick=0, channel=0, data=[81, 100])\n",
      "midi.NoteOnEvent(tick=192, channel=0, data=[81, 0])\n",
      "midi.NoteOnEvent(tick=0, channel=0, data=[83, 100])\n",
      "midi.NoteOnEvent(tick=192, channel=0, data=[83, 0])\n",
      "midi.NoteOnEvent(tick=0, channel=0, data=[80, 100])\n",
      "midi.NoteOnEvent(tick=192, channel=0, data=[80, 0])\n",
      "midi.NoteOnEvent(tick=0, channel=0, data=[81, 100])\n",
      "midi.NoteOnEvent(tick=96, channel=0, data=[81, 0])\n",
      "midi.NoteOnEvent(tick=0, channel=0, data=[79, 100])\n",
      "midi.NoteOnEvent(tick=96, channel=0, data=[79, 0])\n",
      "midi.NoteOnEvent(tick=0, channel=0, data=[77, 100])\n",
      "midi.NoteOnEvent(tick=96, channel=0, data=[77, 0])\n",
      "midi.NoteOnEvent(tick=0, channel=0, data=[76, 100])\n",
      "midi.NoteOnEvent(tick=96, channel=0, data=[76, 0])\n",
      "midi.NoteOnEvent(tick=0, channel=0, data=[74, 100])\n",
      "midi.NoteOnEvent(tick=192, channel=0, data=[74, 0])\n",
      "midi.NoteOnEvent(tick=0, channel=0, data=[74, 100])\n",
      "midi.NoteOnEvent(tick=192, channel=0, data=[74, 0])\n",
      "midi.NoteOnEvent(tick=0, channel=0, data=[74, 100])\n",
      "midi.NoteOnEvent(tick=96, channel=0, data=[74, 0])\n",
      "midi.NoteOnEvent(tick=0, channel=0, data=[76, 100])\n",
      "midi.NoteOnEvent(tick=96, channel=0, data=[76, 0])\n",
      "midi.NoteOnEvent(tick=0, channel=0, data=[77, 100])\n",
      "midi.NoteOnEvent(tick=288, channel=0, data=[77, 0])\n",
      "midi.NoteOnEvent(tick=0, channel=0, data=[76, 100])\n",
      "midi.NoteOnEvent(tick=96, channel=0, data=[76, 0])\n",
      "midi.NoteOnEvent(tick=0, channel=0, data=[74, 100])\n",
      "midi.NoteOnEvent(tick=96, channel=0, data=[74, 0])\n",
      "midi.NoteOnEvent(tick=0, channel=0, data=[72, 100])\n",
      "midi.NoteOnEvent(tick=96, channel=0, data=[72, 0])\n",
      "midi.NoteOnEvent(tick=0, channel=0, data=[71, 100])\n",
      "midi.NoteOnEvent(tick=96, channel=0, data=[71, 0])\n",
      "midi.NoteOnEvent(tick=0, channel=0, data=[72, 100])\n",
      "midi.NoteOnEvent(tick=96, channel=0, data=[72, 0])\n",
      "midi.NoteOnEvent(tick=0, channel=0, data=[74, 100])\n",
      "midi.NoteOnEvent(tick=288, channel=0, data=[74, 0])\n",
      "midi.NoteOnEvent(tick=0, channel=0, data=[72, 100])\n",
      "midi.NoteOnEvent(tick=96, channel=0, data=[72, 0])\n",
      "midi.NoteOnEvent(tick=0, channel=0, data=[71, 100])\n",
      "midi.NoteOnEvent(tick=96, channel=0, data=[71, 0])\n",
      "midi.NoteOnEvent(tick=0, channel=0, data=[69, 100])\n",
      "midi.NoteOnEvent(tick=96, channel=0, data=[69, 0])\n",
      "midi.NoteOnEvent(tick=0, channel=0, data=[68, 100])\n",
      "midi.NoteOnEvent(tick=192, channel=0, data=[68, 0])\n",
      "midi.NoteOnEvent(tick=0, channel=0, data=[76, 100])\n",
      "midi.NoteOnEvent(tick=192, channel=0, data=[76, 0])\n",
      "midi.NoteOnEvent(tick=0, channel=0, data=[72, 100])\n",
      "midi.NoteOnEvent(tick=48, channel=0, data=[72, 0])\n",
      "midi.NoteOnEvent(tick=0, channel=0, data=[74, 100])\n",
      "midi.NoteOnEvent(tick=48, channel=0, data=[74, 0])\n",
      "midi.NoteOnEvent(tick=0, channel=0, data=[72, 100])\n",
      "midi.NoteOnEvent(tick=48, channel=0, data=[72, 0])\n",
      "midi.NoteOnEvent(tick=0, channel=0, data=[74, 100])\n",
      "midi.NoteOnEvent(tick=48, channel=0, data=[74, 0])\n",
      "midi.NoteOnEvent(tick=0, channel=0, data=[71, 100])\n",
      "midi.NoteOnEvent(tick=96, channel=0, data=[71, 0])\n",
      "midi.NoteOnEvent(tick=0, channel=0, data=[69, 100])\n",
      "midi.NoteOnEvent(tick=96, channel=0, data=[69, 0])\n",
      "midi.NoteOnEvent(tick=0, channel=0, data=[69, 100])\n",
      "midi.NoteOnEvent(tick=576, channel=0, data=[69, 0])\n",
      "midi.EndOfTrackEvent(tick=0, data=[])\n",
      "midi.PortEvent(tick=0, data=[0])\n",
      "midi.TrackNameEvent(tick=0, text='Violin 1', data=[86, 105, 111, 108, 105, 110, 32, 49])\n",
      "midi.ProgramChangeEvent(tick=0, channel=1, data=[40])\n",
      "midi.ControlChangeEvent(tick=0, channel=1, data=[7, 110])\n",
      "midi.ControlChangeEvent(tick=0, channel=1, data=[10, 32])\n",
      "midi.NoteOnEvent(tick=576, channel=1, data=[76, 100])\n",
      "midi.NoteOnEvent(tick=192, channel=1, data=[76, 0])\n",
      "midi.NoteOnEvent(tick=0, channel=1, data=[81, 100])\n",
      "midi.NoteOnEvent(tick=384, channel=1, data=[81, 0])\n",
      "midi.NoteOnEvent(tick=192, channel=1, data=[76, 100])\n",
      "midi.NoteOnEvent(tick=192, channel=1, data=[76, 0])\n",
      "midi.NoteOnEvent(tick=0, channel=1, data=[77, 100])\n",
      "midi.NoteOnEvent(tick=384, channel=1, data=[77, 0])\n",
      "midi.NoteOnEvent(tick=192, channel=1, data=[74, 100])\n",
      "midi.NoteOnEvent(tick=192, channel=1, data=[74, 0])\n",
      "midi.NoteOnEvent(tick=0, channel=1, data=[76, 100])\n",
      "midi.NoteOnEvent(tick=96, channel=1, data=[76, 0])\n",
      "midi.NoteOnEvent(tick=0, channel=1, data=[74, 100])\n",
      "midi.NoteOnEvent(tick=96, channel=1, data=[74, 0])\n",
      "midi.NoteOnEvent(tick=0, channel=1, data=[72, 100])\n",
      "midi.NoteOnEvent(tick=96, channel=1, data=[72, 0])\n",
      "midi.NoteOnEvent(tick=0, channel=1, data=[76, 100])\n",
      "midi.NoteOnEvent(tick=96, channel=1, data=[76, 0])\n",
      "midi.NoteOnEvent(tick=0, channel=1, data=[74, 100])\n",
      "midi.NoteOnEvent(tick=96, channel=1, data=[74, 0])\n",
      "midi.NoteOnEvent(tick=0, channel=1, data=[72, 100])\n",
      "midi.NoteOnEvent(tick=96, channel=1, data=[72, 0])\n",
      "midi.NoteOnEvent(tick=0, channel=1, data=[71, 100])\n",
      "midi.NoteOnEvent(tick=96, channel=1, data=[71, 0])\n",
      "midi.NoteOnEvent(tick=0, channel=1, data=[74, 100])\n",
      "midi.NoteOnEvent(tick=96, channel=1, data=[74, 0])\n",
      "midi.NoteOnEvent(tick=0, channel=1, data=[72, 100])\n",
      "midi.NoteOnEvent(tick=192, channel=1, data=[72, 0])\n",
      "midi.NoteOnEvent(tick=0, channel=1, data=[69, 100])\n",
      "midi.NoteOnEvent(tick=192, channel=1, data=[69, 0])\n",
      "midi.NoteOnEvent(tick=96, channel=1, data=[69, 100])\n",
      "midi.NoteOnEvent(tick=96, channel=1, data=[69, 0])\n",
      "midi.NoteOnEvent(tick=0, channel=1, data=[68, 100])\n",
      "midi.NoteOnEvent(tick=96, channel=1, data=[68, 0])\n",
      "midi.NoteOnEvent(tick=0, channel=1, data=[69, 100])\n",
      "midi.NoteOnEvent(tick=96, channel=1, data=[69, 0])\n",
      "midi.NoteOnEvent(tick=0, channel=1, data=[71, 100])\n",
      "midi.NoteOnEvent(tick=96, channel=1, data=[71, 0])\n",
      "midi.NoteOnEvent(tick=0, channel=1, data=[69, 100])\n",
      "midi.NoteOnEvent(tick=96, channel=1, data=[69, 0])\n",
      "midi.NoteOnEvent(tick=0, channel=1, data=[68, 100])\n",
      "midi.NoteOnEvent(tick=96, channel=1, data=[68, 0])\n",
      "midi.NoteOnEvent(tick=0, channel=1, data=[69, 100])\n",
      "midi.NoteOnEvent(tick=96, channel=1, data=[69, 0])\n",
      "midi.NoteOnEvent(tick=0, channel=1, data=[72, 100])\n",
      "midi.NoteOnEvent(tick=96, channel=1, data=[72, 0])\n",
      "midi.NoteOnEvent(tick=0, channel=1, data=[69, 100])\n",
      "midi.NoteOnEvent(tick=96, channel=1, data=[69, 0])\n",
      "midi.NoteOnEvent(tick=0, channel=1, data=[68, 100])\n",
      "midi.NoteOnEvent(tick=96, channel=1, data=[68, 0])\n",
      "midi.NoteOnEvent(tick=0, channel=1, data=[69, 100])\n",
      "midi.NoteOnEvent(tick=96, channel=1, data=[69, 0])\n",
      "midi.NoteOnEvent(tick=0, channel=1, data=[74, 100])\n",
      "midi.NoteOnEvent(tick=96, channel=1, data=[74, 0])\n",
      "midi.NoteOnEvent(tick=0, channel=1, data=[69, 100])\n",
      "midi.NoteOnEvent(tick=96, channel=1, data=[69, 0])\n",
      "midi.NoteOnEvent(tick=0, channel=1, data=[68, 100])\n",
      "midi.NoteOnEvent(tick=96, channel=1, data=[68, 0])\n",
      "midi.NoteOnEvent(tick=0, channel=1, data=[69, 100])\n",
      "midi.NoteOnEvent(tick=96, channel=1, data=[69, 0])\n",
      "midi.NoteOnEvent(tick=0, channel=1, data=[76, 100])\n",
      "midi.NoteOnEvent(tick=96, channel=1, data=[76, 0])\n",
      "midi.NoteOnEvent(tick=0, channel=1, data=[69, 100])\n",
      "midi.NoteOnEvent(tick=96, channel=1, data=[69, 0])\n",
      "midi.NoteOnEvent(tick=0, channel=1, data=[68, 100])\n",
      "midi.NoteOnEvent(tick=96, channel=1, data=[68, 0])\n",
      "midi.NoteOnEvent(tick=0, channel=1, data=[69, 100])\n",
      "midi.NoteOnEvent(tick=96, channel=1, data=[69, 0])\n",
      "midi.NoteOnEvent(tick=0, channel=1, data=[77, 100])\n",
      "midi.NoteOnEvent(tick=96, channel=1, data=[77, 0])\n",
      "midi.NoteOnEvent(tick=0, channel=1, data=[79, 100])\n",
      "midi.NoteOnEvent(tick=96, channel=1, data=[79, 0])\n",
      "midi.NoteOnEvent(tick=0, channel=1, data=[77, 100])\n",
      "midi.NoteOnEvent(tick=96, channel=1, data=[77, 0])\n",
      "midi.NoteOnEvent(tick=0, channel=1, data=[76, 100])\n",
      "midi.NoteOnEvent(tick=96, channel=1, data=[76, 0])\n",
      "midi.NoteOnEvent(tick=0, channel=1, data=[74, 100])\n",
      "midi.NoteOnEvent(tick=96, channel=1, data=[74, 0])\n",
      "midi.NoteOnEvent(tick=0, channel=1, data=[72, 100])\n",
      "midi.NoteOnEvent(tick=96, channel=1, data=[72, 0])\n",
      "midi.NoteOnEvent(tick=0, channel=1, data=[71, 100])\n",
      "midi.NoteOnEvent(tick=96, channel=1, data=[71, 0])\n",
      "midi.NoteOnEvent(tick=0, channel=1, data=[69, 100])\n",
      "midi.NoteOnEvent(tick=96, channel=1, data=[69, 0])\n",
      "midi.NoteOnEvent(tick=0, channel=1, data=[68, 100])\n",
      "midi.NoteOnEvent(tick=192, channel=1, data=[68, 0])\n",
      "midi.NoteOnEvent(tick=0, channel=1, data=[64, 100])\n",
      "midi.NoteOnEvent(tick=192, channel=1, data=[64, 0])\n",
      "midi.NoteOnEvent(tick=0, channel=1, data=[83, 100])\n",
      "midi.NoteOnEvent(tick=576, channel=1, data=[83, 0])\n",
      "midi.NoteOnEvent(tick=0, channel=1, data=[81, 100])\n",
      "midi.NoteOnEvent(tick=96, channel=1, data=[81, 0])\n",
      "midi.NoteOnEvent(tick=0, channel=1, data=[80, 100])\n",
      "midi.NoteOnEvent(tick=96, channel=1, data=[80, 0])\n",
      "midi.NoteOnEvent(tick=0, channel=1, data=[81, 100])\n",
      "midi.NoteOnEvent(tick=192, channel=1, data=[81, 0])\n",
      "midi.NoteOnEvent(tick=0, channel=1, data=[84, 100])\n",
      "midi.NoteOnEvent(tick=384, channel=1, data=[84, 0])\n",
      "midi.NoteOnEvent(tick=0, channel=1, data=[78, 100])\n",
      "midi.NoteOnEvent(tick=192, channel=1, data=[78, 0])\n",
      "midi.NoteOnEvent(tick=0, channel=1, data=[81, 100])\n",
      "midi.NoteOnEvent(tick=576, channel=1, data=[81, 0])\n",
      "midi.NoteOnEvent(tick=0, channel=1, data=[79, 100])\n",
      "midi.NoteOnEvent(tick=96, channel=1, data=[79, 0])\n",
      "midi.NoteOnEvent(tick=0, channel=1, data=[78, 100])\n",
      "midi.NoteOnEvent(tick=96, channel=1, data=[78, 0])\n",
      "midi.NoteOnEvent(tick=0, channel=1, data=[79, 100])\n",
      "midi.NoteOnEvent(tick=192, channel=1, data=[79, 0])\n",
      "midi.NoteOnEvent(tick=0, channel=1, data=[83, 100])\n",
      "midi.NoteOnEvent(tick=288, channel=1, data=[83, 0])\n",
      "midi.NoteOnEvent(tick=0, channel=1, data=[81, 100])\n",
      "midi.NoteOnEvent(tick=96, channel=1, data=[81, 0])\n",
      "midi.NoteOnEvent(tick=0, channel=1, data=[79, 100])\n",
      "midi.NoteOnEvent(tick=96, channel=1, data=[79, 0])\n",
      "midi.NoteOnEvent(tick=0, channel=1, data=[78, 100])\n",
      "midi.NoteOnEvent(tick=96, channel=1, data=[78, 0])\n",
      "midi.NoteOnEvent(tick=0, channel=1, data=[76, 100])\n",
      "midi.NoteOnEvent(tick=576, channel=1, data=[76, 0])\n",
      "midi.NoteOnEvent(tick=0, channel=1, data=[78, 100])\n",
      "midi.NoteOnEvent(tick=96, channel=1, data=[78, 0])\n",
      "midi.NoteOnEvent(tick=0, channel=1, data=[79, 100])\n",
      "midi.NoteOnEvent(tick=96, channel=1, data=[79, 0])\n",
      "midi.NoteOnEvent(tick=0, channel=1, data=[81, 100])\n",
      "midi.NoteOnEvent(tick=192, channel=1, data=[81, 0])\n",
      "midi.NoteOnEvent(tick=0, channel=1, data=[72, 100])\n",
      "midi.NoteOnEvent(tick=192, channel=1, data=[72, 0])\n",
      "midi.NoteOnEvent(tick=0, channel=1, data=[71, 100])\n",
      "midi.NoteOnEvent(tick=192, channel=1, data=[71, 0])\n",
      "midi.NoteOnEvent(tick=0, channel=1, data=[81, 100])\n",
      "midi.NoteOnEvent(tick=192, channel=1, data=[81, 0])\n",
      "midi.NoteOnEvent(tick=0, channel=1, data=[79, 100])\n",
      "midi.NoteOnEvent(tick=192, channel=1, data=[79, 0])\n",
      "midi.NoteOnEvent(tick=0, channel=1, data=[71, 100])\n",
      "midi.NoteOnEvent(tick=192, channel=1, data=[71, 0])\n",
      "midi.NoteOnEvent(tick=0, channel=1, data=[69, 100])\n",
      "midi.NoteOnEvent(tick=96, channel=1, data=[69, 0])\n",
      "midi.NoteOnEvent(tick=0, channel=1, data=[71, 100])\n",
      "midi.NoteOnEvent(tick=96, channel=1, data=[71, 0])\n",
      "midi.NoteOnEvent(tick=0, channel=1, data=[72, 100])\n",
      "midi.NoteOnEvent(tick=96, channel=1, data=[72, 0])\n",
      "midi.NoteOnEvent(tick=0, channel=1, data=[71, 100])\n",
      "midi.NoteOnEvent(tick=96, channel=1, data=[71, 0])\n",
      "midi.NoteOnEvent(tick=0, channel=1, data=[69, 100])\n",
      "midi.NoteOnEvent(tick=96, channel=1, data=[69, 0])\n",
      "midi.NoteOnEvent(tick=0, channel=1, data=[67, 100])\n",
      "midi.NoteOnEvent(tick=96, channel=1, data=[67, 0])\n",
      "midi.NoteOnEvent(tick=0, channel=1, data=[66, 100])\n",
      "midi.NoteOnEvent(tick=96, channel=1, data=[66, 0])\n",
      "midi.NoteOnEvent(tick=0, channel=1, data=[64, 100])\n",
      "midi.NoteOnEvent(tick=96, channel=1, data=[64, 0])\n",
      "midi.NoteOnEvent(tick=0, channel=1, data=[63, 100])\n",
      "midi.NoteOnEvent(tick=192, channel=1, data=[63, 0])\n",
      "midi.NoteOnEvent(tick=0, channel=1, data=[72, 100])\n",
      "midi.NoteOnEvent(tick=192, channel=1, data=[72, 0])\n",
      "midi.NoteOnEvent(tick=0, channel=1, data=[71, 100])\n",
      "midi.NoteOnEvent(tick=192, channel=1, data=[71, 0])\n",
      "midi.NoteOnEvent(tick=0, channel=1, data=[76, 100])\n",
      "midi.NoteOnEvent(tick=192, channel=1, data=[76, 0])\n",
      "midi.NoteOnEvent(tick=0, channel=1, data=[79, 100])\n",
      "midi.NoteOnEvent(tick=384, channel=1, data=[79, 0])\n",
      "midi.NoteOnEvent(tick=0, channel=1, data=[78, 100])\n",
      "midi.NoteOnEvent(tick=48, channel=1, data=[78, 0])\n",
      "midi.NoteOnEvent(tick=0, channel=1, data=[79, 100])\n",
      "midi.NoteOnEvent(tick=48, channel=1, data=[79, 0])\n",
      "midi.NoteOnEvent(tick=0, channel=1, data=[78, 100])\n",
      "midi.NoteOnEvent(tick=48, channel=1, data=[78, 0])\n",
      "midi.NoteOnEvent(tick=0, channel=1, data=[79, 100])\n",
      "midi.NoteOnEvent(tick=48, channel=1, data=[79, 0])\n",
      "midi.NoteOnEvent(tick=0, channel=1, data=[78, 100])\n",
      "midi.NoteOnEvent(tick=48, channel=1, data=[78, 0])\n",
      "midi.NoteOnEvent(tick=0, channel=1, data=[79, 100])\n",
      "midi.NoteOnEvent(tick=48, channel=1, data=[79, 0])\n",
      "midi.NoteOnEvent(tick=0, channel=1, data=[78, 100])\n",
      "midi.NoteOnEvent(tick=48, channel=1, data=[78, 0])\n",
      "midi.NoteOnEvent(tick=0, channel=1, data=[79, 100])\n",
      "midi.NoteOnEvent(tick=48, channel=1, data=[79, 0])\n",
      "midi.NoteOnEvent(tick=0, channel=1, data=[78, 100])\n",
      "midi.NoteOnEvent(tick=96, channel=1, data=[78, 0])\n",
      "midi.NoteOnEvent(tick=0, channel=1, data=[79, 100])\n",
      "midi.NoteOnEvent(tick=96, channel=1, data=[79, 0])\n",
      "midi.NoteOnEvent(tick=0, channel=1, data=[81, 100])\n",
      "midi.NoteOnEvent(tick=96, channel=1, data=[81, 0])\n",
      "midi.NoteOnEvent(tick=0, channel=1, data=[78, 100])\n",
      "midi.NoteOnEvent(tick=96, channel=1, data=[78, 0])\n",
      "midi.NoteOnEvent(tick=0, channel=1, data=[75, 100])\n",
      "midi.NoteOnEvent(tick=96, channel=1, data=[75, 0])\n",
      "midi.NoteOnEvent(tick=0, channel=1, data=[76, 100])\n",
      "midi.NoteOnEvent(tick=96, channel=1, data=[76, 0])\n",
      "midi.NoteOnEvent(tick=0, channel=1, data=[78, 100])\n",
      "midi.NoteOnEvent(tick=96, channel=1, data=[78, 0])\n",
      "midi.NoteOnEvent(tick=0, channel=1, data=[75, 100])\n",
      "midi.NoteOnEvent(tick=96, channel=1, data=[75, 0])\n",
      "midi.NoteOnEvent(tick=0, channel=1, data=[83, 100])\n",
      "midi.NoteOnEvent(tick=192, channel=1, data=[83, 0])\n",
      "midi.NoteOnEvent(tick=0, channel=1, data=[76, 100])\n",
      "midi.NoteOnEvent(tick=192, channel=1, data=[76, 0])\n",
      "midi.NoteOnEvent(tick=0, channel=1, data=[78, 100])\n",
      "midi.NoteOnEvent(tick=192, channel=1, data=[78, 0])\n",
      "midi.NoteOnEvent(tick=0, channel=1, data=[75, 100])\n",
      "midi.NoteOnEvent(tick=192, channel=1, data=[75, 0])\n",
      "midi.NoteOnEvent(tick=0, channel=1, data=[76, 100])\n",
      "midi.NoteOnEvent(tick=96, channel=1, data=[76, 0])\n",
      "midi.NoteOnEvent(tick=0, channel=1, data=[74, 100])\n",
      "midi.NoteOnEvent(tick=96, channel=1, data=[74, 0])\n",
      "midi.NoteOnEvent(tick=0, channel=1, data=[72, 100])\n",
      "midi.NoteOnEvent(tick=96, channel=1, data=[72, 0])\n",
      "midi.NoteOnEvent(tick=0, channel=1, data=[71, 100])\n",
      "midi.NoteOnEvent(tick=96, channel=1, data=[71, 0])\n",
      "midi.NoteOnEvent(tick=0, channel=1, data=[69, 100])\n",
      "midi.NoteOnEvent(tick=192, channel=1, data=[69, 0])\n",
      "midi.NoteOnEvent(tick=0, channel=1, data=[69, 100])\n",
      "midi.NoteOnEvent(tick=192, channel=1, data=[69, 0])\n",
      "midi.NoteOnEvent(tick=0, channel=1, data=[69, 100])\n",
      "midi.NoteOnEvent(tick=96, channel=1, data=[69, 0])\n",
      "midi.NoteOnEvent(tick=0, channel=1, data=[71, 100])\n",
      "midi.NoteOnEvent(tick=96, channel=1, data=[71, 0])\n",
      "midi.NoteOnEvent(tick=0, channel=1, data=[72, 100])\n",
      "midi.NoteOnEvent(tick=288, channel=1, data=[72, 0])\n",
      "midi.NoteOnEvent(tick=0, channel=1, data=[71, 100])\n",
      "midi.NoteOnEvent(tick=96, channel=1, data=[71, 0])\n",
      "midi.NoteOnEvent(tick=0, channel=1, data=[69, 100])\n",
      "midi.NoteOnEvent(tick=96, channel=1, data=[69, 0])\n",
      "midi.NoteOnEvent(tick=0, channel=1, data=[67, 100])\n",
      "midi.NoteOnEvent(tick=96, channel=1, data=[67, 0])\n",
      "midi.NoteOnEvent(tick=0, channel=1, data=[66, 100])\n",
      "midi.NoteOnEvent(tick=96, channel=1, data=[66, 0])\n",
      "midi.NoteOnEvent(tick=0, channel=1, data=[67, 100])\n",
      "midi.NoteOnEvent(tick=96, channel=1, data=[67, 0])\n",
      "midi.NoteOnEvent(tick=0, channel=1, data=[69, 100])\n",
      "midi.NoteOnEvent(tick=288, channel=1, data=[69, 0])\n",
      "midi.NoteOnEvent(tick=0, channel=1, data=[67, 100])\n",
      "midi.NoteOnEvent(tick=96, channel=1, data=[67, 0])\n",
      "midi.NoteOnEvent(tick=0, channel=1, data=[66, 100])\n",
      "midi.NoteOnEvent(tick=96, channel=1, data=[66, 0])\n",
      "midi.NoteOnEvent(tick=0, channel=1, data=[64, 100])\n",
      "midi.NoteOnEvent(tick=96, channel=1, data=[64, 0])\n",
      "midi.NoteOnEvent(tick=0, channel=1, data=[63, 100])\n",
      "midi.NoteOnEvent(tick=192, channel=1, data=[63, 0])\n",
      "midi.NoteOnEvent(tick=0, channel=1, data=[71, 100])\n",
      "midi.NoteOnEvent(tick=192, channel=1, data=[71, 0])\n",
      "midi.NoteOnEvent(tick=0, channel=1, data=[67, 100])\n",
      "midi.NoteOnEvent(tick=48, channel=1, data=[67, 0])\n",
      "midi.NoteOnEvent(tick=0, channel=1, data=[69, 100])\n",
      "midi.NoteOnEvent(tick=48, channel=1, data=[69, 0])\n",
      "midi.NoteOnEvent(tick=0, channel=1, data=[67, 100])\n",
      "midi.NoteOnEvent(tick=48, channel=1, data=[67, 0])\n",
      "midi.NoteOnEvent(tick=0, channel=1, data=[69, 100])\n",
      "midi.NoteOnEvent(tick=48, channel=1, data=[69, 0])\n",
      "midi.NoteOnEvent(tick=0, channel=1, data=[66, 100])\n",
      "midi.NoteOnEvent(tick=96, channel=1, data=[66, 0])\n",
      "midi.NoteOnEvent(tick=0, channel=1, data=[64, 100])\n",
      "midi.NoteOnEvent(tick=96, channel=1, data=[64, 0])\n",
      "midi.NoteOnEvent(tick=0, channel=1, data=[64, 100])\n",
      "midi.NoteOnEvent(tick=384, channel=1, data=[64, 0])\n",
      "midi.NoteOnEvent(tick=576, channel=1, data=[76, 100])\n",
      "midi.NoteOnEvent(tick=192, channel=1, data=[76, 0])\n",
      "midi.NoteOnEvent(tick=0, channel=1, data=[81, 100])\n",
      "midi.NoteOnEvent(tick=192, channel=1, data=[81, 0])\n",
      "midi.NoteOnEvent(tick=384, channel=1, data=[80, 100])\n",
      "midi.NoteOnEvent(tick=96, channel=1, data=[80, 0])\n",
      "midi.NoteOnEvent(tick=0, channel=1, data=[81, 100])\n",
      "midi.NoteOnEvent(tick=96, channel=1, data=[81, 0])\n",
      "midi.NoteOnEvent(tick=0, channel=1, data=[83, 100])\n",
      "midi.NoteOnEvent(tick=192, channel=1, data=[83, 0])\n",
      "midi.NoteOnEvent(tick=384, channel=1, data=[76, 100])\n",
      "midi.NoteOnEvent(tick=192, channel=1, data=[76, 0])\n",
      "midi.NoteOnEvent(tick=0, channel=1, data=[83, 100])\n",
      "midi.NoteOnEvent(tick=192, channel=1, data=[83, 0])\n",
      "midi.NoteOnEvent(tick=384, channel=1, data=[81, 100])\n",
      "midi.NoteOnEvent(tick=96, channel=1, data=[81, 0])\n",
      "midi.NoteOnEvent(tick=0, channel=1, data=[83, 100])\n",
      "midi.NoteOnEvent(tick=96, channel=1, data=[83, 0])\n",
      "midi.NoteOnEvent(tick=0, channel=1, data=[84, 100])\n",
      "midi.NoteOnEvent(tick=192, channel=1, data=[84, 0])\n",
      "midi.NoteOnEvent(tick=3072, channel=1, data=[76, 100])\n",
      "midi.NoteOnEvent(tick=192, channel=1, data=[76, 0])\n",
      "midi.NoteOnEvent(tick=0, channel=1, data=[81, 100])\n",
      "midi.NoteOnEvent(tick=384, channel=1, data=[81, 0])\n",
      "midi.NoteOnEvent(tick=192, channel=1, data=[76, 100])\n",
      "midi.NoteOnEvent(tick=192, channel=1, data=[76, 0])\n",
      "midi.NoteOnEvent(tick=0, channel=1, data=[77, 100])\n",
      "midi.NoteOnEvent(tick=384, channel=1, data=[77, 0])\n",
      "midi.NoteOnEvent(tick=192, channel=1, data=[74, 100])\n",
      "midi.NoteOnEvent(tick=192, channel=1, data=[74, 0])\n",
      "midi.NoteOnEvent(tick=0, channel=1, data=[79, 100])\n",
      "midi.NoteOnEvent(tick=384, channel=1, data=[79, 0])\n",
      "midi.NoteOnEvent(tick=192, channel=1, data=[74, 100])\n",
      "midi.NoteOnEvent(tick=192, channel=1, data=[74, 0])\n",
      "midi.NoteOnEvent(tick=0, channel=1, data=[76, 100])\n",
      "midi.NoteOnEvent(tick=384, channel=1, data=[76, 0])\n",
      "midi.NoteOnEvent(tick=192, channel=1, data=[72, 100])\n",
      "midi.NoteOnEvent(tick=192, channel=1, data=[72, 0])\n",
      "midi.NoteOnEvent(tick=0, channel=1, data=[77, 100])\n",
      "midi.NoteOnEvent(tick=384, channel=1, data=[77, 0])\n",
      "midi.NoteOnEvent(tick=192, channel=1, data=[72, 100])\n",
      "midi.NoteOnEvent(tick=192, channel=1, data=[72, 0])\n",
      "midi.NoteOnEvent(tick=0, channel=1, data=[74, 100])\n",
      "midi.NoteOnEvent(tick=384, channel=1, data=[74, 0])\n",
      "midi.NoteOnEvent(tick=192, channel=1, data=[71, 100])\n",
      "midi.NoteOnEvent(tick=192, channel=1, data=[71, 0])\n",
      "midi.NoteOnEvent(tick=0, channel=1, data=[76, 100])\n",
      "midi.NoteOnEvent(tick=384, channel=1, data=[76, 0])\n",
      "midi.NoteOnEvent(tick=192, channel=1, data=[76, 100])\n",
      "midi.NoteOnEvent(tick=192, channel=1, data=[76, 0])\n",
      "midi.NoteOnEvent(tick=0, channel=1, data=[81, 100])\n",
      "midi.NoteOnEvent(tick=384, channel=1, data=[81, 0])\n",
      "midi.NoteOnEvent(tick=192, channel=1, data=[76, 100])\n",
      "midi.NoteOnEvent(tick=192, channel=1, data=[76, 0])\n",
      "midi.NoteOnEvent(tick=0, channel=1, data=[77, 100])\n",
      "midi.NoteOnEvent(tick=384, channel=1, data=[77, 0])\n",
      "midi.NoteOnEvent(tick=192, channel=1, data=[74, 100])\n",
      "midi.NoteOnEvent(tick=192, channel=1, data=[74, 0])\n",
      "midi.NoteOnEvent(tick=0, channel=1, data=[76, 100])\n",
      "midi.NoteOnEvent(tick=96, channel=1, data=[76, 0])\n",
      "midi.NoteOnEvent(tick=0, channel=1, data=[74, 100])\n",
      "midi.NoteOnEvent(tick=96, channel=1, data=[74, 0])\n",
      "midi.NoteOnEvent(tick=0, channel=1, data=[72, 100])\n",
      "midi.NoteOnEvent(tick=96, channel=1, data=[72, 0])\n",
      "midi.NoteOnEvent(tick=0, channel=1, data=[76, 100])\n",
      "midi.NoteOnEvent(tick=96, channel=1, data=[76, 0])\n",
      "midi.NoteOnEvent(tick=0, channel=1, data=[74, 100])\n",
      "midi.NoteOnEvent(tick=96, channel=1, data=[74, 0])\n",
      "midi.NoteOnEvent(tick=0, channel=1, data=[72, 100])\n",
      "midi.NoteOnEvent(tick=96, channel=1, data=[72, 0])\n",
      "midi.NoteOnEvent(tick=0, channel=1, data=[71, 100])\n",
      "midi.NoteOnEvent(tick=96, channel=1, data=[71, 0])\n",
      "midi.NoteOnEvent(tick=0, channel=1, data=[74, 100])\n",
      "midi.NoteOnEvent(tick=96, channel=1, data=[74, 0])\n",
      "midi.NoteOnEvent(tick=0, channel=1, data=[72, 100])\n",
      "midi.NoteOnEvent(tick=192, channel=1, data=[72, 0])\n",
      "midi.NoteOnEvent(tick=0, channel=1, data=[69, 100])\n",
      "midi.NoteOnEvent(tick=192, channel=1, data=[69, 0])\n",
      "midi.NoteOnEvent(tick=192, channel=1, data=[72, 100])\n",
      "midi.NoteOnEvent(tick=192, channel=1, data=[72, 0])\n",
      "midi.NoteOnEvent(tick=0, channel=1, data=[72, 100])\n",
      "midi.NoteOnEvent(tick=192, channel=1, data=[72, 0])\n",
      "midi.NoteOnEvent(tick=0, channel=1, data=[72, 100])\n",
      "midi.NoteOnEvent(tick=192, channel=1, data=[72, 0])\n",
      "midi.NoteOnEvent(tick=0, channel=1, data=[71, 100])\n",
      "midi.NoteOnEvent(tick=192, channel=1, data=[71, 0])\n",
      "midi.NoteOnEvent(tick=0, channel=1, data=[71, 100])\n",
      "midi.NoteOnEvent(tick=192, channel=1, data=[71, 0])\n",
      "midi.NoteOnEvent(tick=0, channel=1, data=[71, 100])\n",
      "midi.NoteOnEvent(tick=192, channel=1, data=[71, 0])\n",
      "midi.NoteOnEvent(tick=0, channel=1, data=[71, 100])\n",
      "midi.NoteOnEvent(tick=192, channel=1, data=[71, 0])\n",
      "midi.NoteOnEvent(tick=0, channel=1, data=[71, 100])\n",
      "midi.NoteOnEvent(tick=192, channel=1, data=[71, 0])\n",
      "midi.NoteOnEvent(tick=0, channel=1, data=[71, 100])\n",
      "midi.NoteOnEvent(tick=192, channel=1, data=[71, 0])\n",
      "midi.NoteOnEvent(tick=0, channel=1, data=[70, 100])\n",
      "midi.NoteOnEvent(tick=192, channel=1, data=[70, 0])\n",
      "midi.NoteOnEvent(tick=0, channel=1, data=[70, 100])\n",
      "midi.NoteOnEvent(tick=192, channel=1, data=[70, 0])\n",
      "midi.NoteOnEvent(tick=0, channel=1, data=[69, 100])\n",
      "midi.NoteOnEvent(tick=192, channel=1, data=[69, 0])\n",
      "midi.NoteOnEvent(tick=0, channel=1, data=[69, 100])\n",
      "midi.NoteOnEvent(tick=192, channel=1, data=[69, 0])\n",
      "midi.NoteOnEvent(tick=0, channel=1, data=[69, 100])\n",
      "midi.NoteOnEvent(tick=192, channel=1, data=[69, 0])\n",
      "midi.NoteOnEvent(tick=0, channel=1, data=[69, 100])\n",
      "midi.NoteOnEvent(tick=192, channel=1, data=[69, 0])\n",
      "midi.NoteOnEvent(tick=0, channel=1, data=[69, 100])\n",
      "midi.NoteOnEvent(tick=192, channel=1, data=[69, 0])\n",
      "midi.NoteOnEvent(tick=0, channel=1, data=[69, 100])\n",
      "midi.NoteOnEvent(tick=192, channel=1, data=[69, 0])\n",
      "midi.NoteOnEvent(tick=0, channel=1, data=[68, 100])\n",
      "midi.NoteOnEvent(tick=192, channel=1, data=[68, 0])\n",
      "midi.NoteOnEvent(tick=0, channel=1, data=[68, 100])\n",
      "midi.NoteOnEvent(tick=192, channel=1, data=[68, 0])\n",
      "midi.NoteOnEvent(tick=0, channel=1, data=[67, 100])\n",
      "midi.NoteOnEvent(tick=192, channel=1, data=[67, 0])\n",
      "midi.NoteOnEvent(tick=0, channel=1, data=[67, 100])\n",
      "midi.NoteOnEvent(tick=192, channel=1, data=[67, 0])\n",
      "midi.NoteOnEvent(tick=0, channel=1, data=[67, 100])\n",
      "midi.NoteOnEvent(tick=192, channel=1, data=[67, 0])\n",
      "midi.NoteOnEvent(tick=1920, channel=1, data=[79, 100])\n",
      "midi.NoteOnEvent(tick=192, channel=1, data=[79, 0])\n",
      "midi.NoteOnEvent(tick=0, channel=1, data=[84, 100])\n",
      "midi.NoteOnEvent(tick=384, channel=1, data=[84, 0])\n",
      "midi.NoteOnEvent(tick=192, channel=1, data=[79, 100])\n",
      "midi.NoteOnEvent(tick=192, channel=1, data=[79, 0])\n",
      "midi.NoteOnEvent(tick=0, channel=1, data=[81, 100])\n",
      "midi.NoteOnEvent(tick=384, channel=1, data=[81, 0])\n",
      "midi.NoteOnEvent(tick=192, channel=1, data=[77, 100])\n",
      "midi.NoteOnEvent(tick=192, channel=1, data=[77, 0])\n",
      "midi.NoteOnEvent(tick=0, channel=1, data=[79, 100])\n",
      "midi.NoteOnEvent(tick=96, channel=1, data=[79, 0])\n",
      "midi.NoteOnEvent(tick=0, channel=1, data=[77, 100])\n",
      "midi.NoteOnEvent(tick=96, channel=1, data=[77, 0])\n",
      "midi.NoteOnEvent(tick=0, channel=1, data=[76, 100])\n",
      "midi.NoteOnEvent(tick=96, channel=1, data=[76, 0])\n",
      "midi.NoteOnEvent(tick=0, channel=1, data=[79, 100])\n",
      "midi.NoteOnEvent(tick=96, channel=1, data=[79, 0])\n",
      "midi.NoteOnEvent(tick=0, channel=1, data=[77, 100])\n",
      "midi.NoteOnEvent(tick=96, channel=1, data=[77, 0])\n",
      "midi.NoteOnEvent(tick=0, channel=1, data=[76, 100])\n",
      "midi.NoteOnEvent(tick=96, channel=1, data=[76, 0])\n",
      "midi.NoteOnEvent(tick=0, channel=1, data=[74, 100])\n",
      "midi.NoteOnEvent(tick=96, channel=1, data=[74, 0])\n",
      "midi.NoteOnEvent(tick=0, channel=1, data=[77, 100])\n",
      "midi.NoteOnEvent(tick=96, channel=1, data=[77, 0])\n",
      "midi.NoteOnEvent(tick=0, channel=1, data=[76, 100])\n",
      "midi.NoteOnEvent(tick=192, channel=1, data=[76, 0])\n",
      "midi.NoteOnEvent(tick=0, channel=1, data=[72, 100])\n",
      "midi.NoteOnEvent(tick=192, channel=1, data=[72, 0])\n",
      "midi.NoteOnEvent(tick=96, channel=1, data=[72, 100])\n",
      "midi.NoteOnEvent(tick=96, channel=1, data=[72, 0])\n",
      "midi.NoteOnEvent(tick=0, channel=1, data=[71, 100])\n",
      "midi.NoteOnEvent(tick=96, channel=1, data=[71, 0])\n",
      "midi.NoteOnEvent(tick=0, channel=1, data=[72, 100])\n",
      "midi.NoteOnEvent(tick=96, channel=1, data=[72, 0])\n",
      "midi.NoteOnEvent(tick=0, channel=1, data=[74, 100])\n",
      "midi.NoteOnEvent(tick=96, channel=1, data=[74, 0])\n",
      "midi.NoteOnEvent(tick=0, channel=1, data=[72, 100])\n",
      "midi.NoteOnEvent(tick=96, channel=1, data=[72, 0])\n",
      "midi.NoteOnEvent(tick=0, channel=1, data=[71, 100])\n",
      "midi.NoteOnEvent(tick=96, channel=1, data=[71, 0])\n",
      "midi.NoteOnEvent(tick=0, channel=1, data=[72, 100])\n",
      "midi.NoteOnEvent(tick=96, channel=1, data=[72, 0])\n",
      "midi.NoteOnEvent(tick=0, channel=1, data=[76, 100])\n",
      "midi.NoteOnEvent(tick=96, channel=1, data=[76, 0])\n",
      "midi.NoteOnEvent(tick=0, channel=1, data=[72, 100])\n",
      "midi.NoteOnEvent(tick=96, channel=1, data=[72, 0])\n",
      "midi.NoteOnEvent(tick=0, channel=1, data=[71, 100])\n",
      "midi.NoteOnEvent(tick=96, channel=1, data=[71, 0])\n",
      "midi.NoteOnEvent(tick=0, channel=1, data=[72, 100])\n",
      "midi.NoteOnEvent(tick=96, channel=1, data=[72, 0])\n",
      "midi.NoteOnEvent(tick=0, channel=1, data=[77, 100])\n",
      "midi.NoteOnEvent(tick=96, channel=1, data=[77, 0])\n",
      "midi.NoteOnEvent(tick=0, channel=1, data=[72, 100])\n",
      "midi.NoteOnEvent(tick=96, channel=1, data=[72, 0])\n",
      "midi.NoteOnEvent(tick=0, channel=1, data=[71, 100])\n",
      "midi.NoteOnEvent(tick=96, channel=1, data=[71, 0])\n",
      "midi.NoteOnEvent(tick=0, channel=1, data=[72, 100])\n",
      "midi.NoteOnEvent(tick=96, channel=1, data=[72, 0])\n",
      "midi.NoteOnEvent(tick=0, channel=1, data=[79, 100])\n",
      "midi.NoteOnEvent(tick=96, channel=1, data=[79, 0])\n",
      "midi.NoteOnEvent(tick=0, channel=1, data=[72, 100])\n",
      "midi.NoteOnEvent(tick=96, channel=1, data=[72, 0])\n",
      "midi.NoteOnEvent(tick=0, channel=1, data=[71, 100])\n",
      "midi.NoteOnEvent(tick=96, channel=1, data=[71, 0])\n",
      "midi.NoteOnEvent(tick=0, channel=1, data=[72, 100])\n",
      "midi.NoteOnEvent(tick=96, channel=1, data=[72, 0])\n",
      "midi.NoteOnEvent(tick=0, channel=1, data=[81, 100])\n",
      "midi.NoteOnEvent(tick=96, channel=1, data=[81, 0])\n",
      "midi.NoteOnEvent(tick=0, channel=1, data=[82, 100])\n",
      "midi.NoteOnEvent(tick=96, channel=1, data=[82, 0])\n",
      "midi.NoteOnEvent(tick=0, channel=1, data=[81, 100])\n",
      "midi.NoteOnEvent(tick=96, channel=1, data=[81, 0])\n",
      "midi.NoteOnEvent(tick=0, channel=1, data=[79, 100])\n",
      "midi.NoteOnEvent(tick=96, channel=1, data=[79, 0])\n",
      "midi.NoteOnEvent(tick=0, channel=1, data=[77, 100])\n",
      "midi.NoteOnEvent(tick=96, channel=1, data=[77, 0])\n",
      "midi.NoteOnEvent(tick=0, channel=1, data=[76, 100])\n",
      "midi.NoteOnEvent(tick=96, channel=1, data=[76, 0])\n",
      "midi.NoteOnEvent(tick=0, channel=1, data=[74, 100])\n",
      "midi.NoteOnEvent(tick=96, channel=1, data=[74, 0])\n",
      "midi.NoteOnEvent(tick=0, channel=1, data=[72, 100])\n",
      "midi.NoteOnEvent(tick=96, channel=1, data=[72, 0])\n",
      "midi.NoteOnEvent(tick=0, channel=1, data=[71, 100])\n",
      "midi.NoteOnEvent(tick=192, channel=1, data=[71, 0])\n",
      "midi.NoteOnEvent(tick=0, channel=1, data=[67, 100])\n",
      "midi.NoteOnEvent(tick=192, channel=1, data=[67, 0])\n",
      "midi.NoteOnEvent(tick=0, channel=1, data=[83, 100])\n",
      "midi.NoteOnEvent(tick=576, channel=1, data=[83, 0])\n",
      "midi.NoteOnEvent(tick=0, channel=1, data=[81, 100])\n",
      "midi.NoteOnEvent(tick=96, channel=1, data=[81, 0])\n",
      "midi.NoteOnEvent(tick=0, channel=1, data=[80, 100])\n",
      "midi.NoteOnEvent(tick=96, channel=1, data=[80, 0])\n",
      "midi.NoteOnEvent(tick=0, channel=1, data=[81, 100])\n",
      "midi.NoteOnEvent(tick=192, channel=1, data=[81, 0])\n",
      "midi.NoteOnEvent(tick=0, channel=1, data=[84, 100])\n",
      "midi.NoteOnEvent(tick=384, channel=1, data=[84, 0])\n",
      "midi.NoteOnEvent(tick=0, channel=1, data=[78, 100])\n",
      "midi.NoteOnEvent(tick=192, channel=1, data=[78, 0])\n",
      "midi.NoteOnEvent(tick=1344, channel=1, data=[74, 100])\n",
      "midi.NoteOnEvent(tick=192, channel=1, data=[74, 0])\n",
      "midi.NoteOnEvent(tick=0, channel=1, data=[81, 100])\n",
      "midi.NoteOnEvent(tick=576, channel=1, data=[81, 0])\n",
      "midi.NoteOnEvent(tick=0, channel=1, data=[79, 100])\n",
      "midi.NoteOnEvent(tick=96, channel=1, data=[79, 0])\n",
      "midi.NoteOnEvent(tick=0, channel=1, data=[78, 100])\n",
      "midi.NoteOnEvent(tick=96, channel=1, data=[78, 0])\n",
      "midi.NoteOnEvent(tick=0, channel=1, data=[79, 100])\n",
      "midi.NoteOnEvent(tick=192, channel=1, data=[79, 0])\n",
      "midi.NoteOnEvent(tick=0, channel=1, data=[83, 100])\n",
      "midi.NoteOnEvent(tick=384, channel=1, data=[83, 0])\n",
      "midi.NoteOnEvent(tick=0, channel=1, data=[76, 100])\n",
      "midi.NoteOnEvent(tick=192, channel=1, data=[76, 0])\n",
      "midi.NoteOnEvent(tick=1344, channel=1, data=[76, 100])\n",
      "midi.NoteOnEvent(tick=96, channel=1, data=[76, 0])\n",
      "midi.NoteOnEvent(tick=0, channel=1, data=[75, 100])\n",
      "midi.NoteOnEvent(tick=96, channel=1, data=[75, 0])\n",
      "midi.NoteOnEvent(tick=0, channel=1, data=[76, 100])\n",
      "midi.NoteOnEvent(tick=576, channel=1, data=[76, 0])\n",
      "midi.NoteOnEvent(tick=0, channel=1, data=[78, 100])\n",
      "midi.NoteOnEvent(tick=96, channel=1, data=[78, 0])\n",
      "midi.NoteOnEvent(tick=0, channel=1, data=[79, 100])\n",
      "midi.NoteOnEvent(tick=96, channel=1, data=[79, 0])\n",
      "midi.NoteOnEvent(tick=0, channel=1, data=[81, 100])\n",
      "midi.NoteOnEvent(tick=192, channel=1, data=[81, 0])\n",
      "midi.NoteOnEvent(tick=0, channel=1, data=[72, 100])\n",
      "midi.NoteOnEvent(tick=192, channel=1, data=[72, 0])\n",
      "midi.NoteOnEvent(tick=0, channel=1, data=[71, 100])\n",
      "midi.NoteOnEvent(tick=192, channel=1, data=[71, 0])\n",
      "midi.NoteOnEvent(tick=0, channel=1, data=[81, 100])\n",
      "midi.NoteOnEvent(tick=192, channel=1, data=[81, 0])\n",
      "midi.NoteOnEvent(tick=0, channel=1, data=[79, 100])\n",
      "midi.NoteOnEvent(tick=192, channel=1, data=[79, 0])\n",
      "midi.NoteOnEvent(tick=0, channel=1, data=[71, 100])\n",
      "midi.NoteOnEvent(tick=192, channel=1, data=[71, 0])\n",
      "midi.NoteOnEvent(tick=0, channel=1, data=[69, 100])\n",
      "midi.NoteOnEvent(tick=96, channel=1, data=[69, 0])\n",
      "midi.NoteOnEvent(tick=0, channel=1, data=[71, 100])\n",
      "midi.NoteOnEvent(tick=96, channel=1, data=[71, 0])\n",
      "midi.NoteOnEvent(tick=0, channel=1, data=[72, 100])\n",
      "midi.NoteOnEvent(tick=96, channel=1, data=[72, 0])\n",
      "midi.NoteOnEvent(tick=0, channel=1, data=[71, 100])\n",
      "midi.NoteOnEvent(tick=96, channel=1, data=[71, 0])\n",
      "midi.NoteOnEvent(tick=0, channel=1, data=[69, 100])\n",
      "midi.NoteOnEvent(tick=96, channel=1, data=[69, 0])\n",
      "midi.NoteOnEvent(tick=0, channel=1, data=[67, 100])\n",
      "midi.NoteOnEvent(tick=96, channel=1, data=[67, 0])\n",
      "midi.NoteOnEvent(tick=0, channel=1, data=[66, 100])\n",
      "midi.NoteOnEvent(tick=96, channel=1, data=[66, 0])\n",
      "midi.NoteOnEvent(tick=0, channel=1, data=[64, 100])\n",
      "midi.NoteOnEvent(tick=96, channel=1, data=[64, 0])\n",
      "midi.NoteOnEvent(tick=0, channel=1, data=[63, 100])\n",
      "midi.NoteOnEvent(tick=192, channel=1, data=[63, 0])\n",
      "midi.NoteOnEvent(tick=0, channel=1, data=[72, 100])\n",
      "midi.NoteOnEvent(tick=192, channel=1, data=[72, 0])\n",
      "midi.NoteOnEvent(tick=0, channel=1, data=[71, 100])\n",
      "midi.NoteOnEvent(tick=192, channel=1, data=[71, 0])\n",
      "midi.NoteOnEvent(tick=0, channel=1, data=[76, 100])\n",
      "midi.NoteOnEvent(tick=192, channel=1, data=[76, 0])\n",
      "midi.NoteOnEvent(tick=0, channel=1, data=[79, 100])\n",
      "midi.NoteOnEvent(tick=384, channel=1, data=[79, 0])\n",
      "midi.NoteOnEvent(tick=0, channel=1, data=[78, 100])\n",
      "midi.NoteOnEvent(tick=48, channel=1, data=[78, 0])\n",
      "midi.NoteOnEvent(tick=0, channel=1, data=[79, 100])\n",
      "midi.NoteOnEvent(tick=48, channel=1, data=[79, 0])\n",
      "midi.NoteOnEvent(tick=0, channel=1, data=[78, 100])\n",
      "midi.NoteOnEvent(tick=48, channel=1, data=[78, 0])\n",
      "midi.NoteOnEvent(tick=0, channel=1, data=[79, 100])\n",
      "midi.NoteOnEvent(tick=48, channel=1, data=[79, 0])\n",
      "midi.NoteOnEvent(tick=0, channel=1, data=[78, 100])\n",
      "midi.NoteOnEvent(tick=48, channel=1, data=[78, 0])\n",
      "midi.NoteOnEvent(tick=0, channel=1, data=[79, 100])\n",
      "midi.NoteOnEvent(tick=48, channel=1, data=[79, 0])\n",
      "midi.NoteOnEvent(tick=0, channel=1, data=[78, 100])\n",
      "midi.NoteOnEvent(tick=48, channel=1, data=[78, 0])\n",
      "midi.NoteOnEvent(tick=0, channel=1, data=[79, 100])\n",
      "midi.NoteOnEvent(tick=48, channel=1, data=[79, 0])\n",
      "midi.NoteOnEvent(tick=0, channel=1, data=[78, 100])\n",
      "midi.NoteOnEvent(tick=384, channel=1, data=[78, 0])\n",
      "midi.NoteOnEvent(tick=384, channel=1, data=[81, 100])\n",
      "midi.NoteOnEvent(tick=384, channel=1, data=[81, 0])\n",
      "midi.NoteOnEvent(tick=384, channel=1, data=[84, 100])\n",
      "midi.NoteOnEvent(tick=384, channel=1, data=[84, 0])\n",
      "midi.NoteOnEvent(tick=384, channel=1, data=[69, 100])\n",
      "midi.NoteOnEvent(tick=384, channel=1, data=[69, 0])\n",
      "midi.NoteOnEvent(tick=384, channel=1, data=[69, 100])\n",
      "midi.NoteOnEvent(tick=768, channel=1, data=[69, 0])\n",
      "midi.NoteOnEvent(tick=96, channel=1, data=[71, 100])\n",
      "midi.NoteOnEvent(tick=96, channel=1, data=[71, 0])\n",
      "midi.NoteOnEvent(tick=0, channel=1, data=[73, 100])\n",
      "midi.NoteOnEvent(tick=96, channel=1, data=[73, 0])\n",
      "midi.NoteOnEvent(tick=0, channel=1, data=[75, 100])\n",
      "midi.NoteOnEvent(tick=96, channel=1, data=[75, 0])\n",
      "midi.NoteOnEvent(tick=0, channel=1, data=[76, 100])\n",
      "midi.NoteOnEvent(tick=96, channel=1, data=[76, 0])\n",
      "midi.NoteOnEvent(tick=0, channel=1, data=[78, 100])\n",
      "midi.NoteOnEvent(tick=96, channel=1, data=[78, 0])\n",
      "midi.NoteOnEvent(tick=0, channel=1, data=[79, 100])\n",
      "midi.NoteOnEvent(tick=96, channel=1, data=[79, 0])\n",
      "midi.NoteOnEvent(tick=0, channel=1, data=[81, 100])\n",
      "midi.NoteOnEvent(tick=96, channel=1, data=[81, 0])\n",
      "midi.NoteOnEvent(tick=0, channel=1, data=[83, 100])\n",
      "midi.NoteOnEvent(tick=192, channel=1, data=[83, 0])\n",
      "midi.NoteOnEvent(tick=0, channel=1, data=[76, 100])\n",
      "midi.NoteOnEvent(tick=192, channel=1, data=[76, 0])\n",
      "midi.NoteOnEvent(tick=0, channel=1, data=[78, 100])\n",
      "midi.NoteOnEvent(tick=192, channel=1, data=[78, 0])\n",
      "midi.NoteOnEvent(tick=0, channel=1, data=[75, 100])\n",
      "midi.NoteOnEvent(tick=192, channel=1, data=[75, 0])\n",
      "midi.NoteOnEvent(tick=0, channel=1, data=[76, 100])\n",
      "midi.NoteOnEvent(tick=96, channel=1, data=[76, 0])\n",
      "midi.NoteOnEvent(tick=0, channel=1, data=[74, 100])\n",
      "midi.NoteOnEvent(tick=96, channel=1, data=[74, 0])\n",
      "midi.NoteOnEvent(tick=0, channel=1, data=[72, 100])\n",
      "midi.NoteOnEvent(tick=96, channel=1, data=[72, 0])\n",
      "midi.NoteOnEvent(tick=0, channel=1, data=[71, 100])\n",
      "midi.NoteOnEvent(tick=96, channel=1, data=[71, 0])\n",
      "midi.NoteOnEvent(tick=0, channel=1, data=[69, 100])\n",
      "midi.NoteOnEvent(tick=192, channel=1, data=[69, 0])\n",
      "midi.NoteOnEvent(tick=0, channel=1, data=[69, 100])\n",
      "midi.NoteOnEvent(tick=192, channel=1, data=[69, 0])\n",
      "midi.NoteOnEvent(tick=0, channel=1, data=[69, 100])\n",
      "midi.NoteOnEvent(tick=96, channel=1, data=[69, 0])\n",
      "midi.NoteOnEvent(tick=0, channel=1, data=[71, 100])\n",
      "midi.NoteOnEvent(tick=96, channel=1, data=[71, 0])\n",
      "midi.NoteOnEvent(tick=0, channel=1, data=[72, 100])\n",
      "midi.NoteOnEvent(tick=288, channel=1, data=[72, 0])\n",
      "midi.NoteOnEvent(tick=0, channel=1, data=[71, 100])\n",
      "midi.NoteOnEvent(tick=96, channel=1, data=[71, 0])\n",
      "midi.NoteOnEvent(tick=0, channel=1, data=[69, 100])\n",
      "midi.NoteOnEvent(tick=96, channel=1, data=[69, 0])\n",
      "midi.NoteOnEvent(tick=0, channel=1, data=[67, 100])\n",
      "midi.NoteOnEvent(tick=96, channel=1, data=[67, 0])\n",
      "midi.NoteOnEvent(tick=0, channel=1, data=[66, 100])\n",
      "midi.NoteOnEvent(tick=96, channel=1, data=[66, 0])\n",
      "midi.NoteOnEvent(tick=0, channel=1, data=[67, 100])\n",
      "midi.NoteOnEvent(tick=96, channel=1, data=[67, 0])\n",
      "midi.NoteOnEvent(tick=0, channel=1, data=[69, 100])\n",
      "midi.NoteOnEvent(tick=288, channel=1, data=[69, 0])\n",
      "midi.NoteOnEvent(tick=0, channel=1, data=[67, 100])\n",
      "midi.NoteOnEvent(tick=96, channel=1, data=[67, 0])\n",
      "midi.NoteOnEvent(tick=0, channel=1, data=[66, 100])\n",
      "midi.NoteOnEvent(tick=96, channel=1, data=[66, 0])\n",
      "midi.NoteOnEvent(tick=0, channel=1, data=[64, 100])\n",
      "midi.NoteOnEvent(tick=96, channel=1, data=[64, 0])\n",
      "midi.NoteOnEvent(tick=0, channel=1, data=[63, 100])\n",
      "midi.NoteOnEvent(tick=192, channel=1, data=[63, 0])\n",
      "midi.NoteOnEvent(tick=0, channel=1, data=[71, 100])\n",
      "midi.NoteOnEvent(tick=192, channel=1, data=[71, 0])\n",
      "midi.NoteOnEvent(tick=0, channel=1, data=[67, 100])\n",
      "midi.NoteOnEvent(tick=192, channel=1, data=[67, 0])\n",
      "midi.NoteOnEvent(tick=0, channel=1, data=[66, 100])\n",
      "midi.NoteOnEvent(tick=96, channel=1, data=[66, 0])\n",
      "midi.NoteOnEvent(tick=0, channel=1, data=[64, 100])\n",
      "midi.NoteOnEvent(tick=96, channel=1, data=[64, 0])\n",
      "midi.NoteOnEvent(tick=0, channel=1, data=[64, 100])\n",
      "midi.NoteOnEvent(tick=384, channel=1, data=[64, 0])\n",
      "midi.NoteOnEvent(tick=576, channel=1, data=[71, 100])\n",
      "midi.NoteOnEvent(tick=192, channel=1, data=[71, 0])\n",
      "midi.NoteOnEvent(tick=0, channel=1, data=[76, 100])\n",
      "midi.NoteOnEvent(tick=192, channel=1, data=[76, 0])\n",
      "midi.NoteOnEvent(tick=384, channel=1, data=[75, 100])\n",
      "midi.NoteOnEvent(tick=96, channel=1, data=[75, 0])\n",
      "midi.NoteOnEvent(tick=0, channel=1, data=[76, 100])\n",
      "midi.NoteOnEvent(tick=96, channel=1, data=[76, 0])\n",
      "midi.NoteOnEvent(tick=0, channel=1, data=[78, 100])\n",
      "midi.NoteOnEvent(tick=192, channel=1, data=[78, 0])\n",
      "midi.NoteOnEvent(tick=384, channel=1, data=[71, 100])\n",
      "midi.NoteOnEvent(tick=192, channel=1, data=[71, 0])\n",
      "midi.NoteOnEvent(tick=0, channel=1, data=[78, 100])\n",
      "midi.NoteOnEvent(tick=192, channel=1, data=[78, 0])\n",
      "midi.NoteOnEvent(tick=384, channel=1, data=[76, 100])\n",
      "midi.NoteOnEvent(tick=96, channel=1, data=[76, 0])\n",
      "midi.NoteOnEvent(tick=0, channel=1, data=[78, 100])\n",
      "midi.NoteOnEvent(tick=96, channel=1, data=[78, 0])\n",
      "midi.NoteOnEvent(tick=0, channel=1, data=[79, 100])\n",
      "midi.NoteOnEvent(tick=192, channel=1, data=[79, 0])\n",
      "midi.NoteOnEvent(tick=0, channel=1, data=[76, 100])\n",
      "midi.NoteOnEvent(tick=192, channel=1, data=[76, 0])\n",
      "midi.NoteOnEvent(tick=0, channel=1, data=[78, 100])\n",
      "midi.NoteOnEvent(tick=384, channel=1, data=[78, 0])\n",
      "midi.NoteOnEvent(tick=0, channel=1, data=[80, 100])\n",
      "midi.NoteOnEvent(tick=384, channel=1, data=[80, 0])\n",
      "midi.NoteOnEvent(tick=0, channel=1, data=[81, 100])\n",
      "midi.NoteOnEvent(tick=384, channel=1, data=[81, 0])\n",
      "midi.NoteOnEvent(tick=0, channel=1, data=[83, 100])\n",
      "midi.NoteOnEvent(tick=384, channel=1, data=[83, 0])\n",
      "midi.NoteOnEvent(tick=0, channel=1, data=[84, 100])\n",
      "midi.NoteOnEvent(tick=192, channel=1, data=[84, 0])\n",
      "midi.NoteOnEvent(tick=0, channel=1, data=[76, 100])\n",
      "midi.NoteOnEvent(tick=192, channel=1, data=[76, 0])\n",
      "midi.NoteOnEvent(tick=0, channel=1, data=[73, 100])\n",
      "midi.NoteOnEvent(tick=384, channel=1, data=[73, 0])\n",
      "midi.NoteOnEvent(tick=0, channel=1, data=[74, 100])\n",
      "midi.NoteOnEvent(tick=384, channel=1, data=[74, 0])\n",
      "midi.NoteOnEvent(tick=0, channel=1, data=[76, 100])\n",
      "midi.NoteOnEvent(tick=384, channel=1, data=[76, 0])\n",
      "midi.NoteOnEvent(tick=0, channel=1, data=[77, 100])\n",
      "midi.NoteOnEvent(tick=192, channel=1, data=[77, 0])\n",
      "midi.NoteOnEvent(tick=0, channel=1, data=[69, 100])\n",
      "midi.NoteOnEvent(tick=192, channel=1, data=[69, 0])\n",
      "midi.NoteOnEvent(tick=0, channel=1, data=[66, 100])\n",
      "midi.NoteOnEvent(tick=384, channel=1, data=[66, 0])\n",
      "midi.NoteOnEvent(tick=0, channel=1, data=[67, 100])\n",
      "midi.NoteOnEvent(tick=384, channel=1, data=[67, 0])\n",
      "midi.NoteOnEvent(tick=0, channel=1, data=[69, 100])\n",
      "midi.NoteOnEvent(tick=384, channel=1, data=[69, 0])\n",
      "midi.NoteOnEvent(tick=0, channel=1, data=[71, 100])\n",
      "midi.NoteOnEvent(tick=384, channel=1, data=[71, 0])\n",
      "midi.NoteOnEvent(tick=0, channel=1, data=[71, 100])\n",
      "midi.NoteOnEvent(tick=384, channel=1, data=[71, 0])\n",
      "midi.NoteOnEvent(tick=0, channel=1, data=[72, 100])\n",
      "midi.NoteOnEvent(tick=384, channel=1, data=[72, 0])\n",
      "midi.NoteOnEvent(tick=0, channel=1, data=[74, 100])\n",
      "midi.NoteOnEvent(tick=384, channel=1, data=[74, 0])\n",
      "midi.NoteOnEvent(tick=0, channel=1, data=[76, 100])\n",
      "midi.NoteOnEvent(tick=384, channel=1, data=[76, 0])\n",
      "midi.NoteOnEvent(tick=0, channel=1, data=[76, 100])\n",
      "midi.NoteOnEvent(tick=384, channel=1, data=[76, 0])\n",
      "midi.NoteOnEvent(tick=0, channel=1, data=[77, 100])\n",
      "midi.NoteOnEvent(tick=384, channel=1, data=[77, 0])\n",
      "midi.NoteOnEvent(tick=0, channel=1, data=[79, 100])\n",
      "midi.NoteOnEvent(tick=384, channel=1, data=[79, 0])\n",
      "midi.NoteOnEvent(tick=0, channel=1, data=[81, 100])\n",
      "midi.NoteOnEvent(tick=384, channel=1, data=[81, 0])\n",
      "midi.NoteOnEvent(tick=1728, channel=1, data=[69, 100])\n",
      "midi.NoteOnEvent(tick=192, channel=1, data=[69, 0])\n",
      "midi.NoteOnEvent(tick=0, channel=1, data=[74, 100])\n",
      "midi.NoteOnEvent(tick=384, channel=1, data=[74, 0])\n",
      "midi.NoteOnEvent(tick=192, channel=1, data=[69, 100])\n",
      "midi.NoteOnEvent(tick=192, channel=1, data=[69, 0])\n",
      "midi.NoteOnEvent(tick=0, channel=1, data=[70, 100])\n",
      "midi.NoteOnEvent(tick=384, channel=1, data=[70, 0])\n",
      "midi.NoteOnEvent(tick=192, channel=1, data=[67, 100])\n",
      "midi.NoteOnEvent(tick=192, channel=1, data=[67, 0])\n",
      "midi.NoteOnEvent(tick=0, channel=1, data=[69, 100])\n",
      "midi.NoteOnEvent(tick=96, channel=1, data=[69, 0])\n",
      "midi.NoteOnEvent(tick=0, channel=1, data=[67, 100])\n",
      "midi.NoteOnEvent(tick=96, channel=1, data=[67, 0])\n",
      "midi.NoteOnEvent(tick=0, channel=1, data=[65, 100])\n",
      "midi.NoteOnEvent(tick=96, channel=1, data=[65, 0])\n",
      "midi.NoteOnEvent(tick=0, channel=1, data=[69, 100])\n",
      "midi.NoteOnEvent(tick=96, channel=1, data=[69, 0])\n",
      "midi.NoteOnEvent(tick=0, channel=1, data=[67, 100])\n",
      "midi.NoteOnEvent(tick=96, channel=1, data=[67, 0])\n",
      "midi.NoteOnEvent(tick=0, channel=1, data=[65, 100])\n",
      "midi.NoteOnEvent(tick=96, channel=1, data=[65, 0])\n",
      "midi.NoteOnEvent(tick=0, channel=1, data=[64, 100])\n",
      "midi.NoteOnEvent(tick=96, channel=1, data=[64, 0])\n",
      "midi.NoteOnEvent(tick=0, channel=1, data=[67, 100])\n",
      "midi.NoteOnEvent(tick=96, channel=1, data=[67, 0])\n",
      "midi.NoteOnEvent(tick=0, channel=1, data=[65, 100])\n",
      "midi.NoteOnEvent(tick=192, channel=1, data=[65, 0])\n",
      "midi.NoteOnEvent(tick=0, channel=1, data=[62, 100])\n",
      "midi.NoteOnEvent(tick=192, channel=1, data=[62, 0])\n",
      "midi.NoteOnEvent(tick=0, channel=1, data=[72, 100])\n",
      "midi.NoteOnEvent(tick=2112, channel=1, data=[72, 0])\n",
      "midi.NoteOnEvent(tick=0, channel=1, data=[69, 100])\n",
      "midi.NoteOnEvent(tick=192, channel=1, data=[69, 0])\n",
      "midi.NoteOnEvent(tick=0, channel=1, data=[65, 100])\n",
      "midi.NoteOnEvent(tick=192, channel=1, data=[65, 0])\n",
      "midi.NoteOnEvent(tick=0, channel=1, data=[70, 100])\n",
      "midi.NoteOnEvent(tick=192, channel=1, data=[70, 0])\n",
      "midi.NoteOnEvent(tick=0, channel=1, data=[72, 100])\n",
      "midi.NoteOnEvent(tick=1728, channel=1, data=[72, 0])\n",
      "midi.NoteOnEvent(tick=0, channel=1, data=[72, 100])\n",
      "midi.NoteOnEvent(tick=192, channel=1, data=[72, 0])\n",
      "midi.NoteOnEvent(tick=0, channel=1, data=[69, 100])\n",
      "midi.NoteOnEvent(tick=192, channel=1, data=[69, 0])\n",
      "midi.NoteOnEvent(tick=0, channel=1, data=[65, 100])\n",
      "midi.NoteOnEvent(tick=192, channel=1, data=[65, 0])\n",
      "midi.NoteOnEvent(tick=0, channel=1, data=[70, 100])\n",
      "midi.NoteOnEvent(tick=192, channel=1, data=[70, 0])\n",
      "midi.NoteOnEvent(tick=0, channel=1, data=[74, 100])\n",
      "midi.NoteOnEvent(tick=192, channel=1, data=[74, 0])\n",
      "midi.NoteOnEvent(tick=0, channel=1, data=[74, 100])\n",
      "midi.NoteOnEvent(tick=192, channel=1, data=[74, 0])\n",
      "midi.NoteOnEvent(tick=0, channel=1, data=[74, 100])\n",
      "midi.NoteOnEvent(tick=192, channel=1, data=[74, 0])\n",
      "midi.NoteOnEvent(tick=0, channel=1, data=[74, 100])\n",
      "midi.NoteOnEvent(tick=192, channel=1, data=[74, 0])\n",
      "midi.NoteOnEvent(tick=0, channel=1, data=[74, 100])\n",
      "midi.NoteOnEvent(tick=192, channel=1, data=[74, 0])\n",
      "midi.NoteOnEvent(tick=0, channel=1, data=[74, 100])\n",
      "midi.NoteOnEvent(tick=192, channel=1, data=[74, 0])\n",
      "midi.NoteOnEvent(tick=0, channel=1, data=[74, 100])\n",
      "midi.NoteOnEvent(tick=192, channel=1, data=[74, 0])\n",
      "midi.NoteOnEvent(tick=0, channel=1, data=[74, 100])\n",
      "midi.NoteOnEvent(tick=192, channel=1, data=[74, 0])\n",
      "midi.NoteOnEvent(tick=0, channel=1, data=[79, 100])\n",
      "midi.NoteOnEvent(tick=96, channel=1, data=[79, 0])\n",
      "midi.NoteOnEvent(tick=0, channel=1, data=[81, 100])\n",
      "midi.NoteOnEvent(tick=96, channel=1, data=[81, 0])\n",
      "midi.NoteOnEvent(tick=0, channel=1, data=[79, 100])\n",
      "midi.NoteOnEvent(tick=96, channel=1, data=[79, 0])\n",
      "midi.NoteOnEvent(tick=0, channel=1, data=[77, 100])\n",
      "midi.NoteOnEvent(tick=96, channel=1, data=[77, 0])\n",
      "midi.NoteOnEvent(tick=0, channel=1, data=[76, 100])\n",
      "midi.NoteOnEvent(tick=96, channel=1, data=[76, 0])\n",
      "midi.NoteOnEvent(tick=0, channel=1, data=[74, 100])\n",
      "midi.NoteOnEvent(tick=96, channel=1, data=[74, 0])\n",
      "midi.NoteOnEvent(tick=0, channel=1, data=[73, 100])\n",
      "midi.NoteOnEvent(tick=192, channel=1, data=[73, 0])\n",
      "midi.NoteOnEvent(tick=0, channel=1, data=[73, 100])\n",
      "midi.NoteOnEvent(tick=192, channel=1, data=[73, 0])\n",
      "midi.NoteOnEvent(tick=0, channel=1, data=[73, 100])\n",
      "midi.NoteOnEvent(tick=192, channel=1, data=[73, 0])\n",
      "midi.NoteOnEvent(tick=0, channel=1, data=[73, 100])\n",
      "midi.NoteOnEvent(tick=192, channel=1, data=[73, 0])\n",
      "midi.NoteOnEvent(tick=0, channel=1, data=[73, 100])\n",
      "midi.NoteOnEvent(tick=192, channel=1, data=[73, 0])\n",
      "midi.NoteOnEvent(tick=0, channel=1, data=[73, 100])\n",
      "midi.NoteOnEvent(tick=192, channel=1, data=[73, 0])\n",
      "midi.NoteOnEvent(tick=0, channel=1, data=[73, 100])\n",
      "midi.NoteOnEvent(tick=192, channel=1, data=[73, 0])\n",
      "midi.NoteOnEvent(tick=0, channel=1, data=[73, 100])\n",
      "midi.NoteOnEvent(tick=192, channel=1, data=[73, 0])\n",
      "midi.NoteOnEvent(tick=0, channel=1, data=[74, 100])\n",
      "midi.NoteOnEvent(tick=192, channel=1, data=[74, 0])\n",
      "midi.NoteOnEvent(tick=0, channel=1, data=[69, 100])\n",
      "midi.NoteOnEvent(tick=192, channel=1, data=[69, 0])\n",
      "midi.NoteOnEvent(tick=0, channel=1, data=[77, 100])\n",
      "midi.NoteOnEvent(tick=576, channel=1, data=[77, 0])\n",
      "midi.NoteOnEvent(tick=0, channel=1, data=[79, 100])\n",
      "midi.NoteOnEvent(tick=96, channel=1, data=[79, 0])\n",
      "midi.NoteOnEvent(tick=0, channel=1, data=[81, 100])\n",
      "midi.NoteOnEvent(tick=96, channel=1, data=[81, 0])\n",
      "midi.NoteOnEvent(tick=0, channel=1, data=[79, 100])\n",
      "midi.NoteOnEvent(tick=192, channel=1, data=[79, 0])\n",
      "midi.NoteOnEvent(tick=0, channel=1, data=[77, 100])\n",
      "midi.NoteOnEvent(tick=192, channel=1, data=[77, 0])\n",
      "midi.NoteOnEvent(tick=0, channel=1, data=[76, 100])\n",
      "midi.NoteOnEvent(tick=192, channel=1, data=[76, 0])\n",
      "midi.NoteOnEvent(tick=0, channel=1, data=[67, 100])\n",
      "midi.NoteOnEvent(tick=192, channel=1, data=[67, 0])\n",
      "midi.NoteOnEvent(tick=0, channel=1, data=[76, 100])\n",
      "midi.NoteOnEvent(tick=576, channel=1, data=[76, 0])\n",
      "midi.NoteOnEvent(tick=0, channel=1, data=[77, 100])\n",
      "midi.NoteOnEvent(tick=96, channel=1, data=[77, 0])\n",
      "midi.NoteOnEvent(tick=0, channel=1, data=[79, 100])\n",
      "midi.NoteOnEvent(tick=96, channel=1, data=[79, 0])\n",
      "midi.NoteOnEvent(tick=0, channel=1, data=[77, 100])\n",
      "midi.NoteOnEvent(tick=192, channel=1, data=[77, 0])\n",
      "midi.NoteOnEvent(tick=0, channel=1, data=[76, 100])\n",
      "midi.NoteOnEvent(tick=192, channel=1, data=[76, 0])\n",
      "midi.NoteOnEvent(tick=0, channel=1, data=[74, 100])\n",
      "midi.NoteOnEvent(tick=192, channel=1, data=[74, 0])\n",
      "midi.NoteOnEvent(tick=0, channel=1, data=[68, 100])\n",
      "midi.NoteOnEvent(tick=192, channel=1, data=[68, 0])\n",
      "midi.NoteOnEvent(tick=0, channel=1, data=[74, 100])\n",
      "midi.NoteOnEvent(tick=576, channel=1, data=[74, 0])\n",
      "midi.NoteOnEvent(tick=0, channel=1, data=[72, 100])\n",
      "midi.NoteOnEvent(tick=192, channel=1, data=[72, 0])\n",
      "midi.NoteOnEvent(tick=0, channel=1, data=[71, 100])\n",
      "midi.NoteOnEvent(tick=192, channel=1, data=[71, 0])\n",
      "midi.NoteOnEvent(tick=0, channel=1, data=[69, 100])\n",
      "midi.NoteOnEvent(tick=0, channel=1, data=[76, 100])\n",
      "midi.NoteOnEvent(tick=192, channel=1, data=[76, 0])\n",
      "midi.NoteOnEvent(tick=0, channel=1, data=[69, 0])\n",
      "midi.NoteOnEvent(tick=0, channel=1, data=[81, 100])\n",
      "midi.NoteOnEvent(tick=384, channel=1, data=[81, 0])\n",
      "midi.NoteOnEvent(tick=192, channel=1, data=[76, 100])\n",
      "midi.NoteOnEvent(tick=192, channel=1, data=[76, 0])\n",
      "midi.NoteOnEvent(tick=0, channel=1, data=[77, 100])\n",
      "midi.NoteOnEvent(tick=384, channel=1, data=[77, 0])\n",
      "midi.NoteOnEvent(tick=192, channel=1, data=[74, 100])\n",
      "midi.NoteOnEvent(tick=192, channel=1, data=[74, 0])\n",
      "midi.NoteOnEvent(tick=0, channel=1, data=[76, 100])\n",
      "midi.NoteOnEvent(tick=96, channel=1, data=[76, 0])\n",
      "midi.NoteOnEvent(tick=0, channel=1, data=[74, 100])\n",
      "midi.NoteOnEvent(tick=96, channel=1, data=[74, 0])\n",
      "midi.NoteOnEvent(tick=0, channel=1, data=[72, 100])\n",
      "midi.NoteOnEvent(tick=96, channel=1, data=[72, 0])\n",
      "midi.NoteOnEvent(tick=0, channel=1, data=[76, 100])\n",
      "midi.NoteOnEvent(tick=96, channel=1, data=[76, 0])\n",
      "midi.NoteOnEvent(tick=0, channel=1, data=[74, 100])\n",
      "midi.NoteOnEvent(tick=96, channel=1, data=[74, 0])\n",
      "midi.NoteOnEvent(tick=0, channel=1, data=[72, 100])\n",
      "midi.NoteOnEvent(tick=96, channel=1, data=[72, 0])\n",
      "midi.NoteOnEvent(tick=0, channel=1, data=[71, 100])\n",
      "midi.NoteOnEvent(tick=96, channel=1, data=[71, 0])\n",
      "midi.NoteOnEvent(tick=0, channel=1, data=[74, 100])\n",
      "midi.NoteOnEvent(tick=96, channel=1, data=[74, 0])\n",
      "midi.NoteOnEvent(tick=0, channel=1, data=[72, 100])\n",
      "midi.NoteOnEvent(tick=192, channel=1, data=[72, 0])\n",
      "midi.NoteOnEvent(tick=0, channel=1, data=[69, 100])\n",
      "midi.NoteOnEvent(tick=192, channel=1, data=[69, 0])\n",
      "midi.NoteOnEvent(tick=960, channel=1, data=[76, 100])\n",
      "midi.NoteOnEvent(tick=192, channel=1, data=[76, 0])\n",
      "midi.NoteOnEvent(tick=0, channel=1, data=[69, 100])\n",
      "midi.NoteOnEvent(tick=192, channel=1, data=[69, 0])\n",
      "midi.NoteOnEvent(tick=0, channel=1, data=[74, 100])\n",
      "midi.NoteOnEvent(tick=192, channel=1, data=[74, 0])\n",
      "midi.NoteOnEvent(tick=0, channel=1, data=[67, 100])\n",
      "midi.NoteOnEvent(tick=192, channel=1, data=[67, 0])\n",
      "midi.NoteOnEvent(tick=0, channel=1, data=[73, 100])\n",
      "midi.NoteOnEvent(tick=192, channel=1, data=[73, 0])\n",
      "midi.NoteOnEvent(tick=0, channel=1, data=[74, 100])\n",
      "midi.NoteOnEvent(tick=96, channel=1, data=[74, 0])\n",
      "midi.NoteOnEvent(tick=0, channel=1, data=[65, 100])\n",
      "midi.NoteOnEvent(tick=96, channel=1, data=[65, 0])\n",
      "midi.NoteOnEvent(tick=0, channel=1, data=[64, 100])\n",
      "midi.NoteOnEvent(tick=96, channel=1, data=[64, 0])\n",
      "midi.NoteOnEvent(tick=0, channel=1, data=[65, 100])\n",
      "midi.NoteOnEvent(tick=96, channel=1, data=[65, 0])\n",
      "midi.NoteOnEvent(tick=0, channel=1, data=[62, 100])\n",
      "midi.NoteOnEvent(tick=576, channel=1, data=[62, 0])\n",
      "midi.NoteOnEvent(tick=0, channel=1, data=[67, 100])\n",
      "midi.NoteOnEvent(tick=192, channel=1, data=[67, 0])\n",
      "midi.NoteOnEvent(tick=0, channel=1, data=[60, 100])\n",
      "midi.NoteOnEvent(tick=192, channel=1, data=[60, 0])\n",
      "midi.NoteOnEvent(tick=0, channel=1, data=[66, 100])\n",
      "midi.NoteOnEvent(tick=192, channel=1, data=[66, 0])\n",
      "midi.NoteOnEvent(tick=0, channel=1, data=[67, 100])\n",
      "midi.NoteOnEvent(tick=96, channel=1, data=[67, 0])\n",
      "midi.NoteOnEvent(tick=0, channel=1, data=[58, 100])\n",
      "midi.NoteOnEvent(tick=96, channel=1, data=[58, 0])\n",
      "midi.NoteOnEvent(tick=0, channel=1, data=[57, 100])\n",
      "midi.NoteOnEvent(tick=96, channel=1, data=[57, 0])\n",
      "midi.NoteOnEvent(tick=0, channel=1, data=[58, 100])\n",
      "midi.NoteOnEvent(tick=96, channel=1, data=[58, 0])\n",
      "midi.NoteOnEvent(tick=0, channel=1, data=[55, 100])\n",
      "midi.NoteOnEvent(tick=576, channel=1, data=[55, 0])\n",
      "midi.NoteOnEvent(tick=0, channel=1, data=[72, 100])\n",
      "midi.NoteOnEvent(tick=192, channel=1, data=[72, 0])\n",
      "midi.NoteOnEvent(tick=0, channel=1, data=[65, 100])\n",
      "midi.NoteOnEvent(tick=192, channel=1, data=[65, 0])\n",
      "midi.NoteOnEvent(tick=0, channel=1, data=[71, 100])\n",
      "midi.NoteOnEvent(tick=192, channel=1, data=[71, 0])\n",
      "midi.NoteOnEvent(tick=0, channel=1, data=[72, 100])\n",
      "midi.NoteOnEvent(tick=384, channel=1, data=[72, 0])\n",
      "midi.NoteOnEvent(tick=0, channel=1, data=[79, 100])\n",
      "midi.NoteOnEvent(tick=384, channel=1, data=[79, 0])\n",
      "midi.NoteOnEvent(tick=0, channel=1, data=[77, 100])\n",
      "midi.NoteOnEvent(tick=384, channel=1, data=[77, 0])\n",
      "midi.NoteOnEvent(tick=0, channel=1, data=[76, 100])\n",
      "midi.NoteOnEvent(tick=384, channel=1, data=[76, 0])\n",
      "midi.NoteOnEvent(tick=0, channel=1, data=[77, 100])\n",
      "midi.NoteOnEvent(tick=192, channel=1, data=[77, 0])\n",
      "midi.NoteOnEvent(tick=0, channel=1, data=[77, 100])\n",
      "midi.NoteOnEvent(tick=192, channel=1, data=[77, 0])\n",
      "midi.NoteOnEvent(tick=0, channel=1, data=[75, 100])\n",
      "midi.NoteOnEvent(tick=192, channel=1, data=[75, 0])\n",
      "midi.NoteOnEvent(tick=0, channel=1, data=[75, 100])\n",
      "midi.NoteOnEvent(tick=192, channel=1, data=[75, 0])\n",
      "midi.NoteOnEvent(tick=0, channel=1, data=[74, 100])\n",
      "midi.NoteOnEvent(tick=384, channel=1, data=[74, 0])\n",
      "midi.NoteOnEvent(tick=384, channel=1, data=[70, 100])\n",
      "midi.NoteOnEvent(tick=192, channel=1, data=[70, 0])\n",
      "midi.NoteOnEvent(tick=0, channel=1, data=[70, 100])\n",
      "midi.NoteOnEvent(tick=192, channel=1, data=[70, 0])\n",
      "midi.NoteOnEvent(tick=0, channel=1, data=[69, 100])\n",
      "midi.NoteOnEvent(tick=192, channel=1, data=[69, 0])\n",
      "midi.NoteOnEvent(tick=0, channel=1, data=[69, 100])\n",
      "midi.NoteOnEvent(tick=192, channel=1, data=[69, 0])\n",
      "midi.NoteOnEvent(tick=0, channel=1, data=[69, 100])\n",
      "midi.NoteOnEvent(tick=384, channel=1, data=[69, 0])\n",
      "midi.NoteOnEvent(tick=384, channel=1, data=[65, 100])\n",
      "midi.NoteOnEvent(tick=192, channel=1, data=[65, 0])\n",
      "midi.NoteOnEvent(tick=0, channel=1, data=[65, 100])\n",
      "midi.NoteOnEvent(tick=192, channel=1, data=[65, 0])\n",
      "midi.NoteOnEvent(tick=0, channel=1, data=[64, 100])\n",
      "midi.NoteOnEvent(tick=192, channel=1, data=[64, 0])\n",
      "midi.NoteOnEvent(tick=0, channel=1, data=[64, 100])\n",
      "midi.NoteOnEvent(tick=192, channel=1, data=[64, 0])\n",
      "midi.NoteOnEvent(tick=0, channel=1, data=[64, 100])\n",
      "midi.NoteOnEvent(tick=384, channel=1, data=[64, 0])\n",
      "midi.NoteOnEvent(tick=1728, channel=1, data=[76, 100])\n",
      "midi.NoteOnEvent(tick=192, channel=1, data=[76, 0])\n",
      "midi.NoteOnEvent(tick=0, channel=1, data=[81, 100])\n",
      "midi.NoteOnEvent(tick=384, channel=1, data=[81, 0])\n",
      "midi.NoteOnEvent(tick=192, channel=1, data=[76, 100])\n",
      "midi.NoteOnEvent(tick=192, channel=1, data=[76, 0])\n",
      "midi.NoteOnEvent(tick=0, channel=1, data=[77, 100])\n",
      "midi.NoteOnEvent(tick=384, channel=1, data=[77, 0])\n",
      "midi.NoteOnEvent(tick=192, channel=1, data=[74, 100])\n",
      "midi.NoteOnEvent(tick=192, channel=1, data=[74, 0])\n",
      "midi.NoteOnEvent(tick=0, channel=1, data=[76, 100])\n",
      "midi.NoteOnEvent(tick=96, channel=1, data=[76, 0])\n",
      "midi.NoteOnEvent(tick=0, channel=1, data=[74, 100])\n",
      "midi.NoteOnEvent(tick=96, channel=1, data=[74, 0])\n",
      "midi.NoteOnEvent(tick=0, channel=1, data=[72, 100])\n",
      "midi.NoteOnEvent(tick=96, channel=1, data=[72, 0])\n",
      "midi.NoteOnEvent(tick=0, channel=1, data=[76, 100])\n",
      "midi.NoteOnEvent(tick=96, channel=1, data=[76, 0])\n",
      "midi.NoteOnEvent(tick=0, channel=1, data=[74, 100])\n",
      "midi.NoteOnEvent(tick=96, channel=1, data=[74, 0])\n",
      "midi.NoteOnEvent(tick=0, channel=1, data=[72, 100])\n",
      "midi.NoteOnEvent(tick=96, channel=1, data=[72, 0])\n",
      "midi.NoteOnEvent(tick=0, channel=1, data=[71, 100])\n",
      "midi.NoteOnEvent(tick=96, channel=1, data=[71, 0])\n",
      "midi.NoteOnEvent(tick=0, channel=1, data=[74, 100])\n",
      "midi.NoteOnEvent(tick=96, channel=1, data=[74, 0])\n",
      "midi.NoteOnEvent(tick=0, channel=1, data=[72, 100])\n",
      "midi.NoteOnEvent(tick=192, channel=1, data=[72, 0])\n",
      "midi.NoteOnEvent(tick=0, channel=1, data=[69, 100])\n",
      "midi.NoteOnEvent(tick=192, channel=1, data=[69, 0])\n",
      "midi.NoteOnEvent(tick=0, channel=1, data=[76, 100])\n",
      "midi.NoteOnEvent(tick=576, channel=1, data=[76, 0])\n",
      "midi.NoteOnEvent(tick=0, channel=1, data=[74, 100])\n",
      "midi.NoteOnEvent(tick=96, channel=1, data=[74, 0])\n",
      "midi.NoteOnEvent(tick=0, channel=1, data=[73, 100])\n",
      "midi.NoteOnEvent(tick=96, channel=1, data=[73, 0])\n",
      "midi.NoteOnEvent(tick=0, channel=1, data=[74, 100])\n",
      "midi.NoteOnEvent(tick=192, channel=1, data=[74, 0])\n",
      "midi.NoteOnEvent(tick=0, channel=1, data=[77, 100])\n",
      "midi.NoteOnEvent(tick=384, channel=1, data=[77, 0])\n",
      "midi.NoteOnEvent(tick=0, channel=1, data=[71, 100])\n",
      "midi.NoteOnEvent(tick=192, channel=1, data=[71, 0])\n",
      "midi.NoteOnEvent(tick=1344, channel=1, data=[67, 100])\n",
      "midi.NoteOnEvent(tick=192, channel=1, data=[67, 0])\n",
      "midi.NoteOnEvent(tick=0, channel=1, data=[74, 100])\n",
      "midi.NoteOnEvent(tick=576, channel=1, data=[74, 0])\n",
      "midi.NoteOnEvent(tick=0, channel=1, data=[72, 100])\n",
      "midi.NoteOnEvent(tick=96, channel=1, data=[72, 0])\n",
      "midi.NoteOnEvent(tick=0, channel=1, data=[71, 100])\n",
      "midi.NoteOnEvent(tick=96, channel=1, data=[71, 0])\n",
      "midi.NoteOnEvent(tick=0, channel=1, data=[72, 100])\n",
      "midi.NoteOnEvent(tick=192, channel=1, data=[72, 0])\n",
      "midi.NoteOnEvent(tick=0, channel=1, data=[76, 100])\n",
      "midi.NoteOnEvent(tick=384, channel=1, data=[76, 0])\n",
      "midi.NoteOnEvent(tick=0, channel=1, data=[69, 100])\n",
      "midi.NoteOnEvent(tick=192, channel=1, data=[69, 0])\n",
      "midi.NoteOnEvent(tick=1344, channel=1, data=[65, 100])\n",
      "midi.NoteOnEvent(tick=192, channel=1, data=[65, 0])\n",
      "midi.NoteOnEvent(tick=0, channel=1, data=[72, 100])\n",
      "midi.NoteOnEvent(tick=576, channel=1, data=[72, 0])\n",
      "midi.NoteOnEvent(tick=0, channel=1, data=[71, 100])\n",
      "midi.NoteOnEvent(tick=96, channel=1, data=[71, 0])\n",
      "midi.NoteOnEvent(tick=0, channel=1, data=[72, 100])\n",
      "midi.NoteOnEvent(tick=96, channel=1, data=[72, 0])\n",
      "midi.NoteOnEvent(tick=0, channel=1, data=[74, 100])\n",
      "midi.NoteOnEvent(tick=192, channel=1, data=[74, 0])\n",
      "midi.NoteOnEvent(tick=0, channel=1, data=[65, 100])\n",
      "midi.NoteOnEvent(tick=192, channel=1, data=[65, 0])\n",
      "midi.NoteOnEvent(tick=0, channel=1, data=[64, 100])\n",
      "midi.NoteOnEvent(tick=192, channel=1, data=[64, 0])\n",
      "midi.NoteOnEvent(tick=0, channel=1, data=[74, 100])\n",
      "midi.NoteOnEvent(tick=192, channel=1, data=[74, 0])\n",
      "midi.NoteOnEvent(tick=0, channel=1, data=[72, 100])\n",
      "midi.NoteOnEvent(tick=192, channel=1, data=[72, 0])\n",
      "midi.NoteOnEvent(tick=0, channel=1, data=[64, 100])\n",
      "midi.NoteOnEvent(tick=192, channel=1, data=[64, 0])\n",
      "midi.NoteOnEvent(tick=0, channel=1, data=[62, 100])\n",
      "midi.NoteOnEvent(tick=96, channel=1, data=[62, 0])\n",
      "midi.NoteOnEvent(tick=0, channel=1, data=[72, 100])\n",
      "midi.NoteOnEvent(tick=96, channel=1, data=[72, 0])\n",
      "midi.NoteOnEvent(tick=0, channel=1, data=[71, 100])\n",
      "midi.NoteOnEvent(tick=96, channel=1, data=[71, 0])\n",
      "midi.NoteOnEvent(tick=0, channel=1, data=[69, 100])\n",
      "midi.NoteOnEvent(tick=96, channel=1, data=[69, 0])\n",
      "midi.NoteOnEvent(tick=0, channel=1, data=[71, 100])\n",
      "midi.NoteOnEvent(tick=96, channel=1, data=[71, 0])\n",
      "midi.NoteOnEvent(tick=0, channel=1, data=[69, 100])\n",
      "midi.NoteOnEvent(tick=96, channel=1, data=[69, 0])\n",
      "midi.NoteOnEvent(tick=0, channel=1, data=[68, 100])\n",
      "midi.NoteOnEvent(tick=96, channel=1, data=[68, 0])\n",
      "midi.NoteOnEvent(tick=0, channel=1, data=[66, 100])\n",
      "midi.NoteOnEvent(tick=96, channel=1, data=[66, 0])\n",
      "midi.NoteOnEvent(tick=0, channel=1, data=[68, 100])\n",
      "midi.NoteOnEvent(tick=192, channel=1, data=[68, 0])\n",
      "midi.NoteOnEvent(tick=0, channel=1, data=[77, 100])\n",
      "midi.NoteOnEvent(tick=192, channel=1, data=[77, 0])\n",
      "midi.NoteOnEvent(tick=0, channel=1, data=[76, 100])\n",
      "midi.NoteOnEvent(tick=192, channel=1, data=[76, 0])\n",
      "midi.NoteOnEvent(tick=0, channel=1, data=[81, 100])\n",
      "midi.NoteOnEvent(tick=192, channel=1, data=[81, 0])\n",
      "midi.NoteOnEvent(tick=0, channel=1, data=[84, 100])\n",
      "midi.NoteOnEvent(tick=384, channel=1, data=[84, 0])\n",
      "midi.NoteOnEvent(tick=0, channel=1, data=[83, 100])\n",
      "midi.NoteOnEvent(tick=48, channel=1, data=[83, 0])\n",
      "midi.NoteOnEvent(tick=0, channel=1, data=[84, 100])\n",
      "midi.NoteOnEvent(tick=48, channel=1, data=[84, 0])\n",
      "midi.NoteOnEvent(tick=0, channel=1, data=[83, 100])\n",
      "midi.NoteOnEvent(tick=48, channel=1, data=[83, 0])\n",
      "midi.NoteOnEvent(tick=0, channel=1, data=[84, 100])\n",
      "midi.NoteOnEvent(tick=48, channel=1, data=[84, 0])\n",
      "midi.NoteOnEvent(tick=0, channel=1, data=[83, 100])\n",
      "midi.NoteOnEvent(tick=48, channel=1, data=[83, 0])\n",
      "midi.NoteOnEvent(tick=0, channel=1, data=[84, 100])\n",
      "midi.NoteOnEvent(tick=48, channel=1, data=[84, 0])\n",
      "midi.NoteOnEvent(tick=0, channel=1, data=[83, 100])\n",
      "midi.NoteOnEvent(tick=48, channel=1, data=[83, 0])\n",
      "midi.NoteOnEvent(tick=0, channel=1, data=[84, 100])\n",
      "midi.NoteOnEvent(tick=48, channel=1, data=[84, 0])\n",
      "midi.NoteOnEvent(tick=0, channel=1, data=[83, 100])\n",
      "midi.NoteOnEvent(tick=384, channel=1, data=[83, 0])\n",
      "midi.NoteOnEvent(tick=384, channel=1, data=[74, 100])\n",
      "midi.NoteOnEvent(tick=384, channel=1, data=[74, 0])\n",
      "midi.NoteOnEvent(tick=384, channel=1, data=[77, 100])\n",
      "midi.NoteOnEvent(tick=384, channel=1, data=[77, 0])\n",
      "midi.NoteOnEvent(tick=384, channel=1, data=[74, 100])\n",
      "midi.NoteOnEvent(tick=384, channel=1, data=[74, 0])\n",
      "midi.NoteOnEvent(tick=384, channel=1, data=[74, 100])\n",
      "midi.NoteOnEvent(tick=768, channel=1, data=[74, 0])\n",
      "midi.NoteOnEvent(tick=96, channel=1, data=[76, 100])\n",
      "midi.NoteOnEvent(tick=96, channel=1, data=[76, 0])\n",
      "midi.NoteOnEvent(tick=0, channel=1, data=[78, 100])\n",
      "midi.NoteOnEvent(tick=96, channel=1, data=[78, 0])\n",
      "midi.NoteOnEvent(tick=0, channel=1, data=[80, 100])\n",
      "midi.NoteOnEvent(tick=96, channel=1, data=[80, 0])\n",
      "midi.NoteOnEvent(tick=0, channel=1, data=[81, 100])\n",
      "midi.NoteOnEvent(tick=96, channel=1, data=[81, 0])\n",
      "midi.NoteOnEvent(tick=0, channel=1, data=[80, 100])\n",
      "midi.NoteOnEvent(tick=96, channel=1, data=[80, 0])\n",
      "midi.NoteOnEvent(tick=0, channel=1, data=[81, 100])\n",
      "midi.NoteOnEvent(tick=96, channel=1, data=[81, 0])\n",
      "midi.NoteOnEvent(tick=0, channel=1, data=[83, 100])\n",
      "midi.NoteOnEvent(tick=96, channel=1, data=[83, 0])\n",
      "midi.NoteOnEvent(tick=0, channel=1, data=[76, 100])\n",
      "midi.NoteOnEvent(tick=192, channel=1, data=[76, 0])\n",
      "midi.NoteOnEvent(tick=0, channel=1, data=[81, 100])\n",
      "midi.NoteOnEvent(tick=192, channel=1, data=[81, 0])\n",
      "midi.NoteOnEvent(tick=0, channel=1, data=[83, 100])\n",
      "midi.NoteOnEvent(tick=192, channel=1, data=[83, 0])\n",
      "midi.NoteOnEvent(tick=0, channel=1, data=[80, 100])\n",
      "midi.NoteOnEvent(tick=192, channel=1, data=[80, 0])\n",
      "midi.NoteOnEvent(tick=0, channel=1, data=[81, 100])\n",
      "midi.NoteOnEvent(tick=96, channel=1, data=[81, 0])\n",
      "midi.NoteOnEvent(tick=0, channel=1, data=[79, 100])\n",
      "midi.NoteOnEvent(tick=96, channel=1, data=[79, 0])\n",
      "midi.NoteOnEvent(tick=0, channel=1, data=[77, 100])\n",
      "midi.NoteOnEvent(tick=96, channel=1, data=[77, 0])\n",
      "midi.NoteOnEvent(tick=0, channel=1, data=[76, 100])\n",
      "midi.NoteOnEvent(tick=96, channel=1, data=[76, 0])\n",
      "midi.NoteOnEvent(tick=0, channel=1, data=[74, 100])\n",
      "midi.NoteOnEvent(tick=192, channel=1, data=[74, 0])\n",
      "midi.NoteOnEvent(tick=0, channel=1, data=[74, 100])\n",
      "midi.NoteOnEvent(tick=192, channel=1, data=[74, 0])\n",
      "midi.NoteOnEvent(tick=0, channel=1, data=[74, 100])\n",
      "midi.NoteOnEvent(tick=96, channel=1, data=[74, 0])\n",
      "midi.NoteOnEvent(tick=0, channel=1, data=[76, 100])\n",
      "midi.NoteOnEvent(tick=96, channel=1, data=[76, 0])\n",
      "midi.NoteOnEvent(tick=0, channel=1, data=[77, 100])\n",
      "midi.NoteOnEvent(tick=288, channel=1, data=[77, 0])\n",
      "midi.NoteOnEvent(tick=0, channel=1, data=[76, 100])\n",
      "midi.NoteOnEvent(tick=96, channel=1, data=[76, 0])\n",
      "midi.NoteOnEvent(tick=0, channel=1, data=[74, 100])\n",
      "midi.NoteOnEvent(tick=96, channel=1, data=[74, 0])\n",
      "midi.NoteOnEvent(tick=0, channel=1, data=[72, 100])\n",
      "midi.NoteOnEvent(tick=96, channel=1, data=[72, 0])\n",
      "midi.NoteOnEvent(tick=0, channel=1, data=[71, 100])\n",
      "midi.NoteOnEvent(tick=96, channel=1, data=[71, 0])\n",
      "midi.NoteOnEvent(tick=0, channel=1, data=[72, 100])\n",
      "midi.NoteOnEvent(tick=96, channel=1, data=[72, 0])\n",
      "midi.NoteOnEvent(tick=0, channel=1, data=[74, 100])\n",
      "midi.NoteOnEvent(tick=288, channel=1, data=[74, 0])\n",
      "midi.NoteOnEvent(tick=0, channel=1, data=[72, 100])\n",
      "midi.NoteOnEvent(tick=96, channel=1, data=[72, 0])\n",
      "midi.NoteOnEvent(tick=0, channel=1, data=[71, 100])\n",
      "midi.NoteOnEvent(tick=96, channel=1, data=[71, 0])\n",
      "midi.NoteOnEvent(tick=0, channel=1, data=[69, 100])\n",
      "midi.NoteOnEvent(tick=96, channel=1, data=[69, 0])\n",
      "midi.NoteOnEvent(tick=0, channel=1, data=[68, 100])\n",
      "midi.NoteOnEvent(tick=192, channel=1, data=[68, 0])\n",
      "midi.NoteOnEvent(tick=0, channel=1, data=[76, 100])\n",
      "midi.NoteOnEvent(tick=192, channel=1, data=[76, 0])\n",
      "midi.NoteOnEvent(tick=0, channel=1, data=[72, 100])\n",
      "midi.NoteOnEvent(tick=48, channel=1, data=[72, 0])\n",
      "midi.NoteOnEvent(tick=0, channel=1, data=[74, 100])\n",
      "midi.NoteOnEvent(tick=48, channel=1, data=[74, 0])\n",
      "midi.NoteOnEvent(tick=0, channel=1, data=[72, 100])\n",
      "midi.NoteOnEvent(tick=48, channel=1, data=[72, 0])\n",
      "midi.NoteOnEvent(tick=0, channel=1, data=[74, 100])\n",
      "midi.NoteOnEvent(tick=48, channel=1, data=[74, 0])\n",
      "midi.NoteOnEvent(tick=0, channel=1, data=[71, 100])\n",
      "midi.NoteOnEvent(tick=96, channel=1, data=[71, 0])\n",
      "midi.NoteOnEvent(tick=0, channel=1, data=[69, 100])\n",
      "midi.NoteOnEvent(tick=96, channel=1, data=[69, 0])\n",
      "midi.NoteOnEvent(tick=0, channel=1, data=[69, 100])\n",
      "midi.NoteOnEvent(tick=576, channel=1, data=[69, 0])\n",
      "midi.EndOfTrackEvent(tick=0, data=[])\n",
      "midi.PortEvent(tick=0, data=[0])\n",
      "midi.TrackNameEvent(tick=0, text='Violin 2', data=[86, 105, 111, 108, 105, 110, 32, 50])\n",
      "midi.ProgramChangeEvent(tick=0, channel=2, data=[40])\n",
      "midi.ControlChangeEvent(tick=0, channel=2, data=[7, 110])\n",
      "midi.ControlChangeEvent(tick=0, channel=2, data=[10, 96])\n",
      "midi.NoteOnEvent(tick=576, channel=2, data=[72, 100])\n",
      "midi.NoteOnEvent(tick=192, channel=2, data=[72, 0])\n",
      "midi.NoteOnEvent(tick=0, channel=2, data=[76, 100])\n",
      "midi.NoteOnEvent(tick=384, channel=2, data=[76, 0])\n",
      "midi.NoteOnEvent(tick=192, channel=2, data=[72, 100])\n",
      "midi.NoteOnEvent(tick=192, channel=2, data=[72, 0])\n",
      "midi.NoteOnEvent(tick=0, channel=2, data=[74, 100])\n",
      "midi.NoteOnEvent(tick=384, channel=2, data=[74, 0])\n",
      "midi.NoteOnEvent(tick=192, channel=2, data=[71, 100])\n",
      "midi.NoteOnEvent(tick=192, channel=2, data=[71, 0])\n",
      "midi.NoteOnEvent(tick=0, channel=2, data=[72, 100])\n",
      "midi.NoteOnEvent(tick=96, channel=2, data=[72, 0])\n",
      "midi.NoteOnEvent(tick=0, channel=2, data=[71, 100])\n",
      "midi.NoteOnEvent(tick=96, channel=2, data=[71, 0])\n",
      "midi.NoteOnEvent(tick=0, channel=2, data=[69, 100])\n",
      "midi.NoteOnEvent(tick=96, channel=2, data=[69, 0])\n",
      "midi.NoteOnEvent(tick=0, channel=2, data=[72, 100])\n",
      "midi.NoteOnEvent(tick=96, channel=2, data=[72, 0])\n",
      "midi.NoteOnEvent(tick=0, channel=2, data=[71, 100])\n",
      "midi.NoteOnEvent(tick=96, channel=2, data=[71, 0])\n",
      "midi.NoteOnEvent(tick=0, channel=2, data=[69, 100])\n",
      "midi.NoteOnEvent(tick=96, channel=2, data=[69, 0])\n",
      "midi.NoteOnEvent(tick=0, channel=2, data=[68, 100])\n",
      "midi.NoteOnEvent(tick=96, channel=2, data=[68, 0])\n",
      "midi.NoteOnEvent(tick=0, channel=2, data=[71, 100])\n",
      "midi.NoteOnEvent(tick=96, channel=2, data=[71, 0])\n",
      "midi.NoteOnEvent(tick=0, channel=2, data=[69, 100])\n",
      "midi.NoteOnEvent(tick=192, channel=2, data=[69, 0])\n",
      "midi.NoteOnEvent(tick=0, channel=2, data=[64, 100])\n",
      "midi.NoteOnEvent(tick=192, channel=2, data=[64, 0])\n",
      "midi.NoteOnEvent(tick=192, channel=2, data=[64, 100])\n",
      "midi.NoteOnEvent(tick=192, channel=2, data=[64, 0])\n",
      "midi.NoteOnEvent(tick=0, channel=2, data=[64, 100])\n",
      "midi.NoteOnEvent(tick=192, channel=2, data=[64, 0])\n",
      "midi.NoteOnEvent(tick=192, channel=2, data=[64, 100])\n",
      "midi.NoteOnEvent(tick=192, channel=2, data=[64, 0])\n",
      "midi.NoteOnEvent(tick=192, channel=2, data=[68, 100])\n",
      "midi.NoteOnEvent(tick=192, channel=2, data=[68, 0])\n",
      "midi.NoteOnEvent(tick=192, channel=2, data=[69, 100])\n",
      "midi.NoteOnEvent(tick=192, channel=2, data=[69, 0])\n",
      "midi.NoteOnEvent(tick=192, channel=2, data=[69, 100])\n",
      "midi.NoteOnEvent(tick=192, channel=2, data=[69, 0])\n",
      "midi.NoteOnEvent(tick=0, channel=2, data=[74, 100])\n",
      "midi.NoteOnEvent(tick=192, channel=2, data=[74, 0])\n",
      "midi.NoteOnEvent(tick=0, channel=2, data=[68, 100])\n",
      "midi.NoteOnEvent(tick=192, channel=2, data=[68, 0])\n",
      "midi.NoteOnEvent(tick=0, channel=2, data=[74, 100])\n",
      "midi.NoteOnEvent(tick=288, channel=2, data=[74, 0])\n",
      "midi.NoteOnEvent(tick=0, channel=2, data=[76, 100])\n",
      "midi.NoteOnEvent(tick=96, channel=2, data=[76, 0])\n",
      "midi.NoteOnEvent(tick=0, channel=2, data=[74, 100])\n",
      "midi.NoteOnEvent(tick=96, channel=2, data=[74, 0])\n",
      "midi.NoteOnEvent(tick=0, channel=2, data=[72, 100])\n",
      "midi.NoteOnEvent(tick=96, channel=2, data=[72, 0])\n",
      "midi.NoteOnEvent(tick=0, channel=2, data=[71, 100])\n",
      "midi.NoteOnEvent(tick=96, channel=2, data=[71, 0])\n",
      "midi.NoteOnEvent(tick=0, channel=2, data=[69, 100])\n",
      "midi.NoteOnEvent(tick=96, channel=2, data=[69, 0])\n",
      "midi.NoteOnEvent(tick=0, channel=2, data=[68, 100])\n",
      "midi.NoteOnEvent(tick=96, channel=2, data=[68, 0])\n",
      "midi.NoteOnEvent(tick=0, channel=2, data=[66, 100])\n",
      "midi.NoteOnEvent(tick=96, channel=2, data=[66, 0])\n",
      "midi.NoteOnEvent(tick=0, channel=2, data=[64, 100])\n",
      "midi.NoteOnEvent(tick=96, channel=2, data=[64, 0])\n",
      "midi.NoteOnEvent(tick=0, channel=2, data=[74, 100])\n",
      "midi.NoteOnEvent(tick=96, channel=2, data=[74, 0])\n",
      "midi.NoteOnEvent(tick=0, channel=2, data=[72, 100])\n",
      "midi.NoteOnEvent(tick=96, channel=2, data=[72, 0])\n",
      "midi.NoteOnEvent(tick=0, channel=2, data=[71, 100])\n",
      "midi.NoteOnEvent(tick=96, channel=2, data=[71, 0])\n",
      "midi.NoteOnEvent(tick=0, channel=2, data=[69, 100])\n",
      "midi.NoteOnEvent(tick=96, channel=2, data=[69, 0])\n",
      "midi.NoteOnEvent(tick=0, channel=2, data=[67, 100])\n",
      "midi.NoteOnEvent(tick=96, channel=2, data=[67, 0])\n",
      "midi.NoteOnEvent(tick=0, channel=2, data=[66, 100])\n",
      "midi.NoteOnEvent(tick=96, channel=2, data=[66, 0])\n",
      "midi.NoteOnEvent(tick=0, channel=2, data=[64, 100])\n",
      "midi.NoteOnEvent(tick=96, channel=2, data=[64, 0])\n",
      "midi.NoteOnEvent(tick=0, channel=2, data=[66, 100])\n",
      "midi.NoteOnEvent(tick=96, channel=2, data=[66, 0])\n",
      "midi.NoteOnEvent(tick=0, channel=2, data=[74, 100])\n",
      "midi.NoteOnEvent(tick=96, channel=2, data=[74, 0])\n",
      "midi.NoteOnEvent(tick=0, channel=2, data=[72, 100])\n",
      "midi.NoteOnEvent(tick=96, channel=2, data=[72, 0])\n",
      "midi.NoteOnEvent(tick=0, channel=2, data=[71, 100])\n",
      "midi.NoteOnEvent(tick=96, channel=2, data=[71, 0])\n",
      "midi.NoteOnEvent(tick=0, channel=2, data=[69, 100])\n",
      "midi.NoteOnEvent(tick=96, channel=2, data=[69, 0])\n",
      "midi.NoteOnEvent(tick=0, channel=2, data=[67, 100])\n",
      "midi.NoteOnEvent(tick=96, channel=2, data=[67, 0])\n",
      "midi.NoteOnEvent(tick=0, channel=2, data=[66, 100])\n",
      "midi.NoteOnEvent(tick=96, channel=2, data=[66, 0])\n",
      "midi.NoteOnEvent(tick=0, channel=2, data=[64, 100])\n",
      "midi.NoteOnEvent(tick=96, channel=2, data=[64, 0])\n",
      "midi.NoteOnEvent(tick=0, channel=2, data=[62, 100])\n",
      "midi.NoteOnEvent(tick=96, channel=2, data=[62, 0])\n",
      "midi.NoteOnEvent(tick=0, channel=2, data=[72, 100])\n",
      "midi.NoteOnEvent(tick=96, channel=2, data=[72, 0])\n",
      "midi.NoteOnEvent(tick=0, channel=2, data=[71, 100])\n",
      "midi.NoteOnEvent(tick=96, channel=2, data=[71, 0])\n",
      "midi.NoteOnEvent(tick=0, channel=2, data=[69, 100])\n",
      "midi.NoteOnEvent(tick=96, channel=2, data=[69, 0])\n",
      "midi.NoteOnEvent(tick=0, channel=2, data=[67, 100])\n",
      "midi.NoteOnEvent(tick=96, channel=2, data=[67, 0])\n",
      "midi.NoteOnEvent(tick=0, channel=2, data=[66, 100])\n",
      "midi.NoteOnEvent(tick=96, channel=2, data=[66, 0])\n",
      "midi.NoteOnEvent(tick=0, channel=2, data=[64, 100])\n",
      "midi.NoteOnEvent(tick=96, channel=2, data=[64, 0])\n",
      "midi.NoteOnEvent(tick=0, channel=2, data=[63, 100])\n",
      "midi.NoteOnEvent(tick=96, channel=2, data=[63, 0])\n",
      "midi.NoteOnEvent(tick=0, channel=2, data=[64, 100])\n",
      "midi.NoteOnEvent(tick=96, channel=2, data=[64, 0])\n",
      "midi.NoteOnEvent(tick=0, channel=2, data=[72, 100])\n",
      "midi.NoteOnEvent(tick=96, channel=2, data=[72, 0])\n",
      "midi.NoteOnEvent(tick=0, channel=2, data=[71, 100])\n",
      "midi.NoteOnEvent(tick=96, channel=2, data=[71, 0])\n",
      "midi.NoteOnEvent(tick=0, channel=2, data=[69, 100])\n",
      "midi.NoteOnEvent(tick=96, channel=2, data=[69, 0])\n",
      "midi.NoteOnEvent(tick=0, channel=2, data=[67, 100])\n",
      "midi.NoteOnEvent(tick=96, channel=2, data=[67, 0])\n",
      "midi.NoteOnEvent(tick=0, channel=2, data=[66, 100])\n",
      "midi.NoteOnEvent(tick=96, channel=2, data=[66, 0])\n",
      "midi.NoteOnEvent(tick=0, channel=2, data=[64, 100])\n",
      "midi.NoteOnEvent(tick=96, channel=2, data=[64, 0])\n",
      "midi.NoteOnEvent(tick=0, channel=2, data=[62, 100])\n",
      "midi.NoteOnEvent(tick=96, channel=2, data=[62, 0])\n",
      "midi.NoteOnEvent(tick=0, channel=2, data=[60, 100])\n",
      "midi.NoteOnEvent(tick=192, channel=2, data=[60, 0])\n",
      "midi.NoteOnEvent(tick=0, channel=2, data=[72, 100])\n",
      "midi.NoteOnEvent(tick=288, channel=2, data=[72, 0])\n",
      "midi.NoteOnEvent(tick=0, channel=2, data=[71, 100])\n",
      "midi.NoteOnEvent(tick=96, channel=2, data=[71, 0])\n",
      "midi.NoteOnEvent(tick=0, channel=2, data=[69, 100])\n",
      "midi.NoteOnEvent(tick=96, channel=2, data=[69, 0])\n",
      "midi.NoteOnEvent(tick=0, channel=2, data=[67, 100])\n",
      "midi.NoteOnEvent(tick=96, channel=2, data=[67, 0])\n",
      "midi.NoteOnEvent(tick=0, channel=2, data=[66, 100])\n",
      "midi.NoteOnEvent(tick=192, channel=2, data=[66, 0])\n",
      "midi.NoteOnEvent(tick=0, channel=2, data=[78, 100])\n",
      "midi.NoteOnEvent(tick=192, channel=2, data=[78, 0])\n",
      "midi.NoteOnEvent(tick=0, channel=2, data=[76, 100])\n",
      "midi.NoteOnEvent(tick=192, channel=2, data=[76, 0])\n",
      "midi.NoteOnEvent(tick=0, channel=2, data=[64, 100])\n",
      "midi.NoteOnEvent(tick=384, channel=2, data=[64, 0])\n",
      "midi.NoteOnEvent(tick=0, channel=2, data=[63, 100])\n",
      "midi.NoteOnEvent(tick=192, channel=2, data=[63, 0])\n",
      "midi.NoteOnEvent(tick=0, channel=2, data=[64, 100])\n",
      "midi.NoteOnEvent(tick=192, channel=2, data=[64, 0])\n",
      "midi.NoteOnEvent(tick=0, channel=2, data=[72, 100])\n",
      "midi.NoteOnEvent(tick=384, channel=2, data=[72, 0])\n",
      "midi.NoteOnEvent(tick=0, channel=2, data=[66, 100])\n",
      "midi.NoteOnEvent(tick=192, channel=2, data=[66, 0])\n"
     ]
    },
    {
     "name": "stdout",
     "output_type": "stream",
     "text": [
      "midi.NoteOnEvent(tick=0, channel=2, data=[67, 100])\n",
      "midi.NoteOnEvent(tick=192, channel=2, data=[67, 0])\n",
      "midi.NoteOnEvent(tick=0, channel=2, data=[76, 100])\n",
      "midi.NoteOnEvent(tick=192, channel=2, data=[76, 0])\n",
      "midi.NoteOnEvent(tick=0, channel=2, data=[76, 100])\n",
      "midi.NoteOnEvent(tick=384, channel=2, data=[76, 0])\n",
      "midi.NoteOnEvent(tick=0, channel=2, data=[75, 100])\n",
      "midi.NoteOnEvent(tick=48, channel=2, data=[75, 0])\n",
      "midi.NoteOnEvent(tick=0, channel=2, data=[76, 100])\n",
      "midi.NoteOnEvent(tick=48, channel=2, data=[76, 0])\n",
      "midi.NoteOnEvent(tick=0, channel=2, data=[75, 100])\n",
      "midi.NoteOnEvent(tick=48, channel=2, data=[75, 0])\n",
      "midi.NoteOnEvent(tick=0, channel=2, data=[76, 100])\n",
      "midi.NoteOnEvent(tick=48, channel=2, data=[76, 0])\n",
      "midi.NoteOnEvent(tick=0, channel=2, data=[75, 100])\n",
      "midi.NoteOnEvent(tick=48, channel=2, data=[75, 0])\n",
      "midi.NoteOnEvent(tick=0, channel=2, data=[76, 100])\n",
      "midi.NoteOnEvent(tick=48, channel=2, data=[76, 0])\n",
      "midi.NoteOnEvent(tick=0, channel=2, data=[75, 100])\n",
      "midi.NoteOnEvent(tick=48, channel=2, data=[75, 0])\n",
      "midi.NoteOnEvent(tick=0, channel=2, data=[76, 100])\n",
      "midi.NoteOnEvent(tick=48, channel=2, data=[76, 0])\n",
      "midi.NoteOnEvent(tick=0, channel=2, data=[75, 100])\n",
      "midi.NoteOnEvent(tick=384, channel=2, data=[75, 0])\n",
      "midi.NoteOnEvent(tick=192, channel=2, data=[75, 100])\n",
      "midi.NoteOnEvent(tick=192, channel=2, data=[75, 0])\n",
      "midi.NoteOnEvent(tick=0, channel=2, data=[76, 100])\n",
      "midi.NoteOnEvent(tick=192, channel=2, data=[76, 0])\n",
      "midi.NoteOnEvent(tick=0, channel=2, data=[67, 100])\n",
      "midi.NoteOnEvent(tick=192, channel=2, data=[67, 0])\n",
      "midi.NoteOnEvent(tick=0, channel=2, data=[69, 100])\n",
      "midi.NoteOnEvent(tick=192, channel=2, data=[69, 0])\n",
      "midi.NoteOnEvent(tick=0, channel=2, data=[66, 100])\n",
      "midi.NoteOnEvent(tick=192, channel=2, data=[66, 0])\n",
      "midi.NoteOnEvent(tick=0, channel=2, data=[64, 100])\n",
      "midi.NoteOnEvent(tick=192, channel=2, data=[64, 0])\n",
      "midi.NoteOnEvent(tick=0, channel=2, data=[76, 100])\n",
      "midi.NoteOnEvent(tick=96, channel=2, data=[76, 0])\n",
      "midi.NoteOnEvent(tick=0, channel=2, data=[74, 100])\n",
      "midi.NoteOnEvent(tick=96, channel=2, data=[74, 0])\n",
      "midi.NoteOnEvent(tick=0, channel=2, data=[72, 100])\n",
      "midi.NoteOnEvent(tick=96, channel=2, data=[72, 0])\n",
      "midi.NoteOnEvent(tick=0, channel=2, data=[71, 100])\n",
      "midi.NoteOnEvent(tick=96, channel=2, data=[71, 0])\n",
      "midi.NoteOnEvent(tick=0, channel=2, data=[69, 100])\n",
      "midi.NoteOnEvent(tick=96, channel=2, data=[69, 0])\n",
      "midi.NoteOnEvent(tick=0, channel=2, data=[67, 100])\n",
      "midi.NoteOnEvent(tick=96, channel=2, data=[67, 0])\n",
      "midi.NoteOnEvent(tick=0, channel=2, data=[66, 100])\n",
      "midi.NoteOnEvent(tick=96, channel=2, data=[66, 0])\n",
      "midi.NoteOnEvent(tick=0, channel=2, data=[64, 100])\n",
      "midi.NoteOnEvent(tick=96, channel=2, data=[64, 0])\n",
      "midi.NoteOnEvent(tick=0, channel=2, data=[63, 100])\n",
      "midi.NoteOnEvent(tick=96, channel=2, data=[63, 0])\n",
      "midi.NoteOnEvent(tick=0, channel=2, data=[64, 100])\n",
      "midi.NoteOnEvent(tick=96, channel=2, data=[64, 0])\n",
      "midi.NoteOnEvent(tick=0, channel=2, data=[66, 100])\n",
      "midi.NoteOnEvent(tick=96, channel=2, data=[66, 0])\n",
      "midi.NoteOnEvent(tick=0, channel=2, data=[67, 100])\n",
      "midi.NoteOnEvent(tick=96, channel=2, data=[67, 0])\n",
      "midi.NoteOnEvent(tick=0, channel=2, data=[69, 100])\n",
      "midi.NoteOnEvent(tick=96, channel=2, data=[69, 0])\n",
      "midi.NoteOnEvent(tick=0, channel=2, data=[71, 100])\n",
      "midi.NoteOnEvent(tick=96, channel=2, data=[71, 0])\n",
      "midi.NoteOnEvent(tick=0, channel=2, data=[72, 100])\n",
      "midi.NoteOnEvent(tick=96, channel=2, data=[72, 0])\n",
      "midi.NoteOnEvent(tick=0, channel=2, data=[71, 100])\n",
      "midi.NoteOnEvent(tick=96, channel=2, data=[71, 0])\n",
      "midi.NoteOnEvent(tick=0, channel=2, data=[69, 100])\n",
      "midi.NoteOnEvent(tick=96, channel=2, data=[69, 0])\n",
      "midi.NoteOnEvent(tick=0, channel=2, data=[67, 100])\n",
      "midi.NoteOnEvent(tick=96, channel=2, data=[67, 0])\n",
      "midi.NoteOnEvent(tick=0, channel=2, data=[66, 100])\n",
      "midi.NoteOnEvent(tick=96, channel=2, data=[66, 0])\n",
      "midi.NoteOnEvent(tick=0, channel=2, data=[64, 100])\n",
      "midi.NoteOnEvent(tick=96, channel=2, data=[64, 0])\n",
      "midi.NoteOnEvent(tick=0, channel=2, data=[63, 100])\n",
      "midi.NoteOnEvent(tick=96, channel=2, data=[63, 0])\n",
      "midi.NoteOnEvent(tick=0, channel=2, data=[64, 100])\n",
      "midi.NoteOnEvent(tick=96, channel=2, data=[64, 0])\n",
      "midi.NoteOnEvent(tick=0, channel=2, data=[69, 100])\n",
      "midi.NoteOnEvent(tick=96, channel=2, data=[69, 0])\n",
      "midi.NoteOnEvent(tick=0, channel=2, data=[66, 100])\n",
      "midi.NoteOnEvent(tick=96, channel=2, data=[66, 0])\n",
      "midi.NoteOnEvent(tick=0, channel=2, data=[67, 100])\n",
      "midi.NoteOnEvent(tick=96, channel=2, data=[67, 0])\n",
      "midi.NoteOnEvent(tick=0, channel=2, data=[64, 100])\n",
      "midi.NoteOnEvent(tick=96, channel=2, data=[64, 0])\n",
      "midi.NoteOnEvent(tick=0, channel=2, data=[59, 100])\n",
      "midi.NoteOnEvent(tick=192, channel=2, data=[59, 0])\n",
      "midi.NoteOnEvent(tick=0, channel=2, data=[63, 100])\n",
      "midi.NoteOnEvent(tick=192, channel=2, data=[63, 0])\n",
      "midi.NoteOnEvent(tick=0, channel=2, data=[64, 100])\n",
      "midi.NoteOnEvent(tick=384, channel=2, data=[64, 0])\n",
      "midi.NoteOnEvent(tick=576, channel=2, data=[72, 100])\n",
      "midi.NoteOnEvent(tick=192, channel=2, data=[72, 0])\n",
      "midi.NoteOnEvent(tick=0, channel=2, data=[76, 100])\n",
      "midi.NoteOnEvent(tick=192, channel=2, data=[76, 0])\n",
      "midi.NoteOnEvent(tick=384, channel=2, data=[76, 100])\n",
      "midi.NoteOnEvent(tick=96, channel=2, data=[76, 0])\n",
      "midi.NoteOnEvent(tick=0, channel=2, data=[78, 100])\n",
      "midi.NoteOnEvent(tick=96, channel=2, data=[78, 0])\n",
      "midi.NoteOnEvent(tick=0, channel=2, data=[80, 100])\n",
      "midi.NoteOnEvent(tick=192, channel=2, data=[80, 0])\n",
      "midi.NoteOnEvent(tick=384, channel=2, data=[68, 100])\n",
      "midi.NoteOnEvent(tick=192, channel=2, data=[68, 0])\n",
      "midi.NoteOnEvent(tick=0, channel=2, data=[74, 100])\n",
      "midi.NoteOnEvent(tick=192, channel=2, data=[74, 0])\n",
      "midi.NoteOnEvent(tick=384, channel=2, data=[76, 100])\n",
      "midi.NoteOnEvent(tick=192, channel=2, data=[76, 0])\n",
      "midi.NoteOnEvent(tick=0, channel=2, data=[81, 100])\n",
      "midi.NoteOnEvent(tick=192, channel=2, data=[81, 0])\n",
      "midi.NoteOnEvent(tick=3456, channel=2, data=[76, 100])\n",
      "midi.NoteOnEvent(tick=192, channel=2, data=[76, 0])\n",
      "midi.NoteOnEvent(tick=0, channel=2, data=[81, 100])\n",
      "midi.NoteOnEvent(tick=384, channel=2, data=[81, 0])\n",
      "midi.NoteOnEvent(tick=192, channel=2, data=[74, 100])\n",
      "midi.NoteOnEvent(tick=96, channel=2, data=[74, 0])\n",
      "midi.NoteOnEvent(tick=0, channel=2, data=[76, 100])\n",
      "midi.NoteOnEvent(tick=96, channel=2, data=[76, 0])\n",
      "midi.NoteOnEvent(tick=0, channel=2, data=[77, 100])\n",
      "midi.NoteOnEvent(tick=384, channel=2, data=[77, 0])\n",
      "midi.NoteOnEvent(tick=192, channel=2, data=[74, 100])\n",
      "midi.NoteOnEvent(tick=192, channel=2, data=[74, 0])\n",
      "midi.NoteOnEvent(tick=0, channel=2, data=[79, 100])\n",
      "midi.NoteOnEvent(tick=384, channel=2, data=[79, 0])\n",
      "midi.NoteOnEvent(tick=192, channel=2, data=[72, 100])\n",
      "midi.NoteOnEvent(tick=96, channel=2, data=[72, 0])\n",
      "midi.NoteOnEvent(tick=0, channel=2, data=[74, 100])\n",
      "midi.NoteOnEvent(tick=96, channel=2, data=[74, 0])\n",
      "midi.NoteOnEvent(tick=0, channel=2, data=[76, 100])\n",
      "midi.NoteOnEvent(tick=384, channel=2, data=[76, 0])\n",
      "midi.NoteOnEvent(tick=192, channel=2, data=[72, 100])\n",
      "midi.NoteOnEvent(tick=192, channel=2, data=[72, 0])\n",
      "midi.NoteOnEvent(tick=0, channel=2, data=[77, 100])\n",
      "midi.NoteOnEvent(tick=384, channel=2, data=[77, 0])\n",
      "midi.NoteOnEvent(tick=192, channel=2, data=[71, 100])\n",
      "midi.NoteOnEvent(tick=96, channel=2, data=[71, 0])\n",
      "midi.NoteOnEvent(tick=0, channel=2, data=[72, 100])\n",
      "midi.NoteOnEvent(tick=96, channel=2, data=[72, 0])\n",
      "midi.NoteOnEvent(tick=0, channel=2, data=[74, 100])\n",
      "midi.NoteOnEvent(tick=384, channel=2, data=[74, 0])\n",
      "midi.NoteOnEvent(tick=192, channel=2, data=[71, 100])\n",
      "midi.NoteOnEvent(tick=192, channel=2, data=[71, 0])\n",
      "midi.NoteOnEvent(tick=0, channel=2, data=[76, 100])\n",
      "midi.NoteOnEvent(tick=384, channel=2, data=[76, 0])\n",
      "midi.NoteOnEvent(tick=192, channel=2, data=[76, 100])\n",
      "midi.NoteOnEvent(tick=192, channel=2, data=[76, 0])\n",
      "midi.NoteOnEvent(tick=0, channel=2, data=[81, 100])\n",
      "midi.NoteOnEvent(tick=384, channel=2, data=[81, 0])\n",
      "midi.NoteOnEvent(tick=192, channel=2, data=[74, 100])\n",
      "midi.NoteOnEvent(tick=96, channel=2, data=[74, 0])\n",
      "midi.NoteOnEvent(tick=0, channel=2, data=[76, 100])\n",
      "midi.NoteOnEvent(tick=96, channel=2, data=[76, 0])\n",
      "midi.NoteOnEvent(tick=0, channel=2, data=[77, 100])\n",
      "midi.NoteOnEvent(tick=192, channel=2, data=[77, 0])\n",
      "midi.NoteOnEvent(tick=0, channel=2, data=[68, 100])\n",
      "midi.NoteOnEvent(tick=192, channel=2, data=[68, 0])\n",
      "midi.NoteOnEvent(tick=0, channel=2, data=[72, 100])\n",
      "midi.NoteOnEvent(tick=96, channel=2, data=[72, 0])\n",
      "midi.NoteOnEvent(tick=0, channel=2, data=[71, 100])\n",
      "midi.NoteOnEvent(tick=96, channel=2, data=[71, 0])\n",
      "midi.NoteOnEvent(tick=0, channel=2, data=[69, 100])\n",
      "midi.NoteOnEvent(tick=96, channel=2, data=[69, 0])\n",
      "midi.NoteOnEvent(tick=0, channel=2, data=[72, 100])\n",
      "midi.NoteOnEvent(tick=96, channel=2, data=[72, 0])\n",
      "midi.NoteOnEvent(tick=0, channel=2, data=[71, 100])\n",
      "midi.NoteOnEvent(tick=96, channel=2, data=[71, 0])\n",
      "midi.NoteOnEvent(tick=0, channel=2, data=[69, 100])\n",
      "midi.NoteOnEvent(tick=96, channel=2, data=[69, 0])\n",
      "midi.NoteOnEvent(tick=0, channel=2, data=[68, 100])\n",
      "midi.NoteOnEvent(tick=96, channel=2, data=[68, 0])\n",
      "midi.NoteOnEvent(tick=0, channel=2, data=[71, 100])\n",
      "midi.NoteOnEvent(tick=96, channel=2, data=[71, 0])\n",
      "midi.NoteOnEvent(tick=0, channel=2, data=[69, 100])\n",
      "midi.NoteOnEvent(tick=192, channel=2, data=[69, 0])\n",
      "midi.NoteOnEvent(tick=0, channel=2, data=[64, 100])\n",
      "midi.NoteOnEvent(tick=192, channel=2, data=[64, 0])\n",
      "midi.NoteOnEvent(tick=192, channel=2, data=[69, 100])\n",
      "midi.NoteOnEvent(tick=192, channel=2, data=[69, 0])\n",
      "midi.NoteOnEvent(tick=0, channel=2, data=[69, 100])\n",
      "midi.NoteOnEvent(tick=192, channel=2, data=[69, 0])\n",
      "midi.NoteOnEvent(tick=0, channel=2, data=[69, 100])\n",
      "midi.NoteOnEvent(tick=192, channel=2, data=[69, 0])\n",
      "midi.NoteOnEvent(tick=0, channel=2, data=[69, 100])\n",
      "midi.NoteOnEvent(tick=192, channel=2, data=[69, 0])\n",
      "midi.NoteOnEvent(tick=0, channel=2, data=[69, 100])\n",
      "midi.NoteOnEvent(tick=192, channel=2, data=[69, 0])\n",
      "midi.NoteOnEvent(tick=0, channel=2, data=[67, 100])\n",
      "midi.NoteOnEvent(tick=192, channel=2, data=[67, 0])\n",
      "midi.NoteOnEvent(tick=0, channel=2, data=[67, 100])\n",
      "midi.NoteOnEvent(tick=192, channel=2, data=[67, 0])\n",
      "midi.NoteOnEvent(tick=0, channel=2, data=[67, 100])\n",
      "midi.NoteOnEvent(tick=192, channel=2, data=[67, 0])\n",
      "midi.NoteOnEvent(tick=0, channel=2, data=[67, 100])\n",
      "midi.NoteOnEvent(tick=192, channel=2, data=[67, 0])\n",
      "midi.NoteOnEvent(tick=0, channel=2, data=[67, 100])\n",
      "midi.NoteOnEvent(tick=192, channel=2, data=[67, 0])\n",
      "midi.NoteOnEvent(tick=0, channel=2, data=[67, 100])\n",
      "midi.NoteOnEvent(tick=192, channel=2, data=[67, 0])\n",
      "midi.NoteOnEvent(tick=0, channel=2, data=[67, 100])\n",
      "midi.NoteOnEvent(tick=192, channel=2, data=[67, 0])\n",
      "midi.NoteOnEvent(tick=0, channel=2, data=[67, 100])\n",
      "midi.NoteOnEvent(tick=192, channel=2, data=[67, 0])\n",
      "midi.NoteOnEvent(tick=0, channel=2, data=[65, 100])\n",
      "midi.NoteOnEvent(tick=192, channel=2, data=[65, 0])\n",
      "midi.NoteOnEvent(tick=0, channel=2, data=[65, 100])\n",
      "midi.NoteOnEvent(tick=192, channel=2, data=[65, 0])\n",
      "midi.NoteOnEvent(tick=0, channel=2, data=[65, 100])\n",
      "midi.NoteOnEvent(tick=192, channel=2, data=[65, 0])\n",
      "midi.NoteOnEvent(tick=0, channel=2, data=[65, 100])\n",
      "midi.NoteOnEvent(tick=192, channel=2, data=[65, 0])\n",
      "midi.NoteOnEvent(tick=0, channel=2, data=[65, 100])\n",
      "midi.NoteOnEvent(tick=192, channel=2, data=[65, 0])\n",
      "midi.NoteOnEvent(tick=0, channel=2, data=[65, 100])\n",
      "midi.NoteOnEvent(tick=192, channel=2, data=[65, 0])\n",
      "midi.NoteOnEvent(tick=0, channel=2, data=[65, 100])\n",
      "midi.NoteOnEvent(tick=192, channel=2, data=[65, 0])\n",
      "midi.NoteOnEvent(tick=0, channel=2, data=[65, 100])\n",
      "midi.NoteOnEvent(tick=192, channel=2, data=[65, 0])\n",
      "midi.NoteOnEvent(tick=0, channel=2, data=[64, 100])\n",
      "midi.NoteOnEvent(tick=192, channel=2, data=[64, 0])\n",
      "midi.NoteOnEvent(tick=1920, channel=2, data=[74, 100])\n",
      "midi.NoteOnEvent(tick=192, channel=2, data=[74, 0])\n",
      "midi.NoteOnEvent(tick=0, channel=2, data=[79, 100])\n",
      "midi.NoteOnEvent(tick=384, channel=2, data=[79, 0])\n",
      "midi.NoteOnEvent(tick=192, channel=2, data=[76, 100])\n",
      "midi.NoteOnEvent(tick=192, channel=2, data=[76, 0])\n",
      "midi.NoteOnEvent(tick=0, channel=2, data=[77, 100])\n",
      "midi.NoteOnEvent(tick=384, channel=2, data=[77, 0])\n",
      "midi.NoteOnEvent(tick=192, channel=2, data=[77, 100])\n",
      "midi.NoteOnEvent(tick=192, channel=2, data=[77, 0])\n",
      "midi.NoteOnEvent(tick=0, channel=2, data=[76, 100])\n",
      "midi.NoteOnEvent(tick=96, channel=2, data=[76, 0])\n",
      "midi.NoteOnEvent(tick=0, channel=2, data=[77, 100])\n",
      "midi.NoteOnEvent(tick=96, channel=2, data=[77, 0])\n",
      "midi.NoteOnEvent(tick=0, channel=2, data=[79, 100])\n",
      "midi.NoteOnEvent(tick=96, channel=2, data=[79, 0])\n",
      "midi.NoteOnEvent(tick=0, channel=2, data=[76, 100])\n",
      "midi.NoteOnEvent(tick=96, channel=2, data=[76, 0])\n",
      "midi.NoteOnEvent(tick=0, channel=2, data=[74, 100])\n",
      "midi.NoteOnEvent(tick=96, channel=2, data=[74, 0])\n",
      "midi.NoteOnEvent(tick=0, channel=2, data=[76, 100])\n",
      "midi.NoteOnEvent(tick=96, channel=2, data=[76, 0])\n",
      "midi.NoteOnEvent(tick=0, channel=2, data=[77, 100])\n",
      "midi.NoteOnEvent(tick=96, channel=2, data=[77, 0])\n",
      "midi.NoteOnEvent(tick=0, channel=2, data=[74, 100])\n",
      "midi.NoteOnEvent(tick=96, channel=2, data=[74, 0])\n",
      "midi.NoteOnEvent(tick=0, channel=2, data=[72, 100])\n",
      "midi.NoteOnEvent(tick=192, channel=2, data=[72, 0])\n",
      "midi.NoteOnEvent(tick=0, channel=2, data=[67, 100])\n",
      "midi.NoteOnEvent(tick=192, channel=2, data=[67, 0])\n",
      "midi.NoteOnEvent(tick=192, channel=2, data=[67, 100])\n",
      "midi.NoteOnEvent(tick=192, channel=2, data=[67, 0])\n",
      "midi.NoteOnEvent(tick=0, channel=2, data=[67, 100])\n",
      "midi.NoteOnEvent(tick=192, channel=2, data=[67, 0])\n",
      "midi.NoteOnEvent(tick=192, channel=2, data=[67, 100])\n",
      "midi.NoteOnEvent(tick=192, channel=2, data=[67, 0])\n",
      "midi.NoteOnEvent(tick=192, channel=2, data=[71, 100])\n",
      "midi.NoteOnEvent(tick=192, channel=2, data=[71, 0])\n",
      "midi.NoteOnEvent(tick=192, channel=2, data=[72, 100])\n",
      "midi.NoteOnEvent(tick=192, channel=2, data=[72, 0])\n",
      "midi.NoteOnEvent(tick=192, channel=2, data=[72, 100])\n",
      "midi.NoteOnEvent(tick=192, channel=2, data=[72, 0])\n",
      "midi.NoteOnEvent(tick=0, channel=2, data=[71, 100])\n",
      "midi.NoteOnEvent(tick=192, channel=2, data=[71, 0])\n",
      "midi.NoteOnEvent(tick=0, channel=2, data=[72, 100])\n",
      "midi.NoteOnEvent(tick=192, channel=2, data=[72, 0])\n",
      "midi.NoteOnEvent(tick=0, channel=2, data=[69, 100])\n",
      "midi.NoteOnEvent(tick=192, channel=2, data=[69, 0])\n",
      "midi.NoteOnEvent(tick=0, channel=2, data=[71, 100])\n",
      "midi.NoteOnEvent(tick=96, channel=2, data=[71, 0])\n",
      "midi.NoteOnEvent(tick=0, channel=2, data=[72, 100])\n",
      "midi.NoteOnEvent(tick=96, channel=2, data=[72, 0])\n",
      "midi.NoteOnEvent(tick=0, channel=2, data=[74, 100])\n",
      "midi.NoteOnEvent(tick=96, channel=2, data=[74, 0])\n",
      "midi.NoteOnEvent(tick=0, channel=2, data=[72, 100])\n",
      "midi.NoteOnEvent(tick=96, channel=2, data=[72, 0])\n",
      "midi.NoteOnEvent(tick=0, channel=2, data=[71, 100])\n",
      "midi.NoteOnEvent(tick=96, channel=2, data=[71, 0])\n",
      "midi.NoteOnEvent(tick=0, channel=2, data=[69, 100])\n",
      "midi.NoteOnEvent(tick=96, channel=2, data=[69, 0])\n",
      "midi.NoteOnEvent(tick=0, channel=2, data=[67, 100])\n",
      "midi.NoteOnEvent(tick=96, channel=2, data=[67, 0])\n",
      "midi.NoteOnEvent(tick=0, channel=2, data=[65, 100])\n",
      "midi.NoteOnEvent(tick=96, channel=2, data=[65, 0])\n",
      "midi.NoteOnEvent(tick=0, channel=2, data=[64, 100])\n",
      "midi.NoteOnEvent(tick=96, channel=2, data=[64, 0])\n",
      "midi.NoteOnEvent(tick=0, channel=2, data=[74, 100])\n",
      "midi.NoteOnEvent(tick=96, channel=2, data=[74, 0])\n",
      "midi.NoteOnEvent(tick=0, channel=2, data=[72, 100])\n",
      "midi.NoteOnEvent(tick=96, channel=2, data=[72, 0])\n",
      "midi.NoteOnEvent(tick=0, channel=2, data=[71, 100])\n",
      "midi.NoteOnEvent(tick=96, channel=2, data=[71, 0])\n",
      "midi.NoteOnEvent(tick=0, channel=2, data=[69, 100])\n",
      "midi.NoteOnEvent(tick=96, channel=2, data=[69, 0])\n",
      "midi.NoteOnEvent(tick=0, channel=2, data=[67, 100])\n",
      "midi.NoteOnEvent(tick=96, channel=2, data=[67, 0])\n",
      "midi.NoteOnEvent(tick=0, channel=2, data=[66, 100])\n",
      "midi.NoteOnEvent(tick=96, channel=2, data=[66, 0])\n",
      "midi.NoteOnEvent(tick=0, channel=2, data=[64, 100])\n",
      "midi.NoteOnEvent(tick=96, channel=2, data=[64, 0])\n",
      "midi.NoteOnEvent(tick=0, channel=2, data=[66, 100])\n",
      "midi.NoteOnEvent(tick=192, channel=2, data=[66, 0])\n",
      "midi.NoteOnEvent(tick=0, channel=2, data=[74, 100])\n",
      "midi.NoteOnEvent(tick=192, channel=2, data=[74, 0])\n",
      "midi.NoteOnEvent(tick=1344, channel=2, data=[69, 100])\n",
      "midi.NoteOnEvent(tick=96, channel=2, data=[69, 0])\n",
      "midi.NoteOnEvent(tick=0, channel=2, data=[67, 100])\n",
      "midi.NoteOnEvent(tick=96, channel=2, data=[67, 0])\n",
      "midi.NoteOnEvent(tick=0, channel=2, data=[66, 100])\n",
      "midi.NoteOnEvent(tick=96, channel=2, data=[66, 0])\n",
      "midi.NoteOnEvent(tick=0, channel=2, data=[64, 100])\n",
      "midi.NoteOnEvent(tick=96, channel=2, data=[64, 0])\n",
      "midi.NoteOnEvent(tick=0, channel=2, data=[62, 100])\n",
      "midi.NoteOnEvent(tick=96, channel=2, data=[62, 0])\n",
      "midi.NoteOnEvent(tick=0, channel=2, data=[60, 100])\n",
      "midi.NoteOnEvent(tick=96, channel=2, data=[60, 0])\n",
      "midi.NoteOnEvent(tick=0, channel=2, data=[62, 100])\n",
      "midi.NoteOnEvent(tick=96, channel=2, data=[62, 0])\n",
      "midi.NoteOnEvent(tick=0, channel=2, data=[72, 100])\n",
      "midi.NoteOnEvent(tick=96, channel=2, data=[72, 0])\n",
      "midi.NoteOnEvent(tick=0, channel=2, data=[71, 100])\n",
      "midi.NoteOnEvent(tick=96, channel=2, data=[71, 0])\n",
      "midi.NoteOnEvent(tick=0, channel=2, data=[69, 100])\n",
      "midi.NoteOnEvent(tick=96, channel=2, data=[69, 0])\n",
      "midi.NoteOnEvent(tick=0, channel=2, data=[67, 100])\n",
      "midi.NoteOnEvent(tick=96, channel=2, data=[67, 0])\n",
      "midi.NoteOnEvent(tick=0, channel=2, data=[66, 100])\n",
      "midi.NoteOnEvent(tick=96, channel=2, data=[66, 0])\n",
      "midi.NoteOnEvent(tick=0, channel=2, data=[64, 100])\n",
      "midi.NoteOnEvent(tick=96, channel=2, data=[64, 0])\n",
      "midi.NoteOnEvent(tick=0, channel=2, data=[63, 100])\n",
      "midi.NoteOnEvent(tick=96, channel=2, data=[63, 0])\n",
      "midi.NoteOnEvent(tick=0, channel=2, data=[64, 100])\n",
      "midi.NoteOnEvent(tick=192, channel=2, data=[64, 0])\n",
      "midi.NoteOnEvent(tick=0, channel=2, data=[69, 100])\n",
      "midi.NoteOnEvent(tick=192, channel=2, data=[69, 0])\n",
      "midi.NoteOnEvent(tick=1344, channel=2, data=[67, 100])\n",
      "midi.NoteOnEvent(tick=384, channel=2, data=[67, 0])\n",
      "midi.NoteOnEvent(tick=0, channel=2, data=[69, 100])\n",
      "midi.NoteOnEvent(tick=96, channel=2, data=[69, 0])\n",
      "midi.NoteOnEvent(tick=0, channel=2, data=[71, 100])\n",
      "midi.NoteOnEvent(tick=96, channel=2, data=[71, 0])\n",
      "midi.NoteOnEvent(tick=0, channel=2, data=[72, 100])\n",
      "midi.NoteOnEvent(tick=384, channel=2, data=[72, 0])\n",
      "midi.NoteOnEvent(tick=96, channel=2, data=[71, 100])\n",
      "midi.NoteOnEvent(tick=96, channel=2, data=[71, 0])\n",
      "midi.NoteOnEvent(tick=0, channel=2, data=[69, 100])\n",
      "midi.NoteOnEvent(tick=96, channel=2, data=[69, 0])\n",
      "midi.NoteOnEvent(tick=0, channel=2, data=[67, 100])\n",
      "midi.NoteOnEvent(tick=96, channel=2, data=[67, 0])\n",
      "midi.NoteOnEvent(tick=0, channel=2, data=[66, 100])\n",
      "midi.NoteOnEvent(tick=192, channel=2, data=[66, 0])\n",
      "midi.NoteOnEvent(tick=0, channel=2, data=[78, 100])\n",
      "midi.NoteOnEvent(tick=192, channel=2, data=[78, 0])\n",
      "midi.NoteOnEvent(tick=0, channel=2, data=[76, 100])\n",
      "midi.NoteOnEvent(tick=192, channel=2, data=[76, 0])\n",
      "midi.NoteOnEvent(tick=0, channel=2, data=[64, 100])\n",
      "midi.NoteOnEvent(tick=384, channel=2, data=[64, 0])\n",
      "midi.NoteOnEvent(tick=0, channel=2, data=[63, 100])\n",
      "midi.NoteOnEvent(tick=192, channel=2, data=[63, 0])\n",
      "midi.NoteOnEvent(tick=0, channel=2, data=[64, 100])\n",
      "midi.NoteOnEvent(tick=192, channel=2, data=[64, 0])\n",
      "midi.NoteOnEvent(tick=0, channel=2, data=[72, 100])\n",
      "midi.NoteOnEvent(tick=384, channel=2, data=[72, 0])\n",
      "midi.NoteOnEvent(tick=0, channel=2, data=[66, 100])\n",
      "midi.NoteOnEvent(tick=192, channel=2, data=[66, 0])\n",
      "midi.NoteOnEvent(tick=0, channel=2, data=[67, 100])\n",
      "midi.NoteOnEvent(tick=192, channel=2, data=[67, 0])\n",
      "midi.NoteOnEvent(tick=0, channel=2, data=[76, 100])\n",
      "midi.NoteOnEvent(tick=192, channel=2, data=[76, 0])\n",
      "midi.NoteOnEvent(tick=0, channel=2, data=[76, 100])\n",
      "midi.NoteOnEvent(tick=384, channel=2, data=[76, 0])\n",
      "midi.NoteOnEvent(tick=0, channel=2, data=[75, 100])\n",
      "midi.NoteOnEvent(tick=48, channel=2, data=[75, 0])\n",
      "midi.NoteOnEvent(tick=0, channel=2, data=[76, 100])\n",
      "midi.NoteOnEvent(tick=48, channel=2, data=[76, 0])\n",
      "midi.NoteOnEvent(tick=0, channel=2, data=[75, 100])\n",
      "midi.NoteOnEvent(tick=48, channel=2, data=[75, 0])\n",
      "midi.NoteOnEvent(tick=0, channel=2, data=[76, 100])\n",
      "midi.NoteOnEvent(tick=48, channel=2, data=[76, 0])\n",
      "midi.NoteOnEvent(tick=0, channel=2, data=[75, 100])\n",
      "midi.NoteOnEvent(tick=48, channel=2, data=[75, 0])\n",
      "midi.NoteOnEvent(tick=0, channel=2, data=[76, 100])\n",
      "midi.NoteOnEvent(tick=48, channel=2, data=[76, 0])\n",
      "midi.NoteOnEvent(tick=0, channel=2, data=[75, 100])\n",
      "midi.NoteOnEvent(tick=48, channel=2, data=[75, 0])\n",
      "midi.NoteOnEvent(tick=0, channel=2, data=[76, 100])\n",
      "midi.NoteOnEvent(tick=48, channel=2, data=[76, 0])\n",
      "midi.NoteOnEvent(tick=0, channel=2, data=[75, 100])\n",
      "midi.NoteOnEvent(tick=384, channel=2, data=[75, 0])\n",
      "midi.NoteOnEvent(tick=384, channel=2, data=[78, 100])\n",
      "midi.NoteOnEvent(tick=384, channel=2, data=[78, 0])\n",
      "midi.NoteOnEvent(tick=384, channel=2, data=[79, 100])\n",
      "midi.NoteOnEvent(tick=384, channel=2, data=[79, 0])\n",
      "midi.NoteOnEvent(tick=384, channel=2, data=[66, 100])\n",
      "midi.NoteOnEvent(tick=384, channel=2, data=[66, 0])\n",
      "midi.NoteOnEvent(tick=384, channel=2, data=[66, 100])\n",
      "midi.NoteOnEvent(tick=768, channel=2, data=[66, 0])\n",
      "midi.NoteOnEvent(tick=96, channel=2, data=[67, 100])\n",
      "midi.NoteOnEvent(tick=96, channel=2, data=[67, 0])\n",
      "midi.NoteOnEvent(tick=0, channel=2, data=[69, 100])\n",
      "midi.NoteOnEvent(tick=96, channel=2, data=[69, 0])\n",
      "midi.NoteOnEvent(tick=0, channel=2, data=[71, 100])\n",
      "midi.NoteOnEvent(tick=96, channel=2, data=[71, 0])\n",
      "midi.NoteOnEvent(tick=0, channel=2, data=[73, 100])\n",
      "midi.NoteOnEvent(tick=96, channel=2, data=[73, 0])\n",
      "midi.NoteOnEvent(tick=0, channel=2, data=[75, 100])\n",
      "midi.NoteOnEvent(tick=96, channel=2, data=[75, 0])\n",
      "midi.NoteOnEvent(tick=0, channel=2, data=[76, 100])\n",
      "midi.NoteOnEvent(tick=96, channel=2, data=[76, 0])\n",
      "midi.NoteOnEvent(tick=0, channel=2, data=[78, 100])\n",
      "midi.NoteOnEvent(tick=96, channel=2, data=[78, 0])\n",
      "midi.NoteOnEvent(tick=0, channel=2, data=[79, 100])\n",
      "midi.NoteOnEvent(tick=192, channel=2, data=[79, 0])\n",
      "midi.NoteOnEvent(tick=0, channel=2, data=[67, 100])\n",
      "midi.NoteOnEvent(tick=192, channel=2, data=[67, 0])\n",
      "midi.NoteOnEvent(tick=0, channel=2, data=[69, 100])\n",
      "midi.NoteOnEvent(tick=192, channel=2, data=[69, 0])\n",
      "midi.NoteOnEvent(tick=0, channel=2, data=[66, 100])\n",
      "midi.NoteOnEvent(tick=192, channel=2, data=[66, 0])\n",
      "midi.NoteOnEvent(tick=0, channel=2, data=[64, 100])\n",
      "midi.NoteOnEvent(tick=192, channel=2, data=[64, 0])\n",
      "midi.NoteOnEvent(tick=0, channel=2, data=[76, 100])\n",
      "midi.NoteOnEvent(tick=96, channel=2, data=[76, 0])\n",
      "midi.NoteOnEvent(tick=0, channel=2, data=[74, 100])\n",
      "midi.NoteOnEvent(tick=96, channel=2, data=[74, 0])\n",
      "midi.NoteOnEvent(tick=0, channel=2, data=[72, 100])\n",
      "midi.NoteOnEvent(tick=96, channel=2, data=[72, 0])\n",
      "midi.NoteOnEvent(tick=0, channel=2, data=[71, 100])\n",
      "midi.NoteOnEvent(tick=96, channel=2, data=[71, 0])\n",
      "midi.NoteOnEvent(tick=0, channel=2, data=[69, 100])\n",
      "midi.NoteOnEvent(tick=96, channel=2, data=[69, 0])\n",
      "midi.NoteOnEvent(tick=0, channel=2, data=[67, 100])\n",
      "midi.NoteOnEvent(tick=96, channel=2, data=[67, 0])\n",
      "midi.NoteOnEvent(tick=0, channel=2, data=[66, 100])\n",
      "midi.NoteOnEvent(tick=96, channel=2, data=[66, 0])\n",
      "midi.NoteOnEvent(tick=0, channel=2, data=[64, 100])\n",
      "midi.NoteOnEvent(tick=96, channel=2, data=[64, 0])\n",
      "midi.NoteOnEvent(tick=0, channel=2, data=[63, 100])\n",
      "midi.NoteOnEvent(tick=96, channel=2, data=[63, 0])\n",
      "midi.NoteOnEvent(tick=0, channel=2, data=[64, 100])\n",
      "midi.NoteOnEvent(tick=96, channel=2, data=[64, 0])\n",
      "midi.NoteOnEvent(tick=0, channel=2, data=[66, 100])\n",
      "midi.NoteOnEvent(tick=96, channel=2, data=[66, 0])\n",
      "midi.NoteOnEvent(tick=0, channel=2, data=[67, 100])\n",
      "midi.NoteOnEvent(tick=96, channel=2, data=[67, 0])\n",
      "midi.NoteOnEvent(tick=0, channel=2, data=[69, 100])\n",
      "midi.NoteOnEvent(tick=96, channel=2, data=[69, 0])\n",
      "midi.NoteOnEvent(tick=0, channel=2, data=[71, 100])\n",
      "midi.NoteOnEvent(tick=96, channel=2, data=[71, 0])\n",
      "midi.NoteOnEvent(tick=0, channel=2, data=[72, 100])\n",
      "midi.NoteOnEvent(tick=96, channel=2, data=[72, 0])\n",
      "midi.NoteOnEvent(tick=0, channel=2, data=[71, 100])\n",
      "midi.NoteOnEvent(tick=96, channel=2, data=[71, 0])\n",
      "midi.NoteOnEvent(tick=0, channel=2, data=[69, 100])\n",
      "midi.NoteOnEvent(tick=96, channel=2, data=[69, 0])\n",
      "midi.NoteOnEvent(tick=0, channel=2, data=[67, 100])\n",
      "midi.NoteOnEvent(tick=96, channel=2, data=[67, 0])\n",
      "midi.NoteOnEvent(tick=0, channel=2, data=[66, 100])\n",
      "midi.NoteOnEvent(tick=96, channel=2, data=[66, 0])\n",
      "midi.NoteOnEvent(tick=0, channel=2, data=[64, 100])\n",
      "midi.NoteOnEvent(tick=96, channel=2, data=[64, 0])\n",
      "midi.NoteOnEvent(tick=0, channel=2, data=[63, 100])\n",
      "midi.NoteOnEvent(tick=96, channel=2, data=[63, 0])\n",
      "midi.NoteOnEvent(tick=0, channel=2, data=[64, 100])\n",
      "midi.NoteOnEvent(tick=96, channel=2, data=[64, 0])\n",
      "midi.NoteOnEvent(tick=0, channel=2, data=[69, 100])\n",
      "midi.NoteOnEvent(tick=192, channel=2, data=[69, 0])\n",
      "midi.NoteOnEvent(tick=0, channel=2, data=[64, 100])\n",
      "midi.NoteOnEvent(tick=192, channel=2, data=[64, 0])\n",
      "midi.NoteOnEvent(tick=0, channel=2, data=[64, 100])\n",
      "midi.NoteOnEvent(tick=192, channel=2, data=[64, 0])\n",
      "midi.NoteOnEvent(tick=0, channel=2, data=[63, 100])\n",
      "midi.NoteOnEvent(tick=192, channel=2, data=[63, 0])\n",
      "midi.NoteOnEvent(tick=0, channel=2, data=[59, 100])\n",
      "midi.NoteOnEvent(tick=384, channel=2, data=[59, 0])\n",
      "midi.NoteOnEvent(tick=576, channel=2, data=[67, 100])\n",
      "midi.NoteOnEvent(tick=192, channel=2, data=[67, 0])\n",
      "midi.NoteOnEvent(tick=0, channel=2, data=[71, 100])\n",
      "midi.NoteOnEvent(tick=192, channel=2, data=[71, 0])\n",
      "midi.NoteOnEvent(tick=384, channel=2, data=[71, 100])\n",
      "midi.NoteOnEvent(tick=96, channel=2, data=[71, 0])\n",
      "midi.NoteOnEvent(tick=0, channel=2, data=[73, 100])\n",
      "midi.NoteOnEvent(tick=96, channel=2, data=[73, 0])\n",
      "midi.NoteOnEvent(tick=0, channel=2, data=[75, 100])\n",
      "midi.NoteOnEvent(tick=192, channel=2, data=[75, 0])\n",
      "midi.NoteOnEvent(tick=384, channel=2, data=[63, 100])\n",
      "midi.NoteOnEvent(tick=192, channel=2, data=[63, 0])\n",
      "midi.NoteOnEvent(tick=0, channel=2, data=[69, 100])\n",
      "midi.NoteOnEvent(tick=192, channel=2, data=[69, 0])\n",
      "midi.NoteOnEvent(tick=384, channel=2, data=[71, 100])\n",
      "midi.NoteOnEvent(tick=192, channel=2, data=[71, 0])\n",
      "midi.NoteOnEvent(tick=0, channel=2, data=[76, 100])\n",
      "midi.NoteOnEvent(tick=192, channel=2, data=[76, 0])\n",
      "midi.NoteOnEvent(tick=0, channel=2, data=[67, 100])\n",
      "midi.NoteOnEvent(tick=192, channel=2, data=[67, 0])\n",
      "midi.NoteOnEvent(tick=0, channel=2, data=[69, 100])\n",
      "midi.NoteOnEvent(tick=384, channel=2, data=[69, 0])\n",
      "midi.NoteOnEvent(tick=0, channel=2, data=[71, 100])\n",
      "midi.NoteOnEvent(tick=384, channel=2, data=[71, 0])\n",
      "midi.NoteOnEvent(tick=0, channel=2, data=[72, 100])\n",
      "midi.NoteOnEvent(tick=384, channel=2, data=[72, 0])\n",
      "midi.NoteOnEvent(tick=0, channel=2, data=[68, 100])\n",
      "midi.NoteOnEvent(tick=384, channel=2, data=[68, 0])\n",
      "midi.NoteOnEvent(tick=0, channel=2, data=[69, 100])\n",
      "midi.NoteOnEvent(tick=384, channel=2, data=[69, 0])\n",
      "midi.NoteOnEvent(tick=0, channel=2, data=[67, 100])\n",
      "midi.NoteOnEvent(tick=384, channel=2, data=[67, 0])\n",
      "midi.NoteOnEvent(tick=0, channel=2, data=[65, 100])\n",
      "midi.NoteOnEvent(tick=384, channel=2, data=[65, 0])\n",
      "midi.NoteOnEvent(tick=0, channel=2, data=[64, 100])\n",
      "midi.NoteOnEvent(tick=384, channel=2, data=[64, 0])\n",
      "midi.NoteOnEvent(tick=0, channel=2, data=[62, 100])\n",
      "midi.NoteOnEvent(tick=384, channel=2, data=[62, 0])\n",
      "midi.NoteOnEvent(tick=0, channel=2, data=[57, 100])\n",
      "midi.NoteOnEvent(tick=384, channel=2, data=[57, 0])\n",
      "midi.NoteOnEvent(tick=0, channel=2, data=[62, 100])\n",
      "midi.NoteOnEvent(tick=384, channel=2, data=[62, 0])\n",
      "midi.NoteOnEvent(tick=0, channel=2, data=[66, 100])\n",
      "midi.NoteOnEvent(tick=384, channel=2, data=[66, 0])\n",
      "midi.NoteOnEvent(tick=0, channel=2, data=[67, 100])\n",
      "midi.NoteOnEvent(tick=384, channel=2, data=[67, 0])\n",
      "midi.NoteOnEvent(tick=0, channel=2, data=[65, 100])\n",
      "midi.NoteOnEvent(tick=384, channel=2, data=[65, 0])\n",
      "midi.NoteOnEvent(tick=0, channel=2, data=[64, 100])\n",
      "midi.NoteOnEvent(tick=384, channel=2, data=[64, 0])\n",
      "midi.NoteOnEvent(tick=0, channel=2, data=[62, 100])\n",
      "midi.NoteOnEvent(tick=384, channel=2, data=[62, 0])\n",
      "midi.NoteOnEvent(tick=0, channel=2, data=[60, 100])\n",
      "midi.NoteOnEvent(tick=384, channel=2, data=[60, 0])\n",
      "midi.NoteOnEvent(tick=0, channel=2, data=[67, 100])\n",
      "midi.NoteOnEvent(tick=384, channel=2, data=[67, 0])\n",
      "midi.NoteOnEvent(tick=0, channel=2, data=[72, 100])\n",
      "midi.NoteOnEvent(tick=384, channel=2, data=[72, 0])\n",
      "midi.NoteOnEvent(tick=0, channel=2, data=[76, 100])\n",
      "midi.NoteOnEvent(tick=384, channel=2, data=[76, 0])\n",
      "midi.NoteOnEvent(tick=0, channel=2, data=[77, 100])\n",
      "midi.NoteOnEvent(tick=384, channel=2, data=[77, 0])\n",
      "midi.NoteOnEvent(tick=2112, channel=2, data=[69, 100])\n",
      "midi.NoteOnEvent(tick=192, channel=2, data=[69, 0])\n",
      "midi.NoteOnEvent(tick=0, channel=2, data=[74, 100])\n",
      "midi.NoteOnEvent(tick=384, channel=2, data=[74, 0])\n",
      "midi.NoteOnEvent(tick=192, channel=2, data=[74, 100])\n",
      "midi.NoteOnEvent(tick=192, channel=2, data=[74, 0])\n",
      "midi.NoteOnEvent(tick=0, channel=2, data=[82, 100])\n",
      "midi.NoteOnEvent(tick=192, channel=2, data=[82, 0])\n",
      "midi.NoteOnEvent(tick=0, channel=2, data=[73, 100])\n",
      "midi.NoteOnEvent(tick=192, channel=2, data=[73, 0])\n",
      "midi.NoteOnEvent(tick=0, channel=2, data=[74, 100])\n",
      "midi.NoteOnEvent(tick=192, channel=2, data=[74, 0])\n",
      "midi.NoteOnEvent(tick=0, channel=2, data=[69, 100])\n",
      "midi.NoteOnEvent(tick=192, channel=2, data=[69, 0])\n",
      "midi.NoteOnEvent(tick=0, channel=2, data=[69, 100])\n",
      "midi.NoteOnEvent(tick=192, channel=2, data=[69, 0])\n",
      "midi.NoteOnEvent(tick=0, channel=2, data=[69, 100])\n",
      "midi.NoteOnEvent(tick=192, channel=2, data=[69, 0])\n",
      "midi.NoteOnEvent(tick=0, channel=2, data=[69, 100])\n",
      "midi.NoteOnEvent(tick=384, channel=2, data=[69, 0])\n",
      "midi.NoteOnEvent(tick=192, channel=2, data=[65, 100])\n",
      "midi.NoteOnEvent(tick=192, channel=2, data=[65, 0])\n",
      "midi.NoteOnEvent(tick=0, channel=2, data=[67, 100])\n",
      "midi.NoteOnEvent(tick=192, channel=2, data=[67, 0])\n",
      "midi.NoteOnEvent(tick=0, channel=2, data=[67, 100])\n",
      "midi.NoteOnEvent(tick=192, channel=2, data=[67, 0])\n",
      "midi.NoteOnEvent(tick=0, channel=2, data=[69, 100])\n",
      "midi.NoteOnEvent(tick=192, channel=2, data=[69, 0])\n",
      "midi.NoteOnEvent(tick=0, channel=2, data=[69, 100])\n",
      "midi.NoteOnEvent(tick=192, channel=2, data=[69, 0])\n",
      "midi.NoteOnEvent(tick=0, channel=2, data=[70, 100])\n",
      "midi.NoteOnEvent(tick=192, channel=2, data=[70, 0])\n",
      "midi.NoteOnEvent(tick=0, channel=2, data=[70, 100])\n",
      "midi.NoteOnEvent(tick=192, channel=2, data=[70, 0])\n",
      "midi.NoteOnEvent(tick=0, channel=2, data=[66, 100])\n",
      "midi.NoteOnEvent(tick=192, channel=2, data=[66, 0])\n",
      "midi.NoteOnEvent(tick=0, channel=2, data=[66, 100])\n",
      "midi.NoteOnEvent(tick=192, channel=2, data=[66, 0])\n",
      "midi.NoteOnEvent(tick=0, channel=2, data=[67, 100])\n",
      "midi.NoteOnEvent(tick=192, channel=2, data=[67, 0])\n",
      "midi.NoteOnEvent(tick=0, channel=2, data=[70, 100])\n",
      "midi.NoteOnEvent(tick=192, channel=2, data=[70, 0])\n",
      "midi.NoteOnEvent(tick=0, channel=2, data=[74, 100])\n",
      "midi.NoteOnEvent(tick=192, channel=2, data=[74, 0])\n",
      "midi.NoteOnEvent(tick=0, channel=2, data=[79, 100])\n",
      "midi.NoteOnEvent(tick=192, channel=2, data=[79, 0])\n",
      "midi.NoteOnEvent(tick=0, channel=2, data=[76, 100])\n",
      "midi.NoteOnEvent(tick=192, channel=2, data=[76, 0])\n",
      "midi.NoteOnEvent(tick=0, channel=2, data=[72, 100])\n",
      "midi.NoteOnEvent(tick=192, channel=2, data=[72, 0])\n",
      "midi.NoteOnEvent(tick=0, channel=2, data=[67, 100])\n",
      "midi.NoteOnEvent(tick=192, channel=2, data=[67, 0])\n",
      "midi.NoteOnEvent(tick=0, channel=2, data=[67, 100])\n",
      "midi.NoteOnEvent(tick=192, channel=2, data=[67, 0])\n",
      "midi.NoteOnEvent(tick=0, channel=2, data=[69, 100])\n",
      "midi.NoteOnEvent(tick=192, channel=2, data=[69, 0])\n",
      "midi.NoteOnEvent(tick=0, channel=2, data=[69, 100])\n",
      "midi.NoteOnEvent(tick=192, channel=2, data=[69, 0])\n",
      "midi.NoteOnEvent(tick=0, channel=2, data=[64, 100])\n",
      "midi.NoteOnEvent(tick=192, channel=2, data=[64, 0])\n",
      "midi.NoteOnEvent(tick=0, channel=2, data=[64, 100])\n",
      "midi.NoteOnEvent(tick=192, channel=2, data=[64, 0])\n",
      "midi.NoteOnEvent(tick=0, channel=2, data=[65, 100])\n",
      "midi.NoteOnEvent(tick=192, channel=2, data=[65, 0])\n",
      "midi.NoteOnEvent(tick=0, channel=2, data=[69, 100])\n",
      "midi.NoteOnEvent(tick=192, channel=2, data=[69, 0])\n",
      "midi.NoteOnEvent(tick=0, channel=2, data=[72, 100])\n",
      "midi.NoteOnEvent(tick=192, channel=2, data=[72, 0])\n",
      "midi.NoteOnEvent(tick=0, channel=2, data=[77, 100])\n",
      "midi.NoteOnEvent(tick=192, channel=2, data=[77, 0])\n",
      "midi.NoteOnEvent(tick=0, channel=2, data=[74, 100])\n",
      "midi.NoteOnEvent(tick=192, channel=2, data=[74, 0])\n",
      "midi.NoteOnEvent(tick=0, channel=2, data=[70, 100])\n",
      "midi.NoteOnEvent(tick=192, channel=2, data=[70, 0])\n",
      "midi.NoteOnEvent(tick=0, channel=2, data=[70, 100])\n",
      "midi.NoteOnEvent(tick=192, channel=2, data=[70, 0])\n",
      "midi.NoteOnEvent(tick=0, channel=2, data=[70, 100])\n",
      "midi.NoteOnEvent(tick=192, channel=2, data=[70, 0])\n",
      "midi.NoteOnEvent(tick=0, channel=2, data=[70, 100])\n",
      "midi.NoteOnEvent(tick=192, channel=2, data=[70, 0])\n",
      "midi.NoteOnEvent(tick=0, channel=2, data=[70, 100])\n",
      "midi.NoteOnEvent(tick=192, channel=2, data=[70, 0])\n",
      "midi.NoteOnEvent(tick=0, channel=2, data=[70, 100])\n",
      "midi.NoteOnEvent(tick=192, channel=2, data=[70, 0])\n",
      "midi.NoteOnEvent(tick=0, channel=2, data=[70, 100])\n",
      "midi.NoteOnEvent(tick=192, channel=2, data=[70, 0])\n",
      "midi.NoteOnEvent(tick=0, channel=2, data=[70, 100])\n",
      "midi.NoteOnEvent(tick=192, channel=2, data=[70, 0])\n",
      "midi.NoteOnEvent(tick=0, channel=2, data=[70, 100])\n",
      "midi.NoteOnEvent(tick=192, channel=2, data=[70, 0])\n",
      "midi.NoteOnEvent(tick=0, channel=2, data=[64, 100])\n",
      "midi.NoteOnEvent(tick=192, channel=2, data=[64, 0])\n",
      "midi.NoteOnEvent(tick=0, channel=2, data=[67, 100])\n",
      "midi.NoteOnEvent(tick=192, channel=2, data=[67, 0])\n",
      "midi.NoteOnEvent(tick=0, channel=2, data=[69, 100])\n",
      "midi.NoteOnEvent(tick=192, channel=2, data=[69, 0])\n",
      "midi.NoteOnEvent(tick=0, channel=2, data=[69, 100])\n",
      "midi.NoteOnEvent(tick=192, channel=2, data=[69, 0])\n",
      "midi.NoteOnEvent(tick=0, channel=2, data=[69, 100])\n",
      "midi.NoteOnEvent(tick=192, channel=2, data=[69, 0])\n",
      "midi.NoteOnEvent(tick=0, channel=2, data=[69, 100])\n",
      "midi.NoteOnEvent(tick=192, channel=2, data=[69, 0])\n",
      "midi.NoteOnEvent(tick=0, channel=2, data=[69, 100])\n",
      "midi.NoteOnEvent(tick=192, channel=2, data=[69, 0])\n",
      "midi.NoteOnEvent(tick=0, channel=2, data=[69, 100])\n",
      "midi.NoteOnEvent(tick=192, channel=2, data=[69, 0])\n",
      "midi.NoteOnEvent(tick=0, channel=2, data=[69, 100])\n",
      "midi.NoteOnEvent(tick=192, channel=2, data=[69, 0])\n",
      "midi.NoteOnEvent(tick=0, channel=2, data=[69, 100])\n",
      "midi.NoteOnEvent(tick=192, channel=2, data=[69, 0])\n",
      "midi.NoteOnEvent(tick=0, channel=2, data=[69, 100])\n",
      "midi.NoteOnEvent(tick=384, channel=2, data=[69, 0])\n",
      "midi.NoteOnEvent(tick=192, channel=2, data=[74, 100])\n",
      "midi.NoteOnEvent(tick=192, channel=2, data=[74, 0])\n",
      "midi.NoteOnEvent(tick=0, channel=2, data=[74, 100])\n",
      "midi.NoteOnEvent(tick=384, channel=2, data=[74, 0])\n",
      "midi.NoteOnEvent(tick=960, channel=2, data=[72, 100])\n",
      "midi.NoteOnEvent(tick=192, channel=2, data=[72, 0])\n",
      "midi.NoteOnEvent(tick=0, channel=2, data=[72, 100])\n",
      "midi.NoteOnEvent(tick=384, channel=2, data=[72, 0])\n",
      "midi.NoteOnEvent(tick=960, channel=2, data=[71, 100])\n",
      "midi.NoteOnEvent(tick=192, channel=2, data=[71, 0])\n",
      "midi.NoteOnEvent(tick=0, channel=2, data=[71, 100])\n",
      "midi.NoteOnEvent(tick=192, channel=2, data=[71, 0])\n",
      "midi.NoteOnEvent(tick=0, channel=2, data=[69, 100])\n",
      "midi.NoteOnEvent(tick=192, channel=2, data=[69, 0])\n",
      "midi.NoteOnEvent(tick=0, channel=2, data=[68, 100])\n",
      "midi.NoteOnEvent(tick=192, channel=2, data=[68, 0])\n",
      "midi.NoteOnEvent(tick=0, channel=2, data=[71, 100])\n",
      "midi.NoteOnEvent(tick=192, channel=2, data=[71, 0])\n",
      "midi.NoteOnEvent(tick=0, channel=2, data=[76, 100])\n",
      "midi.NoteOnEvent(tick=384, channel=2, data=[76, 0])\n",
      "midi.NoteOnEvent(tick=192, channel=2, data=[72, 100])\n",
      "midi.NoteOnEvent(tick=192, channel=2, data=[72, 0])\n",
      "midi.NoteOnEvent(tick=0, channel=2, data=[74, 100])\n",
      "midi.NoteOnEvent(tick=384, channel=2, data=[74, 0])\n",
      "midi.NoteOnEvent(tick=192, channel=2, data=[71, 100])\n",
      "midi.NoteOnEvent(tick=192, channel=2, data=[71, 0])\n",
      "midi.NoteOnEvent(tick=0, channel=2, data=[72, 100])\n",
      "midi.NoteOnEvent(tick=96, channel=2, data=[72, 0])\n",
      "midi.NoteOnEvent(tick=0, channel=2, data=[74, 100])\n",
      "midi.NoteOnEvent(tick=96, channel=2, data=[74, 0])\n",
      "midi.NoteOnEvent(tick=0, channel=2, data=[76, 100])\n",
      "midi.NoteOnEvent(tick=96, channel=2, data=[76, 0])\n",
      "midi.NoteOnEvent(tick=0, channel=2, data=[72, 100])\n",
      "midi.NoteOnEvent(tick=96, channel=2, data=[72, 0])\n",
      "midi.NoteOnEvent(tick=0, channel=2, data=[71, 100])\n",
      "midi.NoteOnEvent(tick=96, channel=2, data=[71, 0])\n",
      "midi.NoteOnEvent(tick=0, channel=2, data=[72, 100])\n",
      "midi.NoteOnEvent(tick=96, channel=2, data=[72, 0])\n",
      "midi.NoteOnEvent(tick=0, channel=2, data=[74, 100])\n",
      "midi.NoteOnEvent(tick=96, channel=2, data=[74, 0])\n",
      "midi.NoteOnEvent(tick=0, channel=2, data=[71, 100])\n",
      "midi.NoteOnEvent(tick=96, channel=2, data=[71, 0])\n",
      "midi.NoteOnEvent(tick=0, channel=2, data=[69, 100])\n",
      "midi.NoteOnEvent(tick=192, channel=2, data=[69, 0])\n",
      "midi.NoteOnEvent(tick=0, channel=2, data=[64, 100])\n",
      "midi.NoteOnEvent(tick=192, channel=2, data=[64, 0])\n",
      "midi.NoteOnEvent(tick=576, channel=2, data=[57, 100])\n",
      "midi.NoteOnEvent(tick=192, channel=2, data=[57, 0])\n",
      "midi.NoteOnEvent(tick=0, channel=2, data=[57, 100])\n",
      "midi.NoteOnEvent(tick=192, channel=2, data=[57, 0])\n",
      "midi.NoteOnEvent(tick=0, channel=2, data=[57, 100])\n",
      "midi.NoteOnEvent(tick=192, channel=2, data=[57, 0])\n",
      "midi.NoteOnEvent(tick=0, channel=2, data=[57, 100])\n",
      "midi.NoteOnEvent(tick=192, channel=2, data=[57, 0])\n",
      "midi.NoteOnEvent(tick=0, channel=2, data=[57, 100])\n",
      "midi.NoteOnEvent(tick=192, channel=2, data=[57, 0])\n",
      "midi.NoteOnEvent(tick=0, channel=2, data=[57, 100])\n",
      "midi.NoteOnEvent(tick=192, channel=2, data=[57, 0])\n",
      "midi.NoteOnEvent(tick=0, channel=2, data=[57, 100])\n",
      "midi.NoteOnEvent(tick=192, channel=2, data=[57, 0])\n",
      "midi.NoteOnEvent(tick=0, channel=2, data=[57, 100])\n",
      "midi.NoteOnEvent(tick=192, channel=2, data=[57, 0])\n",
      "midi.NoteOnEvent(tick=0, channel=2, data=[57, 100])\n",
      "midi.NoteOnEvent(tick=192, channel=2, data=[57, 0])\n",
      "midi.NoteOnEvent(tick=0, channel=2, data=[57, 100])\n",
      "midi.NoteOnEvent(tick=192, channel=2, data=[57, 0])\n",
      "midi.NoteOnEvent(tick=0, channel=2, data=[57, 100])\n",
      "midi.NoteOnEvent(tick=192, channel=2, data=[57, 0])\n",
      "midi.NoteOnEvent(tick=0, channel=2, data=[62, 100])\n",
      "midi.NoteOnEvent(tick=192, channel=2, data=[62, 0])\n",
      "midi.NoteOnEvent(tick=0, channel=2, data=[62, 100])\n",
      "midi.NoteOnEvent(tick=192, channel=2, data=[62, 0])\n",
      "midi.NoteOnEvent(tick=0, channel=2, data=[62, 100])\n",
      "midi.NoteOnEvent(tick=192, channel=2, data=[62, 0])\n",
      "midi.NoteOnEvent(tick=0, channel=2, data=[62, 100])\n",
      "midi.NoteOnEvent(tick=192, channel=2, data=[62, 0])\n",
      "midi.NoteOnEvent(tick=0, channel=2, data=[62, 100])\n",
      "midi.NoteOnEvent(tick=192, channel=2, data=[62, 0])\n",
      "midi.NoteOnEvent(tick=0, channel=2, data=[62, 100])\n",
      "midi.NoteOnEvent(tick=192, channel=2, data=[62, 0])\n",
      "midi.NoteOnEvent(tick=0, channel=2, data=[62, 100])\n",
      "midi.NoteOnEvent(tick=192, channel=2, data=[62, 0])\n",
      "midi.NoteOnEvent(tick=0, channel=2, data=[62, 100])\n",
      "midi.NoteOnEvent(tick=192, channel=2, data=[62, 0])\n",
      "midi.NoteOnEvent(tick=0, channel=2, data=[67, 100])\n",
      "midi.NoteOnEvent(tick=192, channel=2, data=[67, 0])\n",
      "midi.NoteOnEvent(tick=0, channel=2, data=[67, 100])\n",
      "midi.NoteOnEvent(tick=192, channel=2, data=[67, 0])\n",
      "midi.NoteOnEvent(tick=0, channel=2, data=[67, 100])\n",
      "midi.NoteOnEvent(tick=192, channel=2, data=[67, 0])\n",
      "midi.NoteOnEvent(tick=0, channel=2, data=[67, 100])\n",
      "midi.NoteOnEvent(tick=192, channel=2, data=[67, 0])\n",
      "midi.NoteOnEvent(tick=0, channel=2, data=[67, 100])\n",
      "midi.NoteOnEvent(tick=384, channel=2, data=[67, 0])\n",
      "midi.NoteOnEvent(tick=0, channel=2, data=[73, 100])\n",
      "midi.NoteOnEvent(tick=384, channel=2, data=[73, 0])\n",
      "midi.NoteOnEvent(tick=0, channel=2, data=[72, 100])\n",
      "midi.NoteOnEvent(tick=384, channel=2, data=[72, 0])\n",
      "midi.NoteOnEvent(tick=0, channel=2, data=[70, 100])\n",
      "midi.NoteOnEvent(tick=384, channel=2, data=[70, 0])\n",
      "midi.NoteOnEvent(tick=0, channel=2, data=[68, 100])\n",
      "midi.NoteOnEvent(tick=192, channel=2, data=[68, 0])\n",
      "midi.NoteOnEvent(tick=0, channel=2, data=[68, 100])\n",
      "midi.NoteOnEvent(tick=192, channel=2, data=[68, 0])\n",
      "midi.NoteOnEvent(tick=0, channel=2, data=[60, 100])\n",
      "midi.NoteOnEvent(tick=192, channel=2, data=[60, 0])\n",
      "midi.NoteOnEvent(tick=0, channel=2, data=[60, 100])\n",
      "midi.NoteOnEvent(tick=192, channel=2, data=[60, 0])\n",
      "midi.NoteOnEvent(tick=0, channel=2, data=[67, 100])\n",
      "midi.NoteOnEvent(tick=384, channel=2, data=[67, 0])\n",
      "midi.NoteOnEvent(tick=384, channel=2, data=[67, 100])\n",
      "midi.NoteOnEvent(tick=192, channel=2, data=[67, 0])\n",
      "midi.NoteOnEvent(tick=0, channel=2, data=[67, 100])\n",
      "midi.NoteOnEvent(tick=192, channel=2, data=[67, 0])\n",
      "midi.NoteOnEvent(tick=0, channel=2, data=[64, 100])\n",
      "midi.NoteOnEvent(tick=192, channel=2, data=[64, 0])\n",
      "midi.NoteOnEvent(tick=0, channel=2, data=[64, 100])\n",
      "midi.NoteOnEvent(tick=192, channel=2, data=[64, 0])\n",
      "midi.NoteOnEvent(tick=0, channel=2, data=[62, 100])\n",
      "midi.NoteOnEvent(tick=384, channel=2, data=[62, 0])\n",
      "midi.NoteOnEvent(tick=384, channel=2, data=[62, 100])\n",
      "midi.NoteOnEvent(tick=192, channel=2, data=[62, 0])\n",
      "midi.NoteOnEvent(tick=0, channel=2, data=[62, 100])\n",
      "midi.NoteOnEvent(tick=192, channel=2, data=[62, 0])\n",
      "midi.NoteOnEvent(tick=0, channel=2, data=[59, 100])\n",
      "midi.NoteOnEvent(tick=192, channel=2, data=[59, 0])\n",
      "midi.NoteOnEvent(tick=0, channel=2, data=[59, 100])\n",
      "midi.NoteOnEvent(tick=192, channel=2, data=[59, 0])\n",
      "midi.NoteOnEvent(tick=0, channel=2, data=[57, 100])\n",
      "midi.NoteOnEvent(tick=384, channel=2, data=[57, 0])\n",
      "midi.NoteOnEvent(tick=1728, channel=2, data=[71, 100])\n",
      "midi.NoteOnEvent(tick=192, channel=2, data=[71, 0])\n",
      "midi.NoteOnEvent(tick=0, channel=2, data=[76, 100])\n",
      "midi.NoteOnEvent(tick=384, channel=2, data=[76, 0])\n",
      "midi.NoteOnEvent(tick=192, channel=2, data=[72, 100])\n",
      "midi.NoteOnEvent(tick=192, channel=2, data=[72, 0])\n",
      "midi.NoteOnEvent(tick=0, channel=2, data=[74, 100])\n",
      "midi.NoteOnEvent(tick=384, channel=2, data=[74, 0])\n",
      "midi.NoteOnEvent(tick=192, channel=2, data=[71, 100])\n",
      "midi.NoteOnEvent(tick=192, channel=2, data=[71, 0])\n",
      "midi.NoteOnEvent(tick=0, channel=2, data=[72, 100])\n",
      "midi.NoteOnEvent(tick=96, channel=2, data=[72, 0])\n",
      "midi.NoteOnEvent(tick=0, channel=2, data=[74, 100])\n",
      "midi.NoteOnEvent(tick=96, channel=2, data=[74, 0])\n",
      "midi.NoteOnEvent(tick=0, channel=2, data=[76, 100])\n",
      "midi.NoteOnEvent(tick=96, channel=2, data=[76, 0])\n",
      "midi.NoteOnEvent(tick=0, channel=2, data=[72, 100])\n",
      "midi.NoteOnEvent(tick=96, channel=2, data=[72, 0])\n",
      "midi.NoteOnEvent(tick=0, channel=2, data=[71, 100])\n",
      "midi.NoteOnEvent(tick=96, channel=2, data=[71, 0])\n",
      "midi.NoteOnEvent(tick=0, channel=2, data=[72, 100])\n",
      "midi.NoteOnEvent(tick=96, channel=2, data=[72, 0])\n",
      "midi.NoteOnEvent(tick=0, channel=2, data=[74, 100])\n",
      "midi.NoteOnEvent(tick=96, channel=2, data=[74, 0])\n",
      "midi.NoteOnEvent(tick=0, channel=2, data=[71, 100])\n",
      "midi.NoteOnEvent(tick=96, channel=2, data=[71, 0])\n",
      "midi.NoteOnEvent(tick=0, channel=2, data=[69, 100])\n",
      "midi.NoteOnEvent(tick=192, channel=2, data=[69, 0])\n",
      "midi.NoteOnEvent(tick=0, channel=2, data=[76, 100])\n",
      "midi.NoteOnEvent(tick=96, channel=2, data=[76, 0])\n",
      "midi.NoteOnEvent(tick=0, channel=2, data=[74, 100])\n",
      "midi.NoteOnEvent(tick=96, channel=2, data=[74, 0])\n",
      "midi.NoteOnEvent(tick=0, channel=2, data=[72, 100])\n",
      "midi.NoteOnEvent(tick=96, channel=2, data=[72, 0])\n",
      "midi.NoteOnEvent(tick=0, channel=2, data=[71, 100])\n",
      "midi.NoteOnEvent(tick=96, channel=2, data=[71, 0])\n",
      "midi.NoteOnEvent(tick=0, channel=2, data=[69, 100])\n",
      "midi.NoteOnEvent(tick=96, channel=2, data=[69, 0])\n",
      "midi.NoteOnEvent(tick=0, channel=2, data=[67, 100])\n",
      "midi.NoteOnEvent(tick=96, channel=2, data=[67, 0])\n",
      "midi.NoteOnEvent(tick=0, channel=2, data=[69, 100])\n",
      "midi.NoteOnEvent(tick=96, channel=2, data=[69, 0])\n",
      "midi.NoteOnEvent(tick=0, channel=2, data=[79, 100])\n",
      "midi.NoteOnEvent(tick=96, channel=2, data=[79, 0])\n",
      "midi.NoteOnEvent(tick=0, channel=2, data=[77, 100])\n",
      "midi.NoteOnEvent(tick=96, channel=2, data=[77, 0])\n",
      "midi.NoteOnEvent(tick=0, channel=2, data=[76, 100])\n",
      "midi.NoteOnEvent(tick=96, channel=2, data=[76, 0])\n",
      "midi.NoteOnEvent(tick=0, channel=2, data=[74, 100])\n",
      "midi.NoteOnEvent(tick=96, channel=2, data=[74, 0])\n",
      "midi.NoteOnEvent(tick=0, channel=2, data=[72, 100])\n",
      "midi.NoteOnEvent(tick=96, channel=2, data=[72, 0])\n",
      "midi.NoteOnEvent(tick=0, channel=2, data=[71, 100])\n",
      "midi.NoteOnEvent(tick=96, channel=2, data=[71, 0])\n",
      "midi.NoteOnEvent(tick=0, channel=2, data=[69, 100])\n",
      "midi.NoteOnEvent(tick=96, channel=2, data=[69, 0])\n",
      "midi.NoteOnEvent(tick=0, channel=2, data=[71, 100])\n",
      "midi.NoteOnEvent(tick=192, channel=2, data=[71, 0])\n",
      "midi.NoteOnEvent(tick=0, channel=2, data=[79, 100])\n",
      "midi.NoteOnEvent(tick=192, channel=2, data=[79, 0])\n",
      "midi.NoteOnEvent(tick=1344, channel=2, data=[74, 100])\n",
      "midi.NoteOnEvent(tick=96, channel=2, data=[74, 0])\n",
      "midi.NoteOnEvent(tick=0, channel=2, data=[72, 100])\n",
      "midi.NoteOnEvent(tick=96, channel=2, data=[72, 0])\n",
      "midi.NoteOnEvent(tick=0, channel=2, data=[71, 100])\n",
      "midi.NoteOnEvent(tick=96, channel=2, data=[71, 0])\n",
      "midi.NoteOnEvent(tick=0, channel=2, data=[69, 100])\n",
      "midi.NoteOnEvent(tick=96, channel=2, data=[69, 0])\n",
      "midi.NoteOnEvent(tick=0, channel=2, data=[67, 100])\n",
      "midi.NoteOnEvent(tick=96, channel=2, data=[67, 0])\n",
      "midi.NoteOnEvent(tick=0, channel=2, data=[65, 100])\n",
      "midi.NoteOnEvent(tick=96, channel=2, data=[65, 0])\n",
      "midi.NoteOnEvent(tick=0, channel=2, data=[67, 100])\n",
      "midi.NoteOnEvent(tick=96, channel=2, data=[67, 0])\n",
      "midi.NoteOnEvent(tick=0, channel=2, data=[77, 100])\n",
      "midi.NoteOnEvent(tick=96, channel=2, data=[77, 0])\n",
      "midi.NoteOnEvent(tick=0, channel=2, data=[76, 100])\n",
      "midi.NoteOnEvent(tick=96, channel=2, data=[76, 0])\n",
      "midi.NoteOnEvent(tick=0, channel=2, data=[74, 100])\n",
      "midi.NoteOnEvent(tick=96, channel=2, data=[74, 0])\n",
      "midi.NoteOnEvent(tick=0, channel=2, data=[72, 100])\n",
      "midi.NoteOnEvent(tick=96, channel=2, data=[72, 0])\n",
      "midi.NoteOnEvent(tick=0, channel=2, data=[71, 100])\n",
      "midi.NoteOnEvent(tick=96, channel=2, data=[71, 0])\n",
      "midi.NoteOnEvent(tick=0, channel=2, data=[69, 100])\n",
      "midi.NoteOnEvent(tick=96, channel=2, data=[69, 0])\n",
      "midi.NoteOnEvent(tick=0, channel=2, data=[68, 100])\n",
      "midi.NoteOnEvent(tick=96, channel=2, data=[68, 0])\n",
      "midi.NoteOnEvent(tick=0, channel=2, data=[69, 100])\n",
      "midi.NoteOnEvent(tick=192, channel=2, data=[69, 0])\n",
      "midi.NoteOnEvent(tick=0, channel=2, data=[77, 100])\n",
      "midi.NoteOnEvent(tick=192, channel=2, data=[77, 0])\n",
      "midi.NoteOnEvent(tick=1344, channel=2, data=[72, 100])\n",
      "midi.NoteOnEvent(tick=96, channel=2, data=[72, 0])\n",
      "midi.NoteOnEvent(tick=0, channel=2, data=[71, 100])\n",
      "midi.NoteOnEvent(tick=96, channel=2, data=[71, 0])\n",
      "midi.NoteOnEvent(tick=0, channel=2, data=[69, 100])\n",
      "midi.NoteOnEvent(tick=96, channel=2, data=[69, 0])\n",
      "midi.NoteOnEvent(tick=0, channel=2, data=[67, 100])\n",
      "midi.NoteOnEvent(tick=96, channel=2, data=[67, 0])\n",
      "midi.NoteOnEvent(tick=0, channel=2, data=[65, 100])\n",
      "midi.NoteOnEvent(tick=96, channel=2, data=[65, 0])\n",
      "midi.NoteOnEvent(tick=0, channel=2, data=[64, 100])\n",
      "midi.NoteOnEvent(tick=96, channel=2, data=[64, 0])\n",
      "midi.NoteOnEvent(tick=0, channel=2, data=[65, 100])\n",
      "midi.NoteOnEvent(tick=384, channel=2, data=[65, 0])\n",
      "midi.NoteOnEvent(tick=96, channel=2, data=[64, 100])\n",
      "midi.NoteOnEvent(tick=96, channel=2, data=[64, 0])\n",
      "midi.NoteOnEvent(tick=0, channel=2, data=[62, 100])\n",
      "midi.NoteOnEvent(tick=96, channel=2, data=[62, 0])\n",
      "midi.NoteOnEvent(tick=0, channel=2, data=[60, 100])\n",
      "midi.NoteOnEvent(tick=96, channel=2, data=[60, 0])\n",
      "midi.NoteOnEvent(tick=0, channel=2, data=[59, 100])\n",
      "midi.NoteOnEvent(tick=192, channel=2, data=[59, 0])\n",
      "midi.NoteOnEvent(tick=0, channel=2, data=[71, 100])\n",
      "midi.NoteOnEvent(tick=192, channel=2, data=[71, 0])\n",
      "midi.NoteOnEvent(tick=0, channel=2, data=[69, 100])\n",
      "midi.NoteOnEvent(tick=192, channel=2, data=[69, 0])\n",
      "midi.NoteOnEvent(tick=0, channel=2, data=[57, 100])\n",
      "midi.NoteOnEvent(tick=384, channel=2, data=[57, 0])\n",
      "midi.NoteOnEvent(tick=0, channel=2, data=[64, 100])\n",
      "midi.NoteOnEvent(tick=192, channel=2, data=[64, 0])\n",
      "midi.NoteOnEvent(tick=0, channel=2, data=[62, 100])\n",
      "midi.NoteOnEvent(tick=192, channel=2, data=[62, 0])\n",
      "midi.NoteOnEvent(tick=0, channel=2, data=[74, 100])\n",
      "midi.NoteOnEvent(tick=384, channel=2, data=[74, 0])\n",
      "midi.NoteOnEvent(tick=0, channel=2, data=[71, 100])\n",
      "midi.NoteOnEvent(tick=192, channel=2, data=[71, 0])\n",
      "midi.NoteOnEvent(tick=0, channel=2, data=[72, 100])\n",
      "midi.NoteOnEvent(tick=192, channel=2, data=[72, 0])\n",
      "midi.NoteOnEvent(tick=0, channel=2, data=[76, 100])\n",
      "midi.NoteOnEvent(tick=192, channel=2, data=[76, 0])\n",
      "midi.NoteOnEvent(tick=0, channel=2, data=[76, 100])\n",
      "midi.NoteOnEvent(tick=384, channel=2, data=[76, 0])\n",
      "midi.NoteOnEvent(tick=0, channel=2, data=[76, 100])\n",
      "midi.NoteOnEvent(tick=768, channel=2, data=[76, 0])\n",
      "midi.NoteOnEvent(tick=384, channel=2, data=[71, 100])\n",
      "midi.NoteOnEvent(tick=384, channel=2, data=[71, 0])\n",
      "midi.NoteOnEvent(tick=384, channel=2, data=[74, 100])\n",
      "midi.NoteOnEvent(tick=384, channel=2, data=[74, 0])\n",
      "midi.NoteOnEvent(tick=384, channel=2, data=[71, 100])\n",
      "midi.NoteOnEvent(tick=384, channel=2, data=[71, 0])\n",
      "midi.NoteOnEvent(tick=384, channel=2, data=[71, 100])\n",
      "midi.NoteOnEvent(tick=768, channel=2, data=[71, 0])\n",
      "midi.NoteOnEvent(tick=96, channel=2, data=[72, 100])\n",
      "midi.NoteOnEvent(tick=96, channel=2, data=[72, 0])\n",
      "midi.NoteOnEvent(tick=0, channel=2, data=[74, 100])\n",
      "midi.NoteOnEvent(tick=96, channel=2, data=[74, 0])\n",
      "midi.NoteOnEvent(tick=0, channel=2, data=[76, 100])\n",
      "midi.NoteOnEvent(tick=96, channel=2, data=[76, 0])\n",
      "midi.NoteOnEvent(tick=0, channel=2, data=[78, 100])\n",
      "midi.NoteOnEvent(tick=96, channel=2, data=[78, 0])\n",
      "midi.NoteOnEvent(tick=0, channel=2, data=[80, 100])\n",
      "midi.NoteOnEvent(tick=96, channel=2, data=[80, 0])\n",
      "midi.NoteOnEvent(tick=0, channel=2, data=[81, 100])\n",
      "midi.NoteOnEvent(tick=96, channel=2, data=[81, 0])\n",
      "midi.NoteOnEvent(tick=0, channel=2, data=[83, 100])\n",
      "midi.NoteOnEvent(tick=96, channel=2, data=[83, 0])\n",
      "midi.NoteOnEvent(tick=0, channel=2, data=[76, 100])\n",
      "midi.NoteOnEvent(tick=192, channel=2, data=[76, 0])\n",
      "midi.NoteOnEvent(tick=0, channel=2, data=[72, 100])\n",
      "midi.NoteOnEvent(tick=192, channel=2, data=[72, 0])\n",
      "midi.NoteOnEvent(tick=0, channel=2, data=[74, 100])\n",
      "midi.NoteOnEvent(tick=192, channel=2, data=[74, 0])\n",
      "midi.NoteOnEvent(tick=0, channel=2, data=[71, 100])\n",
      "midi.NoteOnEvent(tick=192, channel=2, data=[71, 0])\n",
      "midi.NoteOnEvent(tick=0, channel=2, data=[69, 100])\n",
      "midi.NoteOnEvent(tick=192, channel=2, data=[69, 0])\n",
      "midi.NoteOnEvent(tick=0, channel=2, data=[81, 100])\n",
      "midi.NoteOnEvent(tick=96, channel=2, data=[81, 0])\n",
      "midi.NoteOnEvent(tick=0, channel=2, data=[79, 100])\n",
      "midi.NoteOnEvent(tick=96, channel=2, data=[79, 0])\n",
      "midi.NoteOnEvent(tick=0, channel=2, data=[77, 100])\n",
      "midi.NoteOnEvent(tick=96, channel=2, data=[77, 0])\n",
      "midi.NoteOnEvent(tick=0, channel=2, data=[76, 100])\n",
      "midi.NoteOnEvent(tick=96, channel=2, data=[76, 0])\n",
      "midi.NoteOnEvent(tick=0, channel=2, data=[74, 100])\n",
      "midi.NoteOnEvent(tick=96, channel=2, data=[74, 0])\n",
      "midi.NoteOnEvent(tick=0, channel=2, data=[72, 100])\n",
      "midi.NoteOnEvent(tick=96, channel=2, data=[72, 0])\n",
      "midi.NoteOnEvent(tick=0, channel=2, data=[71, 100])\n",
      "midi.NoteOnEvent(tick=96, channel=2, data=[71, 0])\n",
      "midi.NoteOnEvent(tick=0, channel=2, data=[69, 100])\n",
      "midi.NoteOnEvent(tick=96, channel=2, data=[69, 0])\n",
      "midi.NoteOnEvent(tick=0, channel=2, data=[68, 100])\n",
      "midi.NoteOnEvent(tick=96, channel=2, data=[68, 0])\n",
      "midi.NoteOnEvent(tick=0, channel=2, data=[69, 100])\n",
      "midi.NoteOnEvent(tick=96, channel=2, data=[69, 0])\n",
      "midi.NoteOnEvent(tick=0, channel=2, data=[71, 100])\n",
      "midi.NoteOnEvent(tick=96, channel=2, data=[71, 0])\n",
      "midi.NoteOnEvent(tick=0, channel=2, data=[72, 100])\n",
      "midi.NoteOnEvent(tick=96, channel=2, data=[72, 0])\n",
      "midi.NoteOnEvent(tick=0, channel=2, data=[74, 100])\n",
      "midi.NoteOnEvent(tick=96, channel=2, data=[74, 0])\n",
      "midi.NoteOnEvent(tick=0, channel=2, data=[76, 100])\n",
      "midi.NoteOnEvent(tick=96, channel=2, data=[76, 0])\n",
      "midi.NoteOnEvent(tick=0, channel=2, data=[77, 100])\n",
      "midi.NoteOnEvent(tick=96, channel=2, data=[77, 0])\n",
      "midi.NoteOnEvent(tick=0, channel=2, data=[76, 100])\n",
      "midi.NoteOnEvent(tick=96, channel=2, data=[76, 0])\n",
      "midi.NoteOnEvent(tick=0, channel=2, data=[74, 100])\n",
      "midi.NoteOnEvent(tick=96, channel=2, data=[74, 0])\n",
      "midi.NoteOnEvent(tick=0, channel=2, data=[72, 100])\n",
      "midi.NoteOnEvent(tick=96, channel=2, data=[72, 0])\n",
      "midi.NoteOnEvent(tick=0, channel=2, data=[71, 100])\n",
      "midi.NoteOnEvent(tick=96, channel=2, data=[71, 0])\n",
      "midi.NoteOnEvent(tick=0, channel=2, data=[69, 100])\n",
      "midi.NoteOnEvent(tick=96, channel=2, data=[69, 0])\n",
      "midi.NoteOnEvent(tick=0, channel=2, data=[68, 100])\n",
      "midi.NoteOnEvent(tick=96, channel=2, data=[68, 0])\n",
      "midi.NoteOnEvent(tick=0, channel=2, data=[69, 100])\n",
      "midi.NoteOnEvent(tick=96, channel=2, data=[69, 0])\n",
      "midi.NoteOnEvent(tick=0, channel=2, data=[74, 100])\n",
      "midi.NoteOnEvent(tick=192, channel=2, data=[74, 0])\n",
      "midi.NoteOnEvent(tick=0, channel=2, data=[69, 100])\n",
      "midi.NoteOnEvent(tick=192, channel=2, data=[69, 0])\n",
      "midi.NoteOnEvent(tick=0, channel=2, data=[69, 100])\n",
      "midi.NoteOnEvent(tick=192, channel=2, data=[69, 0])\n",
      "midi.NoteOnEvent(tick=0, channel=2, data=[68, 100])\n",
      "midi.NoteOnEvent(tick=192, channel=2, data=[68, 0])\n",
      "midi.NoteOnEvent(tick=0, channel=2, data=[69, 100])\n",
      "midi.NoteOnEvent(tick=576, channel=2, data=[69, 0])\n",
      "midi.EndOfTrackEvent(tick=0, data=[])\n",
      "midi.PortEvent(tick=0, data=[0])\n",
      "midi.TrackNameEvent(tick=0, text='Viola', data=[86, 105, 111, 108, 97])\n",
      "midi.ProgramChangeEvent(tick=0, channel=3, data=[41])\n",
      "midi.ControlChangeEvent(tick=0, channel=3, data=[7, 105])\n",
      "midi.ControlChangeEvent(tick=0, channel=3, data=[10, 44])\n",
      "midi.NoteOnEvent(tick=576, channel=3, data=[69, 100])\n",
      "midi.NoteOnEvent(tick=192, channel=3, data=[69, 0])\n",
      "midi.NoteOnEvent(tick=0, channel=3, data=[72, 100])\n",
      "midi.NoteOnEvent(tick=384, channel=3, data=[72, 0])\n",
      "midi.NoteOnEvent(tick=192, channel=3, data=[69, 100])\n",
      "midi.NoteOnEvent(tick=192, channel=3, data=[69, 0])\n",
      "midi.NoteOnEvent(tick=0, channel=3, data=[62, 100])\n",
      "midi.NoteOnEvent(tick=384, channel=3, data=[62, 0])\n",
      "midi.NoteOnEvent(tick=192, channel=3, data=[62, 100])\n",
      "midi.NoteOnEvent(tick=192, channel=3, data=[62, 0])\n",
      "midi.NoteOnEvent(tick=0, channel=3, data=[57, 100])\n",
      "midi.NoteOnEvent(tick=192, channel=3, data=[57, 0])\n",
      "midi.NoteOnEvent(tick=0, channel=3, data=[64, 100])\n",
      "midi.NoteOnEvent(tick=192, channel=3, data=[64, 0])\n",
      "midi.NoteOnEvent(tick=0, channel=3, data=[56, 100])\n",
      "midi.NoteOnEvent(tick=192, channel=3, data=[56, 0])\n",
      "midi.NoteOnEvent(tick=0, channel=3, data=[64, 100])\n",
      "midi.NoteOnEvent(tick=192, channel=3, data=[64, 0])\n",
      "midi.NoteOnEvent(tick=0, channel=3, data=[64, 100])\n",
      "midi.NoteOnEvent(tick=192, channel=3, data=[64, 0])\n",
      "midi.NoteOnEvent(tick=0, channel=3, data=[60, 100])\n",
      "midi.NoteOnEvent(tick=192, channel=3, data=[60, 0])\n",
      "midi.NoteOnEvent(tick=192, channel=3, data=[60, 100])\n",
      "midi.NoteOnEvent(tick=192, channel=3, data=[60, 0])\n",
      "midi.NoteOnEvent(tick=0, channel=3, data=[59, 100])\n",
      "midi.NoteOnEvent(tick=192, channel=3, data=[59, 0])\n",
      "midi.NoteOnEvent(tick=192, channel=3, data=[57, 100])\n",
      "midi.NoteOnEvent(tick=192, channel=3, data=[57, 0])\n",
      "midi.NoteOnEvent(tick=192, channel=3, data=[62, 100])\n",
      "midi.NoteOnEvent(tick=192, channel=3, data=[62, 0])\n",
      "midi.NoteOnEvent(tick=192, channel=3, data=[60, 100])\n",
      "midi.NoteOnEvent(tick=192, channel=3, data=[60, 0])\n",
      "midi.NoteOnEvent(tick=192, channel=3, data=[57, 100])\n",
      "midi.NoteOnEvent(tick=192, channel=3, data=[57, 0])\n",
      "midi.NoteOnEvent(tick=0, channel=3, data=[59, 100])\n",
      "midi.NoteOnEvent(tick=288, channel=3, data=[59, 0])\n",
      "midi.NoteOnEvent(tick=0, channel=3, data=[57, 100])\n",
      "midi.NoteOnEvent(tick=96, channel=3, data=[57, 0])\n",
      "midi.NoteOnEvent(tick=0, channel=3, data=[56, 100])\n",
      "midi.NoteOnEvent(tick=96, channel=3, data=[56, 0])\n",
      "midi.NoteOnEvent(tick=0, channel=3, data=[57, 100])\n",
      "midi.NoteOnEvent(tick=96, channel=3, data=[57, 0])\n",
      "midi.NoteOnEvent(tick=0, channel=3, data=[59, 100])\n",
      "midi.NoteOnEvent(tick=192, channel=3, data=[59, 0])\n",
      "midi.NoteOnEvent(tick=0, channel=3, data=[71, 100])\n",
      "midi.NoteOnEvent(tick=192, channel=3, data=[71, 0])\n",
      "midi.NoteOnEvent(tick=0, channel=3, data=[68, 100])\n",
      "midi.NoteOnEvent(tick=192, channel=3, data=[68, 0])\n",
      "midi.NoteOnEvent(tick=0, channel=3, data=[64, 100])\n",
      "midi.NoteOnEvent(tick=384, channel=3, data=[64, 0])\n",
      "midi.NoteOnEvent(tick=0, channel=3, data=[69, 100])\n",
      "midi.NoteOnEvent(tick=96, channel=3, data=[69, 0])\n",
      "midi.NoteOnEvent(tick=0, channel=3, data=[71, 100])\n",
      "midi.NoteOnEvent(tick=96, channel=3, data=[71, 0])\n",
      "midi.NoteOnEvent(tick=0, channel=3, data=[72, 100])\n",
      "midi.NoteOnEvent(tick=192, channel=3, data=[72, 0])\n",
      "midi.NoteOnEvent(tick=0, channel=3, data=[60, 100])\n",
      "midi.NoteOnEvent(tick=192, channel=3, data=[60, 0])\n",
      "midi.NoteOnEvent(tick=0, channel=3, data=[57, 100])\n",
      "midi.NoteOnEvent(tick=192, channel=3, data=[57, 0])\n",
      "midi.NoteOnEvent(tick=0, channel=3, data=[69, 100])\n",
      "midi.NoteOnEvent(tick=192, channel=3, data=[69, 0])\n",
      "midi.NoteOnEvent(tick=0, channel=3, data=[66, 100])\n",
      "midi.NoteOnEvent(tick=192, channel=3, data=[66, 0])\n",
      "midi.NoteOnEvent(tick=0, channel=3, data=[62, 100])\n",
      "midi.NoteOnEvent(tick=384, channel=3, data=[62, 0])\n",
      "midi.NoteOnEvent(tick=0, channel=3, data=[67, 100])\n",
      "midi.NoteOnEvent(tick=96, channel=3, data=[67, 0])\n",
      "midi.NoteOnEvent(tick=0, channel=3, data=[69, 100])\n",
      "midi.NoteOnEvent(tick=96, channel=3, data=[69, 0])\n",
      "midi.NoteOnEvent(tick=0, channel=3, data=[71, 100])\n",
      "midi.NoteOnEvent(tick=192, channel=3, data=[71, 0])\n",
      "midi.NoteOnEvent(tick=0, channel=3, data=[59, 100])\n",
      "midi.NoteOnEvent(tick=192, channel=3, data=[59, 0])\n",
      "midi.NoteOnEvent(tick=0, channel=3, data=[55, 100])\n",
      "midi.NoteOnEvent(tick=192, channel=3, data=[55, 0])\n",
      "midi.NoteOnEvent(tick=0, channel=3, data=[64, 100])\n",
      "midi.NoteOnEvent(tick=192, channel=3, data=[64, 0])\n",
      "midi.NoteOnEvent(tick=0, channel=3, data=[67, 100])\n",
      "midi.NoteOnEvent(tick=192, channel=3, data=[67, 0])\n",
      "midi.NoteOnEvent(tick=0, channel=3, data=[72, 100])\n",
      "midi.NoteOnEvent(tick=192, channel=3, data=[72, 0])\n",
      "midi.NoteOnEvent(tick=0, channel=3, data=[66, 100])\n",
      "midi.NoteOnEvent(tick=192, channel=3, data=[66, 0])\n",
      "midi.NoteOnEvent(tick=0, channel=3, data=[69, 100])\n",
      "midi.NoteOnEvent(tick=192, channel=3, data=[69, 0])\n",
      "midi.NoteOnEvent(tick=0, channel=3, data=[63, 100])\n",
      "midi.NoteOnEvent(tick=192, channel=3, data=[63, 0])\n",
      "midi.NoteOnEvent(tick=0, channel=3, data=[66, 100])\n",
      "midi.NoteOnEvent(tick=384, channel=3, data=[66, 0])\n",
      "midi.NoteOnEvent(tick=0, channel=3, data=[59, 100])\n",
      "midi.NoteOnEvent(tick=192, channel=3, data=[59, 0])\n",
      "midi.NoteOnEvent(tick=0, channel=3, data=[71, 100])\n",
      "midi.NoteOnEvent(tick=192, channel=3, data=[71, 0])\n",
      "midi.NoteOnEvent(tick=0, channel=3, data=[67, 100])\n",
      "midi.NoteOnEvent(tick=192, channel=3, data=[67, 0])\n",
      "midi.NoteOnEvent(tick=0, channel=3, data=[64, 100])\n",
      "midi.NoteOnEvent(tick=192, channel=3, data=[64, 0])\n",
      "midi.NoteOnEvent(tick=0, channel=3, data=[67, 100])\n",
      "midi.NoteOnEvent(tick=192, channel=3, data=[67, 0])\n",
      "midi.NoteOnEvent(tick=0, channel=3, data=[69, 100])\n",
      "midi.NoteOnEvent(tick=96, channel=3, data=[69, 0])\n",
      "midi.NoteOnEvent(tick=0, channel=3, data=[71, 100])\n",
      "midi.NoteOnEvent(tick=96, channel=3, data=[71, 0])\n",
      "midi.NoteOnEvent(tick=0, channel=3, data=[69, 100])\n",
      "midi.NoteOnEvent(tick=96, channel=3, data=[69, 0])\n",
      "midi.NoteOnEvent(tick=0, channel=3, data=[67, 100])\n",
      "midi.NoteOnEvent(tick=96, channel=3, data=[67, 0])\n",
      "midi.NoteOnEvent(tick=0, channel=3, data=[66, 100])\n",
      "midi.NoteOnEvent(tick=192, channel=3, data=[66, 0])\n",
      "midi.NoteOnEvent(tick=0, channel=3, data=[69, 100])\n",
      "midi.NoteOnEvent(tick=192, channel=3, data=[69, 0])\n",
      "midi.NoteOnEvent(tick=0, channel=3, data=[67, 100])\n",
      "midi.NoteOnEvent(tick=192, channel=3, data=[67, 0])\n",
      "midi.NoteOnEvent(tick=0, channel=3, data=[71, 100])\n",
      "midi.NoteOnEvent(tick=192, channel=3, data=[71, 0])\n",
      "midi.NoteOnEvent(tick=0, channel=3, data=[71, 100])\n",
      "midi.NoteOnEvent(tick=384, channel=3, data=[71, 0])\n",
      "midi.NoteOnEvent(tick=0, channel=3, data=[71, 100])\n",
      "midi.NoteOnEvent(tick=384, channel=3, data=[71, 0])\n",
      "midi.NoteOnEvent(tick=0, channel=3, data=[72, 100])\n",
      "midi.NoteOnEvent(tick=384, channel=3, data=[72, 0])\n",
      "midi.NoteOnEvent(tick=192, channel=3, data=[71, 100])\n",
      "midi.NoteOnEvent(tick=192, channel=3, data=[71, 0])\n",
      "midi.NoteOnEvent(tick=0, channel=3, data=[59, 100])\n",
      "midi.NoteOnEvent(tick=192, channel=3, data=[59, 0])\n",
      "midi.NoteOnEvent(tick=0, channel=3, data=[60, 100])\n",
      "midi.NoteOnEvent(tick=192, channel=3, data=[60, 0])\n",
      "midi.NoteOnEvent(tick=0, channel=3, data=[60, 100])\n",
      "midi.NoteOnEvent(tick=192, channel=3, data=[60, 0])\n",
      "midi.NoteOnEvent(tick=0, channel=3, data=[59, 100])\n",
      "midi.NoteOnEvent(tick=192, channel=3, data=[59, 0])\n",
      "midi.NoteOnEvent(tick=0, channel=3, data=[59, 100])\n",
      "midi.NoteOnEvent(tick=192, channel=3, data=[59, 0])\n",
      "midi.NoteOnEvent(tick=0, channel=3, data=[57, 100])\n",
      "midi.NoteOnEvent(tick=192, channel=3, data=[57, 0])\n",
      "midi.NoteOnEvent(tick=192, channel=3, data=[64, 100])\n",
      "midi.NoteOnEvent(tick=192, channel=3, data=[64, 0])\n",
      "midi.NoteOnEvent(tick=0, channel=3, data=[66, 100])\n",
      "midi.NoteOnEvent(tick=192, channel=3, data=[66, 0])\n",
      "midi.NoteOnEvent(tick=0, channel=3, data=[69, 100])\n",
      "midi.NoteOnEvent(tick=192, channel=3, data=[69, 0])\n",
      "midi.NoteOnEvent(tick=192, channel=3, data=[66, 100])\n",
      "midi.NoteOnEvent(tick=192, channel=3, data=[66, 0])\n",
      "midi.NoteOnEvent(tick=0, channel=3, data=[63, 100])\n",
      "midi.NoteOnEvent(tick=192, channel=3, data=[63, 0])\n",
      "midi.NoteOnEvent(tick=0, channel=3, data=[66, 100])\n",
      "midi.NoteOnEvent(tick=192, channel=3, data=[66, 0])\n",
      "midi.NoteOnEvent(tick=192, channel=3, data=[57, 100])\n",
      "midi.NoteOnEvent(tick=384, channel=3, data=[57, 0])\n",
      "midi.NoteOnEvent(tick=0, channel=3, data=[64, 100])\n",
      "midi.NoteOnEvent(tick=192, channel=3, data=[64, 0])\n",
      "midi.NoteOnEvent(tick=0, channel=3, data=[64, 100])\n",
      "midi.NoteOnEvent(tick=192, channel=3, data=[64, 0])\n",
      "midi.NoteOnEvent(tick=0, channel=3, data=[59, 100])\n",
      "midi.NoteOnEvent(tick=192, channel=3, data=[59, 0])\n",
      "midi.NoteOnEvent(tick=0, channel=3, data=[56, 100])\n",
      "midi.NoteOnEvent(tick=384, channel=3, data=[56, 0])\n",
      "midi.NoteOnEvent(tick=576, channel=3, data=[69, 100])\n",
      "midi.NoteOnEvent(tick=192, channel=3, data=[69, 0])\n",
      "midi.NoteOnEvent(tick=0, channel=3, data=[72, 100])\n",
      "midi.NoteOnEvent(tick=192, channel=3, data=[72, 0])\n",
      "midi.NoteOnEvent(tick=384, channel=3, data=[71, 100])\n",
      "midi.NoteOnEvent(tick=96, channel=3, data=[71, 0])\n",
      "midi.NoteOnEvent(tick=0, channel=3, data=[72, 100])\n",
      "midi.NoteOnEvent(tick=96, channel=3, data=[72, 0])\n",
      "midi.NoteOnEvent(tick=0, channel=3, data=[74, 100])\n",
      "midi.NoteOnEvent(tick=192, channel=3, data=[74, 0])\n",
      "midi.NoteOnEvent(tick=384, channel=3, data=[71, 100])\n",
      "midi.NoteOnEvent(tick=192, channel=3, data=[71, 0])\n",
      "midi.NoteOnEvent(tick=0, channel=3, data=[68, 100])\n",
      "midi.NoteOnEvent(tick=192, channel=3, data=[68, 0])\n",
      "midi.NoteOnEvent(tick=384, channel=3, data=[72, 100])\n",
      "midi.NoteOnEvent(tick=96, channel=3, data=[72, 0])\n",
      "midi.NoteOnEvent(tick=0, channel=3, data=[74, 100])\n",
      "midi.NoteOnEvent(tick=96, channel=3, data=[74, 0])\n",
      "midi.NoteOnEvent(tick=0, channel=3, data=[76, 100])\n",
      "midi.NoteOnEvent(tick=192, channel=3, data=[76, 0])\n",
      "midi.NoteOnEvent(tick=3072, channel=3, data=[68, 100])\n",
      "midi.NoteOnEvent(tick=192, channel=3, data=[68, 0])\n",
      "midi.NoteOnEvent(tick=0, channel=3, data=[64, 100])\n",
      "midi.NoteOnEvent(tick=384, channel=3, data=[64, 0])\n",
      "midi.NoteOnEvent(tick=192, channel=3, data=[69, 100])\n",
      "midi.NoteOnEvent(tick=192, channel=3, data=[69, 0])\n",
      "midi.NoteOnEvent(tick=0, channel=3, data=[62, 100])\n",
      "midi.NoteOnEvent(tick=384, channel=3, data=[62, 0])\n",
      "midi.NoteOnEvent(tick=192, channel=3, data=[65, 100])\n",
      "midi.NoteOnEvent(tick=192, channel=3, data=[65, 0])\n",
      "midi.NoteOnEvent(tick=0, channel=3, data=[62, 100])\n",
      "midi.NoteOnEvent(tick=384, channel=3, data=[62, 0])\n",
      "midi.NoteOnEvent(tick=192, channel=3, data=[67, 100])\n",
      "midi.NoteOnEvent(tick=192, channel=3, data=[67, 0])\n",
      "midi.NoteOnEvent(tick=0, channel=3, data=[60, 100])\n",
      "midi.NoteOnEvent(tick=384, channel=3, data=[60, 0])\n",
      "midi.NoteOnEvent(tick=192, channel=3, data=[64, 100])\n",
      "midi.NoteOnEvent(tick=192, channel=3, data=[64, 0])\n",
      "midi.NoteOnEvent(tick=0, channel=3, data=[60, 100])\n",
      "midi.NoteOnEvent(tick=384, channel=3, data=[60, 0])\n",
      "midi.NoteOnEvent(tick=192, channel=3, data=[65, 100])\n",
      "midi.NoteOnEvent(tick=192, channel=3, data=[65, 0])\n",
      "midi.NoteOnEvent(tick=0, channel=3, data=[59, 100])\n",
      "midi.NoteOnEvent(tick=384, channel=3, data=[59, 0])\n",
      "midi.NoteOnEvent(tick=192, channel=3, data=[62, 100])\n",
      "midi.NoteOnEvent(tick=192, channel=3, data=[62, 0])\n",
      "midi.NoteOnEvent(tick=0, channel=3, data=[59, 100])\n",
      "midi.NoteOnEvent(tick=384, channel=3, data=[59, 0])\n",
      "midi.NoteOnEvent(tick=192, channel=3, data=[68, 100])\n",
      "midi.NoteOnEvent(tick=192, channel=3, data=[68, 0])\n",
      "midi.NoteOnEvent(tick=0, channel=3, data=[64, 100])\n",
      "midi.NoteOnEvent(tick=384, channel=3, data=[64, 0])\n",
      "midi.NoteOnEvent(tick=192, channel=3, data=[72, 100])\n",
      "midi.NoteOnEvent(tick=192, channel=3, data=[72, 0])\n",
      "midi.NoteOnEvent(tick=0, channel=3, data=[74, 100])\n",
      "midi.NoteOnEvent(tick=384, channel=3, data=[74, 0])\n",
      "midi.NoteOnEvent(tick=192, channel=3, data=[71, 100])\n",
      "midi.NoteOnEvent(tick=192, channel=3, data=[71, 0])\n",
      "midi.NoteOnEvent(tick=0, channel=3, data=[64, 100])\n",
      "midi.NoteOnEvent(tick=192, channel=3, data=[64, 0])\n",
      "midi.NoteOnEvent(tick=0, channel=3, data=[64, 100])\n",
      "midi.NoteOnEvent(tick=192, channel=3, data=[64, 0])\n",
      "midi.NoteOnEvent(tick=0, channel=3, data=[64, 100])\n",
      "midi.NoteOnEvent(tick=192, channel=3, data=[64, 0])\n",
      "midi.NoteOnEvent(tick=0, channel=3, data=[64, 100])\n",
      "midi.NoteOnEvent(tick=192, channel=3, data=[64, 0])\n",
      "midi.NoteOnEvent(tick=0, channel=3, data=[64, 100])\n",
      "midi.NoteOnEvent(tick=192, channel=3, data=[64, 0])\n",
      "midi.NoteOnEvent(tick=0, channel=3, data=[60, 100])\n",
      "midi.NoteOnEvent(tick=192, channel=3, data=[60, 0])\n",
      "midi.NoteOnEvent(tick=192, channel=3, data=[64, 100])\n",
      "midi.NoteOnEvent(tick=192, channel=3, data=[64, 0])\n",
      "midi.NoteOnEvent(tick=0, channel=3, data=[69, 100])\n",
      "midi.NoteOnEvent(tick=192, channel=3, data=[69, 0])\n",
      "midi.NoteOnEvent(tick=0, channel=3, data=[69, 100])\n",
      "midi.NoteOnEvent(tick=192, channel=3, data=[69, 0])\n",
      "midi.NoteOnEvent(tick=0, channel=3, data=[69, 100])\n",
      "midi.NoteOnEvent(tick=192, channel=3, data=[69, 0])\n",
      "midi.NoteOnEvent(tick=0, channel=3, data=[69, 100])\n",
      "midi.NoteOnEvent(tick=192, channel=3, data=[69, 0])\n",
      "midi.NoteOnEvent(tick=0, channel=3, data=[67, 100])\n",
      "midi.NoteOnEvent(tick=192, channel=3, data=[67, 0])\n",
      "midi.NoteOnEvent(tick=0, channel=3, data=[67, 100])\n",
      "midi.NoteOnEvent(tick=192, channel=3, data=[67, 0])\n",
      "midi.NoteOnEvent(tick=0, channel=3, data=[67, 100])\n",
      "midi.NoteOnEvent(tick=192, channel=3, data=[67, 0])\n",
      "midi.NoteOnEvent(tick=0, channel=3, data=[67, 100])\n",
      "midi.NoteOnEvent(tick=192, channel=3, data=[67, 0])\n",
      "midi.NoteOnEvent(tick=0, channel=3, data=[67, 100])\n",
      "midi.NoteOnEvent(tick=192, channel=3, data=[67, 0])\n",
      "midi.NoteOnEvent(tick=0, channel=3, data=[67, 100])\n",
      "midi.NoteOnEvent(tick=192, channel=3, data=[67, 0])\n",
      "midi.NoteOnEvent(tick=0, channel=3, data=[67, 100])\n",
      "midi.NoteOnEvent(tick=192, channel=3, data=[67, 0])\n",
      "midi.NoteOnEvent(tick=0, channel=3, data=[67, 100])\n",
      "midi.NoteOnEvent(tick=192, channel=3, data=[67, 0])\n",
      "midi.NoteOnEvent(tick=0, channel=3, data=[65, 100])\n",
      "midi.NoteOnEvent(tick=192, channel=3, data=[65, 0])\n",
      "midi.NoteOnEvent(tick=0, channel=3, data=[65, 100])\n",
      "midi.NoteOnEvent(tick=192, channel=3, data=[65, 0])\n",
      "midi.NoteOnEvent(tick=0, channel=3, data=[65, 100])\n",
      "midi.NoteOnEvent(tick=192, channel=3, data=[65, 0])\n",
      "midi.NoteOnEvent(tick=0, channel=3, data=[65, 100])\n",
      "midi.NoteOnEvent(tick=192, channel=3, data=[65, 0])\n",
      "midi.NoteOnEvent(tick=0, channel=3, data=[65, 100])\n",
      "midi.NoteOnEvent(tick=192, channel=3, data=[65, 0])\n",
      "midi.NoteOnEvent(tick=0, channel=3, data=[65, 100])\n",
      "midi.NoteOnEvent(tick=192, channel=3, data=[65, 0])\n",
      "midi.NoteOnEvent(tick=0, channel=3, data=[65, 100])\n",
      "midi.NoteOnEvent(tick=192, channel=3, data=[65, 0])\n",
      "midi.NoteOnEvent(tick=0, channel=3, data=[65, 100])\n",
      "midi.NoteOnEvent(tick=192, channel=3, data=[65, 0])\n",
      "midi.NoteOnEvent(tick=0, channel=3, data=[64, 100])\n",
      "midi.NoteOnEvent(tick=192, channel=3, data=[64, 0])\n",
      "midi.NoteOnEvent(tick=1920, channel=3, data=[71, 100])\n",
      "midi.NoteOnEvent(tick=192, channel=3, data=[71, 0])\n",
      "midi.NoteOnEvent(tick=0, channel=3, data=[72, 100])\n",
      "midi.NoteOnEvent(tick=384, channel=3, data=[72, 0])\n",
      "midi.NoteOnEvent(tick=192, channel=3, data=[72, 100])\n",
      "midi.NoteOnEvent(tick=192, channel=3, data=[72, 0])\n",
      "midi.NoteOnEvent(tick=0, channel=3, data=[72, 100])\n",
      "midi.NoteOnEvent(tick=384, channel=3, data=[72, 0])\n",
      "midi.NoteOnEvent(tick=192, channel=3, data=[74, 100])\n",
      "midi.NoteOnEvent(tick=192, channel=3, data=[74, 0])\n",
      "midi.NoteOnEvent(tick=0, channel=3, data=[67, 100])\n",
      "midi.NoteOnEvent(tick=192, channel=3, data=[67, 0])\n",
      "midi.NoteOnEvent(tick=0, channel=3, data=[67, 100])\n",
      "midi.NoteOnEvent(tick=192, channel=3, data=[67, 0])\n",
      "midi.NoteOnEvent(tick=0, channel=3, data=[67, 100])\n",
      "midi.NoteOnEvent(tick=192, channel=3, data=[67, 0])\n",
      "midi.NoteOnEvent(tick=0, channel=3, data=[67, 100])\n",
      "midi.NoteOnEvent(tick=192, channel=3, data=[67, 0])\n",
      "midi.NoteOnEvent(tick=0, channel=3, data=[67, 100])\n",
      "midi.NoteOnEvent(tick=192, channel=3, data=[67, 0])\n",
      "midi.NoteOnEvent(tick=0, channel=3, data=[64, 100])\n",
      "midi.NoteOnEvent(tick=192, channel=3, data=[64, 0])\n",
      "midi.NoteOnEvent(tick=192, channel=3, data=[64, 100])\n",
      "midi.NoteOnEvent(tick=192, channel=3, data=[64, 0])\n",
      "midi.NoteOnEvent(tick=0, channel=3, data=[62, 100])\n",
      "midi.NoteOnEvent(tick=192, channel=3, data=[62, 0])\n",
      "midi.NoteOnEvent(tick=192, channel=3, data=[60, 100])\n",
      "midi.NoteOnEvent(tick=192, channel=3, data=[60, 0])\n",
      "midi.NoteOnEvent(tick=192, channel=3, data=[65, 100])\n",
      "midi.NoteOnEvent(tick=192, channel=3, data=[65, 0])\n",
      "midi.NoteOnEvent(tick=192, channel=3, data=[64, 100])\n",
      "midi.NoteOnEvent(tick=192, channel=3, data=[64, 0])\n",
      "midi.NoteOnEvent(tick=192, channel=3, data=[60, 100])\n",
      "midi.NoteOnEvent(tick=192, channel=3, data=[60, 0])\n",
      "midi.NoteOnEvent(tick=0, channel=3, data=[67, 100])\n",
      "midi.NoteOnEvent(tick=192, channel=3, data=[67, 0])\n",
      "midi.NoteOnEvent(tick=0, channel=3, data=[60, 100])\n",
      "midi.NoteOnEvent(tick=192, channel=3, data=[60, 0])\n",
      "midi.NoteOnEvent(tick=0, channel=3, data=[65, 100])\n",
      "midi.NoteOnEvent(tick=192, channel=3, data=[65, 0])\n",
      "midi.NoteOnEvent(tick=0, channel=3, data=[62, 100])\n",
      "midi.NoteOnEvent(tick=192, channel=3, data=[62, 0])\n",
      "midi.NoteOnEvent(tick=0, channel=3, data=[59, 100])\n",
      "midi.NoteOnEvent(tick=192, channel=3, data=[59, 0])\n",
      "midi.NoteOnEvent(tick=0, channel=3, data=[62, 100])\n",
      "midi.NoteOnEvent(tick=192, channel=3, data=[62, 0])\n",
      "midi.NoteOnEvent(tick=0, channel=3, data=[67, 100])\n",
      "midi.NoteOnEvent(tick=384, channel=3, data=[67, 0])\n",
      "midi.NoteOnEvent(tick=0, channel=3, data=[69, 100])\n",
      "midi.NoteOnEvent(tick=96, channel=3, data=[69, 0])\n",
      "midi.NoteOnEvent(tick=0, channel=3, data=[71, 100])\n",
      "midi.NoteOnEvent(tick=96, channel=3, data=[71, 0])\n",
      "midi.NoteOnEvent(tick=0, channel=3, data=[72, 100])\n",
      "midi.NoteOnEvent(tick=192, channel=3, data=[72, 0])\n",
      "midi.NoteOnEvent(tick=0, channel=3, data=[60, 100])\n",
      "midi.NoteOnEvent(tick=192, channel=3, data=[60, 0])\n",
      "midi.NoteOnEvent(tick=0, channel=3, data=[57, 100])\n",
      "midi.NoteOnEvent(tick=192, channel=3, data=[57, 0])\n",
      "midi.NoteOnEvent(tick=0, channel=3, data=[69, 100])\n",
      "midi.NoteOnEvent(tick=192, channel=3, data=[69, 0])\n",
      "midi.NoteOnEvent(tick=1344, channel=3, data=[57, 100])\n",
      "midi.NoteOnEvent(tick=192, channel=3, data=[57, 0])\n",
      "midi.NoteOnEvent(tick=0, channel=3, data=[62, 100])\n",
      "midi.NoteOnEvent(tick=192, channel=3, data=[62, 0])\n",
      "midi.NoteOnEvent(tick=0, channel=3, data=[66, 100])\n",
      "midi.NoteOnEvent(tick=384, channel=3, data=[66, 0])\n",
      "midi.NoteOnEvent(tick=0, channel=3, data=[67, 100])\n",
      "midi.NoteOnEvent(tick=96, channel=3, data=[67, 0])\n",
      "midi.NoteOnEvent(tick=0, channel=3, data=[69, 100])\n",
      "midi.NoteOnEvent(tick=96, channel=3, data=[69, 0])\n",
      "midi.NoteOnEvent(tick=0, channel=3, data=[71, 100])\n",
      "midi.NoteOnEvent(tick=192, channel=3, data=[71, 0])\n",
      "midi.NoteOnEvent(tick=0, channel=3, data=[59, 100])\n",
      "midi.NoteOnEvent(tick=192, channel=3, data=[59, 0])\n",
      "midi.NoteOnEvent(tick=0, channel=3, data=[55, 100])\n",
      "midi.NoteOnEvent(tick=192, channel=3, data=[55, 0])\n",
      "midi.NoteOnEvent(tick=0, channel=3, data=[67, 100])\n",
      "midi.NoteOnEvent(tick=192, channel=3, data=[67, 0])\n",
      "midi.NoteOnEvent(tick=1344, channel=3, data=[64, 100])\n",
      "midi.NoteOnEvent(tick=384, channel=3, data=[64, 0])\n",
      "midi.NoteOnEvent(tick=0, channel=3, data=[66, 100])\n",
      "midi.NoteOnEvent(tick=96, channel=3, data=[66, 0])\n",
      "midi.NoteOnEvent(tick=0, channel=3, data=[67, 100])\n",
      "midi.NoteOnEvent(tick=96, channel=3, data=[67, 0])\n",
      "midi.NoteOnEvent(tick=0, channel=3, data=[69, 100])\n",
      "midi.NoteOnEvent(tick=192, channel=3, data=[69, 0])\n",
      "midi.NoteOnEvent(tick=0, channel=3, data=[72, 100])\n",
      "midi.NoteOnEvent(tick=192, channel=3, data=[72, 0])\n",
      "midi.NoteOnEvent(tick=0, channel=3, data=[63, 100])\n",
      "midi.NoteOnEvent(tick=192, channel=3, data=[63, 0])\n",
      "midi.NoteOnEvent(tick=0, channel=3, data=[66, 100])\n",
      "midi.NoteOnEvent(tick=384, channel=3, data=[66, 0])\n",
      "midi.NoteOnEvent(tick=0, channel=3, data=[59, 100])\n",
      "midi.NoteOnEvent(tick=192, channel=3, data=[59, 0])\n",
      "midi.NoteOnEvent(tick=0, channel=3, data=[69, 100])\n",
      "midi.NoteOnEvent(tick=192, channel=3, data=[69, 0])\n",
      "midi.NoteOnEvent(tick=0, channel=3, data=[67, 100])\n",
      "midi.NoteOnEvent(tick=192, channel=3, data=[67, 0])\n",
      "midi.NoteOnEvent(tick=0, channel=3, data=[64, 100])\n",
      "midi.NoteOnEvent(tick=192, channel=3, data=[64, 0])\n",
      "midi.NoteOnEvent(tick=0, channel=3, data=[67, 100])\n",
      "midi.NoteOnEvent(tick=192, channel=3, data=[67, 0])\n",
      "midi.NoteOnEvent(tick=0, channel=3, data=[69, 100])\n",
      "midi.NoteOnEvent(tick=96, channel=3, data=[69, 0])\n",
      "midi.NoteOnEvent(tick=0, channel=3, data=[71, 100])\n",
      "midi.NoteOnEvent(tick=96, channel=3, data=[71, 0])\n",
      "midi.NoteOnEvent(tick=0, channel=3, data=[69, 100])\n",
      "midi.NoteOnEvent(tick=96, channel=3, data=[69, 0])\n",
      "midi.NoteOnEvent(tick=0, channel=3, data=[67, 100])\n",
      "midi.NoteOnEvent(tick=96, channel=3, data=[67, 0])\n",
      "midi.NoteOnEvent(tick=0, channel=3, data=[66, 100])\n",
      "midi.NoteOnEvent(tick=192, channel=3, data=[66, 0])\n",
      "midi.NoteOnEvent(tick=0, channel=3, data=[69, 100])\n",
      "midi.NoteOnEvent(tick=192, channel=3, data=[69, 0])\n",
      "midi.NoteOnEvent(tick=0, channel=3, data=[67, 100])\n",
      "midi.NoteOnEvent(tick=192, channel=3, data=[67, 0])\n",
      "midi.NoteOnEvent(tick=0, channel=3, data=[72, 100])\n",
      "midi.NoteOnEvent(tick=192, channel=3, data=[72, 0])\n",
      "midi.NoteOnEvent(tick=0, channel=3, data=[71, 100])\n",
      "midi.NoteOnEvent(tick=384, channel=3, data=[71, 0])\n",
      "midi.NoteOnEvent(tick=0, channel=3, data=[71, 100])\n",
      "midi.NoteOnEvent(tick=768, channel=3, data=[71, 0])\n",
      "midi.NoteOnEvent(tick=384, channel=3, data=[72, 100])\n",
      "midi.NoteOnEvent(tick=384, channel=3, data=[72, 0])\n",
      "midi.NoteOnEvent(tick=384, channel=3, data=[66, 100])\n",
      "midi.NoteOnEvent(tick=384, channel=3, data=[66, 0])\n",
      "midi.NoteOnEvent(tick=384, channel=3, data=[72, 100])\n",
      "midi.NoteOnEvent(tick=384, channel=3, data=[72, 0])\n",
      "midi.NoteOnEvent(tick=384, channel=3, data=[63, 100])\n",
      "midi.NoteOnEvent(tick=768, channel=3, data=[63, 0])\n",
      "midi.NoteOnEvent(tick=192, channel=3, data=[64, 100])\n",
      "midi.NoteOnEvent(tick=384, channel=3, data=[64, 0])\n",
      "midi.NoteOnEvent(tick=0, channel=3, data=[72, 100])\n",
      "midi.NoteOnEvent(tick=192, channel=3, data=[72, 0])\n",
      "midi.NoteOnEvent(tick=0, channel=3, data=[71, 100])\n",
      "midi.NoteOnEvent(tick=192, channel=3, data=[71, 0])\n",
      "midi.NoteOnEvent(tick=0, channel=3, data=[72, 100])\n",
      "midi.NoteOnEvent(tick=192, channel=3, data=[72, 0])\n",
      "midi.NoteOnEvent(tick=0, channel=3, data=[72, 100])\n",
      "midi.NoteOnEvent(tick=192, channel=3, data=[72, 0])\n",
      "midi.NoteOnEvent(tick=0, channel=3, data=[71, 100])\n",
      "midi.NoteOnEvent(tick=192, channel=3, data=[71, 0])\n",
      "midi.NoteOnEvent(tick=0, channel=3, data=[71, 100])\n",
      "midi.NoteOnEvent(tick=192, channel=3, data=[71, 0])\n",
      "midi.NoteOnEvent(tick=0, channel=3, data=[69, 100])\n",
      "midi.NoteOnEvent(tick=192, channel=3, data=[69, 0])\n",
      "midi.NoteOnEvent(tick=192, channel=3, data=[64, 100])\n",
      "midi.NoteOnEvent(tick=192, channel=3, data=[64, 0])\n",
      "midi.NoteOnEvent(tick=0, channel=3, data=[66, 100])\n",
      "midi.NoteOnEvent(tick=192, channel=3, data=[66, 0])\n",
      "midi.NoteOnEvent(tick=0, channel=3, data=[69, 100])\n",
      "midi.NoteOnEvent(tick=192, channel=3, data=[69, 0])\n",
      "midi.NoteOnEvent(tick=192, channel=3, data=[66, 100])\n",
      "midi.NoteOnEvent(tick=192, channel=3, data=[66, 0])\n",
      "midi.NoteOnEvent(tick=0, channel=3, data=[63, 100])\n",
      "midi.NoteOnEvent(tick=192, channel=3, data=[63, 0])\n",
      "midi.NoteOnEvent(tick=0, channel=3, data=[66, 100])\n",
      "midi.NoteOnEvent(tick=192, channel=3, data=[66, 0])\n",
      "midi.NoteOnEvent(tick=192, channel=3, data=[69, 100])\n",
      "midi.NoteOnEvent(tick=192, channel=3, data=[69, 0])\n",
      "midi.NoteOnEvent(tick=0, channel=3, data=[57, 100])\n",
      "midi.NoteOnEvent(tick=192, channel=3, data=[57, 0])\n",
      "midi.NoteOnEvent(tick=0, channel=3, data=[59, 100])\n",
      "midi.NoteOnEvent(tick=192, channel=3, data=[59, 0])\n",
      "midi.NoteOnEvent(tick=0, channel=3, data=[59, 100])\n",
      "midi.NoteOnEvent(tick=192, channel=3, data=[59, 0])\n",
      "midi.NoteOnEvent(tick=0, channel=3, data=[59, 100])\n",
      "midi.NoteOnEvent(tick=192, channel=3, data=[59, 0])\n",
      "midi.NoteOnEvent(tick=0, channel=3, data=[55, 100])\n",
      "midi.NoteOnEvent(tick=384, channel=3, data=[55, 0])\n",
      "midi.NoteOnEvent(tick=576, channel=3, data=[64, 100])\n",
      "midi.NoteOnEvent(tick=192, channel=3, data=[64, 0])\n",
      "midi.NoteOnEvent(tick=0, channel=3, data=[67, 100])\n",
      "midi.NoteOnEvent(tick=192, channel=3, data=[67, 0])\n",
      "midi.NoteOnEvent(tick=384, channel=3, data=[66, 100])\n",
      "midi.NoteOnEvent(tick=96, channel=3, data=[66, 0])\n",
      "midi.NoteOnEvent(tick=0, channel=3, data=[67, 100])\n",
      "midi.NoteOnEvent(tick=96, channel=3, data=[67, 0])\n",
      "midi.NoteOnEvent(tick=0, channel=3, data=[69, 100])\n",
      "midi.NoteOnEvent(tick=192, channel=3, data=[69, 0])\n",
      "midi.NoteOnEvent(tick=384, channel=3, data=[66, 100])\n",
      "midi.NoteOnEvent(tick=192, channel=3, data=[66, 0])\n",
      "midi.NoteOnEvent(tick=0, channel=3, data=[63, 100])\n",
      "midi.NoteOnEvent(tick=192, channel=3, data=[63, 0])\n",
      "midi.NoteOnEvent(tick=384, channel=3, data=[67, 100])\n",
      "midi.NoteOnEvent(tick=96, channel=3, data=[67, 0])\n",
      "midi.NoteOnEvent(tick=0, channel=3, data=[69, 100])\n",
      "midi.NoteOnEvent(tick=96, channel=3, data=[69, 0])\n",
      "midi.NoteOnEvent(tick=0, channel=3, data=[71, 100])\n",
      "midi.NoteOnEvent(tick=192, channel=3, data=[71, 0])\n",
      "midi.NoteOnEvent(tick=0, channel=3, data=[64, 100])\n",
      "midi.NoteOnEvent(tick=192, channel=3, data=[64, 0])\n",
      "midi.NoteOnEvent(tick=0, channel=3, data=[64, 100])\n",
      "midi.NoteOnEvent(tick=384, channel=3, data=[64, 0])\n",
      "midi.NoteOnEvent(tick=0, channel=3, data=[62, 100])\n",
      "midi.NoteOnEvent(tick=384, channel=3, data=[62, 0])\n",
      "midi.NoteOnEvent(tick=0, channel=3, data=[60, 100])\n",
      "midi.NoteOnEvent(tick=384, channel=3, data=[60, 0])\n",
      "midi.NoteOnEvent(tick=0, channel=3, data=[59, 100])\n",
      "midi.NoteOnEvent(tick=384, channel=3, data=[59, 0])\n",
      "midi.NoteOnEvent(tick=0, channel=3, data=[57, 100])\n",
      "midi.NoteOnEvent(tick=384, channel=3, data=[57, 0])\n",
      "midi.NoteOnEvent(tick=0, channel=3, data=[57, 100])\n",
      "midi.NoteOnEvent(tick=384, channel=3, data=[57, 0])\n",
      "midi.NoteOnEvent(tick=0, channel=3, data=[59, 100])\n",
      "midi.NoteOnEvent(tick=384, channel=3, data=[59, 0])\n",
      "midi.NoteOnEvent(tick=0, channel=3, data=[61, 100])\n",
      "midi.NoteOnEvent(tick=384, channel=3, data=[61, 0])\n",
      "midi.NoteOnEvent(tick=0, channel=3, data=[62, 100])\n",
      "midi.NoteOnEvent(tick=384, channel=3, data=[62, 0])\n",
      "midi.NoteOnEvent(tick=0, channel=3, data=[60, 100])\n",
      "midi.NoteOnEvent(tick=384, channel=3, data=[60, 0])\n",
      "midi.NoteOnEvent(tick=0, channel=3, data=[59, 100])\n",
      "midi.NoteOnEvent(tick=384, channel=3, data=[59, 0])\n",
      "midi.NoteOnEvent(tick=0, channel=3, data=[57, 100])\n",
      "midi.NoteOnEvent(tick=384, channel=3, data=[57, 0])\n",
      "midi.NoteOnEvent(tick=0, channel=3, data=[55, 100])\n",
      "midi.NoteOnEvent(tick=384, channel=3, data=[55, 0])\n"
     ]
    },
    {
     "name": "stdout",
     "output_type": "stream",
     "text": [
      "midi.NoteOnEvent(tick=0, channel=3, data=[55, 100])\n",
      "midi.NoteOnEvent(tick=384, channel=3, data=[55, 0])\n",
      "midi.NoteOnEvent(tick=0, channel=3, data=[57, 100])\n",
      "midi.NoteOnEvent(tick=384, channel=3, data=[57, 0])\n",
      "midi.NoteOnEvent(tick=0, channel=3, data=[59, 100])\n",
      "midi.NoteOnEvent(tick=384, channel=3, data=[59, 0])\n",
      "midi.NoteOnEvent(tick=0, channel=3, data=[60, 100])\n",
      "midi.NoteOnEvent(tick=1152, channel=3, data=[60, 0])\n",
      "midi.NoteOnEvent(tick=0, channel=3, data=[58, 100])\n",
      "midi.NoteOnEvent(tick=384, channel=3, data=[58, 0])\n",
      "midi.NoteOnEvent(tick=0, channel=3, data=[60, 100])\n",
      "midi.NoteOnEvent(tick=384, channel=3, data=[60, 0])\n",
      "midi.NoteOnEvent(tick=2112, channel=3, data=[65, 100])\n",
      "midi.NoteOnEvent(tick=192, channel=3, data=[65, 0])\n",
      "midi.NoteOnEvent(tick=0, channel=3, data=[62, 100])\n",
      "midi.NoteOnEvent(tick=384, channel=3, data=[62, 0])\n",
      "midi.NoteOnEvent(tick=192, channel=3, data=[62, 100])\n",
      "midi.NoteOnEvent(tick=192, channel=3, data=[62, 0])\n",
      "midi.NoteOnEvent(tick=0, channel=3, data=[64, 100])\n",
      "midi.NoteOnEvent(tick=192, channel=3, data=[64, 0])\n",
      "midi.NoteOnEvent(tick=0, channel=3, data=[70, 100])\n",
      "midi.NoteOnEvent(tick=192, channel=3, data=[70, 0])\n",
      "midi.NoteOnEvent(tick=0, channel=3, data=[69, 100])\n",
      "midi.NoteOnEvent(tick=192, channel=3, data=[69, 0])\n",
      "midi.NoteOnEvent(tick=0, channel=3, data=[62, 100])\n",
      "midi.NoteOnEvent(tick=192, channel=3, data=[62, 0])\n",
      "midi.NoteOnEvent(tick=0, channel=3, data=[64, 100])\n",
      "midi.NoteOnEvent(tick=192, channel=3, data=[64, 0])\n",
      "midi.NoteOnEvent(tick=0, channel=3, data=[64, 100])\n",
      "midi.NoteOnEvent(tick=192, channel=3, data=[64, 0])\n",
      "midi.NoteOnEvent(tick=0, channel=3, data=[65, 100])\n",
      "midi.NoteOnEvent(tick=384, channel=3, data=[65, 0])\n",
      "midi.NoteOnEvent(tick=192, channel=3, data=[65, 100])\n",
      "midi.NoteOnEvent(tick=192, channel=3, data=[65, 0])\n",
      "midi.NoteOnEvent(tick=0, channel=3, data=[67, 100])\n",
      "midi.NoteOnEvent(tick=192, channel=3, data=[67, 0])\n",
      "midi.NoteOnEvent(tick=0, channel=3, data=[67, 100])\n",
      "midi.NoteOnEvent(tick=192, channel=3, data=[67, 0])\n",
      "midi.NoteOnEvent(tick=0, channel=3, data=[69, 100])\n",
      "midi.NoteOnEvent(tick=192, channel=3, data=[69, 0])\n",
      "midi.NoteOnEvent(tick=0, channel=3, data=[69, 100])\n",
      "midi.NoteOnEvent(tick=192, channel=3, data=[69, 0])\n",
      "midi.NoteOnEvent(tick=0, channel=3, data=[70, 100])\n",
      "midi.NoteOnEvent(tick=192, channel=3, data=[70, 0])\n",
      "midi.NoteOnEvent(tick=0, channel=3, data=[70, 100])\n",
      "midi.NoteOnEvent(tick=192, channel=3, data=[70, 0])\n",
      "midi.NoteOnEvent(tick=0, channel=3, data=[66, 100])\n",
      "midi.NoteOnEvent(tick=192, channel=3, data=[66, 0])\n",
      "midi.NoteOnEvent(tick=0, channel=3, data=[66, 100])\n",
      "midi.NoteOnEvent(tick=192, channel=3, data=[66, 0])\n",
      "midi.NoteOnEvent(tick=0, channel=3, data=[67, 100])\n",
      "midi.NoteOnEvent(tick=192, channel=3, data=[67, 0])\n",
      "midi.NoteOnEvent(tick=0, channel=3, data=[62, 100])\n",
      "midi.NoteOnEvent(tick=192, channel=3, data=[62, 0])\n",
      "midi.NoteOnEvent(tick=0, channel=3, data=[67, 100])\n",
      "midi.NoteOnEvent(tick=192, channel=3, data=[67, 0])\n",
      "midi.NoteOnEvent(tick=0, channel=3, data=[70, 100])\n",
      "midi.NoteOnEvent(tick=192, channel=3, data=[70, 0])\n",
      "midi.NoteOnEvent(tick=0, channel=3, data=[72, 100])\n",
      "midi.NoteOnEvent(tick=192, channel=3, data=[72, 0])\n",
      "midi.NoteOnEvent(tick=0, channel=3, data=[67, 100])\n",
      "midi.NoteOnEvent(tick=192, channel=3, data=[67, 0])\n",
      "midi.NoteOnEvent(tick=0, channel=3, data=[67, 100])\n",
      "midi.NoteOnEvent(tick=192, channel=3, data=[67, 0])\n",
      "midi.NoteOnEvent(tick=0, channel=3, data=[67, 100])\n",
      "midi.NoteOnEvent(tick=192, channel=3, data=[67, 0])\n",
      "midi.NoteOnEvent(tick=0, channel=3, data=[69, 100])\n",
      "midi.NoteOnEvent(tick=192, channel=3, data=[69, 0])\n",
      "midi.NoteOnEvent(tick=0, channel=3, data=[69, 100])\n",
      "midi.NoteOnEvent(tick=192, channel=3, data=[69, 0])\n",
      "midi.NoteOnEvent(tick=0, channel=3, data=[64, 100])\n",
      "midi.NoteOnEvent(tick=192, channel=3, data=[64, 0])\n",
      "midi.NoteOnEvent(tick=0, channel=3, data=[64, 100])\n",
      "midi.NoteOnEvent(tick=192, channel=3, data=[64, 0])\n",
      "midi.NoteOnEvent(tick=0, channel=3, data=[65, 100])\n",
      "midi.NoteOnEvent(tick=192, channel=3, data=[65, 0])\n",
      "midi.NoteOnEvent(tick=0, channel=3, data=[60, 100])\n",
      "midi.NoteOnEvent(tick=192, channel=3, data=[60, 0])\n",
      "midi.NoteOnEvent(tick=0, channel=3, data=[65, 100])\n",
      "midi.NoteOnEvent(tick=192, channel=3, data=[65, 0])\n",
      "midi.NoteOnEvent(tick=0, channel=3, data=[69, 100])\n",
      "midi.NoteOnEvent(tick=192, channel=3, data=[69, 0])\n",
      "midi.NoteOnEvent(tick=0, channel=3, data=[70, 100])\n",
      "midi.NoteOnEvent(tick=192, channel=3, data=[70, 0])\n",
      "midi.NoteOnEvent(tick=0, channel=3, data=[70, 100])\n",
      "midi.NoteOnEvent(tick=192, channel=3, data=[70, 0])\n",
      "midi.NoteOnEvent(tick=0, channel=3, data=[70, 100])\n",
      "midi.NoteOnEvent(tick=192, channel=3, data=[70, 0])\n",
      "midi.NoteOnEvent(tick=0, channel=3, data=[70, 100])\n",
      "midi.NoteOnEvent(tick=192, channel=3, data=[70, 0])\n",
      "midi.NoteOnEvent(tick=0, channel=3, data=[70, 100])\n",
      "midi.NoteOnEvent(tick=192, channel=3, data=[70, 0])\n",
      "midi.NoteOnEvent(tick=0, channel=3, data=[70, 100])\n",
      "midi.NoteOnEvent(tick=192, channel=3, data=[70, 0])\n",
      "midi.NoteOnEvent(tick=0, channel=3, data=[70, 100])\n",
      "midi.NoteOnEvent(tick=192, channel=3, data=[70, 0])\n",
      "midi.NoteOnEvent(tick=0, channel=3, data=[70, 100])\n",
      "midi.NoteOnEvent(tick=192, channel=3, data=[70, 0])\n",
      "midi.NoteOnEvent(tick=0, channel=3, data=[70, 100])\n",
      "midi.NoteOnEvent(tick=192, channel=3, data=[70, 0])\n",
      "midi.NoteOnEvent(tick=0, channel=3, data=[67, 100])\n",
      "midi.NoteOnEvent(tick=192, channel=3, data=[67, 0])\n",
      "midi.NoteOnEvent(tick=0, channel=3, data=[70, 100])\n",
      "midi.NoteOnEvent(tick=192, channel=3, data=[70, 0])\n",
      "midi.NoteOnEvent(tick=0, channel=3, data=[64, 100])\n",
      "midi.NoteOnEvent(tick=192, channel=3, data=[64, 0])\n",
      "midi.NoteOnEvent(tick=0, channel=3, data=[64, 100])\n",
      "midi.NoteOnEvent(tick=192, channel=3, data=[64, 0])\n",
      "midi.NoteOnEvent(tick=0, channel=3, data=[69, 100])\n",
      "midi.NoteOnEvent(tick=192, channel=3, data=[69, 0])\n",
      "midi.NoteOnEvent(tick=0, channel=3, data=[69, 100])\n",
      "midi.NoteOnEvent(tick=192, channel=3, data=[69, 0])\n",
      "midi.NoteOnEvent(tick=0, channel=3, data=[69, 100])\n",
      "midi.NoteOnEvent(tick=192, channel=3, data=[69, 0])\n",
      "midi.NoteOnEvent(tick=0, channel=3, data=[69, 100])\n",
      "midi.NoteOnEvent(tick=192, channel=3, data=[69, 0])\n",
      "midi.NoteOnEvent(tick=0, channel=3, data=[69, 100])\n",
      "midi.NoteOnEvent(tick=192, channel=3, data=[69, 0])\n",
      "midi.NoteOnEvent(tick=0, channel=3, data=[69, 100])\n",
      "midi.NoteOnEvent(tick=192, channel=3, data=[69, 0])\n",
      "midi.NoteOnEvent(tick=0, channel=3, data=[69, 100])\n",
      "midi.NoteOnEvent(tick=192, channel=3, data=[69, 0])\n",
      "midi.NoteOnEvent(tick=0, channel=3, data=[62, 100])\n",
      "midi.NoteOnEvent(tick=384, channel=3, data=[62, 0])\n",
      "midi.NoteOnEvent(tick=192, channel=3, data=[69, 100])\n",
      "midi.NoteOnEvent(tick=192, channel=3, data=[69, 0])\n",
      "midi.NoteOnEvent(tick=0, channel=3, data=[67, 100])\n",
      "midi.NoteOnEvent(tick=384, channel=3, data=[67, 0])\n",
      "midi.NoteOnEvent(tick=960, channel=3, data=[67, 100])\n",
      "midi.NoteOnEvent(tick=192, channel=3, data=[67, 0])\n",
      "midi.NoteOnEvent(tick=0, channel=3, data=[65, 100])\n",
      "midi.NoteOnEvent(tick=384, channel=3, data=[65, 0])\n",
      "midi.NoteOnEvent(tick=960, channel=3, data=[65, 100])\n",
      "midi.NoteOnEvent(tick=192, channel=3, data=[65, 0])\n",
      "midi.NoteOnEvent(tick=0, channel=3, data=[64, 100])\n",
      "midi.NoteOnEvent(tick=192, channel=3, data=[64, 0])\n",
      "midi.NoteOnEvent(tick=0, channel=3, data=[66, 100])\n",
      "midi.NoteOnEvent(tick=192, channel=3, data=[66, 0])\n",
      "midi.NoteOnEvent(tick=0, channel=3, data=[68, 100])\n",
      "midi.NoteOnEvent(tick=192, channel=3, data=[68, 0])\n",
      "midi.NoteOnEvent(tick=0, channel=3, data=[64, 100])\n",
      "midi.NoteOnEvent(tick=192, channel=3, data=[64, 0])\n",
      "midi.NoteOnEvent(tick=0, channel=3, data=[72, 100])\n",
      "midi.NoteOnEvent(tick=384, channel=3, data=[72, 0])\n",
      "midi.NoteOnEvent(tick=192, channel=3, data=[69, 100])\n",
      "midi.NoteOnEvent(tick=192, channel=3, data=[69, 0])\n",
      "midi.NoteOnEvent(tick=0, channel=3, data=[62, 100])\n",
      "midi.NoteOnEvent(tick=384, channel=3, data=[62, 0])\n",
      "midi.NoteOnEvent(tick=192, channel=3, data=[62, 100])\n",
      "midi.NoteOnEvent(tick=192, channel=3, data=[62, 0])\n",
      "midi.NoteOnEvent(tick=0, channel=3, data=[57, 100])\n",
      "midi.NoteOnEvent(tick=192, channel=3, data=[57, 0])\n",
      "midi.NoteOnEvent(tick=0, channel=3, data=[64, 100])\n",
      "midi.NoteOnEvent(tick=192, channel=3, data=[64, 0])\n",
      "midi.NoteOnEvent(tick=0, channel=3, data=[56, 100])\n",
      "midi.NoteOnEvent(tick=192, channel=3, data=[56, 0])\n",
      "midi.NoteOnEvent(tick=0, channel=3, data=[64, 100])\n",
      "midi.NoteOnEvent(tick=192, channel=3, data=[64, 0])\n",
      "midi.NoteOnEvent(tick=0, channel=3, data=[64, 100])\n",
      "midi.NoteOnEvent(tick=192, channel=3, data=[64, 0])\n",
      "midi.NoteOnEvent(tick=0, channel=3, data=[60, 100])\n",
      "midi.NoteOnEvent(tick=192, channel=3, data=[60, 0])\n",
      "midi.NoteOnEvent(tick=576, channel=3, data=[57, 100])\n",
      "midi.NoteOnEvent(tick=192, channel=3, data=[57, 0])\n",
      "midi.NoteOnEvent(tick=0, channel=3, data=[57, 100])\n",
      "midi.NoteOnEvent(tick=192, channel=3, data=[57, 0])\n",
      "midi.NoteOnEvent(tick=0, channel=3, data=[57, 100])\n",
      "midi.NoteOnEvent(tick=192, channel=3, data=[57, 0])\n",
      "midi.NoteOnEvent(tick=0, channel=3, data=[57, 100])\n",
      "midi.NoteOnEvent(tick=192, channel=3, data=[57, 0])\n",
      "midi.NoteOnEvent(tick=0, channel=3, data=[57, 100])\n",
      "midi.NoteOnEvent(tick=192, channel=3, data=[57, 0])\n",
      "midi.NoteOnEvent(tick=0, channel=3, data=[57, 100])\n",
      "midi.NoteOnEvent(tick=192, channel=3, data=[57, 0])\n",
      "midi.NoteOnEvent(tick=0, channel=3, data=[57, 100])\n",
      "midi.NoteOnEvent(tick=192, channel=3, data=[57, 0])\n",
      "midi.NoteOnEvent(tick=0, channel=3, data=[57, 100])\n",
      "midi.NoteOnEvent(tick=192, channel=3, data=[57, 0])\n",
      "midi.NoteOnEvent(tick=0, channel=3, data=[57, 100])\n",
      "midi.NoteOnEvent(tick=192, channel=3, data=[57, 0])\n",
      "midi.NoteOnEvent(tick=0, channel=3, data=[57, 100])\n",
      "midi.NoteOnEvent(tick=192, channel=3, data=[57, 0])\n",
      "midi.NoteOnEvent(tick=0, channel=3, data=[57, 100])\n",
      "midi.NoteOnEvent(tick=192, channel=3, data=[57, 0])\n",
      "midi.NoteOnEvent(tick=0, channel=3, data=[62, 100])\n",
      "midi.NoteOnEvent(tick=192, channel=3, data=[62, 0])\n",
      "midi.NoteOnEvent(tick=0, channel=3, data=[62, 100])\n",
      "midi.NoteOnEvent(tick=192, channel=3, data=[62, 0])\n",
      "midi.NoteOnEvent(tick=0, channel=3, data=[62, 100])\n",
      "midi.NoteOnEvent(tick=192, channel=3, data=[62, 0])\n",
      "midi.NoteOnEvent(tick=0, channel=3, data=[62, 100])\n",
      "midi.NoteOnEvent(tick=192, channel=3, data=[62, 0])\n",
      "midi.NoteOnEvent(tick=0, channel=3, data=[62, 100])\n",
      "midi.NoteOnEvent(tick=192, channel=3, data=[62, 0])\n",
      "midi.NoteOnEvent(tick=0, channel=3, data=[62, 100])\n",
      "midi.NoteOnEvent(tick=192, channel=3, data=[62, 0])\n",
      "midi.NoteOnEvent(tick=0, channel=3, data=[62, 100])\n",
      "midi.NoteOnEvent(tick=192, channel=3, data=[62, 0])\n",
      "midi.NoteOnEvent(tick=0, channel=3, data=[62, 100])\n",
      "midi.NoteOnEvent(tick=192, channel=3, data=[62, 0])\n",
      "midi.NoteOnEvent(tick=0, channel=3, data=[67, 100])\n",
      "midi.NoteOnEvent(tick=192, channel=3, data=[67, 0])\n",
      "midi.NoteOnEvent(tick=0, channel=3, data=[67, 100])\n",
      "midi.NoteOnEvent(tick=192, channel=3, data=[67, 0])\n",
      "midi.NoteOnEvent(tick=0, channel=3, data=[67, 100])\n",
      "midi.NoteOnEvent(tick=192, channel=3, data=[67, 0])\n",
      "midi.NoteOnEvent(tick=0, channel=3, data=[67, 100])\n",
      "midi.NoteOnEvent(tick=192, channel=3, data=[67, 0])\n",
      "midi.NoteOnEvent(tick=0, channel=3, data=[67, 100])\n",
      "midi.NoteOnEvent(tick=384, channel=3, data=[67, 0])\n",
      "midi.NoteOnEvent(tick=0, channel=3, data=[70, 100])\n",
      "midi.NoteOnEvent(tick=384, channel=3, data=[70, 0])\n",
      "midi.NoteOnEvent(tick=0, channel=3, data=[68, 100])\n",
      "midi.NoteOnEvent(tick=384, channel=3, data=[68, 0])\n",
      "midi.NoteOnEvent(tick=0, channel=3, data=[67, 100])\n",
      "midi.NoteOnEvent(tick=384, channel=3, data=[67, 0])\n",
      "midi.NoteOnEvent(tick=0, channel=3, data=[65, 100])\n",
      "midi.NoteOnEvent(tick=192, channel=3, data=[65, 0])\n",
      "midi.NoteOnEvent(tick=0, channel=3, data=[65, 100])\n",
      "midi.NoteOnEvent(tick=192, channel=3, data=[65, 0])\n",
      "midi.NoteOnEvent(tick=0, channel=3, data=[69, 100])\n",
      "midi.NoteOnEvent(tick=192, channel=3, data=[69, 0])\n",
      "midi.NoteOnEvent(tick=0, channel=3, data=[69, 100])\n",
      "midi.NoteOnEvent(tick=192, channel=3, data=[69, 0])\n",
      "midi.NoteOnEvent(tick=0, channel=3, data=[70, 100])\n",
      "midi.NoteOnEvent(tick=384, channel=3, data=[70, 0])\n",
      "midi.NoteOnEvent(tick=384, channel=3, data=[67, 100])\n",
      "midi.NoteOnEvent(tick=192, channel=3, data=[67, 0])\n",
      "midi.NoteOnEvent(tick=0, channel=3, data=[67, 100])\n",
      "midi.NoteOnEvent(tick=192, channel=3, data=[67, 0])\n",
      "midi.NoteOnEvent(tick=0, channel=3, data=[69, 100])\n",
      "midi.NoteOnEvent(tick=192, channel=3, data=[69, 0])\n",
      "midi.NoteOnEvent(tick=0, channel=3, data=[69, 100])\n",
      "midi.NoteOnEvent(tick=192, channel=3, data=[69, 0])\n",
      "midi.NoteOnEvent(tick=0, channel=3, data=[57, 100])\n",
      "midi.NoteOnEvent(tick=384, channel=3, data=[57, 0])\n",
      "midi.NoteOnEvent(tick=384, channel=3, data=[62, 100])\n",
      "midi.NoteOnEvent(tick=192, channel=3, data=[62, 0])\n",
      "midi.NoteOnEvent(tick=0, channel=3, data=[62, 100])\n",
      "midi.NoteOnEvent(tick=192, channel=3, data=[62, 0])\n",
      "midi.NoteOnEvent(tick=0, channel=3, data=[64, 100])\n",
      "midi.NoteOnEvent(tick=192, channel=3, data=[64, 0])\n",
      "midi.NoteOnEvent(tick=0, channel=3, data=[64, 100])\n",
      "midi.NoteOnEvent(tick=192, channel=3, data=[64, 0])\n",
      "midi.NoteOnEvent(tick=0, channel=3, data=[52, 100])\n",
      "midi.NoteOnEvent(tick=384, channel=3, data=[52, 0])\n",
      "midi.NoteOnEvent(tick=1728, channel=3, data=[68, 100])\n",
      "midi.NoteOnEvent(tick=192, channel=3, data=[68, 0])\n",
      "midi.NoteOnEvent(tick=0, channel=3, data=[69, 100])\n",
      "midi.NoteOnEvent(tick=384, channel=3, data=[69, 0])\n",
      "midi.NoteOnEvent(tick=192, channel=3, data=[69, 100])\n",
      "midi.NoteOnEvent(tick=192, channel=3, data=[69, 0])\n",
      "midi.NoteOnEvent(tick=0, channel=3, data=[69, 100])\n",
      "midi.NoteOnEvent(tick=384, channel=3, data=[69, 0])\n",
      "midi.NoteOnEvent(tick=192, channel=3, data=[71, 100])\n",
      "midi.NoteOnEvent(tick=192, channel=3, data=[71, 0])\n",
      "midi.NoteOnEvent(tick=0, channel=3, data=[64, 100])\n",
      "midi.NoteOnEvent(tick=192, channel=3, data=[64, 0])\n",
      "midi.NoteOnEvent(tick=0, channel=3, data=[64, 100])\n",
      "midi.NoteOnEvent(tick=192, channel=3, data=[64, 0])\n",
      "midi.NoteOnEvent(tick=0, channel=3, data=[64, 100])\n",
      "midi.NoteOnEvent(tick=192, channel=3, data=[64, 0])\n",
      "midi.NoteOnEvent(tick=0, channel=3, data=[64, 100])\n",
      "midi.NoteOnEvent(tick=192, channel=3, data=[64, 0])\n",
      "midi.NoteOnEvent(tick=0, channel=3, data=[64, 100])\n",
      "midi.NoteOnEvent(tick=192, channel=3, data=[64, 0])\n",
      "midi.NoteOnEvent(tick=0, channel=3, data=[64, 100])\n",
      "midi.NoteOnEvent(tick=192, channel=3, data=[64, 0])\n",
      "midi.NoteOnEvent(tick=0, channel=3, data=[69, 100])\n",
      "midi.NoteOnEvent(tick=192, channel=3, data=[69, 0])\n",
      "midi.NoteOnEvent(tick=0, channel=3, data=[72, 100])\n",
      "midi.NoteOnEvent(tick=384, channel=3, data=[72, 0])\n",
      "midi.NoteOnEvent(tick=0, channel=3, data=[62, 100])\n",
      "midi.NoteOnEvent(tick=96, channel=3, data=[62, 0])\n",
      "midi.NoteOnEvent(tick=0, channel=3, data=[64, 100])\n",
      "midi.NoteOnEvent(tick=96, channel=3, data=[64, 0])\n",
      "midi.NoteOnEvent(tick=0, channel=3, data=[65, 100])\n",
      "midi.NoteOnEvent(tick=192, channel=3, data=[65, 0])\n",
      "midi.NoteOnEvent(tick=0, channel=3, data=[65, 100])\n",
      "midi.NoteOnEvent(tick=192, channel=3, data=[65, 0])\n",
      "midi.NoteOnEvent(tick=0, channel=3, data=[62, 100])\n",
      "midi.NoteOnEvent(tick=192, channel=3, data=[62, 0])\n",
      "midi.NoteOnEvent(tick=0, channel=3, data=[74, 100])\n",
      "midi.NoteOnEvent(tick=192, channel=3, data=[74, 0])\n",
      "midi.NoteOnEvent(tick=1344, channel=3, data=[62, 100])\n",
      "midi.NoteOnEvent(tick=192, channel=3, data=[62, 0])\n",
      "midi.NoteOnEvent(tick=0, channel=3, data=[67, 100])\n",
      "midi.NoteOnEvent(tick=192, channel=3, data=[67, 0])\n",
      "midi.NoteOnEvent(tick=0, channel=3, data=[71, 100])\n",
      "midi.NoteOnEvent(tick=384, channel=3, data=[71, 0])\n",
      "midi.NoteOnEvent(tick=0, channel=3, data=[60, 100])\n",
      "midi.NoteOnEvent(tick=96, channel=3, data=[60, 0])\n",
      "midi.NoteOnEvent(tick=0, channel=3, data=[62, 100])\n",
      "midi.NoteOnEvent(tick=96, channel=3, data=[62, 0])\n",
      "midi.NoteOnEvent(tick=0, channel=3, data=[64, 100])\n",
      "midi.NoteOnEvent(tick=192, channel=3, data=[64, 0])\n",
      "midi.NoteOnEvent(tick=0, channel=3, data=[64, 100])\n",
      "midi.NoteOnEvent(tick=192, channel=3, data=[64, 0])\n",
      "midi.NoteOnEvent(tick=0, channel=3, data=[60, 100])\n",
      "midi.NoteOnEvent(tick=192, channel=3, data=[60, 0])\n",
      "midi.NoteOnEvent(tick=0, channel=3, data=[72, 100])\n",
      "midi.NoteOnEvent(tick=192, channel=3, data=[72, 0])\n",
      "midi.NoteOnEvent(tick=1344, channel=3, data=[60, 100])\n",
      "midi.NoteOnEvent(tick=192, channel=3, data=[60, 0])\n",
      "midi.NoteOnEvent(tick=0, channel=3, data=[65, 100])\n",
      "midi.NoteOnEvent(tick=192, channel=3, data=[65, 0])\n",
      "midi.NoteOnEvent(tick=0, channel=3, data=[69, 100])\n",
      "midi.NoteOnEvent(tick=384, channel=3, data=[69, 0])\n",
      "midi.NoteOnEvent(tick=0, channel=3, data=[68, 100])\n",
      "midi.NoteOnEvent(tick=96, channel=3, data=[68, 0])\n",
      "midi.NoteOnEvent(tick=0, channel=3, data=[69, 100])\n",
      "midi.NoteOnEvent(tick=96, channel=3, data=[69, 0])\n",
      "midi.NoteOnEvent(tick=0, channel=3, data=[71, 100])\n",
      "midi.NoteOnEvent(tick=192, channel=3, data=[71, 0])\n",
      "midi.NoteOnEvent(tick=0, channel=3, data=[59, 100])\n",
      "midi.NoteOnEvent(tick=384, channel=3, data=[59, 0])\n",
      "midi.NoteOnEvent(tick=0, channel=3, data=[52, 100])\n",
      "midi.NoteOnEvent(tick=192, channel=3, data=[52, 0])\n",
      "midi.NoteOnEvent(tick=0, channel=3, data=[64, 100])\n",
      "midi.NoteOnEvent(tick=192, channel=3, data=[64, 0])\n",
      "midi.NoteOnEvent(tick=0, channel=3, data=[60, 100])\n",
      "midi.NoteOnEvent(tick=192, channel=3, data=[60, 0])\n",
      "midi.NoteOnEvent(tick=0, channel=3, data=[57, 100])\n",
      "midi.NoteOnEvent(tick=192, channel=3, data=[57, 0])\n",
      "midi.NoteOnEvent(tick=0, channel=3, data=[60, 100])\n",
      "midi.NoteOnEvent(tick=192, channel=3, data=[60, 0])\n",
      "midi.NoteOnEvent(tick=0, channel=3, data=[65, 100])\n",
      "midi.NoteOnEvent(tick=192, channel=3, data=[65, 0])\n",
      "midi.NoteOnEvent(tick=0, channel=3, data=[62, 100])\n",
      "midi.NoteOnEvent(tick=192, channel=3, data=[62, 0])\n",
      "midi.NoteOnEvent(tick=0, channel=3, data=[59, 100])\n",
      "midi.NoteOnEvent(tick=192, channel=3, data=[59, 0])\n",
      "midi.NoteOnEvent(tick=0, channel=3, data=[74, 100])\n",
      "midi.NoteOnEvent(tick=192, channel=3, data=[74, 0])\n",
      "midi.NoteOnEvent(tick=0, channel=3, data=[72, 100])\n",
      "midi.NoteOnEvent(tick=192, channel=3, data=[72, 0])\n",
      "midi.NoteOnEvent(tick=0, channel=3, data=[69, 100])\n",
      "midi.NoteOnEvent(tick=192, channel=3, data=[69, 0])\n",
      "midi.NoteOnEvent(tick=0, channel=3, data=[69, 100])\n",
      "midi.NoteOnEvent(tick=384, channel=3, data=[69, 0])\n",
      "midi.NoteOnEvent(tick=0, channel=3, data=[68, 100])\n",
      "midi.NoteOnEvent(tick=768, channel=3, data=[68, 0])\n",
      "midi.NoteOnEvent(tick=384, channel=3, data=[65, 100])\n",
      "midi.NoteOnEvent(tick=384, channel=3, data=[65, 0])\n",
      "midi.NoteOnEvent(tick=384, channel=3, data=[59, 100])\n",
      "midi.NoteOnEvent(tick=384, channel=3, data=[59, 0])\n",
      "midi.NoteOnEvent(tick=384, channel=3, data=[67, 100])\n",
      "midi.NoteOnEvent(tick=384, channel=3, data=[67, 0])\n",
      "midi.NoteOnEvent(tick=384, channel=3, data=[68, 100])\n",
      "midi.NoteOnEvent(tick=960, channel=3, data=[68, 0])\n",
      "midi.NoteOnEvent(tick=0, channel=3, data=[69, 100])\n",
      "midi.NoteOnEvent(tick=384, channel=3, data=[69, 0])\n",
      "midi.NoteOnEvent(tick=0, channel=3, data=[59, 100])\n",
      "midi.NoteOnEvent(tick=192, channel=3, data=[59, 0])\n",
      "midi.NoteOnEvent(tick=0, channel=3, data=[57, 100])\n",
      "midi.NoteOnEvent(tick=192, channel=3, data=[57, 0])\n",
      "midi.NoteOnEvent(tick=0, channel=3, data=[60, 100])\n",
      "midi.NoteOnEvent(tick=192, channel=3, data=[60, 0])\n",
      "midi.NoteOnEvent(tick=0, channel=3, data=[65, 100])\n",
      "midi.NoteOnEvent(tick=192, channel=3, data=[65, 0])\n",
      "midi.NoteOnEvent(tick=0, channel=3, data=[64, 100])\n",
      "midi.NoteOnEvent(tick=192, channel=3, data=[64, 0])\n",
      "midi.NoteOnEvent(tick=0, channel=3, data=[64, 100])\n",
      "midi.NoteOnEvent(tick=192, channel=3, data=[64, 0])\n",
      "midi.NoteOnEvent(tick=0, channel=3, data=[62, 100])\n",
      "midi.NoteOnEvent(tick=192, channel=3, data=[62, 0])\n",
      "midi.NoteOnEvent(tick=192, channel=3, data=[57, 100])\n",
      "midi.NoteOnEvent(tick=192, channel=3, data=[57, 0])\n",
      "midi.NoteOnEvent(tick=0, channel=3, data=[59, 100])\n",
      "midi.NoteOnEvent(tick=192, channel=3, data=[59, 0])\n",
      "midi.NoteOnEvent(tick=0, channel=3, data=[62, 100])\n",
      "midi.NoteOnEvent(tick=192, channel=3, data=[62, 0])\n",
      "midi.NoteOnEvent(tick=192, channel=3, data=[71, 100])\n",
      "midi.NoteOnEvent(tick=192, channel=3, data=[71, 0])\n",
      "midi.NoteOnEvent(tick=0, channel=3, data=[68, 100])\n",
      "midi.NoteOnEvent(tick=192, channel=3, data=[68, 0])\n",
      "midi.NoteOnEvent(tick=0, channel=3, data=[71, 100])\n",
      "midi.NoteOnEvent(tick=192, channel=3, data=[71, 0])\n",
      "midi.NoteOnEvent(tick=192, channel=3, data=[74, 100])\n",
      "midi.NoteOnEvent(tick=192, channel=3, data=[74, 0])\n",
      "midi.NoteOnEvent(tick=0, channel=3, data=[62, 100])\n",
      "midi.NoteOnEvent(tick=192, channel=3, data=[62, 0])\n",
      "midi.NoteOnEvent(tick=0, channel=3, data=[64, 100])\n",
      "midi.NoteOnEvent(tick=192, channel=3, data=[64, 0])\n",
      "midi.NoteOnEvent(tick=0, channel=3, data=[64, 100])\n",
      "midi.NoteOnEvent(tick=192, channel=3, data=[64, 0])\n",
      "midi.NoteOnEvent(tick=0, channel=3, data=[64, 100])\n",
      "midi.NoteOnEvent(tick=192, channel=3, data=[64, 0])\n",
      "midi.NoteOnEvent(tick=0, channel=3, data=[60, 100])\n",
      "midi.NoteOnEvent(tick=576, channel=3, data=[60, 0])\n",
      "midi.EndOfTrackEvent(tick=0, data=[])\n",
      "midi.PortEvent(tick=0, data=[0])\n",
      "midi.TrackNameEvent(tick=0, text='Cello', data=[67, 101, 108, 108, 111])\n",
      "midi.ProgramChangeEvent(tick=0, channel=4, data=[42])\n",
      "midi.ControlChangeEvent(tick=0, channel=4, data=[7, 100])\n",
      "midi.ControlChangeEvent(tick=0, channel=4, data=[10, 84])\n",
      "midi.NoteOnEvent(tick=960, channel=4, data=[45, 100])\n",
      "midi.NoteOnEvent(tick=192, channel=4, data=[45, 0])\n",
      "midi.NoteOnEvent(tick=0, channel=4, data=[57, 100])\n",
      "midi.NoteOnEvent(tick=384, channel=4, data=[57, 0])\n",
      "midi.NoteOnEvent(tick=192, channel=4, data=[45, 100])\n",
      "midi.NoteOnEvent(tick=192, channel=4, data=[45, 0])\n",
      "midi.NoteOnEvent(tick=0, channel=4, data=[57, 100])\n",
      "midi.NoteOnEvent(tick=384, channel=4, data=[57, 0])\n",
      "midi.NoteOnEvent(tick=192, channel=4, data=[45, 100])\n",
      "midi.NoteOnEvent(tick=192, channel=4, data=[45, 0])\n",
      "midi.NoteOnEvent(tick=0, channel=4, data=[52, 100])\n",
      "midi.NoteOnEvent(tick=192, channel=4, data=[52, 0])\n",
      "midi.NoteOnEvent(tick=0, channel=4, data=[40, 100])\n",
      "midi.NoteOnEvent(tick=192, channel=4, data=[40, 0])\n",
      "midi.NoteOnEvent(tick=0, channel=4, data=[45, 100])\n",
      "midi.NoteOnEvent(tick=192, channel=4, data=[45, 0])\n",
      "midi.NoteOnEvent(tick=0, channel=4, data=[57, 100])\n",
      "midi.NoteOnEvent(tick=96, channel=4, data=[57, 0])\n",
      "midi.NoteOnEvent(tick=0, channel=4, data=[59, 100])\n",
      "midi.NoteOnEvent(tick=96, channel=4, data=[59, 0])\n",
      "midi.NoteOnEvent(tick=0, channel=4, data=[60, 100])\n",
      "midi.NoteOnEvent(tick=192, channel=4, data=[60, 0])\n",
      "midi.NoteOnEvent(tick=0, channel=4, data=[57, 100])\n",
      "midi.NoteOnEvent(tick=192, channel=4, data=[57, 0])\n",
      "midi.NoteOnEvent(tick=0, channel=4, data=[56, 100])\n",
      "midi.NoteOnEvent(tick=192, channel=4, data=[56, 0])\n",
      "midi.NoteOnEvent(tick=0, channel=4, data=[52, 100])\n",
      "midi.NoteOnEvent(tick=192, channel=4, data=[52, 0])\n",
      "midi.NoteOnEvent(tick=0, channel=4, data=[57, 100])\n",
      "midi.NoteOnEvent(tick=192, channel=4, data=[57, 0])\n",
      "midi.NoteOnEvent(tick=0, channel=4, data=[52, 100])\n",
      "midi.NoteOnEvent(tick=192, channel=4, data=[52, 0])\n",
      "midi.NoteOnEvent(tick=0, channel=4, data=[59, 100])\n",
      "midi.NoteOnEvent(tick=192, channel=4, data=[59, 0])\n",
      "midi.NoteOnEvent(tick=0, channel=4, data=[52, 100])\n",
      "midi.NoteOnEvent(tick=192, channel=4, data=[52, 0])\n",
      "midi.NoteOnEvent(tick=0, channel=4, data=[60, 100])\n",
      "midi.NoteOnEvent(tick=192, channel=4, data=[60, 0])\n",
      "midi.NoteOnEvent(tick=0, channel=4, data=[52, 100])\n",
      "midi.NoteOnEvent(tick=192, channel=4, data=[52, 0])\n",
      "midi.NoteOnEvent(tick=0, channel=4, data=[62, 100])\n",
      "midi.NoteOnEvent(tick=192, channel=4, data=[62, 0])\n",
      "midi.NoteOnEvent(tick=0, channel=4, data=[50, 100])\n",
      "midi.NoteOnEvent(tick=192, channel=4, data=[50, 0])\n",
      "midi.NoteOnEvent(tick=0, channel=4, data=[52, 100])\n",
      "midi.NoteOnEvent(tick=192, channel=4, data=[52, 0])\n",
      "midi.NoteOnEvent(tick=0, channel=4, data=[53, 100])\n",
      "midi.NoteOnEvent(tick=192, channel=4, data=[53, 0])\n",
      "midi.NoteOnEvent(tick=0, channel=4, data=[52, 100])\n",
      "midi.NoteOnEvent(tick=192, channel=4, data=[52, 0])\n",
      "midi.NoteOnEvent(tick=0, channel=4, data=[40, 100])\n",
      "midi.NoteOnEvent(tick=192, channel=4, data=[40, 0])\n",
      "midi.NoteOnEvent(tick=192, channel=4, data=[64, 100])\n",
      "midi.NoteOnEvent(tick=96, channel=4, data=[64, 0])\n",
      "midi.NoteOnEvent(tick=0, channel=4, data=[62, 100])\n",
      "midi.NoteOnEvent(tick=96, channel=4, data=[62, 0])\n",
      "midi.NoteOnEvent(tick=0, channel=4, data=[60, 100])\n",
      "midi.NoteOnEvent(tick=192, channel=4, data=[60, 0])\n",
      "midi.NoteOnEvent(tick=0, channel=4, data=[64, 100])\n",
      "midi.NoteOnEvent(tick=192, channel=4, data=[64, 0])\n",
      "midi.NoteOnEvent(tick=0, channel=4, data=[60, 100])\n",
      "midi.NoteOnEvent(tick=192, channel=4, data=[60, 0])\n",
      "midi.NoteOnEvent(tick=0, channel=4, data=[57, 100])\n",
      "midi.NoteOnEvent(tick=192, channel=4, data=[57, 0])\n",
      "midi.NoteOnEvent(tick=0, channel=4, data=[62, 100])\n",
      "midi.NoteOnEvent(tick=192, channel=4, data=[62, 0])\n",
      "midi.NoteOnEvent(tick=0, channel=4, data=[50, 100])\n",
      "midi.NoteOnEvent(tick=192, channel=4, data=[50, 0])\n",
      "midi.NoteOnEvent(tick=192, channel=4, data=[62, 100])\n",
      "midi.NoteOnEvent(tick=96, channel=4, data=[62, 0])\n",
      "midi.NoteOnEvent(tick=0, channel=4, data=[60, 100])\n",
      "midi.NoteOnEvent(tick=96, channel=4, data=[60, 0])\n",
      "midi.NoteOnEvent(tick=0, channel=4, data=[59, 100])\n",
      "midi.NoteOnEvent(tick=192, channel=4, data=[59, 0])\n",
      "midi.NoteOnEvent(tick=0, channel=4, data=[62, 100])\n",
      "midi.NoteOnEvent(tick=192, channel=4, data=[62, 0])\n",
      "midi.NoteOnEvent(tick=0, channel=4, data=[59, 100])\n",
      "midi.NoteOnEvent(tick=192, channel=4, data=[59, 0])\n",
      "midi.NoteOnEvent(tick=0, channel=4, data=[55, 100])\n",
      "midi.NoteOnEvent(tick=192, channel=4, data=[55, 0])\n",
      "midi.NoteOnEvent(tick=0, channel=4, data=[60, 100])\n",
      "midi.NoteOnEvent(tick=192, channel=4, data=[60, 0])\n",
      "midi.NoteOnEvent(tick=0, channel=4, data=[48, 100])\n",
      "midi.NoteOnEvent(tick=192, channel=4, data=[48, 0])\n",
      "midi.NoteOnEvent(tick=192, channel=4, data=[60, 100])\n",
      "midi.NoteOnEvent(tick=96, channel=4, data=[60, 0])\n",
      "midi.NoteOnEvent(tick=0, channel=4, data=[59, 100])\n",
      "midi.NoteOnEvent(tick=96, channel=4, data=[59, 0])\n",
      "midi.NoteOnEvent(tick=0, channel=4, data=[57, 100])\n",
      "midi.NoteOnEvent(tick=96, channel=4, data=[57, 0])\n",
      "midi.NoteOnEvent(tick=0, channel=4, data=[59, 100])\n",
      "midi.NoteOnEvent(tick=96, channel=4, data=[59, 0])\n",
      "midi.NoteOnEvent(tick=0, channel=4, data=[57, 100])\n",
      "midi.NoteOnEvent(tick=96, channel=4, data=[57, 0])\n",
      "midi.NoteOnEvent(tick=0, channel=4, data=[55, 100])\n",
      "midi.NoteOnEvent(tick=96, channel=4, data=[55, 0])\n",
      "midi.NoteOnEvent(tick=0, channel=4, data=[54, 100])\n",
      "midi.NoteOnEvent(tick=96, channel=4, data=[54, 0])\n",
      "midi.NoteOnEvent(tick=0, channel=4, data=[55, 100])\n",
      "midi.NoteOnEvent(tick=96, channel=4, data=[55, 0])\n",
      "midi.NoteOnEvent(tick=0, channel=4, data=[54, 100])\n",
      "midi.NoteOnEvent(tick=96, channel=4, data=[54, 0])\n",
      "midi.NoteOnEvent(tick=0, channel=4, data=[52, 100])\n",
      "midi.NoteOnEvent(tick=96, channel=4, data=[52, 0])\n",
      "midi.NoteOnEvent(tick=0, channel=4, data=[51, 100])\n",
      "midi.NoteOnEvent(tick=96, channel=4, data=[51, 0])\n",
      "midi.NoteOnEvent(tick=0, channel=4, data=[47, 100])\n",
      "midi.NoteOnEvent(tick=96, channel=4, data=[47, 0])\n",
      "midi.NoteOnEvent(tick=0, channel=4, data=[49, 100])\n",
      "midi.NoteOnEvent(tick=96, channel=4, data=[49, 0])\n",
      "midi.NoteOnEvent(tick=0, channel=4, data=[51, 100])\n",
      "midi.NoteOnEvent(tick=96, channel=4, data=[51, 0])\n",
      "midi.NoteOnEvent(tick=0, channel=4, data=[52, 100])\n",
      "midi.NoteOnEvent(tick=96, channel=4, data=[52, 0])\n",
      "midi.NoteOnEvent(tick=0, channel=4, data=[54, 100])\n",
      "midi.NoteOnEvent(tick=96, channel=4, data=[54, 0])\n",
      "midi.NoteOnEvent(tick=0, channel=4, data=[55, 100])\n",
      "midi.NoteOnEvent(tick=96, channel=4, data=[55, 0])\n",
      "midi.NoteOnEvent(tick=0, channel=4, data=[52, 100])\n",
      "midi.NoteOnEvent(tick=96, channel=4, data=[52, 0])\n",
      "midi.NoteOnEvent(tick=0, channel=4, data=[48, 100])\n",
      "midi.NoteOnEvent(tick=192, channel=4, data=[48, 0])\n",
      "midi.NoteOnEvent(tick=0, channel=4, data=[47, 100])\n",
      "midi.NoteOnEvent(tick=192, channel=4, data=[47, 0])\n",
      "midi.NoteOnEvent(tick=0, channel=4, data=[48, 100])\n",
      "midi.NoteOnEvent(tick=192, channel=4, data=[48, 0])\n",
      "midi.NoteOnEvent(tick=0, channel=4, data=[45, 100])\n",
      "midi.NoteOnEvent(tick=192, channel=4, data=[45, 0])\n",
      "midi.NoteOnEvent(tick=0, channel=4, data=[47, 100])\n",
      "midi.NoteOnEvent(tick=288, channel=4, data=[47, 0])\n",
      "midi.NoteOnEvent(tick=0, channel=4, data=[49, 100])\n",
      "midi.NoteOnEvent(tick=48, channel=4, data=[49, 0])\n",
      "midi.NoteOnEvent(tick=0, channel=4, data=[51, 100])\n",
      "midi.NoteOnEvent(tick=48, channel=4, data=[51, 0])\n",
      "midi.NoteOnEvent(tick=0, channel=4, data=[52, 100])\n",
      "midi.NoteOnEvent(tick=96, channel=4, data=[52, 0])\n",
      "midi.NoteOnEvent(tick=0, channel=4, data=[54, 100])\n",
      "midi.NoteOnEvent(tick=96, channel=4, data=[54, 0])\n",
      "midi.NoteOnEvent(tick=0, channel=4, data=[55, 100])\n",
      "midi.NoteOnEvent(tick=96, channel=4, data=[55, 0])\n",
      "midi.NoteOnEvent(tick=0, channel=4, data=[57, 100])\n",
      "midi.NoteOnEvent(tick=96, channel=4, data=[57, 0])\n",
      "midi.NoteOnEvent(tick=0, channel=4, data=[59, 100])\n",
      "midi.NoteOnEvent(tick=192, channel=4, data=[59, 0])\n",
      "midi.NoteOnEvent(tick=0, channel=4, data=[57, 100])\n",
      "midi.NoteOnEvent(tick=192, channel=4, data=[57, 0])\n",
      "midi.NoteOnEvent(tick=0, channel=4, data=[59, 100])\n",
      "midi.NoteOnEvent(tick=192, channel=4, data=[59, 0])\n",
      "midi.NoteOnEvent(tick=0, channel=4, data=[47, 100])\n",
      "midi.NoteOnEvent(tick=192, channel=4, data=[47, 0])\n",
      "midi.NoteOnEvent(tick=0, channel=4, data=[57, 100])\n",
      "midi.NoteOnEvent(tick=192, channel=4, data=[57, 0])\n",
      "midi.NoteOnEvent(tick=0, channel=4, data=[55, 100])\n",
      "midi.NoteOnEvent(tick=192, channel=4, data=[55, 0])\n",
      "midi.NoteOnEvent(tick=0, channel=4, data=[57, 100])\n",
      "midi.NoteOnEvent(tick=192, channel=4, data=[57, 0])\n",
      "midi.NoteOnEvent(tick=0, channel=4, data=[45, 100])\n",
      "midi.NoteOnEvent(tick=192, channel=4, data=[45, 0])\n",
      "midi.NoteOnEvent(tick=0, channel=4, data=[43, 100])\n",
      "midi.NoteOnEvent(tick=192, channel=4, data=[43, 0])\n",
      "midi.NoteOnEvent(tick=0, channel=4, data=[48, 100])\n",
      "midi.NoteOnEvent(tick=192, channel=4, data=[48, 0])\n",
      "midi.NoteOnEvent(tick=0, channel=4, data=[45, 100])\n",
      "midi.NoteOnEvent(tick=192, channel=4, data=[45, 0])\n",
      "midi.NoteOnEvent(tick=0, channel=4, data=[47, 100])\n",
      "midi.NoteOnEvent(tick=192, channel=4, data=[47, 0])\n",
      "midi.NoteOnEvent(tick=0, channel=4, data=[40, 100])\n",
      "midi.NoteOnEvent(tick=384, channel=4, data=[40, 0])\n",
      "midi.NoteOnEvent(tick=192, channel=4, data=[60, 100])\n",
      "midi.NoteOnEvent(tick=192, channel=4, data=[60, 0])\n",
      "midi.NoteOnEvent(tick=0, channel=4, data=[51, 100])\n",
      "midi.NoteOnEvent(tick=192, channel=4, data=[51, 0])\n",
      "midi.NoteOnEvent(tick=0, channel=4, data=[51, 100])\n",
      "midi.NoteOnEvent(tick=192, channel=4, data=[51, 0])\n",
      "midi.NoteOnEvent(tick=0, channel=4, data=[51, 100])\n",
      "midi.NoteOnEvent(tick=192, channel=4, data=[51, 0])\n",
      "midi.NoteOnEvent(tick=0, channel=4, data=[54, 100])\n",
      "midi.NoteOnEvent(tick=192, channel=4, data=[54, 0])\n",
      "midi.NoteOnEvent(tick=0, channel=4, data=[45, 100])\n",
      "midi.NoteOnEvent(tick=192, channel=4, data=[45, 0])\n",
      "midi.NoteOnEvent(tick=0, channel=4, data=[45, 100])\n",
      "midi.NoteOnEvent(tick=192, channel=4, data=[45, 0])\n",
      "midi.NoteOnEvent(tick=0, channel=4, data=[45, 100])\n",
      "midi.NoteOnEvent(tick=192, channel=4, data=[45, 0])\n",
      "midi.NoteOnEvent(tick=0, channel=4, data=[48, 100])\n",
      "midi.NoteOnEvent(tick=192, channel=4, data=[48, 0])\n",
      "midi.NoteOnEvent(tick=0, channel=4, data=[42, 100])\n",
      "midi.NoteOnEvent(tick=192, channel=4, data=[42, 0])\n",
      "midi.NoteOnEvent(tick=0, channel=4, data=[40, 100])\n",
      "midi.NoteOnEvent(tick=192, channel=4, data=[40, 0])\n",
      "midi.NoteOnEvent(tick=0, channel=4, data=[47, 100])\n",
      "midi.NoteOnEvent(tick=192, channel=4, data=[47, 0])\n",
      "midi.NoteOnEvent(tick=0, channel=4, data=[47, 100])\n",
      "midi.NoteOnEvent(tick=192, channel=4, data=[47, 0])\n",
      "midi.NoteOnEvent(tick=0, channel=4, data=[40, 100])\n",
      "midi.NoteOnEvent(tick=192, channel=4, data=[40, 0])\n",
      "midi.NoteOnEvent(tick=0, channel=4, data=[52, 100])\n",
      "midi.NoteOnEvent(tick=96, channel=4, data=[52, 0])\n",
      "midi.NoteOnEvent(tick=0, channel=4, data=[50, 100])\n",
      "midi.NoteOnEvent(tick=96, channel=4, data=[50, 0])\n",
      "midi.NoteOnEvent(tick=0, channel=4, data=[48, 100])\n",
      "midi.NoteOnEvent(tick=192, channel=4, data=[48, 0])\n",
      "midi.NoteOnEvent(tick=0, channel=4, data=[47, 100])\n",
      "midi.NoteOnEvent(tick=192, channel=4, data=[47, 0])\n",
      "midi.NoteOnEvent(tick=0, channel=4, data=[45, 100])\n",
      "midi.NoteOnEvent(tick=384, channel=4, data=[45, 0])\n",
      "midi.NoteOnEvent(tick=192, channel=4, data=[57, 100])\n",
      "midi.NoteOnEvent(tick=192, channel=4, data=[57, 0])\n",
      "midi.NoteOnEvent(tick=0, channel=4, data=[64, 100])\n",
      "midi.NoteOnEvent(tick=384, channel=4, data=[64, 0])\n",
      "midi.NoteOnEvent(tick=192, channel=4, data=[52, 100])\n",
      "midi.NoteOnEvent(tick=192, channel=4, data=[52, 0])\n",
      "midi.NoteOnEvent(tick=0, channel=4, data=[44, 100])\n",
      "midi.NoteOnEvent(tick=384, channel=4, data=[44, 0])\n",
      "midi.NoteOnEvent(tick=192, channel=4, data=[52, 100])\n",
      "midi.NoteOnEvent(tick=192, channel=4, data=[52, 0])\n",
      "midi.NoteOnEvent(tick=0, channel=4, data=[57, 100])\n",
      "midi.NoteOnEvent(tick=384, channel=4, data=[57, 0])\n",
      "midi.NoteOnEvent(tick=192, channel=4, data=[57, 100])\n",
      "midi.NoteOnEvent(tick=192, channel=4, data=[57, 0])\n",
      "midi.NoteOnEvent(tick=0, channel=4, data=[45, 100])\n",
      "midi.NoteOnEvent(tick=192, channel=4, data=[45, 0])\n",
      "midi.NoteOnEvent(tick=0, channel=4, data=[48, 100])\n",
      "midi.NoteOnEvent(tick=192, channel=4, data=[48, 0])\n",
      "midi.NoteOnEvent(tick=0, channel=4, data=[50, 100])\n",
      "midi.NoteOnEvent(tick=192, channel=4, data=[50, 0])\n",
      "midi.NoteOnEvent(tick=0, channel=4, data=[53, 100])\n",
      "midi.NoteOnEvent(tick=192, channel=4, data=[53, 0])\n",
      "midi.NoteOnEvent(tick=0, channel=4, data=[43, 100])\n",
      "midi.NoteOnEvent(tick=192, channel=4, data=[43, 0])\n",
      "midi.NoteOnEvent(tick=0, channel=4, data=[47, 100])\n",
      "midi.NoteOnEvent(tick=192, channel=4, data=[47, 0])\n",
      "midi.NoteOnEvent(tick=0, channel=4, data=[48, 100])\n",
      "midi.NoteOnEvent(tick=192, channel=4, data=[48, 0])\n",
      "midi.NoteOnEvent(tick=0, channel=4, data=[52, 100])\n",
      "midi.NoteOnEvent(tick=192, channel=4, data=[52, 0])\n",
      "midi.NoteOnEvent(tick=0, channel=4, data=[53, 100])\n",
      "midi.NoteOnEvent(tick=192, channel=4, data=[53, 0])\n",
      "midi.NoteOnEvent(tick=0, channel=4, data=[57, 100])\n",
      "midi.NoteOnEvent(tick=192, channel=4, data=[57, 0])\n",
      "midi.NoteOnEvent(tick=0, channel=4, data=[47, 100])\n",
      "midi.NoteOnEvent(tick=192, channel=4, data=[47, 0])\n",
      "midi.NoteOnEvent(tick=0, channel=4, data=[50, 100])\n",
      "midi.NoteOnEvent(tick=192, channel=4, data=[50, 0])\n",
      "midi.NoteOnEvent(tick=0, channel=4, data=[40, 100])\n",
      "midi.NoteOnEvent(tick=192, channel=4, data=[40, 0])\n",
      "midi.NoteOnEvent(tick=0, channel=4, data=[52, 100])\n",
      "midi.NoteOnEvent(tick=192, channel=4, data=[52, 0])\n",
      "midi.NoteOnEvent(tick=0, channel=4, data=[56, 100])\n",
      "midi.NoteOnEvent(tick=192, channel=4, data=[56, 0])\n",
      "midi.NoteOnEvent(tick=0, channel=4, data=[52, 100])\n",
      "midi.NoteOnEvent(tick=192, channel=4, data=[52, 0])\n",
      "midi.NoteOnEvent(tick=192, channel=4, data=[57, 100])\n",
      "midi.NoteOnEvent(tick=192, channel=4, data=[57, 0])\n",
      "midi.NoteOnEvent(tick=0, channel=4, data=[60, 100])\n",
      "midi.NoteOnEvent(tick=192, channel=4, data=[60, 0])\n",
      "midi.NoteOnEvent(tick=0, channel=4, data=[57, 100])\n",
      "midi.NoteOnEvent(tick=192, channel=4, data=[57, 0])\n",
      "midi.NoteOnEvent(tick=192, channel=4, data=[57, 100])\n",
      "midi.NoteOnEvent(tick=192, channel=4, data=[57, 0])\n",
      "midi.NoteOnEvent(tick=0, channel=4, data=[53, 100])\n",
      "midi.NoteOnEvent(tick=192, channel=4, data=[53, 0])\n",
      "midi.NoteOnEvent(tick=0, channel=4, data=[50, 100])\n",
      "midi.NoteOnEvent(tick=192, channel=4, data=[50, 0])\n",
      "midi.NoteOnEvent(tick=192, channel=4, data=[55, 100])\n",
      "midi.NoteOnEvent(tick=192, channel=4, data=[55, 0])\n",
      "midi.NoteOnEvent(tick=0, channel=4, data=[59, 100])\n",
      "midi.NoteOnEvent(tick=192, channel=4, data=[59, 0])\n",
      "midi.NoteOnEvent(tick=0, channel=4, data=[55, 100])\n",
      "midi.NoteOnEvent(tick=192, channel=4, data=[55, 0])\n",
      "midi.NoteOnEvent(tick=192, channel=4, data=[55, 100])\n",
      "midi.NoteOnEvent(tick=192, channel=4, data=[55, 0])\n",
      "midi.NoteOnEvent(tick=0, channel=4, data=[52, 100])\n",
      "midi.NoteOnEvent(tick=192, channel=4, data=[52, 0])\n",
      "midi.NoteOnEvent(tick=0, channel=4, data=[48, 100])\n",
      "midi.NoteOnEvent(tick=192, channel=4, data=[48, 0])\n",
      "midi.NoteOnEvent(tick=192, channel=4, data=[53, 100])\n",
      "midi.NoteOnEvent(tick=192, channel=4, data=[53, 0])\n",
      "midi.NoteOnEvent(tick=0, channel=4, data=[57, 100])\n",
      "midi.NoteOnEvent(tick=192, channel=4, data=[57, 0])\n",
      "midi.NoteOnEvent(tick=0, channel=4, data=[53, 100])\n",
      "midi.NoteOnEvent(tick=192, channel=4, data=[53, 0])\n",
      "midi.NoteOnEvent(tick=192, channel=4, data=[53, 100])\n",
      "midi.NoteOnEvent(tick=192, channel=4, data=[53, 0])\n",
      "midi.NoteOnEvent(tick=0, channel=4, data=[50, 100])\n",
      "midi.NoteOnEvent(tick=192, channel=4, data=[50, 0])\n",
      "midi.NoteOnEvent(tick=0, channel=4, data=[47, 100])\n",
      "midi.NoteOnEvent(tick=192, channel=4, data=[47, 0])\n",
      "midi.NoteOnEvent(tick=192, channel=4, data=[52, 100])\n",
      "midi.NoteOnEvent(tick=192, channel=4, data=[52, 0])\n",
      "midi.NoteOnEvent(tick=0, channel=4, data=[56, 100])\n",
      "midi.NoteOnEvent(tick=192, channel=4, data=[56, 0])\n",
      "midi.NoteOnEvent(tick=0, channel=4, data=[52, 100])\n",
      "midi.NoteOnEvent(tick=192, channel=4, data=[52, 0])\n",
      "midi.NoteOnEvent(tick=192, channel=4, data=[52, 100])\n",
      "midi.NoteOnEvent(tick=192, channel=4, data=[52, 0])\n",
      "midi.NoteOnEvent(tick=0, channel=4, data=[48, 100])\n",
      "midi.NoteOnEvent(tick=192, channel=4, data=[48, 0])\n",
      "midi.NoteOnEvent(tick=0, channel=4, data=[45, 100])\n",
      "midi.NoteOnEvent(tick=192, channel=4, data=[45, 0])\n",
      "midi.NoteOnEvent(tick=0, channel=4, data=[57, 100])\n",
      "midi.NoteOnEvent(tick=384, channel=4, data=[57, 0])\n",
      "midi.NoteOnEvent(tick=192, channel=4, data=[45, 100])\n",
      "midi.NoteOnEvent(tick=192, channel=4, data=[45, 0])\n",
      "midi.NoteOnEvent(tick=0, channel=4, data=[57, 100])\n",
      "midi.NoteOnEvent(tick=192, channel=4, data=[57, 0])\n",
      "midi.NoteOnEvent(tick=0, channel=4, data=[45, 100])\n",
      "midi.NoteOnEvent(tick=192, channel=4, data=[45, 0])\n",
      "midi.NoteOnEvent(tick=0, channel=4, data=[52, 100])\n",
      "midi.NoteOnEvent(tick=192, channel=4, data=[52, 0])\n",
      "midi.NoteOnEvent(tick=0, channel=4, data=[40, 100])\n",
      "midi.NoteOnEvent(tick=192, channel=4, data=[40, 0])\n",
      "midi.NoteOnEvent(tick=0, channel=4, data=[45, 100])\n",
      "midi.NoteOnEvent(tick=192, channel=4, data=[45, 0])\n",
      "midi.NoteOnEvent(tick=0, channel=4, data=[57, 100])\n",
      "midi.NoteOnEvent(tick=96, channel=4, data=[57, 0])\n",
      "midi.NoteOnEvent(tick=0, channel=4, data=[59, 100])\n",
      "midi.NoteOnEvent(tick=96, channel=4, data=[59, 0])\n",
      "midi.NoteOnEvent(tick=0, channel=4, data=[60, 100])\n",
      "midi.NoteOnEvent(tick=192, channel=4, data=[60, 0])\n",
      "midi.NoteOnEvent(tick=0, channel=4, data=[57, 100])\n",
      "midi.NoteOnEvent(tick=192, channel=4, data=[57, 0])\n",
      "midi.NoteOnEvent(tick=0, channel=4, data=[45, 100])\n",
      "midi.NoteOnEvent(tick=192, channel=4, data=[45, 0])\n",
      "midi.NoteOnEvent(tick=768, channel=4, data=[55, 100])\n",
      "midi.NoteOnEvent(tick=96, channel=4, data=[55, 0])\n",
      "midi.NoteOnEvent(tick=0, channel=4, data=[57, 100])\n",
      "midi.NoteOnEvent(tick=96, channel=4, data=[57, 0])\n",
      "midi.NoteOnEvent(tick=0, channel=4, data=[59, 100])\n",
      "midi.NoteOnEvent(tick=192, channel=4, data=[59, 0])\n",
      "midi.NoteOnEvent(tick=0, channel=4, data=[55, 100])\n",
      "midi.NoteOnEvent(tick=192, channel=4, data=[55, 0])\n",
      "midi.NoteOnEvent(tick=0, channel=4, data=[43, 100])\n",
      "midi.NoteOnEvent(tick=192, channel=4, data=[43, 0])\n",
      "midi.NoteOnEvent(tick=768, channel=4, data=[53, 100])\n",
      "midi.NoteOnEvent(tick=96, channel=4, data=[53, 0])\n",
      "midi.NoteOnEvent(tick=0, channel=4, data=[55, 100])\n",
      "midi.NoteOnEvent(tick=96, channel=4, data=[55, 0])\n",
      "midi.NoteOnEvent(tick=0, channel=4, data=[57, 100])\n",
      "midi.NoteOnEvent(tick=192, channel=4, data=[57, 0])\n",
      "midi.NoteOnEvent(tick=0, channel=4, data=[53, 100])\n",
      "midi.NoteOnEvent(tick=192, channel=4, data=[53, 0])\n",
      "midi.NoteOnEvent(tick=0, channel=4, data=[41, 100])\n",
      "midi.NoteOnEvent(tick=192, channel=4, data=[41, 0])\n",
      "midi.NoteOnEvent(tick=768, channel=4, data=[53, 100])\n",
      "midi.NoteOnEvent(tick=192, channel=4, data=[53, 0])\n",
      "midi.NoteOnEvent(tick=0, channel=4, data=[52, 100])\n",
      "midi.NoteOnEvent(tick=192, channel=4, data=[52, 0])\n",
      "midi.NoteOnEvent(tick=0, channel=4, data=[50, 100])\n",
      "midi.NoteOnEvent(tick=192, channel=4, data=[50, 0])\n",
      "midi.NoteOnEvent(tick=0, channel=4, data=[48, 100])\n",
      "midi.NoteOnEvent(tick=192, channel=4, data=[48, 0])\n",
      "midi.NoteOnEvent(tick=0, channel=4, data=[60, 100])\n",
      "midi.NoteOnEvent(tick=192, channel=4, data=[60, 0])\n",
      "midi.NoteOnEvent(tick=0, channel=4, data=[59, 100])\n",
      "midi.NoteOnEvent(tick=192, channel=4, data=[59, 0])\n",
      "midi.NoteOnEvent(tick=0, channel=4, data=[57, 100])\n",
      "midi.NoteOnEvent(tick=192, channel=4, data=[57, 0])\n",
      "midi.NoteOnEvent(tick=0, channel=4, data=[55, 100])\n",
      "midi.NoteOnEvent(tick=192, channel=4, data=[55, 0])\n",
      "midi.NoteOnEvent(tick=0, channel=4, data=[57, 100])\n",
      "midi.NoteOnEvent(tick=192, channel=4, data=[57, 0])\n",
      "midi.NoteOnEvent(tick=0, channel=4, data=[55, 100])\n",
      "midi.NoteOnEvent(tick=192, channel=4, data=[55, 0])\n",
      "midi.NoteOnEvent(tick=0, channel=4, data=[53, 100])\n",
      "midi.NoteOnEvent(tick=192, channel=4, data=[53, 0])\n",
      "midi.NoteOnEvent(tick=0, channel=4, data=[52, 100])\n",
      "midi.NoteOnEvent(tick=192, channel=4, data=[52, 0])\n",
      "midi.NoteOnEvent(tick=0, channel=4, data=[55, 100])\n",
      "midi.NoteOnEvent(tick=192, channel=4, data=[55, 0])\n",
      "midi.NoteOnEvent(tick=0, channel=4, data=[52, 100])\n",
      "midi.NoteOnEvent(tick=192, channel=4, data=[52, 0])\n",
      "midi.NoteOnEvent(tick=0, channel=4, data=[48, 100])\n",
      "midi.NoteOnEvent(tick=192, channel=4, data=[48, 0])\n",
      "midi.NoteOnEvent(tick=0, channel=4, data=[53, 100])\n",
      "midi.NoteOnEvent(tick=192, channel=4, data=[53, 0])\n",
      "midi.NoteOnEvent(tick=0, channel=4, data=[57, 100])\n",
      "midi.NoteOnEvent(tick=192, channel=4, data=[57, 0])\n",
      "midi.NoteOnEvent(tick=0, channel=4, data=[53, 100])\n",
      "midi.NoteOnEvent(tick=192, channel=4, data=[53, 0])\n",
      "midi.NoteOnEvent(tick=0, channel=4, data=[50, 100])\n",
      "midi.NoteOnEvent(tick=192, channel=4, data=[50, 0])\n",
      "midi.NoteOnEvent(tick=0, channel=4, data=[52, 100])\n",
      "midi.NoteOnEvent(tick=192, channel=4, data=[52, 0])\n",
      "midi.NoteOnEvent(tick=0, channel=4, data=[48, 100])\n",
      "midi.NoteOnEvent(tick=192, channel=4, data=[48, 0])\n",
      "midi.NoteOnEvent(tick=0, channel=4, data=[55, 100])\n",
      "midi.NoteOnEvent(tick=192, channel=4, data=[55, 0])\n",
      "midi.NoteOnEvent(tick=0, channel=4, data=[43, 100])\n",
      "midi.NoteOnEvent(tick=192, channel=4, data=[43, 0])\n",
      "midi.NoteOnEvent(tick=0, channel=4, data=[36, 100])\n",
      "midi.NoteOnEvent(tick=192, channel=4, data=[36, 0])\n",
      "midi.NoteOnEvent(tick=0, channel=4, data=[48, 100])\n",
      "midi.NoteOnEvent(tick=96, channel=4, data=[48, 0])\n",
      "midi.NoteOnEvent(tick=0, channel=4, data=[50, 100])\n",
      "midi.NoteOnEvent(tick=96, channel=4, data=[50, 0])\n",
      "midi.NoteOnEvent(tick=0, channel=4, data=[52, 100])\n",
      "midi.NoteOnEvent(tick=192, channel=4, data=[52, 0])\n",
      "midi.NoteOnEvent(tick=0, channel=4, data=[48, 100])\n",
      "midi.NoteOnEvent(tick=192, channel=4, data=[48, 0])\n",
      "midi.NoteOnEvent(tick=0, channel=4, data=[47, 100])\n",
      "midi.NoteOnEvent(tick=192, channel=4, data=[47, 0])\n",
      "midi.NoteOnEvent(tick=0, channel=4, data=[55, 100])\n",
      "midi.NoteOnEvent(tick=192, channel=4, data=[55, 0])\n",
      "midi.NoteOnEvent(tick=0, channel=4, data=[48, 100])\n",
      "midi.NoteOnEvent(tick=192, channel=4, data=[48, 0])\n",
      "midi.NoteOnEvent(tick=0, channel=4, data=[55, 100])\n",
      "midi.NoteOnEvent(tick=192, channel=4, data=[55, 0])\n",
      "midi.NoteOnEvent(tick=0, channel=4, data=[50, 100])\n",
      "midi.NoteOnEvent(tick=192, channel=4, data=[50, 0])\n",
      "midi.NoteOnEvent(tick=0, channel=4, data=[55, 100])\n",
      "midi.NoteOnEvent(tick=192, channel=4, data=[55, 0])\n",
      "midi.NoteOnEvent(tick=0, channel=4, data=[52, 100])\n",
      "midi.NoteOnEvent(tick=192, channel=4, data=[52, 0])\n",
      "midi.NoteOnEvent(tick=0, channel=4, data=[55, 100])\n",
      "midi.NoteOnEvent(tick=192, channel=4, data=[55, 0])\n",
      "midi.NoteOnEvent(tick=0, channel=4, data=[53, 100])\n",
      "midi.NoteOnEvent(tick=192, channel=4, data=[53, 0])\n",
      "midi.NoteOnEvent(tick=0, channel=4, data=[55, 100])\n",
      "midi.NoteOnEvent(tick=192, channel=4, data=[55, 0])\n",
      "midi.NoteOnEvent(tick=0, channel=4, data=[57, 100])\n",
      "midi.NoteOnEvent(tick=192, channel=4, data=[57, 0])\n",
      "midi.NoteOnEvent(tick=0, channel=4, data=[53, 100])\n",
      "midi.NoteOnEvent(tick=192, channel=4, data=[53, 0])\n",
      "midi.NoteOnEvent(tick=0, channel=4, data=[55, 100])\n",
      "midi.NoteOnEvent(tick=96, channel=4, data=[55, 0])\n",
      "midi.NoteOnEvent(tick=0, channel=4, data=[57, 100])\n",
      "midi.NoteOnEvent(tick=96, channel=4, data=[57, 0])\n",
      "midi.NoteOnEvent(tick=0, channel=4, data=[59, 100])\n",
      "midi.NoteOnEvent(tick=96, channel=4, data=[59, 0])\n",
      "midi.NoteOnEvent(tick=0, channel=4, data=[57, 100])\n",
      "midi.NoteOnEvent(tick=96, channel=4, data=[57, 0])\n",
      "midi.NoteOnEvent(tick=0, channel=4, data=[55, 100])\n",
      "midi.NoteOnEvent(tick=96, channel=4, data=[55, 0])\n",
      "midi.NoteOnEvent(tick=0, channel=4, data=[53, 100])\n",
      "midi.NoteOnEvent(tick=96, channel=4, data=[53, 0])\n",
      "midi.NoteOnEvent(tick=0, channel=4, data=[52, 100])\n",
      "midi.NoteOnEvent(tick=96, channel=4, data=[52, 0])\n",
      "midi.NoteOnEvent(tick=0, channel=4, data=[50, 100])\n",
      "midi.NoteOnEvent(tick=96, channel=4, data=[50, 0])\n",
      "midi.NoteOnEvent(tick=0, channel=4, data=[48, 100])\n",
      "midi.NoteOnEvent(tick=192, channel=4, data=[48, 0])\n",
      "midi.NoteOnEvent(tick=0, channel=4, data=[52, 100])\n",
      "midi.NoteOnEvent(tick=192, channel=4, data=[52, 0])\n",
      "midi.NoteOnEvent(tick=0, channel=4, data=[48, 100])\n",
      "midi.NoteOnEvent(tick=192, channel=4, data=[48, 0])\n",
      "midi.NoteOnEvent(tick=0, channel=4, data=[45, 100])\n",
      "midi.NoteOnEvent(tick=192, channel=4, data=[45, 0])\n",
      "midi.NoteOnEvent(tick=0, channel=4, data=[50, 100])\n",
      "midi.NoteOnEvent(tick=192, channel=4, data=[50, 0])\n",
      "midi.NoteOnEvent(tick=0, channel=4, data=[38, 100])\n",
      "midi.NoteOnEvent(tick=192, channel=4, data=[38, 0])\n",
      "midi.NoteOnEvent(tick=1344, channel=4, data=[54, 100])\n",
      "midi.NoteOnEvent(tick=96, channel=4, data=[54, 0])\n",
      "midi.NoteOnEvent(tick=0, channel=4, data=[52, 100])\n",
      "midi.NoteOnEvent(tick=96, channel=4, data=[52, 0])\n",
      "midi.NoteOnEvent(tick=0, channel=4, data=[50, 100])\n",
      "midi.NoteOnEvent(tick=96, channel=4, data=[50, 0])\n",
      "midi.NoteOnEvent(tick=0, channel=4, data=[48, 100])\n",
      "midi.NoteOnEvent(tick=96, channel=4, data=[48, 0])\n",
      "midi.NoteOnEvent(tick=0, channel=4, data=[47, 100])\n",
      "midi.NoteOnEvent(tick=96, channel=4, data=[47, 0])\n",
      "midi.NoteOnEvent(tick=0, channel=4, data=[45, 100])\n",
      "midi.NoteOnEvent(tick=96, channel=4, data=[45, 0])\n",
      "midi.NoteOnEvent(tick=0, channel=4, data=[47, 100])\n",
      "midi.NoteOnEvent(tick=192, channel=4, data=[47, 0])\n",
      "midi.NoteOnEvent(tick=0, channel=4, data=[50, 100])\n",
      "midi.NoteOnEvent(tick=192, channel=4, data=[50, 0])\n",
      "midi.NoteOnEvent(tick=0, channel=4, data=[47, 100])\n",
      "midi.NoteOnEvent(tick=192, channel=4, data=[47, 0])\n",
      "midi.NoteOnEvent(tick=0, channel=4, data=[43, 100])\n",
      "midi.NoteOnEvent(tick=192, channel=4, data=[43, 0])\n",
      "midi.NoteOnEvent(tick=0, channel=4, data=[48, 100])\n",
      "midi.NoteOnEvent(tick=192, channel=4, data=[48, 0])\n",
      "midi.NoteOnEvent(tick=0, channel=4, data=[36, 100])\n",
      "midi.NoteOnEvent(tick=192, channel=4, data=[36, 0])\n",
      "midi.NoteOnEvent(tick=1344, channel=4, data=[60, 100])\n",
      "midi.NoteOnEvent(tick=96, channel=4, data=[60, 0])\n",
      "midi.NoteOnEvent(tick=0, channel=4, data=[59, 100])\n",
      "midi.NoteOnEvent(tick=96, channel=4, data=[59, 0])\n",
      "midi.NoteOnEvent(tick=0, channel=4, data=[60, 100])\n",
      "midi.NoteOnEvent(tick=96, channel=4, data=[60, 0])\n",
      "midi.NoteOnEvent(tick=0, channel=4, data=[62, 100])\n",
      "midi.NoteOnEvent(tick=96, channel=4, data=[62, 0])\n",
      "midi.NoteOnEvent(tick=0, channel=4, data=[60, 100])\n",
      "midi.NoteOnEvent(tick=96, channel=4, data=[60, 0])\n",
      "midi.NoteOnEvent(tick=0, channel=4, data=[59, 100])\n",
      "midi.NoteOnEvent(tick=96, channel=4, data=[59, 0])\n",
      "midi.NoteOnEvent(tick=0, channel=4, data=[57, 100])\n",
      "midi.NoteOnEvent(tick=96, channel=4, data=[57, 0])\n",
      "midi.NoteOnEvent(tick=0, channel=4, data=[59, 100])\n",
      "midi.NoteOnEvent(tick=96, channel=4, data=[59, 0])\n",
      "midi.NoteOnEvent(tick=0, channel=4, data=[57, 100])\n",
      "midi.NoteOnEvent(tick=96, channel=4, data=[57, 0])\n",
      "midi.NoteOnEvent(tick=0, channel=4, data=[55, 100])\n",
      "midi.NoteOnEvent(tick=96, channel=4, data=[55, 0])\n",
      "midi.NoteOnEvent(tick=0, channel=4, data=[54, 100])\n",
      "midi.NoteOnEvent(tick=96, channel=4, data=[54, 0])\n",
      "midi.NoteOnEvent(tick=0, channel=4, data=[55, 100])\n",
      "midi.NoteOnEvent(tick=96, channel=4, data=[55, 0])\n",
      "midi.NoteOnEvent(tick=0, channel=4, data=[54, 100])\n",
      "midi.NoteOnEvent(tick=96, channel=4, data=[54, 0])\n",
      "midi.NoteOnEvent(tick=0, channel=4, data=[52, 100])\n",
      "midi.NoteOnEvent(tick=96, channel=4, data=[52, 0])\n",
      "midi.NoteOnEvent(tick=0, channel=4, data=[51, 100])\n",
      "midi.NoteOnEvent(tick=96, channel=4, data=[51, 0])\n",
      "midi.NoteOnEvent(tick=0, channel=4, data=[47, 100])\n",
      "midi.NoteOnEvent(tick=96, channel=4, data=[47, 0])\n",
      "midi.NoteOnEvent(tick=0, channel=4, data=[49, 100])\n",
      "midi.NoteOnEvent(tick=96, channel=4, data=[49, 0])\n",
      "midi.NoteOnEvent(tick=0, channel=4, data=[51, 100])\n",
      "midi.NoteOnEvent(tick=96, channel=4, data=[51, 0])\n",
      "midi.NoteOnEvent(tick=0, channel=4, data=[52, 100])\n",
      "midi.NoteOnEvent(tick=96, channel=4, data=[52, 0])\n",
      "midi.NoteOnEvent(tick=0, channel=4, data=[54, 100])\n",
      "midi.NoteOnEvent(tick=96, channel=4, data=[54, 0])\n",
      "midi.NoteOnEvent(tick=0, channel=4, data=[55, 100])\n",
      "midi.NoteOnEvent(tick=96, channel=4, data=[55, 0])\n",
      "midi.NoteOnEvent(tick=0, channel=4, data=[52, 100])\n",
      "midi.NoteOnEvent(tick=96, channel=4, data=[52, 0])\n",
      "midi.NoteOnEvent(tick=0, channel=4, data=[48, 100])\n",
      "midi.NoteOnEvent(tick=192, channel=4, data=[48, 0])\n",
      "midi.NoteOnEvent(tick=0, channel=4, data=[47, 100])\n",
      "midi.NoteOnEvent(tick=192, channel=4, data=[47, 0])\n",
      "midi.NoteOnEvent(tick=0, channel=4, data=[48, 100])\n",
      "midi.NoteOnEvent(tick=192, channel=4, data=[48, 0])\n",
      "midi.NoteOnEvent(tick=0, channel=4, data=[45, 100])\n",
      "midi.NoteOnEvent(tick=192, channel=4, data=[45, 0])\n",
      "midi.NoteOnEvent(tick=0, channel=4, data=[47, 100])\n",
      "midi.NoteOnEvent(tick=288, channel=4, data=[47, 0])\n",
      "midi.NoteOnEvent(tick=0, channel=4, data=[49, 100])\n",
      "midi.NoteOnEvent(tick=48, channel=4, data=[49, 0])\n",
      "midi.NoteOnEvent(tick=0, channel=4, data=[51, 100])\n",
      "midi.NoteOnEvent(tick=48, channel=4, data=[51, 0])\n",
      "midi.NoteOnEvent(tick=0, channel=4, data=[52, 100])\n",
      "midi.NoteOnEvent(tick=96, channel=4, data=[52, 0])\n",
      "midi.NoteOnEvent(tick=0, channel=4, data=[54, 100])\n",
      "midi.NoteOnEvent(tick=96, channel=4, data=[54, 0])\n",
      "midi.NoteOnEvent(tick=0, channel=4, data=[55, 100])\n",
      "midi.NoteOnEvent(tick=96, channel=4, data=[55, 0])\n",
      "midi.NoteOnEvent(tick=0, channel=4, data=[57, 100])\n",
      "midi.NoteOnEvent(tick=96, channel=4, data=[57, 0])\n",
      "midi.NoteOnEvent(tick=0, channel=4, data=[59, 100])\n",
      "midi.NoteOnEvent(tick=192, channel=4, data=[59, 0])\n",
      "midi.NoteOnEvent(tick=0, channel=4, data=[57, 100])\n",
      "midi.NoteOnEvent(tick=192, channel=4, data=[57, 0])\n",
      "midi.NoteOnEvent(tick=0, channel=4, data=[59, 100])\n",
      "midi.NoteOnEvent(tick=192, channel=4, data=[59, 0])\n",
      "midi.NoteOnEvent(tick=0, channel=4, data=[47, 100])\n",
      "midi.NoteOnEvent(tick=192, channel=4, data=[47, 0])\n",
      "midi.NoteOnEvent(tick=0, channel=4, data=[57, 100])\n",
      "midi.NoteOnEvent(tick=192, channel=4, data=[57, 0])\n",
      "midi.NoteOnEvent(tick=0, channel=4, data=[59, 100])\n",
      "midi.NoteOnEvent(tick=192, channel=4, data=[59, 0])\n",
      "midi.NoteOnEvent(tick=0, channel=4, data=[57, 100])\n",
      "midi.NoteOnEvent(tick=192, channel=4, data=[57, 0])\n",
      "midi.NoteOnEvent(tick=0, channel=4, data=[55, 100])\n",
      "midi.NoteOnEvent(tick=192, channel=4, data=[55, 0])\n",
      "midi.NoteOnEvent(tick=0, channel=4, data=[54, 100])\n",
      "midi.NoteOnEvent(tick=192, channel=4, data=[54, 0])\n",
      "midi.NoteOnEvent(tick=0, channel=4, data=[55, 100])\n",
      "midi.NoteOnEvent(tick=192, channel=4, data=[55, 0])\n",
      "midi.NoteOnEvent(tick=0, channel=4, data=[54, 100])\n",
      "midi.NoteOnEvent(tick=192, channel=4, data=[54, 0])\n",
      "midi.NoteOnEvent(tick=0, channel=4, data=[52, 100])\n",
      "midi.NoteOnEvent(tick=192, channel=4, data=[52, 0])\n",
      "midi.NoteOnEvent(tick=0, channel=4, data=[51, 100])\n",
      "midi.NoteOnEvent(tick=192, channel=4, data=[51, 0])\n",
      "midi.NoteOnEvent(tick=0, channel=4, data=[52, 100])\n",
      "midi.NoteOnEvent(tick=192, channel=4, data=[52, 0])\n",
      "midi.NoteOnEvent(tick=0, channel=4, data=[54, 100])\n",
      "midi.NoteOnEvent(tick=192, channel=4, data=[54, 0])\n",
      "midi.NoteOnEvent(tick=0, channel=4, data=[55, 100])\n",
      "midi.NoteOnEvent(tick=192, channel=4, data=[55, 0])\n",
      "midi.NoteOnEvent(tick=0, channel=4, data=[57, 100])\n",
      "midi.NoteOnEvent(tick=192, channel=4, data=[57, 0])\n",
      "midi.NoteOnEvent(tick=0, channel=4, data=[59, 100])\n",
      "midi.NoteOnEvent(tick=192, channel=4, data=[59, 0])\n",
      "midi.NoteOnEvent(tick=0, channel=4, data=[60, 100])\n",
      "midi.NoteOnEvent(tick=192, channel=4, data=[60, 0])\n",
      "midi.NoteOnEvent(tick=0, channel=4, data=[54, 100])\n",
      "midi.NoteOnEvent(tick=192, channel=4, data=[54, 0])\n",
      "midi.NoteOnEvent(tick=0, channel=4, data=[59, 100])\n",
      "midi.NoteOnEvent(tick=192, channel=4, data=[59, 0])\n",
      "midi.NoteOnEvent(tick=0, channel=4, data=[57, 100])\n",
      "midi.NoteOnEvent(tick=96, channel=4, data=[57, 0])\n",
      "midi.NoteOnEvent(tick=0, channel=4, data=[55, 100])\n",
      "midi.NoteOnEvent(tick=96, channel=4, data=[55, 0])\n",
      "midi.NoteOnEvent(tick=0, channel=4, data=[54, 100])\n",
      "midi.NoteOnEvent(tick=192, channel=4, data=[54, 0])\n",
      "midi.NoteOnEvent(tick=0, channel=4, data=[52, 100])\n",
      "midi.NoteOnEvent(tick=192, channel=4, data=[52, 0])\n",
      "midi.NoteOnEvent(tick=0, channel=4, data=[51, 100])\n",
      "midi.NoteOnEvent(tick=192, channel=4, data=[51, 0])\n",
      "midi.NoteOnEvent(tick=0, channel=4, data=[49, 100])\n",
      "midi.NoteOnEvent(tick=192, channel=4, data=[49, 0])\n",
      "midi.NoteOnEvent(tick=0, channel=4, data=[47, 100])\n",
      "midi.NoteOnEvent(tick=192, channel=4, data=[47, 0])\n",
      "midi.NoteOnEvent(tick=0, channel=4, data=[45, 100])\n",
      "midi.NoteOnEvent(tick=192, channel=4, data=[45, 0])\n",
      "midi.NoteOnEvent(tick=0, channel=4, data=[43, 100])\n",
      "midi.NoteOnEvent(tick=192, channel=4, data=[43, 0])\n",
      "midi.NoteOnEvent(tick=0, channel=4, data=[48, 100])\n",
      "midi.NoteOnEvent(tick=192, channel=4, data=[48, 0])\n",
      "midi.NoteOnEvent(tick=0, channel=4, data=[45, 100])\n",
      "midi.NoteOnEvent(tick=192, channel=4, data=[45, 0])\n",
      "midi.NoteOnEvent(tick=0, channel=4, data=[47, 100])\n",
      "midi.NoteOnEvent(tick=192, channel=4, data=[47, 0])\n",
      "midi.NoteOnEvent(tick=0, channel=4, data=[36, 100])\n",
      "midi.NoteOnEvent(tick=384, channel=4, data=[36, 0])\n",
      "midi.NoteOnEvent(tick=192, channel=4, data=[60, 100])\n",
      "midi.NoteOnEvent(tick=192, channel=4, data=[60, 0])\n",
      "midi.NoteOnEvent(tick=0, channel=4, data=[51, 100])\n",
      "midi.NoteOnEvent(tick=192, channel=4, data=[51, 0])\n",
      "midi.NoteOnEvent(tick=0, channel=4, data=[51, 100])\n",
      "midi.NoteOnEvent(tick=192, channel=4, data=[51, 0])\n",
      "midi.NoteOnEvent(tick=0, channel=4, data=[51, 100])\n",
      "midi.NoteOnEvent(tick=192, channel=4, data=[51, 0])\n",
      "midi.NoteOnEvent(tick=0, channel=4, data=[54, 100])\n",
      "midi.NoteOnEvent(tick=192, channel=4, data=[54, 0])\n",
      "midi.NoteOnEvent(tick=0, channel=4, data=[45, 100])\n",
      "midi.NoteOnEvent(tick=192, channel=4, data=[45, 0])\n",
      "midi.NoteOnEvent(tick=0, channel=4, data=[45, 100])\n",
      "midi.NoteOnEvent(tick=192, channel=4, data=[45, 0])\n",
      "midi.NoteOnEvent(tick=0, channel=4, data=[45, 100])\n",
      "midi.NoteOnEvent(tick=192, channel=4, data=[45, 0])\n",
      "midi.NoteOnEvent(tick=0, channel=4, data=[48, 100])\n",
      "midi.NoteOnEvent(tick=192, channel=4, data=[48, 0])\n",
      "midi.NoteOnEvent(tick=0, channel=4, data=[42, 100])\n",
      "midi.NoteOnEvent(tick=192, channel=4, data=[42, 0])\n",
      "midi.NoteOnEvent(tick=0, channel=4, data=[43, 100])\n",
      "midi.NoteOnEvent(tick=96, channel=4, data=[43, 0])\n",
      "midi.NoteOnEvent(tick=0, channel=4, data=[45, 100])\n",
      "midi.NoteOnEvent(tick=96, channel=4, data=[45, 0])\n",
      "midi.NoteOnEvent(tick=0, channel=4, data=[47, 100])\n",
      "midi.NoteOnEvent(tick=192, channel=4, data=[47, 0])\n",
      "midi.NoteOnEvent(tick=0, channel=4, data=[47, 100])\n",
      "midi.NoteOnEvent(tick=192, channel=4, data=[47, 0])\n",
      "midi.NoteOnEvent(tick=0, channel=4, data=[40, 100])\n",
      "midi.NoteOnEvent(tick=192, channel=4, data=[40, 0])\n",
      "midi.NoteOnEvent(tick=0, channel=4, data=[52, 100])\n",
      "midi.NoteOnEvent(tick=96, channel=4, data=[52, 0])\n",
      "midi.NoteOnEvent(tick=0, channel=4, data=[51, 100])\n",
      "midi.NoteOnEvent(tick=96, channel=4, data=[51, 0])\n",
      "midi.NoteOnEvent(tick=0, channel=4, data=[52, 100])\n",
      "midi.NoteOnEvent(tick=192, channel=4, data=[52, 0])\n",
      "midi.NoteOnEvent(tick=0, channel=4, data=[54, 100])\n",
      "midi.NoteOnEvent(tick=192, channel=4, data=[54, 0])\n",
      "midi.NoteOnEvent(tick=0, channel=4, data=[55, 100])\n",
      "midi.NoteOnEvent(tick=384, channel=4, data=[55, 0])\n",
      "midi.NoteOnEvent(tick=192, channel=4, data=[52, 100])\n",
      "midi.NoteOnEvent(tick=192, channel=4, data=[52, 0])\n",
      "midi.NoteOnEvent(tick=0, channel=4, data=[59, 100])\n",
      "midi.NoteOnEvent(tick=384, channel=4, data=[59, 0])\n",
      "midi.NoteOnEvent(tick=192, channel=4, data=[47, 100])\n",
      "midi.NoteOnEvent(tick=192, channel=4, data=[47, 0])\n",
      "midi.NoteOnEvent(tick=0, channel=4, data=[39, 100])\n",
      "midi.NoteOnEvent(tick=384, channel=4, data=[39, 0])\n",
      "midi.NoteOnEvent(tick=192, channel=4, data=[47, 100])\n",
      "midi.NoteOnEvent(tick=192, channel=4, data=[47, 0])\n",
      "midi.NoteOnEvent(tick=0, channel=4, data=[52, 100])\n",
      "midi.NoteOnEvent(tick=384, channel=4, data=[52, 0])\n",
      "midi.NoteOnEvent(tick=1344, channel=4, data=[52, 100])\n",
      "midi.NoteOnEvent(tick=192, channel=4, data=[52, 0])\n",
      "midi.NoteOnEvent(tick=0, channel=4, data=[40, 100])\n",
      "midi.NoteOnEvent(tick=192, channel=4, data=[40, 0])\n",
      "midi.NoteOnEvent(tick=0, channel=4, data=[52, 100])\n",
      "midi.NoteOnEvent(tick=192, channel=4, data=[52, 0])\n",
      "midi.NoteOnEvent(tick=0, channel=4, data=[45, 100])\n",
      "midi.NoteOnEvent(tick=384, channel=4, data=[45, 0])\n",
      "midi.NoteOnEvent(tick=576, channel=4, data=[57, 100])\n",
      "midi.NoteOnEvent(tick=192, channel=4, data=[57, 0])\n",
      "midi.NoteOnEvent(tick=0, channel=4, data=[45, 100])\n",
      "midi.NoteOnEvent(tick=192, channel=4, data=[45, 0])\n",
      "midi.NoteOnEvent(tick=0, channel=4, data=[57, 100])\n",
      "midi.NoteOnEvent(tick=192, channel=4, data=[57, 0])\n",
      "midi.NoteOnEvent(tick=0, channel=4, data=[50, 100])\n",
      "midi.NoteOnEvent(tick=384, channel=4, data=[50, 0])\n",
      "midi.NoteOnEvent(tick=576, channel=4, data=[50, 100])\n",
      "midi.NoteOnEvent(tick=192, channel=4, data=[50, 0])\n",
      "midi.NoteOnEvent(tick=0, channel=4, data=[38, 100])\n",
      "midi.NoteOnEvent(tick=192, channel=4, data=[38, 0])\n",
      "midi.NoteOnEvent(tick=0, channel=4, data=[50, 100])\n",
      "midi.NoteOnEvent(tick=192, channel=4, data=[50, 0])\n",
      "midi.NoteOnEvent(tick=0, channel=4, data=[43, 100])\n",
      "midi.NoteOnEvent(tick=384, channel=4, data=[43, 0])\n",
      "midi.NoteOnEvent(tick=576, channel=4, data=[55, 100])\n",
      "midi.NoteOnEvent(tick=192, channel=4, data=[55, 0])\n",
      "midi.NoteOnEvent(tick=0, channel=4, data=[43, 100])\n",
      "midi.NoteOnEvent(tick=192, channel=4, data=[43, 0])\n",
      "midi.NoteOnEvent(tick=0, channel=4, data=[55, 100])\n",
      "midi.NoteOnEvent(tick=192, channel=4, data=[55, 0])\n",
      "midi.NoteOnEvent(tick=0, channel=4, data=[48, 100])\n",
      "midi.NoteOnEvent(tick=384, channel=4, data=[48, 0])\n",
      "midi.NoteOnEvent(tick=0, channel=4, data=[58, 100])\n",
      "midi.NoteOnEvent(tick=384, channel=4, data=[58, 0])\n",
      "midi.NoteOnEvent(tick=0, channel=4, data=[57, 100])\n",
      "midi.NoteOnEvent(tick=384, channel=4, data=[57, 0])\n",
      "midi.NoteOnEvent(tick=0, channel=4, data=[55, 100])\n",
      "midi.NoteOnEvent(tick=384, channel=4, data=[55, 0])\n",
      "midi.NoteOnEvent(tick=0, channel=4, data=[53, 100])\n",
      "midi.NoteOnEvent(tick=192, channel=4, data=[53, 0])\n",
      "midi.NoteOnEvent(tick=0, channel=4, data=[52, 100])\n",
      "midi.NoteOnEvent(tick=192, channel=4, data=[52, 0])\n",
      "midi.NoteOnEvent(tick=0, channel=4, data=[50, 100])\n",
      "midi.NoteOnEvent(tick=192, channel=4, data=[50, 0])\n",
      "midi.NoteOnEvent(tick=0, channel=4, data=[53, 100])\n",
      "midi.NoteOnEvent(tick=192, channel=4, data=[53, 0])\n",
      "midi.NoteOnEvent(tick=0, channel=4, data=[55, 100])\n",
      "midi.NoteOnEvent(tick=192, channel=4, data=[55, 0])\n",
      "midi.NoteOnEvent(tick=0, channel=4, data=[53, 100])\n",
      "midi.NoteOnEvent(tick=192, channel=4, data=[53, 0])\n",
      "midi.NoteOnEvent(tick=0, channel=4, data=[52, 100])\n",
      "midi.NoteOnEvent(tick=192, channel=4, data=[52, 0])\n",
      "midi.NoteOnEvent(tick=0, channel=4, data=[55, 100])\n",
      "midi.NoteOnEvent(tick=192, channel=4, data=[55, 0])\n",
      "midi.NoteOnEvent(tick=0, channel=4, data=[57, 100])\n",
      "midi.NoteOnEvent(tick=192, channel=4, data=[57, 0])\n",
      "midi.NoteOnEvent(tick=0, channel=4, data=[59, 100])\n",
      "midi.NoteOnEvent(tick=192, channel=4, data=[59, 0])\n",
      "midi.NoteOnEvent(tick=0, channel=4, data=[61, 100])\n",
      "midi.NoteOnEvent(tick=192, channel=4, data=[61, 0])\n",
      "midi.NoteOnEvent(tick=0, channel=4, data=[57, 100])\n",
      "midi.NoteOnEvent(tick=192, channel=4, data=[57, 0])\n",
      "midi.NoteOnEvent(tick=0, channel=4, data=[53, 100])\n",
      "midi.NoteOnEvent(tick=192, channel=4, data=[53, 0])\n",
      "midi.NoteOnEvent(tick=0, channel=4, data=[57, 100])\n",
      "midi.NoteOnEvent(tick=192, channel=4, data=[57, 0])\n",
      "midi.NoteOnEvent(tick=0, channel=4, data=[53, 100])\n",
      "midi.NoteOnEvent(tick=192, channel=4, data=[53, 0])\n",
      "midi.NoteOnEvent(tick=0, channel=4, data=[50, 100])\n",
      "midi.NoteOnEvent(tick=192, channel=4, data=[50, 0])\n",
      "midi.NoteOnEvent(tick=0, channel=4, data=[55, 100])\n",
      "midi.NoteOnEvent(tick=192, channel=4, data=[55, 0])\n",
      "midi.NoteOnEvent(tick=0, channel=4, data=[58, 100])\n",
      "midi.NoteOnEvent(tick=192, channel=4, data=[58, 0])\n",
      "midi.NoteOnEvent(tick=0, channel=4, data=[55, 100])\n",
      "midi.NoteOnEvent(tick=192, channel=4, data=[55, 0])\n",
      "midi.NoteOnEvent(tick=0, channel=4, data=[50, 100])\n",
      "midi.NoteOnEvent(tick=192, channel=4, data=[50, 0])\n",
      "midi.NoteOnEvent(tick=0, channel=4, data=[62, 100])\n",
      "midi.NoteOnEvent(tick=192, channel=4, data=[62, 0])\n",
      "midi.NoteOnEvent(tick=0, channel=4, data=[50, 100])\n",
      "midi.NoteOnEvent(tick=192, channel=4, data=[50, 0])\n",
      "midi.NoteOnEvent(tick=0, channel=4, data=[57, 100])\n",
      "midi.NoteOnEvent(tick=192, channel=4, data=[57, 0])\n",
      "midi.NoteOnEvent(tick=0, channel=4, data=[45, 100])\n",
      "midi.NoteOnEvent(tick=192, channel=4, data=[45, 0])\n",
      "midi.NoteOnEvent(tick=0, channel=4, data=[50, 100])\n",
      "midi.NoteOnEvent(tick=192, channel=4, data=[50, 0])\n",
      "midi.NoteOnEvent(tick=0, channel=4, data=[38, 100])\n",
      "midi.NoteOnEvent(tick=192, channel=4, data=[38, 0])\n",
      "midi.NoteOnEvent(tick=2112, channel=4, data=[55, 100])\n",
      "midi.NoteOnEvent(tick=96, channel=4, data=[55, 0])\n",
      "midi.NoteOnEvent(tick=0, channel=4, data=[57, 100])\n",
      "midi.NoteOnEvent(tick=96, channel=4, data=[57, 0])\n",
      "midi.NoteOnEvent(tick=0, channel=4, data=[55, 100])\n",
      "midi.NoteOnEvent(tick=96, channel=4, data=[55, 0])\n",
      "midi.NoteOnEvent(tick=0, channel=4, data=[53, 100])\n",
      "midi.NoteOnEvent(tick=96, channel=4, data=[53, 0])\n",
      "midi.NoteOnEvent(tick=0, channel=4, data=[52, 100])\n",
      "midi.NoteOnEvent(tick=96, channel=4, data=[52, 0])\n",
      "midi.NoteOnEvent(tick=0, channel=4, data=[50, 100])\n",
      "midi.NoteOnEvent(tick=96, channel=4, data=[50, 0])\n",
      "midi.NoteOnEvent(tick=0, channel=4, data=[48, 100])\n",
      "midi.NoteOnEvent(tick=192, channel=4, data=[48, 0])\n",
      "midi.NoteOnEvent(tick=0, channel=4, data=[60, 100])\n",
      "midi.NoteOnEvent(tick=192, channel=4, data=[60, 0])\n",
      "midi.NoteOnEvent(tick=1344, channel=4, data=[53, 100])\n",
      "midi.NoteOnEvent(tick=96, channel=4, data=[53, 0])\n",
      "midi.NoteOnEvent(tick=0, channel=4, data=[55, 100])\n",
      "midi.NoteOnEvent(tick=96, channel=4, data=[55, 0])\n",
      "midi.NoteOnEvent(tick=0, channel=4, data=[53, 100])\n",
      "midi.NoteOnEvent(tick=96, channel=4, data=[53, 0])\n",
      "midi.NoteOnEvent(tick=0, channel=4, data=[52, 100])\n",
      "midi.NoteOnEvent(tick=96, channel=4, data=[52, 0])\n",
      "midi.NoteOnEvent(tick=0, channel=4, data=[50, 100])\n",
      "midi.NoteOnEvent(tick=96, channel=4, data=[50, 0])\n",
      "midi.NoteOnEvent(tick=0, channel=4, data=[48, 100])\n",
      "midi.NoteOnEvent(tick=96, channel=4, data=[48, 0])\n",
      "midi.NoteOnEvent(tick=0, channel=4, data=[46, 100])\n",
      "midi.NoteOnEvent(tick=192, channel=4, data=[46, 0])\n",
      "midi.NoteOnEvent(tick=0, channel=4, data=[58, 100])\n",
      "midi.NoteOnEvent(tick=192, channel=4, data=[58, 0])\n",
      "midi.NoteOnEvent(tick=1344, channel=4, data=[52, 100])\n",
      "midi.NoteOnEvent(tick=96, channel=4, data=[52, 0])\n",
      "midi.NoteOnEvent(tick=0, channel=4, data=[53, 100])\n",
      "midi.NoteOnEvent(tick=96, channel=4, data=[53, 0])\n",
      "midi.NoteOnEvent(tick=0, channel=4, data=[52, 100])\n",
      "midi.NoteOnEvent(tick=96, channel=4, data=[52, 0])\n",
      "midi.NoteOnEvent(tick=0, channel=4, data=[50, 100])\n",
      "midi.NoteOnEvent(tick=96, channel=4, data=[50, 0])\n",
      "midi.NoteOnEvent(tick=0, channel=4, data=[49, 100])\n",
      "midi.NoteOnEvent(tick=96, channel=4, data=[49, 0])\n",
      "midi.NoteOnEvent(tick=0, channel=4, data=[47, 100])\n",
      "midi.NoteOnEvent(tick=96, channel=4, data=[47, 0])\n",
      "midi.NoteOnEvent(tick=0, channel=4, data=[45, 100])\n",
      "midi.NoteOnEvent(tick=192, channel=4, data=[45, 0])\n",
      "midi.NoteOnEvent(tick=0, channel=4, data=[57, 100])\n",
      "midi.NoteOnEvent(tick=192, channel=4, data=[57, 0])\n",
      "midi.NoteOnEvent(tick=1344, channel=4, data=[50, 100])\n",
      "midi.NoteOnEvent(tick=192, channel=4, data=[50, 0])\n",
      "midi.NoteOnEvent(tick=0, channel=4, data=[62, 100])\n",
      "midi.NoteOnEvent(tick=192, channel=4, data=[62, 0])\n",
      "midi.NoteOnEvent(tick=0, channel=4, data=[53, 100])\n",
      "midi.NoteOnEvent(tick=192, channel=4, data=[53, 0])\n",
      "midi.NoteOnEvent(tick=0, channel=4, data=[55, 100])\n",
      "midi.NoteOnEvent(tick=192, channel=4, data=[55, 0])\n",
      "midi.NoteOnEvent(tick=0, channel=4, data=[57, 100])\n",
      "midi.NoteOnEvent(tick=192, channel=4, data=[57, 0])\n",
      "midi.NoteOnEvent(tick=0, channel=4, data=[59, 100])\n",
      "midi.NoteOnEvent(tick=192, channel=4, data=[59, 0])\n",
      "midi.NoteOnEvent(tick=0, channel=4, data=[55, 100])\n",
      "midi.NoteOnEvent(tick=192, channel=4, data=[55, 0])\n",
      "midi.NoteOnEvent(tick=0, channel=4, data=[60, 100])\n",
      "midi.NoteOnEvent(tick=192, channel=4, data=[60, 0])\n",
      "midi.NoteOnEvent(tick=0, channel=4, data=[48, 100])\n",
      "midi.NoteOnEvent(tick=192, channel=4, data=[48, 0])\n",
      "midi.NoteOnEvent(tick=0, channel=4, data=[60, 100])\n",
      "midi.NoteOnEvent(tick=192, channel=4, data=[60, 0])\n",
      "midi.NoteOnEvent(tick=0, channel=4, data=[52, 100])\n",
      "midi.NoteOnEvent(tick=192, channel=4, data=[52, 0])\n",
      "midi.NoteOnEvent(tick=0, channel=4, data=[53, 100])\n",
      "midi.NoteOnEvent(tick=192, channel=4, data=[53, 0])\n",
      "midi.NoteOnEvent(tick=0, channel=4, data=[55, 100])\n",
      "midi.NoteOnEvent(tick=192, channel=4, data=[55, 0])\n",
      "midi.NoteOnEvent(tick=0, channel=4, data=[57, 100])\n",
      "midi.NoteOnEvent(tick=192, channel=4, data=[57, 0])\n",
      "midi.NoteOnEvent(tick=0, channel=4, data=[53, 100])\n",
      "midi.NoteOnEvent(tick=192, channel=4, data=[53, 0])\n",
      "midi.NoteOnEvent(tick=0, channel=4, data=[59, 100])\n",
      "midi.NoteOnEvent(tick=192, channel=4, data=[59, 0])\n",
      "midi.NoteOnEvent(tick=0, channel=4, data=[47, 100])\n",
      "midi.NoteOnEvent(tick=192, channel=4, data=[47, 0])\n",
      "midi.NoteOnEvent(tick=0, channel=4, data=[59, 100])\n",
      "midi.NoteOnEvent(tick=192, channel=4, data=[59, 0])\n",
      "midi.NoteOnEvent(tick=0, channel=4, data=[56, 100])\n",
      "midi.NoteOnEvent(tick=192, channel=4, data=[56, 0])\n",
      "midi.NoteOnEvent(tick=0, channel=4, data=[52, 100])\n",
      "midi.NoteOnEvent(tick=192, channel=4, data=[52, 0])\n",
      "midi.NoteOnEvent(tick=0, channel=4, data=[40, 100])\n",
      "midi.NoteOnEvent(tick=192, channel=4, data=[40, 0])\n",
      "midi.NoteOnEvent(tick=576, channel=4, data=[45, 100])\n",
      "midi.NoteOnEvent(tick=192, channel=4, data=[45, 0])\n",
      "midi.NoteOnEvent(tick=0, channel=4, data=[57, 100])\n",
      "midi.NoteOnEvent(tick=384, channel=4, data=[57, 0])\n",
      "midi.NoteOnEvent(tick=192, channel=4, data=[45, 100])\n",
      "midi.NoteOnEvent(tick=192, channel=4, data=[45, 0])\n",
      "midi.NoteOnEvent(tick=0, channel=4, data=[57, 100])\n",
      "midi.NoteOnEvent(tick=384, channel=4, data=[57, 0])\n",
      "midi.NoteOnEvent(tick=192, channel=4, data=[45, 100])\n",
      "midi.NoteOnEvent(tick=192, channel=4, data=[45, 0])\n",
      "midi.NoteOnEvent(tick=0, channel=4, data=[52, 100])\n",
      "midi.NoteOnEvent(tick=192, channel=4, data=[52, 0])\n",
      "midi.NoteOnEvent(tick=0, channel=4, data=[40, 100])\n",
      "midi.NoteOnEvent(tick=192, channel=4, data=[40, 0])\n",
      "midi.NoteOnEvent(tick=0, channel=4, data=[57, 100])\n",
      "midi.NoteOnEvent(tick=192, channel=4, data=[57, 0])\n",
      "midi.NoteOnEvent(tick=0, channel=4, data=[45, 100])\n",
      "midi.NoteOnEvent(tick=192, channel=4, data=[45, 0])\n",
      "midi.NoteOnEvent(tick=0, channel=4, data=[48, 100])\n",
      "midi.NoteOnEvent(tick=192, channel=4, data=[48, 0])\n",
      "midi.NoteOnEvent(tick=0, channel=4, data=[52, 100])\n",
      "midi.NoteOnEvent(tick=192, channel=4, data=[52, 0])\n",
      "midi.NoteOnEvent(tick=0, channel=4, data=[57, 100])\n",
      "midi.NoteOnEvent(tick=384, channel=4, data=[57, 0])\n",
      "midi.NoteOnEvent(tick=0, channel=4, data=[55, 100])\n",
      "midi.NoteOnEvent(tick=384, channel=4, data=[55, 0])\n",
      "midi.NoteOnEvent(tick=0, channel=4, data=[53, 100])\n",
      "midi.NoteOnEvent(tick=384, channel=4, data=[53, 0])\n",
      "midi.NoteOnEvent(tick=0, channel=4, data=[52, 100])\n",
      "midi.NoteOnEvent(tick=384, channel=4, data=[52, 0])\n",
      "midi.NoteOnEvent(tick=0, channel=4, data=[50, 100])\n",
      "midi.NoteOnEvent(tick=384, channel=4, data=[50, 0])\n",
      "midi.NoteOnEvent(tick=0, channel=4, data=[48, 100])\n",
      "midi.NoteOnEvent(tick=384, channel=4, data=[48, 0])\n",
      "midi.NoteOnEvent(tick=0, channel=4, data=[46, 100])\n",
      "midi.NoteOnEvent(tick=384, channel=4, data=[46, 0])\n",
      "midi.NoteOnEvent(tick=0, channel=4, data=[45, 100])\n",
      "midi.NoteOnEvent(tick=384, channel=4, data=[45, 0])\n",
      "midi.NoteOnEvent(tick=0, channel=4, data=[43, 100])\n",
      "midi.NoteOnEvent(tick=384, channel=4, data=[43, 0])\n",
      "midi.NoteOnEvent(tick=0, channel=4, data=[41, 100])\n",
      "midi.NoteOnEvent(tick=384, channel=4, data=[41, 0])\n",
      "midi.NoteOnEvent(tick=0, channel=4, data=[39, 100])\n",
      "midi.NoteOnEvent(tick=384, channel=4, data=[39, 0])\n",
      "midi.NoteOnEvent(tick=0, channel=4, data=[38, 100])\n",
      "midi.NoteOnEvent(tick=384, channel=4, data=[38, 0])\n",
      "midi.NoteOnEvent(tick=0, channel=4, data=[36, 100])\n",
      "midi.NoteOnEvent(tick=192, channel=4, data=[36, 0])\n",
      "midi.NoteOnEvent(tick=0, channel=4, data=[36, 100])\n",
      "midi.NoteOnEvent(tick=192, channel=4, data=[36, 0])\n",
      "midi.NoteOnEvent(tick=0, channel=4, data=[36, 100])\n",
      "midi.NoteOnEvent(tick=192, channel=4, data=[36, 0])\n",
      "midi.NoteOnEvent(tick=0, channel=4, data=[36, 100])\n",
      "midi.NoteOnEvent(tick=192, channel=4, data=[36, 0])\n",
      "midi.NoteOnEvent(tick=0, channel=4, data=[36, 100])\n",
      "midi.NoteOnEvent(tick=192, channel=4, data=[36, 0])\n",
      "midi.NoteOnEvent(tick=0, channel=4, data=[36, 100])\n",
      "midi.NoteOnEvent(tick=192, channel=4, data=[36, 0])\n",
      "midi.NoteOnEvent(tick=0, channel=4, data=[36, 100])\n",
      "midi.NoteOnEvent(tick=192, channel=4, data=[36, 0])\n",
      "midi.NoteOnEvent(tick=0, channel=4, data=[36, 100])\n",
      "midi.NoteOnEvent(tick=192, channel=4, data=[36, 0])\n",
      "midi.NoteOnEvent(tick=0, channel=4, data=[36, 100])\n",
      "midi.NoteOnEvent(tick=192, channel=4, data=[36, 0])\n",
      "midi.NoteOnEvent(tick=0, channel=4, data=[36, 100])\n",
      "midi.NoteOnEvent(tick=192, channel=4, data=[36, 0])\n",
      "midi.NoteOnEvent(tick=0, channel=4, data=[48, 100])\n",
      "midi.NoteOnEvent(tick=192, channel=4, data=[48, 0])\n",
      "midi.NoteOnEvent(tick=0, channel=4, data=[48, 100])\n",
      "midi.NoteOnEvent(tick=192, channel=4, data=[48, 0])\n",
      "midi.NoteOnEvent(tick=0, channel=4, data=[46, 100])\n",
      "midi.NoteOnEvent(tick=192, channel=4, data=[46, 0])\n",
      "midi.NoteOnEvent(tick=0, channel=4, data=[62, 100])\n",
      "midi.NoteOnEvent(tick=192, channel=4, data=[62, 0])\n",
      "midi.NoteOnEvent(tick=0, channel=4, data=[58, 100])\n",
      "midi.NoteOnEvent(tick=192, channel=4, data=[58, 0])\n",
      "midi.NoteOnEvent(tick=0, channel=4, data=[55, 100])\n",
      "midi.NoteOnEvent(tick=192, channel=4, data=[55, 0])\n",
      "midi.NoteOnEvent(tick=0, channel=4, data=[43, 100])\n",
      "midi.NoteOnEvent(tick=192, channel=4, data=[43, 0])\n",
      "midi.NoteOnEvent(tick=0, channel=4, data=[43, 100])\n",
      "midi.NoteOnEvent(tick=192, channel=4, data=[43, 0])\n",
      "midi.NoteOnEvent(tick=0, channel=4, data=[43, 100])\n",
      "midi.NoteOnEvent(tick=192, channel=4, data=[43, 0])\n",
      "midi.NoteOnEvent(tick=0, channel=4, data=[43, 100])\n",
      "midi.NoteOnEvent(tick=192, channel=4, data=[43, 0])\n",
      "midi.NoteOnEvent(tick=0, channel=4, data=[41, 100])\n",
      "midi.NoteOnEvent(tick=192, channel=4, data=[41, 0])\n",
      "midi.NoteOnEvent(tick=0, channel=4, data=[57, 100])\n",
      "midi.NoteOnEvent(tick=192, channel=4, data=[57, 0])\n",
      "midi.NoteOnEvent(tick=0, channel=4, data=[53, 100])\n",
      "midi.NoteOnEvent(tick=192, channel=4, data=[53, 0])\n",
      "midi.NoteOnEvent(tick=0, channel=4, data=[50, 100])\n",
      "midi.NoteOnEvent(tick=192, channel=4, data=[50, 0])\n",
      "midi.NoteOnEvent(tick=0, channel=4, data=[38, 100])\n",
      "midi.NoteOnEvent(tick=192, channel=4, data=[38, 0])\n",
      "midi.NoteOnEvent(tick=0, channel=4, data=[38, 100])\n",
      "midi.NoteOnEvent(tick=192, channel=4, data=[38, 0])\n",
      "midi.NoteOnEvent(tick=0, channel=4, data=[38, 100])\n",
      "midi.NoteOnEvent(tick=192, channel=4, data=[38, 0])\n",
      "midi.NoteOnEvent(tick=0, channel=4, data=[38, 100])\n",
      "midi.NoteOnEvent(tick=192, channel=4, data=[38, 0])\n",
      "midi.NoteOnEvent(tick=0, channel=4, data=[36, 100])\n",
      "midi.NoteOnEvent(tick=192, channel=4, data=[36, 0])\n",
      "midi.NoteOnEvent(tick=0, channel=4, data=[50, 100])\n",
      "midi.NoteOnEvent(tick=192, channel=4, data=[50, 0])\n",
      "midi.NoteOnEvent(tick=0, channel=4, data=[48, 100])\n",
      "midi.NoteOnEvent(tick=192, channel=4, data=[48, 0])\n",
      "midi.NoteOnEvent(tick=0, channel=4, data=[47, 100])\n",
      "midi.NoteOnEvent(tick=192, channel=4, data=[47, 0])\n",
      "midi.NoteOnEvent(tick=0, channel=4, data=[45, 100])\n",
      "midi.NoteOnEvent(tick=192, channel=4, data=[45, 0])\n",
      "midi.NoteOnEvent(tick=0, channel=4, data=[57, 100])\n",
      "midi.NoteOnEvent(tick=192, channel=4, data=[57, 0])\n",
      "midi.NoteOnEvent(tick=0, channel=4, data=[55, 100])\n",
      "midi.NoteOnEvent(tick=192, channel=4, data=[55, 0])\n",
      "midi.NoteOnEvent(tick=0, channel=4, data=[53, 100])\n",
      "midi.NoteOnEvent(tick=192, channel=4, data=[53, 0])\n",
      "midi.NoteOnEvent(tick=0, channel=4, data=[52, 100])\n",
      "midi.NoteOnEvent(tick=192, channel=4, data=[52, 0])\n",
      "midi.NoteOnEvent(tick=0, channel=4, data=[53, 100])\n",
      "midi.NoteOnEvent(tick=192, channel=4, data=[53, 0])\n",
      "midi.NoteOnEvent(tick=0, channel=4, data=[52, 100])\n",
      "midi.NoteOnEvent(tick=192, channel=4, data=[52, 0])\n",
      "midi.NoteOnEvent(tick=0, channel=4, data=[50, 100])\n",
      "midi.NoteOnEvent(tick=192, channel=4, data=[50, 0])\n",
      "midi.NoteOnEvent(tick=0, channel=4, data=[48, 100])\n",
      "midi.NoteOnEvent(tick=192, channel=4, data=[48, 0])\n",
      "midi.NoteOnEvent(tick=0, channel=4, data=[52, 100])\n",
      "midi.NoteOnEvent(tick=192, channel=4, data=[52, 0])\n",
      "midi.NoteOnEvent(tick=0, channel=4, data=[48, 100])\n",
      "midi.NoteOnEvent(tick=192, channel=4, data=[48, 0])\n",
      "midi.NoteOnEvent(tick=0, channel=4, data=[45, 100])\n",
      "midi.NoteOnEvent(tick=192, channel=4, data=[45, 0])\n",
      "midi.NoteOnEvent(tick=0, channel=4, data=[50, 100])\n",
      "midi.NoteOnEvent(tick=192, channel=4, data=[50, 0])\n",
      "midi.NoteOnEvent(tick=0, channel=4, data=[53, 100])\n",
      "midi.NoteOnEvent(tick=192, channel=4, data=[53, 0])\n",
      "midi.NoteOnEvent(tick=0, channel=4, data=[50, 100])\n",
      "midi.NoteOnEvent(tick=192, channel=4, data=[50, 0])\n",
      "midi.NoteOnEvent(tick=0, channel=4, data=[47, 100])\n",
      "midi.NoteOnEvent(tick=192, channel=4, data=[47, 0])\n",
      "midi.NoteOnEvent(tick=0, channel=4, data=[48, 100])\n",
      "midi.NoteOnEvent(tick=192, channel=4, data=[48, 0])\n",
      "midi.NoteOnEvent(tick=0, channel=4, data=[45, 100])\n",
      "midi.NoteOnEvent(tick=192, channel=4, data=[45, 0])\n",
      "midi.NoteOnEvent(tick=0, channel=4, data=[52, 100])\n",
      "midi.NoteOnEvent(tick=192, channel=4, data=[52, 0])\n",
      "midi.NoteOnEvent(tick=0, channel=4, data=[40, 100])\n",
      "midi.NoteOnEvent(tick=192, channel=4, data=[40, 0])\n",
      "midi.NoteOnEvent(tick=0, channel=4, data=[45, 100])\n",
      "midi.NoteOnEvent(tick=192, channel=4, data=[45, 0])\n",
      "midi.NoteOnEvent(tick=0, channel=4, data=[60, 100])\n",
      "midi.NoteOnEvent(tick=96, channel=4, data=[60, 0])\n",
      "midi.NoteOnEvent(tick=0, channel=4, data=[59, 100])\n",
      "midi.NoteOnEvent(tick=96, channel=4, data=[59, 0])\n",
      "midi.NoteOnEvent(tick=0, channel=4, data=[57, 100])\n",
      "midi.NoteOnEvent(tick=96, channel=4, data=[57, 0])\n",
      "midi.NoteOnEvent(tick=0, channel=4, data=[55, 100])\n",
      "midi.NoteOnEvent(tick=96, channel=4, data=[55, 0])\n",
      "midi.NoteOnEvent(tick=0, channel=4, data=[53, 100])\n",
      "midi.NoteOnEvent(tick=96, channel=4, data=[53, 0])\n",
      "midi.NoteOnEvent(tick=0, channel=4, data=[52, 100])\n",
      "midi.NoteOnEvent(tick=96, channel=4, data=[52, 0])\n",
      "midi.NoteOnEvent(tick=0, channel=4, data=[53, 100])\n",
      "midi.NoteOnEvent(tick=192, channel=4, data=[53, 0])\n",
      "midi.NoteOnEvent(tick=0, channel=4, data=[57, 100])\n",
      "midi.NoteOnEvent(tick=192, channel=4, data=[57, 0])\n",
      "midi.NoteOnEvent(tick=0, channel=4, data=[53, 100])\n",
      "midi.NoteOnEvent(tick=192, channel=4, data=[53, 0])\n",
      "midi.NoteOnEvent(tick=0, channel=4, data=[50, 100])\n",
      "midi.NoteOnEvent(tick=192, channel=4, data=[50, 0])\n",
      "midi.NoteOnEvent(tick=0, channel=4, data=[55, 100])\n",
      "midi.NoteOnEvent(tick=192, channel=4, data=[55, 0])\n",
      "midi.NoteOnEvent(tick=0, channel=4, data=[43, 100])\n",
      "midi.NoteOnEvent(tick=192, channel=4, data=[43, 0])\n",
      "midi.NoteOnEvent(tick=1344, channel=4, data=[59, 100])\n",
      "midi.NoteOnEvent(tick=96, channel=4, data=[59, 0])\n",
      "midi.NoteOnEvent(tick=0, channel=4, data=[57, 100])\n",
      "midi.NoteOnEvent(tick=96, channel=4, data=[57, 0])\n",
      "midi.NoteOnEvent(tick=0, channel=4, data=[55, 100])\n",
      "midi.NoteOnEvent(tick=96, channel=4, data=[55, 0])\n",
      "midi.NoteOnEvent(tick=0, channel=4, data=[53, 100])\n",
      "midi.NoteOnEvent(tick=96, channel=4, data=[53, 0])\n",
      "midi.NoteOnEvent(tick=0, channel=4, data=[52, 100])\n",
      "midi.NoteOnEvent(tick=96, channel=4, data=[52, 0])\n",
      "midi.NoteOnEvent(tick=0, channel=4, data=[50, 100])\n",
      "midi.NoteOnEvent(tick=96, channel=4, data=[50, 0])\n",
      "midi.NoteOnEvent(tick=0, channel=4, data=[52, 100])\n",
      "midi.NoteOnEvent(tick=192, channel=4, data=[52, 0])\n",
      "midi.NoteOnEvent(tick=0, channel=4, data=[55, 100])\n",
      "midi.NoteOnEvent(tick=192, channel=4, data=[55, 0])\n",
      "midi.NoteOnEvent(tick=0, channel=4, data=[52, 100])\n",
      "midi.NoteOnEvent(tick=192, channel=4, data=[52, 0])\n",
      "midi.NoteOnEvent(tick=0, channel=4, data=[48, 100])\n",
      "midi.NoteOnEvent(tick=192, channel=4, data=[48, 0])\n",
      "midi.NoteOnEvent(tick=0, channel=4, data=[53, 100])\n",
      "midi.NoteOnEvent(tick=192, channel=4, data=[53, 0])\n",
      "midi.NoteOnEvent(tick=0, channel=4, data=[41, 100])\n",
      "midi.NoteOnEvent(tick=192, channel=4, data=[41, 0])\n",
      "midi.NoteOnEvent(tick=1344, channel=4, data=[57, 100])\n",
      "midi.NoteOnEvent(tick=96, channel=4, data=[57, 0])\n",
      "midi.NoteOnEvent(tick=0, channel=4, data=[55, 100])\n",
      "midi.NoteOnEvent(tick=96, channel=4, data=[55, 0])\n",
      "midi.NoteOnEvent(tick=0, channel=4, data=[53, 100])\n",
      "midi.NoteOnEvent(tick=96, channel=4, data=[53, 0])\n",
      "midi.NoteOnEvent(tick=0, channel=4, data=[52, 100])\n",
      "midi.NoteOnEvent(tick=96, channel=4, data=[52, 0])\n",
      "midi.NoteOnEvent(tick=0, channel=4, data=[50, 100])\n",
      "midi.NoteOnEvent(tick=96, channel=4, data=[50, 0])\n",
      "midi.NoteOnEvent(tick=0, channel=4, data=[48, 100])\n",
      "midi.NoteOnEvent(tick=96, channel=4, data=[48, 0])\n",
      "midi.NoteOnEvent(tick=0, channel=4, data=[50, 100])\n",
      "midi.NoteOnEvent(tick=96, channel=4, data=[50, 0])\n",
      "midi.NoteOnEvent(tick=0, channel=4, data=[52, 100])\n",
      "midi.NoteOnEvent(tick=96, channel=4, data=[52, 0])\n",
      "midi.NoteOnEvent(tick=0, channel=4, data=[50, 100])\n",
      "midi.NoteOnEvent(tick=96, channel=4, data=[50, 0])\n",
      "midi.NoteOnEvent(tick=0, channel=4, data=[48, 100])\n",
      "midi.NoteOnEvent(tick=96, channel=4, data=[48, 0])\n",
      "midi.NoteOnEvent(tick=0, channel=4, data=[47, 100])\n",
      "midi.NoteOnEvent(tick=96, channel=4, data=[47, 0])\n",
      "midi.NoteOnEvent(tick=0, channel=4, data=[48, 100])\n",
      "midi.NoteOnEvent(tick=96, channel=4, data=[48, 0])\n",
      "midi.NoteOnEvent(tick=0, channel=4, data=[47, 100])\n",
      "midi.NoteOnEvent(tick=96, channel=4, data=[47, 0])\n",
      "midi.NoteOnEvent(tick=0, channel=4, data=[45, 100])\n",
      "midi.NoteOnEvent(tick=96, channel=4, data=[45, 0])\n",
      "midi.NoteOnEvent(tick=0, channel=4, data=[44, 100])\n",
      "midi.NoteOnEvent(tick=96, channel=4, data=[44, 0])\n",
      "midi.NoteOnEvent(tick=0, channel=4, data=[40, 100])\n",
      "midi.NoteOnEvent(tick=96, channel=4, data=[40, 0])\n",
      "midi.NoteOnEvent(tick=0, channel=4, data=[42, 100])\n",
      "midi.NoteOnEvent(tick=96, channel=4, data=[42, 0])\n",
      "midi.NoteOnEvent(tick=0, channel=4, data=[44, 100])\n",
      "midi.NoteOnEvent(tick=96, channel=4, data=[44, 0])\n",
      "midi.NoteOnEvent(tick=0, channel=4, data=[45, 100])\n",
      "midi.NoteOnEvent(tick=96, channel=4, data=[45, 0])\n",
      "midi.NoteOnEvent(tick=0, channel=4, data=[47, 100])\n",
      "midi.NoteOnEvent(tick=96, channel=4, data=[47, 0])\n",
      "midi.NoteOnEvent(tick=0, channel=4, data=[48, 100])\n",
      "midi.NoteOnEvent(tick=96, channel=4, data=[48, 0])\n",
      "midi.NoteOnEvent(tick=0, channel=4, data=[45, 100])\n",
      "midi.NoteOnEvent(tick=96, channel=4, data=[45, 0])\n",
      "midi.NoteOnEvent(tick=0, channel=4, data=[41, 100])\n",
      "midi.NoteOnEvent(tick=192, channel=4, data=[41, 0])\n",
      "midi.NoteOnEvent(tick=0, channel=4, data=[48, 100])\n",
      "midi.NoteOnEvent(tick=192, channel=4, data=[48, 0])\n",
      "midi.NoteOnEvent(tick=0, channel=4, data=[50, 100])\n",
      "midi.NoteOnEvent(tick=192, channel=4, data=[50, 0])\n"
     ]
    },
    {
     "name": "stdout",
     "output_type": "stream",
     "text": [
      "midi.NoteOnEvent(tick=0, channel=4, data=[47, 100])\n",
      "midi.NoteOnEvent(tick=192, channel=4, data=[47, 0])\n",
      "midi.NoteOnEvent(tick=0, channel=4, data=[52, 100])\n",
      "midi.NoteOnEvent(tick=288, channel=4, data=[52, 0])\n",
      "midi.NoteOnEvent(tick=0, channel=4, data=[54, 100])\n",
      "midi.NoteOnEvent(tick=48, channel=4, data=[54, 0])\n",
      "midi.NoteOnEvent(tick=0, channel=4, data=[56, 100])\n",
      "midi.NoteOnEvent(tick=48, channel=4, data=[56, 0])\n",
      "midi.NoteOnEvent(tick=0, channel=4, data=[57, 100])\n",
      "midi.NoteOnEvent(tick=96, channel=4, data=[57, 0])\n",
      "midi.NoteOnEvent(tick=0, channel=4, data=[59, 100])\n",
      "midi.NoteOnEvent(tick=96, channel=4, data=[59, 0])\n",
      "midi.NoteOnEvent(tick=0, channel=4, data=[60, 100])\n",
      "midi.NoteOnEvent(tick=96, channel=4, data=[60, 0])\n",
      "midi.NoteOnEvent(tick=0, channel=4, data=[62, 100])\n",
      "midi.NoteOnEvent(tick=96, channel=4, data=[62, 0])\n",
      "midi.NoteOnEvent(tick=0, channel=4, data=[64, 100])\n",
      "midi.NoteOnEvent(tick=192, channel=4, data=[64, 0])\n",
      "midi.NoteOnEvent(tick=0, channel=4, data=[62, 100])\n",
      "midi.NoteOnEvent(tick=192, channel=4, data=[62, 0])\n",
      "midi.NoteOnEvent(tick=0, channel=4, data=[64, 100])\n",
      "midi.NoteOnEvent(tick=192, channel=4, data=[64, 0])\n",
      "midi.NoteOnEvent(tick=0, channel=4, data=[52, 100])\n",
      "midi.NoteOnEvent(tick=192, channel=4, data=[52, 0])\n",
      "midi.NoteOnEvent(tick=0, channel=4, data=[62, 100])\n",
      "midi.NoteOnEvent(tick=192, channel=4, data=[62, 0])\n",
      "midi.NoteOnEvent(tick=0, channel=4, data=[64, 100])\n",
      "midi.NoteOnEvent(tick=192, channel=4, data=[64, 0])\n",
      "midi.NoteOnEvent(tick=0, channel=4, data=[62, 100])\n",
      "midi.NoteOnEvent(tick=192, channel=4, data=[62, 0])\n",
      "midi.NoteOnEvent(tick=0, channel=4, data=[60, 100])\n",
      "midi.NoteOnEvent(tick=192, channel=4, data=[60, 0])\n",
      "midi.NoteOnEvent(tick=0, channel=4, data=[59, 100])\n",
      "midi.NoteOnEvent(tick=192, channel=4, data=[59, 0])\n",
      "midi.NoteOnEvent(tick=0, channel=4, data=[60, 100])\n",
      "midi.NoteOnEvent(tick=192, channel=4, data=[60, 0])\n",
      "midi.NoteOnEvent(tick=0, channel=4, data=[59, 100])\n",
      "midi.NoteOnEvent(tick=192, channel=4, data=[59, 0])\n",
      "midi.NoteOnEvent(tick=0, channel=4, data=[57, 100])\n",
      "midi.NoteOnEvent(tick=192, channel=4, data=[57, 0])\n",
      "midi.NoteOnEvent(tick=0, channel=4, data=[56, 100])\n",
      "midi.NoteOnEvent(tick=192, channel=4, data=[56, 0])\n",
      "midi.NoteOnEvent(tick=0, channel=4, data=[57, 100])\n",
      "midi.NoteOnEvent(tick=192, channel=4, data=[57, 0])\n",
      "midi.NoteOnEvent(tick=0, channel=4, data=[59, 100])\n",
      "midi.NoteOnEvent(tick=192, channel=4, data=[59, 0])\n",
      "midi.NoteOnEvent(tick=0, channel=4, data=[60, 100])\n",
      "midi.NoteOnEvent(tick=192, channel=4, data=[60, 0])\n",
      "midi.NoteOnEvent(tick=0, channel=4, data=[50, 100])\n",
      "midi.NoteOnEvent(tick=192, channel=4, data=[50, 0])\n",
      "midi.NoteOnEvent(tick=0, channel=4, data=[52, 100])\n",
      "midi.NoteOnEvent(tick=192, channel=4, data=[52, 0])\n",
      "midi.NoteOnEvent(tick=0, channel=4, data=[53, 100])\n",
      "midi.NoteOnEvent(tick=192, channel=4, data=[53, 0])\n",
      "midi.NoteOnEvent(tick=0, channel=4, data=[47, 100])\n",
      "midi.NoteOnEvent(tick=192, channel=4, data=[47, 0])\n",
      "midi.NoteOnEvent(tick=0, channel=4, data=[52, 100])\n",
      "midi.NoteOnEvent(tick=192, channel=4, data=[52, 0])\n",
      "midi.NoteOnEvent(tick=0, channel=4, data=[50, 100])\n",
      "midi.NoteOnEvent(tick=96, channel=4, data=[50, 0])\n",
      "midi.NoteOnEvent(tick=0, channel=4, data=[48, 100])\n",
      "midi.NoteOnEvent(tick=96, channel=4, data=[48, 0])\n",
      "midi.NoteOnEvent(tick=0, channel=4, data=[47, 100])\n",
      "midi.NoteOnEvent(tick=192, channel=4, data=[47, 0])\n",
      "midi.NoteOnEvent(tick=0, channel=4, data=[45, 100])\n",
      "midi.NoteOnEvent(tick=192, channel=4, data=[45, 0])\n",
      "midi.NoteOnEvent(tick=0, channel=4, data=[44, 100])\n",
      "midi.NoteOnEvent(tick=192, channel=4, data=[44, 0])\n",
      "midi.NoteOnEvent(tick=0, channel=4, data=[42, 100])\n",
      "midi.NoteOnEvent(tick=192, channel=4, data=[42, 0])\n",
      "midi.NoteOnEvent(tick=0, channel=4, data=[40, 100])\n",
      "midi.NoteOnEvent(tick=192, channel=4, data=[40, 0])\n",
      "midi.NoteOnEvent(tick=0, channel=4, data=[38, 100])\n",
      "midi.NoteOnEvent(tick=192, channel=4, data=[38, 0])\n",
      "midi.NoteOnEvent(tick=0, channel=4, data=[36, 100])\n",
      "midi.NoteOnEvent(tick=192, channel=4, data=[36, 0])\n",
      "midi.NoteOnEvent(tick=0, channel=4, data=[53, 100])\n",
      "midi.NoteOnEvent(tick=192, channel=4, data=[53, 0])\n",
      "midi.NoteOnEvent(tick=0, channel=4, data=[50, 100])\n",
      "midi.NoteOnEvent(tick=192, channel=4, data=[50, 0])\n",
      "midi.NoteOnEvent(tick=0, channel=4, data=[52, 100])\n",
      "midi.NoteOnEvent(tick=192, channel=4, data=[52, 0])\n",
      "midi.NoteOnEvent(tick=0, channel=4, data=[41, 100])\n",
      "midi.NoteOnEvent(tick=384, channel=4, data=[41, 0])\n",
      "midi.NoteOnEvent(tick=192, channel=4, data=[53, 100])\n",
      "midi.NoteOnEvent(tick=192, channel=4, data=[53, 0])\n",
      "midi.NoteOnEvent(tick=0, channel=4, data=[44, 100])\n",
      "midi.NoteOnEvent(tick=192, channel=4, data=[44, 0])\n",
      "midi.NoteOnEvent(tick=0, channel=4, data=[44, 100])\n",
      "midi.NoteOnEvent(tick=192, channel=4, data=[44, 0])\n",
      "midi.NoteOnEvent(tick=0, channel=4, data=[44, 100])\n",
      "midi.NoteOnEvent(tick=192, channel=4, data=[44, 0])\n",
      "midi.NoteOnEvent(tick=0, channel=4, data=[59, 100])\n",
      "midi.NoteOnEvent(tick=192, channel=4, data=[59, 0])\n",
      "midi.NoteOnEvent(tick=0, channel=4, data=[50, 100])\n",
      "midi.NoteOnEvent(tick=192, channel=4, data=[50, 0])\n",
      "midi.NoteOnEvent(tick=0, channel=4, data=[50, 100])\n",
      "midi.NoteOnEvent(tick=192, channel=4, data=[50, 0])\n",
      "midi.NoteOnEvent(tick=0, channel=4, data=[50, 100])\n",
      "midi.NoteOnEvent(tick=192, channel=4, data=[50, 0])\n",
      "midi.NoteOnEvent(tick=0, channel=4, data=[53, 100])\n",
      "midi.NoteOnEvent(tick=192, channel=4, data=[53, 0])\n",
      "midi.NoteOnEvent(tick=0, channel=4, data=[47, 100])\n",
      "midi.NoteOnEvent(tick=192, channel=4, data=[47, 0])\n",
      "midi.NoteOnEvent(tick=0, channel=4, data=[48, 100])\n",
      "midi.NoteOnEvent(tick=96, channel=4, data=[48, 0])\n",
      "midi.NoteOnEvent(tick=0, channel=4, data=[50, 100])\n",
      "midi.NoteOnEvent(tick=96, channel=4, data=[50, 0])\n",
      "midi.NoteOnEvent(tick=0, channel=4, data=[52, 100])\n",
      "midi.NoteOnEvent(tick=192, channel=4, data=[52, 0])\n",
      "midi.NoteOnEvent(tick=0, channel=4, data=[40, 100])\n",
      "midi.NoteOnEvent(tick=192, channel=4, data=[40, 0])\n",
      "midi.NoteOnEvent(tick=0, channel=4, data=[45, 100])\n",
      "midi.NoteOnEvent(tick=576, channel=4, data=[45, 0])\n",
      "midi.EndOfTrackEvent(tick=0, data=[])\n",
      "midi.PortEvent(tick=0, data=[0])\n",
      "midi.TrackNameEvent(tick=0, text='Violone', data=[86, 105, 111, 108, 111, 110, 101])\n",
      "midi.ProgramChangeEvent(tick=0, channel=5, data=[43])\n",
      "midi.ControlChangeEvent(tick=0, channel=5, data=[7, 100])\n",
      "midi.ControlChangeEvent(tick=0, channel=5, data=[10, 64])\n",
      "midi.NoteOnEvent(tick=960, channel=5, data=[33, 100])\n",
      "midi.NoteOnEvent(tick=192, channel=5, data=[33, 0])\n",
      "midi.NoteOnEvent(tick=0, channel=5, data=[45, 100])\n",
      "midi.NoteOnEvent(tick=384, channel=5, data=[45, 0])\n",
      "midi.NoteOnEvent(tick=192, channel=5, data=[33, 100])\n",
      "midi.NoteOnEvent(tick=192, channel=5, data=[33, 0])\n",
      "midi.NoteOnEvent(tick=0, channel=5, data=[45, 100])\n",
      "midi.NoteOnEvent(tick=384, channel=5, data=[45, 0])\n",
      "midi.NoteOnEvent(tick=192, channel=5, data=[33, 100])\n",
      "midi.NoteOnEvent(tick=192, channel=5, data=[33, 0])\n",
      "midi.NoteOnEvent(tick=0, channel=5, data=[40, 100])\n",
      "midi.NoteOnEvent(tick=192, channel=5, data=[40, 0])\n",
      "midi.NoteOnEvent(tick=0, channel=5, data=[28, 100])\n",
      "midi.NoteOnEvent(tick=192, channel=5, data=[28, 0])\n",
      "midi.NoteOnEvent(tick=0, channel=5, data=[33, 100])\n",
      "midi.NoteOnEvent(tick=192, channel=5, data=[33, 0])\n",
      "midi.NoteOnEvent(tick=0, channel=5, data=[45, 100])\n",
      "midi.NoteOnEvent(tick=96, channel=5, data=[45, 0])\n",
      "midi.NoteOnEvent(tick=0, channel=5, data=[47, 100])\n",
      "midi.NoteOnEvent(tick=96, channel=5, data=[47, 0])\n",
      "midi.NoteOnEvent(tick=0, channel=5, data=[48, 100])\n",
      "midi.NoteOnEvent(tick=192, channel=5, data=[48, 0])\n",
      "midi.NoteOnEvent(tick=0, channel=5, data=[45, 100])\n",
      "midi.NoteOnEvent(tick=192, channel=5, data=[45, 0])\n",
      "midi.NoteOnEvent(tick=0, channel=5, data=[44, 100])\n",
      "midi.NoteOnEvent(tick=192, channel=5, data=[44, 0])\n",
      "midi.NoteOnEvent(tick=0, channel=5, data=[40, 100])\n",
      "midi.NoteOnEvent(tick=192, channel=5, data=[40, 0])\n",
      "midi.NoteOnEvent(tick=0, channel=5, data=[45, 100])\n",
      "midi.NoteOnEvent(tick=192, channel=5, data=[45, 0])\n",
      "midi.NoteOnEvent(tick=0, channel=5, data=[40, 100])\n",
      "midi.NoteOnEvent(tick=192, channel=5, data=[40, 0])\n",
      "midi.NoteOnEvent(tick=0, channel=5, data=[47, 100])\n",
      "midi.NoteOnEvent(tick=192, channel=5, data=[47, 0])\n",
      "midi.NoteOnEvent(tick=0, channel=5, data=[40, 100])\n",
      "midi.NoteOnEvent(tick=192, channel=5, data=[40, 0])\n",
      "midi.NoteOnEvent(tick=0, channel=5, data=[48, 100])\n",
      "midi.NoteOnEvent(tick=192, channel=5, data=[48, 0])\n",
      "midi.NoteOnEvent(tick=0, channel=5, data=[40, 100])\n",
      "midi.NoteOnEvent(tick=192, channel=5, data=[40, 0])\n",
      "midi.NoteOnEvent(tick=0, channel=5, data=[50, 100])\n",
      "midi.NoteOnEvent(tick=192, channel=5, data=[50, 0])\n",
      "midi.NoteOnEvent(tick=0, channel=5, data=[38, 100])\n",
      "midi.NoteOnEvent(tick=192, channel=5, data=[38, 0])\n",
      "midi.NoteOnEvent(tick=0, channel=5, data=[40, 100])\n",
      "midi.NoteOnEvent(tick=192, channel=5, data=[40, 0])\n",
      "midi.NoteOnEvent(tick=0, channel=5, data=[41, 100])\n",
      "midi.NoteOnEvent(tick=192, channel=5, data=[41, 0])\n",
      "midi.NoteOnEvent(tick=0, channel=5, data=[40, 100])\n",
      "midi.NoteOnEvent(tick=192, channel=5, data=[40, 0])\n",
      "midi.NoteOnEvent(tick=0, channel=5, data=[28, 100])\n",
      "midi.NoteOnEvent(tick=192, channel=5, data=[28, 0])\n",
      "midi.NoteOnEvent(tick=192, channel=5, data=[52, 100])\n",
      "midi.NoteOnEvent(tick=96, channel=5, data=[52, 0])\n",
      "midi.NoteOnEvent(tick=0, channel=5, data=[50, 100])\n",
      "midi.NoteOnEvent(tick=96, channel=5, data=[50, 0])\n",
      "midi.NoteOnEvent(tick=0, channel=5, data=[48, 100])\n",
      "midi.NoteOnEvent(tick=192, channel=5, data=[48, 0])\n",
      "midi.NoteOnEvent(tick=0, channel=5, data=[52, 100])\n",
      "midi.NoteOnEvent(tick=192, channel=5, data=[52, 0])\n",
      "midi.NoteOnEvent(tick=0, channel=5, data=[48, 100])\n",
      "midi.NoteOnEvent(tick=192, channel=5, data=[48, 0])\n",
      "midi.NoteOnEvent(tick=0, channel=5, data=[45, 100])\n",
      "midi.NoteOnEvent(tick=192, channel=5, data=[45, 0])\n",
      "midi.NoteOnEvent(tick=0, channel=5, data=[50, 100])\n",
      "midi.NoteOnEvent(tick=192, channel=5, data=[50, 0])\n",
      "midi.NoteOnEvent(tick=0, channel=5, data=[38, 100])\n",
      "midi.NoteOnEvent(tick=192, channel=5, data=[38, 0])\n",
      "midi.NoteOnEvent(tick=192, channel=5, data=[50, 100])\n",
      "midi.NoteOnEvent(tick=96, channel=5, data=[50, 0])\n",
      "midi.NoteOnEvent(tick=0, channel=5, data=[48, 100])\n",
      "midi.NoteOnEvent(tick=96, channel=5, data=[48, 0])\n",
      "midi.NoteOnEvent(tick=0, channel=5, data=[47, 100])\n",
      "midi.NoteOnEvent(tick=192, channel=5, data=[47, 0])\n",
      "midi.NoteOnEvent(tick=0, channel=5, data=[50, 100])\n",
      "midi.NoteOnEvent(tick=192, channel=5, data=[50, 0])\n",
      "midi.NoteOnEvent(tick=0, channel=5, data=[47, 100])\n",
      "midi.NoteOnEvent(tick=192, channel=5, data=[47, 0])\n",
      "midi.NoteOnEvent(tick=0, channel=5, data=[43, 100])\n",
      "midi.NoteOnEvent(tick=192, channel=5, data=[43, 0])\n",
      "midi.NoteOnEvent(tick=0, channel=5, data=[48, 100])\n",
      "midi.NoteOnEvent(tick=192, channel=5, data=[48, 0])\n",
      "midi.NoteOnEvent(tick=0, channel=5, data=[36, 100])\n",
      "midi.NoteOnEvent(tick=192, channel=5, data=[36, 0])\n",
      "midi.NoteOnEvent(tick=192, channel=5, data=[48, 100])\n",
      "midi.NoteOnEvent(tick=96, channel=5, data=[48, 0])\n",
      "midi.NoteOnEvent(tick=0, channel=5, data=[47, 100])\n",
      "midi.NoteOnEvent(tick=96, channel=5, data=[47, 0])\n",
      "midi.NoteOnEvent(tick=0, channel=5, data=[45, 100])\n",
      "midi.NoteOnEvent(tick=96, channel=5, data=[45, 0])\n",
      "midi.NoteOnEvent(tick=0, channel=5, data=[47, 100])\n",
      "midi.NoteOnEvent(tick=96, channel=5, data=[47, 0])\n",
      "midi.NoteOnEvent(tick=0, channel=5, data=[45, 100])\n",
      "midi.NoteOnEvent(tick=96, channel=5, data=[45, 0])\n",
      "midi.NoteOnEvent(tick=0, channel=5, data=[43, 100])\n",
      "midi.NoteOnEvent(tick=96, channel=5, data=[43, 0])\n",
      "midi.NoteOnEvent(tick=0, channel=5, data=[42, 100])\n",
      "midi.NoteOnEvent(tick=96, channel=5, data=[42, 0])\n",
      "midi.NoteOnEvent(tick=0, channel=5, data=[43, 100])\n",
      "midi.NoteOnEvent(tick=96, channel=5, data=[43, 0])\n",
      "midi.NoteOnEvent(tick=0, channel=5, data=[42, 100])\n",
      "midi.NoteOnEvent(tick=96, channel=5, data=[42, 0])\n",
      "midi.NoteOnEvent(tick=0, channel=5, data=[40, 100])\n",
      "midi.NoteOnEvent(tick=96, channel=5, data=[40, 0])\n",
      "midi.NoteOnEvent(tick=0, channel=5, data=[39, 100])\n",
      "midi.NoteOnEvent(tick=96, channel=5, data=[39, 0])\n",
      "midi.NoteOnEvent(tick=0, channel=5, data=[35, 100])\n",
      "midi.NoteOnEvent(tick=96, channel=5, data=[35, 0])\n",
      "midi.NoteOnEvent(tick=0, channel=5, data=[37, 100])\n",
      "midi.NoteOnEvent(tick=96, channel=5, data=[37, 0])\n",
      "midi.NoteOnEvent(tick=0, channel=5, data=[39, 100])\n",
      "midi.NoteOnEvent(tick=96, channel=5, data=[39, 0])\n",
      "midi.NoteOnEvent(tick=0, channel=5, data=[40, 100])\n",
      "midi.NoteOnEvent(tick=96, channel=5, data=[40, 0])\n",
      "midi.NoteOnEvent(tick=0, channel=5, data=[42, 100])\n",
      "midi.NoteOnEvent(tick=96, channel=5, data=[42, 0])\n",
      "midi.NoteOnEvent(tick=0, channel=5, data=[43, 100])\n",
      "midi.NoteOnEvent(tick=96, channel=5, data=[43, 0])\n",
      "midi.NoteOnEvent(tick=0, channel=5, data=[40, 100])\n",
      "midi.NoteOnEvent(tick=96, channel=5, data=[40, 0])\n",
      "midi.NoteOnEvent(tick=0, channel=5, data=[36, 100])\n",
      "midi.NoteOnEvent(tick=192, channel=5, data=[36, 0])\n",
      "midi.NoteOnEvent(tick=0, channel=5, data=[35, 100])\n",
      "midi.NoteOnEvent(tick=192, channel=5, data=[35, 0])\n",
      "midi.NoteOnEvent(tick=0, channel=5, data=[36, 100])\n",
      "midi.NoteOnEvent(tick=192, channel=5, data=[36, 0])\n",
      "midi.NoteOnEvent(tick=0, channel=5, data=[33, 100])\n",
      "midi.NoteOnEvent(tick=192, channel=5, data=[33, 0])\n",
      "midi.NoteOnEvent(tick=0, channel=5, data=[35, 100])\n",
      "midi.NoteOnEvent(tick=288, channel=5, data=[35, 0])\n",
      "midi.NoteOnEvent(tick=0, channel=5, data=[37, 100])\n",
      "midi.NoteOnEvent(tick=48, channel=5, data=[37, 0])\n",
      "midi.NoteOnEvent(tick=0, channel=5, data=[39, 100])\n",
      "midi.NoteOnEvent(tick=48, channel=5, data=[39, 0])\n",
      "midi.NoteOnEvent(tick=0, channel=5, data=[40, 100])\n",
      "midi.NoteOnEvent(tick=96, channel=5, data=[40, 0])\n",
      "midi.NoteOnEvent(tick=0, channel=5, data=[42, 100])\n",
      "midi.NoteOnEvent(tick=96, channel=5, data=[42, 0])\n",
      "midi.NoteOnEvent(tick=0, channel=5, data=[43, 100])\n",
      "midi.NoteOnEvent(tick=96, channel=5, data=[43, 0])\n",
      "midi.NoteOnEvent(tick=0, channel=5, data=[45, 100])\n",
      "midi.NoteOnEvent(tick=96, channel=5, data=[45, 0])\n",
      "midi.NoteOnEvent(tick=0, channel=5, data=[47, 100])\n",
      "midi.NoteOnEvent(tick=192, channel=5, data=[47, 0])\n",
      "midi.NoteOnEvent(tick=0, channel=5, data=[45, 100])\n",
      "midi.NoteOnEvent(tick=192, channel=5, data=[45, 0])\n",
      "midi.NoteOnEvent(tick=0, channel=5, data=[47, 100])\n",
      "midi.NoteOnEvent(tick=192, channel=5, data=[47, 0])\n",
      "midi.NoteOnEvent(tick=0, channel=5, data=[35, 100])\n",
      "midi.NoteOnEvent(tick=192, channel=5, data=[35, 0])\n",
      "midi.NoteOnEvent(tick=0, channel=5, data=[45, 100])\n",
      "midi.NoteOnEvent(tick=192, channel=5, data=[45, 0])\n",
      "midi.NoteOnEvent(tick=0, channel=5, data=[43, 100])\n",
      "midi.NoteOnEvent(tick=192, channel=5, data=[43, 0])\n",
      "midi.NoteOnEvent(tick=0, channel=5, data=[45, 100])\n",
      "midi.NoteOnEvent(tick=192, channel=5, data=[45, 0])\n",
      "midi.NoteOnEvent(tick=0, channel=5, data=[33, 100])\n",
      "midi.NoteOnEvent(tick=192, channel=5, data=[33, 0])\n",
      "midi.NoteOnEvent(tick=0, channel=5, data=[31, 100])\n",
      "midi.NoteOnEvent(tick=192, channel=5, data=[31, 0])\n",
      "midi.NoteOnEvent(tick=0, channel=5, data=[36, 100])\n",
      "midi.NoteOnEvent(tick=192, channel=5, data=[36, 0])\n",
      "midi.NoteOnEvent(tick=0, channel=5, data=[33, 100])\n",
      "midi.NoteOnEvent(tick=192, channel=5, data=[33, 0])\n",
      "midi.NoteOnEvent(tick=0, channel=5, data=[35, 100])\n",
      "midi.NoteOnEvent(tick=192, channel=5, data=[35, 0])\n",
      "midi.NoteOnEvent(tick=0, channel=5, data=[28, 100])\n",
      "midi.NoteOnEvent(tick=384, channel=5, data=[28, 0])\n",
      "midi.NoteOnEvent(tick=192, channel=5, data=[48, 100])\n",
      "midi.NoteOnEvent(tick=192, channel=5, data=[48, 0])\n",
      "midi.NoteOnEvent(tick=0, channel=5, data=[39, 100])\n",
      "midi.NoteOnEvent(tick=192, channel=5, data=[39, 0])\n",
      "midi.NoteOnEvent(tick=0, channel=5, data=[39, 100])\n",
      "midi.NoteOnEvent(tick=192, channel=5, data=[39, 0])\n",
      "midi.NoteOnEvent(tick=0, channel=5, data=[39, 100])\n",
      "midi.NoteOnEvent(tick=192, channel=5, data=[39, 0])\n",
      "midi.NoteOnEvent(tick=0, channel=5, data=[42, 100])\n",
      "midi.NoteOnEvent(tick=192, channel=5, data=[42, 0])\n",
      "midi.NoteOnEvent(tick=0, channel=5, data=[33, 100])\n",
      "midi.NoteOnEvent(tick=192, channel=5, data=[33, 0])\n",
      "midi.NoteOnEvent(tick=0, channel=5, data=[33, 100])\n",
      "midi.NoteOnEvent(tick=192, channel=5, data=[33, 0])\n",
      "midi.NoteOnEvent(tick=0, channel=5, data=[33, 100])\n",
      "midi.NoteOnEvent(tick=192, channel=5, data=[33, 0])\n",
      "midi.NoteOnEvent(tick=0, channel=5, data=[36, 100])\n",
      "midi.NoteOnEvent(tick=192, channel=5, data=[36, 0])\n",
      "midi.NoteOnEvent(tick=0, channel=5, data=[30, 100])\n",
      "midi.NoteOnEvent(tick=192, channel=5, data=[30, 0])\n",
      "midi.NoteOnEvent(tick=0, channel=5, data=[28, 100])\n",
      "midi.NoteOnEvent(tick=192, channel=5, data=[28, 0])\n",
      "midi.NoteOnEvent(tick=0, channel=5, data=[35, 100])\n",
      "midi.NoteOnEvent(tick=192, channel=5, data=[35, 0])\n",
      "midi.NoteOnEvent(tick=0, channel=5, data=[35, 100])\n",
      "midi.NoteOnEvent(tick=192, channel=5, data=[35, 0])\n",
      "midi.NoteOnEvent(tick=0, channel=5, data=[28, 100])\n",
      "midi.NoteOnEvent(tick=192, channel=5, data=[28, 0])\n",
      "midi.NoteOnEvent(tick=0, channel=5, data=[40, 100])\n",
      "midi.NoteOnEvent(tick=96, channel=5, data=[40, 0])\n",
      "midi.NoteOnEvent(tick=0, channel=5, data=[38, 100])\n",
      "midi.NoteOnEvent(tick=96, channel=5, data=[38, 0])\n",
      "midi.NoteOnEvent(tick=0, channel=5, data=[36, 100])\n",
      "midi.NoteOnEvent(tick=192, channel=5, data=[36, 0])\n",
      "midi.NoteOnEvent(tick=0, channel=5, data=[35, 100])\n",
      "midi.NoteOnEvent(tick=192, channel=5, data=[35, 0])\n",
      "midi.NoteOnEvent(tick=0, channel=5, data=[33, 100])\n",
      "midi.NoteOnEvent(tick=384, channel=5, data=[33, 0])\n",
      "midi.NoteOnEvent(tick=192, channel=5, data=[45, 100])\n",
      "midi.NoteOnEvent(tick=192, channel=5, data=[45, 0])\n",
      "midi.NoteOnEvent(tick=0, channel=5, data=[52, 100])\n",
      "midi.NoteOnEvent(tick=384, channel=5, data=[52, 0])\n",
      "midi.NoteOnEvent(tick=192, channel=5, data=[40, 100])\n",
      "midi.NoteOnEvent(tick=192, channel=5, data=[40, 0])\n",
      "midi.NoteOnEvent(tick=0, channel=5, data=[32, 100])\n",
      "midi.NoteOnEvent(tick=384, channel=5, data=[32, 0])\n",
      "midi.NoteOnEvent(tick=192, channel=5, data=[40, 100])\n",
      "midi.NoteOnEvent(tick=192, channel=5, data=[40, 0])\n",
      "midi.NoteOnEvent(tick=0, channel=5, data=[45, 100])\n",
      "midi.NoteOnEvent(tick=384, channel=5, data=[45, 0])\n",
      "midi.NoteOnEvent(tick=192, channel=5, data=[45, 100])\n",
      "midi.NoteOnEvent(tick=192, channel=5, data=[45, 0])\n",
      "midi.NoteOnEvent(tick=0, channel=5, data=[33, 100])\n",
      "midi.NoteOnEvent(tick=192, channel=5, data=[33, 0])\n",
      "midi.NoteOnEvent(tick=0, channel=5, data=[36, 100])\n",
      "midi.NoteOnEvent(tick=192, channel=5, data=[36, 0])\n",
      "midi.NoteOnEvent(tick=0, channel=5, data=[38, 100])\n",
      "midi.NoteOnEvent(tick=192, channel=5, data=[38, 0])\n",
      "midi.NoteOnEvent(tick=0, channel=5, data=[41, 100])\n",
      "midi.NoteOnEvent(tick=192, channel=5, data=[41, 0])\n",
      "midi.NoteOnEvent(tick=0, channel=5, data=[31, 100])\n",
      "midi.NoteOnEvent(tick=192, channel=5, data=[31, 0])\n",
      "midi.NoteOnEvent(tick=0, channel=5, data=[35, 100])\n",
      "midi.NoteOnEvent(tick=192, channel=5, data=[35, 0])\n",
      "midi.NoteOnEvent(tick=0, channel=5, data=[36, 100])\n",
      "midi.NoteOnEvent(tick=192, channel=5, data=[36, 0])\n",
      "midi.NoteOnEvent(tick=0, channel=5, data=[40, 100])\n",
      "midi.NoteOnEvent(tick=192, channel=5, data=[40, 0])\n",
      "midi.NoteOnEvent(tick=0, channel=5, data=[41, 100])\n",
      "midi.NoteOnEvent(tick=192, channel=5, data=[41, 0])\n",
      "midi.NoteOnEvent(tick=0, channel=5, data=[45, 100])\n",
      "midi.NoteOnEvent(tick=192, channel=5, data=[45, 0])\n",
      "midi.NoteOnEvent(tick=0, channel=5, data=[35, 100])\n",
      "midi.NoteOnEvent(tick=192, channel=5, data=[35, 0])\n",
      "midi.NoteOnEvent(tick=0, channel=5, data=[38, 100])\n",
      "midi.NoteOnEvent(tick=192, channel=5, data=[38, 0])\n",
      "midi.NoteOnEvent(tick=0, channel=5, data=[28, 100])\n",
      "midi.NoteOnEvent(tick=192, channel=5, data=[28, 0])\n",
      "midi.NoteOnEvent(tick=0, channel=5, data=[40, 100])\n",
      "midi.NoteOnEvent(tick=192, channel=5, data=[40, 0])\n",
      "midi.NoteOnEvent(tick=0, channel=5, data=[44, 100])\n",
      "midi.NoteOnEvent(tick=192, channel=5, data=[44, 0])\n",
      "midi.NoteOnEvent(tick=0, channel=5, data=[40, 100])\n",
      "midi.NoteOnEvent(tick=192, channel=5, data=[40, 0])\n",
      "midi.NoteOnEvent(tick=192, channel=5, data=[45, 100])\n",
      "midi.NoteOnEvent(tick=192, channel=5, data=[45, 0])\n",
      "midi.NoteOnEvent(tick=0, channel=5, data=[48, 100])\n",
      "midi.NoteOnEvent(tick=192, channel=5, data=[48, 0])\n",
      "midi.NoteOnEvent(tick=0, channel=5, data=[45, 100])\n",
      "midi.NoteOnEvent(tick=192, channel=5, data=[45, 0])\n",
      "midi.NoteOnEvent(tick=192, channel=5, data=[45, 100])\n",
      "midi.NoteOnEvent(tick=192, channel=5, data=[45, 0])\n",
      "midi.NoteOnEvent(tick=0, channel=5, data=[41, 100])\n",
      "midi.NoteOnEvent(tick=192, channel=5, data=[41, 0])\n",
      "midi.NoteOnEvent(tick=0, channel=5, data=[38, 100])\n",
      "midi.NoteOnEvent(tick=192, channel=5, data=[38, 0])\n",
      "midi.NoteOnEvent(tick=192, channel=5, data=[43, 100])\n",
      "midi.NoteOnEvent(tick=192, channel=5, data=[43, 0])\n",
      "midi.NoteOnEvent(tick=0, channel=5, data=[47, 100])\n",
      "midi.NoteOnEvent(tick=192, channel=5, data=[47, 0])\n",
      "midi.NoteOnEvent(tick=0, channel=5, data=[43, 100])\n",
      "midi.NoteOnEvent(tick=192, channel=5, data=[43, 0])\n",
      "midi.NoteOnEvent(tick=192, channel=5, data=[43, 100])\n",
      "midi.NoteOnEvent(tick=192, channel=5, data=[43, 0])\n",
      "midi.NoteOnEvent(tick=0, channel=5, data=[40, 100])\n",
      "midi.NoteOnEvent(tick=192, channel=5, data=[40, 0])\n",
      "midi.NoteOnEvent(tick=0, channel=5, data=[36, 100])\n",
      "midi.NoteOnEvent(tick=192, channel=5, data=[36, 0])\n",
      "midi.NoteOnEvent(tick=192, channel=5, data=[41, 100])\n",
      "midi.NoteOnEvent(tick=192, channel=5, data=[41, 0])\n",
      "midi.NoteOnEvent(tick=0, channel=5, data=[45, 100])\n",
      "midi.NoteOnEvent(tick=192, channel=5, data=[45, 0])\n",
      "midi.NoteOnEvent(tick=0, channel=5, data=[41, 100])\n",
      "midi.NoteOnEvent(tick=192, channel=5, data=[41, 0])\n",
      "midi.NoteOnEvent(tick=192, channel=5, data=[41, 100])\n",
      "midi.NoteOnEvent(tick=192, channel=5, data=[41, 0])\n",
      "midi.NoteOnEvent(tick=0, channel=5, data=[38, 100])\n",
      "midi.NoteOnEvent(tick=192, channel=5, data=[38, 0])\n",
      "midi.NoteOnEvent(tick=0, channel=5, data=[35, 100])\n",
      "midi.NoteOnEvent(tick=192, channel=5, data=[35, 0])\n",
      "midi.NoteOnEvent(tick=192, channel=5, data=[40, 100])\n",
      "midi.NoteOnEvent(tick=192, channel=5, data=[40, 0])\n",
      "midi.NoteOnEvent(tick=0, channel=5, data=[44, 100])\n",
      "midi.NoteOnEvent(tick=192, channel=5, data=[44, 0])\n",
      "midi.NoteOnEvent(tick=0, channel=5, data=[40, 100])\n",
      "midi.NoteOnEvent(tick=192, channel=5, data=[40, 0])\n",
      "midi.NoteOnEvent(tick=192, channel=5, data=[40, 100])\n",
      "midi.NoteOnEvent(tick=192, channel=5, data=[40, 0])\n",
      "midi.NoteOnEvent(tick=0, channel=5, data=[36, 100])\n",
      "midi.NoteOnEvent(tick=192, channel=5, data=[36, 0])\n",
      "midi.NoteOnEvent(tick=0, channel=5, data=[33, 100])\n",
      "midi.NoteOnEvent(tick=192, channel=5, data=[33, 0])\n",
      "midi.NoteOnEvent(tick=0, channel=5, data=[45, 100])\n",
      "midi.NoteOnEvent(tick=384, channel=5, data=[45, 0])\n",
      "midi.NoteOnEvent(tick=192, channel=5, data=[33, 100])\n",
      "midi.NoteOnEvent(tick=192, channel=5, data=[33, 0])\n",
      "midi.NoteOnEvent(tick=0, channel=5, data=[45, 100])\n",
      "midi.NoteOnEvent(tick=192, channel=5, data=[45, 0])\n",
      "midi.NoteOnEvent(tick=0, channel=5, data=[33, 100])\n",
      "midi.NoteOnEvent(tick=192, channel=5, data=[33, 0])\n",
      "midi.NoteOnEvent(tick=0, channel=5, data=[40, 100])\n",
      "midi.NoteOnEvent(tick=192, channel=5, data=[40, 0])\n",
      "midi.NoteOnEvent(tick=0, channel=5, data=[28, 100])\n",
      "midi.NoteOnEvent(tick=192, channel=5, data=[28, 0])\n",
      "midi.NoteOnEvent(tick=0, channel=5, data=[33, 100])\n",
      "midi.NoteOnEvent(tick=192, channel=5, data=[33, 0])\n",
      "midi.NoteOnEvent(tick=0, channel=5, data=[45, 100])\n",
      "midi.NoteOnEvent(tick=96, channel=5, data=[45, 0])\n",
      "midi.NoteOnEvent(tick=0, channel=5, data=[47, 100])\n",
      "midi.NoteOnEvent(tick=96, channel=5, data=[47, 0])\n",
      "midi.NoteOnEvent(tick=0, channel=5, data=[48, 100])\n",
      "midi.NoteOnEvent(tick=192, channel=5, data=[48, 0])\n",
      "midi.NoteOnEvent(tick=0, channel=5, data=[45, 100])\n",
      "midi.NoteOnEvent(tick=192, channel=5, data=[45, 0])\n",
      "midi.NoteOnEvent(tick=0, channel=5, data=[33, 100])\n",
      "midi.NoteOnEvent(tick=192, channel=5, data=[33, 0])\n",
      "midi.NoteOnEvent(tick=768, channel=5, data=[43, 100])\n",
      "midi.NoteOnEvent(tick=96, channel=5, data=[43, 0])\n",
      "midi.NoteOnEvent(tick=0, channel=5, data=[45, 100])\n",
      "midi.NoteOnEvent(tick=96, channel=5, data=[45, 0])\n",
      "midi.NoteOnEvent(tick=0, channel=5, data=[47, 100])\n",
      "midi.NoteOnEvent(tick=192, channel=5, data=[47, 0])\n",
      "midi.NoteOnEvent(tick=0, channel=5, data=[43, 100])\n",
      "midi.NoteOnEvent(tick=192, channel=5, data=[43, 0])\n",
      "midi.NoteOnEvent(tick=0, channel=5, data=[31, 100])\n",
      "midi.NoteOnEvent(tick=192, channel=5, data=[31, 0])\n",
      "midi.NoteOnEvent(tick=768, channel=5, data=[41, 100])\n",
      "midi.NoteOnEvent(tick=96, channel=5, data=[41, 0])\n",
      "midi.NoteOnEvent(tick=0, channel=5, data=[43, 100])\n",
      "midi.NoteOnEvent(tick=96, channel=5, data=[43, 0])\n",
      "midi.NoteOnEvent(tick=0, channel=5, data=[45, 100])\n",
      "midi.NoteOnEvent(tick=192, channel=5, data=[45, 0])\n",
      "midi.NoteOnEvent(tick=0, channel=5, data=[41, 100])\n",
      "midi.NoteOnEvent(tick=192, channel=5, data=[41, 0])\n",
      "midi.NoteOnEvent(tick=0, channel=5, data=[29, 100])\n",
      "midi.NoteOnEvent(tick=192, channel=5, data=[29, 0])\n",
      "midi.NoteOnEvent(tick=768, channel=5, data=[41, 100])\n",
      "midi.NoteOnEvent(tick=192, channel=5, data=[41, 0])\n",
      "midi.NoteOnEvent(tick=0, channel=5, data=[40, 100])\n",
      "midi.NoteOnEvent(tick=192, channel=5, data=[40, 0])\n",
      "midi.NoteOnEvent(tick=0, channel=5, data=[38, 100])\n",
      "midi.NoteOnEvent(tick=192, channel=5, data=[38, 0])\n",
      "midi.NoteOnEvent(tick=0, channel=5, data=[36, 100])\n",
      "midi.NoteOnEvent(tick=192, channel=5, data=[36, 0])\n",
      "midi.NoteOnEvent(tick=0, channel=5, data=[48, 100])\n",
      "midi.NoteOnEvent(tick=192, channel=5, data=[48, 0])\n",
      "midi.NoteOnEvent(tick=0, channel=5, data=[47, 100])\n",
      "midi.NoteOnEvent(tick=192, channel=5, data=[47, 0])\n",
      "midi.NoteOnEvent(tick=0, channel=5, data=[45, 100])\n",
      "midi.NoteOnEvent(tick=192, channel=5, data=[45, 0])\n",
      "midi.NoteOnEvent(tick=0, channel=5, data=[43, 100])\n",
      "midi.NoteOnEvent(tick=192, channel=5, data=[43, 0])\n",
      "midi.NoteOnEvent(tick=0, channel=5, data=[45, 100])\n",
      "midi.NoteOnEvent(tick=192, channel=5, data=[45, 0])\n",
      "midi.NoteOnEvent(tick=0, channel=5, data=[43, 100])\n",
      "midi.NoteOnEvent(tick=192, channel=5, data=[43, 0])\n",
      "midi.NoteOnEvent(tick=0, channel=5, data=[41, 100])\n",
      "midi.NoteOnEvent(tick=192, channel=5, data=[41, 0])\n",
      "midi.NoteOnEvent(tick=0, channel=5, data=[40, 100])\n",
      "midi.NoteOnEvent(tick=192, channel=5, data=[40, 0])\n",
      "midi.NoteOnEvent(tick=0, channel=5, data=[43, 100])\n",
      "midi.NoteOnEvent(tick=192, channel=5, data=[43, 0])\n",
      "midi.NoteOnEvent(tick=0, channel=5, data=[40, 100])\n",
      "midi.NoteOnEvent(tick=192, channel=5, data=[40, 0])\n",
      "midi.NoteOnEvent(tick=0, channel=5, data=[36, 100])\n",
      "midi.NoteOnEvent(tick=192, channel=5, data=[36, 0])\n",
      "midi.NoteOnEvent(tick=0, channel=5, data=[41, 100])\n",
      "midi.NoteOnEvent(tick=192, channel=5, data=[41, 0])\n",
      "midi.NoteOnEvent(tick=0, channel=5, data=[45, 100])\n",
      "midi.NoteOnEvent(tick=192, channel=5, data=[45, 0])\n",
      "midi.NoteOnEvent(tick=0, channel=5, data=[41, 100])\n",
      "midi.NoteOnEvent(tick=192, channel=5, data=[41, 0])\n",
      "midi.NoteOnEvent(tick=0, channel=5, data=[38, 100])\n",
      "midi.NoteOnEvent(tick=192, channel=5, data=[38, 0])\n",
      "midi.NoteOnEvent(tick=0, channel=5, data=[40, 100])\n",
      "midi.NoteOnEvent(tick=192, channel=5, data=[40, 0])\n",
      "midi.NoteOnEvent(tick=0, channel=5, data=[36, 100])\n",
      "midi.NoteOnEvent(tick=192, channel=5, data=[36, 0])\n",
      "midi.NoteOnEvent(tick=0, channel=5, data=[43, 100])\n",
      "midi.NoteOnEvent(tick=192, channel=5, data=[43, 0])\n",
      "midi.NoteOnEvent(tick=0, channel=5, data=[31, 100])\n",
      "midi.NoteOnEvent(tick=192, channel=5, data=[31, 0])\n",
      "midi.NoteOnEvent(tick=0, channel=5, data=[24, 100])\n",
      "midi.NoteOnEvent(tick=192, channel=5, data=[24, 0])\n",
      "midi.NoteOnEvent(tick=0, channel=5, data=[36, 100])\n",
      "midi.NoteOnEvent(tick=96, channel=5, data=[36, 0])\n",
      "midi.NoteOnEvent(tick=0, channel=5, data=[38, 100])\n",
      "midi.NoteOnEvent(tick=96, channel=5, data=[38, 0])\n",
      "midi.NoteOnEvent(tick=0, channel=5, data=[40, 100])\n",
      "midi.NoteOnEvent(tick=192, channel=5, data=[40, 0])\n",
      "midi.NoteOnEvent(tick=0, channel=5, data=[36, 100])\n",
      "midi.NoteOnEvent(tick=192, channel=5, data=[36, 0])\n",
      "midi.NoteOnEvent(tick=0, channel=5, data=[35, 100])\n",
      "midi.NoteOnEvent(tick=192, channel=5, data=[35, 0])\n",
      "midi.NoteOnEvent(tick=0, channel=5, data=[43, 100])\n",
      "midi.NoteOnEvent(tick=192, channel=5, data=[43, 0])\n",
      "midi.NoteOnEvent(tick=0, channel=5, data=[36, 100])\n",
      "midi.NoteOnEvent(tick=192, channel=5, data=[36, 0])\n",
      "midi.NoteOnEvent(tick=0, channel=5, data=[43, 100])\n",
      "midi.NoteOnEvent(tick=192, channel=5, data=[43, 0])\n",
      "midi.NoteOnEvent(tick=0, channel=5, data=[38, 100])\n",
      "midi.NoteOnEvent(tick=192, channel=5, data=[38, 0])\n",
      "midi.NoteOnEvent(tick=0, channel=5, data=[43, 100])\n",
      "midi.NoteOnEvent(tick=192, channel=5, data=[43, 0])\n",
      "midi.NoteOnEvent(tick=0, channel=5, data=[40, 100])\n",
      "midi.NoteOnEvent(tick=192, channel=5, data=[40, 0])\n",
      "midi.NoteOnEvent(tick=0, channel=5, data=[43, 100])\n",
      "midi.NoteOnEvent(tick=192, channel=5, data=[43, 0])\n",
      "midi.NoteOnEvent(tick=0, channel=5, data=[41, 100])\n",
      "midi.NoteOnEvent(tick=192, channel=5, data=[41, 0])\n",
      "midi.NoteOnEvent(tick=0, channel=5, data=[43, 100])\n",
      "midi.NoteOnEvent(tick=192, channel=5, data=[43, 0])\n",
      "midi.NoteOnEvent(tick=0, channel=5, data=[45, 100])\n",
      "midi.NoteOnEvent(tick=192, channel=5, data=[45, 0])\n",
      "midi.NoteOnEvent(tick=0, channel=5, data=[41, 100])\n",
      "midi.NoteOnEvent(tick=192, channel=5, data=[41, 0])\n",
      "midi.NoteOnEvent(tick=0, channel=5, data=[43, 100])\n",
      "midi.NoteOnEvent(tick=96, channel=5, data=[43, 0])\n",
      "midi.NoteOnEvent(tick=0, channel=5, data=[45, 100])\n",
      "midi.NoteOnEvent(tick=96, channel=5, data=[45, 0])\n",
      "midi.NoteOnEvent(tick=0, channel=5, data=[47, 100])\n",
      "midi.NoteOnEvent(tick=96, channel=5, data=[47, 0])\n",
      "midi.NoteOnEvent(tick=0, channel=5, data=[45, 100])\n",
      "midi.NoteOnEvent(tick=96, channel=5, data=[45, 0])\n",
      "midi.NoteOnEvent(tick=0, channel=5, data=[43, 100])\n",
      "midi.NoteOnEvent(tick=96, channel=5, data=[43, 0])\n",
      "midi.NoteOnEvent(tick=0, channel=5, data=[41, 100])\n",
      "midi.NoteOnEvent(tick=96, channel=5, data=[41, 0])\n",
      "midi.NoteOnEvent(tick=0, channel=5, data=[40, 100])\n",
      "midi.NoteOnEvent(tick=96, channel=5, data=[40, 0])\n",
      "midi.NoteOnEvent(tick=0, channel=5, data=[38, 100])\n",
      "midi.NoteOnEvent(tick=96, channel=5, data=[38, 0])\n",
      "midi.NoteOnEvent(tick=0, channel=5, data=[36, 100])\n",
      "midi.NoteOnEvent(tick=192, channel=5, data=[36, 0])\n",
      "midi.NoteOnEvent(tick=0, channel=5, data=[40, 100])\n",
      "midi.NoteOnEvent(tick=192, channel=5, data=[40, 0])\n",
      "midi.NoteOnEvent(tick=0, channel=5, data=[36, 100])\n",
      "midi.NoteOnEvent(tick=192, channel=5, data=[36, 0])\n",
      "midi.NoteOnEvent(tick=0, channel=5, data=[33, 100])\n",
      "midi.NoteOnEvent(tick=192, channel=5, data=[33, 0])\n",
      "midi.NoteOnEvent(tick=0, channel=5, data=[38, 100])\n",
      "midi.NoteOnEvent(tick=192, channel=5, data=[38, 0])\n",
      "midi.NoteOnEvent(tick=0, channel=5, data=[26, 100])\n",
      "midi.NoteOnEvent(tick=192, channel=5, data=[26, 0])\n",
      "midi.NoteOnEvent(tick=1344, channel=5, data=[42, 100])\n",
      "midi.NoteOnEvent(tick=96, channel=5, data=[42, 0])\n",
      "midi.NoteOnEvent(tick=0, channel=5, data=[40, 100])\n",
      "midi.NoteOnEvent(tick=96, channel=5, data=[40, 0])\n",
      "midi.NoteOnEvent(tick=0, channel=5, data=[38, 100])\n",
      "midi.NoteOnEvent(tick=96, channel=5, data=[38, 0])\n",
      "midi.NoteOnEvent(tick=0, channel=5, data=[36, 100])\n",
      "midi.NoteOnEvent(tick=96, channel=5, data=[36, 0])\n",
      "midi.NoteOnEvent(tick=0, channel=5, data=[35, 100])\n",
      "midi.NoteOnEvent(tick=96, channel=5, data=[35, 0])\n",
      "midi.NoteOnEvent(tick=0, channel=5, data=[33, 100])\n",
      "midi.NoteOnEvent(tick=96, channel=5, data=[33, 0])\n",
      "midi.NoteOnEvent(tick=0, channel=5, data=[35, 100])\n",
      "midi.NoteOnEvent(tick=192, channel=5, data=[35, 0])\n",
      "midi.NoteOnEvent(tick=0, channel=5, data=[38, 100])\n",
      "midi.NoteOnEvent(tick=192, channel=5, data=[38, 0])\n",
      "midi.NoteOnEvent(tick=0, channel=5, data=[35, 100])\n",
      "midi.NoteOnEvent(tick=192, channel=5, data=[35, 0])\n",
      "midi.NoteOnEvent(tick=0, channel=5, data=[31, 100])\n",
      "midi.NoteOnEvent(tick=192, channel=5, data=[31, 0])\n",
      "midi.NoteOnEvent(tick=0, channel=5, data=[36, 100])\n",
      "midi.NoteOnEvent(tick=192, channel=5, data=[36, 0])\n",
      "midi.NoteOnEvent(tick=0, channel=5, data=[24, 100])\n",
      "midi.NoteOnEvent(tick=192, channel=5, data=[24, 0])\n",
      "midi.NoteOnEvent(tick=1344, channel=5, data=[48, 100])\n",
      "midi.NoteOnEvent(tick=96, channel=5, data=[48, 0])\n",
      "midi.NoteOnEvent(tick=0, channel=5, data=[47, 100])\n",
      "midi.NoteOnEvent(tick=96, channel=5, data=[47, 0])\n",
      "midi.NoteOnEvent(tick=0, channel=5, data=[48, 100])\n",
      "midi.NoteOnEvent(tick=96, channel=5, data=[48, 0])\n",
      "midi.NoteOnEvent(tick=0, channel=5, data=[50, 100])\n",
      "midi.NoteOnEvent(tick=96, channel=5, data=[50, 0])\n",
      "midi.NoteOnEvent(tick=0, channel=5, data=[48, 100])\n",
      "midi.NoteOnEvent(tick=96, channel=5, data=[48, 0])\n",
      "midi.NoteOnEvent(tick=0, channel=5, data=[47, 100])\n",
      "midi.NoteOnEvent(tick=96, channel=5, data=[47, 0])\n",
      "midi.NoteOnEvent(tick=0, channel=5, data=[45, 100])\n",
      "midi.NoteOnEvent(tick=96, channel=5, data=[45, 0])\n",
      "midi.NoteOnEvent(tick=0, channel=5, data=[47, 100])\n",
      "midi.NoteOnEvent(tick=96, channel=5, data=[47, 0])\n",
      "midi.NoteOnEvent(tick=0, channel=5, data=[45, 100])\n",
      "midi.NoteOnEvent(tick=96, channel=5, data=[45, 0])\n",
      "midi.NoteOnEvent(tick=0, channel=5, data=[43, 100])\n",
      "midi.NoteOnEvent(tick=96, channel=5, data=[43, 0])\n",
      "midi.NoteOnEvent(tick=0, channel=5, data=[42, 100])\n",
      "midi.NoteOnEvent(tick=96, channel=5, data=[42, 0])\n",
      "midi.NoteOnEvent(tick=0, channel=5, data=[43, 100])\n",
      "midi.NoteOnEvent(tick=96, channel=5, data=[43, 0])\n",
      "midi.NoteOnEvent(tick=0, channel=5, data=[42, 100])\n",
      "midi.NoteOnEvent(tick=96, channel=5, data=[42, 0])\n",
      "midi.NoteOnEvent(tick=0, channel=5, data=[40, 100])\n",
      "midi.NoteOnEvent(tick=96, channel=5, data=[40, 0])\n",
      "midi.NoteOnEvent(tick=0, channel=5, data=[39, 100])\n",
      "midi.NoteOnEvent(tick=96, channel=5, data=[39, 0])\n",
      "midi.NoteOnEvent(tick=0, channel=5, data=[35, 100])\n",
      "midi.NoteOnEvent(tick=96, channel=5, data=[35, 0])\n",
      "midi.NoteOnEvent(tick=0, channel=5, data=[37, 100])\n",
      "midi.NoteOnEvent(tick=96, channel=5, data=[37, 0])\n",
      "midi.NoteOnEvent(tick=0, channel=5, data=[39, 100])\n",
      "midi.NoteOnEvent(tick=96, channel=5, data=[39, 0])\n",
      "midi.NoteOnEvent(tick=0, channel=5, data=[40, 100])\n",
      "midi.NoteOnEvent(tick=96, channel=5, data=[40, 0])\n",
      "midi.NoteOnEvent(tick=0, channel=5, data=[42, 100])\n",
      "midi.NoteOnEvent(tick=96, channel=5, data=[42, 0])\n",
      "midi.NoteOnEvent(tick=0, channel=5, data=[43, 100])\n",
      "midi.NoteOnEvent(tick=96, channel=5, data=[43, 0])\n",
      "midi.NoteOnEvent(tick=0, channel=5, data=[40, 100])\n",
      "midi.NoteOnEvent(tick=96, channel=5, data=[40, 0])\n",
      "midi.NoteOnEvent(tick=0, channel=5, data=[36, 100])\n",
      "midi.NoteOnEvent(tick=192, channel=5, data=[36, 0])\n",
      "midi.NoteOnEvent(tick=0, channel=5, data=[35, 100])\n",
      "midi.NoteOnEvent(tick=192, channel=5, data=[35, 0])\n",
      "midi.NoteOnEvent(tick=0, channel=5, data=[36, 100])\n",
      "midi.NoteOnEvent(tick=192, channel=5, data=[36, 0])\n",
      "midi.NoteOnEvent(tick=0, channel=5, data=[33, 100])\n",
      "midi.NoteOnEvent(tick=192, channel=5, data=[33, 0])\n",
      "midi.NoteOnEvent(tick=0, channel=5, data=[35, 100])\n",
      "midi.NoteOnEvent(tick=288, channel=5, data=[35, 0])\n",
      "midi.NoteOnEvent(tick=0, channel=5, data=[37, 100])\n",
      "midi.NoteOnEvent(tick=48, channel=5, data=[37, 0])\n",
      "midi.NoteOnEvent(tick=0, channel=5, data=[39, 100])\n",
      "midi.NoteOnEvent(tick=48, channel=5, data=[39, 0])\n",
      "midi.NoteOnEvent(tick=0, channel=5, data=[40, 100])\n",
      "midi.NoteOnEvent(tick=96, channel=5, data=[40, 0])\n",
      "midi.NoteOnEvent(tick=0, channel=5, data=[42, 100])\n",
      "midi.NoteOnEvent(tick=96, channel=5, data=[42, 0])\n",
      "midi.NoteOnEvent(tick=0, channel=5, data=[43, 100])\n",
      "midi.NoteOnEvent(tick=96, channel=5, data=[43, 0])\n",
      "midi.NoteOnEvent(tick=0, channel=5, data=[45, 100])\n",
      "midi.NoteOnEvent(tick=96, channel=5, data=[45, 0])\n",
      "midi.NoteOnEvent(tick=0, channel=5, data=[47, 100])\n",
      "midi.NoteOnEvent(tick=192, channel=5, data=[47, 0])\n",
      "midi.NoteOnEvent(tick=0, channel=5, data=[45, 100])\n",
      "midi.NoteOnEvent(tick=192, channel=5, data=[45, 0])\n",
      "midi.NoteOnEvent(tick=0, channel=5, data=[47, 100])\n",
      "midi.NoteOnEvent(tick=192, channel=5, data=[47, 0])\n",
      "midi.NoteOnEvent(tick=0, channel=5, data=[35, 100])\n",
      "midi.NoteOnEvent(tick=192, channel=5, data=[35, 0])\n",
      "midi.NoteOnEvent(tick=0, channel=5, data=[45, 100])\n",
      "midi.NoteOnEvent(tick=192, channel=5, data=[45, 0])\n",
      "midi.NoteOnEvent(tick=0, channel=5, data=[47, 100])\n",
      "midi.NoteOnEvent(tick=192, channel=5, data=[47, 0])\n",
      "midi.NoteOnEvent(tick=0, channel=5, data=[45, 100])\n",
      "midi.NoteOnEvent(tick=192, channel=5, data=[45, 0])\n",
      "midi.NoteOnEvent(tick=0, channel=5, data=[43, 100])\n",
      "midi.NoteOnEvent(tick=192, channel=5, data=[43, 0])\n",
      "midi.NoteOnEvent(tick=0, channel=5, data=[42, 100])\n",
      "midi.NoteOnEvent(tick=192, channel=5, data=[42, 0])\n",
      "midi.NoteOnEvent(tick=0, channel=5, data=[43, 100])\n",
      "midi.NoteOnEvent(tick=192, channel=5, data=[43, 0])\n",
      "midi.NoteOnEvent(tick=0, channel=5, data=[42, 100])\n",
      "midi.NoteOnEvent(tick=192, channel=5, data=[42, 0])\n",
      "midi.NoteOnEvent(tick=0, channel=5, data=[40, 100])\n",
      "midi.NoteOnEvent(tick=192, channel=5, data=[40, 0])\n",
      "midi.NoteOnEvent(tick=0, channel=5, data=[39, 100])\n",
      "midi.NoteOnEvent(tick=192, channel=5, data=[39, 0])\n",
      "midi.NoteOnEvent(tick=0, channel=5, data=[40, 100])\n",
      "midi.NoteOnEvent(tick=192, channel=5, data=[40, 0])\n",
      "midi.NoteOnEvent(tick=0, channel=5, data=[42, 100])\n",
      "midi.NoteOnEvent(tick=192, channel=5, data=[42, 0])\n",
      "midi.NoteOnEvent(tick=0, channel=5, data=[43, 100])\n",
      "midi.NoteOnEvent(tick=192, channel=5, data=[43, 0])\n",
      "midi.NoteOnEvent(tick=0, channel=5, data=[45, 100])\n",
      "midi.NoteOnEvent(tick=192, channel=5, data=[45, 0])\n",
      "midi.NoteOnEvent(tick=0, channel=5, data=[47, 100])\n",
      "midi.NoteOnEvent(tick=192, channel=5, data=[47, 0])\n",
      "midi.NoteOnEvent(tick=0, channel=5, data=[48, 100])\n",
      "midi.NoteOnEvent(tick=192, channel=5, data=[48, 0])\n",
      "midi.NoteOnEvent(tick=0, channel=5, data=[42, 100])\n",
      "midi.NoteOnEvent(tick=192, channel=5, data=[42, 0])\n",
      "midi.NoteOnEvent(tick=0, channel=5, data=[47, 100])\n",
      "midi.NoteOnEvent(tick=192, channel=5, data=[47, 0])\n",
      "midi.NoteOnEvent(tick=0, channel=5, data=[45, 100])\n",
      "midi.NoteOnEvent(tick=96, channel=5, data=[45, 0])\n",
      "midi.NoteOnEvent(tick=0, channel=5, data=[43, 100])\n",
      "midi.NoteOnEvent(tick=96, channel=5, data=[43, 0])\n",
      "midi.NoteOnEvent(tick=0, channel=5, data=[42, 100])\n",
      "midi.NoteOnEvent(tick=192, channel=5, data=[42, 0])\n",
      "midi.NoteOnEvent(tick=0, channel=5, data=[40, 100])\n",
      "midi.NoteOnEvent(tick=192, channel=5, data=[40, 0])\n",
      "midi.NoteOnEvent(tick=0, channel=5, data=[39, 100])\n",
      "midi.NoteOnEvent(tick=192, channel=5, data=[39, 0])\n",
      "midi.NoteOnEvent(tick=0, channel=5, data=[37, 100])\n",
      "midi.NoteOnEvent(tick=192, channel=5, data=[37, 0])\n",
      "midi.NoteOnEvent(tick=0, channel=5, data=[35, 100])\n",
      "midi.NoteOnEvent(tick=192, channel=5, data=[35, 0])\n",
      "midi.NoteOnEvent(tick=0, channel=5, data=[33, 100])\n",
      "midi.NoteOnEvent(tick=192, channel=5, data=[33, 0])\n",
      "midi.NoteOnEvent(tick=0, channel=5, data=[31, 100])\n",
      "midi.NoteOnEvent(tick=192, channel=5, data=[31, 0])\n",
      "midi.NoteOnEvent(tick=0, channel=5, data=[36, 100])\n",
      "midi.NoteOnEvent(tick=192, channel=5, data=[36, 0])\n",
      "midi.NoteOnEvent(tick=0, channel=5, data=[33, 100])\n",
      "midi.NoteOnEvent(tick=192, channel=5, data=[33, 0])\n",
      "midi.NoteOnEvent(tick=0, channel=5, data=[35, 100])\n",
      "midi.NoteOnEvent(tick=192, channel=5, data=[35, 0])\n",
      "midi.NoteOnEvent(tick=0, channel=5, data=[24, 100])\n",
      "midi.NoteOnEvent(tick=384, channel=5, data=[24, 0])\n",
      "midi.NoteOnEvent(tick=192, channel=5, data=[48, 100])\n",
      "midi.NoteOnEvent(tick=192, channel=5, data=[48, 0])\n",
      "midi.NoteOnEvent(tick=0, channel=5, data=[39, 100])\n",
      "midi.NoteOnEvent(tick=192, channel=5, data=[39, 0])\n",
      "midi.NoteOnEvent(tick=0, channel=5, data=[39, 100])\n",
      "midi.NoteOnEvent(tick=192, channel=5, data=[39, 0])\n",
      "midi.NoteOnEvent(tick=0, channel=5, data=[39, 100])\n",
      "midi.NoteOnEvent(tick=192, channel=5, data=[39, 0])\n",
      "midi.NoteOnEvent(tick=0, channel=5, data=[42, 100])\n",
      "midi.NoteOnEvent(tick=192, channel=5, data=[42, 0])\n",
      "midi.NoteOnEvent(tick=0, channel=5, data=[33, 100])\n",
      "midi.NoteOnEvent(tick=192, channel=5, data=[33, 0])\n",
      "midi.NoteOnEvent(tick=0, channel=5, data=[33, 100])\n",
      "midi.NoteOnEvent(tick=192, channel=5, data=[33, 0])\n",
      "midi.NoteOnEvent(tick=0, channel=5, data=[33, 100])\n",
      "midi.NoteOnEvent(tick=192, channel=5, data=[33, 0])\n",
      "midi.NoteOnEvent(tick=0, channel=5, data=[36, 100])\n",
      "midi.NoteOnEvent(tick=192, channel=5, data=[36, 0])\n",
      "midi.NoteOnEvent(tick=0, channel=5, data=[30, 100])\n",
      "midi.NoteOnEvent(tick=192, channel=5, data=[30, 0])\n",
      "midi.NoteOnEvent(tick=0, channel=5, data=[31, 100])\n",
      "midi.NoteOnEvent(tick=96, channel=5, data=[31, 0])\n",
      "midi.NoteOnEvent(tick=0, channel=5, data=[33, 100])\n",
      "midi.NoteOnEvent(tick=96, channel=5, data=[33, 0])\n",
      "midi.NoteOnEvent(tick=0, channel=5, data=[35, 100])\n",
      "midi.NoteOnEvent(tick=192, channel=5, data=[35, 0])\n",
      "midi.NoteOnEvent(tick=0, channel=5, data=[35, 100])\n",
      "midi.NoteOnEvent(tick=192, channel=5, data=[35, 0])\n",
      "midi.NoteOnEvent(tick=0, channel=5, data=[28, 100])\n",
      "midi.NoteOnEvent(tick=192, channel=5, data=[28, 0])\n",
      "midi.NoteOnEvent(tick=0, channel=5, data=[40, 100])\n",
      "midi.NoteOnEvent(tick=96, channel=5, data=[40, 0])\n",
      "midi.NoteOnEvent(tick=0, channel=5, data=[39, 100])\n",
      "midi.NoteOnEvent(tick=96, channel=5, data=[39, 0])\n",
      "midi.NoteOnEvent(tick=0, channel=5, data=[40, 100])\n",
      "midi.NoteOnEvent(tick=192, channel=5, data=[40, 0])\n",
      "midi.NoteOnEvent(tick=0, channel=5, data=[42, 100])\n",
      "midi.NoteOnEvent(tick=192, channel=5, data=[42, 0])\n",
      "midi.NoteOnEvent(tick=0, channel=5, data=[43, 100])\n",
      "midi.NoteOnEvent(tick=384, channel=5, data=[43, 0])\n",
      "midi.NoteOnEvent(tick=192, channel=5, data=[40, 100])\n",
      "midi.NoteOnEvent(tick=192, channel=5, data=[40, 0])\n",
      "midi.NoteOnEvent(tick=0, channel=5, data=[47, 100])\n",
      "midi.NoteOnEvent(tick=384, channel=5, data=[47, 0])\n",
      "midi.NoteOnEvent(tick=192, channel=5, data=[35, 100])\n",
      "midi.NoteOnEvent(tick=192, channel=5, data=[35, 0])\n",
      "midi.NoteOnEvent(tick=0, channel=5, data=[27, 100])\n",
      "midi.NoteOnEvent(tick=384, channel=5, data=[27, 0])\n",
      "midi.NoteOnEvent(tick=192, channel=5, data=[35, 100])\n",
      "midi.NoteOnEvent(tick=192, channel=5, data=[35, 0])\n",
      "midi.NoteOnEvent(tick=0, channel=5, data=[40, 100])\n",
      "midi.NoteOnEvent(tick=384, channel=5, data=[40, 0])\n",
      "midi.NoteOnEvent(tick=1344, channel=5, data=[40, 100])\n",
      "midi.NoteOnEvent(tick=192, channel=5, data=[40, 0])\n",
      "midi.NoteOnEvent(tick=0, channel=5, data=[28, 100])\n",
      "midi.NoteOnEvent(tick=192, channel=5, data=[28, 0])\n",
      "midi.NoteOnEvent(tick=0, channel=5, data=[40, 100])\n",
      "midi.NoteOnEvent(tick=192, channel=5, data=[40, 0])\n",
      "midi.NoteOnEvent(tick=0, channel=5, data=[33, 100])\n",
      "midi.NoteOnEvent(tick=384, channel=5, data=[33, 0])\n",
      "midi.NoteOnEvent(tick=576, channel=5, data=[45, 100])\n",
      "midi.NoteOnEvent(tick=192, channel=5, data=[45, 0])\n",
      "midi.NoteOnEvent(tick=0, channel=5, data=[33, 100])\n",
      "midi.NoteOnEvent(tick=192, channel=5, data=[33, 0])\n",
      "midi.NoteOnEvent(tick=0, channel=5, data=[45, 100])\n",
      "midi.NoteOnEvent(tick=192, channel=5, data=[45, 0])\n",
      "midi.NoteOnEvent(tick=0, channel=5, data=[38, 100])\n",
      "midi.NoteOnEvent(tick=384, channel=5, data=[38, 0])\n",
      "midi.NoteOnEvent(tick=576, channel=5, data=[38, 100])\n",
      "midi.NoteOnEvent(tick=192, channel=5, data=[38, 0])\n",
      "midi.NoteOnEvent(tick=0, channel=5, data=[26, 100])\n",
      "midi.NoteOnEvent(tick=192, channel=5, data=[26, 0])\n",
      "midi.NoteOnEvent(tick=0, channel=5, data=[38, 100])\n",
      "midi.NoteOnEvent(tick=192, channel=5, data=[38, 0])\n",
      "midi.NoteOnEvent(tick=0, channel=5, data=[31, 100])\n",
      "midi.NoteOnEvent(tick=384, channel=5, data=[31, 0])\n",
      "midi.NoteOnEvent(tick=576, channel=5, data=[43, 100])\n",
      "midi.NoteOnEvent(tick=192, channel=5, data=[43, 0])\n",
      "midi.NoteOnEvent(tick=0, channel=5, data=[31, 100])\n",
      "midi.NoteOnEvent(tick=192, channel=5, data=[31, 0])\n",
      "midi.NoteOnEvent(tick=0, channel=5, data=[43, 100])\n",
      "midi.NoteOnEvent(tick=192, channel=5, data=[43, 0])\n",
      "midi.NoteOnEvent(tick=0, channel=5, data=[36, 100])\n",
      "midi.NoteOnEvent(tick=384, channel=5, data=[36, 0])\n",
      "midi.NoteOnEvent(tick=0, channel=5, data=[46, 100])\n",
      "midi.NoteOnEvent(tick=384, channel=5, data=[46, 0])\n",
      "midi.NoteOnEvent(tick=0, channel=5, data=[45, 100])\n",
      "midi.NoteOnEvent(tick=384, channel=5, data=[45, 0])\n",
      "midi.NoteOnEvent(tick=0, channel=5, data=[43, 100])\n",
      "midi.NoteOnEvent(tick=384, channel=5, data=[43, 0])\n",
      "midi.NoteOnEvent(tick=0, channel=5, data=[41, 100])\n",
      "midi.NoteOnEvent(tick=192, channel=5, data=[41, 0])\n",
      "midi.NoteOnEvent(tick=0, channel=5, data=[40, 100])\n",
      "midi.NoteOnEvent(tick=192, channel=5, data=[40, 0])\n",
      "midi.NoteOnEvent(tick=0, channel=5, data=[38, 100])\n",
      "midi.NoteOnEvent(tick=192, channel=5, data=[38, 0])\n",
      "midi.NoteOnEvent(tick=0, channel=5, data=[41, 100])\n",
      "midi.NoteOnEvent(tick=192, channel=5, data=[41, 0])\n",
      "midi.NoteOnEvent(tick=0, channel=5, data=[43, 100])\n",
      "midi.NoteOnEvent(tick=192, channel=5, data=[43, 0])\n",
      "midi.NoteOnEvent(tick=0, channel=5, data=[41, 100])\n",
      "midi.NoteOnEvent(tick=192, channel=5, data=[41, 0])\n",
      "midi.NoteOnEvent(tick=0, channel=5, data=[40, 100])\n",
      "midi.NoteOnEvent(tick=192, channel=5, data=[40, 0])\n",
      "midi.NoteOnEvent(tick=0, channel=5, data=[43, 100])\n",
      "midi.NoteOnEvent(tick=192, channel=5, data=[43, 0])\n",
      "midi.NoteOnEvent(tick=0, channel=5, data=[45, 100])\n",
      "midi.NoteOnEvent(tick=192, channel=5, data=[45, 0])\n",
      "midi.NoteOnEvent(tick=0, channel=5, data=[47, 100])\n",
      "midi.NoteOnEvent(tick=192, channel=5, data=[47, 0])\n",
      "midi.NoteOnEvent(tick=0, channel=5, data=[49, 100])\n",
      "midi.NoteOnEvent(tick=192, channel=5, data=[49, 0])\n",
      "midi.NoteOnEvent(tick=0, channel=5, data=[45, 100])\n",
      "midi.NoteOnEvent(tick=192, channel=5, data=[45, 0])\n",
      "midi.NoteOnEvent(tick=0, channel=5, data=[41, 100])\n",
      "midi.NoteOnEvent(tick=192, channel=5, data=[41, 0])\n",
      "midi.NoteOnEvent(tick=0, channel=5, data=[45, 100])\n",
      "midi.NoteOnEvent(tick=192, channel=5, data=[45, 0])\n",
      "midi.NoteOnEvent(tick=0, channel=5, data=[41, 100])\n",
      "midi.NoteOnEvent(tick=192, channel=5, data=[41, 0])\n",
      "midi.NoteOnEvent(tick=0, channel=5, data=[38, 100])\n",
      "midi.NoteOnEvent(tick=192, channel=5, data=[38, 0])\n",
      "midi.NoteOnEvent(tick=0, channel=5, data=[43, 100])\n",
      "midi.NoteOnEvent(tick=192, channel=5, data=[43, 0])\n",
      "midi.NoteOnEvent(tick=0, channel=5, data=[46, 100])\n",
      "midi.NoteOnEvent(tick=192, channel=5, data=[46, 0])\n",
      "midi.NoteOnEvent(tick=0, channel=5, data=[43, 100])\n",
      "midi.NoteOnEvent(tick=192, channel=5, data=[43, 0])\n",
      "midi.NoteOnEvent(tick=0, channel=5, data=[38, 100])\n",
      "midi.NoteOnEvent(tick=192, channel=5, data=[38, 0])\n",
      "midi.NoteOnEvent(tick=0, channel=5, data=[50, 100])\n",
      "midi.NoteOnEvent(tick=192, channel=5, data=[50, 0])\n",
      "midi.NoteOnEvent(tick=0, channel=5, data=[38, 100])\n",
      "midi.NoteOnEvent(tick=192, channel=5, data=[38, 0])\n",
      "midi.NoteOnEvent(tick=0, channel=5, data=[45, 100])\n",
      "midi.NoteOnEvent(tick=192, channel=5, data=[45, 0])\n",
      "midi.NoteOnEvent(tick=0, channel=5, data=[33, 100])\n",
      "midi.NoteOnEvent(tick=192, channel=5, data=[33, 0])\n",
      "midi.NoteOnEvent(tick=0, channel=5, data=[38, 100])\n",
      "midi.NoteOnEvent(tick=192, channel=5, data=[38, 0])\n",
      "midi.NoteOnEvent(tick=0, channel=5, data=[26, 100])\n",
      "midi.NoteOnEvent(tick=192, channel=5, data=[26, 0])\n",
      "midi.NoteOnEvent(tick=2112, channel=5, data=[43, 100])\n",
      "midi.NoteOnEvent(tick=96, channel=5, data=[43, 0])\n",
      "midi.NoteOnEvent(tick=0, channel=5, data=[45, 100])\n",
      "midi.NoteOnEvent(tick=96, channel=5, data=[45, 0])\n",
      "midi.NoteOnEvent(tick=0, channel=5, data=[43, 100])\n",
      "midi.NoteOnEvent(tick=96, channel=5, data=[43, 0])\n",
      "midi.NoteOnEvent(tick=0, channel=5, data=[41, 100])\n",
      "midi.NoteOnEvent(tick=96, channel=5, data=[41, 0])\n",
      "midi.NoteOnEvent(tick=0, channel=5, data=[40, 100])\n",
      "midi.NoteOnEvent(tick=96, channel=5, data=[40, 0])\n",
      "midi.NoteOnEvent(tick=0, channel=5, data=[38, 100])\n",
      "midi.NoteOnEvent(tick=96, channel=5, data=[38, 0])\n",
      "midi.NoteOnEvent(tick=0, channel=5, data=[36, 100])\n",
      "midi.NoteOnEvent(tick=192, channel=5, data=[36, 0])\n",
      "midi.NoteOnEvent(tick=0, channel=5, data=[48, 100])\n",
      "midi.NoteOnEvent(tick=192, channel=5, data=[48, 0])\n",
      "midi.NoteOnEvent(tick=1344, channel=5, data=[41, 100])\n",
      "midi.NoteOnEvent(tick=96, channel=5, data=[41, 0])\n",
      "midi.NoteOnEvent(tick=0, channel=5, data=[43, 100])\n",
      "midi.NoteOnEvent(tick=96, channel=5, data=[43, 0])\n",
      "midi.NoteOnEvent(tick=0, channel=5, data=[41, 100])\n",
      "midi.NoteOnEvent(tick=96, channel=5, data=[41, 0])\n",
      "midi.NoteOnEvent(tick=0, channel=5, data=[40, 100])\n",
      "midi.NoteOnEvent(tick=96, channel=5, data=[40, 0])\n",
      "midi.NoteOnEvent(tick=0, channel=5, data=[38, 100])\n",
      "midi.NoteOnEvent(tick=96, channel=5, data=[38, 0])\n",
      "midi.NoteOnEvent(tick=0, channel=5, data=[36, 100])\n",
      "midi.NoteOnEvent(tick=96, channel=5, data=[36, 0])\n",
      "midi.NoteOnEvent(tick=0, channel=5, data=[34, 100])\n",
      "midi.NoteOnEvent(tick=192, channel=5, data=[34, 0])\n",
      "midi.NoteOnEvent(tick=0, channel=5, data=[46, 100])\n",
      "midi.NoteOnEvent(tick=192, channel=5, data=[46, 0])\n",
      "midi.NoteOnEvent(tick=1344, channel=5, data=[40, 100])\n",
      "midi.NoteOnEvent(tick=96, channel=5, data=[40, 0])\n",
      "midi.NoteOnEvent(tick=0, channel=5, data=[41, 100])\n",
      "midi.NoteOnEvent(tick=96, channel=5, data=[41, 0])\n",
      "midi.NoteOnEvent(tick=0, channel=5, data=[40, 100])\n",
      "midi.NoteOnEvent(tick=96, channel=5, data=[40, 0])\n",
      "midi.NoteOnEvent(tick=0, channel=5, data=[38, 100])\n",
      "midi.NoteOnEvent(tick=96, channel=5, data=[38, 0])\n",
      "midi.NoteOnEvent(tick=0, channel=5, data=[37, 100])\n",
      "midi.NoteOnEvent(tick=96, channel=5, data=[37, 0])\n",
      "midi.NoteOnEvent(tick=0, channel=5, data=[35, 100])\n",
      "midi.NoteOnEvent(tick=96, channel=5, data=[35, 0])\n",
      "midi.NoteOnEvent(tick=0, channel=5, data=[33, 100])\n",
      "midi.NoteOnEvent(tick=192, channel=5, data=[33, 0])\n",
      "midi.NoteOnEvent(tick=0, channel=5, data=[45, 100])\n",
      "midi.NoteOnEvent(tick=192, channel=5, data=[45, 0])\n",
      "midi.NoteOnEvent(tick=1344, channel=5, data=[38, 100])\n",
      "midi.NoteOnEvent(tick=192, channel=5, data=[38, 0])\n",
      "midi.NoteOnEvent(tick=0, channel=5, data=[50, 100])\n",
      "midi.NoteOnEvent(tick=192, channel=5, data=[50, 0])\n",
      "midi.NoteOnEvent(tick=0, channel=5, data=[41, 100])\n",
      "midi.NoteOnEvent(tick=192, channel=5, data=[41, 0])\n",
      "midi.NoteOnEvent(tick=0, channel=5, data=[43, 100])\n",
      "midi.NoteOnEvent(tick=192, channel=5, data=[43, 0])\n",
      "midi.NoteOnEvent(tick=0, channel=5, data=[45, 100])\n",
      "midi.NoteOnEvent(tick=192, channel=5, data=[45, 0])\n",
      "midi.NoteOnEvent(tick=0, channel=5, data=[47, 100])\n",
      "midi.NoteOnEvent(tick=192, channel=5, data=[47, 0])\n",
      "midi.NoteOnEvent(tick=0, channel=5, data=[43, 100])\n",
      "midi.NoteOnEvent(tick=192, channel=5, data=[43, 0])\n",
      "midi.NoteOnEvent(tick=0, channel=5, data=[48, 100])\n",
      "midi.NoteOnEvent(tick=192, channel=5, data=[48, 0])\n",
      "midi.NoteOnEvent(tick=0, channel=5, data=[36, 100])\n",
      "midi.NoteOnEvent(tick=192, channel=5, data=[36, 0])\n",
      "midi.NoteOnEvent(tick=0, channel=5, data=[48, 100])\n",
      "midi.NoteOnEvent(tick=192, channel=5, data=[48, 0])\n",
      "midi.NoteOnEvent(tick=0, channel=5, data=[40, 100])\n",
      "midi.NoteOnEvent(tick=192, channel=5, data=[40, 0])\n",
      "midi.NoteOnEvent(tick=0, channel=5, data=[41, 100])\n",
      "midi.NoteOnEvent(tick=192, channel=5, data=[41, 0])\n",
      "midi.NoteOnEvent(tick=0, channel=5, data=[43, 100])\n",
      "midi.NoteOnEvent(tick=192, channel=5, data=[43, 0])\n",
      "midi.NoteOnEvent(tick=0, channel=5, data=[45, 100])\n",
      "midi.NoteOnEvent(tick=192, channel=5, data=[45, 0])\n",
      "midi.NoteOnEvent(tick=0, channel=5, data=[41, 100])\n",
      "midi.NoteOnEvent(tick=192, channel=5, data=[41, 0])\n",
      "midi.NoteOnEvent(tick=0, channel=5, data=[47, 100])\n",
      "midi.NoteOnEvent(tick=192, channel=5, data=[47, 0])\n",
      "midi.NoteOnEvent(tick=0, channel=5, data=[35, 100])\n",
      "midi.NoteOnEvent(tick=192, channel=5, data=[35, 0])\n",
      "midi.NoteOnEvent(tick=0, channel=5, data=[47, 100])\n",
      "midi.NoteOnEvent(tick=192, channel=5, data=[47, 0])\n",
      "midi.NoteOnEvent(tick=0, channel=5, data=[44, 100])\n",
      "midi.NoteOnEvent(tick=192, channel=5, data=[44, 0])\n",
      "midi.NoteOnEvent(tick=0, channel=5, data=[40, 100])\n",
      "midi.NoteOnEvent(tick=192, channel=5, data=[40, 0])\n",
      "midi.NoteOnEvent(tick=0, channel=5, data=[28, 100])\n",
      "midi.NoteOnEvent(tick=192, channel=5, data=[28, 0])\n",
      "midi.NoteOnEvent(tick=576, channel=5, data=[33, 100])\n",
      "midi.NoteOnEvent(tick=192, channel=5, data=[33, 0])\n",
      "midi.NoteOnEvent(tick=0, channel=5, data=[45, 100])\n",
      "midi.NoteOnEvent(tick=384, channel=5, data=[45, 0])\n",
      "midi.NoteOnEvent(tick=192, channel=5, data=[33, 100])\n",
      "midi.NoteOnEvent(tick=192, channel=5, data=[33, 0])\n",
      "midi.NoteOnEvent(tick=0, channel=5, data=[45, 100])\n",
      "midi.NoteOnEvent(tick=384, channel=5, data=[45, 0])\n",
      "midi.NoteOnEvent(tick=192, channel=5, data=[33, 100])\n",
      "midi.NoteOnEvent(tick=192, channel=5, data=[33, 0])\n",
      "midi.NoteOnEvent(tick=0, channel=5, data=[40, 100])\n",
      "midi.NoteOnEvent(tick=192, channel=5, data=[40, 0])\n",
      "midi.NoteOnEvent(tick=0, channel=5, data=[28, 100])\n",
      "midi.NoteOnEvent(tick=192, channel=5, data=[28, 0])\n",
      "midi.NoteOnEvent(tick=0, channel=5, data=[45, 100])\n",
      "midi.NoteOnEvent(tick=192, channel=5, data=[45, 0])\n",
      "midi.NoteOnEvent(tick=0, channel=5, data=[33, 100])\n",
      "midi.NoteOnEvent(tick=192, channel=5, data=[33, 0])\n",
      "midi.NoteOnEvent(tick=0, channel=5, data=[36, 100])\n",
      "midi.NoteOnEvent(tick=192, channel=5, data=[36, 0])\n",
      "midi.NoteOnEvent(tick=0, channel=5, data=[40, 100])\n",
      "midi.NoteOnEvent(tick=192, channel=5, data=[40, 0])\n",
      "midi.NoteOnEvent(tick=0, channel=5, data=[45, 100])\n",
      "midi.NoteOnEvent(tick=384, channel=5, data=[45, 0])\n",
      "midi.NoteOnEvent(tick=0, channel=5, data=[43, 100])\n",
      "midi.NoteOnEvent(tick=384, channel=5, data=[43, 0])\n",
      "midi.NoteOnEvent(tick=0, channel=5, data=[41, 100])\n",
      "midi.NoteOnEvent(tick=384, channel=5, data=[41, 0])\n",
      "midi.NoteOnEvent(tick=0, channel=5, data=[40, 100])\n",
      "midi.NoteOnEvent(tick=384, channel=5, data=[40, 0])\n",
      "midi.NoteOnEvent(tick=0, channel=5, data=[38, 100])\n",
      "midi.NoteOnEvent(tick=384, channel=5, data=[38, 0])\n",
      "midi.NoteOnEvent(tick=0, channel=5, data=[36, 100])\n",
      "midi.NoteOnEvent(tick=384, channel=5, data=[36, 0])\n",
      "midi.NoteOnEvent(tick=0, channel=5, data=[34, 100])\n",
      "midi.NoteOnEvent(tick=384, channel=5, data=[34, 0])\n",
      "midi.NoteOnEvent(tick=0, channel=5, data=[33, 100])\n",
      "midi.NoteOnEvent(tick=384, channel=5, data=[33, 0])\n",
      "midi.NoteOnEvent(tick=0, channel=5, data=[31, 100])\n",
      "midi.NoteOnEvent(tick=384, channel=5, data=[31, 0])\n",
      "midi.NoteOnEvent(tick=0, channel=5, data=[29, 100])\n",
      "midi.NoteOnEvent(tick=384, channel=5, data=[29, 0])\n",
      "midi.NoteOnEvent(tick=0, channel=5, data=[27, 100])\n",
      "midi.NoteOnEvent(tick=384, channel=5, data=[27, 0])\n",
      "midi.NoteOnEvent(tick=0, channel=5, data=[26, 100])\n",
      "midi.NoteOnEvent(tick=384, channel=5, data=[26, 0])\n",
      "midi.NoteOnEvent(tick=0, channel=5, data=[24, 100])\n",
      "midi.NoteOnEvent(tick=192, channel=5, data=[24, 0])\n",
      "midi.NoteOnEvent(tick=0, channel=5, data=[24, 100])\n"
     ]
    },
    {
     "name": "stdout",
     "output_type": "stream",
     "text": [
      "midi.NoteOnEvent(tick=192, channel=5, data=[24, 0])\n",
      "midi.NoteOnEvent(tick=0, channel=5, data=[24, 100])\n",
      "midi.NoteOnEvent(tick=192, channel=5, data=[24, 0])\n",
      "midi.NoteOnEvent(tick=0, channel=5, data=[24, 100])\n",
      "midi.NoteOnEvent(tick=192, channel=5, data=[24, 0])\n",
      "midi.NoteOnEvent(tick=0, channel=5, data=[24, 100])\n",
      "midi.NoteOnEvent(tick=192, channel=5, data=[24, 0])\n",
      "midi.NoteOnEvent(tick=0, channel=5, data=[24, 100])\n",
      "midi.NoteOnEvent(tick=192, channel=5, data=[24, 0])\n",
      "midi.NoteOnEvent(tick=0, channel=5, data=[24, 100])\n",
      "midi.NoteOnEvent(tick=192, channel=5, data=[24, 0])\n",
      "midi.NoteOnEvent(tick=0, channel=5, data=[24, 100])\n",
      "midi.NoteOnEvent(tick=192, channel=5, data=[24, 0])\n",
      "midi.NoteOnEvent(tick=0, channel=5, data=[24, 100])\n",
      "midi.NoteOnEvent(tick=192, channel=5, data=[24, 0])\n",
      "midi.NoteOnEvent(tick=0, channel=5, data=[24, 100])\n",
      "midi.NoteOnEvent(tick=192, channel=5, data=[24, 0])\n",
      "midi.NoteOnEvent(tick=0, channel=5, data=[36, 100])\n",
      "midi.NoteOnEvent(tick=192, channel=5, data=[36, 0])\n",
      "midi.NoteOnEvent(tick=0, channel=5, data=[36, 100])\n",
      "midi.NoteOnEvent(tick=192, channel=5, data=[36, 0])\n",
      "midi.NoteOnEvent(tick=0, channel=5, data=[34, 100])\n",
      "midi.NoteOnEvent(tick=192, channel=5, data=[34, 0])\n",
      "midi.NoteOnEvent(tick=0, channel=5, data=[50, 100])\n",
      "midi.NoteOnEvent(tick=192, channel=5, data=[50, 0])\n",
      "midi.NoteOnEvent(tick=0, channel=5, data=[46, 100])\n",
      "midi.NoteOnEvent(tick=192, channel=5, data=[46, 0])\n",
      "midi.NoteOnEvent(tick=0, channel=5, data=[43, 100])\n",
      "midi.NoteOnEvent(tick=192, channel=5, data=[43, 0])\n",
      "midi.NoteOnEvent(tick=0, channel=5, data=[31, 100])\n",
      "midi.NoteOnEvent(tick=192, channel=5, data=[31, 0])\n",
      "midi.NoteOnEvent(tick=0, channel=5, data=[31, 100])\n",
      "midi.NoteOnEvent(tick=192, channel=5, data=[31, 0])\n",
      "midi.NoteOnEvent(tick=0, channel=5, data=[31, 100])\n",
      "midi.NoteOnEvent(tick=192, channel=5, data=[31, 0])\n",
      "midi.NoteOnEvent(tick=0, channel=5, data=[31, 100])\n",
      "midi.NoteOnEvent(tick=192, channel=5, data=[31, 0])\n",
      "midi.NoteOnEvent(tick=0, channel=5, data=[29, 100])\n",
      "midi.NoteOnEvent(tick=192, channel=5, data=[29, 0])\n",
      "midi.NoteOnEvent(tick=0, channel=5, data=[45, 100])\n",
      "midi.NoteOnEvent(tick=192, channel=5, data=[45, 0])\n",
      "midi.NoteOnEvent(tick=0, channel=5, data=[41, 100])\n",
      "midi.NoteOnEvent(tick=192, channel=5, data=[41, 0])\n",
      "midi.NoteOnEvent(tick=0, channel=5, data=[38, 100])\n",
      "midi.NoteOnEvent(tick=192, channel=5, data=[38, 0])\n",
      "midi.NoteOnEvent(tick=0, channel=5, data=[26, 100])\n",
      "midi.NoteOnEvent(tick=192, channel=5, data=[26, 0])\n",
      "midi.NoteOnEvent(tick=0, channel=5, data=[26, 100])\n",
      "midi.NoteOnEvent(tick=192, channel=5, data=[26, 0])\n",
      "midi.NoteOnEvent(tick=0, channel=5, data=[26, 100])\n",
      "midi.NoteOnEvent(tick=192, channel=5, data=[26, 0])\n",
      "midi.NoteOnEvent(tick=0, channel=5, data=[26, 100])\n",
      "midi.NoteOnEvent(tick=192, channel=5, data=[26, 0])\n",
      "midi.NoteOnEvent(tick=0, channel=5, data=[24, 100])\n",
      "midi.NoteOnEvent(tick=192, channel=5, data=[24, 0])\n",
      "midi.NoteOnEvent(tick=0, channel=5, data=[38, 100])\n",
      "midi.NoteOnEvent(tick=192, channel=5, data=[38, 0])\n",
      "midi.NoteOnEvent(tick=0, channel=5, data=[36, 100])\n",
      "midi.NoteOnEvent(tick=192, channel=5, data=[36, 0])\n",
      "midi.NoteOnEvent(tick=0, channel=5, data=[35, 100])\n",
      "midi.NoteOnEvent(tick=192, channel=5, data=[35, 0])\n",
      "midi.NoteOnEvent(tick=0, channel=5, data=[33, 100])\n",
      "midi.NoteOnEvent(tick=192, channel=5, data=[33, 0])\n",
      "midi.NoteOnEvent(tick=0, channel=5, data=[45, 100])\n",
      "midi.NoteOnEvent(tick=192, channel=5, data=[45, 0])\n",
      "midi.NoteOnEvent(tick=0, channel=5, data=[43, 100])\n",
      "midi.NoteOnEvent(tick=192, channel=5, data=[43, 0])\n",
      "midi.NoteOnEvent(tick=0, channel=5, data=[41, 100])\n",
      "midi.NoteOnEvent(tick=192, channel=5, data=[41, 0])\n",
      "midi.NoteOnEvent(tick=0, channel=5, data=[40, 100])\n",
      "midi.NoteOnEvent(tick=192, channel=5, data=[40, 0])\n",
      "midi.NoteOnEvent(tick=0, channel=5, data=[41, 100])\n",
      "midi.NoteOnEvent(tick=192, channel=5, data=[41, 0])\n",
      "midi.NoteOnEvent(tick=0, channel=5, data=[40, 100])\n",
      "midi.NoteOnEvent(tick=192, channel=5, data=[40, 0])\n",
      "midi.NoteOnEvent(tick=0, channel=5, data=[38, 100])\n",
      "midi.NoteOnEvent(tick=192, channel=5, data=[38, 0])\n",
      "midi.NoteOnEvent(tick=0, channel=5, data=[36, 100])\n",
      "midi.NoteOnEvent(tick=192, channel=5, data=[36, 0])\n",
      "midi.NoteOnEvent(tick=0, channel=5, data=[40, 100])\n",
      "midi.NoteOnEvent(tick=192, channel=5, data=[40, 0])\n",
      "midi.NoteOnEvent(tick=0, channel=5, data=[36, 100])\n",
      "midi.NoteOnEvent(tick=192, channel=5, data=[36, 0])\n",
      "midi.NoteOnEvent(tick=0, channel=5, data=[33, 100])\n",
      "midi.NoteOnEvent(tick=192, channel=5, data=[33, 0])\n",
      "midi.NoteOnEvent(tick=0, channel=5, data=[38, 100])\n",
      "midi.NoteOnEvent(tick=192, channel=5, data=[38, 0])\n",
      "midi.NoteOnEvent(tick=0, channel=5, data=[41, 100])\n",
      "midi.NoteOnEvent(tick=192, channel=5, data=[41, 0])\n",
      "midi.NoteOnEvent(tick=0, channel=5, data=[38, 100])\n",
      "midi.NoteOnEvent(tick=192, channel=5, data=[38, 0])\n",
      "midi.NoteOnEvent(tick=0, channel=5, data=[35, 100])\n",
      "midi.NoteOnEvent(tick=192, channel=5, data=[35, 0])\n",
      "midi.NoteOnEvent(tick=0, channel=5, data=[36, 100])\n",
      "midi.NoteOnEvent(tick=192, channel=5, data=[36, 0])\n",
      "midi.NoteOnEvent(tick=0, channel=5, data=[33, 100])\n",
      "midi.NoteOnEvent(tick=192, channel=5, data=[33, 0])\n",
      "midi.NoteOnEvent(tick=0, channel=5, data=[40, 100])\n",
      "midi.NoteOnEvent(tick=192, channel=5, data=[40, 0])\n",
      "midi.NoteOnEvent(tick=0, channel=5, data=[28, 100])\n",
      "midi.NoteOnEvent(tick=192, channel=5, data=[28, 0])\n",
      "midi.NoteOnEvent(tick=0, channel=5, data=[33, 100])\n",
      "midi.NoteOnEvent(tick=192, channel=5, data=[33, 0])\n",
      "midi.NoteOnEvent(tick=0, channel=5, data=[48, 100])\n",
      "midi.NoteOnEvent(tick=96, channel=5, data=[48, 0])\n",
      "midi.NoteOnEvent(tick=0, channel=5, data=[47, 100])\n",
      "midi.NoteOnEvent(tick=96, channel=5, data=[47, 0])\n",
      "midi.NoteOnEvent(tick=0, channel=5, data=[45, 100])\n",
      "midi.NoteOnEvent(tick=96, channel=5, data=[45, 0])\n",
      "midi.NoteOnEvent(tick=0, channel=5, data=[43, 100])\n",
      "midi.NoteOnEvent(tick=96, channel=5, data=[43, 0])\n",
      "midi.NoteOnEvent(tick=0, channel=5, data=[41, 100])\n",
      "midi.NoteOnEvent(tick=96, channel=5, data=[41, 0])\n",
      "midi.NoteOnEvent(tick=0, channel=5, data=[40, 100])\n",
      "midi.NoteOnEvent(tick=96, channel=5, data=[40, 0])\n",
      "midi.NoteOnEvent(tick=0, channel=5, data=[41, 100])\n",
      "midi.NoteOnEvent(tick=192, channel=5, data=[41, 0])\n",
      "midi.NoteOnEvent(tick=0, channel=5, data=[45, 100])\n",
      "midi.NoteOnEvent(tick=192, channel=5, data=[45, 0])\n",
      "midi.NoteOnEvent(tick=0, channel=5, data=[41, 100])\n",
      "midi.NoteOnEvent(tick=192, channel=5, data=[41, 0])\n",
      "midi.NoteOnEvent(tick=0, channel=5, data=[38, 100])\n",
      "midi.NoteOnEvent(tick=192, channel=5, data=[38, 0])\n",
      "midi.NoteOnEvent(tick=0, channel=5, data=[43, 100])\n",
      "midi.NoteOnEvent(tick=192, channel=5, data=[43, 0])\n",
      "midi.NoteOnEvent(tick=0, channel=5, data=[31, 100])\n",
      "midi.NoteOnEvent(tick=192, channel=5, data=[31, 0])\n",
      "midi.NoteOnEvent(tick=1344, channel=5, data=[47, 100])\n",
      "midi.NoteOnEvent(tick=96, channel=5, data=[47, 0])\n",
      "midi.NoteOnEvent(tick=0, channel=5, data=[45, 100])\n",
      "midi.NoteOnEvent(tick=96, channel=5, data=[45, 0])\n",
      "midi.NoteOnEvent(tick=0, channel=5, data=[43, 100])\n",
      "midi.NoteOnEvent(tick=96, channel=5, data=[43, 0])\n",
      "midi.NoteOnEvent(tick=0, channel=5, data=[41, 100])\n",
      "midi.NoteOnEvent(tick=96, channel=5, data=[41, 0])\n",
      "midi.NoteOnEvent(tick=0, channel=5, data=[40, 100])\n",
      "midi.NoteOnEvent(tick=96, channel=5, data=[40, 0])\n",
      "midi.NoteOnEvent(tick=0, channel=5, data=[38, 100])\n",
      "midi.NoteOnEvent(tick=96, channel=5, data=[38, 0])\n",
      "midi.NoteOnEvent(tick=0, channel=5, data=[40, 100])\n",
      "midi.NoteOnEvent(tick=192, channel=5, data=[40, 0])\n",
      "midi.NoteOnEvent(tick=0, channel=5, data=[43, 100])\n",
      "midi.NoteOnEvent(tick=192, channel=5, data=[43, 0])\n",
      "midi.NoteOnEvent(tick=0, channel=5, data=[40, 100])\n",
      "midi.NoteOnEvent(tick=192, channel=5, data=[40, 0])\n",
      "midi.NoteOnEvent(tick=0, channel=5, data=[36, 100])\n",
      "midi.NoteOnEvent(tick=192, channel=5, data=[36, 0])\n",
      "midi.NoteOnEvent(tick=0, channel=5, data=[41, 100])\n",
      "midi.NoteOnEvent(tick=192, channel=5, data=[41, 0])\n",
      "midi.NoteOnEvent(tick=0, channel=5, data=[29, 100])\n",
      "midi.NoteOnEvent(tick=192, channel=5, data=[29, 0])\n",
      "midi.NoteOnEvent(tick=1344, channel=5, data=[45, 100])\n",
      "midi.NoteOnEvent(tick=96, channel=5, data=[45, 0])\n",
      "midi.NoteOnEvent(tick=0, channel=5, data=[43, 100])\n",
      "midi.NoteOnEvent(tick=96, channel=5, data=[43, 0])\n",
      "midi.NoteOnEvent(tick=0, channel=5, data=[41, 100])\n",
      "midi.NoteOnEvent(tick=96, channel=5, data=[41, 0])\n",
      "midi.NoteOnEvent(tick=0, channel=5, data=[40, 100])\n",
      "midi.NoteOnEvent(tick=96, channel=5, data=[40, 0])\n",
      "midi.NoteOnEvent(tick=0, channel=5, data=[38, 100])\n",
      "midi.NoteOnEvent(tick=96, channel=5, data=[38, 0])\n",
      "midi.NoteOnEvent(tick=0, channel=5, data=[36, 100])\n",
      "midi.NoteOnEvent(tick=96, channel=5, data=[36, 0])\n",
      "midi.NoteOnEvent(tick=0, channel=5, data=[38, 100])\n",
      "midi.NoteOnEvent(tick=96, channel=5, data=[38, 0])\n",
      "midi.NoteOnEvent(tick=0, channel=5, data=[40, 100])\n",
      "midi.NoteOnEvent(tick=96, channel=5, data=[40, 0])\n",
      "midi.NoteOnEvent(tick=0, channel=5, data=[38, 100])\n",
      "midi.NoteOnEvent(tick=96, channel=5, data=[38, 0])\n",
      "midi.NoteOnEvent(tick=0, channel=5, data=[36, 100])\n",
      "midi.NoteOnEvent(tick=96, channel=5, data=[36, 0])\n",
      "midi.NoteOnEvent(tick=0, channel=5, data=[35, 100])\n",
      "midi.NoteOnEvent(tick=96, channel=5, data=[35, 0])\n",
      "midi.NoteOnEvent(tick=0, channel=5, data=[36, 100])\n",
      "midi.NoteOnEvent(tick=96, channel=5, data=[36, 0])\n",
      "midi.NoteOnEvent(tick=0, channel=5, data=[35, 100])\n",
      "midi.NoteOnEvent(tick=96, channel=5, data=[35, 0])\n",
      "midi.NoteOnEvent(tick=0, channel=5, data=[33, 100])\n",
      "midi.NoteOnEvent(tick=96, channel=5, data=[33, 0])\n",
      "midi.NoteOnEvent(tick=0, channel=5, data=[32, 100])\n",
      "midi.NoteOnEvent(tick=96, channel=5, data=[32, 0])\n",
      "midi.NoteOnEvent(tick=0, channel=5, data=[28, 100])\n",
      "midi.NoteOnEvent(tick=96, channel=5, data=[28, 0])\n",
      "midi.NoteOnEvent(tick=0, channel=5, data=[30, 100])\n",
      "midi.NoteOnEvent(tick=96, channel=5, data=[30, 0])\n",
      "midi.NoteOnEvent(tick=0, channel=5, data=[32, 100])\n",
      "midi.NoteOnEvent(tick=96, channel=5, data=[32, 0])\n",
      "midi.NoteOnEvent(tick=0, channel=5, data=[33, 100])\n",
      "midi.NoteOnEvent(tick=96, channel=5, data=[33, 0])\n",
      "midi.NoteOnEvent(tick=0, channel=5, data=[35, 100])\n",
      "midi.NoteOnEvent(tick=96, channel=5, data=[35, 0])\n",
      "midi.NoteOnEvent(tick=0, channel=5, data=[36, 100])\n",
      "midi.NoteOnEvent(tick=96, channel=5, data=[36, 0])\n",
      "midi.NoteOnEvent(tick=0, channel=5, data=[33, 100])\n",
      "midi.NoteOnEvent(tick=96, channel=5, data=[33, 0])\n",
      "midi.NoteOnEvent(tick=0, channel=5, data=[29, 100])\n",
      "midi.NoteOnEvent(tick=192, channel=5, data=[29, 0])\n",
      "midi.NoteOnEvent(tick=0, channel=5, data=[36, 100])\n",
      "midi.NoteOnEvent(tick=192, channel=5, data=[36, 0])\n",
      "midi.NoteOnEvent(tick=0, channel=5, data=[38, 100])\n",
      "midi.NoteOnEvent(tick=192, channel=5, data=[38, 0])\n",
      "midi.NoteOnEvent(tick=0, channel=5, data=[35, 100])\n",
      "midi.NoteOnEvent(tick=192, channel=5, data=[35, 0])\n",
      "midi.NoteOnEvent(tick=0, channel=5, data=[40, 100])\n",
      "midi.NoteOnEvent(tick=288, channel=5, data=[40, 0])\n",
      "midi.NoteOnEvent(tick=0, channel=5, data=[42, 100])\n",
      "midi.NoteOnEvent(tick=48, channel=5, data=[42, 0])\n",
      "midi.NoteOnEvent(tick=0, channel=5, data=[44, 100])\n",
      "midi.NoteOnEvent(tick=48, channel=5, data=[44, 0])\n",
      "midi.NoteOnEvent(tick=0, channel=5, data=[45, 100])\n",
      "midi.NoteOnEvent(tick=96, channel=5, data=[45, 0])\n",
      "midi.NoteOnEvent(tick=0, channel=5, data=[47, 100])\n",
      "midi.NoteOnEvent(tick=96, channel=5, data=[47, 0])\n",
      "midi.NoteOnEvent(tick=0, channel=5, data=[48, 100])\n",
      "midi.NoteOnEvent(tick=96, channel=5, data=[48, 0])\n",
      "midi.NoteOnEvent(tick=0, channel=5, data=[50, 100])\n",
      "midi.NoteOnEvent(tick=96, channel=5, data=[50, 0])\n",
      "midi.NoteOnEvent(tick=0, channel=5, data=[52, 100])\n",
      "midi.NoteOnEvent(tick=192, channel=5, data=[52, 0])\n",
      "midi.NoteOnEvent(tick=0, channel=5, data=[50, 100])\n",
      "midi.NoteOnEvent(tick=192, channel=5, data=[50, 0])\n",
      "midi.NoteOnEvent(tick=0, channel=5, data=[52, 100])\n",
      "midi.NoteOnEvent(tick=192, channel=5, data=[52, 0])\n",
      "midi.NoteOnEvent(tick=0, channel=5, data=[40, 100])\n",
      "midi.NoteOnEvent(tick=192, channel=5, data=[40, 0])\n",
      "midi.NoteOnEvent(tick=0, channel=5, data=[50, 100])\n",
      "midi.NoteOnEvent(tick=192, channel=5, data=[50, 0])\n",
      "midi.NoteOnEvent(tick=0, channel=5, data=[52, 100])\n",
      "midi.NoteOnEvent(tick=192, channel=5, data=[52, 0])\n",
      "midi.NoteOnEvent(tick=0, channel=5, data=[50, 100])\n",
      "midi.NoteOnEvent(tick=192, channel=5, data=[50, 0])\n",
      "midi.NoteOnEvent(tick=0, channel=5, data=[48, 100])\n",
      "midi.NoteOnEvent(tick=192, channel=5, data=[48, 0])\n",
      "midi.NoteOnEvent(tick=0, channel=5, data=[47, 100])\n",
      "midi.NoteOnEvent(tick=192, channel=5, data=[47, 0])\n",
      "midi.NoteOnEvent(tick=0, channel=5, data=[48, 100])\n",
      "midi.NoteOnEvent(tick=192, channel=5, data=[48, 0])\n",
      "midi.NoteOnEvent(tick=0, channel=5, data=[47, 100])\n",
      "midi.NoteOnEvent(tick=192, channel=5, data=[47, 0])\n",
      "midi.NoteOnEvent(tick=0, channel=5, data=[45, 100])\n",
      "midi.NoteOnEvent(tick=192, channel=5, data=[45, 0])\n",
      "midi.NoteOnEvent(tick=0, channel=5, data=[44, 100])\n",
      "midi.NoteOnEvent(tick=192, channel=5, data=[44, 0])\n",
      "midi.NoteOnEvent(tick=0, channel=5, data=[45, 100])\n",
      "midi.NoteOnEvent(tick=192, channel=5, data=[45, 0])\n",
      "midi.NoteOnEvent(tick=0, channel=5, data=[47, 100])\n",
      "midi.NoteOnEvent(tick=192, channel=5, data=[47, 0])\n",
      "midi.NoteOnEvent(tick=0, channel=5, data=[48, 100])\n",
      "midi.NoteOnEvent(tick=192, channel=5, data=[48, 0])\n",
      "midi.NoteOnEvent(tick=0, channel=5, data=[38, 100])\n",
      "midi.NoteOnEvent(tick=192, channel=5, data=[38, 0])\n",
      "midi.NoteOnEvent(tick=0, channel=5, data=[40, 100])\n",
      "midi.NoteOnEvent(tick=192, channel=5, data=[40, 0])\n",
      "midi.NoteOnEvent(tick=0, channel=5, data=[41, 100])\n",
      "midi.NoteOnEvent(tick=192, channel=5, data=[41, 0])\n",
      "midi.NoteOnEvent(tick=0, channel=5, data=[35, 100])\n",
      "midi.NoteOnEvent(tick=192, channel=5, data=[35, 0])\n",
      "midi.NoteOnEvent(tick=0, channel=5, data=[40, 100])\n",
      "midi.NoteOnEvent(tick=192, channel=5, data=[40, 0])\n",
      "midi.NoteOnEvent(tick=0, channel=5, data=[38, 100])\n",
      "midi.NoteOnEvent(tick=96, channel=5, data=[38, 0])\n",
      "midi.NoteOnEvent(tick=0, channel=5, data=[36, 100])\n",
      "midi.NoteOnEvent(tick=96, channel=5, data=[36, 0])\n",
      "midi.NoteOnEvent(tick=0, channel=5, data=[35, 100])\n",
      "midi.NoteOnEvent(tick=192, channel=5, data=[35, 0])\n",
      "midi.NoteOnEvent(tick=0, channel=5, data=[33, 100])\n",
      "midi.NoteOnEvent(tick=192, channel=5, data=[33, 0])\n",
      "midi.NoteOnEvent(tick=0, channel=5, data=[32, 100])\n",
      "midi.NoteOnEvent(tick=192, channel=5, data=[32, 0])\n",
      "midi.NoteOnEvent(tick=0, channel=5, data=[30, 100])\n",
      "midi.NoteOnEvent(tick=192, channel=5, data=[30, 0])\n",
      "midi.NoteOnEvent(tick=0, channel=5, data=[28, 100])\n",
      "midi.NoteOnEvent(tick=192, channel=5, data=[28, 0])\n",
      "midi.NoteOnEvent(tick=0, channel=5, data=[26, 100])\n",
      "midi.NoteOnEvent(tick=192, channel=5, data=[26, 0])\n",
      "midi.NoteOnEvent(tick=0, channel=5, data=[24, 100])\n",
      "midi.NoteOnEvent(tick=192, channel=5, data=[24, 0])\n",
      "midi.NoteOnEvent(tick=0, channel=5, data=[41, 100])\n",
      "midi.NoteOnEvent(tick=192, channel=5, data=[41, 0])\n",
      "midi.NoteOnEvent(tick=0, channel=5, data=[38, 100])\n",
      "midi.NoteOnEvent(tick=192, channel=5, data=[38, 0])\n",
      "midi.NoteOnEvent(tick=0, channel=5, data=[40, 100])\n",
      "midi.NoteOnEvent(tick=192, channel=5, data=[40, 0])\n",
      "midi.NoteOnEvent(tick=0, channel=5, data=[29, 100])\n",
      "midi.NoteOnEvent(tick=384, channel=5, data=[29, 0])\n",
      "midi.NoteOnEvent(tick=192, channel=5, data=[41, 100])\n",
      "midi.NoteOnEvent(tick=192, channel=5, data=[41, 0])\n",
      "midi.NoteOnEvent(tick=0, channel=5, data=[32, 100])\n",
      "midi.NoteOnEvent(tick=192, channel=5, data=[32, 0])\n",
      "midi.NoteOnEvent(tick=0, channel=5, data=[32, 100])\n",
      "midi.NoteOnEvent(tick=192, channel=5, data=[32, 0])\n",
      "midi.NoteOnEvent(tick=0, channel=5, data=[32, 100])\n",
      "midi.NoteOnEvent(tick=192, channel=5, data=[32, 0])\n",
      "midi.NoteOnEvent(tick=0, channel=5, data=[47, 100])\n",
      "midi.NoteOnEvent(tick=192, channel=5, data=[47, 0])\n",
      "midi.NoteOnEvent(tick=0, channel=5, data=[38, 100])\n",
      "midi.NoteOnEvent(tick=192, channel=5, data=[38, 0])\n",
      "midi.NoteOnEvent(tick=0, channel=5, data=[38, 100])\n",
      "midi.NoteOnEvent(tick=192, channel=5, data=[38, 0])\n",
      "midi.NoteOnEvent(tick=0, channel=5, data=[38, 100])\n",
      "midi.NoteOnEvent(tick=192, channel=5, data=[38, 0])\n",
      "midi.NoteOnEvent(tick=0, channel=5, data=[41, 100])\n",
      "midi.NoteOnEvent(tick=192, channel=5, data=[41, 0])\n",
      "midi.NoteOnEvent(tick=0, channel=5, data=[35, 100])\n",
      "midi.NoteOnEvent(tick=192, channel=5, data=[35, 0])\n",
      "midi.NoteOnEvent(tick=0, channel=5, data=[36, 100])\n",
      "midi.NoteOnEvent(tick=96, channel=5, data=[36, 0])\n",
      "midi.NoteOnEvent(tick=0, channel=5, data=[38, 100])\n",
      "midi.NoteOnEvent(tick=96, channel=5, data=[38, 0])\n",
      "midi.NoteOnEvent(tick=0, channel=5, data=[40, 100])\n",
      "midi.NoteOnEvent(tick=192, channel=5, data=[40, 0])\n",
      "midi.NoteOnEvent(tick=0, channel=5, data=[28, 100])\n",
      "midi.NoteOnEvent(tick=192, channel=5, data=[28, 0])\n",
      "midi.NoteOnEvent(tick=0, channel=5, data=[33, 100])\n",
      "midi.NoteOnEvent(tick=576, channel=5, data=[33, 0])\n",
      "midi.EndOfTrackEvent(tick=0, data=[])\n",
      "midi.PortEvent(tick=0, data=[0])\n",
      "midi.TrackNameEvent(tick=0, text='Harpsichord', data=[72, 97, 114, 112, 115, 105, 99, 104, 111, 114, 100])\n",
      "midi.ProgramChangeEvent(tick=0, channel=6, data=[6])\n",
      "midi.ControlChangeEvent(tick=0, channel=6, data=[7, 90])\n",
      "midi.ControlChangeEvent(tick=0, channel=6, data=[10, 64])\n",
      "midi.NoteOnEvent(tick=960, channel=6, data=[45, 100])\n",
      "midi.NoteOnEvent(tick=192, channel=6, data=[45, 0])\n",
      "midi.NoteOnEvent(tick=0, channel=6, data=[57, 100])\n",
      "midi.NoteOnEvent(tick=384, channel=6, data=[57, 0])\n",
      "midi.NoteOnEvent(tick=192, channel=6, data=[45, 100])\n",
      "midi.NoteOnEvent(tick=192, channel=6, data=[45, 0])\n",
      "midi.NoteOnEvent(tick=0, channel=6, data=[57, 100])\n",
      "midi.NoteOnEvent(tick=384, channel=6, data=[57, 0])\n",
      "midi.NoteOnEvent(tick=192, channel=6, data=[45, 100])\n",
      "midi.NoteOnEvent(tick=192, channel=6, data=[45, 0])\n",
      "midi.NoteOnEvent(tick=0, channel=6, data=[52, 100])\n",
      "midi.NoteOnEvent(tick=192, channel=6, data=[52, 0])\n",
      "midi.NoteOnEvent(tick=0, channel=6, data=[40, 100])\n",
      "midi.NoteOnEvent(tick=192, channel=6, data=[40, 0])\n",
      "midi.NoteOnEvent(tick=0, channel=6, data=[45, 100])\n",
      "midi.NoteOnEvent(tick=192, channel=6, data=[45, 0])\n",
      "midi.NoteOnEvent(tick=0, channel=6, data=[57, 100])\n",
      "midi.NoteOnEvent(tick=96, channel=6, data=[57, 0])\n",
      "midi.NoteOnEvent(tick=0, channel=6, data=[59, 100])\n",
      "midi.NoteOnEvent(tick=96, channel=6, data=[59, 0])\n",
      "midi.NoteOnEvent(tick=0, channel=6, data=[60, 100])\n",
      "midi.NoteOnEvent(tick=192, channel=6, data=[60, 0])\n",
      "midi.NoteOnEvent(tick=0, channel=6, data=[57, 100])\n",
      "midi.NoteOnEvent(tick=192, channel=6, data=[57, 0])\n",
      "midi.NoteOnEvent(tick=0, channel=6, data=[56, 100])\n",
      "midi.NoteOnEvent(tick=192, channel=6, data=[56, 0])\n",
      "midi.NoteOnEvent(tick=0, channel=6, data=[52, 100])\n",
      "midi.NoteOnEvent(tick=192, channel=6, data=[52, 0])\n",
      "midi.NoteOnEvent(tick=0, channel=6, data=[57, 100])\n",
      "midi.NoteOnEvent(tick=192, channel=6, data=[57, 0])\n",
      "midi.NoteOnEvent(tick=0, channel=6, data=[52, 100])\n",
      "midi.NoteOnEvent(tick=192, channel=6, data=[52, 0])\n",
      "midi.NoteOnEvent(tick=0, channel=6, data=[59, 100])\n",
      "midi.NoteOnEvent(tick=192, channel=6, data=[59, 0])\n",
      "midi.NoteOnEvent(tick=0, channel=6, data=[52, 100])\n",
      "midi.NoteOnEvent(tick=192, channel=6, data=[52, 0])\n",
      "midi.NoteOnEvent(tick=0, channel=6, data=[60, 100])\n",
      "midi.NoteOnEvent(tick=192, channel=6, data=[60, 0])\n",
      "midi.NoteOnEvent(tick=0, channel=6, data=[52, 100])\n",
      "midi.NoteOnEvent(tick=192, channel=6, data=[52, 0])\n",
      "midi.NoteOnEvent(tick=0, channel=6, data=[62, 100])\n",
      "midi.NoteOnEvent(tick=192, channel=6, data=[62, 0])\n",
      "midi.NoteOnEvent(tick=0, channel=6, data=[50, 100])\n",
      "midi.NoteOnEvent(tick=192, channel=6, data=[50, 0])\n",
      "midi.NoteOnEvent(tick=0, channel=6, data=[52, 100])\n",
      "midi.NoteOnEvent(tick=192, channel=6, data=[52, 0])\n",
      "midi.NoteOnEvent(tick=0, channel=6, data=[53, 100])\n",
      "midi.NoteOnEvent(tick=192, channel=6, data=[53, 0])\n",
      "midi.NoteOnEvent(tick=0, channel=6, data=[52, 100])\n",
      "midi.NoteOnEvent(tick=192, channel=6, data=[52, 0])\n",
      "midi.NoteOnEvent(tick=0, channel=6, data=[40, 100])\n",
      "midi.NoteOnEvent(tick=192, channel=6, data=[40, 0])\n",
      "midi.NoteOnEvent(tick=192, channel=6, data=[64, 100])\n",
      "midi.NoteOnEvent(tick=96, channel=6, data=[64, 0])\n",
      "midi.NoteOnEvent(tick=0, channel=6, data=[62, 100])\n",
      "midi.NoteOnEvent(tick=96, channel=6, data=[62, 0])\n",
      "midi.NoteOnEvent(tick=0, channel=6, data=[60, 100])\n",
      "midi.NoteOnEvent(tick=192, channel=6, data=[60, 0])\n",
      "midi.NoteOnEvent(tick=0, channel=6, data=[64, 100])\n",
      "midi.NoteOnEvent(tick=192, channel=6, data=[64, 0])\n",
      "midi.NoteOnEvent(tick=0, channel=6, data=[60, 100])\n",
      "midi.NoteOnEvent(tick=192, channel=6, data=[60, 0])\n",
      "midi.NoteOnEvent(tick=0, channel=6, data=[57, 100])\n",
      "midi.NoteOnEvent(tick=192, channel=6, data=[57, 0])\n",
      "midi.NoteOnEvent(tick=0, channel=6, data=[62, 100])\n",
      "midi.NoteOnEvent(tick=192, channel=6, data=[62, 0])\n",
      "midi.NoteOnEvent(tick=0, channel=6, data=[50, 100])\n",
      "midi.NoteOnEvent(tick=192, channel=6, data=[50, 0])\n",
      "midi.NoteOnEvent(tick=192, channel=6, data=[62, 100])\n",
      "midi.NoteOnEvent(tick=96, channel=6, data=[62, 0])\n",
      "midi.NoteOnEvent(tick=0, channel=6, data=[60, 100])\n",
      "midi.NoteOnEvent(tick=96, channel=6, data=[60, 0])\n",
      "midi.NoteOnEvent(tick=0, channel=6, data=[59, 100])\n",
      "midi.NoteOnEvent(tick=192, channel=6, data=[59, 0])\n",
      "midi.NoteOnEvent(tick=0, channel=6, data=[62, 100])\n",
      "midi.NoteOnEvent(tick=192, channel=6, data=[62, 0])\n",
      "midi.NoteOnEvent(tick=0, channel=6, data=[59, 100])\n",
      "midi.NoteOnEvent(tick=192, channel=6, data=[59, 0])\n",
      "midi.NoteOnEvent(tick=0, channel=6, data=[55, 100])\n",
      "midi.NoteOnEvent(tick=192, channel=6, data=[55, 0])\n",
      "midi.NoteOnEvent(tick=0, channel=6, data=[60, 100])\n",
      "midi.NoteOnEvent(tick=192, channel=6, data=[60, 0])\n",
      "midi.NoteOnEvent(tick=0, channel=6, data=[48, 100])\n",
      "midi.NoteOnEvent(tick=192, channel=6, data=[48, 0])\n",
      "midi.NoteOnEvent(tick=192, channel=6, data=[60, 100])\n",
      "midi.NoteOnEvent(tick=96, channel=6, data=[60, 0])\n",
      "midi.NoteOnEvent(tick=0, channel=6, data=[59, 100])\n",
      "midi.NoteOnEvent(tick=96, channel=6, data=[59, 0])\n",
      "midi.NoteOnEvent(tick=0, channel=6, data=[57, 100])\n",
      "midi.NoteOnEvent(tick=96, channel=6, data=[57, 0])\n",
      "midi.NoteOnEvent(tick=0, channel=6, data=[59, 100])\n",
      "midi.NoteOnEvent(tick=96, channel=6, data=[59, 0])\n",
      "midi.NoteOnEvent(tick=0, channel=6, data=[57, 100])\n",
      "midi.NoteOnEvent(tick=96, channel=6, data=[57, 0])\n",
      "midi.NoteOnEvent(tick=0, channel=6, data=[55, 100])\n",
      "midi.NoteOnEvent(tick=96, channel=6, data=[55, 0])\n",
      "midi.NoteOnEvent(tick=0, channel=6, data=[54, 100])\n",
      "midi.NoteOnEvent(tick=96, channel=6, data=[54, 0])\n",
      "midi.NoteOnEvent(tick=0, channel=6, data=[55, 100])\n",
      "midi.NoteOnEvent(tick=96, channel=6, data=[55, 0])\n",
      "midi.NoteOnEvent(tick=0, channel=6, data=[54, 100])\n",
      "midi.NoteOnEvent(tick=96, channel=6, data=[54, 0])\n",
      "midi.NoteOnEvent(tick=0, channel=6, data=[52, 100])\n",
      "midi.NoteOnEvent(tick=96, channel=6, data=[52, 0])\n",
      "midi.NoteOnEvent(tick=0, channel=6, data=[51, 100])\n",
      "midi.NoteOnEvent(tick=96, channel=6, data=[51, 0])\n",
      "midi.NoteOnEvent(tick=0, channel=6, data=[47, 100])\n",
      "midi.NoteOnEvent(tick=96, channel=6, data=[47, 0])\n",
      "midi.NoteOnEvent(tick=0, channel=6, data=[49, 100])\n",
      "midi.NoteOnEvent(tick=96, channel=6, data=[49, 0])\n",
      "midi.NoteOnEvent(tick=0, channel=6, data=[51, 100])\n",
      "midi.NoteOnEvent(tick=96, channel=6, data=[51, 0])\n",
      "midi.NoteOnEvent(tick=0, channel=6, data=[52, 100])\n",
      "midi.NoteOnEvent(tick=96, channel=6, data=[52, 0])\n",
      "midi.NoteOnEvent(tick=0, channel=6, data=[54, 100])\n",
      "midi.NoteOnEvent(tick=96, channel=6, data=[54, 0])\n",
      "midi.NoteOnEvent(tick=0, channel=6, data=[55, 100])\n",
      "midi.NoteOnEvent(tick=96, channel=6, data=[55, 0])\n",
      "midi.NoteOnEvent(tick=0, channel=6, data=[52, 100])\n",
      "midi.NoteOnEvent(tick=96, channel=6, data=[52, 0])\n",
      "midi.NoteOnEvent(tick=0, channel=6, data=[48, 100])\n",
      "midi.NoteOnEvent(tick=192, channel=6, data=[48, 0])\n",
      "midi.NoteOnEvent(tick=0, channel=6, data=[47, 100])\n",
      "midi.NoteOnEvent(tick=192, channel=6, data=[47, 0])\n",
      "midi.NoteOnEvent(tick=0, channel=6, data=[48, 100])\n",
      "midi.NoteOnEvent(tick=192, channel=6, data=[48, 0])\n",
      "midi.NoteOnEvent(tick=0, channel=6, data=[45, 100])\n",
      "midi.NoteOnEvent(tick=192, channel=6, data=[45, 0])\n",
      "midi.NoteOnEvent(tick=0, channel=6, data=[47, 100])\n",
      "midi.NoteOnEvent(tick=288, channel=6, data=[47, 0])\n",
      "midi.NoteOnEvent(tick=0, channel=6, data=[49, 100])\n",
      "midi.NoteOnEvent(tick=48, channel=6, data=[49, 0])\n",
      "midi.NoteOnEvent(tick=0, channel=6, data=[51, 100])\n",
      "midi.NoteOnEvent(tick=48, channel=6, data=[51, 0])\n",
      "midi.NoteOnEvent(tick=0, channel=6, data=[52, 100])\n",
      "midi.NoteOnEvent(tick=96, channel=6, data=[52, 0])\n",
      "midi.NoteOnEvent(tick=0, channel=6, data=[54, 100])\n",
      "midi.NoteOnEvent(tick=96, channel=6, data=[54, 0])\n",
      "midi.NoteOnEvent(tick=0, channel=6, data=[55, 100])\n",
      "midi.NoteOnEvent(tick=96, channel=6, data=[55, 0])\n",
      "midi.NoteOnEvent(tick=0, channel=6, data=[57, 100])\n",
      "midi.NoteOnEvent(tick=96, channel=6, data=[57, 0])\n",
      "midi.NoteOnEvent(tick=0, channel=6, data=[59, 100])\n",
      "midi.NoteOnEvent(tick=192, channel=6, data=[59, 0])\n",
      "midi.NoteOnEvent(tick=0, channel=6, data=[57, 100])\n",
      "midi.NoteOnEvent(tick=192, channel=6, data=[57, 0])\n",
      "midi.NoteOnEvent(tick=0, channel=6, data=[59, 100])\n",
      "midi.NoteOnEvent(tick=192, channel=6, data=[59, 0])\n",
      "midi.NoteOnEvent(tick=0, channel=6, data=[47, 100])\n",
      "midi.NoteOnEvent(tick=192, channel=6, data=[47, 0])\n",
      "midi.NoteOnEvent(tick=0, channel=6, data=[57, 100])\n",
      "midi.NoteOnEvent(tick=192, channel=6, data=[57, 0])\n",
      "midi.NoteOnEvent(tick=0, channel=6, data=[55, 100])\n",
      "midi.NoteOnEvent(tick=192, channel=6, data=[55, 0])\n",
      "midi.NoteOnEvent(tick=0, channel=6, data=[57, 100])\n",
      "midi.NoteOnEvent(tick=192, channel=6, data=[57, 0])\n",
      "midi.NoteOnEvent(tick=0, channel=6, data=[45, 100])\n",
      "midi.NoteOnEvent(tick=192, channel=6, data=[45, 0])\n",
      "midi.NoteOnEvent(tick=0, channel=6, data=[43, 100])\n",
      "midi.NoteOnEvent(tick=192, channel=6, data=[43, 0])\n",
      "midi.NoteOnEvent(tick=0, channel=6, data=[48, 100])\n",
      "midi.NoteOnEvent(tick=192, channel=6, data=[48, 0])\n",
      "midi.NoteOnEvent(tick=0, channel=6, data=[45, 100])\n",
      "midi.NoteOnEvent(tick=192, channel=6, data=[45, 0])\n",
      "midi.NoteOnEvent(tick=0, channel=6, data=[47, 100])\n",
      "midi.NoteOnEvent(tick=192, channel=6, data=[47, 0])\n",
      "midi.NoteOnEvent(tick=0, channel=6, data=[40, 100])\n",
      "midi.NoteOnEvent(tick=384, channel=6, data=[40, 0])\n",
      "midi.NoteOnEvent(tick=192, channel=6, data=[60, 100])\n",
      "midi.NoteOnEvent(tick=192, channel=6, data=[60, 0])\n",
      "midi.NoteOnEvent(tick=0, channel=6, data=[51, 100])\n",
      "midi.NoteOnEvent(tick=192, channel=6, data=[51, 0])\n",
      "midi.NoteOnEvent(tick=0, channel=6, data=[51, 100])\n",
      "midi.NoteOnEvent(tick=192, channel=6, data=[51, 0])\n",
      "midi.NoteOnEvent(tick=0, channel=6, data=[51, 100])\n",
      "midi.NoteOnEvent(tick=192, channel=6, data=[51, 0])\n",
      "midi.NoteOnEvent(tick=0, channel=6, data=[54, 100])\n",
      "midi.NoteOnEvent(tick=192, channel=6, data=[54, 0])\n",
      "midi.NoteOnEvent(tick=0, channel=6, data=[45, 100])\n",
      "midi.NoteOnEvent(tick=192, channel=6, data=[45, 0])\n",
      "midi.NoteOnEvent(tick=0, channel=6, data=[45, 100])\n",
      "midi.NoteOnEvent(tick=192, channel=6, data=[45, 0])\n",
      "midi.NoteOnEvent(tick=0, channel=6, data=[45, 100])\n",
      "midi.NoteOnEvent(tick=192, channel=6, data=[45, 0])\n",
      "midi.NoteOnEvent(tick=0, channel=6, data=[48, 100])\n",
      "midi.NoteOnEvent(tick=192, channel=6, data=[48, 0])\n",
      "midi.NoteOnEvent(tick=0, channel=6, data=[42, 100])\n",
      "midi.NoteOnEvent(tick=192, channel=6, data=[42, 0])\n",
      "midi.NoteOnEvent(tick=0, channel=6, data=[40, 100])\n",
      "midi.NoteOnEvent(tick=192, channel=6, data=[40, 0])\n",
      "midi.NoteOnEvent(tick=0, channel=6, data=[47, 100])\n",
      "midi.NoteOnEvent(tick=192, channel=6, data=[47, 0])\n",
      "midi.NoteOnEvent(tick=0, channel=6, data=[47, 100])\n",
      "midi.NoteOnEvent(tick=192, channel=6, data=[47, 0])\n",
      "midi.NoteOnEvent(tick=0, channel=6, data=[40, 100])\n",
      "midi.NoteOnEvent(tick=192, channel=6, data=[40, 0])\n",
      "midi.NoteOnEvent(tick=0, channel=6, data=[52, 100])\n",
      "midi.NoteOnEvent(tick=96, channel=6, data=[52, 0])\n",
      "midi.NoteOnEvent(tick=0, channel=6, data=[50, 100])\n",
      "midi.NoteOnEvent(tick=96, channel=6, data=[50, 0])\n",
      "midi.NoteOnEvent(tick=0, channel=6, data=[48, 100])\n",
      "midi.NoteOnEvent(tick=192, channel=6, data=[48, 0])\n",
      "midi.NoteOnEvent(tick=0, channel=6, data=[47, 100])\n",
      "midi.NoteOnEvent(tick=192, channel=6, data=[47, 0])\n",
      "midi.NoteOnEvent(tick=0, channel=6, data=[45, 100])\n",
      "midi.NoteOnEvent(tick=384, channel=6, data=[45, 0])\n",
      "midi.NoteOnEvent(tick=192, channel=6, data=[57, 100])\n",
      "midi.NoteOnEvent(tick=192, channel=6, data=[57, 0])\n",
      "midi.NoteOnEvent(tick=0, channel=6, data=[64, 100])\n",
      "midi.NoteOnEvent(tick=384, channel=6, data=[64, 0])\n",
      "midi.NoteOnEvent(tick=192, channel=6, data=[52, 100])\n",
      "midi.NoteOnEvent(tick=192, channel=6, data=[52, 0])\n",
      "midi.NoteOnEvent(tick=0, channel=6, data=[44, 100])\n",
      "midi.NoteOnEvent(tick=384, channel=6, data=[44, 0])\n",
      "midi.NoteOnEvent(tick=192, channel=6, data=[52, 100])\n",
      "midi.NoteOnEvent(tick=192, channel=6, data=[52, 0])\n",
      "midi.NoteOnEvent(tick=0, channel=6, data=[57, 100])\n",
      "midi.NoteOnEvent(tick=384, channel=6, data=[57, 0])\n",
      "midi.NoteOnEvent(tick=192, channel=6, data=[57, 100])\n",
      "midi.NoteOnEvent(tick=192, channel=6, data=[57, 0])\n",
      "midi.NoteOnEvent(tick=0, channel=6, data=[45, 100])\n",
      "midi.NoteOnEvent(tick=192, channel=6, data=[45, 0])\n",
      "midi.NoteOnEvent(tick=0, channel=6, data=[48, 100])\n",
      "midi.NoteOnEvent(tick=192, channel=6, data=[48, 0])\n",
      "midi.NoteOnEvent(tick=0, channel=6, data=[50, 100])\n",
      "midi.NoteOnEvent(tick=192, channel=6, data=[50, 0])\n",
      "midi.NoteOnEvent(tick=0, channel=6, data=[53, 100])\n",
      "midi.NoteOnEvent(tick=192, channel=6, data=[53, 0])\n",
      "midi.NoteOnEvent(tick=0, channel=6, data=[43, 100])\n",
      "midi.NoteOnEvent(tick=192, channel=6, data=[43, 0])\n",
      "midi.NoteOnEvent(tick=0, channel=6, data=[47, 100])\n",
      "midi.NoteOnEvent(tick=192, channel=6, data=[47, 0])\n",
      "midi.NoteOnEvent(tick=0, channel=6, data=[48, 100])\n",
      "midi.NoteOnEvent(tick=192, channel=6, data=[48, 0])\n",
      "midi.NoteOnEvent(tick=0, channel=6, data=[52, 100])\n",
      "midi.NoteOnEvent(tick=192, channel=6, data=[52, 0])\n",
      "midi.NoteOnEvent(tick=0, channel=6, data=[53, 100])\n",
      "midi.NoteOnEvent(tick=192, channel=6, data=[53, 0])\n",
      "midi.NoteOnEvent(tick=0, channel=6, data=[57, 100])\n",
      "midi.NoteOnEvent(tick=192, channel=6, data=[57, 0])\n",
      "midi.NoteOnEvent(tick=0, channel=6, data=[47, 100])\n",
      "midi.NoteOnEvent(tick=192, channel=6, data=[47, 0])\n",
      "midi.NoteOnEvent(tick=0, channel=6, data=[50, 100])\n",
      "midi.NoteOnEvent(tick=192, channel=6, data=[50, 0])\n",
      "midi.NoteOnEvent(tick=0, channel=6, data=[40, 100])\n",
      "midi.NoteOnEvent(tick=192, channel=6, data=[40, 0])\n",
      "midi.NoteOnEvent(tick=0, channel=6, data=[52, 100])\n",
      "midi.NoteOnEvent(tick=192, channel=6, data=[52, 0])\n",
      "midi.NoteOnEvent(tick=0, channel=6, data=[56, 100])\n",
      "midi.NoteOnEvent(tick=192, channel=6, data=[56, 0])\n",
      "midi.NoteOnEvent(tick=0, channel=6, data=[52, 100])\n",
      "midi.NoteOnEvent(tick=192, channel=6, data=[52, 0])\n",
      "midi.NoteOnEvent(tick=192, channel=6, data=[57, 100])\n",
      "midi.NoteOnEvent(tick=192, channel=6, data=[57, 0])\n",
      "midi.NoteOnEvent(tick=0, channel=6, data=[60, 100])\n",
      "midi.NoteOnEvent(tick=192, channel=6, data=[60, 0])\n",
      "midi.NoteOnEvent(tick=0, channel=6, data=[57, 100])\n",
      "midi.NoteOnEvent(tick=192, channel=6, data=[57, 0])\n",
      "midi.NoteOnEvent(tick=192, channel=6, data=[57, 100])\n",
      "midi.NoteOnEvent(tick=192, channel=6, data=[57, 0])\n",
      "midi.NoteOnEvent(tick=0, channel=6, data=[53, 100])\n",
      "midi.NoteOnEvent(tick=192, channel=6, data=[53, 0])\n",
      "midi.NoteOnEvent(tick=0, channel=6, data=[50, 100])\n",
      "midi.NoteOnEvent(tick=192, channel=6, data=[50, 0])\n",
      "midi.NoteOnEvent(tick=192, channel=6, data=[55, 100])\n",
      "midi.NoteOnEvent(tick=192, channel=6, data=[55, 0])\n",
      "midi.NoteOnEvent(tick=0, channel=6, data=[59, 100])\n",
      "midi.NoteOnEvent(tick=192, channel=6, data=[59, 0])\n",
      "midi.NoteOnEvent(tick=0, channel=6, data=[55, 100])\n",
      "midi.NoteOnEvent(tick=192, channel=6, data=[55, 0])\n",
      "midi.NoteOnEvent(tick=192, channel=6, data=[55, 100])\n",
      "midi.NoteOnEvent(tick=192, channel=6, data=[55, 0])\n",
      "midi.NoteOnEvent(tick=0, channel=6, data=[52, 100])\n",
      "midi.NoteOnEvent(tick=192, channel=6, data=[52, 0])\n",
      "midi.NoteOnEvent(tick=0, channel=6, data=[48, 100])\n",
      "midi.NoteOnEvent(tick=192, channel=6, data=[48, 0])\n",
      "midi.NoteOnEvent(tick=192, channel=6, data=[53, 100])\n",
      "midi.NoteOnEvent(tick=192, channel=6, data=[53, 0])\n",
      "midi.NoteOnEvent(tick=0, channel=6, data=[57, 100])\n",
      "midi.NoteOnEvent(tick=192, channel=6, data=[57, 0])\n",
      "midi.NoteOnEvent(tick=0, channel=6, data=[53, 100])\n",
      "midi.NoteOnEvent(tick=192, channel=6, data=[53, 0])\n",
      "midi.NoteOnEvent(tick=192, channel=6, data=[53, 100])\n",
      "midi.NoteOnEvent(tick=192, channel=6, data=[53, 0])\n",
      "midi.NoteOnEvent(tick=0, channel=6, data=[50, 100])\n",
      "midi.NoteOnEvent(tick=192, channel=6, data=[50, 0])\n",
      "midi.NoteOnEvent(tick=0, channel=6, data=[47, 100])\n",
      "midi.NoteOnEvent(tick=192, channel=6, data=[47, 0])\n",
      "midi.NoteOnEvent(tick=192, channel=6, data=[52, 100])\n",
      "midi.NoteOnEvent(tick=192, channel=6, data=[52, 0])\n",
      "midi.NoteOnEvent(tick=0, channel=6, data=[56, 100])\n",
      "midi.NoteOnEvent(tick=192, channel=6, data=[56, 0])\n",
      "midi.NoteOnEvent(tick=0, channel=6, data=[52, 100])\n",
      "midi.NoteOnEvent(tick=192, channel=6, data=[52, 0])\n",
      "midi.NoteOnEvent(tick=192, channel=6, data=[52, 100])\n",
      "midi.NoteOnEvent(tick=192, channel=6, data=[52, 0])\n",
      "midi.NoteOnEvent(tick=0, channel=6, data=[48, 100])\n",
      "midi.NoteOnEvent(tick=192, channel=6, data=[48, 0])\n",
      "midi.NoteOnEvent(tick=0, channel=6, data=[45, 100])\n",
      "midi.NoteOnEvent(tick=192, channel=6, data=[45, 0])\n",
      "midi.NoteOnEvent(tick=0, channel=6, data=[57, 100])\n",
      "midi.NoteOnEvent(tick=384, channel=6, data=[57, 0])\n",
      "midi.NoteOnEvent(tick=192, channel=6, data=[45, 100])\n",
      "midi.NoteOnEvent(tick=192, channel=6, data=[45, 0])\n",
      "midi.NoteOnEvent(tick=0, channel=6, data=[57, 100])\n",
      "midi.NoteOnEvent(tick=192, channel=6, data=[57, 0])\n",
      "midi.NoteOnEvent(tick=0, channel=6, data=[45, 100])\n",
      "midi.NoteOnEvent(tick=192, channel=6, data=[45, 0])\n",
      "midi.NoteOnEvent(tick=0, channel=6, data=[52, 100])\n",
      "midi.NoteOnEvent(tick=192, channel=6, data=[52, 0])\n",
      "midi.NoteOnEvent(tick=0, channel=6, data=[40, 100])\n",
      "midi.NoteOnEvent(tick=192, channel=6, data=[40, 0])\n",
      "midi.NoteOnEvent(tick=0, channel=6, data=[45, 100])\n",
      "midi.NoteOnEvent(tick=192, channel=6, data=[45, 0])\n",
      "midi.NoteOnEvent(tick=0, channel=6, data=[57, 100])\n",
      "midi.NoteOnEvent(tick=96, channel=6, data=[57, 0])\n",
      "midi.NoteOnEvent(tick=0, channel=6, data=[59, 100])\n",
      "midi.NoteOnEvent(tick=96, channel=6, data=[59, 0])\n",
      "midi.NoteOnEvent(tick=0, channel=6, data=[60, 100])\n",
      "midi.NoteOnEvent(tick=192, channel=6, data=[60, 0])\n",
      "midi.NoteOnEvent(tick=0, channel=6, data=[57, 100])\n",
      "midi.NoteOnEvent(tick=192, channel=6, data=[57, 0])\n",
      "midi.NoteOnEvent(tick=0, channel=6, data=[45, 100])\n",
      "midi.NoteOnEvent(tick=192, channel=6, data=[45, 0])\n",
      "midi.NoteOnEvent(tick=768, channel=6, data=[55, 100])\n",
      "midi.NoteOnEvent(tick=96, channel=6, data=[55, 0])\n",
      "midi.NoteOnEvent(tick=0, channel=6, data=[57, 100])\n",
      "midi.NoteOnEvent(tick=96, channel=6, data=[57, 0])\n",
      "midi.NoteOnEvent(tick=0, channel=6, data=[59, 100])\n",
      "midi.NoteOnEvent(tick=192, channel=6, data=[59, 0])\n",
      "midi.NoteOnEvent(tick=0, channel=6, data=[55, 100])\n",
      "midi.NoteOnEvent(tick=192, channel=6, data=[55, 0])\n",
      "midi.NoteOnEvent(tick=0, channel=6, data=[43, 100])\n",
      "midi.NoteOnEvent(tick=192, channel=6, data=[43, 0])\n",
      "midi.NoteOnEvent(tick=768, channel=6, data=[53, 100])\n",
      "midi.NoteOnEvent(tick=96, channel=6, data=[53, 0])\n",
      "midi.NoteOnEvent(tick=0, channel=6, data=[55, 100])\n",
      "midi.NoteOnEvent(tick=96, channel=6, data=[55, 0])\n",
      "midi.NoteOnEvent(tick=0, channel=6, data=[57, 100])\n",
      "midi.NoteOnEvent(tick=192, channel=6, data=[57, 0])\n",
      "midi.NoteOnEvent(tick=0, channel=6, data=[53, 100])\n",
      "midi.NoteOnEvent(tick=192, channel=6, data=[53, 0])\n",
      "midi.NoteOnEvent(tick=0, channel=6, data=[41, 100])\n",
      "midi.NoteOnEvent(tick=192, channel=6, data=[41, 0])\n",
      "midi.NoteOnEvent(tick=768, channel=6, data=[53, 100])\n",
      "midi.NoteOnEvent(tick=192, channel=6, data=[53, 0])\n",
      "midi.NoteOnEvent(tick=0, channel=6, data=[52, 100])\n",
      "midi.NoteOnEvent(tick=192, channel=6, data=[52, 0])\n",
      "midi.NoteOnEvent(tick=0, channel=6, data=[50, 100])\n",
      "midi.NoteOnEvent(tick=192, channel=6, data=[50, 0])\n",
      "midi.NoteOnEvent(tick=0, channel=6, data=[48, 100])\n",
      "midi.NoteOnEvent(tick=192, channel=6, data=[48, 0])\n",
      "midi.NoteOnEvent(tick=0, channel=6, data=[60, 100])\n",
      "midi.NoteOnEvent(tick=192, channel=6, data=[60, 0])\n",
      "midi.NoteOnEvent(tick=0, channel=6, data=[59, 100])\n",
      "midi.NoteOnEvent(tick=192, channel=6, data=[59, 0])\n",
      "midi.NoteOnEvent(tick=0, channel=6, data=[57, 100])\n",
      "midi.NoteOnEvent(tick=192, channel=6, data=[57, 0])\n",
      "midi.NoteOnEvent(tick=0, channel=6, data=[55, 100])\n",
      "midi.NoteOnEvent(tick=192, channel=6, data=[55, 0])\n",
      "midi.NoteOnEvent(tick=0, channel=6, data=[57, 100])\n",
      "midi.NoteOnEvent(tick=192, channel=6, data=[57, 0])\n",
      "midi.NoteOnEvent(tick=0, channel=6, data=[55, 100])\n",
      "midi.NoteOnEvent(tick=192, channel=6, data=[55, 0])\n",
      "midi.NoteOnEvent(tick=0, channel=6, data=[53, 100])\n",
      "midi.NoteOnEvent(tick=192, channel=6, data=[53, 0])\n",
      "midi.NoteOnEvent(tick=0, channel=6, data=[52, 100])\n",
      "midi.NoteOnEvent(tick=192, channel=6, data=[52, 0])\n",
      "midi.NoteOnEvent(tick=0, channel=6, data=[55, 100])\n",
      "midi.NoteOnEvent(tick=192, channel=6, data=[55, 0])\n",
      "midi.NoteOnEvent(tick=0, channel=6, data=[52, 100])\n",
      "midi.NoteOnEvent(tick=192, channel=6, data=[52, 0])\n",
      "midi.NoteOnEvent(tick=0, channel=6, data=[48, 100])\n",
      "midi.NoteOnEvent(tick=192, channel=6, data=[48, 0])\n",
      "midi.NoteOnEvent(tick=0, channel=6, data=[53, 100])\n",
      "midi.NoteOnEvent(tick=192, channel=6, data=[53, 0])\n",
      "midi.NoteOnEvent(tick=0, channel=6, data=[57, 100])\n",
      "midi.NoteOnEvent(tick=192, channel=6, data=[57, 0])\n",
      "midi.NoteOnEvent(tick=0, channel=6, data=[53, 100])\n",
      "midi.NoteOnEvent(tick=192, channel=6, data=[53, 0])\n",
      "midi.NoteOnEvent(tick=0, channel=6, data=[50, 100])\n",
      "midi.NoteOnEvent(tick=192, channel=6, data=[50, 0])\n",
      "midi.NoteOnEvent(tick=0, channel=6, data=[52, 100])\n",
      "midi.NoteOnEvent(tick=192, channel=6, data=[52, 0])\n",
      "midi.NoteOnEvent(tick=0, channel=6, data=[48, 100])\n",
      "midi.NoteOnEvent(tick=192, channel=6, data=[48, 0])\n",
      "midi.NoteOnEvent(tick=0, channel=6, data=[55, 100])\n",
      "midi.NoteOnEvent(tick=192, channel=6, data=[55, 0])\n",
      "midi.NoteOnEvent(tick=0, channel=6, data=[43, 100])\n",
      "midi.NoteOnEvent(tick=192, channel=6, data=[43, 0])\n",
      "midi.NoteOnEvent(tick=0, channel=6, data=[36, 100])\n",
      "midi.NoteOnEvent(tick=192, channel=6, data=[36, 0])\n",
      "midi.NoteOnEvent(tick=0, channel=6, data=[48, 100])\n",
      "midi.NoteOnEvent(tick=96, channel=6, data=[48, 0])\n",
      "midi.NoteOnEvent(tick=0, channel=6, data=[50, 100])\n",
      "midi.NoteOnEvent(tick=96, channel=6, data=[50, 0])\n",
      "midi.NoteOnEvent(tick=0, channel=6, data=[52, 100])\n",
      "midi.NoteOnEvent(tick=192, channel=6, data=[52, 0])\n",
      "midi.NoteOnEvent(tick=0, channel=6, data=[48, 100])\n",
      "midi.NoteOnEvent(tick=192, channel=6, data=[48, 0])\n",
      "midi.NoteOnEvent(tick=0, channel=6, data=[47, 100])\n",
      "midi.NoteOnEvent(tick=192, channel=6, data=[47, 0])\n",
      "midi.NoteOnEvent(tick=0, channel=6, data=[55, 100])\n",
      "midi.NoteOnEvent(tick=192, channel=6, data=[55, 0])\n",
      "midi.NoteOnEvent(tick=0, channel=6, data=[48, 100])\n",
      "midi.NoteOnEvent(tick=192, channel=6, data=[48, 0])\n",
      "midi.NoteOnEvent(tick=0, channel=6, data=[55, 100])\n",
      "midi.NoteOnEvent(tick=192, channel=6, data=[55, 0])\n",
      "midi.NoteOnEvent(tick=0, channel=6, data=[50, 100])\n",
      "midi.NoteOnEvent(tick=192, channel=6, data=[50, 0])\n",
      "midi.NoteOnEvent(tick=0, channel=6, data=[55, 100])\n",
      "midi.NoteOnEvent(tick=192, channel=6, data=[55, 0])\n",
      "midi.NoteOnEvent(tick=0, channel=6, data=[52, 100])\n",
      "midi.NoteOnEvent(tick=192, channel=6, data=[52, 0])\n",
      "midi.NoteOnEvent(tick=0, channel=6, data=[55, 100])\n",
      "midi.NoteOnEvent(tick=192, channel=6, data=[55, 0])\n",
      "midi.NoteOnEvent(tick=0, channel=6, data=[53, 100])\n",
      "midi.NoteOnEvent(tick=192, channel=6, data=[53, 0])\n",
      "midi.NoteOnEvent(tick=0, channel=6, data=[55, 100])\n",
      "midi.NoteOnEvent(tick=192, channel=6, data=[55, 0])\n",
      "midi.NoteOnEvent(tick=0, channel=6, data=[57, 100])\n",
      "midi.NoteOnEvent(tick=192, channel=6, data=[57, 0])\n",
      "midi.NoteOnEvent(tick=0, channel=6, data=[53, 100])\n",
      "midi.NoteOnEvent(tick=192, channel=6, data=[53, 0])\n",
      "midi.NoteOnEvent(tick=0, channel=6, data=[55, 100])\n",
      "midi.NoteOnEvent(tick=96, channel=6, data=[55, 0])\n",
      "midi.NoteOnEvent(tick=0, channel=6, data=[57, 100])\n",
      "midi.NoteOnEvent(tick=96, channel=6, data=[57, 0])\n",
      "midi.NoteOnEvent(tick=0, channel=6, data=[59, 100])\n",
      "midi.NoteOnEvent(tick=96, channel=6, data=[59, 0])\n",
      "midi.NoteOnEvent(tick=0, channel=6, data=[57, 100])\n",
      "midi.NoteOnEvent(tick=96, channel=6, data=[57, 0])\n",
      "midi.NoteOnEvent(tick=0, channel=6, data=[55, 100])\n",
      "midi.NoteOnEvent(tick=96, channel=6, data=[55, 0])\n",
      "midi.NoteOnEvent(tick=0, channel=6, data=[53, 100])\n",
      "midi.NoteOnEvent(tick=96, channel=6, data=[53, 0])\n",
      "midi.NoteOnEvent(tick=0, channel=6, data=[52, 100])\n",
      "midi.NoteOnEvent(tick=96, channel=6, data=[52, 0])\n",
      "midi.NoteOnEvent(tick=0, channel=6, data=[50, 100])\n",
      "midi.NoteOnEvent(tick=96, channel=6, data=[50, 0])\n",
      "midi.NoteOnEvent(tick=0, channel=6, data=[48, 100])\n",
      "midi.NoteOnEvent(tick=192, channel=6, data=[48, 0])\n",
      "midi.NoteOnEvent(tick=0, channel=6, data=[52, 100])\n",
      "midi.NoteOnEvent(tick=192, channel=6, data=[52, 0])\n",
      "midi.NoteOnEvent(tick=0, channel=6, data=[48, 100])\n",
      "midi.NoteOnEvent(tick=192, channel=6, data=[48, 0])\n",
      "midi.NoteOnEvent(tick=0, channel=6, data=[45, 100])\n",
      "midi.NoteOnEvent(tick=192, channel=6, data=[45, 0])\n",
      "midi.NoteOnEvent(tick=0, channel=6, data=[50, 100])\n",
      "midi.NoteOnEvent(tick=192, channel=6, data=[50, 0])\n",
      "midi.NoteOnEvent(tick=0, channel=6, data=[38, 100])\n",
      "midi.NoteOnEvent(tick=192, channel=6, data=[38, 0])\n",
      "midi.NoteOnEvent(tick=1344, channel=6, data=[54, 100])\n",
      "midi.NoteOnEvent(tick=96, channel=6, data=[54, 0])\n",
      "midi.NoteOnEvent(tick=0, channel=6, data=[52, 100])\n",
      "midi.NoteOnEvent(tick=96, channel=6, data=[52, 0])\n",
      "midi.NoteOnEvent(tick=0, channel=6, data=[50, 100])\n",
      "midi.NoteOnEvent(tick=96, channel=6, data=[50, 0])\n",
      "midi.NoteOnEvent(tick=0, channel=6, data=[48, 100])\n",
      "midi.NoteOnEvent(tick=96, channel=6, data=[48, 0])\n",
      "midi.NoteOnEvent(tick=0, channel=6, data=[47, 100])\n",
      "midi.NoteOnEvent(tick=96, channel=6, data=[47, 0])\n",
      "midi.NoteOnEvent(tick=0, channel=6, data=[45, 100])\n",
      "midi.NoteOnEvent(tick=96, channel=6, data=[45, 0])\n",
      "midi.NoteOnEvent(tick=0, channel=6, data=[47, 100])\n",
      "midi.NoteOnEvent(tick=192, channel=6, data=[47, 0])\n",
      "midi.NoteOnEvent(tick=0, channel=6, data=[50, 100])\n",
      "midi.NoteOnEvent(tick=192, channel=6, data=[50, 0])\n",
      "midi.NoteOnEvent(tick=0, channel=6, data=[47, 100])\n",
      "midi.NoteOnEvent(tick=192, channel=6, data=[47, 0])\n",
      "midi.NoteOnEvent(tick=0, channel=6, data=[43, 100])\n",
      "midi.NoteOnEvent(tick=192, channel=6, data=[43, 0])\n",
      "midi.NoteOnEvent(tick=0, channel=6, data=[48, 100])\n",
      "midi.NoteOnEvent(tick=192, channel=6, data=[48, 0])\n",
      "midi.NoteOnEvent(tick=0, channel=6, data=[36, 100])\n",
      "midi.NoteOnEvent(tick=192, channel=6, data=[36, 0])\n",
      "midi.NoteOnEvent(tick=1344, channel=6, data=[60, 100])\n",
      "midi.NoteOnEvent(tick=96, channel=6, data=[60, 0])\n",
      "midi.NoteOnEvent(tick=0, channel=6, data=[59, 100])\n",
      "midi.NoteOnEvent(tick=96, channel=6, data=[59, 0])\n",
      "midi.NoteOnEvent(tick=0, channel=6, data=[60, 100])\n",
      "midi.NoteOnEvent(tick=96, channel=6, data=[60, 0])\n",
      "midi.NoteOnEvent(tick=0, channel=6, data=[62, 100])\n",
      "midi.NoteOnEvent(tick=96, channel=6, data=[62, 0])\n",
      "midi.NoteOnEvent(tick=0, channel=6, data=[60, 100])\n",
      "midi.NoteOnEvent(tick=96, channel=6, data=[60, 0])\n",
      "midi.NoteOnEvent(tick=0, channel=6, data=[59, 100])\n",
      "midi.NoteOnEvent(tick=96, channel=6, data=[59, 0])\n",
      "midi.NoteOnEvent(tick=0, channel=6, data=[57, 100])\n",
      "midi.NoteOnEvent(tick=96, channel=6, data=[57, 0])\n",
      "midi.NoteOnEvent(tick=0, channel=6, data=[59, 100])\n",
      "midi.NoteOnEvent(tick=96, channel=6, data=[59, 0])\n",
      "midi.NoteOnEvent(tick=0, channel=6, data=[57, 100])\n",
      "midi.NoteOnEvent(tick=96, channel=6, data=[57, 0])\n",
      "midi.NoteOnEvent(tick=0, channel=6, data=[55, 100])\n",
      "midi.NoteOnEvent(tick=96, channel=6, data=[55, 0])\n",
      "midi.NoteOnEvent(tick=0, channel=6, data=[54, 100])\n",
      "midi.NoteOnEvent(tick=96, channel=6, data=[54, 0])\n",
      "midi.NoteOnEvent(tick=0, channel=6, data=[55, 100])\n",
      "midi.NoteOnEvent(tick=96, channel=6, data=[55, 0])\n",
      "midi.NoteOnEvent(tick=0, channel=6, data=[54, 100])\n",
      "midi.NoteOnEvent(tick=96, channel=6, data=[54, 0])\n",
      "midi.NoteOnEvent(tick=0, channel=6, data=[52, 100])\n",
      "midi.NoteOnEvent(tick=96, channel=6, data=[52, 0])\n",
      "midi.NoteOnEvent(tick=0, channel=6, data=[51, 100])\n",
      "midi.NoteOnEvent(tick=96, channel=6, data=[51, 0])\n",
      "midi.NoteOnEvent(tick=0, channel=6, data=[47, 100])\n",
      "midi.NoteOnEvent(tick=96, channel=6, data=[47, 0])\n",
      "midi.NoteOnEvent(tick=0, channel=6, data=[49, 100])\n",
      "midi.NoteOnEvent(tick=96, channel=6, data=[49, 0])\n",
      "midi.NoteOnEvent(tick=0, channel=6, data=[51, 100])\n",
      "midi.NoteOnEvent(tick=96, channel=6, data=[51, 0])\n",
      "midi.NoteOnEvent(tick=0, channel=6, data=[52, 100])\n",
      "midi.NoteOnEvent(tick=96, channel=6, data=[52, 0])\n",
      "midi.NoteOnEvent(tick=0, channel=6, data=[54, 100])\n",
      "midi.NoteOnEvent(tick=96, channel=6, data=[54, 0])\n",
      "midi.NoteOnEvent(tick=0, channel=6, data=[55, 100])\n",
      "midi.NoteOnEvent(tick=96, channel=6, data=[55, 0])\n",
      "midi.NoteOnEvent(tick=0, channel=6, data=[52, 100])\n",
      "midi.NoteOnEvent(tick=96, channel=6, data=[52, 0])\n",
      "midi.NoteOnEvent(tick=0, channel=6, data=[48, 100])\n",
      "midi.NoteOnEvent(tick=192, channel=6, data=[48, 0])\n",
      "midi.NoteOnEvent(tick=0, channel=6, data=[47, 100])\n",
      "midi.NoteOnEvent(tick=192, channel=6, data=[47, 0])\n",
      "midi.NoteOnEvent(tick=0, channel=6, data=[48, 100])\n",
      "midi.NoteOnEvent(tick=192, channel=6, data=[48, 0])\n",
      "midi.NoteOnEvent(tick=0, channel=6, data=[45, 100])\n",
      "midi.NoteOnEvent(tick=192, channel=6, data=[45, 0])\n",
      "midi.NoteOnEvent(tick=0, channel=6, data=[47, 100])\n",
      "midi.NoteOnEvent(tick=288, channel=6, data=[47, 0])\n",
      "midi.NoteOnEvent(tick=0, channel=6, data=[49, 100])\n",
      "midi.NoteOnEvent(tick=48, channel=6, data=[49, 0])\n",
      "midi.NoteOnEvent(tick=0, channel=6, data=[51, 100])\n",
      "midi.NoteOnEvent(tick=48, channel=6, data=[51, 0])\n",
      "midi.NoteOnEvent(tick=0, channel=6, data=[52, 100])\n",
      "midi.NoteOnEvent(tick=96, channel=6, data=[52, 0])\n",
      "midi.NoteOnEvent(tick=0, channel=6, data=[54, 100])\n",
      "midi.NoteOnEvent(tick=96, channel=6, data=[54, 0])\n",
      "midi.NoteOnEvent(tick=0, channel=6, data=[55, 100])\n",
      "midi.NoteOnEvent(tick=96, channel=6, data=[55, 0])\n",
      "midi.NoteOnEvent(tick=0, channel=6, data=[57, 100])\n",
      "midi.NoteOnEvent(tick=96, channel=6, data=[57, 0])\n",
      "midi.NoteOnEvent(tick=0, channel=6, data=[59, 100])\n",
      "midi.NoteOnEvent(tick=192, channel=6, data=[59, 0])\n",
      "midi.NoteOnEvent(tick=0, channel=6, data=[57, 100])\n",
      "midi.NoteOnEvent(tick=192, channel=6, data=[57, 0])\n",
      "midi.NoteOnEvent(tick=0, channel=6, data=[59, 100])\n",
      "midi.NoteOnEvent(tick=192, channel=6, data=[59, 0])\n",
      "midi.NoteOnEvent(tick=0, channel=6, data=[47, 100])\n",
      "midi.NoteOnEvent(tick=192, channel=6, data=[47, 0])\n",
      "midi.NoteOnEvent(tick=0, channel=6, data=[57, 100])\n",
      "midi.NoteOnEvent(tick=192, channel=6, data=[57, 0])\n",
      "midi.NoteOnEvent(tick=0, channel=6, data=[59, 100])\n",
      "midi.NoteOnEvent(tick=192, channel=6, data=[59, 0])\n",
      "midi.NoteOnEvent(tick=0, channel=6, data=[57, 100])\n",
      "midi.NoteOnEvent(tick=192, channel=6, data=[57, 0])\n",
      "midi.NoteOnEvent(tick=0, channel=6, data=[55, 100])\n",
      "midi.NoteOnEvent(tick=192, channel=6, data=[55, 0])\n",
      "midi.NoteOnEvent(tick=0, channel=6, data=[54, 100])\n",
      "midi.NoteOnEvent(tick=192, channel=6, data=[54, 0])\n",
      "midi.NoteOnEvent(tick=0, channel=6, data=[55, 100])\n",
      "midi.NoteOnEvent(tick=192, channel=6, data=[55, 0])\n",
      "midi.NoteOnEvent(tick=0, channel=6, data=[54, 100])\n",
      "midi.NoteOnEvent(tick=192, channel=6, data=[54, 0])\n",
      "midi.NoteOnEvent(tick=0, channel=6, data=[52, 100])\n",
      "midi.NoteOnEvent(tick=192, channel=6, data=[52, 0])\n",
      "midi.NoteOnEvent(tick=0, channel=6, data=[51, 100])\n",
      "midi.NoteOnEvent(tick=192, channel=6, data=[51, 0])\n",
      "midi.NoteOnEvent(tick=0, channel=6, data=[52, 100])\n",
      "midi.NoteOnEvent(tick=192, channel=6, data=[52, 0])\n",
      "midi.NoteOnEvent(tick=0, channel=6, data=[54, 100])\n",
      "midi.NoteOnEvent(tick=192, channel=6, data=[54, 0])\n",
      "midi.NoteOnEvent(tick=0, channel=6, data=[55, 100])\n",
      "midi.NoteOnEvent(tick=192, channel=6, data=[55, 0])\n",
      "midi.NoteOnEvent(tick=0, channel=6, data=[57, 100])\n",
      "midi.NoteOnEvent(tick=192, channel=6, data=[57, 0])\n",
      "midi.NoteOnEvent(tick=0, channel=6, data=[59, 100])\n",
      "midi.NoteOnEvent(tick=192, channel=6, data=[59, 0])\n",
      "midi.NoteOnEvent(tick=0, channel=6, data=[60, 100])\n",
      "midi.NoteOnEvent(tick=192, channel=6, data=[60, 0])\n",
      "midi.NoteOnEvent(tick=0, channel=6, data=[54, 100])\n",
      "midi.NoteOnEvent(tick=192, channel=6, data=[54, 0])\n",
      "midi.NoteOnEvent(tick=0, channel=6, data=[59, 100])\n",
      "midi.NoteOnEvent(tick=192, channel=6, data=[59, 0])\n",
      "midi.NoteOnEvent(tick=0, channel=6, data=[57, 100])\n",
      "midi.NoteOnEvent(tick=96, channel=6, data=[57, 0])\n",
      "midi.NoteOnEvent(tick=0, channel=6, data=[55, 100])\n",
      "midi.NoteOnEvent(tick=96, channel=6, data=[55, 0])\n",
      "midi.NoteOnEvent(tick=0, channel=6, data=[54, 100])\n",
      "midi.NoteOnEvent(tick=192, channel=6, data=[54, 0])\n",
      "midi.NoteOnEvent(tick=0, channel=6, data=[52, 100])\n",
      "midi.NoteOnEvent(tick=192, channel=6, data=[52, 0])\n",
      "midi.NoteOnEvent(tick=0, channel=6, data=[51, 100])\n",
      "midi.NoteOnEvent(tick=192, channel=6, data=[51, 0])\n",
      "midi.NoteOnEvent(tick=0, channel=6, data=[49, 100])\n",
      "midi.NoteOnEvent(tick=192, channel=6, data=[49, 0])\n",
      "midi.NoteOnEvent(tick=0, channel=6, data=[47, 100])\n",
      "midi.NoteOnEvent(tick=192, channel=6, data=[47, 0])\n",
      "midi.NoteOnEvent(tick=0, channel=6, data=[45, 100])\n",
      "midi.NoteOnEvent(tick=192, channel=6, data=[45, 0])\n",
      "midi.NoteOnEvent(tick=0, channel=6, data=[43, 100])\n",
      "midi.NoteOnEvent(tick=192, channel=6, data=[43, 0])\n",
      "midi.NoteOnEvent(tick=0, channel=6, data=[48, 100])\n",
      "midi.NoteOnEvent(tick=192, channel=6, data=[48, 0])\n",
      "midi.NoteOnEvent(tick=0, channel=6, data=[45, 100])\n",
      "midi.NoteOnEvent(tick=192, channel=6, data=[45, 0])\n",
      "midi.NoteOnEvent(tick=0, channel=6, data=[47, 100])\n",
      "midi.NoteOnEvent(tick=192, channel=6, data=[47, 0])\n",
      "midi.NoteOnEvent(tick=0, channel=6, data=[36, 100])\n",
      "midi.NoteOnEvent(tick=384, channel=6, data=[36, 0])\n",
      "midi.NoteOnEvent(tick=192, channel=6, data=[60, 100])\n",
      "midi.NoteOnEvent(tick=192, channel=6, data=[60, 0])\n",
      "midi.NoteOnEvent(tick=0, channel=6, data=[51, 100])\n",
      "midi.NoteOnEvent(tick=192, channel=6, data=[51, 0])\n",
      "midi.NoteOnEvent(tick=0, channel=6, data=[51, 100])\n",
      "midi.NoteOnEvent(tick=192, channel=6, data=[51, 0])\n",
      "midi.NoteOnEvent(tick=0, channel=6, data=[51, 100])\n",
      "midi.NoteOnEvent(tick=192, channel=6, data=[51, 0])\n",
      "midi.NoteOnEvent(tick=0, channel=6, data=[54, 100])\n",
      "midi.NoteOnEvent(tick=192, channel=6, data=[54, 0])\n",
      "midi.NoteOnEvent(tick=0, channel=6, data=[45, 100])\n",
      "midi.NoteOnEvent(tick=192, channel=6, data=[45, 0])\n",
      "midi.NoteOnEvent(tick=0, channel=6, data=[45, 100])\n",
      "midi.NoteOnEvent(tick=192, channel=6, data=[45, 0])\n",
      "midi.NoteOnEvent(tick=0, channel=6, data=[45, 100])\n",
      "midi.NoteOnEvent(tick=192, channel=6, data=[45, 0])\n",
      "midi.NoteOnEvent(tick=0, channel=6, data=[48, 100])\n",
      "midi.NoteOnEvent(tick=192, channel=6, data=[48, 0])\n",
      "midi.NoteOnEvent(tick=0, channel=6, data=[42, 100])\n",
      "midi.NoteOnEvent(tick=192, channel=6, data=[42, 0])\n",
      "midi.NoteOnEvent(tick=0, channel=6, data=[43, 100])\n",
      "midi.NoteOnEvent(tick=96, channel=6, data=[43, 0])\n",
      "midi.NoteOnEvent(tick=0, channel=6, data=[45, 100])\n",
      "midi.NoteOnEvent(tick=96, channel=6, data=[45, 0])\n",
      "midi.NoteOnEvent(tick=0, channel=6, data=[47, 100])\n",
      "midi.NoteOnEvent(tick=192, channel=6, data=[47, 0])\n",
      "midi.NoteOnEvent(tick=0, channel=6, data=[47, 100])\n",
      "midi.NoteOnEvent(tick=192, channel=6, data=[47, 0])\n",
      "midi.NoteOnEvent(tick=0, channel=6, data=[40, 100])\n",
      "midi.NoteOnEvent(tick=192, channel=6, data=[40, 0])\n",
      "midi.NoteOnEvent(tick=0, channel=6, data=[52, 100])\n",
      "midi.NoteOnEvent(tick=96, channel=6, data=[52, 0])\n",
      "midi.NoteOnEvent(tick=0, channel=6, data=[51, 100])\n",
      "midi.NoteOnEvent(tick=96, channel=6, data=[51, 0])\n",
      "midi.NoteOnEvent(tick=0, channel=6, data=[52, 100])\n",
      "midi.NoteOnEvent(tick=192, channel=6, data=[52, 0])\n",
      "midi.NoteOnEvent(tick=0, channel=6, data=[54, 100])\n",
      "midi.NoteOnEvent(tick=192, channel=6, data=[54, 0])\n",
      "midi.NoteOnEvent(tick=0, channel=6, data=[55, 100])\n",
      "midi.NoteOnEvent(tick=384, channel=6, data=[55, 0])\n",
      "midi.NoteOnEvent(tick=192, channel=6, data=[52, 100])\n",
      "midi.NoteOnEvent(tick=192, channel=6, data=[52, 0])\n",
      "midi.NoteOnEvent(tick=0, channel=6, data=[59, 100])\n",
      "midi.NoteOnEvent(tick=384, channel=6, data=[59, 0])\n",
      "midi.NoteOnEvent(tick=192, channel=6, data=[47, 100])\n",
      "midi.NoteOnEvent(tick=192, channel=6, data=[47, 0])\n",
      "midi.NoteOnEvent(tick=0, channel=6, data=[39, 100])\n",
      "midi.NoteOnEvent(tick=384, channel=6, data=[39, 0])\n",
      "midi.NoteOnEvent(tick=192, channel=6, data=[47, 100])\n",
      "midi.NoteOnEvent(tick=192, channel=6, data=[47, 0])\n",
      "midi.NoteOnEvent(tick=0, channel=6, data=[52, 100])\n",
      "midi.NoteOnEvent(tick=384, channel=6, data=[52, 0])\n",
      "midi.NoteOnEvent(tick=1344, channel=6, data=[52, 100])\n",
      "midi.NoteOnEvent(tick=192, channel=6, data=[52, 0])\n",
      "midi.NoteOnEvent(tick=0, channel=6, data=[40, 100])\n",
      "midi.NoteOnEvent(tick=192, channel=6, data=[40, 0])\n",
      "midi.NoteOnEvent(tick=0, channel=6, data=[52, 100])\n",
      "midi.NoteOnEvent(tick=192, channel=6, data=[52, 0])\n",
      "midi.NoteOnEvent(tick=0, channel=6, data=[45, 100])\n",
      "midi.NoteOnEvent(tick=384, channel=6, data=[45, 0])\n",
      "midi.NoteOnEvent(tick=576, channel=6, data=[57, 100])\n",
      "midi.NoteOnEvent(tick=192, channel=6, data=[57, 0])\n",
      "midi.NoteOnEvent(tick=0, channel=6, data=[45, 100])\n",
      "midi.NoteOnEvent(tick=192, channel=6, data=[45, 0])\n",
      "midi.NoteOnEvent(tick=0, channel=6, data=[57, 100])\n",
      "midi.NoteOnEvent(tick=192, channel=6, data=[57, 0])\n",
      "midi.NoteOnEvent(tick=0, channel=6, data=[50, 100])\n",
      "midi.NoteOnEvent(tick=384, channel=6, data=[50, 0])\n",
      "midi.NoteOnEvent(tick=576, channel=6, data=[50, 100])\n",
      "midi.NoteOnEvent(tick=192, channel=6, data=[50, 0])\n",
      "midi.NoteOnEvent(tick=0, channel=6, data=[38, 100])\n",
      "midi.NoteOnEvent(tick=192, channel=6, data=[38, 0])\n",
      "midi.NoteOnEvent(tick=0, channel=6, data=[50, 100])\n",
      "midi.NoteOnEvent(tick=192, channel=6, data=[50, 0])\n",
      "midi.NoteOnEvent(tick=0, channel=6, data=[43, 100])\n",
      "midi.NoteOnEvent(tick=384, channel=6, data=[43, 0])\n",
      "midi.NoteOnEvent(tick=576, channel=6, data=[55, 100])\n",
      "midi.NoteOnEvent(tick=192, channel=6, data=[55, 0])\n",
      "midi.NoteOnEvent(tick=0, channel=6, data=[43, 100])\n",
      "midi.NoteOnEvent(tick=192, channel=6, data=[43, 0])\n",
      "midi.NoteOnEvent(tick=0, channel=6, data=[55, 100])\n",
      "midi.NoteOnEvent(tick=192, channel=6, data=[55, 0])\n",
      "midi.NoteOnEvent(tick=0, channel=6, data=[48, 100])\n",
      "midi.NoteOnEvent(tick=384, channel=6, data=[48, 0])\n",
      "midi.NoteOnEvent(tick=0, channel=6, data=[58, 100])\n",
      "midi.NoteOnEvent(tick=384, channel=6, data=[58, 0])\n",
      "midi.NoteOnEvent(tick=0, channel=6, data=[57, 100])\n",
      "midi.NoteOnEvent(tick=384, channel=6, data=[57, 0])\n",
      "midi.NoteOnEvent(tick=0, channel=6, data=[55, 100])\n",
      "midi.NoteOnEvent(tick=384, channel=6, data=[55, 0])\n",
      "midi.NoteOnEvent(tick=0, channel=6, data=[53, 100])\n",
      "midi.NoteOnEvent(tick=192, channel=6, data=[53, 0])\n",
      "midi.NoteOnEvent(tick=0, channel=6, data=[52, 100])\n",
      "midi.NoteOnEvent(tick=192, channel=6, data=[52, 0])\n",
      "midi.NoteOnEvent(tick=0, channel=6, data=[50, 100])\n",
      "midi.NoteOnEvent(tick=192, channel=6, data=[50, 0])\n",
      "midi.NoteOnEvent(tick=0, channel=6, data=[53, 100])\n",
      "midi.NoteOnEvent(tick=192, channel=6, data=[53, 0])\n",
      "midi.NoteOnEvent(tick=0, channel=6, data=[55, 100])\n",
      "midi.NoteOnEvent(tick=192, channel=6, data=[55, 0])\n",
      "midi.NoteOnEvent(tick=0, channel=6, data=[53, 100])\n",
      "midi.NoteOnEvent(tick=192, channel=6, data=[53, 0])\n",
      "midi.NoteOnEvent(tick=0, channel=6, data=[52, 100])\n",
      "midi.NoteOnEvent(tick=192, channel=6, data=[52, 0])\n",
      "midi.NoteOnEvent(tick=0, channel=6, data=[55, 100])\n",
      "midi.NoteOnEvent(tick=192, channel=6, data=[55, 0])\n",
      "midi.NoteOnEvent(tick=0, channel=6, data=[57, 100])\n",
      "midi.NoteOnEvent(tick=192, channel=6, data=[57, 0])\n",
      "midi.NoteOnEvent(tick=0, channel=6, data=[59, 100])\n",
      "midi.NoteOnEvent(tick=192, channel=6, data=[59, 0])\n",
      "midi.NoteOnEvent(tick=0, channel=6, data=[61, 100])\n",
      "midi.NoteOnEvent(tick=192, channel=6, data=[61, 0])\n",
      "midi.NoteOnEvent(tick=0, channel=6, data=[57, 100])\n",
      "midi.NoteOnEvent(tick=192, channel=6, data=[57, 0])\n",
      "midi.NoteOnEvent(tick=0, channel=6, data=[53, 100])\n",
      "midi.NoteOnEvent(tick=192, channel=6, data=[53, 0])\n",
      "midi.NoteOnEvent(tick=0, channel=6, data=[57, 100])\n",
      "midi.NoteOnEvent(tick=192, channel=6, data=[57, 0])\n",
      "midi.NoteOnEvent(tick=0, channel=6, data=[53, 100])\n",
      "midi.NoteOnEvent(tick=192, channel=6, data=[53, 0])\n",
      "midi.NoteOnEvent(tick=0, channel=6, data=[50, 100])\n",
      "midi.NoteOnEvent(tick=192, channel=6, data=[50, 0])\n",
      "midi.NoteOnEvent(tick=0, channel=6, data=[55, 100])\n",
      "midi.NoteOnEvent(tick=192, channel=6, data=[55, 0])\n",
      "midi.NoteOnEvent(tick=0, channel=6, data=[58, 100])\n",
      "midi.NoteOnEvent(tick=192, channel=6, data=[58, 0])\n",
      "midi.NoteOnEvent(tick=0, channel=6, data=[55, 100])\n",
      "midi.NoteOnEvent(tick=192, channel=6, data=[55, 0])\n",
      "midi.NoteOnEvent(tick=0, channel=6, data=[50, 100])\n",
      "midi.NoteOnEvent(tick=192, channel=6, data=[50, 0])\n",
      "midi.NoteOnEvent(tick=0, channel=6, data=[62, 100])\n",
      "midi.NoteOnEvent(tick=192, channel=6, data=[62, 0])\n",
      "midi.NoteOnEvent(tick=0, channel=6, data=[50, 100])\n",
      "midi.NoteOnEvent(tick=192, channel=6, data=[50, 0])\n",
      "midi.NoteOnEvent(tick=0, channel=6, data=[57, 100])\n",
      "midi.NoteOnEvent(tick=192, channel=6, data=[57, 0])\n",
      "midi.NoteOnEvent(tick=0, channel=6, data=[45, 100])\n",
      "midi.NoteOnEvent(tick=192, channel=6, data=[45, 0])\n",
      "midi.NoteOnEvent(tick=0, channel=6, data=[50, 100])\n",
      "midi.NoteOnEvent(tick=192, channel=6, data=[50, 0])\n",
      "midi.NoteOnEvent(tick=0, channel=6, data=[38, 100])\n",
      "midi.NoteOnEvent(tick=192, channel=6, data=[38, 0])\n",
      "midi.NoteOnEvent(tick=2112, channel=6, data=[55, 100])\n",
      "midi.NoteOnEvent(tick=96, channel=6, data=[55, 0])\n",
      "midi.NoteOnEvent(tick=0, channel=6, data=[57, 100])\n",
      "midi.NoteOnEvent(tick=96, channel=6, data=[57, 0])\n",
      "midi.NoteOnEvent(tick=0, channel=6, data=[55, 100])\n",
      "midi.NoteOnEvent(tick=96, channel=6, data=[55, 0])\n",
      "midi.NoteOnEvent(tick=0, channel=6, data=[53, 100])\n",
      "midi.NoteOnEvent(tick=96, channel=6, data=[53, 0])\n",
      "midi.NoteOnEvent(tick=0, channel=6, data=[52, 100])\n",
      "midi.NoteOnEvent(tick=96, channel=6, data=[52, 0])\n",
      "midi.NoteOnEvent(tick=0, channel=6, data=[50, 100])\n",
      "midi.NoteOnEvent(tick=96, channel=6, data=[50, 0])\n",
      "midi.NoteOnEvent(tick=0, channel=6, data=[48, 100])\n",
      "midi.NoteOnEvent(tick=192, channel=6, data=[48, 0])\n",
      "midi.NoteOnEvent(tick=0, channel=6, data=[60, 100])\n",
      "midi.NoteOnEvent(tick=192, channel=6, data=[60, 0])\n",
      "midi.NoteOnEvent(tick=1344, channel=6, data=[53, 100])\n",
      "midi.NoteOnEvent(tick=96, channel=6, data=[53, 0])\n",
      "midi.NoteOnEvent(tick=0, channel=6, data=[55, 100])\n",
      "midi.NoteOnEvent(tick=96, channel=6, data=[55, 0])\n",
      "midi.NoteOnEvent(tick=0, channel=6, data=[53, 100])\n",
      "midi.NoteOnEvent(tick=96, channel=6, data=[53, 0])\n",
      "midi.NoteOnEvent(tick=0, channel=6, data=[52, 100])\n",
      "midi.NoteOnEvent(tick=96, channel=6, data=[52, 0])\n",
      "midi.NoteOnEvent(tick=0, channel=6, data=[50, 100])\n",
      "midi.NoteOnEvent(tick=96, channel=6, data=[50, 0])\n",
      "midi.NoteOnEvent(tick=0, channel=6, data=[48, 100])\n",
      "midi.NoteOnEvent(tick=96, channel=6, data=[48, 0])\n",
      "midi.NoteOnEvent(tick=0, channel=6, data=[46, 100])\n",
      "midi.NoteOnEvent(tick=192, channel=6, data=[46, 0])\n",
      "midi.NoteOnEvent(tick=0, channel=6, data=[58, 100])\n",
      "midi.NoteOnEvent(tick=192, channel=6, data=[58, 0])\n",
      "midi.NoteOnEvent(tick=1344, channel=6, data=[52, 100])\n",
      "midi.NoteOnEvent(tick=96, channel=6, data=[52, 0])\n",
      "midi.NoteOnEvent(tick=0, channel=6, data=[53, 100])\n",
      "midi.NoteOnEvent(tick=96, channel=6, data=[53, 0])\n",
      "midi.NoteOnEvent(tick=0, channel=6, data=[52, 100])\n",
      "midi.NoteOnEvent(tick=96, channel=6, data=[52, 0])\n",
      "midi.NoteOnEvent(tick=0, channel=6, data=[50, 100])\n",
      "midi.NoteOnEvent(tick=96, channel=6, data=[50, 0])\n",
      "midi.NoteOnEvent(tick=0, channel=6, data=[49, 100])\n",
      "midi.NoteOnEvent(tick=96, channel=6, data=[49, 0])\n",
      "midi.NoteOnEvent(tick=0, channel=6, data=[47, 100])\n",
      "midi.NoteOnEvent(tick=96, channel=6, data=[47, 0])\n",
      "midi.NoteOnEvent(tick=0, channel=6, data=[45, 100])\n",
      "midi.NoteOnEvent(tick=192, channel=6, data=[45, 0])\n",
      "midi.NoteOnEvent(tick=0, channel=6, data=[57, 100])\n",
      "midi.NoteOnEvent(tick=192, channel=6, data=[57, 0])\n",
      "midi.NoteOnEvent(tick=1344, channel=6, data=[50, 100])\n",
      "midi.NoteOnEvent(tick=192, channel=6, data=[50, 0])\n",
      "midi.NoteOnEvent(tick=0, channel=6, data=[62, 100])\n",
      "midi.NoteOnEvent(tick=192, channel=6, data=[62, 0])\n",
      "midi.NoteOnEvent(tick=0, channel=6, data=[53, 100])\n",
      "midi.NoteOnEvent(tick=192, channel=6, data=[53, 0])\n",
      "midi.NoteOnEvent(tick=0, channel=6, data=[55, 100])\n",
      "midi.NoteOnEvent(tick=192, channel=6, data=[55, 0])\n",
      "midi.NoteOnEvent(tick=0, channel=6, data=[57, 100])\n",
      "midi.NoteOnEvent(tick=192, channel=6, data=[57, 0])\n",
      "midi.NoteOnEvent(tick=0, channel=6, data=[59, 100])\n",
      "midi.NoteOnEvent(tick=192, channel=6, data=[59, 0])\n",
      "midi.NoteOnEvent(tick=0, channel=6, data=[55, 100])\n",
      "midi.NoteOnEvent(tick=192, channel=6, data=[55, 0])\n",
      "midi.NoteOnEvent(tick=0, channel=6, data=[60, 100])\n",
      "midi.NoteOnEvent(tick=192, channel=6, data=[60, 0])\n",
      "midi.NoteOnEvent(tick=0, channel=6, data=[48, 100])\n",
      "midi.NoteOnEvent(tick=192, channel=6, data=[48, 0])\n",
      "midi.NoteOnEvent(tick=0, channel=6, data=[60, 100])\n",
      "midi.NoteOnEvent(tick=192, channel=6, data=[60, 0])\n",
      "midi.NoteOnEvent(tick=0, channel=6, data=[52, 100])\n",
      "midi.NoteOnEvent(tick=192, channel=6, data=[52, 0])\n",
      "midi.NoteOnEvent(tick=0, channel=6, data=[53, 100])\n",
      "midi.NoteOnEvent(tick=192, channel=6, data=[53, 0])\n",
      "midi.NoteOnEvent(tick=0, channel=6, data=[55, 100])\n",
      "midi.NoteOnEvent(tick=192, channel=6, data=[55, 0])\n",
      "midi.NoteOnEvent(tick=0, channel=6, data=[57, 100])\n",
      "midi.NoteOnEvent(tick=192, channel=6, data=[57, 0])\n",
      "midi.NoteOnEvent(tick=0, channel=6, data=[53, 100])\n",
      "midi.NoteOnEvent(tick=192, channel=6, data=[53, 0])\n",
      "midi.NoteOnEvent(tick=0, channel=6, data=[59, 100])\n",
      "midi.NoteOnEvent(tick=192, channel=6, data=[59, 0])\n",
      "midi.NoteOnEvent(tick=0, channel=6, data=[47, 100])\n",
      "midi.NoteOnEvent(tick=192, channel=6, data=[47, 0])\n",
      "midi.NoteOnEvent(tick=0, channel=6, data=[59, 100])\n",
      "midi.NoteOnEvent(tick=192, channel=6, data=[59, 0])\n",
      "midi.NoteOnEvent(tick=0, channel=6, data=[56, 100])\n",
      "midi.NoteOnEvent(tick=192, channel=6, data=[56, 0])\n",
      "midi.NoteOnEvent(tick=0, channel=6, data=[52, 100])\n",
      "midi.NoteOnEvent(tick=192, channel=6, data=[52, 0])\n",
      "midi.NoteOnEvent(tick=0, channel=6, data=[40, 100])\n",
      "midi.NoteOnEvent(tick=192, channel=6, data=[40, 0])\n",
      "midi.NoteOnEvent(tick=576, channel=6, data=[45, 100])\n",
      "midi.NoteOnEvent(tick=192, channel=6, data=[45, 0])\n",
      "midi.NoteOnEvent(tick=0, channel=6, data=[57, 100])\n",
      "midi.NoteOnEvent(tick=384, channel=6, data=[57, 0])\n",
      "midi.NoteOnEvent(tick=192, channel=6, data=[45, 100])\n",
      "midi.NoteOnEvent(tick=192, channel=6, data=[45, 0])\n",
      "midi.NoteOnEvent(tick=0, channel=6, data=[57, 100])\n",
      "midi.NoteOnEvent(tick=384, channel=6, data=[57, 0])\n",
      "midi.NoteOnEvent(tick=192, channel=6, data=[45, 100])\n",
      "midi.NoteOnEvent(tick=192, channel=6, data=[45, 0])\n",
      "midi.NoteOnEvent(tick=0, channel=6, data=[52, 100])\n",
      "midi.NoteOnEvent(tick=192, channel=6, data=[52, 0])\n",
      "midi.NoteOnEvent(tick=0, channel=6, data=[40, 100])\n",
      "midi.NoteOnEvent(tick=192, channel=6, data=[40, 0])\n",
      "midi.NoteOnEvent(tick=0, channel=6, data=[57, 100])\n",
      "midi.NoteOnEvent(tick=192, channel=6, data=[57, 0])\n",
      "midi.NoteOnEvent(tick=0, channel=6, data=[45, 100])\n",
      "midi.NoteOnEvent(tick=192, channel=6, data=[45, 0])\n",
      "midi.NoteOnEvent(tick=0, channel=6, data=[48, 100])\n",
      "midi.NoteOnEvent(tick=192, channel=6, data=[48, 0])\n",
      "midi.NoteOnEvent(tick=0, channel=6, data=[52, 100])\n",
      "midi.NoteOnEvent(tick=192, channel=6, data=[52, 0])\n",
      "midi.NoteOnEvent(tick=0, channel=6, data=[57, 100])\n",
      "midi.NoteOnEvent(tick=384, channel=6, data=[57, 0])\n",
      "midi.NoteOnEvent(tick=0, channel=6, data=[55, 100])\n",
      "midi.NoteOnEvent(tick=384, channel=6, data=[55, 0])\n",
      "midi.NoteOnEvent(tick=0, channel=6, data=[53, 100])\n",
      "midi.NoteOnEvent(tick=384, channel=6, data=[53, 0])\n",
      "midi.NoteOnEvent(tick=0, channel=6, data=[52, 100])\n",
      "midi.NoteOnEvent(tick=384, channel=6, data=[52, 0])\n",
      "midi.NoteOnEvent(tick=0, channel=6, data=[50, 100])\n",
      "midi.NoteOnEvent(tick=384, channel=6, data=[50, 0])\n",
      "midi.NoteOnEvent(tick=0, channel=6, data=[48, 100])\n",
      "midi.NoteOnEvent(tick=384, channel=6, data=[48, 0])\n",
      "midi.NoteOnEvent(tick=0, channel=6, data=[46, 100])\n",
      "midi.NoteOnEvent(tick=384, channel=6, data=[46, 0])\n",
      "midi.NoteOnEvent(tick=0, channel=6, data=[45, 100])\n",
      "midi.NoteOnEvent(tick=384, channel=6, data=[45, 0])\n",
      "midi.NoteOnEvent(tick=0, channel=6, data=[43, 100])\n",
      "midi.NoteOnEvent(tick=384, channel=6, data=[43, 0])\n",
      "midi.NoteOnEvent(tick=0, channel=6, data=[41, 100])\n",
      "midi.NoteOnEvent(tick=384, channel=6, data=[41, 0])\n",
      "midi.NoteOnEvent(tick=0, channel=6, data=[39, 100])\n",
      "midi.NoteOnEvent(tick=384, channel=6, data=[39, 0])\n",
      "midi.NoteOnEvent(tick=0, channel=6, data=[38, 100])\n",
      "midi.NoteOnEvent(tick=384, channel=6, data=[38, 0])\n",
      "midi.NoteOnEvent(tick=0, channel=6, data=[36, 100])\n",
      "midi.NoteOnEvent(tick=192, channel=6, data=[36, 0])\n",
      "midi.NoteOnEvent(tick=0, channel=6, data=[36, 100])\n",
      "midi.NoteOnEvent(tick=192, channel=6, data=[36, 0])\n",
      "midi.NoteOnEvent(tick=0, channel=6, data=[36, 100])\n",
      "midi.NoteOnEvent(tick=192, channel=6, data=[36, 0])\n",
      "midi.NoteOnEvent(tick=0, channel=6, data=[36, 100])\n",
      "midi.NoteOnEvent(tick=192, channel=6, data=[36, 0])\n",
      "midi.NoteOnEvent(tick=0, channel=6, data=[36, 100])\n",
      "midi.NoteOnEvent(tick=192, channel=6, data=[36, 0])\n",
      "midi.NoteOnEvent(tick=0, channel=6, data=[36, 100])\n",
      "midi.NoteOnEvent(tick=192, channel=6, data=[36, 0])\n",
      "midi.NoteOnEvent(tick=0, channel=6, data=[36, 100])\n",
      "midi.NoteOnEvent(tick=192, channel=6, data=[36, 0])\n",
      "midi.NoteOnEvent(tick=0, channel=6, data=[36, 100])\n",
      "midi.NoteOnEvent(tick=192, channel=6, data=[36, 0])\n",
      "midi.NoteOnEvent(tick=0, channel=6, data=[36, 100])\n",
      "midi.NoteOnEvent(tick=192, channel=6, data=[36, 0])\n",
      "midi.NoteOnEvent(tick=0, channel=6, data=[36, 100])\n",
      "midi.NoteOnEvent(tick=192, channel=6, data=[36, 0])\n",
      "midi.NoteOnEvent(tick=0, channel=6, data=[48, 100])\n",
      "midi.NoteOnEvent(tick=192, channel=6, data=[48, 0])\n",
      "midi.NoteOnEvent(tick=0, channel=6, data=[48, 100])\n",
      "midi.NoteOnEvent(tick=192, channel=6, data=[48, 0])\n",
      "midi.NoteOnEvent(tick=0, channel=6, data=[46, 100])\n",
      "midi.NoteOnEvent(tick=192, channel=6, data=[46, 0])\n",
      "midi.NoteOnEvent(tick=0, channel=6, data=[62, 100])\n",
      "midi.NoteOnEvent(tick=192, channel=6, data=[62, 0])\n",
      "midi.NoteOnEvent(tick=0, channel=6, data=[58, 100])\n",
      "midi.NoteOnEvent(tick=192, channel=6, data=[58, 0])\n",
      "midi.NoteOnEvent(tick=0, channel=6, data=[55, 100])\n",
      "midi.NoteOnEvent(tick=192, channel=6, data=[55, 0])\n",
      "midi.NoteOnEvent(tick=0, channel=6, data=[43, 100])\n",
      "midi.NoteOnEvent(tick=192, channel=6, data=[43, 0])\n",
      "midi.NoteOnEvent(tick=0, channel=6, data=[43, 100])\n",
      "midi.NoteOnEvent(tick=192, channel=6, data=[43, 0])\n",
      "midi.NoteOnEvent(tick=0, channel=6, data=[43, 100])\n",
      "midi.NoteOnEvent(tick=192, channel=6, data=[43, 0])\n",
      "midi.NoteOnEvent(tick=0, channel=6, data=[43, 100])\n",
      "midi.NoteOnEvent(tick=192, channel=6, data=[43, 0])\n",
      "midi.NoteOnEvent(tick=0, channel=6, data=[41, 100])\n",
      "midi.NoteOnEvent(tick=192, channel=6, data=[41, 0])\n",
      "midi.NoteOnEvent(tick=0, channel=6, data=[57, 100])\n",
      "midi.NoteOnEvent(tick=192, channel=6, data=[57, 0])\n",
      "midi.NoteOnEvent(tick=0, channel=6, data=[53, 100])\n",
      "midi.NoteOnEvent(tick=192, channel=6, data=[53, 0])\n",
      "midi.NoteOnEvent(tick=0, channel=6, data=[50, 100])\n",
      "midi.NoteOnEvent(tick=192, channel=6, data=[50, 0])\n",
      "midi.NoteOnEvent(tick=0, channel=6, data=[38, 100])\n",
      "midi.NoteOnEvent(tick=192, channel=6, data=[38, 0])\n",
      "midi.NoteOnEvent(tick=0, channel=6, data=[38, 100])\n",
      "midi.NoteOnEvent(tick=192, channel=6, data=[38, 0])\n",
      "midi.NoteOnEvent(tick=0, channel=6, data=[38, 100])\n",
      "midi.NoteOnEvent(tick=192, channel=6, data=[38, 0])\n",
      "midi.NoteOnEvent(tick=0, channel=6, data=[38, 100])\n",
      "midi.NoteOnEvent(tick=192, channel=6, data=[38, 0])\n",
      "midi.NoteOnEvent(tick=0, channel=6, data=[36, 100])\n",
      "midi.NoteOnEvent(tick=192, channel=6, data=[36, 0])\n",
      "midi.NoteOnEvent(tick=0, channel=6, data=[50, 100])\n",
      "midi.NoteOnEvent(tick=192, channel=6, data=[50, 0])\n",
      "midi.NoteOnEvent(tick=0, channel=6, data=[48, 100])\n",
      "midi.NoteOnEvent(tick=192, channel=6, data=[48, 0])\n",
      "midi.NoteOnEvent(tick=0, channel=6, data=[47, 100])\n",
      "midi.NoteOnEvent(tick=192, channel=6, data=[47, 0])\n",
      "midi.NoteOnEvent(tick=0, channel=6, data=[45, 100])\n",
      "midi.NoteOnEvent(tick=192, channel=6, data=[45, 0])\n",
      "midi.NoteOnEvent(tick=0, channel=6, data=[57, 100])\n",
      "midi.NoteOnEvent(tick=192, channel=6, data=[57, 0])\n",
      "midi.NoteOnEvent(tick=0, channel=6, data=[55, 100])\n",
      "midi.NoteOnEvent(tick=192, channel=6, data=[55, 0])\n",
      "midi.NoteOnEvent(tick=0, channel=6, data=[53, 100])\n",
      "midi.NoteOnEvent(tick=192, channel=6, data=[53, 0])\n",
      "midi.NoteOnEvent(tick=0, channel=6, data=[52, 100])\n",
      "midi.NoteOnEvent(tick=192, channel=6, data=[52, 0])\n",
      "midi.NoteOnEvent(tick=0, channel=6, data=[53, 100])\n",
      "midi.NoteOnEvent(tick=192, channel=6, data=[53, 0])\n",
      "midi.NoteOnEvent(tick=0, channel=6, data=[52, 100])\n",
      "midi.NoteOnEvent(tick=192, channel=6, data=[52, 0])\n",
      "midi.NoteOnEvent(tick=0, channel=6, data=[50, 100])\n",
      "midi.NoteOnEvent(tick=192, channel=6, data=[50, 0])\n",
      "midi.NoteOnEvent(tick=0, channel=6, data=[48, 100])\n",
      "midi.NoteOnEvent(tick=192, channel=6, data=[48, 0])\n",
      "midi.NoteOnEvent(tick=0, channel=6, data=[52, 100])\n",
      "midi.NoteOnEvent(tick=192, channel=6, data=[52, 0])\n",
      "midi.NoteOnEvent(tick=0, channel=6, data=[48, 100])\n",
      "midi.NoteOnEvent(tick=192, channel=6, data=[48, 0])\n",
      "midi.NoteOnEvent(tick=0, channel=6, data=[45, 100])\n",
      "midi.NoteOnEvent(tick=192, channel=6, data=[45, 0])\n",
      "midi.NoteOnEvent(tick=0, channel=6, data=[50, 100])\n",
      "midi.NoteOnEvent(tick=192, channel=6, data=[50, 0])\n",
      "midi.NoteOnEvent(tick=0, channel=6, data=[53, 100])\n",
      "midi.NoteOnEvent(tick=192, channel=6, data=[53, 0])\n",
      "midi.NoteOnEvent(tick=0, channel=6, data=[50, 100])\n",
      "midi.NoteOnEvent(tick=192, channel=6, data=[50, 0])\n",
      "midi.NoteOnEvent(tick=0, channel=6, data=[47, 100])\n",
      "midi.NoteOnEvent(tick=192, channel=6, data=[47, 0])\n",
      "midi.NoteOnEvent(tick=0, channel=6, data=[48, 100])\n",
      "midi.NoteOnEvent(tick=192, channel=6, data=[48, 0])\n",
      "midi.NoteOnEvent(tick=0, channel=6, data=[45, 100])\n",
      "midi.NoteOnEvent(tick=192, channel=6, data=[45, 0])\n",
      "midi.NoteOnEvent(tick=0, channel=6, data=[52, 100])\n",
      "midi.NoteOnEvent(tick=192, channel=6, data=[52, 0])\n",
      "midi.NoteOnEvent(tick=0, channel=6, data=[40, 100])\n",
      "midi.NoteOnEvent(tick=192, channel=6, data=[40, 0])\n",
      "midi.NoteOnEvent(tick=0, channel=6, data=[45, 100])\n",
      "midi.NoteOnEvent(tick=192, channel=6, data=[45, 0])\n",
      "midi.NoteOnEvent(tick=0, channel=6, data=[60, 100])\n",
      "midi.NoteOnEvent(tick=96, channel=6, data=[60, 0])\n",
      "midi.NoteOnEvent(tick=0, channel=6, data=[59, 100])\n",
      "midi.NoteOnEvent(tick=96, channel=6, data=[59, 0])\n",
      "midi.NoteOnEvent(tick=0, channel=6, data=[57, 100])\n",
      "midi.NoteOnEvent(tick=96, channel=6, data=[57, 0])\n",
      "midi.NoteOnEvent(tick=0, channel=6, data=[55, 100])\n",
      "midi.NoteOnEvent(tick=96, channel=6, data=[55, 0])\n",
      "midi.NoteOnEvent(tick=0, channel=6, data=[53, 100])\n",
      "midi.NoteOnEvent(tick=96, channel=6, data=[53, 0])\n",
      "midi.NoteOnEvent(tick=0, channel=6, data=[52, 100])\n",
      "midi.NoteOnEvent(tick=96, channel=6, data=[52, 0])\n",
      "midi.NoteOnEvent(tick=0, channel=6, data=[53, 100])\n",
      "midi.NoteOnEvent(tick=192, channel=6, data=[53, 0])\n",
      "midi.NoteOnEvent(tick=0, channel=6, data=[57, 100])\n",
      "midi.NoteOnEvent(tick=192, channel=6, data=[57, 0])\n",
      "midi.NoteOnEvent(tick=0, channel=6, data=[53, 100])\n",
      "midi.NoteOnEvent(tick=192, channel=6, data=[53, 0])\n",
      "midi.NoteOnEvent(tick=0, channel=6, data=[50, 100])\n",
      "midi.NoteOnEvent(tick=192, channel=6, data=[50, 0])\n",
      "midi.NoteOnEvent(tick=0, channel=6, data=[55, 100])\n",
      "midi.NoteOnEvent(tick=192, channel=6, data=[55, 0])\n",
      "midi.NoteOnEvent(tick=0, channel=6, data=[43, 100])\n",
      "midi.NoteOnEvent(tick=192, channel=6, data=[43, 0])\n",
      "midi.NoteOnEvent(tick=1344, channel=6, data=[59, 100])\n",
      "midi.NoteOnEvent(tick=96, channel=6, data=[59, 0])\n",
      "midi.NoteOnEvent(tick=0, channel=6, data=[57, 100])\n",
      "midi.NoteOnEvent(tick=96, channel=6, data=[57, 0])\n",
      "midi.NoteOnEvent(tick=0, channel=6, data=[55, 100])\n",
      "midi.NoteOnEvent(tick=96, channel=6, data=[55, 0])\n",
      "midi.NoteOnEvent(tick=0, channel=6, data=[53, 100])\n",
      "midi.NoteOnEvent(tick=96, channel=6, data=[53, 0])\n",
      "midi.NoteOnEvent(tick=0, channel=6, data=[52, 100])\n",
      "midi.NoteOnEvent(tick=96, channel=6, data=[52, 0])\n",
      "midi.NoteOnEvent(tick=0, channel=6, data=[50, 100])\n",
      "midi.NoteOnEvent(tick=96, channel=6, data=[50, 0])\n",
      "midi.NoteOnEvent(tick=0, channel=6, data=[52, 100])\n",
      "midi.NoteOnEvent(tick=192, channel=6, data=[52, 0])\n",
      "midi.NoteOnEvent(tick=0, channel=6, data=[55, 100])\n",
      "midi.NoteOnEvent(tick=192, channel=6, data=[55, 0])\n",
      "midi.NoteOnEvent(tick=0, channel=6, data=[52, 100])\n",
      "midi.NoteOnEvent(tick=192, channel=6, data=[52, 0])\n",
      "midi.NoteOnEvent(tick=0, channel=6, data=[48, 100])\n",
      "midi.NoteOnEvent(tick=192, channel=6, data=[48, 0])\n",
      "midi.NoteOnEvent(tick=0, channel=6, data=[53, 100])\n",
      "midi.NoteOnEvent(tick=192, channel=6, data=[53, 0])\n",
      "midi.NoteOnEvent(tick=0, channel=6, data=[41, 100])\n",
      "midi.NoteOnEvent(tick=192, channel=6, data=[41, 0])\n",
      "midi.NoteOnEvent(tick=1344, channel=6, data=[57, 100])\n",
      "midi.NoteOnEvent(tick=96, channel=6, data=[57, 0])\n",
      "midi.NoteOnEvent(tick=0, channel=6, data=[55, 100])\n",
      "midi.NoteOnEvent(tick=96, channel=6, data=[55, 0])\n",
      "midi.NoteOnEvent(tick=0, channel=6, data=[53, 100])\n",
      "midi.NoteOnEvent(tick=96, channel=6, data=[53, 0])\n",
      "midi.NoteOnEvent(tick=0, channel=6, data=[52, 100])\n",
      "midi.NoteOnEvent(tick=96, channel=6, data=[52, 0])\n",
      "midi.NoteOnEvent(tick=0, channel=6, data=[50, 100])\n",
      "midi.NoteOnEvent(tick=96, channel=6, data=[50, 0])\n",
      "midi.NoteOnEvent(tick=0, channel=6, data=[48, 100])\n",
      "midi.NoteOnEvent(tick=96, channel=6, data=[48, 0])\n",
      "midi.NoteOnEvent(tick=0, channel=6, data=[50, 100])\n",
      "midi.NoteOnEvent(tick=96, channel=6, data=[50, 0])\n",
      "midi.NoteOnEvent(tick=0, channel=6, data=[52, 100])\n",
      "midi.NoteOnEvent(tick=96, channel=6, data=[52, 0])\n",
      "midi.NoteOnEvent(tick=0, channel=6, data=[50, 100])\n",
      "midi.NoteOnEvent(tick=96, channel=6, data=[50, 0])\n",
      "midi.NoteOnEvent(tick=0, channel=6, data=[48, 100])\n",
      "midi.NoteOnEvent(tick=96, channel=6, data=[48, 0])\n",
      "midi.NoteOnEvent(tick=0, channel=6, data=[47, 100])\n",
      "midi.NoteOnEvent(tick=96, channel=6, data=[47, 0])\n",
      "midi.NoteOnEvent(tick=0, channel=6, data=[48, 100])\n",
      "midi.NoteOnEvent(tick=96, channel=6, data=[48, 0])\n",
      "midi.NoteOnEvent(tick=0, channel=6, data=[47, 100])\n",
      "midi.NoteOnEvent(tick=96, channel=6, data=[47, 0])\n",
      "midi.NoteOnEvent(tick=0, channel=6, data=[45, 100])\n",
      "midi.NoteOnEvent(tick=96, channel=6, data=[45, 0])\n",
      "midi.NoteOnEvent(tick=0, channel=6, data=[44, 100])\n",
      "midi.NoteOnEvent(tick=96, channel=6, data=[44, 0])\n",
      "midi.NoteOnEvent(tick=0, channel=6, data=[40, 100])\n",
      "midi.NoteOnEvent(tick=96, channel=6, data=[40, 0])\n",
      "midi.NoteOnEvent(tick=0, channel=6, data=[42, 100])\n",
      "midi.NoteOnEvent(tick=96, channel=6, data=[42, 0])\n",
      "midi.NoteOnEvent(tick=0, channel=6, data=[44, 100])\n",
      "midi.NoteOnEvent(tick=96, channel=6, data=[44, 0])\n",
      "midi.NoteOnEvent(tick=0, channel=6, data=[45, 100])\n",
      "midi.NoteOnEvent(tick=96, channel=6, data=[45, 0])\n",
      "midi.NoteOnEvent(tick=0, channel=6, data=[47, 100])\n",
      "midi.NoteOnEvent(tick=96, channel=6, data=[47, 0])\n",
      "midi.NoteOnEvent(tick=0, channel=6, data=[48, 100])\n",
      "midi.NoteOnEvent(tick=96, channel=6, data=[48, 0])\n",
      "midi.NoteOnEvent(tick=0, channel=6, data=[45, 100])\n",
      "midi.NoteOnEvent(tick=96, channel=6, data=[45, 0])\n",
      "midi.NoteOnEvent(tick=0, channel=6, data=[41, 100])\n",
      "midi.NoteOnEvent(tick=192, channel=6, data=[41, 0])\n",
      "midi.NoteOnEvent(tick=0, channel=6, data=[48, 100])\n",
      "midi.NoteOnEvent(tick=192, channel=6, data=[48, 0])\n",
      "midi.NoteOnEvent(tick=0, channel=6, data=[50, 100])\n",
      "midi.NoteOnEvent(tick=192, channel=6, data=[50, 0])\n",
      "midi.NoteOnEvent(tick=0, channel=6, data=[47, 100])\n",
      "midi.NoteOnEvent(tick=192, channel=6, data=[47, 0])\n",
      "midi.NoteOnEvent(tick=0, channel=6, data=[52, 100])\n",
      "midi.NoteOnEvent(tick=288, channel=6, data=[52, 0])\n",
      "midi.NoteOnEvent(tick=0, channel=6, data=[54, 100])\n",
      "midi.NoteOnEvent(tick=48, channel=6, data=[54, 0])\n",
      "midi.NoteOnEvent(tick=0, channel=6, data=[56, 100])\n",
      "midi.NoteOnEvent(tick=48, channel=6, data=[56, 0])\n",
      "midi.NoteOnEvent(tick=0, channel=6, data=[57, 100])\n",
      "midi.NoteOnEvent(tick=96, channel=6, data=[57, 0])\n",
      "midi.NoteOnEvent(tick=0, channel=6, data=[59, 100])\n",
      "midi.NoteOnEvent(tick=96, channel=6, data=[59, 0])\n",
      "midi.NoteOnEvent(tick=0, channel=6, data=[60, 100])\n",
      "midi.NoteOnEvent(tick=96, channel=6, data=[60, 0])\n",
      "midi.NoteOnEvent(tick=0, channel=6, data=[62, 100])\n",
      "midi.NoteOnEvent(tick=96, channel=6, data=[62, 0])\n",
      "midi.NoteOnEvent(tick=0, channel=6, data=[64, 100])\n",
      "midi.NoteOnEvent(tick=192, channel=6, data=[64, 0])\n",
      "midi.NoteOnEvent(tick=0, channel=6, data=[62, 100])\n",
      "midi.NoteOnEvent(tick=192, channel=6, data=[62, 0])\n",
      "midi.NoteOnEvent(tick=0, channel=6, data=[64, 100])\n",
      "midi.NoteOnEvent(tick=192, channel=6, data=[64, 0])\n",
      "midi.NoteOnEvent(tick=0, channel=6, data=[52, 100])\n",
      "midi.NoteOnEvent(tick=192, channel=6, data=[52, 0])\n",
      "midi.NoteOnEvent(tick=0, channel=6, data=[62, 100])\n",
      "midi.NoteOnEvent(tick=192, channel=6, data=[62, 0])\n",
      "midi.NoteOnEvent(tick=0, channel=6, data=[64, 100])\n",
      "midi.NoteOnEvent(tick=192, channel=6, data=[64, 0])\n",
      "midi.NoteOnEvent(tick=0, channel=6, data=[62, 100])\n",
      "midi.NoteOnEvent(tick=192, channel=6, data=[62, 0])\n",
      "midi.NoteOnEvent(tick=0, channel=6, data=[60, 100])\n",
      "midi.NoteOnEvent(tick=192, channel=6, data=[60, 0])\n",
      "midi.NoteOnEvent(tick=0, channel=6, data=[59, 100])\n",
      "midi.NoteOnEvent(tick=192, channel=6, data=[59, 0])\n",
      "midi.NoteOnEvent(tick=0, channel=6, data=[60, 100])\n",
      "midi.NoteOnEvent(tick=192, channel=6, data=[60, 0])\n",
      "midi.NoteOnEvent(tick=0, channel=6, data=[59, 100])\n",
      "midi.NoteOnEvent(tick=192, channel=6, data=[59, 0])\n",
      "midi.NoteOnEvent(tick=0, channel=6, data=[57, 100])\n",
      "midi.NoteOnEvent(tick=192, channel=6, data=[57, 0])\n",
      "midi.NoteOnEvent(tick=0, channel=6, data=[56, 100])\n",
      "midi.NoteOnEvent(tick=192, channel=6, data=[56, 0])\n",
      "midi.NoteOnEvent(tick=0, channel=6, data=[57, 100])\n",
      "midi.NoteOnEvent(tick=192, channel=6, data=[57, 0])\n",
      "midi.NoteOnEvent(tick=0, channel=6, data=[59, 100])\n",
      "midi.NoteOnEvent(tick=192, channel=6, data=[59, 0])\n",
      "midi.NoteOnEvent(tick=0, channel=6, data=[60, 100])\n",
      "midi.NoteOnEvent(tick=192, channel=6, data=[60, 0])\n",
      "midi.NoteOnEvent(tick=0, channel=6, data=[50, 100])\n",
      "midi.NoteOnEvent(tick=192, channel=6, data=[50, 0])\n",
      "midi.NoteOnEvent(tick=0, channel=6, data=[52, 100])\n",
      "midi.NoteOnEvent(tick=192, channel=6, data=[52, 0])\n",
      "midi.NoteOnEvent(tick=0, channel=6, data=[53, 100])\n",
      "midi.NoteOnEvent(tick=192, channel=6, data=[53, 0])\n",
      "midi.NoteOnEvent(tick=0, channel=6, data=[47, 100])\n",
      "midi.NoteOnEvent(tick=192, channel=6, data=[47, 0])\n",
      "midi.NoteOnEvent(tick=0, channel=6, data=[52, 100])\n",
      "midi.NoteOnEvent(tick=192, channel=6, data=[52, 0])\n",
      "midi.NoteOnEvent(tick=0, channel=6, data=[50, 100])\n",
      "midi.NoteOnEvent(tick=96, channel=6, data=[50, 0])\n",
      "midi.NoteOnEvent(tick=0, channel=6, data=[48, 100])\n",
      "midi.NoteOnEvent(tick=96, channel=6, data=[48, 0])\n",
      "midi.NoteOnEvent(tick=0, channel=6, data=[47, 100])\n",
      "midi.NoteOnEvent(tick=192, channel=6, data=[47, 0])\n",
      "midi.NoteOnEvent(tick=0, channel=6, data=[45, 100])\n",
      "midi.NoteOnEvent(tick=192, channel=6, data=[45, 0])\n",
      "midi.NoteOnEvent(tick=0, channel=6, data=[44, 100])\n",
      "midi.NoteOnEvent(tick=192, channel=6, data=[44, 0])\n",
      "midi.NoteOnEvent(tick=0, channel=6, data=[42, 100])\n",
      "midi.NoteOnEvent(tick=192, channel=6, data=[42, 0])\n",
      "midi.NoteOnEvent(tick=0, channel=6, data=[40, 100])\n",
      "midi.NoteOnEvent(tick=192, channel=6, data=[40, 0])\n",
      "midi.NoteOnEvent(tick=0, channel=6, data=[38, 100])\n",
      "midi.NoteOnEvent(tick=192, channel=6, data=[38, 0])\n",
      "midi.NoteOnEvent(tick=0, channel=6, data=[36, 100])\n",
      "midi.NoteOnEvent(tick=192, channel=6, data=[36, 0])\n",
      "midi.NoteOnEvent(tick=0, channel=6, data=[53, 100])\n",
      "midi.NoteOnEvent(tick=192, channel=6, data=[53, 0])\n",
      "midi.NoteOnEvent(tick=0, channel=6, data=[50, 100])\n",
      "midi.NoteOnEvent(tick=192, channel=6, data=[50, 0])\n",
      "midi.NoteOnEvent(tick=0, channel=6, data=[52, 100])\n",
      "midi.NoteOnEvent(tick=192, channel=6, data=[52, 0])\n",
      "midi.NoteOnEvent(tick=0, channel=6, data=[41, 100])\n",
      "midi.NoteOnEvent(tick=384, channel=6, data=[41, 0])\n",
      "midi.NoteOnEvent(tick=192, channel=6, data=[53, 100])\n",
      "midi.NoteOnEvent(tick=192, channel=6, data=[53, 0])\n",
      "midi.NoteOnEvent(tick=0, channel=6, data=[44, 100])\n",
      "midi.NoteOnEvent(tick=192, channel=6, data=[44, 0])\n",
      "midi.NoteOnEvent(tick=0, channel=6, data=[44, 100])\n",
      "midi.NoteOnEvent(tick=192, channel=6, data=[44, 0])\n",
      "midi.NoteOnEvent(tick=0, channel=6, data=[44, 100])\n",
      "midi.NoteOnEvent(tick=192, channel=6, data=[44, 0])\n",
      "midi.NoteOnEvent(tick=0, channel=6, data=[59, 100])\n",
      "midi.NoteOnEvent(tick=192, channel=6, data=[59, 0])\n",
      "midi.NoteOnEvent(tick=0, channel=6, data=[50, 100])\n",
      "midi.NoteOnEvent(tick=192, channel=6, data=[50, 0])\n",
      "midi.NoteOnEvent(tick=0, channel=6, data=[50, 100])\n",
      "midi.NoteOnEvent(tick=192, channel=6, data=[50, 0])\n",
      "midi.NoteOnEvent(tick=0, channel=6, data=[50, 100])\n",
      "midi.NoteOnEvent(tick=192, channel=6, data=[50, 0])\n",
      "midi.NoteOnEvent(tick=0, channel=6, data=[53, 100])\n",
      "midi.NoteOnEvent(tick=192, channel=6, data=[53, 0])\n",
      "midi.NoteOnEvent(tick=0, channel=6, data=[47, 100])\n",
      "midi.NoteOnEvent(tick=192, channel=6, data=[47, 0])\n",
      "midi.NoteOnEvent(tick=0, channel=6, data=[48, 100])\n",
      "midi.NoteOnEvent(tick=96, channel=6, data=[48, 0])\n",
      "midi.NoteOnEvent(tick=0, channel=6, data=[50, 100])\n",
      "midi.NoteOnEvent(tick=96, channel=6, data=[50, 0])\n",
      "midi.NoteOnEvent(tick=0, channel=6, data=[52, 100])\n",
      "midi.NoteOnEvent(tick=192, channel=6, data=[52, 0])\n",
      "midi.NoteOnEvent(tick=0, channel=6, data=[40, 100])\n",
      "midi.NoteOnEvent(tick=192, channel=6, data=[40, 0])\n",
      "midi.NoteOnEvent(tick=0, channel=6, data=[45, 100])\n",
      "midi.NoteOnEvent(tick=576, channel=6, data=[45, 0])\n",
      "midi.EndOfTrackEvent(tick=0, data=[])\n",
      "midi.PortEvent(tick=0, data=[0])\n",
      "midi.TrackNameEvent(tick=0, text='------------------------------------------', data=[45, 45, 45, 45, 45, 45, 45, 45, 45, 45, 45, 45, 45, 45, 45, 45, 45, 45, 45, 45, 45, 45, 45, 45, 45, 45, 45, 45, 45, 45, 45, 45, 45, 45, 45, 45, 45, 45, 45, 45, 45, 45])\n",
      "midi.EndOfTrackEvent(tick=0, data=[])\n",
      "midi.PortEvent(tick=0, data=[0])\n",
      "midi.TrackNameEvent(tick=0, text='Johann Sebastian Bach  (1685-1750)', data=[74, 111, 104, 97, 110, 110, 32, 83, 101, 98, 97, 115, 116, 105, 97, 110, 32, 66, 97, 99, 104, 32, 32, 40, 49, 54, 56, 53, 45, 49, 55, 53, 48, 41])\n",
      "midi.EndOfTrackEvent(tick=0, data=[])\n",
      "midi.PortEvent(tick=0, data=[0])\n",
      "midi.TrackNameEvent(tick=0, text='Violin Concerto No. 1 in A minor - BWV 1041', data=[86, 105, 111, 108, 105, 110, 32, 67, 111, 110, 99, 101, 114, 116, 111, 32, 78, 111, 46, 32, 49, 32, 105, 110, 32, 65, 32, 109, 105, 110, 111, 114, 32, 45, 32, 66, 87, 86, 32, 49, 48, 52, 49])\n",
      "midi.EndOfTrackEvent(tick=0, data=[])\n",
      "midi.PortEvent(tick=0, data=[0])\n",
      "midi.TrackNameEvent(tick=0, text='1st Movement: ( Allegro moderato )', data=[49, 115, 116, 32, 77, 111, 118, 101, 109, 101, 110, 116, 58, 32, 40, 32, 65, 108, 108, 101, 103, 114, 111, 32, 109, 111, 100, 101, 114, 97, 116, 111, 32, 41])\n",
      "midi.EndOfTrackEvent(tick=0, data=[])\n",
      "midi.PortEvent(tick=0, data=[0])\n",
      "midi.TrackNameEvent(tick=0, text='------------------------------------------', data=[45, 45, 45, 45, 45, 45, 45, 45, 45, 45, 45, 45, 45, 45, 45, 45, 45, 45, 45, 45, 45, 45, 45, 45, 45, 45, 45, 45, 45, 45, 45, 45, 45, 45, 45, 45, 45, 45, 45, 45, 45, 45])\n",
      "midi.EndOfTrackEvent(tick=0, data=[])\n"
     ]
    }
   ],
   "source": [
    "# Iterate through to look at contents\n",
    "for line in bwv:\n",
    "    for event in line:\n",
    "        print(event)"
   ]
  },
  {
   "cell_type": "markdown",
   "metadata": {},
   "source": [
    "## Extract the solo in channel 1"
   ]
  },
  {
   "cell_type": "code",
   "execution_count": 7,
   "metadata": {
    "scrolled": true
   },
   "outputs": [
    {
     "name": "stdout",
     "output_type": "stream",
     "text": [
      "midi.Pattern(format=1, resolution=220, tracks=\\\n",
      "[midi.Track(\\\n",
      "  [midi.TrackNameEvent(tick=0, text='untitled', data=[117, 110, 116, 105, 116, 108, 101, 100]),\n",
      "   midi.SmpteOffsetEvent(tick=0, data=[96, 0, 3, 0, 0]),\n",
      "   midi.TimeSignatureEvent(tick=0, data=[2, 2, 24, 8]),\n",
      "   midi.KeySignatureEvent(tick=0, data=[0, 0]),\n",
      "   midi.SetTempoEvent(tick=0, data=[9, 216, 41]),\n",
      "   midi.EndOfTrackEvent(tick=0, data=[])]),\n",
      " midi.Track(\\\n",
      "  [midi.PortEvent(tick=0, data=[0]),\n",
      "   midi.TrackNameEvent(tick=0, text='Solo Violin', data=[83, 111, 108, 111, 32, 86, 105, 111, 108, 105, 110]),\n",
      "   midi.ProgramChangeEvent(tick=0, channel=0, data=[40]),\n",
      "   midi.ControlChangeEvent(tick=0, channel=0, data=[7, 115]),\n",
      "   midi.ControlChangeEvent(tick=0, channel=0, data=[10, 64]),\n",
      "   midi.NoteOnEvent(tick=576, channel=0, data=[76, 100]),\n",
      "   midi.NoteOnEvent(tick=192, channel=0, data=[76, 0]),\n",
      "   midi.NoteOnEvent(tick=0, channel=0, data=[81, 100]),\n",
      "   midi.NoteOnEvent(tick=384, channel=0, data=[81, 0]),\n",
      "   midi.NoteOnEvent(tick=192, channel=0, data=[76, 100]),\n",
      "   midi.NoteOnEvent(tick=192, channel=0, data=[76, 0]),\n",
      "   midi.NoteOnEvent(tick=0, channel=0, data=[77, 100]),\n",
      "   midi.NoteOnEvent(tick=384, channel=0, data=[77, 0]),\n",
      "   midi.NoteOnEvent(tick=192, channel=0, data=[74, 100]),\n",
      "   midi.NoteOnEvent(tick=192, channel=0, data=[74, 0]),\n",
      "   midi.NoteOnEvent(tick=0, channel=0, data=[76, 100]),\n",
      "   midi.NoteOnEvent(tick=96, channel=0, data=[76, 0]),\n",
      "   midi.NoteOnEvent(tick=0, channel=0, data=[74, 100]),\n",
      "   midi.NoteOnEvent(tick=96, channel=0, data=[74, 0]),\n",
      "   midi.NoteOnEvent(tick=0, channel=0, data=[72, 100]),\n",
      "   midi.NoteOnEvent(tick=96, channel=0, data=[72, 0]),\n",
      "   midi.NoteOnEvent(tick=0, channel=0, data=[76, 100]),\n",
      "   midi.NoteOnEvent(tick=96, channel=0, data=[76, 0]),\n",
      "   midi.NoteOnEvent(tick=0, channel=0, data=[74, 100]),\n",
      "   midi.NoteOnEvent(tick=96, channel=0, data=[74, 0]),\n",
      "   midi.NoteOnEvent(tick=0, channel=0, data=[72, 100]),\n",
      "   midi.NoteOnEvent(tick=96, channel=0, data=[72, 0]),\n",
      "   midi.NoteOnEvent(tick=0, channel=0, data=[71, 100]),\n",
      "   midi.NoteOnEvent(tick=96, channel=0, data=[71, 0]),\n",
      "   midi.NoteOnEvent(tick=0, channel=0, data=[74, 100]),\n",
      "   midi.NoteOnEvent(tick=96, channel=0, data=[74, 0]),\n",
      "   midi.NoteOnEvent(tick=0, channel=0, data=[72, 100]),\n",
      "   midi.NoteOnEvent(tick=192, channel=0, data=[72, 0]),\n",
      "   midi.NoteOnEvent(tick=0, channel=0, data=[69, 100]),\n",
      "   midi.NoteOnEvent(tick=192, channel=0, data=[69, 0]),\n",
      "   midi.NoteOnEvent(tick=96, channel=0, data=[69, 100]),\n",
      "   midi.NoteOnEvent(tick=96, channel=0, data=[69, 0]),\n",
      "   midi.NoteOnEvent(tick=0, channel=0, data=[68, 100]),\n",
      "   midi.NoteOnEvent(tick=96, channel=0, data=[68, 0]),\n",
      "   midi.NoteOnEvent(tick=0, channel=0, data=[69, 100]),\n",
      "   midi.NoteOnEvent(tick=96, channel=0, data=[69, 0]),\n",
      "   midi.NoteOnEvent(tick=0, channel=0, data=[71, 100]),\n",
      "   midi.NoteOnEvent(tick=96, channel=0, data=[71, 0]),\n",
      "   midi.NoteOnEvent(tick=0, channel=0, data=[69, 100]),\n",
      "   midi.NoteOnEvent(tick=96, channel=0, data=[69, 0]),\n",
      "   midi.NoteOnEvent(tick=0, channel=0, data=[68, 100]),\n",
      "   midi.NoteOnEvent(tick=96, channel=0, data=[68, 0]),\n",
      "   midi.NoteOnEvent(tick=0, channel=0, data=[69, 100]),\n",
      "   midi.NoteOnEvent(tick=96, channel=0, data=[69, 0]),\n",
      "   midi.NoteOnEvent(tick=0, channel=0, data=[72, 100]),\n",
      "   midi.NoteOnEvent(tick=96, channel=0, data=[72, 0]),\n",
      "   midi.NoteOnEvent(tick=0, channel=0, data=[69, 100]),\n",
      "   midi.NoteOnEvent(tick=96, channel=0, data=[69, 0]),\n",
      "   midi.NoteOnEvent(tick=0, channel=0, data=[68, 100]),\n",
      "   midi.NoteOnEvent(tick=96, channel=0, data=[68, 0]),\n",
      "   midi.NoteOnEvent(tick=0, channel=0, data=[69, 100]),\n",
      "   midi.NoteOnEvent(tick=96, channel=0, data=[69, 0]),\n",
      "   midi.NoteOnEvent(tick=0, channel=0, data=[74, 100]),\n",
      "   midi.NoteOnEvent(tick=96, channel=0, data=[74, 0]),\n",
      "   midi.NoteOnEvent(tick=0, channel=0, data=[69, 100]),\n",
      "   midi.NoteOnEvent(tick=96, channel=0, data=[69, 0]),\n",
      "   midi.NoteOnEvent(tick=0, channel=0, data=[68, 100]),\n",
      "   midi.NoteOnEvent(tick=96, channel=0, data=[68, 0]),\n",
      "   midi.NoteOnEvent(tick=0, channel=0, data=[69, 100]),\n",
      "   midi.NoteOnEvent(tick=96, channel=0, data=[69, 0]),\n",
      "   midi.NoteOnEvent(tick=0, channel=0, data=[76, 100]),\n",
      "   midi.NoteOnEvent(tick=96, channel=0, data=[76, 0]),\n",
      "   midi.NoteOnEvent(tick=0, channel=0, data=[69, 100]),\n",
      "   midi.NoteOnEvent(tick=96, channel=0, data=[69, 0]),\n",
      "   midi.NoteOnEvent(tick=0, channel=0, data=[68, 100]),\n",
      "   midi.NoteOnEvent(tick=96, channel=0, data=[68, 0]),\n",
      "   midi.NoteOnEvent(tick=0, channel=0, data=[69, 100]),\n",
      "   midi.NoteOnEvent(tick=96, channel=0, data=[69, 0]),\n",
      "   midi.NoteOnEvent(tick=0, channel=0, data=[77, 100]),\n",
      "   midi.NoteOnEvent(tick=96, channel=0, data=[77, 0]),\n",
      "   midi.NoteOnEvent(tick=0, channel=0, data=[79, 100]),\n",
      "   midi.NoteOnEvent(tick=96, channel=0, data=[79, 0]),\n",
      "   midi.NoteOnEvent(tick=0, channel=0, data=[77, 100]),\n",
      "   midi.NoteOnEvent(tick=96, channel=0, data=[77, 0]),\n",
      "   midi.NoteOnEvent(tick=0, channel=0, data=[76, 100]),\n",
      "   midi.NoteOnEvent(tick=96, channel=0, data=[76, 0]),\n",
      "   midi.NoteOnEvent(tick=0, channel=0, data=[74, 100]),\n",
      "   midi.NoteOnEvent(tick=96, channel=0, data=[74, 0]),\n",
      "   midi.NoteOnEvent(tick=0, channel=0, data=[72, 100]),\n",
      "   midi.NoteOnEvent(tick=96, channel=0, data=[72, 0]),\n",
      "   midi.NoteOnEvent(tick=0, channel=0, data=[71, 100]),\n",
      "   midi.NoteOnEvent(tick=96, channel=0, data=[71, 0]),\n",
      "   midi.NoteOnEvent(tick=0, channel=0, data=[69, 100]),\n",
      "   midi.NoteOnEvent(tick=96, channel=0, data=[69, 0]),\n",
      "   midi.NoteOnEvent(tick=0, channel=0, data=[68, 100]),\n",
      "   midi.NoteOnEvent(tick=192, channel=0, data=[68, 0]),\n",
      "   midi.NoteOnEvent(tick=0, channel=0, data=[64, 100]),\n",
      "   midi.NoteOnEvent(tick=192, channel=0, data=[64, 0]),\n",
      "   midi.NoteOnEvent(tick=0, channel=0, data=[83, 100]),\n",
      "   midi.NoteOnEvent(tick=576, channel=0, data=[83, 0]),\n",
      "   midi.NoteOnEvent(tick=0, channel=0, data=[81, 100]),\n",
      "   midi.NoteOnEvent(tick=96, channel=0, data=[81, 0]),\n",
      "   midi.NoteOnEvent(tick=0, channel=0, data=[80, 100]),\n",
      "   midi.NoteOnEvent(tick=96, channel=0, data=[80, 0]),\n",
      "   midi.NoteOnEvent(tick=0, channel=0, data=[81, 100]),\n",
      "   midi.NoteOnEvent(tick=192, channel=0, data=[81, 0]),\n",
      "   midi.NoteOnEvent(tick=0, channel=0, data=[84, 100]),\n",
      "   midi.NoteOnEvent(tick=384, channel=0, data=[84, 0]),\n",
      "   midi.NoteOnEvent(tick=0, channel=0, data=[78, 100]),\n",
      "   midi.NoteOnEvent(tick=192, channel=0, data=[78, 0]),\n",
      "   midi.NoteOnEvent(tick=0, channel=0, data=[81, 100]),\n",
      "   midi.NoteOnEvent(tick=576, channel=0, data=[81, 0]),\n",
      "   midi.NoteOnEvent(tick=0, channel=0, data=[79, 100]),\n",
      "   midi.NoteOnEvent(tick=96, channel=0, data=[79, 0]),\n",
      "   midi.NoteOnEvent(tick=0, channel=0, data=[78, 100]),\n",
      "   midi.NoteOnEvent(tick=96, channel=0, data=[78, 0]),\n",
      "   midi.NoteOnEvent(tick=0, channel=0, data=[79, 100]),\n",
      "   midi.NoteOnEvent(tick=192, channel=0, data=[79, 0]),\n",
      "   midi.NoteOnEvent(tick=0, channel=0, data=[83, 100]),\n",
      "   midi.NoteOnEvent(tick=288, channel=0, data=[83, 0]),\n",
      "   midi.NoteOnEvent(tick=0, channel=0, data=[81, 100]),\n",
      "   midi.NoteOnEvent(tick=96, channel=0, data=[81, 0]),\n",
      "   midi.NoteOnEvent(tick=0, channel=0, data=[79, 100]),\n",
      "   midi.NoteOnEvent(tick=96, channel=0, data=[79, 0]),\n",
      "   midi.NoteOnEvent(tick=0, channel=0, data=[78, 100]),\n",
      "   midi.NoteOnEvent(tick=96, channel=0, data=[78, 0]),\n",
      "   midi.NoteOnEvent(tick=0, channel=0, data=[76, 100]),\n",
      "   midi.NoteOnEvent(tick=576, channel=0, data=[76, 0]),\n",
      "   midi.NoteOnEvent(tick=0, channel=0, data=[78, 100]),\n",
      "   midi.NoteOnEvent(tick=96, channel=0, data=[78, 0]),\n",
      "   midi.NoteOnEvent(tick=0, channel=0, data=[79, 100]),\n",
      "   midi.NoteOnEvent(tick=96, channel=0, data=[79, 0]),\n",
      "   midi.NoteOnEvent(tick=0, channel=0, data=[81, 100]),\n",
      "   midi.NoteOnEvent(tick=192, channel=0, data=[81, 0]),\n",
      "   midi.NoteOnEvent(tick=0, channel=0, data=[72, 100]),\n",
      "   midi.NoteOnEvent(tick=192, channel=0, data=[72, 0]),\n",
      "   midi.NoteOnEvent(tick=0, channel=0, data=[71, 100]),\n",
      "   midi.NoteOnEvent(tick=192, channel=0, data=[71, 0]),\n",
      "   midi.NoteOnEvent(tick=0, channel=0, data=[81, 100]),\n",
      "   midi.NoteOnEvent(tick=192, channel=0, data=[81, 0]),\n",
      "   midi.NoteOnEvent(tick=0, channel=0, data=[79, 100]),\n",
      "   midi.NoteOnEvent(tick=192, channel=0, data=[79, 0]),\n",
      "   midi.NoteOnEvent(tick=0, channel=0, data=[71, 100]),\n",
      "   midi.NoteOnEvent(tick=192, channel=0, data=[71, 0]),\n",
      "   midi.NoteOnEvent(tick=0, channel=0, data=[69, 100]),\n",
      "   midi.NoteOnEvent(tick=96, channel=0, data=[69, 0]),\n",
      "   midi.NoteOnEvent(tick=0, channel=0, data=[71, 100]),\n",
      "   midi.NoteOnEvent(tick=96, channel=0, data=[71, 0]),\n",
      "   midi.NoteOnEvent(tick=0, channel=0, data=[72, 100]),\n",
      "   midi.NoteOnEvent(tick=96, channel=0, data=[72, 0]),\n",
      "   midi.NoteOnEvent(tick=0, channel=0, data=[71, 100]),\n",
      "   midi.NoteOnEvent(tick=96, channel=0, data=[71, 0]),\n",
      "   midi.NoteOnEvent(tick=0, channel=0, data=[69, 100]),\n",
      "   midi.NoteOnEvent(tick=96, channel=0, data=[69, 0]),\n",
      "   midi.NoteOnEvent(tick=0, channel=0, data=[67, 100]),\n",
      "   midi.NoteOnEvent(tick=96, channel=0, data=[67, 0]),\n",
      "   midi.NoteOnEvent(tick=0, channel=0, data=[66, 100]),\n",
      "   midi.NoteOnEvent(tick=96, channel=0, data=[66, 0]),\n",
      "   midi.NoteOnEvent(tick=0, channel=0, data=[64, 100]),\n",
      "   midi.NoteOnEvent(tick=96, channel=0, data=[64, 0]),\n",
      "   midi.NoteOnEvent(tick=0, channel=0, data=[63, 100]),\n",
      "   midi.NoteOnEvent(tick=192, channel=0, data=[63, 0]),\n",
      "   midi.NoteOnEvent(tick=0, channel=0, data=[72, 100]),\n",
      "   midi.NoteOnEvent(tick=192, channel=0, data=[72, 0]),\n",
      "   midi.NoteOnEvent(tick=0, channel=0, data=[71, 100]),\n",
      "   midi.NoteOnEvent(tick=192, channel=0, data=[71, 0]),\n",
      "   midi.NoteOnEvent(tick=0, channel=0, data=[76, 100]),\n",
      "   midi.NoteOnEvent(tick=192, channel=0, data=[76, 0]),\n",
      "   midi.NoteOnEvent(tick=0, channel=0, data=[79, 100]),\n",
      "   midi.NoteOnEvent(tick=384, channel=0, data=[79, 0]),\n",
      "   midi.NoteOnEvent(tick=0, channel=0, data=[78, 100]),\n",
      "   midi.NoteOnEvent(tick=48, channel=0, data=[78, 0]),\n",
      "   midi.NoteOnEvent(tick=0, channel=0, data=[79, 100]),\n",
      "   midi.NoteOnEvent(tick=48, channel=0, data=[79, 0]),\n",
      "   midi.NoteOnEvent(tick=0, channel=0, data=[78, 100]),\n",
      "   midi.NoteOnEvent(tick=48, channel=0, data=[78, 0]),\n",
      "   midi.NoteOnEvent(tick=0, channel=0, data=[79, 100]),\n",
      "   midi.NoteOnEvent(tick=48, channel=0, data=[79, 0]),\n",
      "   midi.NoteOnEvent(tick=0, channel=0, data=[78, 100]),\n",
      "   midi.NoteOnEvent(tick=48, channel=0, data=[78, 0]),\n",
      "   midi.NoteOnEvent(tick=0, channel=0, data=[79, 100]),\n",
      "   midi.NoteOnEvent(tick=48, channel=0, data=[79, 0]),\n",
      "   midi.NoteOnEvent(tick=0, channel=0, data=[78, 100]),\n",
      "   midi.NoteOnEvent(tick=48, channel=0, data=[78, 0]),\n",
      "   midi.NoteOnEvent(tick=0, channel=0, data=[79, 100]),\n",
      "   midi.NoteOnEvent(tick=48, channel=0, data=[79, 0]),\n",
      "   midi.NoteOnEvent(tick=0, channel=0, data=[78, 100]),\n",
      "   midi.NoteOnEvent(tick=96, channel=0, data=[78, 0]),\n",
      "   midi.NoteOnEvent(tick=0, channel=0, data=[79, 100]),\n",
      "   midi.NoteOnEvent(tick=96, channel=0, data=[79, 0]),\n",
      "   midi.NoteOnEvent(tick=0, channel=0, data=[81, 100]),\n",
      "   midi.NoteOnEvent(tick=96, channel=0, data=[81, 0]),\n",
      "   midi.NoteOnEvent(tick=0, channel=0, data=[78, 100]),\n",
      "   midi.NoteOnEvent(tick=96, channel=0, data=[78, 0]),\n",
      "   midi.NoteOnEvent(tick=0, channel=0, data=[75, 100]),\n",
      "   midi.NoteOnEvent(tick=96, channel=0, data=[75, 0]),\n",
      "   midi.NoteOnEvent(tick=0, channel=0, data=[76, 100]),\n",
      "   midi.NoteOnEvent(tick=96, channel=0, data=[76, 0]),\n",
      "   midi.NoteOnEvent(tick=0, channel=0, data=[78, 100]),\n",
      "   midi.NoteOnEvent(tick=96, channel=0, data=[78, 0]),\n",
      "   midi.NoteOnEvent(tick=0, channel=0, data=[75, 100]),\n",
      "   midi.NoteOnEvent(tick=96, channel=0, data=[75, 0]),\n",
      "   midi.NoteOnEvent(tick=0, channel=0, data=[83, 100]),\n",
      "   midi.NoteOnEvent(tick=192, channel=0, data=[83, 0]),\n",
      "   midi.NoteOnEvent(tick=0, channel=0, data=[76, 100]),\n",
      "   midi.NoteOnEvent(tick=192, channel=0, data=[76, 0]),\n",
      "   midi.NoteOnEvent(tick=0, channel=0, data=[78, 100]),\n",
      "   midi.NoteOnEvent(tick=192, channel=0, data=[78, 0]),\n",
      "   midi.NoteOnEvent(tick=0, channel=0, data=[75, 100]),\n",
      "   midi.NoteOnEvent(tick=192, channel=0, data=[75, 0]),\n",
      "   midi.NoteOnEvent(tick=0, channel=0, data=[76, 100]),\n",
      "   midi.NoteOnEvent(tick=96, channel=0, data=[76, 0]),\n",
      "   midi.NoteOnEvent(tick=0, channel=0, data=[74, 100]),\n",
      "   midi.NoteOnEvent(tick=96, channel=0, data=[74, 0]),\n",
      "   midi.NoteOnEvent(tick=0, channel=0, data=[72, 100]),\n",
      "   midi.NoteOnEvent(tick=96, channel=0, data=[72, 0]),\n",
      "   midi.NoteOnEvent(tick=0, channel=0, data=[71, 100]),\n",
      "   midi.NoteOnEvent(tick=96, channel=0, data=[71, 0]),\n",
      "   midi.NoteOnEvent(tick=0, channel=0, data=[69, 100]),\n",
      "   midi.NoteOnEvent(tick=192, channel=0, data=[69, 0]),\n",
      "   midi.NoteOnEvent(tick=0, channel=0, data=[69, 100]),\n",
      "   midi.NoteOnEvent(tick=192, channel=0, data=[69, 0]),\n",
      "   midi.NoteOnEvent(tick=0, channel=0, data=[69, 100]),\n",
      "   midi.NoteOnEvent(tick=96, channel=0, data=[69, 0]),\n",
      "   midi.NoteOnEvent(tick=0, channel=0, data=[71, 100]),\n",
      "   midi.NoteOnEvent(tick=96, channel=0, data=[71, 0]),\n",
      "   midi.NoteOnEvent(tick=0, channel=0, data=[72, 100]),\n",
      "   midi.NoteOnEvent(tick=288, channel=0, data=[72, 0]),\n",
      "   midi.NoteOnEvent(tick=0, channel=0, data=[71, 100]),\n",
      "   midi.NoteOnEvent(tick=96, channel=0, data=[71, 0]),\n",
      "   midi.NoteOnEvent(tick=0, channel=0, data=[69, 100]),\n",
      "   midi.NoteOnEvent(tick=96, channel=0, data=[69, 0]),\n",
      "   midi.NoteOnEvent(tick=0, channel=0, data=[67, 100]),\n",
      "   midi.NoteOnEvent(tick=96, channel=0, data=[67, 0]),\n",
      "   midi.NoteOnEvent(tick=0, channel=0, data=[66, 100]),\n",
      "   midi.NoteOnEvent(tick=96, channel=0, data=[66, 0]),\n",
      "   midi.NoteOnEvent(tick=0, channel=0, data=[67, 100]),\n",
      "   midi.NoteOnEvent(tick=96, channel=0, data=[67, 0]),\n",
      "   midi.NoteOnEvent(tick=0, channel=0, data=[69, 100]),\n",
      "   midi.NoteOnEvent(tick=288, channel=0, data=[69, 0]),\n",
      "   midi.NoteOnEvent(tick=0, channel=0, data=[67, 100]),\n",
      "   midi.NoteOnEvent(tick=96, channel=0, data=[67, 0]),\n",
      "   midi.NoteOnEvent(tick=0, channel=0, data=[66, 100]),\n",
      "   midi.NoteOnEvent(tick=96, channel=0, data=[66, 0]),\n",
      "   midi.NoteOnEvent(tick=0, channel=0, data=[64, 100]),\n",
      "   midi.NoteOnEvent(tick=96, channel=0, data=[64, 0]),\n",
      "   midi.NoteOnEvent(tick=0, channel=0, data=[63, 100]),\n",
      "   midi.NoteOnEvent(tick=192, channel=0, data=[63, 0]),\n",
      "   midi.NoteOnEvent(tick=0, channel=0, data=[71, 100]),\n",
      "   midi.NoteOnEvent(tick=192, channel=0, data=[71, 0]),\n",
      "   midi.NoteOnEvent(tick=0, channel=0, data=[67, 100]),\n",
      "   midi.NoteOnEvent(tick=48, channel=0, data=[67, 0]),\n",
      "   midi.NoteOnEvent(tick=0, channel=0, data=[69, 100]),\n",
      "   midi.NoteOnEvent(tick=48, channel=0, data=[69, 0]),\n",
      "   midi.NoteOnEvent(tick=0, channel=0, data=[67, 100]),\n",
      "   midi.NoteOnEvent(tick=48, channel=0, data=[67, 0]),\n",
      "   midi.NoteOnEvent(tick=0, channel=0, data=[69, 100]),\n",
      "   midi.NoteOnEvent(tick=48, channel=0, data=[69, 0]),\n",
      "   midi.NoteOnEvent(tick=0, channel=0, data=[66, 100]),\n",
      "   midi.NoteOnEvent(tick=96, channel=0, data=[66, 0]),\n",
      "   midi.NoteOnEvent(tick=0, channel=0, data=[64, 100]),\n",
      "   midi.NoteOnEvent(tick=96, channel=0, data=[64, 0]),\n",
      "   midi.NoteOnEvent(tick=0, channel=0, data=[64, 100]),\n",
      "   midi.NoteOnEvent(tick=384, channel=0, data=[64, 0]),\n",
      "   midi.NoteOnEvent(tick=96, channel=0, data=[76, 100]),\n",
      "   midi.NoteOnEvent(tick=96, channel=0, data=[76, 0]),\n",
      "   midi.NoteOnEvent(tick=0, channel=0, data=[75, 100]),\n",
      "   midi.NoteOnEvent(tick=96, channel=0, data=[75, 0]),\n",
      "   midi.NoteOnEvent(tick=0, channel=0, data=[76, 100]),\n",
      "   midi.NoteOnEvent(tick=96, channel=0, data=[76, 0]),\n",
      "   midi.NoteOnEvent(tick=0, channel=0, data=[81, 100]),\n",
      "   midi.NoteOnEvent(tick=96, channel=0, data=[81, 0]),\n",
      "   midi.NoteOnEvent(tick=0, channel=0, data=[80, 100]),\n",
      "   midi.NoteOnEvent(tick=96, channel=0, data=[80, 0]),\n",
      "   midi.NoteOnEvent(tick=0, channel=0, data=[81, 100]),\n",
      "   midi.NoteOnEvent(tick=288, channel=0, data=[81, 0]),\n",
      "   midi.NoteOnEvent(tick=0, channel=0, data=[76, 100]),\n",
      "   midi.NoteOnEvent(tick=96, channel=0, data=[76, 0]),\n",
      "   midi.NoteOnEvent(tick=0, channel=0, data=[75, 100]),\n",
      "   midi.NoteOnEvent(tick=96, channel=0, data=[75, 0]),\n",
      "   midi.NoteOnEvent(tick=0, channel=0, data=[76, 100]),\n",
      "   midi.NoteOnEvent(tick=96, channel=0, data=[76, 0]),\n",
      "   midi.NoteOnEvent(tick=0, channel=0, data=[84, 100]),\n",
      "   midi.NoteOnEvent(tick=192, channel=0, data=[84, 0]),\n",
      "   midi.NoteOnEvent(tick=0, channel=0, data=[83, 100]),\n",
      "   midi.NoteOnEvent(tick=288, channel=0, data=[83, 0]),\n",
      "   midi.NoteOnEvent(tick=0, channel=0, data=[76, 100]),\n",
      "   midi.NoteOnEvent(tick=96, channel=0, data=[76, 0]),\n",
      "   midi.NoteOnEvent(tick=0, channel=0, data=[74, 100]),\n",
      "   midi.NoteOnEvent(tick=96, channel=0, data=[74, 0]),\n",
      "   midi.NoteOnEvent(tick=0, channel=0, data=[76, 100]),\n",
      "   midi.NoteOnEvent(tick=96, channel=0, data=[76, 0]),\n",
      "   midi.NoteOnEvent(tick=0, channel=0, data=[83, 100]),\n",
      "   midi.NoteOnEvent(tick=96, channel=0, data=[83, 0]),\n",
      "   midi.NoteOnEvent(tick=0, channel=0, data=[81, 100]),\n",
      "   midi.NoteOnEvent(tick=96, channel=0, data=[81, 0]),\n",
      "   midi.NoteOnEvent(tick=0, channel=0, data=[83, 100]),\n",
      "   midi.NoteOnEvent(tick=288, channel=0, data=[83, 0]),\n",
      "   midi.NoteOnEvent(tick=0, channel=0, data=[76, 100]),\n",
      "   midi.NoteOnEvent(tick=96, channel=0, data=[76, 0]),\n",
      "   midi.NoteOnEvent(tick=0, channel=0, data=[74, 100]),\n",
      "   midi.NoteOnEvent(tick=96, channel=0, data=[74, 0]),\n",
      "   midi.NoteOnEvent(tick=0, channel=0, data=[76, 100]),\n",
      "   midi.NoteOnEvent(tick=96, channel=0, data=[76, 0]),\n",
      "   midi.NoteOnEvent(tick=0, channel=0, data=[86, 100]),\n",
      "   midi.NoteOnEvent(tick=192, channel=0, data=[86, 0]),\n",
      "   midi.NoteOnEvent(tick=0, channel=0, data=[84, 100]),\n",
      "   midi.NoteOnEvent(tick=288, channel=0, data=[84, 0]),\n",
      "   midi.NoteOnEvent(tick=0, channel=0, data=[76, 100]),\n",
      "   midi.NoteOnEvent(tick=96, channel=0, data=[76, 0]),\n",
      "   midi.NoteOnEvent(tick=0, channel=0, data=[74, 100]),\n",
      "   midi.NoteOnEvent(tick=96, channel=0, data=[74, 0]),\n",
      "   midi.NoteOnEvent(tick=0, channel=0, data=[76, 100]),\n",
      "   midi.NoteOnEvent(tick=96, channel=0, data=[76, 0]),\n",
      "   midi.NoteOnEvent(tick=0, channel=0, data=[84, 100]),\n",
      "   midi.NoteOnEvent(tick=96, channel=0, data=[84, 0]),\n",
      "   midi.NoteOnEvent(tick=0, channel=0, data=[83, 100]),\n",
      "   midi.NoteOnEvent(tick=96, channel=0, data=[83, 0]),\n",
      "   midi.NoteOnEvent(tick=0, channel=0, data=[81, 100]),\n",
      "   midi.NoteOnEvent(tick=96, channel=0, data=[81, 0]),\n",
      "   midi.NoteOnEvent(tick=0, channel=0, data=[79, 100]),\n",
      "   midi.NoteOnEvent(tick=96, channel=0, data=[79, 0]),\n",
      "   midi.NoteOnEvent(tick=0, channel=0, data=[77, 100]),\n",
      "   midi.NoteOnEvent(tick=96, channel=0, data=[77, 0]),\n",
      "   midi.NoteOnEvent(tick=0, channel=0, data=[74, 100]),\n",
      "   midi.NoteOnEvent(tick=96, channel=0, data=[74, 0]),\n",
      "   midi.NoteOnEvent(tick=0, channel=0, data=[72, 100]),\n",
      "   midi.NoteOnEvent(tick=96, channel=0, data=[72, 0]),\n",
      "   midi.NoteOnEvent(tick=0, channel=0, data=[74, 100]),\n",
      "   midi.NoteOnEvent(tick=96, channel=0, data=[74, 0]),\n",
      "   midi.NoteOnEvent(tick=0, channel=0, data=[83, 100]),\n",
      "   midi.NoteOnEvent(tick=96, channel=0, data=[83, 0]),\n",
      "   midi.NoteOnEvent(tick=0, channel=0, data=[81, 100]),\n",
      "   midi.NoteOnEvent(tick=96, channel=0, data=[81, 0]),\n",
      "   midi.NoteOnEvent(tick=0, channel=0, data=[79, 100]),\n",
      "   midi.NoteOnEvent(tick=96, channel=0, data=[79, 0]),\n",
      "   midi.NoteOnEvent(tick=0, channel=0, data=[77, 100]),\n",
      "   midi.NoteOnEvent(tick=96, channel=0, data=[77, 0]),\n",
      "   midi.NoteOnEvent(tick=0, channel=0, data=[76, 100]),\n",
      "   midi.NoteOnEvent(tick=96, channel=0, data=[76, 0]),\n",
      "   midi.NoteOnEvent(tick=0, channel=0, data=[72, 100]),\n",
      "   midi.NoteOnEvent(tick=96, channel=0, data=[72, 0]),\n",
      "   midi.NoteOnEvent(tick=0, channel=0, data=[71, 100]),\n",
      "   midi.NoteOnEvent(tick=96, channel=0, data=[71, 0]),\n",
      "   midi.NoteOnEvent(tick=0, channel=0, data=[72, 100]),\n",
      "   midi.NoteOnEvent(tick=96, channel=0, data=[72, 0]),\n",
      "   midi.NoteOnEvent(tick=0, channel=0, data=[81, 100]),\n",
      "   midi.NoteOnEvent(tick=96, channel=0, data=[81, 0]),\n",
      "   midi.NoteOnEvent(tick=0, channel=0, data=[79, 100]),\n",
      "   midi.NoteOnEvent(tick=96, channel=0, data=[79, 0]),\n",
      "   midi.NoteOnEvent(tick=0, channel=0, data=[77, 100]),\n",
      "   midi.NoteOnEvent(tick=96, channel=0, data=[77, 0]),\n",
      "   midi.NoteOnEvent(tick=0, channel=0, data=[76, 100]),\n",
      "   midi.NoteOnEvent(tick=96, channel=0, data=[76, 0]),\n",
      "   midi.NoteOnEvent(tick=0, channel=0, data=[74, 100]),\n",
      "   midi.NoteOnEvent(tick=96, channel=0, data=[74, 0]),\n",
      "   midi.NoteOnEvent(tick=0, channel=0, data=[71, 100]),\n",
      "   midi.NoteOnEvent(tick=96, channel=0, data=[71, 0]),\n",
      "   midi.NoteOnEvent(tick=0, channel=0, data=[69, 100]),\n",
      "   midi.NoteOnEvent(tick=96, channel=0, data=[69, 0]),\n",
      "   midi.NoteOnEvent(tick=0, channel=0, data=[71, 100]),\n",
      "   midi.NoteOnEvent(tick=96, channel=0, data=[71, 0]),\n",
      "   midi.NoteOnEvent(tick=0, channel=0, data=[80, 100]),\n",
      "   midi.NoteOnEvent(tick=96, channel=0, data=[80, 0]),\n",
      "   midi.NoteOnEvent(tick=0, channel=0, data=[81, 100]),\n",
      "   midi.NoteOnEvent(tick=96, channel=0, data=[81, 0]),\n",
      "   midi.NoteOnEvent(tick=0, channel=0, data=[80, 100]),\n",
      "   midi.NoteOnEvent(tick=96, channel=0, data=[80, 0]),\n",
      "   midi.NoteOnEvent(tick=0, channel=0, data=[78, 100]),\n",
      "   midi.NoteOnEvent(tick=96, channel=0, data=[78, 0]),\n",
      "   midi.NoteOnEvent(tick=0, channel=0, data=[76, 100]),\n",
      "   midi.NoteOnEvent(tick=96, channel=0, data=[76, 0]),\n",
      "   midi.NoteOnEvent(tick=0, channel=0, data=[74, 100]),\n",
      "   midi.NoteOnEvent(tick=96, channel=0, data=[74, 0]),\n",
      "   midi.NoteOnEvent(tick=0, channel=0, data=[72, 100]),\n",
      "   midi.NoteOnEvent(tick=96, channel=0, data=[72, 0]),\n",
      "   midi.NoteOnEvent(tick=0, channel=0, data=[71, 100]),\n",
      "   midi.NoteOnEvent(tick=96, channel=0, data=[71, 0]),\n",
      "   midi.NoteOnEvent(tick=0, channel=0, data=[72, 100]),\n",
      "   midi.NoteOnEvent(tick=96, channel=0, data=[72, 0]),\n",
      "   midi.NoteOnEvent(tick=0, channel=0, data=[74, 100]),\n",
      "   midi.NoteOnEvent(tick=96, channel=0, data=[74, 0]),\n",
      "   midi.NoteOnEvent(tick=0, channel=0, data=[72, 100]),\n",
      "   midi.NoteOnEvent(tick=96, channel=0, data=[72, 0]),\n",
      "   midi.NoteOnEvent(tick=0, channel=0, data=[71, 100]),\n",
      "   midi.NoteOnEvent(tick=96, channel=0, data=[71, 0]),\n",
      "   midi.NoteOnEvent(tick=0, channel=0, data=[69, 100]),\n",
      "   midi.NoteOnEvent(tick=96, channel=0, data=[69, 0]),\n",
      "   midi.NoteOnEvent(tick=0, channel=0, data=[81, 100]),\n",
      "   midi.NoteOnEvent(tick=96, channel=0, data=[81, 0]),\n",
      "   midi.NoteOnEvent(tick=0, channel=0, data=[76, 100]),\n",
      "   midi.NoteOnEvent(tick=96, channel=0, data=[76, 0]),\n",
      "   midi.NoteOnEvent(tick=0, channel=0, data=[79, 100]),\n",
      "   midi.NoteOnEvent(tick=96, channel=0, data=[79, 0]),\n",
      "   midi.NoteOnEvent(tick=0, channel=0, data=[77, 100]),\n",
      "   midi.NoteOnEvent(tick=96, channel=0, data=[77, 0]),\n",
      "   midi.NoteOnEvent(tick=0, channel=0, data=[79, 100]),\n",
      "   midi.NoteOnEvent(tick=96, channel=0, data=[79, 0]),\n",
      "   midi.NoteOnEvent(tick=0, channel=0, data=[77, 100]),\n",
      "   midi.NoteOnEvent(tick=96, channel=0, data=[77, 0]),\n",
      "   midi.NoteOnEvent(tick=0, channel=0, data=[76, 100]),\n",
      "   midi.NoteOnEvent(tick=96, channel=0, data=[76, 0]),\n",
      "   midi.NoteOnEvent(tick=0, channel=0, data=[74, 100]),\n",
      "   midi.NoteOnEvent(tick=96, channel=0, data=[74, 0]),\n",
      "   midi.NoteOnEvent(tick=0, channel=0, data=[72, 100]),\n",
      "   midi.NoteOnEvent(tick=96, channel=0, data=[72, 0]),\n",
      "   midi.NoteOnEvent(tick=0, channel=0, data=[71, 100]),\n",
      "   midi.NoteOnEvent(tick=96, channel=0, data=[71, 0]),\n",
      "   midi.NoteOnEvent(tick=0, channel=0, data=[69, 100]),\n",
      "   midi.NoteOnEvent(tick=96, channel=0, data=[69, 0]),\n",
      "   midi.NoteOnEvent(tick=0, channel=0, data=[71, 100]),\n",
      "   midi.NoteOnEvent(tick=96, channel=0, data=[71, 0]),\n",
      "   midi.NoteOnEvent(tick=0, channel=0, data=[72, 100]),\n",
      "   midi.NoteOnEvent(tick=96, channel=0, data=[72, 0]),\n",
      "   midi.NoteOnEvent(tick=0, channel=0, data=[71, 100]),\n",
      "   midi.NoteOnEvent(tick=96, channel=0, data=[71, 0]),\n",
      "   midi.NoteOnEvent(tick=0, channel=0, data=[69, 100]),\n",
      "   midi.NoteOnEvent(tick=96, channel=0, data=[69, 0]),\n",
      "   midi.NoteOnEvent(tick=0, channel=0, data=[67, 100]),\n",
      "   midi.NoteOnEvent(tick=96, channel=0, data=[67, 0]),\n",
      "   midi.NoteOnEvent(tick=0, channel=0, data=[79, 100]),\n",
      "   midi.NoteOnEvent(tick=96, channel=0, data=[79, 0]),\n",
      "   midi.NoteOnEvent(tick=0, channel=0, data=[74, 100]),\n",
      "   midi.NoteOnEvent(tick=96, channel=0, data=[74, 0]),\n",
      "   midi.NoteOnEvent(tick=0, channel=0, data=[77, 100]),\n",
      "   midi.NoteOnEvent(tick=96, channel=0, data=[77, 0]),\n",
      "   midi.NoteOnEvent(tick=0, channel=0, data=[76, 100]),\n",
      "   midi.NoteOnEvent(tick=96, channel=0, data=[76, 0]),\n",
      "   midi.NoteOnEvent(tick=0, channel=0, data=[77, 100]),\n",
      "   midi.NoteOnEvent(tick=96, channel=0, data=[77, 0]),\n",
      "   midi.NoteOnEvent(tick=0, channel=0, data=[76, 100]),\n",
      "   midi.NoteOnEvent(tick=96, channel=0, data=[76, 0]),\n",
      "   midi.NoteOnEvent(tick=0, channel=0, data=[74, 100]),\n",
      "   midi.NoteOnEvent(tick=96, channel=0, data=[74, 0]),\n",
      "   midi.NoteOnEvent(tick=0, channel=0, data=[72, 100]),\n",
      "   midi.NoteOnEvent(tick=96, channel=0, data=[72, 0]),\n",
      "   midi.NoteOnEvent(tick=0, channel=0, data=[71, 100]),\n",
      "   midi.NoteOnEvent(tick=96, channel=0, data=[71, 0]),\n",
      "   midi.NoteOnEvent(tick=0, channel=0, data=[69, 100]),\n",
      "   midi.NoteOnEvent(tick=96, channel=0, data=[69, 0]),\n",
      "   midi.NoteOnEvent(tick=0, channel=0, data=[67, 100]),\n",
      "   midi.NoteOnEvent(tick=96, channel=0, data=[67, 0]),\n",
      "   midi.NoteOnEvent(tick=0, channel=0, data=[69, 100]),\n",
      "   midi.NoteOnEvent(tick=96, channel=0, data=[69, 0]),\n",
      "   midi.NoteOnEvent(tick=0, channel=0, data=[70, 100]),\n",
      "   midi.NoteOnEvent(tick=96, channel=0, data=[70, 0]),\n",
      "   midi.NoteOnEvent(tick=0, channel=0, data=[69, 100]),\n",
      "   midi.NoteOnEvent(tick=96, channel=0, data=[69, 0]),\n",
      "   midi.NoteOnEvent(tick=0, channel=0, data=[67, 100]),\n",
      "   midi.NoteOnEvent(tick=96, channel=0, data=[67, 0]),\n",
      "   midi.NoteOnEvent(tick=0, channel=0, data=[65, 100]),\n",
      "   midi.NoteOnEvent(tick=96, channel=0, data=[65, 0]),\n",
      "   midi.NoteOnEvent(tick=0, channel=0, data=[77, 100]),\n",
      "   midi.NoteOnEvent(tick=96, channel=0, data=[77, 0]),\n",
      "   midi.NoteOnEvent(tick=0, channel=0, data=[72, 100]),\n",
      "   midi.NoteOnEvent(tick=96, channel=0, data=[72, 0]),\n",
      "   midi.NoteOnEvent(tick=0, channel=0, data=[76, 100]),\n",
      "   midi.NoteOnEvent(tick=96, channel=0, data=[76, 0]),\n",
      "   midi.NoteOnEvent(tick=0, channel=0, data=[74, 100]),\n",
      "   midi.NoteOnEvent(tick=96, channel=0, data=[74, 0]),\n",
      "   midi.NoteOnEvent(tick=0, channel=0, data=[76, 100]),\n",
      "   midi.NoteOnEvent(tick=96, channel=0, data=[76, 0]),\n",
      "   midi.NoteOnEvent(tick=0, channel=0, data=[74, 100]),\n",
      "   midi.NoteOnEvent(tick=96, channel=0, data=[74, 0]),\n",
      "   midi.NoteOnEvent(tick=0, channel=0, data=[72, 100]),\n",
      "   midi.NoteOnEvent(tick=96, channel=0, data=[72, 0]),\n",
      "   midi.NoteOnEvent(tick=0, channel=0, data=[71, 100]),\n",
      "   midi.NoteOnEvent(tick=96, channel=0, data=[71, 0]),\n",
      "   midi.NoteOnEvent(tick=0, channel=0, data=[69, 100]),\n",
      "   midi.NoteOnEvent(tick=96, channel=0, data=[69, 0]),\n",
      "   midi.NoteOnEvent(tick=0, channel=0, data=[68, 100]),\n",
      "   midi.NoteOnEvent(tick=96, channel=0, data=[68, 0]),\n",
      "   midi.NoteOnEvent(tick=0, channel=0, data=[66, 100]),\n",
      "   midi.NoteOnEvent(tick=96, channel=0, data=[66, 0]),\n",
      "   midi.NoteOnEvent(tick=0, channel=0, data=[68, 100]),\n",
      "   midi.NoteOnEvent(tick=96, channel=0, data=[68, 0]),\n",
      "   midi.NoteOnEvent(tick=0, channel=0, data=[69, 100]),\n",
      "   midi.NoteOnEvent(tick=96, channel=0, data=[69, 0]),\n",
      "   midi.NoteOnEvent(tick=0, channel=0, data=[68, 100]),\n",
      "   midi.NoteOnEvent(tick=96, channel=0, data=[68, 0]),\n",
      "   midi.NoteOnEvent(tick=0, channel=0, data=[66, 100]),\n",
      "   midi.NoteOnEvent(tick=96, channel=0, data=[66, 0]),\n",
      "   midi.NoteOnEvent(tick=0, channel=0, data=[64, 100]),\n",
      "   midi.NoteOnEvent(tick=96, channel=0, data=[64, 0]),\n",
      "   midi.NoteOnEvent(tick=0, channel=0, data=[76, 100]),\n",
      "   midi.NoteOnEvent(tick=96, channel=0, data=[76, 0]),\n",
      "   midi.NoteOnEvent(tick=0, channel=0, data=[71, 100]),\n",
      "   midi.NoteOnEvent(tick=96, channel=0, data=[71, 0]),\n",
      "   midi.NoteOnEvent(tick=0, channel=0, data=[74, 100]),\n",
      "   midi.NoteOnEvent(tick=96, channel=0, data=[74, 0]),\n",
      "   midi.NoteOnEvent(tick=0, channel=0, data=[72, 100]),\n",
      "   midi.NoteOnEvent(tick=96, channel=0, data=[72, 0]),\n",
      "   midi.NoteOnEvent(tick=0, channel=0, data=[74, 100]),\n",
      "   midi.NoteOnEvent(tick=96, channel=0, data=[74, 0]),\n",
      "   midi.NoteOnEvent(tick=0, channel=0, data=[72, 100]),\n",
      "   midi.NoteOnEvent(tick=96, channel=0, data=[72, 0]),\n",
      "   midi.NoteOnEvent(tick=0, channel=0, data=[71, 100]),\n",
      "   midi.NoteOnEvent(tick=96, channel=0, data=[71, 0]),\n",
      "   midi.NoteOnEvent(tick=0, channel=0, data=[69, 100]),\n",
      "   midi.NoteOnEvent(tick=96, channel=0, data=[69, 0]),\n",
      "   midi.NoteOnEvent(tick=0, channel=0, data=[81, 100]),\n",
      "   midi.NoteOnEvent(tick=96, channel=0, data=[81, 0]),\n",
      "   midi.NoteOnEvent(tick=0, channel=0, data=[76, 100]),\n",
      "   midi.NoteOnEvent(tick=96, channel=0, data=[76, 0]),\n",
      "   midi.NoteOnEvent(tick=0, channel=0, data=[79, 100]),\n",
      "   midi.NoteOnEvent(tick=96, channel=0, data=[79, 0]),\n",
      "   midi.NoteOnEvent(tick=0, channel=0, data=[77, 100]),\n",
      "   midi.NoteOnEvent(tick=96, channel=0, data=[77, 0]),\n",
      "   midi.NoteOnEvent(tick=0, channel=0, data=[79, 100]),\n",
      "   midi.NoteOnEvent(tick=96, channel=0, data=[79, 0]),\n",
      "   midi.NoteOnEvent(tick=0, channel=0, data=[77, 100]),\n",
      "   midi.NoteOnEvent(tick=96, channel=0, data=[77, 0]),\n",
      "   midi.NoteOnEvent(tick=0, channel=0, data=[76, 100]),\n",
      "   midi.NoteOnEvent(tick=96, channel=0, data=[76, 0]),\n",
      "   midi.NoteOnEvent(tick=0, channel=0, data=[74, 100]),\n",
      "   midi.NoteOnEvent(tick=96, channel=0, data=[74, 0]),\n",
      "   midi.NoteOnEvent(tick=0, channel=0, data=[77, 100]),\n",
      "   midi.NoteOnEvent(tick=96, channel=0, data=[77, 0]),\n",
      "   midi.NoteOnEvent(tick=0, channel=0, data=[71, 100]),\n",
      "   midi.NoteOnEvent(tick=96, channel=0, data=[71, 0]),\n",
      "   midi.NoteOnEvent(tick=0, channel=0, data=[74, 100]),\n",
      "   midi.NoteOnEvent(tick=96, channel=0, data=[74, 0]),\n",
      "   midi.NoteOnEvent(tick=0, channel=0, data=[76, 100]),\n",
      "   midi.NoteOnEvent(tick=96, channel=0, data=[76, 0]),\n",
      "   midi.NoteOnEvent(tick=0, channel=0, data=[74, 100]),\n",
      "   midi.NoteOnEvent(tick=96, channel=0, data=[74, 0]),\n",
      "   midi.NoteOnEvent(tick=0, channel=0, data=[72, 100]),\n",
      "   midi.NoteOnEvent(tick=96, channel=0, data=[72, 0]),\n",
      "   midi.NoteOnEvent(tick=0, channel=0, data=[76, 100]),\n",
      "   midi.NoteOnEvent(tick=96, channel=0, data=[76, 0]),\n",
      "   midi.NoteOnEvent(tick=0, channel=0, data=[74, 100]),\n",
      "   midi.NoteOnEvent(tick=96, channel=0, data=[74, 0]),\n",
      "   midi.NoteOnEvent(tick=0, channel=0, data=[72, 100]),\n",
      "   midi.NoteOnEvent(tick=96, channel=0, data=[72, 0]),\n",
      "   midi.NoteOnEvent(tick=0, channel=0, data=[71, 100]),\n",
      "   midi.NoteOnEvent(tick=96, channel=0, data=[71, 0]),\n",
      "   midi.NoteOnEvent(tick=0, channel=0, data=[74, 100]),\n",
      "   midi.NoteOnEvent(tick=96, channel=0, data=[74, 0]),\n",
      "   midi.NoteOnEvent(tick=0, channel=0, data=[72, 100]),\n",
      "   midi.NoteOnEvent(tick=192, channel=0, data=[72, 0]),\n",
      "   midi.NoteOnEvent(tick=0, channel=0, data=[69, 100]),\n",
      "   midi.NoteOnEvent(tick=192, channel=0, data=[69, 0]),\n",
      "   midi.NoteOnEvent(tick=96, channel=0, data=[64, 100]),\n",
      "   midi.NoteOnEvent(tick=96, channel=0, data=[64, 0]),\n",
      "   midi.NoteOnEvent(tick=0, channel=0, data=[69, 100]),\n",
      "   midi.NoteOnEvent(tick=96, channel=0, data=[69, 0]),\n",
      "   midi.NoteOnEvent(tick=0, channel=0, data=[72, 100]),\n",
      "   midi.NoteOnEvent(tick=96, channel=0, data=[72, 0]),\n",
      "   midi.NoteOnEvent(tick=0, channel=0, data=[77, 100]),\n",
      "   midi.NoteOnEvent(tick=48, channel=0, data=[77, 0]),\n",
      "   midi.NoteOnEvent(tick=0, channel=0, data=[79, 100]),\n",
      "   midi.NoteOnEvent(tick=48, channel=0, data=[79, 0]),\n",
      "   midi.NoteOnEvent(tick=0, channel=0, data=[81, 100]),\n",
      "   midi.NoteOnEvent(tick=192, channel=0, data=[81, 0]),\n",
      "   midi.NoteOnEvent(tick=0, channel=0, data=[77, 100]),\n",
      "   midi.NoteOnEvent(tick=96, channel=0, data=[77, 0]),\n",
      "   midi.NoteOnEvent(tick=0, channel=0, data=[75, 100]),\n",
      "   midi.NoteOnEvent(tick=48, channel=0, data=[75, 0]),\n",
      "   midi.NoteOnEvent(tick=0, channel=0, data=[76, 100]),\n",
      "   midi.NoteOnEvent(tick=48, channel=0, data=[76, 0]),\n",
      "   midi.NoteOnEvent(tick=0, channel=0, data=[78, 100]),\n",
      "   midi.NoteOnEvent(tick=192, channel=0, data=[78, 0]),\n",
      "   midi.NoteOnEvent(tick=0, channel=0, data=[75, 100]),\n",
      "   midi.NoteOnEvent(tick=96, channel=0, data=[75, 0]),\n",
      "   midi.NoteOnEvent(tick=0, channel=0, data=[76, 100]),\n",
      "   midi.NoteOnEvent(tick=96, channel=0, data=[76, 0]),\n",
      "   midi.NoteOnEvent(tick=0, channel=0, data=[71, 100]),\n",
      "   midi.NoteOnEvent(tick=96, channel=0, data=[71, 0]),\n",
      "   midi.NoteOnEvent(tick=0, channel=0, data=[67, 100]),\n",
      "   midi.NoteOnEvent(tick=96, channel=0, data=[67, 0]),\n",
      "   midi.NoteOnEvent(tick=0, channel=0, data=[64, 100]),\n",
      "   midi.NoteOnEvent(tick=96, channel=0, data=[64, 0]),\n",
      "   midi.NoteOnEvent(tick=0, channel=0, data=[63, 100]),\n",
      "   midi.NoteOnEvent(tick=96, channel=0, data=[63, 0]),\n",
      "   midi.NoteOnEvent(tick=0, channel=0, data=[64, 100]),\n",
      "   midi.NoteOnEvent(tick=96, channel=0, data=[64, 0]),\n",
      "   midi.NoteOnEvent(tick=0, channel=0, data=[67, 100]),\n",
      "   midi.NoteOnEvent(tick=96, channel=0, data=[67, 0]),\n",
      "   midi.NoteOnEvent(tick=0, channel=0, data=[71, 100]),\n",
      "   midi.NoteOnEvent(tick=96, channel=0, data=[71, 0]),\n",
      "   midi.NoteOnEvent(tick=0, channel=0, data=[76, 100]),\n",
      "   midi.NoteOnEvent(tick=48, channel=0, data=[76, 0]),\n",
      "   midi.NoteOnEvent(tick=0, channel=0, data=[77, 100]),\n",
      "   midi.NoteOnEvent(tick=48, channel=0, data=[77, 0]),\n",
      "   midi.NoteOnEvent(tick=0, channel=0, data=[79, 100]),\n",
      "   midi.NoteOnEvent(tick=192, channel=0, data=[79, 0]),\n",
      "   midi.NoteOnEvent(tick=0, channel=0, data=[76, 100]),\n",
      "   midi.NoteOnEvent(tick=96, channel=0, data=[76, 0]),\n",
      "   midi.NoteOnEvent(tick=0, channel=0, data=[73, 100]),\n",
      "   midi.NoteOnEvent(tick=48, channel=0, data=[73, 0]),\n",
      "   midi.NoteOnEvent(tick=0, channel=0, data=[74, 100]),\n",
      "   midi.NoteOnEvent(tick=48, channel=0, data=[74, 0]),\n",
      "   midi.NoteOnEvent(tick=0, channel=0, data=[76, 100]),\n",
      "   midi.NoteOnEvent(tick=192, channel=0, data=[76, 0]),\n",
      "   midi.NoteOnEvent(tick=0, channel=0, data=[73, 100]),\n",
      "   midi.NoteOnEvent(tick=96, channel=0, data=[73, 0]),\n",
      "   midi.NoteOnEvent(tick=0, channel=0, data=[74, 100]),\n",
      "   midi.NoteOnEvent(tick=96, channel=0, data=[74, 0]),\n",
      "   midi.NoteOnEvent(tick=0, channel=0, data=[69, 100]),\n",
      "   midi.NoteOnEvent(tick=96, channel=0, data=[69, 0]),\n",
      "   midi.NoteOnEvent(tick=0, channel=0, data=[65, 100]),\n",
      "   midi.NoteOnEvent(tick=96, channel=0, data=[65, 0]),\n",
      "   midi.NoteOnEvent(tick=0, channel=0, data=[62, 100]),\n",
      "   midi.NoteOnEvent(tick=96, channel=0, data=[62, 0]),\n",
      "   midi.NoteOnEvent(tick=0, channel=0, data=[61, 100]),\n",
      "   midi.NoteOnEvent(tick=96, channel=0, data=[61, 0]),\n",
      "   midi.NoteOnEvent(tick=0, channel=0, data=[62, 100]),\n",
      "   midi.NoteOnEvent(tick=96, channel=0, data=[62, 0]),\n",
      "   midi.NoteOnEvent(tick=0, channel=0, data=[65, 100]),\n",
      "   midi.NoteOnEvent(tick=96, channel=0, data=[65, 0]),\n",
      "   midi.NoteOnEvent(tick=0, channel=0, data=[69, 100]),\n",
      "   midi.NoteOnEvent(tick=96, channel=0, data=[69, 0]),\n",
      "   midi.NoteOnEvent(tick=0, channel=0, data=[74, 100]),\n",
      "   midi.NoteOnEvent(tick=48, channel=0, data=[74, 0]),\n",
      "   midi.NoteOnEvent(tick=0, channel=0, data=[76, 100]),\n",
      "   midi.NoteOnEvent(tick=48, channel=0, data=[76, 0]),\n",
      "   midi.NoteOnEvent(tick=0, channel=0, data=[77, 100]),\n",
      "   midi.NoteOnEvent(tick=192, channel=0, data=[77, 0]),\n",
      "   midi.NoteOnEvent(tick=0, channel=0, data=[74, 100]),\n",
      "   midi.NoteOnEvent(tick=96, channel=0, data=[74, 0]),\n",
      "   midi.NoteOnEvent(tick=0, channel=0, data=[71, 100]),\n",
      "   midi.NoteOnEvent(tick=48, channel=0, data=[71, 0]),\n",
      "   midi.NoteOnEvent(tick=0, channel=0, data=[72, 100]),\n",
      "   midi.NoteOnEvent(tick=48, channel=0, data=[72, 0]),\n",
      "   midi.NoteOnEvent(tick=0, channel=0, data=[74, 100]),\n",
      "   midi.NoteOnEvent(tick=192, channel=0, data=[74, 0]),\n",
      "   midi.NoteOnEvent(tick=0, channel=0, data=[71, 100]),\n",
      "   midi.NoteOnEvent(tick=96, channel=0, data=[71, 0]),\n",
      "   midi.NoteOnEvent(tick=0, channel=0, data=[72, 100]),\n",
      "   midi.NoteOnEvent(tick=96, channel=0, data=[72, 0]),\n",
      "   midi.NoteOnEvent(tick=0, channel=0, data=[67, 100]),\n",
      "   midi.NoteOnEvent(tick=96, channel=0, data=[67, 0]),\n",
      "   midi.NoteOnEvent(tick=0, channel=0, data=[69, 100]),\n",
      "   midi.NoteOnEvent(tick=96, channel=0, data=[69, 0]),\n",
      "   midi.NoteOnEvent(tick=0, channel=0, data=[71, 100]),\n",
      "   midi.NoteOnEvent(tick=96, channel=0, data=[71, 0]),\n",
      "   midi.NoteOnEvent(tick=0, channel=0, data=[72, 100]),\n",
      "   midi.NoteOnEvent(tick=96, channel=0, data=[72, 0]),\n",
      "   midi.NoteOnEvent(tick=0, channel=0, data=[67, 100]),\n",
      "   midi.NoteOnEvent(tick=96, channel=0, data=[67, 0]),\n",
      "   midi.NoteOnEvent(tick=0, channel=0, data=[74, 100]),\n",
      "   midi.NoteOnEvent(tick=96, channel=0, data=[74, 0]),\n",
      "   midi.NoteOnEvent(tick=0, channel=0, data=[67, 100]),\n",
      "   midi.NoteOnEvent(tick=96, channel=0, data=[67, 0]),\n",
      "   midi.NoteOnEvent(tick=0, channel=0, data=[76, 100]),\n",
      "   midi.NoteOnEvent(tick=96, channel=0, data=[76, 0]),\n",
      "   midi.NoteOnEvent(tick=0, channel=0, data=[71, 100]),\n",
      "   midi.NoteOnEvent(tick=96, channel=0, data=[71, 0]),\n",
      "   midi.NoteOnEvent(tick=0, channel=0, data=[72, 100]),\n",
      "   midi.NoteOnEvent(tick=96, channel=0, data=[72, 0]),\n",
      "   midi.NoteOnEvent(tick=0, channel=0, data=[74, 100]),\n",
      "   midi.NoteOnEvent(tick=96, channel=0, data=[74, 0]),\n",
      "   midi.NoteOnEvent(tick=0, channel=0, data=[76, 100]),\n",
      "   midi.NoteOnEvent(tick=96, channel=0, data=[76, 0]),\n",
      "   midi.NoteOnEvent(tick=0, channel=0, data=[72, 100]),\n",
      "   midi.NoteOnEvent(tick=96, channel=0, data=[72, 0]),\n",
      "   midi.NoteOnEvent(tick=0, channel=0, data=[78, 100]),\n",
      "   midi.NoteOnEvent(tick=96, channel=0, data=[78, 0]),\n",
      "   midi.NoteOnEvent(tick=0, channel=0, data=[72, 100]),\n",
      "   midi.NoteOnEvent(tick=96, channel=0, data=[72, 0]),\n",
      "   midi.NoteOnEvent(tick=0, channel=0, data=[79, 100]),\n",
      "   midi.NoteOnEvent(tick=96, channel=0, data=[79, 0]),\n",
      "   midi.NoteOnEvent(tick=0, channel=0, data=[67, 100]),\n",
      "   midi.NoteOnEvent(tick=96, channel=0, data=[67, 0]),\n",
      "   midi.NoteOnEvent(tick=0, channel=0, data=[71, 100]),\n",
      "   midi.NoteOnEvent(tick=96, channel=0, data=[71, 0]),\n",
      "   midi.NoteOnEvent(tick=0, channel=0, data=[74, 100]),\n",
      "   midi.NoteOnEvent(tick=96, channel=0, data=[74, 0]),\n",
      "   midi.NoteOnEvent(tick=0, channel=0, data=[79, 100]),\n",
      "   midi.NoteOnEvent(tick=480, channel=0, data=[79, 0]),\n",
      "   midi.NoteOnEvent(tick=0, channel=0, data=[72, 100]),\n",
      "   midi.NoteOnEvent(tick=96, channel=0, data=[72, 0]),\n",
      "   midi.NoteOnEvent(tick=0, channel=0, data=[76, 100]),\n",
      "   midi.NoteOnEvent(tick=96, channel=0, data=[76, 0]),\n",
      "   midi.NoteOnEvent(tick=0, channel=0, data=[79, 100]),\n",
      "   midi.NoteOnEvent(tick=96, channel=0, data=[79, 0]),\n",
      "   midi.NoteOnEvent(tick=0, channel=0, data=[84, 100]),\n",
      "   midi.NoteOnEvent(tick=480, channel=0, data=[84, 0]),\n",
      "   midi.NoteOnEvent(tick=0, channel=0, data=[72, 100]),\n",
      "   midi.NoteOnEvent(tick=96, channel=0, data=[72, 0]),\n",
      "   midi.NoteOnEvent(tick=0, channel=0, data=[76, 100]),\n",
      "   midi.NoteOnEvent(tick=96, channel=0, data=[76, 0]),\n",
      "   midi.NoteOnEvent(tick=0, channel=0, data=[79, 100]),\n",
      "   midi.NoteOnEvent(tick=96, channel=0, data=[79, 0]),\n",
      "   midi.NoteOnEvent(tick=0, channel=0, data=[84, 100]),\n",
      "   midi.NoteOnEvent(tick=576, channel=0, data=[84, 0]),\n",
      "   midi.NoteOnEvent(tick=0, channel=0, data=[72, 100]),\n",
      "   midi.NoteOnEvent(tick=192, channel=0, data=[72, 0]),\n",
      "   midi.NoteOnEvent(tick=0, channel=0, data=[74, 100]),\n",
      "   midi.NoteOnEvent(tick=192, channel=0, data=[74, 0]),\n",
      "   midi.NoteOnEvent(tick=0, channel=0, data=[83, 100]),\n",
      "   midi.NoteOnEvent(tick=192, channel=0, data=[83, 0]),\n",
      "   midi.NoteOnEvent(tick=0, channel=0, data=[84, 100]),\n",
      "   midi.NoteOnEvent(tick=96, channel=0, data=[84, 0]),\n",
      "   midi.NoteOnEvent(tick=0, channel=0, data=[79, 100]),\n",
      "   midi.NoteOnEvent(tick=96, channel=0, data=[79, 0]),\n",
      "   midi.NoteOnEvent(tick=0, channel=0, data=[76, 100]),\n",
      "   midi.NoteOnEvent(tick=96, channel=0, data=[76, 0]),\n",
      "   midi.NoteOnEvent(tick=0, channel=0, data=[72, 100]),\n",
      "   midi.NoteOnEvent(tick=96, channel=0, data=[72, 0]),\n",
      "   midi.NoteOnEvent(tick=0, channel=0, data=[60, 100]),\n",
      "   midi.NoteOnEvent(tick=96, channel=0, data=[60, 0]),\n",
      "   midi.NoteOnEvent(tick=0, channel=0, data=[72, 100]),\n",
      "   midi.NoteOnEvent(tick=96, channel=0, data=[72, 0]),\n",
      "   midi.NoteOnEvent(tick=0, channel=0, data=[71, 100]),\n",
      "   midi.NoteOnEvent(tick=96, channel=0, data=[71, 0]),\n",
      "   midi.NoteOnEvent(tick=0, channel=0, data=[72, 100]),\n",
      "   midi.NoteOnEvent(tick=96, channel=0, data=[72, 0]),\n",
      "   midi.NoteOnEvent(tick=0, channel=0, data=[74, 100]),\n",
      "   midi.NoteOnEvent(tick=96, channel=0, data=[74, 0]),\n",
      "   midi.NoteOnEvent(tick=0, channel=0, data=[72, 100]),\n",
      "   midi.NoteOnEvent(tick=96, channel=0, data=[72, 0]),\n",
      "   midi.NoteOnEvent(tick=0, channel=0, data=[71, 100]),\n",
      "   midi.NoteOnEvent(tick=96, channel=0, data=[71, 0]),\n",
      "   midi.NoteOnEvent(tick=0, channel=0, data=[72, 100]),\n",
      "   midi.NoteOnEvent(tick=96, channel=0, data=[72, 0]),\n",
      "   midi.NoteOnEvent(tick=0, channel=0, data=[76, 100]),\n",
      "   midi.NoteOnEvent(tick=96, channel=0, data=[76, 0]),\n",
      "   midi.NoteOnEvent(tick=0, channel=0, data=[72, 100]),\n",
      "   midi.NoteOnEvent(tick=96, channel=0, data=[72, 0]),\n",
      "   midi.NoteOnEvent(tick=0, channel=0, data=[71, 100]),\n",
      "   midi.NoteOnEvent(tick=96, channel=0, data=[71, 0]),\n",
      "   midi.NoteOnEvent(tick=0, channel=0, data=[72, 100]),\n",
      "   midi.NoteOnEvent(tick=96, channel=0, data=[72, 0]),\n",
      "   midi.NoteOnEvent(tick=0, channel=0, data=[77, 100]),\n",
      "   midi.NoteOnEvent(tick=96, channel=0, data=[77, 0]),\n",
      "   midi.NoteOnEvent(tick=0, channel=0, data=[72, 100]),\n",
      "   midi.NoteOnEvent(tick=96, channel=0, data=[72, 0]),\n",
      "   midi.NoteOnEvent(tick=0, channel=0, data=[71, 100]),\n",
      "   midi.NoteOnEvent(tick=96, channel=0, data=[71, 0]),\n",
      "   midi.NoteOnEvent(tick=0, channel=0, data=[72, 100]),\n",
      "   midi.NoteOnEvent(tick=96, channel=0, data=[72, 0]),\n",
      "   midi.NoteOnEvent(tick=0, channel=0, data=[79, 100]),\n",
      "   midi.NoteOnEvent(tick=96, channel=0, data=[79, 0]),\n",
      "   midi.NoteOnEvent(tick=0, channel=0, data=[72, 100]),\n",
      "   midi.NoteOnEvent(tick=96, channel=0, data=[72, 0]),\n",
      "   midi.NoteOnEvent(tick=0, channel=0, data=[71, 100]),\n",
      "   midi.NoteOnEvent(tick=96, channel=0, data=[71, 0]),\n",
      "   midi.NoteOnEvent(tick=0, channel=0, data=[72, 100]),\n",
      "   midi.NoteOnEvent(tick=96, channel=0, data=[72, 0]),\n",
      "   midi.NoteOnEvent(tick=0, channel=0, data=[81, 100]),\n",
      "   midi.NoteOnEvent(tick=96, channel=0, data=[81, 0]),\n",
      "   midi.NoteOnEvent(tick=0, channel=0, data=[82, 100]),\n",
      "   midi.NoteOnEvent(tick=96, channel=0, data=[82, 0]),\n",
      "   midi.NoteOnEvent(tick=0, channel=0, data=[81, 100]),\n",
      "   midi.NoteOnEvent(tick=96, channel=0, data=[81, 0]),\n",
      "   midi.NoteOnEvent(tick=0, channel=0, data=[79, 100]),\n",
      "   midi.NoteOnEvent(tick=96, channel=0, data=[79, 0]),\n",
      "   midi.NoteOnEvent(tick=0, channel=0, data=[77, 100]),\n",
      "   midi.NoteOnEvent(tick=96, channel=0, data=[77, 0]),\n",
      "   midi.NoteOnEvent(tick=0, channel=0, data=[76, 100]),\n",
      "   midi.NoteOnEvent(tick=96, channel=0, data=[76, 0]),\n",
      "   midi.NoteOnEvent(tick=0, channel=0, data=[74, 100]),\n",
      "   midi.NoteOnEvent(tick=96, channel=0, data=[74, 0]),\n",
      "   midi.NoteOnEvent(tick=0, channel=0, data=[72, 100]),\n",
      "   midi.NoteOnEvent(tick=96, channel=0, data=[72, 0]),\n",
      "   midi.NoteOnEvent(tick=0, channel=0, data=[71, 100]),\n",
      "   midi.NoteOnEvent(tick=192, channel=0, data=[71, 0]),\n",
      "   midi.NoteOnEvent(tick=0, channel=0, data=[67, 100]),\n",
      "   midi.NoteOnEvent(tick=192, channel=0, data=[67, 0]),\n",
      "   midi.NoteOnEvent(tick=0, channel=0, data=[83, 100]),\n",
      "   midi.NoteOnEvent(tick=576, channel=0, data=[83, 0]),\n",
      "   midi.NoteOnEvent(tick=0, channel=0, data=[81, 100]),\n",
      "   midi.NoteOnEvent(tick=96, channel=0, data=[81, 0]),\n",
      "   midi.NoteOnEvent(tick=0, channel=0, data=[80, 100]),\n",
      "   midi.NoteOnEvent(tick=96, channel=0, data=[80, 0]),\n",
      "   midi.NoteOnEvent(tick=0, channel=0, data=[81, 100]),\n",
      "   midi.NoteOnEvent(tick=192, channel=0, data=[81, 0]),\n",
      "   midi.NoteOnEvent(tick=0, channel=0, data=[84, 100]),\n",
      "   midi.NoteOnEvent(tick=384, channel=0, data=[84, 0]),\n",
      "   midi.NoteOnEvent(tick=0, channel=0, data=[78, 100]),\n",
      "   midi.NoteOnEvent(tick=96, channel=0, data=[78, 0]),\n",
      "   midi.NoteOnEvent(tick=0, channel=0, data=[79, 100]),\n",
      "   midi.NoteOnEvent(tick=96, channel=0, data=[79, 0]),\n",
      "   midi.NoteOnEvent(tick=0, channel=0, data=[81, 100]),\n",
      "   midi.NoteOnEvent(tick=96, channel=0, data=[81, 0]),\n",
      "   midi.NoteOnEvent(tick=0, channel=0, data=[78, 100]),\n",
      "   midi.NoteOnEvent(tick=96, channel=0, data=[78, 0]),\n",
      "   midi.NoteOnEvent(tick=0, channel=0, data=[79, 100]),\n",
      "   midi.NoteOnEvent(tick=96, channel=0, data=[79, 0]),\n",
      "   midi.NoteOnEvent(tick=0, channel=0, data=[76, 100]),\n",
      "   midi.NoteOnEvent(tick=96, channel=0, data=[76, 0]),\n",
      "   midi.NoteOnEvent(tick=0, channel=0, data=[78, 100]),\n",
      "   midi.NoteOnEvent(tick=96, channel=0, data=[78, 0]),\n",
      "   midi.NoteOnEvent(tick=0, channel=0, data=[74, 100]),\n",
      "   midi.NoteOnEvent(tick=96, channel=0, data=[74, 0]),\n",
      "   midi.NoteOnEvent(tick=0, channel=0, data=[73, 100]),\n",
      "   midi.NoteOnEvent(tick=96, channel=0, data=[73, 0]),\n",
      "   midi.NoteOnEvent(tick=0, channel=0, data=[74, 100]),\n",
      "   midi.NoteOnEvent(tick=96, channel=0, data=[74, 0]),\n",
      "   midi.NoteOnEvent(tick=0, channel=0, data=[78, 100]),\n",
      "   midi.NoteOnEvent(tick=96, channel=0, data=[78, 0]),\n",
      "   midi.NoteOnEvent(tick=0, channel=0, data=[74, 100]),\n",
      "   midi.NoteOnEvent(tick=96, channel=0, data=[74, 0]),\n",
      "   midi.NoteOnEvent(tick=0, channel=0, data=[81, 100]),\n",
      "   midi.NoteOnEvent(tick=96, channel=0, data=[81, 0]),\n",
      "   midi.NoteOnEvent(tick=0, channel=0, data=[78, 100]),\n",
      "   midi.NoteOnEvent(tick=96, channel=0, data=[78, 0]),\n",
      "   midi.NoteOnEvent(tick=0, channel=0, data=[86, 100]),\n",
      "   midi.NoteOnEvent(tick=192, channel=0, data=[86, 0]),\n",
      "   midi.NoteOnEvent(tick=0, channel=0, data=[74, 100]),\n",
      "   midi.NoteOnEvent(tick=192, channel=0, data=[74, 0]),\n",
      "   midi.NoteOnEvent(tick=0, channel=0, data=[81, 100]),\n",
      "   midi.NoteOnEvent(tick=576, channel=0, data=[81, 0]),\n",
      "   midi.NoteOnEvent(tick=0, channel=0, data=[79, 100]),\n",
      "   midi.NoteOnEvent(tick=96, channel=0, data=[79, 0]),\n",
      "   midi.NoteOnEvent(tick=0, channel=0, data=[78, 100]),\n",
      "   midi.NoteOnEvent(tick=96, channel=0, data=[78, 0]),\n",
      "   midi.NoteOnEvent(tick=0, channel=0, data=[79, 100]),\n",
      "   midi.NoteOnEvent(tick=192, channel=0, data=[79, 0]),\n",
      "   midi.NoteOnEvent(tick=0, channel=0, data=[83, 100]),\n",
      "   midi.NoteOnEvent(tick=384, channel=0, data=[83, 0]),\n",
      "   midi.NoteOnEvent(tick=0, channel=0, data=[76, 100]),\n",
      "   midi.NoteOnEvent(tick=96, channel=0, data=[76, 0]),\n",
      "   midi.NoteOnEvent(tick=0, channel=0, data=[78, 100]),\n",
      "   midi.NoteOnEvent(tick=96, channel=0, data=[78, 0]),\n",
      "   midi.NoteOnEvent(tick=0, channel=0, data=[79, 100]),\n",
      "   midi.NoteOnEvent(tick=96, channel=0, data=[79, 0]),\n",
      "   midi.NoteOnEvent(tick=0, channel=0, data=[76, 100]),\n",
      "   midi.NoteOnEvent(tick=96, channel=0, data=[76, 0]),\n",
      "   midi.NoteOnEvent(tick=0, channel=0, data=[78, 100]),\n",
      "   midi.NoteOnEvent(tick=96, channel=0, data=[78, 0]),\n",
      "   midi.NoteOnEvent(tick=0, channel=0, data=[75, 100]),\n",
      "   midi.NoteOnEvent(tick=96, channel=0, data=[75, 0]),\n",
      "   midi.NoteOnEvent(tick=0, channel=0, data=[76, 100]),\n",
      "   midi.NoteOnEvent(tick=96, channel=0, data=[76, 0]),\n",
      "   midi.NoteOnEvent(tick=0, channel=0, data=[72, 100]),\n",
      "   midi.NoteOnEvent(tick=96, channel=0, data=[72, 0]),\n",
      "   midi.NoteOnEvent(tick=0, channel=0, data=[71, 100]),\n",
      "   midi.NoteOnEvent(tick=96, channel=0, data=[71, 0]),\n",
      "   midi.NoteOnEvent(tick=0, channel=0, data=[72, 100]),\n",
      "   midi.NoteOnEvent(tick=96, channel=0, data=[72, 0]),\n",
      "   midi.NoteOnEvent(tick=0, channel=0, data=[76, 100]),\n",
      "   midi.NoteOnEvent(tick=96, channel=0, data=[76, 0]),\n",
      "   midi.NoteOnEvent(tick=0, channel=0, data=[72, 100]),\n",
      "   midi.NoteOnEvent(tick=96, channel=0, data=[72, 0]),\n",
      "   midi.NoteOnEvent(tick=0, channel=0, data=[79, 100]),\n",
      "   midi.NoteOnEvent(tick=96, channel=0, data=[79, 0]),\n",
      "   midi.NoteOnEvent(tick=0, channel=0, data=[76, 100]),\n",
      "   midi.NoteOnEvent(tick=96, channel=0, data=[76, 0]),\n",
      "   midi.NoteOnEvent(tick=0, channel=0, data=[84, 100]),\n",
      "   midi.NoteOnEvent(tick=192, channel=0, data=[84, 0]),\n",
      "   midi.NoteOnEvent(tick=0, channel=0, data=[72, 100]),\n",
      "   midi.NoteOnEvent(tick=192, channel=0, data=[72, 0]),\n",
      "   midi.NoteOnEvent(tick=0, channel=0, data=[79, 100]),\n",
      "   midi.NoteOnEvent(tick=576, channel=0, data=[79, 0]),\n",
      "   midi.NoteOnEvent(tick=0, channel=0, data=[78, 100]),\n",
      "   midi.NoteOnEvent(tick=96, channel=0, data=[78, 0]),\n",
      "   midi.NoteOnEvent(tick=0, channel=0, data=[79, 100]),\n",
      "   midi.NoteOnEvent(tick=96, channel=0, data=[79, 0]),\n",
      "   midi.NoteOnEvent(tick=0, channel=0, data=[81, 100]),\n",
      "   midi.NoteOnEvent(tick=192, channel=0, data=[81, 0]),\n",
      "   midi.NoteOnEvent(tick=0, channel=0, data=[72, 100]),\n",
      "   midi.NoteOnEvent(tick=192, channel=0, data=[72, 0]),\n",
      "   midi.NoteOnEvent(tick=0, channel=0, data=[71, 100]),\n",
      "   midi.NoteOnEvent(tick=192, channel=0, data=[71, 0]),\n",
      "   midi.NoteOnEvent(tick=0, channel=0, data=[81, 100]),\n",
      "   midi.NoteOnEvent(tick=192, channel=0, data=[81, 0]),\n",
      "   midi.NoteOnEvent(tick=0, channel=0, data=[79, 100]),\n",
      "   midi.NoteOnEvent(tick=192, channel=0, data=[79, 0]),\n",
      "   midi.NoteOnEvent(tick=0, channel=0, data=[71, 100]),\n",
      "   midi.NoteOnEvent(tick=192, channel=0, data=[71, 0]),\n",
      "   midi.NoteOnEvent(tick=0, channel=0, data=[69, 100]),\n",
      "   midi.NoteOnEvent(tick=96, channel=0, data=[69, 0]),\n",
      "   midi.NoteOnEvent(tick=0, channel=0, data=[71, 100]),\n",
      "   midi.NoteOnEvent(tick=96, channel=0, data=[71, 0]),\n",
      "   midi.NoteOnEvent(tick=0, channel=0, data=[72, 100]),\n",
      "   midi.NoteOnEvent(tick=96, channel=0, data=[72, 0]),\n",
      "   midi.NoteOnEvent(tick=0, channel=0, data=[71, 100]),\n",
      "   midi.NoteOnEvent(tick=96, channel=0, data=[71, 0]),\n",
      "   midi.NoteOnEvent(tick=0, channel=0, data=[69, 100]),\n",
      "   midi.NoteOnEvent(tick=96, channel=0, data=[69, 0]),\n",
      "   midi.NoteOnEvent(tick=0, channel=0, data=[67, 100]),\n",
      "   midi.NoteOnEvent(tick=96, channel=0, data=[67, 0]),\n",
      "   midi.NoteOnEvent(tick=0, channel=0, data=[66, 100]),\n",
      "   midi.NoteOnEvent(tick=96, channel=0, data=[66, 0]),\n",
      "   midi.NoteOnEvent(tick=0, channel=0, data=[64, 100]),\n",
      "   midi.NoteOnEvent(tick=96, channel=0, data=[64, 0]),\n",
      "   midi.NoteOnEvent(tick=0, channel=0, data=[63, 100]),\n",
      "   midi.NoteOnEvent(tick=192, channel=0, data=[63, 0]),\n",
      "   midi.NoteOnEvent(tick=0, channel=0, data=[72, 100]),\n",
      "   midi.NoteOnEvent(tick=192, channel=0, data=[72, 0]),\n",
      "   midi.NoteOnEvent(tick=0, channel=0, data=[71, 100]),\n",
      "   midi.NoteOnEvent(tick=192, channel=0, data=[71, 0]),\n",
      "   midi.NoteOnEvent(tick=0, channel=0, data=[76, 100]),\n",
      "   midi.NoteOnEvent(tick=192, channel=0, data=[76, 0]),\n",
      "   midi.NoteOnEvent(tick=0, channel=0, data=[79, 100]),\n",
      "   midi.NoteOnEvent(tick=384, channel=0, data=[79, 0]),\n",
      "   midi.NoteOnEvent(tick=0, channel=0, data=[78, 100]),\n",
      "   midi.NoteOnEvent(tick=48, channel=0, data=[78, 0]),\n",
      "   midi.NoteOnEvent(tick=0, channel=0, data=[79, 100]),\n",
      "   midi.NoteOnEvent(tick=48, channel=0, data=[79, 0]),\n",
      "   midi.NoteOnEvent(tick=0, channel=0, data=[78, 100]),\n",
      "   midi.NoteOnEvent(tick=48, channel=0, data=[78, 0]),\n",
      "   midi.NoteOnEvent(tick=0, channel=0, data=[79, 100]),\n",
      "   midi.NoteOnEvent(tick=48, channel=0, data=[79, 0]),\n",
      "   midi.NoteOnEvent(tick=0, channel=0, data=[78, 100]),\n",
      "   midi.NoteOnEvent(tick=48, channel=0, data=[78, 0]),\n",
      "   midi.NoteOnEvent(tick=0, channel=0, data=[79, 100]),\n",
      "   midi.NoteOnEvent(tick=48, channel=0, data=[79, 0]),\n",
      "   midi.NoteOnEvent(tick=0, channel=0, data=[78, 100]),\n",
      "   midi.NoteOnEvent(tick=48, channel=0, data=[78, 0]),\n",
      "   midi.NoteOnEvent(tick=0, channel=0, data=[79, 100]),\n",
      "   midi.NoteOnEvent(tick=48, channel=0, data=[79, 0]),\n",
      "   midi.NoteOnEvent(tick=0, channel=0, data=[78, 100]),\n",
      "   midi.NoteOnEvent(tick=96, channel=0, data=[78, 0]),\n",
      "   midi.NoteOnEvent(tick=0, channel=0, data=[79, 100]),\n",
      "   midi.NoteOnEvent(tick=96, channel=0, data=[79, 0]),\n",
      "   midi.NoteOnEvent(tick=0, channel=0, data=[81, 100]),\n",
      "   midi.NoteOnEvent(tick=96, channel=0, data=[81, 0]),\n",
      "   midi.NoteOnEvent(tick=0, channel=0, data=[79, 100]),\n",
      "   midi.NoteOnEvent(tick=96, channel=0, data=[79, 0]),\n",
      "   midi.NoteOnEvent(tick=0, channel=0, data=[78, 100]),\n",
      "   midi.NoteOnEvent(tick=96, channel=0, data=[78, 0]),\n",
      "   midi.NoteOnEvent(tick=0, channel=0, data=[81, 100]),\n",
      "   midi.NoteOnEvent(tick=96, channel=0, data=[81, 0]),\n",
      "   midi.NoteOnEvent(tick=0, channel=0, data=[76, 100]),\n",
      "   midi.NoteOnEvent(tick=96, channel=0, data=[76, 0]),\n",
      "   midi.NoteOnEvent(tick=0, channel=0, data=[81, 100]),\n",
      "   midi.NoteOnEvent(tick=96, channel=0, data=[81, 0]),\n",
      "   midi.NoteOnEvent(tick=0, channel=0, data=[75, 100]),\n",
      "   midi.NoteOnEvent(tick=96, channel=0, data=[75, 0]),\n",
      "   midi.NoteOnEvent(tick=0, channel=0, data=[76, 100]),\n",
      "   midi.NoteOnEvent(tick=96, channel=0, data=[76, 0]),\n",
      "   midi.NoteOnEvent(tick=0, channel=0, data=[78, 100]),\n",
      "   midi.NoteOnEvent(tick=96, channel=0, data=[78, 0]),\n",
      "   midi.NoteOnEvent(tick=0, channel=0, data=[76, 100]),\n",
      "   midi.NoteOnEvent(tick=96, channel=0, data=[76, 0]),\n",
      "   midi.NoteOnEvent(tick=0, channel=0, data=[75, 100]),\n",
      "   midi.NoteOnEvent(tick=96, channel=0, data=[75, 0]),\n",
      "   midi.NoteOnEvent(tick=0, channel=0, data=[78, 100]),\n",
      "   midi.NoteOnEvent(tick=96, channel=0, data=[78, 0]),\n",
      "   midi.NoteOnEvent(tick=0, channel=0, data=[72, 100]),\n",
      "   midi.NoteOnEvent(tick=96, channel=0, data=[72, 0]),\n",
      "   midi.NoteOnEvent(tick=0, channel=0, data=[78, 100]),\n",
      "   midi.NoteOnEvent(tick=96, channel=0, data=[78, 0]),\n",
      "   midi.NoteOnEvent(tick=0, channel=0, data=[69, 100]),\n",
      "   midi.NoteOnEvent(tick=96, channel=0, data=[69, 0]),\n",
      "   midi.NoteOnEvent(tick=0, channel=0, data=[71, 100]),\n",
      "   midi.NoteOnEvent(tick=96, channel=0, data=[71, 0]),\n",
      "   midi.NoteOnEvent(tick=0, channel=0, data=[72, 100]),\n",
      "   midi.NoteOnEvent(tick=96, channel=0, data=[72, 0]),\n",
      "   midi.NoteOnEvent(tick=0, channel=0, data=[71, 100]),\n",
      "   midi.NoteOnEvent(tick=96, channel=0, data=[71, 0]),\n",
      "   midi.NoteOnEvent(tick=0, channel=0, data=[69, 100]),\n",
      "   midi.NoteOnEvent(tick=96, channel=0, data=[69, 0]),\n",
      "   midi.NoteOnEvent(tick=0, channel=0, data=[72, 100]),\n",
      "   midi.NoteOnEvent(tick=96, channel=0, data=[72, 0]),\n",
      "   midi.NoteOnEvent(tick=0, channel=0, data=[67, 100]),\n",
      "   midi.NoteOnEvent(tick=96, channel=0, data=[67, 0]),\n",
      "   midi.NoteOnEvent(tick=0, channel=0, data=[72, 100]),\n",
      "   midi.NoteOnEvent(tick=96, channel=0, data=[72, 0]),\n",
      "   midi.NoteOnEvent(tick=0, channel=0, data=[66, 100]),\n",
      "   midi.NoteOnEvent(tick=96, channel=0, data=[66, 0]),\n",
      "   midi.NoteOnEvent(tick=0, channel=0, data=[67, 100]),\n",
      "   midi.NoteOnEvent(tick=96, channel=0, data=[67, 0]),\n",
      "   midi.NoteOnEvent(tick=0, channel=0, data=[69, 100]),\n",
      "   midi.NoteOnEvent(tick=96, channel=0, data=[69, 0]),\n",
      "   midi.NoteOnEvent(tick=0, channel=0, data=[67, 100]),\n",
      "   midi.NoteOnEvent(tick=96, channel=0, data=[67, 0]),\n",
      "   midi.NoteOnEvent(tick=0, channel=0, data=[66, 100]),\n",
      "   midi.NoteOnEvent(tick=96, channel=0, data=[66, 0]),\n",
      "   midi.NoteOnEvent(tick=0, channel=0, data=[69, 100]),\n",
      "   midi.NoteOnEvent(tick=96, channel=0, data=[69, 0]),\n",
      "   midi.NoteOnEvent(tick=0, channel=0, data=[64, 100]),\n",
      "   midi.NoteOnEvent(tick=96, channel=0, data=[64, 0]),\n",
      "   midi.NoteOnEvent(tick=0, channel=0, data=[69, 100]),\n",
      "   midi.NoteOnEvent(tick=96, channel=0, data=[69, 0]),\n",
      "   midi.NoteOnEvent(tick=0, channel=0, data=[63, 100]),\n",
      "   midi.NoteOnEvent(tick=96, channel=0, data=[63, 0]),\n",
      "   midi.NoteOnEvent(tick=0, channel=0, data=[69, 100]),\n",
      "   midi.NoteOnEvent(tick=96, channel=0, data=[69, 0]),\n",
      "   midi.NoteOnEvent(tick=0, channel=0, data=[59, 100]),\n",
      "   midi.NoteOnEvent(tick=96, channel=0, data=[59, 0]),\n",
      "   midi.NoteOnEvent(tick=0, channel=0, data=[61, 100]),\n",
      "   midi.NoteOnEvent(tick=96, channel=0, data=[61, 0]),\n",
      "   midi.NoteOnEvent(tick=0, channel=0, data=[63, 100]),\n",
      "   midi.NoteOnEvent(tick=96, channel=0, data=[63, 0]),\n",
      "   midi.NoteOnEvent(tick=0, channel=0, data=[64, 100]),\n",
      "   midi.NoteOnEvent(tick=96, channel=0, data=[64, 0]),\n",
      "   midi.NoteOnEvent(tick=0, channel=0, data=[66, 100]),\n",
      "   midi.NoteOnEvent(tick=96, channel=0, data=[66, 0]),\n",
      "   midi.NoteOnEvent(tick=0, channel=0, data=[67, 100]),\n",
      "   midi.NoteOnEvent(tick=96, channel=0, data=[67, 0]),\n",
      "   midi.NoteOnEvent(tick=0, channel=0, data=[69, 100]),\n",
      "   midi.NoteOnEvent(tick=96, channel=0, data=[69, 0]),\n",
      "   midi.NoteOnEvent(tick=0, channel=0, data=[71, 100]),\n",
      "   midi.NoteOnEvent(tick=96, channel=0, data=[71, 0]),\n",
      "   midi.NoteOnEvent(tick=0, channel=0, data=[73, 100]),\n",
      "   midi.NoteOnEvent(tick=96, channel=0, data=[73, 0]),\n",
      "   midi.NoteOnEvent(tick=0, channel=0, data=[75, 100]),\n",
      "   midi.NoteOnEvent(tick=96, channel=0, data=[75, 0]),\n",
      "   midi.NoteOnEvent(tick=0, channel=0, data=[76, 100]),\n",
      "   midi.NoteOnEvent(tick=96, channel=0, data=[76, 0]),\n",
      "   midi.NoteOnEvent(tick=0, channel=0, data=[78, 100]),\n",
      "   midi.NoteOnEvent(tick=96, channel=0, data=[78, 0]),\n",
      "   midi.NoteOnEvent(tick=0, channel=0, data=[79, 100]),\n",
      "   midi.NoteOnEvent(tick=96, channel=0, data=[79, 0]),\n",
      "   midi.NoteOnEvent(tick=0, channel=0, data=[81, 100]),\n",
      "   midi.NoteOnEvent(tick=96, channel=0, data=[81, 0]),\n",
      "   midi.NoteOnEvent(tick=0, channel=0, data=[83, 100]),\n",
      "   midi.NoteOnEvent(tick=192, channel=0, data=[83, 0]),\n",
      "   midi.NoteOnEvent(tick=0, channel=0, data=[76, 100]),\n",
      "   midi.NoteOnEvent(tick=192, channel=0, data=[76, 0]),\n",
      "   midi.NoteOnEvent(tick=0, channel=0, data=[78, 100]),\n",
      "   midi.NoteOnEvent(tick=192, channel=0, data=[78, 0]),\n",
      "   midi.NoteOnEvent(tick=0, channel=0, data=[75, 100]),\n",
      "   midi.NoteOnEvent(tick=192, channel=0, data=[75, 0]),\n",
      "   midi.NoteOnEvent(tick=0, channel=0, data=[76, 100]),\n",
      "   midi.NoteOnEvent(tick=96, channel=0, data=[76, 0]),\n",
      "   midi.NoteOnEvent(tick=0, channel=0, data=[74, 100]),\n",
      "   midi.NoteOnEvent(tick=96, channel=0, data=[74, 0]),\n",
      "   midi.NoteOnEvent(tick=0, channel=0, data=[72, 100]),\n",
      "   midi.NoteOnEvent(tick=96, channel=0, data=[72, 0]),\n",
      "   midi.NoteOnEvent(tick=0, channel=0, data=[71, 100]),\n",
      "   midi.NoteOnEvent(tick=96, channel=0, data=[71, 0]),\n",
      "   midi.NoteOnEvent(tick=0, channel=0, data=[69, 100]),\n",
      "   midi.NoteOnEvent(tick=192, channel=0, data=[69, 0]),\n",
      "   midi.NoteOnEvent(tick=0, channel=0, data=[69, 100]),\n",
      "   midi.NoteOnEvent(tick=192, channel=0, data=[69, 0]),\n",
      "   midi.NoteOnEvent(tick=0, channel=0, data=[69, 100]),\n",
      "   midi.NoteOnEvent(tick=96, channel=0, data=[69, 0]),\n",
      "   midi.NoteOnEvent(tick=0, channel=0, data=[71, 100]),\n",
      "   midi.NoteOnEvent(tick=96, channel=0, data=[71, 0]),\n",
      "   midi.NoteOnEvent(tick=0, channel=0, data=[72, 100]),\n",
      "   midi.NoteOnEvent(tick=288, channel=0, data=[72, 0]),\n",
      "   midi.NoteOnEvent(tick=0, channel=0, data=[71, 100]),\n",
      "   midi.NoteOnEvent(tick=96, channel=0, data=[71, 0]),\n",
      "   midi.NoteOnEvent(tick=0, channel=0, data=[69, 100]),\n",
      "   midi.NoteOnEvent(tick=96, channel=0, data=[69, 0]),\n",
      "   midi.NoteOnEvent(tick=0, channel=0, data=[67, 100]),\n",
      "   midi.NoteOnEvent(tick=96, channel=0, data=[67, 0]),\n",
      "   midi.NoteOnEvent(tick=0, channel=0, data=[66, 100]),\n",
      "   midi.NoteOnEvent(tick=96, channel=0, data=[66, 0]),\n",
      "   midi.NoteOnEvent(tick=0, channel=0, data=[67, 100]),\n",
      "   midi.NoteOnEvent(tick=96, channel=0, data=[67, 0]),\n",
      "   midi.NoteOnEvent(tick=0, channel=0, data=[69, 100]),\n",
      "   midi.NoteOnEvent(tick=288, channel=0, data=[69, 0]),\n",
      "   midi.NoteOnEvent(tick=0, channel=0, data=[67, 100]),\n",
      "   midi.NoteOnEvent(tick=96, channel=0, data=[67, 0]),\n",
      "   midi.NoteOnEvent(tick=0, channel=0, data=[66, 100]),\n",
      "   midi.NoteOnEvent(tick=96, channel=0, data=[66, 0]),\n",
      "   midi.NoteOnEvent(tick=0, channel=0, data=[64, 100]),\n",
      "   midi.NoteOnEvent(tick=96, channel=0, data=[64, 0]),\n",
      "   midi.NoteOnEvent(tick=0, channel=0, data=[63, 100]),\n",
      "   midi.NoteOnEvent(tick=192, channel=0, data=[63, 0]),\n",
      "   midi.NoteOnEvent(tick=0, channel=0, data=[71, 100]),\n",
      "   midi.NoteOnEvent(tick=192, channel=0, data=[71, 0]),\n",
      "   midi.NoteOnEvent(tick=0, channel=0, data=[67, 100]),\n",
      "   midi.NoteOnEvent(tick=48, channel=0, data=[67, 0]),\n",
      "   midi.NoteOnEvent(tick=0, channel=0, data=[69, 100]),\n",
      "   midi.NoteOnEvent(tick=48, channel=0, data=[69, 0]),\n",
      "   midi.NoteOnEvent(tick=0, channel=0, data=[67, 100]),\n",
      "   midi.NoteOnEvent(tick=48, channel=0, data=[67, 0]),\n",
      "   midi.NoteOnEvent(tick=0, channel=0, data=[69, 100]),\n",
      "   midi.NoteOnEvent(tick=48, channel=0, data=[69, 0]),\n",
      "   midi.NoteOnEvent(tick=0, channel=0, data=[66, 100]),\n",
      "   midi.NoteOnEvent(tick=96, channel=0, data=[66, 0]),\n",
      "   midi.NoteOnEvent(tick=0, channel=0, data=[64, 100]),\n",
      "   midi.NoteOnEvent(tick=96, channel=0, data=[64, 0]),\n",
      "   midi.NoteOnEvent(tick=0, channel=0, data=[64, 100]),\n",
      "   midi.NoteOnEvent(tick=384, channel=0, data=[64, 0]),\n",
      "   midi.NoteOnEvent(tick=96, channel=0, data=[71, 100]),\n",
      "   midi.NoteOnEvent(tick=96, channel=0, data=[71, 0]),\n",
      "   midi.NoteOnEvent(tick=0, channel=0, data=[69, 100]),\n",
      "   midi.NoteOnEvent(tick=96, channel=0, data=[69, 0]),\n",
      "   midi.NoteOnEvent(tick=0, channel=0, data=[71, 100]),\n",
      "   midi.NoteOnEvent(tick=96, channel=0, data=[71, 0]),\n",
      "   midi.NoteOnEvent(tick=0, channel=0, data=[76, 100]),\n",
      "   midi.NoteOnEvent(tick=96, channel=0, data=[76, 0]),\n",
      "   midi.NoteOnEvent(tick=0, channel=0, data=[75, 100]),\n",
      "   midi.NoteOnEvent(tick=96, channel=0, data=[75, 0]),\n",
      "   midi.NoteOnEvent(tick=0, channel=0, data=[76, 100]),\n",
      "   midi.NoteOnEvent(tick=288, channel=0, data=[76, 0]),\n",
      "   midi.NoteOnEvent(tick=0, channel=0, data=[71, 100]),\n",
      "   midi.NoteOnEvent(tick=96, channel=0, data=[71, 0]),\n",
      "   midi.NoteOnEvent(tick=0, channel=0, data=[69, 100]),\n",
      "   midi.NoteOnEvent(tick=96, channel=0, data=[69, 0]),\n",
      "   midi.NoteOnEvent(tick=0, channel=0, data=[71, 100]),\n",
      "   midi.NoteOnEvent(tick=96, channel=0, data=[71, 0]),\n",
      "   midi.NoteOnEvent(tick=0, channel=0, data=[79, 100]),\n",
      "   midi.NoteOnEvent(tick=192, channel=0, data=[79, 0]),\n",
      "   midi.NoteOnEvent(tick=0, channel=0, data=[78, 100]),\n",
      "   midi.NoteOnEvent(tick=288, channel=0, data=[78, 0]),\n",
      "   midi.NoteOnEvent(tick=0, channel=0, data=[71, 100]),\n",
      "   midi.NoteOnEvent(tick=96, channel=0, data=[71, 0]),\n",
      "   midi.NoteOnEvent(tick=0, channel=0, data=[69, 100]),\n",
      "   midi.NoteOnEvent(tick=96, channel=0, data=[69, 0]),\n",
      "   midi.NoteOnEvent(tick=0, channel=0, data=[71, 100]),\n",
      "   midi.NoteOnEvent(tick=96, channel=0, data=[71, 0]),\n",
      "   midi.NoteOnEvent(tick=0, channel=0, data=[78, 100]),\n",
      "   midi.NoteOnEvent(tick=96, channel=0, data=[78, 0]),\n",
      "   midi.NoteOnEvent(tick=0, channel=0, data=[76, 100]),\n",
      "   midi.NoteOnEvent(tick=96, channel=0, data=[76, 0]),\n",
      "   midi.NoteOnEvent(tick=0, channel=0, data=[78, 100]),\n",
      "   midi.NoteOnEvent(tick=288, channel=0, data=[78, 0]),\n",
      "   midi.NoteOnEvent(tick=0, channel=0, data=[71, 100]),\n",
      "   midi.NoteOnEvent(tick=96, channel=0, data=[71, 0]),\n",
      "   midi.NoteOnEvent(tick=0, channel=0, data=[69, 100]),\n",
      "   midi.NoteOnEvent(tick=96, channel=0, data=[69, 0]),\n",
      "   midi.NoteOnEvent(tick=0, channel=0, data=[71, 100]),\n",
      "   midi.NoteOnEvent(tick=96, channel=0, data=[71, 0]),\n",
      "   midi.NoteOnEvent(tick=0, channel=0, data=[81, 100]),\n",
      "   midi.NoteOnEvent(tick=192, channel=0, data=[81, 0]),\n",
      "   midi.NoteOnEvent(tick=0, channel=0, data=[79, 100]),\n",
      "   midi.NoteOnEvent(tick=288, channel=0, data=[79, 0]),\n",
      "   midi.NoteOnEvent(tick=0, channel=0, data=[76, 100]),\n",
      "   midi.NoteOnEvent(tick=96, channel=0, data=[76, 0]),\n",
      "   midi.NoteOnEvent(tick=0, channel=0, data=[75, 100]),\n",
      "   midi.NoteOnEvent(tick=96, channel=0, data=[75, 0]),\n",
      "   midi.NoteOnEvent(tick=0, channel=0, data=[76, 100]),\n",
      "   midi.NoteOnEvent(tick=96, channel=0, data=[76, 0]),\n",
      "   midi.NoteOnEvent(tick=0, channel=0, data=[78, 100]),\n",
      "   midi.NoteOnEvent(tick=96, channel=0, data=[78, 0]),\n",
      "   midi.NoteOnEvent(tick=0, channel=0, data=[76, 100]),\n",
      "   midi.NoteOnEvent(tick=96, channel=0, data=[76, 0]),\n",
      "   midi.NoteOnEvent(tick=0, channel=0, data=[75, 100]),\n",
      "   midi.NoteOnEvent(tick=96, channel=0, data=[75, 0]),\n",
      "   midi.NoteOnEvent(tick=0, channel=0, data=[76, 100]),\n",
      "   midi.NoteOnEvent(tick=96, channel=0, data=[76, 0]),\n",
      "   midi.NoteOnEvent(tick=0, channel=0, data=[80, 100]),\n",
      "   midi.NoteOnEvent(tick=96, channel=0, data=[80, 0]),\n",
      "   midi.NoteOnEvent(tick=0, channel=0, data=[76, 100]),\n",
      "   midi.NoteOnEvent(tick=96, channel=0, data=[76, 0]),\n",
      "   midi.NoteOnEvent(tick=0, channel=0, data=[75, 100]),\n",
      "   midi.NoteOnEvent(tick=96, channel=0, data=[75, 0]),\n",
      "   midi.NoteOnEvent(tick=0, channel=0, data=[76, 100]),\n",
      "   midi.NoteOnEvent(tick=96, channel=0, data=[76, 0]),\n",
      "   midi.NoteOnEvent(tick=0, channel=0, data=[81, 100]),\n",
      "   midi.NoteOnEvent(tick=96, channel=0, data=[81, 0]),\n",
      "   midi.NoteOnEvent(tick=0, channel=0, data=[76, 100]),\n",
      "   midi.NoteOnEvent(tick=96, channel=0, data=[76, 0]),\n",
      "   midi.NoteOnEvent(tick=0, channel=0, data=[75, 100]),\n",
      "   midi.NoteOnEvent(tick=96, channel=0, data=[75, 0]),\n",
      "   midi.NoteOnEvent(tick=0, channel=0, data=[76, 100]),\n",
      "   midi.NoteOnEvent(tick=96, channel=0, data=[76, 0]),\n",
      "   midi.NoteOnEvent(tick=0, channel=0, data=[83, 100]),\n",
      "   midi.NoteOnEvent(tick=96, channel=0, data=[83, 0]),\n",
      "   midi.NoteOnEvent(tick=0, channel=0, data=[76, 100]),\n",
      "   midi.NoteOnEvent(tick=96, channel=0, data=[76, 0]),\n",
      "   midi.NoteOnEvent(tick=0, channel=0, data=[75, 100]),\n",
      "   midi.NoteOnEvent(tick=96, channel=0, data=[75, 0]),\n",
      "   midi.NoteOnEvent(tick=0, channel=0, data=[76, 100]),\n",
      "   midi.NoteOnEvent(tick=96, channel=0, data=[76, 0]),\n",
      "   midi.NoteOnEvent(tick=0, channel=0, data=[84, 100]),\n",
      "   midi.NoteOnEvent(tick=96, channel=0, data=[84, 0]),\n",
      "   midi.NoteOnEvent(tick=0, channel=0, data=[69, 100]),\n",
      "   midi.NoteOnEvent(tick=96, channel=0, data=[69, 0]),\n",
      "   midi.NoteOnEvent(tick=0, channel=0, data=[68, 100]),\n",
      "   midi.NoteOnEvent(tick=96, channel=0, data=[68, 0]),\n",
      "   midi.NoteOnEvent(tick=0, channel=0, data=[69, 100]),\n",
      "   midi.NoteOnEvent(tick=96, channel=0, data=[69, 0]),\n",
      "   midi.NoteOnEvent(tick=0, channel=0, data=[73, 100]),\n",
      "   midi.NoteOnEvent(tick=96, channel=0, data=[73, 0]),\n",
      "   midi.NoteOnEvent(tick=0, channel=0, data=[69, 100]),\n",
      "   midi.NoteOnEvent(tick=96, channel=0, data=[69, 0]),\n",
      "   midi.NoteOnEvent(tick=0, channel=0, data=[68, 100]),\n",
      "   midi.NoteOnEvent(tick=96, channel=0, data=[68, 0]),\n",
      "   midi.NoteOnEvent(tick=0, channel=0, data=[69, 100]),\n",
      "   midi.NoteOnEvent(tick=96, channel=0, data=[69, 0]),\n",
      "   midi.NoteOnEvent(tick=0, channel=0, data=[74, 100]),\n",
      "   midi.NoteOnEvent(tick=96, channel=0, data=[74, 0]),\n",
      "   midi.NoteOnEvent(tick=0, channel=0, data=[69, 100]),\n",
      "   midi.NoteOnEvent(tick=96, channel=0, data=[69, 0]),\n",
      "   midi.NoteOnEvent(tick=0, channel=0, data=[68, 100]),\n",
      "   midi.NoteOnEvent(tick=96, channel=0, data=[68, 0]),\n",
      "   midi.NoteOnEvent(tick=0, channel=0, data=[69, 100]),\n",
      "   midi.NoteOnEvent(tick=96, channel=0, data=[69, 0]),\n",
      "   midi.NoteOnEvent(tick=0, channel=0, data=[76, 100]),\n",
      "   midi.NoteOnEvent(tick=96, channel=0, data=[76, 0]),\n",
      "   midi.NoteOnEvent(tick=0, channel=0, data=[69, 100]),\n",
      "   midi.NoteOnEvent(tick=96, channel=0, data=[69, 0]),\n",
      "   midi.NoteOnEvent(tick=0, channel=0, data=[68, 100]),\n",
      "   midi.NoteOnEvent(tick=96, channel=0, data=[68, 0]),\n",
      "   midi.NoteOnEvent(tick=0, channel=0, data=[69, 100]),\n",
      "   midi.NoteOnEvent(tick=96, channel=0, data=[69, 0]),\n",
      "   midi.NoteOnEvent(tick=0, channel=0, data=[77, 100]),\n",
      "   midi.NoteOnEvent(tick=96, channel=0, data=[77, 0]),\n",
      "   midi.NoteOnEvent(tick=0, channel=0, data=[62, 100]),\n",
      "   midi.NoteOnEvent(tick=96, channel=0, data=[62, 0]),\n",
      "   midi.NoteOnEvent(tick=0, channel=0, data=[61, 100]),\n",
      "   midi.NoteOnEvent(tick=96, channel=0, data=[61, 0]),\n",
      "   midi.NoteOnEvent(tick=0, channel=0, data=[62, 100]),\n",
      "   midi.NoteOnEvent(tick=96, channel=0, data=[62, 0]),\n",
      "   midi.NoteOnEvent(tick=0, channel=0, data=[66, 100]),\n",
      "   midi.NoteOnEvent(tick=96, channel=0, data=[66, 0]),\n",
      "   midi.NoteOnEvent(tick=0, channel=0, data=[62, 100]),\n",
      "   midi.NoteOnEvent(tick=96, channel=0, data=[62, 0]),\n",
      "   midi.NoteOnEvent(tick=0, channel=0, data=[61, 100]),\n",
      "   midi.NoteOnEvent(tick=96, channel=0, data=[61, 0]),\n",
      "   midi.NoteOnEvent(tick=0, channel=0, data=[62, 100]),\n",
      "   midi.NoteOnEvent(tick=96, channel=0, data=[62, 0]),\n",
      "   midi.NoteOnEvent(tick=0, channel=0, data=[67, 100]),\n",
      "   midi.NoteOnEvent(tick=96, channel=0, data=[67, 0]),\n",
      "   midi.NoteOnEvent(tick=0, channel=0, data=[62, 100]),\n",
      "   midi.NoteOnEvent(tick=96, channel=0, data=[62, 0]),\n",
      "   midi.NoteOnEvent(tick=0, channel=0, data=[61, 100]),\n",
      "   midi.NoteOnEvent(tick=96, channel=0, data=[61, 0]),\n",
      "   midi.NoteOnEvent(tick=0, channel=0, data=[62, 100]),\n",
      "   midi.NoteOnEvent(tick=96, channel=0, data=[62, 0]),\n",
      "   midi.NoteOnEvent(tick=0, channel=0, data=[69, 100]),\n",
      "   midi.NoteOnEvent(tick=96, channel=0, data=[69, 0]),\n",
      "   midi.NoteOnEvent(tick=0, channel=0, data=[62, 100]),\n",
      "   midi.NoteOnEvent(tick=96, channel=0, data=[62, 0]),\n",
      "   midi.NoteOnEvent(tick=0, channel=0, data=[61, 100]),\n",
      "   midi.NoteOnEvent(tick=96, channel=0, data=[61, 0]),\n",
      "   midi.NoteOnEvent(tick=0, channel=0, data=[62, 100]),\n",
      "   midi.NoteOnEvent(tick=96, channel=0, data=[62, 0]),\n",
      "   midi.NoteOnEvent(tick=0, channel=0, data=[71, 100]),\n",
      "   midi.NoteOnEvent(tick=96, channel=0, data=[71, 0]),\n",
      "   midi.NoteOnEvent(tick=0, channel=0, data=[67, 100]),\n",
      "   midi.NoteOnEvent(tick=96, channel=0, data=[67, 0]),\n",
      "   midi.NoteOnEvent(tick=0, channel=0, data=[66, 100]),\n",
      "   midi.NoteOnEvent(tick=96, channel=0, data=[66, 0]),\n",
      "   midi.NoteOnEvent(tick=0, channel=0, data=[67, 100]),\n",
      "   midi.NoteOnEvent(tick=96, channel=0, data=[67, 0]),\n",
      "   midi.NoteOnEvent(tick=0, channel=0, data=[71, 100]),\n",
      "   midi.NoteOnEvent(tick=96, channel=0, data=[71, 0]),\n",
      "   midi.NoteOnEvent(tick=0, channel=0, data=[67, 100]),\n",
      "   midi.NoteOnEvent(tick=96, channel=0, data=[67, 0]),\n",
      "   midi.NoteOnEvent(tick=0, channel=0, data=[66, 100]),\n",
      "   midi.NoteOnEvent(tick=96, channel=0, data=[66, 0]),\n",
      "   midi.NoteOnEvent(tick=0, channel=0, data=[67, 100]),\n",
      "   midi.NoteOnEvent(tick=96, channel=0, data=[67, 0]),\n",
      "   midi.NoteOnEvent(tick=0, channel=0, data=[72, 100]),\n",
      "   midi.NoteOnEvent(tick=96, channel=0, data=[72, 0]),\n",
      "   midi.NoteOnEvent(tick=0, channel=0, data=[67, 100]),\n",
      "   midi.NoteOnEvent(tick=96, channel=0, data=[67, 0]),\n",
      "   midi.NoteOnEvent(tick=0, channel=0, data=[66, 100]),\n",
      "   midi.NoteOnEvent(tick=96, channel=0, data=[66, 0]),\n",
      "   midi.NoteOnEvent(tick=0, channel=0, data=[67, 100]),\n",
      "   midi.NoteOnEvent(tick=96, channel=0, data=[67, 0]),\n",
      "   midi.NoteOnEvent(tick=0, channel=0, data=[74, 100]),\n",
      "   midi.NoteOnEvent(tick=96, channel=0, data=[74, 0]),\n",
      "   midi.NoteOnEvent(tick=0, channel=0, data=[67, 100]),\n",
      "   midi.NoteOnEvent(tick=96, channel=0, data=[67, 0]),\n",
      "   midi.NoteOnEvent(tick=0, channel=0, data=[66, 100]),\n",
      "   midi.NoteOnEvent(tick=96, channel=0, data=[66, 0]),\n",
      "   midi.NoteOnEvent(tick=0, channel=0, data=[67, 100]),\n",
      "   midi.NoteOnEvent(tick=96, channel=0, data=[67, 0]),\n",
      "   midi.NoteOnEvent(tick=0, channel=0, data=[76, 100]),\n",
      "   midi.NoteOnEvent(tick=96, channel=0, data=[76, 0]),\n",
      "   midi.NoteOnEvent(tick=0, channel=0, data=[72, 100]),\n",
      "   midi.NoteOnEvent(tick=96, channel=0, data=[72, 0]),\n",
      "   midi.NoteOnEvent(tick=0, channel=0, data=[71, 100]),\n",
      "   midi.NoteOnEvent(tick=96, channel=0, data=[71, 0]),\n",
      "   midi.NoteOnEvent(tick=0, channel=0, data=[72, 100]),\n",
      "   midi.NoteOnEvent(tick=96, channel=0, data=[72, 0]),\n",
      "   midi.NoteOnEvent(tick=0, channel=0, data=[76, 100]),\n",
      "   midi.NoteOnEvent(tick=96, channel=0, data=[76, 0]),\n",
      "   midi.NoteOnEvent(tick=0, channel=0, data=[72, 100]),\n",
      "   midi.NoteOnEvent(tick=96, channel=0, data=[72, 0]),\n",
      "   midi.NoteOnEvent(tick=0, channel=0, data=[71, 100]),\n",
      "   midi.NoteOnEvent(tick=96, channel=0, data=[71, 0]),\n",
      "   midi.NoteOnEvent(tick=0, channel=0, data=[72, 100]),\n",
      "   midi.NoteOnEvent(tick=96, channel=0, data=[72, 0]),\n",
      "   midi.NoteOnEvent(tick=0, channel=0, data=[77, 100]),\n",
      "   midi.NoteOnEvent(tick=96, channel=0, data=[77, 0]),\n",
      "   midi.NoteOnEvent(tick=0, channel=0, data=[72, 100]),\n",
      "   midi.NoteOnEvent(tick=96, channel=0, data=[72, 0]),\n",
      "   midi.NoteOnEvent(tick=0, channel=0, data=[71, 100]),\n",
      "   midi.NoteOnEvent(tick=96, channel=0, data=[71, 0]),\n",
      "   midi.NoteOnEvent(tick=0, channel=0, data=[72, 100]),\n",
      "   midi.NoteOnEvent(tick=96, channel=0, data=[72, 0]),\n",
      "   midi.NoteOnEvent(tick=0, channel=0, data=[79, 100]),\n",
      "   midi.NoteOnEvent(tick=96, channel=0, data=[79, 0]),\n",
      "   midi.NoteOnEvent(tick=0, channel=0, data=[72, 100]),\n",
      "   midi.NoteOnEvent(tick=96, channel=0, data=[72, 0]),\n",
      "   midi.NoteOnEvent(tick=0, channel=0, data=[71, 100]),\n",
      "   midi.NoteOnEvent(tick=96, channel=0, data=[71, 0]),\n",
      "   midi.NoteOnEvent(tick=0, channel=0, data=[72, 100]),\n",
      "   midi.NoteOnEvent(tick=96, channel=0, data=[72, 0]),\n",
      "   midi.NoteOnEvent(tick=0, channel=0, data=[81, 100]),\n",
      "   midi.NoteOnEvent(tick=96, channel=0, data=[81, 0]),\n",
      "   midi.NoteOnEvent(tick=0, channel=0, data=[82, 100]),\n",
      "   midi.NoteOnEvent(tick=96, channel=0, data=[82, 0]),\n",
      "   midi.NoteOnEvent(tick=0, channel=0, data=[81, 100]),\n",
      "   midi.NoteOnEvent(tick=96, channel=0, data=[81, 0]),\n",
      "   midi.NoteOnEvent(tick=0, channel=0, data=[79, 100]),\n",
      "   midi.NoteOnEvent(tick=96, channel=0, data=[79, 0]),\n",
      "   midi.NoteOnEvent(tick=0, channel=0, data=[77, 100]),\n",
      "   midi.NoteOnEvent(tick=96, channel=0, data=[77, 0]),\n",
      "   midi.NoteOnEvent(tick=0, channel=0, data=[76, 100]),\n",
      "   midi.NoteOnEvent(tick=96, channel=0, data=[76, 0]),\n",
      "   midi.NoteOnEvent(tick=0, channel=0, data=[74, 100]),\n",
      "   midi.NoteOnEvent(tick=96, channel=0, data=[74, 0]),\n",
      "   midi.NoteOnEvent(tick=0, channel=0, data=[72, 100]),\n",
      "   midi.NoteOnEvent(tick=96, channel=0, data=[72, 0]),\n",
      "   midi.NoteOnEvent(tick=0, channel=0, data=[70, 100]),\n",
      "   midi.NoteOnEvent(tick=96, channel=0, data=[70, 0]),\n",
      "   midi.NoteOnEvent(tick=0, channel=0, data=[69, 100]),\n",
      "   midi.NoteOnEvent(tick=96, channel=0, data=[69, 0]),\n",
      "   midi.NoteOnEvent(tick=0, channel=0, data=[70, 100]),\n",
      "   midi.NoteOnEvent(tick=96, channel=0, data=[70, 0]),\n",
      "   midi.NoteOnEvent(tick=0, channel=0, data=[81, 100]),\n",
      "   midi.NoteOnEvent(tick=96, channel=0, data=[81, 0]),\n",
      "   midi.NoteOnEvent(tick=0, channel=0, data=[79, 100]),\n",
      "   midi.NoteOnEvent(tick=96, channel=0, data=[79, 0]),\n",
      "   midi.NoteOnEvent(tick=0, channel=0, data=[77, 100]),\n",
      "   midi.NoteOnEvent(tick=96, channel=0, data=[77, 0]),\n",
      "   midi.NoteOnEvent(tick=0, channel=0, data=[76, 100]),\n",
      "   midi.NoteOnEvent(tick=96, channel=0, data=[76, 0]),\n",
      "   midi.NoteOnEvent(tick=0, channel=0, data=[74, 100]),\n",
      "   midi.NoteOnEvent(tick=96, channel=0, data=[74, 0]),\n",
      "   midi.NoteOnEvent(tick=0, channel=0, data=[73, 100]),\n",
      "   midi.NoteOnEvent(tick=96, channel=0, data=[73, 0]),\n",
      "   midi.NoteOnEvent(tick=0, channel=0, data=[74, 100]),\n",
      "   midi.NoteOnEvent(tick=96, channel=0, data=[74, 0]),\n",
      "   midi.NoteOnEvent(tick=0, channel=0, data=[73, 100]),\n",
      "   midi.NoteOnEvent(tick=96, channel=0, data=[73, 0]),\n",
      "   midi.NoteOnEvent(tick=0, channel=0, data=[71, 100]),\n",
      "   midi.NoteOnEvent(tick=96, channel=0, data=[71, 0]),\n",
      "   midi.NoteOnEvent(tick=0, channel=0, data=[69, 100]),\n",
      "   midi.NoteOnEvent(tick=96, channel=0, data=[69, 0]),\n",
      "   midi.NoteOnEvent(tick=0, channel=0, data=[67, 100]),\n",
      "   midi.NoteOnEvent(tick=96, channel=0, data=[67, 0]),\n",
      "   midi.NoteOnEvent(tick=0, channel=0, data=[65, 100]),\n",
      "   midi.NoteOnEvent(tick=96, channel=0, data=[65, 0]),\n",
      "   midi.NoteOnEvent(tick=0, channel=0, data=[64, 100]),\n",
      "   midi.NoteOnEvent(tick=96, channel=0, data=[64, 0]),\n",
      "   midi.NoteOnEvent(tick=0, channel=0, data=[65, 100]),\n",
      "   midi.NoteOnEvent(tick=96, channel=0, data=[65, 0]),\n",
      "   midi.NoteOnEvent(tick=0, channel=0, data=[69, 100]),\n",
      "   midi.NoteOnEvent(tick=96, channel=0, data=[69, 0]),\n",
      "   midi.NoteOnEvent(tick=0, channel=0, data=[74, 100]),\n",
      "   midi.NoteOnEvent(tick=96, channel=0, data=[74, 0]),\n",
      "   midi.NoteOnEvent(tick=0, channel=0, data=[77, 100]),\n",
      "   midi.NoteOnEvent(tick=96, channel=0, data=[77, 0]),\n",
      "   midi.NoteOnEvent(tick=0, channel=0, data=[81, 100]),\n",
      "   midi.NoteOnEvent(tick=480, channel=0, data=[81, 0]),\n",
      "   midi.NoteOnEvent(tick=0, channel=0, data=[79, 100]),\n",
      "   midi.NoteOnEvent(tick=96, channel=0, data=[79, 0]),\n",
      "   midi.NoteOnEvent(tick=0, channel=0, data=[77, 100]),\n",
      "   midi.NoteOnEvent(tick=96, channel=0, data=[77, 0]),\n",
      "   midi.NoteOnEvent(tick=0, channel=0, data=[81, 100]),\n",
      "   midi.NoteOnEvent(tick=96, channel=0, data=[81, 0]),\n",
      "   midi.NoteOnEvent(tick=0, channel=0, data=[79, 100]),\n",
      "   midi.NoteOnEvent(tick=96, channel=0, data=[79, 0]),\n",
      "   midi.NoteOnEvent(tick=0, channel=0, data=[77, 100]),\n",
      "   midi.NoteOnEvent(tick=96, channel=0, data=[77, 0]),\n",
      "   midi.NoteOnEvent(tick=0, channel=0, data=[76, 100]),\n",
      "   midi.NoteOnEvent(tick=96, channel=0, data=[76, 0]),\n",
      "   midi.NoteOnEvent(tick=0, channel=0, data=[79, 100]),\n",
      "   midi.NoteOnEvent(tick=96, channel=0, data=[79, 0]),\n",
      "   midi.NoteOnEvent(tick=0, channel=0, data=[77, 100]),\n",
      "   midi.NoteOnEvent(tick=96, channel=0, data=[77, 0]),\n",
      "   midi.NoteOnEvent(tick=0, channel=0, data=[76, 100]),\n",
      "   midi.NoteOnEvent(tick=96, channel=0, data=[76, 0]),\n",
      "   midi.NoteOnEvent(tick=0, channel=0, data=[74, 100]),\n",
      "   midi.NoteOnEvent(tick=96, channel=0, data=[74, 0]),\n",
      "   midi.NoteOnEvent(tick=0, channel=0, data=[77, 100]),\n",
      "   midi.NoteOnEvent(tick=96, channel=0, data=[77, 0]),\n",
      "   midi.NoteOnEvent(tick=0, channel=0, data=[76, 100]),\n",
      "   midi.NoteOnEvent(tick=96, channel=0, data=[76, 0]),\n",
      "   midi.NoteOnEvent(tick=0, channel=0, data=[74, 100]),\n",
      "   midi.NoteOnEvent(tick=96, channel=0, data=[74, 0]),\n",
      "   midi.NoteOnEvent(tick=0, channel=0, data=[73, 100]),\n",
      "   midi.NoteOnEvent(tick=96, channel=0, data=[73, 0]),\n",
      "   midi.NoteOnEvent(tick=0, channel=0, data=[76, 100]),\n",
      "   midi.NoteOnEvent(tick=96, channel=0, data=[76, 0]),\n",
      "   midi.NoteOnEvent(tick=0, channel=0, data=[74, 100]),\n",
      "   midi.NoteOnEvent(tick=384, channel=0, data=[74, 0]),\n",
      "   midi.NoteOnEvent(tick=96, channel=0, data=[74, 100]),\n",
      "   midi.NoteOnEvent(tick=96, channel=0, data=[74, 0]),\n",
      "   midi.NoteOnEvent(tick=0, channel=0, data=[73, 100]),\n",
      "   midi.NoteOnEvent(tick=96, channel=0, data=[73, 0]),\n",
      "   midi.NoteOnEvent(tick=0, channel=0, data=[74, 100]),\n",
      "   midi.NoteOnEvent(tick=96, channel=0, data=[74, 0]),\n",
      "   midi.NoteOnEvent(tick=0, channel=0, data=[76, 100]),\n",
      "   midi.NoteOnEvent(tick=96, channel=0, data=[76, 0]),\n",
      "   midi.NoteOnEvent(tick=0, channel=0, data=[74, 100]),\n",
      "   midi.NoteOnEvent(tick=96, channel=0, data=[74, 0]),\n",
      "   midi.NoteOnEvent(tick=0, channel=0, data=[73, 100]),\n",
      "   midi.NoteOnEvent(tick=96, channel=0, data=[73, 0]),\n",
      "   midi.NoteOnEvent(tick=0, channel=0, data=[74, 100]),\n",
      "   midi.NoteOnEvent(tick=96, channel=0, data=[74, 0]),\n",
      "   midi.NoteOnEvent(tick=0, channel=0, data=[77, 100]),\n",
      "   midi.NoteOnEvent(tick=96, channel=0, data=[77, 0]),\n",
      "   midi.NoteOnEvent(tick=0, channel=0, data=[74, 100]),\n",
      "   midi.NoteOnEvent(tick=96, channel=0, data=[74, 0]),\n",
      "   midi.NoteOnEvent(tick=0, channel=0, data=[73, 100]),\n",
      "   midi.NoteOnEvent(tick=96, channel=0, data=[73, 0]),\n",
      "   midi.NoteOnEvent(tick=0, channel=0, data=[74, 100]),\n",
      "   midi.NoteOnEvent(tick=96, channel=0, data=[74, 0]),\n",
      "   midi.NoteOnEvent(tick=0, channel=0, data=[79, 100]),\n",
      "   midi.NoteOnEvent(tick=96, channel=0, data=[79, 0]),\n",
      "   midi.NoteOnEvent(tick=0, channel=0, data=[74, 100]),\n",
      "   midi.NoteOnEvent(tick=96, channel=0, data=[74, 0]),\n",
      "   midi.NoteOnEvent(tick=0, channel=0, data=[73, 100]),\n",
      "   midi.NoteOnEvent(tick=96, channel=0, data=[73, 0]),\n",
      "   midi.NoteOnEvent(tick=0, channel=0, data=[74, 100]),\n",
      "   midi.NoteOnEvent(tick=96, channel=0, data=[74, 0]),\n",
      "   midi.NoteOnEvent(tick=0, channel=0, data=[81, 100]),\n",
      "   midi.NoteOnEvent(tick=96, channel=0, data=[81, 0]),\n",
      "   midi.NoteOnEvent(tick=0, channel=0, data=[74, 100]),\n",
      "   midi.NoteOnEvent(tick=96, channel=0, data=[74, 0]),\n",
      "   midi.NoteOnEvent(tick=0, channel=0, data=[73, 100]),\n",
      "   midi.NoteOnEvent(tick=96, channel=0, data=[73, 0]),\n",
      "   midi.NoteOnEvent(tick=0, channel=0, data=[74, 100]),\n",
      "   midi.NoteOnEvent(tick=96, channel=0, data=[74, 0]),\n",
      "   midi.NoteOnEvent(tick=0, channel=0, data=[82, 100]),\n",
      "   midi.NoteOnEvent(tick=864, channel=0, data=[82, 0]),\n",
      "   midi.NoteOnEvent(tick=0, channel=0, data=[72, 100]),\n",
      "   midi.NoteOnEvent(tick=96, channel=0, data=[72, 0]),\n",
      "   midi.NoteOnEvent(tick=0, channel=0, data=[71, 100]),\n",
      "   midi.NoteOnEvent(tick=96, channel=0, data=[71, 0]),\n",
      "   midi.NoteOnEvent(tick=0, channel=0, data=[72, 100]),\n",
      "   midi.NoteOnEvent(tick=96, channel=0, data=[72, 0]),\n",
      "   midi.NoteOnEvent(tick=0, channel=0, data=[76, 100]),\n",
      "   midi.NoteOnEvent(tick=96, channel=0, data=[76, 0]),\n",
      "   midi.NoteOnEvent(tick=0, channel=0, data=[72, 100]),\n",
      "   midi.NoteOnEvent(tick=96, channel=0, data=[72, 0]),\n",
      "   midi.NoteOnEvent(tick=0, channel=0, data=[71, 100]),\n",
      "   midi.NoteOnEvent(tick=96, channel=0, data=[71, 0]),\n",
      "   midi.NoteOnEvent(tick=0, channel=0, data=[72, 100]),\n",
      "   midi.NoteOnEvent(tick=96, channel=0, data=[72, 0]),\n",
      "   midi.NoteOnEvent(tick=0, channel=0, data=[77, 100]),\n",
      "   midi.NoteOnEvent(tick=96, channel=0, data=[77, 0]),\n",
      "   midi.NoteOnEvent(tick=0, channel=0, data=[72, 100]),\n",
      "   midi.NoteOnEvent(tick=96, channel=0, data=[72, 0]),\n",
      "   midi.NoteOnEvent(tick=0, channel=0, data=[71, 100]),\n",
      "   midi.NoteOnEvent(tick=96, channel=0, data=[71, 0]),\n",
      "   midi.NoteOnEvent(tick=0, channel=0, data=[72, 100]),\n",
      "   midi.NoteOnEvent(tick=96, channel=0, data=[72, 0]),\n",
      "   midi.NoteOnEvent(tick=0, channel=0, data=[79, 100]),\n",
      "   midi.NoteOnEvent(tick=96, channel=0, data=[79, 0]),\n",
      "   midi.NoteOnEvent(tick=0, channel=0, data=[72, 100]),\n",
      "   midi.NoteOnEvent(tick=96, channel=0, data=[72, 0]),\n",
      "   midi.NoteOnEvent(tick=0, channel=0, data=[71, 100]),\n",
      "   midi.NoteOnEvent(tick=96, channel=0, data=[71, 0]),\n",
      "   midi.NoteOnEvent(tick=0, channel=0, data=[72, 100]),\n",
      "   midi.NoteOnEvent(tick=96, channel=0, data=[72, 0]),\n",
      "   midi.NoteOnEvent(tick=0, channel=0, data=[81, 100]),\n",
      "   midi.NoteOnEvent(tick=864, channel=0, data=[81, 0]),\n",
      "   midi.NoteOnEvent(tick=0, channel=0, data=[74, 100]),\n",
      "   midi.NoteOnEvent(tick=96, channel=0, data=[74, 0]),\n",
      "   midi.NoteOnEvent(tick=0, channel=0, data=[76, 100]),\n",
      "   midi.NoteOnEvent(tick=96, channel=0, data=[76, 0]),\n",
      "   midi.NoteOnEvent(tick=0, channel=0, data=[78, 100]),\n",
      "   midi.NoteOnEvent(tick=96, channel=0, data=[78, 0]),\n",
      "   midi.NoteOnEvent(tick=0, channel=0, data=[79, 100]),\n",
      "   midi.NoteOnEvent(tick=96, channel=0, data=[79, 0]),\n",
      "   midi.NoteOnEvent(tick=0, channel=0, data=[81, 100]),\n",
      "   midi.NoteOnEvent(tick=96, channel=0, data=[81, 0]),\n",
      "   midi.NoteOnEvent(tick=0, channel=0, data=[82, 100]),\n",
      "   midi.NoteOnEvent(tick=96, channel=0, data=[82, 0]),\n",
      "   midi.NoteOnEvent(tick=0, channel=0, data=[84, 100]),\n",
      "   midi.NoteOnEvent(tick=96, channel=0, data=[84, 0]),\n",
      "   midi.NoteOnEvent(tick=0, channel=0, data=[86, 100]),\n",
      "   midi.NoteOnEvent(tick=96, channel=0, data=[86, 0]),\n",
      "   midi.NoteOnEvent(tick=0, channel=0, data=[84, 100]),\n",
      "   midi.NoteOnEvent(tick=96, channel=0, data=[84, 0]),\n",
      "   midi.NoteOnEvent(tick=0, channel=0, data=[82, 100]),\n",
      "   midi.NoteOnEvent(tick=96, channel=0, data=[82, 0]),\n",
      "   midi.NoteOnEvent(tick=0, channel=0, data=[81, 100]),\n",
      "   midi.NoteOnEvent(tick=96, channel=0, data=[81, 0]),\n",
      "   midi.NoteOnEvent(tick=0, channel=0, data=[79, 100]),\n",
      "   midi.NoteOnEvent(tick=96, channel=0, data=[79, 0]),\n",
      "   midi.NoteOnEvent(tick=0, channel=0, data=[78, 100]),\n",
      "   midi.NoteOnEvent(tick=96, channel=0, data=[78, 0]),\n",
      "   midi.NoteOnEvent(tick=0, channel=0, data=[76, 100]),\n",
      "   midi.NoteOnEvent(tick=96, channel=0, data=[76, 0]),\n",
      "   midi.NoteOnEvent(tick=0, channel=0, data=[74, 100]),\n",
      "   midi.NoteOnEvent(tick=96, channel=0, data=[74, 0]),\n",
      "   midi.NoteOnEvent(tick=0, channel=0, data=[79, 100]),\n",
      "   midi.NoteOnEvent(tick=864, channel=0, data=[79, 0]),\n",
      "   midi.NoteOnEvent(tick=0, channel=0, data=[76, 100]),\n",
      "   midi.NoteOnEvent(tick=96, channel=0, data=[76, 0]),\n",
      "   midi.NoteOnEvent(tick=0, channel=0, data=[77, 100]),\n",
      "   midi.NoteOnEvent(tick=96, channel=0, data=[77, 0]),\n",
      "   midi.NoteOnEvent(tick=0, channel=0, data=[79, 100]),\n",
      "   midi.NoteOnEvent(tick=96, channel=0, data=[79, 0]),\n",
      "   midi.NoteOnEvent(tick=0, channel=0, data=[81, 100]),\n",
      "   midi.NoteOnEvent(tick=96, channel=0, data=[81, 0]),\n",
      "   midi.NoteOnEvent(tick=0, channel=0, data=[83, 100]),\n",
      "   midi.NoteOnEvent(tick=96, channel=0, data=[83, 0]),\n",
      "   midi.NoteOnEvent(tick=0, channel=0, data=[85, 100]),\n",
      "   midi.NoteOnEvent(tick=96, channel=0, data=[85, 0]),\n",
      "   midi.NoteOnEvent(tick=0, channel=0, data=[86, 100]),\n",
      "   midi.NoteOnEvent(tick=96, channel=0, data=[86, 0]),\n",
      "   midi.NoteOnEvent(tick=0, channel=0, data=[88, 100]),\n",
      "   midi.NoteOnEvent(tick=96, channel=0, data=[88, 0]),\n",
      "   midi.NoteOnEvent(tick=0, channel=0, data=[86, 100]),\n",
      "   midi.NoteOnEvent(tick=96, channel=0, data=[86, 0]),\n",
      "   midi.NoteOnEvent(tick=0, channel=0, data=[85, 100]),\n",
      "   midi.NoteOnEvent(tick=96, channel=0, data=[85, 0]),\n",
      "   midi.NoteOnEvent(tick=0, channel=0, data=[83, 100]),\n",
      "   midi.NoteOnEvent(tick=96, channel=0, data=[83, 0]),\n",
      "   midi.NoteOnEvent(tick=0, channel=0, data=[81, 100]),\n",
      "   midi.NoteOnEvent(tick=96, channel=0, data=[81, 0]),\n",
      "   midi.NoteOnEvent(tick=0, channel=0, data=[79, 100]),\n",
      "   midi.NoteOnEvent(tick=96, channel=0, data=[79, 0]),\n",
      "   midi.NoteOnEvent(tick=0, channel=0, data=[77, 100]),\n",
      "   midi.NoteOnEvent(tick=96, channel=0, data=[77, 0]),\n",
      "   midi.NoteOnEvent(tick=0, channel=0, data=[76, 100]),\n",
      "   midi.NoteOnEvent(tick=96, channel=0, data=[76, 0]),\n",
      "   midi.NoteOnEvent(tick=0, channel=0, data=[77, 100]),\n",
      "   midi.NoteOnEvent(tick=96, channel=0, data=[77, 0]),\n",
      "   midi.NoteOnEvent(tick=0, channel=0, data=[86, 100]),\n",
      "   midi.NoteOnEvent(tick=96, channel=0, data=[86, 0]),\n",
      "   midi.NoteOnEvent(tick=0, channel=0, data=[77, 100]),\n",
      "   midi.NoteOnEvent(tick=96, channel=0, data=[77, 0]),\n",
      "   midi.NoteOnEvent(tick=0, channel=0, data=[76, 100]),\n",
      "   midi.NoteOnEvent(tick=96, channel=0, data=[76, 0]),\n",
      "   midi.NoteOnEvent(tick=0, channel=0, data=[77, 100]),\n",
      "   midi.NoteOnEvent(tick=96, channel=0, data=[77, 0]),\n",
      "   midi.NoteOnEvent(tick=0, channel=0, data=[81, 100]),\n",
      "   midi.NoteOnEvent(tick=96, channel=0, data=[81, 0]),\n",
      "   midi.NoteOnEvent(tick=0, channel=0, data=[86, 100]),\n",
      "   midi.NoteOnEvent(tick=96, channel=0, data=[86, 0]),\n",
      "   midi.NoteOnEvent(tick=0, channel=0, data=[84, 100]),\n",
      "   midi.NoteOnEvent(tick=96, channel=0, data=[84, 0]),\n",
      "   midi.NoteOnEvent(tick=0, channel=0, data=[83, 100]),\n",
      "   midi.NoteOnEvent(tick=96, channel=0, data=[83, 0]),\n",
      "   midi.NoteOnEvent(tick=0, channel=0, data=[77, 100]),\n",
      "   midi.NoteOnEvent(tick=96, channel=0, data=[77, 0]),\n",
      "   midi.NoteOnEvent(tick=0, channel=0, data=[84, 100]),\n",
      "   midi.NoteOnEvent(tick=96, channel=0, data=[84, 0]),\n",
      "   midi.NoteOnEvent(tick=0, channel=0, data=[77, 100]),\n",
      "   midi.NoteOnEvent(tick=96, channel=0, data=[77, 0]),\n",
      "   midi.NoteOnEvent(tick=0, channel=0, data=[86, 100]),\n",
      "   midi.NoteOnEvent(tick=96, channel=0, data=[86, 0]),\n",
      "   midi.NoteOnEvent(tick=0, channel=0, data=[77, 100]),\n",
      "   midi.NoteOnEvent(tick=96, channel=0, data=[77, 0]),\n",
      "   midi.NoteOnEvent(tick=0, channel=0, data=[83, 100]),\n",
      "   midi.NoteOnEvent(tick=96, channel=0, data=[83, 0]),\n",
      "   midi.NoteOnEvent(tick=0, channel=0, data=[77, 100]),\n",
      "   midi.NoteOnEvent(tick=96, channel=0, data=[77, 0]),\n",
      "   midi.NoteOnEvent(tick=0, channel=0, data=[76, 100]),\n",
      "   midi.NoteOnEvent(tick=96, channel=0, data=[76, 0]),\n",
      "   midi.NoteOnEvent(tick=0, channel=0, data=[84, 100]),\n",
      "   midi.NoteOnEvent(tick=96, channel=0, data=[84, 0]),\n",
      "   midi.NoteOnEvent(tick=0, channel=0, data=[76, 100]),\n",
      "   midi.NoteOnEvent(tick=96, channel=0, data=[76, 0]),\n",
      "   midi.NoteOnEvent(tick=0, channel=0, data=[74, 100]),\n",
      "   midi.NoteOnEvent(tick=96, channel=0, data=[74, 0]),\n",
      "   midi.NoteOnEvent(tick=0, channel=0, data=[76, 100]),\n",
      "   midi.NoteOnEvent(tick=96, channel=0, data=[76, 0]),\n",
      "   midi.NoteOnEvent(tick=0, channel=0, data=[79, 100]),\n",
      "   midi.NoteOnEvent(tick=96, channel=0, data=[79, 0]),\n",
      "   midi.NoteOnEvent(tick=0, channel=0, data=[84, 100]),\n",
      "   midi.NoteOnEvent(tick=96, channel=0, data=[84, 0]),\n",
      "   midi.NoteOnEvent(tick=0, channel=0, data=[83, 100]),\n",
      "   midi.NoteOnEvent(tick=96, channel=0, data=[83, 0]),\n",
      "   midi.NoteOnEvent(tick=0, channel=0, data=[81, 100]),\n",
      "   midi.NoteOnEvent(tick=96, channel=0, data=[81, 0]),\n",
      "   midi.NoteOnEvent(tick=0, channel=0, data=[76, 100]),\n",
      "   midi.NoteOnEvent(tick=96, channel=0, data=[76, 0]),\n",
      "   midi.NoteOnEvent(tick=0, channel=0, data=[83, 100]),\n",
      "   midi.NoteOnEvent(tick=96, channel=0, data=[83, 0]),\n",
      "   midi.NoteOnEvent(tick=0, channel=0, data=[76, 100]),\n",
      "   midi.NoteOnEvent(tick=96, channel=0, data=[76, 0]),\n",
      "   midi.NoteOnEvent(tick=0, channel=0, data=[84, 100]),\n",
      "   midi.NoteOnEvent(tick=96, channel=0, data=[84, 0]),\n",
      "   midi.NoteOnEvent(tick=0, channel=0, data=[76, 100]),\n",
      "   midi.NoteOnEvent(tick=96, channel=0, data=[76, 0]),\n",
      "   midi.NoteOnEvent(tick=0, channel=0, data=[81, 100]),\n",
      "   midi.NoteOnEvent(tick=96, channel=0, data=[81, 0]),\n",
      "   midi.NoteOnEvent(tick=0, channel=0, data=[76, 100]),\n",
      "   midi.NoteOnEvent(tick=96, channel=0, data=[76, 0]),\n",
      "   midi.NoteOnEvent(tick=0, channel=0, data=[74, 100]),\n",
      "   midi.NoteOnEvent(tick=96, channel=0, data=[74, 0]),\n",
      "   midi.NoteOnEvent(tick=0, channel=0, data=[83, 100]),\n",
      "   midi.NoteOnEvent(tick=96, channel=0, data=[83, 0]),\n",
      "   midi.NoteOnEvent(tick=0, channel=0, data=[74, 100]),\n",
      "   midi.NoteOnEvent(tick=96, channel=0, data=[74, 0]),\n",
      "   midi.NoteOnEvent(tick=0, channel=0, data=[72, 100]),\n",
      "   midi.NoteOnEvent(tick=96, channel=0, data=[72, 0]),\n",
      "   midi.NoteOnEvent(tick=0, channel=0, data=[74, 100]),\n",
      "   midi.NoteOnEvent(tick=96, channel=0, data=[74, 0]),\n",
      "   midi.NoteOnEvent(tick=0, channel=0, data=[77, 100]),\n",
      "   midi.NoteOnEvent(tick=96, channel=0, data=[77, 0]),\n",
      "   midi.NoteOnEvent(tick=0, channel=0, data=[83, 100]),\n",
      "   midi.NoteOnEvent(tick=96, channel=0, data=[83, 0]),\n",
      "   midi.NoteOnEvent(tick=0, channel=0, data=[81, 100]),\n",
      "   midi.NoteOnEvent(tick=96, channel=0, data=[81, 0]),\n",
      "   midi.NoteOnEvent(tick=0, channel=0, data=[80, 100]),\n",
      "   midi.NoteOnEvent(tick=96, channel=0, data=[80, 0]),\n",
      "   midi.NoteOnEvent(tick=0, channel=0, data=[74, 100]),\n",
      "   midi.NoteOnEvent(tick=96, channel=0, data=[74, 0]),\n",
      "   midi.NoteOnEvent(tick=0, channel=0, data=[81, 100]),\n",
      "   midi.NoteOnEvent(tick=96, channel=0, data=[81, 0]),\n",
      "   midi.NoteOnEvent(tick=0, channel=0, data=[74, 100]),\n",
      "   midi.NoteOnEvent(tick=96, channel=0, data=[74, 0]),\n",
      "   midi.NoteOnEvent(tick=0, channel=0, data=[83, 100]),\n",
      "   midi.NoteOnEvent(tick=96, channel=0, data=[83, 0]),\n",
      "   midi.NoteOnEvent(tick=0, channel=0, data=[74, 100]),\n",
      "   midi.NoteOnEvent(tick=96, channel=0, data=[74, 0]),\n",
      "   midi.NoteOnEvent(tick=0, channel=0, data=[80, 100]),\n",
      "   midi.NoteOnEvent(tick=96, channel=0, data=[80, 0]),\n",
      "   midi.NoteOnEvent(tick=0, channel=0, data=[74, 100]),\n",
      "   midi.NoteOnEvent(tick=96, channel=0, data=[74, 0]),\n",
      "   midi.NoteOnEvent(tick=0, channel=0, data=[72, 100]),\n",
      "   midi.NoteOnEvent(tick=96, channel=0, data=[72, 0]),\n",
      "   midi.NoteOnEvent(tick=0, channel=0, data=[81, 100]),\n",
      "   midi.NoteOnEvent(tick=96, channel=0, data=[81, 0]),\n",
      "   midi.NoteOnEvent(tick=0, channel=0, data=[72, 100]),\n",
      "   midi.NoteOnEvent(tick=96, channel=0, data=[72, 0]),\n",
      "   midi.NoteOnEvent(tick=0, channel=0, data=[71, 100]),\n",
      "   midi.NoteOnEvent(tick=96, channel=0, data=[71, 0]),\n",
      "   midi.NoteOnEvent(tick=0, channel=0, data=[72, 100]),\n",
      "   midi.NoteOnEvent(tick=96, channel=0, data=[72, 0]),\n",
      "   midi.NoteOnEvent(tick=0, channel=0, data=[76, 100]),\n",
      "   midi.NoteOnEvent(tick=96, channel=0, data=[76, 0]),\n",
      "   midi.NoteOnEvent(tick=0, channel=0, data=[81, 100]),\n",
      "   midi.NoteOnEvent(tick=96, channel=0, data=[81, 0]),\n",
      "   midi.NoteOnEvent(tick=0, channel=0, data=[76, 100]),\n",
      "   midi.NoteOnEvent(tick=96, channel=0, data=[76, 0]),\n",
      "   midi.NoteOnEvent(tick=0, channel=0, data=[77, 100]),\n",
      "   midi.NoteOnEvent(tick=96, channel=0, data=[77, 0]),\n",
      "   midi.NoteOnEvent(tick=0, channel=0, data=[81, 100]),\n",
      "   midi.NoteOnEvent(tick=96, channel=0, data=[81, 0]),\n",
      "   midi.NoteOnEvent(tick=0, channel=0, data=[74, 100]),\n",
      "   midi.NoteOnEvent(tick=96, channel=0, data=[74, 0]),\n",
      "   midi.NoteOnEvent(tick=0, channel=0, data=[72, 100]),\n",
      "   midi.NoteOnEvent(tick=96, channel=0, data=[72, 0]),\n",
      "   midi.NoteOnEvent(tick=0, channel=0, data=[74, 100]),\n",
      "   midi.NoteOnEvent(tick=96, channel=0, data=[74, 0]),\n",
      "   midi.NoteOnEvent(tick=0, channel=0, data=[77, 100]),\n",
      "   midi.NoteOnEvent(tick=96, channel=0, data=[77, 0]),\n",
      "   midi.NoteOnEvent(tick=0, channel=0, data=[81, 100]),\n",
      "   midi.NoteOnEvent(tick=96, channel=0, data=[81, 0]),\n",
      "   midi.NoteOnEvent(tick=0, channel=0, data=[71, 100]),\n",
      "   midi.NoteOnEvent(tick=96, channel=0, data=[71, 0]),\n",
      "   midi.NoteOnEvent(tick=0, channel=0, data=[72, 100]),\n",
      "   midi.NoteOnEvent(tick=192, channel=0, data=[72, 0]),\n",
      "   midi.NoteOnEvent(tick=0, channel=0, data=[81, 100]),\n",
      "   midi.NoteOnEvent(tick=192, channel=0, data=[81, 0]),\n",
      "   midi.NoteOnEvent(tick=0, channel=0, data=[71, 100]),\n",
      "   midi.NoteOnEvent(tick=192, channel=0, data=[71, 0]),\n",
      "   midi.NoteOnEvent(tick=0, channel=0, data=[80, 100]),\n",
      "   midi.NoteOnEvent(tick=192, channel=0, data=[80, 0]),\n",
      "   midi.NoteOnEvent(tick=0, channel=0, data=[81, 100]),\n",
      "   midi.NoteOnEvent(tick=384, channel=0, data=[81, 0]),\n",
      "   midi.NoteOnEvent(tick=96, channel=0, data=[57, 100]),\n",
      "   midi.NoteOnEvent(tick=96, channel=0, data=[57, 0]),\n",
      "   midi.NoteOnEvent(tick=0, channel=0, data=[56, 100]),\n",
      "   midi.NoteOnEvent(tick=96, channel=0, data=[56, 0]),\n",
      "   midi.NoteOnEvent(tick=0, channel=0, data=[57, 100]),\n",
      "   midi.NoteOnEvent(tick=96, channel=0, data=[57, 0]),\n",
      "   midi.NoteOnEvent(tick=0, channel=0, data=[60, 100]),\n",
      "   midi.NoteOnEvent(tick=96, channel=0, data=[60, 0]),\n",
      "   midi.NoteOnEvent(tick=0, channel=0, data=[57, 100]),\n",
      "   midi.NoteOnEvent(tick=96, channel=0, data=[57, 0]),\n",
      "   midi.NoteOnEvent(tick=0, channel=0, data=[56, 100]),\n",
      "   midi.NoteOnEvent(tick=96, channel=0, data=[56, 0]),\n",
      "   midi.NoteOnEvent(tick=0, channel=0, data=[57, 100]),\n",
      "   midi.NoteOnEvent(tick=96, channel=0, data=[57, 0]),\n",
      "   midi.NoteOnEvent(tick=0, channel=0, data=[61, 100]),\n",
      "   midi.NoteOnEvent(tick=96, channel=0, data=[61, 0]),\n",
      "   midi.NoteOnEvent(tick=0, channel=0, data=[57, 100]),\n",
      "   midi.NoteOnEvent(tick=96, channel=0, data=[57, 0]),\n",
      "   midi.NoteOnEvent(tick=0, channel=0, data=[56, 100]),\n",
      "   midi.NoteOnEvent(tick=96, channel=0, data=[56, 0]),\n",
      "   midi.NoteOnEvent(tick=0, channel=0, data=[57, 100]),\n",
      "   midi.NoteOnEvent(tick=96, channel=0, data=[57, 0]),\n",
      "   midi.NoteOnEvent(tick=0, channel=0, data=[62, 100]),\n",
      "   midi.NoteOnEvent(tick=96, channel=0, data=[62, 0]),\n",
      "   midi.NoteOnEvent(tick=0, channel=0, data=[57, 100]),\n",
      "   midi.NoteOnEvent(tick=96, channel=0, data=[57, 0]),\n",
      "   midi.NoteOnEvent(tick=0, channel=0, data=[56, 100]),\n",
      "   midi.NoteOnEvent(tick=96, channel=0, data=[56, 0]),\n",
      "   midi.NoteOnEvent(tick=0, channel=0, data=[57, 100]),\n",
      "   midi.NoteOnEvent(tick=96, channel=0, data=[57, 0]),\n",
      "   midi.NoteOnEvent(tick=0, channel=0, data=[64, 100]),\n",
      "   midi.NoteOnEvent(tick=96, channel=0, data=[64, 0]),\n",
      "   midi.NoteOnEvent(tick=0, channel=0, data=[57, 100]),\n",
      "   midi.NoteOnEvent(tick=96, channel=0, data=[57, 0]),\n",
      "   midi.NoteOnEvent(tick=0, channel=0, data=[56, 100]),\n",
      "   midi.NoteOnEvent(tick=96, channel=0, data=[56, 0]),\n",
      "   midi.NoteOnEvent(tick=0, channel=0, data=[57, 100]),\n",
      "   midi.NoteOnEvent(tick=96, channel=0, data=[57, 0]),\n",
      "   midi.NoteOnEvent(tick=0, channel=0, data=[65, 100]),\n",
      "   midi.NoteOnEvent(tick=96, channel=0, data=[65, 0]),\n",
      "   midi.NoteOnEvent(tick=0, channel=0, data=[62, 100]),\n",
      "   midi.NoteOnEvent(tick=96, channel=0, data=[62, 0]),\n",
      "   midi.NoteOnEvent(tick=0, channel=0, data=[61, 100]),\n",
      "   midi.NoteOnEvent(tick=96, channel=0, data=[61, 0]),\n",
      "   midi.NoteOnEvent(tick=0, channel=0, data=[62, 100]),\n",
      "   midi.NoteOnEvent(tick=96, channel=0, data=[62, 0]),\n",
      "   midi.NoteOnEvent(tick=0, channel=0, data=[66, 100]),\n",
      "   midi.NoteOnEvent(tick=96, channel=0, data=[66, 0]),\n",
      "   midi.NoteOnEvent(tick=0, channel=0, data=[62, 100]),\n",
      "   midi.NoteOnEvent(tick=96, channel=0, data=[62, 0]),\n",
      "   midi.NoteOnEvent(tick=0, channel=0, data=[61, 100]),\n",
      "   midi.NoteOnEvent(tick=96, channel=0, data=[61, 0]),\n",
      "   midi.NoteOnEvent(tick=0, channel=0, data=[62, 100]),\n",
      "   midi.NoteOnEvent(tick=96, channel=0, data=[62, 0]),\n",
      "   midi.NoteOnEvent(tick=0, channel=0, data=[67, 100]),\n",
      "   midi.NoteOnEvent(tick=96, channel=0, data=[67, 0]),\n",
      "   midi.NoteOnEvent(tick=0, channel=0, data=[62, 100]),\n",
      "   midi.NoteOnEvent(tick=96, channel=0, data=[62, 0]),\n",
      "   midi.NoteOnEvent(tick=0, channel=0, data=[61, 100]),\n",
      "   midi.NoteOnEvent(tick=96, channel=0, data=[61, 0]),\n",
      "   midi.NoteOnEvent(tick=0, channel=0, data=[62, 100]),\n",
      "   midi.NoteOnEvent(tick=96, channel=0, data=[62, 0]),\n",
      "   midi.NoteOnEvent(tick=0, channel=0, data=[69, 100]),\n",
      "   midi.NoteOnEvent(tick=96, channel=0, data=[69, 0]),\n",
      "   midi.NoteOnEvent(tick=0, channel=0, data=[62, 100]),\n",
      "   midi.NoteOnEvent(tick=96, channel=0, data=[62, 0]),\n",
      "   midi.NoteOnEvent(tick=0, channel=0, data=[61, 100]),\n",
      "   midi.NoteOnEvent(tick=96, channel=0, data=[61, 0]),\n",
      "   midi.NoteOnEvent(tick=0, channel=0, data=[62, 100]),\n",
      "   midi.NoteOnEvent(tick=96, channel=0, data=[62, 0]),\n",
      "   midi.NoteOnEvent(tick=0, channel=0, data=[70, 100]),\n",
      "   midi.NoteOnEvent(tick=96, channel=0, data=[70, 0]),\n",
      "   midi.NoteOnEvent(tick=0, channel=0, data=[67, 100]),\n",
      "   midi.NoteOnEvent(tick=96, channel=0, data=[67, 0]),\n",
      "   midi.NoteOnEvent(tick=0, channel=0, data=[66, 100]),\n",
      "   midi.NoteOnEvent(tick=96, channel=0, data=[66, 0]),\n",
      "   midi.NoteOnEvent(tick=0, channel=0, data=[67, 100]),\n",
      "   midi.NoteOnEvent(tick=96, channel=0, data=[67, 0]),\n",
      "   midi.NoteOnEvent(tick=0, channel=0, data=[71, 100]),\n",
      "   midi.NoteOnEvent(tick=96, channel=0, data=[71, 0]),\n",
      "   midi.NoteOnEvent(tick=0, channel=0, data=[67, 100]),\n",
      "   midi.NoteOnEvent(tick=96, channel=0, data=[67, 0]),\n",
      "   midi.NoteOnEvent(tick=0, channel=0, data=[66, 100]),\n",
      "   midi.NoteOnEvent(tick=96, channel=0, data=[66, 0]),\n",
      "   midi.NoteOnEvent(tick=0, channel=0, data=[67, 100]),\n",
      "   midi.NoteOnEvent(tick=96, channel=0, data=[67, 0]),\n",
      "   midi.NoteOnEvent(tick=0, channel=0, data=[72, 100]),\n",
      "   midi.NoteOnEvent(tick=96, channel=0, data=[72, 0]),\n",
      "   midi.NoteOnEvent(tick=0, channel=0, data=[67, 100]),\n",
      "   midi.NoteOnEvent(tick=96, channel=0, data=[67, 0]),\n",
      "   midi.NoteOnEvent(tick=0, channel=0, data=[66, 100]),\n",
      "   midi.NoteOnEvent(tick=96, channel=0, data=[66, 0]),\n",
      "   midi.NoteOnEvent(tick=0, channel=0, data=[67, 100]),\n",
      "   midi.NoteOnEvent(tick=96, channel=0, data=[67, 0]),\n",
      "   midi.NoteOnEvent(tick=0, channel=0, data=[74, 100]),\n",
      "   midi.NoteOnEvent(tick=96, channel=0, data=[74, 0]),\n",
      "   midi.NoteOnEvent(tick=0, channel=0, data=[67, 100]),\n",
      "   midi.NoteOnEvent(tick=96, channel=0, data=[67, 0]),\n",
      "   midi.NoteOnEvent(tick=0, channel=0, data=[66, 100]),\n",
      "   midi.NoteOnEvent(tick=96, channel=0, data=[66, 0]),\n",
      "   midi.NoteOnEvent(tick=0, channel=0, data=[67, 100]),\n",
      "   midi.NoteOnEvent(tick=96, channel=0, data=[67, 0]),\n",
      "   midi.NoteOnEvent(tick=0, channel=0, data=[75, 100]),\n",
      "   midi.NoteOnEvent(tick=96, channel=0, data=[75, 0]),\n",
      "   midi.NoteOnEvent(tick=0, channel=0, data=[72, 100]),\n",
      "   midi.NoteOnEvent(tick=96, channel=0, data=[72, 0]),\n",
      "   midi.NoteOnEvent(tick=0, channel=0, data=[71, 100]),\n",
      "   midi.NoteOnEvent(tick=96, channel=0, data=[71, 0]),\n",
      "   midi.NoteOnEvent(tick=0, channel=0, data=[72, 100]),\n",
      "   midi.NoteOnEvent(tick=96, channel=0, data=[72, 0]),\n",
      "   midi.NoteOnEvent(tick=0, channel=0, data=[76, 100]),\n",
      "   midi.NoteOnEvent(tick=96, channel=0, data=[76, 0]),\n",
      "   midi.NoteOnEvent(tick=0, channel=0, data=[72, 100]),\n",
      "   midi.NoteOnEvent(tick=96, channel=0, data=[72, 0]),\n",
      "   midi.NoteOnEvent(tick=0, channel=0, data=[71, 100]),\n",
      "   midi.NoteOnEvent(tick=96, channel=0, data=[71, 0]),\n",
      "   midi.NoteOnEvent(tick=0, channel=0, data=[72, 100]),\n",
      "   midi.NoteOnEvent(tick=96, channel=0, data=[72, 0]),\n",
      "   midi.NoteOnEvent(tick=0, channel=0, data=[77, 100]),\n",
      "   midi.NoteOnEvent(tick=96, channel=0, data=[77, 0]),\n",
      "   midi.NoteOnEvent(tick=0, channel=0, data=[72, 100]),\n",
      "   midi.NoteOnEvent(tick=96, channel=0, data=[72, 0]),\n",
      "   midi.NoteOnEvent(tick=0, channel=0, data=[71, 100]),\n",
      "   midi.NoteOnEvent(tick=96, channel=0, data=[71, 0]),\n",
      "   midi.NoteOnEvent(tick=0, channel=0, data=[72, 100]),\n",
      "   midi.NoteOnEvent(tick=96, channel=0, data=[72, 0]),\n",
      "   midi.NoteOnEvent(tick=0, channel=0, data=[79, 100]),\n",
      "   midi.NoteOnEvent(tick=96, channel=0, data=[79, 0]),\n",
      "   midi.NoteOnEvent(tick=0, channel=0, data=[72, 100]),\n",
      "   midi.NoteOnEvent(tick=96, channel=0, data=[72, 0]),\n",
      "   midi.NoteOnEvent(tick=0, channel=0, data=[71, 100]),\n",
      "   midi.NoteOnEvent(tick=96, channel=0, data=[71, 0]),\n",
      "   midi.NoteOnEvent(tick=0, channel=0, data=[72, 100]),\n",
      "   midi.NoteOnEvent(tick=96, channel=0, data=[72, 0]),\n",
      "   midi.NoteOnEvent(tick=0, channel=0, data=[80, 100]),\n",
      "   midi.NoteOnEvent(tick=48, channel=0, data=[80, 0]),\n",
      "   midi.NoteOnEvent(tick=0, channel=0, data=[82, 100]),\n",
      "   midi.NoteOnEvent(tick=48, channel=0, data=[82, 0]),\n",
      "   midi.NoteOnEvent(tick=0, channel=0, data=[84, 100]),\n",
      "   midi.NoteOnEvent(tick=192, channel=0, data=[84, 0]),\n",
      "   midi.NoteOnEvent(tick=0, channel=0, data=[80, 100]),\n",
      "   midi.NoteOnEvent(tick=96, channel=0, data=[80, 0]),\n",
      "   midi.NoteOnEvent(tick=0, channel=0, data=[78, 100]),\n",
      "   midi.NoteOnEvent(tick=48, channel=0, data=[78, 0]),\n",
      "   midi.NoteOnEvent(tick=0, channel=0, data=[79, 100]),\n",
      "   midi.NoteOnEvent(tick=48, channel=0, data=[79, 0]),\n",
      "   midi.NoteOnEvent(tick=0, channel=0, data=[81, 100]),\n",
      "   midi.NoteOnEvent(tick=192, channel=0, data=[81, 0]),\n",
      "   midi.NoteOnEvent(tick=0, channel=0, data=[78, 100]),\n",
      "   midi.NoteOnEvent(tick=96, channel=0, data=[78, 0]),\n",
      "   midi.NoteOnEvent(tick=0, channel=0, data=[79, 100]),\n",
      "   midi.NoteOnEvent(tick=96, channel=0, data=[79, 0]),\n",
      "   midi.NoteOnEvent(tick=0, channel=0, data=[74, 100]),\n",
      "   midi.NoteOnEvent(tick=96, channel=0, data=[74, 0]),\n",
      "   midi.NoteOnEvent(tick=0, channel=0, data=[70, 100]),\n",
      "   midi.NoteOnEvent(tick=96, channel=0, data=[70, 0]),\n",
      "   midi.NoteOnEvent(tick=0, channel=0, data=[67, 100]),\n",
      "   midi.NoteOnEvent(tick=96, channel=0, data=[67, 0]),\n",
      "   midi.NoteOnEvent(tick=0, channel=0, data=[66, 100]),\n",
      "   midi.NoteOnEvent(tick=96, channel=0, data=[66, 0]),\n",
      "   midi.NoteOnEvent(tick=0, channel=0, data=[67, 100]),\n",
      "   midi.NoteOnEvent(tick=96, channel=0, data=[67, 0]),\n",
      "   midi.NoteOnEvent(tick=0, channel=0, data=[70, 100]),\n",
      "   midi.NoteOnEvent(tick=96, channel=0, data=[70, 0]),\n",
      "   midi.NoteOnEvent(tick=0, channel=0, data=[74, 100]),\n",
      "   midi.NoteOnEvent(tick=96, channel=0, data=[74, 0]),\n",
      "   midi.NoteOnEvent(tick=0, channel=0, data=[75, 100]),\n",
      "   midi.NoteOnEvent(tick=48, channel=0, data=[75, 0]),\n",
      "   midi.NoteOnEvent(tick=0, channel=0, data=[77, 100]),\n",
      "   midi.NoteOnEvent(tick=48, channel=0, data=[77, 0]),\n",
      "   midi.NoteOnEvent(tick=0, channel=0, data=[79, 100]),\n",
      "   midi.NoteOnEvent(tick=192, channel=0, data=[79, 0]),\n",
      "   midi.NoteOnEvent(tick=0, channel=0, data=[75, 100]),\n",
      "   midi.NoteOnEvent(tick=96, channel=0, data=[75, 0]),\n",
      "   midi.NoteOnEvent(tick=0, channel=0, data=[73, 100]),\n",
      "   midi.NoteOnEvent(tick=48, channel=0, data=[73, 0]),\n",
      "   midi.NoteOnEvent(tick=0, channel=0, data=[74, 100]),\n",
      "   midi.NoteOnEvent(tick=48, channel=0, data=[74, 0]),\n",
      "   midi.NoteOnEvent(tick=0, channel=0, data=[76, 100]),\n",
      "   midi.NoteOnEvent(tick=192, channel=0, data=[76, 0]),\n",
      "   midi.NoteOnEvent(tick=0, channel=0, data=[73, 100]),\n",
      "   midi.NoteOnEvent(tick=96, channel=0, data=[73, 0]),\n",
      "   midi.NoteOnEvent(tick=0, channel=0, data=[74, 100]),\n",
      "   midi.NoteOnEvent(tick=96, channel=0, data=[74, 0]),\n",
      "   midi.NoteOnEvent(tick=0, channel=0, data=[69, 100]),\n",
      "   midi.NoteOnEvent(tick=96, channel=0, data=[69, 0]),\n",
      "   midi.NoteOnEvent(tick=0, channel=0, data=[65, 100]),\n",
      "   midi.NoteOnEvent(tick=96, channel=0, data=[65, 0]),\n",
      "   midi.NoteOnEvent(tick=0, channel=0, data=[62, 100]),\n",
      "   midi.NoteOnEvent(tick=96, channel=0, data=[62, 0]),\n",
      "   midi.NoteOnEvent(tick=0, channel=0, data=[61, 100]),\n",
      "   midi.NoteOnEvent(tick=96, channel=0, data=[61, 0]),\n",
      "   midi.NoteOnEvent(tick=0, channel=0, data=[62, 100]),\n",
      "   midi.NoteOnEvent(tick=96, channel=0, data=[62, 0]),\n",
      "   midi.NoteOnEvent(tick=0, channel=0, data=[65, 100]),\n",
      "   midi.NoteOnEvent(tick=96, channel=0, data=[65, 0]),\n",
      "   midi.NoteOnEvent(tick=0, channel=0, data=[69, 100]),\n",
      "   midi.NoteOnEvent(tick=96, channel=0, data=[69, 0]),\n",
      "   midi.NoteOnEvent(tick=0, channel=0, data=[70, 100]),\n",
      "   midi.NoteOnEvent(tick=48, channel=0, data=[70, 0]),\n",
      "   midi.NoteOnEvent(tick=0, channel=0, data=[72, 100]),\n",
      "   midi.NoteOnEvent(tick=48, channel=0, data=[72, 0]),\n",
      "   midi.NoteOnEvent(tick=0, channel=0, data=[74, 100]),\n",
      "   midi.NoteOnEvent(tick=192, channel=0, data=[74, 0]),\n",
      "   midi.NoteOnEvent(tick=0, channel=0, data=[70, 100]),\n",
      "   midi.NoteOnEvent(tick=96, channel=0, data=[70, 0]),\n",
      "   midi.NoteOnEvent(tick=0, channel=0, data=[68, 100]),\n",
      "   midi.NoteOnEvent(tick=48, channel=0, data=[68, 0]),\n",
      "   midi.NoteOnEvent(tick=0, channel=0, data=[69, 100]),\n",
      "   midi.NoteOnEvent(tick=48, channel=0, data=[69, 0]),\n",
      "   midi.NoteOnEvent(tick=0, channel=0, data=[71, 100]),\n",
      "   midi.NoteOnEvent(tick=192, channel=0, data=[71, 0]),\n",
      "   midi.NoteOnEvent(tick=0, channel=0, data=[68, 100]),\n",
      "   midi.NoteOnEvent(tick=96, channel=0, data=[68, 0]),\n",
      "   midi.NoteOnEvent(tick=0, channel=0, data=[69, 100]),\n",
      "   midi.NoteOnEvent(tick=96, channel=0, data=[69, 0]),\n",
      "   midi.NoteOnEvent(tick=0, channel=0, data=[64, 100]),\n",
      "   midi.NoteOnEvent(tick=96, channel=0, data=[64, 0]),\n",
      "   midi.NoteOnEvent(tick=0, channel=0, data=[66, 100]),\n",
      "   midi.NoteOnEvent(tick=96, channel=0, data=[66, 0]),\n",
      "   midi.NoteOnEvent(tick=0, channel=0, data=[68, 100]),\n",
      "   midi.NoteOnEvent(tick=96, channel=0, data=[68, 0]),\n",
      "   midi.NoteOnEvent(tick=0, channel=0, data=[69, 100]),\n",
      "   midi.NoteOnEvent(tick=96, channel=0, data=[69, 0]),\n",
      "   midi.NoteOnEvent(tick=0, channel=0, data=[64, 100]),\n",
      "   midi.NoteOnEvent(tick=96, channel=0, data=[64, 0]),\n",
      "   midi.NoteOnEvent(tick=0, channel=0, data=[71, 100]),\n",
      "   midi.NoteOnEvent(tick=96, channel=0, data=[71, 0]),\n",
      "   midi.NoteOnEvent(tick=0, channel=0, data=[64, 100]),\n",
      "   midi.NoteOnEvent(tick=96, channel=0, data=[64, 0]),\n",
      "   midi.NoteOnEvent(tick=0, channel=0, data=[72, 100]),\n",
      "   midi.NoteOnEvent(tick=96, channel=0, data=[72, 0]),\n",
      "   midi.NoteOnEvent(tick=0, channel=0, data=[68, 100]),\n",
      "   midi.NoteOnEvent(tick=96, channel=0, data=[68, 0]),\n",
      "   midi.NoteOnEvent(tick=0, channel=0, data=[69, 100]),\n",
      "   midi.NoteOnEvent(tick=96, channel=0, data=[69, 0]),\n",
      "   midi.NoteOnEvent(tick=0, channel=0, data=[71, 100]),\n",
      "   midi.NoteOnEvent(tick=96, channel=0, data=[71, 0]),\n",
      "   midi.NoteOnEvent(tick=0, channel=0, data=[72, 100]),\n",
      "   midi.NoteOnEvent(tick=96, channel=0, data=[72, 0]),\n",
      "   midi.NoteOnEvent(tick=0, channel=0, data=[69, 100]),\n",
      "   midi.NoteOnEvent(tick=96, channel=0, data=[69, 0]),\n",
      "   midi.NoteOnEvent(tick=0, channel=0, data=[74, 100]),\n",
      "   midi.NoteOnEvent(tick=96, channel=0, data=[74, 0]),\n",
      "   midi.NoteOnEvent(tick=0, channel=0, data=[69, 100]),\n",
      "   midi.NoteOnEvent(tick=96, channel=0, data=[69, 0]),\n",
      "   midi.NoteOnEvent(tick=0, channel=0, data=[68, 100]),\n",
      "   midi.NoteOnEvent(tick=96, channel=0, data=[68, 0]),\n",
      "   midi.NoteOnEvent(tick=0, channel=0, data=[64, 100]),\n",
      "   midi.NoteOnEvent(tick=96, channel=0, data=[64, 0]),\n",
      "   midi.NoteOnEvent(tick=0, channel=0, data=[68, 100]),\n",
      "   midi.NoteOnEvent(tick=96, channel=0, data=[68, 0]),\n",
      "   midi.NoteOnEvent(tick=0, channel=0, data=[71, 100]),\n",
      "   midi.NoteOnEvent(tick=96, channel=0, data=[71, 0]),\n",
      "   midi.NoteOnEvent(tick=0, channel=0, data=[76, 100]),\n",
      "   midi.NoteOnEvent(tick=480, channel=0, data=[76, 0]),\n",
      "   midi.NoteOnEvent(tick=0, channel=0, data=[69, 100]),\n",
      "   midi.NoteOnEvent(tick=96, channel=0, data=[69, 0]),\n",
      "   midi.NoteOnEvent(tick=0, channel=0, data=[72, 100]),\n",
      "   midi.NoteOnEvent(tick=96, channel=0, data=[72, 0]),\n",
      "   midi.NoteOnEvent(tick=0, channel=0, data=[76, 100]),\n",
      "   midi.NoteOnEvent(tick=96, channel=0, data=[76, 0]),\n",
      "   midi.NoteOnEvent(tick=0, channel=0, data=[81, 100]),\n",
      "   midi.NoteOnEvent(tick=480, channel=0, data=[81, 0]),\n",
      "   midi.NoteOnEvent(tick=0, channel=0, data=[69, 100]),\n",
      "   midi.NoteOnEvent(tick=96, channel=0, data=[69, 0]),\n",
      "   midi.NoteOnEvent(tick=0, channel=0, data=[74, 100]),\n",
      "   midi.NoteOnEvent(tick=96, channel=0, data=[74, 0]),\n",
      "   midi.NoteOnEvent(tick=0, channel=0, data=[77, 100]),\n",
      "   midi.NoteOnEvent(tick=96, channel=0, data=[77, 0]),\n",
      "   midi.NoteOnEvent(tick=0, channel=0, data=[81, 100]),\n",
      "   midi.NoteOnEvent(tick=576, channel=0, data=[81, 0]),\n",
      "   midi.NoteOnEvent(tick=0, channel=0, data=[69, 100]),\n",
      "   midi.NoteOnEvent(tick=192, channel=0, data=[69, 0]),\n",
      "   midi.NoteOnEvent(tick=0, channel=0, data=[64, 100]),\n",
      "   midi.NoteOnEvent(tick=192, channel=0, data=[64, 0]),\n",
      "   midi.NoteOnEvent(tick=0, channel=0, data=[68, 100]),\n",
      "   midi.NoteOnEvent(tick=192, channel=0, data=[68, 0]),\n",
      "   midi.NoteOnEvent(tick=0, channel=0, data=[57, 100]),\n",
      "   midi.NoteOnEvent(tick=192, channel=0, data=[57, 0]),\n",
      "   midi.NoteOnEvent(tick=0, channel=0, data=[69, 100]),\n",
      "   midi.NoteOnEvent(tick=192, channel=0, data=[69, 0]),\n",
      "   midi.NoteOnEvent(tick=0, channel=0, data=[76, 100]),\n",
      "   midi.NoteOnEvent(tick=576, channel=0, data=[76, 0]),\n",
      "   midi.NoteOnEvent(tick=0, channel=0, data=[74, 100]),\n",
      "   midi.NoteOnEvent(tick=96, channel=0, data=[74, 0]),\n",
      "   midi.NoteOnEvent(tick=0, channel=0, data=[73, 100]),\n",
      "   midi.NoteOnEvent(tick=96, channel=0, data=[73, 0]),\n",
      "   midi.NoteOnEvent(tick=0, channel=0, data=[74, 100]),\n",
      "   midi.NoteOnEvent(tick=192, channel=0, data=[74, 0]),\n",
      "   midi.NoteOnEvent(tick=0, channel=0, data=[77, 100]),\n",
      "   midi.NoteOnEvent(tick=384, channel=0, data=[77, 0]),\n",
      "   midi.NoteOnEvent(tick=0, channel=0, data=[71, 100]),\n",
      "   midi.NoteOnEvent(tick=96, channel=0, data=[71, 0]),\n",
      "   midi.NoteOnEvent(tick=0, channel=0, data=[72, 100]),\n",
      "   midi.NoteOnEvent(tick=96, channel=0, data=[72, 0]),\n",
      "   midi.NoteOnEvent(tick=0, channel=0, data=[74, 100]),\n",
      "   midi.NoteOnEvent(tick=96, channel=0, data=[74, 0]),\n",
      "   midi.NoteOnEvent(tick=0, channel=0, data=[71, 100]),\n",
      "   midi.NoteOnEvent(tick=96, channel=0, data=[71, 0]),\n",
      "   midi.NoteOnEvent(tick=0, channel=0, data=[72, 100]),\n",
      "   midi.NoteOnEvent(tick=96, channel=0, data=[72, 0]),\n",
      "   midi.NoteOnEvent(tick=0, channel=0, data=[69, 100]),\n",
      "   midi.NoteOnEvent(tick=96, channel=0, data=[69, 0]),\n",
      "   midi.NoteOnEvent(tick=0, channel=0, data=[71, 100]),\n",
      "   midi.NoteOnEvent(tick=96, channel=0, data=[71, 0]),\n",
      "   midi.NoteOnEvent(tick=0, channel=0, data=[67, 100]),\n",
      "   midi.NoteOnEvent(tick=96, channel=0, data=[67, 0]),\n",
      "   midi.NoteOnEvent(tick=0, channel=0, data=[66, 100]),\n",
      "   midi.NoteOnEvent(tick=96, channel=0, data=[66, 0]),\n",
      "   midi.NoteOnEvent(tick=0, channel=0, data=[67, 100]),\n",
      "   midi.NoteOnEvent(tick=96, channel=0, data=[67, 0]),\n",
      "   midi.NoteOnEvent(tick=0, channel=0, data=[71, 100]),\n",
      "   midi.NoteOnEvent(tick=96, channel=0, data=[71, 0]),\n",
      "   midi.NoteOnEvent(tick=0, channel=0, data=[67, 100]),\n",
      "   midi.NoteOnEvent(tick=96, channel=0, data=[67, 0]),\n",
      "   midi.NoteOnEvent(tick=0, channel=0, data=[74, 100]),\n",
      "   midi.NoteOnEvent(tick=96, channel=0, data=[74, 0]),\n",
      "   midi.NoteOnEvent(tick=0, channel=0, data=[71, 100]),\n",
      "   midi.NoteOnEvent(tick=96, channel=0, data=[71, 0]),\n",
      "   midi.NoteOnEvent(tick=0, channel=0, data=[79, 100]),\n",
      "   midi.NoteOnEvent(tick=192, channel=0, data=[79, 0]),\n",
      "   midi.NoteOnEvent(tick=0, channel=0, data=[67, 100]),\n",
      "   midi.NoteOnEvent(tick=192, channel=0, data=[67, 0]),\n",
      "   midi.NoteOnEvent(tick=0, channel=0, data=[74, 100]),\n",
      "   midi.NoteOnEvent(tick=576, channel=0, data=[74, 0]),\n",
      "   midi.NoteOnEvent(tick=0, channel=0, data=[72, 100]),\n",
      "   midi.NoteOnEvent(tick=96, channel=0, data=[72, 0]),\n",
      "   midi.NoteOnEvent(tick=0, channel=0, data=[71, 100]),\n",
      "   midi.NoteOnEvent(tick=96, channel=0, data=[71, 0]),\n",
      "   midi.NoteOnEvent(tick=0, channel=0, data=[72, 100]),\n",
      "   midi.NoteOnEvent(tick=192, channel=0, data=[72, 0]),\n",
      "   midi.NoteOnEvent(tick=0, channel=0, data=[76, 100]),\n",
      "   midi.NoteOnEvent(tick=384, channel=0, data=[76, 0]),\n",
      "   midi.NoteOnEvent(tick=0, channel=0, data=[69, 100]),\n",
      "   midi.NoteOnEvent(tick=96, channel=0, data=[69, 0]),\n",
      "   midi.NoteOnEvent(tick=0, channel=0, data=[71, 100]),\n",
      "   midi.NoteOnEvent(tick=96, channel=0, data=[71, 0]),\n",
      "   midi.NoteOnEvent(tick=0, channel=0, data=[72, 100]),\n",
      "   midi.NoteOnEvent(tick=96, channel=0, data=[72, 0]),\n",
      "   midi.NoteOnEvent(tick=0, channel=0, data=[69, 100]),\n",
      "   midi.NoteOnEvent(tick=96, channel=0, data=[69, 0]),\n",
      "   midi.NoteOnEvent(tick=0, channel=0, data=[71, 100]),\n",
      "   midi.NoteOnEvent(tick=96, channel=0, data=[71, 0]),\n",
      "   midi.NoteOnEvent(tick=0, channel=0, data=[68, 100]),\n",
      "   midi.NoteOnEvent(tick=96, channel=0, data=[68, 0]),\n",
      "   midi.NoteOnEvent(tick=0, channel=0, data=[69, 100]),\n",
      "   midi.NoteOnEvent(tick=96, channel=0, data=[69, 0]),\n",
      "   midi.NoteOnEvent(tick=0, channel=0, data=[65, 100]),\n",
      "   midi.NoteOnEvent(tick=96, channel=0, data=[65, 0]),\n",
      "   midi.NoteOnEvent(tick=0, channel=0, data=[64, 100]),\n",
      "   midi.NoteOnEvent(tick=96, channel=0, data=[64, 0]),\n",
      "   midi.NoteOnEvent(tick=0, channel=0, data=[65, 100]),\n",
      "   midi.NoteOnEvent(tick=96, channel=0, data=[65, 0]),\n",
      "   midi.NoteOnEvent(tick=0, channel=0, data=[69, 100]),\n",
      "   midi.NoteOnEvent(tick=96, channel=0, data=[69, 0]),\n",
      "   midi.NoteOnEvent(tick=0, channel=0, data=[65, 100]),\n",
      "   midi.NoteOnEvent(tick=96, channel=0, data=[65, 0]),\n",
      "   midi.NoteOnEvent(tick=0, channel=0, data=[72, 100]),\n",
      "   midi.NoteOnEvent(tick=96, channel=0, data=[72, 0]),\n",
      "   midi.NoteOnEvent(tick=0, channel=0, data=[65, 100]),\n",
      "   midi.NoteOnEvent(tick=96, channel=0, data=[65, 0]),\n",
      "   midi.NoteOnEvent(tick=0, channel=0, data=[77, 100]),\n",
      "   midi.NoteOnEvent(tick=192, channel=0, data=[77, 0]),\n",
      "   midi.NoteOnEvent(tick=0, channel=0, data=[65, 100]),\n",
      "   midi.NoteOnEvent(tick=192, channel=0, data=[65, 0]),\n",
      "   midi.NoteOnEvent(tick=0, channel=0, data=[72, 100]),\n",
      "   midi.NoteOnEvent(tick=576, channel=0, data=[72, 0]),\n",
      "   midi.NoteOnEvent(tick=0, channel=0, data=[71, 100]),\n",
      "   midi.NoteOnEvent(tick=96, channel=0, data=[71, 0]),\n",
      "   midi.NoteOnEvent(tick=0, channel=0, data=[72, 100]),\n",
      "   midi.NoteOnEvent(tick=96, channel=0, data=[72, 0]),\n",
      "   midi.NoteOnEvent(tick=0, channel=0, data=[74, 100]),\n",
      "   midi.NoteOnEvent(tick=192, channel=0, data=[74, 0]),\n",
      "   midi.NoteOnEvent(tick=0, channel=0, data=[65, 100]),\n",
      "   midi.NoteOnEvent(tick=192, channel=0, data=[65, 0]),\n",
      "   midi.NoteOnEvent(tick=0, channel=0, data=[64, 100]),\n",
      "   midi.NoteOnEvent(tick=192, channel=0, data=[64, 0]),\n",
      "   midi.NoteOnEvent(tick=0, channel=0, data=[74, 100]),\n",
      "   midi.NoteOnEvent(tick=192, channel=0, data=[74, 0]),\n",
      "   midi.NoteOnEvent(tick=0, channel=0, data=[72, 100]),\n",
      "   midi.NoteOnEvent(tick=192, channel=0, data=[72, 0]),\n",
      "   midi.NoteOnEvent(tick=0, channel=0, data=[64, 100]),\n",
      "   midi.NoteOnEvent(tick=192, channel=0, data=[64, 0]),\n",
      "   midi.NoteOnEvent(tick=0, channel=0, data=[62, 100]),\n",
      "   midi.NoteOnEvent(tick=96, channel=0, data=[62, 0]),\n",
      "   midi.NoteOnEvent(tick=0, channel=0, data=[72, 100]),\n",
      "   midi.NoteOnEvent(tick=96, channel=0, data=[72, 0]),\n",
      "   midi.NoteOnEvent(tick=0, channel=0, data=[71, 100]),\n",
      "   midi.NoteOnEvent(tick=96, channel=0, data=[71, 0]),\n",
      "   midi.NoteOnEvent(tick=0, channel=0, data=[69, 100]),\n",
      "   midi.NoteOnEvent(tick=96, channel=0, data=[69, 0]),\n",
      "   midi.NoteOnEvent(tick=0, channel=0, data=[71, 100]),\n",
      "   midi.NoteOnEvent(tick=96, channel=0, data=[71, 0]),\n",
      "   midi.NoteOnEvent(tick=0, channel=0, data=[69, 100]),\n",
      "   midi.NoteOnEvent(tick=96, channel=0, data=[69, 0]),\n",
      "   midi.NoteOnEvent(tick=0, channel=0, data=[68, 100]),\n",
      "   midi.NoteOnEvent(tick=96, channel=0, data=[68, 0]),\n",
      "   midi.NoteOnEvent(tick=0, channel=0, data=[66, 100]),\n",
      "   midi.NoteOnEvent(tick=96, channel=0, data=[66, 0]),\n",
      "   midi.NoteOnEvent(tick=0, channel=0, data=[68, 100]),\n",
      "   midi.NoteOnEvent(tick=192, channel=0, data=[68, 0]),\n",
      "   midi.NoteOnEvent(tick=0, channel=0, data=[77, 100]),\n",
      "   midi.NoteOnEvent(tick=192, channel=0, data=[77, 0]),\n",
      "   midi.NoteOnEvent(tick=0, channel=0, data=[76, 100]),\n",
      "   midi.NoteOnEvent(tick=192, channel=0, data=[76, 0]),\n",
      "   midi.NoteOnEvent(tick=0, channel=0, data=[81, 100]),\n",
      "   midi.NoteOnEvent(tick=192, channel=0, data=[81, 0]),\n",
      "   midi.NoteOnEvent(tick=0, channel=0, data=[84, 100]),\n",
      "   midi.NoteOnEvent(tick=384, channel=0, data=[84, 0]),\n",
      "   midi.NoteOnEvent(tick=0, channel=0, data=[83, 100]),\n",
      "   midi.NoteOnEvent(tick=48, channel=0, data=[83, 0]),\n",
      "   midi.NoteOnEvent(tick=0, channel=0, data=[84, 100]),\n",
      "   midi.NoteOnEvent(tick=48, channel=0, data=[84, 0]),\n",
      "   midi.NoteOnEvent(tick=0, channel=0, data=[83, 100]),\n",
      "   midi.NoteOnEvent(tick=48, channel=0, data=[83, 0]),\n",
      "   midi.NoteOnEvent(tick=0, channel=0, data=[84, 100]),\n",
      "   midi.NoteOnEvent(tick=48, channel=0, data=[84, 0]),\n",
      "   midi.NoteOnEvent(tick=0, channel=0, data=[83, 100]),\n",
      "   midi.NoteOnEvent(tick=48, channel=0, data=[83, 0]),\n",
      "   midi.NoteOnEvent(tick=0, channel=0, data=[84, 100]),\n",
      "   midi.NoteOnEvent(tick=48, channel=0, data=[84, 0]),\n",
      "   midi.NoteOnEvent(tick=0, channel=0, data=[83, 100]),\n",
      "   midi.NoteOnEvent(tick=48, channel=0, data=[83, 0]),\n",
      "   midi.NoteOnEvent(tick=0, channel=0, data=[84, 100]),\n",
      "   midi.NoteOnEvent(tick=48, channel=0, data=[84, 0]),\n",
      "   midi.NoteOnEvent(tick=0, channel=0, data=[83, 100]),\n",
      "   midi.NoteOnEvent(tick=96, channel=0, data=[83, 0]),\n",
      "   midi.NoteOnEvent(tick=0, channel=0, data=[84, 100]),\n",
      "   midi.NoteOnEvent(tick=96, channel=0, data=[84, 0]),\n",
      "   midi.NoteOnEvent(tick=0, channel=0, data=[86, 100]),\n",
      "   midi.NoteOnEvent(tick=96, channel=0, data=[86, 0]),\n",
      "   midi.NoteOnEvent(tick=0, channel=0, data=[84, 100]),\n",
      "   midi.NoteOnEvent(tick=96, channel=0, data=[84, 0]),\n",
      "   midi.NoteOnEvent(tick=0, channel=0, data=[83, 100]),\n",
      "   midi.NoteOnEvent(tick=96, channel=0, data=[83, 0]),\n",
      "   midi.NoteOnEvent(tick=0, channel=0, data=[86, 100]),\n",
      "   midi.NoteOnEvent(tick=96, channel=0, data=[86, 0]),\n",
      "   midi.NoteOnEvent(tick=0, channel=0, data=[81, 100]),\n",
      "   midi.NoteOnEvent(tick=96, channel=0, data=[81, 0]),\n",
      "   midi.NoteOnEvent(tick=0, channel=0, data=[86, 100]),\n",
      "   midi.NoteOnEvent(tick=96, channel=0, data=[86, 0]),\n",
      "   midi.NoteOnEvent(tick=0, channel=0, data=[80, 100]),\n",
      "   midi.NoteOnEvent(tick=96, channel=0, data=[80, 0]),\n",
      "   midi.NoteOnEvent(tick=0, channel=0, data=[81, 100]),\n",
      "   midi.NoteOnEvent(tick=96, channel=0, data=[81, 0]),\n",
      "   midi.NoteOnEvent(tick=0, channel=0, data=[83, 100]),\n",
      "   midi.NoteOnEvent(tick=96, channel=0, data=[83, 0]),\n",
      "   midi.NoteOnEvent(tick=0, channel=0, data=[81, 100]),\n",
      "   midi.NoteOnEvent(tick=96, channel=0, data=[81, 0]),\n",
      "   midi.NoteOnEvent(tick=0, channel=0, data=[80, 100]),\n",
      "   midi.NoteOnEvent(tick=96, channel=0, data=[80, 0]),\n",
      "   midi.NoteOnEvent(tick=0, channel=0, data=[83, 100]),\n",
      "   midi.NoteOnEvent(tick=96, channel=0, data=[83, 0]),\n",
      "   midi.NoteOnEvent(tick=0, channel=0, data=[77, 100]),\n",
      "   midi.NoteOnEvent(tick=96, channel=0, data=[77, 0]),\n",
      "   midi.NoteOnEvent(tick=0, channel=0, data=[83, 100]),\n",
      "   midi.NoteOnEvent(tick=96, channel=0, data=[83, 0]),\n",
      "   midi.NoteOnEvent(tick=0, channel=0, data=[74, 100]),\n",
      "   midi.NoteOnEvent(tick=96, channel=0, data=[74, 0]),\n",
      "   midi.NoteOnEvent(tick=0, channel=0, data=[76, 100]),\n",
      "   midi.NoteOnEvent(tick=96, channel=0, data=[76, 0]),\n",
      "   midi.NoteOnEvent(tick=0, channel=0, data=[77, 100]),\n",
      "   midi.NoteOnEvent(tick=96, channel=0, data=[77, 0]),\n",
      "   midi.NoteOnEvent(tick=0, channel=0, data=[76, 100]),\n",
      "   midi.NoteOnEvent(tick=96, channel=0, data=[76, 0]),\n",
      "   midi.NoteOnEvent(tick=0, channel=0, data=[74, 100]),\n",
      "   midi.NoteOnEvent(tick=96, channel=0, data=[74, 0]),\n",
      "   midi.NoteOnEvent(tick=0, channel=0, data=[77, 100]),\n",
      "   midi.NoteOnEvent(tick=96, channel=0, data=[77, 0]),\n",
      "   midi.NoteOnEvent(tick=0, channel=0, data=[72, 100]),\n",
      "   midi.NoteOnEvent(tick=96, channel=0, data=[72, 0]),\n",
      "   midi.NoteOnEvent(tick=0, channel=0, data=[77, 100]),\n",
      "   midi.NoteOnEvent(tick=96, channel=0, data=[77, 0]),\n",
      "   midi.NoteOnEvent(tick=0, channel=0, data=[71, 100]),\n",
      "   midi.NoteOnEvent(tick=96, channel=0, data=[71, 0]),\n",
      "   midi.NoteOnEvent(tick=0, channel=0, data=[72, 100]),\n",
      "   midi.NoteOnEvent(tick=96, channel=0, data=[72, 0]),\n",
      "   midi.NoteOnEvent(tick=0, channel=0, data=[74, 100]),\n",
      "   midi.NoteOnEvent(tick=96, channel=0, data=[74, 0]),\n",
      "   midi.NoteOnEvent(tick=0, channel=0, data=[72, 100]),\n",
      "   midi.NoteOnEvent(tick=96, channel=0, data=[72, 0]),\n",
      "   midi.NoteOnEvent(tick=0, channel=0, data=[71, 100]),\n",
      "   midi.NoteOnEvent(tick=96, channel=0, data=[71, 0]),\n",
      "   midi.NoteOnEvent(tick=0, channel=0, data=[74, 100]),\n",
      "   midi.NoteOnEvent(tick=96, channel=0, data=[74, 0]),\n",
      "   midi.NoteOnEvent(tick=0, channel=0, data=[69, 100]),\n",
      "   midi.NoteOnEvent(tick=96, channel=0, data=[69, 0]),\n",
      "   midi.NoteOnEvent(tick=0, channel=0, data=[74, 100]),\n",
      "   midi.NoteOnEvent(tick=96, channel=0, data=[74, 0]),\n",
      "   midi.NoteOnEvent(tick=0, channel=0, data=[68, 100]),\n",
      "   midi.NoteOnEvent(tick=96, channel=0, data=[68, 0]),\n",
      "   midi.NoteOnEvent(tick=0, channel=0, data=[74, 100]),\n",
      "   midi.NoteOnEvent(tick=96, channel=0, data=[74, 0]),\n",
      "   midi.NoteOnEvent(tick=0, channel=0, data=[64, 100]),\n",
      "   midi.NoteOnEvent(tick=96, channel=0, data=[64, 0]),\n",
      "   midi.NoteOnEvent(tick=0, channel=0, data=[66, 100]),\n",
      "   midi.NoteOnEvent(tick=96, channel=0, data=[66, 0]),\n",
      "   midi.NoteOnEvent(tick=0, channel=0, data=[68, 100]),\n",
      "   midi.NoteOnEvent(tick=96, channel=0, data=[68, 0]),\n",
      "   midi.NoteOnEvent(tick=0, channel=0, data=[69, 100]),\n",
      "   midi.NoteOnEvent(tick=96, channel=0, data=[69, 0]),\n",
      "   midi.NoteOnEvent(tick=0, channel=0, data=[71, 100]),\n",
      "   midi.NoteOnEvent(tick=96, channel=0, data=[71, 0]),\n",
      "   midi.NoteOnEvent(tick=0, channel=0, data=[72, 100]),\n",
      "   midi.NoteOnEvent(tick=96, channel=0, data=[72, 0]),\n",
      "   midi.NoteOnEvent(tick=0, channel=0, data=[74, 100]),\n",
      "   midi.NoteOnEvent(tick=96, channel=0, data=[74, 0]),\n",
      "   midi.NoteOnEvent(tick=0, channel=0, data=[76, 100]),\n",
      "   midi.NoteOnEvent(tick=96, channel=0, data=[76, 0]),\n",
      "   midi.NoteOnEvent(tick=0, channel=0, data=[78, 100]),\n",
      "   midi.NoteOnEvent(tick=96, channel=0, data=[78, 0]),\n",
      "   midi.NoteOnEvent(tick=0, channel=0, data=[80, 100]),\n",
      "   midi.NoteOnEvent(tick=96, channel=0, data=[80, 0]),\n",
      "   midi.NoteOnEvent(tick=0, channel=0, data=[81, 100]),\n",
      "   midi.NoteOnEvent(tick=96, channel=0, data=[81, 0]),\n",
      "   midi.NoteOnEvent(tick=0, channel=0, data=[83, 100]),\n",
      "   midi.NoteOnEvent(tick=96, channel=0, data=[83, 0]),\n",
      "   midi.NoteOnEvent(tick=0, channel=0, data=[84, 100]),\n",
      "   midi.NoteOnEvent(tick=96, channel=0, data=[84, 0]),\n",
      "   midi.NoteOnEvent(tick=0, channel=0, data=[86, 100]),\n",
      "   midi.NoteOnEvent(tick=96, channel=0, data=[86, 0]),\n",
      "   midi.NoteOnEvent(tick=0, channel=0, data=[88, 100]),\n",
      "   midi.NoteOnEvent(tick=192, channel=0, data=[88, 0]),\n",
      "   midi.NoteOnEvent(tick=0, channel=0, data=[81, 100]),\n",
      "   midi.NoteOnEvent(tick=192, channel=0, data=[81, 0]),\n",
      "   midi.NoteOnEvent(tick=0, channel=0, data=[83, 100]),\n",
      "   midi.NoteOnEvent(tick=192, channel=0, data=[83, 0]),\n",
      "   midi.NoteOnEvent(tick=0, channel=0, data=[80, 100]),\n",
      "   midi.NoteOnEvent(tick=192, channel=0, data=[80, 0]),\n",
      "   midi.NoteOnEvent(tick=0, channel=0, data=[81, 100]),\n",
      "   midi.NoteOnEvent(tick=96, channel=0, data=[81, 0]),\n",
      "   midi.NoteOnEvent(tick=0, channel=0, data=[79, 100]),\n",
      "   midi.NoteOnEvent(tick=96, channel=0, data=[79, 0]),\n",
      "   midi.NoteOnEvent(tick=0, channel=0, data=[77, 100]),\n",
      "   midi.NoteOnEvent(tick=96, channel=0, data=[77, 0]),\n",
      "   midi.NoteOnEvent(tick=0, channel=0, data=[76, 100]),\n",
      "   midi.NoteOnEvent(tick=96, channel=0, data=[76, 0]),\n",
      "   midi.NoteOnEvent(tick=0, channel=0, data=[74, 100]),\n",
      "   midi.NoteOnEvent(tick=192, channel=0, data=[74, 0]),\n",
      "   midi.NoteOnEvent(tick=0, channel=0, data=[74, 100]),\n",
      "   midi.NoteOnEvent(tick=192, channel=0, data=[74, 0]),\n",
      "   midi.NoteOnEvent(tick=0, channel=0, data=[74, 100]),\n",
      "   midi.NoteOnEvent(tick=96, channel=0, data=[74, 0]),\n",
      "   midi.NoteOnEvent(tick=0, channel=0, data=[76, 100]),\n",
      "   midi.NoteOnEvent(tick=96, channel=0, data=[76, 0]),\n",
      "   midi.NoteOnEvent(tick=0, channel=0, data=[77, 100]),\n",
      "   midi.NoteOnEvent(tick=288, channel=0, data=[77, 0]),\n",
      "   midi.NoteOnEvent(tick=0, channel=0, data=[76, 100]),\n",
      "   midi.NoteOnEvent(tick=96, channel=0, data=[76, 0]),\n",
      "   midi.NoteOnEvent(tick=0, channel=0, data=[74, 100]),\n",
      "   midi.NoteOnEvent(tick=96, channel=0, data=[74, 0]),\n",
      "   midi.NoteOnEvent(tick=0, channel=0, data=[72, 100]),\n",
      "   midi.NoteOnEvent(tick=96, channel=0, data=[72, 0]),\n",
      "   midi.NoteOnEvent(tick=0, channel=0, data=[71, 100]),\n",
      "   midi.NoteOnEvent(tick=96, channel=0, data=[71, 0]),\n",
      "   midi.NoteOnEvent(tick=0, channel=0, data=[72, 100]),\n",
      "   midi.NoteOnEvent(tick=96, channel=0, data=[72, 0]),\n",
      "   midi.NoteOnEvent(tick=0, channel=0, data=[74, 100]),\n",
      "   midi.NoteOnEvent(tick=288, channel=0, data=[74, 0]),\n",
      "   midi.NoteOnEvent(tick=0, channel=0, data=[72, 100]),\n",
      "   midi.NoteOnEvent(tick=96, channel=0, data=[72, 0]),\n",
      "   midi.NoteOnEvent(tick=0, channel=0, data=[71, 100]),\n",
      "   midi.NoteOnEvent(tick=96, channel=0, data=[71, 0]),\n",
      "   midi.NoteOnEvent(tick=0, channel=0, data=[69, 100]),\n",
      "   midi.NoteOnEvent(tick=96, channel=0, data=[69, 0]),\n",
      "   midi.NoteOnEvent(tick=0, channel=0, data=[68, 100]),\n",
      "   midi.NoteOnEvent(tick=192, channel=0, data=[68, 0]),\n",
      "   midi.NoteOnEvent(tick=0, channel=0, data=[76, 100]),\n",
      "   midi.NoteOnEvent(tick=192, channel=0, data=[76, 0]),\n",
      "   midi.NoteOnEvent(tick=0, channel=0, data=[72, 100]),\n",
      "   midi.NoteOnEvent(tick=48, channel=0, data=[72, 0]),\n",
      "   midi.NoteOnEvent(tick=0, channel=0, data=[74, 100]),\n",
      "   midi.NoteOnEvent(tick=48, channel=0, data=[74, 0]),\n",
      "   midi.NoteOnEvent(tick=0, channel=0, data=[72, 100]),\n",
      "   midi.NoteOnEvent(tick=48, channel=0, data=[72, 0]),\n",
      "   midi.NoteOnEvent(tick=0, channel=0, data=[74, 100]),\n",
      "   midi.NoteOnEvent(tick=48, channel=0, data=[74, 0]),\n",
      "   midi.NoteOnEvent(tick=0, channel=0, data=[71, 100]),\n",
      "   midi.NoteOnEvent(tick=96, channel=0, data=[71, 0]),\n",
      "   midi.NoteOnEvent(tick=0, channel=0, data=[69, 100]),\n",
      "   midi.NoteOnEvent(tick=96, channel=0, data=[69, 0]),\n",
      "   midi.NoteOnEvent(tick=0, channel=0, data=[69, 100]),\n",
      "   midi.NoteOnEvent(tick=576, channel=0, data=[69, 0]),\n",
      "   midi.EndOfTrackEvent(tick=0, data=[])])])\n"
     ]
    }
   ],
   "source": [
    "# Extract the violin solo in channel 1 and save it\n",
    "\n",
    "# Instantiate a MIDI Pattern (contains a list of tracks)\n",
    "pattern = midi.Pattern()\n",
    "# Append the track to the pattern\n",
    "pattern.append(bwv[0]) # info on tempo\n",
    "pattern.append(bwv[1])\n",
    "print(pattern)\n",
    "# Save the pattern to disk\n",
    "midi.write_midifile(\"bwv1041a_solo.mid\", pattern)"
   ]
  },
  {
   "cell_type": "markdown",
   "metadata": {},
   "source": [
    "# MIDI TO UNIGRAM FUNCTION"
   ]
  },
  {
   "cell_type": "code",
   "execution_count": 8,
   "metadata": {},
   "outputs": [],
   "source": [
    "def midi_to_unigram(FILE_NAME, BASE_TICK, LOWEST_NOTE):\n",
    "    \"\"\"\n",
    "    Converts input MIDI file given the base tick and lowest note in the file into unigrams.\n",
    "    \"\"\"\n",
    "    # Initializations\n",
    "    current_state = 0;\n",
    "\n",
    "    # Open the MIDI file\n",
    "    pattern = midi.read_midifile( FILE_NAME );\n",
    "    \n",
    "    # Initialize list to store unigrams\n",
    "    current_states = []\n",
    "\n",
    "    # Read the file for note on and off events\n",
    "    for line in pattern:\n",
    "        for event in line:\n",
    "            if type(event) == midi.events.NoteOffEvent or type(event) == midi.events.NoteOnEvent:\n",
    "\n",
    "                # Write the state enough number of times\n",
    "                for x in range(0, int( round( float(event.tick) / float(BASE_TICK) ) ) ):\n",
    "                    current_states.append(current_state)\n",
    "                \n",
    "                if type(event) == midi.events.NoteOffEvent or event.get_velocity() <= 0:\n",
    "                    if event.get_pitch() == current_state + LOWEST_NOTE - 1:\n",
    "                        current_state = 0;\n",
    "                else:\n",
    "                    current_state = event.get_pitch() - LOWEST_NOTE + 1;\n",
    "    \n",
    "    return current_states"
   ]
  },
  {
   "cell_type": "markdown",
   "metadata": {},
   "source": [
    "# UNIGRAMS TO N-GRAMS FUNCTION"
   ]
  },
  {
   "cell_type": "code",
   "execution_count": 9,
   "metadata": {},
   "outputs": [],
   "source": [
    "def all_ngrams(vocabulary, n):\n",
    "    \"\"\"Returns a list of all `n`-long *tuples* of elements of the `vocabulary`.\n",
    "    \n",
    "    For instance,  \n",
    "        >>> all_ngrams([\"one\", \"two\"], 3)\n",
    "        [('one', 'one', 'one'),\n",
    "         ('one', 'one', 'two'),\n",
    "         ('one', 'two', 'one'),\n",
    "         ('one', 'two', 'two'),\n",
    "         ('two', 'one', 'one'),\n",
    "         ('two', 'one', 'two'),\n",
    "         ('two', 'two', 'one'),\n",
    "         ('two', 'two', 'two')]\n",
    "         \n",
    "    Order of returned list is not specified or guaranteed.\n",
    "    When `n`=0, return [()].\n",
    "    \"\"\"\n",
    "    return list(itertools.product(vocabulary, repeat=n))"
   ]
  },
  {
   "cell_type": "code",
   "execution_count": 10,
   "metadata": {},
   "outputs": [],
   "source": [
    "def ngrams(notes_list, n):\n",
    "    \"\"\"Returns a list of all `n`-grams in a list of `notes`.\"\"\"\n",
    "    return [tuple(notes_list[i : i + n])\n",
    "            for i in range(0, len(notes_list) - n + 1)]"
   ]
  },
  {
   "cell_type": "markdown",
   "metadata": {},
   "source": [
    "Counting $n$-grams\n",
    "We conceptualize an $n$-gram as having two parts:\n",
    "\n",
    "The context is the first $n1$ notes in the $n$-gram.\n",
    "The target is the final note in the $n$-gram.\n",
    "An $n$-gram model specifies a probability for each $n$-gram type. We'll implement a model as a 2-D dictionary, indexed first by context and then by target, providing the probability for the $n$-gram.\n",
    "\n",
    "We start by generating a similar data structure for counting up the $n$-grams in a note sequence."
   ]
  },
  {
   "cell_type": "code",
   "execution_count": 11,
   "metadata": {},
   "outputs": [],
   "source": [
    "def ngram_counts(vocabulary, notes_list, n):\n",
    "    \"\"\"Returns a dictionary of counts of the `n`-grams in `notes_list`.\n",
    "    \n",
    "    The dictionary is structured with first index by (n-1)-gram context\n",
    "    and second index by the final target note.\n",
    "    \"\"\"\n",
    "    context_dict = defaultdict(lambda: defaultdict(int))\n",
    "    # zero all ngrams\n",
    "    for context in all_ngrams(vocabulary, n - 1):\n",
    "        for target in vocabulary:\n",
    "            context_dict[context][target] = 0\n",
    "    # add counts for attested ngrams\n",
    "    for ngram, count in Counter(ngrams(notes_list, n)).items():\n",
    "        context_dict[ngram[:-1]][ngram[-1]] = count\n",
    "    return context_dict"
   ]
  },
  {
   "cell_type": "markdown",
   "metadata": {},
   "source": [
    "# N-GRAM PROBABILITY MODEL ((N-1) ORDER MARKOV CHAIN) FUNCTION"
   ]
  },
  {
   "cell_type": "code",
   "execution_count": 12,
   "metadata": {},
   "outputs": [],
   "source": [
    "def ngram_model(ngram_counts):\n",
    "    \"\"\"Returns an n-gram probability model calculated by normalizing the \n",
    "       provided `ngram-counts` dictionary\n",
    "    \"\"\"\n",
    "    ngram_probs = defaultdict(lambda: defaultdict(float))\n",
    "    for history in list(ngram_counts.keys()):\n",
    "        for next_note in list(ngram_counts[history].keys()):\n",
    "            try:\n",
    "                ngram_probs[history][next_note] = (ngram_counts[history][next_note])/(sum(ngram_counts[history].values()))\n",
    "            except:\n",
    "                ngram_probs[history][next_note] = 0.0\n",
    "    return ngram_probs"
   ]
  },
  {
   "cell_type": "markdown",
   "metadata": {},
   "source": [
    "# FUNCTION FOR SAMPLING NOTES FROM TRANSITION MATRIX"
   ]
  },
  {
   "cell_type": "code",
   "execution_count": 13,
   "metadata": {},
   "outputs": [],
   "source": [
    "def sample(model, context):\n",
    "    \"\"\"Returns a note sampled from the `model` assuming the `context`\"\"\"\n",
    "    distribution = model[context]\n",
    "    prob_remaining = random.random()\n",
    "    for note, prob in sorted(distribution.items()):\n",
    "        if prob_remaining < prob:\n",
    "            return note\n",
    "        else:\n",
    "            prob_remaining -= prob\n",
    "    raise ValueError"
   ]
  },
  {
   "cell_type": "markdown",
   "metadata": {},
   "source": [
    "# FUNCTION FOR SAMPLING A SEQUENCE OF NOTES"
   ]
  },
  {
   "cell_type": "code",
   "execution_count": 14,
   "metadata": {},
   "outputs": [],
   "source": [
    "def sample_sequence(model, start_context, count=100):\n",
    "    \"\"\"Returns a sequence of `count` notes sampled successively\n",
    "       from the `model` *following the `start_context`*.\n",
    "       The length of the returned list should be `count+len(start_context)`.\n",
    "    \"\"\"\n",
    "    sequence = list(start_context)\n",
    "    cur_context = start_context\n",
    "    n = len(start_context)\n",
    "    for _ in range(count):\n",
    "        cur_sample = sample(model, cur_context)\n",
    "        sequence.append(cur_sample)\n",
    "        cur_context = () if n == 0 else list(cur_context[1:]) + [cur_sample]\n",
    "        cur_context = tuple(cur_context)\n",
    "    return sequence"
   ]
  },
  {
   "cell_type": "markdown",
   "metadata": {},
   "source": [
    "# UNIGRAM TO MIDI FILE FUNCTION"
   ]
  },
  {
   "cell_type": "code",
   "execution_count": 15,
   "metadata": {},
   "outputs": [],
   "source": [
    "def unigram_to_midi(unigrams, bpm, lowest_note, instrument, base_tick):\n",
    "    \"\"\"\n",
    "    Takes in a list of unigrams as well as information regarding the beats per minute (BPM), the lowest note \n",
    "    in the original piece, the instrument, and the base tick.\n",
    "    \n",
    "    Function from https://github.com/kstar/markov-music/blob/master/unigrams-to-midi.py\n",
    "    \"\"\"\n",
    "    BPM = bpm;\n",
    "    LOWEST_NOTE = lowest_note; # Decide how much transpose\n",
    "    INSTRUMENT = instrument; # Choose the instrument rendering the music\n",
    "    BASE_TICK = base_tick;\n",
    "\n",
    "    prev_unigram = 0; # No sound to start with\n",
    "    tick_count = 0;\n",
    "\n",
    "    pattern = midi.Pattern();\n",
    "\n",
    "    track = midi.Track();\n",
    "    pattern.append( track );\n",
    "\n",
    "    set_instrument_event = midi.ProgramChangeEvent();\n",
    "    set_instrument_event.set_value( INSTRUMENT );\n",
    "    track.append( set_instrument_event );\n",
    "\n",
    "    set_tempo_event = midi.SetTempoEvent();\n",
    "    set_tempo_event.set_bpm( BPM );\n",
    "    track.append( set_tempo_event );\n",
    "\n",
    "    for unigram_string in unigrams:\n",
    "        tick_count = tick_count + 1;\n",
    "        unigram = int( unigram_string );\n",
    "        if unigram != prev_unigram:\n",
    "            note = unigram + ( LOWEST_NOTE - 1 );\n",
    "            previous_note = prev_unigram + ( LOWEST_NOTE - 1 );\n",
    "\n",
    "            if prev_unigram != 0: # First turn off any notes that are playing already\n",
    "                event = midi.NoteOffEvent( tick = tick_count * BASE_TICK, velocity = 0, pitch = previous_note );\n",
    "                track.append( event );\n",
    "                tick_count = 0;\n",
    "\n",
    "            if unigram != 0: # We have a new note, so play it\n",
    "                event = midi.NoteOnEvent( tick = tick_count * BASE_TICK, velocity = 120, pitch = note );\n",
    "                track.append( event );\n",
    "                tick_count = 0;\n",
    "\n",
    "        prev_unigram = unigram\n",
    "\n",
    "\n",
    "    eot = midi.EndOfTrackEvent( tick = 1 );\n",
    "    track.append( eot );\n",
    "    \n",
    "    rand_number = random.randint(50, 1000)\n",
    "    new_piece_file_name = 'test_folder/composed_song_trial' + str(rand_number) + '.mid'\n",
    "    \n",
    "    print(\"New piece saved to \" + new_piece_file_name)\n",
    "    midi.write_midifile(new_piece_file_name, pattern );"
   ]
  },
  {
   "cell_type": "markdown",
   "metadata": {},
   "source": [
    "# COMPOSITION FUNCTION"
   ]
  },
  {
   "cell_type": "code",
   "execution_count": 16,
   "metadata": {},
   "outputs": [],
   "source": [
    "def compose(MIDI_FILE, n):\n",
    "    \"\"\"\n",
    "    Function takes in a midi file (as a string) along with a value n, specifying the length of the n-grams being used\n",
    "    as our states. It trains a (n-1)-order Markov model based on note transitions in the input midi file and samples\n",
    "    from this created Markov chain to compose a piece of the same length as the piece in the inputted midi file. It \n",
    "    prints out the name of the file the composed piece is saved as.\n",
    "    \"\"\"\n",
    "    # get necessary information, like lowest note, base tick, bpm\n",
    "    pattern = midi.read_midifile( MIDI_FILE );\n",
    "    notes_list = []\n",
    "    ticks_list = [] \n",
    "    bpm_list = []\n",
    "    for line in pattern:\n",
    "        for event in line:\n",
    "            # get instrument\n",
    "            if type(event) == midi.events.ProgramChangeEvent:\n",
    "                INSTRUMENT = event.get_value()\n",
    "            \n",
    "            # get BPM\n",
    "            if type(event) == midi.events.SetTempoEvent:\n",
    "                bpm_list.append(int(event.get_bpm()))\n",
    "\n",
    "            if type(event) == midi.events.NoteOffEvent or type(event) == midi.events.NoteOnEvent:\n",
    "                notes_list.append(event.get_pitch())\n",
    "                ticks_list.append(event.tick)\n",
    "\n",
    "    BPM = stats.mode(bpm_list)\n",
    "    \n",
    "    notes = list(set(notes_list))\n",
    "    notes.sort()\n",
    "    ticks = list(set(ticks_list))\n",
    "    ticks.sort()\n",
    "    \n",
    "    # get number corresponding to lowest note in the piece\n",
    "    LOWEST_NOTE = notes[0]\n",
    "    \n",
    "    # get lowest tick interval (interval all ticks can be evenly divided by)\n",
    "    BASE_TICK = ticks[1]\n",
    "    \n",
    "    # midi to unigram\n",
    "    current_states = midi_to_unigram(MIDI_FILE, BASE_TICK, LOWEST_NOTE)\n",
    "    PIECE_LENGTH = len(current_states)\n",
    "    \n",
    "    vocabulary = list(set(current_states))\n",
    "    gram_counts = ngram_counts(vocabulary, current_states, n)\n",
    "    model = ngram_model(gram_counts)\n",
    "    \n",
    "    # get first nonzero element (first played note) in list of states/notes\n",
    "    val = next((index for index,value in enumerate(current_states) if value != 0), None)\n",
    "    \n",
    "    initial_sequence = tuple(current_states[val:(val + n - 1)])\n",
    "    unigrams = sample_sequence(model, initial_sequence, PIECE_LENGTH)\n",
    "    \n",
    "    unigram_to_midi(unigrams, BPM, LOWEST_NOTE, INSTRUMENT, BASE_TICK)\n",
    "    \n",
    "    return current_states, unigrams"
   ]
  },
  {
   "cell_type": "code",
   "execution_count": 17,
   "metadata": {},
   "outputs": [],
   "source": [
    "def create_model(MIDI_FILE, n):\n",
    "    \"\"\"\n",
    "    Function takes in a midi file (as a string) along with a value n, specifying the length of the n-grams being used\n",
    "    as our states. It trains a (n-1)-order Markov model based on note transitions in the input midi file.\n",
    "    (created in addition to the compose function so we don't have to create the model numerous times to generate \n",
    "    a large number of pieces)\n",
    "    \"\"\"\n",
    "    # get necessary information, like lowest note, base tick, bpm\n",
    "    pattern = midi.read_midifile( MIDI_FILE );\n",
    "    notes_list = []\n",
    "    ticks_list = [] \n",
    "    bpm_list = []\n",
    "    for line in pattern:\n",
    "        for event in line:\n",
    "            # get instrument\n",
    "            if type(event) == midi.events.ProgramChangeEvent:\n",
    "                INSTRUMENT = event.get_value()\n",
    "            \n",
    "            # get BPM\n",
    "            if type(event) == midi.events.SetTempoEvent:\n",
    "                bpm_list.append(int(event.get_bpm()))\n",
    "\n",
    "            if type(event) == midi.events.NoteOffEvent or type(event) == midi.events.NoteOnEvent:\n",
    "                notes_list.append(event.get_pitch())\n",
    "                ticks_list.append(event.tick)\n",
    "\n",
    "    BPM = stats.mode(bpm_list)\n",
    "    \n",
    "    notes = list(set(notes_list))\n",
    "    notes.sort()\n",
    "    ticks = list(set(ticks_list))\n",
    "    ticks.sort()\n",
    "    \n",
    "    # get number corresponding to lowest note in the piece\n",
    "    LOWEST_NOTE = notes[0]\n",
    "    \n",
    "    # get lowest tick interval (interval all ticks can be evenly divided by)\n",
    "    BASE_TICK = ticks[1]\n",
    "    \n",
    "    # midi to unigram\n",
    "    current_states = midi_to_unigram(MIDI_FILE, BASE_TICK, LOWEST_NOTE)\n",
    "    \n",
    "    vocabulary = list(set(current_states))\n",
    "    gram_counts = ngram_counts(vocabulary, current_states, n)\n",
    "    model = ngram_model(gram_counts)\n",
    "    \n",
    "    return current_states, model, BPM, LOWEST_NOTE, INSTRUMENT, BASE_TICK"
   ]
  },
  {
   "cell_type": "code",
   "execution_count": 18,
   "metadata": {},
   "outputs": [],
   "source": [
    "def compose_with_model(current_states, model, BPM, LOWEST_NOTE, INSTRUMENT, BASE_TICK, n):\n",
    "    \"\"\"\n",
    "    Function is identical to the second half of the compose function, uses a passed in trained model along with\n",
    "    other MIDI file information to generate a composition.\n",
    "    \"\"\"\n",
    "    PIECE_LENGTH = len(current_states)\n",
    "    \n",
    "    # get first nonzero element (first played note) in list of states/notes\n",
    "    val = next((index for index,value in enumerate(current_states) if value != 0), None)\n",
    "    \n",
    "    initial_sequence = tuple(current_states[val:(val + n - 1)])\n",
    "    unigrams = sample_sequence(model, initial_sequence, PIECE_LENGTH)\n",
    "    \n",
    "    unigram_to_midi(unigrams, BPM, LOWEST_NOTE, INSTRUMENT, BASE_TICK)\n",
    "    \n",
    "    return unigrams"
   ]
  },
  {
   "cell_type": "markdown",
   "metadata": {},
   "source": [
    "## 1st Order Markov Model + Analysis"
   ]
  },
  {
   "cell_type": "code",
   "execution_count": 19,
   "metadata": {},
   "outputs": [
    {
     "name": "stdout",
     "output_type": "stream",
     "text": [
      "New piece saved to test_folder/composed_song_trial114.mid\n",
      "New piece saved to test_folder/composed_song_trial737.mid\n",
      "New piece saved to test_folder/composed_song_trial723.mid\n",
      "New piece saved to test_folder/composed_song_trial866.mid\n",
      "New piece saved to test_folder/composed_song_trial819.mid\n",
      "New piece saved to test_folder/composed_song_trial330.mid\n",
      "New piece saved to test_folder/composed_song_trial669.mid\n",
      "New piece saved to test_folder/composed_song_trial801.mid\n",
      "New piece saved to test_folder/composed_song_trial597.mid\n",
      "New piece saved to test_folder/composed_song_trial445.mid\n",
      "New piece saved to test_folder/composed_song_trial670.mid\n",
      "New piece saved to test_folder/composed_song_trial337.mid\n",
      "New piece saved to test_folder/composed_song_trial776.mid\n",
      "New piece saved to test_folder/composed_song_trial94.mid\n",
      "New piece saved to test_folder/composed_song_trial677.mid\n",
      "New piece saved to test_folder/composed_song_trial912.mid\n",
      "New piece saved to test_folder/composed_song_trial281.mid\n",
      "New piece saved to test_folder/composed_song_trial846.mid\n",
      "New piece saved to test_folder/composed_song_trial987.mid\n",
      "New piece saved to test_folder/composed_song_trial70.mid\n",
      "New piece saved to test_folder/composed_song_trial474.mid\n",
      "New piece saved to test_folder/composed_song_trial182.mid\n",
      "New piece saved to test_folder/composed_song_trial864.mid\n",
      "New piece saved to test_folder/composed_song_trial325.mid\n",
      "New piece saved to test_folder/composed_song_trial766.mid\n",
      "New piece saved to test_folder/composed_song_trial806.mid\n",
      "New piece saved to test_folder/composed_song_trial357.mid\n",
      "New piece saved to test_folder/composed_song_trial483.mid\n",
      "New piece saved to test_folder/composed_song_trial947.mid\n",
      "New piece saved to test_folder/composed_song_trial164.mid\n",
      "New piece saved to test_folder/composed_song_trial455.mid\n",
      "New piece saved to test_folder/composed_song_trial862.mid\n",
      "New piece saved to test_folder/composed_song_trial562.mid\n",
      "New piece saved to test_folder/composed_song_trial860.mid\n",
      "New piece saved to test_folder/composed_song_trial394.mid\n",
      "New piece saved to test_folder/composed_song_trial50.mid\n",
      "New piece saved to test_folder/composed_song_trial577.mid\n",
      "New piece saved to test_folder/composed_song_trial900.mid\n",
      "New piece saved to test_folder/composed_song_trial585.mid\n",
      "New piece saved to test_folder/composed_song_trial801.mid\n",
      "New piece saved to test_folder/composed_song_trial386.mid\n",
      "New piece saved to test_folder/composed_song_trial887.mid\n",
      "New piece saved to test_folder/composed_song_trial647.mid\n",
      "New piece saved to test_folder/composed_song_trial461.mid\n",
      "New piece saved to test_folder/composed_song_trial760.mid\n",
      "New piece saved to test_folder/composed_song_trial905.mid\n",
      "New piece saved to test_folder/composed_song_trial286.mid\n",
      "New piece saved to test_folder/composed_song_trial262.mid\n",
      "New piece saved to test_folder/composed_song_trial820.mid\n",
      "New piece saved to test_folder/composed_song_trial68.mid\n",
      "New piece saved to test_folder/composed_song_trial970.mid\n",
      "New piece saved to test_folder/composed_song_trial195.mid\n",
      "New piece saved to test_folder/composed_song_trial858.mid\n",
      "New piece saved to test_folder/composed_song_trial248.mid\n",
      "New piece saved to test_folder/composed_song_trial379.mid\n",
      "New piece saved to test_folder/composed_song_trial242.mid\n",
      "New piece saved to test_folder/composed_song_trial95.mid\n",
      "New piece saved to test_folder/composed_song_trial187.mid\n",
      "New piece saved to test_folder/composed_song_trial508.mid\n",
      "New piece saved to test_folder/composed_song_trial976.mid\n",
      "New piece saved to test_folder/composed_song_trial939.mid\n",
      "New piece saved to test_folder/composed_song_trial447.mid\n",
      "New piece saved to test_folder/composed_song_trial989.mid\n",
      "New piece saved to test_folder/composed_song_trial627.mid\n",
      "New piece saved to test_folder/composed_song_trial56.mid\n",
      "New piece saved to test_folder/composed_song_trial390.mid\n",
      "New piece saved to test_folder/composed_song_trial69.mid\n",
      "New piece saved to test_folder/composed_song_trial865.mid\n",
      "New piece saved to test_folder/composed_song_trial603.mid\n",
      "New piece saved to test_folder/composed_song_trial474.mid\n",
      "New piece saved to test_folder/composed_song_trial669.mid\n",
      "New piece saved to test_folder/composed_song_trial656.mid\n",
      "New piece saved to test_folder/composed_song_trial533.mid\n",
      "New piece saved to test_folder/composed_song_trial701.mid\n",
      "New piece saved to test_folder/composed_song_trial128.mid\n",
      "New piece saved to test_folder/composed_song_trial838.mid\n",
      "New piece saved to test_folder/composed_song_trial50.mid\n",
      "New piece saved to test_folder/composed_song_trial464.mid\n",
      "New piece saved to test_folder/composed_song_trial210.mid\n",
      "New piece saved to test_folder/composed_song_trial890.mid\n",
      "New piece saved to test_folder/composed_song_trial427.mid\n",
      "New piece saved to test_folder/composed_song_trial875.mid\n",
      "New piece saved to test_folder/composed_song_trial891.mid\n",
      "New piece saved to test_folder/composed_song_trial799.mid\n",
      "New piece saved to test_folder/composed_song_trial150.mid\n",
      "New piece saved to test_folder/composed_song_trial359.mid\n",
      "New piece saved to test_folder/composed_song_trial132.mid\n",
      "New piece saved to test_folder/composed_song_trial273.mid\n",
      "New piece saved to test_folder/composed_song_trial720.mid\n",
      "New piece saved to test_folder/composed_song_trial752.mid\n",
      "New piece saved to test_folder/composed_song_trial785.mid\n",
      "New piece saved to test_folder/composed_song_trial964.mid\n",
      "New piece saved to test_folder/composed_song_trial485.mid\n",
      "New piece saved to test_folder/composed_song_trial892.mid\n",
      "New piece saved to test_folder/composed_song_trial510.mid\n",
      "New piece saved to test_folder/composed_song_trial599.mid\n",
      "New piece saved to test_folder/composed_song_trial485.mid\n",
      "New piece saved to test_folder/composed_song_trial198.mid\n",
      "New piece saved to test_folder/composed_song_trial692.mid\n",
      "New piece saved to test_folder/composed_song_trial517.mid\n"
     ]
    }
   ],
   "source": [
    "# 1st order Markov Model\n",
    "unigram_all_2 = []\n",
    "n = 2\n",
    "\n",
    "current_states, model, BPM, LOWEST_NOTE, INSTRUMENT, BASE_TICK = create_model('bwv1041a_solo.mid', n)\n",
    "for _ in range(100):\n",
    "    unigrams_comp = compose_with_model(current_states, model, BPM, LOWEST_NOTE, INSTRUMENT, BASE_TICK, n)\n",
    "    unigram_all_2.append(unigrams_comp)"
   ]
  },
  {
   "cell_type": "markdown",
   "metadata": {},
   "source": [
    "## Autocorrelation Metrics"
   ]
  },
  {
   "cell_type": "code",
   "execution_count": 20,
   "metadata": {},
   "outputs": [
    {
     "data": {
      "image/png": "iVBORw0KGgoAAAANSUhEUgAAAXQAAAEICAYAAABPgw/pAAAABHNCSVQICAgIfAhkiAAAAAlwSFlzAAALEgAACxIB0t1+/AAAADh0RVh0U29mdHdhcmUAbWF0cGxvdGxpYiB2ZXJzaW9uMy4yLjIsIGh0dHA6Ly9tYXRwbG90bGliLm9yZy+WH4yJAAAfI0lEQVR4nO3dfZRcdZ3n8fe3HxLyRAIkICSBIDIM0R2iZkB2dMzIqoRxZfTsKujKw4HNcFbmqDvnLD4wiLtzZtydZRbdYWSyyog4go66TsYTRTc7HHRHmCSQICEDhAh5JM9N0umHqrr3u3/cW923q6vqVrrr8dbndU6f7roPVd+6hE/96nd/9/7M3RERkc7X0+oCRESkPhToIiIZoUAXEckIBbqISEYo0EVEMkKBLiKSEQp0kTows5vM7OfT2P9HZnZjPWuS7qNAl6Yxs8fM7JiZzTyFfdzM3tDIuprNzO42s28ml7n7and/sFU1STYo0KUpzGwZ8A7Agfe3tJgUZtZXyzKRdqNAl2a5AXgC+Dow1rUQt9pvTTwe67ows8fjxVvNbNDMPhwv//dmtsPMjprZOjM7L7H/G83sp/G6A2b22Xj5TDO718z2xT/3Fr8pmNkqM9tjZneY2avAX8et6O+a2TfN7Dhwk5nNN7Ovmdl+M9trZn9sZr3l3qyZfcnMdpvZcTPbbGbviJdfDXwW+HD8nraWHgcz6zGzO83sFTM7aGbfMLP58bpl8beWG81sl5kdNrPPTfu/jmSCAl2a5Qbgb+Kf95rZOWk7uPtvx39e5u5z3f3bZvYu4E+BDwHnAq8AjwCY2Tzg/wA/Bs4D3gBsiJ/jc8DbgBXAZcDlwJ2Jl3sdcCZwAbAmXnYt8F1gQVz3g0Ahft43A+8BbqW8jfFrnQl8C/hbMzvN3X8M/Anw7fg9XVZm35vin98BXg/MBf6iZJu3A5cAVwF3mdmlFeqQLqJAl4Yzs7cTBeV33H0z8BLwkSk+3UeBB9z9KXcfBT4DXBl36bwPeNXd73H3EXc/4e5PJvb7z+5+0N0PAV8APpZ43hD4vLuPuvtwvOwX7v4Ddw+B04HVwCfd/aS7HwT+B3BduSLd/ZvufsTdC+5+DzCTKIBrfY9/7u473X0wfo/XlXT7fMHdh919K7CV6ENKupwCXZrhRuAn7n44fvwtEt0up+g8olY5AHHgHQEWA0uJPixS94v/Pi/x+JC7j5Tsszvx9wVAP7DfzAbMbAD4K+Dsci9mZn9oZtvN7LV42/nAwrQ3V6XWPiD5rebVxN9DRK146XI60SMNZWaziLpHeuP+aYhaqwvM7DLgJDA7scvrUp5yH1G4Fp9/DnAWsJcogK9P2W9b/Pj8eFlRuduOJpftBkaBhe5eqFZg3F9+B1F3yDZ3D83sGGBVXqtcrUXnE3X1HACWpOwrXUwtdGm03wMCYDlRn/IK4FLgZ0T96luAD5rZ7Hh44i0l+x8g6kcu+hZws5mtiE9q/gnwpLu/DPwQeJ2ZfTI+CTrPzK6I93sYuNPMFpnZQuAuYMLQwWrcfT/wE+AeMzs9PnF5kZm9s8zm84gC+BDQZ2Z3EXXZJN/TMjOr9P/fw8CnzOxCM5vLeJ971Q8SEQW6NNqNwF+7+y53f7X4Q3SS76NE/dA5opB7kOjkY9LdwINxN8eH3H0D8EfA94D9wEXE/djufgJ4N/CvibokXiQ6sQjwx8Am4Bngl8BT8bJTcQMwA3gOOEZ0wvTcMts9CvwIeIGou2SEid03fxv/PmJmT5XZ/wHgIeBx4Ffx/n9wirVKFzJNcCEikg1qoYuIZIQCXUQkIxToIiIZoUAXEcmIlo1DX7hwoS9btqxVLy8i0pE2b9582N0XlVvXskBftmwZmzZtatXLi4h0JDN7pdI6dbmIiGSEAl1EJCMU6CIiGaFAFxHJCAW6iEhGpAa6mT0QT4P1bIX1ZmZfjqcEe8bM3lL/MiNB6GzYfoAvb3iRDdsPEIS6D42ISFEtwxa/TnRnvG9UWL8auDj+uQL4Svy7roLQ+djXnmTL7gGGcwGzZvSyYukCHrrlCnp7LP0JREQyLrWF7u6PA0erbHIt8A2PPEE0cUG5W4pOy2PPH2TL7gGGcgEODOUCtuwe4LHnD9b7pUREOlI9+tAXM/Fez3viZZOY2Roz22Rmmw4dOnRKL7Jt33GGc8GEZcO5gOf2HT/FckVEsqkegV6uv6Ns57a7r3X3le6+ctGisleuVvTG805n1ozeCctmzehl+XmnV9hDRKS71CPQ9xBNzlu0hIlzNdbFqkvOZsXSBViQAw+ZHfehr7qk7By9IiJdpx6Bvg64IR7t8jbgtXj+xbrq7TEeuuUKFr349yzY8//4n9e/WSdERUQSUke5mNnDwCpgoZntAT4P9AO4+/3AeuAaYAcwBNzcqGJ7e4zZAzuZPbCTqy49p1EvIyLSkVID3d2vT1nvwMfrVpGIiEyJrhQVEckIBbqISEYo0EVEMkKBLiKSEQp0EZGMUKCLiGSEAl1EJCMU6CIiGaFAFxHJCAW6iEhG1DJjUccIQuex5w+ybd9x3nje6ay65GzdvEtEukZmAl1T1IlIt8tMl4umqBORbpeZQNcUdSLS7TIT6JqiTkS6XWYCXVPUiUi3y0yga4o6Eel2mRnlApqiTkS6W2Za6CIi3U6BLiKSEQp0EZGMUKCLiGSEAl1EJCMU6CIiGaFAFxHJCAW6iEhG1BToZna1mT1vZjvM7NNl1s83s783s61mts3Mbq5/qSIiUk1qoJtZL3AfsBpYDlxvZstLNvs48Jy7XwasAu4xsxl1rlVERKqopYV+ObDD3Xe6ew54BLi2ZBsH5pmZAXOBo0ChrpWKiEhVtdzLZTGwO/F4D3BFyTZ/AawD9gHzgA+7e1j6RGa2BlgDcP7550+l3inT9HQiknW1BHq51POSx+8FtgDvAi4CfmpmP3P3CbNLuPtaYC3AypUrS5+jYTQ9nYh0g1q6XPYASxOPlxC1xJNuBr7vkR3Ar4Bfr0+J06fp6USkG9QS6BuBi83swvhE53VE3StJu4CrAMzsHOASYGc9C50OTU8nIt0gtcvF3QtmdjvwKNALPODu28zstnj9/cB/Ab5uZr8k6qK5w90PN7DuU1Kcnm4oEeqank5EsqamCS7cfT2wvmTZ/Ym/9wHvqW9p9VOcnu4XL+zHe/qYPbNf09OJSOZ0xZWimp5ORLpBpqagq0bT04lI1nVFC11EpBso0EVEMkKBLiKSEV3Th55GtwYQkU6nQEe3BhCRbFCXC7o1gIhkgwId3RpARLJBgc74rQGSdGsAEek0CnTGbw1gQQ48ZHbch65bA4hIJ1Ggo1sDiEg2aJRLTLcGEJFOpxa6iEhGKNBFRDJCgS4ikhHqQ6+BbgsgIp1AgZ5CtwUQkU6hLpcUui2AiHQKBXoK3RZARDqFAj2FbgsgIp1CgZ5CtwUQkU6hQE+h2wKISKfQKJca6LYAItIJFOh1oHHqItIOagp0M7sa+BLQC3zV3b9YZptVwL1AP3DY3d9Zxzrblsapi0i7SO1DN7Ne4D5gNbAcuN7MlpdsswD4S+D97v5G4N82oNa2pHHqItIuajkpejmww913unsOeAS4tmSbjwDfd/ddAO7eNWmmceoi0i5qCfTFwO7E4z3xsqRfA84ws8fMbLOZ3VDuicxsjZltMrNNhw4dmlrFbUbj1EWkXdQS6OU6gr3kcR/wVuB3gfcCf2RmvzZpJ/e17r7S3VcuWrTolIttRxqnLiLtopaTonuApYnHS4B9ZbY57O4ngZNm9jhwGfBCXapsY8Vx6ld+8BZyc87mnjs/pVEuItIStbTQNwIXm9mFZjYDuA5YV7LN3wHvMLM+M5sNXAFsr2+p7as4Tn3B3ie46tJzFOYi0hKpLXR3L5jZ7cCjRMMWH3D3bWZ2W7z+fnffbmY/Bp4BQqKhjc82snAREZmopnHo7r4eWF+y7P6Sx38G/Fn9SssOXXgkIs2gK0UbTBceiUiz6OZcDaYLj0SkWRToDaYLj0SkWdTl0mDFC4+GEqGevPBI/esiUi8K9AYrXnj0ixf24z19zJ7ZP3bhkfrXRaSe1OXSYNUmyFD/uojUkwK9CSpdeFRL/3oQOhu2H+DLG15kw/YDBGHpXRdERCLqcmmhWvrX1SUjIrVSC72F0m7spS4ZETkVCvQWSpuAWkMeReRUqMulxapNQJ3WJSMikqQWehvTvdZF5FQo0NtYWpeMiEiSulzaXLUuGV1lKiJJCvQOpSGNIlJKXS4dSkMaRaSUAr1DaUijiJRSoHeo4pDGJA1pFOluCvQOpSGNIlJKJ0U7VHFI45UfvIXcnLO5585PTRrl0omjYDqxZpF2oUDvYGlDGjttFEwn1izSTtTlklGdOAqmE2sWaScK9IzqxFEwnVizSDtRl0tGtetcptVeVzcjE5keBXpGteNcpmmvW61mEUmnLpeMase5TNNeN+1mZJqOT6S6mlroZnY18CWgF/iqu3+xwna/CTwBfNjdv1u3KmVKKo2CqdZXXTpapp5qed1KNWsEjEi61Ba6mfUC9wGrgeXA9Wa2vMJ2/xV4tN5FSn3VcpVptdZwWku50vrpXN2qETAi6WppoV8O7HD3nQBm9ghwLfBcyXZ/AHwP+M26Vih1l9ZXXa01DFRtKVfbdzp95K36ViHSSWrpQ18M7E483hMvG2Nmi4EPAPdXeyIzW2Nmm8xs06FDh061VqmTtL7qaq3htJZytfXTmbBD964RSVdLoJf7v630bNS9wB3uHpTZdnwn97XuvtLdVy5atKjWGqUBin3VC/Y+wVWXnjMhVKu1htPGiqetr/a61ejeNSLpauly2QMsTTxeAuwr2WYl8IiZASwErjGzgrv/oC5VSlOljQevtq5RY8lruXeNSLerpYW+EbjYzC40sxnAdcC65AbufqG7L3P3ZcB3gf+gMO9c1VrDaS3lRrak01r3GtYo3S61he7uBTO7nWj0Si/wgLtvM7Pb4vVV+82l86S1hquta1VLWsMaRWoch+7u64H1JcvKBrm73zT9sqTVqt3Jsdq6WtY3QvJkLEw8GatRMNItdKWoZIJu7CWie7lIRrTrzchEmkmBLpnQjjcjE2k2dblIJrTjzchEmk2BLplRaVij+telW6jLRTKvloud1MfeHDrOjaVAl8ybzs3IFDb1o+PceOpykcybzs3IpH50nBtPgS5dYao3IwPdUqBedC6j8dTlIl2vWh/7dLsJ0vqMu6lPWZOAN54CXbpetT72Wm4pUCmU0z4MstinXO0DSpOAN54CXbpetRuKpc2UVC2U0z4Msnb/mbQPKN0CufHUhy5C5T72tJmSqp3om+5kIJ3Wd1/LSc9q5zI67f22I7XQRapI6yaoFsppfcaN7LtvhenM+9qJ77cdqYUuUkXakMdqLfjpTAZSS2u33Vq005n3VUMa60MtdJEU1e7vXq0Fn9Zn3Ki++2ZMJlLuxOd0TnpOp3Uv4xToItNQS2hPZTKQtO6atBOq0xkOWW3ftA+SqZ701JDG+lCgi0xTI2Zomk7f/apLzk5tvU91qGXaB8lUj4WGNNaHAl2kDaW1dqu1aGtpvU91qGWjukZqad1300VYU6VAF2lTU+27v+8fdlQN3WqhnRbYjewaqfZ+NQqmNhrlItKBqo2+SRttUstQy0r7po3caRSNgqmNAl2kQ1W6SCctdKcz1DJtGGej6MZetVGgi2RMWuhWC+1aArva1Z6NkvbNod3G5LeK+tBFMqhaf/R0h1q2giYBr41a6CJdqBWt7OnQJOC1qSnQzexqM3vezHaY2afLrP+omT0T//yjmV1W/1JFpJtpEvB0qV0uZtYL3Ae8G9gDbDSzde7+XGKzXwHvdPdjZrYaWAtc0YiCRUSSNAn4uFr60C8Hdrj7TgAzewS4FhgLdHf/x8T2TwBL6lmkiEglmgR8XC1dLouB3YnHe+JlldwC/Gg6RYmI1EqTgI+rJdDLfYSVHRNkZr9DFOh3VFi/xsw2mdmmQ4cO1V6liEgV05kEPEtqCfQ9wNLE4yXAvtKNzOw3gK8C17r7kXJP5O5r3X2lu69ctGjRVOoVETkl3TSGvZY+9I3AxWZ2IbAXuA74SHIDMzsf+D7wMXd/oe5ViohMUTeNYU9tobt7AbgdeBTYDnzH3beZ2W1mdlu82V3AWcBfmtkWM9vUsIpFRE5BN41hr+lKUXdfD6wvWXZ/4u9bgVvrW5qISH1Uuvo1azMl6UpREela05kHtR0p0EWka9VyO+BOOmmqm3OJSNdKu1FZLSdN0+ZgbeYVqgp0Eelq1e4uOZ3p/ICmj6BRoItIR3D36IpGh3wQxsvAcdwh9KgrZDgXjC3zxL5BGO3/2nB+bEVxu0IQLTh6Mof7eJfKxpePlj1p+k8vH+VfLJnPz144zNO7BhjOjwf+07sG+MHTewHKrlu3dS8feHNj7o6iQBfJgDAOq2LoJQNuJB9MCL7idmMBN5SftK4YmAdPjMDY8vHnyBVCHNh9dAhK1o3EAfbSocFoeaImx+Mhgs6ze18bq9OJfp8YKQBRkJbuC3BiOA/AppePTToGg/G+W3YPlD1GJ0ej9eWuEB3KReuef/XEhOXzZvYzo6+H0UI4tmxGXw+nz+znpYMneWLnkbH3WzSSD3hi55Gxv0vXbX7lmAJdpFkKQTgWMFGoMHYi7PhIfjxoEmFUDMADx0fG9yMK2tFCCA4vHz454XnBCZ2xr/PP7Ts+Hqxx+A3GIfTUrmOTw9Gd4yNRa/PJXx2d9D6KAff0rpSA2z854Iqt0pcOniy7bzGo9hwbnrQuF4ffweOjZfctxMeqGN5JxdZxscXcaiuWLuANZ89l267D0NvHzP4+3nD2XFYsXQDAsrPmlA38ZWfNGfu7dN3rF85tWL0KdGl7YegUQieMW5UAA0M5gjAKxOLy0J3RfIjjcetwfH0YjgfY1t0D0bI4FIvbHI9bfxvLtP6K+27bW/7+H8UA3HlocgCOxuG3/7WRsvsWA+61+PVL33v0HOGkdUCFuypJvfT0GJ9dfSm//4k/JJh7DrfftoYVSxfQE/eBpwV+uXVvveCMhtWrQJe6CRKhW2yFvjacJwydwH0sWIstlpcPn4yWx+uDMFo/OFrAPfraHYQ+9nUbxoN1+/4T5UpgtBCFZ7nWYfHDYKikT1Skmp4eY8aRHXBkB2+54I5J66oFfrl1GuUideU+3uJ1j7oRwjAK1GKwBuHE1m4ydN0Z6wrY/MpRgpBJY3OLX/fL9VemtViLrdJ2+dotUk1a4Fda1wgK9A4Vhk4+DMdObB0ZHKUQd00Ewfi6oVyAu/P0rmOE7hSCqIsBxkO3UjdCtdZuMXRzBYWuSLtQoLeRfBDGPz7+d8EZjkcpPLv3tbH1xRZxsQvihQODZZ+z2D87UqkPVkQyQ4HeBMU+5dCjYWC5QhTK0e+QEyMFHC87FAsgX6g8KkBEpEiBXifFwD5wfITRfMhoIWC0EP3OFXyse6PcMLDkhQwiIlOlQD9Fw7mA4XzAUK7ASD5gOBcynA/GArvcsDURkWZQoFcxkg8YHC0wOFLg5GiBwL3iVWgiIq2mQI8VL4UuhM4/v3qcwZEC+cSwuXa+ZaaICHR5oOeDkIGhPANDOQaG82MjRo6dnHzFnohIu+u6QA/d2TswzLGTubErEkVEsqArAn0kH3B4cJTB0QJh6Ow6MtTqkkRE6i6zgZ4rhBw5OcqRwdzY+O1Q/eAikmGZCvRC4krL4u1GRUS6RSYC/djJHAdPjDIwlBu7janCXES6TSYCfdfRId0SVUS6Xk+rCxARkfpQoIuIZERNgW5mV5vZ82a2w8w+XWa9mdmX4/XPmNlb6l+qiIhUkxroZtYL3AesBpYD15vZ8pLNVgMXxz9rgK/UuU4REUlhabduNbMrgbvd/b3x488AuPufJrb5K+Axd384fvw8sMrd91d63jMvuNTf/dkHTrngLVu3ALDishVjy4o3zgJ48blnAbh4+Zsm7VttXSP3bde6tK/21b7T3/dUn7u3x5gzY+rjUb5z27/c7O4ry62rJdD/DXC1u98aP/4YcIW7357Y5ofAF9395/HjDcAd7r6p5LnWELXgmXvuRW+95vMPTflNJSUDXUSknTUy0Gt51nJTVJemZy3b4O5rgbUAK1eu9G///pU1vHy6rbsHNGxRRDrCvNP6eNPi+VPe/zu3VV5Xy0nRPcDSxOMlwL4pbCMiIg1US6BvBC42swvNbAZwHbCuZJt1wA3xaJe3Aa9V6z8XEZH6S+1ycfeCmd0OPAr0Ag+4+zYzuy1efz+wHrgG2AEMATc3rmQRESmnpp55d19PFNrJZfcn/nbg4/UtTURETkUmrhSd2Z+JtyEiMi2ZuDnXr7/udIZyBQ6fyHH45Cij+bDVJYmINF0mAh1g9ow+zj+rj/PPms2JkTyHB3McPTlKrqDx6SLSHTIT6EnzTutn3mn9LDtrNseHCxwaHOXYUI5CoHAXkezKZKAXmRnzZ/czf3Y/YegMDOc5MjjKwHBe4S4imZPpQE/q6THOnDODM+fMwN05PlJgYCjHsaH82CxHIiKdrGsCPcnMmD+rn/mz+rngLBjJBxwbynHsZJ4TI3k0l7SIdKKuDPRSp/X3cu78WZw7fxbuzlAuYHC0wImRAoOjBbXgRaQjKNBLmBlzZvYxZ2Yf55weLSsEISdHAwZzBYZzBYZzIcP5gEBNeRFpIwr0GvT19jB/dg/zZ/dPWD6SDxjOBQzn459cwGghJB+E6G6+ItJsCvRpOK2/l9P6ezmjZHkYOrkgZDQfMlIIGM2HjBbGwz5XCNVPLyJ1p0BvgJ4e47SeKOzn0192m0IQkgtC8gVnNAjIB06+GPhBSCFw8kFIXsMrRaRGCvQW6evtoa+3B2YAFUIfwN3HAr4QxH+H44FfCOPfgVMInSD+EZHuo0Bvc2bGzL5eZp7Cf6kwHA/3fBiOPU4uD4rLfPxx8u/ocePel4jUnwI9g3p6jBk90ayAs+id8vO4jwf7WNi74yEEPv4hUFwXxstDjz48Ao+WTdjXnSBE3yJEGkCBLhWZGX295aaLrY9J3wyKHwSJD4PAnSDwCR8ghaDkgyTxgaPRRdLNFOjSMr09Rm9PfT8wSr9VePw7THxbCN1xStdHXVUw/ti92O00+fnciX4Y39bj14+WR88XLavrWxSpSIEumdLobxVTNR7u8QcAVT4UwvH1oY9/KHjy7+Q+8QeGJ5+XidszYfnk15/Sc7g+sNqNAl2kCXrGvom034dNPSS/mSSDPozTvtoHV/LbULkPmuK3neTzJF8LmPShk1wWvRpjzxtvNemDKLlu4uOJ73PCPmX2p+IWkXp/K01SoIvItJkZNpZT2fzQ6gSajFNEJCMU6CIiGaFAFxHJCAW6iEhGKNBFRDJCgS4ikhEKdBGRjFCgi4hkhAJdRCQjrPRS1qa9sNkh4JUp7r4QOFzHcupFddWuHWuC9qyrHWuC9qyrHWuC+tZ1gbsvKreiZYE+HWa2yd1XtrqOUqqrdu1YE7RnXe1YE7RnXe1YEzSvLnW5iIhkhAJdRCQjOjXQ17a6gApUV+3asSZoz7rasSZoz7rasSZoUl0d2YcuIiKTdWoLXURESijQRUQyouMC3cyuNrPnzWyHmX261fUUmdnLZvZLM9tiZptaVMMDZnbQzJ5NLDvTzH5qZi/Gv89ok7ruNrO98fHaYmbXNLmmpWb2D2a23cy2mdkn4uUtPV5V6mrZ8TKz08zsn8xsa1zTF+LlrT5Wlepq6b+tuIZeM3vazH4YP27KseqoPnQz6wVeAN4N7AE2Ate7+3MtLYwo0IGV7t6yixrM7LeBQeAb7v6meNl/A466+xfjD8Az3P2ONqjrbmDQ3f97M2tJ1HQucK67P2Vm84DNwO8BN9HC41Wlrg/RouNlZgbMcfdBM+sHfg58AvggrT1Wleq6mhb+24pr+4/ASuB0d39fs/4/7LQW+uXADnff6e454BHg2hbX1Dbc/XHgaMnia4EH478fJAqHpqpQV0u5+353fyr++wSwHVhMi49XlbpaxiOD8cP++Mdp/bGqVFdLmdkS4HeBryYWN+VYdVqgLwZ2Jx7vocX/2BMc+ImZbTazNa0uJuEcd98PUVgAZ7e4nqTbzeyZuEum6V1BRWa2DHgz8CRtdLxK6oIWHq+4C2ELcBD4qbu3xbGqUBe09t/WvcB/AsLEsqYcq04L9HLTibf8Ezn2W+7+FmA18PG4m0Eq+wpwEbAC2A/c04oizGwu8D3gk+5+vBU1lFOmrpYeL3cP3H0FsAS43Mze1MzXr6RCXS07Vmb2PuCgu29u1msmdVqg7wGWJh4vAfa1qJYJ3H1f/Psg8L+JuofawYG4X7bYP3uwxfUA4O4H4v8ZQ+B/0YLjFfe7fg/4G3f/fry45cerXF3tcLziOgaAx4j6qVt+rMrV1eJj9VvA++Nzao8A7zKzb9KkY9Vpgb4RuNjMLjSzGcB1wLoW14SZzYlPYGFmc4D3AM9W36tp1gE3xn/fCPxdC2sZU/zHHfsATT5e8Qm1rwHb3f3PE6taerwq1dXK42Vmi8xsQfz3LOBfAf9M649V2bpaeazc/TPuvsTdlxHl0/91939Hs46Vu3fUD3AN0UiXl4DPtbqeuKbXA1vjn22tqgt4mOgrZp7o28wtwFnABuDF+PeZbVLXQ8AvgWfif+znNrmmtxN11z0DbIl/rmn18apSV8uOF/AbwNPxaz8L3BUvb/WxqlRXS/9tJepbBfywmceqo4YtiohIZZ3W5SIiIhUo0EVEMkKBLiKSEQp0EZGMUKCLiGSEAl1EJCMU6CIiGfH/Ac8NGx4muZzSAAAAAElFTkSuQmCC\n",
      "text/plain": [
       "<Figure size 432x288 with 1 Axes>"
      ]
     },
     "metadata": {
      "needs_background": "light"
     },
     "output_type": "display_data"
    }
   ],
   "source": [
    "from statsmodels.graphics import tsaplots\n",
    "import matplotlib.pyplot as plt\n",
    "\n",
    "# Display the autocorrelation plot of your time series\n",
    "fig = tsaplots.plot_acf(current_states, lags=40)\n",
    "plt.show()"
   ]
  },
  {
   "cell_type": "code",
   "execution_count": 21,
   "metadata": {},
   "outputs": [
    {
     "data": {
      "image/png": "iVBORw0KGgoAAAANSUhEUgAAAXQAAAEICAYAAABPgw/pAAAABHNCSVQICAgIfAhkiAAAAAlwSFlzAAALEgAACxIB0t1+/AAAADh0RVh0U29mdHdhcmUAbWF0cGxvdGxpYiB2ZXJzaW9uMy4yLjIsIGh0dHA6Ly9tYXRwbG90bGliLm9yZy+WH4yJAAAeuklEQVR4nO3de5hcdZ3n8fe3q9O5EgKkE8mNgDAMoBIxA4OjMxlZFFhnUJ95HNBV8MGN7MgsuvM8g7dF3ZnHYXeWWWVkZBhgBnEUHXWY6BNFN27Wy4qTi80lyYTEQNKdQDq3TuhLurrqfPePc6pTXV23TlfVqTr1eT30013nUvXtQ+fTp7/1O79j7o6IiLS+jrgLEBGR2lCgi4gkhAJdRCQhFOgiIgmhQBcRSQgFuohIQijQRWrAzG41s59OY//vmdkttaxJ2o8CXRrGzDaa2TEzmzmFfdzMLqxnXY1mZp8xs6/kL3P369390bhqkmRQoEtDmNlK4M2AA78fazEVmFlnNctEmo0CXRrl/cBTwD8A462F6Kz9g3mPx1sXZvbjaPHTZjZoZn8YLf+PZrbbzI6a2TozW5K3/2Vm9sNo3UEz+0S0fKaZfd7MDkQfn8/9pWBma8ysz8zuMrOXgb+PzqK/aWZfMbMTwK1mdqaZPWxmL5nZfjP7czNLFftmzewLZtZrZifMbIuZvTlafh3wCeAPo+/p6cLjYGYdZvYpM9trZv1m9mUzOzNatzL6q+UWM9tnZofN7JPT/r8jiaBAl0Z5P/CP0cfbzGxxpR3c/bejLy9393nu/nUzewvwF8C7gXOBvcDjAGZ2BvC/ge8DS4ALgQ3Rc3wS+E1gFXA5cCXwqbyXexVwNnAesDZadiPwTWBBVPejQCZ63tcDbwU+SHGbotc6G/gq8E9mNsvdvw98Dvh69D1dXmTfW6OP3wUuAOYBXyzY5k3AxcA1wN1mdkmJOqSNKNCl7szsTYRB+Q133wL8CnjPaT7de4FH3H2ru48CHweujlo6bwdedvd73f2ku7/i7r/I2++/uXu/ux8CPgu8L+95A+DT7j7q7iPRsp+7+xPuHgDzgeuBj7j7kLv3A/8LuKlYke7+FXc/4u4Zd78XmEkYwNV+j3/l7nvcfTD6Hm8qaPt81t1H3P1p4GnCX1LS5hTo0gi3AD9w98PR46+S13aZoiWEZ+UARIF3BFgKLCf8ZVFxv+jrJXmPD7n7yYJ9evO+Pg+YAbxkZgNmNgD8LbCo2IuZ2Z+Y2Q4zOx5teyawsNI3V6bWTiD/r5qX874eJjyLlzanN3qkrsxsNmF7JBX1pyE8W11gZpcDQ8CcvF1eVeEpDxCGa+755wLnAPsJA/jmCvttix6viJblFJt2NH9ZLzAKLHT3TLkCo375XYTtkG3uHpjZMcDKvFaxWnNWELZ6DgLLKuwrbUxn6FJv7wCywKWEPeVVwCXATwj76j3Au8xsTjQ88baC/Q8S9pFzvgp8wMxWRW9qfg74hbu/CHwXeJWZfSR6E/QMM7sq2u9rwKfMrNvMFgJ3AxOGDpbj7i8BPwDuNbP50RuXrzaz3ymy+RmEAXwI6DSzuwlbNvnf00ozK/Xv72vAR83sfDObx6mee9lfJCIKdKm3W4C/d/d97v5y7oPwTb73Evah04Qh9yjhm4/5PgM8GrU53u3uG4D/CnwLeAl4NVEf291fAa4Ffo+wJbGL8I1FgD8HNgPPAM8CW6NlU/F+oAvYDhwjfMP03CLbPQl8D3iesF1ykontm3+KPh8xs61F9n8EeAz4MfBCtP8fT7FWaUOmG1yIiCSDztBFRBJCgS4ikhAKdBGRhFCgi4gkRGzj0BcuXOgrV66M6+VFRFrSli1bDrt7d7F1sQX6ypUr2bx5c1wvLyLSksxsb6l1armIiCSEAl1EJCEU6CIiCaFAFxFJCAW6iEhCVAx0M3skug3WcyXWm5ndF90S7Bkzu6L2ZYaygbNhx0Hu27CLDTsOkg00D42ISE41wxb/gXBmvC+XWH89cFH0cRXwpehzTWUD530P/4Ke3gFG0llmd6VYtXwBj912FakOq/wEIiIJV/EM3d1/DBwts8mNwJc99BThjQuKTSk6LRt39tPTO8BwOosDw+ksPb0DbNzZX+uXEhFpSbXooS9l4lzPfdGyScxsrZltNrPNhw4dmtKLbDtwgpF0dsKykXSW7QdOTLFcEZFkqkWgF+t3FG1uu/uD7r7a3Vd3dxe9crWky5bMZ3ZXasKy2V0pLl0yv8QeIiLtpRaB3kd4c96cZUy8V2NNrLl4EauWL8CyafCAOVEPfc3FRe/RKyLSdmoR6OuA90ejXX4TOB7df7GmUh3GY7ddRfeu77Cg72f89c2v1xuiIiJ5Ko5yMbOvAWuAhWbWB3wamAHg7g8A64EbgN3AMPCBehWb6jDmDOxhzsAerrlkcb1eRkSkJVUMdHe/ucJ6Bz5cs4pEROS06EpREZGEUKCLiCSEAl1EJCEU6CIiCaFAFxFJCAW6iEhCKNBFRBJCgS4ikhAKdBGRhFCgi4gkhAJdRCQhFOgiIgmhQBcRSYhqbhLdMrKBs3FnP9sOnOCyJfNZc/EizZcuIm0jMYGeDZz3PfwLenoHGElnmR3d0Ug3wRCRdpGYlsvGnf309A4wnM7iwHA6S0/vABt39sddmohIQyQm0LcdOMFIOjth2Ug6y/YDJ2KqSESksRIT6Jctmc/srtSEZbO7Uly6ZH5MFYmINFZiAn3NxYtYtXwBlk2DB8yJeuhrLl4Ud2kiIg2RmEBPdRiP3XYV3bu+w4K+n/HXN79eb4iKSFtJzCgXCEN9zsAe5gzs4ZpLFsddjohIQyXmDF1EpN0p0EVEEkKBLiKSEAp0EZGEUKCLiCSEAl1EJCGqCnQzu87MdprZbjP7WJH1Z5rZd8zsaTPbZmYfqH2pIiJSTsVAN7MUcD9wPXApcLOZXVqw2YeB7e5+ObAGuNfMumpcq4iIlFHNGfqVwG533+PuaeBx4MaCbRw4w8wMmAccBTI1rVRERMqqJtCXAr15j/uiZfm+CFwCHACeBe5096DwicxsrZltNrPNhw4dOs2SRUSkmGoCvdhkKF7w+G1AD7AEWAV80cwmTXPo7g+6+2p3X93d3T3lYqcjGzgbdhzkvg272LDjINmg8FsQEWlt1czl0gcsz3u8jPBMPN8HgHvc3YHdZvYC8OvAv9akymnS3YxEpB1Uc4a+CbjIzM6P3ui8CVhXsM0+4BoAM1sMXAzsqWWh06G7GYlIO6gY6O6eAe4AngR2AN9w921mdruZ3R5t9mfAG83sWWADcJe7H65X0VOluxmJSDuoavpcd18PrC9Y9kDe1weAt9a2tNrJ3c1oOC/UdTcjEUmatrhSVHczEpF20BaBrrsZiUg7SNQdi8rR3YxEJOna4gxdRKQdKNBFRBJCgS4ikhAKdBGRhFCgi4gkhAJdRCQhFOgiIgmhQBcRSYi2ubCokmzgbNzZz7YDJ7hsyXzWXLxIV5KKSEtRoKP50kUkGdRyQfOli0gyKNDRfOkikgwKdE7Nl55P86WLSKtRoKP50kUkGRToaL50EUkGjXKJaL50EWl1OkMXEUkIBbqISEIo0EVEEkKBLiKSEAp0EZGEUKCLiCSEAl1EJCGqCnQzu87MdprZbjP7WIlt1phZj5ltM7P/W9sy45UNnA07DnLfhl1s2HGQbOBxlyQiMknFC4vMLAXcD1wL9AGbzGydu2/P22YB8DfAde6+z8wSc828ptYVkVZRzRn6lcBud9/j7mngceDGgm3eA3zb3fcBuHti5p3V1Loi0iqqCfSlQG/e475oWb5fA84ys41mtsXM3l+rAuOmqXVFpFVUM5dLsb5CYRO5E3gDcA0wG/i5mT3l7s9PeCKztcBagBUrVky92hjkptYdzgt1Ta0rIs2omjP0PmB53uNlwIEi23zf3Yfc/TDwY+Dywidy9wfdfbW7r+7u7j7dmhtKU+uKSKuoJtA3AReZ2flm1gXcBKwr2OZfgDebWaeZzQGuAnbUttR4aGpdEWkVFVsu7p4xszuAJ4EU8Ii7bzOz26P1D7j7DjP7PvAMEAAPuftz9Sy8kTS1roi0gqrmQ3f39cD6gmUPFDz+S+Ava1eaiIhMha4UFRFJCAW6iEhC6BZ0NZANnI07+9l24ASXLZnPmosX6U1TEWk4Bfo0aWoAEWkWarlMk6YGEJFmoUCfJk0NICLNQoE+TbmpAfJpagARiYMCfZo0NYCINAsF+jRpagARaRYa5VIDmhpARJqBztBFRBJCgS4ikhBquTSAriQVkUZQoNeZriQVkUZRy6XOdCWpiDSKAr3OdCWpiDSKAr3OdCWpiDSKAr3OdCWpiDSKAr3OdCWpiDSKRrk0gK4kFZFG0Bm6iEhC6Aw9ZrroSERqRYEeI110JCK1pJZLjHTRkYjUkgI9RrroSERqSYEeI110JCK1pECPkS46EpFaqirQzew6M9tpZrvN7GNltvsNM8ua2R/UrsTk0kVHIlJLFUe5mFkKuB+4FugDNpnZOnffXmS7/w48WY9Ck6rSRUca1igi1apm2OKVwG533wNgZo8DNwLbC7b7Y+BbwG/UtMI2pmGNIjIV1bRclgK9eY/7omXjzGwp8E7ggXJPZGZrzWyzmW0+dOjQVGttOxrWKCJTUU2gFzsV9ILHnwfucvdskW1P7eT+oLuvdvfV3d3d1dbYtjSsUUSmopqWSx+wPO/xMuBAwTargcfNDGAhcIOZZdz9iZpU2aZywxqH80JdwxpFpJRqztA3AReZ2flm1gXcBKzL38Ddz3f3le6+Evgm8EcK8+nTsEYRmYqKZ+junjGzOwhHr6SAR9x9m5ndHq0v2zeX05cb1nj1u24jPXcR937qoxrlIiIlVTU5l7uvB9YXLCsa5O5+6/TLkpxywxo1pFFE8mm2xRalIY0iUkiX/rcoDWkUkUIK9BalIY0iUkiB3qI0U6OIFFKgtygNaRSRQgr0FqWZGkWkkEa5tDDN1Cgi+RToCaVhjSLtRy2XhNKwRpH2o0BPKA1rFGk/CvSE0rBGkfajQE+oSsMas4GzYcdB7tuwiw07DpINCqe4F5FWozdFE6rcTI16w1QkmXSGnmC5YY0L9j/FNZcsHg9rvWEqkkwK9DZUzRumasmItB61XNpQpVvbqSUj0pp0ht6GKr1hqpaMSGtSoLehSvPAaAy7SGtSy6VNlZsHppqWjOaIEWk+CnSZJNeS+fnzL+EdncyZOWO8JaP+ukjzUstFJinXklF/XaR5KdClqFJj2NVfF2learnIlFTqr4N67CJxUaDLlJTrr4PGsIvESS0XmZJKQx7VYxeJjwJdpqxUfx3UYxeJk1ouUlMawy4Sn6oC3cyuA74ApICH3P2egvXvBe6KHg4C/8ndn65lodIaNIZdJD4VWy5mlgLuB64HLgVuNrNLCzZ7Afgdd38d8GfAg7UuVFqDxrCLxKeaHvqVwG533+PuaeBx4Mb8Ddz9/7n7sejhU8Cy2pYprWQ6Y9g1ba/I6aum5bIU6M173AdcVWb724DvFVthZmuBtQArVqyoskRJCk3bK1Jf1ZyhF/uXVPS0ycx+lzDQ7yq23t0fdPfV7r66u7u7+iolETRtr0h9VRPofcDyvMfLgAOFG5nZ64CHgBvd/UhtypMk0bS9IvVVTctlE3CRmZ0P7AduAt6Tv4GZrQC+DbzP3Z+veZWSGJq2V6R+Kga6u2fM7A7gScJhi4+4+zYzuz1a/wBwN3AO8DdmBpBx99X1K1uSSEMeRaanqnHo7r4eWF+w7IG8rz8IfLC2pUm7ybVkrn7XbaTnLuLeT310/Cx8w46D4/11mNhfLzzTF2lXuvRfmoqm7RU5fbr0X1qCpu0VqUyBLi1B0/aKVKaWi7QETdsrUpkCXVrGdKbt1ZQC0g7UcpFEKNdjVztG2oXO0CURyk0roHaMtAsFuiRCuR67hjxKu1DLRRKj1LQCGvIo7UKBLomnIY9SLffGvFkeTZFScwp0AcIf5MAhcMejz0H0wz04mhlfT7Quk3Uc59ArozhO9N/4/qOZAIDeo8PR84MTrjs5Fp4p/+rQIKf+/Xi0DeNn0v/28onx9bn9h9IZcHhu//Hx5dHeuIe1AvT0Dox/XwAfvfbXeO6JB8jMW8Sdf/QhXr/irPFtNr94lK17j3Eyqnk4nWXr3mP83U/2sPq8s8gETk/vAC8cHuL8hXNZtXwBqQ6j3L/9qQbDdGKkQRkkNXLGrE5es/TMujy3Ar1FhCGZJQggEwQEAWTdGcsGOHBgYIRsEIZa1j362sfD8bn9x8eDOuvhuldOZnCcp/YcKRoKgyfDcHy27/ikdcPpcN3u/sGi9Y5God13bGTSunQUnP0nRovum8mG648NjU1al82Ghb4S1VYoiIYjFvbMAToP76Lz8C5et+wusoGPD13c3T84/gtovP5MwK/6B3ntkjP53Pd2sLt/kHQmoKuzgwsXzeMT119Ch87epcko0Bsskw3IBGEQj2WdTDZgNBPg7vzq0CCZrJMJArKBk4lC58RIGGxb9w5Mer5ccO09Mlzy9aB4AObOItv9DG/lOXPp6uyYEOpdnR2sPGcuPb0DEwJ/NBOwu3+Qnt4BrjjvrLhKFilKgV5DgTsnTo6RzgSnPrLh59zZ8KYXj03aL3c2W+qMVepr1fIFXLhoHtv2HYZUJzNndHLhonmsWr6AJ3r2j/9FkZPOBLx4ZEiBLk1HgT5FJ8ey0UfAybEsI9HjEyfHwGHb/uJD4Rr1ZotMXUeH8YnrL+FDd/4J2XmLueP2taxavoCODit79p4TRD32F48MsfKcueP7ijSaAr2EXP95aDTD4GiGodEMWXd+uW9y2yPcobH1SW11dBhdR3bDkd1ccd6pW+KWO3uHMMzL9dgV9tJICvRINuprZwPnuf3HGRrNkD/dh+b+aE/lzt6Bsj32VcsXVHxDVYEvtdTWgT6ayXJsaIxjw2lOjIyNv8FYagSFtKdSZ+8ALx4ZKtljB8q+oaqze6m1tgv0bOD0Hh3m2HCaodHJQ9tEpqJcj71c2F9x3lk6u5eaa4tAH0lnOTw4yuBohiDwomOjRU5HpR57uTdUdXYvtZbYQB/NZDkymObIYHr86sFAfXCpsXI99kphr7N7qbVEBXomG4xfsPPLfQNtf8GMNEapHnulN1Sb9exeWlcips89NpRm58uvsGXvMUbSWTLZQGEuTSEX9rP3/owrzjtrQmDmAn/e9ieY/cJP+M9vuWg8VHNhTyac331mFLqFZ/f5qjm7h4kjc5yJgQ/h2fvWvcf49tY+tu49pr9sW0giztD3HR2eMDWqSKtotrN7tWtaWyICXSSJyg2XrFfvvtLcNWrXNLdEtFxE2lGpdk65Vg5Qtp2jdk1rq+oM3cyuA74ApICH3P2egvUWrb8BGAZudfetNa5VRKp0umf3leauUbumuVUMdDNLAfcD1wJ9wCYzW+fu2/M2ux64KPq4CvhS9FlEmtDpzl1Tz3aNwn76rNIsgGZ2NfAZd39b9PjjAO7+F3nb/C2w0d2/Fj3eCaxx95dKPe/Z513i137ikSkX3PN0DwCrLl81viw3cRbAru3PAXDRpa+ZtG+5dfXct1nr0r7at9h6d+f53Xsg1cWSJecyb2Zq/JZp7s6+oyMMj44BhnUYs2ekWHH2bA4Ppjk8mJ70Ot3zulh4xkxeOZlh/8DIhBFoZrB0wWzmzUyx7+gII2NZ3MPluefNf+3B0XB201kzUhPqaiWpDmNu1+m/ffmN29+4xd1XF1tXTaD/AXCdu38wevw+4Cp3vyNvm+8C97j7T6PHG4C73H1zwXOtBdYCzDv31W+44dOPnfY3lS8/0EWkvnLBOjqWZWZesJYL7DNmdXLoldGSgT9zRqrsvuV+kZhZ2V9COc1ywlbPQK/mWYv9CixMz2q2wd0fBB4EWL16tX/9Q1dX8fKVPd07oGGLIjGr1FLZuvcY9/1o14R2zczODm594/m8eGSIb27pm/iEDldfcA7vumLZ+L5YOI7DPZyX6fdet3S8dx/MWgCp8BfHmbMn9+4/9OTDZOct5u2vfeukds6Hv/pxAO7+03VFv7fprC9cN917in7j9tLrqgn0PmB53uNlwIHT2EZEEiz3ZmupPniuP18Y+LW6MpbOLqB0737w0ndAqpP7frQrsUMtqwn0TcBFZnY+sB+4CXhPwTbrgDvM7HHCN0OPl+ufi0gydXQYV5x3VtHb85UL/EphX4t5b8oFfvqcC8nOW8zWvcda+s3YioHu7hkzuwN4knDY4iPuvs3Mbo/WPwCsJxyyuJtw2OIH6leyiLSqUoEf19l9rl2TlLP3qjrz7r6eMLTzlz2Q97UDH65taSLSTuI4u6909g601Bm8Lv0XkZZQj7P7J3r2l23XVNN/b6bAT0SgX9A9l8ODaY4MjjKW1fBFkXZzumf3la6Mrab/Xi7wi4V9PSUi0M+YNYMzZs1g5TlzOD4yxuHBUY4OjenGziIClA78Su2a6bzhWqo//7l3vrZu32ciAj3HzFgwp4sFc7oIAufocHjHooHhNMp2ESlUqV0znbltoPhwyi17j3F5nc7UExXo+To6jIXzZrJw3kzGsgFHh9IcHhzlxEgm7tJEpImUa9fUYzjlnsODdfteEhvo+WakOlg8fxaL589iNJNlYHiMY8Npjg+P6cxdREqqx3DKCxbOq1u9bRHo+WZ2plg8P8Xi+bPIBs7xkTGODqU5PpImnVG6i8hEtR5O+YYiz1MrbRfo+VIdxtlzuzh7blc04VCGEyczDI1mGBzNMDoWVH4SEWlrUx1OmarjkMa2DvR8ZjY+WiZnLBuMh/vQaJbB0cyknpiISCnlzu7rQYFexoxUx/iomZxs4JwcC+dkPpkJTn09llXLRkRipUCfolSHMXdmJ3NnTj50QeCkswGjmYB0JiCdDT+PZU89zmRd4+NFpC4U6DXU0WHM6kgxa0aq7Ha54M8EzlgmYCw4FfSZwMkG4bpM9tTjbIB+EYhIWQr0GOSCH4CZ1e/nHoZ+1p0ggEwQEASQjZa7R+s8/KWRDZzAcx+En4Pws+ceR+vg1H76vSHSmhToLcTM6ExZ3v+08n8JTIfn/RJwByf6nFvGqXVE6wMP93MY3yf6b8J+udse5m43lv/8wPg2Dnnbed62TNyfyc+Xvzx/2eTvM+/rgptsFdun1O+6SrdyLLdvNep3h0X99q63wv93GuUiDWdmpAxSRe8uKCLNqCPuAkREpDYU6CIiCaFAFxFJCAW6iEhCKNBFRBJCgS4ikhAKdBGRhFCgi4gkhAJdRCQhrJpLluvywmaHgL2nuftC4HANy6kV1VW9ZqwJmrOuZqwJmrOuZqwJalvXee7eXWxFbIE+HWa22d1Xx11HIdVVvWasCZqzrmasCZqzrmasCRpXl1ouIiIJoUAXEUmIVg30B+MuoATVVb1mrAmas65mrAmas65mrAkaVFdL9tBFRGSyVj1DFxGRAgp0EZGEaLlAN7PrzGynme02s4/FXU+Omb1oZs+aWY+ZbY6phkfMrN/MnstbdraZ/dDMdkWfz2qSuj5jZvuj49VjZjc0uKblZvZ/zGyHmW0zszuj5bEerzJ1xXa8zGyWmf2rmT0d1fTZaHncx6pUXbH+bEU1pMzsl2b23ehxQ45VS/XQzSwFPA9cC/QBm4Cb3X17rIURBjqw2t1ju6jBzH4bGAS+7O6viZb9D+Cou98T/QI8y93vaoK6PgMMuvv/bGQteTWdC5zr7lvN7AxgC/AO4FZiPF5l6no3MR0vMzNgrrsPmtkM4KfAncC7iPdYlarrOmL82Ypq+y/AamC+u7+9Uf8OW+0M/Upgt7vvcfc08DhwY8w1NQ13/zFwtGDxjcCj0dePEoZDQ5WoK1bu/pK7b42+fgXYASwl5uNVpq7YeGgwejgj+nDiP1al6oqVmS0D/j3wUN7ihhyrVgv0pUBv3uM+Yv5hz+PAD8xsi5mtjbuYPIvd/SUIwwJYFHM9+e4ws2eilkzDW0E5ZrYSeD3wC5roeBXUBTEer6iF0AP0Az9096Y4ViXqgnh/tj4P/CkQ5C1ryLFqtUAvdgv62H8jR37L3a8Argc+HLUZpLQvAa8GVgEvAffGUYSZzQO+BXzE3U/EUUMxReqK9Xi5e9bdVwHLgCvN7DWNfP1SStQV27Eys7cD/e6+pVGvma/VAr0PWJ73eBlwIKZaJnD3A9HnfuCfCdtDzeBg1JfN9Wf7Y64HAHc/GP1jDIC/I4bjFfVdvwX8o7t/O1oc+/EqVlczHK+ojgFgI2GfOvZjVayumI/VbwG/H72n9jjwFjP7Cg06Vq0W6JuAi8zsfDPrAm4C1sVcE2Y2N3oDCzObC7wVeK78Xg2zDrgl+voW4F9irGVc7oc78k4afLyiN9QeBna4+1/lrYr1eJWqK87jZWbdZrYg+no28O+AfyP+Y1W0rjiPlbt/3N2XuftKwnz6kbv/Bxp1rNy9pT6AGwhHuvwK+GTc9UQ1XQA8HX1si6su4GuEf2KOEf41cxtwDrAB2BV9PrtJ6noMeBZ4JvphP7fBNb2JsF33DNATfdwQ9/EqU1dsxwt4HfDL6LWfA+6Olsd9rErVFevPVl59a4DvNvJYtdSwRRERKa3VWi4iIlKCAl1EJCEU6CIiCaFAFxFJCAW6iEhCKNBFRBJCgS4ikhD/HxQoxmDPsCUUAAAAAElFTkSuQmCC\n",
      "text/plain": [
       "<Figure size 432x288 with 1 Axes>"
      ]
     },
     "metadata": {
      "needs_background": "light"
     },
     "output_type": "display_data"
    }
   ],
   "source": [
    "fig = tsaplots.plot_acf(unigram_all_2[6], lags=40)\n",
    "plt.show()"
   ]
  },
  {
   "cell_type": "markdown",
   "metadata": {},
   "source": [
    "## Distribution of Notes in Composed Pieces vs. Original  Bach violin concerto in A minor BWV 1041"
   ]
  },
  {
   "cell_type": "code",
   "execution_count": 22,
   "metadata": {},
   "outputs": [
    {
     "data": {
      "image/png": "iVBORw0KGgoAAAANSUhEUgAAAbsAAAEWCAYAAAD/6zkuAAAABHNCSVQICAgIfAhkiAAAAAlwSFlzAAALEgAACxIB0t1+/AAAADh0RVh0U29mdHdhcmUAbWF0cGxvdGxpYiB2ZXJzaW9uMy4yLjIsIGh0dHA6Ly9tYXRwbG90bGliLm9yZy+WH4yJAAAgAElEQVR4nO3debwdZX3H8c+XAIJsEYk2hISwRGxQlhhZxFpksYBI1CKCIIvYSFlVtEaxFWutuGAVBfIKGhZZIoK0ASKLVooU2YJsIdDGsCQQIEEIBBAa+PWP57kwOTnn3HOGc889d/J9v173dc8sz8xv5szMb55n5swoIjAzM6uy1QY7ADMzs4HmZGdmZpXnZGdmZpXnZGdmZpXnZGdmZpXnZGdmZpXXkWQnaaqkf+zQtMZIWiZpWO6+TtKnOzHtPL1fSTqsU9NrY77/ImmJpMe6Pe/XYzDWl6SvSPpJp8dtYVohacsS5eZI2rUTMbQxzxGS7pe01gDP52RJ53dwesskbd7CeIdLuqHdcquq2uNmL5F0sKRrBmjab5U0V9Ib+h05Ipr+AQ8CLwDPAk8DNwJHAav1V7bBtPZos8x1wKfbnVcuezJwfpmynfwDRud1+JYGw3cFAji9pv8NwOEtTH9sLr/6YC9rndgOB+4GngceA84Ehg92XA1iDWDLBsOuA/4MLAOWAL8ERg5irKcCUxrEtxS4HnhnB+bT8j4E3Ad8qk7/E4DbSmw3N3RoXa2Zl+N/gefycWg6MHawt7maOBtuf12a/2bAK8AZg70u2oz7DOC4/sZrtWb3oYhYD9gUOAX4EvDTFsu2TNLqnZ5mj9gUeDIinmgyznPAoZLGdiWiLpB0IvBt4IvABsBOpHVxraQ1G5Tp5W3g2IhYF3gbMBz4t8EIIp/FHgbU1rj64nszKfn9rMuhnQscWqf/J/OwwXIJsB/wCdJ2uC0wG9h9EGN6VQ9t84cCTwEHtlRTGmSF9XYB8Jl+C7SQNR+kpjYG7EA6A3hH7j4H+Jf8eSPgClIt8E/A70jNpT/LZV4gnX3+A6/VSI4EHiadjfb1Wz1P7zrgW8AtpDPW/wA2zMN2BRbWixfYC3gJ+L88vzsL0/t0/rwa8FXgIeAJ4DxggzysL47DcmxLgJOarKcNcvnFeXpfzdPfIy/zKzmOc+qU3RVYCPwIOLvQ/9WaXT+xPpxjXZb/ds79PwXMJW3AVwOb5v4iHaifyOv0rr7vsk5sxfV1eI7pe3maDwB7Nyi3fo7lgJr+6+b5fip3n0w6GJ0PPAN8mpraBGknfAh4EvhHCttkcdz+vjPSdvt70ra5CPgxsGZheH81u08Xuo8B7qndR/L3NAX4Y473YvL2moe/l9Q68jSwoPD9viGv14eBx4GpwNoNYnkfMK+f+MYDL7Wx7FsD15L22ceBrxTW78Wk7e1ZYA4wsUFcmwDLydtZ7veXpP1wo9p1TIN9prit1ftuSMeb04Erc0w3A1s0iKlv/xvdZN/dGJiZl30e8HeFYU2Xn9Rq88u8DE8CPy4Mq7v/FZbnGFJt8wHSsS9IJ73LgI/n8f4ux/SnHOPGDZZhLCsfN78B/HeO+5q+76DJevgj8Pf5+9+/yXh98zqCtA0/RWrtezfpWPJ0zXqo910elZf9qfxdqo1j8qv5IvdfndRytGmz5St1zS4ibiEdnP+qzuAT87ARwFuBr6Qi8ckc4IciYt2I+E6hzF+Tdoq/aTDLQ0kbzsaknem0FmK8CvhX4Od5ftvWGe3w/Pd+YHPSgfjHNeO8F9iKdBb4T5L+ssEsf0TaeTfPy3MocERE/BrYG3g0x3F4k7C/CfytpK3ajPV9+f/wPI/fS/owad1/lPRd/A64KI/3gVymr4bycdKO2oodgftJJzXfAX4qSXXGew+wFulA8KqIWAb8Ctiz0HsSKeENJ52lvUrSeFIzxcHASNI6HtVPjI2+s5eBz+XYd87Dj+5nWiuRtBHwt8Af6gw+HvgwaRvYmNd2ZiSNIS37j0jfyXbAHbnct0nfx3bAlnkZ/6lBCO8kfQeN4luTtL5uKvRuuOyS1gN+DVyVY94S+E2h7H7ADNL3M5OV9xEAImIh8FtSTa7PocCsiFhSp0jdfabRctU4CPg68CZSMvhmg/H2AG6JiAVNpnUR6Zi1MbA/8K+SirW+usufr49dQTowjyV9ZzPysGb7X58Pk/an8RHRtw9vm/fhn0vajXSifwBp23+ob/ot+gRpfb6F1JT7hUYjSvor0snKDFJyr1dDr7UjMI50/PgBcBJpfW8NHCDpr5uU3ZeUHLclLV/fsf9w+j8mr5AvImI5aRuod4x/TbNMWHvWWtP/JvJZMyvW7P6ZVPta6Qy5dlq8lqk37+cM5ZTaM1ZgGE1qdoWzsvNrhl/HazWV3wBHF4ZtRaoJrl6IY5PC8FuAA+ss1zDgRdJG29fvM8B1+fNKcdaUf3U4KYH8PH8u1uxaiXX1wvBfAUcWulcjn/0AuwH/Q2pWbHrtlZVrdvMKw96Y5/sXdcodAjzWYJqnANcWvqPra4a/+r2RDvgX1czzpXrfcTvfWR72WeCymjPOZjW750lnrY+QkvKIOtvcXGD3QrmRhe/py8X5FcYR6Yx+i0K/nYEHGsRyEjCjSXwvkWrsu9crX7vspMTxhwbjnQz8umb/e6HJdA8B7i9scw8DH6ldx/S/zxxO85rdTwrD9gHuaxDPWbXrqmb4aNKJwHqFft8it8A0W/78HS2mzrVymux/heXZrabMCtsf6VLRdwrd6+ZtaWyd+Y1l5ePmVwvDjwauarIefgL8e2G5/o/G9xj0zWtUod+T5Npo7r4U+GyT7/K9he6Lydefae04t3mdmP4bOLTR8kWUrNllo0hV61rfJWXZayTNlzSlhWk1O+uqHf4QsAbpDPX12jhPrzjt1Uk10j7FuyefJ21wtTYinTnVTqu/Gkg93wb+RlLtWUorsRZtCvxQ0tOS+pqURdpA/5N0tnQ68LikaZLWbzG+V9dHRDyfP9ZbJ0uAjRpcjxiZh/dp9v1vXBye59lfLbTudybpbZKukPSYpGdINf92tqPjI2J4RIyKiIMjYnGdcTYFLius97mkg+lbSQfWP9YpM4KUxGcXyl2V+9fzFLBeo/hINep9gUskbQP9LnujuPrUrs+1mlxn+iUwUtJOpJO4N5KaG2u93n2mlf0S0rYyssl0Ngb+FBHPNomj0fKPBh6KVLOo1XD/K4zT33FvhX0+UqvIk3R4HUlaG/gYuVUlIn5POkn5RD/Tf7zw+YU63Y2+k2axtXKcq7fe1iOd6DVUKtlJejdphd9QOywino2IEyNic+BDwOcLTQLRYJKN+vcZXfg8hpTpl5DOht9YiGsYKx4g+pvuo6SNsjjt5az4pbViSY6pdlqPtDkdIuJJUpPAN2oGNYu13nIuAD6TD859f2tHxI15PqdFxLtITQ5vI91E0km/J525f7TYU9I6pGbdYjNZs+9pEal5pa/82qQbMMo4k3TH4LiIWJ/UzFSvCfb1WEC6jllc72tFxCN52BZ1yiwhHRy2LpTZINLNJvXcRfrO6oqIVyLid6STzg/k3s2WvVFcbcsnI5eQmsE+SapVvVRn1I7tM/34NbCDpE0aDH8U2DA35bYbxwJgTIPE33T/y9o6PuV9580txtaOj5CusZ+RT4YeIx3fW2nK7LRWjskrrLe8/rcE7mw24baSnaT1Je1Latc9PyLurjPOvpK2zNdxniGd1b6cBz9Oaodt1yGSxkt6I6mZ9JKIeJnUFLeWpA9KWoN0YbN4F9HjwFhJjZbzIuBzkjaTtC6vXeOrd6bWUI7lYuCbktaTtCnweVa+W65V3ydd8ypeH2wW62LSDTDFdTsV+LKkrQEkbSDpY/nzuyXtmNfZc6Rb1l+mgyJiKemayo8k7SVpjXyn6S9I10davVPwEuBDkt6Tr0V9nfIJaj3SNrlM0ttJF+M7bSppO9gUXv093KQ87AJgD0kHSFpd0pslbRcRr5Ca2/5N0ltyuVGSGl3DvgUYLqnhGb6knUlNbnNyr2bLfgXwF5I+K+kNeRvesdTSJ+eSruP8LQ3uwhyAfaauSNfMryXVtt+V1/t6ko6S9KlI1/JuBL4laa1cEz6SmmvHDdxCOhk7RdI6ufwueVjD/a+J2uPjhcARkrbLd0f+K3BzRDzY2tK37DDSTzHeSbpmvB2wC7CdpHd2eF79KXNM3gF4MCIeajJOy8nucknPks5WTiIdjBtdSB5HOptaRjq7PyMirsvDvgV8NVftG14sreNnpHb6x0hNNMfDqwfUo0ntzY+QDtwLC+V+kf8/Ken2OtOdnqd9PemOqD8Dx7URV9Fxef7zSTXeC/P02xYRz5Cu3W3YSqz5bPqbwH/ndbtTRFxGahKdkZut7iHVqCCdxZ1Fag7ru8vxe2Vi7Wc5vkOqQXyPdKC9mbQN7R4RL7Y4jTmk5ZxBOrA8S7pLq6XyNb5Aapp5lrT8Py8xjf78kHQTwzV5n7mJdCGfiHiYdH3pRFKz1h28dlH9S6Sa2E35+/o16XrFSnJN6RzS9bGiHyv9sHgZaVv5akT8Kg9ruOy5CW9PUkvMY6S75N5fbvGBtI0uBR6JiFubjNexfaYf+wOzSMu8lLQvTCStY0jXLMeSahWXAV+LiGv7m2hO2B8i1SoeJh17Pp6HNdv/GjkZODfvwwdExG9Idx9fStr2twAObGmJW5RPmHYHfhARjxX+ZpOa0g/r5PxaUOaYfDDp5KKpvts9zYaEfLb3NKk57oHBjmewSOq7w2/7iHhhsOMxGwy5JeS/SPvBn5uO62RnvU7Sh0jX+ER6csiOwITwxmtmLfKDoG0omERqYnqU1Ex+oBOdmbXDNTszM6s81+zMzKzyeuUBpB230UYbxdixYwc7DDOzIWX27NlLIqLRAw2GrMomu7Fjx3LbbbcNdhhmZkOKpKa/Vxuq3IxpZmaV52RnZmaV52RnZmaV52RnZmaV52RnZmaV52RnZmaV52RnZmaV19Vkl99rdr+kearzBnMlp+Xhd0maUBg2XNIlku6TNDe/r8vMzKxfXUt2+S3ip5Pe6TQeOEjS+JrR9iY96HccMJn0duU+PwSuioi3k94BNnfAgzYzs0ro5hNUdgDmRcR8AEkzSE+zv7cwziTgvPxE+5tybW4k6QWP7wMOh1dfXvlSF2M3q4SxU64ctHk/eMoHB23eZt1sxhxFekt1n4W5XyvjbA4sBs6W9AdJP5G0zkAGa2Zm1dHNZKc6/WrfL9RonNWBCcCZEbE9qaZX75rfZEm3Sbpt8eLFrzdeMzOriG42Yy4ERhe6NyG9jLOVcQJYGBE35/6XUCfZRcQ0YBrAxIkT/aI+61mD2ZxotirqZs3uVmCcpM0krQkcCMysGWcmcGi+K3MnYGlELIqIx4AFkrbK4+3Oitf6zMzMGupazS4ilks6FrgaGAZMj4g5ko7Kw6cCs4B9gHnA88ARhUkcB1yQE+X8mmFmZmYNdfV9dhExi5TQiv2mFj4HcEyDsncAEwc0QDMzqyQ/QcXMzCrPyc7MzCrPyc7MzCrPyc7MzCrPyc7MzCrPyc7MzCrPyc7MzCrPyc7MzCrPyc7MzCrPyc7MzCrPyc7MzCrPyc7MzCrPyc7MzCrPyc7MzCrPyc7MzCrPyc7MzCrPyc7MzCrPyc7MzCrPyc7MzCrPyc7MzCrPyc7MzCrPyc7MzCrPyc7MzCrPyc7MzCrPyc7MzCrPyc7MzCqvq8lO0l6S7pc0T9KUOsMl6bQ8/C5JEwrDHpR0t6Q7JN3WzbjNzGxoW71bM5I0DDgd2BNYCNwqaWZE3FsYbW9gXP7bETgz/+/z/ohY0qWQzayDxk65clDm++ApHxyU+Vpv6WbNbgdgXkTMj4iXgBnApJpxJgHnRXITMFzSyC7GaGZmFdTNZDcKWFDoXpj7tTpOANdImi1pcr0ZSJos6TZJty1evLhDYZuZ2VDXtWZMQHX6RRvj7BIRj0p6C3CtpPsi4voVRoyYBkwDmDhxYu20zVYwWM1qZtZ93azZLQRGF7o3AR5tdZyI6Pv/BHAZqVnUzMysX91MdrcC4yRtJmlN4EBgZs04M4FD812ZOwFLI2KRpHUkrQcgaR3gA8A9XYzdzMyGsK41Y0bEcknHAlcDw4DpETFH0lF5+FRgFrAPMA94HjgiF38rcJmkvpgvjIiruhW7mZkNbd28ZkdEzCIltGK/qYXPARxTp9x8YNsBD9DMzCrJT1AxM7PKc7IzM7PKazvZ5SehmJmZDRllanbzJH1X0viOR2NmZjYAyiS7bYD/AX4i6ab81JL1OxyXmZlZx7Sd7CLi2Yg4KyLeA/wD8DVgkaRzJW3Z8QjNzMxep1LX7CTtJ+ky4IfAqcDmwOXU/KzAzMysF5T5nd3/Ar8FvhsRNxb6XyLpfZ0Jy8zMrHPKJLttImJZvQERcfzrjMfMzKzjytygcrqk4X0dkt4kaXoHYzIzM+uoUndjRsTTfR0R8RSwfedCMjMz66wyyW41SW/q65C0IV1+xqaZmVk7yiSpU4EbJV2Suz8GfLNzIZmZmXVW28kuIs6TNBt4P+nN4h+NiHs7HpmZmVmHlG1+vA94qq+8pDER8XDHojIzM+ugtpOdpONIT015HHiZVLsL0mPEzMzMek6Zmt0JwFYR8WSngzEzMxsIZe7GXAAs7XQgZmZmA6VMzW4+cJ2kK4EX+3pGxPc7FpWZmVkHlUl2D+e/NfOfmZlZTyvz04OvA0haJyKe63xIZmZmnVXmFT87S7oXmJu7t5V0RscjMzMz65AyN6j8APgb4EmAiLgT8Kt9zMysZ5VJdkTEgppeL3cgFjMzswFR5gaVBZLeA4SkNYHjyU2aZmZmvahMze4o4BhgFLAQ2C5390vSXpLulzRP0pQ6wyXptDz8LkkTaoYPk/QHSVeUiNvMzFZRZe7GXAIc3G45ScOA04E9SUnyVkkzax4ivTcwLv/tCJyZ//c5gVSLXL/d+ZuZ2aqrzLMxzyY9C3MFEfGpforuAMyLiPl5OjOASUAx2U0CzouIAG6SNFzSyIhYJGkT4IOk1wl9vt24zcxs1VXmml2xCXEt4CPAoy2UG0V61FifhaxYa2s0zihgEeku0H8A1ms0A0mTgckAY8aMaSEkMzNbFZRpxry02C3pIuDXLRRVvcm1Mo6kfYEnImK2pF2bxDYNmAYwceLElWqfZma2air104Ma44BWqlELgdGF7k1YuUbYaJxdgP0kPQjMAHaTdH7ZgM3MbNVS5gkqz0p6pu8/cDnwpRaK3gqMk7RZ/snCgcDMmnFmAofmuzJ3ApZGxKKI+HJEbBIRY3O5/4yIQ9qN3czMVk1lmjEbXjPrp9xySccCVwPDgOkRMUfSUXn4VGAWsA8wD3geOKLMvMzMzIrK3I05odnwiLi9ybBZpIRW7De18Dno5zd7EXEdcF0LoZqZmQHl7sY8A5gA3EW6oWQb4Gbg/0g3nOzWsejMzMw6oMwNKg8C74qIiRHxLmB70u/n3h8RTnRmZtZzyiS7t0fE3X0dEXEP6ZFhZmZmPalMM+ZcST8Bzic1Wx6CHwRtZmY9rEyyOwL4e9JzKgGuJz3D0szMrCeV+enBnyVNBWZFxP0DEJOZmVlHlflR+X7AHcBVuXs7SbU/DjczM+sZZW5Q+RrpDQZPA0TEHcDYDsZkZmbWUWWS3fKIWNrxSMzMzAZImRtU7pH0CWCYpHHA8cCNnQ3LzMysc8rU7I4DtgZeBC4ElgKf7WRQZmZmndRWzU7SMGBmROwBnDQwIZmZmXVWWzW7iHgZeF7SBgMUj5mZWceVuWb3Z+BuSdcCz/X1jIjjOxaVmZlZB5VJdlfmPzMzsyGh5WQn6ZqI+EBEnCvpyxHxrYEMzMzMrFPauWY3ovD5Y50OxMzMbKC0k+xiwKIwMzMbQO1cs9s8PwNThc+vioj9OhqZmZlZh7ST7CYVPn+v04GYmZkNlJaTXUT810AGYmZmNlDKPC7MzMxsSHGyMzOzynOyMzOzymvnR+WX0+TnB74b08zMelU7NbvvAacCDwAvAGflv2XAPa1MQNJeku6XNE/SlDrDJem0PPwuSRNy/7Uk3SLpTklzJH29jbjNzGwV1/bdmJK+ERHvKwy6XNL1/ZXPrwc6HdgTWAjcKmlmRNxbGG1vYFz+2xE4M/9/EdgtIpZJWgO4QdKvIuKmVuM3M7NVV5lrdiMkbd7XIWkzVnyUWCM7APMiYn5EvATMYMXf7pG7z4vkJmC4pJG5e1keZ4385ye6mJlZS8q89eBzwHWS5ufuscBnWig3ClhQ6F5IqrX1N84oYFGuGc4GtgROj4iba2cgaTIwGWDMmDEthGRmZquCtpNdRFwlaRzw9tzrvoh4sYWiqje5VsfJL47dTtJw4DJJ74iIFa4VRsQ0YBrAxIkTXfMzMzOgRDOmpDcCXwSOjYg7gTGS9m2h6EJgdKF7E+DRdseJiKeB64C92ovczMxWVWWu2Z0NvATsnLsXAv/SQrlbgXGSNpO0JnAgMLNmnJnAofmuzJ2ApRGxSNKIXKND0trAHsB9JWI3M7NVUJlrdltExMclHQQQES9Iqtf8uIKIWC7pWOBqYBgwPSLmSDoqD58KzAL2AeYBzwNH5OIjgXPzdbvVgIsj4ooSsZuZ2SqoTLJ7KdeuAkDSFqSfBvQrImaRElqx39TC5wCOqVPuLmD7ErGamZmVSnYnA1cBoyVdAOwCHN7BmMzMzDqqzN2Y10iaDexEunvyhIhY0vHIzMzMOqTM3Zi/AXaMiCsj4oqIWCJp2gDEZmZm1hFlmjE3A74k6d0R0feMyokdjMlWMWOnXDnYIZhZxZX56cHTwO7AWyVdLmmDDsdkZmbWUWWSnSJieUQcDVwK3AC8pbNhmZmZdU6ZZsziTwXOkXQ3dX4uYGZm1ivaeXnr+hHxDPALSRsWBj0AfKHjkZmZmXVIOzW7C4F9SW8eCFZ8aHMAm9crZGZmNtjaeXnrvvn/ZgMXjpmZWee104w5odnwiLj99YdjZtZZg/nTlgdP+eCgzdtW1E4z5qlNhgWw2+uMxczMbEC004z5/oEMxMzMbKCU+ekBkt4BjAfW6usXEed1KigzM7NOajvZSfoasCsp2c0C9ib9sNzJzszMelKZJ6jsT3pc2GMRcQSwLfCGjkZlZmbWQWWS3QsR8QqwXNL6wBP4N3ZmZtbDylyzu03ScOAs0g/MlwG3dDQqMzOzDirz8taj88epkq4C1o+IuzoblpmZWeeUvRtzG2BsX3lJW0bELzsYl5mZWceUuRtzOrANMAd4JfcOwMnOzMx6Upma3U4RMb7jkZiZmQ2QMndj/l6Sk52ZmQ0ZZWp255IS3mPAi6RX/UREbNPRyMzMzDqkTLKbDnwSuJvXrtmZmZn1rDLNmA9HxMyIeCAiHur7a6WgpL0k3S9pnqQpdYZL0ml5+F19rxWSNFrSbyXNlTRH0gkl4jYzs1VUmZrdfZIuBC4nNWMC0N9PDyQNA04H9gQWArdKmhkR9xZG2xsYl/92BM7M/5cDJ0bE7ZLWA2ZLuramrJmZWV1lkt3apCT3gUK/Vn56sAMwLyLmA0iaAUwCiglrEnBeRARwk6ThkkZGxCJgEUBEPCtpLjCqpqyZmVldbSW7XDtbEhFfLDGvUcCCQvdCUq2tv3FGkRNdjmEssD1wc534JgOTAcaMGVMiRDMzq6K2rtlFxMvAhJLzUr1JtjOOpHWBS4HPRsQzdeKbFhETI2LiiBEjSoZpZmZVU6YZ8w5JM4FfAM/19WzhcWELgdGF7k2AR1sdR9IapER3gR9NZmZm7SiT7DYEngR2K/Rr5ZrdrcA4SZsBjwAHAp+oGWcmcGy+nrcjsDQiFkkS8FNgbkR8v0TMZma2Civz1oMjyswoIpZLOha4GhgGTI+IOZKOysOnkt58vg8wD3ge6JvXLuTf9km6I/f7SkTMKhOLmZmtWso8CHoT4EekBBTADcAJEbGwv7I5Oc2q6Te18DmAY+qUu4H61/PMzMz6VeZH5WeTmhs3Jt0peXnuZ2Zm1pPKJLsREXF2RCzPf+cAvvXRzMx6Vplkt0TSIZKG5b9DSDesmJmZ9aQyye5TwAHAY6Qfe++f+5mZmfWkMndjPgzsNwCxmJmZDYiWk52kf2oyOCLiGx2Ix8zMrOPaqdk9V6ffOsCRwJsBJzszM+tJLSe7iDi173N+zc4JpB99zwBObVTOzMxssLX71oMNgc8DBwPnAhMi4qmBCMzMzKxT2rlm913go8A04J0RsWzAojIzM+ugdn56cCLpqSlfBR6V9Ez+e1bSSq/bMTMz6xXtXLMr85s8G0LGTrlysEMwMxsQTmBmZlZ5TnZmZlZ5TnZmZlZ5TnZmZlZ5TnZmZlZ5TnZmZlZ5TnZmZlZ5TnZmZlZ5TnZmZlZ5TnZmZlZ5TnZmZlZ5TnZmZlZ5TnZmZlZ5XU12kvaSdL+keZKm1BkuSafl4XdJmlAYNl3SE5Lu6WbMZmY29HUt2UkaBpwO7A2MBw6SNL5mtL2BcflvMnBmYdg5wF4DH6mZmVVNN2t2OwDzImJ+RLwEzAAm1YwzCTgvkpuA4ZJGAkTE9cCfuhivmZlVRDeT3ShgQaF7Ye7X7jhmZmZt6WayU51+UWKcxjOQJku6TdJtixcvbis4MzOrrm4mu4XA6EL3JsCjJcZpKCKmRcTEiJg4YsSI0oGamVm1dDPZ3QqMk7SZpDWBA4GZNePMBA7Nd2XuBCyNiEVdjNHMzCqoa8kuIpYDxwJXA3OBiyNijqSjJB2VR5sFzAfmAWcBR/eVl3QR8HtgK0kLJR3ZrdjNzGxoW72bM4uIWaSEVuw3tfA5gGMalD1oYKMzM7Oq8hNUzMys8pzszMys8pzszMys8pzszMys8rp6g8pQMnbKlYMy3wdP+eCgzNfMrMpcszMzs8pzsjMzs8pzsjMzs8pzsjMzs8pzsjMzs8pzsjMzs8pzsjMzs8pzsjMzs8pzsjMzs8rzE1TMzAaIn8TUO1yzMzOzynOyMzOzynMzZo8ZrGYPM7Mqc83OzMwqz8nOzMwqz8nOzMwqz8nOzMwqz8nOzMwqz8nOzMwqz8nOzMwqz8nOzMwqr6vJTtJeku6XNE/SlDrDJem0PPwuSRNaLTYfBH0AAAaASURBVGtmZtZI15KdpGHA6cDewHjgIEnja0bbGxiX/yYDZ7ZR1szMrK5u1ux2AOZFxPyIeAmYAUyqGWcScF4kNwHDJY1ssayZmVld3Xw25ihgQaF7IbBjC+OMarEskiaTaoQAyyTd/zri3QhY8jrKDxbH3V2Ou7scdwv07ddVfNMOhdFTupnsVKdftDhOK2WJiGnAtPZDW5mk2yJiYiem1U2Ou7scd3c5biurm8luITC60L0J8GiL46zZQlkzM7O6unnN7lZgnKTNJK0JHAjMrBlnJnBovitzJ2BpRCxqsayZmVldXavZRcRySccCVwPDgOkRMUfSUXn4VGAWsA8wD3geOKJZ2QEOuSPNoYPAcXeX4+4ux22lKGKlS19mZmaV4ieomJlZ5TnZmZlZ5TnZ1RiqjyWT9KCkuyXdIem2wY6nGUnTJT0h6Z5Cvw0lXSvpf/P/Nw1mjPU0iPtkSY/k9X6HpH0GM8Z6JI2W9FtJcyXNkXRC7t/T67xJ3D29ziWtJekWSXfmuL+e+/f0+q46X7MryI8l+x9gT9LPIG4FDoqIewc1sBZIehCYGBE9/4NbSe8DlpGelvOO3O87wJ8i4pR8kvGmiPjSYMZZq0HcJwPLIuJ7gxlbM/kpRCMj4nZJ6wGzgQ8Dh9PD67xJ3AfQw+tckoB1ImKZpDWAG4ATgI/Sw+u76lyzW5EfS9YFEXE98Kea3pOAc/Pnc0kHtZ7SIO6eFxGLIuL2/PlZYC7pqUQ9vc6bxN3T8uMOl+XONfJf0OPru+qc7FbU6HFlQ0EA10ianR+bNtS8Nf+mkvz/LYMcTzuOzW/pmN7rTVOSxgLbAzczhNZ5TdzQ4+tc0jBJdwBPANdGxJBa31XkZLeilh5L1qN2iYgJpDdDHJOb3GzgnQlsAWwHLAJOHdxwGpO0LnAp8NmIeGaw42lVnbh7fp1HxMsRsR3paU87SHrHYMe0qnOyW1ErjzTrSRHxaP7/BHAZqUl2KHk8X6Ppu1bzxCDH05KIeDwf2F4BzqJH13u+dnQpcEFE/DL37vl1Xi/uobLOASLiaeA6YC+GwPquMie7FQ3Jx5JJWidfwEfSOsAHgHual+o5M4HD8ufDgP8YxFha1nfwyj5CD673fMPET4G5EfH9wqCeXueN4u71dS5phKTh+fPawB7AffT4+q46341ZI9/G/ANeeyzZNwc5pH5J2pxUm4P0CLgLezluSRcBu5Jee/I48DXg34GLgTHAw8DHIqKnbgZpEPeupOa0AB4EPtN3XaZXSHov8DvgbuCV3PsrpOtfPbvOm8R9ED28ziVtQ7oBZRipQnFxRPyzpDfTw+u76pzszMys8tyMaWZmledkZ2ZmledkZ2ZmledkZ2ZmledkZ2ZmledkZ6skSSHp1EL3F/JDnZuV+bCk8W3O53BJr+Tb0fv63ZMff/W6SVrW/1hm5mRnq6oXgY9K2qiNMh8G2kp22ULgpBLlBpSk1Qc7BrNucbKzVdVyYBrwudoBkjaV9Jv8oOHfSBoj6T3AfsB38zvUtsh/V+WHb/9O0tsbzOsKYGtJW9WZ17LC5/0lnZM/nyPpzPw+t/mS/jo/9Hhu3ziFcqdKuj3HOiL3qxtbnu73Jf0W+HaJ9WY2JDnZ2arsdOBgSRvU9P8x6Z112wAXAKdFxI2kxz19MSK2i4g/kpLlcRHxLuALwBkN5vMK8B3S0z/a8SZgN1JCvhz4N2Br4J2StsvjrAPcnh8C/l+kp7rQT2xvA/aIiBPbjMdsyHIzhq2yIuIZSecBxwMvFAbtTHrRJsDPSIlqBflJ/O8BfpEe4QjAG5rM7kLgJEmbtRHi5RERku4GHo+Iu/O85wBjgTtIifTnefzzgV+2ENsvIuLlNuIwG/Kc7GxV9wPgduDsJuPUe6beasDT+TUu/YqI5fmGmNo3UxenvVbNsBfz/1cKn/u6G+270UJsz/UfsVm1uBnTVmn5QbwXA0cWet9IeuMFwMHADfnzs8B6udwzwAOSPgbpCf2Stu1ndueQnoA/otDvcUl/KWk10hP827UasH/+/AnghpKxmVWak51Zevln8a7M44EjJN0FfBI4IfefAXxR0h8kbUFKhEdKuhOYA0xqNpOIeAk4jRXfUD2FdAPLf5JeRNqu50g3v8wmXd/759y/rdjMqs5vPTAzs8pzzc7MzCrPyc7MzCrPyc7MzCrPyc7MzCrPyc7MzCrPyc7MzCrPyc7MzCrv/wGnfEEBPOAl+AAAAABJRU5ErkJggg==\n",
      "text/plain": [
       "<Figure size 432x288 with 1 Axes>"
      ]
     },
     "metadata": {
      "needs_background": "light"
     },
     "output_type": "display_data"
    }
   ],
   "source": [
    "plt.hist(current_states, density=True)\n",
    "plt.xlabel('Note Number')\n",
    "plt.ylabel('Normalized Frequency')\n",
    "plt.title('Distribution of Notes in Original Piece (Bach Violin Concerto in A minor)')\n",
    "plt.show()"
   ]
  },
  {
   "cell_type": "code",
   "execution_count": 23,
   "metadata": {},
   "outputs": [
    {
     "data": {
      "image/png": "iVBORw0KGgoAAAANSUhEUgAAAYkAAAEWCAYAAACT7WsrAAAABHNCSVQICAgIfAhkiAAAAAlwSFlzAAALEgAACxIB0t1+/AAAADh0RVh0U29mdHdhcmUAbWF0cGxvdGxpYiB2ZXJzaW9uMy4yLjIsIGh0dHA6Ly9tYXRwbG90bGliLm9yZy+WH4yJAAAgAElEQVR4nO3debwcVZ338c+XBEQhEJCMQhbCEsHAIGAEXB4HEZEAEnV0BlxikHliRlBUXOKOO6I4Dk4kRg2BAUREeSZABHGJyoNIANlCwIkxQ64JS1gCCQgGfvPHOQ2VTlffuknqdufe7/v16tetqlPLr+tW96/OqepTigjMzMxa2aLTAZiZWfdykjAzs1JOEmZmVspJwszMSjlJmJlZKScJMzMrNeiShKSZkj69idY1RtJqSUPy+HxJ/7Ip1p3X91NJ79pU6+vDdr8oaaWke/p72xujU/vLQNIUSdd0Oo5uIWmppMM3YLmuO4YHVJLI/5jHJT0q6WFJ10qaJumZ9xkR0yLiCxXX1fafHBF3R8S2EfHUJoj9NEnnN61/YkScu7Hr7mMco4FTgfER8cIW5YdKCkkzmqZfI2lKhfWPzcsP3WRBZxuzvySdLOkGSU9ImtOi/LWS7pT0mKRfSdq1UCZJX5X0QH6dIUm9bG+bfIIxb0Pi3dxI2iof4/8taU3+fM2WNLbTsfU3SXMkPZn//w9KulrS3tCZz3xvBlSSyN4QEcOAXYHTgY8B39/UG6njS65L7Ao8EBH3tZlnDTB5gH3AlwNfBGY3F0jaCfgJ8GlgR+AG4IeFWaYCbwReAuwHHAO8p5ftvQV4AjhC0s4bG3yLmLvt+LwEOBZ4G7A9aV/dCLy2k0F10BkRsS0wCrgPmNPZcNqIiAHzApYChzdNOwh4Gtg3j88BvpiHdwIuBx4GHgR+S0qc/5mXeRxYDXwUGAsEcCJwN/CbwrSheX3zga8A1wOrgP8CdsxlhwI9reIFjgSeBP6Wt3dLYX3/koe3AD4F/A/poDoP2D6XNeJ4V45tJfDJNvtp+7z8/Xl9n8rrPzy/56dzHHNaLHso0AN8CzinMP0aYEqFWO/Osa7Or5fn6e8GFgEPAVcBu+bpAv4tr2cVcGvjf9kituL+mpJj+npe55+BiRWOoS82v29SEri2ML5N3k975/FrgamF8hOB63rZzi+BLwE3AR/O0w4B7gGGFOZ7E3BrYb9OB/4EPABcXDi+GsfAM8dnnv6jvM5VpGN2n8K6nw9cBjwCLMjv/ZpC+d7A1aTPxl3APzUtOzcvez3wheKyTe+1cVyNbrM/dsnrexBYDPzfQtlp+X2cDzwK3Aa8CPh4Pi6WAUc0HQctP4e5/FhgIelzPx94caHsY8Bf8nbuAl7b277P5e8kHe8PAJ+kxXdRYd455O+gPH40sLr5GG73uchl+xT+P/cCn6hwnGyd9+MD+f0vAF7Q7lgdiDWJdUTE9aQvtf/TovjUXDYCeAHwibRIvJP0QXtDpOakMwrL/APwYuD1JZucTPrH7gKsBc6qEOOVwJeBH+btvaTFbFPy6zXA7sC2wH80zfMqYC/S2dlnJL24ZJPfIiWK3fP7mQycEBE/ByYCy3McU9qE/SXgHyXt1cdYX53/Ds/b+J2kN5L2/ZtJ/4vfAj/I8x2Rl3kRMBz4Z9IBXsXBpA/6TsAZwPd7awYqsQ9wS2MkItaQPoD7tCrPw/tQQtIYUrK9IL8m5/VeR6qlHVaY/W3AhXn4/aQayz+Qjq+HgHWa/Vj/+PwpMA74O1JCuqAw74y8vReSTjCeaQuXtA3pC+jCvOzxwLcl7VNY9q/AzqTj/d1l75eUJK6PiGVt5vkB6bO4C6mW9WVJxVrGG0gnbzsAfyB9YW4BjAQ+D3ynaX0tP4eSXpS39QHSsTYPuCw3h+0FnAy8LFJrxOtJX/bQZt9LGg+cTUoUu5AS6Kg27/UZkrYF3p7fU3NZ6edC0jDg58CVeZt7Ar/oLVbS/3h7YHSOcxopgZfr7cxqc3pRkr2B68hn1qxbk/g86Sxjz97WxbNnaru3mFasSZxeKB9PqiEMoU1NonC2dH5T+XyePTP+BfDeQtlepJrH0EIcowrl1wPHtXhfQ0jNHOML094DzM/D68XZtPwz5aQv3h/m4WJNokqsQwvlPwVOLIxvATxGavo6DPgj6Sx7i17+/8X9NQVYXCh7Xt7uC3tZR6uaxPeL/9c87f8X3u9T5FpFHh+Xt6WSbXwKuDkP75KXP6Cw/dl5eBjpS3zXPL6IfGabx3dusV93b/Pehud5ts/Hwd+AvZre+zV5+J+B3zYt/x3gs4Vli+/5y5TXJL4LXNQmrtF5HwwrTPtK4/9A+mxcXSh7A6kWOqSwn4J04tE4Dso+h58GLm461v5COq73JNVMDge2bIqx3b7/TPH9kWqaT9K+JvFX0pn8PaQa1B4tjuF2n4vjgT+UrL9drO8m1Xz3a/c5KL4GfE0iG0mqkjX7Gqlq+zNJSyRNr7CudmdDzeX/A2xJOpPdWLvk9RXXPZRUA2oo3o30GOkMvtlOwFYt1jVyA2L6KvB6Sc01nyqxFu0K/Hu+2aDR9CdgZET8klQLmQHcK2mWpO0qxvfM/oiIx/Jgq33Sm9VA8za3IzVJtCrfjtR8ECXrm0w+o4+I5cCvefYs/kLgzZKeQzqDvCkiGvtyV+DSwn5aRPpyLe7XZ44/SUMknS7pT5Ie4dmz4p1IZ6ZDWfd4LQ7vChzc2Fbe3ttJtY5Wyxb/380eIH1RldkFeDAiHi1Maz4m7y0MPw6sjGdvGGmcCRf/t2Wfw3WOzYh4Os87MiIWk2oYpwH3SbpI0i551nb7fpfi9iLVNHur7X49IoZHxAsj4tiI+FOLeUo/F6TE2mqZ3mL9T1It7CJJy/NNFlu2C3TAJwlJLyPt1PVuz4uIRyPi1IjYnXR28qFCFbfsA142vWF0YXgMKYOvJJ0RPq8Q1xDSh63qepeT/vnFda9l3Q9PFStzTM3r+ksf10NEPAB8k9QeXdQu1lbvcxnwnvyhabyeGxHX5u2cFREvJTXhvAj4SF9j3UgLSRdagWeaYvbI09crz8MLaUHSK0g1jY9LuiffZnwwcLykoRFxB+lLbCLrNjVB2k8Tm/bT1hFR/N8V9+/bgEmkM+PtSbUNSF8095P+J8VmkeKxuwz4ddO2to2Ify0s23ysl/k5cJCksiaY5cCOuQmluL4+H5MFZZ/DdY7N3Pw4urGtiLgwIl6V5wnSiRC03/crituT9DxSU87Gave5WEY6BsuWaxlrRPwtIj4XEeOBV5BuspjcLogBmyQkbSfpGOAiUjPObS3mOUbSnvlAeYSUbRtnJ/eS2tP76h2SxucD5fPAJfmM54/A1pKOzpn7U8BzCsvdC4wt3q7b5AfAByXtltsxG9cw1vYluBzLxcCXJA3Lt3J+iHQxa0N8g3SwFa9/tIv1ftKF8eK+nUn60twHQNL2kt6ah18m6eC8z9aQqukbfctxM0lDJW1NapIYImnrwh1ClwL7SvrHPM9nSBeT78zl55FOMEbmM89TKb9b5V2ktv7xwP75tS/pBGJinudCUrvyq0kXbBtmkv5vu+aYR0ia1OZtDSM1LT6Q1//lRkE+Dn4CnCbpefkWzOKXxeXAiyS9U9KW+fUySS9usex4CtczmkW61nU16ez2pXlfD1O6Pf3dka5VXAt8Je/3/UgX4C8oW2cFZZ/Di4GjlW5p3pL0v3oCuFbSXpIOy7W4v5JqKI1jrd2+vwQ4RtKrJG2Vt7cpvltLPxek/88LJX1A0nPy/jy4t1glvUbS3+eT1EdIybP956lqu9Tm8CJVpx8nNQOsAn4HnMS6d4vM4dlrEh/My6whXTT7dGG+SaSL1w8DH6Z1W/o601j3ropHSHeO7FSYfwrprOO+vM6lPHtN4vmk2s5DpCaGxvqKdzd9hnSWcD/pS32HVnE0L9tiP+2Ql78/r+8z5PZ++nBNojDto3n7U3qLNZd/Pk9/GDgkT3sn6a6VR/JyjXb515LuaFpNOhO8ANi2JLbi/ppCUxt5jnG960+57LRcXnydVig/HLiTdHzNB8YWykS6PvNgfp1Bi+sRpDtLHiLdENFc9m3SFxmkM9+ngSua5tmClNDvIh3jfwK+3OYY2JZ0ze1RUu1kcnEfkGqyV/Ds3U1fBX5RWH6vXH4/KdH8Eti/sOzlVLi7Kc+/FfA5UvPumhzP94AxuXxUXt+D+X1Na/rfnN/0v1haGB9K4ZocvX8O3wTcQfqO+DX5ji/S7cvX5/31YI5nl972fS5/F+n7os93N5Udw+0+F7lsX9L1v4dITavTKxwnx+fpa0gnpmcVj5lWL+UFzWyQk/RV0oX90lrB5kDSfFJS+V6nYxkIBmxzk5m1J2lvSfspOYjUxHNpp+Oy7tJtv8o0s/4zjHT9aBdSE+iZpOYps2e4ucnMzEq5ucnMzEoNqOamnXbaKcaOHdvpMMzMNhs33njjyogYUVY+oJLE2LFjueGGGzodhpnZZkNSu1/Lu7nJzMzKOUmYmVkpJwkzMyvlJGFmZqWcJMzMrJSThJmZlXKSMDOzUrUmCUlHSrpL0mK1eOpb7ljsrFx+q6QDC2XDJV0i6U5JiyS9vM5YzcxsfbUlifxQixmkB6mMJz15a3zTbBNJT+kaB0wlPUy84d+BKyNib9KTvhbVFauZmbVW5y+uDyI9iH4JgKSLSA/yuaMwzyTgvEi9DF6Xaw87kx6I8WrSg2OIiCdJDxY3sz4YO/2Kjm176elHd2zbtunU2dw0knUfRt7Dug82bzfP7qSnYZ0j6Q+SvpefK2xmZv2oziShFtOa+yUvm2cocCBwdkQcQKpZrHdNA0DSVEk3SLrh/vvv35h4zcysSZ1JogcYXRgfBSyvOE8P6TnKv8/TLyEljfVExKyImBARE0aMKO3I0MzMNkCdSWIBME7SbpK2Ao4D5jbNMxeYnO9yOgRYFRErIuIeYJmkvfJ8r2XdaxlmZtYPartwHRFrJZ0MXAUMAWZHxEJJ03L5TGAecBSwGHgMOKGwivcBF+QEs6SpzGyz0skLyGYbo9bnSUTEPFIiKE6bWRgO4KSSZW8GJtQZn5mZtedfXJuZWSknCTMzK+UkYWZmpZwkzMyslJOEmZmVcpIwM7NSThJmZlbKScLMzEo5SZiZWSknCTMzK+UkYWZmpZwkzMyslJOEmZmVcpIwM7NSThJmZlbKScLMzEo5SZiZWSknCTMzK+UkYWZmpZwkzMyslJOEmZmVcpIwM7NSThJmZlbKScLMzEo5SZiZWSknCTMzKzW0zpVLOhL4d2AI8L2IOL2pXLn8KOAxYEpE3JTLlgKPAk8BayNiQp2xmtmmNXb6FR3Z7tLTj+7Idgeq2pKEpCHADOB1QA+wQNLciLijMNtEYFx+HQycnf82vCYiVtYVo5mZtVdnc9NBwOKIWBIRTwIXAZOa5pkEnBfJdcBwSTvXGJOZmfVBnc1NI4FlhfEe1q0llM0zElgBBPAzSQF8JyJmtdqIpKnAVIAxY8ZsmshtwOpUE4jZ5qrOmoRaTIs+zPPKiDiQ1CR1kqRXt9pIRMyKiAkRMWHEiBEbHq2Zma2nziTRA4wujI8ClledJyIaf+8DLiU1X5mZWT+qM0ksAMZJ2k3SVsBxwNymeeYCk5UcAqyKiBWStpE0DEDSNsARwO01xmpmZi3Udk0iItZKOhm4inQL7OyIWChpWi6fCcwj3f66mHQL7Al58RcAl6Y7ZBkKXBgRV9YVq5mZtVbr7yQiYh4pERSnzSwMB3BSi+WWAC+pMzYzM+udf3FtZmalnCTMzKxUr0ki/3LazMwGoSo1icWSviZpfO3RmJlZV6mSJPYD/gh8T9J1kqZK2q7muMzMrAv0miQi4tGI+G5EvAL4KPBZYIWkcyXtWXuEZmbWMZWuSUg6VtKlpG69zwR2By6j6fZWMzMbWKr8TuK/gV8BX4uIawvTLynrT8nMzAaGKkliv4hY3aogIt6/ieMxM7MuUuXC9QxJwxsjknaQNLvGmMzMrEtUurspIh5ujETEQ8AB9YVkZmbdokqS2ELSDo0RSTtSc59PZmbWHap82Z8JXCvpkjz+VuBL9YVkZmbdotckERHnSboReA3pSXJvjog7ao/MzMw6rmqz0Z3AQ435JY2JiLtri8rMzLpCr0lC0vtIv7K+F3iKVJsIUncdZmY2gFWpSZwC7BURD9QdjJmZdZcqdzctA1bVHYiZmXWfKjWJJcB8SVcATzQmRsQ3aovKzMy6QpUkcXd+bZVfZmY2SFS5BfZzAJK2iYg19YdkZmbdokpX4S+XdAewKI+/RNK3a4/MzMw6rsqF628CrwceAIiIWwB3EW5mNghUSRJExLKmSU/VEIuZmXWZKheul0l6BRCStgLeT256MjOzga1KTWIacBIwEugB9s/jvZJ0pKS7JC2WNL1FuSSdlctvlXRgU/kQSX+QdHmV7ZmZ2aZV5e6mlcDb+7piSUOAGcDrSMllgaS5TZ0DTgTG5dfBwNn5b8MppFrLdn3dvpmZbbwqfTedQ+qraR0R8e5eFj0IWBwRS/J6LgImAcUkMQk4LyICuE7ScEk7R8QKSaOAo0ndkn+o0rsxM7NNqso1iWJTz9bAm4DlFZYbSerSo6GHdWsJZfOMBFaQ7qr6KDCs3UYkTQWmAowZM6ZCWGZmVlWV5qYfF8cl/QD4eYV1q9Xqqswj6Rjgvoi4UdKhvcQ3C5gFMGHChPVqPGZmtuEq3QLbZBxQ5ZS9BxhdGB/F+jWQsnleCRwraSlwEXCYpPM3IFYzM9sIVX5x/aikRxp/gcuAj1VY9wJgnKTd8q2zxwFzm+aZC0zOdzkdAqyKiBUR8fGIGBURY/Nyv4yId/TljZmZ2car0tzU9ppAm+XWSjoZuAoYAsyOiIWSpuXymcA84ChgMfAYcMKGbMvMzOpR5e6mA9uVR8RNbcrmkRJBcdrMwnDQy28uImI+ML+3OM3MbNOrcnfTt4EDgVtJF5r3A34P/I10Ifqw2qIzM7OOqnLheinw0oiYEBEvBQ4g/f7hNRHhBGFmNoBVSRJ7R8RtjZGIuJ3UNYeZmQ1wVZqbFkn6HnA+qXnpHbiDPzOzQaFKkjgB+FdSP0oAvyH1sWRmZgNclVtg/yppJjAvIu7qh5jMzKxLVPkx3bHAzcCVeXx/Sc0/ijMzswGoyoXrz5J6dH0YICJuBsbWGJOZmXWJKklibUSsqj0SMzPrOlUuXN8u6W3AEEnjSI8vvbbesMzMrBtUqUm8D9gHeAK4EFgFfKDOoMzMrDu0rUnkR5DOjYjDgU/2T0hmZtYt2tYkIuIp4DFJ2/dTPGZm1kWqXJP4K3CbpKuBNY2JEfH+2qIyM7OuUCVJXJFfZmY2yJQmCUk/i4gjIuJcSR+PiK/0Z2BmZtZ57a5JjCgMv7XuQMzMrPu0SxLRb1GYmVlXandNYvfcR5MKw8+IiGNrjczMzDquXZKYVBj+et2BmJlZ9ylNEhHx6/4MxMzMuk+VbjnMzGyQcpIwM7NSThJmZlaq3Y/pLqPNbbC+u8nMbOBrV5P4OnAm8GfgceC7+bUauL3KyiUdKekuSYslTW9RLkln5fJbJR2Yp28t6XpJt0haKOlzfX1jZma28Xq9u0nSFyLi1YWiyyT9prcV527GZwCvA3qABZLmRsQdhdkmAuPy62Dg7Pz3CeCwiFgtaUvgGkk/jYjr+vb2zMxsY1S5JjFC0u6NEUm7sW6XHWUOAhZHxJKIeBK4iHV/e0EePy+S64DhknbO46vzPFvml38BbmbWz6r0AvtBYL6kJXl8LPCeCsuNBJYVxntItYTe5hkJrMg1kRuBPYEZEfH7VhuRNBWYCjBmzJgKYZmZWVW9JomIuDI/23rvPOnOiHiiwrrVanVV58kPPNpf0nDgUkn7RsR610IiYhYwC2DChAmubZiZbUK9NjdJeh7wEeDkiLgFGCPpmArr7gFGF8ZHAcv7Ok9EPAzMB46ssE0zM9uEqlyTOAd4Enh5Hu8BvlhhuQXAOEm7SdoKOA6Y2zTPXGByvsvpEGBVRKyQNCLXIJD0XOBw4M4K2zQzs02oyjWJPSLinyUdDxARj0tq1Uy0johYK+lk4CpgCDA7IhZKmpbLZwLzgKOAxcBjwAl58Z2Bc/N1iS2AiyPi8j6+NzMz20hVksST+Ww+ACTtQbpFtVcRMY+UCIrTZhaGAzipxXK3AgdU2YaZmdWnSpI4DbgSGC3pAuCVwJQaYzIzsy5R5e6mn0m6ETiEdDfSKRGxsvbIzMys46rc3fQL4OCIuCIiLo+IlZJm9UNsZmbWYVXubtoN+JikzxamTagpHjMz6yJVksTDwGuBF0i6TNL2NcdkZmZdosqFa0XEWuC9kqYA1wA71BqVDWhjp1/R6RDMrKIqSaJ4y+ocSbfR4rZVMzMbeNo9dGi7iHgE+JGkHQtFfwY+XHtkZmbWce1qEhcCx5B6Yg3W7YwvgN1bLWRmZgNHu4cOHZP/7tZ/4ZiZbZxOXvNaevrRHdt2Xdo1Nx3YbsGIuGnTh2NmZt2kXXPTmW3KAjhsE8diZmZdpl1z02v6MxAzM+s+VW6BRdK+wHhg68a0iDivrqDMzKw79Jokcncch5KSxDxgIukHdU4SZmYDXJVuOd5C6pbjnog4AXgJ8JxaozIzs65QJUk8HhFPA2slbQfch38jYWY2KFS5JnFDft70d0k/rFsNXF9rVGZm1hWqPHTovXlwpqQrge3y40XNzGyAq3p3037A2Mb8kvaMiJ/UGJeZmXWBKnc3zQb2AxYCT+fJAThJmJkNcFVqEodExPjaIzEzs65T5e6m30lykjAzG4Sq1CTOJSWKe4AnSF2GR0TsV2tkZmbWcVWSxGzgncBtPHtNwszMBoEqzU13R8TciPhzRPxP41Vl5ZKOlHSXpMWSprcol6Szcvmtje7JJY2W9CtJiyQtlHRKH9+XmZltAlVqEndKuhC4jNTcBEBvt8BKGgLMAF4H9AALJM2NiDsKs00ExuXXwcDZ+e9a4NSIuEnSMOBGSVc3LWtmZjWrkiSeS0oORxSmVbkF9iBgcUQsAZB0ETAJKH7RTwLOi4gArpM0XNLOEbECWAEQEY9KWgSMbFrWzMxq1jZJ5NrAyoj4yAaseySwrDDeQ6ol9DbPSHKCyDGMBQ4Afl8S41RgKsCYMWM2IEwzMyvT9ppERDwFtH2MaRtqtcq+zCNpW+DHwAci4pGSGGdFxISImDBixIgNDNXMzFqp0tx0s6S5wI+ANY2JFbrl6AFGF8ZHAcurziNpS1KCuMBdgJiZdUaVJLEj8ADrPtO6yjWJBcA4SbsBfwGOA97WNM9c4OR8veJgYFVErJAk4PvAooj4RoUYzcysBlV6gT1hQ1YcEWslnQxcBQwBZkfEQknTcvlM0pPujgIWA48BjW29kvzbDEk352mfiIh5GxKLmZltmCod/I0CvkX64g7So0tPiYie3pbNX+rzmqbNLAwHcFKL5a6h9fUKMzPrR1V+THcOqVloF9KdR5flaWZmNsBVSRIjIuKciFibX3MA30ZkZjYIVEkSKyW9Q9KQ/HoH6UK2mZkNcFWSxLuBfwLuIf3I7S15mpmZDXBV7m66Gzi2H2IxM7MuU5okJH2mzXIREV+oIR4zM+si7WoSa1pM2wY4EXg+4CRhZjbAlSaJiDizMZy76z6F9GO3i4Azy5YzM7OBo7deYHcEPgS8nfQY0wMj4qH+CMzMzDqv3TWJrwFvBmYBfx8Rq/stKjMz6wrtahKnkh429Cngk6nPPSB1lxERsV3NsVnNxk6/otMhmFmXa3dNospvKMzMbABzIjAzs1JOEmZmVspJwszMSjlJmJlZKScJMzMr5SRhZmalnCTMzKyUk4SZmZVykjAzs1JOEmZmVspJwszMSjlJmJlZKScJMzMrVWuSkHSkpLskLZY0vUW5JJ2Vy2+VdGChbLak+yTdXmeMZmZWrrYkIWkIMAOYCIwHjpc0vmm2icC4/JoKnF0omwMcWVd8ZmbWuzprEgcBiyNiSUQ8SXo29qSmeSYB50VyHTBc0s4AEfEb4MEa4zMzs17UmSRGAssK4z15Wl/nMTOzDqkzSajFtNiAedpvRJoq6QZJN9x///19WdTMzHpRZ5LoAUYXxkcByzdgnrYiYlZETIiICSNGjNigQM3MrLU6k8QCYJyk3SRtBRwHzG2aZy4wOd/ldAiwKiJW1BiTmZn1QW1JIiLWAicDVwGLgIsjYqGkaZKm5dnmAUuAxcB3gfc2lpf0A+B3wF6SeiSdWFesZmbW2tA6Vx4R80iJoDhtZmE4gJNKlj2+ztjMzKx3/sW1mZmVcpIwM7NSThJmZlbKScLMzErVeuF6czJ2+hUd2e7S04/uyHbNzKpwTcLMzEo5SZiZWSknCTMzK+UkYWZmpZwkzMyslJOEmZmVcpIwM7NSThJmZlbKScLMzEo5SZiZWSl3y2FmtokMxO59nCQ6rFMHlZlZFW5uMjOzUk4SZmZWyknCzMxKOUmYmVkpJwkzMyvlJGFmZqWcJMzMrJSThJmZlXKSMDOzUrUmCUlHSrpL0mJJ01uUS9JZufxWSQdWXdbMzOpXW5KQNASYAUwExgPHSxrfNNtEYFx+TQXO7sOyZmZWszprEgcBiyNiSUQ8CVwETGqaZxJwXiTXAcMl7VxxWTMzq1mdHfyNBJYVxnuAgyvMM7LisgBImkqqhQCslnTXBsa7E7ByA5ftJMfdvxx3/3LcFeirG7X4ru0K60wSajEtKs5TZdk0MWIWMKtvoa1P0g0RMWFj19PfHHf/ctz9y3F3Xp1JogcYXRgfBSyvOM9WFZY1M7Oa1XlNYgEwTtJukrYCjgPmNs0zF5ic73I6BFgVESsqLmtmZjWrrSYREWslnQxcBQwBZkfEQknTcvlMYB5wFLAYeAw4od2ydcWabXSTVYc47v7luPuX4+4wRbRs6jczM/Mvrs3MrJyThJmZlRr0SWJz7v5D0lJJt0m6WdINnY6njKTZku6TdHth2o6Srpb03/nvDp2MsZWSuE+T9Je8z2+WdFQnY2xF0mhJv5K0SNJCSafk6V29z9vE3dX7XNLWkq6XdEuO+3N5elfv76oG9TWJ3P3HH4HXkW7HXQAcHxF3dLgcCcsAAATVSURBVDSwiiQtBSZERFf/2EjSq4HVpF/X75unnQE8GBGn5+S8Q0R8rJNxNiuJ+zRgdUR8vZOxtZN7Ldg5Im6SNAy4EXgjMIUu3udt4v4nunifSxKwTUSslrQlcA1wCvBmunh/VzXYaxLu/qMfRMRvgAebJk8Czs3D55K+DLpKSdxdLyJWRMRNefhRYBGpF4Ou3udt4u5quVuh1Xl0y/wKunx/VzXYk0RZtyCbiwB+JunG3D3J5uQF+Tcx5L9/1+F4+uLk3Gvx7G5vQpA0FjgA+D2b0T5vihu6fJ9LGiLpZuA+4OqI2Kz2dzuDPUlU7v6jS70yIg4k9ZZ7Um4esXqdDewB7A+sAM7sbDjlJG0L/Bj4QEQ80ul4qmoRd9fv84h4KiL2J/UOcZCkfTsd06Yy2JNEla5DulZELM9/7wMuJTWfbS7uzW3Qjbbo+zocTyURcW/+Qnga+C5dus9z2/iPgQsi4id5ctfv81Zxby77HCAiHgbmA0eyGezvKgZ7kthsu/+QtE2+uIekbYAjgNvbL9VV5gLvysPvAv6rg7FU1vjQZ2+iC/d5vpD6fWBRRHyjUNTV+7ws7m7f55JGSBqeh58LHA7cSZfv76oG9d1NAPl2um/ybPcfX+pwSJVI2p1Ue4DUvcqF3Rq7pB8Ah5K6T74X+Czw/4CLgTHA3cBbI6KrLhKXxH0oqdkjgKXAexrtzt1C0quA3wK3AU/nyZ8gte937T5vE/fxdPE+l7Qf6cL0ENKJ98UR8XlJz6eL93dVgz5JmJlZucHe3GRmZm04SZiZWSknCTMzK+UkYWZmpZwkzMyslJOEDQqSQtKZhfEP58762i3zRknj+7idKZKezrdFNqbdnruZ2GiSVvc+l9mm4yRhg8UTwJsl7dSHZd4I9ClJZD3AJzdguVpJqu1xxTZwOUnYYLGW9NzhDzYXSNpV0i9yB3K/kDRG0iuAY4Gv5WcY7JFfV+YOFX8rae+SbV0O7CNprxbbWl0YfoukOXl4jqSz8/MUlkj6h9yZ3aLGPIXlzpR0U451RJ7WMra83m9I+hXw1Q3YbzbIOUnYYDIDeLuk7Zum/wfpmRH7ARcAZ0XEtaRuFT4SEftHxJ9ISeZ9EfFS4MPAt0u28zRwBunXwn2xA3AYKZFdBvwbsA/w95L2z/NsA9yUO3b8NelX4PQS24uAwyPi1D7GY4arnzZoRMQjks4D3g88Xih6OekBMQD/SfqCX0fumfQVwI9SF0MAPKfN5i4EPilptz6EeFlEhKTbgHsj4ra87YXAWOBmUgL6YZ7/fOAnFWL7UUQ81Yc4zJ7hJGGDzTeBm4Bz2szTqq+aLYCHc3fQvYqItflCefOTyIrr3rqp7In89+nCcGO87LMaFWJb03vEZq25uckGldzB2sXAiYXJ15J6AAZ4O+nxkwCPAsPyco8Af5b0Vkg9lkp6SS+bm0PqEXREYdq9kl4saQtSj6Z9tQXwljz8NuCaDYzNrBInCRuMziT17NrwfuAESbcC7yQ9nxjS42w/IukPkvYgJZATJd0CLKSXR93mR+KexbpPJJtOurD9S9IDdPpqDemi+I2k6xefz9P7FJtZVe4F1szMSrkmYWZmpZwkzMyslJOEmZmVcpIwM7NSThJmZlbKScLMzEo5SZiZWan/BeZlacfU2tw5AAAAAElFTkSuQmCC\n",
      "text/plain": [
       "<Figure size 432x288 with 1 Axes>"
      ]
     },
     "metadata": {
      "needs_background": "light"
     },
     "output_type": "display_data"
    }
   ],
   "source": [
    "result2 = sum(unigram_all_2, [])\n",
    "plt.hist(result2, density=True)\n",
    "plt.xlabel('Note Number')\n",
    "plt.ylabel('Normalized Frequency')\n",
    "plt.title('Distribution of Notes in 100 Averaged Composed Pieces')\n",
    "plt.show()"
   ]
  },
  {
   "cell_type": "code",
   "execution_count": 24,
   "metadata": {},
   "outputs": [],
   "source": [
    "def levenshtein(a,b):\n",
    "    \"Calculates the Levenshtein distance between a and b.\"\n",
    "    n, m = len(a), len(b)\n",
    "    if n > m:\n",
    "        # Make sure n <= m, to use O(min(n,m)) space\n",
    "        a,b = b,a\n",
    "        n,m = m,n\n",
    "        \n",
    "    current = range(n+1)\n",
    "    for i in range(1,m+1):\n",
    "        previous, current = current, [i]+[0]*n\n",
    "        for j in range(1,n+1):\n",
    "            add, delete = previous[j]+1, current[j-1]+1\n",
    "            change = previous[j-1]\n",
    "            if a[j-1] != b[i-1]:\n",
    "                change = change + 1\n",
    "            current[j] = min(add, delete, change)\n",
    "            \n",
    "    return current[n]"
   ]
  },
  {
   "cell_type": "code",
   "execution_count": 25,
   "metadata": {},
   "outputs": [],
   "source": [
    "all_edit_distances_2 = []\n",
    "for i in range(100):\n",
    "    all_edit_distances_2.append(levenshtein(current_states, unigram_all_2[i]))"
   ]
  },
  {
   "cell_type": "code",
   "execution_count": 26,
   "metadata": {},
   "outputs": [
    {
     "data": {
      "text/plain": [
       "2379.79"
      ]
     },
     "execution_count": 26,
     "metadata": {},
     "output_type": "execute_result"
    }
   ],
   "source": [
    "# average edit distance across 100 generated pieces\n",
    "sum(all_edit_distances_2)/(len(all_edit_distances_2))"
   ]
  },
  {
   "cell_type": "markdown",
   "metadata": {},
   "source": [
    "## Consonance & Disonance"
   ]
  },
  {
   "cell_type": "code",
   "execution_count": 27,
   "metadata": {},
   "outputs": [],
   "source": [
    "dict_intervals = {}\n",
    "dict_intervals[0] = 'P1'\n",
    "dict_intervals[1] = 'm2'\n",
    "dict_intervals[2] = 'M2'\n",
    "dict_intervals[3] = 'm3'\n",
    "dict_intervals[4] = 'M3'\n",
    "dict_intervals[5] = 'P4'\n",
    "dict_intervals[6] = 'A4'\n",
    "dict_intervals[7] = 'P5'\n",
    "dict_intervals[8] = 'm6'\n",
    "dict_intervals[9] = 'M6'\n",
    "dict_intervals[10] = 'm7'\n",
    "dict_intervals[11] = 'M7'\n",
    "dict_intervals[12] = 'P8'"
   ]
  },
  {
   "cell_type": "code",
   "execution_count": 28,
   "metadata": {},
   "outputs": [],
   "source": [
    "def abs_intervals(list_of_notes):\n",
    "    abs_diff_list = []\n",
    "    for x, y in zip(list_of_notes[0::], list_of_notes[1::]):\n",
    "        abs_diff_list.append(12 if (abs(y-x) % 12) == 0 else (abs(y-x) % 12))\n",
    "    current_intervals = [dict_intervals[item] for item in abs_diff_list]\n",
    "    return current_intervals"
   ]
  },
  {
   "cell_type": "code",
   "execution_count": 29,
   "metadata": {},
   "outputs": [],
   "source": [
    "def proportion_dissonance(list_of_intervals):\n",
    "    \"\"\"\n",
    "    Returns the proportion of dissonant chords (minor second, major 2nd, augmented fourth, \n",
    "    minor 7th, major 7th) given a list of intervals\n",
    "    \"\"\"\n",
    "    dict_intervals_counts = Counter(list_of_intervals)\n",
    "    num_intervals = sum(dict_intervals_counts.values())\n",
    "    dissonant_counts = dict_intervals_counts['m2'] + dict_intervals_counts['M2'] + dict_intervals_counts['A4'] + dict_intervals_counts['m7'] + dict_intervals_counts['M7']\n",
    "    return dissonant_counts/num_intervals"
   ]
  },
  {
   "cell_type": "code",
   "execution_count": 30,
   "metadata": {},
   "outputs": [],
   "source": [
    "def proportion_thirds(list_of_intervals):\n",
    "    \"\"\"\n",
    "    Returns the proportion of thirds given a list of intervals\n",
    "    \"\"\"\n",
    "    dict_intervals_counts = Counter(list_of_intervals)\n",
    "    num_intervals = sum(dict_intervals_counts.values())\n",
    "    thirds_counts = dict_intervals_counts['m3'] + dict_intervals_counts['M3']\n",
    "    return thirds_counts/num_intervals"
   ]
  },
  {
   "cell_type": "code",
   "execution_count": 31,
   "metadata": {},
   "outputs": [],
   "source": [
    "def proportion_fourths_fifths(list_of_intervals):\n",
    "    \"\"\"\n",
    "    Returns the proportion of fourths and fifths given a list of intervals\n",
    "    \"\"\"\n",
    "    dict_intervals_counts = Counter(list_of_intervals)\n",
    "    num_intervals = sum(dict_intervals_counts.values())\n",
    "    fourths_fifths_counts = dict_intervals_counts['P4'] + dict_intervals_counts['P5']\n",
    "    return fourths_fifths_counts/num_intervals"
   ]
  },
  {
   "cell_type": "code",
   "execution_count": 32,
   "metadata": {},
   "outputs": [
    {
     "name": "stdout",
     "output_type": "stream",
     "text": [
      "Proportion of dissonant intervals: 0.2544594102657444\n",
      "Proportion of thirds intervals: 0.06334182744812522\n",
      "Proportion of fourths & fifths intervals: 0.05424099017109574\n"
     ]
    }
   ],
   "source": [
    "# original piece\n",
    "\n",
    "# proportion of dissonant intervals\n",
    "original_intervals = abs_intervals(current_states)\n",
    "print('Proportion of dissonant intervals:', proportion_dissonance(original_intervals))\n",
    "\n",
    "# proportion of thirds\n",
    "print('Proportion of thirds intervals:', proportion_thirds(original_intervals))\n",
    "\n",
    "# proportion fourths & fifths\n",
    "print('Proportion of fourths & fifths intervals:', proportion_fourths_fifths(original_intervals))"
   ]
  },
  {
   "cell_type": "code",
   "execution_count": 33,
   "metadata": {},
   "outputs": [],
   "source": [
    "# average over composed pieces\n",
    "dissonant_ratios_2 = []\n",
    "thirds_ratios_2 = []\n",
    "fourths_fifths_ratios_2 = []\n",
    "\n",
    "for i in range(100):\n",
    "    intervals = abs_intervals(unigram_all_2[i])\n",
    "    dissonant_ratios_2.append(proportion_dissonance(intervals))\n",
    "    thirds_ratios_2.append(proportion_thirds(intervals))\n",
    "    fourths_fifths_ratios_2.append(proportion_fourths_fifths(intervals))"
   ]
  },
  {
   "cell_type": "code",
   "execution_count": 34,
   "metadata": {},
   "outputs": [
    {
     "name": "stdout",
     "output_type": "stream",
     "text": [
      "Proportion of dissonant intervals: 0.2559679767103347\n",
      "Proportion of thirds intervals: 0.06294395924308588\n",
      "Proportion of fourths & fifths intervals: 0.054053857350800566\n"
     ]
    }
   ],
   "source": [
    "print('Proportion of dissonant intervals:', sum(dissonant_ratios_2)/len(dissonant_ratios_2))\n",
    "\n",
    "# proportion of thirds\n",
    "print('Proportion of thirds intervals:', sum(thirds_ratios_2)/len(thirds_ratios_2))\n",
    "\n",
    "# proportion fourths & fifths\n",
    "print('Proportion of fourths & fifths intervals:', sum(fourths_fifths_ratios_2)/len(fourths_fifths_ratios_2))"
   ]
  },
  {
   "cell_type": "markdown",
   "metadata": {},
   "source": [
    "## 4th Order Markov Model + Analysis"
   ]
  },
  {
   "cell_type": "code",
   "execution_count": 35,
   "metadata": {},
   "outputs": [],
   "source": [
    "# 4th order Markov Model\n",
    "unigram_all = []\n",
    "n = 5\n",
    "\n",
    "current_states, model, BPM, LOWEST_NOTE, INSTRUMENT, BASE_TICK = create_model('bwv1041a_solo.mid', n)"
   ]
  },
  {
   "cell_type": "code",
   "execution_count": 36,
   "metadata": {},
   "outputs": [
    {
     "name": "stdout",
     "output_type": "stream",
     "text": [
      "New piece saved to test_folder/composed_song_trial559.mid\n",
      "New piece saved to test_folder/composed_song_trial213.mid\n",
      "New piece saved to test_folder/composed_song_trial357.mid\n",
      "New piece saved to test_folder/composed_song_trial811.mid\n",
      "New piece saved to test_folder/composed_song_trial976.mid\n",
      "New piece saved to test_folder/composed_song_trial804.mid\n",
      "New piece saved to test_folder/composed_song_trial541.mid\n",
      "New piece saved to test_folder/composed_song_trial958.mid\n",
      "New piece saved to test_folder/composed_song_trial485.mid\n",
      "New piece saved to test_folder/composed_song_trial960.mid\n",
      "New piece saved to test_folder/composed_song_trial872.mid\n",
      "New piece saved to test_folder/composed_song_trial402.mid\n",
      "New piece saved to test_folder/composed_song_trial954.mid\n",
      "New piece saved to test_folder/composed_song_trial430.mid\n",
      "New piece saved to test_folder/composed_song_trial700.mid\n",
      "New piece saved to test_folder/composed_song_trial807.mid\n",
      "New piece saved to test_folder/composed_song_trial330.mid\n",
      "New piece saved to test_folder/composed_song_trial910.mid\n",
      "New piece saved to test_folder/composed_song_trial882.mid\n",
      "New piece saved to test_folder/composed_song_trial262.mid\n",
      "New piece saved to test_folder/composed_song_trial621.mid\n",
      "New piece saved to test_folder/composed_song_trial686.mid\n",
      "New piece saved to test_folder/composed_song_trial97.mid\n",
      "New piece saved to test_folder/composed_song_trial916.mid\n",
      "New piece saved to test_folder/composed_song_trial499.mid\n",
      "New piece saved to test_folder/composed_song_trial274.mid\n",
      "New piece saved to test_folder/composed_song_trial936.mid\n",
      "New piece saved to test_folder/composed_song_trial974.mid\n",
      "New piece saved to test_folder/composed_song_trial145.mid\n",
      "New piece saved to test_folder/composed_song_trial508.mid\n",
      "New piece saved to test_folder/composed_song_trial411.mid\n",
      "New piece saved to test_folder/composed_song_trial454.mid\n",
      "New piece saved to test_folder/composed_song_trial492.mid\n",
      "New piece saved to test_folder/composed_song_trial570.mid\n",
      "New piece saved to test_folder/composed_song_trial168.mid\n",
      "New piece saved to test_folder/composed_song_trial150.mid\n",
      "New piece saved to test_folder/composed_song_trial380.mid\n",
      "New piece saved to test_folder/composed_song_trial659.mid\n",
      "New piece saved to test_folder/composed_song_trial798.mid\n",
      "New piece saved to test_folder/composed_song_trial817.mid\n",
      "New piece saved to test_folder/composed_song_trial55.mid\n",
      "New piece saved to test_folder/composed_song_trial683.mid\n",
      "New piece saved to test_folder/composed_song_trial950.mid\n",
      "New piece saved to test_folder/composed_song_trial483.mid\n",
      "New piece saved to test_folder/composed_song_trial418.mid\n",
      "New piece saved to test_folder/composed_song_trial109.mid\n",
      "New piece saved to test_folder/composed_song_trial827.mid\n",
      "New piece saved to test_folder/composed_song_trial90.mid\n",
      "New piece saved to test_folder/composed_song_trial930.mid\n",
      "New piece saved to test_folder/composed_song_trial726.mid\n",
      "New piece saved to test_folder/composed_song_trial154.mid\n",
      "New piece saved to test_folder/composed_song_trial68.mid\n",
      "New piece saved to test_folder/composed_song_trial611.mid\n",
      "New piece saved to test_folder/composed_song_trial839.mid\n",
      "New piece saved to test_folder/composed_song_trial681.mid\n",
      "New piece saved to test_folder/composed_song_trial757.mid\n",
      "New piece saved to test_folder/composed_song_trial595.mid\n",
      "New piece saved to test_folder/composed_song_trial870.mid\n",
      "New piece saved to test_folder/composed_song_trial119.mid\n",
      "New piece saved to test_folder/composed_song_trial646.mid\n",
      "New piece saved to test_folder/composed_song_trial405.mid\n",
      "New piece saved to test_folder/composed_song_trial986.mid\n",
      "New piece saved to test_folder/composed_song_trial980.mid\n",
      "New piece saved to test_folder/composed_song_trial447.mid\n",
      "New piece saved to test_folder/composed_song_trial670.mid\n",
      "New piece saved to test_folder/composed_song_trial608.mid\n",
      "New piece saved to test_folder/composed_song_trial533.mid\n",
      "New piece saved to test_folder/composed_song_trial551.mid\n",
      "New piece saved to test_folder/composed_song_trial97.mid\n",
      "New piece saved to test_folder/composed_song_trial336.mid\n",
      "New piece saved to test_folder/composed_song_trial305.mid\n",
      "New piece saved to test_folder/composed_song_trial266.mid\n",
      "New piece saved to test_folder/composed_song_trial830.mid\n",
      "New piece saved to test_folder/composed_song_trial306.mid\n",
      "New piece saved to test_folder/composed_song_trial142.mid\n",
      "New piece saved to test_folder/composed_song_trial339.mid\n",
      "New piece saved to test_folder/composed_song_trial89.mid\n",
      "New piece saved to test_folder/composed_song_trial361.mid\n",
      "New piece saved to test_folder/composed_song_trial446.mid\n",
      "New piece saved to test_folder/composed_song_trial844.mid\n",
      "New piece saved to test_folder/composed_song_trial565.mid\n",
      "New piece saved to test_folder/composed_song_trial704.mid\n",
      "New piece saved to test_folder/composed_song_trial479.mid\n",
      "New piece saved to test_folder/composed_song_trial52.mid\n",
      "New piece saved to test_folder/composed_song_trial923.mid\n",
      "New piece saved to test_folder/composed_song_trial338.mid\n",
      "New piece saved to test_folder/composed_song_trial201.mid\n",
      "New piece saved to test_folder/composed_song_trial636.mid\n",
      "New piece saved to test_folder/composed_song_trial210.mid\n",
      "New piece saved to test_folder/composed_song_trial345.mid\n",
      "New piece saved to test_folder/composed_song_trial139.mid\n",
      "New piece saved to test_folder/composed_song_trial759.mid\n",
      "New piece saved to test_folder/composed_song_trial875.mid\n",
      "New piece saved to test_folder/composed_song_trial529.mid\n",
      "New piece saved to test_folder/composed_song_trial668.mid\n",
      "New piece saved to test_folder/composed_song_trial499.mid\n",
      "New piece saved to test_folder/composed_song_trial613.mid\n",
      "New piece saved to test_folder/composed_song_trial599.mid\n",
      "New piece saved to test_folder/composed_song_trial639.mid\n",
      "New piece saved to test_folder/composed_song_trial366.mid\n"
     ]
    }
   ],
   "source": [
    "for _ in range(100):\n",
    "    unigrams = compose_with_model(current_states, model, BPM, LOWEST_NOTE, INSTRUMENT, BASE_TICK, n)\n",
    "    unigram_all.append(unigrams)"
   ]
  },
  {
   "cell_type": "markdown",
   "metadata": {},
   "source": [
    "## Autocorrelation Metrics"
   ]
  },
  {
   "cell_type": "code",
   "execution_count": 37,
   "metadata": {},
   "outputs": [
    {
     "data": {
      "image/png": "iVBORw0KGgoAAAANSUhEUgAAAXQAAAEICAYAAABPgw/pAAAABHNCSVQICAgIfAhkiAAAAAlwSFlzAAALEgAACxIB0t1+/AAAADh0RVh0U29mdHdhcmUAbWF0cGxvdGxpYiB2ZXJzaW9uMy4yLjIsIGh0dHA6Ly9tYXRwbG90bGliLm9yZy+WH4yJAAAfI0lEQVR4nO3dfZRcdZ3n8fe3HxLyRAIkICSBIDIM0R2iZkB2dMzIqoRxZfTsKujKw4HNcFbmqDvnLD4wiLtzZtydZRbdYWSyyog4go66TsYTRTc7HHRHmCSQICEDhAh5JM9N0umHqrr3u3/cW923q6vqVrrr8dbndU6f7roPVd+6hE/96nd/9/7M3RERkc7X0+oCRESkPhToIiIZoUAXEckIBbqISEYo0EVEMkKBLiKSEQp0kTows5vM7OfT2P9HZnZjPWuS7qNAl6Yxs8fM7JiZzTyFfdzM3tDIuprNzO42s28ml7n7and/sFU1STYo0KUpzGwZ8A7Agfe3tJgUZtZXyzKRdqNAl2a5AXgC+Dow1rUQt9pvTTwe67ows8fjxVvNbNDMPhwv//dmtsPMjprZOjM7L7H/G83sp/G6A2b22Xj5TDO718z2xT/3Fr8pmNkqM9tjZneY2avAX8et6O+a2TfN7Dhwk5nNN7Ovmdl+M9trZn9sZr3l3qyZfcnMdpvZcTPbbGbviJdfDXwW+HD8nraWHgcz6zGzO83sFTM7aGbfMLP58bpl8beWG81sl5kdNrPPTfu/jmSCAl2a5Qbgb+Kf95rZOWk7uPtvx39e5u5z3f3bZvYu4E+BDwHnAq8AjwCY2Tzg/wA/Bs4D3gBsiJ/jc8DbgBXAZcDlwJ2Jl3sdcCZwAbAmXnYt8F1gQVz3g0Ahft43A+8BbqW8jfFrnQl8C/hbMzvN3X8M/Anw7fg9XVZm35vin98BXg/MBf6iZJu3A5cAVwF3mdmlFeqQLqJAl4Yzs7cTBeV33H0z8BLwkSk+3UeBB9z9KXcfBT4DXBl36bwPeNXd73H3EXc/4e5PJvb7z+5+0N0PAV8APpZ43hD4vLuPuvtwvOwX7v4Ddw+B04HVwCfd/aS7HwT+B3BduSLd/ZvufsTdC+5+DzCTKIBrfY9/7u473X0wfo/XlXT7fMHdh919K7CV6ENKupwCXZrhRuAn7n44fvwtEt0up+g8olY5AHHgHQEWA0uJPixS94v/Pi/x+JC7j5Tsszvx9wVAP7DfzAbMbAD4K+Dsci9mZn9oZtvN7LV42/nAwrQ3V6XWPiD5rebVxN9DRK146XI60SMNZWaziLpHeuP+aYhaqwvM7DLgJDA7scvrUp5yH1G4Fp9/DnAWsJcogK9P2W9b/Pj8eFlRuduOJpftBkaBhe5eqFZg3F9+B1F3yDZ3D83sGGBVXqtcrUXnE3X1HACWpOwrXUwtdGm03wMCYDlRn/IK4FLgZ0T96luAD5rZ7Hh44i0l+x8g6kcu+hZws5mtiE9q/gnwpLu/DPwQeJ2ZfTI+CTrPzK6I93sYuNPMFpnZQuAuYMLQwWrcfT/wE+AeMzs9PnF5kZm9s8zm84gC+BDQZ2Z3EXXZJN/TMjOr9P/fw8CnzOxCM5vLeJ971Q8SEQW6NNqNwF+7+y53f7X4Q3SS76NE/dA5opB7kOjkY9LdwINxN8eH3H0D8EfA94D9wEXE/djufgJ4N/CvibokXiQ6sQjwx8Am4Bngl8BT8bJTcQMwA3gOOEZ0wvTcMts9CvwIeIGou2SEid03fxv/PmJmT5XZ/wHgIeBx4Ffx/n9wirVKFzJNcCEikg1qoYuIZIQCXUQkIxToIiIZoUAXEcmIlo1DX7hwoS9btqxVLy8i0pE2b9582N0XlVvXskBftmwZmzZtatXLi4h0JDN7pdI6dbmIiGSEAl1EJCMU6CIiGaFAFxHJCAW6iEhGpAa6mT0QT4P1bIX1ZmZfjqcEe8bM3lL/MiNB6GzYfoAvb3iRDdsPEIS6D42ISFEtwxa/TnRnvG9UWL8auDj+uQL4Svy7roLQ+djXnmTL7gGGcwGzZvSyYukCHrrlCnp7LP0JREQyLrWF7u6PA0erbHIt8A2PPEE0cUG5W4pOy2PPH2TL7gGGcgEODOUCtuwe4LHnD9b7pUREOlI9+tAXM/Fez3viZZOY2Roz22Rmmw4dOnRKL7Jt33GGc8GEZcO5gOf2HT/FckVEsqkegV6uv6Ns57a7r3X3le6+ctGisleuVvTG805n1ozeCctmzehl+XmnV9hDRKS71CPQ9xBNzlu0hIlzNdbFqkvOZsXSBViQAw+ZHfehr7qk7By9IiJdpx6Bvg64IR7t8jbgtXj+xbrq7TEeuuUKFr349yzY8//4n9e/WSdERUQSUke5mNnDwCpgoZntAT4P9AO4+/3AeuAaYAcwBNzcqGJ7e4zZAzuZPbCTqy49p1EvIyLSkVID3d2vT1nvwMfrVpGIiEyJrhQVEckIBbqISEYo0EVEMkKBLiKSEQp0EZGMUKCLiGSEAl1EJCMU6CIiGaFAFxHJCAW6iEhG1DJjUccIQuex5w+ybd9x3nje6ay65GzdvEtEukZmAl1T1IlIt8tMl4umqBORbpeZQNcUdSLS7TIT6JqiTkS6XWYCXVPUiUi3y0yga4o6Eel2mRnlApqiTkS6W2Za6CIi3U6BLiKSEQp0EZGMUKCLiGSEAl1EJCMU6CIiGaFAFxHJCAW6iEhG1BToZna1mT1vZjvM7NNl1s83s783s61mts3Mbq5/qSIiUk1qoJtZL3AfsBpYDlxvZstLNvs48Jy7XwasAu4xsxl1rlVERKqopYV+ObDD3Xe6ew54BLi2ZBsH5pmZAXOBo0ChrpWKiEhVtdzLZTGwO/F4D3BFyTZ/AawD9gHzgA+7e1j6RGa2BlgDcP7550+l3inT9HQiknW1BHq51POSx+8FtgDvAi4CfmpmP3P3CbNLuPtaYC3AypUrS5+jYTQ9nYh0g1q6XPYASxOPlxC1xJNuBr7vkR3Ar4Bfr0+J06fp6USkG9QS6BuBi83swvhE53VE3StJu4CrAMzsHOASYGc9C50OTU8nIt0gtcvF3QtmdjvwKNALPODu28zstnj9/cB/Ab5uZr8k6qK5w90PN7DuU1Kcnm4oEeqank5EsqamCS7cfT2wvmTZ/Ym/9wHvqW9p9VOcnu4XL+zHe/qYPbNf09OJSOZ0xZWimp5ORLpBpqagq0bT04lI1nVFC11EpBso0EVEMkKBLiKSEV3Th55GtwYQkU6nQEe3BhCRbFCXC7o1gIhkgwId3RpARLJBgc74rQGSdGsAEek0CnTGbw1gQQ48ZHbch65bA4hIJ1Ggo1sDiEg2aJRLTLcGEJFOpxa6iEhGKNBFRDJCgS4ikhHqQ6+BbgsgIp1AgZ5CtwUQkU6hLpcUui2AiHQKBXoK3RZARDqFAj2FbgsgIp1CgZ5CtwUQkU6hQE+h2wKISKfQKJca6LYAItIJFOh1oHHqItIOagp0M7sa+BLQC3zV3b9YZptVwL1AP3DY3d9Zxzrblsapi0i7SO1DN7Ne4D5gNbAcuN7MlpdsswD4S+D97v5G4N82oNa2pHHqItIuajkpejmww913unsOeAS4tmSbjwDfd/ddAO7eNWmmceoi0i5qCfTFwO7E4z3xsqRfA84ws8fMbLOZ3VDuicxsjZltMrNNhw4dmlrFbUbj1EWkXdQS6OU6gr3kcR/wVuB3gfcCf2RmvzZpJ/e17r7S3VcuWrTolIttRxqnLiLtopaTonuApYnHS4B9ZbY57O4ngZNm9jhwGfBCXapsY8Vx6ld+8BZyc87mnjs/pVEuItIStbTQNwIXm9mFZjYDuA5YV7LN3wHvMLM+M5sNXAFsr2+p7as4Tn3B3ie46tJzFOYi0hKpLXR3L5jZ7cCjRMMWH3D3bWZ2W7z+fnffbmY/Bp4BQqKhjc82snAREZmopnHo7r4eWF+y7P6Sx38G/Fn9SssOXXgkIs2gK0UbTBceiUiz6OZcDaYLj0SkWRToDaYLj0SkWdTl0mDFC4+GEqGevPBI/esiUi8K9AYrXnj0ixf24z19zJ7ZP3bhkfrXRaSe1OXSYNUmyFD/uojUkwK9CSpdeFRL/3oQOhu2H+DLG15kw/YDBGHpXRdERCLqcmmhWvrX1SUjIrVSC72F0m7spS4ZETkVCvQWSpuAWkMeReRUqMulxapNQJ3WJSMikqQWehvTvdZF5FQo0NtYWpeMiEiSulzaXLUuGV1lKiJJCvQOpSGNIlJKXS4dSkMaRaSUAr1DaUijiJRSoHeo4pDGJA1pFOluCvQOpSGNIlJKJ0U7VHFI45UfvIXcnLO5585PTRrl0omjYDqxZpF2oUDvYGlDGjttFEwn1izSTtTlklGdOAqmE2sWaScK9IzqxFEwnVizSDtRl0tGtetcptVeVzcjE5keBXpGteNcpmmvW61mEUmnLpeMase5TNNeN+1mZJqOT6S6mlroZnY18CWgF/iqu3+xwna/CTwBfNjdv1u3KmVKKo2CqdZXXTpapp5qed1KNWsEjEi61Ba6mfUC9wGrgeXA9Wa2vMJ2/xV4tN5FSn3VcpVptdZwWku50vrpXN2qETAi6WppoV8O7HD3nQBm9ghwLfBcyXZ/AHwP+M26Vih1l9ZXXa01DFRtKVfbdzp95K36ViHSSWrpQ18M7E483hMvG2Nmi4EPAPdXeyIzW2Nmm8xs06FDh061VqmTtL7qaq3htJZytfXTmbBD964RSVdLoJf7v630bNS9wB3uHpTZdnwn97XuvtLdVy5atKjWGqUBin3VC/Y+wVWXnjMhVKu1htPGiqetr/a61ejeNSLpauly2QMsTTxeAuwr2WYl8IiZASwErjGzgrv/oC5VSlOljQevtq5RY8lruXeNSLerpYW+EbjYzC40sxnAdcC65AbufqG7L3P3ZcB3gf+gMO9c1VrDaS3lRrak01r3GtYo3S61he7uBTO7nWj0Si/wgLtvM7Pb4vVV+82l86S1hquta1VLWsMaRWoch+7u64H1JcvKBrm73zT9sqTVqt3Jsdq6WtY3QvJkLEw8GatRMNItdKWoZIJu7CWie7lIRrTrzchEmkmBLpnQjjcjE2k2dblIJrTjzchEmk2BLplRaVij+telW6jLRTKvloud1MfeHDrOjaVAl8ybzs3IFDb1o+PceOpykcybzs3IpH50nBtPgS5dYao3IwPdUqBedC6j8dTlIl2vWh/7dLsJ0vqMu6lPWZOAN54CXbpetT72Wm4pUCmU0z4MstinXO0DSpOAN54CXbpetRuKpc2UVC2U0z4Msnb/mbQPKN0CufHUhy5C5T72tJmSqp3om+5kIJ3Wd1/LSc9q5zI67f22I7XQRapI6yaoFsppfcaN7LtvhenM+9qJ77cdqYUuUkXakMdqLfjpTAZSS2u33Vq005n3VUMa60MtdJEU1e7vXq0Fn9Zn3Ki++2ZMJlLuxOd0TnpOp3Uv4xToItNQS2hPZTKQtO6atBOq0xkOWW3ftA+SqZ701JDG+lCgi0xTI2Zomk7f/apLzk5tvU91qGXaB8lUj4WGNNaHAl2kDaW1dqu1aGtpvU91qGWjukZqad1300VYU6VAF2lTU+27v+8fdlQN3WqhnRbYjewaqfZ+NQqmNhrlItKBqo2+SRttUstQy0r7po3caRSNgqmNAl2kQ1W6SCctdKcz1DJtGGej6MZetVGgi2RMWuhWC+1aArva1Z6NkvbNod3G5LeK+tBFMqhaf/R0h1q2giYBr41a6CJdqBWt7OnQJOC1qSnQzexqM3vezHaY2afLrP+omT0T//yjmV1W/1JFpJtpEvB0qV0uZtYL3Ae8G9gDbDSzde7+XGKzXwHvdPdjZrYaWAtc0YiCRUSSNAn4uFr60C8Hdrj7TgAzewS4FhgLdHf/x8T2TwBL6lmkiEglmgR8XC1dLouB3YnHe+JlldwC/Gg6RYmI1EqTgI+rJdDLfYSVHRNkZr9DFOh3VFi/xsw2mdmmQ4cO1V6liEgV05kEPEtqCfQ9wNLE4yXAvtKNzOw3gK8C17r7kXJP5O5r3X2lu69ctGjRVOoVETkl3TSGvZY+9I3AxWZ2IbAXuA74SHIDMzsf+D7wMXd/oe5ViohMUTeNYU9tobt7AbgdeBTYDnzH3beZ2W1mdlu82V3AWcBfmtkWM9vUsIpFRE5BN41hr+lKUXdfD6wvWXZ/4u9bgVvrW5qISH1Uuvo1azMl6UpREela05kHtR0p0EWka9VyO+BOOmmqm3OJSNdKu1FZLSdN0+ZgbeYVqgp0Eelq1e4uOZ3p/ICmj6BRoItIR3D36IpGh3wQxsvAcdwh9KgrZDgXjC3zxL5BGO3/2nB+bEVxu0IQLTh6Mof7eJfKxpePlj1p+k8vH+VfLJnPz144zNO7BhjOjwf+07sG+MHTewHKrlu3dS8feHNj7o6iQBfJgDAOq2LoJQNuJB9MCL7idmMBN5SftK4YmAdPjMDY8vHnyBVCHNh9dAhK1o3EAfbSocFoeaImx+Mhgs6ze18bq9OJfp8YKQBRkJbuC3BiOA/AppePTToGg/G+W3YPlD1GJ0ej9eWuEB3KReuef/XEhOXzZvYzo6+H0UI4tmxGXw+nz+znpYMneWLnkbH3WzSSD3hi55Gxv0vXbX7lmAJdpFkKQTgWMFGoMHYi7PhIfjxoEmFUDMADx0fG9yMK2tFCCA4vHz454XnBCZ2xr/PP7Ts+Hqxx+A3GIfTUrmOTw9Gd4yNRa/PJXx2d9D6KAff0rpSA2z854Iqt0pcOniy7bzGo9hwbnrQuF4ffweOjZfctxMeqGN5JxdZxscXcaiuWLuANZ89l267D0NvHzP4+3nD2XFYsXQDAsrPmlA38ZWfNGfu7dN3rF85tWL0KdGl7YegUQieMW5UAA0M5gjAKxOLy0J3RfIjjcetwfH0YjgfY1t0D0bI4FIvbHI9bfxvLtP6K+27bW/7+H8UA3HlocgCOxuG3/7WRsvsWA+61+PVL33v0HOGkdUCFuypJvfT0GJ9dfSm//4k/JJh7DrfftoYVSxfQE/eBpwV+uXVvveCMhtWrQJe6CRKhW2yFvjacJwydwH0sWIstlpcPn4yWx+uDMFo/OFrAPfraHYQ+9nUbxoN1+/4T5UpgtBCFZ7nWYfHDYKikT1Skmp4eY8aRHXBkB2+54I5J66oFfrl1GuUideU+3uJ1j7oRwjAK1GKwBuHE1m4ydN0Z6wrY/MpRgpBJY3OLX/fL9VemtViLrdJ2+dotUk1a4Fda1wgK9A4Vhk4+DMdObB0ZHKUQd00Ewfi6oVyAu/P0rmOE7hSCqIsBxkO3UjdCtdZuMXRzBYWuSLtQoLeRfBDGPz7+d8EZjkcpPLv3tbH1xRZxsQvihQODZZ+z2D87UqkPVkQyQ4HeBMU+5dCjYWC5QhTK0e+QEyMFHC87FAsgX6g8KkBEpEiBXifFwD5wfITRfMhoIWC0EP3OFXyse6PcMLDkhQwiIlOlQD9Fw7mA4XzAUK7ASD5gOBcynA/GArvcsDURkWZQoFcxkg8YHC0wOFLg5GiBwL3iVWgiIq2mQI8VL4UuhM4/v3qcwZEC+cSwuXa+ZaaICHR5oOeDkIGhPANDOQaG82MjRo6dnHzFnohIu+u6QA/d2TswzLGTubErEkVEsqArAn0kH3B4cJTB0QJh6Ow6MtTqkkRE6i6zgZ4rhBw5OcqRwdzY+O1Q/eAikmGZCvRC4krL4u1GRUS6RSYC/djJHAdPjDIwlBu7janCXES6TSYCfdfRId0SVUS6Xk+rCxARkfpQoIuIZERNgW5mV5vZ82a2w8w+XWa9mdmX4/XPmNlb6l+qiIhUkxroZtYL3AesBpYD15vZ8pLNVgMXxz9rgK/UuU4REUlhabduNbMrgbvd/b3x488AuPufJrb5K+Axd384fvw8sMrd91d63jMvuNTf/dkHTrngLVu3ALDishVjy4o3zgJ48blnAbh4+Zsm7VttXSP3bde6tK/21b7T3/dUn7u3x5gzY+rjUb5z27/c7O4ry62rJdD/DXC1u98aP/4YcIW7357Y5ofAF9395/HjDcAd7r6p5LnWELXgmXvuRW+95vMPTflNJSUDXUSknTUy0Gt51nJTVJemZy3b4O5rgbUAK1eu9G///pU1vHy6rbsHNGxRRDrCvNP6eNPi+VPe/zu3VV5Xy0nRPcDSxOMlwL4pbCMiIg1US6BvBC42swvNbAZwHbCuZJt1wA3xaJe3Aa9V6z8XEZH6S+1ycfeCmd0OPAr0Ag+4+zYzuy1efz+wHrgG2AEMATc3rmQRESmnpp55d19PFNrJZfcn/nbg4/UtTURETkUmrhSd2Z+JtyEiMi2ZuDnXr7/udIZyBQ6fyHH45Cij+bDVJYmINF0mAh1g9ow+zj+rj/PPms2JkTyHB3McPTlKrqDx6SLSHTIT6EnzTutn3mn9LDtrNseHCxwaHOXYUI5CoHAXkezKZKAXmRnzZ/czf3Y/YegMDOc5MjjKwHBe4S4imZPpQE/q6THOnDODM+fMwN05PlJgYCjHsaH82CxHIiKdrGsCPcnMmD+rn/mz+rngLBjJBxwbynHsZJ4TI3k0l7SIdKKuDPRSp/X3cu78WZw7fxbuzlAuYHC0wImRAoOjBbXgRaQjKNBLmBlzZvYxZ2Yf55weLSsEISdHAwZzBYZzBYZzIcP5gEBNeRFpIwr0GvT19jB/dg/zZ/dPWD6SDxjOBQzn459cwGghJB+E6G6+ItJsCvRpOK2/l9P6ezmjZHkYOrkgZDQfMlIIGM2HjBbGwz5XCNVPLyJ1p0BvgJ4e47SeKOzn0192m0IQkgtC8gVnNAjIB06+GPhBSCFw8kFIXsMrRaRGCvQW6evtoa+3B2YAFUIfwN3HAr4QxH+H44FfCOPfgVMInSD+EZHuo0Bvc2bGzL5eZp7Cf6kwHA/3fBiOPU4uD4rLfPxx8u/ocePel4jUnwI9g3p6jBk90ayAs+id8vO4jwf7WNi74yEEPv4hUFwXxstDjz48Ao+WTdjXnSBE3yJEGkCBLhWZGX295aaLrY9J3wyKHwSJD4PAnSDwCR8ghaDkgyTxgaPRRdLNFOjSMr09Rm9PfT8wSr9VePw7THxbCN1xStdHXVUw/ti92O00+fnciX4Y39bj14+WR88XLavrWxSpSIEumdLobxVTNR7u8QcAVT4UwvH1oY9/KHjy7+Q+8QeGJ5+XidszYfnk15/Sc7g+sNqNAl2kCXrGvom034dNPSS/mSSDPozTvtoHV/LbULkPmuK3neTzJF8LmPShk1wWvRpjzxtvNemDKLlu4uOJ73PCPmX2p+IWkXp/K01SoIvItJkZNpZT2fzQ6gSajFNEJCMU6CIiGaFAFxHJCAW6iEhGKNBFRDJCgS4ikhEKdBGRjFCgi4hkhAJdRCQjrPRS1qa9sNkh4JUp7r4QOFzHcupFddWuHWuC9qyrHWuC9qyrHWuC+tZ1gbsvKreiZYE+HWa2yd1XtrqOUqqrdu1YE7RnXe1YE7RnXe1YEzSvLnW5iIhkhAJdRCQjOjXQ17a6gApUV+3asSZoz7rasSZoz7rasSZoUl0d2YcuIiKTdWoLXURESijQRUQyouMC3cyuNrPnzWyHmX261fUUmdnLZvZLM9tiZptaVMMDZnbQzJ5NLDvTzH5qZi/Gv89ok7ruNrO98fHaYmbXNLmmpWb2D2a23cy2mdkn4uUtPV5V6mrZ8TKz08zsn8xsa1zTF+LlrT5Wlepq6b+tuIZeM3vazH4YP27KseqoPnQz6wVeAN4N7AE2Ate7+3MtLYwo0IGV7t6yixrM7LeBQeAb7v6meNl/A466+xfjD8Az3P2ONqjrbmDQ3f97M2tJ1HQucK67P2Vm84DNwO8BN9HC41Wlrg/RouNlZgbMcfdBM+sHfg58AvggrT1Wleq6mhb+24pr+4/ASuB0d39fs/4/7LQW+uXADnff6e454BHg2hbX1Dbc/XHgaMnia4EH478fJAqHpqpQV0u5+353fyr++wSwHVhMi49XlbpaxiOD8cP++Mdp/bGqVFdLmdkS4HeBryYWN+VYdVqgLwZ2Jx7vocX/2BMc+ImZbTazNa0uJuEcd98PUVgAZ7e4nqTbzeyZuEum6V1BRWa2DHgz8CRtdLxK6oIWHq+4C2ELcBD4qbu3xbGqUBe09t/WvcB/AsLEsqYcq04L9HLTibf8Ezn2W+7+FmA18PG4m0Eq+wpwEbAC2A/c04oizGwu8D3gk+5+vBU1lFOmrpYeL3cP3H0FsAS43Mze1MzXr6RCXS07Vmb2PuCgu29u1msmdVqg7wGWJh4vAfa1qJYJ3H1f/Psg8L+JuofawYG4X7bYP3uwxfUA4O4H4v8ZQ+B/0YLjFfe7fg/4G3f/fry45cerXF3tcLziOgaAx4j6qVt+rMrV1eJj9VvA++Nzao8A7zKzb9KkY9Vpgb4RuNjMLjSzGcB1wLoW14SZzYlPYGFmc4D3AM9W36tp1gE3xn/fCPxdC2sZU/zHHfsATT5e8Qm1rwHb3f3PE6taerwq1dXK42Vmi8xsQfz3LOBfAf9M649V2bpaeazc/TPuvsTdlxHl0/91939Hs46Vu3fUD3AN0UiXl4DPtbqeuKbXA1vjn22tqgt4mOgrZp7o28wtwFnABuDF+PeZbVLXQ8AvgWfif+znNrmmtxN11z0DbIl/rmn18apSV8uOF/AbwNPxaz8L3BUvb/WxqlRXS/9tJepbBfywmceqo4YtiohIZZ3W5SIiIhUo0EVEMkKBLiKSEQp0EZGMUKCLiGSEAl1EJCMU6CIiGfH/Ac8NGx4muZzSAAAAAElFTkSuQmCC\n",
      "text/plain": [
       "<Figure size 432x288 with 1 Axes>"
      ]
     },
     "metadata": {
      "needs_background": "light"
     },
     "output_type": "display_data"
    }
   ],
   "source": [
    "from statsmodels.graphics import tsaplots\n",
    "import matplotlib.pyplot as plt\n",
    "\n",
    "# Display the autocorrelation plot of your time series\n",
    "fig = tsaplots.plot_acf(current_states, lags=40)\n",
    "plt.show()"
   ]
  },
  {
   "cell_type": "code",
   "execution_count": 38,
   "metadata": {},
   "outputs": [
    {
     "data": {
      "image/png": "iVBORw0KGgoAAAANSUhEUgAAAXQAAAEICAYAAABPgw/pAAAABHNCSVQICAgIfAhkiAAAAAlwSFlzAAALEgAACxIB0t1+/AAAADh0RVh0U29mdHdhcmUAbWF0cGxvdGxpYiB2ZXJzaW9uMy4yLjIsIGh0dHA6Ly9tYXRwbG90bGliLm9yZy+WH4yJAAAeuklEQVR4nO3dfZRcdZ3n8fenO+mQB0KAdIA8QBAYNugOAbOgOzqTkVWBcYbRM8eBcQU9uAxnZVbdOWfxaXzYnePM7iyzLurIsMqIOIqOuk70oOjGzTo+wBAwPCQxJAZCmsQ8kc5zurrqfvePupVUd9dTp6u7qm59Xuf06ar7u7fq2zedz739u7/6XUUEZmbW+XpaXYCZmTWHA93MLCMc6GZmGeFANzPLCAe6mVlGONDNzDLCgW7WBJLeIenHE9j+u5JuaWZN1n0c6DZlJK2RtF/SjHFsE5Iunsy6ppqkj0n6UvmyiLguIu5vVU2WDQ50mxKSlgKvBQL4vZYWU4ekaY0sM2s3DnSbKjcDjwBfAE50LaRn7e8qe36i60LSj9LFT0o6LOkP0+X/TtIWSS9JWiVpYdn2L5f0g7Rtl6QPpstnSPqkpB3p1ydLfylIWilpQNKdkn4F/F16Fv11SV+SdBB4h6QzJH1e0k5JL0r6c0m9lX5YSf9T0nZJByU9Lum16fJrgQ8Cf5j+TE+O3g+SeiR9WNI2SbslfVHSGWnb0vSvllskvSBpr6QPTfhfxzLBgW5T5Wbg79OvN0o6p94GEfGb6cPLI2JORHxV0uuAvwDeCpwHbAMeBJB0OvB/gO8BC4GLgdXpa3wIeBWwHLgcuAr4cNnbnQucBVwA3JYuuwH4OjAvrft+IJ++7hXAG4B3Udlj6XudBXwZ+AdJp0XE94BPAF9Nf6bLK2z7jvTrt4GXAXOAT49a5zXApcA1wEckLatSh3URB7pNOkmvoRiUX4uIx4FfAn90ii/3NuC+iHgiIoaADwCvTrt03gT8KiLuiojjEXEoIh4t2+4/R8TuiNgDfBx4e9nrJsBHI2IoIo6ly34WEd+KiASYC1wHvDcijkTEbuB/ADdWKjIivhQR+yIiHxF3ATMoBnCjP+NfR8TWiDic/ow3jur2+XhEHIuIJ4EnKR6krMs50G0q3AJ8PyL2ps+/TFm3yzgtpHhWDkAaePuARcASigeLutuljxeWPd8TEcdHbbO97PEFwHRgp6RBSYPA3wILKr2ZpD+VtFHSgXTdM4D59X64GrVOA8r/qvlV2eOjFM/ircv5Qo9NKkkzKXaP9Kb901A8W50n6XLgCDCrbJNz67zkDorhWnr92cDZwIsUA/imOtutT5+fny4rqTTtaPmy7cAQMD8i8rUKTPvL76TYHbI+IhJJ+wHVeK9KtZacT7GrZxewuM621sV8hm6T7feBAnAZxT7l5cAy4J8o9quvA94iaVY6PPHWUdvvotiPXPJl4J2SlqcXNT8BPBoRzwPfAc6V9N70Iujpkq5Ot/sK8GFJ/ZLmAx8BRgwdrCUidgLfB+6SNDe9cHmRpN+qsPrpFAN4DzBN0kcodtmU/0xLJVX7//cV4H2SLpQ0h5N97jUPJGYOdJtstwB/FxEvRMSvSl8UL/K9jWI/dI5iyN1P8eJjuY8B96fdHG+NiNXAnwHfAHYCF5H2Y0fEIeD1wO9S7JLYTPHCIsCfA2uBp4CngSfSZeNxM9AHbAD2U7xgel6F9R4Gvgs8S7G75Dgju2/+If2+T9ITFba/D3gA+BHwXLr9n4yzVutC8g0uzMyywWfoZmYZ4UA3M8sIB7qZWUY40M3MMqJl49Dnz58fS5cubdXbm5l1pMcff3xvRPRXamtZoC9dupS1a9e26u3NzDqSpG3V2tzlYmaWEQ50M7OMcKCbmWWEA93MLCMc6GZmGVE30CXdl94G65kq7ZJ0d3pLsKckXdn8MosKSbB64y7uXr2Z1Rt3UUg8D42ZWUkjwxa/QHFmvC9Wab8OuCT9uhr4bPq9qQpJ8PbPP8q67YMcyxWY2dfL8iXzeODWq+ntUf0XMDPLuLpn6BHxI+ClGqvcAHwxih6heOOCSlOKTsiaTbtZt32Qo7kCARzNFVi3fZA1m3Y3+63MzDpSM/rQFzFyrueBdNkYkm6TtFbS2j179ozrTdbvOMixXGHEsmO5Aht2HBxnuWZm2dSMQK/U31Gxczsi7o2IFRGxor+/4idXq3r5wrnM7OsdsWxmXy+XLZxbZQszs+7SjEAfoHhz3pLFjLxXY1OsvHQBy5fMQ4UcRMKstA995aUV79FrZtZ1mhHoq4Cb09EurwIOpPdfbKreHvHArVfTv/nbzBv4CZ+66QpfEDUzK1N3lIukrwArgfmSBoCPAtMBIuIe4CHgemALcBR452QV29sjZg1uZdbgVq5Zds5kvY2ZWUeqG+gRcVOd9gDe3bSKzMzslPiTomZmGeFANzPLCAe6mVlGONDNzDLCgW5mlhEOdDOzjHCgm5llhAPdzCwjHOhmZhnhQDczywgHuplZRjjQzcwywoFuZpYRjdwkumMUkmDNpt2s33GQly+cy8pLF3i+dDPrGpkJ9EISvP3zj7Ju+yDHcgVmpnc08k0wzKxbZKbLZc2m3azbPsjRXIEAjuYKrNs+yJpNu1tdmpnZlMhMoK/fcZBjucKIZcdyBTbsONiiiszMplZmAv3lC+cys693xLKZfb1ctnBuiyoyM5tamQn0lZcuYPmSeaiQg0iYlfahr7x0QatLMzObEpkJ9N4e8cCtV9O/+dvMG/gJn7rpCl8QNbOukplRLlAM9VmDW5k1uJVrlp3T6nLMzKZUZs7Qzcy6nQPdzCwjHOhmZhnhQDczywgHuplZRjjQzcwyoqFAl3StpE2Stkh6f4X2MyR9W9KTktZLemfzSzUzs1rqBrqkXuAzwHXAZcBNki4btdq7gQ0RcTmwErhLUl+TazUzsxoaOUO/CtgSEVsjIgc8CNwwap0ATpckYA7wEpBvaqVmZlZTI4G+CNhe9nwgXVbu08AyYAfwNPCeiEhGv5Ck2yStlbR2z549p1iymZlV0kigV5oMJUY9fyOwDlgILAc+LWnMNIcRcW9ErIiIFf39/eMu1szMqmsk0AeAJWXPF1M8Ey/3TuCbUbQFeA74F80p0czMGtFIoD8GXCLpwvRC543AqlHrvABcAyDpHOBSYGszCzUzs9rqzrYYEXlJdwAPA73AfRGxXtLtafs9wH8BviDpaYpdNHdGxN5JrHvcfANpM8u6hqbPjYiHgIdGLbun7PEO4A3NLa15fANpM+sGXfFJUd9A2sy6QVcEum8gbWbdoCsC3TeQNrNu0BWB7htIm1k36IpA9w2kzawbZOom0bX4BtJmlnVdcYZuZtYNHOhmZhnhQDczy4iu6UOvx1MDmFmnc6DjqQHMLBvc5YKnBjCzbHCg46kBzCwbHOh4agAzywYHOp4awMyywYGOpwYws2zwKJeUpwYws07nM3Qzs4xwoJuZZYQD3cwsIxzoZmYZ4YuiDfA8L2bWCRzodXieFzPrFO5yqcPzvJhZp3Cg1+F5XsysUzjQ6/A8L2bWKRoKdEnXStokaYuk91dZZ6WkdZLWS/p/zS2zdTzPi5l1iroXRSX1Ap8BXg8MAI9JWhURG8rWmQf8DXBtRLwgKTNpV5rn5dVvuZXc7AXc9eH3eZSLmbWlRka5XAVsiYitAJIeBG4ANpSt80fANyPiBYCIyNQVQ8/zYmadoJEul0XA9rLnA+mycr8GnClpjaTHJd1c6YUk3SZpraS1e/bsObWKzcysokYCvVLfQox6Pg14JfA7wBuBP5P0a2M2irg3IlZExIr+/v5xF2tmZtU10uUyACwpe74Y2FFhnb0RcQQ4IulHwOXAs02p0szM6mrkDP0x4BJJF0rqA24EVo1a5x+B10qaJmkWcDWwsbmltq9CEqzeuIu7V29m9cZdFJLRf8CYmU2+umfoEZGXdAfwMNAL3BcR6yXdnrbfExEbJX0PeApIgM9FxDOTWXi78NQAZtYuGprLJSIeAh4ateyeUc//Cvir5pXWGcqnBoCRUwN4RIyZTSV/UnSCPDWAmbULB/oEeWoAM2sXDvQJ8tQAZtYuHOgTVJoaoH/zt5k38BM+ddMVviBqZi3hG1w0gacGMLN24DN0M7OMcKCbmWWEA93MLCPchz4FCkmwZtNu1u84yMsXzvV86mY2KRzok8xTA5jZVHGXyyQrnxogGDk1gJlZMznQJ5mnBjCzqeJAn2SeGsDMpooDfZJ5agAzmyoO9EnmqQHMbKp4lMsU8NQAZjYVHOgt5jHqZtYsDvQW8hh1M2sm96G3kMeom1kzOdBbyGPUzayZHOgt5DHqZtZMDvQW8hh1M2smB3oLeYy6mTWTR7m0WL0x6h7WaGaNcqC3MQ9rNLPxcJdLG/OwRjMbDwd6G/OwRjMbj4YCXdK1kjZJ2iLp/TXW+1eSCpL+oHkldi8PazSz8agb6JJ6gc8A1wGXATdJuqzKev8VeLjZRXYrD2s0s/Fo5Az9KmBLRGyNiBzwIHBDhfX+BPgG4A7eJvGwRjMbj0YCfRGwvez5QLrsBEmLgDcD99R6IUm3SVorae2ePXvGW2tXKg1rnPfiI1yz7ByHuZlV1UigV0qQGPX8k8CdEVGosO7JjSLujYgVEbGiv7+/0RqtikISrN64i7tXb2b1xl0UktH/LGbWTRoZhz4ALCl7vhjYMWqdFcCDkgDmA9dLykfEt5pSpY3hMepmNlojZ+iPAZdIulBSH3AjsKp8hYi4MCKWRsRS4OvAv3eYTy6PUTez0eoGekTkgTsojl7ZCHwtItZLul3S7ZNdoFXmMepmNlpDH/2PiIeAh0Ytq3gBNCLeMfGyrJ7SGPWjZaHuMepm3c2fFO1QHqNuZqM50DuUx6ib2WiebbGD1Zt618y6iwM9wzyXull3caBnlMepm3Uf96FnlMepm3UfB3pGeZy6WfdxoGeU51I36z4O9IzyOHWz7uOLohlVGqf+6rfcSm72Au768PtGjHLxCBiz7HGgZ1i1ceoeAWOWTe5y6UIeAWOWTQ70LuQRMGbZ5EDvQh4BY5ZNDvQu5BEwZtnki6JdqN4IGPAoGLNO5EDvUrVmavQoGLPO5C4XG8OjYMw6kwPdxvAoGLPO5C4XG6Pe/Urdv27WnhzoNkZpFMzPnt1J9Exj1ozpJ0bBuH/drH25y8XGqHW/Uvevm7UvB7pVVBoFM+/FR7hm2Tknzr7dv27WvtzlYuNSr38d3Mdu1ioOdBuXWv3r4DHsZq3kLhcbl1r96+Ax7Gat1FCgS7pW0iZJWyS9v0L72yQ9lX79VNLlzS/V2kW1/nWo38deSILVG3dx9+rNrN64i0ISU1q7WZbV7XKR1At8Bng9MAA8JmlVRGwoW+054LciYr+k64B7gasno2Brb7X62N0dYza5GjlDvwrYEhFbIyIHPAjcUL5CRPw0IvanTx8BFje3TOsUtWZybKQ7xmfwZqeukYuii4DtZc8HqH32fSvw3UoNkm4DbgM4//zzGyzROkmtmRxrdcdcs+wcn8GbTVAjZ+iV/idVPG2S9NsUA/3OSu0RcW9ErIiIFf39/Y1XaR2lWh97vRtr+IKq2cQ0EugDwJKy54uBHaNXkvTrwOeAGyJiX3PKsyypd2MNf2jJbGIaCfTHgEskXSipD7gRWFW+gqTzgW8Cb4+IZ5tfpmVBvSGP9c7g3b9uVlvdPvSIyEu6A3gY6AXui4j1km5P2+8BPgKcDfyNJIB8RKyYvLKtU9W6sYYnBTObmIY+KRoRDwEPjVp2T9njdwHvam5p1m1qXVBdvXHXif51GNm/PvrAYNat/ElRaysTmRTMXTLW7TyXi3WERm664S4Z63Y+Q7eOUG+EjIc8mjnQrUPUGyHjOWTM3OViHaTWCBnPIWPmM3TLiInOIWOWBQ50y4RaXTIeIWPdwl0ulhnVumQmOkJmMm+pV+u1fSs/Gy8HumVevdvmlXfJwMgumZWXLqjb/36qoVzrQAK439/GzYFumVfrE6hQf4RMrU+oTiSUax1I6r0v+AzexnKgW8OSJAggIoiAIDg+XAyc0vMkiu2FdN0DR4cJSusX24YLCQB7Dg0RFBtKPdYRkMsX23cMHhvxfgBDadsL+44Wt023geJrlOr55Z7DI9oAtGczM/Zs5vyzPsTWUjswb9Z0Zkzv4fhwcmLdGdN7mDtzGmue3VMx7Nds2sN5Z8zk0ef28cQL+09sezRX4IkX9vPFnz1PBBXb7v/p81x14Vn88Be7K772D3+xm0gfV2o7e84MCknw8VXreXb3IYaGE2ZM7+GSBafz0d+9jN4ekU+Cn7+wn617j/Cy+bO54vwz6VHDM2GfbK3S3MgVhmrbjl2vsRWn4qpGozVPxOmnTeMVi86YlNd2oHewJDkZrEeG8hQiSJJimBYfjwzAQgRJBBHF4C2O+gieefEAEZCU2in+Jzt0PA/AI1v3jflFP3R8GICfvzBYsbYjQ8VtN+wcO/VtKai27D5ccdtSKG/bd3RM21Da9uLgsYrblg4Guw8OjWkbTtv2Hs6NWH7R/Dlc1D+H9S/shd5pzJg+jYv653Bx/+kcPl6gb1rPif0I0Deth3PnnsaBY8Ns2HGQobIDQbHG5MTZfaW2jTsPsuy8uSw8Y2bF1154xswTjyu1HcsVeGLbfjbtOnSi/fhwwrO7DvHo1pdYvmQen/juRrbsPkwun9A3rYeLF8zhg9ctoyc9g0+SYN32QZ7fd4SlZ89m+ZJ5DbVZe3Ogt1icCFk4cGyYfCEhn0TxK31cCt6nBw6QTxIKaXvEyWB9auBAxdevFYD59Ey5FNyVait+n/CP2dZ6esQHr1vGH7/nTynMOYc7br/tRIgtXzKPixeMDPuLF8xh+ZJ5ACw9e3bF4F169uwTj6u11XvtWm3P7zty4uBVkssnPL/vCFA8WJbedyifsGX3YdZtH+TKC84kSaJq4AN1DwbWvhzokyQiGMon5AoJQ8MJQ/mEiGDzrkPkCgn5QrHrYbgQHE4DtdqNHErBe3iocvDaxPX0iL59W2DfFq684M4Ry6uFPUwslOu9dq22WgeSWmF/5QVnsm77YNXAh9oHA/AZfDtzoE9AkgTHhgscGy4wlE9Ioth9kSsk5PLJiDPb0pny6D/3rf1VC/tS26mGciOvXa2t3oGk1l8G9c7uax0Map3d9/Sobtj7YDC5HOgNKF3kSyJ4fu+RkyFe1j9aCuxq3ReWXacayhN9z1Z0E9U6u6/Xd1/vYGAT50+KVnAsV2DPoSGe33uEZ148wD8/9xJHhvIcyxXYeeA4g0eHx1zsMptqpYPFzG0/4coLzjwRiqWwn7PhW8x87p/4D6+7ZERolgKffHGahBlpsC5fMq9mG9Q+uy8P+2BsV0699iQJnti2n28+McAT2/aT+NO64+YzdGAoX2Dw6DBHcwUK6Z+EZp1ssrqJJtJ3X6u9kZE5Vl9XBnpEcGgoz+CRYfYfzZ348Ebp4qNZ1rWi777WwaBWV44vxjauawI9SeLEyJK12/aTL/jPObPxmkjffa32b617cVIvxnaLTAd6RHDweJ69h4d46UiOo7niBUuHudmpO9UhnrXa612oncjF2G6SyUAvJMG2fUfYezg35qhvZpOn3qieau31zu4n8kEqmNgnYzvp7D8zgX58uDgy5fBQniQJdgweb3VJZtagemf3E7kYO5FPxjYy1HK8B4vJlIlA3/SrQ7x0pPiBHQ91MutMk3UxdiKfjK13sfZUDhafePO/nLx9OGmvPIVKkzmZWTbVGls/kbHz9bpy6rXXGltfre3xbfsnZyeRkUA3s+w71Q9SlbprypXO4Gu11dsWTu1gsXVv5VlGm8GBbmYdr1rYw8Q+GVuv/VQOFi+bP2fy9kMjK0m6VtImSVskvb9CuyTdnbY/JenK5pdqZjZ+tc7g653dT8Y0Cq9MR95Mys9abwVJvcBngOuAy4CbJF02arXrgEvSr9uAzza5TjOzU1brDL5WWyPbjvdgMZm3CVS92z9JejXwsYh4Y/r8AwAR8Rdl6/wtsCYivpI+3wSsjIid1V73rAuWxes/eN+4C1735DoAll++/MSy0t16ADZveAaASy57xZhta7VN5rbtWpe39bbeduLbjve1e3vE7L5TH2D4tdv/9eMRsaJSWyOB/gfAtRHxrvT524GrI+KOsnW+A/xlRPw4fb4auDMi1o56rdsonsEz57yLXnn9Rx845R+qXHmgm5m1s8kM9EZetZE7yzZ099mIuBe4F2DFihXx1T9+dQNvX9+TZXdHNzNrZxO9SfTXbq/e1shF0QFgSdnzxcCOU1jHzMwmUSOB/hhwiaQLJfUBNwKrRq2zCrg5He3yKuBArf5zMzNrvrpdLhGRl3QH8DDQC9wXEesl3Z623wM8BFwPbAGOAu+cvJLNzKyShnrmI+IhiqFdvuyesscBvLu5pZmZ2Xhk4pOic06bhtpzNkszsymTidkWL+qfw/lnzWLf4Rx7Dw9x6Hi+1SWZmU25TAQ6wPTeHs494zTOPeM0jg8X2Hckx95DQx7OaGZdIzOBXu606b0smjeTRfNmcjSXZ++hHHuPDDE07LsXmVl2ZTLQy83qm8b5Z0/j/LNncfD4MPsO59h/NOdwN7PMyXygl5t72nTmnjadC5nNsVyB/UdzDB4d5uDxYTxzgJl1uq4K9HIz+3qZ2TeThfNmUkiCA8eG2X80x8Fjwxz32buZdaCuDfRyvT3irNl9nDW7D4DhQsKRoTyH068jQ3lyeZ/Cm1l7c6BXML23h3mz+pg3q+/EsqF8gSNDBY7m8hwfLnAsl3BsuEDBN6U2szbhQG/QjGm9zJjWe+IsvmQoX+B4Gu7HhwvkCglDwwlD+QLDBYe9mU0dB/oElYL+DKaPaUuSYChfDPdcPiFXSBguBPnCycfDhYS8g9/MmsCBPol6epRefO2tuV6SBMNJQiEJhgtBISmG/nASFArFtiQJ8knaln4vfZmZgQO9LfT0iBk9tUO/mog02CNIEiikz5MTy4IkIIkofiVlj6O4fXl7BET58/Q9Iop3LEmS0rJm7gEzawYHeoeTxLReteQf8mS4nwz54ORBIdKbVpUOBuXrUbYuVGgn3T5O3vqq0muSbgdjDzIjXmfMsvL1ytpH/YxjD1xjX6vatpW3H1lP1XXGvHb9bSpp5P3rvV61pnq3r6y3/XhqOLVXbK5mncRM5k2iHeh2yk7e/dxTXZq1g0xMn2tmZg50M7PMcKCbmWWEA93MLCMc6GZmGeFANzPLCAe6mVlGONDNzDLCgW5mlhFq9OO7TX9jaQ+w7RQ3nw/sbWI5zeK6GteONUF71tWONUF71tWONUFz67ogIvorNbQs0CdC0tqIWNHqOkZzXY1rx5qgPetqx5qgPetqx5pg6upyl4uZWUY40M3MMqJTA/3eVhdQhetqXDvWBO1ZVzvWBO1ZVzvWBFNUV0f2oZuZ2VideoZuZmajONDNzDKi4wJd0rWSNknaIun9ra6nRNLzkp6WtE7S2hbVcJ+k3ZKeKVt2lqQfSNqcfj+zTer6mKQX0/21TtL1U1zTEkn/V9JGSeslvSdd3tL9VaOulu0vSadJ+mdJT6Y1fTxd3up9Va2ulv5upTX0Svq5pO+kz6dkX3VUH7qkXuBZ4PXAAPAYcFNEbGhpYRQDHVgRES37UIOk3wQOA1+MiFeky/4b8FJE/GV6ADwzIu5sg7o+BhyOiP8+lbWU1XQecF5EPCHpdOBx4PeBd9DC/VWjrrfSov0lScDsiDgsaTrwY+A9wFto7b6qVte1tPB3K63tPwIrgLkR8aap+n/YaWfoVwFbImJrROSAB4EbWlxT24iIHwEvjVp8A3B/+vh+iuEwparU1VIRsTMinkgfHwI2Aoto8f6qUVfLRNHh9On09Cto/b6qVldLSVoM/A7wubLFU7KvOi3QFwHby54P0OJf9jIBfF/S45Jua3UxZc6JiJ1QDAtgQYvrKXeHpKfSLpkp7woqkbQUuAJ4lDbaX6Pqghbur7QLYR2wG/hBRLTFvqpSF7T2d+uTwH8CkrJlU7KvOi3QK91evuVH5NRvRMSVwHXAu9NuBqvus8BFwHJgJ3BXK4qQNAf4BvDeiDjYihoqqVBXS/dXRBQiYjmwGLhK0ium8v2rqVJXy/aVpDcBuyPi8al6z3KdFugDwJKy54uBHS2qZYSI2JF+3w38b4rdQ+1gV9ovW+qf3d3iegCIiF3pf8YE+F+0YH+l/a7fAP4+Ir6ZLm75/qpUVzvsr7SOQWANxX7qlu+rSnW1eF/9BvB76TW1B4HXSfoSU7SvOi3QHwMukXShpD7gRmBVi2tC0uz0AhaSZgNvAJ6pvdWUWQXckj6+BfjHFtZyQumXO/Vmpnh/pRfUPg9sjIi/Lmtq6f6qVlcr95ekfknz0sczgX8D/ILW76uKdbVyX0XEByJicUQspZhPP4yIf8tU7auI6Kgv4HqKI11+CXyo1fWkNb0MeDL9Wt+quoCvUPwTc5jiXzO3AmcDq4HN6fez2qSuB4CngafSX/bzprim11DsrnsKWJd+Xd/q/VWjrpbtL+DXgZ+n7/0M8JF0eav3VbW6Wvq7VVbfSuA7U7mvOmrYopmZVddpXS5mZlaFA93MLCMc6GZmGeFANzPLCAe6mVlGONDNzDLCgW5mlhH/H/Hx+9L2T6P+AAAAAElFTkSuQmCC\n",
      "text/plain": [
       "<Figure size 432x288 with 1 Axes>"
      ]
     },
     "metadata": {
      "needs_background": "light"
     },
     "output_type": "display_data"
    }
   ],
   "source": [
    "fig = tsaplots.plot_acf(unigram_all[1], lags=40)\n",
    "plt.show()"
   ]
  },
  {
   "cell_type": "markdown",
   "metadata": {},
   "source": [
    "## Distribution of Notes in Composed Pieces vs. Original  Bach violin concerto in A minor BWV 1041"
   ]
  },
  {
   "cell_type": "code",
   "execution_count": 39,
   "metadata": {},
   "outputs": [
    {
     "data": {
      "image/png": "iVBORw0KGgoAAAANSUhEUgAAAbsAAAEWCAYAAAD/6zkuAAAABHNCSVQICAgIfAhkiAAAAAlwSFlzAAALEgAACxIB0t1+/AAAADh0RVh0U29mdHdhcmUAbWF0cGxvdGxpYiB2ZXJzaW9uMy4yLjIsIGh0dHA6Ly9tYXRwbG90bGliLm9yZy+WH4yJAAAgAElEQVR4nO3debwdZX3H8c+XAIJsEYk2hISwRGxQlhhZxFpksYBI1CKCIIvYSFlVtEaxFWutuGAVBfIKGhZZIoK0ASKLVooU2YJsIdDGsCQQIEEIBBAa+PWP57kwOTnn3HOGc889d/J9v173dc8sz8xv5szMb55n5swoIjAzM6uy1QY7ADMzs4HmZGdmZpXnZGdmZpXnZGdmZpXnZGdmZpXnZGdmZpXXkWQnaaqkf+zQtMZIWiZpWO6+TtKnOzHtPL1fSTqsU9NrY77/ImmJpMe6Pe/XYzDWl6SvSPpJp8dtYVohacsS5eZI2rUTMbQxzxGS7pe01gDP52RJ53dwesskbd7CeIdLuqHdcquq2uNmL5F0sKRrBmjab5U0V9Ib+h05Ipr+AQ8CLwDPAk8DNwJHAav1V7bBtPZos8x1wKfbnVcuezJwfpmynfwDRud1+JYGw3cFAji9pv8NwOEtTH9sLr/6YC9rndgOB+4GngceA84Ehg92XA1iDWDLBsOuA/4MLAOWAL8ERg5irKcCUxrEtxS4HnhnB+bT8j4E3Ad8qk7/E4DbSmw3N3RoXa2Zl+N/gefycWg6MHawt7maOBtuf12a/2bAK8AZg70u2oz7DOC4/sZrtWb3oYhYD9gUOAX4EvDTFsu2TNLqnZ5mj9gUeDIinmgyznPAoZLGdiWiLpB0IvBt4IvABsBOpHVxraQ1G5Tp5W3g2IhYF3gbMBz4t8EIIp/FHgbU1rj64nszKfn9rMuhnQscWqf/J/OwwXIJsB/wCdJ2uC0wG9h9EGN6VQ9t84cCTwEHtlRTGmSF9XYB8Jl+C7SQNR+kpjYG7EA6A3hH7j4H+Jf8eSPgClIt8E/A70jNpT/LZV4gnX3+A6/VSI4EHiadjfb1Wz1P7zrgW8AtpDPW/wA2zMN2BRbWixfYC3gJ+L88vzsL0/t0/rwa8FXgIeAJ4DxggzysL47DcmxLgJOarKcNcvnFeXpfzdPfIy/zKzmOc+qU3RVYCPwIOLvQ/9WaXT+xPpxjXZb/ds79PwXMJW3AVwOb5v4iHaifyOv0rr7vsk5sxfV1eI7pe3maDwB7Nyi3fo7lgJr+6+b5fip3n0w6GJ0PPAN8mpraBGknfAh4EvhHCttkcdz+vjPSdvt70ra5CPgxsGZheH81u08Xuo8B7qndR/L3NAX4Y473YvL2moe/l9Q68jSwoPD9viGv14eBx4GpwNoNYnkfMK+f+MYDL7Wx7FsD15L22ceBrxTW78Wk7e1ZYA4wsUFcmwDLydtZ7veXpP1wo9p1TIN9prit1ftuSMeb04Erc0w3A1s0iKlv/xvdZN/dGJiZl30e8HeFYU2Xn9Rq88u8DE8CPy4Mq7v/FZbnGFJt8wHSsS9IJ73LgI/n8f4ux/SnHOPGDZZhLCsfN78B/HeO+5q+76DJevgj8Pf5+9+/yXh98zqCtA0/RWrtezfpWPJ0zXqo910elZf9qfxdqo1j8qv5IvdfndRytGmz5St1zS4ibiEdnP+qzuAT87ARwFuBr6Qi8ckc4IciYt2I+E6hzF+Tdoq/aTDLQ0kbzsaknem0FmK8CvhX4Od5ftvWGe3w/Pd+YHPSgfjHNeO8F9iKdBb4T5L+ssEsf0TaeTfPy3MocERE/BrYG3g0x3F4k7C/CfytpK3ajPV9+f/wPI/fS/owad1/lPRd/A64KI/3gVymr4bycdKO2oodgftJJzXfAX4qSXXGew+wFulA8KqIWAb8Ctiz0HsSKeENJ52lvUrSeFIzxcHASNI6HtVPjI2+s5eBz+XYd87Dj+5nWiuRtBHwt8Af6gw+HvgwaRvYmNd2ZiSNIS37j0jfyXbAHbnct0nfx3bAlnkZ/6lBCO8kfQeN4luTtL5uKvRuuOyS1gN+DVyVY94S+E2h7H7ADNL3M5OV9xEAImIh8FtSTa7PocCsiFhSp0jdfabRctU4CPg68CZSMvhmg/H2AG6JiAVNpnUR6Zi1MbA/8K+SirW+usufr49dQTowjyV9ZzPysGb7X58Pk/an8RHRtw9vm/fhn0vajXSifwBp23+ob/ot+gRpfb6F1JT7hUYjSvor0snKDFJyr1dDr7UjMI50/PgBcBJpfW8NHCDpr5uU3ZeUHLclLV/fsf9w+j8mr5AvImI5aRuod4x/TbNMWHvWWtP/JvJZMyvW7P6ZVPta6Qy5dlq8lqk37+cM5ZTaM1ZgGE1qdoWzsvNrhl/HazWV3wBHF4ZtRaoJrl6IY5PC8FuAA+ss1zDgRdJG29fvM8B1+fNKcdaUf3U4KYH8PH8u1uxaiXX1wvBfAUcWulcjn/0AuwH/Q2pWbHrtlZVrdvMKw96Y5/sXdcodAjzWYJqnANcWvqPra4a/+r2RDvgX1czzpXrfcTvfWR72WeCymjPOZjW750lnrY+QkvKIOtvcXGD3QrmRhe/py8X5FcYR6Yx+i0K/nYEHGsRyEjCjSXwvkWrsu9crX7vspMTxhwbjnQz8umb/e6HJdA8B7i9scw8DH6ldx/S/zxxO85rdTwrD9gHuaxDPWbXrqmb4aNKJwHqFft8it8A0W/78HS2mzrVymux/heXZrabMCtsf6VLRdwrd6+ZtaWyd+Y1l5ePmVwvDjwauarIefgL8e2G5/o/G9xj0zWtUod+T5Npo7r4U+GyT7/K9he6Lydefae04t3mdmP4bOLTR8kWUrNllo0hV61rfJWXZayTNlzSlhWk1O+uqHf4QsAbpDPX12jhPrzjt1Uk10j7FuyefJ21wtTYinTnVTqu/Gkg93wb+RlLtWUorsRZtCvxQ0tOS+pqURdpA/5N0tnQ68LikaZLWbzG+V9dHRDyfP9ZbJ0uAjRpcjxiZh/dp9v1vXBye59lfLbTudybpbZKukPSYpGdINf92tqPjI2J4RIyKiIMjYnGdcTYFLius97mkg+lbSQfWP9YpM4KUxGcXyl2V+9fzFLBeo/hINep9gUskbQP9LnujuPrUrs+1mlxn+iUwUtJOpJO4N5KaG2u93n2mlf0S0rYyssl0Ngb+FBHPNomj0fKPBh6KVLOo1XD/K4zT33FvhX0+UqvIk3R4HUlaG/gYuVUlIn5POkn5RD/Tf7zw+YU63Y2+k2axtXKcq7fe1iOd6DVUKtlJejdphd9QOywino2IEyNic+BDwOcLTQLRYJKN+vcZXfg8hpTpl5DOht9YiGsYKx4g+pvuo6SNsjjt5az4pbViSY6pdlqPtDkdIuJJUpPAN2oGNYu13nIuAD6TD859f2tHxI15PqdFxLtITQ5vI91E0km/J525f7TYU9I6pGbdYjNZs+9pEal5pa/82qQbMMo4k3TH4LiIWJ/UzFSvCfb1WEC6jllc72tFxCN52BZ1yiwhHRy2LpTZINLNJvXcRfrO6oqIVyLid6STzg/k3s2WvVFcbcsnI5eQmsE+SapVvVRn1I7tM/34NbCDpE0aDH8U2DA35bYbxwJgTIPE33T/y9o6PuV9580txtaOj5CusZ+RT4YeIx3fW2nK7LRWjskrrLe8/rcE7mw24baSnaT1Je1Latc9PyLurjPOvpK2zNdxniGd1b6cBz9Oaodt1yGSxkt6I6mZ9JKIeJnUFLeWpA9KWoN0YbN4F9HjwFhJjZbzIuBzkjaTtC6vXeOrd6bWUI7lYuCbktaTtCnweVa+W65V3ydd8ypeH2wW62LSDTDFdTsV+LKkrQEkbSDpY/nzuyXtmNfZc6Rb1l+mgyJiKemayo8k7SVpjXyn6S9I10davVPwEuBDkt6Tr0V9nfIJaj3SNrlM0ttJF+M7bSppO9gUXv093KQ87AJgD0kHSFpd0pslbRcRr5Ca2/5N0ltyuVGSGl3DvgUYLqnhGb6knUlNbnNyr2bLfgXwF5I+K+kNeRvesdTSJ+eSruP8LQ3uwhyAfaauSNfMryXVtt+V1/t6ko6S9KlI1/JuBL4laa1cEz6SmmvHDdxCOhk7RdI6ufwueVjD/a+J2uPjhcARkrbLd0f+K3BzRDzY2tK37DDSTzHeSbpmvB2wC7CdpHd2eF79KXNM3gF4MCIeajJOy8nucknPks5WTiIdjBtdSB5HOptaRjq7PyMirsvDvgV8NVftG14sreNnpHb6x0hNNMfDqwfUo0ntzY+QDtwLC+V+kf8/Ken2OtOdnqd9PemOqD8Dx7URV9Fxef7zSTXeC/P02xYRz5Cu3W3YSqz5bPqbwH/ndbtTRFxGahKdkZut7iHVqCCdxZ1Fag7ru8vxe2Vi7Wc5vkOqQXyPdKC9mbQN7R4RL7Y4jTmk5ZxBOrA8S7pLq6XyNb5Aapp5lrT8Py8xjf78kHQTwzV5n7mJdCGfiHiYdH3pRFKz1h28dlH9S6Sa2E35+/o16XrFSnJN6RzS9bGiHyv9sHgZaVv5akT8Kg9ruOy5CW9PUkvMY6S75N5fbvGBtI0uBR6JiFubjNexfaYf+wOzSMu8lLQvTCStY0jXLMeSahWXAV+LiGv7m2hO2B8i1SoeJh17Pp6HNdv/GjkZODfvwwdExG9Idx9fStr2twAObGmJW5RPmHYHfhARjxX+ZpOa0g/r5PxaUOaYfDDp5KKpvts9zYaEfLb3NKk57oHBjmewSOq7w2/7iHhhsOMxGwy5JeS/SPvBn5uO62RnvU7Sh0jX+ER6csiOwITwxmtmLfKDoG0omERqYnqU1Ex+oBOdmbXDNTszM6s81+zMzKzyeuUBpB230UYbxdixYwc7DDOzIWX27NlLIqLRAw2GrMomu7Fjx3LbbbcNdhhmZkOKpKa/Vxuq3IxpZmaV52RnZmaV52RnZmaV52RnZmaV52RnZmaV52RnZmaV52RnZmaV19Vkl99rdr+kearzBnMlp+Xhd0maUBg2XNIlku6TNDe/r8vMzKxfXUt2+S3ip5Pe6TQeOEjS+JrR9iY96HccMJn0duU+PwSuioi3k94BNnfAgzYzs0ro5hNUdgDmRcR8AEkzSE+zv7cwziTgvPxE+5tybW4k6QWP7wMOh1dfXvlSF2M3q4SxU64ctHk/eMoHB23eZt1sxhxFekt1n4W5XyvjbA4sBs6W9AdJP5G0zkAGa2Zm1dHNZKc6/WrfL9RonNWBCcCZEbE9qaZX75rfZEm3Sbpt8eLFrzdeMzOriG42Yy4ERhe6NyG9jLOVcQJYGBE35/6XUCfZRcQ0YBrAxIkT/aI+61mD2ZxotirqZs3uVmCcpM0krQkcCMysGWcmcGi+K3MnYGlELIqIx4AFkrbK4+3Oitf6zMzMGupazS4ilks6FrgaGAZMj4g5ko7Kw6cCs4B9gHnA88ARhUkcB1yQE+X8mmFmZmYNdfV9dhExi5TQiv2mFj4HcEyDsncAEwc0QDMzqyQ/QcXMzCrPyc7MzCrPyc7MzCrPyc7MzCrPyc7MzCrPyc7MzCrPyc7MzCrPyc7MzCrPyc7MzCrPyc7MzCrPyc7MzCrPyc7MzCrPyc7MzCrPyc7MzCrPyc7MzCrPyc7MzCrPyc7MzCrPyc7MzCrPyc7MzCrPyc7MzCrPyc7MzCrPyc7MzCrPyc7MzCrPyc7MzCrPyc7MzCrPyc7MzCqvq8lO0l6S7pc0T9KUOsMl6bQ8/C5JEwrDHpR0t6Q7JN3WzbjNzGxoW71bM5I0DDgd2BNYCNwqaWZE3FsYbW9gXP7bETgz/+/z/ohY0qWQzayDxk65clDm++ApHxyU+Vpv6WbNbgdgXkTMj4iXgBnApJpxJgHnRXITMFzSyC7GaGZmFdTNZDcKWFDoXpj7tTpOANdImi1pcr0ZSJos6TZJty1evLhDYZuZ2VDXtWZMQHX6RRvj7BIRj0p6C3CtpPsi4voVRoyYBkwDmDhxYu20zVYwWM1qZtZ93azZLQRGF7o3AR5tdZyI6Pv/BHAZqVnUzMysX91MdrcC4yRtJmlN4EBgZs04M4FD812ZOwFLI2KRpHUkrQcgaR3gA8A9XYzdzMyGsK41Y0bEcknHAlcDw4DpETFH0lF5+FRgFrAPMA94HjgiF38rcJmkvpgvjIiruhW7mZkNbd28ZkdEzCIltGK/qYXPARxTp9x8YNsBD9DMzCrJT1AxM7PKc7IzM7PKazvZ5SehmJmZDRllanbzJH1X0viOR2NmZjYAyiS7bYD/AX4i6ab81JL1OxyXmZlZx7Sd7CLi2Yg4KyLeA/wD8DVgkaRzJW3Z8QjNzMxep1LX7CTtJ+ky4IfAqcDmwOXU/KzAzMysF5T5nd3/Ar8FvhsRNxb6XyLpfZ0Jy8zMrHPKJLttImJZvQERcfzrjMfMzKzjytygcrqk4X0dkt4kaXoHYzIzM+uoUndjRsTTfR0R8RSwfedCMjMz66wyyW41SW/q65C0IV1+xqaZmVk7yiSpU4EbJV2Suz8GfLNzIZmZmXVW28kuIs6TNBt4P+nN4h+NiHs7HpmZmVmHlG1+vA94qq+8pDER8XDHojIzM+ugtpOdpONIT015HHiZVLsL0mPEzMzMek6Zmt0JwFYR8WSngzEzMxsIZe7GXAAs7XQgZmZmA6VMzW4+cJ2kK4EX+3pGxPc7FpWZmVkHlUl2D+e/NfOfmZlZTyvz04OvA0haJyKe63xIZmZmnVXmFT87S7oXmJu7t5V0RscjMzMz65AyN6j8APgb4EmAiLgT8Kt9zMysZ5VJdkTEgppeL3cgFjMzswFR5gaVBZLeA4SkNYHjyU2aZmZmvahMze4o4BhgFLAQ2C5390vSXpLulzRP0pQ6wyXptDz8LkkTaoYPk/QHSVeUiNvMzFZRZe7GXAIc3G45ScOA04E9SUnyVkkzax4ivTcwLv/tCJyZ//c5gVSLXL/d+ZuZ2aqrzLMxzyY9C3MFEfGpforuAMyLiPl5OjOASUAx2U0CzouIAG6SNFzSyIhYJGkT4IOk1wl9vt24zcxs1VXmml2xCXEt4CPAoy2UG0V61FifhaxYa2s0zihgEeku0H8A1ms0A0mTgckAY8aMaSEkMzNbFZRpxry02C3pIuDXLRRVvcm1Mo6kfYEnImK2pF2bxDYNmAYwceLElWqfZma2air104Ma44BWqlELgdGF7k1YuUbYaJxdgP0kPQjMAHaTdH7ZgM3MbNVS5gkqz0p6pu8/cDnwpRaK3gqMk7RZ/snCgcDMmnFmAofmuzJ3ApZGxKKI+HJEbBIRY3O5/4yIQ9qN3czMVk1lmjEbXjPrp9xySccCVwPDgOkRMUfSUXn4VGAWsA8wD3geOKLMvMzMzIrK3I05odnwiLi9ybBZpIRW7De18Dno5zd7EXEdcF0LoZqZmQHl7sY8A5gA3EW6oWQb4Gbg/0g3nOzWsejMzMw6oMwNKg8C74qIiRHxLmB70u/n3h8RTnRmZtZzyiS7t0fE3X0dEXEP6ZFhZmZmPalMM+ZcST8Bzic1Wx6CHwRtZmY9rEyyOwL4e9JzKgGuJz3D0szMrCeV+enBnyVNBWZFxP0DEJOZmVlHlflR+X7AHcBVuXs7SbU/DjczM+sZZW5Q+RrpDQZPA0TEHcDYDsZkZmbWUWWS3fKIWNrxSMzMzAZImRtU7pH0CWCYpHHA8cCNnQ3LzMysc8rU7I4DtgZeBC4ElgKf7WRQZmZmndRWzU7SMGBmROwBnDQwIZmZmXVWWzW7iHgZeF7SBgMUj5mZWceVuWb3Z+BuSdcCz/X1jIjjOxaVmZlZB5VJdlfmPzMzsyGh5WQn6ZqI+EBEnCvpyxHxrYEMzMzMrFPauWY3ovD5Y50OxMzMbKC0k+xiwKIwMzMbQO1cs9s8PwNThc+vioj9OhqZmZlZh7ST7CYVPn+v04GYmZkNlJaTXUT810AGYmZmNlDKPC7MzMxsSHGyMzOzynOyMzOzymvnR+WX0+TnB74b08zMelU7NbvvAacCDwAvAGflv2XAPa1MQNJeku6XNE/SlDrDJem0PPwuSRNy/7Uk3SLpTklzJH29jbjNzGwV1/bdmJK+ERHvKwy6XNL1/ZXPrwc6HdgTWAjcKmlmRNxbGG1vYFz+2xE4M/9/EdgtIpZJWgO4QdKvIuKmVuM3M7NVV5lrdiMkbd7XIWkzVnyUWCM7APMiYn5EvATMYMXf7pG7z4vkJmC4pJG5e1keZ4385ye6mJlZS8q89eBzwHWS5ufuscBnWig3ClhQ6F5IqrX1N84oYFGuGc4GtgROj4iba2cgaTIwGWDMmDEthGRmZquCtpNdRFwlaRzw9tzrvoh4sYWiqje5VsfJL47dTtJw4DJJ74iIFa4VRsQ0YBrAxIkTXfMzMzOgRDOmpDcCXwSOjYg7gTGS9m2h6EJgdKF7E+DRdseJiKeB64C92ovczMxWVWWu2Z0NvATsnLsXAv/SQrlbgXGSNpO0JnAgMLNmnJnAofmuzJ2ApRGxSNKIXKND0trAHsB9JWI3M7NVUJlrdltExMclHQQQES9Iqtf8uIKIWC7pWOBqYBgwPSLmSDoqD58KzAL2AeYBzwNH5OIjgXPzdbvVgIsj4ooSsZuZ2SqoTLJ7KdeuAkDSFqSfBvQrImaRElqx39TC5wCOqVPuLmD7ErGamZmVSnYnA1cBoyVdAOwCHN7BmMzMzDqqzN2Y10iaDexEunvyhIhY0vHIzMzMOqTM3Zi/AXaMiCsj4oqIWCJp2gDEZmZm1hFlmjE3A74k6d0R0feMyokdjMlWMWOnXDnYIZhZxZX56cHTwO7AWyVdLmmDDsdkZmbWUWWSnSJieUQcDVwK3AC8pbNhmZmZdU6ZZsziTwXOkXQ3dX4uYGZm1ivaeXnr+hHxDPALSRsWBj0AfKHjkZmZmXVIOzW7C4F9SW8eCFZ8aHMAm9crZGZmNtjaeXnrvvn/ZgMXjpmZWee104w5odnwiLj99YdjZtZZg/nTlgdP+eCgzdtW1E4z5qlNhgWw2+uMxczMbEC004z5/oEMxMzMbKCU+ekBkt4BjAfW6usXEed1KigzM7NOajvZSfoasCsp2c0C9ib9sNzJzszMelKZJ6jsT3pc2GMRcQSwLfCGjkZlZmbWQWWS3QsR8QqwXNL6wBP4N3ZmZtbDylyzu03ScOAs0g/MlwG3dDQqMzOzDirz8taj88epkq4C1o+IuzoblpmZWeeUvRtzG2BsX3lJW0bELzsYl5mZWceUuRtzOrANMAd4JfcOwMnOzMx6Upma3U4RMb7jkZiZmQ2QMndj/l6Sk52ZmQ0ZZWp255IS3mPAi6RX/UREbNPRyMzMzDqkTLKbDnwSuJvXrtmZmZn1rDLNmA9HxMyIeCAiHur7a6WgpL0k3S9pnqQpdYZL0ml5+F19rxWSNFrSbyXNlTRH0gkl4jYzs1VUmZrdfZIuBC4nNWMC0N9PDyQNA04H9gQWArdKmhkR9xZG2xsYl/92BM7M/5cDJ0bE7ZLWA2ZLuramrJmZWV1lkt3apCT3gUK/Vn56sAMwLyLmA0iaAUwCiglrEnBeRARwk6ThkkZGxCJgEUBEPCtpLjCqpqyZmVldbSW7XDtbEhFfLDGvUcCCQvdCUq2tv3FGkRNdjmEssD1wc534JgOTAcaMGVMiRDMzq6K2rtlFxMvAhJLzUr1JtjOOpHWBS4HPRsQzdeKbFhETI2LiiBEjSoZpZmZVU6YZ8w5JM4FfAM/19WzhcWELgdGF7k2AR1sdR9IapER3gR9NZmZm7SiT7DYEngR2K/Rr5ZrdrcA4SZsBjwAHAp+oGWcmcGy+nrcjsDQiFkkS8FNgbkR8v0TMZma2Civz1oMjyswoIpZLOha4GhgGTI+IOZKOysOnkt58vg8wD3ge6JvXLuTf9km6I/f7SkTMKhOLmZmtWso8CHoT4EekBBTADcAJEbGwv7I5Oc2q6Te18DmAY+qUu4H61/PMzMz6VeZH5WeTmhs3Jt0peXnuZ2Zm1pPKJLsREXF2RCzPf+cAvvXRzMx6Vplkt0TSIZKG5b9DSDesmJmZ9aQyye5TwAHAY6Qfe++f+5mZmfWkMndjPgzsNwCxmJmZDYiWk52kf2oyOCLiGx2Ix8zMrOPaqdk9V6ffOsCRwJsBJzszM+tJLSe7iDi173N+zc4JpB99zwBObVTOzMxssLX71oMNgc8DBwPnAhMi4qmBCMzMzKxT2rlm913go8A04J0RsWzAojIzM+ugdn56cCLpqSlfBR6V9Ez+e1bSSq/bMTMz6xXtXLMr85s8G0LGTrlysEMwMxsQTmBmZlZ5TnZmZlZ5TnZmZlZ5TnZmZlZ5TnZmZlZ5TnZmZlZ5TnZmZlZ5TnZmZlZ5TnZmZlZ5TnZmZlZ5TnZmZlZ5TnZmZlZ5TnZmZlZ5XU12kvaSdL+keZKm1BkuSafl4XdJmlAYNl3SE5Lu6WbMZmY29HUt2UkaBpwO7A2MBw6SNL5mtL2BcflvMnBmYdg5wF4DH6mZmVVNN2t2OwDzImJ+RLwEzAAm1YwzCTgvkpuA4ZJGAkTE9cCfuhivmZlVRDeT3ShgQaF7Ye7X7jhmZmZt6WayU51+UWKcxjOQJku6TdJtixcvbis4MzOrrm4mu4XA6EL3JsCjJcZpKCKmRcTEiJg4YsSI0oGamVm1dDPZ3QqMk7SZpDWBA4GZNePMBA7Nd2XuBCyNiEVdjNHMzCqoa8kuIpYDxwJXA3OBiyNijqSjJB2VR5sFzAfmAWcBR/eVl3QR8HtgK0kLJR3ZrdjNzGxoW72bM4uIWaSEVuw3tfA5gGMalD1oYKMzM7Oq8hNUzMys8pzszMys8pzszMys8pzszMys8rp6g8pQMnbKlYMy3wdP+eCgzNfMrMpcszMzs8pzsjMzs8pzsjMzs8pzsjMzs8pzsjMzs8pzsjMzs8pzsjMzs8pzsjMzs8pzsjMzs8rzE1TMzAaIn8TUO1yzMzOzynOyMzOzynMzZo8ZrGYPM7Mqc83OzMwqz8nOzMwqz8nOzMwqz8nOzMwqz8nOzMwqz8nOzMwqz8nOzMwqz8nOzMwqr6vJTtJeku6XNE/SlDrDJem0PPwuSRNaLTYfBH0AAAaASURBVGtmZtZI15KdpGHA6cDewHjgIEnja0bbGxiX/yYDZ7ZR1szMrK5u1ux2AOZFxPyIeAmYAUyqGWcScF4kNwHDJY1ssayZmVld3Xw25ihgQaF7IbBjC+OMarEskiaTaoQAyyTd/zri3QhY8jrKDxbH3V2Ou7scdwv07ddVfNMOhdFTupnsVKdftDhOK2WJiGnAtPZDW5mk2yJiYiem1U2Ou7scd3c5biurm8luITC60L0J8GiL46zZQlkzM7O6unnN7lZgnKTNJK0JHAjMrBlnJnBovitzJ2BpRCxqsayZmVldXavZRcRySccCVwPDgOkRMUfSUXn4VGAWsA8wD3geOKJZ2QEOuSPNoYPAcXeX4+4ux22lKGKlS19mZmaV4ieomJlZ5TnZmZlZ5TnZ1RiqjyWT9KCkuyXdIem2wY6nGUnTJT0h6Z5Cvw0lXSvpf/P/Nw1mjPU0iPtkSY/k9X6HpH0GM8Z6JI2W9FtJcyXNkXRC7t/T67xJ3D29ziWtJekWSXfmuL+e+/f0+q46X7MryI8l+x9gT9LPIG4FDoqIewc1sBZIehCYGBE9/4NbSe8DlpGelvOO3O87wJ8i4pR8kvGmiPjSYMZZq0HcJwPLIuJ7gxlbM/kpRCMj4nZJ6wGzgQ8Dh9PD67xJ3AfQw+tckoB1ImKZpDWAG4ATgI/Sw+u76lyzW5EfS9YFEXE98Kea3pOAc/Pnc0kHtZ7SIO6eFxGLIuL2/PlZYC7pqUQ9vc6bxN3T8uMOl+XONfJf0OPru+qc7FbU6HFlQ0EA10ianR+bNtS8Nf+mkvz/LYMcTzuOzW/pmN7rTVOSxgLbAzczhNZ5TdzQ4+tc0jBJdwBPANdGxJBa31XkZLeilh5L1qN2iYgJpDdDHJOb3GzgnQlsAWwHLAJOHdxwGpO0LnAp8NmIeGaw42lVnbh7fp1HxMsRsR3paU87SHrHYMe0qnOyW1ErjzTrSRHxaP7/BHAZqUl2KHk8X6Ppu1bzxCDH05KIeDwf2F4BzqJH13u+dnQpcEFE/DL37vl1Xi/uobLOASLiaeA6YC+GwPquMie7FQ3Jx5JJWidfwEfSOsAHgHual+o5M4HD8ufDgP8YxFha1nfwyj5CD673fMPET4G5EfH9wqCeXueN4u71dS5phKTh+fPawB7AffT4+q46341ZI9/G/ANeeyzZNwc5pH5J2pxUm4P0CLgLezluSRcBu5Jee/I48DXg34GLgTHAw8DHIqKnbgZpEPeupOa0AB4EPtN3XaZXSHov8DvgbuCV3PsrpOtfPbvOm8R9ED28ziVtQ7oBZRipQnFxRPyzpDfTw+u76pzszMys8tyMaWZmledkZ2ZmledkZ2ZmledkZ2ZmledkZ2ZmledkZ6skSSHp1EL3F/JDnZuV+bCk8W3O53BJr+Tb0fv63ZMff/W6SVrW/1hm5mRnq6oXgY9K2qiNMh8G2kp22ULgpBLlBpSk1Qc7BrNucbKzVdVyYBrwudoBkjaV9Jv8oOHfSBoj6T3AfsB38zvUtsh/V+WHb/9O0tsbzOsKYGtJW9WZ17LC5/0lnZM/nyPpzPw+t/mS/jo/9Hhu3ziFcqdKuj3HOiL3qxtbnu73Jf0W+HaJ9WY2JDnZ2arsdOBgSRvU9P8x6Z112wAXAKdFxI2kxz19MSK2i4g/kpLlcRHxLuALwBkN5vMK8B3S0z/a8SZgN1JCvhz4N2Br4J2StsvjrAPcnh8C/l+kp7rQT2xvA/aIiBPbjMdsyHIzhq2yIuIZSecBxwMvFAbtTHrRJsDPSIlqBflJ/O8BfpEe4QjAG5rM7kLgJEmbtRHi5RERku4GHo+Iu/O85wBjgTtIifTnefzzgV+2ENsvIuLlNuIwG/Kc7GxV9wPgduDsJuPUe6beasDT+TUu/YqI5fmGmNo3UxenvVbNsBfz/1cKn/u6G+270UJsz/UfsVm1uBnTVmn5QbwXA0cWet9IeuMFwMHADfnzs8B6udwzwAOSPgbpCf2Stu1ndueQnoA/otDvcUl/KWk10hP827UasH/+/AnghpKxmVWak51Zevln8a7M44EjJN0FfBI4IfefAXxR0h8kbUFKhEdKuhOYA0xqNpOIeAk4jRXfUD2FdAPLf5JeRNqu50g3v8wmXd/759y/rdjMqs5vPTAzs8pzzc7MzCrPyc7MzCrPyc7MzCrPyc7MzCrPyc7MzCrPyc7MzCrPyc7MzCrv/wGnfEEBPOAl+AAAAABJRU5ErkJggg==\n",
      "text/plain": [
       "<Figure size 432x288 with 1 Axes>"
      ]
     },
     "metadata": {
      "needs_background": "light"
     },
     "output_type": "display_data"
    }
   ],
   "source": [
    "plt.hist(current_states, density=True)\n",
    "plt.xlabel('Note Number')\n",
    "plt.ylabel('Normalized Frequency')\n",
    "plt.title('Distribution of Notes in Original Piece (Bach Violin Concerto in A minor)')\n",
    "plt.show()"
   ]
  },
  {
   "cell_type": "code",
   "execution_count": 40,
   "metadata": {},
   "outputs": [
    {
     "data": {
      "image/png": "iVBORw0KGgoAAAANSUhEUgAAAYkAAAEWCAYAAACT7WsrAAAABHNCSVQICAgIfAhkiAAAAAlwSFlzAAALEgAACxIB0t1+/AAAADh0RVh0U29mdHdhcmUAbWF0cGxvdGxpYiB2ZXJzaW9uMy4yLjIsIGh0dHA6Ly9tYXRwbG90bGliLm9yZy+WH4yJAAAgAElEQVR4nO3debwcVZ338c+XAKIQCEhUyEJYAhgYNiPg8jiKiASQKKMzgBgDzBMzgqKDSxw3dFwQxVFmIpmIISAg4sIzATIgolF5ECFBthBwYiZDYgIkLIEEBAO/+eOchkrT1bdukrrduff7fr36dbvqnKr6dd3q/tU5tSkiMDMza2WzTgdgZmbdy0nCzMxKOUmYmVkpJwkzMyvlJGFmZqWcJMzMrNSASxKSpkn67Eaa10hJqyUNysNzJP39xph3nt9/Snr/xppfL5b7JUkrJT3Q18veEJ1aXwaSJkq6sdNxdAtJiyUdvh7Tdd023K+SRP7HPCXpCUmPSbpJ0mRJz3/OiJgcEf9ccV5t/8kRcX9EbBMRz26E2M+SdEnT/MdFxEUbOu9exjECOBMYExGvalH+ZkkhaWrT+BslTaww/1F5+s03WtDZhqwvSadLmivpaUkzW5S/VdK9kp6U9EtJuxTKJOlrkh7Or3MkqYflbZ13MGavT7ybGklb5m38vyStyd+vGZJGdTq2viZppqRn8v//EUnXS9obOvOd70m/ShLZOyJiMLALcDbwSeB7G3shdfzIdYldgIcj4qE2ddYAE/rZF3wZ8CVgRnOBpB2BnwKfBXYA5gI/LFSZBLwT2B/YDzgG+EAPy3s38DRwhKSdNjT4FjF32/b5Y+BY4ERgO9K6mge8tZNBddA5EbENMBx4CJjZ2XDaiIh+8wIWA4c3jTsYeA7YNw/PBL6U3+8IXA08BjwC/IaUOL+fp3kKWA18AhgFBHAqcD/w68K4zfP85gBfBW4BVgH/AeyQy94MLG0VL3Ak8Azwl7y8Owrz+/v8fjPgM8D/kDaqi4Htclkjjvfn2FYCn26znrbL06/I8/tMnv/h+TM/l+OY2WLaNwNLgX8FLiyMvxGYWCHW+3Osq/PrdXn8KcAC4FHgOmCXPF7Av+T5rALubPwvW8RWXF8Tc0zfyPP8b2BchW3oS82fm5QEbioMb53X0955+CZgUqH8VODmHpbzC+DLwG3Ax/K4Q4EHgEGFeu8C7iys1ynAH4GHgSsK21djG3h++8zjf5TnuYq0ze5TmPfLgauAx4Fb82e/sVC+N3A96btxH/C3TdPOytPeAvxzcdqmz9rYrka0WR875/k9AiwE/m+h7Kz8OS4BngDuAvYEPpW3iyXAEU3bQcvvYS4/FphP+t7PAV5dKPsk8Ke8nPuAt/a07nP5+0jb+8PAp2nxW1SoO5P8G5SHjwZWN2/D7b4XuWyfwv/nQeCfKmwnW+X1+HD+/LcCr2y3rfbHlsQ6IuIW0o/a/2lRfGYuGwq8EvinNEm8j/RFe0ek7qRzCtP8NfBq4O0li5xA+sfuDKwFzqsQ47XAV4Af5uXt36LaxPx6C7AbsA3wb0113gjsRdo7+5ykV5cs8l9JiWK3/HkmACdHxM+BccCyHMfENmF/GfgbSXv1MtY35b9D8jJ+K+mdpHV/HOl/8RvgB7neEXmaPYEhwN+RNvAqDiF90XcEzgG+11M3UIl9gDsaAxGxhvQF3KdVeX6/DyUkjSQl20vza0Ke782kVtphheonApfl9x8mtVj+mrR9PQqs0+3Hi7fP/wRGA68gJaRLC3Wn5uW9irSD8XxfuKStST9Al+VpTwC+I2mfwrR/BnYibe+nlH1eUpK4JSKWtKnzA9J3cWdSK+srkoqtjHeQdt62B35P+sHcDBgGfBH496b5tfweStozL+sjpG1tNnBV7g7bCzgdeG2k3oi3k37soc26lzQGOJ+UKHYmJdDhbT7r8yRtA7w3f6bmstLvhaTBwM+Ba/My9wBu6ClW0v94O2BEjnMyKYGX62nPalN6UZK9gZvJe9as25L4ImkvY4+e5sULe2q7tRhXbEmcXSgfQ2ohDKJNS6Kwt3RJU/kcXtgzvgH4YKFsL1LLY/NCHMML5bcAx7f4XINI3RxjCuM+AMzJ718UZ9P0z5eTfnh/mN8XWxJVYt28UP6fwKmF4c2AJ0ldX4cBfyDtZW/Ww/+/uL4mAgsLZS/Ly31VD/No1ZL4XvH/msf9/8LnfZbcqsjDo/OyVLKMzwC35/c75+kPLCx/Rn4/mPQjvkseXkDes83DO7VYr7u1+WxDcp3t8nbwF2Cvps9+Y37/d8Bvmqb/d+DzhWmLn/krlLckvgtc3iauEXkdDC6M+2rj/0D6blxfKHsHqRU6qLCegrTj0dgOyr6HnwWuaNrW/kTarvcgtUwOB7ZoirHduv9c8fORWprP0L4l8WfSnvwDpBbU7i224XbfixOA35fMv12sp5Bavvu1+x4UX/2+JZENIzXJmn2d1LT9maRFkqZUmFe7vaHm8v8BtiDtyW6onfP8ivPenNQCaiiejfQkaQ++2Y7Ali3mNWw9Yvoa8HZJzS2fKrEW7QJ8O59s0Oj6EzAsIn5BaoVMBR6UNF3SthXje359RMST+W2rddKT1UDzMrcldUm0Kt+W1H0QJfObQN6jj4hlwK94YS/+MuA4SS8h7UHeFhGNdbkLcGVhPS0g/bgW1+vz25+kQZLOlvRHSY/zwl7xjqQ9081Zd3stvt8FOKSxrLy895JaHa2mLf6/mz1M+qEqszPwSEQ8URjXvE0+WHj/FLAyXjhhpLEnXPzfln0P19k2I+K5XHdYRCwktTDOAh6SdLmknXPVdut+5+LyIrU0e2rtfiMihkTEqyLi2Ij4Y4s6pd8LUmJtNU1PsX6f1Aq7XNKyfJLFFu0C7fdJQtJrSSv1RafnRcQTEXFmROxG2jv5x0ITt+wLXja+YUTh/UhSBl9J2iN8WSGuQaQvW9X5LiP984vzXsu6X54qVuaYmuf1p17Oh4h4GPgWqT+6qF2srT7nEuAD+UvTeL00Im7KyzkvIl5D6sLZE/h4b2PdQPNJB1qB57tids/jX1Se38+nBUmvJ7U0PiXpgXya8SHACZI2j4h7SD9i41i3qwnSehrXtJ62ioji/664fk8ExpP2jLcjtTYg/dCsIP1Pit0ixW13CfCrpmVtExH/UJi2eVsv83PgYEllXTDLgB1yF0pxfr3eJgvKvofrbJu5+3FEY1kRcVlEvDHXCdKOELRf98uLy5P0MlJXzoZq971YQtoGy6ZrGWtE/CUivhARY4DXk06ymNAuiH6bJCRtK+kY4HJSN85dLeocI2mPvKE8Tsq2jb2TB0n96b11kqQxeUP5IvDjvMfzB2ArSUfnzP0Z4CWF6R4ERhVP123yA+CjknbN/ZiNYxhrexNcjuUK4MuSBudTOf+RdDBrfXyTtLEVj3+0i3UF6cB4cd1OI/1o7gMgaTtJ78nvXyvpkLzO1pCa6Rt8ynEzSZtL2orUJTFI0laFM4SuBPaV9De5zudIB5PvzeUXk3YwhuU9zzMpP1vl/aS+/jHAAfm1L2kHYlyucxmpX/lNpAO2DdNI/7ddcsxDJY1v87EGk7oWH87z/0qjIG8HPwXOkvSyfApm8cfiamBPSe+TtEV+vVbSq1tMO4bC8YxmkY51XU/au31NXteDlU5PPyXSsYqbgK/m9b4f6QD8pWXzrKDse3gFcLTSKc1bkP5XTwM3SdpL0mG5FfdnUgulsa21W/c/Bo6R9EZJW+blbYzf1tLvBen/8ypJH5H0krw+D+kpVklvkfRXeSf1cVLybP99qtovtSm8SM3pp0jdAKuA3wKnse7ZIjN54ZjER/M0a0gHzT5bqDeedPD6MeBjtO5LX2cc655V8TjpzJEdC/UnkvY6HsrzXMwLxyReTmrtPErqYmjMr3h20+dIewkrSD/q27eKo3naFutp+zz9ijy/z5H7++nFMYnCuE/k5U/sKdZc/sU8/jHg0DzufaSzVh7P0zX65d9KOqNpNWlP8FJgm5LYiutrIk195DnGFx1/ymVn5fLi66xC+eHAvaTtaw4wqlAm0vGZR/LrHFocjyCdWfIo6YSI5rLvkH7IIO35Pgdc01RnM1JCv4+0jf8R+EqbbWAb0jG3J0itkwnFdUBqyV7DC2c3fQ24oTD9Xrl8BSnR/AI4oDDt1VQ4uynX3xL4Aql7d02O5wJgZC4fnuf3SP5ck5v+N5c0/S8WF4Y3p3BMjp6/h+8C7iH9RvyKfMYX6fTlW/L6eiTHs3NP6z6Xv5/0e9Hrs5vKtuF234tcti/p+N+jpK7VKRW2kxPy+DWkHdPzittMq5fyhGY2wEn6GunAfmmrYFMgaQ4pqVzQ6Vj6g37b3WRm7UnaW9J+Sg4mdfFc2em4rLt021WZZtZ3BpOOH+1M6gI9l9Q9ZfY8dzeZmVkpdzeZmVmpftXdtOOOO8aoUaM6HYaZ2SZj3rx5KyNiaFl5v0oSo0aNYu7cuZ0Ow8xskyGp3dXy7m4yM7NyThJmZlbKScLMzEo5SZiZWSknCTMzK+UkYWZmpZwkzMyslJOEmZmVcpIwM7NStV5xLelI4Nukp31dEBFnN5Urlx9FeibzxIi4LZcNIT2UZF/SA0VOiYjf1hmvWX8zaso1HVv24rOP7tiybeOprSWRH483lfRIxjGkZ/iOaao2jvS839HAJOD8Qtm3gWsjYm/SM4MX1BWrmZm1Vmd308HAwohYFBHPkJ413fw83vHAxZHcDAyRtJOkbUnP9/0eQEQ8ExGP1RirmZm1UGeSGEZ6JmvD0jyuSp3dSM/VvVDS7yVdIGnrVguRNEnSXElzV6xYsfGiNzOzWo9JqMW45iccldXZHDgI+FBE/E7St4EpwGdfVDliOjAdYOzYsX6CknWlTh4bMNsQdbYklgIjCsPDgWUV6ywFlkbE7/L4H5OShpmZ9aE6k8StwGhJu0raEjgemNVUZxYwIT+I/VBgVUQsj4gHgCWS9sr13grcU2OsZmbWQm3dTRGxVtLpwHWkU2BnRMR8SZNz+TRgNun014WkU2BPLsziQ8ClOcEsaiozM7M+UOt1EhExm5QIiuOmFd4HcFrJtLcDY+uMz8zM2vMV12ZmVspJwszMSjlJmJlZKScJMzMr5SRhZmalnCTMzKyUk4SZmZVykjAzs1JOEmZmVspJwszMSjlJmJlZKScJMzMr5SRhZmalnCTMzKyUk4SZmZVykjAzs1JOEmZmVspJwszMSjlJmJlZKScJMzMr5SRhZmalnCTMzKyUk4SZmZVykjAzs1KbdzoAM+ufRk25piPLXXz20R1Zbn9Va0tC0pGS7pO0UNKUFuWSdF4uv1PSQYWyxZLuknS7pLl1xmlmZq3V1pKQNAiYCrwNWArcKmlWRNxTqDYOGJ1fhwDn578Nb4mIlXXFaGZm7dXZkjgYWBgRiyLiGeByYHxTnfHAxZHcDAyRtFONMZmZWS/UmSSGAUsKw0vzuKp1AviZpHmSJpUtRNIkSXMlzV2xYsVGCNvMzBrqPHCtFuOiF3XeEBHLJL0CuF7SvRHx6xdVjpgOTAcYO3Zs8/zN1tGpg6lmm6o6WxJLgRGF4eHAsqp1IqLx9yHgSlL3lZmZ9aE6k8StwGhJu0raEjgemNVUZxYwIZ/ldCiwKiKWS9pa0mAASVsDRwB31xirmZm1UFt3U0SslXQ6cB0wCJgREfMlTc7l04DZwFHAQuBJ4OQ8+SuBKyU1YrwsIq6tK1YzM2ut1ovpImI2KREUx00rvA/gtBbTLQL2rzM2MzPrmW/LYWZmpXpMEvmiODMzG4CqtCQWSvq6pDG1R2NmZl2lSpLYD/gDcIGkm/PFa9vWHJeZmXWBHpNERDwREd+NiNcDnwA+DyyXdJGkPWqP0MzMOqbSMQlJx0q6Evg2cC6wG3AVTWcumZlZ/1LlFNj/An4JfD0ibiqM/7GkN9UTlpmZdYMqSWK/iFjdqiAiPryR4zEzsy5S5cD1VElDGgOStpc0o8aYzMysS1Q6uykiHmsMRMSjwIH1hWRmZt2iSpLYTNL2jQFJO+BnY5uZDQhVfuzPBW6S9OM8/B7gy/WFZGZm3aLHJBERF0uaB7yF9JCg45qeU21mZv1U1W6je4FHG/UljYyI+2uLyszMukKPSULSh0hXWT8IPEtqTQTpdh1mZtaPVWlJnAHsFREP1x2MmZl1lypnNy0BVtUdiJmZdZ8qLYlFwBxJ1wBPN0ZGxDdri8rMzLpClSRxf35tmV9mZjZAVDkF9gsAkraOiDX1h2RmZt2iyq3CXyfpHmBBHt5f0ndqj8zMzDquyoHrbwFvBx4GiIg7AN8i3MxsAKiSJIiIJU2jnq0hFjMz6zJVDlwvkfR6ICRtCXyY3PVkZmb9W5WWxGTgNGAYsBQ4IA+bmVk/12OSiIiVEfHeiHhlRLwiIk6qevW1pCMl3SdpoaQpLcol6bxcfqekg5rKB0n6vaSrq38kMzPbWKrcu+lC0r2a1hERp/Qw3SBgKvA2UgvkVkmzmu4gOw4YnV+HAOfnvw1nkLq2tu0pTjMz2/iqdDddDVyTXzeQfrBbPvO6ycHAwohYFBHPAJcD45vqjAcujuRmYIiknQAkDQeOBi6o9EnMzGyjq3Ix3U+Kw5J+APy8wryHke771LCUdVsJZXWGActJp95+AhjcbiGSJgGTAEaOHFkhLDMzq6rSKbBNRgNVfo3VYlxzt1XLOpKOAR6KiHk9LSQipkfE2IgYO3To0AphmZlZVVWOSTxB+nFvPEfiAeCTFea9FBhRGB4OLKtY593AsZKOArYCtpV0SUScVGG5Zma2kVQ5u2lwRGxb+LtncxdUiVuB0ZJ2zddXHA/MaqozC5iQz3I6FFgVEcsj4lMRMTwiRuXpfuEEYWbW96q0JA5qVx4Rt5WMXyvpdOA6YBAwIyLmS5qcy6cBs4GjgIXAk8DJvQvfzMzqVOWK6+8ABwF3krqc9gN+B/yF1P10WNmEETGblAiK46YV3gc9XJgXEXOAORXiNDOzjazKgevFwGvyweHXAAeSTm19S0SUJggzM9v0VUkSe0fEXY2BiLibdGsOMzPr56p0Ny2QdAFwCal76SR8gz8zswGhSpI4GfgH0i0yAH5Nun2GmZn1c1WuuP6zpGnA7Ii4rw9iMjOzLlHl8aXHArcD1+bhAyQ1X+9gZmb9UJUD158n3azvMYCIuB0YVWNMZmbWJaokibURsar2SMzMrOtUOXB9t6QTgUGSRpMeX3pTvWGZmVk3qNKS+BCwD/A0cBmwCvhInUGZmVl3aNuSyE+XmxURhwOf7puQzMysW7RtSUTEs8CTkrbro3jMzKyLVDkm8WfgLknXA2saIyPiw7VFZWZmXaFKkmg839rMzAaY0iQh6WcRcUREXCTpUxHx1b4MzMzMOq/dMYniA6PfU3cgZmbWfdolieizKMzMrCu1OyaxW75HkwrvnxcRx9YamZmZdVy7JDG+8P4bdQdiZmbdpzRJRMSv+jIQMzPrPlVuy2FmZgOUk4SZmZVykjAzs1LtLqa7ijanwfrsJjOz/q/d2U2NM5qOA14FXJKHTwAW1xiTmZl1idLupoj4VT7D6cCI+LuIuCq/TgTeWGXmko6UdJ+khZKmtCiXpPNy+Z2SDsrjt5J0i6Q7JM2X9IX1/YBmZrb+qhyTGCppt8aApF1Z95YdLeVnUUwFxgFjgBMkjWmqNg4YnV+TgPPz+KeBwyJif+AA4EhJh1aI1czMNqIqd4H9KDBH0qI8PAr4QIXpDgYWRsQiAEmXky7Qu6dQZzxwcUQEcLOkIZJ2iojlwOpcZ4v88m1CzMz6WI9JIiKuzc+23juPujcinq4w72HAksLwUuCQCnWGActzS2QesAcwNSJ+12ohkiaRWiGMHDmyQlhmZlZVj91Nkl4GfBw4PSLuAEZKOqbCvNViXHNroLRORDwbEQcAw4GDJe3baiERMT0ixkbE2KFDe+wFMzOzXqhyTOJC4BngdXl4KfClCtMtBUYUhocDy3pbJyIeA+YAR1ZYppmZbURVksTuEXEO8BeAiHiK1i2AZrcCoyXtKmlL4HhgVlOdWcCEfJbTocCqiFguaaikIQCSXgocDtxb7SOZmdnGUuXA9TP5hzoAJO1OOvuorYhYK+l04DpgEDAjIuZLmpzLpwGzgaOAhcCTwMl58p2Ai/Jxic2AKyLi6l59MjMz22BVksRZwLXACEmXAm8AJlaZeUTMJiWC4rhphfcBnNZiujuBA6ssw8zM6lPl7KafSZoHHErqZjojIlbWHpmZmXVclbObbgAOiYhrIuLqiFgpaXofxGZmZh1WpbtpV+CTkl4bEY3bY4ytMSbr50ZNuabTIZhZRVXObnoMeCvwSklXSdqu5pjMzKxLVEkSioi1EfFB4CfAjcAr6g3LzMy6QZXupuLZSDMl3UWLM5LMzKz/affQoW0j4nHgR5J2KBT9N/Cx2iMzM7OOa9eSuAw4hnSTvWDdq6wD2K3VRGZm1n+UJomIOCb/3bXvwjEzs27SrrvpoHYTRsRtGz8cM7MN08lTrBeffXTHll2Xdt1N57YpC+CwjRyLmZl1mXbdTW/py0DMzKz7VDkFlvzAnzHAVo1xEXFxXUGZmVl36DFJSPo88GZSkpgNjCNdUOckYWbWz1W54vrdpNtyPBARJwP7Ay+pNSozM+sKVZLEUxHxHLBW0rbAQ/gaCTOzAaHKMYm5+VGi3yVdWLcauKXWqMzMrCtUeejQB/PbaZKuBbbNT44zM7N+rurZTfsBoxr1Je0RET+tMS4zM+sCVc5umgHsB8wHnsujA3CSMDPr56q0JA6NiDG1R2JmZl2nytlNv5XkJGFmNgBVaUlcREoUDwBPk24ZHhGxX62RmZlZx1VJEjOA9wF38cIxCTMzGwCqJIn7I2JW7ZGYmVnXqXJM4l5Jl0k6QdJxjVeVmUs6UtJ9khZKmtKiXJLOy+V3Np5hIWmEpF9KWiBpvqQzevm5zMxsI6jSkngp6VjEEYVxPZ4CK2kQMBV4G7AUuFXSrIi4p1BtHDA6vw4Bzs9/1wJnRsRtkgYD8yRd3zStmZnVrG2SyD/0KyPi4+sx74OBhRGxKM/rcmA8UPyhHw9cHBEB3CxpiKSdImI5sBwgIp6QtAAY1jStmZnVrG13U0Q8C7R9jGkbw4AlheGleVyv6kgaBRwI/K7VQiRNkjRX0twVK1asZ6hmZtZKle6m2yXNAn4ErGmMrHBbDrUYF72pI2kb4CfARyLi8VYLiYjpwHSAsWPHNs/fzMw2QJUksQPwMOs+07rKbTmWAiMKw8OBZVXrSNqClCAu9X2izMw6o8pdYE9ez3nfCoyWtCvwJ+B44MSmOrOA0/PxikOAVRGxXJKA7wELIuKb67l8MzPbQD2eAitpuKQrJT0k6UFJP5E0vKfpImItcDpwHbAAuCIi5kuaLGlyrjYbWAQsJD2vonFb8jeQLuA7TNLt+XVU7z+emZltiCrdTRcClwHvycMn5XFv62nCiJhNSgTFcdMK7wM4rcV0N9L6eIWZmfWhKhfTDY2ICyNibX7NBIbWHJeZmXWBKklipaSTJA3Kr5NIB7LNzKyfq5IkTgH+FniAdIHbu/M4MzPr56qc3XQ/cGwfxGJmZl2mNElI+lyb6SIi/rmGeMzMrIu0a0msaTFua+BU4OWAk4SZWT9XmiQi4tzG+3wn1jOAk4HLgXPLpjMzs/6jp7vA7gD8I/Be0mNMD4qIR/siMDMz67x2xyS+DhxHunneX0XE6j6LyszMukK7U2DPBHYGPgMsk/R4fj0hqeUdWc3MrH9pd0yiyjUUZmbWj1W5d5P1U6OmXNPpEMysy7m1YGZmpZwkzMyslJOEmZmVcpIwM7NSThJmZlbKScLMzEo5SZiZWSknCTMzK+UkYWZmpZwkzMyslJOEmZmVcpIwM7NSThJmZlaq1iQh6UhJ90laKGlKi3JJOi+X3ynpoELZDEkPSbq7zhjNzKxcbUlC0iBgKjAOGAOcIGlMU7VxwOj8mgScXyibCRxZV3xmZtazOlsSBwMLI2JRRDwDXA6Mb6ozHrg4kpuBIZJ2AoiIXwOP1BifmZn1oM4kMQxYUhhemsf1tk5bkiZJmitp7ooVK9YrUDMza63OJKEW42I96rQVEdMjYmxEjB06dGhvJjUzsx7UmSSWAiMKw8OBZetRx8zMOqTOJHErMFrSrpK2BI4HZjXVmQVMyGc5HQqsiojlNcZkZma9UFuSiIi1wOnAdcAC4IqImC9psqTJudpsYBGwEPgu8MHG9JJ+APwW2EvSUkmn1hWrmZm1tnmdM4+I2aREUBw3rfA+gNNKpj2hztjMzKxnvuLazMxKOUmYmVkpJwkzMyvlJGFmZqWcJMzMrJSThJmZlXKSMDOzUrVeJ7EpGTXlmo4sd/HZR3dkuWZmVbglYWZmpZwkzMyslJOEmZmVcpIwM7NSThJmZlbKZzeZmW0k/fEsSbckzMyslJOEmZmVcpIwM7NSPibRYZ3qwzQzq8ItCTMzK+UkYWZmpZwkzMyslJOEmZmVcpIwM7NSThJmZlbKScLMzErVmiQkHSnpPkkLJU1pUS5J5+XyOyUdVHVaMzOrX21JQtIgYCowDhgDnCBpTFO1ccDo/JoEnN+Lac3MrGZ1tiQOBhZGxKKIeAa4HBjfVGc8cHEkNwNDJO1UcVozM6tZnbflGAYsKQwvBQ6pUGdYxWkBkDSJ1AoBWC3pvvWMd0dg5XpO20mOu2857r7luCvQ1zZo8l3aFdaZJNRiXFSsU2XaNDJiOjC9d6G9mKS5ETF2Q+fT1xx333Lcfctxd16dSWIpMKIwPBxYVrHOlhWmNTOzmtV5TOJWYLSkXSVtCRwPzGqqMwuYkM9yOhRYFRHLK05rZmY1q60lERFrJZ0OXAcMAmZExHxJk3P5NGA2cBSwEHgSOLndtHXFmm1wl1WHOO6+5bj7luPuMEW07Oo3MzPzFddmZlbOScLMzEoN+CSxKd/+Q9JiSXdJul3S3E7HU0bSDEkPSbq7MG4HSddL+q/8d/tOxthKSdxnSfpTXue3SzqqkzG2ImmEpF9KWiBpvqQz8viuXudt4u7qdS5pK0m3SLojx/2FPL6r13dVA/qYRL79xx+At/hYZYcAAATiSURBVJFOx70VOCEi7uloYBVJWgyMjYiuvthI0puA1aSr6/fN484BHomIs3Ny3j4iPtnJOJuVxH0WsDoivtHJ2NrJdy3YKSJukzQYmAe8E5hIF6/zNnH/LV28ziUJ2DoiVkvaArgROAM4ji5e31UN9JaEb//RByLi18AjTaPHAxfl9xeRfgy6SkncXS8ilkfEbfn9E8AC0l0Munqdt4m7q+XbCq3Og1vkV9Dl67uqgZ4kym4LsqkI4GeS5uXbk2xKXpmviSH/fUWH4+mN0/Ndi2d0exeCpFHAgcDv2ITWeVPc0OXrXNIgSbcDDwHXR8Qmtb7bGehJovLtP7rUGyLiINLdck/L3SNWr/OB3YEDgOXAuZ0Np5ykbYCfAB+JiMc7HU9VLeLu+nUeEc9GxAGku0McLGnfTse0sQz0JFHl1iFdKyKW5b8PAVeSus82FQ/mPuhGX/RDHY6nkoh4MP8gPAd8ly5d57lv/CfApRHx0zy669d5q7g3lXUOEBGPAXOAI9kE1ncVAz1JbLK3/5C0dT64h6StgSOAu9tP1VVmAe/P798P/EcHY6ms8aXP3kUXrvN8IPV7wIKI+GahqKvXeVnc3b7OJQ2VNCS/fylwOHAvXb6+qxrQZzcB5NPpvsULt//4codDqkTSbqTWA6Tbq1zWrbFL+gHwZtLtkx8EPg/8P+AKYCRwP/CeiOiqg8Qlcb+Z1O0RwGLgA41+524h6Y3Ab4C7gOfy6H8i9e937TpvE/cJdPE6l7Qf6cD0INKO9xUR8UVJL6eL13dVAz5JmJlZuYHe3WRmZm04SZiZWSknCTMzK+UkYWZmpZwkzMyslJOEDQiSQtK5heGP5Zv1tZvmnZLG9HI5EyU9l0+LbIy7O99mYoNJWt1zLbONx0nCBoqngeMk7diLad4J9CpJZEuBT6/HdLWSVNvjiq3/cpKwgWIt6bnDH20ukLSLpBvyDeRukDRS0uuBY4Gv52cY7J5f1+YbKv5G0t4ly7oa2EfSXi2Wtbrw/t2SZub3MyWdn5+nsEjSX+eb2S1o1ClMd66k23KsQ/O4lrHl+X5T0i+Br63HerMBzknCBpKpwHslbdc0/t9Iz4zYD7gUOC8ibiLdVuHjEXFARPyRlGQ+FBGvAT4GfKdkOc8B55CuFu6N7YHDSInsKuBfgH2Av5J0QK6zNXBbvrHjr0hXgdNDbHsCh0fEmb2Mxww3P23AiIjHJV0MfBh4qlD0OtIDYgC+T/qBX0e+M+nrgR+lWwwB8JI2i7sM+LSkXXsR4lUREZLuAh6MiLvysucDo4DbSQnoh7n+JcBPK8T2o4h4thdxmD3PScIGmm8BtwEXtqnT6l41mwGP5dtB9ygi1uYD5c1PIivOe6umsqfz3+cK7xvDZd/VqBDbmp4jNmvN3U02oOQbrF0BnFoYfRPpDsAA7yU9fhLgCWBwnu5x4L8lvQfSHUsl7d/D4maS7gg6tDDuQUmvlrQZ6Y6mvbUZ8O78/kTgxvWMzawSJwkbiM4l3dm14cPAyZLuBN5Hej4xpMfZflzS7yXtTkogp0q6A5hPD4+6zY/EPY91n0g2hXRg+xekB+j01hrSQfF5pOMXX8zjexWbWVW+C6yZmZVyS8LMzEo5SZiZWSknCTMzK+UkYWZmpZwkzMyslJOEmZmVcpIwM7NS/wseBHgVHfb8dQAAAABJRU5ErkJggg==\n",
      "text/plain": [
       "<Figure size 432x288 with 1 Axes>"
      ]
     },
     "metadata": {
      "needs_background": "light"
     },
     "output_type": "display_data"
    }
   ],
   "source": [
    "result = sum(unigram_all, [])\n",
    "plt.hist(result, density=True)\n",
    "plt.xlabel('Note Number')\n",
    "plt.ylabel('Normalized Frequency')\n",
    "plt.title('Distribution of Notes in 100 Averaged Composed Pieces')\n",
    "plt.show()"
   ]
  },
  {
   "cell_type": "markdown",
   "metadata": {},
   "source": [
    "## Levenshtein/Edit Distance (Originality)"
   ]
  },
  {
   "cell_type": "code",
   "execution_count": 41,
   "metadata": {},
   "outputs": [],
   "source": [
    "def levenshtein(a,b):\n",
    "    \"Calculates the Levenshtein distance between a and b.\"\n",
    "    n, m = len(a), len(b)\n",
    "    if n > m:\n",
    "        # Make sure n <= m, to use O(min(n,m)) space\n",
    "        a,b = b,a\n",
    "        n,m = m,n\n",
    "        \n",
    "    current = range(n+1)\n",
    "    for i in range(1,m+1):\n",
    "        previous, current = current, [i]+[0]*n\n",
    "        for j in range(1,n+1):\n",
    "            add, delete = previous[j]+1, current[j-1]+1\n",
    "            change = previous[j-1]\n",
    "            if a[j-1] != b[i-1]:\n",
    "                change = change + 1\n",
    "            current[j] = min(add, delete, change)\n",
    "            \n",
    "    return current[n]"
   ]
  },
  {
   "cell_type": "code",
   "execution_count": 42,
   "metadata": {},
   "outputs": [],
   "source": [
    "all_edit_distances = []\n",
    "for i in range(100):\n",
    "    all_edit_distances.append(levenshtein(current_states, unigram_all[i]))"
   ]
  },
  {
   "cell_type": "code",
   "execution_count": 43,
   "metadata": {},
   "outputs": [
    {
     "data": {
      "text/plain": [
       "2300.1"
      ]
     },
     "execution_count": 43,
     "metadata": {},
     "output_type": "execute_result"
    }
   ],
   "source": [
    "# average edit distance across 100 generated pieces\n",
    "sum(all_edit_distances)/(len(all_edit_distances))"
   ]
  },
  {
   "cell_type": "markdown",
   "metadata": {},
   "source": [
    "## Consonance & Dissonance"
   ]
  },
  {
   "cell_type": "code",
   "execution_count": 44,
   "metadata": {},
   "outputs": [
    {
     "name": "stdout",
     "output_type": "stream",
     "text": [
      "Proportion of dissonant intervals: 0.2544594102657444\n",
      "Proportion of thirds intervals: 0.06334182744812522\n",
      "Proportion of fourths & fifths intervals: 0.05424099017109574\n"
     ]
    }
   ],
   "source": [
    "# original piece\n",
    "\n",
    "# proportion of dissonant intervals\n",
    "original_intervals = abs_intervals(current_states)\n",
    "print('Proportion of dissonant intervals:', proportion_dissonance(original_intervals))\n",
    "\n",
    "# proportion of thirds\n",
    "print('Proportion of thirds intervals:', proportion_thirds(original_intervals))\n",
    "\n",
    "# proportion fourths & fifths\n",
    "print('Proportion of fourths & fifths intervals:', proportion_fourths_fifths(original_intervals))\n"
   ]
  },
  {
   "cell_type": "code",
   "execution_count": 45,
   "metadata": {},
   "outputs": [],
   "source": [
    "# average over composed pieces\n",
    "dissonant_ratios = []\n",
    "thirds_ratios = []\n",
    "fourths_fifths_ratios = []\n",
    "\n",
    "for i in range(100):\n",
    "    intervals = abs_intervals(unigram_all[i])\n",
    "    dissonant_ratios.append(proportion_dissonance(intervals))\n",
    "    thirds_ratios.append(proportion_thirds(intervals))\n",
    "    fourths_fifths_ratios.append(proportion_fourths_fifths(intervals))"
   ]
  },
  {
   "cell_type": "code",
   "execution_count": 46,
   "metadata": {},
   "outputs": [
    {
     "name": "stdout",
     "output_type": "stream",
     "text": [
      "Proportion of dissonant intervals: 0.25597600872410037\n",
      "Proportion of thirds intervals: 0.06373318793166119\n",
      "Proportion of fourths & fifths intervals: 0.05392221010541623\n"
     ]
    }
   ],
   "source": [
    "print('Proportion of dissonant intervals:', sum(dissonant_ratios)/len(dissonant_ratios))\n",
    "\n",
    "# proportion of thirds\n",
    "print('Proportion of thirds intervals:', sum(thirds_ratios)/len(thirds_ratios))\n",
    "\n",
    "# proportion fourths & fifths\n",
    "print('Proportion of fourths & fifths intervals:', sum(fourths_fifths_ratios)/len(fourths_fifths_ratios))"
   ]
  }
 ],
 "metadata": {
  "kernelspec": {
   "display_name": "Python 3",
   "language": "python",
   "name": "python3"
  },
  "language_info": {
   "codemirror_mode": {
    "name": "ipython",
    "version": 3
   },
   "file_extension": ".py",
   "mimetype": "text/x-python",
   "name": "python",
   "nbconvert_exporter": "python",
   "pygments_lexer": "ipython3",
   "version": "3.8.3"
  }
 },
 "nbformat": 4,
 "nbformat_minor": 5
}
